<?xml version="1.0" encoding="utf-8"?>
<!-- Generator: Adobe Illustrator 16.0.0, SVG Export Plug-In . SVG Version: 6.00 Build 0)  -->
<!DOCTYPE svg PUBLIC "-//W3C//DTD SVG 1.1//EN" "http://www.w3.org/Graphics/SVG/1.1/DTD/svg11.dtd">
<svg version="1.1" id="Layer_1" xmlns="http://www.w3.org/2000/svg" xmlns:xlink="http://www.w3.org/1999/xlink" x="0px" y="0px"
	 width="150px" height="150px" viewBox="0 0 150 150" enable-background="new 0 0 150 150" xml:space="preserve">
<g>
	<circle fill="none" stroke="#FFFFFF" stroke-miterlimit="10" cx="53.74" cy="67.859" r="42.52"/>
	<circle fill="none" stroke="#FFFFFF" stroke-miterlimit="10" cx="96.26" cy="67.859" r="42.52"/>
	<circle fill="none" stroke="#FFFFFF" stroke-miterlimit="10" cx="75.017" cy="104.648" r="42.52"/>
	<line fill="none" stroke="#FFFFFF" stroke-miterlimit="10" x1="32.497" y1="104.648" x2="109.648" y2="27.499"/>
	<line fill="none" stroke="#FFFFFF" stroke-miterlimit="10" x1="117.537" y1="104.648" x2="40.386" y2="27.499"/>
	<line fill="none" stroke="#FFFFFF" stroke-miterlimit="10" x1="75.017" y1="31.042" x2="53.74" y2="67.832"/>
	<line fill="none" stroke="#FFFFFF" stroke-miterlimit="10" x1="53.74" y1="67.832" x2="96.26" y2="67.832"/>
	<line fill="none" stroke="#FFFFFF" stroke-miterlimit="10" x1="96.26" y1="67.832" x2="75.017" y2="31.042"/>
	<line fill="none" stroke="#FFFFFF" stroke-miterlimit="10" x1="53.74" y1="67.832" x2="53.74" y2="25.34"/>
	<line fill="none" stroke="#FFFFFF" stroke-miterlimit="10" x1="53.74" y1="25.34" x2="96.26" y2="25.34"/>
	<line fill="none" stroke="#FFFFFF" stroke-miterlimit="10" x1="96.26" y1="25.34" x2="96.26" y2="67.859"/>
	<line fill="none" stroke="#FFFFFF" stroke-miterlimit="10" x1="53.74" y1="67.859" x2="40.386" y2="27.499"/>
	<line fill="none" stroke="#FFFFFF" stroke-miterlimit="10" x1="40.386" y1="27.499" x2="75.017" y2="2.831"/>
	<line fill="none" stroke="#FFFFFF" stroke-miterlimit="10" x1="96.26" y1="67.859" x2="109.648" y2="27.499"/>
	<line fill="none" stroke="#FFFFFF" stroke-miterlimit="10" x1="109.648" y1="27.499" x2="75.017" y2="2.831"/>
	<line fill="none" stroke="#FFFFFF" stroke-miterlimit="10" x1="75.017" y1="2.831" x2="75.063" y2="104.648"/>
	<circle fill="none" stroke="#FFFFFF" stroke-miterlimit="10" cx="53.74" cy="67.859" r="42.52"/>
</g>
</svg>
