<?xml version="1.0" encoding="utf-8"?>
<!-- Generator: Adobe Illustrator 16.0.0, SVG Export Plug-In . SVG Version: 6.00 Build 0)  -->
<!DOCTYPE svg PUBLIC "-//W3C//DTD SVG 1.1//EN" "http://www.w3.org/Graphics/SVG/1.1/DTD/svg11.dtd">
<svg version="1.1" id="A_thumbFruit" xmlns="http://www.w3.org/2000/svg" xmlns:xlink="http://www.w3.org/1999/xlink" x="0px"
	 y="0px" width="150px" height="150px" viewBox="0 0 150 150" enable-background="new 0 0 150 150" xml:space="preserve">
<g>
	<g>
		<g id="rotation_1_10_">
			<path fill="none" stroke="#FFFFFF" stroke-width="0.1" stroke-miterlimit="10" d="M89.547,89.554
				c0,8.043-6.517,14.553-14.551,14.553c-8.052,0-14.562-6.51-14.562-14.553c0-8.042,6.498-14.555,14.562-14.555
				C83.029,74.999,89.547,81.51,89.547,89.554z"/>
			<path fill="none" stroke="#FFFFFF" stroke-width="0.1" stroke-miterlimit="10" d="M102.159,82.278
				c0,8.038-6.521,14.552-14.552,14.552c-8.041,0-14.562-6.514-14.562-14.552c0-8.042,6.521-14.555,14.562-14.555
				C95.639,67.723,102.159,74.236,102.159,82.278z"/>
			<path fill="none" stroke="#FFFFFF" stroke-width="0.1" stroke-miterlimit="10" d="M102.156,67.727
				c0,8.038-6.518,14.552-14.551,14.552c-8.04,0-14.563-6.512-14.563-14.552c0-8.047,6.523-14.56,14.563-14.56
				C95.639,53.167,102.156,59.679,102.156,67.727z"/>
			<path fill="none" stroke="#FFFFFF" stroke-width="0.1" stroke-miterlimit="10" d="M89.547,60.445
				c0,8.042-6.517,14.552-14.551,14.552c-8.052,0-14.562-6.511-14.562-14.552c0-8.04,6.498-14.556,14.562-14.556
				C83.029,45.891,89.547,52.404,89.547,60.445z"/>
			<path fill="none" stroke="#FFFFFF" stroke-width="0.1" stroke-miterlimit="10" d="M76.942,67.727
				c0,8.038-6.521,14.552-14.552,14.552c-8.051,0-14.592-6.512-14.592-14.552c0-8.047,6.517-14.56,14.592-14.56
				C70.421,53.167,76.942,59.679,76.942,67.727z"/>
			<path fill="none" stroke="#FFFFFF" stroke-width="0.1" stroke-miterlimit="10" d="M76.942,82.278
				c0,8.038-6.521,14.552-14.552,14.552c-8.051,0-14.592-6.514-14.592-14.552c0-8.042,6.517-14.555,14.592-14.555
				C70.421,67.723,76.942,74.236,76.942,82.278z"/>
		</g>
		<g id="rotation_2_8_">
			<path fill="none" stroke="#FFFFFF" stroke-width="0.1" stroke-miterlimit="10" d="M76.942,53.167
				c0,8.045-6.521,14.556-14.552,14.556c-8.051,0-14.592-6.511-14.592-14.556c0-8.04,6.517-14.552,14.592-14.552
				C70.421,38.613,76.942,45.124,76.942,53.167z"/>
			<path fill="none" stroke="#FFFFFF" stroke-width="0.1" stroke-miterlimit="10" d="M64.335,74.999
				c0,8.045-6.499,14.552-14.55,14.552c-8.05,0-14.562-6.507-14.562-14.552c0-8.04,6.512-14.552,14.562-14.552
				C57.817,60.445,64.335,66.959,64.335,74.999z"/>
			<path fill="none" stroke="#FFFFFF" stroke-width="0.1" stroke-miterlimit="10" d="M76.942,96.834
				c0,8.037-6.521,14.549-14.552,14.549c-8.051,0-14.592-6.511-14.592-14.549c0-8.042,6.517-14.556,14.592-14.556
				C70.421,82.274,76.942,88.792,76.942,96.834z"/>
			<path fill="none" stroke="#FFFFFF" stroke-width="0.1" stroke-miterlimit="10" d="M102.159,96.834
				c0,8.037-6.521,14.549-14.552,14.549c-8.041,0-14.562-6.511-14.562-14.549c0-8.042,6.521-14.556,14.562-14.556
				C95.639,82.274,102.159,88.792,102.159,96.834z"/>
			<path fill="none" stroke="#FFFFFF" stroke-width="0.1" stroke-miterlimit="10" d="M114.766,74.999
				c0,8.045-6.499,14.552-14.551,14.552c-8.042,0-14.56-6.507-14.56-14.552c0-8.04,6.518-14.552,14.56-14.552
				C108.25,60.445,114.766,66.959,114.766,74.999z"/>
			<path fill="none" stroke="#FFFFFF" stroke-width="0.1" stroke-miterlimit="10" d="M102.156,53.167
				c0,8.045-6.518,14.556-14.551,14.556c-8.04,0-14.563-6.511-14.563-14.556c0-8.04,6.523-14.552,14.563-14.552
				C95.639,38.613,102.156,45.124,102.156,53.167z"/>
		</g>
		<g id="rotation_4_8_">
			<path fill="none" stroke="#FFFFFF" stroke-width="0.1" stroke-miterlimit="10" d="M76.942,38.613
				c0,8.042-6.521,14.552-14.552,14.552c-8.051,0-14.592-6.511-14.592-14.552c0-8.043,6.517-14.556,14.592-14.556
				C70.421,24.057,76.942,30.571,76.942,38.613z"/>
			<path fill="none" stroke="#FFFFFF" stroke-width="0.1" stroke-miterlimit="10" d="M64.332,45.895
				c0,8.038-6.499,14.552-14.55,14.552c-8.049,0-14.56-6.515-14.56-14.552c0-8.043,6.511-14.556,14.56-14.556
				C57.817,31.339,64.332,37.852,64.332,45.895z"/>
			<path fill="none" stroke="#FFFFFF" stroke-width="0.1" stroke-miterlimit="10" d="M51.729,67.727
				c0,8.041-6.516,14.552-14.554,14.552s-14.56-6.512-14.56-14.552c0-8.047,6.517-14.56,14.56-14.56
				C45.214,53.167,51.729,59.679,51.729,67.727z"/>
			<path fill="none" stroke="#FFFFFF" stroke-width="0.1" stroke-miterlimit="10" d="M51.729,82.278
				c0,8.042-6.516,14.552-14.55,14.552c-8.042,0-14.563-6.514-14.563-14.552c0-8.042,6.521-14.555,14.563-14.555
				C45.215,67.723,51.729,74.236,51.729,82.278z"/>
			<path fill="none" stroke="#FFFFFF" stroke-width="0.1" stroke-miterlimit="10" d="M64.335,104.111
				c0,8.041-6.499,14.547-14.55,14.547c-8.048,0-14.56-6.51-14.56-14.547c0-8.047,6.514-14.561,14.56-14.561
				C57.819,89.551,64.335,96.064,64.335,104.111z"/>
			<path fill="none" stroke="#FFFFFF" stroke-width="0.1" stroke-miterlimit="10" d="M102.159,111.386
				c0,8.04-6.521,14.555-14.552,14.555c-8.041,0-14.562-6.515-14.562-14.555c0-8.038,6.521-14.556,14.562-14.556
				C95.639,96.83,102.159,103.348,102.159,111.386z"/>
			<path fill="none" stroke="#FFFFFF" stroke-width="0.1" stroke-miterlimit="10" d="M114.766,104.111
				c0,8.041-6.499,14.554-14.549,14.554c-8.044,0-14.562-6.517-14.562-14.554c0-8.044,6.518-14.558,14.562-14.558
				C108.25,89.554,114.766,96.067,114.766,104.111z"/>
			<path fill="none" stroke="#FFFFFF" stroke-width="0.1" stroke-miterlimit="10" d="M127.375,82.274
				c0,8.042-6.518,14.552-14.55,14.552c-8.052,0-14.593-6.51-14.593-14.552c0-8.039,6.516-14.556,14.593-14.556
				C120.857,67.723,127.375,74.236,127.375,82.274z"/>
			<path fill="none" stroke="#FFFFFF" stroke-width="0.1" stroke-miterlimit="10" d="M127.375,67.727
				c0,8.038-6.518,14.552-14.55,14.552c-8.052,0-14.593-6.512-14.593-14.552c0-8.047,6.52-14.56,14.593-14.56
				C120.857,53.167,127.375,59.679,127.375,67.727z"/>
			<path fill="none" stroke="#FFFFFF" stroke-width="0.1" stroke-miterlimit="10" d="M114.766,45.895
				c0,8.042-6.499,14.552-14.551,14.552c-8.042,0-14.56-6.51-14.56-14.552c0-8.043,6.518-14.556,14.56-14.556
				C108.25,31.335,114.766,37.848,114.766,45.895z"/>
			<path fill="none" stroke="#FFFFFF" stroke-width="0.1" stroke-miterlimit="10" d="M102.159,38.613
				c0,8.042-6.517,14.55-14.552,14.55c-8.038,0-14.558-6.507-14.558-14.55c0-8.043,6.52-14.556,14.558-14.556
				C95.645,24.057,102.159,30.571,102.159,38.613z"/>
			<path fill="none" stroke="#FFFFFF" stroke-width="0.1" stroke-miterlimit="10" d="M76.946,111.386
				c0,8.044-6.519,14.555-14.552,14.555c-8.052,0-14.56-6.511-14.56-14.555c0-8.038,6.499-14.556,14.56-14.556
				C70.427,96.83,76.946,103.348,76.946,111.386z"/>
		</g>
		<g id="rotation_5_8_">
			<path fill="none" stroke="#FFFFFF" stroke-width="0.1" stroke-miterlimit="10" d="M89.552,31.339
				c0,8.036-6.517,14.548-14.55,14.548c-8.052,0-14.563-6.514-14.563-14.548c0-8.047,6.498-14.56,14.563-14.56
				C83.035,16.781,89.552,23.292,89.552,31.339z"/>
			<path fill="none" stroke="#FFFFFF" stroke-width="0.1" stroke-miterlimit="10" d="M64.335,31.339
				c0,8.041-6.499,14.552-14.55,14.552c-8.048,0-14.56-6.511-14.56-14.552c0-8.043,6.514-14.556,14.56-14.556
				C57.819,16.781,64.335,23.296,64.335,31.339z"/>
			<path fill="none" stroke="#FFFFFF" stroke-width="0.1" stroke-miterlimit="10" d="M51.729,53.171
				c0,8.042-6.516,14.552-14.554,14.552s-14.56-6.511-14.56-14.552c0-8.043,6.517-14.556,14.56-14.556
				C45.214,38.613,51.729,45.127,51.729,53.171z"/>
			<path fill="none" stroke="#FFFFFF" stroke-width="0.1" stroke-miterlimit="10" d="M39.127,74.999
				c0,8.045-6.521,14.552-14.552,14.552c-8.04,0-14.56-6.507-14.56-14.552c0-8.04,6.52-14.552,14.56-14.552
				C32.604,60.445,39.127,66.959,39.127,74.999z"/>
			<path fill="none" stroke="#FFFFFF" stroke-width="0.1" stroke-miterlimit="10" d="M51.729,96.834
				c0,8.041-6.514,14.552-14.55,14.552c-8.042,0-14.56-6.511-14.56-14.552c0-8.042,6.518-14.556,14.56-14.556
				C45.215,82.274,51.729,88.792,51.729,96.834z"/>
			<path fill="none" stroke="#FFFFFF" stroke-width="0.1" stroke-miterlimit="10" d="M64.335,118.665
				c0,8.035-6.499,14.553-14.55,14.553c-8.048,0-14.56-6.518-14.56-14.553c0-8.046,6.514-14.559,14.56-14.559
				C57.819,104.106,64.335,110.616,64.335,118.665z"/>
			<path fill="none" stroke="#FFFFFF" stroke-width="0.1" stroke-miterlimit="10" d="M89.552,118.67
				c0,8.034-6.517,14.552-14.55,14.552c-8.052,0-14.563-6.518-14.563-14.552c0-8.047,6.498-14.559,14.563-14.559
				C83.035,104.111,89.552,110.623,89.552,118.67z"/>
			<path fill="none" stroke="#FFFFFF" stroke-width="0.1" stroke-miterlimit="10" d="M114.773,118.67
				c0,8.034-6.498,14.552-14.551,14.552c-8.046,0-14.567-6.518-14.567-14.552c0-8.047,6.521-14.559,14.567-14.559
				C108.252,104.111,114.773,110.623,114.773,118.67z"/>
			<path fill="none" stroke="#FFFFFF" stroke-width="0.1" stroke-miterlimit="10" d="M127.379,96.834
				c0,8.037-6.518,14.549-14.553,14.549c-8.052,0-14.558-6.511-14.558-14.549c0-8.042,6.499-14.556,14.558-14.556
				C120.857,82.274,127.379,88.792,127.379,96.834z"/>
			<path fill="none" stroke="#FFFFFF" stroke-width="0.1" stroke-miterlimit="10" d="M139.982,75.003
				c0,8.041-6.519,14.551-14.552,14.551c-8.052,0-14.56-6.51-14.56-14.551c0-8.043,6.498-14.556,14.56-14.556
				C133.461,60.445,139.982,66.964,139.982,75.003z"/>
			<path fill="none" stroke="#FFFFFF" stroke-width="0.1" stroke-miterlimit="10" d="M127.379,53.171
				c0,8.042-6.521,14.552-14.554,14.552c-8.052,0-14.593-6.511-14.593-14.552c0-8.043,6.517-14.556,14.593-14.556
				C120.857,38.613,127.379,45.127,127.379,53.171z"/>
			<path fill="none" stroke="#FFFFFF" stroke-width="0.1" stroke-miterlimit="10" d="M114.771,31.339
				c0,8.036-6.499,14.548-14.549,14.548c-8.048,0-14.567-6.514-14.567-14.548c0-8.047,6.518-14.56,14.567-14.56
				C108.252,16.781,114.771,23.292,114.771,31.339z"/>
		</g>
		<g id="rotation_6_8_">
			<path fill="none" stroke="#FFFFFF" stroke-width="0.1" stroke-miterlimit="10" d="M76.946,24.061
				c0,8.035-6.519,14.552-14.552,14.552c-8.052,0-14.556-6.518-14.556-14.552c0-8.043,6.498-14.556,14.556-14.556
				C70.427,9.507,76.946,16.018,76.946,24.061z"/>
			<path fill="none" stroke="#FFFFFF" stroke-width="0.1" stroke-miterlimit="10" d="M51.729,38.613
				c0,8.042-6.516,14.55-14.55,14.55c-8.042,0-14.563-6.507-14.563-14.55c0-8.043,6.521-14.556,14.563-14.556
				C45.215,24.057,51.729,30.571,51.729,38.613z"/>
			<path fill="none" stroke="#FFFFFF" stroke-width="0.1" stroke-miterlimit="10" d="M39.124,60.449
				c0,8.041-6.517,14.55-14.55,14.55c-8.042,0-14.562-6.511-14.562-14.55c0-8.044,6.519-14.56,14.562-14.56
				C32.604,45.891,39.124,52.404,39.124,60.449z"/>
			<path fill="none" stroke="#FFFFFF" stroke-width="0.1" stroke-miterlimit="10" d="M39.127,89.558
				c0,8.039-6.521,14.554-14.552,14.554c-8.04,0-14.56-6.515-14.56-14.554c0-8.046,6.52-14.559,14.56-14.559
				C32.604,74.999,39.127,81.515,39.127,89.558z"/>
			<path fill="none" stroke="#FFFFFF" stroke-width="0.1" stroke-miterlimit="10" d="M51.729,111.386
				c0,8.04-6.512,14.555-14.55,14.555s-14.56-6.515-14.56-14.555c0-8.042,6.521-14.556,14.56-14.556
				C45.215,96.83,51.729,103.344,51.729,111.386z"/>
			<path fill="none" stroke="#FFFFFF" stroke-width="0.1" stroke-miterlimit="10" d="M76.946,125.943
				c0,8.039-6.519,14.553-14.552,14.553c-8.052,0-14.556-6.514-14.556-14.553c0-8.044,6.498-14.558,14.556-14.558
				C70.427,111.386,76.946,117.899,76.946,125.943z"/>
			<path fill="none" stroke="#FFFFFF" stroke-width="0.1" stroke-miterlimit="10" d="M102.159,125.943
				c0,8.039-6.517,14.553-14.55,14.553c-8.043,0-14.562-6.514-14.562-14.553c0-8.044,6.519-14.558,14.562-14.558
				C95.645,111.386,102.159,117.899,102.159,125.943z"/>
			<path fill="none" stroke="#FFFFFF" stroke-width="0.1" stroke-miterlimit="10" d="M127.379,111.386
				c0,8.04-6.521,14.555-14.554,14.555c-8.052,0-14.593-6.515-14.593-14.555c0-8.042,6.516-14.556,14.593-14.556
				C120.861,96.83,127.379,103.344,127.379,111.386z"/>
			<path fill="none" stroke="#FFFFFF" stroke-width="0.1" stroke-miterlimit="10" d="M139.982,89.554
				c0,8.043-6.519,14.553-14.551,14.553c-8.052,0-14.56-6.51-14.56-14.553c0-8.042,6.498-14.555,14.56-14.555
				C133.461,74.999,139.982,81.51,139.982,89.554z"/>
			<path fill="none" stroke="#FFFFFF" stroke-width="0.1" stroke-miterlimit="10" d="M139.984,60.449
				c0,8.041-6.517,14.55-14.55,14.55c-8.039,0-14.56-6.511-14.56-14.55c0-8.044,6.521-14.56,14.56-14.56
				C133.461,45.891,139.984,52.404,139.984,60.449z"/>
			<path fill="none" stroke="#FFFFFF" stroke-width="0.1" stroke-miterlimit="10" d="M127.379,38.617
				c0,8.042-6.518,14.55-14.55,14.55c-8.053,0-14.561-6.507-14.561-14.55s6.499-14.56,14.561-14.56
				C120.861,24.057,127.379,30.575,127.379,38.617z"/>
			<path fill="none" stroke="#FFFFFF" stroke-width="0.1" stroke-miterlimit="10" d="M102.159,24.061
				c0,8.035-6.511,14.552-14.55,14.552c-8.04,0-14.56-6.518-14.56-14.552c0-8.043,6.52-14.556,14.56-14.556
				C95.648,9.507,102.159,16.018,102.159,24.061z"/>
		</g>
	</g>
	<g>
		<path fill="none" stroke="#FFFFFF" stroke-width="0.5" stroke-miterlimit="10" d="M89.557,133.224
			c0,8.034-6.518,14.552-14.549,14.552c-8.052,0-14.567-6.518-14.567-14.552c0-8.048,6.498-14.556,14.567-14.556
			C83.036,118.665,89.557,125.176,89.557,133.224z"/>
		<path fill="none" stroke="#FFFFFF" stroke-width="0.5" stroke-miterlimit="10" d="M139.988,45.895
			c0,8.042-6.521,14.552-14.554,14.552c-8.039,0-14.56-6.51-14.56-14.552c0-8.043,6.521-14.556,14.56-14.556
			C133.465,31.339,139.988,37.852,139.988,45.895z"/>
		<path fill="none" stroke="#FFFFFF" stroke-width="0.5" stroke-miterlimit="10" d="M139.988,104.111
			c0,8.041-6.515,14.554-14.55,14.554c-8.043,0-14.561-6.517-14.561-14.554c0-8.044,6.518-14.561,14.561-14.561
			C133.468,89.551,139.988,96.067,139.988,104.111z"/>
		<path fill="none" stroke="#FFFFFF" stroke-width="0.5" stroke-miterlimit="10" d="M39.127,104.111
			c0,8.041-6.518,14.554-14.552,14.554c-8.04,0-14.56-6.517-14.56-14.554c0-8.044,6.52-14.558,14.56-14.558
			C32.604,89.554,39.127,96.067,39.127,104.111z"/>
		<path fill="none" stroke="#FFFFFF" stroke-width="0.5" stroke-miterlimit="10" d="M39.127,45.895
			c0,8.042-6.518,14.552-14.55,14.552c-8.044,0-14.562-6.515-14.562-14.552c0-8.043,6.518-14.556,14.562-14.556
			C32.608,31.339,39.127,37.852,39.127,45.895z"/>
		<path fill="none" stroke="#FFFFFF" stroke-width="0.5" stroke-miterlimit="10" d="M89.558,16.781
			c0,8.039-6.519,14.552-14.55,14.552c-8.046,0-14.562-6.514-14.562-14.552c0-8.043,6.516-14.557,14.562-14.557
			C83.036,2.224,89.558,8.741,89.558,16.781z"/>
		<path fill="none" stroke="#FFFFFF" stroke-width="0.5" stroke-miterlimit="10" d="M114.766,60.445
			c0,8.042-6.499,14.552-14.551,14.552c-8.042,0-14.56-6.511-14.56-14.552c0-8.04,6.518-14.556,14.56-14.556
			C108.25,45.891,114.766,52.404,114.766,60.445z"/>
		<path fill="none" stroke="#FFFFFF" stroke-width="0.5" stroke-miterlimit="10" d="M114.766,89.554
			c0,8.043-6.499,14.553-14.551,14.553c-8.042,0-14.56-6.51-14.56-14.553c0-8.042,6.518-14.555,14.56-14.555
			C108.25,74.999,114.766,81.51,114.766,89.554z"/>
		<path fill="none" stroke="#FFFFFF" stroke-width="0.5" stroke-miterlimit="10" d="M89.547,104.111
			c0,8.041-6.514,14.554-14.551,14.554c-8.052,0-14.562-6.517-14.562-14.554c0-8.044,6.498-14.561,14.562-14.561
			C83.03,89.551,89.547,96.067,89.547,104.111z"/>
		<path fill="none" stroke="#FFFFFF" stroke-width="0.5" stroke-miterlimit="10" d="M64.335,89.554
			c0,8.043-6.499,14.553-14.55,14.553c-8.04,0-14.558-6.51-14.558-14.553c0-8.046,6.513-14.555,14.558-14.555
			C57.817,74.999,64.335,81.51,64.335,89.554z"/>
		<path fill="none" stroke="#FFFFFF" stroke-width="0.5" stroke-miterlimit="10" d="M64.335,60.445
			c0,8.042-6.499,14.552-14.55,14.552c-8.05,0-14.562-6.511-14.562-14.552c0-8.04,6.512-14.556,14.562-14.556
			C57.817,45.891,64.335,52.404,64.335,60.445z"/>
		<path fill="none" stroke="#FFFFFF" stroke-width="0.5" stroke-miterlimit="10" d="M89.547,45.895
			c0,8.042-6.517,14.552-14.551,14.552c-8.052,0-14.562-6.51-14.562-14.552c0-8.043,6.498-14.556,14.562-14.556
			C83.029,31.335,89.547,37.848,89.547,45.895z"/>
		<path fill="none" stroke="#FFFFFF" stroke-width="0.5" stroke-miterlimit="10" d="M89.547,74.999
			c0,8.045-6.517,14.552-14.551,14.552c-8.052,0-14.562-6.507-14.562-14.552c0-8.04,6.498-14.552,14.562-14.552
			C83.029,60.445,89.547,66.959,89.547,74.999z"/>
	</g>
</g>
</svg>
