<?xml version="1.0" encoding="utf-8"?>
<!-- Generator: Adobe Illustrator 16.0.0, SVG Export Plug-In . SVG Version: 6.00 Build 0)  -->
<!DOCTYPE svg PUBLIC "-//W3C//DTD SVG 1.1//EN" "http://www.w3.org/Graphics/SVG/1.1/DTD/svg11.dtd">
<svg version="1.1" id="A_thumbUnsealedFOL" xmlns="http://www.w3.org/2000/svg" xmlns:xlink="http://www.w3.org/1999/xlink"
	 x="0px" y="0px" width="150px" height="150px" viewBox="0 0 150 150" enable-background="new 0 0 150 150" xml:space="preserve">
<g id="A_x5F_SVGGroupSteps">
	<g id="completedFOL">
		<g id="rotation_1_1_">
			<path fill="none" stroke="#FFFFFF" stroke-width="0.1" stroke-miterlimit="10" d="M89.465,89.471
				c0,7.998-6.479,14.472-14.469,14.472c-8.007,0-14.481-6.474-14.481-14.472s6.462-14.474,14.481-14.474
				C82.983,74.997,89.465,81.471,89.465,89.471z"/>
			<path fill="none" stroke="#FFFFFF" stroke-width="0.1" stroke-miterlimit="10" d="M102.009,82.235
				c0,7.994-6.485,14.472-14.472,14.472c-7.996,0-14.481-6.478-14.481-14.472c0-7.998,6.485-14.474,14.481-14.474
				C95.523,67.761,102.009,74.237,102.009,82.235z"/>
			<path fill="none" stroke="#FFFFFF" stroke-width="0.1" stroke-miterlimit="10" d="M102.005,67.765
				c0,7.993-6.481,14.471-14.47,14.471c-7.996,0-14.483-6.476-14.483-14.471c0-8.002,6.487-14.479,14.483-14.479
				C95.523,53.286,102.005,59.762,102.005,67.765z"/>
			<path fill="none" stroke="#FFFFFF" stroke-width="0.1" stroke-miterlimit="10" d="M89.465,60.523
				c0,7.997-6.479,14.472-14.469,14.472c-8.007,0-14.481-6.475-14.481-14.472c0-7.995,6.462-14.475,14.481-14.475
				C82.983,46.05,89.465,52.526,89.465,60.523z"/>
			<path fill="none" stroke="#FFFFFF" stroke-width="0.1" stroke-miterlimit="10" d="M76.931,67.765
				c0,7.993-6.484,14.471-14.471,14.471c-8.007,0-14.512-6.476-14.512-14.471c0-8.002,6.481-14.479,14.512-14.479
				C70.446,53.286,76.931,59.762,76.931,67.765z"/>
			<path fill="none" stroke="#FFFFFF" stroke-width="0.1" stroke-miterlimit="10" d="M76.931,82.235
				c0,7.994-6.484,14.472-14.471,14.472c-8.007,0-14.512-6.478-14.512-14.472c0-7.998,6.481-14.474,14.512-14.474
				C70.446,67.761,76.931,74.237,76.931,82.235z"/>
		</g>
		<g id="rotation_2_1_">
			<path fill="none" stroke="#FFFFFF" stroke-width="0.1" stroke-miterlimit="10" d="M76.931,53.286c0,8-6.484,14.476-14.471,14.476
				c-8.007,0-14.512-6.475-14.512-14.476c0-7.995,6.481-14.471,14.512-14.471C70.446,38.813,76.931,45.287,76.931,53.286z"/>
			<path fill="none" stroke="#FFFFFF" stroke-width="0.1" stroke-miterlimit="10" d="M64.393,74.997
				c0,8.001-6.462,14.471-14.469,14.471c-8.005,0-14.481-6.47-14.481-14.471c0-7.995,6.476-14.471,14.481-14.471
				C57.912,60.523,64.393,67.002,64.393,74.997z"/>
			<path fill="none" stroke="#FFFFFF" stroke-width="0.1" stroke-miterlimit="10" d="M76.931,96.71
				c0,7.993-6.484,14.469-14.471,14.469c-8.007,0-14.512-6.474-14.512-14.469c0-7.997,6.481-14.475,14.512-14.475
				C70.446,82.231,76.931,88.713,76.931,96.71z"/>
			<path fill="none" stroke="#FFFFFF" stroke-width="0.1" stroke-miterlimit="10" d="M102.009,96.71
				c0,7.993-6.485,14.469-14.472,14.469c-7.996,0-14.481-6.474-14.481-14.469c0-7.997,6.485-14.475,14.481-14.475
				C95.523,82.231,102.009,88.713,102.009,96.71z"/>
			<path fill="none" stroke="#FFFFFF" stroke-width="0.1" stroke-miterlimit="10" d="M114.544,74.997
				c0,8.001-6.462,14.471-14.469,14.471c-7.998,0-14.479-6.47-14.479-14.471c0-7.995,6.481-14.471,14.479-14.471
				C108.064,60.523,114.544,67.002,114.544,74.997z"/>
			<path fill="none" stroke="#FFFFFF" stroke-width="0.1" stroke-miterlimit="10" d="M102.005,53.286c0,8-6.481,14.476-14.47,14.476
				c-7.996,0-14.483-6.475-14.483-14.476c0-7.995,6.487-14.471,14.483-14.471C95.523,38.813,102.005,45.287,102.005,53.286z"/>
		</g>
		<g id="rotation_4_1_">
			<path fill="none" stroke="#FFFFFF" stroke-width="0.1" stroke-miterlimit="10" d="M76.931,38.813
				c0,7.997-6.484,14.472-14.471,14.472c-8.007,0-14.512-6.475-14.512-14.472c0-7.999,6.481-14.475,14.512-14.475
				C70.446,24.337,76.931,30.815,76.931,38.813z"/>
			<path fill="none" stroke="#FFFFFF" stroke-width="0.1" stroke-miterlimit="10" d="M64.39,46.054
				c0,7.993-6.462,14.472-14.47,14.472c-8.003,0-14.479-6.479-14.479-14.472c0-7.999,6.476-14.475,14.479-14.475
				C57.912,31.579,64.39,38.055,64.39,46.054z"/>
			<path fill="none" stroke="#FFFFFF" stroke-width="0.1" stroke-miterlimit="10" d="M51.857,67.765
				c0,7.997-6.479,14.471-14.473,14.471c-7.994,0-14.479-6.476-14.479-14.471c0-8.002,6.481-14.479,14.479-14.479
				C45.378,53.286,51.857,59.762,51.857,67.765z"/>
			<path fill="none" stroke="#FFFFFF" stroke-width="0.1" stroke-miterlimit="10" d="M51.857,82.235
				c0,7.998-6.479,14.472-14.47,14.472c-7.998,0-14.482-6.478-14.482-14.472c0-7.998,6.485-14.474,14.482-14.474
				C45.38,67.761,51.857,74.237,51.857,82.235z"/>
			<path fill="none" stroke="#FFFFFF" stroke-width="0.1" stroke-miterlimit="10" d="M64.393,103.948
				c0,7.996-6.462,14.466-14.469,14.466c-8.003,0-14.479-6.474-14.479-14.466c0-8.004,6.478-14.48,14.479-14.48
				C57.914,89.468,64.393,95.944,64.393,103.948z"/>
			<path fill="none" stroke="#FFFFFF" stroke-width="0.1" stroke-miterlimit="10" d="M102.009,111.182
				c0,7.996-6.485,14.474-14.472,14.474c-7.996,0-14.481-6.478-14.481-14.474c0-7.994,6.485-14.475,14.481-14.475
				C95.523,96.707,102.009,103.188,102.009,111.182z"/>
			<path fill="none" stroke="#FFFFFF" stroke-width="0.1" stroke-miterlimit="10" d="M114.544,103.948
				c0,7.996-6.462,14.473-14.467,14.473c-8,0-14.481-6.48-14.481-14.473c0-8,6.481-14.478,14.481-14.478
				C108.064,89.471,114.544,95.948,114.544,103.948z"/>
			<path fill="none" stroke="#FFFFFF" stroke-width="0.1" stroke-miterlimit="10" d="M127.084,82.231
				c0,7.998-6.481,14.472-14.47,14.472c-8.008,0-14.512-6.474-14.512-14.472c0-7.994,6.479-14.474,14.512-14.474
				C120.603,67.761,127.084,74.237,127.084,82.231z"/>
			<path fill="none" stroke="#FFFFFF" stroke-width="0.1" stroke-miterlimit="10" d="M127.084,67.765
				c0,7.993-6.481,14.471-14.47,14.471c-8.008,0-14.512-6.476-14.512-14.471c0-8.002,6.483-14.479,14.512-14.479
				C120.603,53.286,127.084,59.762,127.084,67.765z"/>
			<path fill="none" stroke="#FFFFFF" stroke-width="0.1" stroke-miterlimit="10" d="M114.544,46.054
				c0,7.997-6.462,14.472-14.469,14.472c-7.998,0-14.479-6.475-14.479-14.472c0-7.999,6.481-14.475,14.479-14.475
				C108.064,31.575,114.544,38.051,114.544,46.054z"/>
			<path fill="none" stroke="#FFFFFF" stroke-width="0.1" stroke-miterlimit="10" d="M102.009,38.813
				c0,7.997-6.481,14.47-14.472,14.47c-7.994,0-14.478-6.471-14.478-14.47c0-7.999,6.483-14.475,14.478-14.475
				C95.529,24.337,102.009,30.815,102.009,38.813z"/>
			<path fill="none" stroke="#FFFFFF" stroke-width="0.1" stroke-miterlimit="10" d="M76.935,111.182
				c0,8-6.483,14.474-14.471,14.474c-8.007,0-14.479-6.474-14.479-14.474c0-7.994,6.462-14.475,14.479-14.475
				C70.452,96.707,76.935,103.188,76.935,111.182z"/>
		</g>
		<g id="rotation_5_1_">
			<path fill="none" stroke="#FFFFFF" stroke-width="0.1" stroke-miterlimit="10" d="M89.471,31.579
				c0,7.991-6.481,14.468-14.47,14.468c-8.007,0-14.482-6.478-14.482-14.468c0-8.002,6.462-14.479,14.482-14.479
				C82.989,17.102,89.471,23.576,89.471,31.579z"/>
			<path fill="none" stroke="#FFFFFF" stroke-width="0.1" stroke-miterlimit="10" d="M64.393,31.579
				c0,7.997-6.462,14.472-14.469,14.472c-8.003,0-14.479-6.475-14.479-14.472c0-7.999,6.478-14.475,14.479-14.475
				C57.914,17.102,64.393,23.58,64.393,31.579z"/>
			<path fill="none" stroke="#FFFFFF" stroke-width="0.1" stroke-miterlimit="10" d="M51.857,53.29
				c0,7.997-6.479,14.472-14.473,14.472c-7.994,0-14.479-6.475-14.479-14.472c0-7.999,6.481-14.475,14.479-14.475
				C45.378,38.813,51.857,45.291,51.857,53.29z"/>
			<path fill="none" stroke="#FFFFFF" stroke-width="0.1" stroke-miterlimit="10" d="M39.326,74.997
				c0,8.001-6.485,14.471-14.472,14.471c-7.996,0-14.479-6.47-14.479-14.471c0-7.995,6.483-14.471,14.479-14.471
				C32.839,60.523,39.326,67.002,39.326,74.997z"/>
			<path fill="none" stroke="#FFFFFF" stroke-width="0.1" stroke-miterlimit="10" d="M51.857,96.71
				c0,7.997-6.478,14.472-14.47,14.472c-7.998,0-14.479-6.475-14.479-14.472s6.481-14.475,14.479-14.475
				C45.38,82.231,51.857,88.713,51.857,96.71z"/>
			<path fill="none" stroke="#FFFFFF" stroke-width="0.1" stroke-miterlimit="10" d="M64.393,118.421
				c0,7.991-6.462,14.472-14.469,14.472c-8.003,0-14.479-6.48-14.479-14.472c0-8.001,6.478-14.479,14.479-14.479
				C57.914,103.942,64.393,110.416,64.393,118.421z"/>
			<path fill="none" stroke="#FFFFFF" stroke-width="0.1" stroke-miterlimit="10" d="M89.471,118.425
				c0,7.991-6.481,14.472-14.47,14.472c-8.007,0-14.482-6.48-14.482-14.472c0-8.001,6.462-14.477,14.482-14.477
				C82.989,103.948,89.471,110.424,89.471,118.425z"/>
			<path fill="none" stroke="#FFFFFF" stroke-width="0.1" stroke-miterlimit="10" d="M114.552,118.425
				c0,7.991-6.462,14.472-14.47,14.472c-8.001,0-14.486-6.48-14.486-14.472c0-8.001,6.485-14.477,14.486-14.477
				C108.066,103.948,114.552,110.424,114.552,118.425z"/>
			<path fill="none" stroke="#FFFFFF" stroke-width="0.1" stroke-miterlimit="10" d="M127.088,96.71
				c0,7.993-6.481,14.469-14.472,14.469c-8.008,0-14.478-6.474-14.478-14.469c0-7.997,6.462-14.475,14.478-14.475
				C120.603,82.231,127.088,88.713,127.088,96.71z"/>
			<path fill="none" stroke="#FFFFFF" stroke-width="0.1" stroke-miterlimit="10" d="M139.621,75c0,7.998-6.482,14.47-14.471,14.47
				c-8.008,0-14.479-6.473-14.479-14.47c0-7.999,6.463-14.475,14.479-14.475C133.137,60.523,139.621,67.007,139.621,75z"/>
			<path fill="none" stroke="#FFFFFF" stroke-width="0.1" stroke-miterlimit="10" d="M127.088,53.29
				c0,7.997-6.485,14.472-14.474,14.472c-8.008,0-14.512-6.475-14.512-14.472c0-7.999,6.481-14.475,14.512-14.475
				C120.603,38.813,127.088,45.291,127.088,53.29z"/>
			<path fill="none" stroke="#FFFFFF" stroke-width="0.1" stroke-miterlimit="10" d="M114.55,31.579
				c0,7.991-6.462,14.468-14.468,14.468c-8.003,0-14.486-6.478-14.486-14.468c0-8.002,6.481-14.479,14.486-14.479
				C108.066,17.102,114.55,23.576,114.55,31.579z"/>
		</g>
		<g id="rotation_6_1_">
			<path fill="none" stroke="#FFFFFF" stroke-width="0.1" stroke-miterlimit="10" d="M76.935,24.341
				c0,7.99-6.483,14.472-14.471,14.472c-8.007,0-14.475-6.481-14.475-14.472c0-7.999,6.462-14.475,14.475-14.475
				C70.452,9.868,76.935,16.342,76.935,24.341z"/>
			<path fill="none" stroke="#FFFFFF" stroke-width="0.1" stroke-miterlimit="10" d="M51.857,38.813
				c0,7.997-6.479,14.47-14.47,14.47c-7.998,0-14.482-6.471-14.482-14.47c0-7.999,6.485-14.475,14.482-14.475
				C45.38,24.337,51.857,30.815,51.857,38.813z"/>
			<path fill="none" stroke="#FFFFFF" stroke-width="0.1" stroke-miterlimit="10" d="M39.322,60.527
				c0,7.997-6.481,14.469-14.47,14.469c-7.998,0-14.481-6.475-14.481-14.469c0-7.999,6.483-14.479,14.481-14.479
				C32.839,46.05,39.322,52.526,39.322,60.527z"/>
			<path fill="none" stroke="#FFFFFF" stroke-width="0.1" stroke-miterlimit="10" d="M39.326,89.475
				c0,7.994-6.485,14.474-14.472,14.474c-7.996,0-14.479-6.479-14.479-14.474c0-8.002,6.483-14.478,14.479-14.478
				C32.839,74.997,39.326,81.477,39.326,89.475z"/>
			<path fill="none" stroke="#FFFFFF" stroke-width="0.1" stroke-miterlimit="10" d="M51.857,111.182
				c0,7.996-6.476,14.474-14.47,14.474c-7.994,0-14.479-6.478-14.479-14.474c0-7.998,6.485-14.475,14.479-14.475
				C45.38,96.707,51.857,103.184,51.857,111.182z"/>
			<path fill="none" stroke="#FFFFFF" stroke-width="0.1" stroke-miterlimit="10" d="M76.935,125.659
				c0,7.994-6.483,14.472-14.471,14.472c-8.007,0-14.475-6.478-14.475-14.472c0-8,6.462-14.478,14.475-14.478
				C70.452,111.182,76.935,117.659,76.935,125.659z"/>
			<path fill="none" stroke="#FFFFFF" stroke-width="0.1" stroke-miterlimit="10" d="M102.009,125.659
				c0,7.994-6.481,14.472-14.47,14.472c-7.998,0-14.481-6.478-14.481-14.472c0-8,6.483-14.478,14.481-14.478
				C95.529,111.182,102.009,117.659,102.009,125.659z"/>
			<path fill="none" stroke="#FFFFFF" stroke-width="0.1" stroke-miterlimit="10" d="M127.088,111.182
				c0,7.996-6.485,14.474-14.474,14.474c-8.008,0-14.512-6.478-14.512-14.474c0-7.998,6.479-14.475,14.512-14.475
				C120.606,96.707,127.088,103.184,127.088,111.182z"/>
			<path fill="none" stroke="#FFFFFF" stroke-width="0.1" stroke-miterlimit="10" d="M139.621,89.471
				c0,7.998-6.482,14.472-14.47,14.472c-8.007,0-14.479-6.474-14.479-14.472s6.463-14.474,14.479-14.474
				C133.137,74.997,139.621,81.471,139.621,89.471z"/>
			<path fill="none" stroke="#FFFFFF" stroke-width="0.1" stroke-miterlimit="10" d="M139.623,60.527
				c0,7.997-6.48,14.469-14.47,14.469c-7.993,0-14.479-6.475-14.479-14.469c0-7.999,6.485-14.479,14.479-14.479
				C133.137,46.05,139.623,52.526,139.623,60.527z"/>
			<path fill="none" stroke="#FFFFFF" stroke-width="0.1" stroke-miterlimit="10" d="M127.088,38.816
				c0,7.997-6.481,14.469-14.47,14.469c-8.008,0-14.479-6.471-14.479-14.469c0-7.999,6.462-14.479,14.479-14.479
				C120.606,24.337,127.088,30.819,127.088,38.816z"/>
			<path fill="none" stroke="#FFFFFF" stroke-width="0.1" stroke-miterlimit="10" d="M102.009,24.341
				c0,7.99-6.476,14.472-14.47,14.472c-7.996,0-14.479-6.481-14.479-14.472c0-7.999,6.483-14.475,14.479-14.475
				C95.533,9.868,102.009,16.342,102.009,24.341z"/>
			<path fill="none" stroke="#FFFFFF" stroke-width="0.1" stroke-miterlimit="10" d="M89.451,17.105
				c0,7.99-6.476,14.471-14.47,14.471c-7.996,0-14.479-6.481-14.479-14.471c0-7.999,6.483-14.476,14.479-14.476
				C82.976,2.632,89.451,9.106,89.451,17.105z"/>
			<path fill="none" stroke="#FFFFFF" stroke-width="0.1" stroke-miterlimit="10" d="M39.327,46.05
				c0,7.99-6.476,14.471-14.47,14.471c-7.996,0-14.479-6.481-14.479-14.471c0-7.999,6.483-14.475,14.479-14.475
				C32.851,31.577,39.327,38.051,39.327,46.05z"/>
			<path fill="none" stroke="#FFFFFF" stroke-width="0.1" stroke-miterlimit="10" d="M39.328,103.95
				c0,7.99-6.475,14.471-14.469,14.471c-7.996,0-14.479-6.48-14.479-14.471c0-7.999,6.483-14.476,14.479-14.476
				C32.853,89.477,39.328,95.951,39.328,103.95z"/>
			<path fill="none" stroke="#FFFFFF" stroke-width="0.1" stroke-miterlimit="10" d="M139.626,103.944
				c0,7.99-6.476,14.472-14.469,14.472c-7.996,0-14.479-6.481-14.479-14.472c0-7.998,6.483-14.476,14.479-14.476
				C133.15,89.471,139.626,95.946,139.626,103.944z"/>
			<path fill="none" stroke="#FFFFFF" stroke-width="0.1" stroke-miterlimit="10" d="M139.628,46.05
				c0,7.99-6.476,14.471-14.469,14.471c-7.996,0-14.479-6.481-14.479-14.471c0-7.999,6.483-14.475,14.479-14.475
				C133.152,31.577,139.628,38.051,139.628,46.05z"/>
			<path fill="none" stroke="#FFFFFF" stroke-width="0.1" stroke-miterlimit="10" d="M89.469,132.898
				c0,7.99-6.476,14.472-14.47,14.472c-7.996,0-14.479-6.481-14.479-14.472c0-7.998,6.483-14.476,14.479-14.476
				C82.993,118.425,89.469,124.9,89.469,132.898z"/>
		</g>
	</g>
	<g id="UnsealedFOL">
		<g id="A_x5F_SVGStep1_1_">
			
				<circle id="A_x5F_SVGStep1" fill="none" stroke="#FFFFFF" stroke-width="0.5" stroke-miterlimit="10" cx="75.031" cy="75.005" r="43.367"/>
		</g>
		<g id="A_x5F_SVGStep2">
			<path fill="none" stroke="#FFFFFF" stroke-width="0.5" stroke-miterlimit="10" d="M89.465,46.055
				c0,7.993-6.479,14.469-14.466,14.469c-7.993,0-14.476-6.474-14.476-14.469c0-7.997,6.481-14.475,14.476-14.475
				C82.984,31.58,89.465,38.058,89.465,46.055z"/>
			<path fill="none" stroke="#FFFFFF" stroke-width="0.5" stroke-miterlimit="10" d="M64.397,60.527
				c0,7.993-6.481,14.47-14.465,14.47c-7.997,0-14.478-6.477-14.478-14.47c0-7.997,6.479-14.475,14.478-14.475
				C57.915,46.053,64.397,52.53,64.397,60.527z"/>
			<path fill="none" stroke="#FFFFFF" stroke-width="0.5" stroke-miterlimit="10" d="M64.397,89.471
				c0,7.989-6.48,14.469-14.463,14.469c-7.999,0-14.477-6.477-14.477-14.469c0-7.999,6.477-14.476,14.477-14.476
				C57.916,74.998,64.397,81.472,64.397,89.471z"/>
			<path fill="none" stroke="#FFFFFF" stroke-width="0.5" stroke-miterlimit="10" d="M89.466,103.941
				c0,7.994-6.48,14.468-14.467,14.468c-7.993,0-14.476-6.474-14.476-14.468c0-7.998,6.481-14.474,14.476-14.474
				C82.984,89.468,89.466,95.945,89.466,103.941z"/>
			<path fill="none" stroke="#FFFFFF" stroke-width="0.5" stroke-miterlimit="10" d="M114.538,89.471
				c0,7.989-6.478,14.469-14.465,14.469c-7.994,0-14.476-6.477-14.476-14.469c0-7.999,6.479-14.476,14.476-14.476
				C108.059,74.998,114.538,81.472,114.538,89.471z"/>
			<path fill="none" stroke="#FFFFFF" stroke-width="0.5" stroke-miterlimit="10" d="M114.537,60.527
				c0,7.993-6.476,14.47-14.464,14.47c-7.993,0-14.476-6.477-14.476-14.47c0-7.997,6.48-14.475,14.476-14.475
				C108.059,46.053,114.537,52.53,114.537,60.527z"/>
			<path fill="none" stroke="#FFFFFF" stroke-width="0.5" stroke-miterlimit="10" d="M76.932,53.292
				c0,7.992-6.482,14.47-14.467,14.47c-7.996,0-14.475-6.476-14.475-14.47c0-7.998,6.478-14.475,14.475-14.475
				C70.448,38.816,76.932,45.293,76.932,53.292z"/>
			<path fill="none" stroke="#FFFFFF" stroke-width="0.5" stroke-miterlimit="10" d="M64.397,75c0,7.991-6.481,14.469-14.465,14.469
				c-7.997,0-14.478-6.477-14.478-14.469c0-7.997,6.479-14.476,14.478-14.476C57.915,60.524,64.397,67.001,64.397,75z"/>
			<path fill="none" stroke="#FFFFFF" stroke-width="0.5" stroke-miterlimit="10" d="M76.932,96.709
				c0,7.991-6.482,14.468-14.467,14.468c-7.996,0-14.475-6.476-14.475-14.468c0-7.999,6.478-14.476,14.475-14.476
				C70.448,82.231,76.932,88.708,76.932,96.709z"/>
			<path fill="none" stroke="#FFFFFF" stroke-width="0.5" stroke-miterlimit="10" d="M102.001,96.709
				c0,7.991-6.482,14.468-14.466,14.468c-7.995,0-14.478-6.476-14.478-14.468c0-7.999,6.481-14.476,14.478-14.476
				C95.519,82.231,102.001,88.708,102.001,96.709z"/>
			<path fill="none" stroke="#FFFFFF" stroke-width="0.5" stroke-miterlimit="10" d="M114.537,75
				c0,7.991-6.476,14.469-14.464,14.469c-7.993,0-14.476-6.477-14.476-14.469c0-7.997,6.48-14.476,14.476-14.476
				C108.059,60.524,114.537,67.001,114.537,75z"/>
			<path fill="none" stroke="#FFFFFF" stroke-width="0.5" stroke-miterlimit="10" d="M102.001,53.292
				c0,7.992-6.48,14.47-14.465,14.47c-7.995,0-14.475-6.476-14.475-14.47c0-7.998,6.479-14.475,14.475-14.475
				C95.519,38.816,102.001,45.293,102.001,53.292z"/>
			<path fill="none" stroke="#FFFFFF" stroke-width="0.5" stroke-miterlimit="10" d="M89.465,75c0,7.991-6.479,14.469-14.466,14.469
				c-7.993,0-14.476-6.477-14.476-14.469c0-7.997,6.481-14.476,14.476-14.476C82.984,60.524,89.465,67.001,89.465,75z"/>
			<path fill="none" stroke="#FFFFFF" stroke-width="0.5" stroke-miterlimit="10" d="M89.465,89.471
				c0,7.989-6.479,14.469-14.466,14.469c-7.993,0-14.476-6.477-14.476-14.469c0-7.999,6.481-14.476,14.476-14.476
				C82.984,74.998,89.465,81.472,89.465,89.471z"/>
			<path fill="none" stroke="#FFFFFF" stroke-width="0.5" stroke-miterlimit="10" d="M102.001,82.234
				c0,7.99-6.482,14.47-14.466,14.47c-7.995,0-14.475-6.478-14.475-14.47c0-7.998,6.479-14.474,14.475-14.474
				C95.519,67.76,102.001,74.239,102.001,82.234z"/>
			<path fill="none" stroke="#FFFFFF" stroke-width="0.5" stroke-miterlimit="10" d="M102.001,67.763
				c0,7.993-6.48,14.469-14.465,14.469c-7.995,0-14.475-6.476-14.475-14.469c0-7.999,6.479-14.474,14.475-14.474
				C95.519,53.289,102.001,59.764,102.001,67.763z"/>
			<path fill="none" stroke="#FFFFFF" stroke-width="0.5" stroke-miterlimit="10" d="M89.465,60.527
				c0,7.993-6.479,14.47-14.466,14.47c-7.993,0-14.476-6.477-14.476-14.47c0-7.997,6.481-14.475,14.476-14.475
				C82.984,46.053,89.465,52.53,89.465,60.527z"/>
			<path fill="none" stroke="#FFFFFF" stroke-width="0.5" stroke-miterlimit="10" d="M76.932,67.763
				c0,7.993-6.482,14.469-14.467,14.469c-7.996,0-14.475-6.476-14.475-14.469c0-7.999,6.478-14.474,14.475-14.474
				C70.448,53.289,76.932,59.764,76.932,67.763z"/>
			<path fill="none" stroke="#FFFFFF" stroke-width="0.5" stroke-miterlimit="10" d="M76.932,82.234
				c0,7.99-6.482,14.47-14.467,14.47c-7.996,0-14.475-6.478-14.475-14.47c0-7.998,6.478-14.474,14.475-14.474
				C70.448,67.76,76.932,74.239,76.932,82.234z"/>
		</g>
		<g id="A_x5F_SVGStep3_1_">
			<path id="A_x5F_SVGStep3" fill="none" stroke="#FFFFFF" stroke-width="0.5" stroke-miterlimit="10" d="M74.998,31.586
				c1.229,2.127,1.932,4.598,1.932,7.233c0,7.992-6.481,14.47-14.465,14.47c-5.357,0-10.035-2.908-12.539-7.23"/>
		</g>
		<g id="A_x5F_SVGStep4_1_">
			<path id="A_x5F_SVGStep4" fill="none" stroke="#FFFFFF" stroke-width="0.5" stroke-miterlimit="10" d="M62.461,38.821
				c1.229,2.128,1.931,4.598,1.931,7.235c0,7.991-6.479,14.469-14.463,14.469c-5.36,0-10.036-2.909-12.539-7.232"/>
		</g>
		<g id="A_x5F_SVGStep5_1_">
			<path id="A_x5F_SVGStep5" fill="none" stroke="#FFFFFF" stroke-width="0.5" stroke-miterlimit="10" d="M37.392,53.292
				c7.987,0,14.468,6.474,14.468,14.473c0,7.994-6.481,14.47-14.468,14.47"/>
		</g>
		<g id="A_x5F_SVGStep6_1_">
			<path id="A_x5F_SVGStep6" fill="none" stroke="#FFFFFF" stroke-width="0.5" stroke-miterlimit="10" d="M37.395,67.761
				c7.986,0,14.465,6.476,14.465,14.473c0,7.992-6.479,14.47-14.465,14.47"/>
		</g>
		<g id="A_x5F_SVGStep7_1_">
			<path id="A_x5F_SVGStep7" fill="none" stroke="#FFFFFF" stroke-width="0.5" stroke-miterlimit="10" d="M37.411,96.669
				c2.511-4.308,7.178-7.203,12.521-7.203c7.984,0,14.464,6.475,14.464,14.476c0,2.635-0.708,5.104-1.932,7.233"/>
		</g>
		<g id="A_x5F_SVGStep8_1_">
			<path id="A_x5F_SVGStep8" fill="none" stroke="#FFFFFF" stroke-width="0.5" stroke-miterlimit="10" d="M49.943,103.919
				c2.51-4.313,7.179-7.215,12.525-7.215c7.988,0,14.466,6.478,14.466,14.478c0,2.61-0.692,5.061-1.902,7.176"/>
		</g>
		<g id="A_x5F_SVGStep9_1_">
			<path id="A_x5F_SVGStep9" fill="none" stroke="#FFFFFF" stroke-width="0.5" stroke-miterlimit="10" d="M74.992,118.41
				c-1.231-2.125-1.931-4.594-1.931-7.229c0-7.998,6.479-14.478,14.475-14.478c5.353,0,10.032,2.913,12.534,7.242"/>
		</g>
		<g id="A_x5F_SVGStep10_1_">
			<path id="A_x5F_SVGStep10" fill="none" stroke="#FFFFFF" stroke-width="0.5" stroke-miterlimit="10" d="M87.516,111.146
				c-1.219-2.122-1.92-4.58-1.92-7.201c0-7.996,6.479-14.476,14.478-14.476c5.353,0,10.026,2.91,12.53,7.235"/>
		</g>
		<g id="A_x5F_SVGStep11_1_">
			<path id="A_x5F_SVGStep11" fill="none" stroke="#FFFFFF" stroke-width="0.5" stroke-miterlimit="10" d="M112.607,96.704
				c-7.994,0-14.475-6.478-14.475-14.47c0-7.998,6.479-14.473,14.475-14.473"/>
		</g>
		<g id="A_x5F_SVGStep12_1_">
			<path id="A_x5F_SVGStep12" fill="none" stroke="#FFFFFF" stroke-width="0.5" stroke-miterlimit="10" d="M112.609,82.231
				c-7.996,0-14.477-6.476-14.477-14.469c0-7.999,6.479-14.474,14.477-14.474"/>
		</g>
		<g id="A_x5F_SVGStep13_1_">
			<path id="A_x5F_SVGStep13" fill="none" stroke="#FFFFFF" stroke-width="0.5" stroke-miterlimit="10" d="M112.607,53.279
				c-2.499,4.333-7.179,7.245-12.534,7.245c-7.996,0-14.479-6.474-14.479-14.469c0-2.628,0.704-5.093,1.927-7.217"/>
		</g>
		<g id="A_x5F_SVGStep14_1_">
			<path id="A_x5F_SVGStep14" fill="none" stroke="#FFFFFF" stroke-width="0.5" stroke-miterlimit="10" d="M100.068,46.054
				c-2.502,4.324-7.178,7.235-12.531,7.235c-7.995,0-14.475-6.476-14.475-14.472c0-2.623,0.701-5.085,1.924-7.208"/>
		</g>
		<g id="A_x5F_SVGStep15_1_">
			<path id="A_x5F_SVGStep15" fill="none" stroke="#FFFFFF" stroke-width="0.5" stroke-miterlimit="10" d="M87.536,38.816
				c-2.503,4.328-7.177,7.236-12.532,7.236c-5.361,0-10.045-2.913-12.546-7.245"/>
		</g>
		<g id="A_x5F_SVGStep16_1_">
			<path id="A_x5F_SVGStep16" fill="none" stroke="#FFFFFF" stroke-width="0.5" stroke-miterlimit="10" d="M49.935,46.068
				c1.226,2.125,1.927,4.592,1.927,7.225c0,7.993-6.481,14.469-14.468,14.469"/>
		</g>
		<g id="A_x5F_SVGStep17_1_">
			<path id="A_x5F_SVGStep17" fill="none" stroke="#FFFFFF" stroke-width="0.5" stroke-miterlimit="10" d="M37.388,82.235
				c7.992-0.004,14.47,6.478,14.47,14.475c0,2.636-0.703,5.105-1.933,7.232"/>
		</g>
		<g id="A_x5F_SVGStep18_1_">
			<path id="A_x5F_SVGStep18" fill="none" stroke="#FFFFFF" stroke-width="0.5" stroke-miterlimit="10" d="M62.461,111.182
				c2.502-4.328,7.178-7.24,12.542-7.24c5.353-0.001,10.024,2.907,12.526,7.23"/>
		</g>
		<g id="A_x5F_SVGStep19_1_">
			<path id="A_x5F_SVGStep19" fill="none" stroke="#FFFFFF" stroke-width="0.5" stroke-miterlimit="10" d="M100.075,103.952
				c-1.236-2.131-1.942-4.604-1.942-7.248c0-7.996,6.479-14.474,14.477-14.474"/>
		</g>
		<g id="A_x5F_SVGStep20_1_">
			<path id="A_x5F_SVGStep20" fill="none" stroke="#FFFFFF" stroke-width="0.5" stroke-miterlimit="10" d="M112.609,67.761
				c-7.993,0-14.477-6.476-14.477-14.47c0-2.635,0.707-5.105,1.936-7.234"/>
		</g>
		<g id="A_x5F_SVGStep21_1_">
			<path id="A_x5F_SVGStep21" fill="none" stroke="#FFFFFF" stroke-width="0.5" stroke-miterlimit="10" d="M74.998,31.586
				c-2.503,4.323-7.178,7.23-12.529,7.23"/>
		</g>
		<g id="A_x5F_SVGStep22_1_">
			<path id="A_x5F_SVGStep22" fill="none" stroke="#FFFFFF" stroke-width="0.5" stroke-miterlimit="10" d="M62.459,38.828
				c-2.505,4.321-7.18,7.227-12.526,7.227"/>
		</g>
		<g id="A_x5F_SVGStep23_1_">
			<path id="A_x5F_SVGStep23" fill="none" stroke="#FFFFFF" stroke-width="0.5" stroke-miterlimit="10" d="M49.927,46.05
				c-2.503,4.327-7.179,7.238-12.532,7.238"/>
		</g>
		<g id="A_x5F_SVGStep24_1_">
			<path id="A_x5F_SVGStep24" fill="none" stroke="#FFFFFF" stroke-width="0.5" stroke-miterlimit="10" d="M37.395,53.297
				c1.232,2.127,1.93,4.595,1.93,7.229c0,2.627-0.702,5.093-1.927,7.219"/>
		</g>
		<g id="A_x5F_SVGStep25_1_">
			<path id="A_x5F_SVGStep25" fill="none" stroke="#FFFFFF" stroke-width="0.5" stroke-miterlimit="10" d="M37.397,67.772
				c1.231,2.126,1.93,4.593,1.93,7.23s-0.708,5.111-1.939,7.241"/>
		</g>
		<g id="A_x5F_SVGStep26_1_">
			<path id="A_x5F_SVGStep26" fill="none" stroke="#FFFFFF" stroke-width="0.5" stroke-miterlimit="10" d="M37.406,82.255
				c1.227,2.126,1.928,4.59,1.928,7.219c0,2.639-0.708,5.114-1.938,7.242"/>
		</g>
		<g id="A_x5F_SVGStep27_1_">
			<path id="A_x5F_SVGStep27" fill="none" stroke="#FFFFFF" stroke-width="0.5" stroke-miterlimit="10" d="M37.397,96.707
				c5.341-0.003,9.998,2.889,12.511,7.194"/>
		</g>
		<g id="A_x5F_SVGStep28_1_">
			<path id="A_x5F_SVGStep28" fill="none" stroke="#FFFFFF" stroke-width="0.5" stroke-miterlimit="10" d="M49.929,103.938
				c5.354,0,10.028,2.909,12.532,7.237"/>
		</g>
		<g id="A_x5F_SVGStep29_1_">
			<path id="A_x5F_SVGStep29" fill="none" stroke="#FFFFFF" stroke-width="0.5" stroke-miterlimit="10" d="M62.469,111.177
				c5.336,0,9.994,2.89,12.507,7.191"/>
		</g>
		<g id="A_x5F_SVGStep30_1_">
			<path id="A_x5F_SVGStep30" fill="none" stroke="#FFFFFF" stroke-width="0.5" stroke-miterlimit="10" d="M75.007,118.399
				c2.509-4.318,7.179-7.223,12.531-7.223"/>
		</g>
		<g id="A_x5F_SVGStep31_1_">
			<path id="A_x5F_SVGStep31" fill="none" stroke="#FFFFFF" stroke-width="0.5" stroke-miterlimit="10" d="M87.536,111.182
				c2.502-4.328,7.181-7.24,12.541-7.24"/>
		</g>
		<g id="A_x5F_SVGStep32_1_">
			<path id="A_x5F_SVGStep32" fill="none" stroke="#FFFFFF" stroke-width="0.5" stroke-miterlimit="10" d="M100.068,103.949
				c2.501-4.332,7.185-7.245,12.543-7.245"/>
		</g>
		<g id="A_x5F_SVGStep33_1_">
			<path id="A_x5F_SVGStep33" fill="none" stroke="#FFFFFF" stroke-width="0.5" stroke-miterlimit="10" d="M112.564,96.636
				c-1.203-2.112-1.896-4.56-1.896-7.165c0-2.647,0.709-5.124,1.948-7.258"/>
		</g>
		<g id="A_x5F_SVGStep34_1_">
			<path id="A_x5F_SVGStep34" fill="none" stroke="#FFFFFF" stroke-width="0.5" stroke-miterlimit="10" d="M112.569,82.175
				c-1.206-2.114-1.902-4.563-1.902-7.175c0-2.659,0.714-5.146,1.968-7.284"/>
		</g>
		<g id="A_x5F_SVGStep35_1_">
			<path id="A_x5F_SVGStep35" fill="none" stroke="#FFFFFF" stroke-width="0.5" stroke-miterlimit="10" d="M112.604,67.758
				c-1.23-2.126-1.934-4.596-1.934-7.23c0-2.638,0.708-5.113,1.938-7.243"/>
		</g>
		<g id="A_x5F_SVGStep36_1_">
			<path id="A_x5F_SVGStep36" fill="none" stroke="#FFFFFF" stroke-width="0.5" stroke-miterlimit="10" d="M112.611,53.292
				c-5.359,0-10.042-2.912-12.543-7.24"/>
		</g>
		<g id="A_x5F_SVGStep37_1_">
			<path id="A_x5F_SVGStep37" fill="none" stroke="#FFFFFF" stroke-width="0.5" stroke-miterlimit="10" d="M100.073,46.053
				c-5.355,0-10.035-2.908-12.542-7.234"/>
		</g>
		<g id="A_x5F_SVGStep38_1_">
			<path id="A_x5F_SVGStep38" fill="none" stroke="#FFFFFF" stroke-width="0.5" stroke-miterlimit="10" d="M87.541,38.816
				c-5.352,0-10.026-2.904-12.535-7.226"/>
		</g>
	</g>
</g>
</svg>
