<?xml version="1.0" encoding="utf-8"?>
<!-- Generator: Adobe Illustrator 16.0.0, SVG Export Plug-In . SVG Version: 6.00 Build 0)  -->
<!DOCTYPE svg PUBLIC "-//W3C//DTD SVG 1.1//EN" "http://www.w3.org/Graphics/SVG/1.1/DTD/svg11.dtd">
<svg version="1.1" id="A_thumbCompletedFOL" xmlns="http://www.w3.org/2000/svg" xmlns:xlink="http://www.w3.org/1999/xlink"
	 x="0px" y="0px" width="150px" height="150px" viewBox="0 0 150 150" enable-background="new 0 0 150 150" xml:space="preserve">
<g>
	<circle fill="none" stroke="#FFFFFF" stroke-width="0.5" stroke-miterlimit="10" cx="74.997" cy="75.002" r="14.552"/>
	<circle fill="none" stroke="#FFFFFF" stroke-width="0.5" stroke-miterlimit="10" cx="74.997" cy="60.45" r="14.552"/>
	<circle fill="none" stroke="#FFFFFF" stroke-width="0.5" stroke-miterlimit="10" cx="62.393" cy="67.727" r="14.552"/>
	<circle fill="none" stroke="#FFFFFF" stroke-width="0.5" stroke-miterlimit="10" cx="62.393" cy="82.278" r="14.551"/>
	<path fill="none" stroke="#FFFFFF" stroke-width="0.5" stroke-miterlimit="10" d="M75.002,75c8.037,0,14.553,6.514,14.553,14.55
		c0,8.037-6.516,14.552-14.553,14.552S60.45,97.587,60.45,89.55C60.45,81.514,66.965,75,75.002,75z"/>
	<circle fill="none" stroke="#FFFFFF" stroke-width="0.5" stroke-miterlimit="10" cx="87.604" cy="82.278" r="14.551"/>
	<circle fill="none" stroke="#FFFFFF" stroke-width="0.5" stroke-miterlimit="10" cx="87.604" cy="67.727" r="14.552"/>
	<circle fill="none" stroke="#FFFFFF" stroke-width="0.5" stroke-miterlimit="10" cx="62.393" cy="53.175" r="14.552"/>
	<circle fill="none" stroke="#FFFFFF" stroke-width="0.5" stroke-miterlimit="10" cx="49.79" cy="75.002" r="14.552"/>
	<path fill="none" stroke="#FFFFFF" stroke-width="0.5" stroke-miterlimit="10" d="M62.399,82.277c8.037,0,14.55,6.515,14.55,14.552
		c0,8.036-6.514,14.552-14.55,14.552s-14.551-6.516-14.551-14.552C47.848,88.792,54.363,82.277,62.399,82.277z"/>
	<path fill="none" stroke="#FFFFFF" stroke-width="0.5" stroke-miterlimit="10" d="M87.604,82.277
		c8.037,0,14.551,6.515,14.551,14.552c0,8.036-6.514,14.552-14.551,14.552s-14.552-6.516-14.552-14.552
		C73.052,88.792,79.566,82.277,87.604,82.277z"/>
	<path fill="none" stroke="#FFFFFF" stroke-width="0.5" stroke-miterlimit="10" d="M100.21,60.45
		c8.037,0,14.552,6.515,14.552,14.552s-6.515,14.553-14.552,14.553c-8.036,0-14.551-6.516-14.551-14.553S92.174,60.45,100.21,60.45z
		"/>
	<path fill="none" stroke="#FFFFFF" stroke-width="0.5" stroke-miterlimit="10" d="M87.604,38.623
		c8.037,0,14.551,6.516,14.551,14.552c0,8.037-6.514,14.552-14.551,14.552s-14.552-6.515-14.552-14.552
		C73.052,45.138,79.566,38.623,87.604,38.623z"/>
	<path fill="none" stroke="#FFFFFF" stroke-width="0.5" stroke-miterlimit="10" d="M74.997,31.347
		c8.037,0,14.551,6.515,14.551,14.552S83.034,60.45,74.997,60.45c-8.036,0-14.551-6.515-14.551-14.551S66.961,31.347,74.997,31.347z
		"/>
	<path fill="none" stroke="#FFFFFF" stroke-width="0.5" stroke-miterlimit="10" d="M49.79,45.899
		c8.037,0,14.551,6.515,14.551,14.551c0,8.036-6.514,14.552-14.551,14.552c-8.036,0-14.551-6.515-14.551-14.552
		C35.239,52.413,41.754,45.899,49.79,45.899z"/>
	<path fill="none" stroke="#FFFFFF" stroke-width="0.5" stroke-miterlimit="10" d="M49.79,75.002
		c8.037,0,14.551,6.516,14.551,14.551c0,8.037-6.514,14.553-14.551,14.553c-8.036,0-14.551-6.516-14.551-14.553
		C35.239,81.518,41.754,75.002,49.79,75.002z"/>
	<path fill="none" stroke="#FFFFFF" stroke-width="0.5" stroke-miterlimit="10" d="M75.002,89.55
		c8.037,0,14.551,6.517,14.551,14.552c0,8.037-6.514,14.553-14.551,14.553s-14.551-6.516-14.551-14.553
		C60.451,96.066,66.965,89.55,75.002,89.55z"/>
	<path fill="none" stroke="#FFFFFF" stroke-width="0.5" stroke-miterlimit="10" d="M100.21,75.002
		c8.037,0,14.552,6.516,14.552,14.551c0,8.037-6.515,14.553-14.552,14.553c-8.036,0-14.551-6.516-14.551-14.551
		C85.659,81.518,92.174,75.002,100.21,75.002z"/>
	<path fill="none" stroke="#FFFFFF" stroke-width="0.5" stroke-miterlimit="10" d="M100.207,45.899
		c8.037,0,14.552,6.515,14.552,14.551c0,8.037-6.515,14.552-14.552,14.552c-8.036,0-14.551-6.515-14.551-14.552
		C85.656,52.414,92.171,45.899,100.207,45.899z"/>
	<path fill="none" stroke="#FFFFFF" stroke-width="0.5" stroke-miterlimit="10" d="M62.393,24.072
		c8.037,0,14.552,6.515,14.552,14.551S70.43,53.175,62.393,53.175c-8.036,0-14.551-6.515-14.551-14.552S54.356,24.072,62.393,24.072
		z"/>
	<path fill="none" stroke="#FFFFFF" stroke-width="0.5" stroke-miterlimit="10" d="M49.79,31.347
		c8.037,0,14.551,6.515,14.551,14.552c0,8.036-6.514,14.551-14.551,14.551c-8.036,0-14.551-6.515-14.551-14.551
		C35.239,37.862,41.754,31.347,49.79,31.347z"/>
	<path fill="none" stroke="#FFFFFF" stroke-width="0.5" stroke-miterlimit="10" d="M37.186,53.175
		c8.037,0,14.551,6.515,14.551,14.552c0,8.037-6.515,14.552-14.551,14.552s-14.552-6.516-14.552-14.552
		C22.634,59.689,29.149,53.175,37.186,53.175z"/>
	<path fill="none" stroke="#FFFFFF" stroke-width="0.5" stroke-miterlimit="10" d="M37.186,67.727
		c8.037,0,14.551,6.515,14.551,14.552c0,8.035-6.515,14.551-14.551,14.551s-14.552-6.516-14.552-14.551
		C22.634,74.241,29.149,67.727,37.186,67.727z"/>
	<path fill="none" stroke="#FFFFFF" stroke-width="0.5" stroke-miterlimit="10" d="M49.79,89.553
		c8.037,0,14.551,6.516,14.551,14.553s-6.514,14.552-14.551,14.552c-8.036,0-14.551-6.515-14.551-14.552
		C35.239,96.068,41.754,89.553,49.79,89.553z"/>
	<path fill="none" stroke="#FFFFFF" stroke-width="0.5" stroke-miterlimit="10" d="M62.399,96.829c8.037,0,14.55,6.515,14.55,14.551
		c0,8.037-6.514,14.552-14.55,14.552s-14.551-6.515-14.551-14.552C47.848,103.344,54.363,96.829,62.399,96.829z"/>
	<path fill="none" stroke="#FFFFFF" stroke-width="0.5" stroke-miterlimit="10" d="M87.604,96.829
		c8.037,0,14.551,6.515,14.551,14.551c0,8.037-6.514,14.552-14.551,14.552s-14.552-6.515-14.552-14.552
		C73.052,103.344,79.566,96.829,87.604,96.829z"/>
	<path fill="none" stroke="#FFFFFF" stroke-width="0.5" stroke-miterlimit="10" d="M100.21,89.553
		c8.037,0,14.552,6.516,14.552,14.553s-6.515,14.552-14.552,14.552c-8.036,0-14.551-6.515-14.551-14.552
		S92.174,89.553,100.21,89.553z"/>
	<path fill="none" stroke="#FFFFFF" stroke-width="0.5" stroke-miterlimit="10" d="M112.813,67.727
		c8.037,0,14.551,6.515,14.551,14.552c0,8.035-6.514,14.551-14.551,14.551c-8.035,0-14.551-6.516-14.551-14.551
		C98.264,74.241,104.777,67.727,112.813,67.727z"/>
	<path fill="none" stroke="#FFFFFF" stroke-width="0.5" stroke-miterlimit="10" d="M112.813,53.174
		c8.037,0,14.551,6.515,14.551,14.552c0,8.038-6.514,14.551-14.551,14.551c-8.035,0-14.551-6.516-14.551-14.551
		C98.262,59.69,104.777,53.174,112.813,53.174z"/>
	<path fill="none" stroke="#FFFFFF" stroke-width="0.5" stroke-miterlimit="10" d="M100.207,31.347
		c8.037,0,14.552,6.515,14.552,14.552s-6.515,14.551-14.552,14.551c-8.036,0-14.551-6.515-14.551-14.551
		S92.171,31.347,100.207,31.347z"/>
	<path fill="none" stroke="#FFFFFF" stroke-width="0.5" stroke-miterlimit="10" d="M87.604,24.072
		c8.037,0,14.551,6.515,14.551,14.551c0,8.037-6.514,14.552-14.551,14.552S73.052,46.66,73.052,38.623S79.566,24.072,87.604,24.072z
		"/>
	<path fill="none" stroke="#FFFFFF" stroke-width="0.5" stroke-miterlimit="10" d="M74.997,16.796
		c8.037,0,14.551,6.515,14.551,14.551c0,8.037-6.514,14.552-14.551,14.552c-8.036,0-14.551-6.515-14.551-14.552
		C60.446,23.311,66.961,16.796,74.997,16.796z"/>
	<path fill="none" stroke="#FFFFFF" stroke-width="0.5" stroke-miterlimit="10" d="M49.79,16.796
		c8.037,0,14.551,6.515,14.551,14.551c0,8.037-6.514,14.552-14.551,14.552c-8.036,0-14.551-6.515-14.551-14.552
		C35.239,23.311,41.754,16.796,49.79,16.796z"/>
	<path fill="none" stroke="#FFFFFF" stroke-width="0.5" stroke-miterlimit="10" d="M37.186,38.623
		c8.037,0,14.551,6.515,14.551,14.552c0,8.036-6.515,14.552-14.551,14.552c-8.037,0-14.552-6.516-14.552-14.552
		C22.634,45.138,29.149,38.623,37.186,38.623z"/>
	<path fill="none" stroke="#FFFFFF" stroke-width="0.5" stroke-miterlimit="10" d="M24.582,60.45
		c8.036,0,14.551,6.515,14.551,14.552s-6.515,14.553-14.551,14.553c-8.037,0-14.552-6.516-14.552-14.553S16.545,60.45,24.582,60.45z
		"/>
	<path fill="none" stroke="#FFFFFF" stroke-width="0.5" stroke-miterlimit="10" d="M37.186,82.277
		c8.037,0,14.551,6.515,14.551,14.552c0,8.036-6.515,14.552-14.551,14.552c-8.037,0-14.552-6.516-14.552-14.552
		C22.634,88.792,29.149,82.277,37.186,82.277z"/>
	<path fill="none" stroke="#FFFFFF" stroke-width="0.5" stroke-miterlimit="10" d="M49.79,104.104
		c8.037,0,14.551,6.516,14.551,14.553c0,8.035-6.514,14.552-14.551,14.552c-8.036,0-14.551-6.517-14.551-14.552
		C35.239,110.619,41.754,104.104,49.79,104.104z"/>
	<path fill="none" stroke="#FFFFFF" stroke-width="0.5" stroke-miterlimit="10" d="M75.002,104.102
		c8.037,0,14.551,6.516,14.551,14.553s-6.514,14.551-14.551,14.551s-14.551-6.516-14.551-14.551
		C60.451,110.616,66.965,104.102,75.002,104.102z"/>
	<path fill="none" stroke="#FFFFFF" stroke-width="0.5" stroke-miterlimit="10" d="M100.21,104.104
		c8.037,0,14.552,6.516,14.552,14.553c0,8.035-6.515,14.552-14.552,14.552c-8.036,0-14.551-6.517-14.551-14.552
		C85.659,110.619,92.174,104.104,100.21,104.104z"/>
	<path fill="none" stroke="#FFFFFF" stroke-width="0.5" stroke-miterlimit="10" d="M112.813,82.277
		c8.037,0,14.551,6.515,14.551,14.552c0,8.036-6.514,14.552-14.551,14.552c-8.035,0-14.551-6.516-14.551-14.552
		C98.264,88.792,104.777,82.277,112.813,82.277z"/>
	<path fill="none" stroke="#FFFFFF" stroke-width="0.5" stroke-miterlimit="10" d="M125.419,60.45
		c8.036,0,14.552,6.515,14.552,14.552s-6.516,14.553-14.552,14.553c-8.037,0-14.552-6.516-14.552-14.553
		S117.382,60.45,125.419,60.45z"/>
	<path fill="none" stroke="#FFFFFF" stroke-width="0.5" stroke-miterlimit="10" d="M112.813,38.623
		c8.037,0,14.551,6.515,14.551,14.551c0,8.037-6.514,14.552-14.551,14.552c-8.035,0-14.551-6.515-14.551-14.552
		C98.264,45.138,104.777,38.623,112.813,38.623z"/>
	<path fill="none" stroke="#FFFFFF" stroke-width="0.5" stroke-miterlimit="10" d="M100.207,16.796
		c8.037,0,14.552,6.515,14.552,14.551c0,8.037-6.515,14.552-14.552,14.552c-8.036,0-14.551-6.515-14.551-14.552
		C85.656,23.311,92.171,16.796,100.207,16.796z"/>
	<path fill="none" stroke="#FFFFFF" stroke-width="0.5" stroke-miterlimit="10" d="M62.393,9.52c8.037,0,14.552,6.515,14.552,14.552
		c0,8.036-6.515,14.551-14.552,14.551c-8.036,0-14.551-6.515-14.551-14.551C47.841,16.035,54.356,9.52,62.393,9.52z"/>
	<path fill="none" stroke="#FFFFFF" stroke-width="0.5" stroke-miterlimit="10" d="M37.186,24.072
		c8.037,0,14.551,6.515,14.551,14.551s-6.515,14.551-14.551,14.551S22.634,46.66,22.634,38.623S29.149,24.072,37.186,24.072z"/>
	<path fill="none" stroke="#FFFFFF" stroke-width="0.5" stroke-miterlimit="10" d="M24.582,45.899
		c8.036,0,14.551,6.515,14.551,14.551c0,8.037-6.515,14.552-14.551,14.552c-8.037,0-14.552-6.515-14.552-14.552
		C10.03,52.414,16.545,45.899,24.582,45.899z"/>
	<path fill="none" stroke="#FFFFFF" stroke-width="0.5" stroke-miterlimit="10" d="M24.582,75.002
		c8.036,0,14.551,6.516,14.551,14.553c0,8.035-6.515,14.551-14.551,14.551c-8.037,0-14.552-6.516-14.552-14.551
		C10.03,81.518,16.545,75.002,24.582,75.002z"/>
	<path fill="none" stroke="#FFFFFF" stroke-width="0.5" stroke-miterlimit="10" d="M37.186,96.829
		c8.037,0,14.551,6.515,14.551,14.551c0,8.037-6.515,14.552-14.551,14.552s-14.552-6.515-14.552-14.552
		C22.634,103.344,29.149,96.829,37.186,96.829z"/>
	<path fill="none" stroke="#FFFFFF" stroke-width="0.5" stroke-miterlimit="10" d="M62.399,111.38c8.037,0,14.55,6.517,14.55,14.552
		c0,8.037-6.514,14.553-14.55,14.553s-14.551-6.516-14.551-14.553C47.848,117.896,54.363,111.38,62.399,111.38z"/>
	<path fill="none" stroke="#FFFFFF" stroke-width="0.5" stroke-miterlimit="10" d="M87.604,111.38
		c8.037,0,14.551,6.517,14.551,14.552c0,8.037-6.514,14.553-14.551,14.553s-14.552-6.516-14.552-14.553
		C73.052,117.896,79.566,111.38,87.604,111.38z"/>
	<path fill="none" stroke="#FFFFFF" stroke-width="0.5" stroke-miterlimit="10" d="M112.813,96.829
		c8.037,0,14.551,6.515,14.551,14.551c0,8.037-6.514,14.552-14.551,14.552c-8.035,0-14.551-6.515-14.551-14.552
		C98.264,103.344,104.777,96.829,112.813,96.829z"/>
	<path fill="none" stroke="#FFFFFF" stroke-width="0.5" stroke-miterlimit="10" d="M125.419,75.002
		c8.036,0,14.552,6.516,14.552,14.553c0,8.035-6.516,14.551-14.552,14.551c-8.037,0-14.552-6.516-14.552-14.551
		C110.867,81.518,117.382,75.002,125.419,75.002z"/>
	<path fill="none" stroke="#FFFFFF" stroke-width="0.5" stroke-miterlimit="10" d="M125.419,45.899
		c8.036,0,14.552,6.515,14.552,14.551c0,8.037-6.516,14.552-14.552,14.552c-8.037,0-14.552-6.515-14.552-14.552
		C110.867,52.414,117.382,45.899,125.419,45.899z"/>
	<path fill="none" stroke="#FFFFFF" stroke-width="0.5" stroke-miterlimit="10" d="M112.813,24.071
		c8.037,0,14.551,6.515,14.551,14.552s-6.514,14.551-14.551,14.551c-8.035,0-14.551-6.515-14.551-14.551
		C98.264,30.586,104.777,24.071,112.813,24.071z"/>
	<path fill="none" stroke="#FFFFFF" stroke-width="0.5" stroke-miterlimit="10" d="M87.604,9.52c8.037,0,14.551,6.515,14.551,14.552
		c0,8.036-6.514,14.551-14.551,14.551s-14.552-6.515-14.552-14.551C73.052,16.035,79.566,9.52,87.604,9.52z"/>
	<path fill="none" stroke="#FFFFFF" stroke-width="0.5" stroke-miterlimit="10" d="M74.997,2.244
		c8.037,0,14.551,6.515,14.551,14.552s-6.514,14.551-14.551,14.551c-8.036,0-14.551-6.515-14.551-14.551
		C60.446,8.759,66.961,2.244,74.997,2.244z"/>
	<path fill="none" stroke="#FFFFFF" stroke-width="0.5" stroke-miterlimit="10" d="M24.582,31.347
		c8.036,0,14.551,6.515,14.551,14.552S32.618,60.45,24.582,60.45c-8.037,0-14.552-6.515-14.552-14.551
		C10.03,37.862,16.545,31.347,24.582,31.347z"/>
	<path fill="none" stroke="#FFFFFF" stroke-width="0.5" stroke-miterlimit="10" d="M24.582,89.555
		c8.036,0,14.551,6.514,14.551,14.551s-6.515,14.552-14.551,14.552c-8.037,0-14.552-6.515-14.552-14.552
		S16.545,89.555,24.582,89.555z"/>
	<path fill="none" stroke="#FFFFFF" stroke-width="0.5" stroke-miterlimit="10" d="M75.002,118.652
		c8.037,0,14.551,6.516,14.551,14.552c0,8.037-6.514,14.552-14.551,14.552s-14.551-6.515-14.551-14.552
		C60.451,125.168,66.965,118.652,75.002,118.652z"/>
	<path fill="none" stroke="#FFFFFF" stroke-width="0.5" stroke-miterlimit="10" d="M125.419,89.555
		c8.036,0,14.552,6.514,14.552,14.551s-6.516,14.552-14.552,14.552c-8.037,0-14.552-6.515-14.552-14.552
		S117.382,89.555,125.419,89.555z"/>
	<path fill="none" stroke="#FFFFFF" stroke-width="0.5" stroke-miterlimit="10" d="M125.419,31.347
		c8.036,0,14.552,6.515,14.552,14.552s-6.516,14.551-14.552,14.551c-8.037,0-14.552-6.515-14.552-14.551
		C110.867,37.862,117.382,31.347,125.419,31.347z"/>
</g>
</svg>
