<?xml version="1.0" encoding="utf-8"?>
	<!-- This file is part of Arminia.

	Arminia is free software: you can redistribute it and/or modify
	it under the terms of the GNU General Public License as published by
	the Free Software Foundation, either version 3 of the License, or
	(at your option) any later version.

	Arminia is distributed in the hope that it will be useful,
	but WITHOUT ANY WARRANTY; without even the implied warranty of
	MERCHANTABILITY or FITNESS FOR A PARTICULAR PURPOSE.  See the
	GNU General Public License for more details.

	You should have received a copy of the GNU General Public License
	along with Arminia.  If not, see <http://www.gnu.org/licenses/>. -->

<!-- Generator: Adobe Illustrator 16.0.0, SVG Export Plug-In . SVG Version: 6.00 Build 0)  -->
<!DOCTYPE svg PUBLIC "-//W3C//DTD SVG 1.1//EN" "http://www.w3.org/Graphics/SVG/1.1/DTD/svg11.dtd">
<svg version="1.1" id="Layer_1" xmlns="http://www.w3.org/2000/svg" xmlns:xlink="http://www.w3.org/1999/xlink" x="0px" y="0px"
	 width="471.552px" height="20.813px" viewBox="-98.165 43.759 471.552 20.813"
	 enable-background="new -98.165 43.759 471.552 20.813" xml:space="preserve">
<g>
	<path fill="#473380" d="M151.249,51.918c-1.359,0.24-2.578,0.922-3.365,1.858c-0.791,0.94-1.174,2.114-1.039,3.241
		c0.068,0.563,0.285,1.129,0.537,1.655c0.269,0.524,0.644,1.012,1.064,1.448c0.877,0.856,2.049,1.491,3.316,1.801
		c1.283,0.313,2.615,0.266,3.902-0.063c1.291-0.313,2.463-0.915,3.432-1.683c1.941-1.542,2.924-3.896,2.57-6.104
		c-0.166-1.11-0.6-2.238-1.229-3.23c-0.641-0.984-1.504-1.862-2.537-2.563c-2.078-1.396-4.789-2.094-7.448-2.005
		c-1.34,0.029-2.655,0.278-3.901,0.671c-1.231,0.414-2.378,1.012-3.38,1.747c-1.998,1.476-3.218,3.596-4.405,5.879
		c-0.608,1.138-1.232,2.311-2.041,3.465c-0.805,1.138-1.798,2.256-3.049,3.135l-0.942,0.661l-1.017,0.544l-0.521,0.275l-0.545,0.216
		l-1.101,0.432l-1.154,0.313l-0.584,0.151l-0.59,0.086l-1.193,0.171l-1.207,0.054c-0.197,0.013-0.402,0.02-0.6,0.02l-0.601-0.037
		c-0.403-0.027-0.804-0.036-1.208-0.076c-0.789-0.146-1.594-0.234-2.355-0.488c-1.547-0.393-2.982-1.099-4.25-1.961l-0.911-0.697
		c-0.303-0.232-0.538-0.519-0.802-0.786c-0.565-0.512-0.923-1.139-1.354-1.729c-0.209-0.304-0.331-0.635-0.495-0.949
		c-0.142-0.322-0.338-0.635-0.414-0.967c-0.178-0.672-0.433-1.315-0.499-2.028c-0.377-2.812,0.992-5.714,3.454-7.536
		c1.22-0.925,2.686-1.612,4.26-1.941c0.778-0.154,1.603-0.279,2.437-0.254c0.821,0.03,1.644,0.13,2.423,0.351
		c1.558,0.439,2.955,1.265,3.951,2.365c0.479,0.543,0.886,1.146,1.172,1.791c0.268,0.646,0.462,1.298,0.515,1.993
		c0.081,1.392-0.464,2.777-1.466,3.824c-1,1.056-2.479,1.732-4.011,1.924c-0.17,0.018-0.329-0.079-0.357-0.234
		c-0.029-0.141,0.094-0.274,0.252-0.303c1.352-0.271,2.543-0.979,3.32-1.909c0.787-0.929,1.135-2.1,0.99-3.212
		c-0.077-0.548-0.293-1.109-0.555-1.621c-0.277-0.519-0.641-0.994-1.072-1.414c-0.876-0.833-2.015-1.458-3.256-1.754
		c-1.255-0.298-2.553-0.259-3.814,0.068c-1.259,0.315-2.403,0.903-3.354,1.657c-0.958,0.76-1.667,1.719-2.098,2.755
		c-0.438,1.031-0.606,2.14-0.429,3.229c0.048,0.538,0.286,1.081,0.439,1.631c0.06,0.286,0.236,0.52,0.356,0.786
		c0.142,0.252,0.24,0.521,0.412,0.753c0.368,0.467,0.652,0.979,1.12,1.368c0.215,0.198,0.406,0.433,0.644,0.605l0.735,0.558
		c1.027,0.674,2.174,1.245,3.445,1.547c0.616,0.215,1.275,0.271,1.922,0.387c0.323,0.04,0.654,0.049,0.983,0.063l0.491,0.027
		c0.172,0,0.333-0.012,0.503-0.021l0.984-0.046l0.974-0.149l0.496-0.071l0.466-0.125l0.947-0.251l0.896-0.351l0.457-0.179
		l0.412-0.224l0.841-0.439l0.76-0.538c2.041-1.412,3.251-3.56,4.458-5.832c0.604-1.128,1.234-2.312,2.05-3.454
		c0.813-1.138,1.832-2.229,3.056-3.127c1.24-0.886,2.646-1.592,4.147-2.066c1.502-0.466,3.098-0.742,4.688-0.76
		c3.188-0.082,6.434,0.787,8.922,2.551c1.246,0.88,2.268,1.979,3.021,3.188c0.729,1.226,1.188,2.523,1.365,3.893
		c0.357,2.765-0.982,5.609-3.404,7.423c-1.197,0.901-2.639,1.583-4.188,1.914c-1.539,0.351-3.246,0.351-4.77-0.092
		c-1.539-0.429-2.9-1.242-3.895-2.308c-0.484-0.538-0.885-1.126-1.178-1.755c-0.271-0.634-0.478-1.288-0.529-1.969
		c-0.1-1.371,0.422-2.759,1.424-3.796c0.984-1.045,2.438-1.756,3.969-1.96c0.188-0.026,0.355,0.081,0.383,0.24
		C151.536,51.738,151.415,51.883,151.249,51.918L151.249,51.918z"/>
	<path fill="#473380" d="M164.337,51.75l93.449,0.509c1.451,0.01,2.607,0.536,2.592,1.172c-0.012,0.635-1.166,1.135-2.592,1.146
		l-93.449,0.52c-2.764,0-2.58,0-2.57-1.654c-0.016-1.691-0.225-1.688,2.479-1.688C164.265,51.75,164.319,51.75,164.337,51.75
		L164.337,51.75z"/>
	<path fill="#473380" d="M271.704,52.305l100.609,0.868c0.307,0,0.57,0.115,0.549,0.252c0,0.139-0.242,0.247-0.549,0.247
		l-100.609,0.856c-1.371,0.021-2.527-0.472-2.559-1.089c-0.016-0.619,1.086-1.119,2.48-1.137
		C271.636,52.305,271.677,52.305,271.704,52.305L271.704,52.305z"/>
	<path fill="#473380" d="M266.374,53.425c0,0.713-0.682,1.294-1.523,1.294c-0.844,0-1.521-0.581-1.521-1.294
		c0-0.719,0.678-1.3,1.521-1.3C265.692,52.125,266.374,52.704,266.374,53.425L266.374,53.425z"/>
	<path fill="#473380" d="M125.303,55.65c0,0.692-0.654,1.255-1.467,1.255s-1.467-0.563-1.467-1.255c0-0.697,0.654-1.253,1.467-1.253
		S125.303,54.952,125.303,55.65L125.303,55.65z"/>
	<path fill="#473380" d="M152.786,52.589c0,0.697-0.652,1.253-1.463,1.253c-0.814,0-1.471-0.556-1.471-1.253
		c0-0.69,0.654-1.256,1.471-1.256C152.134,51.336,152.786,51.9,152.786,52.589L152.786,52.589z"/>
	<path fill="#473380" d="M110.885,55.096l-93.45-0.509c-1.451-0.01-2.606-0.536-2.592-1.172c0.013-0.635,1.167-1.135,2.592-1.146
		l93.45-0.52c2.763,0,2.579,0,2.569,1.654c0.016,1.691,0.225,1.688-2.478,1.688C110.957,55.096,110.902,55.096,110.885,55.096
		L110.885,55.096z"/>
	<path fill="#473380" d="M3.518,54.541l-100.609-0.868c-0.308,0-0.57-0.115-0.549-0.252c0-0.139,0.241-0.247,0.549-0.247
		L3.518,52.317c1.371-0.021,2.526,0.472,2.558,1.089c0.016,0.619-1.085,1.119-2.479,1.137C3.585,54.541,3.545,54.541,3.518,54.541
		L3.518,54.541z"/>
	<path fill="#473380" d="M8.848,53.421c0-0.713,0.681-1.294,1.523-1.294c0.844,0,1.521,0.581,1.521,1.294
		c0,0.719-0.677,1.3-1.521,1.3C9.528,54.721,8.848,54.142,8.848,53.421L8.848,53.421z"/>
</g>
</svg>
