<?xml version="1.0" encoding="utf-8"?>
	<!-- This file is part of Arminia.

	Arminia is free software: you can redistribute it and/or modify
	it under the terms of the GNU General Public License as published by
	the Free Software Foundation, either version 3 of the License, or
	(at your option) any later version.

	Arminia is distributed in the hope that it will be useful,
	but WITHOUT ANY WARRANTY; without even the implied warranty of
	MERCHANTABILITY or FITNESS FOR A PARTICULAR PURPOSE.  See the
	GNU General Public License for more details.

	You should have received a copy of the GNU General Public License
	along with Arminia.  If not, see <http://www.gnu.org/licenses/>. -->

<!-- Generator: Adobe Illustrator 16.0.0, SVG Export Plug-In . SVG Version: 6.00 Build 0)  -->
<!DOCTYPE svg PUBLIC "-//W3C//DTD SVG 1.1//EN" "http://www.w3.org/Graphics/SVG/1.1/DTD/svg11.dtd">
<svg version="1.1" id="Layer_1" xmlns="http://www.w3.org/2000/svg" xmlns:xlink="http://www.w3.org/1999/xlink" x="0px" y="0px"
	 width="39.999px" height="33.467px" viewBox="0 0 39.999 33.467" enable-background="new 0 0 39.999 33.467" xml:space="preserve">
<g>
	<path fill="#ACB0DE" d="M39.999,5.05c0,0.889-0.728,1.616-1.616,1.616H1.616C0.727,6.666,0,5.939,0,5.05V1.616
		C0,0.727,0.727,0,1.616,0h36.767c0.889,0,1.616,0.727,1.616,1.616V5.05z"/>
</g>
<g>
	<path fill="#ACB0DE" d="M39.999,18.518c0,0.889-0.728,1.616-1.616,1.616H1.616C0.727,20.134,0,19.406,0,18.518v-3.434
		c0-0.889,0.727-1.616,1.616-1.616h36.767c0.889,0,1.616,0.727,1.616,1.616V18.518z"/>
</g>
<g>
	<path fill="#ACB0DE" d="M39.999,31.851c0,0.889-0.728,1.616-1.616,1.616H1.616C0.727,33.467,0,32.739,0,31.851v-3.435
		C0,27.527,0.727,26.8,1.616,26.8h36.767c0.889,0,1.616,0.728,1.616,1.616V31.851z"/>
</g>
</svg>
