<?xml version="1.0" encoding="utf-8"?>
	
<!-- This file is part of Arminia.

Arminia is free software: you can redistribute it and/or modify
it under the terms of the GNU General Public License as published by
the Free Software Foundation, either version 3 of the License, or
(at your option) any later version.

Arminia is distributed in the hope that it will be useful,
but WITHOUT ANY WARRANTY; without even the implied warranty of
MERCHANTABILITY or FITNESS FOR A PARTICULAR PURPOSE.  See the
GNU General Public License for more details.

You should have received a copy of the GNU General Public License
along with Arminia.  If not, see <http://www.gnu.org/licenses/>. -->


<!-- Generator: Adobe Illustrator 16.0.0, SVG Export Plug-In . SVG Version: 6.00 Build 0)  -->
<!DOCTYPE svg PUBLIC "-//W3C//DTD SVG 1.1//EN" "http://www.w3.org/Graphics/SVG/1.1/DTD/svg11.dtd">
<svg version="1.1" id="Layer_1" xmlns="http://www.w3.org/2000/svg" xmlns:xlink="http://www.w3.org/1999/xlink" x="0px" y="0px"
	 width="289.836px" height="26.018px" viewBox="0 0 289.836 26.018" enable-background="new 0 0 289.836 26.018"
	 xml:space="preserve">
<g >
	<path fill="#473380" d="M156.84,10.396c-1.36,0.241-2.579,0.922-3.366,1.859c-0.791,0.94-1.173,2.114-1.038,3.241
		c0.068,0.564,0.284,1.129,0.536,1.655c0.269,0.525,0.644,1.012,1.065,1.449c0.877,0.856,2.049,1.491,3.317,1.8
		c1.282,0.313,2.614,0.266,3.901-0.063c1.291-0.314,2.464-0.915,3.432-1.683c1.941-1.542,2.924-3.896,2.57-6.104
		c-0.166-1.111-0.6-2.238-1.227-3.231c-0.642-0.984-1.504-1.862-2.539-2.563c-2.078-1.396-4.789-2.094-7.447-2.005
		c-1.34,0.029-2.655,0.278-3.902,0.671c-1.232,0.414-2.379,1.012-3.381,1.747c-1.998,1.476-3.217,3.596-4.405,5.879
		c-0.608,1.138-1.232,2.31-2.041,3.465c-0.805,1.137-1.798,2.256-3.049,3.134l-0.942,0.662l-1.017,0.544l-0.52,0.275l-0.545,0.216
		l-1.101,0.431l-1.154,0.314l-0.584,0.151l-0.59,0.086l-1.193,0.171l-1.207,0.054c-0.197,0.012-0.403,0.019-0.6,0.019l-0.6-0.037
		c-0.404-0.027-0.804-0.036-1.208-0.076c-0.789-0.146-1.594-0.234-2.356-0.488c-1.547-0.393-2.982-1.099-4.25-1.961l-0.911-0.697
		c-0.303-0.233-0.538-0.519-0.802-0.787c-0.565-0.511-0.923-1.138-1.354-1.728c-0.209-0.304-0.331-0.635-0.495-0.949
		c-0.142-0.323-0.338-0.635-0.414-0.967c-0.178-0.672-0.433-1.316-0.499-2.028c-0.377-2.812,0.992-5.714,3.454-7.537
		c1.219-0.924,2.685-1.612,4.259-1.941c0.779-0.154,1.603-0.279,2.437-0.254c0.821,0.03,1.644,0.13,2.423,0.351
		c1.557,0.439,2.955,1.264,3.951,2.365c0.479,0.543,0.886,1.146,1.172,1.791c0.267,0.645,0.462,1.298,0.515,1.993
		c0.081,1.392-0.464,2.777-1.466,3.824c-1,1.056-2.479,1.733-4.011,1.924c-0.17,0.018-0.329-0.079-0.357-0.234
		c-0.03-0.141,0.093-0.275,0.251-0.303c1.352-0.27,2.543-0.978,3.321-1.909c0.787-0.929,1.135-2.1,0.99-3.212
		c-0.077-0.548-0.293-1.109-0.555-1.621c-0.277-0.519-0.64-0.994-1.072-1.414c-0.876-0.833-2.015-1.458-3.256-1.754
		c-1.255-0.298-2.553-0.259-3.814,0.068c-1.259,0.316-2.404,0.904-3.355,1.657c-0.958,0.76-1.667,1.719-2.097,2.755
		c-0.439,1.032-0.607,2.14-0.429,3.229c0.048,0.538,0.286,1.081,0.439,1.631c0.06,0.286,0.237,0.519,0.357,0.786
		c0.141,0.252,0.24,0.521,0.412,0.753c0.368,0.467,0.652,0.979,1.12,1.368c0.215,0.198,0.406,0.433,0.644,0.605l0.735,0.558
		c1.027,0.674,2.174,1.245,3.445,1.547c0.616,0.215,1.276,0.27,1.922,0.387c0.323,0.04,0.654,0.048,0.984,0.063l0.491,0.027
		c0.172,0,0.333-0.011,0.503-0.02l0.984-0.046l0.974-0.149l0.496-0.072l0.466-0.125l0.947-0.251l0.896-0.35l0.457-0.179l0.412-0.224
		l0.841-0.439l0.76-0.538c2.041-1.412,3.251-3.56,4.458-5.832c0.605-1.128,1.234-2.312,2.05-3.454
		c0.812-1.138,1.832-2.229,3.056-3.127c1.24-0.886,2.646-1.592,4.148-2.067c1.502-0.465,3.098-0.742,4.688-0.759
		c3.188-0.082,6.435,0.787,8.923,2.55c1.245,0.88,2.266,1.979,3.021,3.188c0.729,1.226,1.188,2.523,1.365,3.893
		c0.358,2.764-0.982,5.609-3.404,7.422c-1.198,0.902-2.639,1.583-4.188,1.914c-1.539,0.351-3.245,0.351-4.769-0.091
		c-1.539-0.429-2.9-1.243-3.894-2.308c-0.485-0.538-0.886-1.126-1.178-1.755c-0.271-0.634-0.478-1.288-0.53-1.969
		c-0.099-1.371,0.422-2.758,1.424-3.796c0.984-1.044,2.438-1.755,3.969-1.959c0.188-0.027,0.356,0.081,0.383,0.24
		C157.127,10.217,157.006,10.361,156.84,10.396L156.84,10.396z"/>
	<path fill="#473380" d="M169.37,10.229l48.572,0.508c0.754,0.01,1.354,0.536,1.346,1.172c-0.007,0.635-0.606,1.135-1.346,1.146
		l-48.572,0.519c-1.084,0.009-1.97-0.731-1.978-1.654c-0.019-0.923,0.847-1.683,1.93-1.688
		C169.333,10.229,169.361,10.229,169.37,10.229L169.37,10.229z"/>
	<path fill="#473380" d="M227.805,10.783l52.29,0.868c0.161,0,0.298,0.116,0.286,0.252c0,0.139-0.125,0.247-0.286,0.247
		l-52.29,0.857c-0.713,0.021-1.314-0.472-1.331-1.089c-0.007-0.619,0.565-1.119,1.289-1.137
		C227.77,10.783,227.79,10.783,227.805,10.783L227.805,10.783z"/>
	<path fill="#473380" d="M224.657,11.903c0,0.713-0.681,1.294-1.523,1.294c-0.844,0-1.521-0.581-1.521-1.294
		c0-0.718,0.677-1.299,1.521-1.299C223.976,10.604,224.657,11.183,224.657,11.903L224.657,11.903z"/>
	<path fill="#473380" d="M117.162,13.574l-48.573-0.52c-0.753-0.01-1.352-0.527-1.342-1.171c0.009-0.626,0.605-1.137,1.342-1.146
		l48.573-0.508c1.083-0.015,1.971,0.721,1.988,1.651c0.01,0.923-0.851,1.674-1.934,1.691
		C117.199,13.574,117.182,13.574,117.162,13.574L117.162,13.574z"/>
	<path fill="#473380" d="M58.726,13.009L6.449,12.15c-0.17,0-0.296-0.116-0.296-0.259c0-0.137,0.133-0.24,0.296-0.24l52.277-0.868
		c0.725-0.012,1.318,0.483,1.336,1.091c0.018,0.616-0.555,1.127-1.281,1.135C58.761,13.019,58.741,13.019,58.726,13.009
		L58.726,13.009z"/>
	<path fill="#473380" d="M61.876,11.903c0-0.718,0.681-1.299,1.52-1.299c0.843,0,1.534,0.581,1.534,1.299
		c0,0.713-0.69,1.294-1.534,1.294C62.557,13.197,61.876,12.616,61.876,11.903L61.876,11.903z"/>
	<path fill="#473380" d="M130.892,14.129c0,0.692-0.654,1.255-1.466,1.255c-0.813,0-1.467-0.563-1.467-1.255
		c0-0.697,0.654-1.253,1.467-1.253C130.238,12.876,130.892,13.431,130.892,14.129L130.892,14.129z"/>
	<path fill="#473380" d="M158.377,11.067c0,0.698-0.652,1.253-1.463,1.253c-0.815,0-1.471-0.555-1.471-1.253
		c0-0.69,0.654-1.255,1.471-1.255C157.725,9.814,158.377,10.379,158.377,11.067L158.377,11.067z"/>
</g>
</svg>
