<?xml version="1.0" encoding="utf-8"?>
	<!-- This file is part of Arminia.

	Arminia is free software: you can redistribute it and/or modify
	it under the terms of the GNU General Public License as published by
	the Free Software Foundation, either version 3 of the License, or
	(at your option) any later version.

	Arminia is distributed in the hope that it will be useful,
	but WITHOUT ANY WARRANTY; without even the implied warranty of
	MERCHANTABILITY or FITNESS FOR A PARTICULAR PURPOSE.  See the
	GNU General Public License for more details.

	You should have received a copy of the GNU General Public License
	along with Arminia.  If not, see <http://www.gnu.org/licenses/>. -->

<!-- Generator: Adobe Illustrator 16.0.0, SVG Export Plug-In . SVG Version: 6.00 Build 0)  -->
<!DOCTYPE svg PUBLIC "-//W3C//DTD SVG 1.1//EN" "http://www.w3.org/Graphics/SVG/1.1/DTD/svg11.dtd">
<svg version="1.1" id="Layer_1" xmlns="http://www.w3.org/2000/svg" xmlns:xlink="http://www.w3.org/1999/xlink" x="0px" y="0px"
	 width="500px" height="500px" viewBox="0 0 500 500" enable-background="new 0 0 500 500" xml:space="preserve">
<path fill="#ACB0DE" d="M458.333,413.737c0,23.665-6.771,43.945-20.345,60.872S408.105,500,388.997,500H111.002
	c-19.108,0-35.417-8.464-48.991-25.391s-20.345-37.207-20.345-60.872c0-18.458,0.912-35.872,2.767-52.247
	c1.855-16.373,5.273-32.877,10.254-49.479s11.328-30.826,19.043-42.643s17.904-21.485,30.599-28.972
	c12.695-7.487,27.278-11.23,43.782-11.23c28.418,27.767,62.402,41.667,101.888,41.667c39.486,0,73.47-13.9,101.888-41.667
	c16.504,0,31.088,3.744,43.783,11.23c12.695,7.487,22.884,17.156,30.599,28.972s14.063,26.041,19.043,42.643
	s8.398,33.105,10.254,49.479C457.422,377.865,458.333,395.279,458.333,413.737z M375,125c0,34.505-12.207,63.965-36.621,88.379
	S284.506,250,250,250c-34.505,0-63.965-12.207-88.379-36.621S125,159.505,125,125s12.207-63.965,36.621-88.379S215.495,0,250,0
	c34.506,0,63.965,12.207,88.379,36.621S375,90.495,375,125z"/>
</svg>
