<?xml version="1.0" encoding="utf-8"?>
<!-- Generator: Adobe Illustrator 16.0.0, SVG Export Plug-In . SVG Version: 6.00 Build 0)  -->
<!DOCTYPE svg PUBLIC "-//W3C//DTD SVG 1.1//EN" "http://www.w3.org/Graphics/SVG/1.1/DTD/svg11.dtd">
<svg version="1.1" id="Layer_3" xmlns="http://www.w3.org/2000/svg" xmlns:xlink="http://www.w3.org/1999/xlink" x="0px" y="0px"
	 width="1037px" height="532px" viewBox="0 -35 1037 532" enable-background="new 0 -35 1037 532" xml:space="preserve">
<g id="step14White_1_">
	<path fill="#291159" fill-opacity="0.8" stroke="#FFFFFF" stroke-width="3" stroke-miterlimit="10" d="M1034.375,487.515
		c0,5.238-4.662,9.485-10.414,9.485H10.414C4.663,497,0,492.753,0,487.515v-513.03C0-30.754,4.663-35,10.414-35h1013.547
		c5.752,0,10.414,4.246,10.414,9.484V487.515L1034.375,487.515z"/>
	<g>
		<text transform="matrix(1 0 0 1 135.8354 348.4883)" fill="#FFFFFF" font-family="'Verdana'" font-size="31">Only 1.78 x 10</text>
		<text transform="matrix(0.583 0 0 0.583 367.564 333.165)" fill="#FFFFFF" font-family="'Verdana'" font-size="31">-39 </text>
		<text transform="matrix(1 0 0 1 405.104 348.4883)" fill="#FFFFFF" font-family="'Verdana'" font-size="31">% of the vacuum density within</text>
		<text transform="matrix(1 0 0 1 135.8354 385.6885)" fill="#FFFFFF" font-family="'Verdana'" font-size="31">the proton is needed to obey the Schwarzschild </text>
		<text transform="matrix(1 0 0 1 135.8354 422.8887)" fill="#FFFFFF" font-family="'Verdana'" font-size="31">condition</text>
		<g>
			<text transform="matrix(1 0 0 1 137.3228 36.4805)" fill="#FFFFFF" font-family="'Verdana'" font-size="31">Ratio of R</text>
			<text transform="matrix(0.583 0 0 0.583 290.0981 41.8037)" fill="#FFFFFF" font-family="'Verdana'" font-size="31">p</text>
			<text transform="matrix(1 0 0 1 301.3579 36.4805)" fill="#FFFFFF" font-family="'Verdana'" font-size="31"> needed to obey the </text>
			<text transform="matrix(1 0 0 1 137.3228 83.4805)" fill="#FFFFFF" font-family="'Verdana'" font-size="31">Schwarzschild condition</text>
			
				<line fill="none" stroke="#FFFFFF" stroke-width="3" stroke-miterlimit="10" x1="136.132" y1="46.844" x2="616.539" y2="46.844"/>
			
				<line fill="none" stroke="#FFFFFF" stroke-width="3" stroke-miterlimit="10" x1="136.132" y1="94.157" x2="510.149" y2="94.157"/>
		</g>
		<g>
			<g>
				<text transform="matrix(1 0 0 1 140.4165 266.6094)" fill="#FFFFFF" font-family="'Verdana'" font-size="31">R</text>
				<text transform="matrix(0.583 0 0 0.583 161.9712 271.9336)" fill="#FFFFFF" font-family="'Verdana'" font-size="31">m</text>
				<text transform="matrix(1 0 0 1 179.5498 266.6094)" fill="#FFFFFF" font-family="'Verdana'" font-size="31"> = </text>
				<text transform="matrix(1 0 0 1 226.7158 252.6094)" fill="#FFFFFF" font-family="'Verdana'" font-size="31">__ </text>
				<text transform="matrix(1 0 0 1 277.0303 266.6094)" fill="#FFFFFF" font-family="'Verdana'" font-size="31">x 100 = 1.78 x 10</text>
				<text transform="matrix(0.583 0 0 0.583 562.5234 251.2871)" fill="#FFFFFF" font-family="'Verdana'" font-size="31">-39 </text>
				<text transform="matrix(1 0 0 1 600.0645 266.6094)" fill="#FFFFFF" font-family="'Verdana'" font-size="31">%</text>
				<g>
					<text transform="matrix(1 0 0 1 232.1846 250.6094)" fill="#FFFFFF" font-family="'Verdana'" font-size="31">M</text>
					<text transform="matrix(1 0 0 1 228.8398 290.6094)" fill="#FFFFFF" font-family="'Verdana'" font-size="31">R</text>
					<text transform="matrix(0.583 0 0 0.583 250.3945 295.9336)" fill="#FFFFFF" font-family="'Verdana'" font-size="31">p</text>
				</g>
			</g>
		</g>
		<g>
			<g>
				<text transform="matrix(1 0 0 1 142.4951 149.5713)" fill="#FFFFFF" font-family="'Verdana'" font-size="31">M</text>
				<text transform="matrix(1 0 0 1 139.1504 193.5718)" fill="#FFFFFF" font-family="'Verdana'" font-size="31">R</text>
				<text transform="matrix(0.583 0 0 0.583 160.7051 198.895)" fill="#FFFFFF" font-family="'Verdana'" font-size="31">p</text>
			</g>
			<text transform="matrix(1 0 0 1 136.1313 155.5718)" fill="#FFFFFF" font-family="'Verdana'" font-size="31">__ </text>
			<text transform="matrix(1 0 0 1 186.4458 169.5718)" fill="#FFFFFF" font-family="'Verdana'" font-size="31">= </text>
			<text transform="matrix(1 0 0 1 222.7134 155.5718)" fill="#FFFFFF" font-family="'Verdana'" font-size="31">_____________</text>
			<text transform="matrix(1 0 0 1 478.9175 169.5718)" fill="#FFFFFF" font-family="'MyriadPro-Regular'" font-size="12"> </text>
			<text transform="matrix(1 0 0 1 481.4614 169.5718)" fill="#FFFFFF" font-family="'Verdana'" font-size="31"> = 1.78 x 10</text>
			<text transform="matrix(0.583 0 0 0.583 678.5869 154.2485)" fill="#FFFFFF" font-family="'Verdana'" font-size="31">-41</text>
			<text transform="matrix(1 0 0 1 709.7734 155.5718)" fill="#FFFFFF" font-family="'Verdana'" font-size="31"> </text>
			<g>
				<text transform="matrix(1 0 0 1 223.3394 149.5713)" fill="#FFFFFF" font-family="'Verdana'" font-size="31">(8.85 x 10</text>
				<text transform="matrix(0.583 0 0 0.583 387.376 134.248)" fill="#FFFFFF" font-family="'Verdana'" font-size="31">14</text>
				<text transform="matrix(1 0 0 1 410.356 149.5713)" fill="#FFFFFF" font-family="'Verdana'" font-size="31"> gm)</text>
				<text transform="matrix(1 0 0 1 223.3394 194.5718)" fill="#FFFFFF" font-family="'Verdana'" font-size="31">(4.98 x 10</text>
				<text transform="matrix(0.583 0 0 0.583 387.376 179.2485)" fill="#FFFFFF" font-family="'Verdana'" font-size="31">55</text>
				<text transform="matrix(1 0 0 1 410.356 194.5718)" fill="#FFFFFF" font-family="'Verdana'" font-size="31"> gm)</text>
			</g>
		</g>
	</g>
</g>
</svg>
