<?xml version="1.0" encoding="utf-8"?>
<!-- Generator: Adobe Illustrator 16.0.0, SVG Export Plug-In . SVG Version: 6.00 Build 0)  -->
<!DOCTYPE svg PUBLIC "-//W3C//DTD SVG 1.1//EN" "http://www.w3.org/Graphics/SVG/1.1/DTD/svg11.dtd">
<svg version="1.1" id="Layer_3" xmlns="http://www.w3.org/2000/svg" xmlns:xlink="http://www.w3.org/1999/xlink" x="0px" y="0px"
	 width="840px" height="297px" viewBox="-62 0 840 297" enable-background="new -62 0 840 297" xml:space="preserve">
<path fill="#291159" fill-opacity="0.8" stroke="#FFFFFF" stroke-width="3" stroke-miterlimit="10" d="M778,291.704
	c0,2.925-3.785,5.296-8.458,5.296H-53.543c-4.67,0-8.457-2.371-8.457-5.296V5.295C-62,2.369-58.213,0-53.543,0h823.085
	C774.215,0,778,2.369,778,5.295V291.704L778,291.704z"/>
<g id="step20White">
	<g>
		<g>
			<path fill="#FFFFFF" d="M-12.052,123.545h-0.151c-0.313-0.091-0.722-0.184-1.226-0.28c-0.505-0.096-0.949-0.144-1.332-0.144
				c-1.221,0-2.106,0.27-2.657,0.81c-0.55,0.54-0.825,1.517-0.825,2.929v0.575h5.131v2.392h-5.041v14.516h-2.846v-14.516h-1.922
				v-2.392h1.922v-0.56c0-2.008,0.5-3.55,1.499-4.624c0.999-1.075,2.442-1.612,4.329-1.612c0.636,0,1.208,0.03,1.718,0.091
				c0.51,0.061,0.977,0.131,1.4,0.212V123.545z"/>
			<path fill="#FFFFFF" d="M19.508,132.506H1.556v-2.422h17.952V132.506z M19.508,138.863H1.556v-2.422h17.952V138.863z"/>
			<path fill="#FFFFFF" d="M53.883,134.884H34.054v-1.816h19.829V134.884z"/>
			<path fill="#FFFFFF" d="M73.591,134.884H53.762v-1.816h19.829V134.884z"/>
			<path fill="#FFFFFF" d="M106.09,132.506H88.138v-2.422h17.952V132.506z M106.09,138.863H88.138v-2.422h17.952V138.863z"/>
			<path fill="#FFFFFF" d="M137.105,144.343h-12.2v-2.301h4.692v-15.106h-4.692v-2.059c0.636,0,1.317-0.053,2.043-0.159
				c0.727-0.105,1.276-0.259,1.65-0.461c0.464-0.252,0.83-0.573,1.098-0.961c0.267-0.388,0.421-0.91,0.461-1.566h2.346v20.313h4.602
				V144.343z"/>
			<path fill="#FFFFFF" d="M147.852,144.343h-3.618v-4.314h3.618V144.343z"/>
			<path fill="#FFFFFF" d="M169.543,138.061c0,1.948-0.759,3.567-2.278,4.859c-1.519,1.292-3.428,1.938-5.729,1.938
				c-2.442,0-4.387-0.63-5.835-1.892c-1.448-1.261-2.172-2.876-2.172-4.844c0-1.251,0.363-2.384,1.09-3.398
				c0.727-1.015,1.75-1.819,3.073-2.415v-0.091c-1.211-0.646-2.106-1.352-2.687-2.119c-0.58-0.767-0.87-1.726-0.87-2.876
				c0-1.695,0.696-3.108,2.089-4.238c1.393-1.13,3.164-1.695,5.313-1.695c2.25,0,4.046,0.54,5.389,1.62
				c1.342,1.08,2.013,2.452,2.013,4.117c0,1.02-0.318,2.021-0.954,3.005c-0.636,0.983-1.569,1.753-2.8,2.308v0.091
				c1.413,0.605,2.492,1.353,3.239,2.24C169.169,135.559,169.543,136.689,169.543,138.061z M166.425,138.349
				c0-0.928-0.204-1.673-0.613-2.232c-0.408-0.561-1.208-1.123-2.399-1.688c-0.475-0.222-0.994-0.429-1.559-0.621
				c-0.565-0.191-1.317-0.459-2.255-0.802c-0.908,0.495-1.637,1.166-2.187,2.013c-0.55,0.848-0.825,1.807-0.825,2.876
				c0,1.362,0.469,2.488,1.408,3.375c0.938,0.888,2.129,1.332,3.572,1.332c1.473,0,2.651-0.378,3.535-1.135
				C165.983,140.71,166.425,139.671,166.425,138.349z M165.956,127.057c0-1.08-0.417-1.94-1.249-2.581
				c-0.833-0.641-1.895-0.961-3.187-0.961c-1.271,0-2.313,0.303-3.126,0.908c-0.812,0.605-1.218,1.423-1.218,2.452
				c0,0.727,0.205,1.354,0.613,1.885c0.409,0.529,1.027,1.001,1.854,1.415c0.373,0.182,0.911,0.419,1.612,0.711
				c0.701,0.293,1.385,0.535,2.051,0.727c0.999-0.666,1.69-1.357,2.074-2.074C165.764,128.823,165.956,127.995,165.956,127.057z"/>
			<path fill="#FFFFFF" d="M189.054,133.066c0,4.047-0.633,7.016-1.9,8.908c-1.266,1.893-3.231,2.838-5.896,2.838
				c-2.705,0-4.68-0.958-5.926-2.876c-1.247-1.917-1.87-4.864-1.87-8.84c0-4.006,0.63-6.965,1.892-8.877
				c1.261-1.913,3.229-2.869,5.903-2.869c2.704,0,4.68,0.971,5.926,2.914C188.431,126.207,189.054,129.141,189.054,133.066z
				 M185.073,139.938c0.353-0.817,0.593-1.779,0.719-2.883c0.126-1.105,0.189-2.435,0.189-3.989c0-1.534-0.063-2.866-0.189-3.996
				c-0.126-1.13-0.371-2.089-0.734-2.876c-0.354-0.777-0.835-1.362-1.446-1.756c-0.61-0.394-1.395-0.59-2.354-0.59
				c-0.949,0-1.733,0.197-2.354,0.59c-0.621,0.394-1.113,0.989-1.476,1.786c-0.343,0.747-0.578,1.721-0.704,2.921
				c-0.126,1.201-0.189,2.518-0.189,3.951c0,1.574,0.055,2.891,0.167,3.951c0.111,1.06,0.348,2.008,0.711,2.846
				c0.333,0.787,0.805,1.388,1.415,1.801c0.611,0.414,1.42,0.621,2.43,0.621c0.948,0,1.735-0.197,2.361-0.59
				C184.246,141.331,184.73,140.735,185.073,139.938z"/>
			<path fill="#FFFFFF" d="M209.125,137.032c0,2.291-0.754,4.16-2.263,5.608c-1.508,1.448-3.358,2.172-5.547,2.172
				c-1.11,0-2.119-0.172-3.027-0.515s-1.71-0.853-2.407-1.529c-0.868-0.837-1.536-1.947-2.006-3.33
				c-0.469-1.382-0.704-3.047-0.704-4.995c0-1.998,0.214-3.769,0.643-5.313c0.429-1.544,1.113-2.916,2.051-4.117
				c0.888-1.14,2.033-2.031,3.436-2.671c1.402-0.641,3.037-0.961,4.904-0.961c0.595,0,1.095,0.025,1.499,0.076
				c0.403,0.051,0.812,0.142,1.226,0.272v2.891h-0.151c-0.283-0.151-0.709-0.295-1.279-0.431c-0.57-0.137-1.153-0.205-1.748-0.205
				c-2.17,0-3.9,0.679-5.192,2.036c-1.292,1.357-2.043,3.192-2.255,5.502c0.848-0.515,1.683-0.906,2.505-1.173
				c0.823-0.267,1.773-0.401,2.854-0.401c0.958,0,1.804,0.088,2.535,0.265c0.732,0.176,1.481,0.532,2.248,1.067
				c0.888,0.616,1.557,1.393,2.006,2.331C208.901,134.549,209.125,135.69,209.125,137.032z M206.053,137.153
				c0-0.938-0.139-1.715-0.416-2.331c-0.278-0.615-0.734-1.15-1.37-1.604c-0.464-0.323-0.979-0.535-1.544-0.636
				c-0.565-0.101-1.156-0.151-1.771-0.151c-0.858,0-1.655,0.101-2.392,0.303c-0.737,0.202-1.494,0.515-2.271,0.938
				c-0.021,0.222-0.036,0.437-0.045,0.643c-0.01,0.207-0.015,0.467-0.015,0.78c0,1.595,0.164,2.853,0.492,3.777
				c0.328,0.923,0.78,1.652,1.355,2.187c0.464,0.444,0.966,0.77,1.506,0.976c0.54,0.207,1.127,0.311,1.763,0.311
				c1.463,0,2.613-0.446,3.451-1.34C205.634,140.112,206.053,138.828,206.053,137.153z"/>
			<path fill="#FFFFFF" d="M239.142,144.343h-3.587l-4.798-6.494l-4.829,6.494h-3.315l6.6-8.431l-6.539-8.477h3.587l4.768,6.388
				l4.783-6.388h3.33l-6.645,8.325L239.142,144.343z"/>
			<path fill="#FFFFFF" d="M267.356,144.343h-12.2v-2.301h4.692v-15.106h-4.692v-2.059c0.636,0,1.317-0.053,2.043-0.159
				c0.727-0.105,1.276-0.259,1.65-0.461c0.464-0.252,0.83-0.573,1.098-0.961c0.267-0.388,0.421-0.91,0.461-1.566h2.346v20.313h4.602
				V144.343z"/>
			<path fill="#FFFFFF" d="M288.321,133.066c0,4.047-0.633,7.016-1.9,8.908c-1.266,1.893-3.231,2.838-5.896,2.838
				c-2.705,0-4.68-0.958-5.926-2.876c-1.247-1.917-1.87-4.864-1.87-8.84c0-4.006,0.63-6.965,1.892-8.877
				c1.261-1.913,3.229-2.869,5.903-2.869c2.704,0,4.68,0.971,5.926,2.914C287.698,126.207,288.321,129.141,288.321,133.066z
				 M284.34,139.938c0.353-0.817,0.593-1.779,0.719-2.883c0.126-1.105,0.189-2.435,0.189-3.989c0-1.534-0.063-2.866-0.189-3.996
				c-0.126-1.13-0.371-2.089-0.734-2.876c-0.354-0.777-0.835-1.362-1.446-1.756c-0.61-0.394-1.395-0.59-2.354-0.59
				c-0.949,0-1.733,0.197-2.354,0.59c-0.621,0.394-1.113,0.989-1.476,1.786c-0.343,0.747-0.578,1.721-0.704,2.921
				c-0.126,1.201-0.189,2.518-0.189,3.951c0,1.574,0.055,2.891,0.167,3.951c0.111,1.06,0.348,2.008,0.711,2.846
				c0.333,0.787,0.805,1.388,1.415,1.801c0.611,0.414,1.42,0.621,2.43,0.621c0.948,0,1.735-0.197,2.361-0.59
				C283.512,141.331,283.997,140.735,284.34,139.938z"/>
			<path fill="#FFFFFF" d="M300.68,129.02h-8.895v-1.844c0.618-0.53,1.237-1.059,1.857-1.588c0.621-0.53,1.199-1.056,1.734-1.58
				c1.13-1.095,1.903-1.964,2.321-2.608c0.417-0.644,0.626-1.34,0.626-2.087c0-0.683-0.225-1.216-0.675-1.602
				c-0.45-0.385-1.078-0.578-1.884-0.578c-0.536,0-1.115,0.094-1.739,0.282c-0.624,0.188-1.232,0.477-1.827,0.865h-0.088v-1.853
				c0.418-0.206,0.976-0.394,1.672-0.565c0.697-0.17,1.373-0.256,2.025-0.256c1.347,0,2.403,0.325,3.168,0.975
				c0.765,0.65,1.147,1.531,1.147,2.643c0,0.5-0.063,0.966-0.19,1.399c-0.126,0.432-0.313,0.843-0.56,1.231
				c-0.229,0.365-0.499,0.724-0.808,1.077c-0.309,0.353-0.684,0.744-1.125,1.173c-0.63,0.618-1.28,1.217-1.951,1.796
				c-0.67,0.58-1.297,1.116-1.879,1.611h7.068V129.02z"/>
			<path fill="#FFFFFF" d="M312.17,129.02h-8.895v-1.844c0.618-0.53,1.237-1.059,1.857-1.588c0.621-0.53,1.199-1.056,1.734-1.58
				c1.13-1.095,1.903-1.964,2.321-2.608c0.417-0.644,0.626-1.34,0.626-2.087c0-0.683-0.225-1.216-0.675-1.602
				c-0.45-0.385-1.078-0.578-1.884-0.578c-0.536,0-1.115,0.094-1.739,0.282c-0.624,0.188-1.232,0.477-1.827,0.865h-0.088v-1.853
				c0.418-0.206,0.976-0.394,1.672-0.565c0.697-0.17,1.373-0.256,2.025-0.256c1.347,0,2.403,0.325,3.168,0.975
				c0.765,0.65,1.147,1.531,1.147,2.643c0,0.5-0.063,0.966-0.19,1.399c-0.126,0.432-0.313,0.843-0.56,1.231
				c-0.229,0.365-0.499,0.724-0.808,1.077c-0.309,0.353-0.684,0.744-1.125,1.173c-0.63,0.618-1.28,1.217-1.951,1.796
				c-0.67,0.58-1.297,1.116-1.879,1.611h7.068V129.02z"/>
			<path fill="#FFFFFF" d="M344.51,144.343h-2.997v-11.035h-11.247v11.035h-2.997v-22.539h2.997v8.84h11.247v-8.84h2.997V144.343z"
				/>
			<path fill="#FFFFFF" d="M362.599,144.343h-13.653v-2.104l9.854-12.427h-9.642v-2.376h13.185v2.028l-9.9,12.473h10.157V144.343z"
				/>
			<path fill="#FFFFFF" d="M396.384,132.506h-17.952v-2.422h17.952V132.506z M396.384,138.863h-17.952v-2.422h17.952V138.863z"/>
		</g>
		<g>
			<g enable-background="new    ">
				<path fill="#FFFFFF" d="M59.442,123.341h-12.2v-2.301h4.692v-15.106h-4.692v-2.059c0.636,0,1.317-0.053,2.043-0.159
					c0.727-0.105,1.276-0.26,1.65-0.461c0.464-0.253,0.83-0.573,1.098-0.962c0.267-0.388,0.421-0.91,0.461-1.566h2.346v20.313h4.602
					V123.341z"/>
			</g>
			<g enable-background="new    ">
				<path fill="#FFFFFF" d="M60.66,167.189c-0.535,0.143-1.118,0.258-1.749,0.35c-0.63,0.09-1.193,0.135-1.688,0.135
					c-1.726,0-3.038-0.463-3.936-1.393c-0.898-0.928-1.347-2.416-1.347-4.465v-8.99h-1.922v-2.393h1.922v-4.859h2.846v4.859h5.873
					v2.393h-5.873v7.703c0,0.889,0.02,1.582,0.061,2.082c0.04,0.5,0.182,0.967,0.424,1.4c0.222,0.402,0.527,0.699,0.916,0.885
					c0.389,0.188,0.981,0.281,1.779,0.281c0.464,0,0.948-0.068,1.453-0.205c0.504-0.137,0.868-0.25,1.09-0.34h0.151V167.189z"/>
			</g>
		</g>
		<g>
			<path fill="#FFFFFF" d="M428.814,122.596c0,0.878-0.205,1.746-0.613,2.604c-0.408,0.858-0.982,1.584-1.719,2.18
				c-0.807,0.646-1.748,1.15-2.822,1.514s-2.369,0.545-3.883,0.545c-1.625,0-3.086-0.151-4.383-0.454s-2.615-0.751-3.957-1.347
				v-3.754h0.211c1.141,0.949,2.457,1.68,3.951,2.195s2.896,0.772,4.207,0.772c1.857,0,3.303-0.348,4.338-1.044
				c1.033-0.696,1.551-1.625,1.551-2.785c0-0.999-0.244-1.735-0.734-2.21c-0.488-0.474-1.232-0.842-2.232-1.105
				c-0.756-0.202-1.576-0.368-2.459-0.5c-0.883-0.131-1.818-0.297-2.809-0.5c-1.998-0.424-3.479-1.148-4.441-2.172
				c-0.965-1.024-1.447-2.359-1.447-4.004c0-1.887,0.799-3.434,2.393-4.64c1.594-1.206,3.617-1.809,6.07-1.809
				c1.584,0,3.037,0.151,4.359,0.454s2.492,0.676,3.512,1.12v3.542h-0.213c-0.857-0.727-1.984-1.33-3.383-1.809
				c-1.398-0.479-2.828-0.719-4.291-0.719c-1.605,0-2.895,0.333-3.867,0.999c-0.975,0.666-1.461,1.524-1.461,2.573
				c0,0.938,0.242,1.675,0.727,2.21c0.484,0.535,1.338,0.944,2.559,1.226c0.645,0.142,1.564,0.313,2.754,0.515
				c1.191,0.202,2.201,0.409,3.027,0.621c1.676,0.444,2.938,1.115,3.785,2.013C428.391,119.725,428.814,120.981,428.814,122.596z"/>
			<path fill="#FFFFFF" d="M445.902,127.969c-0.947,0.454-1.848,0.808-2.701,1.06s-1.758,0.378-2.717,0.378
				c-1.221,0-2.342-0.179-3.361-0.538c-1.018-0.358-1.891-0.9-2.617-1.627c-0.736-0.727-1.307-1.645-1.711-2.755
				c-0.404-1.11-0.605-2.407-0.605-3.89c0-2.765,0.76-4.935,2.277-6.509c1.52-1.574,3.525-2.361,6.018-2.361
				c0.969,0,1.92,0.136,2.854,0.409s1.789,0.605,2.564,0.999v3.164h-0.15c-0.867-0.676-1.764-1.196-2.688-1.559
				c-0.922-0.363-1.824-0.545-2.701-0.545c-1.615,0-2.889,0.542-3.822,1.627c-0.934,1.085-1.4,2.677-1.4,4.776
				c0,2.039,0.457,3.605,1.371,4.7c0.912,1.095,2.197,1.643,3.852,1.643c0.574,0,1.16-0.076,1.756-0.227s1.131-0.348,1.604-0.59
				c0.414-0.212,0.803-0.437,1.166-0.674c0.363-0.237,0.65-0.441,0.863-0.613h0.15V127.969z"/>
			<path fill="#FFFFFF" d="M463.688,129.029h-2.846v-9.627c0-0.777-0.045-1.506-0.135-2.188c-0.092-0.681-0.258-1.213-0.5-1.597
				c-0.252-0.424-0.615-0.739-1.09-0.946c-0.475-0.207-1.09-0.31-1.848-0.31c-0.775,0-1.588,0.192-2.436,0.575
				c-0.848,0.384-1.66,0.873-2.438,1.468v12.624h-2.846v-23.553h2.846v8.522c0.889-0.736,1.807-1.312,2.754-1.726
				c0.949-0.414,1.924-0.621,2.922-0.621c1.826,0,3.219,0.55,4.178,1.65c0.959,1.1,1.438,2.685,1.438,4.753V129.029z"/>
			<path fill="#FFFFFF" d="M490.285,112.121l-4.406,16.908h-2.633l-4.344-13.033l-4.314,13.033h-2.619l-4.449-16.908h2.967
				l3.102,13.093l4.225-13.093h2.346l4.328,13.093l2.938-13.093H490.285z"/>
			<path fill="#FFFFFF" d="M507.223,129.029h-2.83v-1.801c-0.252,0.172-0.594,0.411-1.021,0.719c-0.43,0.308-0.846,0.552-1.25,0.734
				c-0.475,0.232-1.02,0.426-1.635,0.583c-0.615,0.157-1.336,0.235-2.164,0.235c-1.523,0-2.816-0.504-3.875-1.514
				c-1.061-1.009-1.59-2.295-1.59-3.86c0-1.281,0.275-2.318,0.826-3.11c0.549-0.792,1.334-1.416,2.354-1.87
				c1.029-0.454,2.266-0.762,3.707-0.923c1.443-0.161,2.992-0.282,4.648-0.363v-0.439c0-0.646-0.113-1.181-0.342-1.604
				c-0.227-0.424-0.553-0.757-0.977-0.999c-0.402-0.232-0.887-0.388-1.453-0.469c-0.564-0.081-1.154-0.121-1.77-0.121
				c-0.748,0-1.58,0.099-2.498,0.295c-0.918,0.197-1.867,0.482-2.846,0.855h-0.152v-2.891c0.557-0.151,1.357-0.318,2.408-0.5
				c1.049-0.182,2.084-0.272,3.102-0.272c1.191,0,2.229,0.099,3.111,0.295c0.883,0.197,1.648,0.533,2.293,1.007
				c0.637,0.464,1.121,1.065,1.453,1.801c0.334,0.737,0.5,1.65,0.5,2.74V129.029z M504.393,124.866v-4.708
				c-0.869,0.051-1.891,0.126-3.066,0.227c-1.176,0.101-2.105,0.248-2.793,0.439c-0.816,0.232-1.477,0.593-1.982,1.082
				c-0.504,0.49-0.756,1.164-0.756,2.021c0,0.969,0.293,1.698,0.877,2.187c0.586,0.49,1.479,0.734,2.68,0.734
				c0.998,0,1.912-0.194,2.74-0.583C502.918,125.878,503.686,125.411,504.393,124.866z"/>
			<path fill="#FFFFFF" d="M523.252,115.224H523.1c-0.424-0.101-0.834-0.174-1.232-0.22c-0.4-0.045-0.871-0.068-1.416-0.068
				c-0.879,0-1.727,0.194-2.543,0.583c-0.818,0.389-1.605,0.891-2.361,1.506v12.003h-2.846v-16.908h2.846v2.498
				c1.131-0.908,2.127-1.552,2.99-1.93c0.861-0.379,1.742-0.568,2.641-0.568c0.494,0,0.854,0.013,1.074,0.038
				c0.223,0.025,0.555,0.074,1,0.144V115.224z"/>
			<path fill="#FFFFFF" d="M538.191,129.029h-13.652v-2.104l9.854-12.427h-9.643v-2.376h13.186v2.028l-9.9,12.473h10.156V129.029z"
				/>
			<path fill="#FFFFFF" d="M554.297,124.155c0,1.544-0.637,2.811-1.914,3.799c-1.277,0.989-3.02,1.483-5.23,1.483
				c-1.25,0-2.398-0.149-3.443-0.447c-1.043-0.297-1.92-0.623-2.625-0.976v-3.194h0.15c0.898,0.676,1.898,1.213,2.998,1.612
				c1.1,0.398,2.154,0.598,3.162,0.598c1.252,0,2.23-0.202,2.938-0.605c0.707-0.403,1.059-1.039,1.059-1.907
				c0-0.666-0.191-1.17-0.574-1.514c-0.383-0.343-1.121-0.636-2.211-0.878c-0.402-0.091-0.93-0.197-1.58-0.318
				c-0.652-0.121-1.244-0.252-1.779-0.394c-1.484-0.394-2.535-0.971-3.156-1.733c-0.621-0.762-0.932-1.698-0.932-2.808
				c0-0.696,0.145-1.352,0.432-1.968c0.289-0.615,0.725-1.166,1.311-1.65c0.564-0.474,1.283-0.85,2.156-1.128
				c0.873-0.277,1.85-0.416,2.93-0.416c1.008,0,2.029,0.124,3.064,0.371c1.035,0.247,1.895,0.547,2.58,0.9v3.042h-0.15
				c-0.727-0.535-1.609-0.986-2.648-1.355c-1.039-0.368-2.059-0.552-3.059-0.552c-1.039,0-1.916,0.199-2.633,0.598
				c-0.717,0.398-1.076,0.991-1.076,1.778c0,0.696,0.219,1.221,0.652,1.574c0.424,0.354,1.109,0.641,2.059,0.863
				c0.523,0.121,1.111,0.242,1.764,0.363c0.65,0.121,1.193,0.232,1.627,0.333c1.322,0.303,2.34,0.823,3.057,1.559
				C553.939,121.935,554.297,122.924,554.297,124.155z"/>
			<path fill="#FFFFFF" d="M570.871,127.969c-0.947,0.454-1.848,0.808-2.701,1.06s-1.758,0.378-2.717,0.378
				c-1.221,0-2.342-0.179-3.361-0.538c-1.018-0.358-1.891-0.9-2.617-1.627c-0.736-0.727-1.307-1.645-1.711-2.755
				c-0.404-1.11-0.605-2.407-0.605-3.89c0-2.765,0.76-4.935,2.277-6.509c1.52-1.574,3.525-2.361,6.018-2.361
				c0.969,0,1.92,0.136,2.854,0.409s1.789,0.605,2.564,0.999v3.164h-0.15c-0.867-0.676-1.764-1.196-2.688-1.559
				c-0.922-0.363-1.824-0.545-2.701-0.545c-1.615,0-2.889,0.542-3.822,1.627c-0.934,1.085-1.4,2.677-1.4,4.776
				c0,2.039,0.457,3.605,1.371,4.7c0.912,1.095,2.197,1.643,3.852,1.643c0.574,0,1.16-0.076,1.756-0.227s1.131-0.348,1.604-0.59
				c0.414-0.212,0.803-0.437,1.166-0.674c0.363-0.237,0.65-0.441,0.863-0.613h0.15V127.969z"/>
			<path fill="#FFFFFF" d="M588.656,129.029h-2.846v-9.627c0-0.777-0.045-1.506-0.135-2.188c-0.092-0.681-0.258-1.213-0.5-1.597
				c-0.252-0.424-0.615-0.739-1.09-0.946c-0.475-0.207-1.09-0.31-1.848-0.31c-0.775,0-1.588,0.192-2.436,0.575
				c-0.848,0.384-1.66,0.873-2.438,1.468v12.624h-2.846v-23.553h2.846v8.522c0.889-0.736,1.807-1.312,2.754-1.726
				c0.949-0.414,1.924-0.621,2.922-0.621c1.826,0,3.219,0.55,4.178,1.65c0.959,1.1,1.438,2.685,1.438,4.753V129.029z"/>
			<path fill="#FFFFFF" d="M597.193,109.291h-3.209v-2.952h3.209V109.291z M597.012,129.029h-2.846v-16.908h2.846V129.029z"/>
			<path fill="#FFFFFF" d="M605.52,129.029h-2.846v-23.553h2.846V129.029z"/>
			<path fill="#FFFFFF" d="M624.863,129.029h-2.846v-1.771c-0.816,0.707-1.67,1.256-2.557,1.65c-0.889,0.394-1.852,0.59-2.893,0.59
				c-2.018,0-3.619-0.777-4.805-2.331c-1.186-1.554-1.779-3.708-1.779-6.463c0-1.433,0.205-2.709,0.613-3.83
				s0.961-2.074,1.658-2.861c0.686-0.767,1.484-1.352,2.398-1.756c0.914-0.403,1.859-0.605,2.838-0.605
				c0.889,0,1.676,0.093,2.361,0.28c0.688,0.187,1.408,0.477,2.164,0.87v-7.326h2.846V129.029z M622.018,124.866v-9.703
				c-0.766-0.343-1.453-0.58-2.059-0.711c-0.605-0.131-1.266-0.197-1.982-0.197c-1.594,0-2.836,0.555-3.723,1.665
				c-0.889,1.11-1.332,2.685-1.332,4.723c0,2.008,0.342,3.534,1.029,4.579c0.686,1.044,1.785,1.566,3.299,1.566
				c0.809,0,1.625-0.179,2.453-0.537C620.529,125.893,621.303,125.432,622.018,124.866z"/>
			<path fill="#FFFFFF" d="M656.334,113.302c0,0.999-0.174,1.925-0.523,2.778c-0.348,0.853-0.834,1.592-1.461,2.217
				c-0.775,0.777-1.695,1.36-2.754,1.749c-1.061,0.388-2.396,0.583-4.012,0.583h-2.996v8.401h-2.998V106.49h6.115
				c1.354,0,2.498,0.114,3.436,0.34c0.939,0.228,1.771,0.583,2.498,1.067c0.857,0.575,1.521,1.292,1.99,2.149
				C656.1,110.905,656.334,111.99,656.334,113.302z M653.215,113.377c0-0.777-0.137-1.453-0.408-2.028
				c-0.273-0.575-0.686-1.044-1.242-1.408c-0.484-0.313-1.035-0.538-1.656-0.673c-0.621-0.137-1.406-0.205-2.354-0.205h-2.967v9.006
				h2.527c1.211,0,2.195-0.108,2.951-0.325c0.758-0.217,1.373-0.563,1.848-1.037c0.475-0.484,0.809-0.994,1.006-1.529
				C653.117,114.644,653.215,114.043,653.215,113.377z"/>
			<path fill="#FFFFFF" d="M670.607,115.224h-0.15c-0.424-0.101-0.836-0.174-1.234-0.22c-0.398-0.045-0.869-0.068-1.414-0.068
				c-0.879,0-1.727,0.194-2.543,0.583c-0.818,0.389-1.605,0.891-2.361,1.506v12.003h-2.846v-16.908h2.846v2.498
				c1.129-0.908,2.125-1.552,2.988-1.93c0.863-0.379,1.744-0.568,2.643-0.568c0.494,0,0.852,0.013,1.074,0.038
				c0.221,0.025,0.555,0.074,0.998,0.144V115.224z"/>
			<path fill="#FFFFFF" d="M687.697,120.583c0,2.755-0.707,4.93-2.119,6.524c-1.412,1.595-3.305,2.392-5.676,2.392
				c-2.393,0-4.291-0.797-5.699-2.392c-1.408-1.594-2.111-3.769-2.111-6.524s0.703-4.932,2.111-6.531
				c1.408-1.6,3.307-2.399,5.699-2.399c2.371,0,4.264,0.8,5.676,2.399C686.99,115.65,687.697,117.828,687.697,120.583z
				 M684.76,120.583c0-2.189-0.428-3.817-1.285-4.882c-0.857-1.064-2.049-1.597-3.572-1.597c-1.545,0-2.742,0.532-3.596,1.597
				c-0.854,1.065-1.279,2.692-1.279,4.882c0,2.119,0.43,3.726,1.287,4.821c0.857,1.095,2.053,1.642,3.588,1.642
				c1.514,0,2.701-0.542,3.564-1.627C684.33,124.334,684.76,122.722,684.76,120.583z"/>
			<path fill="#FFFFFF" d="M700.881,128.877c-0.535,0.142-1.117,0.257-1.748,0.348s-1.193,0.136-1.688,0.136
				c-1.727,0-3.037-0.464-3.936-1.393c-0.898-0.928-1.348-2.417-1.348-4.465v-8.991h-1.922v-2.392h1.922v-4.859h2.846v4.859h5.873
				v2.392h-5.873v7.705c0,0.888,0.02,1.582,0.061,2.081c0.041,0.5,0.182,0.967,0.424,1.4c0.223,0.404,0.527,0.699,0.916,0.886
				c0.389,0.187,0.98,0.28,1.777,0.28c0.465,0,0.949-0.068,1.453-0.205c0.506-0.136,0.869-0.25,1.09-0.34h0.152V128.877z"/>
			<path fill="#FFFFFF" d="M718.729,120.583c0,2.755-0.707,4.93-2.119,6.524c-1.414,1.595-3.307,2.392-5.678,2.392
				c-2.391,0-4.291-0.797-5.699-2.392c-1.406-1.594-2.111-3.769-2.111-6.524s0.705-4.932,2.111-6.531
				c1.408-1.6,3.309-2.399,5.699-2.399c2.371,0,4.264,0.8,5.678,2.399C718.021,115.65,718.729,117.828,718.729,120.583z
				 M715.791,120.583c0-2.189-0.43-3.817-1.287-4.882c-0.857-1.064-2.049-1.597-3.572-1.597c-1.543,0-2.742,0.532-3.594,1.597
				c-0.854,1.065-1.279,2.692-1.279,4.882c0,2.119,0.428,3.726,1.287,4.821c0.857,1.095,2.053,1.642,3.586,1.642
				c1.514,0,2.703-0.542,3.564-1.627C715.359,124.334,715.791,122.722,715.791,120.583z"/>
			<path fill="#FFFFFF" d="M737.27,129.029h-2.846v-9.627c0-0.777-0.045-1.506-0.135-2.188c-0.092-0.681-0.258-1.213-0.5-1.597
				c-0.252-0.424-0.615-0.739-1.09-0.946c-0.475-0.207-1.09-0.31-1.848-0.31c-0.775,0-1.588,0.192-2.436,0.575
				c-0.848,0.384-1.66,0.873-2.438,1.468v12.624h-2.846v-16.908h2.846v1.877c0.889-0.736,1.807-1.312,2.754-1.726
				c0.949-0.414,1.924-0.621,2.922-0.621c1.826,0,3.219,0.55,4.178,1.65c0.959,1.1,1.438,2.685,1.438,4.753V129.029z"/>
			<path fill="#FFFFFF" d="M426.83,151.154h-11.396v6.357h9.793v2.664h-9.793v10.854h-2.998V148.49h14.395V151.154z"/>
			<path fill="#FFFFFF" d="M440.576,157.225h-0.152c-0.424-0.102-0.834-0.174-1.232-0.221c-0.4-0.045-0.871-0.067-1.416-0.067
				c-0.879,0-1.727,0.194-2.543,0.583c-0.818,0.389-1.605,0.891-2.361,1.506v12.004h-2.846v-16.908h2.846v2.498
				c1.131-0.908,2.127-1.553,2.99-1.93c0.861-0.379,1.742-0.568,2.641-0.568c0.494,0,0.854,0.013,1.074,0.037
				c0.223,0.025,0.555,0.074,1,0.145V157.225z"/>
			<path fill="#FFFFFF" d="M457.406,162.87h-12.457c0,1.04,0.156,1.944,0.469,2.718c0.313,0.771,0.742,1.404,1.287,1.898
				c0.525,0.484,1.148,0.848,1.869,1.09s1.516,0.363,2.385,0.363c1.15,0,2.309-0.229,3.473-0.688c1.166-0.46,1.996-0.911,2.49-1.355
				h0.152V170c-0.959,0.403-1.938,0.741-2.938,1.014c-0.998,0.272-2.049,0.408-3.148,0.408c-2.805,0-4.994-0.759-6.568-2.277
				c-1.574-1.52-2.361-3.676-2.361-6.471c0-2.766,0.754-4.96,2.262-6.585c1.51-1.624,3.494-2.437,5.957-2.437
				c2.281,0,4.039,0.666,5.275,1.998s1.854,3.224,1.854,5.676V162.87z M454.637,160.69c-0.01-1.493-0.387-2.649-1.127-3.466
				c-0.742-0.818-1.871-1.227-3.385-1.227c-1.523,0-2.736,0.449-3.639,1.348c-0.904,0.898-1.416,2.013-1.537,3.345H454.637z"/>
			<path fill="#FFFFFF" d="M475.434,177.266h-2.846v-8.145c-0.877,0.758-1.75,1.32-2.617,1.688
				c-0.869,0.369-1.807,0.553-2.816,0.553c-2.008,0-3.609-0.773-4.805-2.322c-1.197-1.55-1.795-3.687-1.795-6.411
				c0-1.453,0.209-2.737,0.629-3.853c0.418-1.115,0.971-2.051,1.656-2.808c0.666-0.736,1.449-1.307,2.348-1.71
				c0.898-0.404,1.846-0.605,2.846-0.605c0.908,0,1.713,0.101,2.414,0.303c0.701,0.201,1.414,0.499,2.141,0.893l0.182-0.727h2.664
				V177.266z M472.588,166.73v-9.566c-0.787-0.354-1.482-0.601-2.088-0.742c-0.605-0.141-1.262-0.212-1.969-0.212
				c-1.645,0-2.895,0.558-3.754,1.673c-0.857,1.115-1.285,2.651-1.285,4.609c0,1.978,0.346,3.498,1.037,4.563
				c0.689,1.065,1.777,1.598,3.262,1.598c0.826,0,1.654-0.18,2.482-0.537C471.1,167.757,471.873,167.295,472.588,166.73z"/>
			<path fill="#FFFFFF" d="M495.051,171.029h-2.846v-1.877c-0.957,0.756-1.877,1.337-2.754,1.74
				c-0.879,0.403-1.848,0.605-2.906,0.605c-1.775,0-3.158-0.543-4.148-1.627c-0.988-1.085-1.482-2.677-1.482-4.775v-10.975h2.846
				v9.627c0,0.857,0.041,1.592,0.121,2.203c0.08,0.609,0.252,1.133,0.514,1.566c0.273,0.443,0.627,0.767,1.061,0.969
				c0.434,0.201,1.064,0.303,1.893,0.303c0.736,0,1.541-0.191,2.414-0.576c0.873-0.383,1.688-0.872,2.443-1.468v-12.624h2.846
				V171.029z"/>
			<path fill="#FFFFFF" d="M514.805,162.87h-12.457c0,1.04,0.156,1.944,0.469,2.718c0.313,0.771,0.742,1.404,1.287,1.898
				c0.525,0.484,1.148,0.848,1.869,1.09s1.516,0.363,2.385,0.363c1.15,0,2.309-0.229,3.473-0.688c1.166-0.46,1.996-0.911,2.49-1.355
				h0.152V170c-0.959,0.403-1.938,0.741-2.938,1.014c-0.998,0.272-2.049,0.408-3.148,0.408c-2.805,0-4.994-0.759-6.568-2.277
				c-1.574-1.52-2.361-3.676-2.361-6.471c0-2.766,0.754-4.96,2.262-6.585c1.51-1.624,3.494-2.437,5.957-2.437
				c2.281,0,4.039,0.666,5.275,1.998s1.854,3.224,1.854,5.676V162.87z M512.035,160.69c-0.01-1.493-0.387-2.649-1.127-3.466
				c-0.742-0.818-1.871-1.227-3.385-1.227c-1.523,0-2.736,0.449-3.639,1.348c-0.904,0.898-1.416,2.013-1.537,3.345H512.035z"/>
			<path fill="#FFFFFF" d="M533.256,171.029h-2.846v-9.627c0-0.777-0.045-1.506-0.135-2.188c-0.092-0.682-0.258-1.213-0.5-1.598
				c-0.252-0.424-0.615-0.738-1.09-0.945s-1.09-0.311-1.848-0.311c-0.775,0-1.588,0.191-2.436,0.575s-1.66,0.873-2.438,1.468v12.625
				h-2.846v-16.908h2.846v1.877c0.889-0.736,1.807-1.312,2.754-1.726c0.949-0.413,1.924-0.62,2.922-0.62
				c1.826,0,3.219,0.55,4.178,1.649c0.959,1.101,1.438,2.685,1.438,4.753V171.029z"/>
			<path fill="#FFFFFF" d="M551.238,169.969c-0.947,0.455-1.848,0.809-2.701,1.061s-1.758,0.378-2.717,0.378
				c-1.221,0-2.342-0.179-3.361-0.538c-1.018-0.357-1.891-0.9-2.617-1.627c-0.736-0.727-1.307-1.645-1.711-2.754
				c-0.404-1.11-0.605-2.407-0.605-3.891c0-2.765,0.76-4.935,2.277-6.509c1.52-1.574,3.525-2.361,6.018-2.361
				c0.969,0,1.92,0.136,2.854,0.409c0.934,0.271,1.789,0.605,2.564,0.998v3.164h-0.15c-0.867-0.676-1.764-1.195-2.688-1.559
				c-0.922-0.363-1.824-0.545-2.701-0.545c-1.615,0-2.889,0.542-3.822,1.627c-0.934,1.084-1.4,2.677-1.4,4.775
				c0,2.039,0.457,3.605,1.371,4.699c0.912,1.096,2.197,1.643,3.852,1.643c0.574,0,1.16-0.075,1.756-0.227s1.131-0.348,1.604-0.59
				c0.414-0.213,0.803-0.438,1.166-0.674c0.363-0.237,0.65-0.441,0.863-0.613h0.15V169.969z"/>
			<path fill="#FFFFFF" d="M569.51,154.121l-9.869,23.145h-3.043l3.148-7.055l-6.734-16.09h3.088l5.191,12.533l5.236-12.533H569.51z
				"/>
		</g>
	</g>
</g>
</svg>
