<?xml version="1.0" encoding="utf-8"?>
<!-- Generator: Adobe Illustrator 16.0.0, SVG Export Plug-In . SVG Version: 6.00 Build 0)  -->
<!DOCTYPE svg PUBLIC "-//W3C//DTD SVG 1.1//EN" "http://www.w3.org/Graphics/SVG/1.1/DTD/svg11.dtd">
<svg version="1.1" id="Layer_2" xmlns="http://www.w3.org/2000/svg" xmlns:xlink="http://www.w3.org/1999/xlink" x="0px" y="0px"
	 width="1067px" height="338px" viewBox="0 0 1067 338" enable-background="new 0 0 1067 338" xml:space="preserve">
<g id="step6White">
	<path fill="#291159" fill-opacity="0.8" stroke="#FFFFFF" stroke-width="3" stroke-miterlimit="10" d="M1067,326
		c0,6.627-5.373,12-12,12H12c-6.627,0-12-5.373-12-12V12C0,5.373,5.373,0,12,0h1043c6.627,0,12,5.373,12,12V326z"/>
	<g>
		<g enable-background="new    ">
			<path fill="#FFFFFF" d="M158.239,144.695l-6.842,16.908h-2.861l-6.796-16.908h3.088l5.237,13.457l5.192-13.457H158.239z"/>
		</g>
		<g enable-background="new    ">
			<path fill="#FFFFFF" d="M169.469,161.879c0,0.801-0.115,1.531-0.344,2.193c-0.229,0.662-0.553,1.222-0.971,1.681
				c-0.388,0.436-0.846,0.772-1.372,1.011s-1.084,0.357-1.672,0.357c-0.512,0-0.975-0.056-1.39-0.168
				c-0.415-0.111-0.837-0.285-1.267-0.521v4.13h-1.659v-13.493h1.659v1.033c0.441-0.371,0.937-0.681,1.487-0.932
				c0.55-0.25,1.137-0.375,1.76-0.375c1.188,0,2.114,0.449,2.775,1.346C169.139,159.039,169.469,160.285,169.469,161.879z
				 M167.757,161.924c0-1.188-0.203-2.077-0.609-2.665c-0.406-0.589-1.03-0.883-1.871-0.883c-0.477,0-0.957,0.103-1.438,0.309
				c-0.482,0.206-0.944,0.477-1.386,0.813v5.586c0.471,0.211,0.875,0.355,1.213,0.432c0.338,0.077,0.722,0.115,1.152,0.115
				c0.923,0,1.644-0.312,2.162-0.936C167.499,164.071,167.757,163.147,167.757,161.924z"/>
			<path fill="#FFFFFF" d="M173.731,166.927h-1.659v-13.731h1.659V166.927z"/>
		</g>
		<g enable-background="new    ">
			<path fill="#FFFFFF" d="M207.941,149.767h-17.952v-2.422h17.952V149.767z M207.941,156.124h-17.952v-2.422h17.952V156.124z"/>
			<path fill="#FFFFFF" d="M228.224,161.604h-2.845v-23.553h2.845V161.604z"/>
		</g>
		<g enable-background="new    ">
			<path fill="#FFFFFF" d="M240.215,139.953c0.282,0.253,0.515,0.57,0.697,0.953s0.273,0.877,0.273,1.482
				c0,0.601-0.108,1.15-0.326,1.65s-0.523,0.936-0.918,1.306c-0.441,0.412-0.961,0.717-1.558,0.914
				c-0.597,0.196-1.252,0.295-1.964,0.295c-0.729,0-1.447-0.087-2.152-0.26c-0.706-0.174-1.286-0.363-1.739-0.569v-1.845h0.133
				c0.5,0.33,1.088,0.604,1.765,0.821s1.33,0.326,1.959,0.326c0.371,0,0.765-0.062,1.183-0.186c0.418-0.123,0.756-0.306,1.015-0.547
				c0.271-0.259,0.473-0.544,0.604-0.856c0.133-0.312,0.199-0.705,0.199-1.182c0-0.471-0.075-0.86-0.226-1.17
				c-0.149-0.309-0.357-0.552-0.622-0.728c-0.265-0.183-0.585-0.308-0.962-0.375c-0.376-0.067-0.782-0.102-1.218-0.102h-0.794
				v-1.465h0.617c0.895,0,1.608-0.187,2.141-0.561s0.799-0.919,0.799-1.637c0-0.318-0.068-0.596-0.203-0.834
				c-0.136-0.238-0.324-0.435-0.565-0.587c-0.253-0.153-0.523-0.259-0.812-0.318c-0.288-0.059-0.615-0.088-0.979-0.088
				c-0.559,0-1.153,0.101-1.782,0.3c-0.63,0.2-1.224,0.482-1.783,0.848h-0.088v-1.845c0.418-0.206,0.975-0.396,1.672-0.569
				c0.697-0.173,1.373-0.26,2.025-0.26c0.642,0,1.206,0.059,1.694,0.176c0.488,0.118,0.93,0.307,1.324,0.565
				c0.423,0.282,0.744,0.623,0.962,1.023c0.217,0.4,0.326,0.868,0.326,1.403c0,0.729-0.258,1.366-0.772,1.91
				c-0.515,0.545-1.122,0.887-1.822,1.028v0.124c0.282,0.047,0.606,0.146,0.971,0.295
				C239.653,139.543,239.962,139.729,240.215,139.953z"/>
		</g>
		<g enable-background="new    ">
			<path fill="#FFFFFF" d="M275.104,149.767h-17.952v-2.422h17.952V149.767z M275.104,156.124h-17.952v-2.422h17.952V156.124z"/>
			<path fill="#FFFFFF" d="M307.92,155.262h-3.345v6.342h-2.906v-6.342h-10.792v-3.482l10.914-12.715h2.785v13.775h3.345V155.262z
				 M301.669,152.84v-10.172l-8.733,10.172H301.669z"/>
			<path fill="#FFFFFF" d="M316.866,161.604h-3.617v-4.314h3.617V161.604z"/>
			<path fill="#FFFFFF" d="M338.391,161.604h-15.258v-3.164c1.059-0.908,2.121-1.816,3.186-2.725s2.057-1.811,2.975-2.709
				c1.938-1.877,3.265-3.368,3.98-4.473c0.717-1.105,1.075-2.299,1.075-3.58c0-1.171-0.386-2.086-1.158-2.747
				c-0.771-0.661-1.849-0.991-3.231-0.991c-0.918,0-1.912,0.161-2.982,0.484c-1.069,0.322-2.113,0.816-3.133,1.482h-0.151v-3.178
				c0.717-0.354,1.673-0.677,2.868-0.969c1.196-0.293,2.354-0.439,3.475-0.439c2.311,0,4.122,0.558,5.434,1.673
				s1.968,2.626,1.968,4.533c0,0.857-0.108,1.657-0.325,2.399c-0.218,0.741-0.537,1.445-0.961,2.111
				c-0.395,0.626-0.855,1.241-1.386,1.847c-0.529,0.605-1.173,1.276-1.93,2.013c-1.08,1.061-2.194,2.087-3.345,3.081
				s-2.226,1.915-3.225,2.763h12.125V161.604z"/>
			<path fill="#FFFFFF" d="M358.1,161.604h-15.258v-3.164c1.059-0.908,2.121-1.816,3.186-2.725s2.057-1.811,2.975-2.709
				c1.938-1.877,3.265-3.368,3.98-4.473c0.717-1.105,1.075-2.299,1.075-3.58c0-1.171-0.386-2.086-1.158-2.747
				c-0.771-0.661-1.849-0.991-3.231-0.991c-0.918,0-1.912,0.161-2.982,0.484c-1.069,0.322-2.113,0.816-3.133,1.482h-0.151v-3.178
				c0.717-0.354,1.673-0.677,2.868-0.969c1.196-0.293,2.354-0.439,3.475-0.439c2.311,0,4.122,0.558,5.434,1.673
				s1.968,2.626,1.968,4.533c0,0.857-0.108,1.657-0.325,2.399c-0.218,0.741-0.537,1.445-0.961,2.111
				c-0.395,0.626-0.855,1.241-1.386,1.847c-0.529,0.605-1.173,1.276-1.93,2.013c-1.08,1.061-2.194,2.087-3.345,3.081
				s-2.226,1.915-3.225,2.763H358.1V161.604z"/>
			<path fill="#FFFFFF" d="M381.076,158.334l-1.681,1.68l-6.6-6.66l-6.6,6.66l-1.681-1.68l6.66-6.6l-6.66-6.6l1.681-1.68l6.6,6.66
				l6.6-6.66l1.681,1.68l-6.66,6.6L381.076,158.334z"/>
			<path fill="#FFFFFF" d="M401.889,161.604h-12.2v-2.301h4.692v-15.106h-4.692v-2.059c0.636,0,1.317-0.053,2.044-0.159
				c0.727-0.105,1.276-0.26,1.649-0.461c0.464-0.253,0.83-0.573,1.098-0.962c0.267-0.388,0.421-0.91,0.462-1.566h2.346v20.313h4.602
				V161.604z"/>
			<path fill="#FFFFFF" d="M422.854,150.326c0,4.047-0.633,7.017-1.899,8.908c-1.267,1.893-3.231,2.838-5.896,2.838
				c-2.704,0-4.68-0.958-5.926-2.875c-1.247-1.918-1.869-4.864-1.869-8.84c0-4.007,0.63-6.966,1.892-8.878s3.229-2.868,5.903-2.868
				c2.704,0,4.68,0.971,5.926,2.913C422.23,143.468,422.854,146.401,422.854,150.326z M418.873,157.199
				c0.354-0.818,0.593-1.779,0.719-2.884c0.126-1.105,0.189-2.435,0.189-3.989c0-1.533-0.063-2.865-0.189-3.996
				c-0.126-1.13-0.371-2.088-0.734-2.875c-0.353-0.777-0.835-1.363-1.445-1.756c-0.61-0.395-1.395-0.591-2.354-0.591
				c-0.948,0-1.733,0.196-2.354,0.591c-0.621,0.393-1.113,0.988-1.477,1.785c-0.343,0.747-0.577,1.721-0.703,2.922
				c-0.127,1.201-0.189,2.518-0.189,3.951c0,1.574,0.056,2.891,0.166,3.95c0.111,1.06,0.349,2.008,0.712,2.846
				c0.333,0.787,0.805,1.388,1.415,1.802c0.61,0.413,1.421,0.62,2.43,0.62c0.948,0,1.735-0.196,2.361-0.591
				C418.046,158.592,418.53,157.996,418.873,157.199z"/>
		</g>
		<g enable-background="new    ">
			<path fill="#FFFFFF" d="M431.753,141.33h-5.506v-1.598h5.506V141.33z"/>
			<path fill="#FFFFFF" d="M443.402,138.921c0,1.147-0.132,2.188-0.394,3.124s-0.657,1.732-1.187,2.392
				c-0.535,0.67-1.206,1.188-2.012,1.553c-0.807,0.365-1.754,0.547-2.842,0.547c-0.306,0-0.595-0.016-0.865-0.048
				c-0.271-0.033-0.512-0.084-0.724-0.155v-1.686h0.089c0.17,0.089,0.411,0.173,0.724,0.252c0.312,0.079,0.658,0.119,1.041,0.119
				c1.3,0,2.319-0.39,3.058-1.169s1.166-1.854,1.284-3.226c-0.547,0.329-1.062,0.564-1.544,0.706
				c-0.482,0.141-1.01,0.212-1.58,0.212c-0.541,0-1.031-0.054-1.469-0.159c-0.438-0.105-0.879-0.312-1.319-0.618
				c-0.519-0.358-0.908-0.814-1.17-1.367s-0.393-1.215-0.393-1.985c0-1.342,0.441-2.433,1.324-3.274
				c0.882-0.841,1.959-1.262,3.229-1.262c0.636,0,1.224,0.099,1.765,0.296c0.541,0.196,1.015,0.492,1.421,0.887
				c0.5,0.488,0.886,1.116,1.156,1.884S443.402,137.703,443.402,138.921z M441.619,138.541c0-0.911-0.094-1.645-0.282-2.197
				s-0.447-0.982-0.776-1.288c-0.276-0.265-0.574-0.455-0.892-0.569c-0.317-0.115-0.662-0.172-1.032-0.172
				c-0.848,0-1.517,0.265-2.008,0.794s-0.736,1.273-0.736,2.232c0,0.56,0.079,1.015,0.238,1.368
				c0.158,0.353,0.426,0.662,0.803,0.927c0.265,0.183,0.556,0.305,0.873,0.366c0.318,0.062,0.671,0.093,1.06,0.093
				c0.459,0,0.924-0.063,1.395-0.186c0.471-0.124,0.911-0.303,1.323-0.538c0.006-0.124,0.014-0.246,0.022-0.366
				C441.615,138.884,441.619,138.729,441.619,138.541z"/>
			<path fill="#FFFFFF" d="M454.892,138.921c0,1.147-0.132,2.188-0.394,3.124s-0.657,1.732-1.187,2.392
				c-0.535,0.67-1.206,1.188-2.012,1.553c-0.807,0.365-1.754,0.547-2.842,0.547c-0.306,0-0.595-0.016-0.865-0.048
				c-0.271-0.033-0.512-0.084-0.724-0.155v-1.686h0.089c0.17,0.089,0.411,0.173,0.724,0.252c0.312,0.079,0.658,0.119,1.041,0.119
				c1.3,0,2.319-0.39,3.058-1.169s1.166-1.854,1.284-3.226c-0.547,0.329-1.062,0.564-1.544,0.706
				c-0.482,0.141-1.01,0.212-1.58,0.212c-0.541,0-1.031-0.054-1.469-0.159c-0.438-0.105-0.879-0.312-1.319-0.618
				c-0.519-0.358-0.908-0.814-1.17-1.367s-0.393-1.215-0.393-1.985c0-1.342,0.441-2.433,1.324-3.274
				c0.882-0.841,1.959-1.262,3.229-1.262c0.636,0,1.224,0.099,1.765,0.296c0.541,0.196,1.015,0.492,1.421,0.887
				c0.5,0.488,0.886,1.116,1.156,1.884S454.892,137.703,454.892,138.921z M453.108,138.541c0-0.911-0.094-1.645-0.282-2.197
				s-0.447-0.982-0.776-1.288c-0.276-0.265-0.574-0.455-0.892-0.569c-0.317-0.115-0.662-0.172-1.032-0.172
				c-0.848,0-1.517,0.265-2.008,0.794s-0.736,1.273-0.736,2.232c0,0.56,0.079,1.015,0.238,1.368
				c0.158,0.353,0.426,0.662,0.803,0.927c0.265,0.183,0.556,0.305,0.873,0.366c0.318,0.062,0.671,0.093,1.06,0.093
				c0.459,0,0.924-0.063,1.395-0.186c0.471-0.124,0.911-0.303,1.323-0.538c0.006-0.124,0.014-0.246,0.022-0.366
				C453.104,138.884,453.108,138.729,453.108,138.541z"/>
		</g>
		<g enable-background="new    ">
			<path fill="#FFFFFF" d="M482.285,160.544c-0.949,0.454-1.849,0.808-2.702,1.06c-0.853,0.252-1.759,0.379-2.717,0.379
				c-1.221,0-2.341-0.18-3.36-0.538c-1.02-0.357-1.892-0.9-2.619-1.627c-0.737-0.727-1.307-1.645-1.71-2.755
				c-0.404-1.11-0.605-2.406-0.605-3.891c0-2.765,0.759-4.934,2.278-6.508c1.519-1.574,3.524-2.361,6.017-2.361
				c0.969,0,1.92,0.136,2.853,0.408c0.934,0.272,1.789,0.605,2.566,0.999v3.163h-0.151c-0.868-0.676-1.763-1.195-2.687-1.559
				c-0.923-0.363-1.824-0.545-2.702-0.545c-1.615,0-2.889,0.543-3.822,1.627c-0.934,1.085-1.4,2.677-1.4,4.775
				c0,2.039,0.457,3.605,1.37,4.7c0.913,1.096,2.197,1.643,3.852,1.643c0.575,0,1.16-0.075,1.756-0.228
				c0.595-0.15,1.13-0.348,1.604-0.59c0.414-0.212,0.802-0.437,1.166-0.674c0.363-0.236,0.651-0.441,0.863-0.613h0.151V160.544z"/>
			<path fill="#FFFFFF" d="M510.604,161.604h-2.846v-9.627c0-0.727-0.031-1.428-0.098-2.104c-0.066-0.677-0.205-1.217-0.416-1.62
				c-0.232-0.434-0.564-0.762-1-0.983c-0.433-0.223-1.059-0.334-1.876-0.334c-0.797,0-1.595,0.2-2.392,0.599
				c-0.797,0.398-1.595,0.905-2.392,1.521c0.03,0.232,0.055,0.503,0.076,0.811c0.02,0.308,0.03,0.613,0.03,0.916v10.822h-2.846
				v-9.627c0-0.747-0.033-1.455-0.099-2.127c-0.065-0.671-0.204-1.208-0.416-1.611c-0.232-0.435-0.565-0.76-0.999-0.977
				c-0.434-0.217-1.06-0.326-1.877-0.326c-0.777,0-1.557,0.192-2.339,0.576c-0.782,0.383-1.562,0.872-2.338,1.468v12.624h-2.846
				v-16.908h2.846v1.877c0.888-0.736,1.773-1.312,2.657-1.725c0.883-0.414,1.824-0.621,2.823-0.621c1.15,0,2.126,0.242,2.929,0.727
				c0.802,0.484,1.4,1.155,1.793,2.014c1.15-0.969,2.2-1.668,3.148-2.097c0.948-0.429,1.962-0.644,3.042-0.644
				c1.857,0,3.226,0.563,4.109,1.688c0.883,1.126,1.324,2.697,1.324,4.715V161.604z"/>
		</g>
		<g enable-background="new    ">
			<path fill="#FFFFFF" d="M522.445,139.953c0.282,0.253,0.515,0.57,0.697,0.953c0.182,0.383,0.273,0.877,0.273,1.482
				c0,0.601-0.109,1.15-0.326,1.65c-0.218,0.5-0.524,0.936-0.918,1.306c-0.441,0.412-0.961,0.717-1.558,0.914
				c-0.598,0.196-1.252,0.295-1.964,0.295c-0.729,0-1.447-0.087-2.153-0.26c-0.706-0.174-1.285-0.363-1.738-0.569v-1.845h0.133
				c0.5,0.33,1.088,0.604,1.765,0.821s1.329,0.326,1.959,0.326c0.371,0,0.765-0.062,1.183-0.186
				c0.418-0.123,0.756-0.306,1.015-0.547c0.271-0.259,0.473-0.544,0.604-0.856c0.133-0.312,0.198-0.705,0.198-1.182
				c0-0.471-0.074-0.86-0.225-1.17c-0.15-0.309-0.357-0.552-0.622-0.728c-0.265-0.183-0.586-0.308-0.962-0.375
				c-0.377-0.067-0.782-0.102-1.218-0.102h-0.794v-1.465h0.617c0.895,0,1.607-0.187,2.141-0.561
				c0.532-0.374,0.798-0.919,0.798-1.637c0-0.318-0.067-0.596-0.202-0.834c-0.136-0.238-0.324-0.435-0.565-0.587
				c-0.253-0.153-0.523-0.259-0.812-0.318c-0.288-0.059-0.615-0.088-0.979-0.088c-0.56,0-1.153,0.101-1.783,0.3
				c-0.629,0.2-1.224,0.482-1.782,0.848h-0.088v-1.845c0.417-0.206,0.975-0.396,1.672-0.569c0.697-0.173,1.372-0.26,2.025-0.26
				c0.642,0,1.206,0.059,1.694,0.176c0.488,0.118,0.93,0.307,1.323,0.565c0.424,0.282,0.744,0.623,0.962,1.023
				s0.327,0.868,0.327,1.403c0,0.729-0.258,1.366-0.772,1.91c-0.515,0.545-1.122,0.887-1.822,1.028v0.124
				c0.282,0.047,0.605,0.146,0.971,0.295C521.884,139.543,522.192,139.729,522.445,139.953z"/>
		</g>
		<g enable-background="new    ">
			<path fill="#FFFFFF" d="M155.792,77.093c0,0.998-0.174,1.925-0.522,2.777c-0.348,0.853-0.835,1.592-1.46,2.217
				c-0.777,0.777-1.695,1.36-2.755,1.749s-2.397,0.583-4.011,0.583h-2.997v8.4h-2.997V70.28h6.115c1.352,0,2.498,0.114,3.436,0.341
				c0.938,0.228,1.771,0.583,2.498,1.067c0.857,0.575,1.521,1.292,1.99,2.149C155.558,74.695,155.792,75.78,155.792,77.093z
				 M152.674,77.168c0-0.777-0.136-1.453-0.409-2.028s-0.687-1.045-1.241-1.408c-0.484-0.313-1.037-0.537-1.658-0.673
				c-0.62-0.137-1.405-0.204-2.354-0.204h-2.967v9.006h2.528c1.211,0,2.195-0.108,2.952-0.325s1.372-0.563,1.847-1.037
				c0.474-0.484,0.81-0.994,1.007-1.528C152.575,78.435,152.674,77.834,152.674,77.168z"/>
			<path fill="#FFFFFF" d="M162.392,92.819h-2.846V69.267h2.846V92.819z"/>
			<path fill="#FFFFFF" d="M181.161,92.819h-2.831v-1.801c-0.252,0.171-0.593,0.411-1.021,0.719
				c-0.429,0.308-0.846,0.553-1.249,0.734c-0.475,0.231-1.02,0.426-1.635,0.582c-0.616,0.156-1.337,0.234-2.165,0.234
				c-1.524,0-2.815-0.504-3.875-1.514c-1.06-1.009-1.589-2.295-1.589-3.859c0-1.281,0.275-2.318,0.825-3.11
				c0.55-0.792,1.334-1.415,2.354-1.87c1.029-0.453,2.265-0.762,3.708-0.923c1.443-0.161,2.992-0.282,4.647-0.363V81.21
				c0-0.646-0.113-1.182-0.341-1.605c-0.227-0.424-0.552-0.756-0.976-0.998c-0.404-0.232-0.888-0.389-1.453-0.47
				c-0.565-0.081-1.156-0.121-1.771-0.121c-0.747,0-1.58,0.099-2.498,0.295c-0.918,0.197-1.867,0.482-2.846,0.855h-0.151v-2.892
				c0.555-0.15,1.357-0.317,2.407-0.499c1.049-0.182,2.083-0.272,3.103-0.272c1.19,0,2.228,0.099,3.111,0.295
				c0.883,0.197,1.647,0.532,2.293,1.007c0.636,0.464,1.12,1.064,1.453,1.802c0.333,0.736,0.5,1.649,0.5,2.739V92.819z
				 M178.331,88.657v-4.708c-0.868,0.051-1.89,0.126-3.065,0.228c-1.175,0.101-2.106,0.247-2.792,0.438
				c-0.817,0.232-1.479,0.593-1.983,1.082c-0.505,0.49-0.757,1.163-0.757,2.021c0,0.969,0.292,1.698,0.878,2.188
				c0.585,0.49,1.478,0.734,2.679,0.734c0.999,0,1.912-0.194,2.74-0.583C176.857,89.669,177.624,89.202,178.331,88.657z"/>
			<path fill="#FFFFFF" d="M200.777,92.819h-2.846v-9.627c0-0.777-0.045-1.506-0.135-2.188c-0.092-0.681-0.258-1.213-0.5-1.597
				c-0.252-0.424-0.615-0.739-1.09-0.946c-0.475-0.206-1.09-0.311-1.848-0.311c-0.775,0-1.588,0.192-2.436,0.576
				c-0.848,0.383-1.66,0.872-2.438,1.468v12.624h-2.846V75.911h2.846v1.877c0.889-0.736,1.807-1.312,2.754-1.725
				c0.949-0.414,1.924-0.621,2.922-0.621c1.826,0,3.219,0.55,4.178,1.65c0.959,1.1,1.438,2.684,1.438,4.752V92.819z"/>
			<path fill="#FFFFFF" d="M218.76,91.76c-0.948,0.454-1.849,0.808-2.701,1.06c-0.854,0.252-1.759,0.379-2.717,0.379
				c-1.222,0-2.342-0.18-3.361-0.538c-1.019-0.357-1.892-0.9-2.618-1.627c-0.736-0.727-1.307-1.645-1.71-2.755
				c-0.404-1.11-0.605-2.406-0.605-3.891c0-2.765,0.759-4.934,2.277-6.508s3.524-2.361,6.018-2.361c0.969,0,1.919,0.136,2.853,0.408
				s1.789,0.605,2.565,0.999v3.163h-0.15c-0.868-0.676-1.764-1.195-2.688-1.559c-0.923-0.363-1.824-0.545-2.701-0.545
				c-1.615,0-2.89,0.543-3.822,1.627c-0.934,1.085-1.4,2.677-1.4,4.775c0,2.039,0.456,3.605,1.37,4.7
				c0.913,1.096,2.197,1.643,3.853,1.643c0.574,0,1.16-0.075,1.756-0.228c0.595-0.15,1.13-0.348,1.604-0.59
				c0.414-0.212,0.803-0.437,1.166-0.674c0.363-0.236,0.65-0.441,0.863-0.613h0.15V91.76z"/>
			<path fill="#FFFFFF" d="M237.757,92.819h-3.754l-6.781-7.402l-1.846,1.756v5.646h-2.846V69.267h2.846v15.106l8.219-8.462h3.588
				l-7.856,7.811L237.757,92.819z"/>
			<path fill="#FFFFFF" d="M269.65,70.28l-8.204,22.539h-3.996l-8.204-22.539h3.209l7.069,19.83l7.068-19.83H269.65z"/>
			<path fill="#FFFFFF" d="M285.741,84.373c0,2.755-0.707,4.93-2.119,6.524c-1.413,1.594-3.306,2.391-5.677,2.391
				c-2.392,0-4.291-0.797-5.699-2.391c-1.407-1.595-2.111-3.77-2.111-6.524s0.704-4.932,2.111-6.531
				c1.408-1.6,3.308-2.399,5.699-2.399c2.371,0,4.264,0.8,5.677,2.399C285.034,79.441,285.741,81.618,285.741,84.373z
				 M282.804,84.373c0-2.189-0.429-3.816-1.286-4.882c-0.857-1.064-2.049-1.597-3.572-1.597c-1.544,0-2.742,0.532-3.595,1.597
				c-0.854,1.065-1.279,2.692-1.279,4.882c0,2.119,0.429,3.727,1.287,4.821c0.857,1.095,2.053,1.643,3.587,1.643
				c1.514,0,2.702-0.543,3.564-1.628C282.373,88.125,282.804,86.513,282.804,84.373z"/>
			<path fill="#FFFFFF" d="M293.021,92.819h-2.846V69.267h2.846V92.819z"/>
			<path fill="#FFFFFF" d="M312.668,92.819h-2.846v-1.877c-0.958,0.757-1.877,1.337-2.754,1.74
				c-0.879,0.404-1.848,0.605-2.906,0.605c-1.776,0-3.159-0.542-4.148-1.627c-0.988-1.084-1.482-2.677-1.482-4.775V75.911h2.846
				v9.627c0,0.858,0.04,1.593,0.121,2.203c0.08,0.61,0.252,1.133,0.514,1.566c0.273,0.444,0.626,0.767,1.061,0.969
				c0.434,0.202,1.064,0.303,1.892,0.303c0.736,0,1.541-0.191,2.414-0.575s1.688-0.873,2.444-1.468V75.911h2.846V92.819z"/>
			<path fill="#FFFFFF" d="M342.941,92.819h-2.846v-9.627c0-0.727-0.032-1.428-0.098-2.104c-0.066-0.677-0.205-1.217-0.416-1.62
				c-0.232-0.434-0.565-0.762-1-0.983c-0.434-0.223-1.059-0.334-1.877-0.334c-0.797,0-1.594,0.2-2.391,0.599
				c-0.798,0.398-1.595,0.905-2.393,1.521c0.031,0.232,0.056,0.503,0.076,0.811s0.03,0.613,0.03,0.916v10.822h-2.846v-9.627
				c0-0.747-0.033-1.455-0.099-2.127c-0.065-0.671-0.204-1.208-0.416-1.611c-0.232-0.435-0.565-0.76-0.999-0.977
				s-1.06-0.326-1.877-0.326c-0.777,0-1.557,0.192-2.339,0.576c-0.782,0.383-1.562,0.872-2.338,1.468v12.624h-2.846V75.911h2.846
				v1.877c0.888-0.736,1.772-1.312,2.656-1.725c0.883-0.414,1.824-0.621,2.822-0.621c1.15,0,2.127,0.242,2.93,0.727
				c0.802,0.484,1.4,1.155,1.793,2.014c1.15-0.969,2.2-1.668,3.148-2.097c0.949-0.429,1.963-0.644,3.043-0.644
				c1.856,0,3.227,0.563,4.109,1.688c0.883,1.126,1.324,2.697,1.324,4.715V92.819z"/>
			<path fill="#FFFFFF" d="M362.574,84.661h-12.457c0,1.039,0.156,1.944,0.469,2.717c0.313,0.771,0.742,1.405,1.287,1.899
				c0.524,0.484,1.147,0.848,1.869,1.09c0.721,0.242,1.516,0.363,2.384,0.363c1.15,0,2.309-0.229,3.474-0.688
				c1.166-0.459,1.996-0.911,2.49-1.355h0.151v3.104c-0.959,0.403-1.938,0.742-2.937,1.014c-0.999,0.273-2.049,0.409-3.148,0.409
				c-2.806,0-4.995-0.759-6.569-2.278c-1.574-1.519-2.361-3.676-2.361-6.471c0-2.765,0.754-4.96,2.263-6.584
				c1.509-1.625,3.494-2.438,5.957-2.438c2.28,0,4.038,0.666,5.274,1.998s1.854,3.225,1.854,5.676V84.661z M359.805,82.481
				c-0.011-1.494-0.387-2.649-1.128-3.467c-0.742-0.817-1.87-1.227-3.384-1.227c-1.523,0-2.737,0.449-3.64,1.348
				c-0.903,0.898-1.415,2.014-1.536,3.346H359.805z"/>
		</g>
		<g enable-background="new    ">
			<path fill="#FFFFFF" d="M212.477,210.713h-17.952v-2.422h17.952V210.713z M212.477,217.07h-17.952v-2.422h17.952V217.07z"/>
			<path fill="#FFFFFF" d="M245.293,216.208h-3.345v6.342h-2.906v-6.342H228.25v-3.482l10.914-12.715h2.785v13.775h3.345V216.208z
				 M239.042,213.786v-10.172l-8.734,10.172H239.042z"/>
			<path fill="#FFFFFF" d="M254.239,222.55h-3.617v-4.314h3.617V222.55z"/>
			<path fill="#FFFFFF" d="M275.764,222.55h-15.258v-3.164c1.059-0.908,2.121-1.816,3.186-2.725s2.057-1.811,2.975-2.709
				c1.938-1.877,3.265-3.368,3.98-4.473c0.717-1.105,1.075-2.299,1.075-3.58c0-1.171-0.386-2.086-1.158-2.747
				c-0.771-0.661-1.849-0.991-3.231-0.991c-0.918,0-1.912,0.161-2.982,0.484c-1.069,0.322-2.113,0.816-3.133,1.482h-0.151v-3.178
				c0.717-0.354,1.673-0.677,2.868-0.969c1.196-0.293,2.354-0.439,3.475-0.439c2.311,0,4.122,0.558,5.434,1.673
				s1.968,2.626,1.968,4.533c0,0.857-0.108,1.657-0.325,2.399c-0.218,0.741-0.537,1.445-0.961,2.111
				c-0.395,0.626-0.855,1.241-1.386,1.847c-0.529,0.605-1.173,1.276-1.93,2.013c-1.08,1.061-2.194,2.087-3.345,3.081
				s-2.226,1.915-3.225,2.763h12.125V222.55z"/>
			<path fill="#FFFFFF" d="M295.473,222.55h-15.258v-3.164c1.059-0.908,2.121-1.816,3.186-2.725s2.057-1.811,2.975-2.709
				c1.938-1.877,3.265-3.368,3.98-4.473c0.717-1.105,1.075-2.299,1.075-3.58c0-1.171-0.386-2.086-1.158-2.747
				c-0.771-0.661-1.849-0.991-3.231-0.991c-0.918,0-1.912,0.161-2.982,0.484c-1.069,0.322-2.113,0.816-3.133,1.482h-0.151v-3.178
				c0.717-0.354,1.673-0.677,2.868-0.969c1.196-0.293,2.354-0.439,3.475-0.439c2.311,0,4.122,0.558,5.434,1.673
				s1.968,2.626,1.968,4.533c0,0.857-0.108,1.657-0.325,2.399c-0.218,0.741-0.537,1.445-0.961,2.111
				c-0.395,0.626-0.855,1.241-1.386,1.847c-0.529,0.605-1.173,1.276-1.93,2.013c-1.08,1.061-2.194,2.087-3.345,3.081
				s-2.226,1.915-3.225,2.763h12.125V222.55z"/>
			<path fill="#FFFFFF" d="M318.449,219.28l-1.681,1.68l-6.6-6.66l-6.6,6.66l-1.681-1.68l6.66-6.6l-6.66-6.6l1.681-1.68l6.6,6.66
				l6.6-6.66l1.681,1.68l-6.66,6.6L318.449,219.28z"/>
			<path fill="#FFFFFF" d="M339.262,222.55h-12.2v-2.301h4.692v-15.106h-4.692v-2.059c0.636,0,1.317-0.053,2.044-0.159
				c0.727-0.105,1.276-0.26,1.649-0.461c0.464-0.253,0.83-0.573,1.098-0.962c0.267-0.388,0.421-0.91,0.462-1.566h2.346v20.313h4.602
				V222.55z"/>
			<path fill="#FFFFFF" d="M360.227,211.272c0,4.047-0.633,7.017-1.899,8.908c-1.267,1.893-3.231,2.838-5.896,2.838
				c-2.704,0-4.68-0.958-5.926-2.875c-1.247-1.918-1.869-4.864-1.869-8.84c0-4.007,0.63-6.966,1.892-8.878s3.229-2.868,5.903-2.868
				c2.704,0,4.68,0.971,5.926,2.913C359.604,204.414,360.227,207.348,360.227,211.272z M356.246,218.146
				c0.354-0.818,0.593-1.779,0.719-2.884c0.126-1.105,0.189-2.435,0.189-3.989c0-1.533-0.063-2.865-0.189-3.996
				c-0.126-1.13-0.371-2.088-0.734-2.875c-0.353-0.777-0.835-1.363-1.445-1.756c-0.61-0.395-1.395-0.591-2.354-0.591
				c-0.948,0-1.733,0.196-2.354,0.591c-0.621,0.393-1.113,0.988-1.477,1.785c-0.343,0.747-0.577,1.721-0.703,2.922
				c-0.127,1.201-0.189,2.518-0.189,3.951c0,1.574,0.056,2.891,0.166,3.95c0.111,1.06,0.349,2.008,0.712,2.846
				c0.333,0.787,0.805,1.388,1.415,1.802c0.61,0.413,1.421,0.62,2.43,0.62c0.948,0,1.735-0.196,2.361-0.591
				C355.419,219.538,355.903,218.942,356.246,218.146z"/>
		</g>
		<g enable-background="new    ">
			<path fill="#FFFFFF" d="M369.126,202.276h-5.506v-1.598h5.506V202.276z"/>
			<path fill="#FFFFFF" d="M380.775,199.867c0,1.147-0.132,2.188-0.394,3.124s-0.657,1.732-1.187,2.392
				c-0.535,0.67-1.206,1.188-2.012,1.553c-0.807,0.365-1.754,0.547-2.842,0.547c-0.306,0-0.595-0.016-0.865-0.048
				c-0.271-0.033-0.512-0.084-0.724-0.155v-1.686h0.089c0.17,0.089,0.411,0.173,0.724,0.252c0.312,0.079,0.658,0.119,1.041,0.119
				c1.3,0,2.319-0.39,3.058-1.169s1.166-1.854,1.284-3.226c-0.547,0.329-1.062,0.564-1.544,0.706
				c-0.482,0.141-1.01,0.212-1.58,0.212c-0.541,0-1.031-0.054-1.469-0.159c-0.438-0.105-0.879-0.312-1.319-0.618
				c-0.519-0.358-0.908-0.814-1.17-1.367s-0.393-1.215-0.393-1.985c0-1.342,0.441-2.433,1.324-3.274
				c0.882-0.841,1.959-1.262,3.229-1.262c0.636,0,1.224,0.099,1.765,0.296c0.541,0.196,1.015,0.492,1.421,0.887
				c0.5,0.488,0.886,1.116,1.156,1.884S380.775,198.649,380.775,199.867z M378.992,199.487c0-0.911-0.094-1.645-0.282-2.197
				s-0.447-0.982-0.776-1.288c-0.276-0.265-0.574-0.455-0.892-0.569c-0.317-0.115-0.662-0.172-1.032-0.172
				c-0.848,0-1.517,0.265-2.008,0.794s-0.736,1.273-0.736,2.232c0,0.56,0.079,1.015,0.238,1.368
				c0.158,0.353,0.426,0.662,0.803,0.927c0.265,0.183,0.556,0.305,0.873,0.366c0.318,0.062,0.671,0.093,1.06,0.093
				c0.459,0,0.924-0.063,1.395-0.186c0.471-0.124,0.911-0.303,1.323-0.538c0.006-0.124,0.014-0.246,0.022-0.366
				C378.988,199.83,378.992,199.676,378.992,199.487z"/>
			<path fill="#FFFFFF" d="M392.265,199.867c0,1.147-0.132,2.188-0.394,3.124s-0.657,1.732-1.187,2.392
				c-0.535,0.67-1.206,1.188-2.012,1.553c-0.807,0.365-1.754,0.547-2.842,0.547c-0.306,0-0.595-0.016-0.865-0.048
				c-0.271-0.033-0.512-0.084-0.724-0.155v-1.686h0.089c0.17,0.089,0.411,0.173,0.724,0.252c0.312,0.079,0.658,0.119,1.041,0.119
				c1.3,0,2.319-0.39,3.058-1.169s1.166-1.854,1.284-3.226c-0.547,0.329-1.062,0.564-1.544,0.706
				c-0.482,0.141-1.01,0.212-1.58,0.212c-0.541,0-1.031-0.054-1.469-0.159c-0.438-0.105-0.879-0.312-1.319-0.618
				c-0.519-0.358-0.908-0.814-1.17-1.367s-0.393-1.215-0.393-1.985c0-1.342,0.441-2.433,1.324-3.274
				c0.882-0.841,1.959-1.262,3.229-1.262c0.636,0,1.224,0.099,1.765,0.296c0.541,0.196,1.015,0.492,1.421,0.887
				c0.5,0.488,0.886,1.116,1.156,1.884S392.265,198.649,392.265,199.867z M390.481,199.487c0-0.911-0.094-1.645-0.282-2.197
				s-0.447-0.982-0.776-1.288c-0.276-0.265-0.574-0.455-0.892-0.569c-0.317-0.115-0.662-0.172-1.032-0.172
				c-0.848,0-1.517,0.265-2.008,0.794s-0.736,1.273-0.736,2.232c0,0.56,0.079,1.015,0.238,1.368
				c0.158,0.353,0.426,0.662,0.803,0.927c0.265,0.183,0.556,0.305,0.873,0.366c0.318,0.062,0.671,0.093,1.06,0.093
				c0.459,0,0.924-0.063,1.395-0.186c0.471-0.124,0.911-0.303,1.323-0.538c0.006-0.124,0.014-0.246,0.022-0.366
				C390.478,199.83,390.481,199.676,390.481,199.487z"/>
		</g>
		<g enable-background="new    ">
			<path fill="#FFFFFF" d="M419.658,221.49c-0.949,0.454-1.849,0.808-2.702,1.06c-0.853,0.252-1.759,0.379-2.717,0.379
				c-1.221,0-2.341-0.18-3.36-0.538c-1.02-0.357-1.892-0.9-2.619-1.627c-0.737-0.727-1.307-1.645-1.71-2.755
				c-0.404-1.11-0.605-2.406-0.605-3.891c0-2.765,0.759-4.934,2.278-6.508c1.519-1.574,3.524-2.361,6.017-2.361
				c0.969,0,1.92,0.136,2.853,0.408c0.934,0.272,1.789,0.605,2.566,0.999v3.163h-0.151c-0.868-0.676-1.763-1.195-2.687-1.559
				c-0.923-0.363-1.824-0.545-2.702-0.545c-1.615,0-2.889,0.543-3.822,1.627c-0.934,1.085-1.4,2.677-1.4,4.775
				c0,2.039,0.457,3.605,1.37,4.7c0.913,1.096,2.197,1.643,3.852,1.643c0.575,0,1.16-0.075,1.756-0.228
				c0.595-0.15,1.13-0.348,1.604-0.59c0.414-0.212,0.802-0.437,1.166-0.674c0.363-0.236,0.651-0.441,0.863-0.613h0.151V221.49z"/>
			<path fill="#FFFFFF" d="M447.978,222.55h-2.846v-9.627c0-0.727-0.031-1.428-0.098-2.104c-0.066-0.677-0.205-1.217-0.416-1.62
				c-0.232-0.434-0.564-0.762-1-0.983c-0.433-0.223-1.059-0.334-1.876-0.334c-0.797,0-1.595,0.2-2.392,0.599
				c-0.797,0.398-1.595,0.905-2.392,1.521c0.03,0.232,0.055,0.503,0.076,0.811c0.02,0.308,0.03,0.613,0.03,0.916v10.822h-2.846
				v-9.627c0-0.747-0.033-1.455-0.099-2.127c-0.065-0.671-0.204-1.208-0.416-1.611c-0.232-0.435-0.565-0.76-0.999-0.977
				c-0.434-0.217-1.06-0.326-1.877-0.326c-0.777,0-1.557,0.192-2.339,0.576c-0.782,0.383-1.562,0.872-2.338,1.468v12.624h-2.846
				v-16.908h2.846v1.877c0.888-0.736,1.773-1.312,2.657-1.725c0.883-0.414,1.824-0.621,2.823-0.621c1.15,0,2.126,0.242,2.929,0.727
				c0.802,0.484,1.4,1.155,1.793,2.014c1.15-0.969,2.2-1.668,3.148-2.097c0.948-0.429,1.962-0.644,3.042-0.644
				c1.857,0,3.226,0.563,4.109,1.688c0.883,1.126,1.324,2.697,1.324,4.715V222.55z"/>
		</g>
		<g enable-background="new    ">
			<path fill="#FFFFFF" d="M459.818,200.899c0.282,0.253,0.515,0.57,0.697,0.953c0.182,0.383,0.273,0.877,0.273,1.482
				c0,0.601-0.109,1.15-0.326,1.65c-0.218,0.5-0.524,0.936-0.918,1.306c-0.441,0.412-0.961,0.717-1.558,0.914
				c-0.598,0.196-1.252,0.295-1.964,0.295c-0.729,0-1.447-0.087-2.153-0.26c-0.706-0.174-1.285-0.363-1.738-0.569v-1.845h0.133
				c0.5,0.33,1.088,0.604,1.765,0.821s1.329,0.326,1.959,0.326c0.371,0,0.765-0.062,1.183-0.186
				c0.418-0.123,0.756-0.306,1.015-0.547c0.271-0.259,0.473-0.544,0.604-0.856c0.133-0.312,0.198-0.705,0.198-1.182
				c0-0.471-0.074-0.86-0.225-1.17c-0.15-0.309-0.357-0.552-0.622-0.728c-0.265-0.183-0.586-0.308-0.962-0.375
				c-0.377-0.067-0.782-0.102-1.218-0.102h-0.794v-1.465h0.617c0.895,0,1.607-0.187,2.141-0.561
				c0.532-0.374,0.798-0.919,0.798-1.637c0-0.318-0.067-0.596-0.202-0.834c-0.136-0.238-0.324-0.435-0.565-0.587
				c-0.253-0.153-0.523-0.259-0.812-0.318c-0.288-0.059-0.615-0.088-0.979-0.088c-0.56,0-1.153,0.101-1.783,0.3
				c-0.629,0.2-1.224,0.482-1.782,0.848h-0.088v-1.845c0.417-0.206,0.975-0.396,1.672-0.569c0.697-0.173,1.372-0.26,2.025-0.26
				c0.642,0,1.206,0.059,1.694,0.176c0.488,0.118,0.93,0.307,1.323,0.565c0.424,0.282,0.744,0.623,0.962,1.023
				s0.327,0.868,0.327,1.403c0,0.729-0.258,1.366-0.772,1.91c-0.515,0.545-1.122,0.887-1.822,1.028v0.124
				c0.282,0.047,0.605,0.146,0.971,0.295C459.257,200.489,459.565,200.676,459.818,200.899z"/>
		</g>
		<g>
			<g>
				<g enable-background="new    ">
					<path fill="none" stroke="#FFFFFF" stroke-miterlimit="10" d="M745.955,173.885h-2.846v-23.553h2.846V173.885z"/>
				</g>
			</g>
			<g>
				
					<rect x="787.113" y="115.825" fill="none" stroke="#FFFFFF" stroke-width="3" stroke-linejoin="round" stroke-miterlimit="10" width="97.627" height="97.627"/>
				
					<rect x="831.352" y="80.079" fill="none" stroke="#FFFFFF" stroke-width="3" stroke-linejoin="round" stroke-miterlimit="10" width="97.627" height="97.627"/>
				
					<line fill="none" stroke="#FFFFFF" stroke-width="3" stroke-linejoin="round" stroke-miterlimit="10" x1="787.113" y1="115.825" x2="831.352" y2="80.079"/>
				
					<line fill="none" stroke="#FFFFFF" stroke-width="3" stroke-linejoin="round" stroke-miterlimit="10" x1="787.113" y1="213.453" x2="831.352" y2="177.707"/>
				
					<line fill="none" stroke="#FFFFFF" stroke-width="3" stroke-linejoin="round" stroke-miterlimit="10" x1="884.74" y1="115.825" x2="928.979" y2="80.079"/>
				
					<line fill="none" stroke="#FFFFFF" stroke-width="3" stroke-linejoin="round" stroke-miterlimit="10" x1="884.74" y1="213.453" x2="928.979" y2="177.707"/>
			</g>
			<path fill="none" stroke="#FFFFFF" stroke-linejoin="round" stroke-miterlimit="10" d="M768.768,181.479v21.857
				c0,1.568,0.078,2.914,0.236,4.035c0.156,1.121,0.479,2.061,0.971,2.818c0.49,0.759,1.154,1.408,1.99,1.951
				c0.838,0.541,1.836,0.942,2.99,1.207v0.728c-2.674-0.349-4.631-1.234-5.875-2.661c-1.24-1.428-1.861-3.577-1.861-6.451v-23.484
				h0.017v-6.617c0-2.82-0.474-4.881-1.42-6.176c-0.947-1.295-2.544-2.252-4.785-2.873v-1.201c2.242-0.608,3.838-1.563,4.785-2.856
				c0.946-1.294,1.42-3.354,1.42-6.175v-6.681v-23.485c0-2.874,0.623-5.023,1.864-6.451c1.242-1.427,3.201-2.313,5.875-2.66v0.727
				c-1.157,0.264-2.155,0.666-2.994,1.207c-0.836,0.543-1.5,1.193-1.989,1.951c-0.488,0.758-0.813,1.697-0.972,2.818
				c-0.157,1.121-0.235,2.467-0.235,4.035v21.857h-0.017v6.997c0,1.517-0.129,2.795-0.387,3.838
				c-0.262,1.041-0.662,1.918-1.209,2.629c-0.549,0.711-1.244,1.287-2.096,1.729c-0.847,0.442-1.959,0.816-3.34,1.122
				c1.368,0.306,2.448,0.663,3.237,1.073s1.461,0.941,2.015,1.596c0.553,0.652,0.985,1.549,1.303,2.686
				c0.315,1.138,0.477,2.47,0.477,3.996V181.479L768.768,181.479z"/>
		</g>
		<line fill="none" stroke="#FFFFFF" stroke-width="3" x1="141.519" y1="100.822" x2="360.66" y2="100.822"/>
	</g>
</g>
</svg>
