<?xml version="1.0" encoding="utf-8"?>
<!-- Generator: Adobe Illustrator 16.0.0, SVG Export Plug-In . SVG Version: 6.00 Build 0)  -->
<!DOCTYPE svg PUBLIC "-//W3C//DTD SVG 1.1//EN" "http://www.w3.org/Graphics/SVG/1.1/DTD/svg11.dtd">
<svg version="1.1" id="Layer_3" xmlns="http://www.w3.org/2000/svg" xmlns:xlink="http://www.w3.org/1999/xlink" x="0px" y="0px"
	 width="719px" height="453px" viewBox="115 51.5 719 453" enable-background="new 115 51.5 719 453" xml:space="preserve">
<path fill="#291159" fill-opacity="0.8" stroke="#FFFFFF" stroke-width="3" stroke-miterlimit="10" d="M834.129,497.297
	c0,4.466-3.238,8.086-7.236,8.086H122.631c-3.996,0-7.237-3.62-7.237-8.086V60.01c0-4.467,3.241-8.084,7.237-8.084h704.262
	c3.998,0,7.236,3.617,7.236,8.084V497.297L834.129,497.297z"/>
<g id="step17White">
	<g>
		<g id="step12Black_8_">
			<g enable-background="new    ">
				<path fill="#FFFFFF" d="M164.795,129.972l-6.842,16.908h-2.861l-6.796-16.908h3.088l5.237,13.457l5.192-13.457H164.795z"/>
				<path fill="#FFFFFF" d="M193.733,135.043h-17.952v-2.422h17.952V135.043z M193.733,141.4h-17.952v-2.422h17.952V141.4z"/>
				<path fill="#FFFFFF" d="M226.035,146.88h-15.258v-3.164c1.059-0.908,2.121-1.816,3.186-2.725s2.057-1.811,2.975-2.709
					c1.938-1.877,3.265-3.368,3.98-4.473c0.717-1.105,1.075-2.299,1.075-3.58c0-1.171-0.386-2.086-1.158-2.747
					c-0.771-0.661-1.849-0.991-3.231-0.991c-0.918,0-1.912,0.161-2.982,0.484c-1.069,0.322-2.113,0.816-3.133,1.482h-0.151v-3.178
					c0.717-0.354,1.673-0.677,2.868-0.969c1.196-0.293,2.354-0.439,3.475-0.439c2.311,0,4.122,0.558,5.434,1.673
					s1.968,2.626,1.968,4.533c0,0.857-0.108,1.657-0.325,2.399c-0.218,0.741-0.537,1.445-0.961,2.111
					c-0.395,0.626-0.855,1.241-1.386,1.847c-0.529,0.605-1.173,1.276-1.93,2.013c-1.08,1.061-2.194,2.087-3.345,3.081
					s-2.226,1.915-3.225,2.763h12.125V146.88z"/>
				<path fill="#FFFFFF" d="M278.438,146.88h-15.258v-3.164c1.059-0.908,2.121-1.816,3.186-2.725s2.057-1.811,2.975-2.709
					c1.938-1.877,3.265-3.368,3.98-4.473c0.717-1.105,1.075-2.299,1.075-3.58c0-1.171-0.386-2.086-1.158-2.747
					c-0.771-0.661-1.849-0.991-3.231-0.991c-0.918,0-1.912,0.161-2.982,0.484c-1.069,0.322-2.113,0.816-3.133,1.482h-0.151v-3.178
					c0.717-0.354,1.673-0.677,2.868-0.969c1.196-0.293,2.354-0.439,3.475-0.439c2.311,0,4.122,0.558,5.434,1.673
					s1.968,2.626,1.968,4.533c0,0.857-0.108,1.657-0.325,2.399c-0.218,0.741-0.537,1.445-0.961,2.111
					c-0.395,0.626-0.855,1.241-1.386,1.847c-0.529,0.605-1.173,1.276-1.93,2.013c-1.08,1.061-2.194,2.087-3.345,3.081
					s-2.226,1.915-3.225,2.763h12.125V146.88z"/>
				<path fill="#FFFFFF" d="M296.391,146.88h-2.831v-1.801c-0.252,0.171-0.593,0.411-1.021,0.719
					c-0.43,0.308-0.846,0.553-1.249,0.734c-0.475,0.231-1.02,0.426-1.635,0.582s-1.337,0.234-2.164,0.234
					c-1.524,0-2.816-0.504-3.875-1.514c-1.061-1.009-1.59-2.295-1.59-3.859c0-1.281,0.274-2.318,0.825-3.11
					c0.55-0.792,1.334-1.415,2.354-1.87c1.029-0.453,2.266-0.762,3.708-0.923c1.443-0.161,2.992-0.282,4.647-0.363v-0.438
					c0-0.646-0.113-1.182-0.341-1.605c-0.227-0.424-0.553-0.756-0.977-0.998c-0.403-0.232-0.888-0.389-1.453-0.47
					c-0.564-0.081-1.155-0.121-1.771-0.121c-0.747,0-1.579,0.099-2.497,0.295c-0.919,0.197-1.867,0.482-2.846,0.855h-0.152v-2.892
					c0.556-0.15,1.357-0.317,2.407-0.499s2.084-0.272,3.103-0.272c1.191,0,2.228,0.099,3.111,0.295
					c0.883,0.197,1.647,0.532,2.293,1.007c0.636,0.464,1.12,1.064,1.453,1.802c0.333,0.736,0.5,1.649,0.5,2.739V146.88z
					 M293.56,142.718v-4.708c-0.868,0.051-1.89,0.126-3.065,0.228c-1.176,0.101-2.106,0.247-2.793,0.438
					c-0.816,0.232-1.478,0.593-1.982,1.082c-0.505,0.49-0.757,1.163-0.757,2.021c0,0.969,0.293,1.698,0.878,2.188
					c0.585,0.49,1.479,0.734,2.68,0.734c0.998,0,1.912-0.194,2.739-0.583C292.086,143.729,292.854,143.263,293.56,142.718z"/>
				<path fill="#FFFFFF" d="M312.42,133.075h-0.151c-0.424-0.101-0.835-0.174-1.233-0.22c-0.399-0.045-0.87-0.067-1.415-0.067
					c-0.879,0-1.727,0.194-2.543,0.582c-0.818,0.389-1.605,0.891-2.361,1.506v12.004h-2.846v-16.908h2.846v2.498
					c1.13-0.908,2.126-1.552,2.989-1.93c0.862-0.379,1.743-0.568,2.642-0.568c0.494,0,0.853,0.014,1.074,0.038
					c0.222,0.025,0.555,0.073,0.999,0.144V133.075z"/>
				<path fill="#FFFFFF" d="M322.606,147.155c0,0.8-0.115,1.531-0.345,2.193c-0.229,0.661-0.553,1.222-0.971,1.681
					c-0.388,0.436-0.846,0.772-1.372,1.011s-1.084,0.357-1.672,0.357c-0.513,0-0.976-0.057-1.391-0.168
					c-0.414-0.111-0.837-0.285-1.266-0.521v4.13h-1.659v-13.493h1.659v1.033c0.44-0.371,0.937-0.682,1.486-0.932
					s1.137-0.375,1.761-0.375c1.188,0,2.113,0.449,2.775,1.346C322.275,144.315,322.606,145.562,322.606,147.155z M320.895,147.199
					c0-1.188-0.203-2.076-0.609-2.665c-0.406-0.588-1.029-0.882-1.871-0.882c-0.477,0-0.956,0.103-1.438,0.309
					s-0.944,0.477-1.385,0.812v5.586c0.471,0.212,0.875,0.356,1.213,0.433c0.338,0.077,0.723,0.115,1.151,0.115
					c0.924,0,1.645-0.313,2.162-0.936C320.635,149.347,320.895,148.423,320.895,147.199z"/>
				<path fill="#FFFFFF" d="M356.118,135.043h-17.951v-2.422h17.951V135.043z M356.118,141.4h-17.951v-2.422h17.951V141.4z"/>
				<path fill="#FFFFFF" d="M384.076,133.075h-0.151c-0.424-0.101-0.835-0.174-1.233-0.22c-0.399-0.045-0.87-0.067-1.415-0.067
					c-0.879,0-1.727,0.194-2.543,0.582c-0.818,0.389-1.605,0.891-2.361,1.506v12.004h-2.846v-16.908h2.846v2.498
					c1.13-0.908,2.126-1.552,2.989-1.93c0.862-0.379,1.743-0.568,2.642-0.568c0.494,0,0.853,0.014,1.074,0.038
					c0.222,0.025,0.555,0.073,0.999,0.144V133.075z"/>
				<path fill="#FFFFFF" d="M400.908,138.722h-12.457c0,1.039,0.156,1.944,0.469,2.717c0.313,0.771,0.742,1.405,1.287,1.899
					c0.524,0.484,1.147,0.848,1.869,1.09c0.721,0.242,1.516,0.363,2.384,0.363c1.15,0,2.309-0.229,3.474-0.688
					c1.166-0.459,1.996-0.911,2.49-1.355h0.151v3.104c-0.959,0.403-1.938,0.742-2.937,1.014c-0.999,0.273-2.049,0.409-3.148,0.409
					c-2.806,0-4.995-0.759-6.569-2.278c-1.574-1.519-2.361-3.676-2.361-6.471c0-2.765,0.754-4.96,2.263-6.584
					c1.509-1.625,3.494-2.438,5.957-2.438c2.28,0,4.038,0.666,5.274,1.998s1.854,3.225,1.854,5.676V138.722z M398.139,136.542
					c-0.011-1.494-0.387-2.649-1.128-3.467c-0.742-0.817-1.87-1.227-3.384-1.227c-1.523,0-2.737,0.449-3.64,1.348
					c-0.903,0.898-1.415,2.014-1.536,3.346H398.139z"/>
				<path fill="#FFFFFF" d="M408.098,146.88h-2.846v-23.553h2.846V146.88z"/>
				<path fill="#FFFFFF" d="M426.868,146.88h-2.831v-1.801c-0.252,0.171-0.593,0.411-1.021,0.719
					c-0.43,0.308-0.846,0.553-1.249,0.734c-0.475,0.231-1.02,0.426-1.635,0.582s-1.337,0.234-2.164,0.234
					c-1.524,0-2.816-0.504-3.875-1.514c-1.061-1.009-1.59-2.295-1.59-3.859c0-1.281,0.274-2.318,0.825-3.11
					c0.55-0.792,1.334-1.415,2.354-1.87c1.029-0.453,2.266-0.762,3.708-0.923c1.443-0.161,2.992-0.282,4.647-0.363v-0.438
					c0-0.646-0.113-1.182-0.341-1.605c-0.227-0.424-0.553-0.756-0.977-0.998c-0.403-0.232-0.888-0.389-1.453-0.47
					c-0.564-0.081-1.155-0.121-1.771-0.121c-0.747,0-1.579,0.099-2.497,0.295c-0.919,0.197-1.867,0.482-2.846,0.855h-0.152v-2.892
					c0.556-0.15,1.357-0.317,2.407-0.499s2.084-0.272,3.103-0.272c1.191,0,2.228,0.099,3.111,0.295
					c0.883,0.197,1.647,0.532,2.293,1.007c0.636,0.464,1.12,1.064,1.453,1.802c0.333,0.736,0.5,1.649,0.5,2.739V146.88z
					 M424.037,142.718v-4.708c-0.868,0.051-1.89,0.126-3.065,0.228c-1.176,0.101-2.106,0.247-2.793,0.438
					c-0.816,0.232-1.478,0.593-1.982,1.082c-0.505,0.49-0.757,1.163-0.757,2.021c0,0.969,0.293,1.698,0.878,2.188
					c0.585,0.49,1.479,0.734,2.68,0.734c0.998,0,1.912-0.194,2.739-0.583C422.563,143.729,423.331,143.263,424.037,142.718z"/>
				<path fill="#FFFFFF" d="M441.127,146.729c-0.535,0.142-1.118,0.257-1.749,0.349c-0.631,0.09-1.193,0.136-1.688,0.136
					c-1.726,0-3.037-0.464-3.936-1.393s-1.347-2.417-1.347-4.466v-8.99h-1.923v-2.393h1.923v-4.858h2.846v4.858h5.873v2.393h-5.873
					v7.704c0,0.888,0.02,1.582,0.061,2.081c0.04,0.5,0.182,0.967,0.424,1.4c0.222,0.403,0.526,0.699,0.915,0.886
					s0.981,0.28,1.778,0.28c0.465,0,0.949-0.068,1.453-0.205c0.505-0.136,0.868-0.25,1.09-0.34h0.152V146.729z"/>
				<path fill="#FFFFFF" d="M447.619,127.142h-3.209v-2.951h3.209V127.142z M447.438,146.88h-2.846v-16.908h2.846V146.88z"/>
				<path fill="#FFFFFF" d="M467.69,129.972l-6.842,16.908h-2.86l-6.796-16.908h3.088l5.236,13.457l5.192-13.457H467.69z"/>
				<path fill="#FFFFFF" d="M474.472,127.142h-3.209v-2.951h3.209V127.142z M474.29,146.88h-2.846v-16.908h2.846V146.88z"/>
				<path fill="#FFFFFF" d="M492,142.006c0,1.544-0.638,2.811-1.914,3.8c-1.277,0.988-3.02,1.482-5.23,1.482
					c-1.251,0-2.398-0.148-3.443-0.446c-1.044-0.297-1.92-0.623-2.626-0.976v-3.194h0.151c0.898,0.676,1.897,1.214,2.997,1.612
					s2.154,0.598,3.163,0.598c1.252,0,2.23-0.202,2.938-0.605c0.706-0.403,1.059-1.039,1.059-1.907c0-0.666-0.191-1.171-0.574-1.514
					c-0.384-0.343-1.121-0.636-2.211-0.878c-0.403-0.091-0.931-0.197-1.581-0.318c-0.651-0.121-1.244-0.252-1.778-0.393
					c-1.484-0.395-2.536-0.972-3.156-1.733c-0.621-0.762-0.932-1.698-0.932-2.808c0-0.697,0.145-1.353,0.432-1.969
					c0.288-0.615,0.725-1.165,1.31-1.649c0.565-0.475,1.284-0.85,2.157-1.128c0.872-0.277,1.849-0.416,2.929-0.416
					c1.009,0,2.03,0.124,3.065,0.371c1.034,0.247,1.895,0.547,2.58,0.9v3.043h-0.15c-0.727-0.535-1.61-0.986-2.649-1.355
					c-1.039-0.368-2.059-0.553-3.058-0.553c-1.039,0-1.917,0.2-2.634,0.599s-1.075,0.991-1.075,1.778
					c0,0.696,0.218,1.221,0.651,1.574c0.424,0.354,1.11,0.641,2.059,0.863c0.524,0.121,1.112,0.242,1.764,0.363
					c0.65,0.121,1.193,0.231,1.627,0.332c1.322,0.303,2.341,0.823,3.058,1.56C491.643,139.786,492,140.774,492,142.006z"/>
				<path fill="#FFFFFF" d="M504.853,146.729c-0.535,0.142-1.118,0.257-1.749,0.349c-0.631,0.09-1.193,0.136-1.688,0.136
					c-1.726,0-3.037-0.464-3.936-1.393s-1.347-2.417-1.347-4.466v-8.99h-1.923v-2.393h1.923v-4.858h2.846v4.858h5.873v2.393h-5.873
					v7.704c0,0.888,0.02,1.582,0.061,2.081c0.04,0.5,0.182,0.967,0.424,1.4c0.222,0.403,0.526,0.699,0.915,0.886
					s0.981,0.28,1.778,0.28c0.465,0,0.949-0.068,1.453-0.205c0.505-0.136,0.868-0.25,1.09-0.34h0.152V146.729z"/>
				<path fill="#FFFFFF" d="M511.345,127.142h-3.209v-2.951h3.209V127.142z M511.163,146.88h-2.846v-16.908h2.846V146.88z"/>
				<path fill="#FFFFFF" d="M529.297,145.82c-0.948,0.454-1.849,0.808-2.701,1.06c-0.854,0.252-1.759,0.379-2.717,0.379
					c-1.222,0-2.342-0.18-3.361-0.538c-1.019-0.357-1.892-0.9-2.618-1.627c-0.736-0.727-1.307-1.645-1.71-2.755
					c-0.404-1.11-0.605-2.406-0.605-3.891c0-2.765,0.759-4.934,2.277-6.508s3.524-2.361,6.018-2.361
					c0.969,0,1.919,0.136,2.853,0.408s1.789,0.605,2.565,0.999v3.163h-0.15c-0.868-0.676-1.764-1.195-2.688-1.559
					c-0.923-0.363-1.824-0.545-2.701-0.545c-1.615,0-2.89,0.543-3.822,1.627c-0.934,1.085-1.4,2.677-1.4,4.775
					c0,2.039,0.456,3.605,1.37,4.7c0.913,1.096,2.197,1.643,3.853,1.643c0.574,0,1.16-0.075,1.756-0.228
					c0.595-0.15,1.13-0.348,1.604-0.59c0.414-0.212,0.803-0.437,1.166-0.674c0.363-0.236,0.65-0.441,0.863-0.613h0.15V145.82z"/>
				<path fill="#FFFFFF" d="M558.466,129.972l-6.842,16.908h-2.86l-6.796-16.908h3.088l5.236,13.457l5.192-13.457H558.466z"/>
				<path fill="#FFFFFF" d="M576.07,138.722h-12.457c0,1.039,0.156,1.944,0.469,2.717c0.313,0.771,0.742,1.405,1.287,1.899
					c0.524,0.484,1.147,0.848,1.869,1.09c0.721,0.242,1.516,0.363,2.384,0.363c1.15,0,2.309-0.229,3.474-0.688
					c1.166-0.459,1.996-0.911,2.49-1.355h0.151v3.104c-0.959,0.403-1.938,0.742-2.937,1.014c-0.999,0.273-2.049,0.409-3.148,0.409
					c-2.806,0-4.995-0.759-6.569-2.278c-1.574-1.519-2.361-3.676-2.361-6.471c0-2.765,0.754-4.96,2.263-6.584
					c1.509-1.625,3.494-2.438,5.957-2.438c2.28,0,4.038,0.666,5.274,1.998s1.854,3.225,1.854,5.676V138.722z M573.301,136.542
					c-0.011-1.494-0.387-2.649-1.128-3.467c-0.742-0.817-1.87-1.227-3.384-1.227c-1.523,0-2.737,0.449-3.64,1.348
					c-0.903,0.898-1.415,2.014-1.536,3.346H573.301z"/>
				<path fill="#FFFFFF" d="M583.26,146.88h-2.846v-23.553h2.846V146.88z"/>
				<path fill="#FFFFFF" d="M603.302,138.434c0,2.755-0.707,4.93-2.119,6.524c-1.413,1.594-3.306,2.391-5.677,2.391
					c-2.392,0-4.291-0.797-5.699-2.391c-1.407-1.595-2.111-3.77-2.111-6.524s0.704-4.932,2.111-6.531
					c1.408-1.6,3.308-2.399,5.699-2.399c2.371,0,4.264,0.8,5.677,2.399C602.595,133.502,603.302,135.679,603.302,138.434z
					 M600.364,138.434c0-2.189-0.429-3.816-1.286-4.882c-0.857-1.064-2.049-1.597-3.572-1.597c-1.544,0-2.742,0.532-3.595,1.597
					c-0.854,1.065-1.279,2.692-1.279,4.882c0,2.119,0.429,3.727,1.287,4.821c0.857,1.095,2.053,1.643,3.587,1.643
					c1.514,0,2.702-0.543,3.564-1.628C599.934,142.186,600.364,140.573,600.364,138.434z"/>
				<path fill="#FFFFFF" d="M620.208,145.82c-0.948,0.454-1.849,0.808-2.701,1.06c-0.854,0.252-1.759,0.379-2.717,0.379
					c-1.222,0-2.342-0.18-3.361-0.538c-1.019-0.357-1.892-0.9-2.618-1.627c-0.736-0.727-1.307-1.645-1.71-2.755
					c-0.404-1.11-0.605-2.406-0.605-3.891c0-2.765,0.759-4.934,2.277-6.508s3.524-2.361,6.018-2.361
					c0.969,0,1.919,0.136,2.853,0.408s1.789,0.605,2.565,0.999v3.163h-0.15c-0.868-0.676-1.764-1.195-2.688-1.559
					c-0.923-0.363-1.824-0.545-2.701-0.545c-1.615,0-2.89,0.543-3.822,1.627c-0.934,1.085-1.4,2.677-1.4,4.775
					c0,2.039,0.456,3.605,1.37,4.7c0.913,1.096,2.197,1.643,3.853,1.643c0.574,0,1.16-0.075,1.756-0.228
					c0.595-0.15,1.13-0.348,1.604-0.59c0.414-0.212,0.803-0.437,1.166-0.674c0.363-0.236,0.65-0.441,0.863-0.613h0.15V145.82z"/>
				<path fill="#FFFFFF" d="M626.914,127.142h-3.209v-2.951h3.209V127.142z M626.732,146.88h-2.846v-16.908h2.846V146.88z"/>
				<path fill="#FFFFFF" d="M641.144,146.729c-0.535,0.142-1.118,0.257-1.749,0.349c-0.631,0.09-1.193,0.136-1.688,0.136
					c-1.726,0-3.037-0.464-3.936-1.393s-1.347-2.417-1.347-4.466v-8.99h-1.923v-2.393h1.923v-4.858h2.846v4.858h5.873v2.393h-5.873
					v7.704c0,0.888,0.02,1.582,0.061,2.081c0.04,0.5,0.182,0.967,0.424,1.4c0.222,0.403,0.526,0.699,0.915,0.886
					s0.981,0.28,1.778,0.28c0.465,0,0.949-0.068,1.453-0.205c0.505-0.136,0.868-0.25,1.09-0.34h0.152V146.729z"/>
				<path fill="#FFFFFF" d="M659.049,129.972l-9.869,23.145h-3.042l3.148-7.054l-6.735-16.091h3.088l5.191,12.533l5.237-12.533
					H659.049z"/>
			</g>
			<g>
			</g>
		</g>
		<g>
			<path fill="#FFFFFF" d="M259.393,115.652l-13.32,35.515h-1.545l-5.813-18.188h-3.587v-2.546h5.948l4.738,15.038l11.05-29.819
				H259.393z"/>
			<path fill="#FFFFFF" d="M278.237,117.85h-19.669l0.824-2.198h18.845V117.85z"/>
			<path fill="#FFFFFF" d="M297.945,117.85h-19.753l-0.076-2.198h19.829V117.85z"/>
			<path fill="#FFFFFF" d="M317.653,117.85H297.9l-0.076-2.198h19.829V117.85z"/>
		</g>
	</g>
	<g>
		<g id="step12Black_7_">
			<g enable-background="new    ">
				<path fill="#FFFFFF" d="M161.795,198.147l-6.842,16.908h-2.861l-6.796-16.908h3.088l5.237,13.457l5.192-13.457H161.795z"/>
				<path fill="#FFFFFF" d="M190.733,203.219h-17.952v-2.422h17.952V203.219z M190.733,209.576h-17.952v-2.422h17.952V209.576z"/>
				<path fill="#FFFFFF" d="M223.035,215.056h-15.258v-3.164c1.059-0.908,2.121-1.816,3.186-2.725s2.057-1.811,2.975-2.709
					c1.938-1.877,3.265-3.368,3.98-4.473c0.717-1.105,1.075-2.299,1.075-3.58c0-1.171-0.386-2.086-1.158-2.747
					c-0.771-0.661-1.849-0.991-3.231-0.991c-0.918,0-1.912,0.161-2.982,0.484c-1.069,0.322-2.113,0.816-3.133,1.482h-0.151v-3.178
					c0.717-0.354,1.673-0.677,2.868-0.969c1.196-0.293,2.354-0.439,3.475-0.439c2.311,0,4.122,0.558,5.434,1.673
					s1.968,2.626,1.968,4.533c0,0.857-0.108,1.657-0.325,2.399c-0.218,0.741-0.537,1.445-0.961,2.111
					c-0.395,0.626-0.855,1.241-1.386,1.847c-0.529,0.605-1.173,1.276-1.93,2.013c-1.08,1.061-2.194,2.087-3.345,3.081
					s-2.226,1.915-3.225,2.763h12.125V215.056z"/>
				<path fill="#FFFFFF" d="M269.595,221.292h-3.466c-1.786-2.049-3.174-4.283-4.163-6.705c-0.988-2.422-1.482-5.152-1.482-8.189
					s0.494-5.768,1.482-8.189c0.989-2.422,2.377-4.656,4.163-6.705h3.466v0.151c-0.816,0.736-1.597,1.587-2.338,2.551
					c-0.742,0.964-1.431,2.086-2.066,3.368c-0.605,1.24-1.098,2.608-1.476,4.102c-0.379,1.493-0.567,3.067-0.567,4.723
					c0,1.726,0.184,3.305,0.552,4.738c0.368,1.433,0.865,2.795,1.491,4.086c0.605,1.242,1.297,2.364,2.074,3.368
					c0.776,1.004,1.554,1.854,2.33,2.551V221.292z"/>
				<path fill="#FFFFFF" d="M289.516,215.056h-15.258v-3.164c1.059-0.908,2.121-1.816,3.186-2.725s2.057-1.811,2.975-2.709
					c1.938-1.877,3.265-3.368,3.98-4.473c0.717-1.105,1.075-2.299,1.075-3.58c0-1.171-0.386-2.086-1.158-2.747
					c-0.771-0.661-1.849-0.991-3.231-0.991c-0.918,0-1.912,0.161-2.982,0.484c-1.069,0.322-2.113,0.816-3.133,1.482h-0.151v-3.178
					c0.717-0.354,1.673-0.677,2.868-0.969c1.196-0.293,2.354-0.439,3.475-0.439c2.311,0,4.122,0.558,5.434,1.673
					s1.968,2.626,1.968,4.533c0,0.857-0.108,1.657-0.325,2.399c-0.218,0.741-0.537,1.445-0.961,2.111
					c-0.395,0.626-0.855,1.241-1.386,1.847c-0.529,0.605-1.173,1.276-1.93,2.013c-1.08,1.061-2.194,2.087-3.345,3.081
					s-2.226,1.915-3.225,2.763h12.125V215.056z"/>
				<path fill="#FFFFFF" d="M298.976,215.056h-3.617v-4.314h3.617V215.056z"/>
				<path fill="#FFFFFF" d="M320.833,207.745c0,2.29-0.754,4.16-2.263,5.607c-1.509,1.448-3.357,2.172-5.548,2.172
					c-1.109,0-2.119-0.171-3.027-0.514c-0.908-0.344-1.71-0.854-2.406-1.529c-0.868-0.838-1.536-1.947-2.006-3.33
					c-0.469-1.383-0.703-3.048-0.703-4.995c0-1.998,0.214-3.769,0.643-5.313c0.429-1.543,1.113-2.916,2.051-4.117
					c0.889-1.14,2.034-2.03,3.437-2.671s3.037-0.962,4.904-0.962c0.596,0,1.095,0.025,1.499,0.076
					c0.403,0.051,0.812,0.142,1.226,0.272v2.892h-0.151c-0.282-0.152-0.709-0.296-1.279-0.432c-0.57-0.137-1.152-0.205-1.748-0.205
					c-2.17,0-3.9,0.68-5.191,2.036c-1.292,1.357-2.044,3.191-2.256,5.503c0.848-0.516,1.683-0.906,2.505-1.174
					c0.822-0.267,1.773-0.4,2.854-0.4c0.959,0,1.804,0.088,2.535,0.265s1.481,0.532,2.248,1.067c0.888,0.615,1.557,1.393,2.006,2.33
					C320.608,205.263,320.833,206.402,320.833,207.745z M317.761,207.866c0-0.939-0.139-1.716-0.416-2.332
					c-0.278-0.615-0.734-1.15-1.37-1.604c-0.464-0.323-0.979-0.535-1.544-0.637c-0.565-0.101-1.155-0.15-1.771-0.15
					c-0.857,0-1.654,0.101-2.391,0.303c-0.737,0.201-1.494,0.514-2.271,0.938c-0.02,0.223-0.035,0.438-0.045,0.644
					c-0.01,0.207-0.016,0.467-0.016,0.78c0,1.594,0.164,2.853,0.492,3.776c0.328,0.923,0.779,1.652,1.355,2.187
					c0.464,0.444,0.966,0.771,1.506,0.977c0.539,0.207,1.127,0.311,1.764,0.311c1.463,0,2.613-0.446,3.451-1.34
					C317.342,210.825,317.761,209.541,317.761,207.866z"/>
				<path fill="#FFFFFF" d="M340.723,208.714h-3.345v6.342h-2.906v-6.342H323.68v-3.482l10.913-12.715h2.785v13.775h3.345V208.714z
					 M334.472,206.292V196.12l-8.733,10.172H334.472z"/>
				<path fill="#FFFFFF" d="M370.542,195.181h-11.397v6.357h9.794v2.664h-9.794v10.854h-2.997v-22.539h14.395V195.181z"/>
				<path fill="#FFFFFF" d="M398.408,215.056h-2.846v-9.627c0-0.727-0.032-1.428-0.098-2.104c-0.066-0.677-0.205-1.217-0.416-1.62
					c-0.232-0.434-0.565-0.762-1-0.983c-0.434-0.223-1.059-0.334-1.877-0.334c-0.797,0-1.594,0.2-2.391,0.599
					c-0.798,0.398-1.595,0.905-2.393,1.521c0.031,0.232,0.056,0.503,0.076,0.811s0.03,0.613,0.03,0.916v10.822h-2.846v-9.627
					c0-0.747-0.033-1.455-0.099-2.127c-0.065-0.671-0.204-1.208-0.416-1.611c-0.232-0.435-0.565-0.76-0.999-0.977
					s-1.06-0.326-1.877-0.326c-0.777,0-1.557,0.192-2.339,0.576c-0.782,0.383-1.562,0.872-2.338,1.468v12.624h-2.846v-16.908h2.846
					v1.877c0.888-0.736,1.772-1.312,2.656-1.725c0.883-0.414,1.824-0.621,2.822-0.621c1.15,0,2.127,0.242,2.93,0.727
					c0.802,0.484,1.4,1.155,1.793,2.014c1.15-0.969,2.2-1.668,3.148-2.097c0.949-0.429,1.963-0.644,3.043-0.644
					c1.856,0,3.227,0.563,4.109,1.688c0.883,1.126,1.324,2.697,1.324,4.715V215.056z"/>
				<path fill="#FFFFFF" d="M412.426,206.397c0,3.037-0.495,5.768-1.484,8.189c-0.988,2.422-2.376,4.656-4.162,6.705h-3.467v-0.151
					c0.777-0.696,1.557-1.547,2.339-2.551s1.471-2.126,2.066-3.368c0.626-1.291,1.122-2.653,1.491-4.086
					c0.368-1.434,0.553-3.013,0.553-4.738c0-1.655-0.188-3.229-0.561-4.723s-0.868-2.861-1.483-4.102
					c-0.636-1.282-1.324-2.404-2.066-3.368c-0.741-0.964-1.521-1.814-2.339-2.551v-0.151h3.467c1.786,2.049,3.174,4.283,4.162,6.705
					C411.931,200.63,412.426,203.36,412.426,206.397z"/>
				<path fill="#FFFFFF" d="M427.017,221.292h-3.466c-1.786-2.049-3.174-4.283-4.163-6.705c-0.988-2.422-1.482-5.152-1.482-8.189
					s0.494-5.768,1.482-8.189c0.989-2.422,2.377-4.656,4.163-6.705h3.466v0.151c-0.816,0.736-1.597,1.587-2.338,2.551
					c-0.742,0.964-1.431,2.086-2.066,3.368c-0.605,1.24-1.098,2.608-1.476,4.102c-0.379,1.493-0.567,3.067-0.567,4.723
					c0,1.726,0.184,3.305,0.552,4.738c0.368,1.433,0.865,2.795,1.491,4.086c0.605,1.242,1.297,2.364,2.074,3.368
					c0.776,1.004,1.554,1.854,2.33,2.551V221.292z"/>
				<path fill="#FFFFFF" d="M447.104,208.774c0,1.947-0.76,3.566-2.278,4.858s-3.429,1.938-5.729,1.938
					c-2.441,0-4.387-0.631-5.835-1.892c-1.448-1.262-2.172-2.877-2.172-4.844c0-1.252,0.363-2.385,1.09-3.398
					c0.727-1.015,1.751-1.819,3.073-2.414v-0.092c-1.211-0.646-2.107-1.352-2.688-2.119c-0.58-0.767-0.87-1.725-0.87-2.875
					c0-1.695,0.696-3.108,2.089-4.238c1.393-1.131,3.164-1.695,5.313-1.695c2.251,0,4.047,0.539,5.389,1.619
					c1.343,1.08,2.014,2.452,2.014,4.117c0,1.02-0.318,2.021-0.953,3.005c-0.637,0.983-1.569,1.753-2.801,2.308v0.092
					c1.413,0.605,2.492,1.352,3.239,2.24C446.73,206.271,447.104,207.401,447.104,208.774z M443.985,209.062
					c0-0.929-0.204-1.673-0.613-2.232c-0.408-0.561-1.208-1.123-2.399-1.688c-0.474-0.223-0.993-0.43-1.559-0.621
					s-1.316-0.459-2.256-0.803c-0.908,0.495-1.637,1.166-2.187,2.014c-0.551,0.848-0.825,1.807-0.825,2.876
					c0,1.362,0.469,2.487,1.408,3.376c0.938,0.888,2.129,1.332,3.572,1.332c1.473,0,2.65-0.379,3.534-1.136
					C443.544,211.423,443.985,210.384,443.985,209.062z M443.516,197.77c0-1.08-0.416-1.939-1.248-2.581
					c-0.833-0.641-1.895-0.961-3.187-0.961c-1.271,0-2.313,0.303-3.126,0.908s-1.219,1.423-1.219,2.452
					c0,0.727,0.205,1.354,0.613,1.885c0.409,0.529,1.027,1.001,1.854,1.415c0.373,0.182,0.91,0.419,1.612,0.711
					c0.701,0.293,1.385,0.535,2.051,0.727c0.999-0.666,1.69-1.356,2.074-2.073C443.324,199.535,443.516,198.708,443.516,197.77z"/>
				<path fill="#FFFFFF" d="M456.397,215.056h-3.617v-4.314h3.617V215.056z"/>
				<path fill="#FFFFFF" d="M478.437,208.714h-3.345v6.342h-2.906v-6.342h-10.792v-3.482l10.913-12.715h2.785v13.775h3.345V208.714z
					 M472.186,206.292V196.12l-8.733,10.172H472.186z"/>
				<path fill="#FFFFFF" d="M497.963,207.745c0,2.29-0.754,4.16-2.263,5.607c-1.509,1.448-3.357,2.172-5.548,2.172
					c-1.109,0-2.119-0.171-3.027-0.514c-0.908-0.344-1.71-0.854-2.406-1.529c-0.868-0.838-1.536-1.947-2.006-3.33
					c-0.469-1.383-0.703-3.048-0.703-4.995c0-1.998,0.214-3.769,0.643-5.313c0.429-1.543,1.113-2.916,2.051-4.117
					c0.889-1.14,2.034-2.03,3.437-2.671s3.037-0.962,4.904-0.962c0.596,0,1.095,0.025,1.499,0.076
					c0.403,0.051,0.812,0.142,1.226,0.272v2.892h-0.151c-0.282-0.152-0.709-0.296-1.279-0.432c-0.57-0.137-1.152-0.205-1.748-0.205
					c-2.17,0-3.9,0.68-5.191,2.036c-1.292,1.357-2.044,3.191-2.256,5.503c0.848-0.516,1.683-0.906,2.505-1.174
					c0.822-0.267,1.773-0.4,2.854-0.4c0.959,0,1.804,0.088,2.535,0.265s1.481,0.532,2.248,1.067c0.888,0.615,1.557,1.393,2.006,2.33
					C497.738,205.263,497.963,206.402,497.963,207.745z M494.891,207.866c0-0.939-0.139-1.716-0.416-2.332
					c-0.278-0.615-0.734-1.15-1.37-1.604c-0.464-0.323-0.979-0.535-1.544-0.637c-0.565-0.101-1.155-0.15-1.771-0.15
					c-0.857,0-1.654,0.101-2.391,0.303c-0.737,0.201-1.494,0.514-2.271,0.938c-0.02,0.223-0.035,0.438-0.045,0.644
					c-0.01,0.207-0.016,0.467-0.016,0.78c0,1.594,0.164,2.853,0.492,3.776c0.328,0.923,0.779,1.652,1.355,2.187
					c0.464,0.444,0.966,0.771,1.506,0.977c0.539,0.207,1.127,0.311,1.764,0.311c1.463,0,2.613-0.446,3.451-1.34
					C494.472,210.825,494.891,209.541,494.891,207.866z"/>
				<path fill="#FFFFFF" d="M527.979,215.056h-3.588l-4.798-6.494l-4.829,6.494h-3.314l6.6-8.432l-6.539-8.477h3.588l4.768,6.389
					l4.783-6.389h3.33l-6.645,8.326L527.979,215.056z"/>
				<path fill="#FFFFFF" d="M556.194,215.056h-12.2v-2.301h4.692v-15.106h-4.692v-2.059c0.636,0,1.317-0.053,2.044-0.159
					c0.727-0.105,1.276-0.26,1.649-0.461c0.464-0.253,0.83-0.573,1.098-0.962c0.267-0.388,0.421-0.91,0.462-1.566h2.346v20.313
					h4.602V215.056z"/>
				<path fill="#FFFFFF" d="M577.158,203.778c0,4.047-0.633,7.017-1.899,8.908c-1.267,1.893-3.231,2.838-5.896,2.838
					c-2.704,0-4.68-0.958-5.926-2.875c-1.247-1.918-1.869-4.864-1.869-8.84c0-4.007,0.63-6.966,1.892-8.878s3.229-2.868,5.903-2.868
					c2.704,0,4.68,0.971,5.926,2.913C576.535,196.92,577.158,199.854,577.158,203.778z M573.178,210.651
					c0.354-0.818,0.593-1.779,0.719-2.884c0.126-1.105,0.189-2.435,0.189-3.989c0-1.533-0.063-2.865-0.189-3.996
					c-0.126-1.13-0.371-2.088-0.734-2.875c-0.353-0.777-0.835-1.363-1.445-1.756c-0.61-0.395-1.395-0.591-2.354-0.591
					c-0.948,0-1.733,0.196-2.354,0.591c-0.621,0.393-1.113,0.988-1.477,1.785c-0.343,0.747-0.577,1.721-0.703,2.922
					c-0.127,1.201-0.189,2.518-0.189,3.951c0,1.574,0.056,2.891,0.166,3.95c0.111,1.06,0.349,2.008,0.712,2.846
					c0.333,0.787,0.805,1.388,1.415,1.802c0.61,0.413,1.421,0.62,2.43,0.62c0.948,0,1.735-0.196,2.361-0.591
					C572.351,212.044,572.835,211.448,573.178,210.651z"/>
				<path fill="#FFFFFF" d="M588.362,193.405c0.282,0.253,0.515,0.57,0.697,0.953c0.182,0.382,0.273,0.876,0.273,1.482
					c0,0.6-0.109,1.15-0.326,1.65c-0.218,0.5-0.524,0.936-0.918,1.306c-0.441,0.412-0.961,0.717-1.558,0.913
					c-0.598,0.197-1.252,0.296-1.964,0.296c-0.729,0-1.447-0.087-2.153-0.26c-0.706-0.174-1.285-0.363-1.738-0.569v-1.845h0.133
					c0.5,0.33,1.088,0.604,1.765,0.82c0.677,0.218,1.329,0.327,1.959,0.327c0.371,0,0.765-0.062,1.183-0.186
					c0.418-0.123,0.756-0.306,1.015-0.547c0.271-0.259,0.473-0.544,0.604-0.856c0.133-0.312,0.198-0.706,0.198-1.183
					c0-0.471-0.074-0.86-0.225-1.169s-0.357-0.552-0.622-0.728c-0.265-0.183-0.586-0.308-0.962-0.376
					c-0.377-0.067-0.782-0.101-1.218-0.101h-0.794v-1.466h0.617c0.895,0,1.607-0.187,2.141-0.56c0.532-0.374,0.798-0.92,0.798-1.638
					c0-0.317-0.067-0.596-0.202-0.834c-0.136-0.238-0.324-0.434-0.565-0.586c-0.253-0.153-0.523-0.26-0.812-0.318
					s-0.615-0.088-0.979-0.088c-0.56,0-1.153,0.1-1.783,0.3c-0.629,0.2-1.224,0.482-1.782,0.848h-0.088v-1.845
					c0.417-0.206,0.975-0.396,1.672-0.569s1.372-0.26,2.025-0.26c0.642,0,1.206,0.059,1.694,0.176
					c0.488,0.118,0.93,0.307,1.323,0.565c0.424,0.282,0.744,0.623,0.962,1.023s0.327,0.868,0.327,1.403
					c0,0.729-0.258,1.366-0.772,1.91s-1.122,0.887-1.822,1.028v0.123c0.282,0.048,0.605,0.146,0.971,0.296
					S588.109,193.182,588.362,193.405z"/>
				<path fill="#FFFFFF" d="M601.008,199.732h-8.896v-1.845c0.617-0.529,1.236-1.059,1.857-1.588s1.198-1.056,1.734-1.58
					c1.129-1.094,1.903-1.963,2.32-2.607c0.418-0.645,0.627-1.34,0.627-2.087c0-0.683-0.226-1.217-0.675-1.602
					c-0.45-0.386-1.078-0.578-1.885-0.578c-0.535,0-1.114,0.094-1.738,0.282c-0.623,0.188-1.232,0.477-1.826,0.865h-0.089v-1.854
					c0.418-0.206,0.976-0.395,1.673-0.564c0.697-0.171,1.372-0.256,2.025-0.256c1.347,0,2.402,0.324,3.168,0.975
					c0.765,0.65,1.146,1.531,1.146,2.643c0,0.501-0.063,0.967-0.189,1.399s-0.313,0.843-0.561,1.23
					c-0.229,0.365-0.498,0.724-0.808,1.077c-0.309,0.353-0.684,0.744-1.125,1.174c-0.629,0.617-1.279,1.216-1.95,1.796
					c-0.671,0.579-1.297,1.116-1.88,1.61h7.069V199.732z"/>
				<path fill="#FFFFFF" d="M628.383,213.996c-0.948,0.454-1.849,0.808-2.701,1.06c-0.854,0.252-1.759,0.379-2.717,0.379
					c-1.222,0-2.342-0.18-3.361-0.538c-1.019-0.357-1.892-0.9-2.618-1.627c-0.736-0.727-1.307-1.645-1.71-2.755
					c-0.404-1.11-0.605-2.406-0.605-3.891c0-2.765,0.759-4.934,2.277-6.508s3.524-2.361,6.018-2.361
					c0.969,0,1.919,0.136,2.853,0.408s1.789,0.605,2.565,0.999v3.163h-0.15c-0.868-0.676-1.764-1.195-2.688-1.559
					c-0.923-0.363-1.824-0.545-2.701-0.545c-1.615,0-2.89,0.543-3.822,1.627c-0.934,1.085-1.4,2.677-1.4,4.775
					c0,2.039,0.456,3.605,1.37,4.7c0.913,1.096,2.197,1.643,3.853,1.643c0.574,0,1.16-0.075,1.756-0.228
					c0.595-0.15,1.13-0.348,1.604-0.59c0.414-0.212,0.803-0.437,1.166-0.674c0.363-0.236,0.65-0.441,0.863-0.613h0.15V213.996z"/>
				<path fill="#FFFFFF" d="M656.703,215.056h-2.846v-9.627c0-0.727-0.032-1.428-0.098-2.104c-0.066-0.677-0.205-1.217-0.416-1.62
					c-0.232-0.434-0.565-0.762-1-0.983c-0.434-0.223-1.059-0.334-1.877-0.334c-0.797,0-1.594,0.2-2.391,0.599
					c-0.798,0.398-1.595,0.905-2.393,1.521c0.031,0.232,0.056,0.503,0.076,0.811s0.03,0.613,0.03,0.916v10.822h-2.846v-9.627
					c0-0.747-0.033-1.455-0.099-2.127c-0.065-0.671-0.204-1.208-0.416-1.611c-0.232-0.435-0.565-0.76-0.999-0.977
					s-1.06-0.326-1.877-0.326c-0.777,0-1.557,0.192-2.339,0.576c-0.782,0.383-1.562,0.872-2.338,1.468v12.624h-2.846v-16.908h2.846
					v1.877c0.888-0.736,1.772-1.312,2.656-1.725c0.883-0.414,1.824-0.621,2.822-0.621c1.15,0,2.127,0.242,2.93,0.727
					c0.802,0.484,1.4,1.155,1.793,2.014c1.15-0.969,2.2-1.668,3.148-2.097c0.949-0.429,1.963-0.644,3.043-0.644
					c1.856,0,3.227,0.563,4.109,1.688c0.883,1.126,1.324,2.697,1.324,4.715V215.056z"/>
				<path fill="#FFFFFF" d="M683.299,191.503l-10.854,28.154h-2.618l10.808-28.154H683.299z"/>
				<path fill="#FFFFFF" d="M710.136,210.182c0,1.544-0.638,2.811-1.914,3.8c-1.277,0.988-3.02,1.482-5.23,1.482
					c-1.251,0-2.398-0.148-3.443-0.446c-1.044-0.297-1.92-0.623-2.626-0.976v-3.194h0.151c0.898,0.676,1.897,1.214,2.997,1.612
					s2.154,0.598,3.163,0.598c1.252,0,2.23-0.202,2.938-0.605c0.706-0.403,1.059-1.039,1.059-1.907c0-0.666-0.191-1.171-0.574-1.514
					c-0.384-0.343-1.121-0.636-2.211-0.878c-0.403-0.091-0.931-0.197-1.581-0.318c-0.651-0.121-1.244-0.252-1.778-0.393
					c-1.484-0.395-2.536-0.972-3.156-1.733c-0.621-0.762-0.932-1.698-0.932-2.808c0-0.697,0.145-1.353,0.432-1.969
					c0.288-0.615,0.725-1.165,1.31-1.649c0.565-0.475,1.284-0.85,2.157-1.128c0.872-0.277,1.849-0.416,2.929-0.416
					c1.009,0,2.03,0.124,3.065,0.371c1.034,0.247,1.895,0.547,2.58,0.9v3.043h-0.15c-0.727-0.535-1.61-0.986-2.649-1.355
					c-1.039-0.368-2.059-0.553-3.058-0.553c-1.039,0-1.917,0.2-2.634,0.599s-1.075,0.991-1.075,1.778
					c0,0.696,0.218,1.221,0.651,1.574c0.424,0.354,1.11,0.641,2.059,0.863c0.524,0.121,1.112,0.242,1.764,0.363
					c0.65,0.121,1.193,0.231,1.627,0.332c1.322,0.303,2.341,0.823,3.058,1.56C709.778,207.962,710.136,208.95,710.136,210.182z"/>
				<path fill="#FFFFFF" d="M721.725,199.732h-8.896v-1.845c0.617-0.529,1.236-1.059,1.857-1.588s1.198-1.056,1.734-1.58
					c1.129-1.094,1.903-1.963,2.32-2.607c0.418-0.645,0.627-1.34,0.627-2.087c0-0.683-0.226-1.217-0.675-1.602
					c-0.45-0.386-1.078-0.578-1.885-0.578c-0.535,0-1.114,0.094-1.738,0.282c-0.623,0.188-1.232,0.477-1.826,0.865h-0.089v-1.854
					c0.418-0.206,0.976-0.395,1.673-0.564c0.697-0.171,1.372-0.256,2.025-0.256c1.347,0,2.402,0.324,3.168,0.975
					c0.765,0.65,1.146,1.531,1.146,2.643c0,0.501-0.063,0.967-0.189,1.399s-0.313,0.843-0.561,1.23
					c-0.229,0.365-0.498,0.724-0.808,1.077c-0.309,0.353-0.684,0.744-1.125,1.174c-0.629,0.617-1.279,1.216-1.95,1.796
					c-0.671,0.579-1.297,1.116-1.88,1.61h7.069V199.732z"/>
				<path fill="#FFFFFF" d="M734.235,206.397c0,3.037-0.495,5.768-1.484,8.189c-0.988,2.422-2.376,4.656-4.162,6.705h-3.467v-0.151
					c0.777-0.696,1.557-1.547,2.339-2.551s1.471-2.126,2.066-3.368c0.626-1.291,1.122-2.653,1.491-4.086
					c0.368-1.434,0.553-3.013,0.553-4.738c0-1.655-0.188-3.229-0.561-4.723s-0.868-2.861-1.483-4.102
					c-0.636-1.282-1.324-2.404-2.066-3.368c-0.741-0.964-1.521-1.814-2.339-2.551v-0.151h3.467c1.786,2.049,3.174,4.283,4.162,6.705
					C733.74,200.63,734.235,203.36,734.235,206.397z"/>
			</g>
			<g>
			</g>
		</g>
		<g>
			<path fill="#FFFFFF" d="M257.393,180.827l-14.32,38.515h-1.545l-5.813-18.188h-3.587v-2.546h5.948l4.738,15.038l12.05-32.819
				H257.393z"/>
			<path fill="#FFFFFF" d="M276.237,183.024h-19.669l0.824-2.198h18.845V183.024z"/>
			<path fill="#FFFFFF" d="M295.945,183.024h-19.753l-0.076-2.198h19.829V183.024z"/>
			<path fill="#FFFFFF" d="M741.282,183.024H295.9l-0.076-2.198h445.458V183.024z"/>
		</g>
	</g>
	<g>
		<g enable-background="new    ">
			<path fill="#FFFFFF" d="M160.404,261.563l-6.842,16.908h-2.861l-6.796-16.908h3.088l5.237,13.457l5.192-13.457H160.404z"/>
			<path fill="#FFFFFF" d="M193.886,266.635h-17.952v-2.422h17.952V266.635z M193.886,272.992h-17.952v-2.422h17.952V272.992z"/>
			<path fill="#FFFFFF" d="M226.188,278.472h-15.258v-3.164c1.059-0.908,2.121-1.816,3.186-2.725s2.057-1.811,2.975-2.709
				c1.938-1.877,3.265-3.368,3.98-4.473c0.717-1.105,1.075-2.299,1.075-3.58c0-1.171-0.386-2.086-1.158-2.747
				c-0.771-0.661-1.849-0.991-3.231-0.991c-0.918,0-1.912,0.161-2.982,0.484c-1.069,0.322-2.113,0.816-3.133,1.482h-0.151v-3.178
				c0.717-0.354,1.673-0.677,2.868-0.969c1.196-0.293,2.354-0.439,3.475-0.439c2.311,0,4.122,0.558,5.434,1.673
				s1.968,2.626,1.968,4.533c0,0.857-0.108,1.657-0.325,2.399c-0.218,0.741-0.537,1.445-0.961,2.111
				c-0.395,0.626-0.855,1.241-1.386,1.847c-0.529,0.605-1.173,1.276-1.93,2.013c-1.08,1.061-2.194,2.087-3.345,3.081
				s-2.226,1.915-3.225,2.763h12.125V278.472z"/>
			<path fill="#FFFFFF" d="M235.648,278.472h-3.617v-4.314h3.617V278.472z"/>
			<path fill="#FFFFFF" d="M257.142,265.848c0,1.968-0.225,3.754-0.673,5.358c-0.449,1.604-1.128,2.972-2.036,4.102
				c-0.918,1.15-2.068,2.039-3.451,2.664c-1.383,0.626-3.007,0.939-4.874,0.939c-0.524,0-1.02-0.028-1.483-0.084
				s-0.878-0.144-1.241-0.265v-2.892h0.151c0.293,0.152,0.706,0.296,1.241,0.432c0.535,0.137,1.13,0.205,1.786,0.205
				c2.23,0,3.979-0.669,5.245-2.006c1.266-1.337,2-3.182,2.202-5.533c-0.938,0.565-1.821,0.969-2.648,1.211
				c-0.828,0.242-1.731,0.363-2.71,0.363c-0.929,0-1.769-0.09-2.521-0.271s-1.506-0.535-2.263-1.061
				c-0.888-0.615-1.557-1.397-2.006-2.346s-0.673-2.084-0.673-3.406c0-2.301,0.756-4.172,2.27-5.615s3.361-2.164,5.541-2.164
				c1.09,0,2.099,0.169,3.027,0.507c0.928,0.338,1.74,0.845,2.437,1.521c0.857,0.838,1.519,1.915,1.983,3.232
				C256.91,262.056,257.142,263.759,257.142,265.848z M254.085,265.196c0-1.563-0.162-2.82-0.484-3.769
				c-0.323-0.948-0.768-1.686-1.332-2.21c-0.475-0.454-0.984-0.779-1.529-0.977c-0.545-0.196-1.135-0.295-1.771-0.295
				c-1.453,0-2.601,0.454-3.443,1.362s-1.264,2.185-1.264,3.829c0,0.959,0.137,1.741,0.408,2.347
				c0.273,0.605,0.732,1.136,1.378,1.589c0.454,0.313,0.954,0.522,1.499,0.629c0.545,0.105,1.15,0.158,1.816,0.158
				c0.787,0,1.584-0.105,2.391-0.317c0.808-0.212,1.564-0.52,2.271-0.923c0.01-0.213,0.022-0.422,0.037-0.629
				C254.077,265.785,254.085,265.52,254.085,265.196z"/>
			<path fill="#FFFFFF" d="M276.851,265.848c0,1.968-0.225,3.754-0.673,5.358c-0.449,1.604-1.128,2.972-2.036,4.102
				c-0.918,1.15-2.068,2.039-3.451,2.664c-1.383,0.626-3.007,0.939-4.874,0.939c-0.524,0-1.02-0.028-1.483-0.084
				s-0.878-0.144-1.241-0.265v-2.892h0.151c0.293,0.152,0.706,0.296,1.241,0.432c0.535,0.137,1.13,0.205,1.786,0.205
				c2.23,0,3.979-0.669,5.245-2.006c1.266-1.337,2-3.182,2.202-5.533c-0.938,0.565-1.821,0.969-2.648,1.211
				c-0.828,0.242-1.731,0.363-2.71,0.363c-0.929,0-1.769-0.09-2.521-0.271s-1.506-0.535-2.263-1.061
				c-0.888-0.615-1.557-1.397-2.006-2.346s-0.673-2.084-0.673-3.406c0-2.301,0.756-4.172,2.27-5.615s3.361-2.164,5.541-2.164
				c1.09,0,2.099,0.169,3.027,0.507c0.928,0.338,1.74,0.845,2.437,1.521c0.857,0.838,1.519,1.915,1.983,3.232
				C276.619,262.056,276.851,263.759,276.851,265.848z M273.794,265.196c0-1.563-0.162-2.82-0.484-3.769
				c-0.323-0.948-0.768-1.686-1.332-2.21c-0.475-0.454-0.984-0.779-1.529-0.977c-0.545-0.196-1.135-0.295-1.771-0.295
				c-1.453,0-2.601,0.454-3.443,1.362s-1.264,2.185-1.264,3.829c0,0.959,0.137,1.741,0.408,2.347
				c0.273,0.605,0.732,1.136,1.378,1.589c0.454,0.313,0.954,0.522,1.499,0.629c0.545,0.105,1.15,0.158,1.816,0.158
				c0.787,0,1.584-0.105,2.391-0.317c0.808-0.212,1.564-0.52,2.271-0.923c0.01-0.213,0.022-0.422,0.037-0.629
				C273.786,265.785,273.794,265.52,273.794,265.196z"/>
			<path fill="#FFFFFF" d="M307.229,278.472h-3.588l-4.798-6.494l-4.829,6.494H290.7l6.6-8.432l-6.539-8.477h3.588l4.768,6.389
				l4.783-6.389h3.33l-6.645,8.326L307.229,278.472z"/>
			<path fill="#FFFFFF" d="M335.444,278.472h-12.2v-2.301h4.692v-15.106h-4.692v-2.059c0.636,0,1.317-0.053,2.044-0.159
				c0.727-0.105,1.276-0.26,1.649-0.461c0.464-0.253,0.83-0.573,1.098-0.962c0.267-0.388,0.421-0.91,0.462-1.566h2.346v20.313h4.602
				V278.472z"/>
			<path fill="#FFFFFF" d="M356.409,267.194c0,4.047-0.633,7.017-1.899,8.908c-1.267,1.893-3.231,2.838-5.896,2.838
				c-2.704,0-4.68-0.958-5.926-2.875c-1.247-1.918-1.869-4.864-1.869-8.84c0-4.007,0.63-6.966,1.892-8.878s3.229-2.868,5.903-2.868
				c2.704,0,4.68,0.971,5.926,2.913C355.786,260.336,356.409,263.27,356.409,267.194z M352.429,274.067
				c0.354-0.818,0.593-1.779,0.719-2.884c0.126-1.105,0.189-2.435,0.189-3.989c0-1.533-0.063-2.865-0.189-3.996
				c-0.126-1.13-0.371-2.088-0.734-2.875c-0.353-0.777-0.835-1.363-1.445-1.756c-0.61-0.395-1.395-0.591-2.354-0.591
				c-0.948,0-1.733,0.196-2.354,0.591c-0.621,0.393-1.113,0.988-1.477,1.785c-0.343,0.747-0.577,1.721-0.703,2.922
				c-0.127,1.201-0.189,2.518-0.189,3.951c0,1.574,0.056,2.891,0.166,3.95c0.111,1.06,0.349,2.008,0.712,2.846
				c0.333,0.787,0.805,1.388,1.415,1.802c0.61,0.413,1.421,0.62,2.43,0.62c0.948,0,1.735-0.196,2.361-0.591
				C351.602,275.46,352.086,274.864,352.429,274.067z"/>
			<path fill="#FFFFFF" d="M368.019,263.148h-7.113v-1.342h2.735V253h-2.735v-1.2c0.371,0,0.768-0.031,1.191-0.093
				s0.744-0.151,0.962-0.269c0.271-0.147,0.484-0.334,0.64-0.561c0.156-0.227,0.246-0.531,0.27-0.914h1.367v11.843h2.684V263.148z"
				/>
			<path fill="#FFFFFF" d="M380.241,256.574c0,2.359-0.37,4.09-1.107,5.193c-0.739,1.103-1.885,1.654-3.438,1.654
				c-1.577,0-2.729-0.559-3.455-1.677c-0.727-1.117-1.09-2.835-1.09-5.153c0-2.336,0.367-4.061,1.104-5.176
				c0.735-1.115,1.882-1.672,3.441-1.672c1.576,0,2.728,0.565,3.455,1.698C379.878,252.575,380.241,254.285,380.241,256.574z
				 M377.92,260.58c0.206-0.477,0.346-1.036,0.419-1.681s0.11-1.419,0.11-2.325c0-0.895-0.037-1.671-0.11-2.33
				c-0.073-0.658-0.216-1.218-0.428-1.677c-0.206-0.453-0.487-0.794-0.843-1.023c-0.356-0.229-0.813-0.344-1.372-0.344
				c-0.554,0-1.011,0.114-1.372,0.344c-0.362,0.229-0.649,0.576-0.86,1.041c-0.2,0.436-0.337,1.004-0.411,1.703
				c-0.073,0.7-0.11,1.469-0.11,2.304c0,0.918,0.032,1.686,0.098,2.303c0.064,0.618,0.203,1.171,0.415,1.659
				c0.193,0.459,0.469,0.81,0.824,1.051c0.356,0.241,0.828,0.361,1.417,0.361c0.553,0,1.012-0.114,1.376-0.344
				C377.438,261.393,377.72,261.045,377.92,260.58z"/>
			<path fill="#FFFFFF" d="M407.634,277.412c-0.948,0.454-1.849,0.808-2.701,1.06c-0.854,0.252-1.759,0.379-2.717,0.379
				c-1.222,0-2.342-0.18-3.361-0.538c-1.019-0.357-1.892-0.9-2.618-1.627c-0.736-0.727-1.307-1.645-1.71-2.755
				c-0.404-1.11-0.605-2.406-0.605-3.891c0-2.765,0.759-4.934,2.277-6.508s3.524-2.361,6.018-2.361c0.969,0,1.919,0.136,2.853,0.408
				s1.789,0.605,2.565,0.999v3.163h-0.15c-0.868-0.676-1.764-1.195-2.688-1.559c-0.923-0.363-1.824-0.545-2.701-0.545
				c-1.615,0-2.89,0.543-3.822,1.627c-0.934,1.085-1.4,2.677-1.4,4.775c0,2.039,0.456,3.605,1.37,4.7
				c0.913,1.096,2.197,1.643,3.853,1.643c0.574,0,1.16-0.075,1.756-0.228c0.595-0.15,1.13-0.348,1.604-0.59
				c0.414-0.212,0.803-0.437,1.166-0.674c0.363-0.236,0.65-0.441,0.863-0.613h0.15V277.412z"/>
			<path fill="#FFFFFF" d="M435.954,278.472h-2.846v-9.627c0-0.727-0.032-1.428-0.098-2.104c-0.066-0.677-0.205-1.217-0.416-1.62
				c-0.232-0.434-0.565-0.762-1-0.983c-0.434-0.223-1.059-0.334-1.877-0.334c-0.797,0-1.594,0.2-2.391,0.599
				c-0.798,0.398-1.595,0.905-2.393,1.521c0.031,0.232,0.056,0.503,0.076,0.811s0.03,0.613,0.03,0.916v10.822h-2.846v-9.627
				c0-0.747-0.033-1.455-0.099-2.127c-0.065-0.671-0.204-1.208-0.416-1.611c-0.232-0.435-0.565-0.76-0.999-0.977
				s-1.06-0.326-1.877-0.326c-0.777,0-1.557,0.192-2.339,0.576c-0.782,0.383-1.562,0.872-2.338,1.468v12.624h-2.846v-16.908h2.846
				v1.877c0.888-0.736,1.772-1.312,2.656-1.725c0.883-0.414,1.824-0.621,2.822-0.621c1.15,0,2.127,0.242,2.93,0.727
				c0.802,0.484,1.4,1.155,1.793,2.014c1.15-0.969,2.2-1.668,3.148-2.097c0.949-0.429,1.963-0.644,3.043-0.644
				c1.856,0,3.227,0.563,4.109,1.688c0.883,1.126,1.324,2.697,1.324,4.715V278.472z"/>
			<path fill="#FFFFFF" d="M462.55,254.919l-10.854,28.154h-2.618l10.808-28.154H462.55z"/>
			<path fill="#FFFFFF" d="M489.387,273.598c0,1.544-0.638,2.811-1.914,3.8c-1.277,0.988-3.02,1.482-5.23,1.482
				c-1.251,0-2.398-0.148-3.443-0.446c-1.044-0.297-1.92-0.623-2.626-0.976v-3.194h0.151c0.898,0.676,1.897,1.214,2.997,1.612
				s2.154,0.598,3.163,0.598c1.252,0,2.23-0.202,2.938-0.605c0.706-0.403,1.059-1.039,1.059-1.907c0-0.666-0.191-1.171-0.574-1.514
				c-0.384-0.343-1.121-0.636-2.211-0.878c-0.403-0.091-0.931-0.197-1.581-0.318c-0.651-0.121-1.244-0.252-1.778-0.393
				c-1.484-0.395-2.536-0.972-3.156-1.733c-0.621-0.762-0.932-1.698-0.932-2.808c0-0.697,0.145-1.353,0.432-1.969
				c0.288-0.615,0.725-1.165,1.31-1.649c0.565-0.475,1.284-0.85,2.157-1.128c0.872-0.277,1.849-0.416,2.929-0.416
				c1.009,0,2.03,0.124,3.065,0.371c1.034,0.247,1.895,0.547,2.58,0.9v3.043h-0.15c-0.727-0.535-1.61-0.986-2.649-1.355
				c-1.039-0.368-2.059-0.553-3.058-0.553c-1.039,0-1.917,0.2-2.634,0.599s-1.075,0.991-1.075,1.778
				c0,0.696,0.218,1.221,0.651,1.574c0.424,0.354,1.11,0.641,2.059,0.863c0.524,0.121,1.112,0.242,1.764,0.363
				c0.65,0.121,1.193,0.231,1.627,0.332c1.322,0.303,2.341,0.823,3.058,1.56C489.029,271.378,489.387,272.366,489.387,273.598z"/>
		</g>
	</g>
	<g>
		<g enable-background="new    ">
			<path fill="#FFFFFF" d="M160.404,322.563l-6.842,16.908h-2.861l-6.796-16.908h3.088l5.237,13.457l5.192-13.457H160.404z"/>
			<path fill="#FFFFFF" d="M193.886,327.635h-17.952v-2.422h17.952V327.635z M193.886,333.992h-17.952v-2.422h17.952V333.992z"/>
			<path fill="#FFFFFF" d="M223.796,338.412c-0.948,0.454-1.849,0.808-2.701,1.06c-0.854,0.252-1.759,0.379-2.717,0.379
				c-1.222,0-2.342-0.18-3.361-0.538c-1.019-0.357-1.892-0.9-2.618-1.627c-0.736-0.727-1.307-1.645-1.71-2.755
				c-0.404-1.11-0.605-2.406-0.605-3.891c0-2.765,0.759-4.934,2.277-6.508s3.524-2.361,6.018-2.361c0.969,0,1.919,0.136,2.853,0.408
				s1.789,0.605,2.565,0.999v3.163h-0.15c-0.868-0.676-1.764-1.195-2.688-1.559c-0.923-0.363-1.824-0.545-2.701-0.545
				c-1.615,0-2.89,0.543-3.822,1.627c-0.934,1.085-1.4,2.677-1.4,4.775c0,2.039,0.456,3.605,1.37,4.7
				c0.913,1.096,2.197,1.643,3.853,1.643c0.574,0,1.16-0.075,1.756-0.228c0.595-0.15,1.13-0.348,1.604-0.59
				c0.414-0.212,0.803-0.437,1.166-0.674c0.363-0.236,0.65-0.441,0.863-0.613h0.15V338.412z"/>
			<path fill="#FFFFFF" d="M257.202,327.635h-17.951v-2.422h17.951V327.635z M257.202,333.992h-17.951v-2.422h17.951V333.992z"/>
			<path fill="#FFFFFF" d="M291.215,333.038c0,0.879-0.204,1.746-0.613,2.604c-0.408,0.858-0.981,1.585-1.718,2.18
				c-0.808,0.646-1.748,1.15-2.823,1.514c-1.074,0.363-2.368,0.545-3.882,0.545c-1.625,0-3.086-0.15-4.383-0.453
				s-2.616-0.752-3.958-1.348v-3.754h0.212c1.141,0.948,2.457,1.68,3.951,2.195c1.493,0.514,2.896,0.771,4.207,0.771
				c1.857,0,3.303-0.348,4.337-1.045c1.034-0.695,1.552-1.624,1.552-2.785c0-0.998-0.245-1.735-0.734-2.209
				c-0.489-0.475-1.233-0.843-2.232-1.105c-0.757-0.202-1.577-0.368-2.46-0.5c-0.883-0.131-1.818-0.297-2.808-0.499
				c-1.998-0.424-3.479-1.147-4.442-2.172c-0.964-1.024-1.446-2.359-1.446-4.004c0-1.887,0.798-3.434,2.393-4.64
				c1.594-1.205,3.617-1.809,6.069-1.809c1.584,0,3.037,0.151,4.359,0.454s2.492,0.676,3.512,1.12v3.542h-0.212
				c-0.857-0.727-1.985-1.329-3.383-1.809c-1.398-0.479-2.828-0.72-4.291-0.72c-1.605,0-2.895,0.334-3.868,1s-1.46,1.523-1.46,2.572
				c0,0.939,0.242,1.676,0.727,2.211c0.484,0.534,1.337,0.943,2.558,1.226c0.646,0.142,1.564,0.313,2.755,0.515
				s2.2,0.408,3.027,0.621c1.675,0.443,2.937,1.114,3.784,2.013S291.215,331.424,291.215,333.038z"/>
			<path fill="#FFFFFF" d="M310.681,330.813c0,1.372-0.197,2.626-0.59,3.762c-0.395,1.135-0.949,2.096-1.666,2.883
				c-0.666,0.747-1.45,1.325-2.354,1.733c-0.903,0.409-1.859,0.613-2.868,0.613c-0.878,0-1.673-0.096-2.384-0.288
				c-0.712-0.191-1.436-0.489-2.172-0.893v7.084h-2.846v-23.145h2.846v1.771c0.756-0.636,1.606-1.168,2.55-1.597
				s1.95-0.644,3.021-0.644c2.038,0,3.625,0.77,4.76,2.309C310.113,325.942,310.681,328.079,310.681,330.813z M307.744,330.89
				c0-2.039-0.349-3.563-1.044-4.572c-0.697-1.009-1.767-1.514-3.209-1.514c-0.818,0-1.641,0.177-2.468,0.53
				s-1.62,0.817-2.376,1.393v9.581c0.807,0.363,1.5,0.611,2.081,0.742c0.58,0.131,1.238,0.197,1.976,0.197
				c1.584,0,2.82-0.535,3.708-1.605C307.3,334.572,307.744,332.988,307.744,330.89z"/>
			<path fill="#FFFFFF" d="M329.269,331.313h-12.457c0,1.039,0.156,1.944,0.469,2.717c0.313,0.771,0.742,1.405,1.287,1.899
				c0.524,0.484,1.147,0.848,1.869,1.09c0.721,0.242,1.516,0.363,2.384,0.363c1.15,0,2.309-0.229,3.474-0.688
				c1.166-0.459,1.996-0.911,2.49-1.355h0.151v3.104c-0.959,0.403-1.938,0.742-2.937,1.014c-0.999,0.273-2.049,0.409-3.148,0.409
				c-2.806,0-4.995-0.759-6.569-2.278c-1.574-1.519-2.361-3.676-2.361-6.471c0-2.765,0.754-4.96,2.263-6.584
				c1.509-1.625,3.494-2.438,5.957-2.438c2.28,0,4.038,0.666,5.274,1.998s1.854,3.225,1.854,5.676V331.313z M326.499,329.134
				c-0.011-1.494-0.387-2.649-1.128-3.467c-0.742-0.817-1.87-1.227-3.384-1.227c-1.523,0-2.737,0.449-3.64,1.348
				c-0.903,0.898-1.415,2.014-1.536,3.346H326.499z"/>
			<path fill="#FFFFFF" d="M347.735,331.313h-12.457c0,1.039,0.156,1.944,0.469,2.717c0.313,0.771,0.742,1.405,1.287,1.899
				c0.524,0.484,1.147,0.848,1.869,1.09c0.721,0.242,1.516,0.363,2.384,0.363c1.15,0,2.309-0.229,3.474-0.688
				c1.166-0.459,1.996-0.911,2.49-1.355h0.151v3.104c-0.959,0.403-1.938,0.742-2.937,1.014c-0.999,0.273-2.049,0.409-3.148,0.409
				c-2.806,0-4.995-0.759-6.569-2.278c-1.574-1.519-2.361-3.676-2.361-6.471c0-2.765,0.754-4.96,2.263-6.584
				c1.509-1.625,3.494-2.438,5.957-2.438c2.28,0,4.038,0.666,5.274,1.998s1.854,3.225,1.854,5.676V331.313z M344.966,329.134
				c-0.011-1.494-0.387-2.649-1.128-3.467c-0.742-0.817-1.87-1.227-3.384-1.227c-1.523,0-2.737,0.449-3.64,1.348
				c-0.903,0.898-1.415,2.014-1.536,3.346H344.966z"/>
			<path fill="#FFFFFF" d="M365.763,339.472h-2.846V337.7c-0.816,0.707-1.67,1.257-2.558,1.65s-1.852,0.59-2.892,0.59
				c-2.018,0-3.62-0.776-4.806-2.33c-1.186-1.555-1.778-3.709-1.778-6.464c0-1.433,0.204-2.71,0.613-3.829
				c0.408-1.121,0.961-2.074,1.657-2.861c0.687-0.767,1.485-1.353,2.399-1.756c0.913-0.403,1.859-0.605,2.838-0.605
				c0.888,0,1.675,0.094,2.361,0.28s1.408,0.477,2.164,0.87v-7.326h2.846V339.472z M362.917,335.31v-9.703
				c-0.767-0.343-1.453-0.58-2.059-0.711c-0.605-0.132-1.266-0.197-1.982-0.197c-1.595,0-2.836,0.555-3.724,1.665
				s-1.332,2.685-1.332,4.723c0,2.008,0.343,3.534,1.029,4.579c0.687,1.044,1.786,1.566,3.3,1.566c0.808,0,1.625-0.179,2.452-0.537
				S362.201,335.874,362.917,335.31z"/>
			<path fill="#FFFFFF" d="M396.673,331.025c0,2.755-0.707,4.93-2.119,6.524c-1.413,1.594-3.306,2.391-5.677,2.391
				c-2.392,0-4.291-0.797-5.699-2.391c-1.407-1.595-2.111-3.77-2.111-6.524s0.704-4.932,2.111-6.531
				c1.408-1.6,3.308-2.399,5.699-2.399c2.371,0,4.264,0.8,5.677,2.399C395.966,326.094,396.673,328.271,396.673,331.025z
				 M393.735,331.025c0-2.189-0.429-3.816-1.286-4.882c-0.857-1.064-2.049-1.597-3.572-1.597c-1.544,0-2.742,0.532-3.595,1.597
				c-0.854,1.065-1.279,2.692-1.279,4.882c0,2.119,0.429,3.727,1.287,4.821c0.857,1.095,2.053,1.643,3.587,1.643
				c1.514,0,2.702-0.543,3.564-1.628C393.305,334.777,393.735,333.165,393.735,331.025z"/>
			<path fill="#FFFFFF" d="M410.175,318.674h-0.151c-0.313-0.091-0.722-0.184-1.227-0.28c-0.504-0.096-0.948-0.144-1.332-0.144
				c-1.221,0-2.106,0.271-2.656,0.81c-0.55,0.54-0.824,1.517-0.824,2.93v0.574h5.131v2.393h-5.041v14.516h-2.846v-14.516h-1.922
				v-2.393h1.922v-0.56c0-2.008,0.5-3.55,1.499-4.624c0.999-1.075,2.442-1.612,4.329-1.612c0.636,0,1.208,0.03,1.718,0.091
				s0.977,0.131,1.4,0.212V318.674z"/>
			<path fill="#FFFFFF" d="M425.75,339.472h-2.846v-23.553h2.846V339.472z"/>
			<path fill="#FFFFFF" d="M434.438,319.733h-3.209v-2.951h3.209V319.733z M434.257,339.472h-2.846v-16.908h2.846V339.472z"/>
			<path fill="#FFFFFF" d="M453.602,337.55c0,2.865-0.65,4.97-1.952,6.312s-3.305,2.013-6.009,2.013
				c-0.898,0-1.774-0.063-2.627-0.188c-0.853-0.127-1.692-0.306-2.52-0.538v-2.906h0.15c0.465,0.182,1.201,0.406,2.211,0.674
				c1.009,0.268,2.018,0.401,3.027,0.401c0.969,0,1.771-0.116,2.406-0.349c0.636-0.231,1.13-0.555,1.483-0.969
				c0.354-0.393,0.605-0.867,0.757-1.422c0.151-0.556,0.227-1.176,0.227-1.862v-1.544c-0.857,0.687-1.678,1.198-2.459,1.536
				c-0.782,0.339-1.779,0.507-2.99,0.507c-2.018,0-3.62-0.729-4.806-2.187s-1.778-3.515-1.778-6.169
				c0-1.453,0.204-2.706,0.613-3.761c0.408-1.055,0.966-1.966,1.672-2.732c0.656-0.717,1.453-1.273,2.393-1.673
				c0.938-0.398,1.871-0.598,2.8-0.598c0.979,0,1.799,0.099,2.46,0.295c0.66,0.197,1.359,0.497,2.096,0.9l0.182-0.727h2.664V337.55z
				 M450.756,334.825v-9.219c-0.756-0.343-1.46-0.588-2.111-0.734c-0.65-0.146-1.299-0.219-1.945-0.219
				c-1.563,0-2.795,0.524-3.693,1.574c-0.897,1.049-1.347,2.572-1.347,4.57c0,1.897,0.333,3.336,0.999,4.314
				s1.771,1.469,3.314,1.469c0.828,0,1.658-0.159,2.49-0.478C449.296,335.786,450.061,335.359,450.756,334.825z"/>
			<path fill="#FFFFFF" d="M473.34,339.472h-2.846v-9.627c0-0.777-0.045-1.506-0.136-2.188c-0.091-0.681-0.257-1.213-0.499-1.597
				c-0.253-0.424-0.616-0.739-1.09-0.946c-0.475-0.206-1.09-0.311-1.848-0.311c-0.776,0-1.589,0.192-2.437,0.576
				c-0.848,0.383-1.66,0.872-2.437,1.468v12.624h-2.846v-23.553h2.846v8.521c0.888-0.736,1.806-1.312,2.754-1.725
				c0.949-0.414,1.923-0.621,2.922-0.621c1.826,0,3.219,0.55,4.178,1.65c0.959,1.1,1.438,2.684,1.438,4.752V339.472z"/>
			<path fill="#FFFFFF" d="M487.6,339.32c-0.535,0.142-1.118,0.257-1.749,0.349c-0.631,0.09-1.193,0.136-1.688,0.136
				c-1.726,0-3.037-0.464-3.936-1.393s-1.347-2.417-1.347-4.466v-8.99h-1.923v-2.393h1.923v-4.858h2.846v4.858h5.873v2.393h-5.873
				v7.704c0,0.888,0.02,1.582,0.061,2.081c0.04,0.5,0.182,0.967,0.424,1.4c0.222,0.403,0.526,0.699,0.915,0.886
				s0.981,0.28,1.778,0.28c0.465,0,0.949-0.068,1.453-0.205c0.505-0.136,0.868-0.25,1.09-0.34h0.152V339.32z"/>
		</g>
	</g>
	<g>
		<g>
			<circle fill="none" stroke="#FFFFFF" stroke-width="3" stroke-miterlimit="10" cx="614.897" cy="351.176" r="63.795"/>
			<g>
				
					<line fill="none" stroke="#FFFFFF" stroke-width="3" stroke-miterlimit="10" x1="616.587" y1="422.645" x2="678.692" y2="422.645"/>
				
					<line fill="none" stroke="#FFFFFF" stroke-width="3" stroke-miterlimit="10" x1="678.692" y1="422.645" x2="740.798" y2="422.645"/>
				
					<line fill="none" stroke="#FFFFFF" stroke-width="3" stroke-miterlimit="10" x1="617.587" y1="416.145" x2="617.587" y2="429.145"/>
				
					<line fill="none" stroke="#FFFFFF" stroke-width="3" stroke-miterlimit="10" x1="739.798" y1="416.145" x2="739.798" y2="429.145"/>
			</g>
		</g>
		<g>
			<circle fill="none" stroke="#FFFFFF" stroke-width="3" stroke-miterlimit="10" cx="742.224" cy="351.176" r="63.795"/>
		</g>
		<g>
			<path fill="#FFFFFF" d="M675.806,453.145h-15.258v-3.164c1.059-0.908,2.121-1.816,3.186-2.725s2.057-1.811,2.975-2.709
				c1.938-1.877,3.265-3.369,3.98-4.473c0.717-1.105,1.075-2.299,1.075-3.58c0-1.171-0.386-2.087-1.158-2.748
				c-0.771-0.66-1.849-0.991-3.231-0.991c-0.918,0-1.912,0.161-2.982,0.484c-1.069,0.323-2.113,0.817-3.133,1.483h-0.151v-3.179
				c0.717-0.353,1.673-0.676,2.868-0.969c1.196-0.292,2.354-0.438,3.475-0.438c2.311,0,4.122,0.557,5.434,1.672
				s1.968,2.627,1.968,4.533c0,0.858-0.108,1.658-0.325,2.4c-0.218,0.74-0.537,1.445-0.961,2.111
				c-0.395,0.625-0.855,1.24-1.386,1.846c-0.529,0.605-1.173,1.277-1.93,2.014c-1.08,1.06-2.194,2.086-3.345,3.08
				s-2.226,1.915-3.225,2.763h12.125V453.145z"/>
			<path fill="#FFFFFF" d="M691.169,439.34h-0.151c-0.424-0.102-0.835-0.174-1.233-0.221c-0.399-0.045-0.87-0.067-1.415-0.067
				c-0.879,0-1.727,0.194-2.543,0.583c-0.818,0.389-1.605,0.891-2.361,1.506v12.004h-2.846v-16.908h2.846v2.498
				c1.13-0.908,2.126-1.553,2.989-1.93c0.862-0.379,1.743-0.568,2.642-0.568c0.494,0,0.853,0.013,1.074,0.037
				c0.222,0.025,0.555,0.074,0.999,0.145V439.34z"/>
			<path fill="#FFFFFF" d="M701.355,453.42c0,0.8-0.115,1.531-0.345,2.192c-0.229,0.662-0.553,1.222-0.971,1.681
				c-0.388,0.436-0.846,0.773-1.372,1.012s-1.084,0.357-1.672,0.357c-0.513,0-0.976-0.057-1.391-0.168
				c-0.414-0.112-0.837-0.285-1.266-0.521v4.131h-1.659v-13.494h1.659v1.033c0.44-0.371,0.937-0.681,1.486-0.932
				c0.55-0.25,1.137-0.375,1.761-0.375c1.188,0,2.113,0.449,2.775,1.346C701.024,450.58,701.355,451.825,701.355,453.42z
				 M699.644,453.464c0-1.188-0.203-2.077-0.609-2.665s-1.029-0.883-1.871-0.883c-0.477,0-0.956,0.104-1.438,0.309
				c-0.482,0.207-0.944,0.477-1.385,0.813v5.586c0.471,0.211,0.875,0.355,1.213,0.432c0.338,0.077,0.723,0.115,1.151,0.115
				c0.924,0,1.645-0.312,2.162-0.936C699.384,455.611,699.644,454.688,699.644,453.464z"/>
		</g>
		<g>
			<path fill="none" stroke="#FFFFFF" stroke-width="3" stroke-miterlimit="10" d="M605.563,283.342
				c16.753-17.606,42.353-28.86,71.04-28.86c30.036,0,56.688,12.338,73.344,31.386"/>
			<g>
				<path fill="#FFFFFF" d="M626.848,278.304l-22.785,7.492l-2.473-3.141l12.639-20.387l1.984,2.522l-11.211,17.818l19.954-6.708
					L626.848,278.304z"/>
			</g>
		</g>
		<g>
			<path fill="none" stroke="#FFFFFF" stroke-width="3" stroke-miterlimit="10" d="M746.517,351.305
				c-16.114,16.936-40.737,27.762-68.333,27.762c-28.892,0-54.527-11.867-70.549-30.191"/>
			<g>
				<path fill="#FFFFFF" d="M726.073,356.243l21.916-7.207l2.377,3.021l-12.156,19.609l-1.908-2.425l10.783-17.14l-19.193,6.453
					L726.073,356.243z"/>
			</g>
		</g>
	</g>
</g>
</svg>
