<?xml version="1.0" encoding="utf-8"?>
<!-- Generator: Adobe Illustrator 16.0.0, SVG Export Plug-In . SVG Version: 6.00 Build 0)  -->
<!DOCTYPE svg PUBLIC "-//W3C//DTD SVG 1.1//EN" "http://www.w3.org/Graphics/SVG/1.1/DTD/svg11.dtd">
<svg version="1.1" id="Layer_3" xmlns="http://www.w3.org/2000/svg" xmlns:xlink="http://www.w3.org/1999/xlink" x="0px" y="0px"
	 width="646px" height="366px" viewBox="0 0 646 366" enable-background="new 0 0 646 366" xml:space="preserve">
<path fill="#291159" fill-opacity="0.8" stroke="#FFFFFF" stroke-width="3" stroke-miterlimit="10" d="M645.239,358.777
	c0,3.591-2.904,6.501-6.489,6.501H7.25c-3.583,0-6.489-2.91-6.489-6.501V7.221c0-3.591,2.906-6.499,6.489-6.499h631.5
	c3.585,0,6.489,2.908,6.489,6.499V358.777L645.239,358.777z"/>
<g id="step16White_1_">
	<g>
		<line fill="none" stroke="#FFFFFF" stroke-width="3" x1="64.325" y1="76.389" x2="548.513" y2="76.389"/>
		<line fill="none" stroke="#FFFFFF" stroke-width="3" x1="65.339" y1="124.155" x2="411.013" y2="124.155"/>
		<g enable-background="new    ">
			<path fill="#FFFFFF" d="M87.451,67.679h-3.89l-7.538-8.961H71.8v8.961h-2.997V45.14h6.312c1.362,0,2.498,0.089,3.406,0.266
				s1.726,0.492,2.452,0.945c0.817,0.516,1.456,1.164,1.915,1.945c0.459,0.782,0.688,1.773,0.688,2.975
				c0,1.625-0.409,2.984-1.226,4.079c-0.817,1.096-1.943,1.92-3.375,2.476L87.451,67.679z M80.443,51.483
				c0-0.646-0.114-1.219-0.34-1.718c-0.228-0.5-0.604-0.921-1.128-1.264c-0.434-0.293-0.949-0.497-1.544-0.613
				c-0.596-0.116-1.297-0.174-2.104-0.174H71.8v8.506h3.027c0.948,0,1.776-0.083,2.482-0.249c0.706-0.167,1.307-0.478,1.801-0.931
				c0.454-0.424,0.79-0.911,1.006-1.461C80.334,53.03,80.443,52.331,80.443,51.483z"/>
			<path fill="#FFFFFF" d="M103.526,59.521H91.069c0,1.039,0.156,1.944,0.469,2.717c0.313,0.771,0.742,1.405,1.287,1.899
				c0.524,0.484,1.148,0.848,1.87,1.09c0.721,0.242,1.516,0.363,2.384,0.363c1.15,0,2.309-0.229,3.474-0.688
				c1.166-0.459,1.996-0.911,2.49-1.355h0.151v3.104c-0.959,0.403-1.938,0.742-2.937,1.014c-0.999,0.273-2.049,0.409-3.148,0.409
				c-2.806,0-4.995-0.759-6.569-2.278c-1.574-1.519-2.361-3.676-2.361-6.471c0-2.765,0.754-4.96,2.263-6.584
				c1.509-1.625,3.494-2.438,5.957-2.438c2.28,0,4.039,0.666,5.275,1.998c1.236,1.332,1.854,3.225,1.854,5.676V59.521z
				 M100.756,57.341c-0.01-1.494-0.386-2.649-1.127-3.467c-0.742-0.817-1.87-1.227-3.383-1.227c-1.524,0-2.737,0.449-3.64,1.348
				c-0.903,0.898-1.416,2.014-1.537,3.346H100.756z"/>
			<path fill="#FFFFFF" d="M110.716,67.679h-2.846V44.126h2.846V67.679z"/>
			<path fill="#FFFFFF" d="M129.486,67.679h-2.831v-1.801c-0.252,0.171-0.593,0.411-1.021,0.719
				c-0.43,0.308-0.846,0.553-1.249,0.734c-0.475,0.231-1.02,0.426-1.635,0.582s-1.337,0.234-2.164,0.234
				c-1.524,0-2.816-0.504-3.875-1.514c-1.06-1.009-1.59-2.295-1.59-3.859c0-1.281,0.275-2.318,0.825-3.11
				c0.55-0.792,1.334-1.415,2.354-1.87c1.029-0.453,2.266-0.762,3.708-0.923c1.443-0.161,2.992-0.282,4.647-0.363V56.07
				c0-0.646-0.113-1.182-0.341-1.605c-0.227-0.424-0.553-0.756-0.977-0.998c-0.403-0.232-0.888-0.389-1.453-0.47
				c-0.564-0.081-1.155-0.121-1.771-0.121c-0.747,0-1.579,0.099-2.497,0.295c-0.919,0.197-1.867,0.482-2.846,0.855h-0.152v-2.892
				c0.556-0.15,1.357-0.317,2.407-0.499s2.084-0.272,3.103-0.272c1.191,0,2.228,0.099,3.111,0.295
				c0.883,0.197,1.647,0.532,2.293,1.007c0.636,0.464,1.12,1.064,1.453,1.802c0.333,0.736,0.5,1.649,0.5,2.739V67.679z
				 M126.655,63.517v-4.708c-0.868,0.051-1.89,0.126-3.065,0.228c-1.176,0.101-2.106,0.247-2.793,0.438
				c-0.816,0.232-1.478,0.593-1.982,1.082c-0.505,0.49-0.757,1.163-0.757,2.021c0,0.969,0.293,1.698,0.878,2.188
				c0.585,0.49,1.479,0.734,2.68,0.734c0.998,0,1.912-0.194,2.739-0.583C125.182,64.529,125.949,64.062,126.655,63.517z"/>
			<path fill="#FFFFFF" d="M143.745,67.528c-0.535,0.142-1.118,0.257-1.749,0.349c-0.631,0.09-1.193,0.136-1.688,0.136
				c-1.726,0-3.037-0.464-3.936-1.393s-1.347-2.417-1.347-4.466v-8.99h-1.923v-2.393h1.923v-4.858h2.846v4.858h5.873v2.393h-5.873
				v7.704c0,0.888,0.02,1.582,0.061,2.081c0.04,0.5,0.182,0.967,0.424,1.4c0.222,0.403,0.526,0.699,0.915,0.886
				s0.981,0.28,1.778,0.28c0.465,0,0.949-0.068,1.453-0.205c0.505-0.136,0.868-0.25,1.09-0.34h0.152V67.528z"/>
			<path fill="#FFFFFF" d="M150.238,47.941h-3.209V44.99h3.209V47.941z M150.057,67.679h-2.846V50.771h2.846V67.679z"/>
			<path fill="#FFFFFF" d="M170.309,50.771l-6.842,16.908h-2.86l-6.796-16.908h3.088l5.236,13.457l5.192-13.457H170.309z"/>
			<path fill="#FFFFFF" d="M187.914,59.521h-12.457c0,1.039,0.156,1.944,0.469,2.717c0.313,0.771,0.742,1.405,1.287,1.899
				c0.524,0.484,1.147,0.848,1.869,1.09c0.721,0.242,1.516,0.363,2.384,0.363c1.15,0,2.309-0.229,3.474-0.688
				c1.166-0.459,1.996-0.911,2.49-1.355h0.151v3.104c-0.959,0.403-1.938,0.742-2.937,1.014c-0.999,0.273-2.049,0.409-3.148,0.409
				c-2.806,0-4.995-0.759-6.569-2.278c-1.574-1.519-2.361-3.676-2.361-6.471c0-2.765,0.754-4.96,2.263-6.584
				c1.509-1.625,3.494-2.438,5.957-2.438c2.28,0,4.038,0.666,5.274,1.998s1.854,3.225,1.854,5.676V59.521z M185.145,57.341
				c-0.011-1.494-0.387-2.649-1.128-3.467c-0.742-0.817-1.87-1.227-3.384-1.227c-1.523,0-2.737,0.449-3.64,1.348
				c-0.903,0.898-1.415,2.014-1.536,3.346H185.145z"/>
			<path fill="#FFFFFF" d="M220.155,47.729c0.918,1.009,1.622,2.245,2.111,3.708c0.489,1.464,0.734,3.124,0.734,4.98
				s-0.25,3.52-0.749,4.987c-0.5,1.469-1.198,2.692-2.097,3.671c-0.929,1.02-2.026,1.786-3.292,2.301
				c-1.267,0.515-2.712,0.771-4.337,0.771c-1.584,0-3.025-0.262-4.321-0.787c-1.297-0.524-2.399-1.286-3.308-2.285
				s-1.607-2.225-2.097-3.678s-0.734-3.113-0.734-4.98c0-1.837,0.242-3.483,0.727-4.942c0.484-1.458,1.191-2.707,2.119-3.746
				c0.889-0.989,1.991-1.746,3.308-2.271c1.317-0.524,2.753-0.787,4.307-0.787c1.614,0,3.065,0.265,4.352,0.795
				C218.165,45.996,219.257,46.75,220.155,47.729z M219.883,56.417c0-2.927-0.656-5.185-1.968-6.773
				c-1.312-1.59-3.103-2.385-5.374-2.385c-2.29,0-4.089,0.795-5.396,2.385c-1.308,1.589-1.96,3.847-1.96,6.773
				c0,2.957,0.666,5.22,1.998,6.789s3.117,2.354,5.357,2.354s4.024-0.784,5.352-2.354C219.219,61.637,219.883,59.375,219.883,56.417
				z"/>
			<path fill="#FFFFFF" d="M238.077,53.875h-0.151c-0.424-0.101-0.835-0.174-1.233-0.22c-0.399-0.045-0.87-0.067-1.415-0.067
				c-0.879,0-1.727,0.194-2.543,0.582c-0.818,0.389-1.605,0.891-2.361,1.506v12.004h-2.846V50.771h2.846v2.498
				c1.13-0.908,2.126-1.552,2.989-1.93c0.862-0.379,1.743-0.568,2.642-0.568c0.494,0,0.853,0.014,1.074,0.038
				c0.222,0.025,0.555,0.073,0.999,0.144V53.875z"/>
			<path fill="#FFFFFF" d="M255.635,59.097c0,1.412-0.199,2.684-0.598,3.814c-0.399,1.13-0.937,2.078-1.612,2.846
				c-0.717,0.797-1.504,1.395-2.361,1.793s-1.802,0.598-2.831,0.598c-0.958,0-1.796-0.113-2.512-0.34
				c-0.717-0.228-1.424-0.532-2.119-0.916l-0.182,0.787h-2.664V44.126h2.846v8.416c0.797-0.656,1.645-1.193,2.543-1.612
				c0.897-0.418,1.906-0.628,3.027-0.628c1.998,0,3.574,0.767,4.729,2.301S255.635,56.301,255.635,59.097z M252.698,59.172
				c0-2.019-0.333-3.55-0.999-4.594c-0.666-1.045-1.74-1.567-3.225-1.567c-0.827,0-1.664,0.18-2.512,0.538s-1.635,0.819-2.361,1.385
				v9.688c0.807,0.363,1.5,0.615,2.081,0.757c0.58,0.142,1.238,0.212,1.976,0.212c1.574,0,2.808-0.517,3.7-1.552
				C252.252,63.004,252.698,61.382,252.698,59.172z"/>
			<path fill="#FFFFFF" d="M263.127,47.941h-3.209V44.99h3.209V47.941z M262.945,67.679H260.1V50.771h2.846V67.679z"/>
			<path fill="#FFFFFF" d="M277.357,67.528c-0.535,0.142-1.118,0.257-1.749,0.349c-0.631,0.09-1.193,0.136-1.688,0.136
				c-1.726,0-3.037-0.464-3.936-1.393s-1.347-2.417-1.347-4.466v-8.99h-1.923v-2.393h1.923v-4.858h2.846v4.858h5.873v2.393h-5.873
				v7.704c0,0.888,0.02,1.582,0.061,2.081c0.04,0.5,0.182,0.967,0.424,1.4c0.222,0.403,0.526,0.699,0.915,0.886
				s0.981,0.28,1.778,0.28c0.465,0,0.949-0.068,1.453-0.205c0.505-0.136,0.868-0.25,1.09-0.34h0.152V67.528z"/>
			<path fill="#FFFFFF" d="M293.932,67.679h-2.831v-1.801c-0.252,0.171-0.593,0.411-1.021,0.719
				c-0.43,0.308-0.846,0.553-1.249,0.734c-0.475,0.231-1.02,0.426-1.635,0.582s-1.337,0.234-2.164,0.234
				c-1.524,0-2.816-0.504-3.875-1.514c-1.061-1.009-1.59-2.295-1.59-3.859c0-1.281,0.274-2.318,0.825-3.11
				c0.55-0.792,1.334-1.415,2.354-1.87c1.029-0.453,2.266-0.762,3.708-0.923c1.443-0.161,2.992-0.282,4.647-0.363V56.07
				c0-0.646-0.113-1.182-0.341-1.605c-0.227-0.424-0.553-0.756-0.977-0.998c-0.403-0.232-0.888-0.389-1.453-0.47
				c-0.564-0.081-1.155-0.121-1.771-0.121c-0.747,0-1.579,0.099-2.497,0.295c-0.919,0.197-1.867,0.482-2.846,0.855h-0.152v-2.892
				c0.556-0.15,1.357-0.317,2.407-0.499s2.084-0.272,3.103-0.272c1.191,0,2.228,0.099,3.111,0.295
				c0.883,0.197,1.647,0.532,2.293,1.007c0.636,0.464,1.12,1.064,1.453,1.802c0.333,0.736,0.5,1.649,0.5,2.739V67.679z
				 M291.101,63.517v-4.708c-0.868,0.051-1.89,0.126-3.065,0.228c-1.176,0.101-2.106,0.247-2.793,0.438
				c-0.816,0.232-1.478,0.593-1.982,1.082c-0.505,0.49-0.757,1.163-0.757,2.021c0,0.969,0.293,1.698,0.878,2.188
				c0.585,0.49,1.479,0.734,2.68,0.734c0.998,0,1.912-0.194,2.739-0.583C289.627,64.529,290.395,64.062,291.101,63.517z"/>
			<path fill="#FFFFFF" d="M302.286,67.679h-2.846V44.126h2.846V67.679z"/>
			<path fill="#FFFFFF" d="M336.813,45.14l-8.204,22.539h-3.996l-8.204-22.539h3.209l7.069,19.83l7.068-19.83H336.813z"/>
			<path fill="#FFFFFF" d="M352.646,59.521h-12.457c0,1.039,0.156,1.944,0.469,2.717c0.313,0.771,0.742,1.405,1.287,1.899
				c0.524,0.484,1.147,0.848,1.869,1.09c0.721,0.242,1.516,0.363,2.384,0.363c1.15,0,2.309-0.229,3.474-0.688
				c1.166-0.459,1.996-0.911,2.49-1.355h0.151v3.104c-0.959,0.403-1.938,0.742-2.937,1.014c-0.999,0.273-2.049,0.409-3.148,0.409
				c-2.806,0-4.995-0.759-6.569-2.278c-1.574-1.519-2.361-3.676-2.361-6.471c0-2.765,0.754-4.96,2.263-6.584
				c1.509-1.625,3.494-2.438,5.957-2.438c2.28,0,4.038,0.666,5.274,1.998s1.854,3.225,1.854,5.676V59.521z M349.877,57.341
				c-0.011-1.494-0.387-2.649-1.128-3.467c-0.742-0.817-1.87-1.227-3.384-1.227c-1.523,0-2.737,0.449-3.64,1.348
				c-0.903,0.898-1.415,2.014-1.536,3.346H349.877z"/>
			<path fill="#FFFFFF" d="M359.836,67.679h-2.846V44.126h2.846V67.679z"/>
			<path fill="#FFFFFF" d="M379.878,59.233c0,2.755-0.707,4.93-2.119,6.524c-1.413,1.594-3.306,2.391-5.677,2.391
				c-2.392,0-4.291-0.797-5.699-2.391c-1.407-1.595-2.111-3.77-2.111-6.524s0.704-4.932,2.111-6.531
				c1.408-1.6,3.308-2.399,5.699-2.399c2.371,0,4.264,0.8,5.677,2.399C379.171,54.301,379.878,56.478,379.878,59.233z
				 M376.94,59.233c0-2.189-0.429-3.816-1.286-4.882c-0.857-1.064-2.049-1.597-3.572-1.597c-1.544,0-2.742,0.532-3.595,1.597
				c-0.854,1.065-1.279,2.692-1.279,4.882c0,2.119,0.429,3.727,1.287,4.821c0.857,1.095,2.053,1.643,3.587,1.643
				c1.514,0,2.702-0.543,3.564-1.628C376.51,62.985,376.94,61.373,376.94,59.233z"/>
			<path fill="#FFFFFF" d="M396.785,66.62c-0.948,0.454-1.849,0.808-2.701,1.06c-0.854,0.252-1.759,0.379-2.717,0.379
				c-1.222,0-2.342-0.18-3.361-0.538c-1.019-0.357-1.892-0.9-2.618-1.627c-0.736-0.727-1.307-1.645-1.71-2.755
				c-0.404-1.11-0.605-2.406-0.605-3.891c0-2.765,0.759-4.934,2.277-6.508s3.524-2.361,6.018-2.361c0.969,0,1.919,0.136,2.853,0.408
				s1.789,0.605,2.565,0.999v3.163h-0.15c-0.868-0.676-1.764-1.195-2.688-1.559c-0.923-0.363-1.824-0.545-2.701-0.545
				c-1.615,0-2.89,0.543-3.822,1.627c-0.934,1.085-1.4,2.677-1.4,4.775c0,2.039,0.456,3.605,1.37,4.7
				c0.913,1.096,2.197,1.643,3.853,1.643c0.574,0,1.16-0.075,1.756-0.228c0.595-0.15,1.13-0.348,1.604-0.59
				c0.414-0.212,0.803-0.437,1.166-0.674c0.363-0.236,0.65-0.441,0.863-0.613h0.15V66.62z"/>
			<path fill="#FFFFFF" d="M403.49,47.941h-3.209V44.99h3.209V47.941z M403.309,67.679h-2.846V50.771h2.846V67.679z"/>
			<path fill="#FFFFFF" d="M417.72,67.528c-0.535,0.142-1.118,0.257-1.749,0.349c-0.631,0.09-1.193,0.136-1.688,0.136
				c-1.726,0-3.037-0.464-3.936-1.393s-1.347-2.417-1.347-4.466v-8.99h-1.923v-2.393h1.923v-4.858h2.846v4.858h5.873v2.393h-5.873
				v7.704c0,0.888,0.02,1.582,0.061,2.081c0.04,0.5,0.182,0.967,0.424,1.4c0.222,0.403,0.526,0.699,0.915,0.886
				s0.981,0.28,1.778,0.28c0.465,0,0.949-0.068,1.453-0.205c0.505-0.136,0.868-0.25,1.09-0.34h0.152V67.528z"/>
			<path fill="#FFFFFF" d="M435.625,50.771l-9.869,23.145h-3.042l3.148-7.054l-6.735-16.091h3.088l5.191,12.533l5.237-12.533
				H435.625z"/>
			<path fill="#FFFFFF" d="M464.658,59.233c0,2.755-0.707,4.93-2.119,6.524c-1.413,1.594-3.306,2.391-5.677,2.391
				c-2.392,0-4.291-0.797-5.699-2.391c-1.407-1.595-2.111-3.77-2.111-6.524s0.704-4.932,2.111-6.531
				c1.408-1.6,3.308-2.399,5.699-2.399c2.371,0,4.264,0.8,5.677,2.399C463.951,54.301,464.658,56.478,464.658,59.233z
				 M461.721,59.233c0-2.189-0.429-3.816-1.286-4.882c-0.857-1.064-2.049-1.597-3.572-1.597c-1.544,0-2.742,0.532-3.595,1.597
				c-0.854,1.065-1.279,2.692-1.279,4.882c0,2.119,0.429,3.727,1.287,4.821c0.857,1.095,2.053,1.643,3.587,1.643
				c1.514,0,2.702-0.543,3.564-1.628C461.29,62.985,461.721,61.373,461.721,59.233z"/>
			<path fill="#FFFFFF" d="M478.16,46.881h-0.151c-0.313-0.091-0.722-0.184-1.227-0.28c-0.504-0.096-0.948-0.144-1.332-0.144
				c-1.221,0-2.106,0.271-2.656,0.81c-0.55,0.54-0.824,1.517-0.824,2.93v0.574h5.131v2.393h-5.041v14.516h-2.846V53.164h-1.922
				v-2.393h1.922v-0.56c0-2.008,0.5-3.55,1.499-4.624c0.999-1.075,2.442-1.612,4.329-1.612c0.636,0,1.208,0.03,1.718,0.091
				s0.977,0.131,1.4,0.212V46.881z"/>
			<path fill="#FFFFFF" d="M499.64,67.528c-0.535,0.142-1.118,0.257-1.749,0.349c-0.631,0.09-1.193,0.136-1.688,0.136
				c-1.726,0-3.037-0.464-3.936-1.393s-1.347-2.417-1.347-4.466v-8.99h-1.923v-2.393h1.923v-4.858h2.846v4.858h5.873v2.393h-5.873
				v7.704c0,0.888,0.02,1.582,0.061,2.081c0.04,0.5,0.182,0.967,0.424,1.4c0.222,0.403,0.526,0.699,0.915,0.886
				s0.981,0.28,1.778,0.28c0.465,0,0.949-0.068,1.453-0.205c0.505-0.136,0.868-0.25,1.09-0.34h0.152V67.528z"/>
			<path fill="#FFFFFF" d="M524.343,50.771l-4.405,16.908h-2.633l-4.345-13.033l-4.313,13.033h-2.619l-4.45-16.908h2.967
				l3.103,13.094l4.224-13.094h2.347l4.328,13.094l2.938-13.094H524.343z"/>
			<path fill="#FFFFFF" d="M542.855,59.233c0,2.755-0.707,4.93-2.119,6.524c-1.413,1.594-3.306,2.391-5.677,2.391
				c-2.392,0-4.291-0.797-5.699-2.391c-1.407-1.595-2.111-3.77-2.111-6.524s0.704-4.932,2.111-6.531
				c1.408-1.6,3.308-2.399,5.699-2.399c2.371,0,4.264,0.8,5.677,2.399C542.148,54.301,542.855,56.478,542.855,59.233z
				 M539.918,59.233c0-2.189-0.429-3.816-1.286-4.882c-0.857-1.064-2.049-1.597-3.572-1.597c-1.544,0-2.742,0.532-3.595,1.597
				c-0.854,1.065-1.279,2.692-1.279,4.882c0,2.119,0.429,3.727,1.287,4.821c0.857,1.095,2.053,1.643,3.587,1.643
				c1.514,0,2.702-0.543,3.564-1.628C539.487,62.985,539.918,61.373,539.918,59.233z"/>
			<path fill="#FFFFFF" d="M85.181,110.246c0,0.879-0.204,1.746-0.613,2.604c-0.408,0.858-0.981,1.585-1.718,2.18
				c-0.808,0.646-1.748,1.15-2.823,1.514c-1.074,0.363-2.369,0.545-3.882,0.545c-1.625,0-3.085-0.15-4.382-0.453
				c-1.296-0.303-2.616-0.752-3.958-1.348v-3.754h0.212c1.14,0.948,2.457,1.68,3.951,2.195c1.493,0.514,2.896,0.771,4.208,0.771
				c1.856,0,3.302-0.348,4.336-1.045c1.035-0.695,1.552-1.624,1.552-2.785c0-0.998-0.245-1.735-0.734-2.209
				c-0.489-0.475-1.233-0.843-2.232-1.105c-0.757-0.202-1.577-0.368-2.46-0.5c-0.883-0.131-1.819-0.297-2.808-0.499
				c-1.998-0.424-3.479-1.147-4.442-2.172c-0.964-1.024-1.446-2.359-1.446-4.004c0-1.887,0.797-3.434,2.392-4.64
				c1.594-1.205,3.618-1.809,6.07-1.809c1.584,0,3.037,0.151,4.359,0.454c1.322,0.303,2.492,0.676,3.512,1.12v3.542h-0.212
				c-0.858-0.727-1.985-1.329-3.383-1.809c-1.398-0.479-2.829-0.72-4.292-0.72c-1.604,0-2.894,0.334-3.868,1
				c-0.974,0.666-1.46,1.523-1.46,2.572c0,0.939,0.242,1.676,0.727,2.211c0.484,0.534,1.337,0.943,2.558,1.226
				c0.646,0.142,1.564,0.313,2.755,0.515c1.19,0.202,2.2,0.408,3.027,0.621c1.675,0.443,2.937,1.114,3.784,2.013
				S85.181,108.631,85.181,110.246z"/>
			<path fill="#FFFFFF" d="M102.27,115.62c-0.949,0.454-1.849,0.808-2.702,1.06c-0.853,0.252-1.759,0.379-2.717,0.379
				c-1.221,0-2.341-0.18-3.36-0.538c-1.02-0.357-1.892-0.9-2.619-1.627c-0.737-0.727-1.307-1.645-1.71-2.755
				c-0.404-1.11-0.605-2.406-0.605-3.891c0-2.765,0.759-4.934,2.278-6.508c1.519-1.574,3.524-2.361,6.017-2.361
				c0.969,0,1.92,0.136,2.853,0.408c0.934,0.272,1.789,0.605,2.566,0.999v3.163h-0.151c-0.868-0.676-1.763-1.195-2.687-1.559
				c-0.923-0.363-1.824-0.545-2.702-0.545c-1.615,0-2.889,0.543-3.822,1.627c-0.934,1.085-1.4,2.677-1.4,4.775
				c0,2.039,0.457,3.605,1.37,4.7c0.913,1.096,2.197,1.643,3.852,1.643c0.575,0,1.16-0.075,1.756-0.228
				c0.595-0.15,1.13-0.348,1.604-0.59c0.414-0.212,0.802-0.437,1.166-0.674c0.363-0.236,0.651-0.441,0.863-0.613h0.151V115.62z"/>
			<path fill="#FFFFFF" d="M120.055,116.679h-2.846v-9.627c0-0.777-0.045-1.506-0.135-2.188c-0.092-0.681-0.258-1.213-0.5-1.597
				c-0.252-0.424-0.615-0.739-1.09-0.946c-0.475-0.206-1.09-0.311-1.847-0.311c-0.777,0-1.589,0.192-2.437,0.576
				c-0.848,0.383-1.66,0.872-2.437,1.468v12.624h-2.846V93.126h2.846v8.521c0.888-0.736,1.806-1.312,2.755-1.725
				c0.948-0.414,1.922-0.621,2.921-0.621c1.826,0,3.218,0.55,4.177,1.65c0.959,1.1,1.438,2.684,1.438,4.752V116.679z"/>
			<path fill="#FFFFFF" d="M146.651,99.771l-4.405,16.908h-2.633l-4.345-13.033l-4.313,13.033h-2.619l-4.45-16.908h2.967
				l3.103,13.094l4.224-13.094h2.347l4.328,13.094l2.938-13.094H146.651z"/>
			<path fill="#FFFFFF" d="M163.59,116.679h-2.831v-1.801c-0.252,0.171-0.593,0.411-1.021,0.719
				c-0.43,0.308-0.846,0.553-1.249,0.734c-0.475,0.231-1.02,0.426-1.635,0.582s-1.337,0.234-2.164,0.234
				c-1.524,0-2.816-0.504-3.875-1.514c-1.061-1.009-1.59-2.295-1.59-3.859c0-1.281,0.274-2.318,0.825-3.11
				c0.55-0.792,1.334-1.415,2.354-1.87c1.029-0.453,2.266-0.762,3.708-0.923c1.443-0.161,2.992-0.282,4.647-0.363v-0.438
				c0-0.646-0.113-1.182-0.341-1.605c-0.227-0.424-0.553-0.756-0.977-0.998c-0.403-0.232-0.888-0.389-1.453-0.47
				c-0.564-0.081-1.155-0.121-1.771-0.121c-0.747,0-1.579,0.099-2.497,0.295c-0.919,0.197-1.867,0.482-2.846,0.855h-0.152v-2.892
				c0.556-0.15,1.357-0.317,2.407-0.499s2.084-0.272,3.103-0.272c1.191,0,2.228,0.099,3.111,0.295
				c0.883,0.197,1.647,0.532,2.293,1.007c0.636,0.464,1.12,1.064,1.453,1.802c0.333,0.736,0.5,1.649,0.5,2.739V116.679z
				 M160.759,112.517v-4.708c-0.868,0.051-1.89,0.126-3.065,0.228c-1.176,0.101-2.106,0.247-2.793,0.438
				c-0.816,0.232-1.478,0.593-1.982,1.082c-0.505,0.49-0.757,1.163-0.757,2.021c0,0.969,0.293,1.698,0.878,2.188
				c0.585,0.49,1.479,0.734,2.68,0.734c0.998,0,1.912-0.194,2.739-0.583C159.285,113.529,160.053,113.062,160.759,112.517z"/>
			<path fill="#FFFFFF" d="M179.618,102.875h-0.151c-0.424-0.101-0.835-0.174-1.233-0.22c-0.399-0.045-0.87-0.067-1.415-0.067
				c-0.879,0-1.727,0.194-2.543,0.582c-0.818,0.389-1.605,0.891-2.361,1.506v12.004h-2.846V99.771h2.846v2.498
				c1.13-0.908,2.126-1.552,2.989-1.93c0.862-0.379,1.743-0.568,2.642-0.568c0.494,0,0.853,0.014,1.074,0.038
				c0.222,0.025,0.555,0.073,0.999,0.144V102.875z"/>
			<path fill="#FFFFFF" d="M194.559,116.679h-13.652v-2.104l9.854-12.428h-9.643v-2.377h13.185v2.029l-9.899,12.473h10.156V116.679z
				"/>
			<path fill="#FFFFFF" d="M210.664,111.805c0,1.544-0.638,2.811-1.914,3.8c-1.277,0.988-3.02,1.482-5.23,1.482
				c-1.251,0-2.398-0.148-3.443-0.446c-1.044-0.297-1.92-0.623-2.626-0.976v-3.194h0.151c0.898,0.676,1.897,1.214,2.997,1.612
				s2.154,0.598,3.163,0.598c1.252,0,2.23-0.202,2.938-0.605c0.706-0.403,1.059-1.039,1.059-1.907c0-0.666-0.191-1.171-0.574-1.514
				c-0.384-0.343-1.121-0.636-2.211-0.878c-0.403-0.091-0.931-0.197-1.581-0.318c-0.651-0.121-1.244-0.252-1.778-0.393
				c-1.484-0.395-2.536-0.972-3.156-1.733c-0.621-0.762-0.932-1.698-0.932-2.808c0-0.697,0.145-1.353,0.432-1.969
				c0.288-0.615,0.725-1.165,1.31-1.649c0.565-0.475,1.284-0.85,2.157-1.128c0.872-0.277,1.849-0.416,2.929-0.416
				c1.009,0,2.03,0.124,3.065,0.371c1.034,0.247,1.895,0.547,2.58,0.9v3.043h-0.15c-0.727-0.535-1.61-0.986-2.649-1.355
				c-1.039-0.368-2.059-0.553-3.058-0.553c-1.039,0-1.917,0.2-2.634,0.599s-1.075,0.991-1.075,1.778
				c0,0.696,0.218,1.221,0.651,1.574c0.424,0.354,1.11,0.641,2.059,0.863c0.524,0.121,1.112,0.242,1.764,0.363
				c0.65,0.121,1.193,0.231,1.627,0.332c1.322,0.303,2.341,0.823,3.058,1.56C210.307,109.585,210.664,110.574,210.664,111.805z"/>
			<path fill="#FFFFFF" d="M227.238,115.62c-0.948,0.454-1.849,0.808-2.701,1.06c-0.854,0.252-1.759,0.379-2.717,0.379
				c-1.222,0-2.342-0.18-3.361-0.538c-1.019-0.357-1.892-0.9-2.618-1.627c-0.736-0.727-1.307-1.645-1.71-2.755
				c-0.404-1.11-0.605-2.406-0.605-3.891c0-2.765,0.759-4.934,2.277-6.508s3.524-2.361,6.018-2.361c0.969,0,1.919,0.136,2.853,0.408
				s1.789,0.605,2.565,0.999v3.163h-0.15c-0.868-0.676-1.764-1.195-2.688-1.559c-0.923-0.363-1.824-0.545-2.701-0.545
				c-1.615,0-2.89,0.543-3.822,1.627c-0.934,1.085-1.4,2.677-1.4,4.775c0,2.039,0.456,3.605,1.37,4.7
				c0.913,1.096,2.197,1.643,3.853,1.643c0.574,0,1.16-0.075,1.756-0.228c0.595-0.15,1.13-0.348,1.604-0.59
				c0.414-0.212,0.803-0.437,1.166-0.674c0.363-0.236,0.65-0.441,0.863-0.613h0.15V115.62z"/>
			<path fill="#FFFFFF" d="M245.023,116.679h-2.846v-9.627c0-0.777-0.045-1.506-0.136-2.188c-0.091-0.681-0.257-1.213-0.499-1.597
				c-0.253-0.424-0.616-0.739-1.09-0.946c-0.475-0.206-1.09-0.311-1.848-0.311c-0.776,0-1.589,0.192-2.437,0.576
				c-0.848,0.383-1.66,0.872-2.437,1.468v12.624h-2.846V93.126h2.846v8.521c0.888-0.736,1.806-1.312,2.754-1.725
				c0.949-0.414,1.923-0.621,2.922-0.621c1.826,0,3.219,0.55,4.178,1.65c0.959,1.1,1.438,2.684,1.438,4.752V116.679z"/>
			<path fill="#FFFFFF" d="M253.561,96.941h-3.209V93.99h3.209V96.941z M253.379,116.679h-2.846V99.771h2.846V116.679z"/>
			<path fill="#FFFFFF" d="M261.887,116.679h-2.846V93.126h2.846V116.679z"/>
			<path fill="#FFFFFF" d="M281.23,116.679h-2.846v-1.771c-0.816,0.707-1.67,1.257-2.558,1.65s-1.852,0.59-2.892,0.59
				c-2.018,0-3.62-0.776-4.806-2.33c-1.186-1.555-1.778-3.709-1.778-6.464c0-1.433,0.204-2.71,0.613-3.829
				c0.408-1.121,0.961-2.074,1.657-2.861c0.687-0.767,1.485-1.353,2.399-1.756c0.913-0.403,1.859-0.605,2.838-0.605
				c0.888,0,1.675,0.094,2.361,0.28s1.408,0.477,2.164,0.87v-7.326h2.846V116.679z M278.385,112.517v-9.703
				c-0.767-0.343-1.453-0.58-2.059-0.711c-0.605-0.132-1.266-0.197-1.982-0.197c-1.595,0-2.836,0.555-3.724,1.665
				s-1.332,2.685-1.332,4.723c0,2.008,0.343,3.534,1.029,4.579c0.687,1.044,1.786,1.566,3.3,1.566c0.808,0,1.625-0.179,2.452-0.537
				S277.669,113.082,278.385,112.517z"/>
			<path fill="#FFFFFF" d="M312.7,100.953c0,0.998-0.174,1.925-0.522,2.777c-0.348,0.853-0.835,1.592-1.461,2.217
				c-0.776,0.777-1.695,1.36-2.754,1.749c-1.061,0.389-2.397,0.583-4.012,0.583h-2.997v8.4h-2.997V94.14h6.115
				c1.353,0,2.498,0.114,3.436,0.341c0.939,0.228,1.771,0.583,2.498,1.067c0.857,0.575,1.521,1.292,1.99,2.149
				C312.466,98.555,312.7,99.64,312.7,100.953z M309.582,101.028c0-0.777-0.137-1.453-0.408-2.028
				c-0.273-0.575-0.687-1.045-1.242-1.408c-0.484-0.313-1.036-0.537-1.657-0.673c-0.62-0.137-1.405-0.204-2.354-0.204h-2.967v9.006
				h2.528c1.211,0,2.194-0.108,2.951-0.325s1.372-0.563,1.847-1.037c0.475-0.484,0.81-0.994,1.007-1.528
				C309.483,102.294,309.582,101.694,309.582,101.028z"/>
			<path fill="#FFFFFF" d="M326.975,102.875h-0.151c-0.424-0.101-0.835-0.174-1.233-0.22c-0.399-0.045-0.87-0.067-1.415-0.067
				c-0.879,0-1.727,0.194-2.543,0.582c-0.818,0.389-1.605,0.891-2.361,1.506v12.004h-2.846V99.771h2.846v2.498
				c1.13-0.908,2.126-1.552,2.989-1.93c0.862-0.379,1.743-0.568,2.642-0.568c0.494,0,0.853,0.014,1.074,0.038
				c0.222,0.025,0.555,0.073,0.999,0.144V102.875z"/>
			<path fill="#FFFFFF" d="M344.064,108.233c0,2.755-0.707,4.93-2.119,6.524c-1.413,1.594-3.306,2.391-5.677,2.391
				c-2.392,0-4.291-0.797-5.699-2.391c-1.407-1.595-2.111-3.77-2.111-6.524s0.704-4.932,2.111-6.531
				c1.408-1.6,3.308-2.399,5.699-2.399c2.371,0,4.264,0.8,5.677,2.399C343.357,103.301,344.064,105.478,344.064,108.233z
				 M341.127,108.233c0-2.189-0.429-3.816-1.286-4.882c-0.857-1.064-2.049-1.597-3.572-1.597c-1.544,0-2.742,0.532-3.595,1.597
				c-0.854,1.065-1.279,2.692-1.279,4.882c0,2.119,0.429,3.727,1.287,4.821c0.857,1.095,2.053,1.643,3.587,1.643
				c1.514,0,2.702-0.543,3.564-1.628C340.696,111.985,341.127,110.373,341.127,108.233z"/>
			<path fill="#FFFFFF" d="M357.248,116.528c-0.535,0.142-1.118,0.257-1.749,0.349c-0.631,0.09-1.193,0.136-1.688,0.136
				c-1.726,0-3.037-0.464-3.936-1.393s-1.347-2.417-1.347-4.466v-8.99h-1.923v-2.393h1.923v-4.858h2.846v4.858h5.873v2.393h-5.873
				v7.704c0,0.888,0.02,1.582,0.061,2.081c0.04,0.5,0.182,0.967,0.424,1.4c0.222,0.403,0.526,0.699,0.915,0.886
				s0.981,0.28,1.778,0.28c0.465,0,0.949-0.068,1.453-0.205c0.505-0.136,0.868-0.25,1.09-0.34h0.152V116.528z"/>
			<path fill="#FFFFFF" d="M375.095,108.233c0,2.755-0.707,4.93-2.119,6.524c-1.413,1.594-3.306,2.391-5.677,2.391
				c-2.392,0-4.291-0.797-5.699-2.391c-1.407-1.595-2.111-3.77-2.111-6.524s0.704-4.932,2.111-6.531
				c1.408-1.6,3.308-2.399,5.699-2.399c2.371,0,4.264,0.8,5.677,2.399C374.388,103.301,375.095,105.478,375.095,108.233z
				 M372.157,108.233c0-2.189-0.429-3.816-1.286-4.882c-0.857-1.064-2.049-1.597-3.572-1.597c-1.544,0-2.742,0.532-3.595,1.597
				c-0.854,1.065-1.279,2.692-1.279,4.882c0,2.119,0.429,3.727,1.287,4.821c0.857,1.095,2.053,1.643,3.587,1.643
				c1.514,0,2.702-0.543,3.564-1.628C371.727,111.985,372.157,110.373,372.157,108.233z"/>
			<path fill="#FFFFFF" d="M393.637,116.679h-2.846v-9.627c0-0.777-0.045-1.506-0.136-2.188c-0.091-0.681-0.257-1.213-0.499-1.597
				c-0.253-0.424-0.616-0.739-1.09-0.946c-0.475-0.206-1.09-0.311-1.848-0.311c-0.776,0-1.589,0.192-2.437,0.576
				c-0.848,0.383-1.66,0.872-2.437,1.468v12.624H379.5V99.771h2.846v1.877c0.888-0.736,1.806-1.312,2.754-1.725
				c0.949-0.414,1.923-0.621,2.922-0.621c1.826,0,3.219,0.55,4.178,1.65c0.959,1.1,1.438,2.684,1.438,4.752V116.679z"/>
			<path fill="#FFFFFF" d="M411.195,111.805c0,1.544-0.638,2.811-1.914,3.8c-1.277,0.988-3.02,1.482-5.23,1.482
				c-1.251,0-2.398-0.148-3.443-0.446c-1.044-0.297-1.92-0.623-2.626-0.976v-3.194h0.151c0.898,0.676,1.897,1.214,2.997,1.612
				s2.154,0.598,3.163,0.598c1.252,0,2.23-0.202,2.938-0.605c0.706-0.403,1.059-1.039,1.059-1.907c0-0.666-0.191-1.171-0.574-1.514
				c-0.384-0.343-1.121-0.636-2.211-0.878c-0.403-0.091-0.931-0.197-1.581-0.318c-0.651-0.121-1.244-0.252-1.778-0.393
				c-1.484-0.395-2.536-0.972-3.156-1.733c-0.621-0.762-0.932-1.698-0.932-2.808c0-0.697,0.145-1.353,0.432-1.969
				c0.288-0.615,0.725-1.165,1.31-1.649c0.565-0.475,1.284-0.85,2.157-1.128c0.872-0.277,1.849-0.416,2.929-0.416
				c1.009,0,2.03,0.124,3.065,0.371c1.034,0.247,1.895,0.547,2.58,0.9v3.043h-0.15c-0.727-0.535-1.61-0.986-2.649-1.355
				c-1.039-0.368-2.059-0.553-3.058-0.553c-1.039,0-1.917,0.2-2.634,0.599s-1.075,0.991-1.075,1.778
				c0,0.696,0.218,1.221,0.651,1.574c0.424,0.354,1.11,0.641,2.059,0.863c0.524,0.121,1.112,0.242,1.764,0.363
				c0.65,0.121,1.193,0.231,1.627,0.332c1.322,0.303,2.341,0.823,3.058,1.56C410.838,109.585,411.195,110.574,411.195,111.805z"/>
		</g>
	</g>
	<g>
		<g>
			<path fill="#FFFFFF" d="M84.525,211.172h-2.831v-1.801c-0.252,0.172-0.593,0.411-1.021,0.719
				c-0.429,0.309-0.846,0.553-1.249,0.734c-0.475,0.232-1.02,0.426-1.635,0.582c-0.616,0.157-1.337,0.235-2.165,0.235
				c-1.524,0-2.815-0.505-3.875-1.514s-1.589-2.296-1.589-3.86c0-1.281,0.275-2.318,0.825-3.109c0.55-0.793,1.334-1.416,2.354-1.87
				c1.029-0.454,2.265-0.762,3.708-0.923c1.443-0.162,2.992-0.283,4.647-0.363v-0.439c0-0.646-0.113-1.181-0.341-1.604
				c-0.227-0.424-0.552-0.757-0.976-0.999c-0.404-0.232-0.888-0.389-1.453-0.469c-0.565-0.081-1.156-0.121-1.771-0.121
				c-0.747,0-1.58,0.098-2.498,0.295c-0.918,0.197-1.867,0.482-2.846,0.855h-0.151v-2.892c0.555-0.151,1.357-0.317,2.407-0.499
				c1.049-0.182,2.083-0.273,3.103-0.273c1.19,0,2.228,0.1,3.111,0.295c0.883,0.197,1.647,0.533,2.293,1.008
				c0.636,0.464,1.12,1.064,1.453,1.801s0.5,1.65,0.5,2.74V211.172z M81.694,207.01v-4.707c-0.868,0.051-1.89,0.126-3.065,0.227
				c-1.175,0.102-2.106,0.248-2.792,0.439c-0.817,0.232-1.479,0.592-1.983,1.082c-0.505,0.489-0.757,1.163-0.757,2.021
				c0,0.969,0.292,1.698,0.878,2.187c0.585,0.49,1.478,0.734,2.679,0.734c0.999,0,1.912-0.193,2.74-0.582
				C80.221,208.021,80.988,207.555,81.694,207.01z"/>
			<path fill="#FFFFFF" d="M119.763,199.336h-17.952v-2.422h17.952V199.336z M119.763,205.693h-17.952v-2.422h17.952V205.693z"/>
			<path fill="#FFFFFF" d="M154.139,201.713H134.31v-1.816h19.829V201.713z"/>
			<path fill="#FFFFFF" d="M173.847,201.713h-19.829v-1.816h19.829V201.713z"/>
			<path fill="#FFFFFF" d="M206.345,199.336h-17.952v-2.422h17.952V199.336z M206.345,205.693h-17.952v-2.422h17.952V205.693z"/>
			<path fill="#FFFFFF" d="M236.891,211.172h-2.831v-1.801c-0.252,0.172-0.593,0.411-1.021,0.719
				c-0.429,0.309-0.846,0.553-1.249,0.734c-0.475,0.232-1.02,0.426-1.635,0.582c-0.616,0.157-1.337,0.235-2.165,0.235
				c-1.524,0-2.815-0.505-3.875-1.514s-1.589-2.296-1.589-3.86c0-1.281,0.275-2.318,0.825-3.109c0.55-0.793,1.334-1.416,2.354-1.87
				c1.029-0.454,2.265-0.762,3.708-0.923c1.443-0.162,2.992-0.283,4.647-0.363v-0.439c0-0.646-0.113-1.181-0.341-1.604
				c-0.227-0.424-0.552-0.757-0.976-0.999c-0.404-0.232-0.888-0.389-1.453-0.469c-0.565-0.081-1.156-0.121-1.771-0.121
				c-0.747,0-1.58,0.098-2.498,0.295c-0.918,0.197-1.867,0.482-2.846,0.855h-0.151v-2.892c0.555-0.151,1.357-0.317,2.407-0.499
				c1.049-0.182,2.083-0.273,3.103-0.273c1.19,0,2.228,0.1,3.111,0.295c0.883,0.197,1.647,0.533,2.293,1.008
				c0.636,0.464,1.12,1.064,1.453,1.801s0.5,1.65,0.5,2.74V211.172z M234.061,207.01v-4.707c-0.868,0.051-1.89,0.126-3.065,0.227
				c-1.175,0.102-2.106,0.248-2.792,0.439c-0.817,0.232-1.479,0.592-1.983,1.082c-0.505,0.489-0.757,1.163-0.757,2.021
				c0,0.969,0.292,1.698,0.878,2.187c0.585,0.49,1.478,0.734,2.679,0.734c0.999,0,1.912-0.193,2.74-0.582
				C232.587,208.021,233.354,207.555,234.061,207.01z"/>
			<path fill="#FFFFFF" d="M254.45,206.299c0,1.543-0.638,2.811-1.915,3.799c-1.277,0.989-3.02,1.483-5.23,1.483
				c-1.251,0-2.399-0.149-3.444-0.446c-1.044-0.298-1.92-0.623-2.626-0.977v-3.193h0.151c0.898,0.676,1.897,1.213,2.997,1.611
				c1.1,0.398,2.154,0.598,3.164,0.598c1.251,0,2.23-0.201,2.937-0.605c0.706-0.402,1.06-1.039,1.06-1.906
				c0-0.666-0.192-1.171-0.575-1.514c-0.384-0.344-1.12-0.637-2.21-0.879c-0.404-0.09-0.931-0.196-1.582-0.317
				c-0.651-0.121-1.244-0.252-1.779-0.394c-1.483-0.394-2.536-0.971-3.156-1.732c-0.621-0.763-0.931-1.698-0.931-2.809
				c0-0.696,0.144-1.352,0.431-1.968c0.288-0.615,0.724-1.165,1.31-1.649c0.565-0.475,1.284-0.851,2.157-1.129
				c0.873-0.277,1.849-0.416,2.929-0.416c1.009,0,2.031,0.124,3.065,0.371c1.034,0.248,1.894,0.548,2.581,0.9v3.043h-0.151
				c-0.727-0.535-1.61-0.986-2.649-1.355c-1.04-0.367-2.059-0.552-3.058-0.552c-1.04,0-1.917,0.199-2.634,0.599
				c-0.717,0.398-1.075,0.99-1.075,1.777c0,0.697,0.217,1.222,0.651,1.574c0.424,0.354,1.11,0.642,2.059,0.863
				c0.524,0.121,1.112,0.242,1.764,0.363c0.65,0.121,1.193,0.232,1.627,0.333c1.322,0.303,2.341,0.823,3.058,1.56
				C254.091,204.078,254.45,205.067,254.45,206.299z"/>
			<path fill="#FFFFFF" d="M270.601,206.299c0,1.543-0.638,2.811-1.915,3.799c-1.277,0.989-3.02,1.483-5.23,1.483
				c-1.251,0-2.399-0.149-3.444-0.446c-1.044-0.298-1.92-0.623-2.626-0.977v-3.193h0.151c0.898,0.676,1.897,1.213,2.997,1.611
				c1.1,0.398,2.154,0.598,3.164,0.598c1.251,0,2.23-0.201,2.937-0.605c0.706-0.402,1.06-1.039,1.06-1.906
				c0-0.666-0.192-1.171-0.575-1.514c-0.384-0.344-1.12-0.637-2.21-0.879c-0.404-0.09-0.931-0.196-1.582-0.317
				c-0.651-0.121-1.244-0.252-1.779-0.394c-1.483-0.394-2.536-0.971-3.156-1.732c-0.621-0.763-0.931-1.698-0.931-2.809
				c0-0.696,0.144-1.352,0.431-1.968c0.288-0.615,0.724-1.165,1.31-1.649c0.565-0.475,1.284-0.851,2.157-1.129
				c0.873-0.277,1.849-0.416,2.929-0.416c1.009,0,2.031,0.124,3.065,0.371c1.034,0.248,1.894,0.548,2.581,0.9v3.043h-0.151
				c-0.727-0.535-1.61-0.986-2.649-1.355c-1.04-0.367-2.059-0.552-3.058-0.552c-1.04,0-1.917,0.199-2.634,0.599
				c-0.717,0.398-1.075,0.99-1.075,1.777c0,0.697,0.217,1.222,0.651,1.574c0.424,0.354,1.11,0.642,2.059,0.863
				c0.524,0.121,1.112,0.242,1.764,0.363c0.65,0.121,1.193,0.232,1.627,0.333c1.322,0.303,2.341,0.823,3.058,1.56
				C270.242,204.078,270.601,205.067,270.601,206.299z"/>
			<path fill="#FFFFFF" d="M289.083,202.727c0,2.754-0.707,4.93-2.119,6.523c-1.413,1.595-3.305,2.392-5.676,2.392
				c-2.392,0-4.291-0.797-5.699-2.392c-1.407-1.594-2.111-3.77-2.111-6.523c0-2.756,0.704-4.933,2.111-6.531
				c1.408-1.6,3.308-2.4,5.699-2.4c2.371,0,4.263,0.801,5.676,2.4C288.376,197.794,289.083,199.971,289.083,202.727z
				 M286.146,202.727c0-2.189-0.429-3.817-1.287-4.883c-0.858-1.064-2.049-1.596-3.572-1.596c-1.544,0-2.742,0.531-3.595,1.596
				c-0.853,1.065-1.279,2.693-1.279,4.883c0,2.119,0.429,3.726,1.287,4.82c0.857,1.096,2.053,1.643,3.587,1.643
				c1.514,0,2.702-0.543,3.564-1.627C285.715,206.478,286.146,204.865,286.146,202.727z"/>
			<path fill="#FFFFFF" d="M305.99,210.113c-0.949,0.453-1.849,0.807-2.702,1.059c-0.853,0.252-1.759,0.379-2.717,0.379
				c-1.221,0-2.341-0.18-3.36-0.537c-1.02-0.358-1.892-0.9-2.619-1.627c-0.737-0.727-1.307-1.645-1.71-2.756
				c-0.404-1.109-0.605-2.406-0.605-3.89c0-2.765,0.759-4.935,2.278-6.509c1.519-1.574,3.524-2.361,6.017-2.361
				c0.969,0,1.92,0.137,2.853,0.408c0.934,0.273,1.789,0.605,2.566,1v3.163h-0.151c-0.868-0.676-1.763-1.196-2.687-1.56
				c-0.923-0.363-1.824-0.545-2.702-0.545c-1.615,0-2.889,0.543-3.822,1.627c-0.934,1.086-1.4,2.678-1.4,4.776
				c0,2.038,0.457,3.604,1.37,4.7c0.913,1.095,2.197,1.643,3.852,1.643c0.575,0,1.16-0.076,1.756-0.228
				c0.595-0.151,1.13-0.349,1.604-0.591c0.414-0.211,0.802-0.436,1.166-0.674c0.363-0.236,0.651-0.44,0.863-0.612h0.151V210.113z"/>
			<path fill="#FFFFFF" d="M312.696,191.434h-3.209v-2.951h3.209V191.434z M312.514,211.172h-2.846v-16.907h2.846V211.172z"/>
			<path fill="#FFFFFF" d="M331.283,211.172h-2.83v-1.801c-0.252,0.172-0.593,0.411-1.021,0.719
				c-0.43,0.309-0.846,0.553-1.249,0.734c-0.475,0.232-1.02,0.426-1.635,0.582c-0.616,0.157-1.337,0.235-2.165,0.235
				c-1.524,0-2.815-0.505-3.875-1.514s-1.589-2.296-1.589-3.86c0-1.281,0.275-2.318,0.825-3.109c0.55-0.793,1.334-1.416,2.354-1.87
				c1.029-0.454,2.265-0.762,3.709-0.923c1.442-0.162,2.991-0.283,4.646-0.363v-0.439c0-0.646-0.113-1.181-0.341-1.604
				c-0.227-0.424-0.552-0.757-0.976-0.999c-0.404-0.232-0.889-0.389-1.453-0.469c-0.566-0.081-1.156-0.121-1.771-0.121
				c-0.747,0-1.58,0.098-2.498,0.295c-0.918,0.197-1.867,0.482-2.846,0.855h-0.151v-2.892c0.555-0.151,1.357-0.317,2.407-0.499
				c1.049-0.182,2.083-0.273,3.104-0.273c1.189,0,2.227,0.1,3.11,0.295c0.883,0.197,1.647,0.533,2.293,1.008
				c0.636,0.464,1.12,1.064,1.453,1.801s0.499,1.65,0.499,2.74V211.172z M328.453,207.01v-4.707
				c-0.868,0.051-1.89,0.126-3.065,0.227c-1.175,0.102-2.106,0.248-2.792,0.439c-0.817,0.232-1.479,0.592-1.983,1.082
				c-0.505,0.489-0.757,1.163-0.757,2.021c0,0.969,0.292,1.698,0.878,2.187c0.585,0.49,1.478,0.734,2.679,0.734
				c1,0,1.912-0.193,2.74-0.582C326.979,208.021,327.746,207.555,328.453,207.01z"/>
			<path fill="#FFFFFF" d="M345.543,211.021c-0.535,0.141-1.118,0.257-1.749,0.348c-0.63,0.091-1.193,0.137-1.688,0.137
				c-1.726,0-3.038-0.465-3.936-1.393c-0.898-0.929-1.347-2.417-1.347-4.466v-8.991h-1.923v-2.392h1.923v-4.858h2.846v4.858h5.873
				v2.392h-5.873v7.705c0,0.888,0.02,1.582,0.061,2.08c0.039,0.5,0.182,0.967,0.424,1.4c0.221,0.404,0.527,0.699,0.915,0.887
				c0.389,0.186,0.981,0.279,1.778,0.279c0.465,0,0.949-0.068,1.453-0.205c0.505-0.135,0.868-0.249,1.09-0.34h0.152V211.021z"/>
			<path fill="#FFFFFF" d="M363.131,203.014h-12.457c0,1.039,0.156,1.945,0.469,2.717s0.742,1.406,1.287,1.9
				c0.524,0.484,1.148,0.848,1.869,1.09c0.722,0.242,1.516,0.363,2.385,0.363c1.15,0,2.309-0.23,3.473-0.689
				c1.166-0.459,1.996-0.91,2.49-1.354h0.152v3.103c-0.959,0.404-1.938,0.742-2.938,1.015c-0.998,0.272-2.049,0.409-3.148,0.409
				c-2.805,0-4.994-0.76-6.568-2.279c-1.574-1.518-2.361-3.675-2.361-6.471c0-2.764,0.754-4.959,2.262-6.584
				c1.51-1.625,3.494-2.438,5.957-2.438c2.28,0,4.039,0.666,5.275,1.998s1.854,3.225,1.854,5.677V203.014z M360.361,200.834
				c-0.01-1.493-0.387-2.648-1.127-3.467c-0.742-0.816-1.87-1.226-3.384-1.226c-1.524,0-2.737,0.449-3.64,1.347
				c-0.904,0.898-1.416,2.014-1.537,3.346H360.361z"/>
			<path fill="#FFFFFF" d="M381.159,211.172h-2.846v-1.771c-0.817,0.706-1.671,1.257-2.558,1.649
				c-0.889,0.395-1.853,0.591-2.892,0.591c-2.019,0-3.62-0.776-4.806-2.331c-1.186-1.554-1.779-3.709-1.779-6.463
				c0-1.434,0.205-2.71,0.613-3.83s0.961-2.074,1.658-2.861c0.686-0.766,1.485-1.352,2.398-1.756
				c0.914-0.402,1.859-0.605,2.838-0.605c0.889,0,1.676,0.094,2.361,0.281c0.687,0.186,1.408,0.477,2.165,0.869v-7.326h2.846
				V211.172z M378.313,207.01v-9.703c-0.767-0.342-1.453-0.58-2.059-0.711s-1.267-0.197-1.983-0.197
				c-1.594,0-2.836,0.556-3.723,1.666c-0.889,1.109-1.332,2.684-1.332,4.723c0,2.008,0.342,3.533,1.029,4.578
				c0.686,1.045,1.785,1.566,3.299,1.566c0.808,0,1.625-0.179,2.453-0.537C376.824,208.037,377.597,207.575,378.313,207.01z"/>
			<path fill="#FFFFFF" d="M410.797,211.172h-2.83v-1.801c-0.253,0.172-0.594,0.411-1.021,0.719c-0.43,0.309-0.846,0.553-1.25,0.734
				c-0.475,0.232-1.02,0.426-1.635,0.582c-0.615,0.157-1.337,0.235-2.164,0.235c-1.523,0-2.815-0.505-3.875-1.514
				s-1.59-2.296-1.59-3.86c0-1.281,0.275-2.318,0.826-3.109c0.549-0.793,1.334-1.416,2.354-1.87
				c1.029-0.454,2.265-0.762,3.708-0.923c1.442-0.162,2.991-0.283,4.647-0.363v-0.439c0-0.646-0.113-1.181-0.342-1.604
				c-0.227-0.424-0.552-0.757-0.976-0.999c-0.403-0.232-0.888-0.389-1.453-0.469c-0.565-0.081-1.155-0.121-1.771-0.121
				c-0.748,0-1.58,0.098-2.498,0.295s-1.867,0.482-2.846,0.855h-0.151v-2.892c0.555-0.151,1.356-0.317,2.407-0.499
				c1.049-0.182,2.083-0.273,3.103-0.273c1.19,0,2.228,0.1,3.11,0.295c0.883,0.197,1.647,0.533,2.293,1.008
				c0.637,0.464,1.121,1.064,1.453,1.801c0.334,0.736,0.5,1.65,0.5,2.74V211.172z M407.967,207.01v-4.707
				c-0.869,0.051-1.891,0.126-3.066,0.227c-1.175,0.102-2.105,0.248-2.792,0.439c-0.817,0.232-1.479,0.592-1.983,1.082
				c-0.504,0.489-0.756,1.163-0.756,2.021c0,0.969,0.292,1.698,0.877,2.187c0.586,0.49,1.479,0.734,2.68,0.734
				c0.999,0,1.912-0.193,2.74-0.582C406.492,208.021,407.26,207.555,407.967,207.01z"/>
			<path fill="#FFFFFF" d="M428.779,210.113c-0.949,0.453-1.85,0.807-2.701,1.059c-0.854,0.252-1.76,0.379-2.718,0.379
				c-1.222,0-2.341-0.18-3.36-0.537c-1.02-0.358-1.893-0.9-2.619-1.627c-0.736-0.727-1.307-1.645-1.71-2.756
				c-0.403-1.109-0.605-2.406-0.605-3.89c0-2.765,0.759-4.935,2.278-6.509c1.519-1.574,3.523-2.361,6.017-2.361
				c0.969,0,1.92,0.137,2.853,0.408c0.934,0.273,1.789,0.605,2.566,1v3.163h-0.151c-0.868-0.676-1.763-1.196-2.687-1.56
				s-1.824-0.545-2.702-0.545c-1.614,0-2.889,0.543-3.821,1.627c-0.934,1.086-1.4,2.678-1.4,4.776c0,2.038,0.456,3.604,1.369,4.7
				c0.914,1.095,2.197,1.643,3.853,1.643c0.575,0,1.16-0.076,1.756-0.228c0.595-0.151,1.13-0.349,1.604-0.591
				c0.414-0.211,0.803-0.436,1.166-0.674c0.363-0.236,0.65-0.44,0.862-0.612h0.151V210.113z"/>
			<path fill="#FFFFFF" d="M444.93,210.113c-0.948,0.453-1.849,0.807-2.701,1.059c-0.854,0.252-1.759,0.379-2.717,0.379
				c-1.222,0-2.342-0.18-3.361-0.537c-1.02-0.358-1.892-0.9-2.618-1.627c-0.737-0.727-1.308-1.645-1.71-2.756
				c-0.404-1.109-0.605-2.406-0.605-3.89c0-2.765,0.759-4.935,2.277-6.509c1.52-1.574,3.524-2.361,6.018-2.361
				c0.969,0,1.92,0.137,2.853,0.408c0.934,0.273,1.788,0.605,2.565,1v3.163h-0.15c-0.869-0.676-1.764-1.196-2.688-1.56
				c-0.923-0.363-1.824-0.545-2.701-0.545c-1.615,0-2.889,0.543-3.822,1.627c-0.934,1.086-1.4,2.678-1.4,4.776
				c0,2.038,0.457,3.604,1.37,4.7c0.913,1.095,2.196,1.643,3.853,1.643c0.574,0,1.16-0.076,1.756-0.228
				c0.595-0.151,1.129-0.349,1.604-0.591c0.414-0.211,0.803-0.436,1.166-0.674c0.363-0.236,0.65-0.44,0.863-0.612h0.15V210.113z"/>
			<path fill="#FFFFFF" d="M462.73,203.014h-12.457c0,1.039,0.156,1.945,0.469,2.717s0.742,1.406,1.287,1.9
				c0.524,0.484,1.148,0.848,1.869,1.09c0.722,0.242,1.516,0.363,2.385,0.363c1.15,0,2.309-0.23,3.473-0.689
				c1.166-0.459,1.996-0.91,2.49-1.354h0.152v3.103c-0.959,0.404-1.938,0.742-2.938,1.015c-0.998,0.272-2.049,0.409-3.148,0.409
				c-2.805,0-4.994-0.76-6.568-2.279c-1.574-1.518-2.361-3.675-2.361-6.471c0-2.764,0.754-4.959,2.262-6.584
				c1.51-1.625,3.494-2.438,5.957-2.438c2.28,0,4.039,0.666,5.275,1.998s1.854,3.225,1.854,5.677V203.014z M459.961,200.834
				c-0.01-1.493-0.387-2.648-1.127-3.467c-0.742-0.816-1.87-1.226-3.384-1.226c-1.524,0-2.737,0.449-3.64,1.347
				c-0.904,0.898-1.416,2.014-1.537,3.346H459.961z"/>
			<path fill="#FFFFFF" d="M469.921,211.172h-2.846v-23.553h2.846V211.172z"/>
			<path fill="#FFFFFF" d="M489.705,203.014h-12.458c0,1.039,0.156,1.945,0.47,2.717c0.313,0.771,0.741,1.406,1.286,1.9
				c0.524,0.484,1.147,0.848,1.87,1.09c0.721,0.242,1.516,0.363,2.383,0.363c1.15,0,2.309-0.23,3.475-0.689s1.995-0.91,2.49-1.354
				h0.15v3.103c-0.959,0.404-1.938,0.742-2.936,1.015c-1,0.272-2.049,0.409-3.148,0.409c-2.807,0-4.996-0.76-6.57-2.279
				c-1.574-1.518-2.361-3.675-2.361-6.471c0-2.764,0.755-4.959,2.264-6.584c1.508-1.625,3.494-2.438,5.956-2.438
				c2.28,0,4.039,0.666,5.274,1.998c1.236,1.332,1.855,3.225,1.855,5.677V203.014z M486.935,200.834
				c-0.011-1.493-0.386-2.648-1.128-3.467c-0.742-0.816-1.869-1.226-3.383-1.226c-1.523,0-2.737,0.449-3.641,1.347
				c-0.902,0.898-1.415,2.014-1.536,3.346H486.935z"/>
			<path fill="#FFFFFF" d="M504.568,197.367h-0.15c-0.424-0.1-0.836-0.174-1.234-0.219s-0.87-0.068-1.415-0.068
				c-0.878,0-1.726,0.194-2.543,0.582c-0.817,0.389-1.604,0.892-2.361,1.507v12.003h-2.846v-16.907h2.846v2.497
				c1.13-0.908,2.126-1.551,2.989-1.93s1.743-0.567,2.642-0.567c0.494,0,0.853,0.013,1.075,0.038
				c0.221,0.025,0.555,0.073,0.998,0.144V197.367z"/>
			<path fill="#FFFFFF" d="M519.842,211.172h-2.83v-1.801c-0.253,0.172-0.594,0.411-1.021,0.719c-0.43,0.309-0.846,0.553-1.25,0.734
				c-0.475,0.232-1.02,0.426-1.635,0.582c-0.615,0.157-1.337,0.235-2.164,0.235c-1.523,0-2.815-0.505-3.875-1.514
				s-1.59-2.296-1.59-3.86c0-1.281,0.275-2.318,0.826-3.109c0.549-0.793,1.334-1.416,2.354-1.87
				c1.029-0.454,2.265-0.762,3.708-0.923c1.442-0.162,2.991-0.283,4.647-0.363v-0.439c0-0.646-0.113-1.181-0.342-1.604
				c-0.227-0.424-0.552-0.757-0.976-0.999c-0.403-0.232-0.888-0.389-1.453-0.469c-0.565-0.081-1.155-0.121-1.771-0.121
				c-0.748,0-1.58,0.098-2.498,0.295s-1.867,0.482-2.846,0.855h-0.151v-2.892c0.555-0.151,1.356-0.317,2.407-0.499
				c1.049-0.182,2.083-0.273,3.103-0.273c1.19,0,2.228,0.1,3.11,0.295c0.883,0.197,1.647,0.533,2.293,1.008
				c0.637,0.464,1.121,1.064,1.453,1.801c0.334,0.736,0.5,1.65,0.5,2.74V211.172z M517.012,207.01v-4.707
				c-0.869,0.051-1.891,0.126-3.066,0.227c-1.175,0.102-2.105,0.248-2.792,0.439c-0.817,0.232-1.479,0.592-1.983,1.082
				c-0.504,0.489-0.756,1.163-0.756,2.021c0,0.969,0.292,1.698,0.877,2.187c0.586,0.49,1.479,0.734,2.68,0.734
				c0.999,0,1.912-0.193,2.74-0.582C515.537,208.021,516.305,207.555,517.012,207.01z"/>
			<path fill="#FFFFFF" d="M534.101,211.021c-0.535,0.141-1.118,0.257-1.749,0.348c-0.63,0.091-1.193,0.137-1.688,0.137
				c-1.725,0-3.037-0.465-3.936-1.393c-0.898-0.929-1.347-2.417-1.347-4.466v-8.991h-1.923v-2.392h1.923v-4.858h2.846v4.858h5.873
				v2.392h-5.873v7.705c0,0.888,0.021,1.582,0.061,2.08c0.04,0.5,0.182,0.967,0.424,1.4c0.222,0.404,0.527,0.699,0.915,0.887
				c0.389,0.186,0.982,0.279,1.779,0.279c0.464,0,0.948-0.068,1.453-0.205c0.504-0.135,0.867-0.249,1.09-0.34h0.151V211.021z"/>
			<path fill="#FFFFFF" d="M540.594,191.434h-3.209v-2.951h3.209V191.434z M540.412,211.172h-2.846v-16.907h2.846V211.172z"/>
			<path fill="#FFFFFF" d="M560.453,202.727c0,2.754-0.706,4.93-2.119,6.523c-1.412,1.595-3.305,2.392-5.676,2.392
				c-2.392,0-4.291-0.797-5.699-2.392c-1.407-1.594-2.111-3.77-2.111-6.523c0-2.756,0.704-4.933,2.111-6.531
				c1.408-1.6,3.308-2.4,5.699-2.4c2.371,0,4.264,0.801,5.676,2.4C559.747,197.794,560.453,199.971,560.453,202.727z
				 M557.518,202.727c0-2.189-0.43-3.817-1.287-4.883c-0.857-1.064-2.049-1.596-3.572-1.596c-1.544,0-2.742,0.531-3.595,1.596
				c-0.853,1.065-1.279,2.693-1.279,4.883c0,2.119,0.429,3.726,1.286,4.82c0.857,1.096,2.054,1.643,3.588,1.643
				c1.514,0,2.702-0.543,3.564-1.627C557.086,206.478,557.518,204.865,557.518,202.727z"/>
			<path fill="#FFFFFF" d="M578.996,211.172h-2.846v-9.627c0-0.776-0.045-1.506-0.137-2.188c-0.09-0.68-0.257-1.213-0.499-1.596
				c-0.253-0.424-0.616-0.74-1.09-0.947c-0.475-0.206-1.09-0.31-1.847-0.31c-0.777,0-1.59,0.192-2.438,0.575
				c-0.848,0.384-1.66,0.873-2.437,1.469v12.623h-2.846v-16.907h2.846v1.877c0.888-0.736,1.806-1.312,2.755-1.726
				c0.948-0.414,1.922-0.621,2.922-0.621c1.826,0,3.219,0.551,4.178,1.65c0.958,1.1,1.438,2.685,1.438,4.753V211.172z"/>
		</g>
		<g>
			<g enable-background="new    ">
				<path fill="#FFFFFF" d="M160.038,174.296H148.64v6.357h9.793v2.664h-9.793v10.854h-2.997v-22.54h14.395V174.296z"/>
			</g>
			<g enable-background="new    ">
				<path fill="#FFFFFF" d="M162.559,238.172h-2.997v-19.42l-6.267,13.213h-1.786l-6.221-13.213v19.42h-2.8v-22.539h4.087
					l6.009,12.549l5.813-12.549h4.163V238.172z"/>
			</g>
		</g>
	</g>
	<g>
		<g enable-background="new    ">
			<path fill="#FFFFFF" d="M121.103,283.854h-17.952v-2.422h17.952V283.854z M121.103,290.211h-17.952v-2.422h17.952V290.211z"/>
			<path fill="#FFFFFF" d="M153.571,289.41c0,1.947-0.76,3.566-2.278,4.857c-1.519,1.293-3.428,1.938-5.729,1.938
				c-2.442,0-4.387-0.631-5.835-1.891c-1.448-1.262-2.172-2.877-2.172-4.844c0-1.252,0.363-2.385,1.09-3.398
				c0.727-1.016,1.75-1.82,3.073-2.414v-0.092c-1.211-0.646-2.106-1.352-2.687-2.119c-0.58-0.768-0.87-1.725-0.87-2.875
				c0-1.695,0.696-3.109,2.089-4.238c1.393-1.131,3.164-1.695,5.313-1.695c2.25,0,4.046,0.539,5.388,1.619
				c1.343,1.08,2.014,2.451,2.014,4.117c0,1.02-0.318,2.02-0.953,3.004c-0.637,0.984-1.569,1.754-2.801,2.309v0.092
				c1.413,0.605,2.492,1.352,3.239,2.24C153.198,286.906,153.571,288.037,153.571,289.41z M150.453,289.697
				c0-0.93-0.204-1.674-0.613-2.232c-0.408-0.561-1.208-1.123-2.399-1.688c-0.475-0.223-0.994-0.43-1.559-0.621
				c-0.565-0.191-1.317-0.459-2.255-0.803c-0.908,0.494-1.637,1.166-2.187,2.014c-0.55,0.848-0.825,1.807-0.825,2.875
				c0,1.363,0.469,2.488,1.408,3.377c0.938,0.887,2.129,1.332,3.572,1.332c1.473,0,2.651-0.379,3.535-1.137
				C150.012,292.059,150.453,291.02,150.453,289.697z M149.983,278.404c0-1.08-0.416-1.939-1.248-2.58
				c-0.833-0.641-1.895-0.961-3.187-0.961c-1.271,0-2.313,0.303-3.126,0.908c-0.812,0.605-1.218,1.422-1.218,2.451
				c0,0.727,0.205,1.355,0.613,1.885c0.409,0.529,1.027,1.002,1.854,1.416c0.373,0.182,0.911,0.418,1.612,0.711
				c0.701,0.293,1.385,0.535,2.051,0.727c0.999-0.666,1.69-1.357,2.074-2.074C149.792,280.17,149.983,279.344,149.983,278.404z"/>
			<path fill="#FFFFFF" d="M162.865,295.691h-3.617v-4.314h3.617V295.691z"/>
			<path fill="#FFFFFF" d="M184.903,289.35h-3.345v6.342h-2.906v-6.342H167.86v-3.482l10.913-12.715h2.785v13.775h3.345V289.35z
				 M178.652,286.928v-10.172l-8.733,10.172H178.652z"/>
			<path fill="#FFFFFF" d="M204.431,288.381c0,2.289-0.754,4.16-2.263,5.607s-3.357,2.172-5.548,2.172
				c-1.109,0-2.119-0.172-3.027-0.514c-0.908-0.344-1.71-0.854-2.406-1.529c-0.868-0.838-1.536-1.947-2.006-3.33
				c-0.469-1.383-0.703-3.049-0.703-4.996c0-1.998,0.214-3.768,0.643-5.313c0.429-1.543,1.113-2.916,2.051-4.117
				c0.889-1.141,2.034-2.031,3.437-2.672s3.037-0.961,4.904-0.961c0.596,0,1.095,0.025,1.499,0.076
				c0.403,0.051,0.812,0.141,1.226,0.271v2.893h-0.151c-0.282-0.152-0.709-0.297-1.279-0.432c-0.57-0.137-1.152-0.205-1.748-0.205
				c-2.17,0-3.9,0.68-5.191,2.035c-1.292,1.357-2.044,3.191-2.256,5.504c0.848-0.516,1.683-0.906,2.505-1.174s1.773-0.4,2.854-0.4
				c0.959,0,1.804,0.088,2.535,0.264c0.731,0.178,1.481,0.533,2.248,1.068c0.888,0.615,1.557,1.393,2.006,2.33
				C204.206,285.898,204.431,287.037,204.431,288.381z M201.358,288.502c0-0.939-0.139-1.717-0.416-2.332
				c-0.278-0.615-0.734-1.15-1.37-1.604c-0.464-0.324-0.979-0.535-1.544-0.637s-1.155-0.15-1.771-0.15
				c-0.857,0-1.654,0.1-2.391,0.303c-0.737,0.201-1.494,0.514-2.271,0.938c-0.02,0.223-0.035,0.438-0.045,0.643
				c-0.01,0.207-0.016,0.467-0.016,0.781c0,1.594,0.164,2.852,0.492,3.775s0.779,1.652,1.355,2.188
				c0.464,0.443,0.966,0.77,1.506,0.977c0.539,0.207,1.127,0.311,1.764,0.311c1.463,0,2.613-0.447,3.451-1.34
				C200.939,291.461,201.358,290.176,201.358,288.502z"/>
			<path fill="#FFFFFF" d="M234.446,295.691h-3.588l-4.798-6.494l-4.829,6.494h-3.314l6.6-8.432l-6.539-8.477h3.588l4.768,6.389
				l4.783-6.389h3.33l-6.645,8.326L234.446,295.691z"/>
			<path fill="#FFFFFF" d="M262.661,295.691h-12.2v-2.301h4.692v-15.107h-4.692v-2.059c0.636,0,1.317-0.053,2.044-0.158
				s1.276-0.26,1.649-0.461c0.464-0.254,0.83-0.574,1.098-0.963c0.267-0.387,0.421-0.91,0.462-1.566h2.346v20.314h4.602V295.691z"/>
			<path fill="#FFFFFF" d="M283.626,284.414c0,4.047-0.633,7.016-1.899,8.908s-3.231,2.838-5.896,2.838
				c-2.704,0-4.68-0.959-5.926-2.875c-1.247-1.918-1.869-4.865-1.869-8.84c0-4.008,0.63-6.967,1.892-8.879s3.229-2.867,5.903-2.867
				c2.704,0,4.68,0.971,5.926,2.912C283.003,277.555,283.626,280.488,283.626,284.414z M279.646,291.287
				c0.354-0.818,0.593-1.779,0.719-2.885s0.189-2.434,0.189-3.988c0-1.533-0.063-2.865-0.189-3.996s-0.371-2.088-0.734-2.875
				c-0.353-0.777-0.835-1.363-1.445-1.756c-0.61-0.395-1.395-0.592-2.354-0.592c-0.948,0-1.733,0.197-2.354,0.592
				c-0.621,0.393-1.113,0.988-1.477,1.785c-0.343,0.746-0.577,1.721-0.703,2.922c-0.127,1.201-0.189,2.518-0.189,3.951
				c0,1.574,0.056,2.891,0.166,3.949c0.111,1.061,0.349,2.008,0.712,2.846c0.333,0.787,0.805,1.389,1.415,1.803
				c0.61,0.412,1.421,0.619,2.43,0.619c0.948,0,1.735-0.195,2.361-0.59C278.818,292.68,279.303,292.084,279.646,291.287z"/>
			<path fill="#FFFFFF" d="M294.829,274.041c0.282,0.252,0.515,0.57,0.697,0.953c0.182,0.381,0.273,0.875,0.273,1.482
				c0,0.6-0.109,1.15-0.326,1.65c-0.218,0.5-0.524,0.936-0.918,1.305c-0.441,0.412-0.961,0.717-1.558,0.914
				c-0.598,0.197-1.252,0.295-1.964,0.295c-0.729,0-1.447-0.086-2.153-0.26s-1.285-0.363-1.738-0.568v-1.846h0.133
				c0.5,0.33,1.088,0.604,1.765,0.82c0.677,0.219,1.329,0.328,1.959,0.328c0.371,0,0.765-0.063,1.183-0.186s0.756-0.307,1.015-0.547
				c0.271-0.26,0.473-0.545,0.604-0.857c0.133-0.311,0.198-0.705,0.198-1.182c0-0.471-0.074-0.861-0.225-1.17
				s-0.357-0.551-0.622-0.727c-0.265-0.184-0.586-0.309-0.962-0.377c-0.377-0.066-0.782-0.1-1.218-0.1h-0.794v-1.467h0.617
				c0.895,0,1.607-0.186,2.141-0.559c0.532-0.375,0.798-0.92,0.798-1.639c0-0.316-0.067-0.596-0.202-0.834
				c-0.136-0.238-0.324-0.434-0.565-0.586c-0.253-0.152-0.523-0.26-0.812-0.318s-0.615-0.088-0.979-0.088
				c-0.56,0-1.153,0.1-1.783,0.301c-0.629,0.199-1.224,0.482-1.782,0.848h-0.088v-1.846c0.417-0.205,0.975-0.395,1.672-0.568
				s1.372-0.26,2.025-0.26c0.642,0,1.206,0.059,1.694,0.176s0.93,0.307,1.323,0.564c0.424,0.283,0.744,0.623,0.962,1.023
				s0.327,0.869,0.327,1.404c0,0.729-0.258,1.365-0.772,1.91c-0.515,0.543-1.122,0.887-1.822,1.027v0.123
				c0.282,0.049,0.605,0.146,0.971,0.297S294.576,273.816,294.829,274.041z"/>
			<path fill="#FFFFFF" d="M307.476,280.367h-8.896v-1.844c0.617-0.529,1.236-1.059,1.857-1.588s1.198-1.057,1.734-1.58
				c1.129-1.094,1.903-1.963,2.32-2.607c0.418-0.645,0.627-1.34,0.627-2.088c0-0.682-0.226-1.217-0.675-1.602
				c-0.45-0.385-1.078-0.578-1.885-0.578c-0.535,0-1.114,0.094-1.738,0.283c-0.623,0.188-1.232,0.477-1.826,0.865h-0.089v-1.854
				c0.418-0.207,0.976-0.395,1.673-0.564c0.697-0.172,1.372-0.256,2.025-0.256c1.347,0,2.402,0.324,3.168,0.975
				c0.765,0.65,1.146,1.531,1.146,2.643c0,0.5-0.063,0.967-0.189,1.398c-0.127,0.434-0.313,0.844-0.561,1.23
				c-0.229,0.365-0.498,0.725-0.808,1.078c-0.309,0.352-0.684,0.744-1.125,1.174c-0.629,0.617-1.279,1.215-1.95,1.795
				s-1.297,1.117-1.88,1.611h7.069V280.367z"/>
			<path fill="#FFFFFF" d="M334.851,294.631c-0.948,0.455-1.849,0.809-2.701,1.061c-0.854,0.252-1.759,0.379-2.717,0.379
				c-1.222,0-2.342-0.18-3.361-0.539c-1.019-0.357-1.892-0.9-2.618-1.627c-0.736-0.727-1.307-1.645-1.71-2.754
				c-0.404-1.111-0.605-2.406-0.605-3.891c0-2.766,0.759-4.934,2.277-6.508s3.524-2.361,6.018-2.361
				c0.969,0,1.919,0.135,2.853,0.408c0.934,0.271,1.789,0.605,2.565,0.998v3.164h-0.15c-0.868-0.676-1.764-1.195-2.688-1.559
				c-0.923-0.363-1.824-0.545-2.701-0.545c-1.615,0-2.89,0.543-3.822,1.627c-0.934,1.084-1.4,2.676-1.4,4.775
				c0,2.039,0.456,3.605,1.37,4.699c0.913,1.096,2.197,1.643,3.853,1.643c0.574,0,1.16-0.074,1.756-0.227
				c0.595-0.15,1.13-0.348,1.604-0.59c0.414-0.213,0.803-0.438,1.166-0.674s0.65-0.441,0.863-0.613h0.15V294.631z"/>
			<path fill="#FFFFFF" d="M363.171,295.691h-2.846v-9.627c0-0.727-0.032-1.428-0.098-2.104c-0.066-0.678-0.205-1.217-0.416-1.621
				c-0.232-0.434-0.565-0.762-1-0.982c-0.434-0.223-1.059-0.334-1.877-0.334c-0.797,0-1.594,0.199-2.391,0.598
				c-0.798,0.398-1.595,0.906-2.393,1.521c0.031,0.232,0.056,0.502,0.076,0.811c0.021,0.307,0.03,0.613,0.03,0.916v10.822h-2.846
				v-9.627c0-0.748-0.033-1.455-0.099-2.127s-0.204-1.209-0.416-1.611c-0.232-0.436-0.565-0.76-0.999-0.977s-1.06-0.326-1.877-0.326
				c-0.777,0-1.557,0.191-2.339,0.576c-0.782,0.383-1.562,0.871-2.338,1.467v12.625h-2.846v-16.908h2.846v1.877
				c0.888-0.736,1.772-1.313,2.656-1.725c0.883-0.414,1.824-0.621,2.822-0.621c1.15,0,2.127,0.242,2.93,0.727
				c0.802,0.484,1.4,1.154,1.793,2.014c1.15-0.969,2.2-1.668,3.148-2.098c0.949-0.428,1.963-0.643,3.043-0.643
				c1.856,0,3.227,0.563,4.109,1.688s1.324,2.697,1.324,4.715V295.691z"/>
			<path fill="#FFFFFF" d="M389.767,272.139l-10.854,28.154h-2.618l10.808-28.154H389.767z"/>
			<path fill="#FFFFFF" d="M416.604,290.816c0,1.545-0.638,2.811-1.914,3.801c-1.277,0.988-3.02,1.482-5.23,1.482
				c-1.251,0-2.398-0.148-3.443-0.447c-1.044-0.297-1.92-0.623-2.626-0.975v-3.195h0.151c0.898,0.676,1.897,1.215,2.997,1.613
				s2.154,0.598,3.163,0.598c1.252,0,2.23-0.203,2.938-0.605c0.706-0.404,1.059-1.039,1.059-1.908c0-0.666-0.191-1.17-0.574-1.514
				c-0.384-0.342-1.121-0.635-2.211-0.877c-0.403-0.092-0.931-0.197-1.581-0.318c-0.651-0.121-1.244-0.252-1.778-0.393
				c-1.484-0.395-2.536-0.973-3.156-1.734c-0.621-0.762-0.932-1.697-0.932-2.807c0-0.697,0.145-1.354,0.432-1.969
				c0.288-0.615,0.725-1.166,1.31-1.65c0.565-0.475,1.284-0.85,2.157-1.127c0.872-0.277,1.849-0.416,2.929-0.416
				c1.009,0,2.03,0.123,3.065,0.371c1.034,0.246,1.895,0.547,2.58,0.9v3.043h-0.15c-0.727-0.535-1.61-0.986-2.649-1.355
				s-2.059-0.553-3.058-0.553c-1.039,0-1.917,0.199-2.634,0.598s-1.075,0.992-1.075,1.779c0,0.695,0.218,1.221,0.651,1.574
				c0.424,0.354,1.11,0.641,2.059,0.863c0.524,0.121,1.112,0.242,1.764,0.363c0.65,0.121,1.193,0.23,1.627,0.332
				c1.322,0.303,2.341,0.822,3.058,1.559C416.246,288.598,416.604,289.586,416.604,290.816z"/>
			<path fill="#FFFFFF" d="M428.192,280.367h-8.896v-1.844c0.617-0.529,1.236-1.059,1.857-1.588s1.198-1.057,1.734-1.58
				c1.129-1.094,1.903-1.963,2.32-2.607c0.418-0.645,0.627-1.34,0.627-2.088c0-0.682-0.226-1.217-0.675-1.602
				c-0.45-0.385-1.078-0.578-1.885-0.578c-0.535,0-1.114,0.094-1.738,0.283c-0.623,0.188-1.232,0.477-1.826,0.865h-0.089v-1.854
				c0.418-0.207,0.976-0.395,1.673-0.564c0.697-0.172,1.372-0.256,2.025-0.256c1.347,0,2.402,0.324,3.168,0.975
				c0.765,0.65,1.146,1.531,1.146,2.643c0,0.5-0.063,0.967-0.189,1.398c-0.127,0.434-0.313,0.844-0.561,1.23
				c-0.229,0.365-0.498,0.725-0.808,1.078c-0.309,0.352-0.684,0.744-1.125,1.174c-0.629,0.617-1.279,1.215-1.95,1.795
				s-1.297,1.117-1.88,1.611h7.069V280.367z"/>
			<path fill="#FFFFFF" d="M456.777,295.691h-2.846v-1.771c-0.816,0.707-1.67,1.256-2.558,1.65c-0.888,0.393-1.852,0.59-2.892,0.59
				c-2.018,0-3.62-0.777-4.806-2.33c-1.186-1.555-1.778-3.709-1.778-6.465c0-1.432,0.204-2.709,0.613-3.828
				c0.408-1.121,0.961-2.074,1.657-2.861c0.687-0.768,1.485-1.354,2.399-1.756c0.913-0.404,1.859-0.605,2.838-0.605
				c0.888,0,1.675,0.094,2.361,0.279c0.687,0.188,1.408,0.477,2.164,0.871v-7.326h2.846V295.691z M453.932,291.529v-9.703
				c-0.767-0.344-1.453-0.58-2.059-0.711c-0.605-0.133-1.266-0.197-1.982-0.197c-1.595,0-2.836,0.555-3.724,1.664
				c-0.888,1.111-1.332,2.686-1.332,4.723c0,2.008,0.343,3.535,1.029,4.58c0.687,1.043,1.786,1.566,3.3,1.566
				c0.808,0,1.625-0.18,2.452-0.537C452.443,292.555,453.216,292.094,453.932,291.529z"/>
			<path fill="#FFFFFF" d="M477,278.783l-9.869,23.145h-3.042l3.148-7.055l-6.735-16.09h3.088l5.191,12.533l5.237-12.533H477z"/>
			<path fill="#FFFFFF" d="M494.861,295.691h-2.846v-9.627c0-0.777-0.045-1.506-0.136-2.188s-0.257-1.213-0.499-1.598
				c-0.253-0.424-0.616-0.738-1.09-0.945c-0.475-0.207-1.09-0.311-1.848-0.311c-0.776,0-1.589,0.191-2.437,0.576
				c-0.848,0.383-1.66,0.871-2.437,1.467v12.625h-2.846v-16.908h2.846v1.877c0.888-0.736,1.806-1.313,2.754-1.725
				c0.949-0.414,1.923-0.621,2.922-0.621c1.826,0,3.219,0.549,4.178,1.65c0.959,1.1,1.438,2.684,1.438,4.752V295.691z"/>
			<path fill="#FFFFFF" d="M514.494,287.533h-12.457c0,1.039,0.156,1.943,0.469,2.717c0.313,0.771,0.742,1.404,1.287,1.898
				c0.524,0.484,1.147,0.848,1.869,1.09c0.721,0.242,1.516,0.363,2.384,0.363c1.15,0,2.309-0.229,3.474-0.688
				c1.166-0.459,1.996-0.912,2.49-1.355h0.151v3.104c-0.959,0.402-1.938,0.742-2.937,1.014c-0.999,0.273-2.049,0.408-3.148,0.408
				c-2.806,0-4.995-0.758-6.569-2.277s-2.361-3.676-2.361-6.471c0-2.766,0.754-4.961,2.263-6.584
				c1.509-1.625,3.494-2.438,5.957-2.438c2.28,0,4.038,0.666,5.274,1.998s1.854,3.225,1.854,5.676V287.533z M511.725,285.354
				c-0.011-1.494-0.387-2.65-1.128-3.467c-0.742-0.818-1.87-1.227-3.384-1.227c-1.523,0-2.737,0.449-3.64,1.348
				c-0.903,0.898-1.415,2.014-1.536,3.346H511.725z"/>
			<path fill="#FFFFFF" d="M530.887,290.816c0,1.545-0.638,2.811-1.914,3.801c-1.277,0.988-3.02,1.482-5.23,1.482
				c-1.251,0-2.398-0.148-3.443-0.447c-1.044-0.297-1.92-0.623-2.626-0.975v-3.195h0.151c0.898,0.676,1.897,1.215,2.997,1.613
				s2.154,0.598,3.163,0.598c1.252,0,2.23-0.203,2.938-0.605c0.706-0.404,1.059-1.039,1.059-1.908c0-0.666-0.191-1.17-0.574-1.514
				c-0.384-0.342-1.121-0.635-2.211-0.877c-0.403-0.092-0.931-0.197-1.581-0.318c-0.651-0.121-1.244-0.252-1.778-0.393
				c-1.484-0.395-2.536-0.973-3.156-1.734c-0.621-0.762-0.932-1.697-0.932-2.807c0-0.697,0.145-1.354,0.432-1.969
				c0.288-0.615,0.725-1.166,1.31-1.65c0.565-0.475,1.284-0.85,2.157-1.127c0.872-0.277,1.849-0.416,2.929-0.416
				c1.009,0,2.03,0.123,3.065,0.371c1.034,0.246,1.895,0.547,2.58,0.9v3.043h-0.15c-0.727-0.535-1.61-0.986-2.649-1.355
				s-2.059-0.553-3.058-0.553c-1.039,0-1.917,0.199-2.634,0.598s-1.075,0.992-1.075,1.779c0,0.695,0.218,1.221,0.651,1.574
				c0.424,0.354,1.11,0.641,2.059,0.863c0.524,0.121,1.112,0.242,1.764,0.363c0.65,0.121,1.193,0.23,1.627,0.332
				c1.322,0.303,2.341,0.822,3.058,1.559C530.529,288.598,530.887,289.586,530.887,290.816z"/>
		</g>
	</g>
</g>
</svg>
