<?xml version="1.0" encoding="utf-8"?>
<!-- Generator: Adobe Illustrator 16.0.0, SVG Export Plug-In . SVG Version: 6.00 Build 0)  -->
<!DOCTYPE svg PUBLIC "-//W3C//DTD SVG 1.1//EN" "http://www.w3.org/Graphics/SVG/1.1/DTD/svg11.dtd">
<svg version="1.1" id="Layer_2" xmlns="http://www.w3.org/2000/svg" xmlns:xlink="http://www.w3.org/1999/xlink" x="0px" y="0px"
	 width="962px" height="314px" viewBox="0 0 962 314" enable-background="new 0 0 962 314" xml:space="preserve">
<g id="step7White">
	<path fill="#291159" fill-opacity="0.8" stroke="#FFFFFF" stroke-width="3" stroke-miterlimit="10" d="M962,302
		c0,6.627-5.373,12-12,12H12c-6.627,0-12-5.373-12-12V12C0,5.373,5.373,0,12,0h938c6.627,0,12,5.373,12,12V302z"/>
	<g>
		<g enable-background="new    ">
			<path fill="#FFFFFF" d="M122.149,97.95h-3.891l-7.537-8.961h-4.224v8.961h-2.997V75.411h6.313c1.361,0,2.498,0.089,3.405,0.267
				c0.908,0.177,1.727,0.491,2.452,0.944c0.817,0.517,1.456,1.164,1.915,1.945c0.459,0.782,0.688,1.773,0.688,2.975
				c0,1.625-0.409,2.984-1.227,4.079c-0.816,1.097-1.942,1.92-3.375,2.477L122.149,97.95z M115.142,81.753
				c0-0.646-0.114-1.219-0.341-1.718c-0.228-0.5-0.604-0.921-1.128-1.264c-0.434-0.293-0.948-0.497-1.544-0.613
				s-1.297-0.174-2.104-0.174h-3.527v8.506h3.027c0.948,0,1.775-0.083,2.481-0.249c0.706-0.167,1.308-0.478,1.802-0.931
				c0.454-0.424,0.79-0.911,1.006-1.461C115.033,83.301,115.142,82.602,115.142,81.753z"/>
			<path fill="#FFFFFF" d="M137.362,97.95h-2.831v-1.801c-0.252,0.171-0.593,0.411-1.021,0.719
				c-0.429,0.309-0.846,0.554-1.249,0.734c-0.475,0.23-1.02,0.426-1.635,0.582c-0.616,0.156-1.337,0.233-2.165,0.233
				c-1.523,0-2.814-0.504-3.875-1.514c-1.06-1.009-1.589-2.295-1.589-3.858c0-1.281,0.275-2.318,0.825-3.11s1.334-1.415,2.354-1.87
				c1.029-0.453,2.266-0.762,3.708-0.923c1.443-0.161,2.992-0.282,4.647-0.363v-0.438c0-0.646-0.113-1.183-0.341-1.605
				c-0.228-0.424-0.552-0.756-0.977-0.998c-0.403-0.231-0.888-0.389-1.453-0.47c-0.564-0.081-1.155-0.121-1.771-0.121
				c-0.747,0-1.58,0.099-2.498,0.295c-0.918,0.197-1.867,0.482-2.846,0.855h-0.151v-2.893c0.555-0.149,1.357-0.316,2.407-0.499
				c1.049-0.182,2.083-0.271,3.103-0.271c1.19,0,2.229,0.099,3.111,0.295s1.647,0.531,2.293,1.007
				c0.636,0.464,1.12,1.063,1.453,1.802c0.333,0.736,0.5,1.649,0.5,2.739V97.95L137.362,97.95z M134.531,93.787v-4.708
				c-0.868,0.052-1.89,0.126-3.065,0.229c-1.175,0.101-2.105,0.247-2.792,0.438c-0.816,0.232-1.479,0.594-1.982,1.082
				c-0.505,0.49-0.757,1.163-0.757,2.021c0,0.969,0.292,1.698,0.878,2.188c0.585,0.49,1.478,0.734,2.679,0.734
				c0.999,0,1.912-0.194,2.74-0.583C133.059,94.8,133.825,94.332,134.531,93.787z"/>
			<path fill="#FFFFFF" d="M151.621,97.799c-0.535,0.142-1.118,0.257-1.749,0.349c-0.63,0.09-1.192,0.136-1.688,0.136
				c-1.727,0-3.038-0.464-3.937-1.393c-0.897-0.93-1.347-2.417-1.347-4.466v-8.99h-1.922v-2.394h1.922v-4.857h2.846v4.857h5.874
				v2.394h-5.874v7.704c0,0.888,0.021,1.582,0.062,2.081c0.04,0.5,0.182,0.967,0.424,1.399c0.222,0.403,0.526,0.699,0.916,0.887
				c0.389,0.187,0.98,0.279,1.778,0.279c0.465,0,0.948-0.067,1.453-0.205c0.504-0.136,0.868-0.25,1.09-0.34h0.151V97.799z"/>
			<path fill="#FFFFFF" d="M158.114,78.211h-3.209v-2.95h3.209V78.211z M157.934,97.95h-2.847V81.041h2.847V97.95z"/>
			<path fill="#FFFFFF" d="M177.976,89.503c0,2.756-0.707,4.931-2.119,6.524c-1.413,1.594-3.307,2.391-5.677,2.391
				c-2.393,0-4.291-0.797-5.699-2.391c-1.407-1.595-2.111-3.77-2.111-6.524c0-2.754,0.704-4.932,2.111-6.53
				c1.408-1.601,3.308-2.399,5.699-2.399c2.37,0,4.264,0.8,5.677,2.399C177.269,84.572,177.976,86.748,177.976,89.503z
				 M175.037,89.503c0-2.188-0.429-3.815-1.286-4.882c-0.856-1.063-2.049-1.597-3.571-1.597c-1.545,0-2.742,0.532-3.596,1.597
				c-0.854,1.065-1.278,2.692-1.278,4.882c0,2.119,0.429,3.728,1.286,4.821c0.857,1.095,2.054,1.644,3.588,1.644
				c1.514,0,2.701-0.543,3.563-1.628C174.606,93.256,175.037,91.644,175.037,89.503z"/>
			<path fill="#FFFFFF" d="M207.688,89.503c0,2.756-0.707,4.931-2.119,6.524c-1.413,1.594-3.306,2.391-5.677,2.391
				c-2.393,0-4.291-0.797-5.699-2.391c-1.407-1.595-2.111-3.77-2.111-6.524c0-2.754,0.704-4.932,2.111-6.53
				c1.408-1.601,3.308-2.399,5.699-2.399c2.371,0,4.264,0.8,5.677,2.399C206.981,84.572,207.688,86.748,207.688,89.503z
				 M204.751,89.503c0-2.188-0.429-3.815-1.286-4.882c-0.856-1.063-2.049-1.597-3.571-1.597c-1.544,0-2.742,0.532-3.596,1.597
				c-0.854,1.065-1.278,2.692-1.278,4.882c0,2.119,0.429,3.728,1.287,4.821c0.856,1.095,2.053,1.644,3.587,1.644
				c1.514,0,2.702-0.543,3.563-1.628C204.32,93.256,204.751,91.644,204.751,89.503z"/>
			<path fill="#FFFFFF" d="M221.189,77.152h-0.151c-0.313-0.091-0.722-0.184-1.227-0.28c-0.504-0.096-0.948-0.144-1.332-0.144
				c-1.222,0-2.106,0.271-2.656,0.81c-0.55,0.54-0.824,1.518-0.824,2.931v0.573h5.131v2.394h-5.041v14.516h-2.846V83.435h-1.922
				v-2.394h1.922v-0.56c0-2.008,0.5-3.55,1.499-4.624c0.999-1.075,2.442-1.612,4.329-1.612c0.636,0,1.208,0.03,1.718,0.091
				c0.51,0.062,0.978,0.132,1.4,0.213V77.152L221.189,77.152z"/>
			<path fill="#FFFFFF" d="M242.669,97.799c-0.535,0.142-1.118,0.257-1.749,0.349c-0.631,0.09-1.192,0.136-1.688,0.136
				c-1.727,0-3.037-0.464-3.937-1.393c-0.898-0.93-1.347-2.417-1.347-4.466v-8.99h-1.923v-2.394h1.923v-4.857h2.846v4.857h5.873
				v2.394h-5.873v7.704c0,0.888,0.021,1.582,0.062,2.081c0.04,0.5,0.182,0.967,0.424,1.399c0.222,0.403,0.526,0.699,0.915,0.887
				c0.389,0.187,0.98,0.279,1.778,0.279c0.465,0,0.948-0.067,1.452-0.205c0.506-0.136,0.868-0.25,1.091-0.34h0.151L242.669,97.799
				L242.669,97.799z"/>
			<path fill="#FFFFFF" d="M260.241,97.95h-2.846v-9.627c0-0.776-0.045-1.506-0.137-2.188c-0.091-0.682-0.257-1.213-0.499-1.598
				c-0.253-0.424-0.615-0.738-1.09-0.945c-0.475-0.206-1.09-0.312-1.848-0.312c-0.776,0-1.589,0.192-2.438,0.576
				c-0.848,0.383-1.659,0.872-2.437,1.468v12.624h-2.846V74.397h2.846v8.521c0.888-0.735,1.806-1.312,2.754-1.725
				c0.949-0.414,1.923-0.621,2.922-0.621c1.826,0,3.219,0.55,4.178,1.65c0.96,1.1,1.438,2.684,1.438,4.752L260.241,97.95
				L260.241,97.95z"/>
			<path fill="#FFFFFF" d="M279.874,89.791h-12.457c0,1.039,0.156,1.944,0.469,2.718c0.313,0.771,0.742,1.404,1.287,1.898
				c0.524,0.484,1.147,0.849,1.869,1.09c0.722,0.242,1.517,0.363,2.384,0.363c1.15,0,2.31-0.229,3.475-0.688
				c1.166-0.459,1.996-0.911,2.49-1.355h0.15v3.104c-0.959,0.402-1.938,0.741-2.937,1.014s-2.05,0.409-3.148,0.409
				c-2.806,0-4.995-0.76-6.569-2.278c-1.573-1.519-2.36-3.676-2.36-6.471c0-2.766,0.754-4.96,2.263-6.584
				c1.509-1.625,3.494-2.438,5.957-2.438c2.28,0,4.038,0.666,5.274,1.998c1.235,1.332,1.854,3.226,1.854,5.676V89.791
				L279.874,89.791z M277.104,87.612c-0.012-1.494-0.388-2.648-1.128-3.467c-0.742-0.817-1.87-1.228-3.385-1.228
				c-1.522,0-2.736,0.449-3.64,1.349c-0.903,0.897-1.415,2.014-1.536,3.346H277.104z"/>
			<path fill="#FFFFFF" d="M310.058,82.224c0,0.998-0.175,1.925-0.522,2.776c-0.348,0.854-0.835,1.593-1.461,2.218
				c-0.776,0.776-1.695,1.359-2.754,1.749c-1.062,0.389-2.397,0.583-4.012,0.583h-2.997v8.399h-2.997V75.411h6.115
				c1.353,0,2.497,0.114,3.436,0.341c0.939,0.229,1.771,0.583,2.498,1.067c0.856,0.575,1.521,1.292,1.99,2.149
				C309.822,79.826,310.058,80.911,310.058,82.224z M306.938,82.299c0-0.777-0.138-1.453-0.408-2.028
				c-0.273-0.575-0.688-1.045-1.242-1.408c-0.483-0.313-1.036-0.537-1.657-0.673c-0.62-0.137-1.404-0.204-2.354-0.204h-2.967v9.006
				h2.527c1.211,0,2.194-0.107,2.951-0.325c0.757-0.217,1.372-0.563,1.847-1.036c0.476-0.484,0.811-0.994,1.008-1.528
				C306.84,83.565,306.938,82.965,306.938,82.299z"/>
			<path fill="#FFFFFF" d="M324.33,84.146h-0.151c-0.424-0.102-0.835-0.174-1.232-0.22c-0.399-0.045-0.87-0.067-1.415-0.067
				c-0.879,0-1.728,0.194-2.543,0.582c-0.818,0.389-1.605,0.891-2.361,1.506V97.95h-2.846V81.041h2.846v2.498
				c1.13-0.907,2.126-1.552,2.989-1.93c0.861-0.379,1.743-0.568,2.642-0.568c0.494,0,0.854,0.015,1.074,0.038
				c0.222,0.025,0.555,0.073,0.999,0.145L324.33,84.146L324.33,84.146z"/>
			<path fill="#FFFFFF" d="M341.42,89.503c0,2.756-0.707,4.931-2.119,6.524c-1.413,1.594-3.306,2.391-5.677,2.391
				c-2.392,0-4.291-0.797-5.699-2.391c-1.407-1.595-2.11-3.77-2.11-6.524c0-2.754,0.703-4.932,2.11-6.53
				c1.408-1.601,3.309-2.399,5.699-2.399c2.371,0,4.264,0.8,5.677,2.399C340.713,84.572,341.42,86.748,341.42,89.503z
				 M338.482,89.503c0-2.188-0.43-3.815-1.286-4.882c-0.857-1.063-2.05-1.597-3.572-1.597c-1.544,0-2.742,0.532-3.595,1.597
				c-0.854,1.065-1.279,2.692-1.279,4.882c0,2.119,0.429,3.728,1.287,4.821c0.856,1.095,2.053,1.644,3.587,1.644
				c1.514,0,2.702-0.543,3.563-1.628C338.052,93.256,338.482,91.644,338.482,89.503z"/>
			<path fill="#FFFFFF" d="M354.604,97.799c-0.534,0.142-1.117,0.257-1.748,0.349c-0.632,0.09-1.193,0.136-1.688,0.136
				c-1.726,0-3.037-0.464-3.936-1.393c-0.899-0.93-1.348-2.417-1.348-4.466v-8.99h-1.923v-2.394h1.923v-4.857h2.847v4.857h5.873
				v2.394h-5.873v7.704c0,0.888,0.02,1.582,0.061,2.081c0.04,0.5,0.182,0.967,0.424,1.399c0.223,0.403,0.526,0.699,0.915,0.887
				c0.39,0.187,0.981,0.279,1.778,0.279c0.465,0,0.949-0.067,1.453-0.205c0.505-0.136,0.868-0.25,1.09-0.34h0.152V97.799
				L354.604,97.799z"/>
			<path fill="#FFFFFF" d="M372.45,89.503c0,2.756-0.707,4.931-2.119,6.524c-1.413,1.594-3.306,2.391-5.677,2.391
				c-2.393,0-4.291-0.797-5.699-2.391c-1.407-1.595-2.111-3.77-2.111-6.524c0-2.754,0.704-4.932,2.111-6.53
				c1.408-1.601,3.308-2.399,5.699-2.399c2.371,0,4.264,0.8,5.677,2.399C371.743,84.572,372.45,86.748,372.45,89.503z
				 M369.513,89.503c0-2.188-0.429-3.815-1.286-4.882c-0.856-1.063-2.049-1.597-3.571-1.597c-1.544,0-2.742,0.532-3.596,1.597
				c-0.854,1.065-1.278,2.692-1.278,4.882c0,2.119,0.429,3.728,1.287,4.821c0.856,1.095,2.053,1.644,3.587,1.644
				c1.514,0,2.702-0.543,3.563-1.628C369.082,93.256,369.513,91.644,369.513,89.503z"/>
			<path fill="#FFFFFF" d="M390.991,97.95h-2.847v-9.627c0-0.776-0.045-1.506-0.136-2.188s-0.257-1.213-0.499-1.598
				c-0.253-0.424-0.616-0.738-1.09-0.945c-0.475-0.206-1.09-0.312-1.848-0.312c-0.776,0-1.589,0.192-2.438,0.576
				c-0.848,0.383-1.66,0.872-2.437,1.468v12.624h-2.847V81.041h2.847v1.877c0.888-0.735,1.806-1.312,2.754-1.725
				c0.949-0.414,1.923-0.621,2.922-0.621c1.826,0,3.219,0.55,4.178,1.65c0.959,1.1,1.438,2.684,1.438,4.752L390.991,97.95
				L390.991,97.95z"/>
			<path fill="#FFFFFF" d="M425.367,75.411l-8.204,22.539h-3.996l-8.204-22.539h3.209l7.069,19.83l7.067-19.83H425.367z"/>
			<path fill="#FFFFFF" d="M441.458,89.503c0,2.756-0.707,4.931-2.119,6.524c-1.413,1.594-3.306,2.391-5.677,2.391
				c-2.393,0-4.291-0.797-5.699-2.391c-1.407-1.595-2.111-3.77-2.111-6.524c0-2.754,0.704-4.932,2.111-6.53
				c1.408-1.601,3.309-2.399,5.699-2.399c2.371,0,4.264,0.8,5.677,2.399C440.751,84.572,441.458,86.748,441.458,89.503z
				 M438.521,89.503c0-2.188-0.43-3.815-1.286-4.882c-0.857-1.063-2.05-1.597-3.572-1.597c-1.544,0-2.742,0.532-3.595,1.597
				c-0.854,1.065-1.279,2.692-1.279,4.882c0,2.119,0.429,3.728,1.287,4.821c0.856,1.095,2.053,1.644,3.587,1.644
				c1.514,0,2.702-0.543,3.563-1.628C438.09,93.256,438.521,91.644,438.521,89.503z"/>
			<path fill="#FFFFFF" d="M448.737,97.95h-2.847V74.397h2.847V97.95z"/>
			<path fill="#FFFFFF" d="M468.385,97.95h-2.846v-1.877c-0.958,0.757-1.877,1.337-2.754,1.74c-0.879,0.404-1.848,0.604-2.906,0.604
				c-1.776,0-3.159-0.542-4.147-1.627c-0.988-1.084-1.482-2.677-1.482-4.774V81.041h2.846v9.627c0,0.858,0.04,1.594,0.121,2.203
				c0.08,0.61,0.252,1.134,0.515,1.566c0.272,0.444,0.626,0.767,1.061,0.969c0.434,0.202,1.064,0.303,1.892,0.303
				c0.736,0,1.541-0.19,2.414-0.574c0.873-0.385,1.688-0.873,2.444-1.469V81.041h2.846V97.95H468.385z"/>
			<path fill="#FFFFFF" d="M498.658,97.95h-2.847v-9.627c0-0.727-0.031-1.428-0.098-2.104c-0.065-0.678-0.205-1.218-0.416-1.62
				c-0.231-0.435-0.564-0.762-1-0.983c-0.434-0.223-1.059-0.334-1.877-0.334c-0.797,0-1.594,0.2-2.391,0.6
				c-0.798,0.397-1.596,0.904-2.394,1.521c0.031,0.232,0.057,0.503,0.076,0.812c0.021,0.308,0.03,0.612,0.03,0.916v10.821h-2.847
				v-9.627c0-0.747-0.032-1.455-0.099-2.127c-0.064-0.671-0.204-1.208-0.416-1.611c-0.231-0.435-0.564-0.76-0.999-0.977
				c-0.434-0.217-1.06-0.326-1.877-0.326c-0.777,0-1.557,0.192-2.339,0.576c-0.782,0.383-1.562,0.872-2.338,1.468v12.624h-2.846
				v-16.91h2.846v1.877c0.888-0.735,1.771-1.312,2.656-1.725c0.883-0.414,1.823-0.621,2.821-0.621c1.15,0,2.127,0.242,2.931,0.728
				c0.802,0.483,1.399,1.154,1.793,2.014c1.149-0.969,2.2-1.668,3.147-2.097c0.949-0.43,1.963-0.645,3.043-0.645
				c1.856,0,3.228,0.563,4.109,1.688c0.883,1.126,1.324,2.696,1.324,4.715V97.95H498.658z"/>
			<path fill="#FFFFFF" d="M518.291,89.791h-12.457c0,1.039,0.156,1.944,0.469,2.718c0.313,0.771,0.742,1.404,1.287,1.898
				c0.524,0.484,1.147,0.849,1.869,1.09c0.721,0.242,1.516,0.363,2.384,0.363c1.15,0,2.31-0.229,3.475-0.688
				c1.166-0.459,1.995-0.911,2.489-1.355h0.151v3.104c-0.959,0.402-1.938,0.741-2.938,1.014s-2.049,0.409-3.147,0.409
				c-2.806,0-4.995-0.76-6.569-2.278s-2.36-3.676-2.36-6.471c0-2.766,0.754-4.96,2.263-6.584c1.509-1.625,3.494-2.438,5.957-2.438
				c2.28,0,4.038,0.666,5.273,1.998c1.236,1.332,1.854,3.226,1.854,5.676V89.791L518.291,89.791z M515.521,87.612
				c-0.012-1.494-0.388-2.648-1.129-3.467c-0.741-0.817-1.869-1.228-3.384-1.228c-1.522,0-2.736,0.449-3.64,1.349
				c-0.903,0.897-1.415,2.014-1.536,3.346H515.521z"/>
			<path fill="#FFFFFF" d="M542.283,97.799c-0.535,0.142-1.118,0.257-1.749,0.349c-0.631,0.09-1.193,0.136-1.688,0.136
				c-1.726,0-3.037-0.464-3.936-1.393c-0.899-0.93-1.347-2.417-1.347-4.466v-8.99h-1.924v-2.394h1.924v-4.857h2.846v4.857h5.873
				v2.394h-5.873v7.704c0,0.888,0.02,1.582,0.061,2.081c0.04,0.5,0.183,0.967,0.425,1.399c0.222,0.403,0.525,0.699,0.914,0.887
				c0.39,0.187,0.981,0.279,1.778,0.279c0.465,0,0.949-0.067,1.453-0.205c0.505-0.136,0.868-0.25,1.09-0.34h0.152L542.283,97.799
				L542.283,97.799z"/>
			<path fill="#FFFFFF" d="M560.13,89.503c0,2.756-0.707,4.931-2.119,6.524c-1.413,1.594-3.306,2.391-5.677,2.391
				c-2.392,0-4.291-0.797-5.699-2.391c-1.406-1.595-2.11-3.77-2.11-6.524c0-2.754,0.703-4.932,2.11-6.53
				c1.408-1.601,3.309-2.399,5.699-2.399c2.371,0,4.264,0.8,5.677,2.399C559.423,84.572,560.13,86.748,560.13,89.503z
				 M557.192,89.503c0-2.188-0.43-3.815-1.286-4.882c-0.857-1.063-2.049-1.597-3.572-1.597c-1.544,0-2.742,0.532-3.595,1.597
				c-0.854,1.065-1.279,2.692-1.279,4.882c0,2.119,0.429,3.728,1.287,4.821c0.856,1.095,2.053,1.644,3.587,1.644
				c1.514,0,2.702-0.543,3.564-1.628C556.762,93.256,557.192,91.644,557.192,89.503z"/>
			<path fill="#FFFFFF" d="M584.212,97.799c-0.535,0.142-1.118,0.257-1.749,0.349c-0.631,0.09-1.193,0.136-1.688,0.136
				c-1.727,0-3.037-0.464-3.937-1.393c-0.898-0.93-1.347-2.417-1.347-4.466v-8.99h-1.923v-2.394h1.923v-4.857h2.846v4.857h5.873
				v2.394h-5.873v7.704c0,0.888,0.021,1.582,0.062,2.081c0.04,0.5,0.182,0.967,0.424,1.399c0.222,0.403,0.525,0.699,0.915,0.887
				c0.389,0.187,0.98,0.279,1.777,0.279c0.466,0,0.949-0.067,1.453-0.205c0.505-0.136,0.868-0.25,1.09-0.34h0.152L584.212,97.799
				L584.212,97.799z"/>
			<path fill="#FFFFFF" d="M601.784,97.95h-2.847v-9.627c0-0.776-0.045-1.506-0.136-2.188s-0.257-1.213-0.499-1.598
				c-0.253-0.424-0.616-0.738-1.09-0.945c-0.475-0.206-1.09-0.312-1.848-0.312c-0.776,0-1.589,0.192-2.438,0.576
				c-0.848,0.383-1.66,0.872-2.437,1.468v12.624h-2.847V74.397h2.847v8.521c0.888-0.735,1.806-1.312,2.754-1.725
				c0.949-0.414,1.923-0.621,2.922-0.621c1.826,0,3.219,0.55,4.178,1.65c0.959,1.1,1.438,2.684,1.438,4.752L601.784,97.95
				L601.784,97.95z"/>
			<path fill="#FFFFFF" d="M621.417,89.791H608.96c0,1.039,0.156,1.944,0.469,2.718c0.313,0.771,0.742,1.404,1.287,1.898
				c0.524,0.484,1.147,0.849,1.869,1.09c0.721,0.242,1.516,0.363,2.384,0.363c1.15,0,2.31-0.229,3.475-0.688
				c1.166-0.459,1.996-0.911,2.489-1.355h0.151v3.104c-0.959,0.402-1.938,0.741-2.938,1.014c-0.998,0.272-2.049,0.409-3.147,0.409
				c-2.806,0-4.995-0.76-6.569-2.278c-1.573-1.519-2.36-3.676-2.36-6.471c0-2.766,0.754-4.96,2.263-6.584
				c1.509-1.625,3.494-2.438,5.957-2.438c2.28,0,4.038,0.666,5.273,1.998c1.236,1.332,1.854,3.226,1.854,5.676V89.791
				L621.417,89.791z M618.646,87.612c-0.011-1.494-0.387-2.648-1.128-3.467c-0.741-0.817-1.869-1.228-3.384-1.228
				c-1.522,0-2.736,0.449-3.64,1.349c-0.903,0.897-1.415,2.014-1.536,3.346H618.646z"/>
			<path fill="#FFFFFF" d="M651.6,82.224c0,0.998-0.174,1.925-0.521,2.776c-0.348,0.854-0.835,1.593-1.461,2.218
				c-0.776,0.776-1.695,1.359-2.754,1.749c-1.062,0.389-2.397,0.583-4.013,0.583h-2.997v8.399h-2.996V75.411h6.114
				c1.354,0,2.498,0.114,3.437,0.341c0.938,0.229,1.771,0.583,2.498,1.067c0.856,0.575,1.521,1.292,1.989,2.149
				C651.365,79.826,651.6,80.911,651.6,82.224z M648.481,82.299c0-0.777-0.138-1.453-0.408-2.028
				c-0.273-0.575-0.688-1.045-1.242-1.408c-0.484-0.313-1.036-0.537-1.657-0.673c-0.62-0.137-1.405-0.204-2.354-0.204h-2.967v9.006
				h2.527c1.211,0,2.194-0.107,2.951-0.325c0.757-0.217,1.372-0.563,1.847-1.036c0.476-0.484,0.811-0.994,1.007-1.528
				C648.383,83.565,648.481,82.965,648.481,82.299z"/>
			<path fill="#FFFFFF" d="M658.198,97.95h-2.847V74.397h2.847V97.95z"/>
			<path fill="#FFFFFF" d="M676.969,97.95h-2.831v-1.801c-0.252,0.171-0.593,0.411-1.021,0.719c-0.43,0.309-0.846,0.554-1.249,0.734
				c-0.476,0.23-1.021,0.426-1.635,0.582c-0.615,0.156-1.337,0.233-2.164,0.233c-1.524,0-2.816-0.504-3.875-1.514
				c-1.062-1.009-1.591-2.295-1.591-3.858c0-1.281,0.274-2.318,0.825-3.11c0.55-0.792,1.334-1.415,2.354-1.87
				c1.028-0.453,2.266-0.762,3.708-0.923s2.992-0.282,4.646-0.363v-0.438c0-0.646-0.112-1.183-0.341-1.605
				c-0.227-0.424-0.553-0.756-0.977-0.998c-0.403-0.231-0.889-0.389-1.453-0.47s-1.155-0.121-1.771-0.121
				c-0.747,0-1.579,0.099-2.497,0.295c-0.919,0.197-1.866,0.482-2.846,0.855h-0.152v-2.893c0.557-0.149,1.357-0.316,2.407-0.499
				c1.05-0.182,2.084-0.271,3.104-0.271c1.19,0,2.228,0.099,3.11,0.295c0.884,0.196,1.647,0.531,2.293,1.007
				c0.637,0.464,1.12,1.063,1.453,1.802c0.333,0.736,0.5,1.649,0.5,2.739L676.969,97.95L676.969,97.95z M674.138,93.787v-4.708
				c-0.868,0.052-1.89,0.126-3.064,0.229c-1.177,0.101-2.106,0.247-2.793,0.438c-0.816,0.232-1.479,0.594-1.982,1.082
				c-0.505,0.49-0.757,1.163-0.757,2.021c0,0.969,0.293,1.698,0.878,2.188c0.585,0.49,1.479,0.734,2.68,0.734
				c0.998,0,1.912-0.194,2.739-0.583C672.664,94.8,673.432,94.332,674.138,93.787z"/>
			<path fill="#FFFFFF" d="M696.585,97.95h-2.846v-9.627c0-0.776-0.045-1.506-0.136-2.188c-0.092-0.682-0.258-1.213-0.5-1.598
				c-0.253-0.424-0.615-0.738-1.09-0.945c-0.475-0.206-1.09-0.312-1.848-0.312c-0.776,0-1.589,0.192-2.438,0.576
				c-0.848,0.383-1.659,0.872-2.437,1.468v12.624h-2.846V81.041h2.846v1.877c0.888-0.735,1.806-1.312,2.754-1.725
				c0.949-0.414,1.923-0.621,2.922-0.621c1.826,0,3.219,0.55,4.178,1.65c0.959,1.1,1.438,2.684,1.438,4.752L696.585,97.95
				L696.585,97.95z"/>
			<path fill="#FFFFFF" d="M714.567,96.891c-0.948,0.454-1.85,0.808-2.701,1.06c-0.854,0.252-1.759,0.379-2.717,0.379
				c-1.223,0-2.343-0.18-3.361-0.538c-1.019-0.356-1.892-0.899-2.618-1.627c-0.736-0.727-1.307-1.645-1.71-2.755
				c-0.404-1.109-0.604-2.406-0.604-3.891c0-2.766,0.759-4.935,2.276-6.508c1.519-1.574,3.524-2.361,6.019-2.361
				c0.969,0,1.919,0.136,2.853,0.408c0.935,0.271,1.789,0.604,2.565,0.999v3.163h-0.15c-0.868-0.677-1.764-1.195-2.688-1.56
				c-0.924-0.362-1.824-0.545-2.701-0.545c-1.615,0-2.891,0.543-3.822,1.627c-0.934,1.085-1.4,2.677-1.4,4.775
				c0,2.039,0.456,3.604,1.37,4.7c0.913,1.096,2.197,1.643,3.854,1.643c0.573,0,1.16-0.075,1.756-0.228
				c0.595-0.15,1.13-0.349,1.604-0.591c0.414-0.212,0.804-0.437,1.166-0.674c0.363-0.235,0.65-0.44,0.863-0.612h0.15v3.135H714.567z
				"/>
			<path fill="#FFFFFF" d="M733.563,97.95h-3.754l-6.78-7.401l-1.847,1.756v5.646h-2.846V74.397h2.846v15.105l8.22-8.462h3.588
				l-7.856,7.812L733.563,97.95z"/>
			<path fill="#FFFFFF" d="M765.457,75.411l-8.204,22.539h-3.996l-8.204-22.539h3.209l7.069,19.83l7.068-19.83H765.457z"/>
			<path fill="#FFFFFF" d="M781.548,89.503c0,2.756-0.707,4.931-2.119,6.524c-1.413,1.594-3.306,2.391-5.677,2.391
				c-2.392,0-4.291-0.797-5.699-2.391c-1.406-1.595-2.11-3.77-2.11-6.524c0-2.754,0.703-4.932,2.11-6.53
				c1.408-1.601,3.309-2.399,5.699-2.399c2.371,0,4.264,0.8,5.677,2.399C780.841,84.572,781.548,86.748,781.548,89.503z
				 M778.61,89.503c0-2.188-0.43-3.815-1.286-4.882c-0.857-1.063-2.049-1.597-3.572-1.597c-1.544,0-2.742,0.532-3.595,1.597
				c-0.854,1.065-1.279,2.692-1.279,4.882c0,2.119,0.429,3.728,1.287,4.821c0.856,1.095,2.053,1.644,3.587,1.644
				c1.514,0,2.702-0.543,3.564-1.628C778.18,93.256,778.61,91.644,778.61,89.503z"/>
			<path fill="#FFFFFF" d="M788.827,97.95h-2.846V74.397h2.846V97.95z"/>
			<path fill="#FFFFFF" d="M808.475,97.95h-2.846v-1.877c-0.958,0.757-1.877,1.337-2.754,1.74c-0.879,0.404-1.848,0.604-2.906,0.604
				c-1.775,0-3.159-0.542-4.147-1.627c-0.988-1.084-1.482-2.677-1.482-4.774V81.041h2.846v9.627c0,0.858,0.04,1.594,0.121,2.203
				c0.08,0.61,0.252,1.134,0.515,1.566c0.272,0.444,0.626,0.767,1.061,0.969c0.434,0.202,1.064,0.303,1.892,0.303
				c0.736,0,1.541-0.19,2.414-0.574c0.873-0.385,1.688-0.873,2.444-1.469V81.041h2.846V97.95H808.475z"/>
			<path fill="#FFFFFF" d="M838.748,97.95h-2.846v-9.627c0-0.727-0.032-1.428-0.099-2.104c-0.065-0.678-0.205-1.218-0.416-1.62
				c-0.231-0.435-0.564-0.762-1-0.983c-0.434-0.223-1.059-0.334-1.877-0.334c-0.797,0-1.594,0.2-2.391,0.6
				c-0.798,0.397-1.595,0.904-2.394,1.521c0.031,0.232,0.057,0.503,0.076,0.812c0.021,0.308,0.03,0.612,0.03,0.916v10.821h-2.846
				v-9.627c0-0.747-0.033-1.455-0.1-2.127c-0.064-0.671-0.204-1.208-0.416-1.611c-0.231-0.435-0.564-0.76-0.999-0.977
				c-0.434-0.217-1.06-0.326-1.877-0.326c-0.776,0-1.557,0.192-2.339,0.576c-0.782,0.383-1.562,0.872-2.338,1.468v12.624h-2.846
				v-16.91h2.846v1.877c0.888-0.735,1.771-1.312,2.656-1.725c0.883-0.414,1.823-0.621,2.821-0.621c1.15,0,2.127,0.242,2.931,0.728
				c0.802,0.483,1.399,1.154,1.793,2.014c1.149-0.969,2.2-1.668,3.147-2.097c0.949-0.43,1.963-0.645,3.043-0.645
				c1.856,0,3.228,0.563,4.109,1.688c0.883,1.126,1.324,2.696,1.324,4.715V97.95H838.748z"/>
			<path fill="#FFFFFF" d="M858.381,89.791h-12.457c0,1.039,0.156,1.944,0.469,2.718c0.313,0.771,0.742,1.404,1.287,1.898
				c0.524,0.484,1.147,0.849,1.869,1.09c0.721,0.242,1.517,0.363,2.384,0.363c1.15,0,2.31-0.229,3.475-0.688
				c1.166-0.459,1.996-0.911,2.489-1.355h0.151v3.104c-0.959,0.402-1.938,0.741-2.937,1.014s-2.05,0.409-3.148,0.409
				c-2.806,0-4.995-0.76-6.569-2.278c-1.573-1.519-2.36-3.676-2.36-6.471c0-2.766,0.754-4.96,2.263-6.584
				c1.509-1.625,3.494-2.438,5.957-2.438c2.28,0,4.038,0.666,5.274,1.998c1.235,1.332,1.854,3.226,1.854,5.676V89.791
				L858.381,89.791z M855.611,87.612c-0.012-1.494-0.388-2.648-1.128-3.467c-0.742-0.817-1.87-1.228-3.385-1.228
				c-1.522,0-2.736,0.449-3.64,1.349c-0.903,0.897-1.415,2.014-1.536,3.346H855.611z"/>
		</g>
		<line fill="none" stroke="#FFFFFF" stroke-width="2" x1="98.896" y1="104.085" x2="863.104" y2="104.085"/>
		<g>
			<g>
				<g enable-background="new    ">
					<path fill="#FFFFFF" d="M412.545,126.257l-8.204,22.538h-3.996l-8.204-22.538h3.209l7.069,19.829l7.069-19.829H412.545z"/>
					<path fill="#FFFFFF" d="M423.246,149.071c0,0.8-0.115,1.531-0.344,2.193c-0.229,0.661-0.554,1.222-0.972,1.681
						c-0.388,0.437-0.846,0.772-1.372,1.011c-0.525,0.239-1.084,0.357-1.672,0.357c-0.512,0-0.975-0.057-1.39-0.168
						s-0.837-0.285-1.267-0.521v4.131h-1.659v-13.493h1.659v1.032c0.44-0.37,0.937-0.682,1.486-0.932s1.137-0.375,1.76-0.375
						c1.188,0,2.114,0.449,2.775,1.346C422.915,146.231,423.246,147.478,423.246,149.071z M421.534,149.115
						c0-1.188-0.203-2.076-0.609-2.665c-0.406-0.588-1.03-0.882-1.871-0.882c-0.477,0-0.957,0.104-1.438,0.309
						c-0.482,0.206-0.944,0.478-1.386,0.813v5.586c0.471,0.212,0.875,0.356,1.213,0.433c0.338,0.077,0.722,0.115,1.151,0.115
						c0.923,0,1.645-0.313,2.162-0.936C421.275,151.263,421.534,150.339,421.534,149.115z"/>
				</g>
				<g enable-background="new    ">
					<path fill="#FFFFFF" d="M411.169,173.888l-6.842,16.908h-2.861l-6.796-16.908h3.088l5.237,13.457l5.192-13.457H411.169z"/>
					<path fill="#FFFFFF" d="M422.4,191.071c0,0.8-0.115,1.531-0.345,2.193c-0.229,0.661-0.553,1.222-0.971,1.681
						c-0.388,0.437-0.846,0.772-1.372,1.011c-0.526,0.239-1.084,0.357-1.672,0.357c-0.512,0-0.975-0.057-1.39-0.168
						s-0.837-0.285-1.268-0.521v4.131h-1.659v-13.493h1.659v1.032c0.441-0.37,0.938-0.682,1.487-0.932s1.137-0.375,1.76-0.375
						c1.188,0,2.114,0.449,2.775,1.346C422.069,188.231,422.4,189.478,422.4,191.071z M420.688,191.115
						c0-1.188-0.202-2.076-0.608-2.665c-0.406-0.588-1.03-0.882-1.871-0.882c-0.477,0-0.957,0.104-1.438,0.309
						c-0.481,0.206-0.943,0.478-1.386,0.813v5.586c0.472,0.212,0.875,0.356,1.213,0.433c0.338,0.077,0.723,0.115,1.152,0.115
						c0.923,0,1.644-0.313,2.162-0.936C420.429,193.263,420.688,192.339,420.688,191.115z"/>
					<path fill="#FFFFFF" d="M426.662,196.119h-1.659v-13.73h1.659V196.119z"/>
				</g>
			</g>
			<g enable-background="new    ">
				<path fill="#FFFFFF" d="M344.945,178.356h-2.847v-15.863c0-0.776-0.045-1.506-0.136-2.188s-0.257-1.213-0.5-1.598
					c-0.252-0.424-0.616-0.738-1.09-0.945c-0.475-0.206-1.09-0.312-1.847-0.312c-0.777,0-1.589,0.192-2.438,0.576
					c-0.848,0.383-1.66,0.872-2.437,1.468v12.624h-2.847v-16.908h2.847v1.878c0.888-0.736,1.806-1.313,2.755-1.726
					c0.948-0.414,1.922-0.621,2.921-0.621c1.826,0,3.219,0.55,4.178,1.65c0.958,1.1,1.438,2.684,1.438,4.752L344.945,178.356
					L344.945,178.356z"/>
				<path fill="#FFFFFF" d="M375.639,160.283h-17.951v-2.422h17.951V160.283z M375.639,166.641h-17.951v-2.422h17.951V166.641z"/>
				<path fill="#FFFFFF" d="M410.014,162.661h-19.829v-1.815h19.829V162.661z"/>
				<path fill="#FFFFFF" d="M429.722,162.661h-19.829v-1.815h19.829V162.661z"/>
				<path fill="#FFFFFF" d="M462.22,160.283h-17.951v-2.422h17.951V160.283z M462.22,166.641h-17.951v-2.422h17.951V166.641z"/>
				<path fill="#FFFFFF" d="M494.522,172.119h-15.259v-3.164c1.06-0.907,2.121-1.815,3.187-2.725
					c1.064-0.909,2.057-1.812,2.975-2.709c1.938-1.877,3.266-3.368,3.98-4.473c0.717-1.105,1.075-2.3,1.075-3.58
					c0-1.171-0.387-2.086-1.158-2.747s-1.85-0.991-3.231-0.991c-0.918,0-1.912,0.161-2.981,0.484
					c-1.069,0.321-2.113,0.815-3.133,1.481h-0.151v-3.178c0.717-0.354,1.673-0.677,2.868-0.969c1.195-0.293,2.354-0.439,3.475-0.439
					c2.312,0,4.122,0.558,5.435,1.673c1.312,1.115,1.968,2.626,1.968,4.533c0,0.857-0.108,1.657-0.325,2.399
					c-0.218,0.74-0.537,1.444-0.961,2.11c-0.396,0.626-0.855,1.241-1.386,1.848c-0.529,0.604-1.174,1.275-1.931,2.013
					c-1.08,1.061-2.193,2.087-3.345,3.081s-2.226,1.915-3.225,2.763h12.125L494.522,172.119L494.522,172.119z"/>
				<path fill="#FFFFFF" d="M503.982,172.119h-3.617v-4.313h3.617V172.119z"/>
				<path fill="#FFFFFF" d="M525.507,172.119h-15.258v-3.164c1.059-0.907,2.121-1.815,3.186-2.725
					c1.065-0.909,2.058-1.812,2.976-2.709c1.938-1.877,3.265-3.368,3.979-4.473c0.718-1.105,1.075-2.3,1.075-3.58
					c0-1.171-0.386-2.086-1.158-2.747c-0.771-0.661-1.849-0.991-3.23-0.991c-0.918,0-1.912,0.161-2.982,0.484
					c-1.068,0.321-2.112,0.815-3.133,1.481h-0.151v-3.178c0.718-0.354,1.674-0.677,2.868-0.969c1.196-0.293,2.354-0.439,3.476-0.439
					c2.311,0,4.122,0.558,5.434,1.673c1.313,1.115,1.968,2.626,1.968,4.533c0,0.857-0.107,1.657-0.324,2.399
					c-0.219,0.74-0.537,1.444-0.961,2.11c-0.396,0.626-0.855,1.241-1.387,1.848c-0.528,0.604-1.173,1.275-1.93,2.013
					c-1.08,1.061-2.194,2.087-3.345,3.081c-1.151,0.994-2.227,1.915-3.226,2.763h12.125L525.507,172.119L525.507,172.119z"/>
				<path fill="#FFFFFF" d="M545.184,159.495c0,1.969-0.225,3.754-0.673,5.358c-0.448,1.604-1.128,2.972-2.036,4.102
					c-0.918,1.15-2.067,2.039-3.45,2.664c-1.384,0.626-3.008,0.939-4.874,0.939c-0.524,0-1.021-0.028-1.483-0.084
					c-0.463-0.057-0.878-0.145-1.241-0.266v-2.892h0.151c0.293,0.152,0.706,0.296,1.241,0.432c0.535,0.138,1.13,0.205,1.786,0.205
					c2.229,0,3.979-0.669,5.244-2.006c1.267-1.337,2-3.182,2.202-5.533c-0.938,0.565-1.82,0.97-2.647,1.211
					c-0.828,0.242-1.731,0.363-2.71,0.363c-0.93,0-1.77-0.09-2.521-0.271c-0.752-0.182-1.506-0.535-2.263-1.062
					c-0.888-0.615-1.558-1.396-2.006-2.346c-0.449-0.949-0.673-2.084-0.673-3.406c0-2.301,0.756-4.172,2.27-5.615
					c1.514-1.442,3.361-2.164,5.541-2.164c1.09,0,2.1,0.17,3.027,0.508s1.74,0.845,2.437,1.521c0.857,0.838,1.52,1.915,1.983,3.232
					C544.952,155.703,545.184,157.407,545.184,159.495z M542.127,158.845c0-1.563-0.162-2.82-0.484-3.77
					c-0.322-0.948-0.768-1.686-1.332-2.21c-0.475-0.454-0.983-0.779-1.528-0.977c-0.545-0.196-1.135-0.295-1.771-0.295
					c-1.453,0-2.601,0.454-3.442,1.361c-0.842,0.908-1.265,2.186-1.265,3.829c0,0.959,0.138,1.741,0.408,2.348
					c0.273,0.604,0.732,1.136,1.378,1.589c0.454,0.313,0.954,0.521,1.499,0.629c0.545,0.104,1.15,0.158,1.816,0.158
					c0.787,0,1.584-0.105,2.391-0.317c0.809-0.212,1.564-0.52,2.271-0.923c0.01-0.213,0.021-0.422,0.037-0.629
					C542.119,159.434,542.127,159.167,542.127,158.845z"/>
				<path fill="#FFFFFF" d="M568.192,168.851l-1.682,1.68l-6.6-6.66l-6.601,6.66l-1.681-1.68l6.66-6.601l-6.66-6.6l1.681-1.68
					l6.601,6.66l6.6-6.66l1.682,1.68l-6.66,6.6L568.192,168.851z"/>
				<path fill="#FFFFFF" d="M589.005,172.119h-12.2v-2.301h4.692v-15.105h-4.692v-2.06c0.637,0,1.317-0.053,2.044-0.159
					c0.728-0.104,1.276-0.26,1.649-0.461c0.464-0.253,0.83-0.573,1.098-0.962c0.268-0.388,0.421-0.91,0.462-1.565h2.347v20.313
					h4.602L589.005,172.119L589.005,172.119z"/>
				<path fill="#FFFFFF" d="M609.969,160.843c0,4.047-0.633,7.017-1.898,8.907c-1.268,1.894-3.231,2.839-5.896,2.839
					c-2.704,0-4.68-0.958-5.926-2.875c-1.247-1.919-1.869-4.864-1.869-8.841c0-4.007,0.63-6.966,1.893-8.878
					c1.262-1.912,3.229-2.868,5.902-2.868c2.704,0,4.68,0.972,5.926,2.913C609.346,153.984,609.969,156.917,609.969,160.843z
					 M605.988,167.716c0.354-0.818,0.593-1.779,0.719-2.885c0.126-1.104,0.189-2.435,0.189-3.988c0-1.533-0.063-2.865-0.189-3.996
					c-0.126-1.13-0.371-2.088-0.734-2.875c-0.353-0.777-0.835-1.363-1.444-1.756c-0.61-0.396-1.396-0.592-2.354-0.592
					c-0.948,0-1.732,0.196-2.354,0.592c-0.621,0.393-1.113,0.987-1.478,1.784c-0.343,0.747-0.577,1.722-0.703,2.923
					c-0.127,1.2-0.188,2.518-0.188,3.95c0,1.574,0.056,2.892,0.166,3.95c0.11,1.061,0.349,2.008,0.712,2.846
					c0.333,0.787,0.805,1.389,1.415,1.803c0.609,0.413,1.421,0.62,2.43,0.62c0.948,0,1.735-0.196,2.361-0.592
					C605.161,169.108,605.646,168.513,605.988,167.716z"/>
				<path fill="#FFFFFF" d="M622.523,152.534c0,1.336-0.439,2.426-1.318,3.271c-0.88,0.845-1.958,1.267-3.234,1.267
					c-0.646,0-1.234-0.1-1.766-0.3c-0.529-0.2-0.997-0.497-1.402-0.892c-0.507-0.488-0.896-1.136-1.17-1.941
					c-0.272-0.806-0.41-1.776-0.41-2.912c0-1.165,0.125-2.197,0.375-3.098c0.25-0.899,0.648-1.7,1.195-2.4
					c0.52-0.664,1.187-1.184,2.004-1.558c0.817-0.373,1.771-0.561,2.859-0.561c0.347,0,0.638,0.016,0.873,0.044
					c0.234,0.029,0.474,0.082,0.715,0.158v1.687h-0.088c-0.165-0.089-0.413-0.173-0.746-0.251c-0.332-0.079-0.672-0.119-1.019-0.119
					c-1.267,0-2.274,0.396-3.027,1.187c-0.753,0.792-1.191,1.861-1.314,3.208c0.494-0.3,0.98-0.528,1.46-0.684
					c0.479-0.156,1.034-0.234,1.663-0.234c0.561,0,1.053,0.052,1.479,0.154c0.427,0.104,0.863,0.311,1.311,0.623
					c0.519,0.357,0.907,0.812,1.169,1.357C622.395,151.086,622.523,151.751,622.523,152.534z M620.732,152.605
					c0-0.548-0.081-1-0.242-1.359c-0.162-0.357-0.43-0.671-0.799-0.936c-0.271-0.188-0.571-0.313-0.9-0.37
					c-0.329-0.06-0.674-0.089-1.032-0.089c-0.5,0-0.965,0.06-1.395,0.177c-0.431,0.118-0.871,0.3-1.323,0.547
					c-0.013,0.13-0.021,0.255-0.027,0.375c-0.006,0.121-0.009,0.272-0.009,0.455c0,0.93,0.096,1.663,0.287,2.201
					c0.191,0.539,0.454,0.964,0.79,1.275c0.271,0.259,0.563,0.448,0.878,0.568s0.657,0.182,1.028,0.182
					c0.853,0,1.522-0.261,2.012-0.781C620.488,154.329,620.732,153.581,620.732,152.605z"/>
				<path fill="#FFFFFF" d="M633.803,150.223c0,2.358-0.37,4.09-1.106,5.192c-0.739,1.104-1.886,1.654-3.438,1.654
					c-1.577,0-2.729-0.559-3.455-1.677c-0.727-1.117-1.09-2.835-1.09-5.153c0-2.336,0.367-4.061,1.104-5.176
					c0.734-1.115,1.882-1.672,3.44-1.672c1.576,0,2.729,0.564,3.455,1.698S633.803,147.934,633.803,150.223z M631.481,154.229
					c0.206-0.478,0.346-1.036,0.419-1.681c0.072-0.646,0.109-1.42,0.109-2.325c0-0.896-0.037-1.671-0.109-2.33
					c-0.073-0.658-0.217-1.218-0.429-1.677c-0.206-0.453-0.486-0.794-0.843-1.023c-0.355-0.229-0.813-0.344-1.372-0.344
					c-0.554,0-1.011,0.113-1.372,0.344c-0.361,0.229-0.648,0.576-0.859,1.041c-0.2,0.436-0.337,1.004-0.411,1.703
					c-0.073,0.7-0.11,1.469-0.11,2.304c0,0.918,0.032,1.687,0.098,2.303c0.064,0.618,0.203,1.172,0.415,1.659
					c0.193,0.459,0.47,0.811,0.824,1.051c0.356,0.241,0.828,0.361,1.417,0.361c0.553,0,1.012-0.114,1.376-0.344
					C630.999,155.04,631.281,154.693,631.481,154.229z"/>
			</g>
		</g>
	</g>
</g>
</svg>
