<?xml version="1.0" encoding="utf-8"?>
<!-- Generator: Adobe Illustrator 16.0.0, SVG Export Plug-In . SVG Version: 6.00 Build 0)  -->
<!DOCTYPE svg PUBLIC "-//W3C//DTD SVG 1.1//EN" "http://www.w3.org/Graphics/SVG/1.1/DTD/svg11.dtd">
<svg version="1.1" id="Layer_3" xmlns="http://www.w3.org/2000/svg" xmlns:xlink="http://www.w3.org/1999/xlink" x="0px" y="0px"
	 width="1072px" height="391px" viewBox="0 0 1072 391" enable-background="new 0 0 1072 391" xml:space="preserve">
<path fill="#291159" fill-opacity="0.8" stroke="#FFFFFF" stroke-width="3" stroke-miterlimit="10" d="M1072,379
	c0,6.627-5.373,12-12,12H12c-6.627,0-12-5.373-12-12V12C0,5.373,5.373,0,12,0h1048c6.627,0,12,5.373,12,12V379z"/>
<g id="step10White_1_">
	<line fill="none" stroke="#FFFFFF" stroke-width="3" stroke-miterlimit="10" x1="103.649" y1="99.264" x2="915.819" y2="99.264"/>
	
		<line fill="none" stroke="#FFFFFF" stroke-width="3" stroke-miterlimit="10" x1="103.181" y1="142.264" x2="808.819" y2="142.264"/>
	<g>
		<g>
			<g enable-background="new    ">
				<path fill="#FFFFFF" d="M203.328,198.085H188.07v-3.164c1.06-0.908,2.122-1.816,3.186-2.725
					c1.065-0.908,2.056-1.811,2.975-2.709c1.938-1.877,3.264-3.368,3.981-4.473c0.716-1.105,1.075-2.299,1.075-3.58
					c0-1.171-0.386-2.086-1.158-2.747c-0.771-0.661-1.849-0.991-3.231-0.991c-0.918,0-1.913,0.161-2.982,0.484
					c-1.07,0.322-2.114,0.816-3.133,1.482h-0.151v-3.178c0.716-0.354,1.673-0.677,2.868-0.969c1.196-0.293,2.354-0.439,3.474-0.439
					c2.311,0,4.122,0.558,5.434,1.673c1.312,1.115,1.968,2.626,1.968,4.533c0,0.857-0.108,1.657-0.325,2.399
					c-0.217,0.741-0.538,1.445-0.961,2.111c-0.394,0.626-0.855,1.241-1.385,1.847c-0.529,0.605-1.173,1.276-1.93,2.013
					c-1.08,1.061-2.195,2.087-3.345,3.081s-2.225,1.915-3.224,2.763h12.125V198.085z"/>
				<path fill="#FFFFFF" d="M227.168,196.42c-1.231,0.565-2.576,1.058-4.034,1.476c-1.458,0.419-2.868,0.629-4.23,0.629
					c-1.756,0-3.366-0.242-4.829-0.727c-1.463-0.484-2.709-1.211-3.739-2.18c-1.04-0.979-1.842-2.203-2.407-3.671
					c-0.565-1.469-0.848-3.187-0.848-5.154c0-3.603,1.052-6.445,3.156-8.529c2.104-2.084,4.993-3.126,8.666-3.126
					c1.281,0,2.591,0.154,3.928,0.462c1.337,0.308,2.778,0.83,4.322,1.566v3.558h-0.272c-0.313-0.242-0.767-0.561-1.362-0.954
					c-0.596-0.394-1.181-0.722-1.756-0.983c-0.696-0.313-1.486-0.573-2.369-0.78c-0.883-0.206-1.885-0.31-3.005-0.31
					c-2.523,0-4.519,0.81-5.986,2.429c-1.469,1.62-2.203,3.813-2.203,6.577c0,2.916,0.767,5.185,2.301,6.804
					c1.534,1.62,3.623,2.43,6.267,2.43c0.969,0,1.935-0.096,2.899-0.288c0.963-0.191,1.809-0.438,2.535-0.741v-5.524h-6.04v-2.635
					h9.006V196.42z"/>
				<path fill="#FFFFFF" d="M252.477,198.085h-2.997v-19.42l-6.267,13.214h-1.786l-6.221-13.214v19.42h-2.8v-22.539h4.087
					l6.009,12.549l5.813-12.549h4.163V198.085z"/>
			</g>
			<g enable-background="new    ">
				<path fill="#FFFFFF" d="M219.936,237.025c-0.949,0.454-1.849,0.808-2.702,1.06c-0.853,0.252-1.759,0.379-2.717,0.379
					c-1.221,0-2.341-0.18-3.36-0.538c-1.02-0.357-1.892-0.9-2.619-1.627c-0.737-0.727-1.307-1.645-1.71-2.755
					c-0.404-1.11-0.605-2.406-0.605-3.891c0-2.765,0.759-4.934,2.278-6.508c1.519-1.574,3.524-2.361,6.017-2.361
					c0.969,0,1.92,0.136,2.853,0.408c0.934,0.272,1.789,0.605,2.566,0.999v3.163h-0.151c-0.868-0.676-1.763-1.195-2.687-1.559
					c-0.923-0.363-1.824-0.545-2.702-0.545c-1.615,0-2.889,0.543-3.822,1.627c-0.934,1.085-1.4,2.677-1.4,4.775
					c0,2.039,0.457,3.605,1.37,4.7c0.913,1.096,2.197,1.643,3.852,1.643c0.575,0,1.16-0.075,1.756-0.228
					c0.595-0.15,1.13-0.348,1.604-0.59c0.414-0.212,0.802-0.437,1.166-0.674c0.363-0.236,0.651-0.441,0.863-0.613h0.151V237.025z"/>
				<path fill="#FFFFFF" d="M231.1,222.762h-8.895v-1.845c0.618-0.529,1.237-1.059,1.857-1.588s1.199-1.056,1.734-1.58
					c1.13-1.094,1.903-1.963,2.321-2.607c0.417-0.645,0.626-1.34,0.626-2.087c0-0.683-0.225-1.217-0.675-1.602
					c-0.45-0.386-1.078-0.578-1.884-0.578c-0.536,0-1.115,0.094-1.739,0.282s-1.232,0.477-1.827,0.865h-0.088v-1.854
					c0.418-0.206,0.976-0.395,1.672-0.564c0.697-0.171,1.373-0.256,2.025-0.256c1.347,0,2.403,0.324,3.168,0.975
					s1.147,1.531,1.147,2.643c0,0.501-0.063,0.967-0.19,1.399s-0.313,0.843-0.56,1.23c-0.229,0.365-0.499,0.724-0.808,1.077
					c-0.309,0.353-0.684,0.744-1.125,1.174c-0.63,0.617-1.28,1.216-1.951,1.796c-0.67,0.579-1.297,1.116-1.879,1.61h7.068V222.762z"
					/>
			</g>
		</g>
		<g enable-background="new    ">
			<path fill="#FFFFFF" d="M129.568,216.409h-3.89l-7.538-8.961h-4.223v8.961h-2.997V193.87h6.312c1.362,0,2.498,0.089,3.406,0.266
				s1.726,0.492,2.452,0.945c0.817,0.516,1.456,1.164,1.915,1.945c0.459,0.782,0.688,1.773,0.688,2.975
				c0,1.625-0.409,2.984-1.226,4.079c-0.817,1.096-1.943,1.92-3.375,2.476L129.568,216.409z M122.56,200.213
				c0-0.646-0.114-1.219-0.34-1.718c-0.228-0.5-0.604-0.921-1.128-1.264c-0.434-0.293-0.949-0.497-1.544-0.613
				c-0.596-0.116-1.297-0.174-2.104-0.174h-3.527v8.506h3.027c0.948,0,1.776-0.083,2.482-0.249c0.706-0.167,1.307-0.478,1.801-0.931
				c0.454-0.424,0.79-0.911,1.006-1.461C122.452,201.76,122.56,201.061,122.56,200.213z"/>
			<path fill="#FFFFFF" d="M138.122,218.891c0,0.9-0.372,1.639-1.116,2.215c-0.745,0.577-1.761,0.865-3.049,0.865
				c-0.729,0-1.398-0.087-2.007-0.261c-0.609-0.173-1.12-0.362-1.531-0.568v-1.862h0.088c0.523,0.395,1.106,0.707,1.747,0.939
				s1.256,0.349,1.844,0.349c0.729,0,1.3-0.117,1.712-0.353c0.412-0.235,0.618-0.606,0.618-1.112c0-0.388-0.112-0.683-0.335-0.883
				c-0.224-0.199-0.653-0.37-1.289-0.512c-0.235-0.053-0.542-0.114-0.922-0.185c-0.379-0.071-0.725-0.147-1.037-0.229
				c-0.865-0.229-1.478-0.566-1.84-1.011s-0.543-0.99-0.543-1.637c0-0.406,0.084-0.789,0.251-1.147
				c0.168-0.358,0.422-0.68,0.764-0.962c0.329-0.276,0.749-0.495,1.257-0.657s1.078-0.243,1.708-0.243
				c0.588,0,1.184,0.072,1.787,0.217c0.603,0.144,1.104,0.319,1.505,0.524v1.774h-0.088c-0.424-0.313-0.938-0.575-1.544-0.79
				s-1.2-0.322-1.783-0.322c-0.606,0-1.118,0.116-1.535,0.349c-0.418,0.232-0.627,0.578-0.627,1.037c0,0.405,0.126,0.712,0.38,0.918
				c0.247,0.206,0.647,0.373,1.2,0.503c0.306,0.07,0.649,0.141,1.028,0.212c0.379,0.07,0.696,0.135,0.949,0.193
				c0.771,0.177,1.365,0.479,1.783,0.909C137.913,217.597,138.122,218.173,138.122,218.891z"/>
			<path fill="#FFFFFF" d="M166.877,204.572h-17.952v-2.422h17.952V204.572z M166.877,210.93h-17.952v-2.422h17.952V210.93z"/>
			<path fill="#FFFFFF" d="M201.253,206.95h-19.829v-1.816h19.829V206.95z"/>
			<path fill="#FFFFFF" d="M220.961,206.95h-19.829v-1.816h19.829V206.95z"/>
			<path fill="#FFFFFF" d="M240.669,206.95H220.84v-1.816h19.829V206.95z"/>
			<path fill="#FFFFFF" d="M260.377,206.95h-19.829v-1.816h19.829V206.95z"/>
			<path fill="#FFFFFF" d="M292.875,204.572h-17.951v-2.422h17.951V204.572z M292.875,210.93h-17.951v-2.422h17.951V210.93z"/>
			<path fill="#FFFFFF" d="M326.888,209.976c0,0.879-0.204,1.746-0.613,2.604c-0.408,0.858-0.981,1.585-1.718,2.18
				c-0.808,0.646-1.748,1.15-2.823,1.514c-1.074,0.363-2.368,0.545-3.882,0.545c-1.625,0-3.086-0.15-4.383-0.453
				s-2.616-0.752-3.958-1.348v-3.754h0.212c1.141,0.948,2.457,1.68,3.951,2.195c1.493,0.514,2.896,0.771,4.207,0.771
				c1.857,0,3.303-0.348,4.337-1.045c1.034-0.695,1.552-1.624,1.552-2.785c0-0.998-0.245-1.735-0.734-2.209
				c-0.489-0.475-1.233-0.843-2.232-1.105c-0.757-0.202-1.577-0.368-2.46-0.5c-0.883-0.131-1.818-0.297-2.808-0.499
				c-1.998-0.424-3.479-1.147-4.442-2.172c-0.964-1.024-1.446-2.359-1.446-4.004c0-1.887,0.798-3.434,2.393-4.64
				c1.594-1.205,3.617-1.809,6.069-1.809c1.584,0,3.037,0.151,4.359,0.454s2.492,0.676,3.512,1.12v3.542h-0.212
				c-0.857-0.727-1.985-1.329-3.383-1.809c-1.398-0.479-2.828-0.72-4.291-0.72c-1.605,0-2.895,0.334-3.868,1s-1.46,1.523-1.46,2.572
				c0,0.939,0.242,1.676,0.727,2.211c0.484,0.534,1.337,0.943,2.558,1.226c0.646,0.142,1.564,0.313,2.755,0.515
				s2.2,0.408,3.027,0.621c1.675,0.443,2.937,1.114,3.784,2.013S326.888,208.361,326.888,209.976z"/>
			<path fill="#FFFFFF" d="M343.977,215.35c-0.948,0.454-1.849,0.808-2.701,1.06c-0.854,0.252-1.759,0.379-2.717,0.379
				c-1.222,0-2.342-0.18-3.361-0.538c-1.019-0.357-1.892-0.9-2.618-1.627c-0.736-0.727-1.307-1.645-1.71-2.755
				c-0.404-1.11-0.605-2.406-0.605-3.891c0-2.765,0.759-4.934,2.277-6.508s3.524-2.361,6.018-2.361c0.969,0,1.919,0.136,2.853,0.408
				s1.789,0.605,2.565,0.999v3.163h-0.15c-0.868-0.676-1.764-1.195-2.688-1.559c-0.923-0.363-1.824-0.545-2.701-0.545
				c-1.615,0-2.89,0.543-3.822,1.627c-0.934,1.085-1.4,2.677-1.4,4.775c0,2.039,0.456,3.605,1.37,4.7
				c0.913,1.096,2.197,1.643,3.853,1.643c0.574,0,1.16-0.075,1.756-0.228c0.595-0.15,1.13-0.348,1.604-0.59
				c0.414-0.212,0.803-0.437,1.166-0.674c0.363-0.236,0.65-0.441,0.863-0.613h0.15V215.35z"/>
			<path fill="#FFFFFF" d="M361.763,216.409h-2.846v-9.627c0-0.777-0.045-1.506-0.136-2.188c-0.091-0.681-0.257-1.213-0.499-1.597
				c-0.253-0.424-0.616-0.739-1.09-0.946c-0.475-0.206-1.09-0.311-1.848-0.311c-0.776,0-1.589,0.192-2.437,0.576
				c-0.848,0.383-1.66,0.872-2.437,1.468v12.624h-2.846v-23.553h2.846v8.521c0.888-0.736,1.806-1.312,2.754-1.725
				c0.949-0.414,1.923-0.621,2.922-0.621c1.826,0,3.219,0.55,4.178,1.65c0.959,1.1,1.438,2.684,1.438,4.752V216.409z"/>
			<path fill="#FFFFFF" d="M388.358,199.501l-4.405,16.908h-2.633l-4.345-13.033l-4.313,13.033h-2.619l-4.45-16.908h2.967
				l3.103,13.094l4.224-13.094h2.347l4.328,13.094l2.938-13.094H388.358z"/>
			<path fill="#FFFFFF" d="M405.297,216.409h-2.831v-1.801c-0.252,0.171-0.593,0.411-1.021,0.719
				c-0.43,0.308-0.846,0.553-1.249,0.734c-0.475,0.231-1.02,0.426-1.635,0.582s-1.337,0.234-2.164,0.234
				c-1.524,0-2.816-0.504-3.875-1.514c-1.061-1.009-1.59-2.295-1.59-3.859c0-1.281,0.274-2.318,0.825-3.11
				c0.55-0.792,1.334-1.415,2.354-1.87c1.029-0.453,2.266-0.762,3.708-0.923c1.443-0.161,2.992-0.282,4.647-0.363V204.8
				c0-0.646-0.113-1.182-0.341-1.605c-0.227-0.424-0.553-0.756-0.977-0.998c-0.403-0.232-0.888-0.389-1.453-0.47
				c-0.564-0.081-1.155-0.121-1.771-0.121c-0.747,0-1.579,0.099-2.497,0.295c-0.919,0.197-1.867,0.482-2.846,0.855h-0.152v-2.892
				c0.556-0.15,1.357-0.317,2.407-0.499s2.084-0.272,3.103-0.272c1.191,0,2.228,0.099,3.111,0.295
				c0.883,0.197,1.647,0.532,2.293,1.007c0.636,0.464,1.12,1.064,1.453,1.802c0.333,0.736,0.5,1.649,0.5,2.739V216.409z
				 M402.466,212.247v-4.708c-0.868,0.051-1.89,0.126-3.065,0.228c-1.176,0.101-2.106,0.247-2.793,0.438
				c-0.816,0.232-1.478,0.593-1.982,1.082c-0.505,0.49-0.757,1.163-0.757,2.021c0,0.969,0.293,1.698,0.878,2.188
				c0.585,0.49,1.479,0.734,2.68,0.734c0.998,0,1.912-0.194,2.739-0.583C400.992,213.259,401.76,212.792,402.466,212.247z"/>
			<path fill="#FFFFFF" d="M421.326,202.604h-0.151c-0.424-0.101-0.835-0.174-1.233-0.22c-0.399-0.045-0.87-0.067-1.415-0.067
				c-0.879,0-1.727,0.194-2.543,0.582c-0.818,0.389-1.605,0.891-2.361,1.506v12.004h-2.846v-16.908h2.846v2.498
				c1.13-0.908,2.126-1.552,2.989-1.93c0.862-0.379,1.743-0.568,2.642-0.568c0.494,0,0.853,0.014,1.074,0.038
				c0.222,0.025,0.555,0.073,0.999,0.144V202.604z"/>
			<path fill="#FFFFFF" d="M436.266,216.409h-13.652v-2.104l9.854-12.428h-9.643v-2.377h13.185v2.029l-9.899,12.473h10.156V216.409z
				"/>
			<path fill="#FFFFFF" d="M452.371,211.535c0,1.544-0.638,2.811-1.914,3.8c-1.277,0.988-3.02,1.482-5.23,1.482
				c-1.251,0-2.398-0.148-3.443-0.446c-1.044-0.297-1.92-0.623-2.626-0.976v-3.194h0.151c0.898,0.676,1.897,1.214,2.997,1.612
				s2.154,0.598,3.163,0.598c1.252,0,2.23-0.202,2.938-0.605c0.706-0.403,1.059-1.039,1.059-1.907c0-0.666-0.191-1.171-0.574-1.514
				c-0.384-0.343-1.121-0.636-2.211-0.878c-0.403-0.091-0.931-0.197-1.581-0.318c-0.651-0.121-1.244-0.252-1.778-0.393
				c-1.484-0.395-2.536-0.972-3.156-1.733c-0.621-0.762-0.932-1.698-0.932-2.808c0-0.697,0.145-1.353,0.432-1.969
				c0.288-0.615,0.725-1.165,1.31-1.649c0.565-0.475,1.284-0.85,2.157-1.128c0.872-0.277,1.849-0.416,2.929-0.416
				c1.009,0,2.03,0.124,3.065,0.371c1.034,0.247,1.895,0.547,2.58,0.9v3.043h-0.15c-0.727-0.535-1.61-0.986-2.649-1.355
				c-1.039-0.368-2.059-0.553-3.058-0.553c-1.039,0-1.917,0.2-2.634,0.599s-1.075,0.991-1.075,1.778
				c0,0.696,0.218,1.221,0.651,1.574c0.424,0.354,1.11,0.641,2.059,0.863c0.524,0.121,1.112,0.242,1.764,0.363
				c0.65,0.121,1.193,0.231,1.627,0.332c1.322,0.303,2.341,0.823,3.058,1.56C452.014,209.315,452.371,210.304,452.371,211.535z"/>
			<path fill="#FFFFFF" d="M468.945,215.35c-0.948,0.454-1.849,0.808-2.701,1.06c-0.854,0.252-1.759,0.379-2.717,0.379
				c-1.222,0-2.342-0.18-3.361-0.538c-1.019-0.357-1.892-0.9-2.618-1.627c-0.736-0.727-1.307-1.645-1.71-2.755
				c-0.404-1.11-0.605-2.406-0.605-3.891c0-2.765,0.759-4.934,2.277-6.508s3.524-2.361,6.018-2.361c0.969,0,1.919,0.136,2.853,0.408
				s1.789,0.605,2.565,0.999v3.163h-0.15c-0.868-0.676-1.764-1.195-2.688-1.559c-0.923-0.363-1.824-0.545-2.701-0.545
				c-1.615,0-2.89,0.543-3.822,1.627c-0.934,1.085-1.4,2.677-1.4,4.775c0,2.039,0.456,3.605,1.37,4.7
				c0.913,1.096,2.197,1.643,3.853,1.643c0.574,0,1.16-0.075,1.756-0.228c0.595-0.15,1.13-0.348,1.604-0.59
				c0.414-0.212,0.803-0.437,1.166-0.674c0.363-0.236,0.65-0.441,0.863-0.613h0.15V215.35z"/>
			<path fill="#FFFFFF" d="M486.731,216.409h-2.846v-9.627c0-0.777-0.045-1.506-0.136-2.188c-0.091-0.681-0.257-1.213-0.499-1.597
				c-0.253-0.424-0.616-0.739-1.09-0.946c-0.475-0.206-1.09-0.311-1.848-0.311c-0.776,0-1.589,0.192-2.437,0.576
				c-0.848,0.383-1.66,0.872-2.437,1.468v12.624h-2.846v-23.553h2.846v8.521c0.888-0.736,1.806-1.312,2.754-1.725
				c0.949-0.414,1.923-0.621,2.922-0.621c1.826,0,3.219,0.55,4.178,1.65c0.959,1.1,1.438,2.684,1.438,4.752V216.409z"/>
			<path fill="#FFFFFF" d="M495.269,196.671h-3.209v-2.951h3.209V196.671z M495.087,216.409h-2.846v-16.908h2.846V216.409z"/>
			<path fill="#FFFFFF" d="M503.594,216.409h-2.846v-23.553h2.846V216.409z"/>
			<path fill="#FFFFFF" d="M522.938,216.409h-2.846v-1.771c-0.816,0.707-1.67,1.257-2.558,1.65s-1.852,0.59-2.892,0.59
				c-2.018,0-3.62-0.776-4.806-2.33c-1.186-1.555-1.778-3.709-1.778-6.464c0-1.433,0.204-2.71,0.613-3.829
				c0.408-1.121,0.961-2.074,1.657-2.861c0.687-0.767,1.485-1.353,2.399-1.756c0.913-0.403,1.859-0.605,2.838-0.605
				c0.888,0,1.675,0.094,2.361,0.28s1.408,0.477,2.164,0.87v-7.326h2.846V216.409z M520.093,212.247v-9.703
				c-0.767-0.343-1.453-0.58-2.059-0.711c-0.605-0.132-1.266-0.197-1.982-0.197c-1.595,0-2.836,0.555-3.724,1.665
				s-1.332,2.685-1.332,4.723c0,2.008,0.343,3.534,1.029,4.579c0.687,1.044,1.786,1.566,3.3,1.566c0.808,0,1.625-0.179,2.452-0.537
				S519.377,212.812,520.093,212.247z"/>
			<path fill="#FFFFFF" d="M551.94,215.35c-0.948,0.454-1.849,0.808-2.701,1.06c-0.854,0.252-1.759,0.379-2.717,0.379
				c-1.222,0-2.342-0.18-3.361-0.538c-1.019-0.357-1.892-0.9-2.618-1.627c-0.736-0.727-1.307-1.645-1.71-2.755
				c-0.404-1.11-0.605-2.406-0.605-3.891c0-2.765,0.759-4.934,2.277-6.508s3.524-2.361,6.018-2.361c0.969,0,1.919,0.136,2.853,0.408
				s1.789,0.605,2.565,0.999v3.163h-0.15c-0.868-0.676-1.764-1.195-2.688-1.559c-0.923-0.363-1.824-0.545-2.701-0.545
				c-1.615,0-2.89,0.543-3.822,1.627c-0.934,1.085-1.4,2.677-1.4,4.775c0,2.039,0.456,3.605,1.37,4.7
				c0.913,1.096,2.197,1.643,3.853,1.643c0.574,0,1.16-0.075,1.756-0.228c0.595-0.15,1.13-0.348,1.604-0.59
				c0.414-0.212,0.803-0.437,1.166-0.674c0.363-0.236,0.65-0.441,0.863-0.613h0.15V215.35z"/>
			<path fill="#FFFFFF" d="M569.999,207.963c0,2.755-0.707,4.93-2.119,6.524c-1.413,1.594-3.306,2.391-5.677,2.391
				c-2.392,0-4.291-0.797-5.699-2.391c-1.407-1.595-2.111-3.77-2.111-6.524s0.704-4.932,2.111-6.531
				c1.408-1.6,3.308-2.399,5.699-2.399c2.371,0,4.264,0.8,5.677,2.399C569.292,203.031,569.999,205.208,569.999,207.963z
				 M567.062,207.963c0-2.189-0.429-3.816-1.286-4.882c-0.857-1.064-2.049-1.597-3.572-1.597c-1.544,0-2.742,0.532-3.595,1.597
				c-0.854,1.065-1.279,2.692-1.279,4.882c0,2.119,0.429,3.727,1.287,4.821c0.857,1.095,2.053,1.643,3.587,1.643
				c1.514,0,2.702-0.543,3.564-1.628C566.631,211.715,567.062,210.103,567.062,207.963z"/>
			<path fill="#FFFFFF" d="M588.541,216.409h-2.846v-9.627c0-0.777-0.045-1.506-0.136-2.188c-0.091-0.681-0.257-1.213-0.499-1.597
				c-0.253-0.424-0.616-0.739-1.09-0.946c-0.475-0.206-1.09-0.311-1.848-0.311c-0.776,0-1.589,0.192-2.437,0.576
				c-0.848,0.383-1.66,0.872-2.437,1.468v12.624h-2.846v-16.908h2.846v1.877c0.888-0.736,1.806-1.312,2.754-1.725
				c0.949-0.414,1.923-0.621,2.922-0.621c1.826,0,3.219,0.55,4.178,1.65c0.959,1.1,1.438,2.684,1.438,4.752V216.409z"/>
			<path fill="#FFFFFF" d="M607.734,216.409h-2.846v-1.771c-0.816,0.707-1.67,1.257-2.558,1.65s-1.852,0.59-2.892,0.59
				c-2.018,0-3.62-0.776-4.806-2.33c-1.186-1.555-1.778-3.709-1.778-6.464c0-1.433,0.204-2.71,0.613-3.829
				c0.408-1.121,0.961-2.074,1.657-2.861c0.687-0.767,1.485-1.353,2.399-1.756c0.913-0.403,1.859-0.605,2.838-0.605
				c0.888,0,1.675,0.094,2.361,0.28s1.408,0.477,2.164,0.87v-7.326h2.846V216.409z M604.889,212.247v-9.703
				c-0.767-0.343-1.453-0.58-2.059-0.711c-0.605-0.132-1.266-0.197-1.982-0.197c-1.595,0-2.836,0.555-3.724,1.665
				s-1.332,2.685-1.332,4.723c0,2.008,0.343,3.534,1.029,4.579c0.687,1.044,1.786,1.566,3.3,1.566c0.808,0,1.625-0.179,2.452-0.537
				S604.173,212.812,604.889,212.247z"/>
			<path fill="#FFFFFF" d="M616.393,196.671h-3.209v-2.951h3.209V196.671z M616.211,216.409h-2.846v-16.908h2.846V216.409z"/>
			<path fill="#FFFFFF" d="M630.622,216.258c-0.535,0.142-1.118,0.257-1.749,0.349c-0.631,0.09-1.193,0.136-1.688,0.136
				c-1.726,0-3.037-0.464-3.936-1.393s-1.347-2.417-1.347-4.466v-8.99h-1.923v-2.393h1.923v-4.858h2.846v4.858h5.873v2.393h-5.873
				v7.704c0,0.888,0.02,1.582,0.061,2.081c0.04,0.5,0.182,0.967,0.424,1.4c0.222,0.403,0.526,0.699,0.915,0.886
				s0.981,0.28,1.778,0.28c0.465,0,0.949-0.068,1.453-0.205c0.505-0.136,0.868-0.25,1.09-0.34h0.152V216.258z"/>
			<path fill="#FFFFFF" d="M637.114,196.671h-3.209v-2.951h3.209V196.671z M636.933,216.409h-2.846v-16.908h2.846V216.409z"/>
			<path fill="#FFFFFF" d="M656.975,207.963c0,2.755-0.707,4.93-2.119,6.524c-1.413,1.594-3.306,2.391-5.677,2.391
				c-2.392,0-4.291-0.797-5.699-2.391c-1.407-1.595-2.111-3.77-2.111-6.524s0.704-4.932,2.111-6.531
				c1.408-1.6,3.308-2.399,5.699-2.399c2.371,0,4.264,0.8,5.677,2.399C656.268,203.031,656.975,205.208,656.975,207.963z
				 M654.037,207.963c0-2.189-0.429-3.816-1.286-4.882c-0.857-1.064-2.049-1.597-3.572-1.597c-1.544,0-2.742,0.532-3.595,1.597
				c-0.854,1.065-1.279,2.692-1.279,4.882c0,2.119,0.429,3.727,1.287,4.821c0.857,1.095,2.053,1.643,3.587,1.643
				c1.514,0,2.702-0.543,3.564-1.628C653.606,211.715,654.037,210.103,654.037,207.963z"/>
			<path fill="#FFFFFF" d="M675.517,216.409h-2.846v-9.627c0-0.777-0.045-1.506-0.136-2.188c-0.091-0.681-0.257-1.213-0.499-1.597
				c-0.253-0.424-0.616-0.739-1.09-0.946c-0.475-0.206-1.09-0.311-1.848-0.311c-0.776,0-1.589,0.192-2.437,0.576
				c-0.848,0.383-1.66,0.872-2.437,1.468v12.624h-2.846v-16.908h2.846v1.877c0.888-0.736,1.806-1.312,2.754-1.725
				c0.949-0.414,1.923-0.621,2.922-0.621c1.826,0,3.219,0.55,4.178,1.65c0.959,1.1,1.438,2.684,1.438,4.752V216.409z"/>
			<path fill="#FFFFFF" d="M700.992,195.611h-0.151c-0.313-0.091-0.722-0.184-1.227-0.28c-0.504-0.096-0.948-0.144-1.332-0.144
				c-1.221,0-2.106,0.271-2.656,0.81c-0.55,0.54-0.824,1.517-0.824,2.93v0.574h5.131v2.393h-5.041v14.516h-2.846v-14.516h-1.922
				v-2.393h1.922v-0.56c0-2.008,0.5-3.55,1.499-4.624c0.999-1.075,2.442-1.612,4.329-1.612c0.636,0,1.208,0.03,1.718,0.091
				s0.977,0.131,1.4,0.212V195.611z"/>
			<path fill="#FFFFFF" d="M717.204,207.963c0,2.755-0.707,4.93-2.119,6.524c-1.413,1.594-3.306,2.391-5.677,2.391
				c-2.392,0-4.291-0.797-5.699-2.391c-1.407-1.595-2.111-3.77-2.111-6.524s0.704-4.932,2.111-6.531
				c1.408-1.6,3.308-2.399,5.699-2.399c2.371,0,4.264,0.8,5.677,2.399C716.497,203.031,717.204,205.208,717.204,207.963z
				 M714.267,207.963c0-2.189-0.429-3.816-1.286-4.882c-0.857-1.064-2.049-1.597-3.572-1.597c-1.544,0-2.742,0.532-3.595,1.597
				c-0.854,1.065-1.279,2.692-1.279,4.882c0,2.119,0.429,3.727,1.287,4.821c0.857,1.095,2.053,1.643,3.587,1.643
				c1.514,0,2.702-0.543,3.564-1.628C713.836,211.715,714.267,210.103,714.267,207.963z"/>
			<path fill="#FFFFFF" d="M732.158,202.604h-0.151c-0.424-0.101-0.835-0.174-1.233-0.22c-0.399-0.045-0.87-0.067-1.415-0.067
				c-0.879,0-1.727,0.194-2.543,0.582c-0.818,0.389-1.605,0.891-2.361,1.506v12.004h-2.846v-16.908h2.846v2.498
				c1.13-0.908,2.126-1.552,2.989-1.93c0.862-0.379,1.743-0.568,2.642-0.568c0.494,0,0.853,0.014,1.074,0.038
				c0.222,0.025,0.555,0.073,0.999,0.144V202.604z"/>
			<path fill="#FFFFFF" d="M758.875,216.409h-2.831v-1.801c-0.252,0.171-0.593,0.411-1.021,0.719
				c-0.43,0.308-0.846,0.553-1.249,0.734c-0.475,0.231-1.02,0.426-1.635,0.582s-1.337,0.234-2.164,0.234
				c-1.524,0-2.816-0.504-3.875-1.514c-1.061-1.009-1.59-2.295-1.59-3.859c0-1.281,0.274-2.318,0.825-3.11
				c0.55-0.792,1.334-1.415,2.354-1.87c1.029-0.453,2.266-0.762,3.708-0.923c1.443-0.161,2.992-0.282,4.647-0.363V204.8
				c0-0.646-0.113-1.182-0.341-1.605c-0.227-0.424-0.553-0.756-0.977-0.998c-0.403-0.232-0.888-0.389-1.453-0.47
				c-0.564-0.081-1.155-0.121-1.771-0.121c-0.747,0-1.579,0.099-2.497,0.295c-0.919,0.197-1.867,0.482-2.846,0.855h-0.152v-2.892
				c0.556-0.15,1.357-0.317,2.407-0.499s2.084-0.272,3.103-0.272c1.191,0,2.228,0.099,3.111,0.295
				c0.883,0.197,1.647,0.532,2.293,1.007c0.636,0.464,1.12,1.064,1.453,1.802c0.333,0.736,0.5,1.649,0.5,2.739V216.409z
				 M756.044,212.247v-4.708c-0.868,0.051-1.89,0.126-3.065,0.228c-1.176,0.101-2.106,0.247-2.793,0.438
				c-0.816,0.232-1.478,0.593-1.982,1.082c-0.505,0.49-0.757,1.163-0.757,2.021c0,0.969,0.293,1.698,0.878,2.188
				c0.585,0.49,1.479,0.734,2.68,0.734c0.998,0,1.912-0.194,2.739-0.583C754.57,213.259,755.338,212.792,756.044,212.247z"/>
			<path fill="#FFFFFF" d="M790.132,207.827c0,1.412-0.199,2.684-0.598,3.814c-0.399,1.13-0.937,2.078-1.612,2.846
				c-0.717,0.797-1.504,1.395-2.361,1.793s-1.802,0.598-2.831,0.598c-0.958,0-1.796-0.113-2.512-0.34
				c-0.717-0.228-1.424-0.532-2.119-0.916l-0.182,0.787h-2.664v-23.553h2.846v8.416c0.797-0.656,1.645-1.193,2.543-1.612
				c0.897-0.418,1.906-0.628,3.027-0.628c1.998,0,3.574,0.767,4.729,2.301S790.132,205.031,790.132,207.827z M787.195,207.902
				c0-2.019-0.333-3.55-0.999-4.594c-0.666-1.045-1.74-1.567-3.225-1.567c-0.827,0-1.664,0.18-2.512,0.538s-1.635,0.819-2.361,1.385
				v9.688c0.807,0.363,1.5,0.615,2.081,0.757c0.58,0.142,1.238,0.212,1.976,0.212c1.574,0,2.808-0.517,3.7-1.552
				C786.749,211.734,787.195,210.112,787.195,207.902z"/>
			<path fill="#FFFFFF" d="M797.442,216.409h-2.846v-23.553h2.846V216.409z"/>
			<path fill="#FFFFFF" d="M816.213,216.409h-2.831v-1.801c-0.252,0.171-0.593,0.411-1.021,0.719
				c-0.43,0.308-0.846,0.553-1.249,0.734c-0.475,0.231-1.02,0.426-1.635,0.582s-1.337,0.234-2.164,0.234
				c-1.524,0-2.816-0.504-3.875-1.514c-1.061-1.009-1.59-2.295-1.59-3.859c0-1.281,0.274-2.318,0.825-3.11
				c0.55-0.792,1.334-1.415,2.354-1.87c1.029-0.453,2.266-0.762,3.708-0.923c1.443-0.161,2.992-0.282,4.647-0.363V204.8
				c0-0.646-0.113-1.182-0.341-1.605c-0.227-0.424-0.553-0.756-0.977-0.998c-0.403-0.232-0.888-0.389-1.453-0.47
				c-0.564-0.081-1.155-0.121-1.771-0.121c-0.747,0-1.579,0.099-2.497,0.295c-0.919,0.197-1.867,0.482-2.846,0.855h-0.152v-2.892
				c0.556-0.15,1.357-0.317,2.407-0.499s2.084-0.272,3.103-0.272c1.191,0,2.228,0.099,3.111,0.295
				c0.883,0.197,1.647,0.532,2.293,1.007c0.636,0.464,1.12,1.064,1.453,1.802c0.333,0.736,0.5,1.649,0.5,2.739V216.409z
				 M813.382,212.247v-4.708c-0.868,0.051-1.89,0.126-3.065,0.228c-1.176,0.101-2.106,0.247-2.793,0.438
				c-0.816,0.232-1.478,0.593-1.982,1.082c-0.505,0.49-0.757,1.163-0.757,2.021c0,0.969,0.293,1.698,0.878,2.188
				c0.585,0.49,1.479,0.734,2.68,0.734c0.998,0,1.912-0.194,2.739-0.583C811.908,213.259,812.676,212.792,813.382,212.247z"/>
			<path fill="#FFFFFF" d="M834.194,215.35c-0.948,0.454-1.849,0.808-2.701,1.06c-0.854,0.252-1.759,0.379-2.717,0.379
				c-1.222,0-2.342-0.18-3.361-0.538c-1.019-0.357-1.892-0.9-2.618-1.627c-0.736-0.727-1.307-1.645-1.71-2.755
				c-0.404-1.11-0.605-2.406-0.605-3.891c0-2.765,0.759-4.934,2.277-6.508s3.524-2.361,6.018-2.361c0.969,0,1.919,0.136,2.853,0.408
				s1.789,0.605,2.565,0.999v3.163h-0.15c-0.868-0.676-1.764-1.195-2.688-1.559c-0.923-0.363-1.824-0.545-2.701-0.545
				c-1.615,0-2.89,0.543-3.822,1.627c-0.934,1.085-1.4,2.677-1.4,4.775c0,2.039,0.456,3.605,1.37,4.7
				c0.913,1.096,2.197,1.643,3.853,1.643c0.574,0,1.16-0.075,1.756-0.228c0.595-0.15,1.13-0.348,1.604-0.59
				c0.414-0.212,0.803-0.437,1.166-0.674c0.363-0.236,0.65-0.441,0.863-0.613h0.15V215.35z"/>
			<path fill="#FFFFFF" d="M853.191,216.409h-3.754l-6.781-7.402l-1.846,1.756v5.646h-2.846v-23.553h2.846v15.106l8.219-8.462h3.588
				l-7.856,7.811L853.191,216.409z"/>
			<path fill="#FFFFFF" d="M881.225,216.409h-2.846v-9.627c0-0.777-0.045-1.506-0.136-2.188c-0.091-0.681-0.257-1.213-0.499-1.597
				c-0.253-0.424-0.616-0.739-1.09-0.946c-0.475-0.206-1.09-0.311-1.848-0.311c-0.776,0-1.589,0.192-2.437,0.576
				c-0.848,0.383-1.66,0.872-2.437,1.468v12.624h-2.846v-23.553h2.846v8.521c0.888-0.736,1.806-1.312,2.754-1.725
				c0.949-0.414,1.923-0.621,2.922-0.621c1.826,0,3.219,0.55,4.178,1.65c0.959,1.1,1.438,2.684,1.438,4.752V216.409z"/>
			<path fill="#FFFFFF" d="M901.115,207.963c0,2.755-0.707,4.93-2.119,6.524c-1.413,1.594-3.306,2.391-5.677,2.391
				c-2.392,0-4.291-0.797-5.699-2.391c-1.407-1.595-2.111-3.77-2.111-6.524s0.704-4.932,2.111-6.531
				c1.408-1.6,3.308-2.399,5.699-2.399c2.371,0,4.264,0.8,5.677,2.399C900.408,203.031,901.115,205.208,901.115,207.963z
				 M898.178,207.963c0-2.189-0.429-3.816-1.286-4.882c-0.857-1.064-2.049-1.597-3.572-1.597c-1.544,0-2.742,0.532-3.595,1.597
				c-0.854,1.065-1.279,2.692-1.279,4.882c0,2.119,0.429,3.727,1.287,4.821c0.857,1.095,2.053,1.643,3.587,1.643
				c1.514,0,2.702-0.543,3.564-1.628C897.747,211.715,898.178,210.103,898.178,207.963z"/>
			<path fill="#FFFFFF" d="M908.395,216.409h-2.846v-23.553h2.846V216.409z"/>
			<path fill="#FFFFFF" d="M928.179,208.251h-12.457c0,1.039,0.156,1.944,0.469,2.717c0.313,0.771,0.742,1.405,1.287,1.899
				c0.524,0.484,1.147,0.848,1.869,1.09c0.721,0.242,1.516,0.363,2.384,0.363c1.15,0,2.309-0.229,3.474-0.688
				c1.166-0.459,1.996-0.911,2.49-1.355h0.151v3.104c-0.959,0.403-1.938,0.742-2.937,1.014c-0.999,0.273-2.049,0.409-3.148,0.409
				c-2.806,0-4.995-0.759-6.569-2.278c-1.574-1.519-2.361-3.676-2.361-6.471c0-2.765,0.754-4.96,2.263-6.584
				c1.509-1.625,3.494-2.438,5.957-2.438c2.28,0,4.038,0.666,5.274,1.998s1.854,3.225,1.854,5.676V208.251z M925.409,206.071
				c-0.011-1.494-0.387-2.649-1.128-3.467c-0.742-0.817-1.87-1.227-3.384-1.227c-1.523,0-2.737,0.449-3.64,1.348
				c-0.903,0.898-1.415,2.014-1.536,3.346H925.409z"/>
		</g>
	</g>
	<g>
		<g enable-background="new    ">
			<path fill="#FFFFFF" d="M127.243,270.237h-0.151c-0.424-0.101-0.835-0.174-1.233-0.22c-0.399-0.045-0.871-0.067-1.416-0.067
				c-0.878,0-1.726,0.194-2.543,0.582c-0.817,0.389-1.604,0.891-2.361,1.506v12.004h-2.846v-16.908h2.846v2.498
				c1.13-0.908,2.126-1.552,2.99-1.93c0.862-0.379,1.743-0.568,2.641-0.568c0.494,0,0.853,0.014,1.075,0.038
				c0.222,0.025,0.555,0.073,0.999,0.144V270.237z"/>
			<path fill="#FFFFFF" d="M137.429,284.317c0,0.8-0.115,1.531-0.344,2.193c-0.229,0.661-0.553,1.222-0.971,1.681
				c-0.388,0.436-0.846,0.772-1.372,1.011s-1.084,0.357-1.672,0.357c-0.512,0-0.975-0.057-1.39-0.168
				c-0.415-0.111-0.837-0.285-1.267-0.521v4.13h-1.659v-13.493h1.659v1.033c0.441-0.371,0.937-0.682,1.487-0.932
				c0.55-0.25,1.137-0.375,1.76-0.375c1.188,0,2.114,0.449,2.775,1.346C137.099,281.478,137.429,282.724,137.429,284.317z
				 M135.717,284.361c0-1.188-0.203-2.076-0.609-2.665c-0.406-0.588-1.03-0.882-1.871-0.882c-0.477,0-0.957,0.103-1.438,0.309
				c-0.482,0.206-0.944,0.477-1.386,0.812v5.586c0.471,0.212,0.875,0.356,1.213,0.433c0.338,0.077,0.722,0.115,1.152,0.115
				c0.923,0,1.644-0.313,2.162-0.936C135.458,286.509,135.717,285.585,135.717,284.361z"/>
			<path fill="#FFFFFF" d="M166.396,272.205h-17.952v-2.422h17.952V272.205z M166.396,278.563h-17.952v-2.422h17.952V278.563z"/>
			<path fill="#FFFFFF" d="M202.68,284.042h-3.891l-7.537-8.961h-4.224v8.961h-2.997v-22.539h6.313c1.361,0,2.497,0.089,3.405,0.266
				s1.726,0.492,2.452,0.945c0.817,0.516,1.455,1.164,1.915,1.945c0.459,0.782,0.688,1.773,0.688,2.975
				c0,1.625-0.408,2.984-1.227,4.079c-0.816,1.096-1.942,1.92-3.375,2.476L202.68,284.042z M195.672,267.846
				c0-0.646-0.114-1.219-0.341-1.718c-0.228-0.5-0.604-0.921-1.128-1.264c-0.434-0.293-0.948-0.497-1.544-0.613
				s-1.297-0.174-2.104-0.174h-3.526v8.506h3.027c0.948,0,1.776-0.083,2.482-0.249c0.706-0.167,1.307-0.478,1.802-0.931
				c0.453-0.424,0.789-0.911,1.006-1.461S195.672,268.693,195.672,267.846z"/>
			<path fill="#FFFFFF" d="M211.233,286.523c0,0.9-0.372,1.639-1.116,2.215c-0.744,0.577-1.761,0.865-3.049,0.865
				c-0.729,0-1.399-0.087-2.008-0.261c-0.609-0.173-1.119-0.362-1.531-0.568v-1.862h0.088c0.523,0.395,1.106,0.707,1.748,0.939
				c0.641,0.232,1.256,0.349,1.844,0.349c0.729,0,1.301-0.117,1.712-0.353c0.412-0.235,0.618-0.606,0.618-1.112
				c0-0.388-0.112-0.683-0.336-0.883c-0.224-0.199-0.652-0.37-1.288-0.512c-0.235-0.053-0.543-0.114-0.922-0.185
				c-0.38-0.071-0.726-0.147-1.037-0.229c-0.865-0.229-1.479-0.566-1.84-1.011c-0.362-0.444-0.543-0.99-0.543-1.637
				c0-0.406,0.084-0.789,0.252-1.147c0.167-0.358,0.422-0.68,0.763-0.962c0.33-0.276,0.749-0.495,1.258-0.657
				s1.078-0.243,1.708-0.243c0.588,0,1.184,0.072,1.787,0.217c0.603,0.144,1.104,0.319,1.504,0.524v1.774h-0.088
				c-0.424-0.313-0.938-0.575-1.544-0.79c-0.606-0.215-1.2-0.322-1.783-0.322c-0.605,0-1.118,0.116-1.535,0.349
				c-0.418,0.232-0.627,0.578-0.627,1.037c0,0.405,0.127,0.712,0.38,0.918c0.247,0.206,0.646,0.373,1.2,0.503
				c0.306,0.07,0.648,0.141,1.027,0.212c0.38,0.07,0.696,0.135,0.949,0.193c0.771,0.177,1.364,0.479,1.782,0.909
				C211.024,285.229,211.233,285.806,211.233,286.523z"/>
			<path fill="#FFFFFF" d="M244.533,272.205h-17.951v-2.422h17.951V272.205z M244.533,278.563h-17.951v-2.422h17.951V278.563z"/>
			<path fill="#FFFFFF" d="M275.549,284.042h-12.2v-2.301h4.692v-15.106h-4.692v-2.059c0.636,0,1.317-0.053,2.044-0.159
				c0.727-0.105,1.276-0.26,1.649-0.461c0.464-0.253,0.83-0.573,1.098-0.962c0.267-0.388,0.421-0.91,0.462-1.566h2.346v20.313h4.602
				V284.042z"/>
			<path fill="#FFFFFF" d="M286.296,284.042h-3.617v-4.314h3.617V284.042z"/>
			<path fill="#FFFFFF" d="M305.837,273.188c0.484,0.435,0.883,0.979,1.196,1.635c0.313,0.656,0.469,1.504,0.469,2.543
				c0,1.029-0.187,1.974-0.561,2.831c-0.373,0.857-0.897,1.604-1.574,2.24c-0.756,0.706-1.647,1.229-2.671,1.566
				c-1.024,0.338-2.147,0.507-3.368,0.507c-1.251,0-2.482-0.148-3.693-0.446c-1.211-0.297-2.205-0.623-2.982-0.976v-3.164h0.228
				c0.857,0.565,1.867,1.034,3.027,1.408c1.16,0.373,2.28,0.56,3.36,0.56c0.636,0,1.312-0.106,2.028-0.317
				c0.717-0.213,1.297-0.525,1.741-0.939c0.464-0.443,0.81-0.933,1.036-1.468c0.228-0.535,0.341-1.211,0.341-2.028
				c0-0.808-0.129-1.476-0.386-2.006c-0.258-0.529-0.613-0.945-1.067-1.248c-0.454-0.313-1.004-0.527-1.65-0.644
				c-0.646-0.116-1.342-0.175-2.088-0.175h-1.363v-2.512h1.061c1.533,0,2.757-0.32,3.67-0.962c0.913-0.641,1.37-1.576,1.37-2.808
				c0-0.545-0.116-1.021-0.349-1.431c-0.231-0.408-0.555-0.744-0.969-1.007c-0.434-0.262-0.897-0.443-1.393-0.545
				c-0.494-0.101-1.054-0.15-1.68-0.15c-0.959,0-1.978,0.171-3.058,0.514c-1.08,0.344-2.099,0.828-3.058,1.453h-0.151v-3.163
				c0.717-0.354,1.673-0.679,2.868-0.977c1.196-0.297,2.354-0.446,3.475-0.446c1.1,0,2.068,0.101,2.906,0.303
				c0.837,0.202,1.594,0.524,2.27,0.969c0.727,0.484,1.277,1.069,1.65,1.756s0.561,1.488,0.561,2.406
				c0,1.252-0.442,2.345-1.325,3.277c-0.883,0.934-1.925,1.521-3.126,1.764v0.212c0.484,0.081,1.04,0.25,1.666,0.507
				C304.873,272.485,305.403,272.806,305.837,273.188z"/>
			<path fill="#FFFFFF" d="M327.528,284.042h-15.258v-3.164c1.059-0.908,2.121-1.816,3.186-2.725s2.057-1.811,2.975-2.709
				c1.938-1.877,3.265-3.368,3.98-4.473c0.717-1.105,1.075-2.299,1.075-3.58c0-1.171-0.386-2.086-1.158-2.747
				c-0.771-0.661-1.849-0.991-3.231-0.991c-0.918,0-1.912,0.161-2.982,0.484c-1.069,0.322-2.113,0.816-3.133,1.482h-0.151v-3.178
				c0.717-0.354,1.673-0.677,2.868-0.969c1.196-0.293,2.354-0.439,3.475-0.439c2.311,0,4.122,0.558,5.434,1.673
				s1.968,2.626,1.968,4.533c0,0.857-0.108,1.657-0.325,2.399c-0.218,0.741-0.537,1.445-0.961,2.111
				c-0.395,0.626-0.855,1.241-1.386,1.847c-0.529,0.605-1.173,1.276-1.93,2.013c-1.08,1.061-2.194,2.087-3.345,3.081
				s-2.226,1.915-3.225,2.763h12.125V284.042z"/>
			<path fill="#FFFFFF" d="M357.861,264.167h-11.397v6.357h9.794v2.664h-9.794v10.854h-2.997v-22.539h14.395V264.167z"/>
			<path fill="#FFFFFF" d="M385.729,284.042h-2.846v-9.627c0-0.727-0.032-1.428-0.098-2.104c-0.066-0.677-0.205-1.217-0.416-1.62
				c-0.232-0.434-0.565-0.762-1-0.983c-0.434-0.223-1.059-0.334-1.877-0.334c-0.797,0-1.594,0.2-2.391,0.599
				c-0.798,0.398-1.595,0.905-2.393,1.521c0.031,0.232,0.056,0.503,0.076,0.811s0.03,0.613,0.03,0.916v10.822h-2.846v-9.627
				c0-0.747-0.033-1.455-0.099-2.127c-0.065-0.671-0.204-1.208-0.416-1.611c-0.232-0.435-0.565-0.76-0.999-0.977
				s-1.06-0.326-1.877-0.326c-0.777,0-1.557,0.192-2.339,0.576c-0.782,0.383-1.562,0.872-2.338,1.468v12.624h-2.846v-16.908h2.846
				v1.877c0.888-0.736,1.772-1.312,2.656-1.725c0.883-0.414,1.824-0.621,2.822-0.621c1.15,0,2.127,0.242,2.93,0.727
				c0.802,0.484,1.4,1.155,1.793,2.014c1.15-0.969,2.2-1.668,3.148-2.097c0.949-0.429,1.963-0.644,3.043-0.644
				c1.856,0,3.227,0.563,4.109,1.688c0.883,1.126,1.324,2.697,1.324,4.715V284.042z"/>
			<path fill="#FFFFFF" d="M420.967,272.205h-17.951v-2.422h17.951V272.205z M420.967,278.563h-17.951v-2.422h17.951V278.563z"/>
			<path fill="#FFFFFF" d="M457.25,284.042h-3.891l-7.537-8.961h-4.224v8.961h-2.997v-22.539h6.313c1.361,0,2.497,0.089,3.405,0.266
				s1.726,0.492,2.452,0.945c0.817,0.516,1.455,1.164,1.915,1.945c0.459,0.782,0.688,1.773,0.688,2.975
				c0,1.625-0.408,2.984-1.227,4.079c-0.816,1.096-1.942,1.92-3.375,2.476L457.25,284.042z M450.242,267.846
				c0-0.646-0.114-1.219-0.341-1.718c-0.228-0.5-0.604-0.921-1.128-1.264c-0.434-0.293-0.948-0.497-1.544-0.613
				s-1.297-0.174-2.104-0.174h-3.526v8.506h3.027c0.948,0,1.776-0.083,2.482-0.249c0.706-0.167,1.307-0.478,1.802-0.931
				c0.453-0.424,0.789-0.911,1.006-1.461S450.242,268.693,450.242,267.846z"/>
			<path fill="#FFFFFF" d="M472.463,284.042h-2.831v-1.801c-0.252,0.171-0.593,0.411-1.021,0.719
				c-0.43,0.308-0.846,0.553-1.249,0.734c-0.475,0.231-1.02,0.426-1.635,0.582s-1.337,0.234-2.164,0.234
				c-1.524,0-2.816-0.504-3.875-1.514c-1.061-1.009-1.59-2.295-1.59-3.859c0-1.281,0.274-2.318,0.825-3.11
				c0.55-0.792,1.334-1.415,2.354-1.87c1.029-0.453,2.266-0.762,3.708-0.923c1.443-0.161,2.992-0.282,4.647-0.363v-0.438
				c0-0.646-0.113-1.182-0.341-1.605c-0.227-0.424-0.553-0.756-0.977-0.998c-0.403-0.232-0.888-0.389-1.453-0.47
				c-0.564-0.081-1.155-0.121-1.771-0.121c-0.747,0-1.579,0.099-2.497,0.295c-0.919,0.197-1.867,0.482-2.846,0.855h-0.152v-2.892
				c0.556-0.15,1.357-0.317,2.407-0.499s2.084-0.272,3.103-0.272c1.191,0,2.228,0.099,3.111,0.295
				c0.883,0.197,1.647,0.532,2.293,1.007c0.636,0.464,1.12,1.064,1.453,1.802c0.333,0.736,0.5,1.649,0.5,2.739V284.042z
				 M469.632,279.88v-4.708c-0.868,0.051-1.89,0.126-3.065,0.228c-1.176,0.101-2.106,0.247-2.793,0.438
				c-0.816,0.232-1.478,0.593-1.982,1.082c-0.505,0.49-0.757,1.163-0.757,2.021c0,0.969,0.293,1.698,0.878,2.188
				c0.585,0.49,1.479,0.734,2.68,0.734c0.998,0,1.912-0.194,2.739-0.583C468.158,280.892,468.926,280.425,469.632,279.88z"/>
			<path fill="#FFFFFF" d="M491.655,284.042h-2.846v-1.771c-0.816,0.707-1.67,1.257-2.558,1.65s-1.852,0.59-2.892,0.59
				c-2.018,0-3.62-0.776-4.806-2.33c-1.186-1.555-1.778-3.709-1.778-6.464c0-1.433,0.204-2.71,0.613-3.829
				c0.408-1.121,0.961-2.074,1.657-2.861c0.687-0.767,1.485-1.353,2.399-1.756c0.913-0.403,1.859-0.605,2.838-0.605
				c0.888,0,1.675,0.094,2.361,0.28s1.408,0.477,2.164,0.87v-7.326h2.846V284.042z M488.81,279.88v-9.703
				c-0.767-0.343-1.453-0.58-2.059-0.711c-0.605-0.132-1.266-0.197-1.982-0.197c-1.595,0-2.836,0.555-3.724,1.665
				s-1.332,2.685-1.332,4.723c0,2.008,0.343,3.534,1.029,4.579c0.687,1.044,1.786,1.566,3.3,1.566c0.808,0,1.625-0.179,2.452-0.537
				S488.094,280.444,488.81,279.88z"/>
			<path fill="#FFFFFF" d="M500.313,264.304h-3.209v-2.951h3.209V264.304z M500.132,284.042h-2.846v-16.908h2.846V284.042z"/>
			<path fill="#FFFFFF" d="M519.779,284.042h-2.846v-1.877c-0.958,0.757-1.877,1.337-2.754,1.74
				c-0.879,0.404-1.848,0.605-2.906,0.605c-1.776,0-3.159-0.542-4.148-1.627c-0.988-1.084-1.482-2.677-1.482-4.775v-10.975h2.846
				v9.627c0,0.858,0.04,1.593,0.121,2.203c0.08,0.61,0.252,1.133,0.514,1.566c0.273,0.444,0.626,0.767,1.061,0.969
				c0.434,0.202,1.064,0.303,1.892,0.303c0.736,0,1.541-0.191,2.414-0.575s1.688-0.873,2.444-1.468v-12.625h2.846V284.042z"/>
			<path fill="#FFFFFF" d="M537.459,279.168c0,1.544-0.638,2.811-1.914,3.8c-1.277,0.988-3.02,1.482-5.23,1.482
				c-1.251,0-2.398-0.148-3.443-0.446c-1.044-0.297-1.92-0.623-2.626-0.976v-3.194h0.151c0.898,0.676,1.897,1.214,2.997,1.612
				s2.154,0.598,3.163,0.598c1.252,0,2.23-0.202,2.938-0.605c0.706-0.403,1.059-1.039,1.059-1.907c0-0.666-0.191-1.171-0.574-1.514
				c-0.384-0.343-1.121-0.636-2.211-0.878c-0.403-0.091-0.931-0.197-1.581-0.318c-0.651-0.121-1.244-0.252-1.778-0.393
				c-1.484-0.395-2.536-0.972-3.156-1.733c-0.621-0.762-0.932-1.698-0.932-2.808c0-0.697,0.145-1.353,0.432-1.969
				c0.288-0.615,0.725-1.165,1.31-1.649c0.565-0.475,1.284-0.85,2.157-1.128c0.872-0.277,1.849-0.416,2.929-0.416
				c1.009,0,2.03,0.124,3.065,0.371c1.034,0.247,1.895,0.547,2.58,0.9v3.043h-0.15c-0.727-0.535-1.61-0.986-2.649-1.355
				c-1.039-0.368-2.059-0.553-3.058-0.553c-1.039,0-1.917,0.2-2.634,0.599s-1.075,0.991-1.075,1.778
				c0,0.696,0.218,1.221,0.651,1.574c0.424,0.354,1.11,0.641,2.059,0.863c0.524,0.121,1.112,0.242,1.764,0.363
				c0.65,0.121,1.193,0.231,1.627,0.332c1.322,0.303,2.341,0.823,3.058,1.56C537.102,276.948,537.459,277.937,537.459,279.168z"/>
			<path fill="#FFFFFF" d="M566.84,275.596c0,2.755-0.707,4.93-2.119,6.524c-1.413,1.594-3.306,2.391-5.677,2.391
				c-2.392,0-4.291-0.797-5.699-2.391c-1.407-1.595-2.111-3.77-2.111-6.524s0.704-4.932,2.111-6.531
				c1.408-1.6,3.308-2.399,5.699-2.399c2.371,0,4.264,0.8,5.677,2.399C566.133,270.664,566.84,272.841,566.84,275.596z
				 M563.902,275.596c0-2.189-0.429-3.816-1.286-4.882c-0.857-1.064-2.049-1.597-3.572-1.597c-1.544,0-2.742,0.532-3.595,1.597
				c-0.854,1.065-1.279,2.692-1.279,4.882c0,2.119,0.429,3.727,1.287,4.821c0.857,1.095,2.053,1.643,3.587,1.643
				c1.514,0,2.702-0.543,3.564-1.628C563.472,279.348,563.902,277.735,563.902,275.596z"/>
			<path fill="#FFFFFF" d="M580.342,263.244h-0.151c-0.313-0.091-0.722-0.184-1.227-0.28c-0.504-0.096-0.948-0.144-1.332-0.144
				c-1.221,0-2.106,0.271-2.656,0.81c-0.55,0.54-0.824,1.517-0.824,2.93v0.574h5.131v2.393h-5.041v14.516h-2.846v-14.516h-1.922
				v-2.393h1.922v-0.56c0-2.008,0.5-3.55,1.499-4.624c0.999-1.075,2.442-1.612,4.329-1.612c0.636,0,1.208,0.03,1.718,0.091
				s0.977,0.131,1.4,0.212V263.244z"/>
			<path fill="#FFFFFF" d="M607.921,275.46c0,1.412-0.199,2.684-0.598,3.814c-0.399,1.13-0.937,2.078-1.612,2.846
				c-0.717,0.797-1.504,1.395-2.361,1.793s-1.802,0.598-2.831,0.598c-0.958,0-1.796-0.113-2.512-0.34
				c-0.717-0.228-1.424-0.532-2.119-0.916l-0.182,0.787h-2.664v-23.553h2.846v8.416c0.797-0.656,1.645-1.193,2.543-1.612
				c0.897-0.418,1.906-0.628,3.027-0.628c1.998,0,3.574,0.767,4.729,2.301S607.921,272.664,607.921,275.46z M604.984,275.535
				c0-2.019-0.333-3.55-0.999-4.594c-0.666-1.045-1.74-1.567-3.225-1.567c-0.827,0-1.664,0.18-2.512,0.538s-1.635,0.819-2.361,1.385
				v9.688c0.807,0.363,1.5,0.615,2.081,0.757c0.58,0.142,1.238,0.212,1.976,0.212c1.574,0,2.808-0.517,3.7-1.552
				C604.538,279.367,604.984,277.745,604.984,275.535z"/>
			<path fill="#FFFFFF" d="M615.231,284.042h-2.846v-23.553h2.846V284.042z"/>
			<path fill="#FFFFFF" d="M634.002,284.042h-2.831v-1.801c-0.252,0.171-0.593,0.411-1.021,0.719
				c-0.43,0.308-0.846,0.553-1.249,0.734c-0.475,0.231-1.02,0.426-1.635,0.582s-1.337,0.234-2.164,0.234
				c-1.524,0-2.816-0.504-3.875-1.514c-1.061-1.009-1.59-2.295-1.59-3.859c0-1.281,0.274-2.318,0.825-3.11
				c0.55-0.792,1.334-1.415,2.354-1.87c1.029-0.453,2.266-0.762,3.708-0.923c1.443-0.161,2.992-0.282,4.647-0.363v-0.438
				c0-0.646-0.113-1.182-0.341-1.605c-0.227-0.424-0.553-0.756-0.977-0.998c-0.403-0.232-0.888-0.389-1.453-0.47
				c-0.564-0.081-1.155-0.121-1.771-0.121c-0.747,0-1.579,0.099-2.497,0.295c-0.919,0.197-1.867,0.482-2.846,0.855h-0.152v-2.892
				c0.556-0.15,1.357-0.317,2.407-0.499s2.084-0.272,3.103-0.272c1.191,0,2.228,0.099,3.111,0.295
				c0.883,0.197,1.647,0.532,2.293,1.007c0.636,0.464,1.12,1.064,1.453,1.802c0.333,0.736,0.5,1.649,0.5,2.739V284.042z
				 M631.171,279.88v-4.708c-0.868,0.051-1.89,0.126-3.065,0.228c-1.176,0.101-2.106,0.247-2.793,0.438
				c-0.816,0.232-1.478,0.593-1.982,1.082c-0.505,0.49-0.757,1.163-0.757,2.021c0,0.969,0.293,1.698,0.878,2.188
				c0.585,0.49,1.479,0.734,2.68,0.734c0.998,0,1.912-0.194,2.739-0.583C629.697,280.892,630.465,280.425,631.171,279.88z"/>
			<path fill="#FFFFFF" d="M651.983,282.982c-0.948,0.454-1.849,0.808-2.701,1.06c-0.854,0.252-1.759,0.379-2.717,0.379
				c-1.222,0-2.342-0.18-3.361-0.538c-1.019-0.357-1.892-0.9-2.618-1.627c-0.736-0.727-1.307-1.645-1.71-2.755
				c-0.404-1.11-0.605-2.406-0.605-3.891c0-2.765,0.759-4.934,2.277-6.508s3.524-2.361,6.018-2.361c0.969,0,1.919,0.136,2.853,0.408
				s1.789,0.605,2.565,0.999v3.163h-0.15c-0.868-0.676-1.764-1.195-2.688-1.559c-0.923-0.363-1.824-0.545-2.701-0.545
				c-1.615,0-2.89,0.543-3.822,1.627c-0.934,1.085-1.4,2.677-1.4,4.775c0,2.039,0.456,3.605,1.37,4.7
				c0.913,1.096,2.197,1.643,3.853,1.643c0.574,0,1.16-0.075,1.756-0.228c0.595-0.15,1.13-0.348,1.604-0.59
				c0.414-0.212,0.803-0.437,1.166-0.674c0.363-0.236,0.65-0.441,0.863-0.613h0.15V282.982z"/>
			<path fill="#FFFFFF" d="M670.979,284.042h-3.754l-6.781-7.402l-1.846,1.756v5.646h-2.846v-23.553h2.846v15.106l8.219-8.462h3.588
				l-7.856,7.811L670.979,284.042z"/>
			<path fill="#FFFFFF" d="M699.013,284.042h-2.846v-9.627c0-0.777-0.045-1.506-0.136-2.188c-0.091-0.681-0.257-1.213-0.499-1.597
				c-0.253-0.424-0.616-0.739-1.09-0.946c-0.475-0.206-1.09-0.311-1.848-0.311c-0.776,0-1.589,0.192-2.437,0.576
				c-0.848,0.383-1.66,0.872-2.437,1.468v12.624h-2.846v-23.553h2.846v8.521c0.888-0.736,1.806-1.312,2.754-1.725
				c0.949-0.414,1.923-0.621,2.922-0.621c1.826,0,3.219,0.55,4.178,1.65c0.959,1.1,1.438,2.684,1.438,4.752V284.042z"/>
			<path fill="#FFFFFF" d="M718.903,275.596c0,2.755-0.707,4.93-2.119,6.524c-1.413,1.594-3.306,2.391-5.677,2.391
				c-2.392,0-4.291-0.797-5.699-2.391c-1.407-1.595-2.111-3.77-2.111-6.524s0.704-4.932,2.111-6.531
				c1.408-1.6,3.308-2.399,5.699-2.399c2.371,0,4.264,0.8,5.677,2.399C718.196,270.664,718.903,272.841,718.903,275.596z
				 M715.966,275.596c0-2.189-0.429-3.816-1.286-4.882c-0.857-1.064-2.049-1.597-3.572-1.597c-1.544,0-2.742,0.532-3.595,1.597
				c-0.854,1.065-1.279,2.692-1.279,4.882c0,2.119,0.429,3.727,1.287,4.821c0.857,1.095,2.053,1.643,3.587,1.643
				c1.514,0,2.702-0.543,3.564-1.628C715.535,279.348,715.966,277.735,715.966,275.596z"/>
			<path fill="#FFFFFF" d="M726.184,284.042h-2.846v-23.553h2.846V284.042z"/>
			<path fill="#FFFFFF" d="M745.968,275.884h-12.457c0,1.039,0.156,1.944,0.469,2.717c0.313,0.771,0.742,1.405,1.287,1.899
				c0.524,0.484,1.147,0.848,1.869,1.09c0.721,0.242,1.516,0.363,2.384,0.363c1.15,0,2.309-0.229,3.474-0.688
				c1.166-0.459,1.996-0.911,2.49-1.355h0.151v3.104c-0.959,0.403-1.938,0.742-2.937,1.014c-0.999,0.273-2.049,0.409-3.148,0.409
				c-2.806,0-4.995-0.759-6.569-2.278c-1.574-1.519-2.361-3.676-2.361-6.471c0-2.765,0.754-4.96,2.263-6.584
				c1.509-1.625,3.494-2.438,5.957-2.438c2.28,0,4.038,0.666,5.274,1.998s1.854,3.225,1.854,5.676V275.884z M743.198,273.704
				c-0.011-1.494-0.387-2.649-1.128-3.467c-0.742-0.817-1.87-1.227-3.384-1.227c-1.523,0-2.737,0.449-3.64,1.348
				c-0.903,0.898-1.415,2.014-1.536,3.346H743.198z"/>
		</g>
	</g>
	<g>
		<rect x="104.819" y="67.235" fill="none" width="864" height="82.842"/>
		<path fill="#FFFFFF" d="M123.306,70.802h-7.793v19.233h-2.9V70.802h-7.793v-2.578h18.486V70.802z"/>
		<path fill="#FFFFFF" d="M139.697,90.035h-2.754v-9.316c0-0.752-0.044-1.457-0.132-2.117c-0.088-0.658-0.249-1.174-0.483-1.545
			c-0.244-0.41-0.596-0.715-1.055-0.916c-0.459-0.199-1.055-0.3-1.787-0.3c-0.752,0-1.538,0.186-2.358,0.557
			s-1.606,0.845-2.358,1.421v12.217h-2.754V67.242h2.754v8.247c0.859-0.713,1.748-1.27,2.666-1.67s1.86-0.601,2.827-0.601
			c1.768,0,3.115,0.532,4.043,1.597s1.392,2.598,1.392,4.6V90.035z"/>
		<path fill="#FFFFFF" d="M158.696,82.14h-12.056c0,1.006,0.151,1.882,0.454,2.63c0.303,0.746,0.718,1.359,1.245,1.838
			c0.508,0.469,1.111,0.82,1.809,1.055s1.467,0.352,2.307,0.352c1.113,0,2.234-0.222,3.362-0.666s1.931-0.882,2.41-1.312h0.146
			v3.003c-0.928,0.391-1.875,0.718-2.842,0.981s-1.982,0.396-3.047,0.396c-2.715,0-4.834-0.734-6.357-2.205
			c-1.523-1.469-2.285-3.557-2.285-6.262c0-2.676,0.73-4.8,2.19-6.372s3.381-2.358,5.764-2.358c2.207,0,3.909,0.645,5.105,1.934
			s1.794,3.12,1.794,5.493V82.14z M156.016,80.03c-0.01-1.445-0.374-2.563-1.091-3.354s-1.809-1.187-3.274-1.187
			c-1.475,0-2.649,0.435-3.523,1.304s-1.37,1.948-1.487,3.237H156.016z"/>
		<path fill="#FFFFFF" d="M186.133,90.035h-2.739v-1.743c-0.244,0.166-0.574,0.398-0.989,0.696s-0.818,0.534-1.208,0.71
			c-0.459,0.225-0.986,0.412-1.582,0.563s-1.294,0.228-2.095,0.228c-1.475,0-2.725-0.488-3.75-1.465s-1.538-2.222-1.538-3.735
			c0-1.24,0.266-2.243,0.798-3.01s1.292-1.37,2.278-1.81c0.996-0.439,2.192-0.737,3.589-0.894s2.896-0.273,4.497-0.352V78.8
			c0-0.625-0.11-1.143-0.33-1.553s-0.535-0.732-0.945-0.967c-0.391-0.225-0.859-0.376-1.406-0.454s-1.118-0.117-1.714-0.117
			c-0.723,0-1.528,0.096-2.417,0.285c-0.889,0.191-1.807,0.467-2.754,0.828h-0.146v-2.798c0.537-0.146,1.313-0.308,2.329-0.483
			s2.017-0.264,3.003-0.264c1.152,0,2.156,0.096,3.01,0.285c0.854,0.191,1.594,0.516,2.219,0.975
			c0.615,0.449,1.084,1.03,1.406,1.743s0.483,1.597,0.483,2.651V90.035z M183.394,86.007v-4.556c-0.84,0.049-1.829,0.122-2.966,0.22
			s-2.039,0.239-2.703,0.425c-0.791,0.225-1.431,0.574-1.919,1.047c-0.488,0.475-0.732,1.126-0.732,1.956
			c0,0.938,0.283,1.644,0.85,2.116c0.566,0.475,1.431,0.711,2.593,0.711c0.967,0,1.851-0.188,2.651-0.564
			C181.968,86.986,182.71,86.534,183.394,86.007z"/>
		<path fill="#FFFFFF" d="M215.313,90.035h-2.754v-9.316c0-0.703-0.032-1.382-0.095-2.036s-0.198-1.177-0.403-1.567
			c-0.225-0.42-0.547-0.737-0.967-0.952s-1.025-0.322-1.816-0.322c-0.771,0-1.543,0.193-2.314,0.579s-1.543,0.876-2.314,1.472
			c0.029,0.225,0.054,0.486,0.073,0.784s0.029,0.593,0.029,0.886v10.474h-2.754v-9.316c0-0.723-0.032-1.408-0.095-2.059
			c-0.063-0.648-0.198-1.169-0.403-1.56c-0.225-0.42-0.547-0.734-0.967-0.944s-1.025-0.315-1.816-0.315
			c-0.752,0-1.506,0.186-2.263,0.557s-1.511,0.845-2.263,1.421v12.217h-2.754V73.673h2.754v1.816c0.859-0.713,1.716-1.27,2.571-1.67
			s1.765-0.601,2.732-0.601c1.113,0,2.058,0.234,2.834,0.703s1.355,1.118,1.736,1.948c1.113-0.938,2.129-1.613,3.047-2.028
			s1.899-0.623,2.944-0.623c1.797,0,3.123,0.545,3.977,1.633c0.854,1.09,1.282,2.61,1.282,4.563V90.035z"/>
		<path fill="#FFFFFF" d="M234.561,81.861c0,2.666-0.684,4.771-2.051,6.313s-3.198,2.314-5.493,2.314
			c-2.314,0-4.153-0.771-5.515-2.314s-2.043-3.647-2.043-6.313s0.681-4.772,2.043-6.32s3.201-2.322,5.515-2.322
			c2.295,0,4.126,0.774,5.493,2.322S234.561,79.195,234.561,81.861z M231.719,81.861c0-2.119-0.415-3.693-1.245-4.725
			c-0.83-1.029-1.982-1.545-3.457-1.545c-1.494,0-2.654,0.516-3.479,1.545c-0.825,1.031-1.238,2.605-1.238,4.725
			c0,2.051,0.415,3.606,1.245,4.666s1.987,1.589,3.472,1.589c1.465,0,2.615-0.524,3.45-1.575
			C231.301,85.492,231.719,83.932,231.719,81.861z"/>
		<path fill="#FFFFFF" d="M252.388,90.035h-2.754v-1.816c-0.928,0.732-1.816,1.294-2.666,1.685s-1.787,0.586-2.813,0.586
			c-1.719,0-3.057-0.524-4.014-1.575c-0.957-1.049-1.436-2.59-1.436-4.621v-10.62h2.754v9.316c0,0.83,0.039,1.541,0.117,2.132
			s0.244,1.096,0.498,1.516c0.264,0.43,0.605,0.742,1.025,0.938s1.03,0.293,1.831,0.293c0.713,0,1.492-0.186,2.336-0.557
			s1.633-0.845,2.366-1.421V73.673h2.754V90.035z"/>
		<path fill="#FFFFFF" d="M271.489,90.035h-2.754v-9.316c0-0.752-0.044-1.457-0.132-2.117c-0.088-0.658-0.249-1.174-0.483-1.545
			c-0.244-0.41-0.596-0.715-1.055-0.916c-0.459-0.199-1.055-0.3-1.787-0.3c-0.752,0-1.538,0.186-2.358,0.557
			s-1.606,0.845-2.358,1.421v12.217h-2.754V73.673h2.754v1.816c0.859-0.713,1.748-1.27,2.666-1.67s1.86-0.601,2.827-0.601
			c1.768,0,3.115,0.532,4.043,1.597s1.392,2.598,1.392,4.6V90.035z"/>
		<path fill="#FFFFFF" d="M285.288,89.889c-0.518,0.137-1.082,0.249-1.692,0.337s-1.155,0.132-1.633,0.132
			c-1.67,0-2.939-0.449-3.809-1.348s-1.304-2.339-1.304-4.321v-8.701h-1.86v-2.314h1.86v-4.702h2.754v4.702h5.684v2.314h-5.684
			v7.456c0,0.859,0.02,1.531,0.059,2.014c0.039,0.484,0.176,0.936,0.41,1.355c0.215,0.391,0.51,0.677,0.886,0.857
			s0.95,0.271,1.721,0.271c0.449,0,0.918-0.065,1.406-0.198c0.488-0.131,0.84-0.241,1.055-0.329h0.146V89.889z"/>
		<path fill="#FFFFFF" d="M313.105,81.861c0,2.666-0.684,4.771-2.051,6.313s-3.198,2.314-5.493,2.314
			c-2.314,0-4.153-0.771-5.515-2.314s-2.043-3.647-2.043-6.313s0.681-4.772,2.043-6.32s3.201-2.322,5.515-2.322
			c2.295,0,4.126,0.774,5.493,2.322S313.105,79.195,313.105,81.861z M310.264,81.861c0-2.119-0.415-3.693-1.245-4.725
			c-0.83-1.029-1.982-1.545-3.457-1.545c-1.494,0-2.654,0.516-3.479,1.545c-0.825,1.031-1.238,2.605-1.238,4.725
			c0,2.051,0.415,3.606,1.245,4.666s1.987,1.589,3.472,1.589c1.465,0,2.615-0.524,3.45-1.575
			C309.846,85.492,310.264,83.932,310.264,81.861z"/>
		<path fill="#FFFFFF" d="M326.172,69.908h-0.146c-0.303-0.088-0.698-0.178-1.187-0.271c-0.488-0.092-0.918-0.139-1.289-0.139
			c-1.182,0-2.039,0.262-2.571,0.783c-0.532,0.523-0.798,1.468-0.798,2.835v0.557h4.966v2.314h-4.878v14.048h-2.754V75.987h-1.86
			v-2.314h1.86v-0.542c0-1.943,0.483-3.436,1.45-4.475c0.967-1.041,2.363-1.561,4.189-1.561c0.615,0,1.169,0.029,1.663,0.088
			s0.945,0.127,1.355,0.205V69.908z"/>
		<path fill="#FFFFFF" d="M355.879,68.224l-7.939,21.812h-3.867l-7.939-21.812h3.105l6.841,19.189l6.841-19.189H355.879z"/>
		<path fill="#FFFFFF" d="M370.22,90.035h-2.739v-1.743c-0.244,0.166-0.574,0.398-0.989,0.696s-0.818,0.534-1.208,0.71
			c-0.459,0.225-0.986,0.412-1.582,0.563s-1.294,0.228-2.095,0.228c-1.475,0-2.725-0.488-3.75-1.465s-1.538-2.222-1.538-3.735
			c0-1.24,0.266-2.243,0.798-3.01s1.292-1.37,2.278-1.81c0.996-0.439,2.192-0.737,3.589-0.894s2.896-0.273,4.497-0.352V78.8
			c0-0.625-0.11-1.143-0.33-1.553s-0.535-0.732-0.945-0.967c-0.391-0.225-0.859-0.376-1.406-0.454s-1.118-0.117-1.714-0.117
			c-0.723,0-1.528,0.096-2.417,0.285c-0.889,0.191-1.807,0.467-2.754,0.828h-0.146v-2.798c0.537-0.146,1.313-0.308,2.329-0.483
			s2.017-0.264,3.003-0.264c1.152,0,2.156,0.096,3.01,0.285c0.854,0.191,1.594,0.516,2.219,0.975
			c0.615,0.449,1.084,1.03,1.406,1.743s0.483,1.597,0.483,2.651V90.035z M367.48,86.007v-4.556c-0.84,0.049-1.829,0.122-2.966,0.22
			s-2.039,0.239-2.703,0.425c-0.791,0.225-1.431,0.574-1.919,1.047c-0.488,0.475-0.732,1.126-0.732,1.956
			c0,0.938,0.283,1.644,0.85,2.116c0.566,0.475,1.431,0.711,2.593,0.711c0.967,0,1.851-0.188,2.651-0.564
			C366.055,86.986,366.797,86.534,367.48,86.007z"/>
		<path fill="#FFFFFF" d="M387.622,89.01c-0.918,0.439-1.79,0.781-2.615,1.025s-1.702,0.366-2.629,0.366
			c-1.182,0-2.266-0.174-3.252-0.521c-0.986-0.346-1.831-0.871-2.534-1.574c-0.713-0.703-1.265-1.592-1.655-2.666
			s-0.586-2.329-0.586-3.765c0-2.676,0.735-4.775,2.205-6.299s3.411-2.285,5.823-2.285c0.938,0,1.858,0.132,2.761,0.396
			s1.731,0.586,2.483,0.967v3.062h-0.146c-0.84-0.654-1.707-1.157-2.6-1.509s-1.765-0.527-2.615-0.527
			c-1.563,0-2.795,0.525-3.699,1.574c-0.903,1.051-1.355,2.591-1.355,4.622c0,1.973,0.442,3.489,1.326,4.548
			c0.884,1.061,2.126,1.59,3.728,1.59c0.557,0,1.123-0.073,1.699-0.22s1.094-0.337,1.553-0.571c0.4-0.205,0.776-0.422,1.128-0.652
			c0.352-0.229,0.63-0.427,0.835-0.593h0.146V89.01z"/>
		<path fill="#FFFFFF" d="M404.717,90.035h-2.754v-1.816c-0.928,0.732-1.816,1.294-2.666,1.685s-1.787,0.586-2.813,0.586
			c-1.719,0-3.057-0.524-4.014-1.575c-0.957-1.049-1.436-2.59-1.436-4.621v-10.62h2.754v9.316c0,0.83,0.039,1.541,0.117,2.132
			s0.244,1.096,0.498,1.516c0.264,0.43,0.605,0.742,1.025,0.938s1.03,0.293,1.831,0.293c0.713,0,1.492-0.186,2.336-0.557
			s1.633-0.845,2.366-1.421V73.673h2.754V90.035z"/>
		<path fill="#FFFFFF" d="M423.701,90.035h-2.754v-1.816c-0.928,0.732-1.816,1.294-2.666,1.685s-1.787,0.586-2.813,0.586
			c-1.719,0-3.057-0.524-4.014-1.575c-0.957-1.049-1.436-2.59-1.436-4.621v-10.62h2.754v9.316c0,0.83,0.039,1.541,0.117,2.132
			s0.244,1.096,0.498,1.516c0.264,0.43,0.605,0.742,1.025,0.938s1.03,0.293,1.831,0.293c0.713,0,1.492-0.186,2.336-0.557
			s1.633-0.845,2.366-1.421V73.673h2.754V90.035z"/>
		<path fill="#FFFFFF" d="M452.998,90.035h-2.754v-9.316c0-0.703-0.032-1.382-0.095-2.036s-0.198-1.177-0.403-1.567
			c-0.225-0.42-0.547-0.737-0.967-0.952s-1.025-0.322-1.816-0.322c-0.771,0-1.543,0.193-2.314,0.579s-1.543,0.876-2.314,1.472
			c0.029,0.225,0.054,0.486,0.073,0.784s0.029,0.593,0.029,0.886v10.474h-2.754v-9.316c0-0.723-0.032-1.408-0.095-2.059
			c-0.063-0.648-0.198-1.169-0.403-1.56c-0.225-0.42-0.547-0.734-0.967-0.944s-1.025-0.315-1.816-0.315
			c-0.752,0-1.506,0.186-2.263,0.557s-1.511,0.845-2.263,1.421v12.217h-2.754V73.673h2.754v1.816c0.859-0.713,1.716-1.27,2.571-1.67
			s1.765-0.601,2.732-0.601c1.113,0,2.058,0.234,2.834,0.703s1.355,1.118,1.736,1.948c1.113-0.938,2.129-1.613,3.047-2.028
			s1.899-0.623,2.944-0.623c1.797,0,3.123,0.545,3.977,1.633c0.854,1.09,1.282,2.61,1.282,4.563V90.035z"/>
		<path fill="#FFFFFF" d="M487.495,79.151c0,1.982-0.432,3.779-1.296,5.391s-2.014,2.861-3.45,3.75
			c-0.996,0.615-2.107,1.06-3.333,1.333s-2.839,0.41-4.841,0.41h-5.508V68.224h5.449c2.129,0,3.821,0.153,5.076,0.462
			c1.255,0.307,2.317,0.729,3.186,1.267c1.484,0.928,2.642,2.163,3.472,3.706S487.495,77.032,487.495,79.151z M484.463,79.107
			c0-1.709-0.298-3.149-0.894-4.321s-1.484-2.095-2.666-2.769c-0.859-0.488-1.772-0.828-2.739-1.018
			c-0.967-0.191-2.124-0.286-3.472-0.286h-2.725v16.831h2.725c1.396,0,2.615-0.103,3.655-0.308s1.995-0.586,2.864-1.143
			c1.084-0.693,1.897-1.606,2.439-2.739S484.463,80.807,484.463,79.107z"/>
		<path fill="#FFFFFF" d="M505.659,82.14h-12.056c0,1.006,0.151,1.882,0.454,2.63c0.303,0.746,0.718,1.359,1.245,1.838
			c0.508,0.469,1.111,0.82,1.809,1.055s1.467,0.352,2.307,0.352c1.113,0,2.234-0.222,3.362-0.666s1.931-0.882,2.41-1.312h0.146
			v3.003c-0.928,0.391-1.875,0.718-2.842,0.981s-1.982,0.396-3.047,0.396c-2.715,0-4.834-0.734-6.357-2.205
			c-1.523-1.469-2.285-3.557-2.285-6.262c0-2.676,0.73-4.8,2.19-6.372s3.381-2.358,5.764-2.358c2.207,0,3.909,0.645,5.105,1.934
			s1.794,3.12,1.794,5.493V82.14z M502.979,80.03c-0.01-1.445-0.374-2.563-1.091-3.354s-1.809-1.187-3.274-1.187
			c-1.475,0-2.649,0.435-3.523,1.304s-1.37,1.948-1.487,3.237H502.979z"/>
		<path fill="#FFFFFF" d="M523.516,90.035h-2.754v-9.316c0-0.752-0.044-1.457-0.132-2.117c-0.088-0.658-0.249-1.174-0.483-1.545
			c-0.244-0.41-0.596-0.715-1.055-0.916c-0.459-0.199-1.055-0.3-1.787-0.3c-0.752,0-1.538,0.186-2.358,0.557
			s-1.606,0.845-2.358,1.421v12.217h-2.754V73.673h2.754v1.816c0.859-0.713,1.748-1.27,2.666-1.67s1.86-0.601,2.827-0.601
			c1.768,0,3.115,0.532,4.043,1.597s1.392,2.598,1.392,4.6V90.035z"/>
		<path fill="#FFFFFF" d="M540.508,85.318c0,1.494-0.617,2.72-1.854,3.677c-1.234,0.957-2.922,1.436-5.061,1.436
			c-1.211,0-2.322-0.145-3.333-0.433c-1.011-0.287-1.858-0.603-2.542-0.944v-3.091h0.146c0.869,0.654,1.836,1.175,2.9,1.561
			s2.085,0.578,3.062,0.578c1.211,0,2.158-0.195,2.842-0.586s1.025-1.006,1.025-1.846c0-0.645-0.186-1.133-0.557-1.465
			s-1.084-0.615-2.139-0.85c-0.391-0.088-0.901-0.19-1.531-0.308s-1.204-0.244-1.721-0.381c-1.436-0.381-2.454-0.939-3.054-1.677
			s-0.901-1.644-0.901-2.718c0-0.674,0.139-1.309,0.417-1.904s0.701-1.128,1.267-1.597c0.547-0.459,1.243-0.822,2.087-1.092
			c0.845-0.268,1.79-0.402,2.834-0.402c0.977,0,1.965,0.12,2.966,0.359c1.002,0.239,1.834,0.529,2.498,0.871v2.944h-0.146
			c-0.703-0.518-1.558-0.954-2.563-1.312c-1.006-0.355-1.992-0.534-2.959-0.534c-1.006,0-1.855,0.193-2.549,0.579
			s-1.04,0.959-1.04,1.721c0,0.674,0.21,1.182,0.63,1.523c0.41,0.342,1.074,0.62,1.992,0.835c0.508,0.117,1.077,0.234,1.707,0.352
			s1.155,0.225,1.575,0.322c1.279,0.293,2.266,0.796,2.959,1.509C540.161,83.17,540.508,84.127,540.508,85.318z"/>
		<path fill="#FFFFFF" d="M547.407,70.934h-3.105v-2.856h3.105V70.934z M547.231,90.035h-2.754V73.673h2.754V90.035z"/>
		<path fill="#FFFFFF" d="M561.177,89.889c-0.518,0.137-1.081,0.249-1.692,0.337c-0.609,0.088-1.154,0.132-1.633,0.132
			c-1.67,0-2.939-0.449-3.809-1.348s-1.304-2.339-1.304-4.321v-8.701h-1.86v-2.314h1.86v-4.702h2.754v4.702h5.684v2.314h-5.684
			v7.456c0,0.859,0.02,1.531,0.059,2.014c0.039,0.484,0.176,0.936,0.41,1.355c0.215,0.391,0.511,0.677,0.886,0.857
			c0.377,0.181,0.95,0.271,1.722,0.271c0.449,0,0.918-0.065,1.406-0.198c0.488-0.131,0.84-0.241,1.055-0.329h0.146V89.889z"/>
		<path fill="#FFFFFF" d="M578.506,73.673l-9.551,22.397h-2.944l3.047-6.826l-6.519-15.571h2.988l5.024,12.129l5.068-12.129H578.506
			z"/>
		<path fill="#FFFFFF" d="M606.338,90.035h-2.754v-9.316c0-0.752-0.044-1.457-0.132-2.117c-0.088-0.658-0.249-1.174-0.483-1.545
			c-0.244-0.41-0.596-0.715-1.055-0.916c-0.459-0.199-1.055-0.3-1.787-0.3c-0.752,0-1.538,0.186-2.358,0.557
			s-1.606,0.845-2.358,1.421v12.217h-2.754V73.673h2.754v1.816c0.859-0.713,1.748-1.27,2.666-1.67s1.86-0.601,2.827-0.601
			c1.768,0,3.115,0.532,4.043,1.597s1.392,2.598,1.392,4.6V90.035z"/>
		<path fill="#FFFFFF" d="M625.337,82.14h-12.056c0,1.006,0.151,1.882,0.454,2.63c0.303,0.746,0.718,1.359,1.245,1.838
			c0.508,0.469,1.111,0.82,1.809,1.055c0.699,0.234,1.468,0.352,2.308,0.352c1.113,0,2.233-0.222,3.362-0.666
			c1.127-0.444,1.931-0.882,2.409-1.312h0.146v3.003c-0.928,0.391-1.875,0.718-2.842,0.981s-1.982,0.396-3.047,0.396
			c-2.715,0-4.834-0.734-6.357-2.205c-1.523-1.469-2.285-3.557-2.285-6.262c0-2.676,0.729-4.8,2.19-6.372
			c1.459-1.572,3.381-2.358,5.764-2.358c2.207,0,3.908,0.645,5.105,1.934c1.195,1.289,1.794,3.12,1.794,5.493V82.14z M622.656,80.03
			c-0.01-1.445-0.373-2.563-1.092-3.354c-0.717-0.791-1.809-1.187-3.273-1.187c-1.475,0-2.648,0.435-3.523,1.304
			c-0.873,0.869-1.369,1.948-1.486,3.237H622.656z"/>
		<path fill="#FFFFFF" d="M641.611,89.01c-0.918,0.439-1.789,0.781-2.615,1.025c-0.824,0.244-1.701,0.366-2.629,0.366
			c-1.182,0-2.266-0.174-3.252-0.521c-0.986-0.346-1.831-0.871-2.534-1.574c-0.713-0.703-1.265-1.592-1.655-2.666
			s-0.586-2.329-0.586-3.765c0-2.676,0.734-4.775,2.205-6.299c1.469-1.523,3.41-2.285,5.822-2.285c0.938,0,1.857,0.132,2.762,0.396
			c0.902,0.264,1.73,0.586,2.482,0.967v3.062h-0.146c-0.84-0.654-1.707-1.157-2.6-1.509c-0.895-0.352-1.766-0.527-2.615-0.527
			c-1.563,0-2.795,0.525-3.699,1.574c-0.902,1.051-1.354,2.591-1.354,4.622c0,1.973,0.442,3.489,1.325,4.548
			c0.885,1.061,2.127,1.59,3.729,1.59c0.557,0,1.123-0.073,1.699-0.22s1.094-0.337,1.553-0.571c0.4-0.205,0.776-0.422,1.128-0.652
			c0.352-0.229,0.63-0.427,0.835-0.593h0.146V89.01z"/>
		<path fill="#FFFFFF" d="M658.838,82.14h-12.056c0,1.006,0.151,1.882,0.454,2.63c0.303,0.746,0.718,1.359,1.245,1.838
			c0.508,0.469,1.11,0.82,1.81,1.055c0.697,0.234,1.467,0.352,2.307,0.352c1.113,0,2.234-0.222,3.361-0.666
			c1.129-0.444,1.932-0.882,2.41-1.312h0.146v3.003c-0.928,0.391-1.875,0.718-2.842,0.981s-1.982,0.396-3.047,0.396
			c-2.715,0-4.834-0.734-6.357-2.205c-1.523-1.469-2.285-3.557-2.285-6.262c0-2.676,0.73-4.8,2.189-6.372
			c1.461-1.572,3.382-2.358,5.765-2.358c2.207,0,3.909,0.645,5.104,1.934c1.197,1.289,1.795,3.12,1.795,5.493V82.14z M656.157,80.03
			c-0.01-1.445-0.374-2.563-1.091-3.354c-0.719-0.791-1.81-1.187-3.274-1.187c-1.475,0-2.649,0.435-3.522,1.304
			c-0.875,0.869-1.37,1.948-1.487,3.237H656.157z"/>
		<path fill="#FFFFFF" d="M674.702,85.318c0,1.494-0.618,2.72-1.853,3.677c-1.236,0.957-2.923,1.436-5.062,1.436
			c-1.211,0-2.321-0.145-3.333-0.433c-1.01-0.287-1.857-0.603-2.541-0.944v-3.091h0.146c0.869,0.654,1.836,1.175,2.9,1.561
			s2.085,0.578,3.062,0.578c1.211,0,2.158-0.195,2.842-0.586s1.025-1.006,1.025-1.846c0-0.645-0.186-1.133-0.557-1.465
			s-1.084-0.615-2.139-0.85c-0.391-0.088-0.901-0.19-1.53-0.308c-0.631-0.117-1.204-0.244-1.722-0.381
			c-1.436-0.381-2.454-0.939-3.054-1.677c-0.602-0.737-0.901-1.644-0.901-2.718c0-0.674,0.14-1.309,0.417-1.904
			c0.279-0.596,0.701-1.128,1.268-1.597c0.547-0.459,1.242-0.822,2.088-1.092c0.844-0.268,1.789-0.402,2.834-0.402
			c0.977,0,1.965,0.12,2.967,0.359c1,0.239,1.833,0.529,2.497,0.871v2.944h-0.146c-0.703-0.518-1.558-0.954-2.563-1.312
			c-1.006-0.355-1.992-0.534-2.959-0.534c-1.006,0-1.855,0.193-2.549,0.579s-1.04,0.959-1.04,1.721c0,0.674,0.21,1.182,0.63,1.523
			c0.41,0.342,1.074,0.62,1.992,0.835c0.508,0.117,1.076,0.234,1.707,0.352c0.629,0.117,1.154,0.225,1.574,0.322
			c1.279,0.293,2.266,0.796,2.959,1.509C674.355,83.17,674.702,84.127,674.702,85.318z"/>
		<path fill="#FFFFFF" d="M690.332,85.318c0,1.494-0.617,2.72-1.854,3.677c-1.234,0.957-2.922,1.436-5.061,1.436
			c-1.211,0-2.322-0.145-3.332-0.433c-1.012-0.287-1.858-0.603-2.542-0.944v-3.091h0.146c0.869,0.654,1.836,1.175,2.9,1.561
			s2.085,0.578,3.062,0.578c1.211,0,2.158-0.195,2.842-0.586s1.025-1.006,1.025-1.846c0-0.645-0.186-1.133-0.557-1.465
			s-1.084-0.615-2.139-0.85c-0.391-0.088-0.9-0.19-1.531-0.308c-0.629-0.117-1.203-0.244-1.721-0.381
			c-1.436-0.381-2.453-0.939-3.055-1.677c-0.6-0.737-0.9-1.644-0.9-2.718c0-0.674,0.139-1.309,0.418-1.904
			c0.277-0.596,0.7-1.128,1.267-1.597c0.547-0.459,1.243-0.822,2.087-1.092c0.846-0.268,1.79-0.402,2.835-0.402
			c0.977,0,1.966,0.12,2.966,0.359c1.002,0.239,1.834,0.529,2.498,0.871v2.944h-0.146c-0.703-0.518-1.558-0.954-2.563-1.312
			c-1.006-0.355-1.992-0.534-2.959-0.534c-1.006,0-1.855,0.193-2.549,0.579s-1.04,0.959-1.04,1.721c0,0.674,0.21,1.182,0.63,1.523
			c0.41,0.342,1.074,0.62,1.992,0.835c0.508,0.117,1.077,0.234,1.706,0.352c0.631,0.117,1.155,0.225,1.575,0.322
			c1.279,0.293,2.266,0.796,2.959,1.509C689.985,83.17,690.332,84.127,690.332,85.318z"/>
		<path fill="#FFFFFF" d="M706.987,90.035h-2.739v-1.743c-0.244,0.166-0.574,0.398-0.988,0.696c-0.416,0.298-0.818,0.534-1.209,0.71
			c-0.459,0.225-0.986,0.412-1.582,0.563s-1.294,0.228-2.095,0.228c-1.475,0-2.725-0.488-3.75-1.465s-1.538-2.222-1.538-3.735
			c0-1.24,0.266-2.243,0.799-3.01c0.531-0.767,1.291-1.37,2.277-1.81c0.996-0.439,2.192-0.737,3.589-0.894s2.896-0.273,4.497-0.352
			V78.8c0-0.625-0.109-1.143-0.33-1.553c-0.219-0.41-0.534-0.732-0.944-0.967c-0.391-0.225-0.859-0.376-1.406-0.454
			s-1.118-0.117-1.714-0.117c-0.723,0-1.528,0.096-2.417,0.285c-0.889,0.191-1.807,0.467-2.754,0.828h-0.146v-2.798
			c0.537-0.146,1.313-0.308,2.329-0.483s2.017-0.264,3.003-0.264c1.152,0,2.155,0.096,3.011,0.285
			c0.854,0.191,1.594,0.516,2.219,0.975c0.615,0.449,1.084,1.03,1.406,1.743s0.483,1.597,0.483,2.651V90.035z M704.248,86.007
			v-4.556c-0.84,0.049-1.828,0.122-2.967,0.22c-1.137,0.098-2.038,0.239-2.702,0.425c-0.791,0.225-1.431,0.574-1.919,1.047
			c-0.488,0.475-0.732,1.126-0.732,1.956c0,0.938,0.283,1.644,0.85,2.116c0.566,0.475,1.431,0.711,2.593,0.711
			c0.967,0,1.851-0.188,2.651-0.564C702.822,86.986,703.564,86.534,704.248,86.007z"/>
		<path fill="#FFFFFF" d="M722.5,76.676h-0.146c-0.41-0.098-0.809-0.168-1.193-0.213c-0.387-0.043-0.843-0.065-1.37-0.065
			c-0.85,0-1.67,0.188-2.461,0.563c-0.791,0.377-1.553,0.862-2.285,1.458v11.616h-2.754V73.673h2.754v2.417
			c1.094-0.879,2.058-1.502,2.894-1.867c0.834-0.367,1.687-0.55,2.556-0.55c0.479,0,0.825,0.013,1.04,0.036
			c0.215,0.025,0.537,0.071,0.967,0.14V76.676z"/>
		<path fill="#FFFFFF" d="M739.243,73.673l-9.551,22.397h-2.944l3.047-6.826l-6.519-15.571h2.988l5.024,12.129l5.068-12.129H739.243
			z"/>
		<path fill="#FFFFFF" d="M761.89,89.889c-0.518,0.137-1.081,0.249-1.692,0.337c-0.609,0.088-1.154,0.132-1.633,0.132
			c-1.67,0-2.939-0.449-3.809-1.348s-1.304-2.339-1.304-4.321v-8.701h-1.86v-2.314h1.86v-4.702h2.754v4.702h5.684v2.314h-5.684
			v7.456c0,0.859,0.02,1.531,0.059,2.014c0.039,0.484,0.176,0.936,0.41,1.355c0.215,0.391,0.511,0.677,0.886,0.857
			c0.377,0.181,0.95,0.271,1.722,0.271c0.449,0,0.918-0.065,1.406-0.198c0.488-0.131,0.84-0.241,1.055-0.329h0.146V89.889z"/>
		<path fill="#FFFFFF" d="M779.16,81.861c0,2.666-0.684,4.771-2.051,6.313s-3.198,2.314-5.493,2.314
			c-2.314,0-4.153-0.771-5.515-2.314c-1.363-1.543-2.044-3.647-2.044-6.313s0.681-4.772,2.044-6.32
			c1.361-1.548,3.2-2.322,5.515-2.322c2.295,0,4.126,0.774,5.493,2.322S779.16,79.195,779.16,81.861z M776.318,81.861
			c0-2.119-0.415-3.693-1.245-4.725c-0.83-1.029-1.982-1.545-3.457-1.545c-1.494,0-2.653,0.516-3.479,1.545
			c-0.824,1.031-1.237,2.605-1.237,4.725c0,2.051,0.415,3.606,1.245,4.666s1.987,1.589,3.472,1.589c1.465,0,2.614-0.524,3.45-1.575
			C775.9,85.492,776.318,83.932,776.318,81.861z"/>
		<path fill="#FFFFFF" d="M808.369,81.656c0,1.328-0.19,2.541-0.571,3.641c-0.381,1.098-0.918,2.028-1.611,2.79
			c-0.645,0.723-1.403,1.282-2.278,1.677c-0.873,0.396-1.799,0.594-2.775,0.594c-0.85,0-1.619-0.093-2.307-0.278
			c-0.689-0.186-1.39-0.474-2.103-0.864v6.855h-2.754V73.673h2.754v1.714c0.732-0.615,1.556-1.13,2.468-1.545
			c0.914-0.415,1.888-0.623,2.923-0.623c1.973,0,3.509,0.745,4.606,2.234C807.82,76.942,808.369,79.01,808.369,81.656z
			 M805.527,81.729c0-1.973-0.337-3.447-1.011-4.424s-1.709-1.465-3.105-1.465c-0.791,0-1.587,0.171-2.388,0.513
			s-1.567,0.791-2.3,1.348v9.272c0.781,0.352,1.452,0.591,2.015,0.718c0.561,0.127,1.198,0.19,1.911,0.19
			c1.533,0,2.729-0.518,3.589-1.553S805.527,83.761,805.527,81.729z"/>
		<path fill="#FFFFFF" d="M822.871,76.676h-0.146c-0.41-0.098-0.809-0.168-1.193-0.213c-0.387-0.043-0.843-0.065-1.37-0.065
			c-0.85,0-1.67,0.188-2.461,0.563c-0.791,0.377-1.553,0.862-2.285,1.458v11.616h-2.754V73.673h2.754v2.417
			c1.094-0.879,2.058-1.502,2.894-1.867c0.834-0.367,1.687-0.55,2.556-0.55c0.479,0,0.825,0.013,1.04,0.036
			c0.215,0.025,0.537,0.071,0.967,0.14V76.676z"/>
		<path fill="#FFFFFF" d="M839.409,81.861c0,2.666-0.684,4.771-2.051,6.313s-3.198,2.314-5.493,2.314
			c-2.314,0-4.152-0.771-5.516-2.314c-1.361-1.543-2.043-3.647-2.043-6.313s0.682-4.772,2.043-6.32
			c1.363-1.548,3.201-2.322,5.516-2.322c2.295,0,4.126,0.774,5.493,2.322S839.409,79.195,839.409,81.861z M836.567,81.861
			c0-2.119-0.415-3.693-1.245-4.725c-0.83-1.029-1.982-1.545-3.457-1.545c-1.494,0-2.654,0.516-3.479,1.545
			c-0.826,1.031-1.238,2.605-1.238,4.725c0,2.051,0.415,3.606,1.245,4.666s1.987,1.589,3.472,1.589c1.465,0,2.615-0.524,3.449-1.575
			C836.15,85.492,836.567,83.932,836.567,81.861z"/>
		<path fill="#FFFFFF" d="M856.943,90.035h-2.754v-1.714c-0.791,0.684-1.616,1.216-2.476,1.597s-1.792,0.571-2.798,0.571
			c-1.953,0-3.504-0.752-4.65-2.256c-1.148-1.504-1.722-3.589-1.722-6.255c0-1.387,0.198-2.622,0.593-3.706
			c0.396-1.084,0.931-2.007,1.604-2.769c0.664-0.742,1.438-1.309,2.321-1.699c0.885-0.391,1.8-0.586,2.747-0.586
			c0.859,0,1.621,0.091,2.285,0.271s1.362,0.461,2.095,0.842v-7.09h2.754V90.035z M854.189,86.007v-9.39
			c-0.742-0.332-1.406-0.562-1.992-0.688s-1.226-0.19-1.919-0.19c-1.543,0-2.744,0.537-3.604,1.611s-1.289,2.598-1.289,4.57
			c0,1.943,0.332,3.42,0.996,4.432c0.664,1.01,1.729,1.516,3.193,1.516c0.781,0,1.572-0.173,2.373-0.52
			S853.496,86.554,854.189,86.007z"/>
		<path fill="#FFFFFF" d="M875.928,90.035h-2.754v-1.816c-0.928,0.732-1.816,1.294-2.666,1.685s-1.787,0.586-2.813,0.586
			c-1.719,0-3.057-0.524-4.014-1.575c-0.957-1.049-1.436-2.59-1.436-4.621v-10.62H865v9.316c0,0.83,0.039,1.541,0.117,2.132
			s0.244,1.096,0.498,1.516c0.264,0.43,0.605,0.742,1.025,0.938s1.03,0.293,1.831,0.293c0.713,0,1.491-0.186,2.337-0.557
			c0.844-0.371,1.633-0.845,2.365-1.421V73.673h2.754V90.035z"/>
		<path fill="#FFFFFF" d="M893.447,89.01c-0.918,0.439-1.789,0.781-2.615,1.025c-0.824,0.244-1.701,0.366-2.629,0.366
			c-1.182,0-2.266-0.174-3.252-0.521c-0.986-0.346-1.831-0.871-2.534-1.574c-0.713-0.703-1.265-1.592-1.655-2.666
			s-0.586-2.329-0.586-3.765c0-2.676,0.734-4.775,2.205-6.299c1.469-1.523,3.41-2.285,5.822-2.285c0.938,0,1.857,0.132,2.762,0.396
			c0.902,0.264,1.73,0.586,2.482,0.967v3.062h-0.146c-0.84-0.654-1.707-1.157-2.6-1.509c-0.895-0.352-1.766-0.527-2.615-0.527
			c-1.563,0-2.795,0.525-3.699,1.574c-0.902,1.051-1.354,2.591-1.354,4.622c0,1.973,0.442,3.489,1.325,4.548
			c0.885,1.061,2.127,1.59,3.729,1.59c0.557,0,1.123-0.073,1.699-0.22s1.094-0.337,1.553-0.571c0.4-0.205,0.776-0.422,1.128-0.652
			c0.352-0.229,0.63-0.427,0.835-0.593h0.146V89.01z"/>
		<path fill="#FFFFFF" d="M910.674,82.14h-12.056c0,1.006,0.151,1.882,0.454,2.63c0.303,0.746,0.718,1.359,1.245,1.838
			c0.508,0.469,1.11,0.82,1.81,1.055c0.697,0.234,1.467,0.352,2.307,0.352c1.113,0,2.234-0.222,3.361-0.666
			c1.129-0.444,1.932-0.882,2.41-1.312h0.146v3.003c-0.928,0.391-1.875,0.718-2.842,0.981s-1.982,0.396-3.047,0.396
			c-2.715,0-4.834-0.734-6.357-2.205c-1.523-1.469-2.285-3.557-2.285-6.262c0-2.676,0.73-4.8,2.189-6.372
			c1.461-1.572,3.382-2.358,5.765-2.358c2.207,0,3.909,0.645,5.104,1.934c1.197,1.289,1.795,3.12,1.795,5.493V82.14z M907.993,80.03
			c-0.01-1.445-0.374-2.563-1.091-3.354c-0.719-0.791-1.81-1.187-3.274-1.187c-1.475,0-2.649,0.435-3.522,1.304
			c-0.875,0.869-1.37,1.948-1.487,3.237H907.993z"/>
		<path fill="#FFFFFF" d="M116.025,132.889c-0.518,0.137-1.082,0.249-1.692,0.337s-1.155,0.132-1.633,0.132
			c-1.67,0-2.939-0.449-3.809-1.348s-1.304-2.339-1.304-4.321v-8.701h-1.86v-2.314h1.86v-4.702h2.754v4.702h5.684v2.314h-5.684
			v7.456c0,0.859,0.02,1.531,0.059,2.014c0.039,0.484,0.176,0.936,0.41,1.355c0.215,0.391,0.51,0.677,0.886,0.857
			s0.95,0.271,1.721,0.271c0.449,0,0.918-0.065,1.406-0.198c0.488-0.131,0.84-0.241,1.055-0.329h0.146V132.889z"/>
		<path fill="#FFFFFF" d="M133.032,133.035h-2.754v-9.316c0-0.752-0.044-1.457-0.132-2.117c-0.088-0.658-0.249-1.174-0.483-1.545
			c-0.244-0.41-0.596-0.715-1.055-0.916c-0.459-0.199-1.055-0.3-1.787-0.3c-0.752,0-1.538,0.186-2.358,0.557
			s-1.606,0.845-2.358,1.421v12.217h-2.754v-22.793h2.754v8.247c0.859-0.713,1.748-1.27,2.666-1.67s1.86-0.601,2.827-0.601
			c1.768,0,3.115,0.532,4.043,1.597s1.392,2.598,1.392,4.6V133.035z"/>
		<path fill="#FFFFFF" d="M152.031,125.14h-12.056c0,1.006,0.151,1.882,0.454,2.63c0.303,0.746,0.718,1.359,1.245,1.838
			c0.508,0.469,1.111,0.82,1.809,1.055s1.467,0.352,2.307,0.352c1.113,0,2.234-0.222,3.362-0.666s1.931-0.882,2.41-1.312h0.146
			v3.003c-0.928,0.391-1.875,0.718-2.842,0.981s-1.982,0.396-3.047,0.396c-2.715,0-4.834-0.734-6.357-2.205
			c-1.523-1.469-2.285-3.557-2.285-6.262c0-2.676,0.73-4.8,2.19-6.372s3.381-2.358,5.764-2.358c2.207,0,3.909,0.645,5.105,1.934
			s1.794,3.12,1.794,5.493V125.14z M149.351,123.03c-0.01-1.445-0.374-2.563-1.091-3.354s-1.809-1.187-3.274-1.187
			c-1.475,0-2.649,0.435-3.523,1.304s-1.37,1.948-1.487,3.237H149.351z"/>
		<path fill="#FFFFFF" d="M182.822,126.81c0,0.85-0.198,1.689-0.593,2.52s-0.95,1.533-1.663,2.109
			c-0.781,0.625-1.692,1.113-2.732,1.465s-2.292,0.527-3.757,0.527c-1.572,0-2.986-0.146-4.241-0.439s-2.532-0.728-3.831-1.304
			v-3.633h0.205c1.104,0.918,2.378,1.626,3.823,2.124s2.803,0.747,4.072,0.747c1.797,0,3.196-0.337,4.197-1.011
			s1.501-1.572,1.501-2.695c0-0.967-0.237-1.68-0.71-2.139s-1.194-0.815-2.161-1.069c-0.732-0.195-1.526-0.356-2.38-0.483
			s-1.76-0.288-2.717-0.483c-1.934-0.41-3.367-1.11-4.299-2.102s-1.399-2.283-1.399-3.875c0-1.826,0.771-3.322,2.314-4.49
			c1.543-1.166,3.501-1.75,5.874-1.75c1.533,0,2.939,0.146,4.219,0.439s2.412,0.654,3.398,1.084v3.428h-0.205
			c-0.83-0.703-1.921-1.286-3.274-1.75s-2.737-0.696-4.153-0.696c-1.553,0-2.8,0.322-3.743,0.967s-1.414,1.475-1.414,2.49
			c0,0.908,0.234,1.621,0.703,2.139s1.294,0.913,2.476,1.187c0.625,0.137,1.514,0.303,2.666,0.498s2.129,0.396,2.93,0.601
			c1.621,0.43,2.842,1.079,3.662,1.948S182.822,125.247,182.822,126.81z"/>
		<path fill="#FFFFFF" d="M199.36,132.01c-0.918,0.439-1.79,0.781-2.615,1.025s-1.702,0.366-2.629,0.366
			c-1.182,0-2.266-0.174-3.252-0.521c-0.986-0.346-1.831-0.871-2.534-1.574c-0.713-0.703-1.265-1.592-1.655-2.666
			s-0.586-2.329-0.586-3.765c0-2.676,0.735-4.775,2.205-6.299s3.411-2.285,5.823-2.285c0.938,0,1.858,0.132,2.761,0.396
			s1.731,0.586,2.483,0.967v3.062h-0.146c-0.84-0.654-1.707-1.157-2.6-1.509s-1.765-0.527-2.615-0.527
			c-1.563,0-2.795,0.525-3.699,1.574c-0.903,1.051-1.355,2.591-1.355,4.622c0,1.973,0.442,3.489,1.326,4.548
			c0.884,1.061,2.126,1.59,3.728,1.59c0.557,0,1.123-0.073,1.699-0.22s1.094-0.337,1.553-0.571c0.4-0.205,0.776-0.422,1.128-0.652
			c0.352-0.229,0.63-0.427,0.835-0.593h0.146V132.01z"/>
		<path fill="#FFFFFF" d="M216.572,133.035h-2.754v-9.316c0-0.752-0.044-1.457-0.132-2.117c-0.088-0.658-0.249-1.174-0.483-1.545
			c-0.244-0.41-0.596-0.715-1.055-0.916c-0.459-0.199-1.055-0.3-1.787-0.3c-0.752,0-1.538,0.186-2.358,0.557
			s-1.606,0.845-2.358,1.421v12.217h-2.754v-22.793h2.754v8.247c0.859-0.713,1.748-1.27,2.666-1.67s1.86-0.601,2.827-0.601
			c1.768,0,3.115,0.532,4.043,1.597s1.392,2.598,1.392,4.6V133.035z"/>
		<path fill="#FFFFFF" d="M242.31,116.673l-4.263,16.362h-2.549l-4.204-12.612l-4.175,12.612h-2.534l-4.307-16.362h2.871
			l3.003,12.671l4.087-12.671h2.271l4.189,12.671l2.842-12.671H242.31z"/>
		<path fill="#FFFFFF" d="M258.701,133.035h-2.739v-1.743c-0.244,0.166-0.574,0.398-0.989,0.696s-0.818,0.534-1.208,0.71
			c-0.459,0.225-0.986,0.412-1.582,0.563s-1.294,0.228-2.095,0.228c-1.475,0-2.725-0.488-3.75-1.465s-1.538-2.222-1.538-3.735
			c0-1.24,0.266-2.243,0.798-3.01s1.292-1.37,2.278-1.81c0.996-0.439,2.192-0.737,3.589-0.894s2.896-0.273,4.497-0.352V121.8
			c0-0.625-0.11-1.143-0.33-1.553s-0.535-0.732-0.945-0.967c-0.391-0.225-0.859-0.376-1.406-0.454s-1.118-0.117-1.714-0.117
			c-0.723,0-1.528,0.096-2.417,0.285c-0.889,0.191-1.807,0.467-2.754,0.828h-0.146v-2.798c0.537-0.146,1.313-0.308,2.329-0.483
			s2.017-0.264,3.003-0.264c1.152,0,2.156,0.096,3.01,0.285c0.854,0.191,1.594,0.516,2.219,0.975
			c0.615,0.449,1.084,1.03,1.406,1.743s0.483,1.597,0.483,2.651V133.035z M255.962,129.007v-4.556
			c-0.84,0.049-1.829,0.122-2.966,0.22s-2.039,0.239-2.703,0.425c-0.791,0.225-1.431,0.574-1.919,1.047
			c-0.488,0.475-0.732,1.126-0.732,1.956c0,0.938,0.283,1.644,0.85,2.116c0.566,0.475,1.431,0.711,2.593,0.711
			c0.967,0,1.851-0.188,2.651-0.564C254.536,129.986,255.278,129.534,255.962,129.007z"/>
		<path fill="#FFFFFF" d="M274.214,119.676h-0.146c-0.41-0.098-0.808-0.168-1.194-0.213c-0.386-0.043-0.842-0.065-1.37-0.065
			c-0.85,0-1.67,0.188-2.461,0.563c-0.791,0.377-1.553,0.862-2.285,1.458v11.616h-2.754v-16.362h2.754v2.417
			c1.094-0.879,2.058-1.502,2.893-1.867c0.835-0.367,1.687-0.55,2.556-0.55c0.479,0,0.825,0.013,1.04,0.036
			c0.215,0.025,0.537,0.071,0.967,0.14V119.676z"/>
		<path fill="#FFFFFF" d="M288.672,133.035h-13.213v-2.036l9.536-12.026h-9.331v-2.3h12.759v1.963l-9.58,12.07h9.829V133.035z"/>
		<path fill="#FFFFFF" d="M304.258,128.318c0,1.494-0.618,2.72-1.853,3.677s-2.922,1.436-5.061,1.436
			c-1.211,0-2.322-0.145-3.333-0.433c-1.011-0.287-1.858-0.603-2.542-0.944v-3.091h0.146c0.869,0.654,1.836,1.175,2.9,1.561
			s2.085,0.578,3.062,0.578c1.211,0,2.158-0.195,2.842-0.586s1.025-1.006,1.025-1.846c0-0.645-0.186-1.133-0.557-1.465
			s-1.084-0.615-2.139-0.85c-0.391-0.088-0.901-0.19-1.531-0.308s-1.204-0.244-1.721-0.381c-1.436-0.381-2.454-0.939-3.054-1.677
			s-0.901-1.644-0.901-2.718c0-0.674,0.139-1.309,0.417-1.904s0.701-1.128,1.267-1.597c0.547-0.459,1.243-0.822,2.087-1.092
			c0.845-0.268,1.79-0.402,2.834-0.402c0.977,0,1.965,0.12,2.966,0.359s1.833,0.529,2.498,0.871v2.944h-0.146
			c-0.703-0.518-1.558-0.954-2.563-1.312c-1.006-0.355-1.992-0.534-2.959-0.534c-1.006,0-1.855,0.193-2.549,0.579
			s-1.04,0.959-1.04,1.721c0,0.674,0.21,1.182,0.63,1.523c0.41,0.342,1.074,0.62,1.992,0.835c0.508,0.117,1.077,0.234,1.707,0.352
			s1.155,0.225,1.575,0.322c1.279,0.293,2.266,0.796,2.959,1.509C303.911,126.17,304.258,127.127,304.258,128.318z"/>
		<path fill="#FFFFFF" d="M320.298,132.01c-0.918,0.439-1.79,0.781-2.615,1.025s-1.702,0.366-2.629,0.366
			c-1.182,0-2.266-0.174-3.252-0.521c-0.986-0.346-1.831-0.871-2.534-1.574c-0.713-0.703-1.265-1.592-1.655-2.666
			s-0.586-2.329-0.586-3.765c0-2.676,0.735-4.775,2.205-6.299s3.411-2.285,5.823-2.285c0.938,0,1.858,0.132,2.761,0.396
			s1.731,0.586,2.483,0.967v3.062h-0.146c-0.84-0.654-1.707-1.157-2.6-1.509s-1.765-0.527-2.615-0.527
			c-1.563,0-2.795,0.525-3.699,1.574c-0.903,1.051-1.355,2.591-1.355,4.622c0,1.973,0.442,3.489,1.326,4.548
			c0.884,1.061,2.126,1.59,3.728,1.59c0.557,0,1.123-0.073,1.699-0.22s1.094-0.337,1.553-0.571c0.4-0.205,0.776-0.422,1.128-0.652
			c0.352-0.229,0.63-0.427,0.835-0.593h0.146V132.01z"/>
		<path fill="#FFFFFF" d="M337.51,133.035h-2.754v-9.316c0-0.752-0.044-1.457-0.132-2.117c-0.088-0.658-0.249-1.174-0.483-1.545
			c-0.244-0.41-0.596-0.715-1.055-0.916c-0.459-0.199-1.055-0.3-1.787-0.3c-0.752,0-1.538,0.186-2.358,0.557
			s-1.606,0.845-2.358,1.421v12.217h-2.754v-22.793h2.754v8.247c0.859-0.713,1.748-1.27,2.666-1.67s1.86-0.601,2.827-0.601
			c1.768,0,3.115,0.532,4.043,1.597s1.392,2.598,1.392,4.6V133.035z"/>
		<path fill="#FFFFFF" d="M345.771,113.934h-3.105v-2.856h3.105V113.934z M345.596,133.035h-2.754v-16.362h2.754V133.035z"/>
		<path fill="#FFFFFF" d="M353.828,133.035h-2.754v-22.793h2.754V133.035z"/>
		<path fill="#FFFFFF" d="M372.549,133.035h-2.754v-1.714c-0.791,0.684-1.616,1.216-2.476,1.597s-1.792,0.571-2.798,0.571
			c-1.953,0-3.503-0.752-4.651-2.256s-1.721-3.589-1.721-6.255c0-1.387,0.198-2.622,0.593-3.706s0.93-2.007,1.604-2.769
			c0.664-0.742,1.438-1.309,2.322-1.699s1.799-0.586,2.747-0.586c0.859,0,1.621,0.091,2.285,0.271s1.362,0.461,2.095,0.842v-7.09
			h2.754V133.035z M369.795,129.007v-9.39c-0.742-0.332-1.406-0.562-1.992-0.688s-1.226-0.19-1.919-0.19
			c-1.543,0-2.744,0.537-3.604,1.611s-1.289,2.598-1.289,4.57c0,1.943,0.332,3.42,0.996,4.432c0.664,1.01,1.729,1.516,3.193,1.516
			c0.781,0,1.572-0.173,2.373-0.52S369.102,129.554,369.795,129.007z"/>
		<path fill="#FFFFFF" d="M400.615,132.01c-0.918,0.439-1.79,0.781-2.615,1.025s-1.702,0.366-2.629,0.366
			c-1.182,0-2.266-0.174-3.252-0.521c-0.986-0.346-1.831-0.871-2.534-1.574c-0.713-0.703-1.265-1.592-1.655-2.666
			s-0.586-2.329-0.586-3.765c0-2.676,0.735-4.775,2.205-6.299s3.411-2.285,5.823-2.285c0.938,0,1.858,0.132,2.761,0.396
			s1.731,0.586,2.483,0.967v3.062h-0.146c-0.84-0.654-1.707-1.157-2.6-1.509s-1.765-0.527-2.615-0.527
			c-1.563,0-2.795,0.525-3.699,1.574c-0.903,1.051-1.355,2.591-1.355,4.622c0,1.973,0.442,3.489,1.326,4.548
			c0.884,1.061,2.126,1.59,3.728,1.59c0.557,0,1.123-0.073,1.699-0.22s1.094-0.337,1.553-0.571c0.4-0.205,0.776-0.422,1.128-0.652
			c0.352-0.229,0.63-0.427,0.835-0.593h0.146V132.01z"/>
		<path fill="#FFFFFF" d="M418.091,124.861c0,2.666-0.684,4.771-2.051,6.313s-3.198,2.314-5.493,2.314
			c-2.314,0-4.153-0.771-5.515-2.314s-2.043-3.647-2.043-6.313s0.681-4.772,2.043-6.32s3.201-2.322,5.515-2.322
			c2.295,0,4.126,0.774,5.493,2.322S418.091,122.195,418.091,124.861z M415.249,124.861c0-2.119-0.415-3.693-1.245-4.725
			c-0.83-1.029-1.982-1.545-3.457-1.545c-1.494,0-2.654,0.516-3.479,1.545c-0.825,1.031-1.238,2.605-1.238,4.725
			c0,2.051,0.415,3.606,1.245,4.666s1.987,1.589,3.472,1.589c1.465,0,2.615-0.524,3.45-1.575
			C414.832,128.492,415.249,126.932,415.249,124.861z"/>
		<path fill="#FFFFFF" d="M436.035,133.035h-2.754v-9.316c0-0.752-0.044-1.457-0.132-2.117c-0.088-0.658-0.249-1.174-0.483-1.545
			c-0.244-0.41-0.596-0.715-1.055-0.916c-0.459-0.199-1.055-0.3-1.787-0.3c-0.752,0-1.538,0.186-2.358,0.557
			s-1.606,0.845-2.358,1.421v12.217h-2.754v-16.362h2.754v1.816c0.859-0.713,1.748-1.27,2.666-1.67s1.86-0.601,2.827-0.601
			c1.768,0,3.115,0.532,4.043,1.597s1.392,2.598,1.392,4.6V133.035z"/>
		<path fill="#FFFFFF" d="M454.609,133.035h-2.754v-1.714c-0.791,0.684-1.616,1.216-2.476,1.597s-1.792,0.571-2.798,0.571
			c-1.953,0-3.503-0.752-4.651-2.256s-1.721-3.589-1.721-6.255c0-1.387,0.198-2.622,0.593-3.706s0.93-2.007,1.604-2.769
			c0.664-0.742,1.438-1.309,2.322-1.699s1.799-0.586,2.747-0.586c0.859,0,1.621,0.091,2.285,0.271s1.362,0.461,2.095,0.842v-7.09
			h2.754V133.035z M451.855,129.007v-9.39c-0.742-0.332-1.406-0.562-1.992-0.688s-1.226-0.19-1.919-0.19
			c-1.543,0-2.744,0.537-3.604,1.611s-1.289,2.598-1.289,4.57c0,1.943,0.332,3.42,0.996,4.432c0.664,1.01,1.729,1.516,3.193,1.516
			c0.781,0,1.572-0.173,2.373-0.52S451.162,129.554,451.855,129.007z"/>
		<path fill="#FFFFFF" d="M462.988,113.934h-3.105v-2.856h3.105V113.934z M462.813,133.035h-2.754v-16.362h2.754V133.035z"/>
		<path fill="#FFFFFF" d="M476.758,132.889c-0.518,0.137-1.082,0.249-1.692,0.337s-1.155,0.132-1.633,0.132
			c-1.67,0-2.939-0.449-3.809-1.348s-1.304-2.339-1.304-4.321v-8.701h-1.86v-2.314h1.86v-4.702h2.754v4.702h5.684v2.314h-5.684
			v7.456c0,0.859,0.02,1.531,0.059,2.014c0.039,0.484,0.176,0.936,0.41,1.355c0.215,0.391,0.51,0.677,0.886,0.857
			s0.95,0.271,1.721,0.271c0.449,0,0.918-0.065,1.406-0.198c0.488-0.131,0.84-0.241,1.055-0.329h0.146V132.889z"/>
		<path fill="#FFFFFF" d="M483.042,113.934h-3.105v-2.856h3.105V113.934z M482.866,133.035h-2.754v-16.362h2.754V133.035z"/>
		<path fill="#FFFFFF" d="M502.261,124.861c0,2.666-0.684,4.771-2.051,6.313s-3.198,2.314-5.493,2.314
			c-2.314,0-4.153-0.771-5.515-2.314s-2.043-3.647-2.043-6.313s0.681-4.772,2.043-6.32s3.201-2.322,5.515-2.322
			c2.295,0,4.126,0.774,5.493,2.322S502.261,122.195,502.261,124.861z M499.419,124.861c0-2.119-0.415-3.693-1.245-4.725
			c-0.83-1.029-1.982-1.545-3.457-1.545c-1.494,0-2.654,0.516-3.479,1.545c-0.825,1.031-1.238,2.605-1.238,4.725
			c0,2.051,0.415,3.606,1.245,4.666s1.987,1.589,3.472,1.589c1.465,0,2.615-0.524,3.45-1.575
			C499.001,128.492,499.419,126.932,499.419,124.861z"/>
		<path fill="#FFFFFF" d="M520.205,133.035h-2.754v-9.316c0-0.752-0.044-1.457-0.132-2.117c-0.088-0.658-0.249-1.174-0.483-1.545
			c-0.244-0.41-0.596-0.715-1.055-0.916c-0.459-0.199-1.055-0.3-1.787-0.3c-0.752,0-1.538,0.186-2.358,0.557
			s-1.606,0.845-2.358,1.421v12.217h-2.754v-16.362h2.754v1.816c0.859-0.713,1.748-1.27,2.666-1.67s1.86-0.601,2.827-0.601
			c1.768,0,3.115,0.532,4.043,1.597s1.392,2.598,1.392,4.6V133.035z"/>
		<path fill="#FFFFFF" d="M548.77,133.035h-2.739v-1.743c-0.244,0.166-0.573,0.398-0.989,0.696c-0.414,0.298-0.817,0.534-1.208,0.71
			c-0.459,0.225-0.986,0.412-1.582,0.563s-1.294,0.228-2.095,0.228c-1.475,0-2.725-0.488-3.75-1.465s-1.538-2.222-1.538-3.735
			c0-1.24,0.266-2.243,0.798-3.01s1.292-1.37,2.278-1.81c0.996-0.439,2.192-0.737,3.589-0.894s2.896-0.273,4.497-0.352V121.8
			c0-0.625-0.11-1.143-0.329-1.553c-0.221-0.41-0.535-0.732-0.945-0.967c-0.391-0.225-0.859-0.376-1.406-0.454
			s-1.118-0.117-1.714-0.117c-0.723,0-1.528,0.096-2.417,0.285c-0.889,0.191-1.807,0.467-2.754,0.828h-0.146v-2.798
			c0.537-0.146,1.313-0.308,2.329-0.483s2.017-0.264,3.003-0.264c1.152,0,2.156,0.096,3.01,0.285
			c0.855,0.191,1.595,0.516,2.22,0.975c0.615,0.449,1.084,1.03,1.406,1.743s0.483,1.597,0.483,2.651V133.035z M546.03,129.007
			v-4.556c-0.84,0.049-1.829,0.122-2.966,0.22c-1.139,0.098-2.039,0.239-2.703,0.425c-0.791,0.225-1.431,0.574-1.919,1.047
			c-0.488,0.475-0.732,1.126-0.732,1.956c0,0.938,0.283,1.644,0.85,2.116c0.566,0.475,1.431,0.711,2.593,0.711
			c0.967,0,1.851-0.188,2.651-0.564C544.604,129.986,545.347,129.534,546.03,129.007z"/>
		<path fill="#FFFFFF" d="M562.568,132.889c-0.518,0.137-1.082,0.249-1.691,0.337c-0.611,0.088-1.155,0.132-1.634,0.132
			c-1.67,0-2.939-0.449-3.809-1.348s-1.304-2.339-1.304-4.321v-8.701h-1.86v-2.314h1.86v-4.702h2.754v4.702h5.684v2.314h-5.684
			v7.456c0,0.859,0.02,1.531,0.059,2.014c0.039,0.484,0.176,0.936,0.41,1.355c0.215,0.391,0.51,0.677,0.887,0.857
			c0.375,0.181,0.949,0.271,1.721,0.271c0.449,0,0.918-0.065,1.406-0.198c0.488-0.131,0.84-0.241,1.055-0.329h0.146V132.889z"/>
		<path fill="#FFFFFF" d="M589.155,133.035h-2.739v-1.743c-0.244,0.166-0.574,0.398-0.988,0.696
			c-0.416,0.298-0.818,0.534-1.209,0.71c-0.459,0.225-0.986,0.412-1.582,0.563s-1.294,0.228-2.095,0.228
			c-1.475,0-2.725-0.488-3.75-1.465s-1.538-2.222-1.538-3.735c0-1.24,0.266-2.243,0.799-3.01c0.531-0.767,1.291-1.37,2.277-1.81
			c0.996-0.439,2.192-0.737,3.589-0.894s2.896-0.273,4.497-0.352V121.8c0-0.625-0.109-1.143-0.33-1.553
			c-0.219-0.41-0.534-0.732-0.944-0.967c-0.391-0.225-0.859-0.376-1.406-0.454s-1.118-0.117-1.714-0.117
			c-0.723,0-1.528,0.096-2.417,0.285c-0.889,0.191-1.807,0.467-2.754,0.828h-0.146v-2.798c0.537-0.146,1.313-0.308,2.329-0.483
			s2.017-0.264,3.003-0.264c1.152,0,2.155,0.096,3.011,0.285c0.854,0.191,1.594,0.516,2.219,0.975
			c0.615,0.449,1.084,1.03,1.406,1.743s0.483,1.597,0.483,2.651V133.035z M586.416,129.007v-4.556
			c-0.84,0.049-1.828,0.122-2.967,0.22c-1.137,0.098-2.038,0.239-2.702,0.425c-0.791,0.225-1.431,0.574-1.919,1.047
			c-0.488,0.475-0.732,1.126-0.732,1.956c0,0.938,0.283,1.644,0.85,2.116c0.566,0.475,1.431,0.711,2.593,0.711
			c0.967,0,1.851-0.188,2.651-0.564C584.99,129.986,585.732,129.534,586.416,129.007z"/>
		<path fill="#FFFFFF" d="M618.687,133.035h-2.754v-9.316c0-0.752-0.044-1.457-0.132-2.117c-0.088-0.658-0.249-1.174-0.483-1.545
			c-0.244-0.41-0.596-0.715-1.055-0.916c-0.459-0.199-1.055-0.3-1.787-0.3c-0.752,0-1.538,0.186-2.358,0.557
			s-1.606,0.845-2.358,1.421v12.217h-2.754v-16.362h2.754v1.816c0.859-0.713,1.748-1.27,2.666-1.67s1.86-0.601,2.827-0.601
			c1.768,0,3.115,0.532,4.043,1.597s1.392,2.598,1.392,4.6V133.035z"/>
		<path fill="#FFFFFF" d="M637.554,133.035H634.8v-1.816c-0.928,0.732-1.816,1.294-2.666,1.685s-1.787,0.586-2.813,0.586
			c-1.719,0-3.057-0.524-4.014-1.575c-0.957-1.049-1.436-2.59-1.436-4.621v-10.62h2.754v9.316c0,0.83,0.039,1.541,0.117,2.132
			s0.244,1.096,0.498,1.516c0.264,0.43,0.605,0.742,1.025,0.938s1.03,0.293,1.831,0.293c0.713,0,1.492-0.186,2.336-0.557
			c0.846-0.371,1.634-0.845,2.366-1.421v-12.217h2.754V133.035z"/>
		<path fill="#FFFFFF" d="M655.073,132.01c-0.918,0.439-1.79,0.781-2.614,1.025c-0.826,0.244-1.702,0.366-2.63,0.366
			c-1.182,0-2.266-0.174-3.252-0.521c-0.986-0.346-1.831-0.871-2.534-1.574c-0.713-0.703-1.265-1.592-1.655-2.666
			s-0.586-2.329-0.586-3.765c0-2.676,0.735-4.775,2.204-6.299c1.471-1.523,3.411-2.285,5.823-2.285c0.938,0,1.858,0.132,2.761,0.396
			c0.904,0.264,1.731,0.586,2.483,0.967v3.062h-0.146c-0.84-0.654-1.706-1.157-2.601-1.509c-0.893-0.352-1.765-0.527-2.614-0.527
			c-1.563,0-2.796,0.525-3.698,1.574c-0.904,1.051-1.355,2.591-1.355,4.622c0,1.973,0.441,3.489,1.326,4.548
			c0.883,1.061,2.126,1.59,3.728,1.59c0.557,0,1.123-0.073,1.699-0.22s1.094-0.337,1.553-0.571c0.4-0.205,0.776-0.422,1.128-0.652
			c0.352-0.229,0.63-0.427,0.835-0.593h0.146V132.01z"/>
		<path fill="#FFFFFF" d="M661.387,133.035h-2.754v-22.793h2.754V133.035z"/>
		<path fill="#FFFFFF" d="M680.532,125.14h-12.056c0,1.006,0.151,1.882,0.454,2.63c0.303,0.746,0.718,1.359,1.245,1.838
			c0.508,0.469,1.111,0.82,1.809,1.055c0.699,0.234,1.468,0.352,2.308,0.352c1.113,0,2.233-0.222,3.362-0.666
			c1.127-0.444,1.931-0.882,2.409-1.312h0.146v3.003c-0.928,0.391-1.875,0.718-2.842,0.981s-1.982,0.396-3.047,0.396
			c-2.715,0-4.834-0.734-6.357-2.205c-1.523-1.469-2.285-3.557-2.285-6.262c0-2.676,0.729-4.8,2.19-6.372
			c1.459-1.572,3.381-2.358,5.764-2.358c2.207,0,3.908,0.645,5.105,1.934c1.195,1.289,1.794,3.12,1.794,5.493V125.14z
			 M677.852,123.03c-0.01-1.445-0.373-2.563-1.092-3.354c-0.717-0.791-1.809-1.187-3.273-1.187c-1.475,0-2.648,0.435-3.523,1.304
			c-0.873,0.869-1.369,1.948-1.486,3.237H677.852z"/>
		<path fill="#FFFFFF" d="M698.652,124.861c0,2.666-0.684,4.771-2.051,6.313s-3.198,2.314-5.493,2.314
			c-2.314,0-4.153-0.771-5.515-2.314c-1.363-1.543-2.044-3.647-2.044-6.313s0.681-4.772,2.044-6.32
			c1.361-1.548,3.2-2.322,5.515-2.322c2.295,0,4.126,0.774,5.493,2.322S698.652,122.195,698.652,124.861z M695.811,124.861
			c0-2.119-0.415-3.693-1.245-4.725c-0.83-1.029-1.982-1.545-3.457-1.545c-1.494,0-2.653,0.516-3.479,1.545
			c-0.824,1.031-1.237,2.605-1.237,4.725c0,2.051,0.415,3.606,1.245,4.666s1.987,1.589,3.472,1.589c1.465,0,2.614-0.524,3.45-1.575
			C695.393,128.492,695.811,126.932,695.811,124.861z"/>
		<path fill="#FFFFFF" d="M716.597,133.035h-2.754v-9.316c0-0.752-0.044-1.457-0.132-2.117c-0.088-0.658-0.249-1.174-0.483-1.545
			c-0.244-0.41-0.596-0.715-1.055-0.916c-0.459-0.199-1.055-0.3-1.787-0.3c-0.752,0-1.538,0.186-2.358,0.557
			s-1.606,0.845-2.358,1.421v12.217h-2.754v-16.362h2.754v1.816c0.859-0.713,1.748-1.27,2.666-1.67s1.86-0.601,2.827-0.601
			c1.768,0,3.115,0.532,4.043,1.597s1.392,2.598,1.392,4.6V133.035z"/>
		<path fill="#FFFFFF" d="M742.656,119.676h-0.146c-0.41-0.098-0.809-0.168-1.193-0.213c-0.387-0.043-0.843-0.065-1.37-0.065
			c-0.85,0-1.67,0.188-2.461,0.563c-0.791,0.377-1.553,0.862-2.285,1.458v11.616h-2.754v-16.362h2.754v2.417
			c1.094-0.879,2.058-1.502,2.894-1.867c0.834-0.367,1.687-0.55,2.556-0.55c0.479,0,0.825,0.013,1.04,0.036
			c0.215,0.025,0.537,0.071,0.967,0.14V119.676z"/>
		<path fill="#FFFFFF" d="M757.437,133.035h-2.739v-1.743c-0.244,0.166-0.574,0.398-0.988,0.696
			c-0.416,0.298-0.818,0.534-1.209,0.71c-0.459,0.225-0.986,0.412-1.582,0.563s-1.294,0.228-2.095,0.228
			c-1.475,0-2.725-0.488-3.75-1.465s-1.538-2.222-1.538-3.735c0-1.24,0.266-2.243,0.799-3.01c0.531-0.767,1.291-1.37,2.277-1.81
			c0.996-0.439,2.192-0.737,3.589-0.894s2.896-0.273,4.497-0.352V121.8c0-0.625-0.109-1.143-0.33-1.553
			c-0.219-0.41-0.534-0.732-0.944-0.967c-0.391-0.225-0.859-0.376-1.406-0.454s-1.118-0.117-1.714-0.117
			c-0.723,0-1.528,0.096-2.417,0.285c-0.889,0.191-1.807,0.467-2.754,0.828h-0.146v-2.798c0.537-0.146,1.313-0.308,2.329-0.483
			s2.017-0.264,3.003-0.264c1.152,0,2.155,0.096,3.011,0.285c0.854,0.191,1.594,0.516,2.219,0.975
			c0.615,0.449,1.084,1.03,1.406,1.743s0.483,1.597,0.483,2.651V133.035z M754.697,129.007v-4.556
			c-0.84,0.049-1.828,0.122-2.967,0.22c-1.137,0.098-2.038,0.239-2.702,0.425c-0.791,0.225-1.431,0.574-1.919,1.047
			c-0.488,0.475-0.732,1.126-0.732,1.956c0,0.938,0.283,1.644,0.85,2.116c0.566,0.475,1.431,0.711,2.593,0.711
			c0.967,0,1.851-0.188,2.651-0.564C753.271,129.986,754.014,129.534,754.697,129.007z"/>
		<path fill="#FFFFFF" d="M776.011,133.035h-2.754v-1.714c-0.791,0.684-1.616,1.216-2.476,1.597s-1.792,0.571-2.798,0.571
			c-1.953,0-3.503-0.752-4.651-2.256c-1.146-1.504-1.721-3.589-1.721-6.255c0-1.387,0.197-2.622,0.594-3.706
			c0.395-1.084,0.93-2.007,1.604-2.769c0.664-0.742,1.438-1.309,2.322-1.699c0.883-0.391,1.799-0.586,2.746-0.586
			c0.859,0,1.621,0.091,2.285,0.271s1.362,0.461,2.095,0.842v-7.09h2.754V133.035z M773.257,129.007v-9.39
			c-0.742-0.332-1.406-0.562-1.992-0.688s-1.226-0.19-1.919-0.19c-1.543,0-2.744,0.537-3.604,1.611s-1.289,2.598-1.289,4.57
			c0,1.943,0.332,3.42,0.996,4.432c0.664,1.01,1.729,1.516,3.193,1.516c0.781,0,1.572-0.173,2.373-0.52
			S772.563,129.554,773.257,129.007z"/>
		<path fill="#FFFFFF" d="M784.39,113.934h-3.105v-2.856h3.105V113.934z M784.214,133.035h-2.754v-16.362h2.754V133.035z"/>
		<path fill="#FFFFFF" d="M803.228,133.035h-2.754v-1.816c-0.928,0.732-1.816,1.294-2.666,1.685s-1.787,0.586-2.813,0.586
			c-1.719,0-3.057-0.524-4.014-1.575c-0.957-1.049-1.436-2.59-1.436-4.621v-10.62h2.754v9.316c0,0.83,0.039,1.541,0.117,2.132
			s0.244,1.096,0.498,1.516c0.264,0.43,0.605,0.742,1.025,0.938s1.03,0.293,1.831,0.293c0.713,0,1.492-0.186,2.336-0.557
			c0.846-0.371,1.634-0.845,2.366-1.421v-12.217h2.754V133.035z"/>
		<path fill="#FFFFFF" d="M820.337,128.318c0,1.494-0.618,2.72-1.853,3.677c-1.236,0.957-2.923,1.436-5.062,1.436
			c-1.211,0-2.321-0.145-3.333-0.433c-1.01-0.287-1.857-0.603-2.541-0.944v-3.091h0.146c0.869,0.654,1.836,1.175,2.9,1.561
			s2.085,0.578,3.062,0.578c1.211,0,2.158-0.195,2.842-0.586s1.025-1.006,1.025-1.846c0-0.645-0.186-1.133-0.557-1.465
			s-1.084-0.615-2.139-0.85c-0.391-0.088-0.901-0.19-1.53-0.308c-0.631-0.117-1.204-0.244-1.722-0.381
			c-1.436-0.381-2.454-0.939-3.054-1.677c-0.602-0.737-0.901-1.644-0.901-2.718c0-0.674,0.14-1.309,0.417-1.904
			c0.279-0.596,0.701-1.128,1.268-1.597c0.547-0.459,1.242-0.822,2.088-1.092c0.844-0.268,1.789-0.402,2.834-0.402
			c0.977,0,1.965,0.12,2.967,0.359c1,0.239,1.833,0.529,2.497,0.871v2.944h-0.146c-0.703-0.518-1.558-0.954-2.563-1.312
			c-1.006-0.355-1.992-0.534-2.959-0.534c-1.006,0-1.855,0.193-2.549,0.579s-1.04,0.959-1.04,1.721c0,0.674,0.21,1.182,0.63,1.523
			c0.41,0.342,1.074,0.62,1.992,0.835c0.508,0.117,1.076,0.234,1.707,0.352c0.629,0.117,1.154,0.225,1.574,0.322
			c1.279,0.293,2.266,0.796,2.959,1.509C819.99,126.17,820.337,127.127,820.337,128.318z"/>
	</g>
</g>
</svg>
