<?xml version="1.0" encoding="utf-8"?>
<!-- Generator: Adobe Illustrator 16.0.0, SVG Export Plug-In . SVG Version: 6.00 Build 0)  -->
<!DOCTYPE svg PUBLIC "-//W3C//DTD SVG 1.1//EN" "http://www.w3.org/Graphics/SVG/1.1/DTD/svg11.dtd">
<svg version="1.1" id="Layer_3" xmlns="http://www.w3.org/2000/svg" xmlns:xlink="http://www.w3.org/1999/xlink" x="0px" y="0px"
	 width="864px" height="406px" viewBox="0 0 864 406" enable-background="new 0 0 864 406" xml:space="preserve">
<path fill="#291159" fill-opacity="0.8" stroke="#FFFFFF" stroke-width="3" stroke-miterlimit="10" d="M864,398.761
	c0,3.998-3.893,7.239-8.699,7.239H8.699C3.895,406,0,402.759,0,398.761V7.238C0,3.238,3.896,0,8.699,0h846.602
	C860.108,0,864,3.238,864,7.238V398.761L864,398.761z"/>
<g>
	<g id="step24Black">
		<g>
			<g enable-background="new    ">
				<path fill="#FFFFFF" d="M306.362,115.179c-0.555,0.242-1.057,0.469-1.506,0.682c-0.449,0.211-1.037,0.434-1.764,0.666
					c-0.616,0.191-1.284,0.355-2.006,0.491c-0.721,0.137-1.516,0.204-2.384,0.204c-1.635,0-3.121-0.229-4.458-0.688
					c-1.337-0.459-2.5-1.178-3.489-2.157c-0.969-0.958-1.726-2.177-2.271-3.655c-0.545-1.478-0.817-3.196-0.817-5.153
					c0-1.857,0.262-3.518,0.787-4.98c0.524-1.463,1.281-2.699,2.271-3.709c0.958-0.979,2.117-1.725,3.474-2.24
					c1.357-0.514,2.863-0.771,4.518-0.771c1.211,0,2.419,0.146,3.625,0.439c1.206,0.292,2.545,0.807,4.019,1.543v3.558h-0.227
					c-1.241-1.039-2.473-1.796-3.693-2.271c-1.221-0.475-2.528-0.711-3.92-0.711c-1.141,0-2.167,0.184-3.08,0.552
					c-0.914,0.369-1.729,0.941-2.445,1.718c-0.696,0.758-1.239,1.714-1.627,2.869c-0.388,1.155-0.583,2.49-0.583,4.004
					c0,1.584,0.214,2.946,0.643,4.086c0.429,1.141,0.981,2.069,1.658,2.785c0.706,0.747,1.531,1.3,2.475,1.658
					c0.943,0.358,1.939,0.537,2.989,0.537c1.443,0,2.795-0.247,4.057-0.742c1.261-0.494,2.442-1.235,3.542-2.225h0.212V115.179z"/>
				<path fill="#FFFFFF" d="M324.784,108.368c0,2.755-0.707,4.93-2.119,6.524c-1.413,1.594-3.305,2.391-5.676,2.391
					c-2.392,0-4.291-0.797-5.699-2.391c-1.407-1.595-2.111-3.77-2.111-6.524s0.704-4.932,2.111-6.531
					c1.408-1.6,3.308-2.399,5.699-2.399c2.371,0,4.263,0.8,5.676,2.399C324.077,103.436,324.784,105.613,324.784,108.368z
					 M321.847,108.368c0-2.189-0.429-3.816-1.287-4.882c-0.858-1.064-2.049-1.597-3.572-1.597c-1.544,0-2.742,0.532-3.595,1.597
					c-0.853,1.065-1.279,2.692-1.279,4.882c0,2.119,0.429,3.727,1.287,4.821c0.857,1.095,2.053,1.643,3.587,1.643
					c1.514,0,2.702-0.543,3.564-1.628C321.416,112.12,321.847,110.507,321.847,108.368z"/>
				<path fill="#FFFFFF" d="M343.205,116.814h-2.846v-1.877c-0.959,0.757-1.877,1.337-2.754,1.74
					c-0.879,0.404-1.848,0.605-2.907,0.605c-1.776,0-3.159-0.542-4.147-1.627c-0.989-1.084-1.483-2.677-1.483-4.775V99.906h2.846
					v9.627c0,0.858,0.04,1.593,0.121,2.203c0.081,0.61,0.252,1.133,0.515,1.566c0.272,0.444,0.625,0.767,1.06,0.969
					c0.434,0.202,1.064,0.303,1.892,0.303c0.736,0,1.541-0.191,2.414-0.575s1.689-0.873,2.445-1.468V99.906h2.846V116.814z"/>
				<path fill="#FFFFFF" d="M351.682,116.814h-2.846V93.261h2.846V116.814z"/>
				<path fill="#FFFFFF" d="M371.723,108.368c0,2.755-0.707,4.93-2.119,6.524c-1.413,1.594-3.306,2.391-5.677,2.391
					c-2.392,0-4.291-0.797-5.699-2.391c-1.407-1.595-2.111-3.77-2.111-6.524s0.704-4.932,2.111-6.531
					c1.408-1.6,3.308-2.399,5.699-2.399c2.371,0,4.264,0.8,5.677,2.399C371.016,103.436,371.723,105.613,371.723,108.368z
					 M368.785,108.368c0-2.189-0.429-3.816-1.286-4.882c-0.857-1.064-2.049-1.597-3.572-1.597c-1.544,0-2.742,0.532-3.595,1.597
					c-0.854,1.065-1.279,2.692-1.279,4.882c0,2.119,0.429,3.727,1.287,4.821c0.857,1.095,2.053,1.643,3.587,1.643
					c1.514,0,2.702-0.543,3.564-1.628C368.354,112.12,368.785,110.507,368.785,108.368z"/>
				<path fill="#FFFFFF" d="M400.8,116.814h-2.846v-9.627c0-0.727-0.032-1.428-0.098-2.104c-0.066-0.677-0.205-1.217-0.416-1.62
					c-0.232-0.434-0.565-0.762-1-0.983c-0.434-0.223-1.059-0.334-1.877-0.334c-0.797,0-1.594,0.2-2.391,0.599
					c-0.798,0.398-1.595,0.905-2.393,1.521c0.031,0.232,0.056,0.503,0.076,0.811s0.03,0.613,0.03,0.916v10.822h-2.846v-9.627
					c0-0.747-0.033-1.455-0.099-2.127c-0.065-0.671-0.204-1.208-0.416-1.611c-0.232-0.435-0.565-0.76-0.999-0.977
					s-1.06-0.326-1.877-0.326c-0.777,0-1.557,0.192-2.339,0.576c-0.782,0.383-1.562,0.872-2.338,1.468v12.624h-2.846V99.906h2.846
					v1.877c0.888-0.736,1.772-1.312,2.656-1.725c0.883-0.414,1.824-0.621,2.822-0.621c1.15,0,2.127,0.242,2.93,0.727
					c0.802,0.484,1.4,1.155,1.793,2.014c1.15-0.969,2.2-1.668,3.148-2.097c0.949-0.429,1.963-0.644,3.043-0.644
					c1.856,0,3.227,0.563,4.109,1.688c0.883,1.126,1.324,2.697,1.324,4.715V116.814z"/>
				<path fill="#FFFFFF" d="M421.159,108.232c0,1.412-0.199,2.684-0.598,3.814c-0.399,1.13-0.937,2.078-1.612,2.846
					c-0.717,0.797-1.504,1.395-2.361,1.793s-1.802,0.598-2.831,0.598c-0.958,0-1.796-0.113-2.512-0.34
					c-0.717-0.228-1.424-0.532-2.119-0.916l-0.182,0.787h-2.664V93.261h2.846v8.416c0.797-0.656,1.645-1.193,2.543-1.612
					c0.897-0.418,1.906-0.628,3.027-0.628c1.998,0,3.574,0.767,4.729,2.301S421.159,105.436,421.159,108.232z M418.223,108.307
					c0-2.019-0.333-3.55-0.999-4.594c-0.666-1.045-1.74-1.567-3.225-1.567c-0.827,0-1.664,0.18-2.512,0.538
					s-1.635,0.819-2.361,1.385v9.688c0.807,0.363,1.5,0.615,2.081,0.757c0.58,0.142,1.238,0.212,1.976,0.212
					c1.574,0,2.808-0.517,3.7-1.552C417.776,112.139,418.223,110.517,418.223,108.307z"/>
				<path fill="#FFFFFF" d="M455.368,116.814h-3.891l-7.537-8.961h-4.224v8.961h-2.997V94.275h6.313
					c1.361,0,2.497,0.089,3.405,0.266s1.726,0.492,2.452,0.945c0.817,0.516,1.455,1.164,1.915,1.945
					c0.459,0.782,0.688,1.773,0.688,2.975c0,1.625-0.408,2.984-1.227,4.079c-0.816,1.096-1.942,1.92-3.375,2.476L455.368,116.814z
					 M448.36,100.618c0-0.646-0.114-1.219-0.341-1.718c-0.228-0.5-0.604-0.921-1.128-1.264c-0.434-0.293-0.948-0.497-1.544-0.613
					s-1.297-0.174-2.104-0.174h-3.526v8.506h3.027c0.948,0,1.776-0.083,2.482-0.249c0.706-0.167,1.307-0.478,1.802-0.931
					c0.453-0.424,0.789-0.911,1.006-1.461S448.36,101.465,448.36,100.618z"/>
				<path fill="#FFFFFF" d="M471.443,108.656h-12.457c0,1.039,0.156,1.944,0.469,2.717c0.313,0.771,0.742,1.405,1.287,1.899
					c0.524,0.484,1.147,0.848,1.869,1.09c0.721,0.242,1.516,0.363,2.384,0.363c1.15,0,2.309-0.229,3.474-0.688
					c1.166-0.459,1.996-0.911,2.49-1.355h0.151v3.104c-0.959,0.403-1.938,0.742-2.937,1.014c-0.999,0.273-2.049,0.409-3.148,0.409
					c-2.806,0-4.995-0.759-6.569-2.278c-1.574-1.519-2.361-3.676-2.361-6.471c0-2.765,0.754-4.96,2.263-6.584
					c1.509-1.625,3.494-2.438,5.957-2.438c2.28,0,4.038,0.666,5.274,1.998s1.854,3.225,1.854,5.676V108.656z M468.674,106.476
					c-0.011-1.494-0.387-2.649-1.128-3.467c-0.742-0.817-1.87-1.227-3.384-1.227c-1.523,0-2.737,0.449-3.64,1.348
					c-0.903,0.898-1.415,2.014-1.536,3.346H468.674z"/>
				<path fill="#FFFFFF" d="M490.637,108.156c0,1.372-0.197,2.626-0.59,3.762c-0.395,1.135-0.949,2.096-1.666,2.883
					c-0.666,0.747-1.45,1.325-2.354,1.733c-0.903,0.409-1.859,0.613-2.868,0.613c-0.878,0-1.673-0.096-2.384-0.288
					c-0.712-0.191-1.436-0.489-2.172-0.893v7.084h-2.846V99.906h2.846v1.771c0.756-0.636,1.606-1.168,2.55-1.597
					s1.95-0.644,3.021-0.644c2.038,0,3.625,0.77,4.76,2.309C490.069,103.285,490.637,105.421,490.637,108.156z M487.7,108.232
					c0-2.039-0.349-3.563-1.044-4.572c-0.697-1.009-1.767-1.514-3.209-1.514c-0.818,0-1.641,0.177-2.468,0.53
					s-1.62,0.817-2.376,1.393v9.581c0.807,0.363,1.5,0.611,2.081,0.742c0.58,0.131,1.238,0.197,1.976,0.197
					c1.584,0,2.82-0.535,3.708-1.605C487.256,111.915,487.7,110.331,487.7,108.232z"/>
				<path fill="#FFFFFF" d="M497.947,116.814h-2.846V93.261h2.846V116.814z"/>
				<path fill="#FFFFFF" d="M517.595,116.814h-2.846v-1.877c-0.958,0.757-1.877,1.337-2.754,1.74
					c-0.879,0.404-1.848,0.605-2.906,0.605c-1.776,0-3.159-0.542-4.148-1.627c-0.988-1.084-1.482-2.677-1.482-4.775V99.906h2.846
					v9.627c0,0.858,0.04,1.593,0.121,2.203c0.08,0.61,0.252,1.133,0.514,1.566c0.273,0.444,0.626,0.767,1.061,0.969
					c0.434,0.202,1.064,0.303,1.892,0.303c0.736,0,1.541-0.191,2.414-0.575s1.688-0.873,2.444-1.468V99.906h2.846V116.814z"/>
				<path fill="#FFFFFF" d="M535.274,111.94c0,1.544-0.638,2.811-1.914,3.8c-1.277,0.988-3.02,1.482-5.23,1.482
					c-1.251,0-2.398-0.148-3.443-0.446c-1.044-0.297-1.92-0.623-2.626-0.976v-3.194h0.151c0.898,0.676,1.897,1.214,2.997,1.612
					s2.154,0.598,3.163,0.598c1.252,0,2.23-0.202,2.938-0.605c0.706-0.403,1.059-1.039,1.059-1.907c0-0.666-0.191-1.171-0.574-1.514
					c-0.384-0.343-1.121-0.636-2.211-0.878c-0.403-0.091-0.931-0.197-1.581-0.318c-0.651-0.121-1.244-0.252-1.778-0.393
					c-1.484-0.395-2.536-0.972-3.156-1.733c-0.621-0.762-0.932-1.698-0.932-2.808c0-0.697,0.145-1.353,0.432-1.969
					c0.288-0.615,0.725-1.165,1.31-1.649c0.565-0.475,1.284-0.85,2.157-1.128c0.872-0.277,1.849-0.416,2.929-0.416
					c1.009,0,2.03,0.124,3.065,0.371c1.034,0.247,1.895,0.547,2.58,0.9v3.043h-0.15c-0.727-0.535-1.61-0.986-2.649-1.355
					c-1.039-0.368-2.059-0.553-3.058-0.553c-1.039,0-1.917,0.2-2.634,0.599s-1.075,0.991-1.075,1.778
					c0,0.696,0.218,1.221,0.651,1.574c0.424,0.354,1.11,0.641,2.059,0.863c0.524,0.121,1.112,0.242,1.764,0.363
					c0.65,0.121,1.193,0.231,1.627,0.332c1.322,0.303,2.341,0.823,3.058,1.56C534.917,109.72,535.274,110.708,535.274,111.94z"/>
				<path fill="#FFFFFF" d="M542.404,97.076h-3.209v-2.951h3.209V97.076z M542.223,116.814h-2.846V99.906h2.846V116.814z"/>
				<path fill="#FFFFFF" d="M562.264,108.368c0,2.755-0.707,4.93-2.119,6.524c-1.413,1.594-3.306,2.391-5.677,2.391
					c-2.392,0-4.291-0.797-5.699-2.391c-1.407-1.595-2.111-3.77-2.111-6.524s0.704-4.932,2.111-6.531
					c1.408-1.6,3.308-2.399,5.699-2.399c2.371,0,4.264,0.8,5.677,2.399C561.557,103.436,562.264,105.613,562.264,108.368z
					 M559.326,108.368c0-2.189-0.429-3.816-1.286-4.882c-0.857-1.064-2.049-1.597-3.572-1.597c-1.544,0-2.742,0.532-3.595,1.597
					c-0.854,1.065-1.279,2.692-1.279,4.882c0,2.119,0.429,3.727,1.287,4.821c0.857,1.095,2.053,1.643,3.587,1.643
					c1.514,0,2.702-0.543,3.564-1.628C558.896,112.12,559.326,110.507,559.326,108.368z"/>
				<path fill="#FFFFFF" d="M580.806,116.814h-2.846v-9.627c0-0.777-0.045-1.506-0.136-2.188c-0.091-0.681-0.257-1.213-0.499-1.597
					c-0.253-0.424-0.616-0.739-1.09-0.946c-0.475-0.206-1.09-0.311-1.848-0.311c-0.776,0-1.589,0.192-2.437,0.576
					c-0.848,0.383-1.66,0.872-2.437,1.468v12.624h-2.846V99.906h2.846v1.877c0.888-0.736,1.806-1.312,2.754-1.725
					c0.949-0.414,1.923-0.621,2.922-0.621c1.826,0,3.219,0.55,4.178,1.65c0.959,1.1,1.438,2.684,1.438,4.752V116.814z"/>
			</g>
			<line fill="none" stroke="#FFFFFF" stroke-width="3" x1="283.939" y1="128.779" x2="585.019" y2="128.779"/>
		</g>
		<g>
			<g>
				<g enable-background="new    ">
					<path fill="#FFFFFF" d="M378.246,181.439h-3.966l-9.089-10.035l-2.283,2.391v7.645h-3.056V158.9h3.056v11.762l11.156-11.762
						h3.703l-10.262,10.596L378.246,181.439z"/>
					<path fill="#FFFFFF" d="M394.186,180.379c-0.968,0.454-1.886,0.808-2.755,1.06s-1.793,0.379-2.77,0.379
						c-1.245,0-2.387-0.18-3.426-0.538c-1.039-0.357-1.929-0.9-2.669-1.627c-0.751-0.727-1.333-1.645-1.744-2.755
						s-0.617-2.406-0.617-3.891c0-2.765,0.774-4.934,2.322-6.508s3.593-2.361,6.134-2.361c0.987,0,1.957,0.136,2.908,0.408
						c0.952,0.272,1.823,0.605,2.616,0.999v3.163h-0.154c-0.886-0.676-1.798-1.195-2.739-1.559s-1.859-0.545-2.755-0.545
						c-1.646,0-2.944,0.543-3.896,1.627c-0.952,1.085-1.428,2.677-1.428,4.775c0,2.039,0.466,3.605,1.396,4.7
						c0.931,1.096,2.24,1.643,3.927,1.643c0.587,0,1.184-0.075,1.79-0.228c0.607-0.15,1.152-0.348,1.636-0.59
						c0.422-0.212,0.818-0.437,1.188-0.674c0.37-0.236,0.663-0.441,0.88-0.613h0.154V180.379z"/>
					<path fill="#FFFFFF" d="M422.994,187.675h-2.901v-8.144c-0.895,0.757-1.785,1.319-2.669,1.688
						c-0.886,0.368-1.842,0.553-2.87,0.553c-2.048,0-3.681-0.774-4.899-2.323s-1.829-3.686-1.829-6.41
						c0-1.453,0.214-2.737,0.641-3.853s0.99-2.052,1.689-2.808c0.68-0.737,1.477-1.308,2.392-1.711
						c0.916-0.403,1.883-0.605,2.901-0.605c0.926,0,1.746,0.101,2.461,0.303s1.443,0.5,2.184,0.893l0.186-0.727h2.716V187.675z
						 M420.093,177.14v-9.566c-0.803-0.354-1.512-0.601-2.129-0.742c-0.617-0.141-1.286-0.211-2.007-0.211
						c-1.677,0-2.952,0.558-3.826,1.672c-0.875,1.115-1.312,2.651-1.312,4.609c0,1.978,0.353,3.499,1.057,4.563
						c0.705,1.065,1.813,1.597,3.325,1.597c0.844,0,1.688-0.179,2.531-0.537C418.575,178.167,419.362,177.706,420.093,177.14z"/>
					<path fill="#FFFFFF" d="M435.415,186.762h-7.113v-1.342h2.735v-8.807h-2.735v-1.2c0.371,0,0.768-0.031,1.191-0.093
						s0.744-0.151,0.962-0.269c0.271-0.147,0.484-0.334,0.64-0.561c0.156-0.227,0.246-0.531,0.27-0.914h1.367v11.843h2.684V186.762z
						"/>
					<path fill="#FFFFFF" d="M460.527,187.675h-2.901v-8.144c-0.895,0.757-1.785,1.319-2.669,1.688
						c-0.886,0.368-1.842,0.553-2.87,0.553c-2.048,0-3.681-0.774-4.899-2.323s-1.829-3.686-1.829-6.41
						c0-1.453,0.214-2.737,0.641-3.853s0.99-2.052,1.689-2.808c0.68-0.737,1.477-1.308,2.392-1.711
						c0.916-0.403,1.883-0.605,2.901-0.605c0.926,0,1.746,0.101,2.461,0.303s1.443,0.5,2.184,0.893l0.186-0.727h2.716V187.675z
						 M457.626,177.14v-9.566c-0.803-0.354-1.512-0.601-2.129-0.742c-0.617-0.141-1.286-0.211-2.007-0.211
						c-1.677,0-2.952,0.558-3.826,1.672c-0.875,1.115-1.312,2.651-1.312,4.609c0,1.978,0.353,3.499,1.057,4.563
						c0.705,1.065,1.813,1.597,3.325,1.597c0.844,0,1.688-0.179,2.531-0.537C456.108,178.167,456.896,177.706,457.626,177.14z"/>
					<path fill="#FFFFFF" d="M473.697,186.762h-8.896v-1.845c0.617-0.529,1.236-1.059,1.857-1.588s1.198-1.056,1.734-1.58
						c1.129-1.094,1.903-1.963,2.32-2.607c0.418-0.645,0.627-1.34,0.627-2.087c0-0.683-0.226-1.217-0.675-1.602
						c-0.45-0.386-1.078-0.578-1.885-0.578c-0.535,0-1.114,0.094-1.738,0.282c-0.623,0.188-1.232,0.477-1.826,0.865h-0.089v-1.854
						c0.418-0.206,0.976-0.395,1.673-0.564c0.697-0.171,1.372-0.256,2.025-0.256c1.347,0,2.402,0.324,3.168,0.975
						c0.765,0.65,1.146,1.531,1.146,2.643c0,0.501-0.063,0.967-0.189,1.399s-0.313,0.843-0.561,1.23
						c-0.229,0.365-0.498,0.724-0.808,1.077c-0.309,0.353-0.684,0.744-1.125,1.174c-0.629,0.617-1.279,1.216-1.95,1.796
						c-0.671,0.579-1.297,1.116-1.88,1.61h7.069V186.762z"/>
				</g>
				<g enable-background="new    ">
					<path fill="#FFFFFF" d="M406.299,213.635h-0.154c-0.432-0.102-0.852-0.174-1.258-0.221c-0.406-0.045-0.887-0.066-1.442-0.066
						c-0.895,0-1.759,0.193-2.592,0.582c-0.834,0.389-1.636,0.891-2.407,1.506v12.004h-2.901v-16.908h2.901v2.498
						c1.151-0.908,2.168-1.553,3.047-1.93c0.88-0.379,1.777-0.568,2.693-0.568c0.504,0,0.869,0.014,1.095,0.037
						c0.227,0.025,0.566,0.074,1.019,0.145V213.635z"/>
					<path fill="#FFFFFF" d="M422.192,232.762h-1.659v-5.611c0-0.424-0.019-0.834-0.057-1.227c-0.039-0.395-0.119-0.709-0.243-0.945
						c-0.136-0.252-0.329-0.443-0.582-0.574c-0.253-0.129-0.618-0.193-1.095-0.193c-0.465,0-0.93,0.117-1.395,0.35
						s-0.929,0.527-1.394,0.887c0.018,0.135,0.032,0.291,0.044,0.471s0.018,0.357,0.018,0.535v6.309h-1.659v-5.611
						c0-0.436-0.02-0.85-0.058-1.24s-0.119-0.705-0.242-0.939c-0.136-0.254-0.33-0.443-0.583-0.57s-0.617-0.189-1.094-0.189
						c-0.453,0-0.907,0.111-1.363,0.336c-0.456,0.223-0.911,0.508-1.363,0.855v7.359h-1.659v-9.857h1.659V224
						c0.518-0.43,1.033-0.766,1.549-1.006c0.515-0.242,1.063-0.363,1.646-0.363c0.671,0,1.239,0.143,1.707,0.424
						c0.468,0.283,0.816,0.674,1.046,1.174c0.671-0.564,1.282-0.973,1.836-1.223c0.553-0.25,1.144-0.375,1.773-0.375
						c1.083,0,1.881,0.328,2.396,0.984c0.515,0.656,0.771,1.572,0.771,2.75V232.762z"/>
					<path fill="#FFFFFF" d="M434.071,212.115h-8.896v-1.844c0.617-0.529,1.236-1.059,1.857-1.588s1.198-1.057,1.734-1.58
						c1.129-1.094,1.903-1.963,2.32-2.607c0.418-0.645,0.627-1.34,0.627-2.087c0-0.683-0.226-1.217-0.675-1.602
						c-0.45-0.386-1.078-0.578-1.885-0.578c-0.535,0-1.114,0.094-1.738,0.282c-0.623,0.188-1.232,0.477-1.826,0.865h-0.089v-1.854
						c0.418-0.206,0.976-0.395,1.673-0.564c0.697-0.171,1.372-0.256,2.025-0.256c1.347,0,2.402,0.324,3.168,0.975
						c0.765,0.65,1.146,1.531,1.146,2.643c0,0.501-0.063,0.967-0.189,1.399c-0.127,0.434-0.313,0.844-0.561,1.23
						c-0.229,0.365-0.498,0.725-0.808,1.078c-0.309,0.352-0.684,0.744-1.125,1.174c-0.629,0.617-1.279,1.215-1.95,1.795
						s-1.297,1.117-1.88,1.611h7.069V212.115z"/>
				</g>
			</g>
			<g>
				<path fill="#FFFFFF" d="M301.191,183.565h-11.398v6.357h9.793v2.664h-9.793v10.853h-2.997v-22.539h14.395V183.565z"/>
				<path fill="#FFFFFF" d="M310.506,208.145c-0.553,0.266-1.078,0.471-1.575,0.618c-0.498,0.147-1.025,0.221-1.584,0.221
					c-0.712,0-1.365-0.104-1.959-0.313s-1.103-0.525-1.526-0.949c-0.43-0.423-0.762-0.958-0.997-1.605
					c-0.235-0.646-0.353-1.403-0.353-2.268c0-1.612,0.442-2.877,1.328-3.795c0.885-0.918,2.055-1.376,3.508-1.376
					c0.564,0,1.119,0.079,1.663,0.238c0.544,0.159,1.043,0.353,1.496,0.582v1.845h-0.088c-0.506-0.394-1.028-0.697-1.566-0.909
					c-0.538-0.212-1.063-0.318-1.575-0.318c-0.941,0-1.684,0.316-2.228,0.949c-0.544,0.633-0.816,1.561-0.816,2.785
					c0,1.188,0.266,2.102,0.799,2.74c0.532,0.638,1.281,0.957,2.246,0.957c0.335,0,0.676-0.044,1.024-0.133
					c0.347-0.088,0.659-0.203,0.935-0.344c0.241-0.123,0.468-0.254,0.68-0.393s0.379-0.258,0.503-0.357h0.088V208.145z"/>
				<path fill="#FFFFFF" d="M343.56,191.603h-17.952v-2.422h17.952V191.603z M343.56,197.96h-17.952v-2.422h17.952V197.96z"/>
				<path fill="#FFFFFF" d="M377.935,193.98h-19.829v-1.816h19.829V193.98z"/>
				<path fill="#FFFFFF" d="M397.643,193.98h-19.829v-1.816h19.829V193.98z"/>
				<path fill="#FFFFFF" d="M417.351,193.98h-19.829v-1.816h19.829V193.98z"/>
				<path fill="#FFFFFF" d="M437.059,193.98H417.23v-1.816h19.829V193.98z"/>
				<path fill="#FFFFFF" d="M456.768,193.98h-19.83v-1.816h19.83V193.98z"/>
				<path fill="#FFFFFF" d="M476.475,193.98h-19.828v-1.816h19.828V193.98z"/>
			</g>
		</g>
	</g>
</g>
<g id="step25Black_1_" enable-background="new    ">
	<path fill="#FFFFFF" d="M68.22,295.783h-3.89l-8.916-10.035l-2.24,2.391v7.645h-2.997v-22.539h2.997v11.762l10.944-11.762h3.633
		L57.685,283.84L68.22,295.783z"/>
	<path fill="#FFFFFF" d="M83.856,294.723c-0.949,0.455-1.849,0.809-2.702,1.061c-0.853,0.252-1.759,0.379-2.717,0.379
		c-1.221,0-2.341-0.18-3.36-0.539c-1.02-0.357-1.892-0.9-2.619-1.627c-0.737-0.727-1.307-1.645-1.71-2.754
		c-0.404-1.111-0.605-2.406-0.605-3.891c0-2.766,0.759-4.934,2.278-6.508c1.519-1.574,3.524-2.361,6.017-2.361
		c0.969,0,1.92,0.135,2.853,0.408c0.934,0.271,1.789,0.605,2.566,0.998v3.164h-0.151c-0.868-0.676-1.763-1.195-2.687-1.559
		c-0.923-0.363-1.824-0.545-2.702-0.545c-1.615,0-2.889,0.543-3.822,1.627c-0.934,1.084-1.4,2.676-1.4,4.775
		c0,2.039,0.457,3.605,1.37,4.699c0.913,1.096,2.197,1.643,3.852,1.643c0.575,0,1.16-0.074,1.756-0.227
		c0.595-0.15,1.13-0.348,1.604-0.59c0.414-0.213,0.802-0.438,1.166-0.674s0.651-0.441,0.863-0.613h0.151V294.723z"/>
	<path fill="#FFFFFF" d="M117.262,283.945H99.311v-2.422h17.951V283.945z M117.262,290.303H99.311v-2.422h17.951V290.303z"/>
	<path fill="#FFFFFF" d="M149.731,289.502c0,1.947-0.76,3.566-2.278,4.857c-1.519,1.293-3.429,1.938-5.729,1.938
		c-2.441,0-4.387-0.631-5.835-1.891c-1.448-1.262-2.172-2.877-2.172-4.844c0-1.252,0.363-2.385,1.09-3.398
		c0.727-1.016,1.751-1.82,3.073-2.414v-0.092c-1.211-0.646-2.107-1.352-2.688-2.119s-0.87-1.725-0.87-2.875
		c0-1.695,0.696-3.109,2.089-4.238c1.393-1.131,3.164-1.695,5.313-1.695c2.251,0,4.047,0.539,5.389,1.619
		c1.343,1.08,2.014,2.451,2.014,4.117c0,1.02-0.318,2.02-0.953,3.004c-0.637,0.984-1.569,1.754-2.801,2.309v0.092
		c1.413,0.605,2.492,1.352,3.239,2.24C149.358,286.998,149.731,288.129,149.731,289.502z M146.613,289.789
		c0-0.93-0.204-1.674-0.613-2.232c-0.408-0.561-1.208-1.123-2.399-1.688c-0.474-0.223-0.993-0.43-1.559-0.621
		s-1.316-0.459-2.256-0.803c-0.908,0.494-1.637,1.166-2.187,2.014c-0.551,0.848-0.825,1.807-0.825,2.875
		c0,1.363,0.469,2.488,1.408,3.377c0.938,0.887,2.129,1.332,3.572,1.332c1.473,0,2.65-0.379,3.534-1.137
		C146.171,292.15,146.613,291.111,146.613,289.789z M146.143,278.496c0-1.08-0.416-1.939-1.248-2.58
		c-0.833-0.641-1.895-0.961-3.187-0.961c-1.271,0-2.313,0.303-3.126,0.908s-1.219,1.422-1.219,2.451
		c0,0.727,0.205,1.355,0.613,1.885c0.409,0.529,1.027,1.002,1.854,1.416c0.373,0.182,0.91,0.418,1.612,0.711
		c0.701,0.293,1.385,0.535,2.051,0.727c0.999-0.666,1.69-1.357,2.074-2.074C145.952,280.262,146.143,279.436,146.143,278.496z"/>
	<path fill="#FFFFFF" d="M159.025,295.783h-3.617v-4.314h3.617V295.783z"/>
	<path fill="#FFFFFF" d="M180.519,283.158c0,1.969-0.225,3.754-0.673,5.359c-0.449,1.604-1.128,2.971-2.036,4.102
		c-0.918,1.15-2.068,2.039-3.451,2.664s-3.007,0.939-4.874,0.939c-0.524,0-1.02-0.029-1.483-0.084
		c-0.464-0.057-0.878-0.145-1.241-0.266v-2.891h0.151c0.293,0.152,0.706,0.295,1.241,0.432s1.13,0.205,1.786,0.205
		c2.23,0,3.979-0.67,5.245-2.006c1.266-1.338,2-3.182,2.202-5.533c-0.938,0.564-1.821,0.969-2.648,1.211
		c-0.828,0.242-1.731,0.363-2.71,0.363c-0.929,0-1.769-0.09-2.521-0.271s-1.506-0.535-2.263-1.061
		c-0.888-0.615-1.557-1.398-2.006-2.346c-0.449-0.949-0.673-2.084-0.673-3.406c0-2.301,0.756-4.172,2.27-5.615
		s3.361-2.164,5.541-2.164c1.09,0,2.099,0.168,3.027,0.506c0.928,0.338,1.74,0.846,2.437,1.521c0.857,0.838,1.519,1.914,1.983,3.232
		C180.288,279.367,180.519,281.07,180.519,283.158z M177.462,282.508c0-1.564-0.162-2.82-0.484-3.77
		c-0.323-0.947-0.768-1.686-1.332-2.209c-0.475-0.455-0.984-0.779-1.529-0.977s-1.135-0.295-1.771-0.295
		c-1.453,0-2.601,0.453-3.443,1.361s-1.264,2.186-1.264,3.83c0,0.959,0.137,1.74,0.408,2.346c0.273,0.605,0.732,1.137,1.378,1.59
		c0.454,0.313,0.954,0.521,1.499,0.629c0.545,0.105,1.15,0.158,1.816,0.158c0.787,0,1.584-0.105,2.391-0.318
		c0.808-0.211,1.564-0.52,2.271-0.922c0.01-0.213,0.022-0.422,0.037-0.629C177.455,283.096,177.462,282.83,177.462,282.508z"/>
	<path fill="#FFFFFF" d="M200.423,289.502c0,1.947-0.76,3.566-2.278,4.857c-1.519,1.293-3.429,1.938-5.729,1.938
		c-2.441,0-4.387-0.631-5.835-1.891c-1.448-1.262-2.172-2.877-2.172-4.844c0-1.252,0.363-2.385,1.09-3.398
		c0.727-1.016,1.751-1.82,3.073-2.414v-0.092c-1.211-0.646-2.107-1.352-2.688-2.119s-0.87-1.725-0.87-2.875
		c0-1.695,0.696-3.109,2.089-4.238c1.393-1.131,3.164-1.695,5.313-1.695c2.251,0,4.047,0.539,5.389,1.619
		c1.343,1.08,2.014,2.451,2.014,4.117c0,1.02-0.318,2.02-0.953,3.004c-0.637,0.984-1.569,1.754-2.801,2.309v0.092
		c1.413,0.605,2.492,1.352,3.239,2.24C200.05,286.998,200.423,288.129,200.423,289.502z M197.305,289.789
		c0-0.93-0.204-1.674-0.613-2.232c-0.408-0.561-1.208-1.123-2.399-1.688c-0.474-0.223-0.993-0.43-1.559-0.621
		s-1.316-0.459-2.256-0.803c-0.908,0.494-1.637,1.166-2.187,2.014c-0.551,0.848-0.825,1.807-0.825,2.875
		c0,1.363,0.469,2.488,1.408,3.377c0.938,0.887,2.129,1.332,3.572,1.332c1.473,0,2.65-0.379,3.534-1.137
		C196.864,292.15,197.305,291.111,197.305,289.789z M196.835,278.496c0-1.08-0.416-1.939-1.248-2.58
		c-0.833-0.641-1.895-0.961-3.187-0.961c-1.271,0-2.313,0.303-3.126,0.908s-1.219,1.422-1.219,2.451
		c0,0.727,0.205,1.355,0.613,1.885c0.409,0.529,1.027,1.002,1.854,1.416c0.373,0.182,0.91,0.418,1.612,0.711
		c0.701,0.293,1.385,0.535,2.051,0.727c0.999-0.666,1.69-1.357,2.074-2.074C196.644,280.262,196.835,279.436,196.835,278.496z"/>
	<path fill="#FFFFFF" d="M220.132,289.502c0,1.947-0.76,3.566-2.278,4.857c-1.519,1.293-3.429,1.938-5.729,1.938
		c-2.441,0-4.387-0.631-5.835-1.891c-1.448-1.262-2.172-2.877-2.172-4.844c0-1.252,0.363-2.385,1.09-3.398
		c0.727-1.016,1.751-1.82,3.073-2.414v-0.092c-1.211-0.646-2.107-1.352-2.688-2.119s-0.87-1.725-0.87-2.875
		c0-1.695,0.696-3.109,2.089-4.238c1.393-1.131,3.164-1.695,5.313-1.695c2.251,0,4.047,0.539,5.389,1.619
		c1.343,1.08,2.014,2.451,2.014,4.117c0,1.02-0.318,2.02-0.953,3.004c-0.637,0.984-1.569,1.754-2.801,2.309v0.092
		c1.413,0.605,2.492,1.352,3.239,2.24C219.759,286.998,220.132,288.129,220.132,289.502z M217.014,289.789
		c0-0.93-0.204-1.674-0.613-2.232c-0.408-0.561-1.208-1.123-2.399-1.688c-0.474-0.223-0.993-0.43-1.559-0.621
		s-1.316-0.459-2.256-0.803c-0.908,0.494-1.637,1.166-2.187,2.014c-0.551,0.848-0.825,1.807-0.825,2.875
		c0,1.363,0.469,2.488,1.408,3.377c0.938,0.887,2.129,1.332,3.572,1.332c1.473,0,2.65-0.379,3.534-1.137
		C216.573,292.15,217.014,291.111,217.014,289.789z M216.544,278.496c0-1.08-0.416-1.939-1.248-2.58
		c-0.833-0.641-1.895-0.961-3.187-0.961c-1.271,0-2.313,0.303-3.126,0.908s-1.219,1.422-1.219,2.451
		c0,0.727,0.205,1.355,0.613,1.885c0.409,0.529,1.027,1.002,1.854,1.416c0.373,0.182,0.91,0.418,1.612,0.711
		c0.701,0.293,1.385,0.535,2.051,0.727c0.999-0.666,1.69-1.357,2.074-2.074C216.353,280.262,216.544,279.436,216.544,278.496z"/>
	<path fill="#FFFFFF" d="M250.314,295.783h-3.588l-4.798-6.494l-4.829,6.494h-3.314l6.6-8.432l-6.539-8.477h3.588l4.768,6.389
		l4.783-6.389h3.33l-6.645,8.326L250.314,295.783z"/>
	<path fill="#FFFFFF" d="M278.529,295.783h-12.2v-2.301h4.692v-15.107h-4.692v-2.059c0.636,0,1.317-0.053,2.044-0.158
		s1.276-0.26,1.649-0.461c0.464-0.254,0.83-0.574,1.098-0.963c0.267-0.387,0.421-0.91,0.462-1.566h2.346v20.314h4.602V295.783z"/>
	<path fill="#FFFFFF" d="M299.494,284.506c0,4.047-0.633,7.016-1.899,8.908s-3.231,2.838-5.896,2.838
		c-2.704,0-4.68-0.959-5.926-2.875c-1.247-1.918-1.869-4.865-1.869-8.84c0-4.008,0.63-6.967,1.892-8.879s3.229-2.867,5.903-2.867
		c2.704,0,4.68,0.971,5.926,2.912C298.871,277.646,299.494,280.58,299.494,284.506z M295.513,291.379
		c0.354-0.818,0.593-1.779,0.719-2.885s0.189-2.434,0.189-3.988c0-1.533-0.063-2.865-0.189-3.996s-0.371-2.088-0.734-2.875
		c-0.353-0.777-0.835-1.363-1.445-1.756c-0.61-0.395-1.395-0.592-2.354-0.592c-0.948,0-1.733,0.197-2.354,0.592
		c-0.621,0.393-1.113,0.988-1.477,1.785c-0.343,0.746-0.577,1.721-0.703,2.922c-0.127,1.201-0.189,2.518-0.189,3.951
		c0,1.574,0.056,2.891,0.166,3.949c0.111,1.061,0.349,2.008,0.712,2.846c0.333,0.787,0.805,1.389,1.415,1.803
		c0.61,0.412,1.421,0.619,2.43,0.619c0.948,0,1.735-0.195,2.361-0.59C294.686,292.771,295.17,292.176,295.513,291.379z"/>
	<path fill="#FFFFFF" d="M311.835,273.1c0,1.146-0.132,2.189-0.394,3.123c-0.262,0.936-0.657,1.734-1.187,2.393
		c-0.535,0.67-1.206,1.188-2.012,1.553c-0.807,0.365-1.754,0.547-2.842,0.547c-0.306,0-0.595-0.016-0.865-0.049
		c-0.271-0.031-0.512-0.082-0.724-0.154v-1.686h0.089c0.17,0.09,0.411,0.172,0.724,0.252c0.312,0.08,0.658,0.119,1.041,0.119
		c1.3,0,2.319-0.389,3.058-1.17c0.738-0.779,1.166-1.854,1.284-3.225c-0.547,0.33-1.062,0.564-1.544,0.707
		c-0.482,0.141-1.01,0.211-1.58,0.211c-0.541,0-1.031-0.053-1.469-0.158c-0.438-0.107-0.879-0.313-1.319-0.619
		c-0.519-0.357-0.908-0.814-1.17-1.367s-0.393-1.215-0.393-1.986c0-1.34,0.441-2.432,1.324-3.273
		c0.882-0.842,1.959-1.262,3.229-1.262c0.636,0,1.224,0.1,1.765,0.295c0.541,0.197,1.015,0.494,1.421,0.887
		c0.5,0.49,0.886,1.117,1.156,1.885S311.835,271.883,311.835,273.1z M310.052,272.721c0-0.912-0.094-1.645-0.282-2.197
		s-0.447-0.982-0.776-1.289c-0.276-0.266-0.574-0.455-0.892-0.568c-0.317-0.115-0.662-0.172-1.032-0.172
		c-0.848,0-1.517,0.264-2.008,0.793s-0.736,1.273-0.736,2.232c0,0.559,0.079,1.016,0.238,1.369c0.158,0.352,0.426,0.66,0.803,0.926
		c0.265,0.182,0.556,0.305,0.873,0.367c0.318,0.061,0.671,0.092,1.06,0.092c0.459,0,0.924-0.063,1.395-0.186
		s0.911-0.303,1.323-0.539c0.006-0.123,0.014-0.244,0.022-0.365S310.052,272.908,310.052,272.721z"/>
	<path fill="#FFFFFF" d="M339.603,295.783h-3.709l-10.686-20.162v20.162h-2.801v-22.539h4.646l9.748,18.406v-18.406h2.801V295.783z"
		/>
	<path fill="#FFFFFF" d="M370.042,295.783h-2.846v-9.627c0-0.727-0.032-1.428-0.098-2.104c-0.066-0.678-0.205-1.217-0.416-1.621
		c-0.232-0.434-0.565-0.762-1-0.982c-0.434-0.223-1.059-0.334-1.877-0.334c-0.797,0-1.594,0.199-2.391,0.598
		c-0.798,0.398-1.595,0.906-2.393,1.521c0.031,0.232,0.056,0.502,0.076,0.811c0.021,0.307,0.03,0.613,0.03,0.916v10.822h-2.846
		v-9.627c0-0.748-0.033-1.455-0.099-2.127s-0.204-1.209-0.416-1.611c-0.232-0.436-0.565-0.76-0.999-0.977s-1.06-0.326-1.877-0.326
		c-0.777,0-1.557,0.191-2.339,0.576c-0.782,0.383-1.562,0.871-2.338,1.467v12.625h-2.846v-16.908h2.846v1.877
		c0.888-0.736,1.772-1.313,2.656-1.725c0.883-0.414,1.824-0.621,2.822-0.621c1.15,0,2.127,0.242,2.93,0.727
		c0.802,0.484,1.4,1.154,1.793,2.014c1.15-0.969,2.2-1.668,3.148-2.098c0.949-0.428,1.963-0.643,3.043-0.643
		c1.856,0,3.227,0.563,4.109,1.688s1.324,2.697,1.324,4.715V295.783z"/>
	<path fill="#FFFFFF" d="M383.039,280.459h-8.896v-1.844c0.617-0.529,1.236-1.059,1.857-1.588s1.198-1.057,1.734-1.58
		c1.129-1.094,1.903-1.963,2.32-2.607c0.418-0.645,0.627-1.34,0.627-2.088c0-0.682-0.226-1.217-0.675-1.602
		c-0.45-0.385-1.078-0.578-1.885-0.578c-0.535,0-1.114,0.094-1.738,0.283c-0.623,0.188-1.232,0.477-1.826,0.865h-0.089v-1.854
		c0.418-0.207,0.976-0.395,1.673-0.564c0.697-0.172,1.372-0.256,2.025-0.256c1.347,0,2.402,0.324,3.168,0.975
		c0.765,0.65,1.146,1.531,1.146,2.643c0,0.5-0.063,0.967-0.189,1.398c-0.127,0.434-0.313,0.844-0.561,1.23
		c-0.229,0.365-0.498,0.725-0.808,1.078c-0.309,0.352-0.684,0.744-1.125,1.174c-0.629,0.617-1.279,1.215-1.95,1.795
		s-1.297,1.117-1.88,1.611h7.069V280.459z"/>
	<path fill="#FFFFFF" d="M408.128,272.23l-10.854,28.154h-2.618l10.808-28.154H408.128z"/>
	<path fill="#FFFFFF" d="M440.521,294.148c-0.555,0.242-1.059,0.469-1.506,0.682c-0.449,0.211-1.037,0.434-1.764,0.666
		c-0.615,0.191-1.285,0.355-2.006,0.49c-0.723,0.137-1.516,0.205-2.385,0.205c-1.634,0-3.121-0.23-4.458-0.689
		s-2.5-1.178-3.489-2.156c-0.969-0.959-1.725-2.178-2.27-3.656c-0.545-1.477-0.818-3.195-0.818-5.152
		c0-1.857,0.263-3.518,0.787-4.98c0.525-1.463,1.282-2.699,2.271-3.709c0.958-0.979,2.116-1.725,3.474-2.24
		c1.356-0.514,2.863-0.771,4.518-0.771c1.211,0,2.42,0.146,3.625,0.439c1.205,0.291,2.545,0.807,4.02,1.543v3.557h-0.229
		c-1.24-1.039-2.471-1.795-3.693-2.27c-1.221-0.475-2.527-0.711-3.92-0.711c-1.14,0-2.167,0.184-3.08,0.551
		c-0.914,0.369-1.729,0.941-2.445,1.719c-0.695,0.758-1.238,1.713-1.627,2.869c-0.389,1.154-0.582,2.49-0.582,4.004
		c0,1.584,0.214,2.945,0.643,4.086s0.981,2.068,1.658,2.785c0.706,0.746,1.53,1.299,2.475,1.658c0.943,0.357,1.939,0.537,2.99,0.537
		c1.443,0,2.795-0.248,4.057-0.742s2.441-1.236,3.541-2.225h0.213V294.148z"/>
	<path fill="#FFFFFF" d="M452.049,280.459h-8.896v-1.844c0.617-0.529,1.236-1.059,1.857-1.588s1.199-1.057,1.734-1.58
		c1.129-1.094,1.904-1.963,2.32-2.607c0.418-0.645,0.627-1.34,0.627-2.088c0-0.682-0.225-1.217-0.674-1.602
		c-0.451-0.385-1.078-0.578-1.885-0.578c-0.535,0-1.115,0.094-1.738,0.283c-0.623,0.188-1.232,0.477-1.826,0.865h-0.09v-1.854
		c0.418-0.207,0.977-0.395,1.674-0.564c0.697-0.172,1.371-0.256,2.025-0.256c1.346,0,2.402,0.324,3.168,0.975
		c0.764,0.65,1.146,1.531,1.146,2.643c0,0.5-0.063,0.967-0.189,1.398c-0.127,0.434-0.314,0.844-0.561,1.23
		c-0.23,0.365-0.498,0.725-0.809,1.078c-0.309,0.352-0.684,0.744-1.125,1.174c-0.629,0.617-1.279,1.215-1.949,1.795
		c-0.672,0.58-1.297,1.117-1.881,1.611h7.07V280.459z"/>
	<path fill="#FFFFFF" d="M485.779,283.945h-17.951v-2.422h17.951V283.945z M485.779,290.303h-17.951v-2.422h17.951V290.303z"/>
	<path fill="#FFFFFF" d="M520.822,294.148c-0.555,0.242-1.059,0.469-1.506,0.682c-0.449,0.211-1.037,0.434-1.764,0.666
		c-0.615,0.191-1.285,0.355-2.006,0.49c-0.723,0.137-1.516,0.205-2.385,0.205c-1.635,0-3.121-0.23-4.457-0.689
		c-1.338-0.459-2.5-1.178-3.49-2.156c-0.969-0.959-1.725-2.178-2.27-3.656c-0.545-1.477-0.818-3.195-0.818-5.152
		c0-1.857,0.264-3.518,0.787-4.98c0.525-1.463,1.283-2.699,2.271-3.709c0.959-0.979,2.117-1.725,3.475-2.24
		c1.355-0.514,2.863-0.771,4.518-0.771c1.211,0,2.42,0.146,3.625,0.439c1.205,0.291,2.545,0.807,4.02,1.543v3.557h-0.229
		c-1.24-1.039-2.471-1.795-3.693-2.27c-1.221-0.475-2.527-0.711-3.92-0.711c-1.141,0-2.166,0.184-3.08,0.551
		c-0.914,0.369-1.729,0.941-2.445,1.719c-0.695,0.758-1.238,1.713-1.627,2.869c-0.389,1.154-0.582,2.49-0.582,4.004
		c0,1.584,0.215,2.945,0.643,4.086c0.43,1.141,0.982,2.068,1.658,2.785c0.707,0.746,1.531,1.299,2.475,1.658
		c0.943,0.357,1.939,0.537,2.99,0.537c1.443,0,2.795-0.248,4.057-0.742s2.441-1.236,3.541-2.225h0.213V294.148z"/>
	<path fill="#FFFFFF" d="M539.244,287.336c0,2.756-0.707,4.93-2.119,6.525c-1.414,1.594-3.307,2.391-5.678,2.391
		c-2.391,0-4.291-0.797-5.699-2.391c-1.406-1.596-2.111-3.77-2.111-6.525c0-2.754,0.705-4.932,2.111-6.531
		c1.408-1.6,3.309-2.398,5.699-2.398c2.371,0,4.264,0.799,5.678,2.398C538.537,282.404,539.244,284.582,539.244,287.336z
		 M536.307,287.336c0-2.189-0.43-3.816-1.287-4.881s-2.049-1.598-3.572-1.598c-1.543,0-2.742,0.533-3.594,1.598
		c-0.854,1.064-1.279,2.691-1.279,4.881c0,2.119,0.428,3.727,1.287,4.822c0.857,1.094,2.053,1.643,3.586,1.643
		c1.514,0,2.703-0.543,3.564-1.629C535.875,291.088,536.307,289.477,536.307,287.336z"/>
	<path fill="#FFFFFF" d="M557.664,295.783h-2.846v-1.877c-0.957,0.756-1.877,1.336-2.754,1.74c-0.879,0.404-1.848,0.605-2.906,0.605
		c-1.775,0-3.158-0.543-4.148-1.627c-0.988-1.084-1.482-2.678-1.482-4.775v-10.975h2.846v9.627c0,0.857,0.041,1.592,0.121,2.203
		c0.08,0.609,0.252,1.133,0.514,1.566c0.273,0.443,0.627,0.766,1.061,0.969c0.434,0.201,1.064,0.303,1.893,0.303
		c0.736,0,1.541-0.191,2.414-0.576c0.873-0.383,1.688-0.873,2.443-1.467v-12.625h2.846V295.783z"/>
	<path fill="#FFFFFF" d="M566.141,295.783h-2.846V272.23h2.846V295.783z"/>
	<path fill="#FFFFFF" d="M586.184,287.336c0,2.756-0.707,4.93-2.119,6.525c-1.414,1.594-3.307,2.391-5.678,2.391
		c-2.391,0-4.291-0.797-5.699-2.391c-1.406-1.596-2.111-3.77-2.111-6.525c0-2.754,0.705-4.932,2.111-6.531
		c1.408-1.6,3.309-2.398,5.699-2.398c2.371,0,4.264,0.799,5.678,2.398C585.477,282.404,586.184,284.582,586.184,287.336z
		 M583.246,287.336c0-2.189-0.43-3.816-1.287-4.881s-2.049-1.598-3.572-1.598c-1.543,0-2.742,0.533-3.594,1.598
		c-0.854,1.064-1.279,2.691-1.279,4.881c0,2.119,0.428,3.727,1.287,4.822c0.857,1.094,2.053,1.643,3.586,1.643
		c1.514,0,2.703-0.543,3.564-1.629C582.814,291.088,583.246,289.477,583.246,287.336z"/>
	<path fill="#FFFFFF" d="M615.26,295.783h-2.846v-9.627c0-0.727-0.033-1.428-0.098-2.104c-0.066-0.678-0.205-1.217-0.416-1.621
		c-0.232-0.434-0.566-0.762-1-0.982c-0.434-0.223-1.059-0.334-1.877-0.334c-0.797,0-1.594,0.199-2.391,0.598
		c-0.799,0.398-1.596,0.906-2.393,1.521c0.031,0.232,0.055,0.502,0.076,0.811c0.02,0.307,0.029,0.613,0.029,0.916v10.822H601.5
		v-9.627c0-0.748-0.033-1.455-0.098-2.127c-0.066-0.672-0.205-1.209-0.416-1.611c-0.232-0.436-0.566-0.76-1-0.977
		s-1.059-0.326-1.877-0.326c-0.777,0-1.557,0.191-2.338,0.576c-0.783,0.383-1.563,0.871-2.338,1.467v12.625h-2.846v-16.908h2.846
		v1.877c0.887-0.736,1.771-1.313,2.656-1.725c0.883-0.414,1.824-0.621,2.822-0.621c1.15,0,2.127,0.242,2.93,0.727
		c0.801,0.484,1.4,1.154,1.793,2.014c1.15-0.969,2.199-1.668,3.148-2.098c0.949-0.428,1.963-0.643,3.043-0.643
		c1.855,0,3.227,0.563,4.109,1.688s1.324,2.697,1.324,4.715V295.783z"/>
	<path fill="#FFFFFF" d="M635.619,287.201c0,1.412-0.199,2.684-0.598,3.814c-0.4,1.129-0.938,2.078-1.613,2.846
		c-0.717,0.797-1.504,1.395-2.361,1.793s-1.801,0.598-2.83,0.598c-0.959,0-1.797-0.113-2.512-0.34
		c-0.717-0.229-1.424-0.533-2.119-0.916l-0.182,0.787h-2.664V272.23h2.846v8.416c0.797-0.656,1.645-1.193,2.543-1.613
		c0.896-0.418,1.906-0.627,3.027-0.627c1.998,0,3.574,0.766,4.729,2.301C635.041,282.24,635.619,284.404,635.619,287.201z
		 M632.682,287.275c0-2.018-0.332-3.549-0.998-4.594s-1.74-1.566-3.225-1.566c-0.828,0-1.664,0.18-2.512,0.537
		c-0.848,0.359-1.635,0.82-2.361,1.385v9.688c0.807,0.363,1.5,0.615,2.08,0.758c0.58,0.141,1.238,0.211,1.977,0.211
		c1.574,0,2.807-0.516,3.699-1.551C632.236,291.107,632.682,289.486,632.682,287.275z"/>
	<path fill="#FFFFFF" d="M643.096,272.23l-0.65,8.764h-2.059l-0.65-8.764H643.096z"/>
	<path fill="#FFFFFF" d="M660.457,290.908c0,1.545-0.637,2.811-1.914,3.801c-1.277,0.988-3.02,1.482-5.23,1.482
		c-1.25,0-2.398-0.148-3.443-0.447c-1.043-0.297-1.92-0.623-2.625-0.975v-3.195h0.15c0.898,0.676,1.898,1.215,2.998,1.613
		s2.154,0.598,3.162,0.598c1.252,0,2.23-0.203,2.938-0.605c0.707-0.404,1.059-1.039,1.059-1.908c0-0.666-0.191-1.17-0.574-1.514
		c-0.383-0.342-1.121-0.635-2.211-0.877c-0.402-0.092-0.93-0.197-1.58-0.318c-0.652-0.121-1.244-0.252-1.779-0.393
		c-1.484-0.395-2.535-0.973-3.156-1.734s-0.932-1.697-0.932-2.807c0-0.697,0.145-1.354,0.432-1.969
		c0.289-0.615,0.725-1.166,1.311-1.65c0.564-0.475,1.283-0.85,2.156-1.127s1.85-0.416,2.93-0.416c1.008,0,2.029,0.123,3.064,0.371
		c1.035,0.246,1.895,0.547,2.58,0.9v3.043h-0.15c-0.727-0.535-1.609-0.986-2.648-1.355s-2.059-0.553-3.059-0.553
		c-1.039,0-1.916,0.199-2.633,0.598s-1.076,0.992-1.076,1.779c0,0.695,0.219,1.221,0.652,1.574c0.424,0.354,1.109,0.641,2.059,0.863
		c0.523,0.121,1.111,0.242,1.764,0.363c0.65,0.121,1.193,0.23,1.627,0.332c1.322,0.303,2.34,0.822,3.057,1.559
		C660.1,288.689,660.457,289.678,660.457,290.908z"/>
	<path fill="#FFFFFF" d="M687.932,294.723c-0.949,0.455-1.85,0.809-2.701,1.061c-0.854,0.252-1.76,0.379-2.717,0.379
		c-1.223,0-2.342-0.18-3.361-0.539c-1.02-0.357-1.893-0.9-2.619-1.627c-0.736-0.727-1.307-1.645-1.709-2.754
		c-0.404-1.111-0.605-2.406-0.605-3.891c0-2.766,0.758-4.934,2.277-6.508c1.518-1.574,3.523-2.361,6.018-2.361
		c0.969,0,1.918,0.135,2.852,0.408c0.934,0.271,1.789,0.605,2.566,0.998v3.164h-0.15c-0.869-0.676-1.764-1.195-2.688-1.559
		s-1.824-0.545-2.701-0.545c-1.615,0-2.891,0.543-3.822,1.627c-0.934,1.084-1.4,2.676-1.4,4.775c0,2.039,0.455,3.605,1.369,4.699
		c0.914,1.096,2.197,1.643,3.854,1.643c0.574,0,1.16-0.074,1.756-0.227c0.594-0.15,1.129-0.348,1.604-0.59
		c0.414-0.213,0.803-0.438,1.166-0.674s0.65-0.441,0.863-0.613h0.15V294.723z"/>
	<path fill="#FFFFFF" d="M705.99,287.336c0,2.756-0.707,4.93-2.119,6.525c-1.414,1.594-3.307,2.391-5.678,2.391
		c-2.391,0-4.291-0.797-5.699-2.391c-1.406-1.596-2.111-3.77-2.111-6.525c0-2.754,0.705-4.932,2.111-6.531
		c1.408-1.6,3.309-2.398,5.699-2.398c2.371,0,4.264,0.799,5.678,2.398C705.283,282.404,705.99,284.582,705.99,287.336z
		 M703.053,287.336c0-2.189-0.43-3.816-1.287-4.881s-2.049-1.598-3.572-1.598c-1.543,0-2.742,0.533-3.594,1.598
		c-0.854,1.064-1.279,2.691-1.279,4.881c0,2.119,0.428,3.727,1.287,4.822c0.857,1.094,2.053,1.643,3.586,1.643
		c1.514,0,2.703-0.543,3.564-1.629C702.621,291.088,703.053,289.477,703.053,287.336z"/>
	<path fill="#FFFFFF" d="M724.531,295.783h-2.846v-9.627c0-0.777-0.045-1.506-0.135-2.188c-0.092-0.682-0.258-1.213-0.5-1.598
		c-0.252-0.424-0.615-0.738-1.09-0.945s-1.09-0.311-1.848-0.311c-0.775,0-1.588,0.191-2.436,0.576
		c-0.848,0.383-1.66,0.871-2.438,1.467v12.625h-2.846v-16.908h2.846v1.877c0.889-0.736,1.807-1.313,2.754-1.725
		c0.949-0.414,1.924-0.621,2.922-0.621c1.826,0,3.219,0.549,4.178,1.65c0.959,1.1,1.438,2.684,1.438,4.752V295.783z"/>
	<path fill="#FFFFFF" d="M742.09,290.908c0,1.545-0.637,2.811-1.914,3.801c-1.277,0.988-3.02,1.482-5.23,1.482
		c-1.25,0-2.398-0.148-3.443-0.447c-1.043-0.297-1.92-0.623-2.625-0.975v-3.195h0.15c0.898,0.676,1.898,1.215,2.998,1.613
		s2.154,0.598,3.162,0.598c1.252,0,2.23-0.203,2.938-0.605c0.707-0.404,1.059-1.039,1.059-1.908c0-0.666-0.191-1.17-0.574-1.514
		c-0.383-0.342-1.121-0.635-2.211-0.877c-0.402-0.092-0.93-0.197-1.58-0.318c-0.652-0.121-1.244-0.252-1.779-0.393
		c-1.484-0.395-2.535-0.973-3.156-1.734s-0.932-1.697-0.932-2.807c0-0.697,0.145-1.354,0.432-1.969
		c0.289-0.615,0.725-1.166,1.311-1.65c0.564-0.475,1.283-0.85,2.156-1.127s1.85-0.416,2.93-0.416c1.008,0,2.029,0.123,3.064,0.371
		c1.035,0.246,1.895,0.547,2.58,0.9v3.043h-0.15c-0.727-0.535-1.609-0.986-2.648-1.355s-2.059-0.553-3.059-0.553
		c-1.039,0-1.916,0.199-2.633,0.598s-1.076,0.992-1.076,1.779c0,0.695,0.219,1.221,0.652,1.574c0.424,0.354,1.109,0.641,2.059,0.863
		c0.523,0.121,1.111,0.242,1.764,0.363c0.65,0.121,1.193,0.23,1.627,0.332c1.322,0.303,2.34,0.822,3.057,1.559
		C741.732,288.689,742.09,289.678,742.09,290.908z"/>
	<path fill="#FFFFFF" d="M754.941,295.631c-0.535,0.143-1.117,0.258-1.748,0.35c-0.631,0.09-1.193,0.135-1.688,0.135
		c-1.727,0-3.037-0.463-3.936-1.393c-0.898-0.928-1.348-2.416-1.348-4.465v-8.99h-1.922v-2.393h1.922v-4.859h2.846v4.859h5.873
		v2.393h-5.873v7.703c0,0.889,0.02,1.582,0.061,2.082s0.182,0.967,0.424,1.4c0.223,0.402,0.527,0.699,0.916,0.885
		c0.389,0.188,0.98,0.281,1.777,0.281c0.465,0,0.949-0.068,1.453-0.205c0.506-0.137,0.869-0.25,1.09-0.34h0.152V295.631z"/>
	<path fill="#FFFFFF" d="M771.518,295.783h-2.832v-1.801c-0.252,0.17-0.592,0.41-1.021,0.719c-0.43,0.307-0.846,0.553-1.248,0.734
		c-0.475,0.23-1.02,0.426-1.635,0.582s-1.338,0.234-2.164,0.234c-1.525,0-2.816-0.504-3.875-1.514
		c-1.061-1.01-1.59-2.295-1.59-3.859c0-1.281,0.273-2.318,0.824-3.111c0.551-0.791,1.334-1.414,2.354-1.869
		c1.029-0.453,2.266-0.762,3.709-0.924c1.443-0.16,2.992-0.281,4.646-0.363v-0.438c0-0.646-0.113-1.182-0.34-1.605
		s-0.553-0.756-0.977-0.998c-0.404-0.232-0.889-0.389-1.453-0.471c-0.564-0.08-1.156-0.121-1.771-0.121
		c-0.746,0-1.578,0.1-2.496,0.295c-0.92,0.197-1.867,0.482-2.846,0.855h-0.152v-2.891c0.555-0.15,1.357-0.318,2.406-0.5
		c1.051-0.182,2.084-0.271,3.104-0.271c1.191,0,2.227,0.098,3.111,0.295c0.883,0.197,1.646,0.531,2.293,1.006
		c0.635,0.465,1.119,1.064,1.453,1.803c0.332,0.736,0.5,1.648,0.5,2.738V295.783z M768.686,291.621v-4.709
		c-0.867,0.051-1.889,0.127-3.064,0.229c-1.176,0.1-2.107,0.246-2.793,0.438c-0.816,0.232-1.479,0.594-1.982,1.082
		c-0.506,0.49-0.758,1.164-0.758,2.021c0,0.969,0.293,1.697,0.879,2.188c0.584,0.49,1.479,0.734,2.68,0.734
		c0.998,0,1.912-0.195,2.738-0.584C767.213,292.633,767.98,292.166,768.686,291.621z"/>
	<path fill="#FFFFFF" d="M791.133,295.783h-2.846v-9.627c0-0.777-0.045-1.506-0.135-2.188c-0.092-0.682-0.258-1.213-0.5-1.598
		c-0.252-0.424-0.615-0.738-1.09-0.945s-1.09-0.311-1.848-0.311c-0.775,0-1.588,0.191-2.436,0.576
		c-0.848,0.383-1.66,0.871-2.438,1.467v12.625h-2.846v-16.908h2.846v1.877c0.889-0.736,1.807-1.313,2.754-1.725
		c0.949-0.414,1.924-0.621,2.922-0.621c1.826,0,3.219,0.549,4.178,1.65c0.959,1.1,1.438,2.684,1.438,4.752V295.783z"/>
	<path fill="#FFFFFF" d="M805.393,295.631c-0.535,0.143-1.117,0.258-1.748,0.35c-0.631,0.09-1.193,0.135-1.688,0.135
		c-1.727,0-3.037-0.463-3.936-1.393c-0.898-0.928-1.348-2.416-1.348-4.465v-8.99h-1.922v-2.393h1.922v-4.859h2.846v4.859h5.873
		v2.393h-5.873v7.703c0,0.889,0.02,1.582,0.061,2.082s0.182,0.967,0.424,1.4c0.223,0.402,0.527,0.699,0.916,0.885
		c0.389,0.188,0.98,0.281,1.777,0.281c0.465,0,0.949-0.068,1.453-0.205c0.506-0.137,0.869-0.25,1.09-0.34h0.152V295.631z"/>
</g>
</svg>
