<?xml version="1.0" encoding="utf-8"?>
<!-- Generator: Adobe Illustrator 16.0.0, SVG Export Plug-In . SVG Version: 6.00 Build 0)  -->
<!DOCTYPE svg PUBLIC "-//W3C//DTD SVG 1.1//EN" "http://www.w3.org/Graphics/SVG/1.1/DTD/svg11.dtd">
<svg version="1.1" id="Layer_3" xmlns="http://www.w3.org/2000/svg" xmlns:xlink="http://www.w3.org/1999/xlink" x="0px" y="0px"
	 width="862px" height="343px" viewBox="0 0 862 343" enable-background="new 0 0 862 343" xml:space="preserve">
<path fill="#291159" fill-opacity="0.8" stroke="#FFFFFF" stroke-width="3" stroke-miterlimit="10" d="M862,336.884
	c0,3.378-3.885,6.116-8.68,6.116H8.679C3.887,343,0,340.262,0,336.884V6.114C0,2.736,3.884,0,8.679,0h844.644
	C858.117,0,862,2.736,862,6.114V336.884L862,336.884z"/>
<g id="step24White">
	<g>
		<g enable-background="new    ">
			<path fill="#FFFFFF" d="M111.209,115.577c-0.555,0.242-1.057,0.469-1.506,0.682c-0.449,0.211-1.037,0.434-1.764,0.666
				c-0.616,0.191-1.284,0.355-2.006,0.491c-0.721,0.137-1.516,0.204-2.384,0.204c-1.635,0-3.121-0.229-4.458-0.688
				c-1.337-0.459-2.5-1.178-3.489-2.157c-0.969-0.958-1.726-2.177-2.271-3.655c-0.545-1.478-0.817-3.196-0.817-5.153
				c0-1.857,0.262-3.518,0.787-4.98c0.524-1.463,1.281-2.699,2.271-3.709c0.958-0.979,2.117-1.725,3.474-2.24
				c1.357-0.514,2.863-0.771,4.518-0.771c1.211,0,2.419,0.146,3.625,0.439c1.206,0.292,2.545,0.807,4.019,1.543v3.558h-0.227
				c-1.241-1.039-2.473-1.796-3.693-2.271c-1.221-0.475-2.528-0.711-3.92-0.711c-1.141,0-2.167,0.184-3.08,0.552
				c-0.914,0.369-1.729,0.941-2.445,1.718c-0.696,0.758-1.239,1.714-1.627,2.869c-0.388,1.155-0.583,2.49-0.583,4.004
				c0,1.584,0.214,2.946,0.643,4.086c0.429,1.141,0.981,2.069,1.658,2.785c0.706,0.747,1.531,1.3,2.475,1.658
				c0.943,0.358,1.939,0.537,2.989,0.537c1.443,0,2.795-0.247,4.057-0.742c1.261-0.494,2.442-1.235,3.542-2.225h0.212V115.577z"/>
			<path fill="#FFFFFF" d="M129.63,108.765c0,2.755-0.707,4.93-2.119,6.524c-1.413,1.594-3.305,2.391-5.676,2.391
				c-2.392,0-4.291-0.797-5.699-2.391c-1.407-1.595-2.111-3.77-2.111-6.524s0.704-4.932,2.111-6.531
				c1.408-1.6,3.308-2.399,5.699-2.399c2.371,0,4.263,0.8,5.676,2.399C128.924,103.833,129.63,106.01,129.63,108.765z
				 M126.694,108.765c0-2.189-0.429-3.816-1.287-4.882c-0.858-1.064-2.049-1.597-3.572-1.597c-1.544,0-2.742,0.532-3.595,1.597
				c-0.853,1.065-1.279,2.692-1.279,4.882c0,2.119,0.429,3.727,1.287,4.821c0.857,1.095,2.053,1.643,3.587,1.643
				c1.514,0,2.702-0.543,3.564-1.628C126.263,112.517,126.694,110.905,126.694,108.765z"/>
			<path fill="#FFFFFF" d="M148.052,117.211h-2.846v-1.877c-0.959,0.757-1.877,1.337-2.754,1.74
				c-0.879,0.404-1.848,0.605-2.907,0.605c-1.776,0-3.159-0.542-4.147-1.627c-0.989-1.084-1.483-2.677-1.483-4.775v-10.975h2.846
				v9.627c0,0.858,0.04,1.593,0.121,2.203c0.081,0.61,0.252,1.133,0.515,1.566c0.272,0.444,0.625,0.767,1.06,0.969
				c0.434,0.202,1.064,0.303,1.892,0.303c0.736,0,1.541-0.191,2.414-0.575s1.689-0.873,2.445-1.468v-12.625h2.846V117.211z"/>
			<path fill="#FFFFFF" d="M156.528,117.211h-2.846V93.659h2.846V117.211z"/>
			<path fill="#FFFFFF" d="M176.569,108.765c0,2.755-0.707,4.93-2.119,6.524c-1.413,1.594-3.306,2.391-5.677,2.391
				c-2.392,0-4.291-0.797-5.699-2.391c-1.407-1.595-2.111-3.77-2.111-6.524s0.704-4.932,2.111-6.531
				c1.408-1.6,3.308-2.399,5.699-2.399c2.371,0,4.264,0.8,5.677,2.399C175.862,103.833,176.569,106.01,176.569,108.765z
				 M173.632,108.765c0-2.189-0.429-3.816-1.286-4.882c-0.857-1.064-2.049-1.597-3.572-1.597c-1.544,0-2.742,0.532-3.595,1.597
				c-0.854,1.065-1.279,2.692-1.279,4.882c0,2.119,0.429,3.727,1.287,4.821c0.857,1.095,2.053,1.643,3.587,1.643
				c1.514,0,2.702-0.543,3.564-1.628C173.201,112.517,173.632,110.905,173.632,108.765z"/>
			<path fill="#FFFFFF" d="M205.646,117.211h-2.846v-9.627c0-0.727-0.032-1.428-0.098-2.104c-0.066-0.677-0.205-1.217-0.416-1.62
				c-0.232-0.434-0.565-0.762-1-0.983c-0.434-0.223-1.059-0.334-1.877-0.334c-0.797,0-1.594,0.2-2.391,0.599
				c-0.798,0.398-1.595,0.905-2.393,1.521c0.031,0.232,0.056,0.503,0.076,0.811s0.03,0.613,0.03,0.916v10.822h-2.846v-9.627
				c0-0.747-0.033-1.455-0.099-2.127c-0.065-0.671-0.204-1.208-0.416-1.611c-0.232-0.435-0.565-0.76-0.999-0.977
				s-1.06-0.326-1.877-0.326c-0.777,0-1.557,0.192-2.339,0.576c-0.782,0.383-1.562,0.872-2.338,1.468v12.624h-2.846v-16.908h2.846
				v1.877c0.888-0.736,1.772-1.312,2.656-1.725c0.883-0.414,1.824-0.621,2.822-0.621c1.15,0,2.127,0.242,2.93,0.727
				c0.802,0.484,1.4,1.155,1.793,2.014c1.15-0.969,2.2-1.668,3.148-2.097c0.949-0.429,1.963-0.644,3.043-0.644
				c1.856,0,3.227,0.563,4.109,1.688c0.883,1.126,1.324,2.697,1.324,4.715V117.211z"/>
			<path fill="#FFFFFF" d="M226.006,108.629c0,1.412-0.199,2.684-0.598,3.814c-0.399,1.13-0.937,2.078-1.612,2.846
				c-0.717,0.797-1.504,1.395-2.361,1.793s-1.802,0.598-2.831,0.598c-0.958,0-1.796-0.113-2.512-0.34
				c-0.717-0.228-1.424-0.532-2.119-0.916l-0.182,0.787h-2.664V93.659h2.846v8.416c0.797-0.656,1.645-1.193,2.543-1.612
				c0.897-0.418,1.906-0.628,3.027-0.628c1.998,0,3.574,0.767,4.729,2.301S226.006,105.833,226.006,108.629z M223.069,108.705
				c0-2.019-0.333-3.55-0.999-4.594c-0.666-1.045-1.74-1.567-3.225-1.567c-0.827,0-1.664,0.18-2.512,0.538s-1.635,0.819-2.361,1.385
				v9.688c0.807,0.363,1.5,0.615,2.081,0.757c0.58,0.142,1.238,0.212,1.976,0.212c1.574,0,2.808-0.517,3.7-1.552
				C222.623,112.537,223.069,110.915,223.069,108.705z"/>
			<path fill="#FFFFFF" d="M260.215,117.211h-3.891l-7.537-8.961h-4.224v8.961h-2.997V94.672h6.313c1.361,0,2.497,0.089,3.405,0.266
				s1.726,0.492,2.452,0.945c0.817,0.516,1.455,1.164,1.915,1.945c0.459,0.782,0.688,1.773,0.688,2.975
				c0,1.625-0.408,2.984-1.227,4.079c-0.816,1.096-1.942,1.92-3.375,2.476L260.215,117.211z M253.207,101.015
				c0-0.646-0.114-1.219-0.341-1.718c-0.228-0.5-0.604-0.921-1.128-1.264c-0.434-0.293-0.948-0.497-1.544-0.613
				s-1.297-0.174-2.104-0.174h-3.526v8.506h3.027c0.948,0,1.776-0.083,2.482-0.249c0.706-0.167,1.307-0.478,1.802-0.931
				c0.453-0.424,0.789-0.911,1.006-1.461S253.207,101.863,253.207,101.015z"/>
			<path fill="#FFFFFF" d="M276.29,109.053h-12.457c0,1.039,0.156,1.944,0.469,2.717c0.313,0.771,0.742,1.405,1.287,1.899
				c0.524,0.484,1.147,0.848,1.869,1.09c0.721,0.242,1.516,0.363,2.384,0.363c1.15,0,2.309-0.229,3.474-0.688
				c1.166-0.459,1.996-0.911,2.49-1.355h0.151v3.104c-0.959,0.403-1.938,0.742-2.937,1.014c-0.999,0.273-2.049,0.409-3.148,0.409
				c-2.806,0-4.995-0.759-6.569-2.278c-1.574-1.519-2.361-3.676-2.361-6.471c0-2.765,0.754-4.96,2.263-6.584
				c1.509-1.625,3.494-2.438,5.957-2.438c2.28,0,4.038,0.666,5.274,1.998s1.854,3.225,1.854,5.676V109.053z M273.521,106.874
				c-0.011-1.494-0.387-2.649-1.128-3.467c-0.742-0.817-1.87-1.227-3.384-1.227c-1.523,0-2.737,0.449-3.64,1.348
				c-0.903,0.898-1.415,2.014-1.536,3.346H273.521z"/>
			<path fill="#FFFFFF" d="M295.483,108.553c0,1.372-0.197,2.626-0.59,3.762c-0.395,1.135-0.949,2.096-1.666,2.883
				c-0.666,0.747-1.45,1.325-2.354,1.733c-0.903,0.409-1.859,0.613-2.868,0.613c-0.878,0-1.673-0.096-2.384-0.288
				c-0.712-0.191-1.436-0.489-2.172-0.893v7.084h-2.846v-23.145h2.846v1.771c0.756-0.636,1.606-1.168,2.55-1.597
				s1.95-0.644,3.021-0.644c2.038,0,3.625,0.77,4.76,2.309C294.916,103.682,295.483,105.819,295.483,108.553z M292.547,108.629
				c0-2.039-0.349-3.563-1.044-4.572c-0.697-1.009-1.767-1.514-3.209-1.514c-0.818,0-1.641,0.177-2.468,0.53
				s-1.62,0.817-2.376,1.393v9.581c0.807,0.363,1.5,0.611,2.081,0.742c0.58,0.131,1.238,0.197,1.976,0.197
				c1.584,0,2.82-0.535,3.708-1.605C292.103,112.312,292.547,110.728,292.547,108.629z"/>
			<path fill="#FFFFFF" d="M302.794,117.211h-2.846V93.659h2.846V117.211z"/>
			<path fill="#FFFFFF" d="M322.441,117.211h-2.846v-1.877c-0.958,0.757-1.877,1.337-2.754,1.74
				c-0.879,0.404-1.848,0.605-2.906,0.605c-1.776,0-3.159-0.542-4.148-1.627c-0.988-1.084-1.482-2.677-1.482-4.775v-10.975h2.846
				v9.627c0,0.858,0.04,1.593,0.121,2.203c0.08,0.61,0.252,1.133,0.514,1.566c0.273,0.444,0.626,0.767,1.061,0.969
				c0.434,0.202,1.064,0.303,1.892,0.303c0.736,0,1.541-0.191,2.414-0.575s1.688-0.873,2.444-1.468v-12.625h2.846V117.211z"/>
			<path fill="#FFFFFF" d="M340.121,112.337c0,1.544-0.638,2.811-1.914,3.8c-1.277,0.988-3.02,1.482-5.23,1.482
				c-1.251,0-2.398-0.148-3.443-0.446c-1.044-0.297-1.92-0.623-2.626-0.976v-3.194h0.151c0.898,0.676,1.897,1.214,2.997,1.612
				s2.154,0.598,3.163,0.598c1.252,0,2.23-0.202,2.938-0.605c0.706-0.403,1.059-1.039,1.059-1.907c0-0.666-0.191-1.171-0.574-1.514
				c-0.384-0.343-1.121-0.636-2.211-0.878c-0.403-0.091-0.931-0.197-1.581-0.318c-0.651-0.121-1.244-0.252-1.778-0.393
				c-1.484-0.395-2.536-0.972-3.156-1.733c-0.621-0.762-0.932-1.698-0.932-2.808c0-0.697,0.145-1.353,0.432-1.969
				c0.288-0.615,0.725-1.165,1.31-1.649c0.565-0.475,1.284-0.85,2.157-1.128c0.872-0.277,1.849-0.416,2.929-0.416
				c1.009,0,2.03,0.124,3.065,0.371c1.034,0.247,1.895,0.547,2.58,0.9v3.043h-0.15c-0.727-0.535-1.61-0.986-2.649-1.355
				c-1.039-0.368-2.059-0.553-3.058-0.553c-1.039,0-1.917,0.2-2.634,0.599s-1.075,0.991-1.075,1.778
				c0,0.696,0.218,1.221,0.651,1.574c0.424,0.354,1.11,0.641,2.059,0.863c0.524,0.121,1.112,0.242,1.764,0.363
				c0.65,0.121,1.193,0.231,1.627,0.332c1.322,0.303,2.341,0.823,3.058,1.56C339.764,110.118,340.121,111.106,340.121,112.337z"/>
			<path fill="#FFFFFF" d="M347.251,97.473h-3.209v-2.951h3.209V97.473z M347.069,117.211h-2.846v-16.908h2.846V117.211z"/>
			<path fill="#FFFFFF" d="M367.11,108.765c0,2.755-0.707,4.93-2.119,6.524c-1.413,1.594-3.306,2.391-5.677,2.391
				c-2.392,0-4.291-0.797-5.699-2.391c-1.407-1.595-2.111-3.77-2.111-6.524s0.704-4.932,2.111-6.531
				c1.408-1.6,3.308-2.399,5.699-2.399c2.371,0,4.264,0.8,5.677,2.399C366.403,103.833,367.11,106.01,367.11,108.765z
				 M364.173,108.765c0-2.189-0.429-3.816-1.286-4.882c-0.857-1.064-2.049-1.597-3.572-1.597c-1.544,0-2.742,0.532-3.595,1.597
				c-0.854,1.065-1.279,2.692-1.279,4.882c0,2.119,0.429,3.727,1.287,4.821c0.857,1.095,2.053,1.643,3.587,1.643
				c1.514,0,2.702-0.543,3.564-1.628C363.742,112.517,364.173,110.905,364.173,108.765z"/>
			<path fill="#FFFFFF" d="M385.652,117.211h-2.846v-9.627c0-0.777-0.045-1.506-0.136-2.188c-0.091-0.681-0.257-1.213-0.499-1.597
				c-0.253-0.424-0.616-0.739-1.09-0.946c-0.475-0.206-1.09-0.311-1.848-0.311c-0.776,0-1.589,0.192-2.437,0.576
				c-0.848,0.383-1.66,0.872-2.437,1.468v12.624h-2.846v-16.908h2.846v1.877c0.888-0.736,1.806-1.312,2.754-1.725
				c0.949-0.414,1.923-0.621,2.922-0.621c1.826,0,3.219,0.55,4.178,1.65c0.959,1.1,1.438,2.684,1.438,4.752V117.211z"/>
		</g>
		<line fill="none" stroke="#FFFFFF" stroke-width="3" x1="88.786" y1="129.177" x2="389.865" y2="129.177"/>
	</g>
	<g>
		<g>
			<g enable-background="new    ">
				<path fill="#FFFFFF" d="M183.093,171.836h-3.966l-9.089-10.035l-2.283,2.391v7.645h-3.056v-22.539h3.056v11.762l11.156-11.762
					h3.703l-10.262,10.596L183.093,171.836z"/>
				<path fill="#FFFFFF" d="M199.032,170.777c-0.968,0.454-1.886,0.808-2.755,1.06c-0.869,0.251-1.793,0.378-2.77,0.378
					c-1.245,0-2.387-0.18-3.426-0.538c-1.039-0.357-1.929-0.9-2.669-1.627c-0.751-0.727-1.333-1.645-1.744-2.755
					s-0.617-2.406-0.617-3.891c0-2.765,0.774-4.934,2.322-6.508s3.593-2.361,6.134-2.361c0.987,0,1.957,0.136,2.908,0.408
					c0.952,0.272,1.823,0.605,2.616,0.999v3.163h-0.154c-0.886-0.676-1.798-1.195-2.739-1.559s-1.859-0.545-2.755-0.545
					c-1.646,0-2.944,0.543-3.896,1.627c-0.952,1.085-1.428,2.677-1.428,4.775c0,2.039,0.466,3.605,1.396,4.7
					c0.931,1.096,2.24,1.643,3.927,1.643c0.587,0,1.184-0.075,1.79-0.228c0.607-0.15,1.152-0.348,1.636-0.59
					c0.422-0.212,0.818-0.437,1.188-0.674c0.37-0.236,0.663-0.441,0.88-0.613h0.154V170.777z"/>
				<path fill="#FFFFFF" d="M227.841,178.072h-2.901v-8.143c-0.895,0.757-1.785,1.319-2.669,1.688
					c-0.886,0.368-1.842,0.553-2.87,0.553c-2.048,0-3.681-0.775-4.899-2.324s-1.829-3.686-1.829-6.41
					c0-1.453,0.214-2.737,0.641-3.853s0.99-2.052,1.689-2.808c0.68-0.737,1.477-1.308,2.392-1.711
					c0.916-0.403,1.883-0.605,2.901-0.605c0.926,0,1.746,0.101,2.461,0.303s1.443,0.5,2.184,0.893l0.186-0.727h2.716V178.072z
					 M224.939,167.538v-9.566c-0.803-0.354-1.512-0.601-2.129-0.742c-0.617-0.141-1.286-0.211-2.007-0.211
					c-1.677,0-2.952,0.558-3.826,1.672c-0.875,1.115-1.312,2.651-1.312,4.609c0,1.978,0.353,3.499,1.057,4.563
					c0.705,1.065,1.813,1.597,3.325,1.597c0.844,0,1.688-0.179,2.531-0.537C223.422,168.565,224.209,168.103,224.939,167.538z"/>
				<path fill="#FFFFFF" d="M240.262,177.16h-7.113v-1.342h2.735v-8.807h-2.735v-1.2c0.371,0,0.768-0.031,1.191-0.093
					s0.744-0.151,0.962-0.269c0.271-0.147,0.484-0.334,0.64-0.561c0.156-0.227,0.246-0.531,0.27-0.914h1.367v11.843h2.684V177.16z"
					/>
				<path fill="#FFFFFF" d="M265.374,178.072h-2.901v-8.143c-0.895,0.757-1.785,1.319-2.669,1.688
					c-0.886,0.368-1.842,0.553-2.87,0.553c-2.048,0-3.681-0.775-4.899-2.324s-1.829-3.686-1.829-6.41
					c0-1.453,0.214-2.737,0.641-3.853s0.99-2.052,1.689-2.808c0.68-0.737,1.477-1.308,2.392-1.711
					c0.916-0.403,1.883-0.605,2.901-0.605c0.926,0,1.746,0.101,2.461,0.303s1.443,0.5,2.184,0.893l0.186-0.727h2.716V178.072z
					 M262.473,167.538v-9.566c-0.803-0.354-1.512-0.601-2.129-0.742c-0.617-0.141-1.286-0.211-2.007-0.211
					c-1.677,0-2.952,0.558-3.826,1.672c-0.875,1.115-1.312,2.651-1.312,4.609c0,1.978,0.353,3.499,1.057,4.563
					c0.705,1.065,1.813,1.597,3.325,1.597c0.844,0,1.688-0.179,2.531-0.537C260.955,168.565,261.742,168.103,262.473,167.538z"/>
				<path fill="#FFFFFF" d="M278.544,177.16h-8.896v-1.846c0.617-0.529,1.236-1.059,1.857-1.588s1.198-1.055,1.734-1.58
					c1.129-1.093,1.903-1.962,2.32-2.607c0.418-0.645,0.627-1.34,0.627-2.087c0-0.683-0.226-1.217-0.675-1.602
					c-0.45-0.386-1.078-0.578-1.885-0.578c-0.535,0-1.114,0.094-1.738,0.282c-0.623,0.188-1.232,0.477-1.826,0.865h-0.089v-1.854
					c0.418-0.206,0.976-0.395,1.673-0.564c0.697-0.171,1.372-0.256,2.025-0.256c1.347,0,2.402,0.324,3.168,0.975
					c0.765,0.65,1.146,1.531,1.146,2.643c0,0.501-0.063,0.967-0.189,1.399s-0.313,0.843-0.561,1.23
					c-0.229,0.365-0.498,0.724-0.808,1.077c-0.309,0.353-0.684,0.744-1.125,1.173c-0.629,0.617-1.279,1.217-1.95,1.797
					c-0.671,0.578-1.297,1.115-1.88,1.609h7.069V177.16z"/>
			</g>
			<g enable-background="new    ">
				<path fill="#FFFFFF" d="M211.146,204.031h-0.154c-0.432-0.1-0.852-0.174-1.258-0.219s-0.887-0.068-1.442-0.068
					c-0.895,0-1.759,0.195-2.592,0.582c-0.834,0.389-1.636,0.891-2.407,1.506v12.004h-2.901v-16.908h2.901v2.498
					c1.151-0.908,2.168-1.551,3.047-1.93c0.88-0.379,1.777-0.568,2.693-0.568c0.504,0,0.869,0.014,1.095,0.039
					c0.227,0.025,0.566,0.072,1.019,0.143V204.031z"/>
				<path fill="#FFFFFF" d="M227.039,223.16h-1.659v-5.613c0-0.424-0.019-0.832-0.057-1.227c-0.039-0.395-0.119-0.709-0.243-0.943
					c-0.136-0.254-0.329-0.445-0.582-0.574s-0.618-0.193-1.095-0.193c-0.465,0-0.93,0.115-1.395,0.348s-0.929,0.527-1.394,0.887
					c0.018,0.135,0.032,0.293,0.044,0.473s0.018,0.357,0.018,0.533v6.311h-1.659v-5.613c0-0.436-0.02-0.848-0.058-1.24
					c-0.038-0.391-0.119-0.703-0.242-0.939c-0.136-0.252-0.33-0.441-0.583-0.568s-0.617-0.189-1.094-0.189
					c-0.453,0-0.907,0.111-1.363,0.334c-0.456,0.225-0.911,0.51-1.363,0.857v7.359h-1.659v-9.857h1.659v1.094
					c0.518-0.43,1.033-0.764,1.549-1.006c0.515-0.24,1.063-0.361,1.646-0.361c0.671,0,1.239,0.141,1.707,0.424
					c0.468,0.281,0.816,0.674,1.046,1.174c0.671-0.566,1.282-0.973,1.836-1.223c0.553-0.25,1.144-0.375,1.773-0.375
					c1.083,0,1.881,0.328,2.396,0.984c0.515,0.654,0.771,1.572,0.771,2.748V223.16z"/>
				<path fill="#FFFFFF" d="M238.918,202.514h-8.896v-1.846c0.617-0.529,1.236-1.059,1.857-1.588s1.198-1.055,1.734-1.58
					c1.129-1.094,1.903-1.963,2.32-2.607c0.418-0.645,0.627-1.34,0.627-2.086c0-0.684-0.226-1.217-0.675-1.602
					c-0.45-0.387-1.078-0.578-1.885-0.578c-0.535,0-1.114,0.094-1.738,0.281c-0.623,0.189-1.232,0.477-1.826,0.865h-0.089v-1.854
					c0.418-0.205,0.976-0.395,1.673-0.564s1.372-0.256,2.025-0.256c1.347,0,2.402,0.324,3.168,0.975
					c0.765,0.65,1.146,1.531,1.146,2.643c0,0.502-0.063,0.967-0.189,1.4c-0.127,0.432-0.313,0.842-0.561,1.23
					c-0.229,0.365-0.498,0.723-0.808,1.076c-0.309,0.354-0.684,0.744-1.125,1.174c-0.629,0.617-1.279,1.217-1.95,1.797
					c-0.671,0.578-1.297,1.115-1.88,1.609h7.069V202.514z"/>
			</g>
		</g>
		<g>
			<path fill="#FFFFFF" d="M106.038,173.963H94.64v6.357h9.793v2.664H94.64v10.853h-2.997v-22.539h14.395V173.963z"/>
			<path fill="#FFFFFF" d="M115.353,198.543c-0.553,0.264-1.078,0.471-1.575,0.617c-0.498,0.146-1.025,0.221-1.584,0.221
				c-0.712,0-1.365-0.104-1.959-0.313c-0.594-0.208-1.103-0.524-1.526-0.948c-0.43-0.424-0.762-0.959-0.997-1.606
				c-0.235-0.647-0.353-1.403-0.353-2.269c0-1.611,0.442-2.876,1.328-3.794c0.885-0.918,2.055-1.376,3.508-1.376
				c0.564,0,1.119,0.078,1.663,0.238c0.544,0.158,1.043,0.352,1.496,0.582v1.844h-0.088c-0.506-0.394-1.028-0.697-1.566-0.908
				c-0.538-0.213-1.063-0.318-1.575-0.318c-0.941,0-1.684,0.316-2.228,0.949c-0.544,0.633-0.816,1.561-0.816,2.783
				c0,1.189,0.266,2.103,0.799,2.74c0.532,0.639,1.281,0.958,2.246,0.958c0.335,0,0.676-0.044,1.024-0.132
				c0.347-0.089,0.659-0.203,0.935-0.345c0.241-0.124,0.468-0.255,0.68-0.393s0.379-0.257,0.503-0.357h0.088V198.543z"/>
			<path fill="#FFFFFF" d="M148.406,182h-17.952v-2.422h17.952V182z M148.406,188.357h-17.952v-2.422h17.952V188.357z"/>
			<path fill="#FFFFFF" d="M182.782,184.378h-19.829v-1.816h19.829V184.378z"/>
			<path fill="#FFFFFF" d="M202.49,184.378h-19.829v-1.816h19.829V184.378z"/>
			<path fill="#FFFFFF" d="M222.198,184.378h-19.829v-1.816h19.829V184.378z"/>
			<path fill="#FFFFFF" d="M241.906,184.378h-19.829v-1.816h19.829V184.378z"/>
			<path fill="#FFFFFF" d="M261.614,184.378h-19.829v-1.816h19.829V184.378z"/>
			<path fill="#FFFFFF" d="M281.322,184.378h-19.829v-1.816h19.829V184.378z"/>
		</g>
	</g>
	<g>
		<g>
			<g enable-background="new    ">
				<path fill="#FFFFFF" d="M424.702,159.532h-0.154c-0.432-0.101-0.852-0.174-1.258-0.22c-0.406-0.045-0.887-0.067-1.442-0.067
					c-0.895,0-1.759,0.194-2.592,0.582c-0.834,0.389-1.636,0.891-2.407,1.506v12.003h-2.901v-16.908h2.901v2.498
					c1.151-0.908,2.168-1.552,3.047-1.93c0.88-0.379,1.777-0.568,2.693-0.568c0.504,0,0.869,0.014,1.095,0.038
					c0.227,0.025,0.566,0.073,1.019,0.144V159.532z"/>
			</g>
			<g enable-background="new    ">
				<path fill="#FFFFFF" d="M405.819,217.336h-12.437v-2.301h4.783V199.93h-4.783v-2.059c0.647,0,1.342-0.053,2.083-0.16
					c0.74-0.105,1.301-0.26,1.682-0.461c0.473-0.252,0.846-0.572,1.119-0.961c0.271-0.389,0.429-0.91,0.47-1.566h2.393v20.313h4.69
					V217.336z"/>
				<path fill="#FFFFFF" d="M427.19,206.059c0,4.047-0.646,7.018-1.937,8.908c-1.291,1.893-3.294,2.838-6.01,2.838
					c-2.757,0-4.771-0.957-6.041-2.875s-1.905-4.863-1.905-8.84c0-4.006,0.643-6.965,1.929-8.877
					c1.285-1.912,3.292-2.869,6.018-2.869c2.757,0,4.771,0.971,6.041,2.914S427.19,202.135,427.19,206.059z M423.133,212.932
					c0.359-0.818,0.604-1.779,0.732-2.883c0.129-1.105,0.193-2.436,0.193-3.99c0-1.533-0.064-2.865-0.193-3.996
					c-0.128-1.129-0.378-2.088-0.748-2.875c-0.36-0.777-0.852-1.363-1.474-1.756c-0.622-0.395-1.422-0.59-2.399-0.59
					c-0.967,0-1.767,0.195-2.399,0.59c-0.633,0.393-1.134,0.988-1.505,1.785c-0.35,0.748-0.589,1.721-0.717,2.922
					c-0.129,1.201-0.193,2.518-0.193,3.951c0,1.574,0.057,2.891,0.17,3.951c0.113,1.059,0.354,2.008,0.726,2.846
					c0.339,0.787,0.82,1.387,1.442,1.801s1.448,0.621,2.477,0.621c0.967,0,1.77-0.197,2.407-0.592
					C422.289,214.324,422.783,213.729,423.133,212.932z"/>
				<path fill="#FFFFFF" d="M447.28,206.059c0,4.047-0.646,7.018-1.937,8.908c-1.291,1.893-3.294,2.838-6.01,2.838
					c-2.757,0-4.771-0.957-6.041-2.875s-1.905-4.863-1.905-8.84c0-4.006,0.643-6.965,1.929-8.877
					c1.285-1.912,3.292-2.869,6.018-2.869c2.757,0,4.771,0.971,6.041,2.914S447.28,202.135,447.28,206.059z M443.223,212.932
					c0.359-0.818,0.604-1.779,0.732-2.883c0.129-1.105,0.193-2.436,0.193-3.99c0-1.533-0.064-2.865-0.193-3.996
					c-0.128-1.129-0.378-2.088-0.748-2.875c-0.36-0.777-0.852-1.363-1.474-1.756c-0.622-0.395-1.422-0.59-2.399-0.59
					c-0.967,0-1.767,0.195-2.399,0.59c-0.633,0.393-1.134,0.988-1.505,1.785c-0.35,0.748-0.589,1.721-0.717,2.922
					c-0.129,1.201-0.193,2.518-0.193,3.951c0,1.574,0.057,2.891,0.17,3.951c0.113,1.059,0.354,2.008,0.726,2.846
					c0.339,0.787,0.82,1.387,1.442,1.801s1.448,0.621,2.477,0.621c0.967,0,1.77-0.197,2.407-0.592
					C442.379,214.324,442.873,213.729,443.223,212.932z"/>
			</g>
		</g>
		<g>
			<path fill="#FFFFFF" d="M297.875,189.023l-4.269,9.914h-2.21l2.634-9.914H297.875z"/>
			<path fill="#FFFFFF" d="M324.698,179.532h-0.151c-0.424-0.101-0.835-0.174-1.233-0.22c-0.399-0.045-0.871-0.068-1.416-0.068
				c-0.878,0-1.726,0.195-2.543,0.583c-0.817,0.389-1.604,0.892-2.361,1.507v12.003h-2.846V176.43h2.846v2.497
				c1.13-0.908,2.126-1.552,2.99-1.93c0.862-0.379,1.743-0.567,2.641-0.567c0.494,0,0.853,0.012,1.075,0.037
				c0.222,0.025,0.555,0.074,0.999,0.145V179.532z"/>
			<path fill="#FFFFFF" d="M340.593,198.66h-1.659v-5.612c0-0.424-0.019-0.833-0.058-1.228c-0.038-0.394-0.119-0.708-0.243-0.943
				c-0.135-0.253-0.33-0.444-0.583-0.574c-0.253-0.129-0.618-0.193-1.094-0.193c-0.465,0-0.929,0.115-1.394,0.348
				s-0.93,0.529-1.395,0.887c0.018,0.137,0.032,0.293,0.044,0.473c0.012,0.18,0.018,0.357,0.018,0.534v6.31h-1.659v-5.612
				c0-0.436-0.019-0.849-0.057-1.24c-0.039-0.392-0.119-0.704-0.243-0.939c-0.136-0.253-0.33-0.442-0.583-0.569
				s-0.618-0.189-1.094-0.189c-0.453,0-0.908,0.111-1.363,0.335c-0.456,0.224-0.911,0.509-1.364,0.856v7.359h-1.659v-9.857h1.659
				v1.095c0.518-0.43,1.034-0.765,1.549-1.007c0.515-0.24,1.063-0.361,1.646-0.361c0.67,0,1.24,0.141,1.708,0.424
				c0.468,0.282,0.816,0.674,1.045,1.174c0.671-0.564,1.283-0.973,1.836-1.223c0.553-0.25,1.144-0.375,1.773-0.375
				c1.083,0,1.881,0.328,2.396,0.984s0.772,1.572,0.772,2.748V198.66z"/>
			<path fill="#FFFFFF" d="M374.714,181.5h-17.952v-2.422h17.952V181.5z M374.714,187.857h-17.952v-2.422h17.952V187.857z"/>
			<path fill="#FFFFFF" d="M409.09,183.878h-19.829v-1.816h19.829V183.878z"/>
			<path fill="#FFFFFF" d="M428.798,183.878h-19.829v-1.816h19.829V183.878z"/>
			<path fill="#FFFFFF" d="M448.506,183.878h-19.829v-1.816h19.829V183.878z"/>
			<path fill="#FFFFFF" d="M481.004,181.5h-17.951v-2.422h17.951V181.5z M481.004,187.857h-17.951v-2.422h17.951V187.857z"/>
			<path fill="#FFFFFF" d="M510.914,192.277c-0.948,0.454-1.849,0.808-2.701,1.06c-0.854,0.252-1.759,0.378-2.717,0.378
				c-1.222,0-2.342-0.179-3.361-0.537c-1.02-0.357-1.892-0.9-2.618-1.627c-0.737-0.727-1.308-1.645-1.71-2.755
				c-0.404-1.11-0.605-2.407-0.605-3.89c0-2.766,0.759-4.936,2.277-6.51c1.52-1.574,3.524-2.361,6.018-2.361
				c0.969,0,1.92,0.137,2.853,0.409c0.934,0.272,1.788,0.605,2.565,0.999v3.164h-0.15c-0.869-0.676-1.764-1.196-2.688-1.56
				c-0.923-0.363-1.824-0.545-2.701-0.545c-1.615,0-2.889,0.542-3.822,1.627s-1.4,2.677-1.4,4.776c0,2.038,0.457,3.604,1.37,4.699
				c0.913,1.096,2.196,1.643,3.853,1.643c0.574,0,1.16-0.076,1.756-0.227c0.595-0.152,1.129-0.349,1.604-0.591
				c0.414-0.212,0.803-0.437,1.166-0.674s0.65-0.44,0.863-0.612h0.15V192.277z"/>
			<path fill="#FFFFFF" d="M528.973,184.891c0,2.755-0.707,4.93-2.119,6.523c-1.413,1.596-3.305,2.393-5.676,2.393
				c-2.393,0-4.291-0.797-5.699-2.393c-1.408-1.594-2.111-3.769-2.111-6.523s0.703-4.932,2.111-6.531s3.307-2.399,5.699-2.399
				c2.371,0,4.263,0.8,5.676,2.399C528.266,179.959,528.973,182.136,528.973,184.891z M526.036,184.891
				c0-2.189-0.429-3.816-1.286-4.882c-0.858-1.064-2.049-1.597-3.572-1.597c-1.545,0-2.742,0.532-3.596,1.597
				c-0.853,1.065-1.279,2.692-1.279,4.882c0,2.119,0.43,3.727,1.287,4.821s2.053,1.642,3.588,1.642c1.514,0,2.701-0.542,3.564-1.627
				C525.605,188.643,526.036,187.03,526.036,184.891z"/>
			<path fill="#FFFFFF" d="M547.516,193.337h-2.846v-9.627c0-0.776-0.046-1.506-0.137-2.188c-0.091-0.681-0.258-1.213-0.5-1.597
				c-0.252-0.424-0.615-0.739-1.09-0.946c-0.475-0.206-1.09-0.31-1.846-0.31c-0.777,0-1.59,0.191-2.438,0.574
				c-0.848,0.385-1.66,0.873-2.438,1.469v12.624h-2.846V176.43h2.846v1.877c0.889-0.736,1.807-1.313,2.756-1.727
				c0.947-0.413,1.922-0.62,2.921-0.62c1.826,0,3.219,0.55,4.178,1.649c0.958,1.101,1.438,2.686,1.438,4.754V193.337z"/>
			<path fill="#FFFFFF" d="M567.314,176.43l-6.842,16.907h-2.861l-6.797-16.907h3.088l5.238,13.456l5.191-13.456H567.314z"/>
			<path fill="#FFFFFF" d="M584.918,185.178h-12.457c0,1.04,0.156,1.945,0.469,2.718c0.313,0.771,0.742,1.405,1.287,1.899
				c0.523,0.484,1.147,0.848,1.869,1.09c0.721,0.242,1.516,0.363,2.384,0.363c1.15,0,2.309-0.229,3.474-0.688
				c1.166-0.46,1.996-0.911,2.49-1.354h0.151v3.103c-0.959,0.403-1.938,0.741-2.937,1.015c-0.999,0.271-2.049,0.408-3.148,0.408
				c-2.806,0-4.995-0.76-6.569-2.278s-2.361-3.675-2.361-6.471c0-2.765,0.755-4.96,2.263-6.585c1.509-1.624,3.494-2.437,5.957-2.437
				c2.279,0,4.039,0.666,5.274,1.998c1.236,1.332,1.854,3.224,1.854,5.677V185.178z M582.148,182.998
				c-0.011-1.492-0.387-2.648-1.128-3.466c-0.742-0.817-1.87-1.226-3.384-1.226c-1.523,0-2.736,0.449-3.64,1.347
				c-0.903,0.898-1.415,2.013-1.536,3.345H582.148z"/>
			<path fill="#FFFFFF" d="M599.782,179.532h-0.151c-0.424-0.101-0.835-0.174-1.233-0.22c-0.399-0.045-0.87-0.068-1.415-0.068
				c-0.879,0-1.727,0.195-2.543,0.583c-0.818,0.389-1.605,0.892-2.361,1.507v12.003h-2.846V176.43h2.846v2.497
				c1.129-0.908,2.126-1.552,2.989-1.93c0.862-0.379,1.743-0.567,2.642-0.567c0.494,0,0.852,0.012,1.074,0.037
				c0.222,0.025,0.555,0.074,0.999,0.145V179.532z"/>
			<path fill="#FFFFFF" d="M611.24,193.186c-0.535,0.142-1.117,0.258-1.748,0.348c-0.631,0.092-1.193,0.137-1.688,0.137
				c-1.726,0-3.037-0.464-3.936-1.393c-0.898-0.928-1.348-2.416-1.348-4.465v-8.992H600.6v-2.391h1.922v-4.859h2.846v4.859h5.873
				v2.391h-5.873v7.705c0,0.889,0.021,1.582,0.061,2.081c0.041,0.5,0.182,0.967,0.424,1.4c0.223,0.403,0.527,0.698,0.916,0.886
				c0.389,0.187,0.981,0.279,1.779,0.279c0.463,0,0.947-0.067,1.453-0.204c0.504-0.136,0.867-0.249,1.09-0.341h0.15V193.186z"/>
			<path fill="#FFFFFF" d="M634.354,193.186c-0.535,0.142-1.118,0.258-1.749,0.348c-0.63,0.092-1.193,0.137-1.688,0.137
				c-1.725,0-3.037-0.464-3.936-1.393c-0.898-0.928-1.347-2.416-1.347-4.465v-8.992h-1.923v-2.391h1.923v-4.859h2.846v4.859h5.873
				v2.391h-5.873v7.705c0,0.889,0.021,1.582,0.061,2.081c0.04,0.5,0.182,0.967,0.424,1.4c0.222,0.403,0.527,0.698,0.915,0.886
				c0.389,0.187,0.982,0.279,1.779,0.279c0.464,0,0.948-0.067,1.453-0.204c0.504-0.136,0.867-0.249,1.09-0.341h0.151V193.186z"/>
			<path fill="#FFFFFF" d="M652.201,184.891c0,2.755-0.707,4.93-2.119,6.523c-1.414,1.596-3.306,2.393-5.677,2.393
				c-2.392,0-4.291-0.797-5.699-2.393c-1.407-1.594-2.111-3.769-2.111-6.523s0.704-4.932,2.111-6.531
				c1.408-1.6,3.308-2.399,5.699-2.399c2.371,0,4.263,0.8,5.677,2.399C651.494,179.959,652.201,182.136,652.201,184.891z
				 M649.264,184.891c0-2.189-0.429-3.816-1.286-4.882c-0.858-1.064-2.049-1.597-3.572-1.597c-1.544,0-2.742,0.532-3.595,1.597
				c-0.854,1.065-1.279,2.692-1.279,4.882c0,2.119,0.429,3.727,1.287,4.821c0.857,1.095,2.053,1.642,3.587,1.642
				c1.514,0,2.702-0.542,3.564-1.627C648.833,188.643,649.264,187.03,649.264,184.891z"/>
			<path fill="#FFFFFF" d="M692.177,193.337h-2.846v-9.627c0-0.727-0.032-1.428-0.099-2.104c-0.065-0.676-0.204-1.215-0.416-1.619
				c-0.232-0.434-0.565-0.762-0.999-0.984c-0.435-0.221-1.06-0.332-1.877-0.332c-0.798,0-1.595,0.199-2.392,0.598
				s-1.595,0.906-2.392,1.521c0.03,0.232,0.056,0.502,0.075,0.81c0.021,0.308,0.031,0.612,0.031,0.915v10.823h-2.846v-9.627
				c0-0.747-0.033-1.456-0.1-2.127c-0.064-0.671-0.203-1.208-0.416-1.612c-0.232-0.434-0.564-0.759-0.998-0.976
				c-0.435-0.218-1.061-0.325-1.877-0.325c-0.777,0-1.557,0.191-2.34,0.574c-0.781,0.385-1.561,0.873-2.338,1.469v12.624h-2.846
				V176.43h2.846v1.877c0.888-0.736,1.773-1.313,2.656-1.727c0.883-0.413,1.824-0.62,2.823-0.62c1.15,0,2.126,0.242,2.929,0.727
				s1.4,1.155,1.794,2.013c1.15-0.969,2.2-1.667,3.148-2.096c0.948-0.43,1.962-0.644,3.042-0.644c1.857,0,3.227,0.563,4.109,1.688
				c0.884,1.126,1.325,2.697,1.325,4.716V193.337z"/>
			<path fill="#FFFFFF" d="M711.809,185.178h-12.457c0,1.04,0.156,1.945,0.469,2.718c0.313,0.771,0.742,1.405,1.287,1.899
				c0.524,0.484,1.148,0.848,1.869,1.09c0.722,0.242,1.516,0.363,2.385,0.363c1.15,0,2.309-0.229,3.473-0.688
				c1.166-0.46,1.996-0.911,2.49-1.354h0.152v3.103c-0.959,0.403-1.938,0.741-2.938,1.015c-0.998,0.271-2.049,0.408-3.148,0.408
				c-2.805,0-4.994-0.76-6.568-2.278s-2.361-3.675-2.361-6.471c0-2.765,0.754-4.96,2.262-6.585c1.51-1.624,3.494-2.437,5.957-2.437
				c2.28,0,4.039,0.666,5.275,1.998s1.854,3.224,1.854,5.677V185.178z M709.039,182.998c-0.01-1.492-0.387-2.648-1.127-3.466
				c-0.742-0.817-1.87-1.226-3.384-1.226c-1.524,0-2.737,0.449-3.64,1.347c-0.904,0.898-1.416,2.013-1.537,3.345H709.039z"/>
			<path fill="#FFFFFF" d="M724.902,193.186c-0.535,0.142-1.117,0.258-1.748,0.348c-0.631,0.092-1.193,0.137-1.688,0.137
				c-1.727,0-3.038-0.464-3.936-1.393c-0.898-0.928-1.348-2.416-1.348-4.465v-8.992h-1.922v-2.391h1.922v-4.859h2.846v4.859h5.873
				v2.391h-5.873v7.705c0,0.889,0.02,1.582,0.061,2.081c0.04,0.5,0.182,0.967,0.424,1.4c0.222,0.403,0.527,0.698,0.916,0.886
				c0.389,0.187,0.98,0.279,1.778,0.279c0.464,0,0.948-0.067,1.453-0.204c0.505-0.136,0.868-0.249,1.09-0.341h0.151V193.186z"/>
			<path fill="#FFFFFF" d="M742.491,185.178h-12.458c0,1.04,0.156,1.945,0.47,2.718c0.313,0.771,0.741,1.405,1.286,1.899
				c0.525,0.484,1.148,0.848,1.87,1.09s1.516,0.363,2.384,0.363c1.15,0,2.309-0.229,3.474-0.688c1.166-0.46,1.995-0.911,2.49-1.354
				h0.151v3.103c-0.959,0.403-1.938,0.741-2.937,1.015c-0.999,0.271-2.049,0.408-3.148,0.408c-2.806,0-4.995-0.76-6.569-2.278
				s-2.361-3.675-2.361-6.471c0-2.765,0.754-4.96,2.263-6.585c1.509-1.624,3.494-2.437,5.956-2.437c2.281,0,4.039,0.666,5.275,1.998
				s1.854,3.224,1.854,5.677V185.178z M739.721,182.998c-0.01-1.492-0.386-2.648-1.127-3.466c-0.742-0.817-1.869-1.226-3.383-1.226
				c-1.524,0-2.738,0.449-3.641,1.347c-0.903,0.898-1.416,2.013-1.537,3.345H739.721z"/>
			<path fill="#FFFFFF" d="M757.355,179.532h-0.151c-0.424-0.101-0.835-0.174-1.233-0.22c-0.398-0.045-0.871-0.068-1.416-0.068
				c-0.877,0-1.725,0.195-2.543,0.583c-0.816,0.389-1.604,0.892-2.361,1.507v12.003h-2.846V176.43h2.846v2.497
				c1.131-0.908,2.127-1.552,2.99-1.93c0.862-0.379,1.742-0.567,2.641-0.567c0.494,0,0.854,0.012,1.075,0.037
				s0.555,0.074,0.999,0.145V179.532z"/>
			<path fill="#FFFFFF" d="M772.113,188.463c0,1.544-0.638,2.811-1.914,3.799c-1.277,0.99-3.02,1.484-5.23,1.484
				c-1.251,0-2.398-0.149-3.443-0.447c-1.044-0.297-1.92-0.623-2.626-0.977v-3.193h0.151c0.898,0.676,1.896,1.213,2.997,1.612
				c1.1,0.398,2.154,0.598,3.163,0.598c1.252,0,2.23-0.202,2.938-0.605c0.705-0.403,1.059-1.039,1.059-1.907
				c0-0.666-0.191-1.17-0.574-1.514c-0.385-0.343-1.121-0.636-2.211-0.878c-0.403-0.091-0.931-0.196-1.581-0.317
				c-0.651-0.121-1.244-0.252-1.778-0.395c-1.484-0.393-2.536-0.971-3.156-1.732c-0.621-0.762-0.932-1.697-0.932-2.809
				c0-0.695,0.145-1.352,0.432-1.967c0.288-0.615,0.725-1.166,1.31-1.65c0.565-0.475,1.284-0.85,2.157-1.128
				c0.873-0.277,1.849-0.416,2.929-0.416c1.009,0,2.03,0.124,3.065,0.371c1.034,0.247,1.895,0.548,2.58,0.9v3.042h-0.15
				c-0.727-0.534-1.61-0.986-2.649-1.354c-1.04-0.368-2.059-0.552-3.058-0.552c-1.039,0-1.918,0.199-2.634,0.598
				c-0.717,0.398-1.075,0.991-1.075,1.778c0,0.696,0.217,1.222,0.651,1.574c0.424,0.354,1.11,0.642,2.059,0.862
				c0.524,0.121,1.112,0.242,1.764,0.363c0.65,0.121,1.192,0.232,1.627,0.334c1.321,0.303,2.341,0.822,3.058,1.559
				C771.756,186.243,772.113,187.232,772.113,188.463z"/>
		</g>
	</g>
</g>
</svg>
