<?xml version="1.0" encoding="utf-8"?>
<!-- Generator: Adobe Illustrator 16.0.0, SVG Export Plug-In . SVG Version: 6.00 Build 0)  -->
<!DOCTYPE svg PUBLIC "-//W3C//DTD SVG 1.1//EN" "http://www.w3.org/Graphics/SVG/1.1/DTD/svg11.dtd">
<svg version="1.1" id="Layer_3" xmlns="http://www.w3.org/2000/svg" xmlns:xlink="http://www.w3.org/1999/xlink" x="0px" y="0px"
	 width="864px" height="406px" viewBox="0 0 864 406" enable-background="new 0 0 864 406" xml:space="preserve">
<path fill="#291159" fill-opacity="0.8" stroke="#FFFFFF" stroke-width="3" stroke-miterlimit="10" d="M864,398.761
	c0,3.998-3.893,7.239-8.699,7.239H8.699C3.895,406,0,402.759,0,398.761V7.238C0,3.238,3.896,0,8.699,0h846.602
	C860.108,0,864,3.238,864,7.238V398.761L864,398.761z"/>
<g>
	<g enable-background="new    ">
		<path fill="#FFFFFF" d="M303.883,69.81c-0.555,0.242-1.057,0.469-1.506,0.682c-0.449,0.211-1.037,0.434-1.764,0.666
			c-0.616,0.191-1.284,0.355-2.006,0.491c-0.721,0.137-1.516,0.204-2.384,0.204c-1.635,0-3.121-0.229-4.458-0.688
			c-1.337-0.459-2.5-1.178-3.489-2.157c-0.969-0.958-1.726-2.177-2.271-3.655c-0.545-1.478-0.817-3.196-0.817-5.153
			c0-1.857,0.262-3.518,0.787-4.98c0.524-1.463,1.281-2.699,2.271-3.709c0.958-0.979,2.117-1.725,3.474-2.24
			c1.357-0.514,2.863-0.771,4.518-0.771c1.211,0,2.419,0.146,3.625,0.439c1.206,0.292,2.545,0.807,4.019,1.543v3.558h-0.227
			c-1.241-1.039-2.473-1.796-3.693-2.271c-1.221-0.475-2.528-0.711-3.92-0.711c-1.141,0-2.167,0.184-3.08,0.552
			c-0.914,0.369-1.729,0.941-2.445,1.718c-0.696,0.758-1.239,1.714-1.627,2.869c-0.388,1.155-0.583,2.49-0.583,4.004
			c0,1.584,0.214,2.946,0.643,4.086c0.429,1.141,0.981,2.069,1.658,2.785c0.706,0.747,1.531,1.3,2.475,1.658
			c0.943,0.358,1.939,0.537,2.989,0.537c1.443,0,2.795-0.247,4.057-0.742c1.261-0.494,2.442-1.235,3.542-2.225h0.212V69.81z"/>
		<path fill="#FFFFFF" d="M322.305,62.999c0,2.755-0.707,4.93-2.119,6.524c-1.413,1.594-3.305,2.391-5.676,2.391
			c-2.392,0-4.291-0.797-5.699-2.391c-1.407-1.595-2.111-3.77-2.111-6.524s0.704-4.932,2.111-6.531
			c1.408-1.6,3.308-2.399,5.699-2.399c2.371,0,4.263,0.8,5.676,2.399C321.598,58.067,322.305,60.244,322.305,62.999z
			 M319.368,62.999c0-2.189-0.429-3.816-1.287-4.882c-0.858-1.064-2.049-1.597-3.572-1.597c-1.544,0-2.742,0.532-3.595,1.597
			c-0.853,1.065-1.279,2.692-1.279,4.882c0,2.119,0.429,3.727,1.287,4.821c0.857,1.095,2.053,1.643,3.587,1.643
			c1.514,0,2.702-0.543,3.564-1.628C318.937,66.75,319.368,65.138,319.368,62.999z"/>
		<path fill="#FFFFFF" d="M340.726,71.445h-2.846v-1.877c-0.959,0.757-1.877,1.337-2.754,1.74c-0.879,0.404-1.848,0.605-2.907,0.605
			c-1.776,0-3.159-0.542-4.147-1.627c-0.989-1.084-1.483-2.677-1.483-4.775V54.537h2.846v9.627c0,0.858,0.04,1.593,0.121,2.203
			c0.081,0.61,0.252,1.133,0.515,1.566c0.272,0.444,0.625,0.767,1.06,0.969c0.434,0.202,1.064,0.303,1.892,0.303
			c0.736,0,1.541-0.191,2.414-0.575s1.689-0.873,2.445-1.468V54.537h2.846V71.445z"/>
		<path fill="#FFFFFF" d="M349.203,71.445h-2.846V47.892h2.846V71.445z"/>
		<path fill="#FFFFFF" d="M369.244,62.999c0,2.755-0.707,4.93-2.119,6.524c-1.413,1.594-3.306,2.391-5.677,2.391
			c-2.392,0-4.291-0.797-5.699-2.391c-1.407-1.595-2.111-3.77-2.111-6.524s0.704-4.932,2.111-6.531
			c1.408-1.6,3.308-2.399,5.699-2.399c2.371,0,4.264,0.8,5.677,2.399C368.537,58.067,369.244,60.244,369.244,62.999z
			 M366.306,62.999c0-2.189-0.429-3.816-1.286-4.882c-0.857-1.064-2.049-1.597-3.572-1.597c-1.544,0-2.742,0.532-3.595,1.597
			c-0.854,1.065-1.279,2.692-1.279,4.882c0,2.119,0.429,3.727,1.287,4.821c0.857,1.095,2.053,1.643,3.587,1.643
			c1.514,0,2.702-0.543,3.564-1.628C365.875,66.75,366.306,65.138,366.306,62.999z"/>
		<path fill="#FFFFFF" d="M398.321,71.445h-2.846v-9.627c0-0.727-0.032-1.428-0.098-2.104c-0.066-0.677-0.205-1.217-0.416-1.62
			c-0.232-0.434-0.565-0.762-1-0.983c-0.434-0.223-1.059-0.334-1.877-0.334c-0.797,0-1.594,0.2-2.391,0.599
			c-0.798,0.398-1.595,0.905-2.393,1.521c0.031,0.232,0.056,0.503,0.076,0.811s0.03,0.613,0.03,0.916v10.822h-2.846v-9.627
			c0-0.747-0.033-1.455-0.099-2.127c-0.065-0.671-0.204-1.208-0.416-1.611c-0.232-0.435-0.565-0.76-0.999-0.977
			s-1.06-0.326-1.877-0.326c-0.777,0-1.557,0.192-2.339,0.576c-0.782,0.383-1.562,0.872-2.338,1.468v12.624h-2.846V54.537h2.846
			v1.877c0.888-0.736,1.772-1.312,2.656-1.725c0.883-0.414,1.824-0.621,2.822-0.621c1.15,0,2.127,0.242,2.93,0.727
			c0.802,0.484,1.4,1.155,1.793,2.014c1.15-0.969,2.2-1.668,3.148-2.097c0.949-0.429,1.963-0.644,3.043-0.644
			c1.856,0,3.227,0.563,4.109,1.688c0.883,1.126,1.324,2.697,1.324,4.715V71.445z"/>
		<path fill="#FFFFFF" d="M418.68,62.863c0,1.412-0.199,2.684-0.598,3.814c-0.399,1.13-0.937,2.078-1.612,2.846
			c-0.717,0.797-1.504,1.395-2.361,1.793s-1.802,0.598-2.831,0.598c-0.958,0-1.796-0.113-2.512-0.34
			c-0.717-0.228-1.424-0.532-2.119-0.916l-0.182,0.787h-2.664V47.892h2.846v8.416c0.797-0.656,1.645-1.193,2.543-1.612
			c0.897-0.418,1.906-0.628,3.027-0.628c1.998,0,3.574,0.767,4.729,2.301S418.68,60.067,418.68,62.863z M415.744,62.938
			c0-2.019-0.333-3.55-0.999-4.594c-0.666-1.045-1.74-1.567-3.225-1.567c-0.827,0-1.664,0.18-2.512,0.538s-1.635,0.819-2.361,1.385
			v9.688c0.807,0.363,1.5,0.615,2.081,0.757c0.58,0.142,1.238,0.212,1.976,0.212c1.574,0,2.808-0.517,3.7-1.552
			C415.297,66.77,415.744,65.148,415.744,62.938z"/>
		<path fill="#FFFFFF" d="M452.889,71.445h-3.891l-7.537-8.961h-4.223v8.961h-2.998V48.906h6.313c1.361,0,2.498,0.089,3.406,0.266
			s1.725,0.492,2.451,0.945c0.818,0.516,1.455,1.164,1.916,1.945c0.459,0.782,0.688,1.773,0.688,2.975
			c0,1.625-0.408,2.984-1.227,4.079c-0.816,1.096-1.941,1.92-3.375,2.476L452.889,71.445z M445.881,55.249
			c0-0.646-0.113-1.219-0.34-1.718c-0.229-0.5-0.604-0.921-1.129-1.264c-0.434-0.293-0.947-0.497-1.543-0.613
			s-1.297-0.174-2.105-0.174h-3.525v8.506h3.027c0.947,0,1.775-0.083,2.482-0.249c0.705-0.167,1.307-0.478,1.801-0.931
			c0.453-0.424,0.789-0.911,1.006-1.461S445.881,56.096,445.881,55.249z"/>
		<path fill="#FFFFFF" d="M468.965,63.287h-12.457c0,1.039,0.156,1.944,0.469,2.717c0.313,0.771,0.742,1.405,1.287,1.899
			c0.523,0.484,1.146,0.848,1.869,1.09c0.721,0.242,1.516,0.363,2.383,0.363c1.15,0,2.309-0.229,3.475-0.688s1.996-0.911,2.49-1.355
			h0.15v3.104c-0.959,0.403-1.938,0.742-2.936,1.014c-1,0.273-2.049,0.409-3.148,0.409c-2.807,0-4.996-0.759-6.57-2.278
			c-1.574-1.519-2.361-3.676-2.361-6.471c0-2.765,0.754-4.96,2.264-6.584c1.508-1.625,3.494-2.438,5.957-2.438
			c2.279,0,4.037,0.666,5.273,1.998s1.855,3.225,1.855,5.676V63.287z M466.195,61.107c-0.012-1.494-0.387-2.649-1.129-3.467
			s-1.869-1.227-3.383-1.227c-1.523,0-2.738,0.449-3.641,1.348s-1.414,2.014-1.535,3.346H466.195z"/>
		<path fill="#FFFFFF" d="M488.158,62.787c0,1.372-0.197,2.626-0.59,3.762c-0.395,1.135-0.949,2.096-1.666,2.883
			c-0.666,0.747-1.451,1.325-2.354,1.733c-0.904,0.409-1.859,0.613-2.869,0.613c-0.877,0-1.672-0.096-2.383-0.288
			c-0.713-0.191-1.436-0.489-2.172-0.893v7.084h-2.846V54.537h2.846v1.771c0.756-0.636,1.605-1.168,2.549-1.597
			s1.951-0.644,3.021-0.644c2.037,0,3.625,0.77,4.76,2.309S488.158,60.052,488.158,62.787z M485.221,62.863
			c0-2.039-0.348-3.563-1.043-4.572c-0.697-1.009-1.768-1.514-3.209-1.514c-0.818,0-1.641,0.177-2.469,0.53
			c-0.826,0.354-1.619,0.817-2.375,1.393v9.581c0.807,0.363,1.5,0.611,2.08,0.742s1.238,0.197,1.977,0.197
			c1.584,0,2.82-0.535,3.707-1.605C484.777,66.545,485.221,64.961,485.221,62.863z"/>
		<path fill="#FFFFFF" d="M495.469,71.445h-2.846V47.892h2.846V71.445z"/>
		<path fill="#FFFFFF" d="M515.115,71.445h-2.846v-1.877c-0.957,0.757-1.877,1.337-2.754,1.74c-0.879,0.404-1.848,0.605-2.906,0.605
			c-1.775,0-3.158-0.542-4.148-1.627c-0.988-1.084-1.482-2.677-1.482-4.775V54.537h2.846v9.627c0,0.858,0.041,1.593,0.121,2.203
			s0.252,1.133,0.514,1.566c0.273,0.444,0.627,0.767,1.061,0.969s1.064,0.303,1.893,0.303c0.736,0,1.541-0.191,2.414-0.575
			s1.688-0.873,2.443-1.468V54.537h2.846V71.445z"/>
		<path fill="#FFFFFF" d="M532.795,66.571c0,1.544-0.637,2.811-1.914,3.8c-1.277,0.988-3.02,1.482-5.23,1.482
			c-1.25,0-2.398-0.148-3.443-0.446c-1.043-0.297-1.92-0.623-2.625-0.976v-3.194h0.15c0.898,0.676,1.898,1.214,2.998,1.612
			s2.154,0.598,3.162,0.598c1.252,0,2.23-0.202,2.938-0.605s1.059-1.039,1.059-1.907c0-0.666-0.191-1.171-0.574-1.514
			s-1.121-0.636-2.211-0.878c-0.402-0.091-0.93-0.197-1.58-0.318c-0.652-0.121-1.244-0.252-1.779-0.393
			c-1.484-0.395-2.535-0.972-3.156-1.733s-0.932-1.698-0.932-2.808c0-0.697,0.145-1.353,0.432-1.969
			c0.289-0.615,0.725-1.165,1.311-1.649c0.564-0.475,1.283-0.85,2.156-1.128c0.873-0.277,1.85-0.416,2.93-0.416
			c1.008,0,2.029,0.124,3.064,0.371s1.895,0.547,2.58,0.9v3.043h-0.15c-0.727-0.535-1.609-0.986-2.648-1.355
			c-1.039-0.368-2.059-0.553-3.059-0.553c-1.039,0-1.916,0.2-2.633,0.599s-1.076,0.991-1.076,1.778c0,0.696,0.219,1.221,0.652,1.574
			c0.424,0.354,1.109,0.641,2.059,0.863c0.523,0.121,1.111,0.242,1.764,0.363c0.65,0.121,1.193,0.231,1.627,0.332
			c1.322,0.303,2.34,0.823,3.057,1.56C532.438,64.351,532.795,65.339,532.795,66.571z"/>
		<path fill="#FFFFFF" d="M539.926,51.707h-3.209v-2.951h3.209V51.707z M539.744,71.445h-2.846V54.537h2.846V71.445z"/>
		<path fill="#FFFFFF" d="M559.785,62.999c0,2.755-0.707,4.93-2.119,6.524c-1.414,1.594-3.307,2.391-5.678,2.391
			c-2.391,0-4.291-0.797-5.699-2.391c-1.406-1.595-2.111-3.77-2.111-6.524s0.705-4.932,2.111-6.531
			c1.408-1.6,3.309-2.399,5.699-2.399c2.371,0,4.264,0.8,5.678,2.399C559.078,58.067,559.785,60.244,559.785,62.999z
			 M556.848,62.999c0-2.189-0.43-3.816-1.287-4.882c-0.857-1.064-2.049-1.597-3.572-1.597c-1.543,0-2.742,0.532-3.594,1.597
			c-0.854,1.065-1.279,2.692-1.279,4.882c0,2.119,0.428,3.727,1.287,4.821c0.857,1.095,2.053,1.643,3.586,1.643
			c1.514,0,2.703-0.543,3.564-1.628C556.416,66.75,556.848,65.138,556.848,62.999z"/>
		<path fill="#FFFFFF" d="M578.326,71.445h-2.846v-9.627c0-0.777-0.045-1.506-0.135-2.188c-0.092-0.681-0.258-1.213-0.5-1.597
			c-0.252-0.424-0.615-0.739-1.09-0.946c-0.475-0.206-1.09-0.311-1.848-0.311c-0.775,0-1.588,0.192-2.436,0.576
			c-0.848,0.383-1.66,0.872-2.438,1.468v12.624h-2.846V54.537h2.846v1.877c0.889-0.736,1.807-1.312,2.754-1.725
			c0.949-0.414,1.924-0.621,2.922-0.621c1.826,0,3.219,0.55,4.178,1.65c0.959,1.1,1.438,2.684,1.438,4.752V71.445z"/>
	</g>
	<line fill="none" stroke="#FFFFFF" stroke-width="3" x1="281.46" y1="83.41" x2="582.539" y2="83.41"/>
</g>
<g>
	<g>
		<g enable-background="new    ">
			<path fill="#FFFFFF" d="M419.256,126.07h-3.966l-9.089-10.035l-2.283,2.391v7.645h-3.056v-22.539h3.056v11.762l11.156-11.762
				h3.703l-10.262,10.596L419.256,126.07z"/>
			<path fill="#FFFFFF" d="M435.195,125.01c-0.968,0.454-1.886,0.808-2.755,1.06s-1.793,0.379-2.77,0.379
				c-1.245,0-2.387-0.18-3.426-0.538c-1.039-0.357-1.929-0.9-2.669-1.627c-0.751-0.727-1.333-1.645-1.744-2.755
				s-0.617-2.406-0.617-3.891c0-2.765,0.774-4.934,2.322-6.508s3.593-2.361,6.134-2.361c0.987,0,1.957,0.136,2.908,0.408
				c0.952,0.272,1.823,0.605,2.616,0.999v3.163h-0.154c-0.886-0.676-1.798-1.195-2.739-1.559s-1.859-0.545-2.755-0.545
				c-1.646,0-2.944,0.543-3.896,1.627c-0.952,1.085-1.428,2.677-1.428,4.775c0,2.039,0.466,3.605,1.396,4.7
				c0.931,1.096,2.24,1.643,3.927,1.643c0.587,0,1.184-0.075,1.79-0.228c0.607-0.15,1.152-0.348,1.636-0.59
				c0.422-0.212,0.818-0.437,1.188-0.674c0.37-0.236,0.663-0.441,0.88-0.613h0.154V125.01z"/>
			<path fill="#FFFFFF" d="M464.004,132.306h-2.901v-8.144c-0.895,0.757-1.785,1.319-2.669,1.688
				c-0.886,0.368-1.842,0.553-2.87,0.553c-2.048,0-3.681-0.774-4.899-2.323s-1.829-3.686-1.829-6.41
				c0-1.453,0.214-2.737,0.641-3.853s0.99-2.052,1.689-2.808c0.68-0.737,1.477-1.308,2.392-1.711
				c0.916-0.403,1.883-0.605,2.901-0.605c0.926,0,1.746,0.101,2.461,0.303s1.443,0.5,2.184,0.893l0.186-0.727h2.716V132.306z
				 M461.103,121.771v-9.566c-0.803-0.354-1.512-0.601-2.129-0.742c-0.617-0.141-1.286-0.211-2.007-0.211
				c-1.677,0-2.952,0.558-3.826,1.672c-0.875,1.115-1.312,2.651-1.312,4.609c0,1.978,0.353,3.499,1.057,4.563
				c0.705,1.065,1.813,1.597,3.325,1.597c0.844,0,1.688-0.179,2.531-0.537C459.585,122.798,460.372,122.336,461.103,121.771z"/>
			<path fill="#FFFFFF" d="M476.425,131.393h-7.113v-1.342h2.735v-8.807h-2.735v-1.2c0.371,0,0.768-0.031,1.191-0.093
				s0.744-0.151,0.962-0.269c0.271-0.147,0.484-0.334,0.64-0.561c0.156-0.227,0.246-0.531,0.27-0.914h1.367v11.843h2.684V131.393z"
				/>
			<path fill="#FFFFFF" d="M501.537,132.306h-2.901v-8.144c-0.895,0.757-1.785,1.319-2.669,1.688
				c-0.886,0.368-1.842,0.553-2.87,0.553c-2.048,0-3.681-0.774-4.899-2.323s-1.829-3.686-1.829-6.41
				c0-1.453,0.214-2.737,0.641-3.853s0.99-2.052,1.689-2.808c0.68-0.737,1.477-1.308,2.392-1.711
				c0.916-0.403,1.883-0.605,2.901-0.605c0.926,0,1.746,0.101,2.461,0.303s1.443,0.5,2.184,0.893l0.186-0.727h2.716V132.306z
				 M498.636,121.771v-9.566c-0.803-0.354-1.512-0.601-2.129-0.742c-0.617-0.141-1.286-0.211-2.007-0.211
				c-1.677,0-2.952,0.558-3.826,1.672c-0.875,1.115-1.312,2.651-1.312,4.609c0,1.978,0.353,3.499,1.057,4.563
				c0.705,1.065,1.813,1.597,3.325,1.597c0.844,0,1.688-0.179,2.531-0.537C497.118,122.798,497.905,122.336,498.636,121.771z"/>
			<path fill="#FFFFFF" d="M514.707,131.393h-8.896v-1.845c0.617-0.529,1.236-1.059,1.857-1.588s1.198-1.056,1.734-1.58
				c1.129-1.094,1.903-1.963,2.32-2.607c0.418-0.645,0.627-1.34,0.627-2.087c0-0.683-0.226-1.217-0.675-1.602
				c-0.45-0.386-1.078-0.578-1.885-0.578c-0.535,0-1.114,0.094-1.738,0.282c-0.623,0.188-1.232,0.477-1.826,0.865h-0.089V118.8
				c0.418-0.206,0.976-0.395,1.673-0.564c0.697-0.171,1.372-0.256,2.025-0.256c1.347,0,2.402,0.324,3.168,0.975
				c0.765,0.65,1.146,1.531,1.146,2.643c0,0.501-0.063,0.967-0.189,1.399s-0.313,0.843-0.561,1.23
				c-0.229,0.365-0.498,0.724-0.808,1.077c-0.309,0.353-0.684,0.744-1.125,1.174c-0.629,0.617-1.279,1.216-1.95,1.796
				c-0.671,0.579-1.297,1.116-1.88,1.61h7.069V131.393z"/>
		</g>
		<g enable-background="new    ">
			<path fill="#FFFFFF" d="M451.309,159.265h-0.154c-0.432-0.101-0.852-0.174-1.258-0.22c-0.406-0.045-0.887-0.067-1.442-0.067
				c-0.895,0-1.759,0.194-2.592,0.582c-0.834,0.389-1.636,0.891-2.407,1.506v12.004h-2.901v-16.908h2.901v2.498
				c1.151-0.908,2.168-1.552,3.047-1.93c0.88-0.379,1.777-0.568,2.693-0.568c0.504,0,0.869,0.014,1.095,0.038
				c0.227,0.025,0.566,0.073,1.019,0.144V159.265z"/>
			<path fill="#FFFFFF" d="M461.502,157.747h-8.896v-1.845c0.617-0.529,1.236-1.059,1.857-1.588s1.198-1.056,1.734-1.58
				c1.129-1.094,1.903-1.963,2.32-2.607c0.418-0.645,0.627-1.34,0.627-2.087c0-0.683-0.226-1.217-0.675-1.602
				c-0.45-0.386-1.078-0.578-1.885-0.578c-0.535,0-1.114,0.094-1.738,0.282c-0.623,0.188-1.232,0.477-1.826,0.865h-0.089v-1.854
				c0.418-0.206,0.976-0.395,1.673-0.564c0.697-0.171,1.372-0.256,2.025-0.256c1.347,0,2.402,0.324,3.168,0.975
				c0.765,0.65,1.146,1.531,1.146,2.643c0,0.501-0.063,0.967-0.189,1.399s-0.313,0.843-0.561,1.23
				c-0.229,0.365-0.498,0.724-0.808,1.077c-0.309,0.353-0.684,0.744-1.125,1.174c-0.629,0.617-1.279,1.216-1.95,1.796
				c-0.671,0.579-1.297,1.116-1.88,1.61h7.069V157.747z"/>
		</g>
	</g>
	<g>
		<path fill="#FFFFFF" d="M342.201,128.196h-11.398v6.357h9.793v2.664h-9.793v10.853h-2.997v-22.539h14.395V128.196z"/>
		<path fill="#FFFFFF" d="M351.516,152.776c-0.553,0.265-1.078,0.471-1.575,0.618c-0.498,0.147-1.025,0.221-1.584,0.221
			c-0.712,0-1.365-0.104-1.959-0.313c-0.594-0.208-1.103-0.525-1.526-0.949c-0.43-0.423-0.762-0.958-0.997-1.606
			c-0.235-0.647-0.353-1.403-0.353-2.268c0-1.612,0.442-2.876,1.328-3.794c0.885-0.918,2.055-1.376,3.508-1.376
			c0.564,0,1.119,0.079,1.663,0.238c0.544,0.159,1.043,0.353,1.496,0.582v1.845h-0.088c-0.506-0.394-1.028-0.697-1.566-0.909
			c-0.538-0.212-1.063-0.318-1.575-0.318c-0.941,0-1.684,0.316-2.228,0.949c-0.544,0.633-0.816,1.561-0.816,2.784
			c0,1.188,0.266,2.102,0.799,2.74c0.532,0.638,1.281,0.958,2.246,0.958c0.335,0,0.676-0.044,1.024-0.132
			c0.347-0.088,0.659-0.203,0.935-0.344c0.241-0.124,0.468-0.254,0.68-0.393s0.379-0.257,0.503-0.357h0.088V152.776z"/>
		<path fill="#FFFFFF" d="M384.569,136.233h-17.952v-2.422h17.952V136.233z M384.569,142.591h-17.952v-2.422h17.952V142.591z"/>
		<path fill="#FFFFFF" d="M418.945,138.611h-19.829v-1.816h19.829V138.611z"/>
		<path fill="#FFFFFF" d="M438.652,138.611h-19.829v-1.816h19.829V138.611z"/>
		<path fill="#FFFFFF" d="M458.361,138.611h-19.83v-1.816h19.83V138.611z"/>
		<path fill="#FFFFFF" d="M478.068,138.611H458.24v-1.816h19.828V138.611z"/>
		<path fill="#FFFFFF" d="M497.777,138.611h-19.83v-1.816h19.83V138.611z"/>
		<path fill="#FFFFFF" d="M517.484,138.611h-19.828v-1.816h19.828V138.611z"/>
	</g>
</g>
<g id="step29Black">
	<path fill="#FFFFFF" d="M206.31,275.459h-11.397v6.357h9.794v2.664h-9.794v10.854h-2.997v-22.539h14.395V275.459z"/>
	<path fill="#FFFFFF" d="M216.332,300.656h-1.659v-1.031c-0.477,0.41-0.974,0.732-1.491,0.961c-0.518,0.23-1.08,0.344-1.686,0.344
		c-1.177,0-2.11-0.453-2.802-1.357c-0.691-0.906-1.037-2.162-1.037-3.77c0-0.834,0.119-1.58,0.357-2.232s0.561-1.209,0.966-1.668
		c0.4-0.447,0.866-0.787,1.399-1.023c0.532-0.234,1.084-0.354,1.654-0.354c0.518,0,0.977,0.055,1.377,0.164
		c0.399,0.109,0.82,0.277,1.262,0.508v-4.271h1.659V300.656z M214.672,298.23v-5.656c-0.447-0.201-0.848-0.34-1.2-0.416
		s-0.738-0.115-1.156-0.115c-0.93,0-1.653,0.324-2.171,0.971c-0.518,0.648-0.776,1.566-0.776,2.754c0,1.172,0.2,2.061,0.601,2.67
		c0.399,0.609,1.041,0.914,1.923,0.914c0.471,0,0.947-0.105,1.43-0.314S214.254,298.559,214.672,298.23z"/>
	<path fill="#FFFFFF" d="M250.523,283.496h-17.951v-2.422h17.951V283.496z M250.523,289.854h-17.951v-2.422h17.951V289.854z"/>
	<path fill="#FFFFFF" d="M282.552,275.459h-11.397v6.357h9.794v2.664h-9.794v10.854h-2.997v-22.539h14.395V275.459z"/>
	<path fill="#FFFFFF" d="M291.869,300.039c-0.553,0.266-1.078,0.471-1.575,0.617c-0.497,0.148-1.025,0.221-1.584,0.221
		c-0.712,0-1.365-0.104-1.959-0.313c-0.595-0.209-1.104-0.525-1.527-0.949c-0.429-0.424-0.762-0.959-0.997-1.605
		c-0.235-0.648-0.353-1.404-0.353-2.268c0-1.613,0.442-2.877,1.328-3.795c0.885-0.918,2.055-1.377,3.508-1.377
		c0.564,0,1.119,0.08,1.663,0.238s1.043,0.354,1.496,0.582v1.844h-0.088c-0.507-0.393-1.028-0.697-1.566-0.908
		c-0.539-0.211-1.063-0.318-1.575-0.318c-0.941,0-1.685,0.316-2.229,0.949s-0.816,1.561-0.816,2.785c0,1.188,0.266,2.102,0.799,2.74
		c0.532,0.637,1.28,0.957,2.246,0.957c0.335,0,0.676-0.045,1.023-0.133c0.347-0.088,0.658-0.203,0.936-0.344
		c0.241-0.125,0.468-0.256,0.679-0.393c0.212-0.139,0.38-0.258,0.504-0.357h0.088V300.039z"/>
	<path fill="#FFFFFF" d="M320.698,295.334h-3.588l-4.798-6.494l-4.829,6.494h-3.314l6.6-8.432l-6.539-8.477h3.588l4.768,6.389
		l4.783-6.389h3.33l-6.645,8.326L320.698,295.334z"/>
	<path fill="#FFFFFF" d="M348.913,295.334h-12.2v-2.301h4.692v-15.107h-4.692v-2.059c0.636,0,1.317-0.053,2.044-0.158
		s1.276-0.26,1.649-0.461c0.464-0.254,0.83-0.574,1.098-0.963c0.267-0.387,0.421-0.91,0.462-1.566h2.346v20.314h4.602V295.334z"/>
	<path fill="#FFFFFF" d="M369.877,284.057c0,4.047-0.633,7.016-1.899,8.908s-3.231,2.838-5.896,2.838
		c-2.704,0-4.68-0.959-5.926-2.875c-1.247-1.918-1.869-4.865-1.869-8.84c0-4.008,0.63-6.967,1.892-8.879s3.229-2.867,5.903-2.867
		c2.704,0,4.68,0.971,5.926,2.912C369.254,277.197,369.877,280.131,369.877,284.057z M365.897,290.93
		c0.354-0.818,0.593-1.779,0.719-2.885s0.189-2.434,0.189-3.988c0-1.533-0.063-2.865-0.189-3.996s-0.371-2.088-0.734-2.875
		c-0.353-0.777-0.835-1.363-1.445-1.756c-0.61-0.395-1.395-0.592-2.354-0.592c-0.948,0-1.733,0.197-2.354,0.592
		c-0.621,0.393-1.113,0.988-1.477,1.785c-0.343,0.746-0.577,1.721-0.703,2.922c-0.127,1.201-0.189,2.518-0.189,3.951
		c0,1.574,0.056,2.891,0.166,3.949c0.111,1.061,0.349,2.008,0.712,2.846c0.333,0.787,0.805,1.389,1.415,1.803
		c0.61,0.412,1.421,0.619,2.43,0.619c0.948,0,1.735-0.195,2.361-0.59C365.07,292.322,365.554,291.727,365.897,290.93z"/>
	<path fill="#FFFFFF" d="M382.13,275.836c0,0.611-0.111,1.197-0.335,1.756s-0.529,1.029-0.918,1.412
		c-0.424,0.412-0.928,0.729-1.514,0.949c-0.585,0.221-1.263,0.33-2.034,0.33c-0.718,0-1.409-0.074-2.073-0.225
		c-0.665-0.15-1.227-0.33-1.686-0.543v-1.861h0.123c0.482,0.307,1.048,0.566,1.694,0.781c0.647,0.215,1.283,0.322,1.906,0.322
		c0.418,0,0.822-0.059,1.214-0.178c0.391-0.117,0.739-0.322,1.046-0.617c0.259-0.252,0.454-0.557,0.587-0.908
		c0.132-0.354,0.198-0.762,0.198-1.227c0-0.453-0.078-0.836-0.234-1.148c-0.155-0.311-0.372-0.561-0.648-0.75
		c-0.306-0.223-0.678-0.381-1.116-0.473c-0.438-0.09-0.928-0.137-1.47-0.137c-0.518,0-1.016,0.035-1.495,0.107
		c-0.479,0.07-0.893,0.141-1.24,0.211v-6.768h7.907v1.543h-6.204v3.494c0.253-0.023,0.512-0.041,0.776-0.053
		c0.266-0.012,0.494-0.018,0.688-0.018c0.712,0,1.336,0.061,1.871,0.182s1.026,0.334,1.474,0.641
		c0.471,0.322,0.835,0.74,1.095,1.252C382.001,274.424,382.13,275.066,382.13,275.836z"/>
	<path fill="#FFFFFF" d="M415.969,283.496h-17.951v-2.422h17.951V283.496z M415.969,289.854h-17.951v-2.422h17.951V289.854z"/>
	<path fill="#FFFFFF" d="M446.289,284.48c0.484,0.434,0.883,0.979,1.195,1.635s0.469,1.504,0.469,2.543
		c0,1.029-0.186,1.973-0.561,2.83c-0.373,0.857-0.896,1.605-1.574,2.24c-0.756,0.707-1.646,1.229-2.67,1.566
		c-1.025,0.338-2.148,0.508-3.369,0.508c-1.25,0-2.482-0.148-3.693-0.447c-1.211-0.297-2.205-0.623-2.982-0.975v-3.164h0.229
		c0.857,0.564,1.867,1.033,3.027,1.408c1.16,0.373,2.279,0.559,3.359,0.559c0.637,0,1.313-0.105,2.029-0.316
		c0.717-0.213,1.297-0.525,1.74-0.939c0.465-0.443,0.811-0.934,1.037-1.469s0.34-1.211,0.34-2.027c0-0.809-0.129-1.477-0.385-2.006
		c-0.258-0.529-0.613-0.945-1.068-1.248c-0.453-0.314-1.004-0.527-1.65-0.645c-0.645-0.115-1.342-0.174-2.088-0.174h-1.363v-2.512
		h1.061c1.533,0,2.758-0.32,3.67-0.963c0.914-0.641,1.371-1.576,1.371-2.807c0-0.545-0.117-1.021-0.35-1.432
		c-0.23-0.408-0.555-0.744-0.969-1.006c-0.434-0.262-0.896-0.443-1.393-0.545c-0.494-0.102-1.053-0.15-1.68-0.15
		c-0.959,0-1.977,0.17-3.057,0.514s-2.1,0.828-3.059,1.453h-0.15v-3.164c0.717-0.354,1.672-0.678,2.867-0.977
		c1.197-0.297,2.354-0.445,3.475-0.445c1.1,0,2.068,0.1,2.906,0.303c0.838,0.201,1.594,0.523,2.27,0.969
		c0.727,0.484,1.277,1.068,1.65,1.756c0.373,0.686,0.561,1.488,0.561,2.406c0,1.252-0.441,2.344-1.324,3.277
		s-1.926,1.521-3.127,1.764v0.211c0.484,0.082,1.041,0.25,1.666,0.508S445.855,284.098,446.289,284.48z"/>
	<path fill="#FFFFFF" d="M457.732,295.334h-3.617v-4.314h3.617V295.334z"/>
	<path fill="#FFFFFF" d="M477.273,284.48c0.484,0.434,0.883,0.979,1.195,1.635s0.469,1.504,0.469,2.543
		c0,1.029-0.186,1.973-0.561,2.83c-0.373,0.857-0.896,1.605-1.574,2.24c-0.756,0.707-1.646,1.229-2.67,1.566
		c-1.025,0.338-2.148,0.508-3.369,0.508c-1.25,0-2.482-0.148-3.693-0.447c-1.211-0.297-2.205-0.623-2.982-0.975v-3.164h0.229
		c0.857,0.564,1.867,1.033,3.027,1.408c1.16,0.373,2.279,0.559,3.359,0.559c0.637,0,1.313-0.105,2.029-0.316
		c0.717-0.213,1.297-0.525,1.74-0.939c0.465-0.443,0.811-0.934,1.037-1.469s0.34-1.211,0.34-2.027c0-0.809-0.129-1.477-0.385-2.006
		c-0.258-0.529-0.613-0.945-1.068-1.248c-0.453-0.314-1.004-0.527-1.65-0.645c-0.645-0.115-1.342-0.174-2.088-0.174h-1.363v-2.512
		h1.061c1.533,0,2.758-0.32,3.67-0.963c0.914-0.641,1.371-1.576,1.371-2.807c0-0.545-0.117-1.021-0.35-1.432
		c-0.23-0.408-0.555-0.744-0.969-1.006c-0.434-0.262-0.896-0.443-1.393-0.545c-0.494-0.102-1.053-0.15-1.68-0.15
		c-0.959,0-1.977,0.17-3.057,0.514s-2.1,0.828-3.059,1.453h-0.15v-3.164c0.717-0.354,1.672-0.678,2.867-0.977
		c1.197-0.297,2.354-0.445,3.475-0.445c1.1,0,2.068,0.1,2.906,0.303c0.838,0.201,1.594,0.523,2.27,0.969
		c0.727,0.484,1.277,1.068,1.65,1.756c0.373,0.686,0.561,1.488,0.561,2.406c0,1.252-0.441,2.344-1.324,3.277
		s-1.926,1.521-3.127,1.764v0.211c0.484,0.082,1.041,0.25,1.666,0.508S476.84,284.098,477.273,284.48z"/>
	<path fill="#FFFFFF" d="M509.605,295.334h-3.588l-4.797-6.494l-4.83,6.494h-3.314l6.6-8.432l-6.539-8.477h3.588l4.768,6.389
		l4.783-6.389h3.33l-6.645,8.326L509.605,295.334z"/>
	<path fill="#FFFFFF" d="M537.82,295.334h-12.199v-2.301h4.691v-15.107h-4.691v-2.059c0.635,0,1.316-0.053,2.043-0.158
		s1.277-0.26,1.65-0.461c0.463-0.254,0.83-0.574,1.098-0.963c0.266-0.387,0.42-0.91,0.461-1.566h2.346v20.314h4.602V295.334z"/>
	<path fill="#FFFFFF" d="M558.783,284.057c0,4.047-0.633,7.016-1.898,8.908c-1.268,1.893-3.232,2.838-5.896,2.838
		c-2.703,0-4.68-0.959-5.926-2.875c-1.246-1.918-1.869-4.865-1.869-8.84c0-4.008,0.631-6.967,1.893-8.879s3.229-2.867,5.902-2.867
		c2.705,0,4.68,0.971,5.926,2.912C558.16,277.197,558.783,280.131,558.783,284.057z M554.803,290.93
		c0.354-0.818,0.594-1.779,0.719-2.885c0.127-1.105,0.189-2.434,0.189-3.988c0-1.533-0.063-2.865-0.189-3.996
		c-0.125-1.131-0.371-2.088-0.734-2.875c-0.352-0.777-0.834-1.363-1.445-1.756c-0.609-0.395-1.395-0.592-2.354-0.592
		c-0.947,0-1.732,0.197-2.354,0.592c-0.621,0.393-1.113,0.988-1.477,1.785c-0.342,0.746-0.576,1.721-0.703,2.922
		s-0.189,2.518-0.189,3.951c0,1.574,0.057,2.891,0.166,3.949c0.111,1.061,0.35,2.008,0.713,2.846
		c0.332,0.787,0.805,1.389,1.414,1.803c0.611,0.412,1.422,0.619,2.43,0.619c0.949,0,1.736-0.195,2.361-0.59
		C553.977,292.322,554.461,291.727,554.803,290.93z"/>
	<path fill="#FFFFFF" d="M571.338,275.748c0,1.336-0.439,2.426-1.318,3.27s-1.957,1.266-3.234,1.266c-0.646,0-1.234-0.1-1.766-0.299
		c-0.529-0.201-0.996-0.498-1.402-0.893c-0.506-0.488-0.896-1.135-1.17-1.941c-0.273-0.805-0.41-1.775-0.41-2.912
		c0-1.164,0.125-2.197,0.375-3.098c0.25-0.898,0.648-1.699,1.195-2.4c0.52-0.664,1.186-1.184,2.004-1.557s1.771-0.561,2.859-0.561
		c0.348,0,0.639,0.016,0.873,0.045c0.236,0.029,0.475,0.082,0.715,0.158v1.686h-0.088c-0.164-0.088-0.412-0.172-0.746-0.252
		c-0.332-0.078-0.672-0.119-1.018-0.119c-1.266,0-2.275,0.396-3.027,1.188c-0.754,0.791-1.191,1.861-1.314,3.207
		c0.494-0.299,0.98-0.527,1.459-0.684c0.48-0.156,1.035-0.234,1.664-0.234c0.559,0,1.051,0.053,1.479,0.154
		c0.426,0.104,0.863,0.311,1.311,0.623c0.518,0.359,0.906,0.813,1.168,1.359S571.338,274.965,571.338,275.748z M569.547,275.818
		c0-0.547-0.08-1-0.242-1.359c-0.162-0.357-0.428-0.67-0.799-0.936c-0.27-0.188-0.57-0.311-0.9-0.369
		c-0.328-0.061-0.674-0.09-1.031-0.09c-0.5,0-0.965,0.061-1.395,0.178s-0.871,0.299-1.324,0.547
		c-0.012,0.129-0.021,0.254-0.027,0.375s-0.008,0.271-0.008,0.455c0,0.93,0.096,1.662,0.287,2.201s0.453,0.963,0.789,1.275
		c0.271,0.258,0.564,0.449,0.879,0.568c0.314,0.121,0.656,0.182,1.027,0.182c0.854,0,1.523-0.26,2.012-0.781
		S569.547,276.795,569.547,275.818z"/>
	<path fill="#FFFFFF" d="M599.73,295.334h-2.846v-1.771c-0.816,0.707-1.67,1.256-2.559,1.65c-0.887,0.393-1.852,0.59-2.891,0.59
		c-2.018,0-3.621-0.777-4.807-2.33c-1.186-1.555-1.777-3.709-1.777-6.465c0-1.432,0.203-2.709,0.613-3.828
		c0.408-1.121,0.961-2.074,1.656-2.861c0.688-0.768,1.486-1.354,2.4-1.756c0.912-0.404,1.859-0.605,2.838-0.605
		c0.887,0,1.674,0.094,2.361,0.279c0.686,0.188,1.408,0.477,2.164,0.871v-7.326h2.846V295.334z M596.885,291.172v-9.703
		c-0.768-0.344-1.453-0.58-2.059-0.711c-0.605-0.133-1.266-0.197-1.982-0.197c-1.596,0-2.836,0.555-3.725,1.664
		c-0.887,1.111-1.332,2.686-1.332,4.723c0,2.008,0.344,3.535,1.029,4.58c0.688,1.043,1.787,1.566,3.301,1.566
		c0.807,0,1.625-0.18,2.451-0.537C595.396,292.197,596.168,291.736,596.885,291.172z"/>
	<path fill="#FFFFFF" d="M619.953,278.426l-9.869,23.145h-3.043l3.148-7.055l-6.734-16.09h3.088l5.191,12.533l5.236-12.533H619.953z
		"/>
	<path fill="#FFFFFF" d="M637.814,295.334h-2.846v-9.627c0-0.777-0.045-1.506-0.137-2.188c-0.09-0.682-0.256-1.213-0.498-1.598
		c-0.254-0.424-0.617-0.738-1.09-0.945c-0.475-0.207-1.09-0.311-1.848-0.311c-0.777,0-1.59,0.191-2.438,0.576
		c-0.848,0.383-1.66,0.871-2.436,1.467v12.625h-2.846v-16.908h2.846v1.877c0.887-0.736,1.805-1.313,2.754-1.725
		c0.949-0.414,1.922-0.621,2.922-0.621c1.826,0,3.219,0.549,4.178,1.65c0.959,1.1,1.438,2.684,1.438,4.752V295.334z"/>
	<path fill="#FFFFFF" d="M657.447,287.176H644.99c0,1.039,0.156,1.943,0.469,2.717c0.313,0.771,0.742,1.404,1.287,1.898
		c0.523,0.484,1.146,0.848,1.869,1.09c0.721,0.242,1.516,0.363,2.383,0.363c1.15,0,2.309-0.229,3.475-0.688s1.996-0.912,2.49-1.355
		h0.15v3.104c-0.959,0.402-1.938,0.742-2.936,1.014c-1,0.273-2.049,0.408-3.148,0.408c-2.807,0-4.996-0.758-6.57-2.277
		s-2.361-3.676-2.361-6.471c0-2.766,0.754-4.961,2.264-6.584c1.508-1.625,3.494-2.438,5.957-2.438c2.279,0,4.037,0.666,5.273,1.998
		s1.855,3.225,1.855,5.676V287.176z M654.678,284.996c-0.012-1.494-0.387-2.65-1.129-3.467c-0.742-0.818-1.869-1.227-3.383-1.227
		c-1.523,0-2.738,0.449-3.641,1.348s-1.414,2.014-1.535,3.346H654.678z"/>
	<path fill="#FFFFFF" d="M673.84,290.459c0,1.545-0.639,2.811-1.914,3.801c-1.277,0.988-3.02,1.482-5.23,1.482
		c-1.252,0-2.398-0.148-3.443-0.447c-1.045-0.297-1.92-0.623-2.627-0.975v-3.195h0.152c0.898,0.676,1.896,1.215,2.996,1.613
		s2.154,0.598,3.164,0.598c1.252,0,2.23-0.203,2.938-0.605c0.705-0.404,1.059-1.039,1.059-1.908c0-0.666-0.191-1.17-0.574-1.514
		c-0.385-0.342-1.121-0.635-2.211-0.877c-0.404-0.092-0.932-0.197-1.582-0.318s-1.244-0.252-1.777-0.393
		c-1.484-0.395-2.537-0.973-3.156-1.734c-0.621-0.762-0.932-1.697-0.932-2.807c0-0.697,0.145-1.354,0.432-1.969
		s0.725-1.166,1.309-1.65c0.566-0.475,1.285-0.85,2.158-1.127c0.871-0.277,1.848-0.416,2.928-0.416c1.01,0,2.031,0.123,3.066,0.371
		c1.033,0.246,1.895,0.547,2.58,0.9v3.043h-0.15c-0.727-0.535-1.611-0.986-2.65-1.355s-2.059-0.553-3.057-0.553
		c-1.039,0-1.918,0.199-2.635,0.598s-1.074,0.992-1.074,1.779c0,0.695,0.217,1.221,0.65,1.574c0.424,0.354,1.111,0.641,2.059,0.863
		c0.525,0.121,1.113,0.242,1.764,0.363s1.193,0.23,1.627,0.332c1.322,0.303,2.342,0.822,3.059,1.559
		C673.482,288.24,673.84,289.229,673.84,290.459z"/>
</g>
<g id="step29Black_1_">
	<path fill="#FFFFFF" d="M167.644,228.57h-3.466c-1.786-2.049-3.174-4.283-4.163-6.705c-0.988-2.422-1.482-5.152-1.482-8.189
		s0.494-5.768,1.482-8.189c0.989-2.422,2.377-4.657,4.163-6.706h3.466v0.151c-0.816,0.736-1.597,1.587-2.338,2.551
		c-0.742,0.964-1.431,2.085-2.066,3.369c-0.605,1.24-1.098,2.607-1.476,4.102c-0.379,1.492-0.567,3.066-0.567,4.723
		c0,1.725,0.184,3.305,0.552,4.738c0.368,1.432,0.865,2.795,1.491,4.086c0.605,1.242,1.297,2.363,2.074,3.367
		c0.776,1.004,1.554,1.855,2.33,2.551V228.57z"/>
	<path fill="#FFFFFF" d="M185.172,221.273c-0.948,0.455-1.849,0.809-2.701,1.061c-0.854,0.252-1.759,0.379-2.717,0.379
		c-1.222,0-2.342-0.18-3.361-0.539c-1.019-0.357-1.892-0.9-2.618-1.627c-0.736-0.727-1.307-1.645-1.71-2.754
		c-0.404-1.111-0.605-2.406-0.605-3.891c0-2.766,0.759-4.934,2.277-6.508s3.524-2.361,6.018-2.361c0.969,0,1.919,0.135,2.853,0.408
		c0.934,0.271,1.789,0.605,2.565,0.998v3.164h-0.15c-0.868-0.676-1.764-1.195-2.688-1.559c-0.923-0.363-1.824-0.545-2.701-0.545
		c-1.615,0-2.89,0.543-3.822,1.627c-0.934,1.084-1.4,2.676-1.4,4.775c0,2.039,0.456,3.605,1.37,4.699
		c0.913,1.096,2.197,1.643,3.853,1.643c0.574,0,1.16-0.074,1.756-0.227c0.595-0.15,1.13-0.348,1.604-0.59
		c0.414-0.213,0.803-0.438,1.166-0.674s0.65-0.441,0.863-0.613h0.15V221.273z"/>
	<path fill="#FFFFFF" d="M203.231,213.887c0,2.756-0.707,4.93-2.119,6.525c-1.413,1.594-3.306,2.391-5.677,2.391
		c-2.392,0-4.291-0.797-5.699-2.391c-1.407-1.596-2.111-3.77-2.111-6.525c0-2.754,0.704-4.932,2.111-6.531
		c1.408-1.6,3.308-2.398,5.699-2.398c2.371,0,4.264,0.799,5.677,2.398C202.524,208.955,203.231,211.133,203.231,213.887z
		 M200.293,213.887c0-2.189-0.429-3.816-1.286-4.881s-2.049-1.598-3.572-1.598c-1.544,0-2.742,0.533-3.595,1.598
		c-0.854,1.064-1.279,2.691-1.279,4.881c0,2.119,0.429,3.727,1.287,4.822c0.857,1.094,2.053,1.643,3.587,1.643
		c1.514,0,2.702-0.543,3.564-1.629C199.863,217.639,200.293,216.027,200.293,213.887z"/>
	<path fill="#FFFFFF" d="M221.773,222.334h-2.846v-9.627c0-0.777-0.045-1.506-0.136-2.188s-0.257-1.213-0.499-1.598
		c-0.253-0.424-0.616-0.738-1.09-0.945c-0.475-0.207-1.09-0.311-1.848-0.311c-0.776,0-1.589,0.191-2.437,0.576
		c-0.848,0.383-1.66,0.871-2.437,1.467v12.625h-2.846v-16.908h2.846v1.877c0.888-0.736,1.806-1.313,2.754-1.725
		c0.949-0.414,1.923-0.621,2.922-0.621c1.826,0,3.219,0.549,4.178,1.65c0.959,1.1,1.438,2.684,1.438,4.752V222.334z"/>
	<path fill="#FFFFFF" d="M241.572,205.426l-6.842,16.908h-2.86l-6.796-16.908h3.088l5.236,13.457l5.192-13.457H241.572z"/>
	<path fill="#FFFFFF" d="M259.176,214.176h-12.457c0,1.039,0.156,1.943,0.469,2.717c0.313,0.771,0.742,1.404,1.287,1.898
		c0.524,0.484,1.147,0.848,1.869,1.09c0.721,0.242,1.516,0.363,2.384,0.363c1.15,0,2.309-0.229,3.474-0.688
		c1.166-0.459,1.996-0.912,2.49-1.355h0.151v3.104c-0.959,0.402-1.938,0.742-2.937,1.014c-0.999,0.273-2.049,0.408-3.148,0.408
		c-2.806,0-4.995-0.758-6.569-2.277s-2.361-3.676-2.361-6.471c0-2.766,0.754-4.961,2.263-6.584c1.509-1.625,3.494-2.438,5.957-2.438
		c2.28,0,4.038,0.666,5.274,1.998s1.854,3.225,1.854,5.676V214.176z M256.407,211.996c-0.011-1.494-0.387-2.65-1.128-3.467
		c-0.742-0.818-1.87-1.227-3.384-1.227c-1.523,0-2.737,0.449-3.64,1.348c-0.903,0.898-1.415,2.014-1.536,3.346H256.407z"/>
	<path fill="#FFFFFF" d="M274.041,208.529h-0.151c-0.424-0.102-0.835-0.174-1.233-0.221c-0.399-0.045-0.87-0.066-1.415-0.066
		c-0.879,0-1.727,0.193-2.543,0.582c-0.818,0.389-1.605,0.891-2.361,1.506v12.004h-2.846v-16.908h2.846v2.498
		c1.13-0.908,2.126-1.553,2.989-1.93c0.862-0.379,1.743-0.568,2.642-0.568c0.494,0,0.853,0.014,1.074,0.037
		c0.222,0.025,0.555,0.074,0.999,0.145V208.529z"/>
	<path fill="#FFFFFF" d="M285.5,222.182c-0.535,0.143-1.118,0.258-1.749,0.35c-0.631,0.09-1.193,0.135-1.688,0.135
		c-1.726,0-3.037-0.463-3.936-1.393c-0.898-0.928-1.347-2.416-1.347-4.465v-8.99h-1.923v-2.393h1.923v-4.859h2.846v4.859h5.873
		v2.393h-5.873v7.703c0,0.889,0.02,1.582,0.061,2.082c0.04,0.5,0.182,0.967,0.424,1.4c0.222,0.402,0.526,0.699,0.915,0.885
		c0.389,0.188,0.981,0.281,1.778,0.281c0.465,0,0.949-0.068,1.453-0.205c0.505-0.137,0.868-0.25,1.09-0.34h0.152V222.182z"/>
	<path fill="#FFFFFF" d="M314.456,202.458h-11.397v6.358h9.794v2.664h-9.794v10.854h-2.997v-22.54h14.395V202.458z"/>
	<path fill="#FFFFFF" d="M323.771,227.039c-0.553,0.266-1.078,0.471-1.575,0.617c-0.497,0.148-1.025,0.221-1.584,0.221
		c-0.712,0-1.365-0.104-1.959-0.313c-0.595-0.209-1.104-0.525-1.527-0.949c-0.429-0.424-0.762-0.959-0.997-1.605
		c-0.235-0.648-0.353-1.404-0.353-2.268c0-1.613,0.442-2.877,1.328-3.795c0.885-0.918,2.055-1.377,3.508-1.377
		c0.564,0,1.119,0.08,1.663,0.238s1.043,0.354,1.496,0.582v1.844h-0.088c-0.507-0.393-1.028-0.697-1.566-0.908
		c-0.539-0.211-1.063-0.318-1.575-0.318c-0.941,0-1.685,0.316-2.229,0.949s-0.816,1.561-0.816,2.785c0,1.188,0.266,2.102,0.799,2.74
		c0.532,0.637,1.28,0.957,2.246,0.957c0.335,0,0.676-0.045,1.023-0.133c0.347-0.088,0.658-0.203,0.936-0.344
		c0.241-0.125,0.468-0.256,0.679-0.393c0.212-0.139,0.38-0.258,0.504-0.357h0.088V227.039z"/>
	<path fill="#FFFFFF" d="M347.061,201.536h-0.151c-0.313-0.091-0.722-0.184-1.227-0.28c-0.504-0.096-0.948-0.144-1.332-0.144
		c-1.221,0-2.106,0.271-2.656,0.81c-0.55,0.54-0.824,1.517-0.824,2.93v0.574h5.131v2.393h-5.041v14.516h-2.846v-14.516h-1.922
		v-2.393h1.922v-0.561c0-2.007,0.5-3.549,1.499-4.624c0.999-1.075,2.442-1.612,4.329-1.612c0.636,0,1.208,0.03,1.718,0.091
		s0.977,0.131,1.4,0.212V201.536z"/>
	<path fill="#FFFFFF" d="M359.413,208.529h-0.151c-0.424-0.102-0.835-0.174-1.233-0.221c-0.399-0.045-0.87-0.066-1.415-0.066
		c-0.879,0-1.727,0.193-2.543,0.582c-0.818,0.389-1.605,0.891-2.361,1.506v12.004h-2.846v-16.908h2.846v2.498
		c1.13-0.908,2.126-1.553,2.989-1.93c0.862-0.379,1.743-0.568,2.642-0.568c0.494,0,0.853,0.014,1.074,0.037
		c0.222,0.025,0.555,0.074,0.999,0.145V208.529z"/>
	<path fill="#FFFFFF" d="M376.502,213.887c0,2.756-0.707,4.93-2.119,6.525c-1.413,1.594-3.306,2.391-5.677,2.391
		c-2.392,0-4.291-0.797-5.699-2.391c-1.407-1.596-2.111-3.77-2.111-6.525c0-2.754,0.704-4.932,2.111-6.531
		c1.408-1.6,3.308-2.398,5.699-2.398c2.371,0,4.264,0.799,5.677,2.398C375.795,208.955,376.502,211.133,376.502,213.887z
		 M373.565,213.887c0-2.189-0.429-3.816-1.286-4.881s-2.049-1.598-3.572-1.598c-1.544,0-2.742,0.533-3.595,1.598
		c-0.854,1.064-1.279,2.691-1.279,4.881c0,2.119,0.429,3.727,1.287,4.822c0.857,1.094,2.053,1.643,3.587,1.643
		c1.514,0,2.702-0.543,3.564-1.629C373.134,217.639,373.565,216.027,373.565,213.887z"/>
	<path fill="#FFFFFF" d="M405.579,222.334h-2.846v-9.627c0-0.727-0.032-1.428-0.098-2.104c-0.066-0.678-0.205-1.217-0.416-1.621
		c-0.232-0.434-0.565-0.762-1-0.982c-0.434-0.223-1.059-0.334-1.877-0.334c-0.797,0-1.594,0.199-2.391,0.598
		c-0.798,0.398-1.595,0.906-2.393,1.521c0.031,0.232,0.056,0.502,0.076,0.811c0.021,0.307,0.03,0.613,0.03,0.916v10.822h-2.846
		v-9.627c0-0.748-0.033-1.455-0.099-2.127s-0.204-1.209-0.416-1.611c-0.232-0.436-0.565-0.76-0.999-0.977s-1.06-0.326-1.877-0.326
		c-0.777,0-1.557,0.191-2.339,0.576c-0.782,0.383-1.562,0.871-2.338,1.467v12.625h-2.846v-16.908h2.846v1.877
		c0.888-0.736,1.772-1.313,2.656-1.725c0.883-0.414,1.824-0.621,2.822-0.621c1.15,0,2.127,0.242,2.93,0.727
		c0.802,0.484,1.4,1.154,1.793,2.014c1.15-0.969,2.2-1.668,3.148-2.098c0.949-0.428,1.963-0.643,3.043-0.643
		c1.856,0,3.227,0.563,4.109,1.688s1.324,2.697,1.324,4.715V222.334z"/>
	<path fill="#FFFFFF" d="M436.094,222.334h-2.846v-9.627c0-0.777-0.045-1.506-0.135-2.188c-0.092-0.682-0.258-1.213-0.5-1.598
		c-0.252-0.424-0.616-0.738-1.089-0.945c-0.475-0.207-1.09-0.311-1.848-0.311c-0.776,0-1.589,0.191-2.437,0.576
		c-0.848,0.383-1.66,0.871-2.437,1.467v12.625h-2.846v-16.908h2.846v1.877c0.888-0.736,1.806-1.313,2.754-1.725
		c0.949-0.414,1.923-0.621,2.922-0.621c1.826,0,3.218,0.549,4.177,1.65c0.959,1.1,1.438,2.684,1.438,4.752V222.334z"/>
	<path fill="#FFFFFF" d="M455.727,214.176H443.27c0,1.039,0.156,1.943,0.469,2.717c0.313,0.771,0.742,1.404,1.287,1.898
		c0.525,0.484,1.148,0.848,1.869,1.09s1.516,0.363,2.385,0.363c1.15,0,2.309-0.229,3.473-0.688c1.166-0.459,1.996-0.912,2.49-1.355
		h0.152v3.104c-0.959,0.402-1.938,0.742-2.938,1.014c-0.998,0.273-2.049,0.408-3.148,0.408c-2.805,0-4.994-0.758-6.568-2.277
		s-2.361-3.676-2.361-6.471c0-2.766,0.754-4.961,2.262-6.584c1.51-1.625,3.494-2.438,5.957-2.438c2.281,0,4.039,0.666,5.275,1.998
		s1.854,3.225,1.854,5.676V214.176z M452.957,211.996c-0.01-1.494-0.387-2.65-1.127-3.467c-0.742-0.818-1.871-1.227-3.385-1.227
		c-1.523,0-2.736,0.449-3.639,1.348c-0.904,0.898-1.416,2.014-1.537,3.346H452.957z"/>
	<path fill="#FFFFFF" d="M481.309,205.426l-4.406,16.908h-2.633l-4.344-13.033l-4.314,13.033h-2.619l-4.449-16.908h2.967
		l3.102,13.094l4.225-13.094h2.346l4.328,13.094l2.938-13.094H481.309z"/>
	<path fill="#FFFFFF" d="M494.189,222.182c-0.535,0.143-1.117,0.258-1.748,0.35c-0.631,0.09-1.193,0.135-1.688,0.135
		c-1.727,0-3.037-0.463-3.936-1.393c-0.898-0.928-1.348-2.416-1.348-4.465v-8.99h-1.922v-2.393h1.922v-4.859h2.846v4.859h5.873
		v2.393h-5.873v7.703c0,0.889,0.02,1.582,0.061,2.082s0.182,0.967,0.424,1.4c0.223,0.402,0.527,0.699,0.916,0.885
		c0.389,0.188,0.98,0.281,1.777,0.281c0.465,0,0.949-0.068,1.453-0.205c0.506-0.137,0.869-0.25,1.09-0.34h0.152V222.182z"/>
	<path fill="#FFFFFF" d="M512.037,213.887c0,2.756-0.707,4.93-2.119,6.525c-1.414,1.594-3.307,2.391-5.678,2.391
		c-2.391,0-4.291-0.797-5.699-2.391c-1.406-1.596-2.111-3.77-2.111-6.525c0-2.754,0.705-4.932,2.111-6.531
		c1.408-1.6,3.309-2.398,5.699-2.398c2.371,0,4.264,0.799,5.678,2.398C511.33,208.955,512.037,211.133,512.037,213.887z
		 M509.1,213.887c0-2.189-0.43-3.816-1.287-4.881s-2.049-1.598-3.572-1.598c-1.543,0-2.742,0.533-3.594,1.598
		c-0.854,1.064-1.279,2.691-1.279,4.881c0,2.119,0.428,3.727,1.287,4.822c0.857,1.094,2.053,1.643,3.586,1.643
		c1.514,0,2.703-0.543,3.564-1.629C508.668,217.639,509.1,216.027,509.1,213.887z"/>
	<path fill="#FFFFFF" d="M530.578,222.334h-2.846v-9.627c0-0.777-0.045-1.506-0.137-2.188c-0.09-0.682-0.256-1.213-0.498-1.598
		c-0.254-0.424-0.617-0.738-1.09-0.945c-0.475-0.207-1.09-0.311-1.848-0.311c-0.777,0-1.59,0.191-2.438,0.576
		c-0.848,0.383-1.66,0.871-2.436,1.467v12.625h-2.846v-16.908h2.846v1.877c0.887-0.736,1.805-1.313,2.754-1.725
		c0.949-0.414,1.922-0.621,2.922-0.621c1.826,0,3.219,0.549,4.178,1.65c0.959,1.1,1.438,2.684,1.438,4.752V222.334z"/>
	<path fill="#FFFFFF" d="M548.137,217.459c0,1.545-0.639,2.811-1.914,3.801c-1.277,0.988-3.02,1.482-5.23,1.482
		c-1.252,0-2.398-0.148-3.443-0.447c-1.045-0.297-1.92-0.623-2.627-0.975v-3.195h0.152c0.898,0.676,1.896,1.215,2.996,1.613
		s2.154,0.598,3.164,0.598c1.252,0,2.23-0.203,2.938-0.605c0.705-0.404,1.059-1.039,1.059-1.908c0-0.666-0.191-1.17-0.574-1.514
		c-0.385-0.342-1.121-0.635-2.211-0.877c-0.404-0.092-0.932-0.197-1.582-0.318s-1.244-0.252-1.777-0.393
		c-1.484-0.395-2.537-0.973-3.156-1.734c-0.621-0.762-0.932-1.697-0.932-2.807c0-0.697,0.145-1.354,0.432-1.969
		s0.725-1.166,1.309-1.65c0.566-0.475,1.285-0.85,2.158-1.127c0.871-0.277,1.848-0.416,2.928-0.416c1.01,0,2.031,0.123,3.066,0.371
		c1.033,0.246,1.895,0.547,2.58,0.9v3.043h-0.15c-0.727-0.535-1.611-0.986-2.65-1.355s-2.059-0.553-3.057-0.553
		c-1.039,0-1.918,0.199-2.635,0.598s-1.074,0.992-1.074,1.779c0,0.695,0.217,1.221,0.65,1.574c0.424,0.354,1.111,0.641,2.059,0.863
		c0.525,0.121,1.113,0.242,1.764,0.363s1.193,0.23,1.627,0.332c1.322,0.303,2.342,0.822,3.059,1.559
		C547.779,215.24,548.137,216.229,548.137,217.459z"/>
	<path fill="#FFFFFF" d="M571.887,222.182c-0.535,0.143-1.117,0.258-1.748,0.35c-0.631,0.09-1.193,0.135-1.688,0.135
		c-1.727,0-3.037-0.463-3.936-1.393c-0.898-0.928-1.348-2.416-1.348-4.465v-8.99h-1.922v-2.393h1.922v-4.859h2.846v4.859h5.873
		v2.393h-5.873v7.703c0,0.889,0.02,1.582,0.061,2.082s0.182,0.967,0.424,1.4c0.223,0.402,0.527,0.699,0.916,0.885
		c0.389,0.188,0.98,0.281,1.777,0.281c0.465,0,0.949-0.068,1.453-0.205c0.506-0.137,0.869-0.25,1.09-0.34h0.152V222.182z"/>
	<path fill="#FFFFFF" d="M589.732,213.887c0,2.756-0.707,4.93-2.119,6.525c-1.412,1.594-3.305,2.391-5.676,2.391
		c-2.393,0-4.291-0.797-5.699-2.391c-1.408-1.596-2.111-3.77-2.111-6.525c0-2.754,0.703-4.932,2.111-6.531s3.307-2.398,5.699-2.398
		c2.371,0,4.264,0.799,5.676,2.398S589.732,211.133,589.732,213.887z M586.795,213.887c0-2.189-0.428-3.816-1.285-4.881
		s-2.049-1.598-3.572-1.598c-1.545,0-2.742,0.533-3.596,1.598s-1.279,2.691-1.279,4.881c0,2.119,0.43,3.727,1.287,4.822
		c0.857,1.094,2.053,1.643,3.588,1.643c1.514,0,2.701-0.543,3.564-1.629C586.365,217.639,586.795,216.027,586.795,213.887z"/>
	<path fill="#FFFFFF" d="M618.75,222.334h-2.846v-1.771c-0.816,0.707-1.67,1.256-2.559,1.65c-0.887,0.393-1.852,0.59-2.891,0.59
		c-2.018,0-3.621-0.777-4.807-2.33c-1.186-1.555-1.777-3.709-1.777-6.465c0-1.432,0.203-2.709,0.613-3.828
		c0.408-1.121,0.961-2.074,1.656-2.861c0.688-0.768,1.486-1.354,2.4-1.756c0.912-0.404,1.859-0.605,2.838-0.605
		c0.887,0,1.674,0.094,2.361,0.279c0.686,0.188,1.408,0.477,2.164,0.871v-7.327h2.846V222.334z M615.904,218.172v-9.703
		c-0.768-0.344-1.453-0.58-2.059-0.711c-0.605-0.133-1.266-0.197-1.982-0.197c-1.596,0-2.836,0.555-3.725,1.664
		c-0.887,1.111-1.332,2.686-1.332,4.723c0,2.008,0.344,3.535,1.029,4.58c0.688,1.043,1.787,1.566,3.301,1.566
		c0.807,0,1.625-0.18,2.451-0.537C614.416,219.197,615.188,218.736,615.904,218.172z"/>
	<path fill="#FFFFFF" d="M638.973,205.426l-9.869,23.145h-3.043l3.148-7.055l-6.734-16.09h3.088l5.191,12.533l5.236-12.533H638.973z
		"/>
	<path fill="#FFFFFF" d="M656.834,222.334h-2.846v-9.627c0-0.777-0.045-1.506-0.137-2.188c-0.09-0.682-0.256-1.213-0.498-1.598
		c-0.254-0.424-0.617-0.738-1.09-0.945c-0.475-0.207-1.09-0.311-1.848-0.311c-0.777,0-1.59,0.191-2.438,0.576
		c-0.848,0.383-1.66,0.871-2.436,1.467v12.625h-2.846v-16.908h2.846v1.877c0.887-0.736,1.805-1.313,2.754-1.725
		c0.949-0.414,1.922-0.621,2.922-0.621c1.826,0,3.219,0.549,4.178,1.65c0.959,1.1,1.438,2.684,1.438,4.752V222.334z"/>
	<path fill="#FFFFFF" d="M676.467,214.176H664.01c0,1.039,0.156,1.943,0.469,2.717c0.313,0.771,0.742,1.404,1.287,1.898
		c0.523,0.484,1.146,0.848,1.869,1.09c0.721,0.242,1.516,0.363,2.383,0.363c1.15,0,2.309-0.229,3.475-0.688s1.996-0.912,2.49-1.355
		h0.15v3.104c-0.959,0.402-1.938,0.742-2.936,1.014c-1,0.273-2.049,0.408-3.148,0.408c-2.807,0-4.996-0.758-6.57-2.277
		s-2.361-3.676-2.361-6.471c0-2.766,0.754-4.961,2.264-6.584c1.508-1.625,3.494-2.438,5.957-2.438c2.279,0,4.037,0.666,5.273,1.998
		s1.855,3.225,1.855,5.676V214.176z M673.697,211.996c-0.012-1.494-0.387-2.65-1.129-3.467c-0.742-0.818-1.869-1.227-3.383-1.227
		c-1.523,0-2.738,0.449-3.641,1.348s-1.414,2.014-1.535,3.346H673.697z"/>
	<path fill="#FFFFFF" d="M692.859,217.459c0,1.545-0.639,2.811-1.914,3.801c-1.277,0.988-3.02,1.482-5.23,1.482
		c-1.252,0-2.398-0.148-3.443-0.447c-1.045-0.297-1.92-0.623-2.627-0.975v-3.195h0.152c0.898,0.676,1.896,1.215,2.996,1.613
		s2.154,0.598,3.164,0.598c1.252,0,2.23-0.203,2.938-0.605c0.705-0.404,1.059-1.039,1.059-1.908c0-0.666-0.191-1.17-0.574-1.514
		c-0.385-0.342-1.121-0.635-2.211-0.877c-0.404-0.092-0.932-0.197-1.582-0.318s-1.244-0.252-1.777-0.393
		c-1.484-0.395-2.537-0.973-3.156-1.734c-0.621-0.762-0.932-1.697-0.932-2.807c0-0.697,0.145-1.354,0.432-1.969
		s0.725-1.166,1.309-1.65c0.566-0.475,1.285-0.85,2.158-1.127c0.871-0.277,1.848-0.416,2.928-0.416c1.01,0,2.031,0.123,3.066,0.371
		c1.033,0.246,1.895,0.547,2.58,0.9v3.043h-0.15c-0.727-0.535-1.611-0.986-2.65-1.355s-2.059-0.553-3.057-0.553
		c-1.039,0-1.918,0.199-2.635,0.598s-1.074,0.992-1.074,1.779c0,0.695,0.217,1.221,0.65,1.574c0.424,0.354,1.111,0.641,2.059,0.863
		c0.525,0.121,1.113,0.242,1.764,0.363s1.193,0.23,1.627,0.332c1.322,0.303,2.342,0.822,3.059,1.559
		C692.502,215.24,692.859,216.229,692.859,217.459z"/>
	<path fill="#FFFFFF" d="M705.469,213.676c0,3.037-0.496,5.768-1.484,8.189s-2.377,4.656-4.162,6.705h-3.467v-0.152
		c0.777-0.695,1.557-1.547,2.338-2.551c0.783-1.004,1.471-2.125,2.066-3.367c0.627-1.291,1.123-2.654,1.492-4.086
		c0.367-1.434,0.553-3.014,0.553-4.738c0-1.656-0.188-3.23-0.561-4.723c-0.373-1.494-0.869-2.861-1.484-4.102
		c-0.635-1.283-1.324-2.405-2.066-3.369c-0.74-0.964-1.52-1.814-2.338-2.551v-0.151h3.467c1.785,2.049,3.174,4.283,4.162,6.706
		C704.973,207.908,705.469,210.639,705.469,213.676z"/>
</g>
</svg>
