<?xml version="1.0" encoding="utf-8"?>
<!-- Generator: Adobe Illustrator 16.0.0, SVG Export Plug-In . SVG Version: 6.00 Build 0)  -->
<!DOCTYPE svg PUBLIC "-//W3C//DTD SVG 1.1//EN" "http://www.w3.org/Graphics/SVG/1.1/DTD/svg11.dtd">
<svg version="1.1" id="Layer_3" xmlns="http://www.w3.org/2000/svg" xmlns:xlink="http://www.w3.org/1999/xlink" x="0px" y="0px"
	 width="1072px" height="243px" viewBox="0 0 1072 243" enable-background="new 0 0 1072 243" xml:space="preserve">
<g id="step11White">
	<path fill="#291159" fill-opacity="0.8" stroke="#FFFFFF" stroke-width="3" stroke-miterlimit="10" d="M1072,231
		c0,6.627-5.373,12-12,12H12c-6.627,0-12-5.373-12-12V12C0,5.373,5.373,0,12,0h1048c6.627,0,12,5.373,12,12V231z"/>
	<g enable-background="new    ">
		<path fill="#FFFFFF" d="M147.093,111.014c-1.23,0.566-2.576,1.061-4.034,1.479s-2.867,0.629-4.229,0.629
			c-1.756,0-3.366-0.242-4.829-0.729c-1.463-0.482-2.709-1.211-3.739-2.18c-1.04-0.98-1.842-2.203-2.406-3.672
			c-0.565-1.469-0.849-3.186-0.849-5.154c0-3.602,1.052-6.444,3.156-8.529c2.104-2.084,4.993-3.125,8.666-3.125
			c1.281,0,2.591,0.154,3.928,0.462s2.778,0.829,4.322,1.565v3.559h-0.272c-0.313-0.242-0.767-0.561-1.361-0.954
			c-0.597-0.394-1.182-0.722-1.756-0.983c-0.696-0.313-1.486-0.572-2.369-0.779s-1.886-0.311-3.005-0.311
			c-2.523,0-4.52,0.811-5.986,2.43c-1.469,1.619-2.203,3.813-2.203,6.578c0,2.916,0.767,5.183,2.301,6.802
			c1.534,1.621,3.623,2.43,6.268,2.43c0.969,0,1.935-0.096,2.898-0.287c0.963-0.191,1.81-0.439,2.535-0.742v-5.523h-6.04v-2.634
			h9.006V111.014L147.093,111.014z"/>
		<path fill="#FFFFFF" d="M177.316,100.842h-17.951v-2.421h17.951V100.842z M177.316,107.199h-17.951v-2.422h17.951V107.199z"/>
		<path fill="#FFFFFF" d="M209.951,105.369c0,2.289-0.754,4.16-2.263,5.607c-1.51,1.447-3.357,2.172-5.549,2.172
			c-1.108,0-2.118-0.172-3.026-0.514c-0.908-0.344-1.71-0.854-2.406-1.529c-0.868-0.838-1.536-1.947-2.006-3.33
			c-0.469-1.383-0.703-3.049-0.703-4.996c0-1.998,0.214-3.767,0.643-5.312c0.43-1.543,1.113-2.916,2.052-4.117
			c0.889-1.141,2.033-2.03,3.437-2.672c1.403-0.641,3.037-0.961,4.904-0.961c0.596,0,1.095,0.024,1.499,0.075
			c0.402,0.052,0.812,0.142,1.226,0.272v2.892h-0.15c-0.282-0.151-0.709-0.296-1.279-0.433s-1.152-0.204-1.748-0.204
			c-2.17,0-3.9,0.68-5.191,2.036c-1.292,1.356-2.044,3.19-2.256,5.502c0.849-0.516,1.684-0.905,2.505-1.174
			c0.822-0.267,1.773-0.399,2.854-0.399c0.959,0,1.804,0.088,2.535,0.265c0.73,0.178,1.48,0.532,2.248,1.067
			c0.888,0.616,1.557,1.394,2.006,2.331C209.726,102.887,209.951,104.025,209.951,105.369z M206.879,105.49
			c0-0.939-0.139-1.717-0.416-2.332c-0.278-0.615-0.733-1.15-1.37-1.603c-0.464-0.324-0.979-0.535-1.544-0.638
			c-0.564-0.103-1.155-0.149-1.771-0.149c-0.857,0-1.654,0.1-2.392,0.303c-0.736,0.201-1.494,0.514-2.271,0.937
			c-0.021,0.223-0.035,0.439-0.045,0.645c-0.01,0.207-0.017,0.467-0.017,0.779c0,1.596,0.164,2.854,0.492,3.775
			c0.328,0.924,0.779,1.652,1.355,2.188c0.464,0.443,0.966,0.771,1.506,0.979c0.539,0.207,1.127,0.311,1.764,0.311
			c1.463,0,2.613-0.447,3.451-1.34C206.46,108.449,206.879,107.164,206.879,105.49z"/>
		<path fill="#FFFFFF" d="M219.079,112.68h-3.617v-4.313h3.617V112.68z"/>
		<path fill="#FFFFFF" d="M240.936,105.369c0,2.289-0.754,4.16-2.263,5.607s-3.356,2.172-5.548,2.172
			c-1.109,0-2.119-0.172-3.027-0.514c-0.907-0.344-1.71-0.854-2.405-1.529c-0.868-0.838-1.536-1.947-2.007-3.33
			c-0.469-1.383-0.702-3.049-0.702-4.996c0-1.998,0.214-3.767,0.643-5.312c0.429-1.543,1.113-2.916,2.051-4.117
			c0.89-1.141,2.034-2.03,3.438-2.672c1.402-0.641,3.037-0.961,4.903-0.961c0.597,0,1.096,0.024,1.499,0.075
			c0.403,0.052,0.813,0.142,1.227,0.272v2.892h-0.151c-0.282-0.151-0.709-0.296-1.278-0.433c-0.57-0.137-1.152-0.204-1.748-0.204
			c-2.171,0-3.9,0.68-5.191,2.036c-1.292,1.356-2.044,3.19-2.256,5.502c0.848-0.516,1.683-0.905,2.505-1.174
			c0.822-0.267,1.773-0.399,2.854-0.399c0.959,0,1.805,0.088,2.535,0.265c0.731,0.178,1.481,0.532,2.248,1.067
			c0.889,0.616,1.558,1.394,2.006,2.331C240.712,102.887,240.936,104.025,240.936,105.369z M237.864,105.49
			c0-0.939-0.14-1.717-0.416-2.332c-0.278-0.615-0.734-1.15-1.37-1.603c-0.464-0.324-0.979-0.535-1.544-0.638
			c-0.565-0.103-1.155-0.149-1.771-0.149c-0.856,0-1.653,0.1-2.391,0.303c-0.737,0.201-1.494,0.514-2.271,0.937
			c-0.02,0.223-0.034,0.439-0.045,0.645c-0.01,0.207-0.016,0.467-0.016,0.779c0,1.596,0.164,2.854,0.492,3.775
			c0.328,0.924,0.779,1.652,1.354,2.188c0.464,0.443,0.967,0.771,1.506,0.979s1.128,0.311,1.765,0.311
			c1.463,0,2.613-0.447,3.451-1.34C237.445,108.449,237.864,107.164,237.864,105.49z"/>
		<path fill="#FFFFFF" d="M260.373,93.516L250.17,112.68h-3.238l10.854-19.889h-12.836v-2.649h15.425L260.373,93.516L260.373,93.516
			z"/>
		<path fill="#FFFFFF" d="M290.661,112.68h-3.588l-4.798-6.494l-4.829,6.494h-3.314l6.601-8.432l-6.539-8.476h3.588l4.768,6.388
			l4.783-6.388h3.33l-6.646,8.326L290.661,112.68z"/>
		<path fill="#FFFFFF" d="M318.876,112.68h-12.2v-2.301h4.692V95.272h-4.692v-2.059c0.637,0,1.317-0.053,2.045-0.158
			c0.727-0.105,1.275-0.261,1.648-0.461c0.464-0.254,0.83-0.574,1.098-0.963c0.268-0.388,0.422-0.91,0.463-1.566h2.346v20.314h4.602
			L318.876,112.68L318.876,112.68z"/>
		<path fill="#FFFFFF" d="M339.84,101.403c0,4.046-0.633,7.015-1.898,8.908s-3.231,2.838-5.896,2.838
			c-2.704,0-4.68-0.959-5.926-2.875c-1.247-1.918-1.869-4.865-1.869-8.839c0-4.008,0.63-6.967,1.893-8.879
			c1.262-1.912,3.229-2.867,5.902-2.867c2.704,0,4.681,0.971,5.927,2.912C339.217,94.543,339.84,97.477,339.84,101.403z
			 M335.859,108.275c0.354-0.818,0.593-1.779,0.719-2.885s0.189-2.434,0.189-3.988c0-1.534-0.063-2.866-0.189-3.997
			c-0.126-1.13-0.371-2.089-0.734-2.875c-0.353-0.777-0.835-1.363-1.444-1.757c-0.61-0.395-1.396-0.59-2.354-0.59
			c-0.947,0-1.732,0.195-2.354,0.59c-0.621,0.394-1.113,0.988-1.478,1.785c-0.343,0.748-0.576,1.722-0.702,2.922
			c-0.128,1.201-0.189,2.519-0.189,3.953c0,1.574,0.056,2.89,0.166,3.949c0.111,1.061,0.349,2.008,0.712,2.846
			c0.333,0.787,0.805,1.389,1.415,1.803c0.61,0.412,1.421,0.619,2.43,0.619c0.948,0,1.735-0.195,2.361-0.59
			C335.032,109.668,335.517,109.072,335.859,108.275z"/>
		<path fill="#FFFFFF" d="M348.74,92.407h-5.506v-1.598h5.506V92.407z"/>
		<path fill="#FFFFFF" d="M360.504,93.695c0,1.136-0.441,2.079-1.328,2.833c-0.886,0.753-1.998,1.129-3.34,1.129
			c-1.424,0-2.558-0.367-3.401-1.104c-0.845-0.734-1.268-1.677-1.268-2.824c0-0.729,0.212-1.389,0.637-1.98
			c0.424-0.591,1.021-1.061,1.79-1.406v-0.054c-0.704-0.377-1.228-0.788-1.564-1.235c-0.339-0.447-0.508-1.007-0.508-1.677
			c0-0.987,0.406-1.813,1.218-2.472s1.845-0.988,3.098-0.988c1.313,0,2.358,0.314,3.143,0.944c0.782,0.63,1.174,1.43,1.174,2.399
			c0,0.596-0.187,1.18-0.557,1.752c-0.37,0.573-0.915,1.022-1.633,1.346v0.054c0.823,0.354,1.452,0.789,1.889,1.308
			C360.288,92.237,360.504,92.895,360.504,93.695z M358.687,93.863c0-0.542-0.119-0.976-0.357-1.302
			c-0.238-0.328-0.705-0.654-1.398-0.984c-0.276-0.129-0.579-0.25-0.908-0.361c-0.33-0.111-0.77-0.268-1.315-0.468
			c-0.528,0.288-0.954,0.679-1.274,1.174c-0.32,0.494-0.48,1.054-0.48,1.677c0,0.795,0.273,1.451,0.82,1.969
			s1.241,0.775,2.083,0.775c0.857,0,1.546-0.221,2.061-0.662C358.432,95.24,358.687,94.633,358.687,93.863z M358.412,87.279
			c0-0.63-0.242-1.132-0.728-1.505s-1.104-0.561-1.857-0.561c-0.741,0-1.349,0.178-1.822,0.529c-0.473,0.352-0.711,0.829-0.711,1.43
			c0,0.424,0.119,0.79,0.357,1.1c0.238,0.309,0.599,0.584,1.081,0.824c0.218,0.105,0.531,0.244,0.939,0.416
			c0.408,0.17,0.808,0.312,1.195,0.422c0.582-0.388,0.985-0.791,1.209-1.209C358.301,88.309,358.412,87.827,358.412,87.279z"/>
		<path fill="#FFFFFF" d="M387.781,111.619c-0.948,0.455-1.849,0.809-2.701,1.061c-0.854,0.252-1.759,0.379-2.717,0.379
			c-1.222,0-2.342-0.18-3.361-0.539c-1.019-0.355-1.892-0.898-2.617-1.627c-0.736-0.727-1.308-1.645-1.711-2.754
			s-0.604-2.406-0.604-3.891c0-2.765,0.759-4.933,2.277-6.507c1.518-1.574,3.523-2.361,6.018-2.361c0.969,0,1.919,0.137,2.853,0.408
			c0.935,0.271,1.789,0.605,2.565,0.999v3.163h-0.15c-0.867-0.676-1.764-1.195-2.688-1.559c-0.923-0.363-1.824-0.545-2.701-0.545
			c-1.615,0-2.89,0.543-3.822,1.627c-0.934,1.084-1.399,2.675-1.399,4.775c0,2.039,0.456,3.605,1.37,4.699
			c0.913,1.096,2.196,1.643,3.853,1.643c0.574,0,1.16-0.074,1.756-0.227c0.596-0.15,1.13-0.348,1.604-0.59
			c0.414-0.213,0.803-0.438,1.166-0.674c0.362-0.236,0.649-0.441,0.863-0.613h0.149v3.133H387.781z"/>
		<path fill="#FFFFFF" d="M416.103,112.68h-2.847v-9.627c0-0.727-0.031-1.427-0.098-2.103c-0.066-0.678-0.205-1.217-0.416-1.621
			c-0.231-0.434-0.564-0.762-1-0.982c-0.434-0.224-1.059-0.334-1.877-0.334c-0.797,0-1.594,0.199-2.391,0.599
			c-0.799,0.397-1.596,0.905-2.394,1.521c0.031,0.232,0.057,0.502,0.076,0.811c0.021,0.308,0.03,0.613,0.03,0.916v10.822h-2.847
			v-9.627c0-0.748-0.032-1.455-0.099-2.126s-0.204-1.207-0.416-1.611c-0.231-0.436-0.564-0.76-0.999-0.978
			c-0.434-0.217-1.06-0.325-1.877-0.325c-0.777,0-1.557,0.191-2.339,0.575s-1.563,0.872-2.338,1.468v12.625h-2.846V95.77h2.846
			v1.877c0.888-0.735,1.771-1.312,2.656-1.725c0.883-0.414,1.823-0.621,2.821-0.621c1.15,0,2.127,0.242,2.931,0.728
			c0.802,0.483,1.399,1.155,1.793,2.014c1.149-0.969,2.199-1.668,3.147-2.097c0.949-0.43,1.963-0.645,3.043-0.645
			c1.856,0,3.228,0.563,4.109,1.688c0.883,1.126,1.324,2.696,1.324,4.715v10.975H416.103z"/>
		<path fill="#FFFFFF" d="M427.942,91.03c0.282,0.253,0.515,0.57,0.697,0.953c0.182,0.382,0.272,0.876,0.272,1.482
			c0,0.6-0.108,1.149-0.326,1.649s-0.523,0.937-0.918,1.306c-0.44,0.412-0.961,0.717-1.558,0.913
			c-0.598,0.197-1.252,0.296-1.964,0.296c-0.729,0-1.447-0.087-2.153-0.26c-0.706-0.174-1.285-0.363-1.738-0.568v-1.846h0.134
			c0.5,0.33,1.088,0.604,1.765,0.82c0.677,0.218,1.329,0.326,1.959,0.326c0.371,0,0.765-0.062,1.183-0.186
			c0.418-0.123,0.757-0.306,1.016-0.547c0.271-0.259,0.473-0.544,0.604-0.855c0.133-0.313,0.198-0.707,0.198-1.184
			c0-0.471-0.074-0.859-0.225-1.169c-0.151-0.31-0.357-0.552-0.622-0.728c-0.266-0.184-0.586-0.309-0.962-0.377
			c-0.378-0.066-0.782-0.101-1.219-0.101h-0.794v-1.466h0.617c0.896,0,1.607-0.188,2.141-0.561c0.532-0.373,0.799-0.92,0.799-1.638
			c0-0.317-0.067-0.596-0.202-0.834c-0.136-0.237-0.324-0.435-0.565-0.586c-0.253-0.153-0.522-0.26-0.812-0.317
			c-0.289-0.059-0.615-0.088-0.979-0.088c-0.56,0-1.152,0.1-1.783,0.299c-0.629,0.201-1.224,0.482-1.781,0.849h-0.088V84.77
			c0.417-0.207,0.975-0.396,1.672-0.569c0.696-0.173,1.372-0.261,2.024-0.261c0.643,0,1.206,0.06,1.694,0.177
			c0.488,0.118,0.93,0.308,1.323,0.565c0.424,0.281,0.743,0.623,0.962,1.022c0.218,0.399,0.327,0.868,0.327,1.403
			c0,0.729-0.259,1.365-0.772,1.91c-0.514,0.543-1.122,0.887-1.822,1.027v0.123c0.282,0.049,0.605,0.146,0.972,0.297
			C427.382,90.615,427.689,90.805,427.942,91.03z"/>
		<path fill="#FFFFFF" d="M454.188,89.126l-10.854,28.155h-2.618l10.809-28.155H454.188L454.188,89.126z"/>
		<path fill="#FFFFFF" d="M482.659,110.758c0,2.865-0.649,4.969-1.952,6.313c-1.302,1.342-3.305,2.014-6.009,2.014
			c-0.898,0-1.774-0.064-2.627-0.189c-0.854-0.127-1.692-0.305-2.521-0.537v-2.906h0.15c0.465,0.182,1.201,0.406,2.211,0.674
			c1.009,0.268,2.019,0.4,3.027,0.4c0.969,0,1.771-0.115,2.406-0.348c0.635-0.232,1.13-0.555,1.482-0.969
			c0.354-0.393,0.605-0.867,0.757-1.422c0.151-0.559,0.228-1.176,0.228-1.863v-1.543c-0.857,0.686-1.679,1.197-2.459,1.535
			c-0.782,0.34-1.779,0.508-2.99,0.508c-2.018,0-3.62-0.729-4.806-2.188c-1.187-1.457-1.778-3.516-1.778-6.168
			c0-1.453,0.204-2.708,0.613-3.763c0.407-1.054,0.966-1.965,1.672-2.731c0.656-0.717,1.453-1.272,2.393-1.673
			c0.938-0.398,1.871-0.598,2.8-0.598c0.979,0,1.8,0.099,2.46,0.295s1.359,0.496,2.097,0.899l0.182-0.728h2.664V110.758
			L482.659,110.758z M479.813,108.033v-9.218c-0.756-0.344-1.46-0.588-2.111-0.734c-0.649-0.146-1.299-0.219-1.945-0.219
			c-1.563,0-2.795,0.523-3.692,1.574c-0.897,1.049-1.348,2.572-1.348,4.57c0,1.896,0.334,3.336,0.999,4.314
			c0.666,0.979,1.771,1.469,3.314,1.469c0.828,0,1.658-0.16,2.49-0.479C478.354,108.994,479.118,108.566,479.813,108.033z"/>
		<path fill="#FFFFFF" d="M512.933,112.68h-2.847v-9.627c0-0.727-0.031-1.427-0.098-2.103c-0.066-0.678-0.205-1.217-0.416-1.621
			c-0.232-0.434-0.565-0.762-1-0.982c-0.434-0.224-1.059-0.334-1.877-0.334c-0.797,0-1.594,0.199-2.391,0.599
			c-0.799,0.397-1.596,0.905-2.394,1.521c0.031,0.232,0.056,0.502,0.076,0.811c0.021,0.308,0.03,0.613,0.03,0.916v10.822h-2.847
			v-9.627c0-0.748-0.032-1.455-0.099-2.126s-0.204-1.207-0.416-1.611c-0.232-0.436-0.565-0.76-0.999-0.978
			c-0.434-0.217-1.06-0.325-1.877-0.325c-0.777,0-1.557,0.191-2.339,0.575s-1.563,0.872-2.338,1.468v12.625h-2.847V95.77h2.847
			v1.877c0.888-0.735,1.771-1.312,2.655-1.725c0.884-0.414,1.824-0.621,2.822-0.621c1.15,0,2.127,0.242,2.931,0.728
			c0.802,0.483,1.399,1.155,1.793,2.014c1.149-0.969,2.199-1.668,3.147-2.097c0.949-0.43,1.963-0.645,3.043-0.645
			c1.856,0,3.228,0.563,4.109,1.688c0.883,1.126,1.323,2.696,1.323,4.715v10.975H512.933z"/>
		<path fill="#FFFFFF" d="M541.39,107.805c0,1.545-0.639,2.813-1.914,3.801c-1.277,0.988-3.021,1.482-5.23,1.482
			c-1.251,0-2.397-0.148-3.442-0.447c-1.045-0.297-1.92-0.623-2.626-0.975v-3.195h0.15c0.898,0.676,1.897,1.215,2.997,1.613
			c1.101,0.398,2.154,0.598,3.163,0.598c1.252,0,2.23-0.203,2.938-0.604c0.705-0.404,1.059-1.039,1.059-1.908
			c0-0.666-0.191-1.17-0.574-1.514c-0.384-0.344-1.121-0.637-2.211-0.877c-0.402-0.094-0.931-0.197-1.581-0.318
			s-1.244-0.252-1.777-0.395c-1.484-0.395-2.536-0.973-3.156-1.732c-0.621-0.762-0.933-1.697-0.933-2.808
			c0-0.697,0.146-1.353,0.433-1.969c0.288-0.615,0.725-1.164,1.31-1.648c0.565-0.475,1.284-0.85,2.157-1.128
			c0.872-0.277,1.849-0.416,2.929-0.416c1.01,0,2.03,0.124,3.065,0.371c1.034,0.247,1.895,0.547,2.58,0.899v3.043h-0.15
			c-0.727-0.535-1.609-0.986-2.648-1.354s-2.06-0.554-3.059-0.554c-1.039,0-1.917,0.201-2.634,0.6s-1.075,0.99-1.075,1.779
			c0,0.695,0.218,1.221,0.651,1.574c0.424,0.353,1.109,0.64,2.059,0.863c0.524,0.121,1.112,0.242,1.765,0.363
			c0.649,0.121,1.192,0.229,1.627,0.332c1.321,0.303,2.341,0.82,3.058,1.559C541.032,105.586,541.39,106.574,541.39,107.805z"/>
		<path fill="#FFFFFF" d="M552.979,97.356h-8.896v-1.844c0.617-0.529,1.236-1.06,1.857-1.588c0.621-0.529,1.198-1.057,1.733-1.58
			c1.13-1.095,1.903-1.963,2.32-2.607c0.418-0.645,0.627-1.34,0.627-2.088c0-0.682-0.226-1.217-0.675-1.602
			c-0.45-0.386-1.078-0.578-1.885-0.578c-0.535,0-1.114,0.094-1.738,0.282c-0.623,0.188-1.232,0.478-1.826,0.865h-0.089v-1.854
			c0.418-0.205,0.977-0.395,1.673-0.563c0.697-0.171,1.372-0.256,2.025-0.256c1.347,0,2.402,0.323,3.168,0.975
			c0.765,0.65,1.146,1.531,1.146,2.644c0,0.5-0.063,0.967-0.188,1.398s-0.313,0.844-0.562,1.23
			c-0.229,0.365-0.497,0.724-0.808,1.076c-0.309,0.354-0.684,0.744-1.125,1.174c-0.629,0.617-1.279,1.217-1.95,1.797
			c-0.671,0.578-1.297,1.115-1.88,1.609h7.069v1.51H552.979z"/>
		<path fill="#FFFFFF" d="M582.166,100.842h-17.951v-2.421h17.951V100.842z M582.166,107.199h-17.951v-2.422h17.951V107.199z"/>
		<path fill="#FFFFFF" d="M618.601,111.014c-1.231,0.566-2.576,1.061-4.034,1.479s-2.868,0.629-4.23,0.629
			c-1.756,0-3.364-0.242-4.828-0.729c-1.464-0.482-2.71-1.211-3.738-2.18c-1.039-0.98-1.842-2.203-2.407-3.672
			c-0.564-1.469-0.848-3.186-0.848-5.154c0-3.602,1.053-6.444,3.155-8.529c2.104-2.084,4.993-3.125,8.666-3.125
			c1.281,0,2.592,0.154,3.929,0.462s2.776,0.829,4.321,1.565v3.559h-0.272c-0.313-0.242-0.768-0.561-1.361-0.954
			c-0.596-0.394-1.182-0.722-1.756-0.983c-0.697-0.313-1.486-0.572-2.369-0.779c-0.884-0.207-1.885-0.311-3.005-0.311
			c-2.521,0-4.519,0.811-5.986,2.43c-1.469,1.619-2.202,3.813-2.202,6.578c0,2.916,0.768,5.183,2.302,6.802
			c1.533,1.621,3.622,2.43,6.266,2.43c0.969,0,1.936-0.096,2.899-0.287c0.963-0.191,1.809-0.439,2.534-0.742v-5.523h-6.039v-2.634
			h9.007v9.669H618.601z"/>
		<path fill="#FFFFFF" d="M634.161,98.875h-0.151c-0.424-0.101-0.835-0.174-1.232-0.22c-0.399-0.045-0.87-0.067-1.415-0.067
			c-0.879,0-1.727,0.194-2.543,0.582c-0.818,0.39-1.605,0.892-2.361,1.507v12.003h-2.846V95.77h2.846v2.498
			c1.13-0.907,2.126-1.551,2.989-1.93c0.862-0.379,1.743-0.568,2.642-0.568c0.494,0,0.854,0.015,1.074,0.039
			c0.222,0.024,0.556,0.072,0.999,0.144L634.161,98.875L634.161,98.875z"/>
		<path fill="#FFFFFF" d="M649.434,112.68h-2.831v-1.801c-0.252,0.17-0.593,0.41-1.021,0.719c-0.43,0.309-0.846,0.555-1.249,0.734
			c-0.475,0.23-1.02,0.426-1.635,0.582s-1.337,0.234-2.164,0.234c-1.523,0-2.816-0.504-3.875-1.514
			c-1.061-1.01-1.59-2.295-1.59-3.859c0-1.281,0.273-2.318,0.825-3.111c0.55-0.791,1.334-1.414,2.354-1.869
			c1.029-0.453,2.267-0.762,3.708-0.923c1.443-0.16,2.992-0.281,4.647-0.363v-0.438c0-0.646-0.113-1.182-0.341-1.605
			c-0.228-0.425-0.554-0.757-0.978-0.998c-0.403-0.232-0.888-0.39-1.453-0.471c-0.563-0.081-1.155-0.121-1.771-0.121
			c-0.747,0-1.579,0.1-2.497,0.295c-0.919,0.197-1.867,0.482-2.847,0.855h-0.151v-2.893c0.556-0.149,1.356-0.316,2.407-0.498
			c1.05-0.183,2.084-0.272,3.103-0.272c1.191,0,2.229,0.099,3.111,0.295s1.646,0.532,2.293,1.007
			c0.636,0.465,1.12,1.064,1.453,1.803c0.333,0.735,0.5,1.648,0.5,2.738L649.434,112.68L649.434,112.68z M646.603,108.518v-4.709
			c-0.868,0.051-1.891,0.127-3.065,0.229c-1.176,0.1-2.105,0.246-2.793,0.438c-0.815,0.232-1.478,0.596-1.981,1.082
			c-0.506,0.49-0.758,1.164-0.758,2.021c0,0.969,0.293,1.697,0.878,2.188c0.585,0.492,1.479,0.734,2.681,0.734
			c0.998,0,1.912-0.195,2.739-0.584C645.129,109.529,645.896,109.063,646.603,108.518z"/>
		<path fill="#FFFFFF" d="M669.293,95.772l-6.842,16.908h-2.859l-6.797-16.908h3.088l5.236,13.457l5.192-13.457H669.293z"/>
		<path fill="#FFFFFF" d="M676.074,92.942h-3.209v-2.951h3.209V92.942z M675.893,112.68h-2.846V95.772h2.847L675.893,112.68
			L675.893,112.68z"/>
		<path fill="#FFFFFF" d="M690.303,112.527c-0.535,0.143-1.118,0.258-1.75,0.35c-0.631,0.09-1.192,0.135-1.688,0.135
			c-1.726,0-3.037-0.463-3.936-1.393c-0.898-0.928-1.348-2.416-1.348-4.465v-8.991h-1.923V95.77h1.923v-4.857h2.847v4.857h5.872
			v2.394h-5.872v7.704c0,0.889,0.02,1.582,0.061,2.082c0.04,0.5,0.182,0.967,0.424,1.4c0.222,0.402,0.526,0.699,0.915,0.885
			c0.389,0.188,0.981,0.281,1.778,0.281c0.465,0,0.949-0.068,1.453-0.205c0.505-0.137,0.868-0.25,1.09-0.34h0.151v2.557H690.303z"/>
		<path fill="#FFFFFF" d="M706.878,112.68h-2.831v-1.801c-0.252,0.17-0.593,0.41-1.021,0.719c-0.43,0.309-0.846,0.555-1.249,0.734
			c-0.475,0.23-1.021,0.426-1.635,0.582c-0.615,0.156-1.337,0.234-2.164,0.234c-1.524,0-2.816-0.504-3.875-1.514
			c-1.062-1.01-1.59-2.295-1.59-3.859c0-1.281,0.273-2.318,0.824-3.111c0.551-0.791,1.334-1.414,2.354-1.869
			c1.028-0.453,2.266-0.762,3.708-0.923c1.442-0.16,2.992-0.281,4.646-0.363v-0.438c0-0.646-0.112-1.182-0.341-1.605
			c-0.227-0.425-0.553-0.757-0.977-0.998c-0.403-0.232-0.889-0.39-1.453-0.471s-1.155-0.121-1.771-0.121
			c-0.747,0-1.579,0.1-2.497,0.295c-0.919,0.197-1.866,0.482-2.846,0.855h-0.152v-2.893c0.557-0.149,1.357-0.316,2.407-0.498
			c1.05-0.183,2.084-0.272,3.104-0.272c1.19,0,2.228,0.099,3.11,0.295c0.884,0.196,1.647,0.532,2.293,1.007
			c0.637,0.465,1.12,1.064,1.453,1.803c0.333,0.735,0.5,1.648,0.5,2.738L706.878,112.68L706.878,112.68z M704.047,108.518v-4.709
			c-0.867,0.051-1.89,0.127-3.064,0.229c-1.176,0.1-2.106,0.246-2.793,0.438c-0.816,0.232-1.479,0.596-1.982,1.082
			c-0.505,0.49-0.757,1.164-0.757,2.021c0,0.969,0.293,1.697,0.878,2.188c0.585,0.492,1.479,0.734,2.68,0.734
			c0.998,0,1.912-0.195,2.739-0.584C702.573,109.529,703.341,109.063,704.047,108.518z"/>
		<path fill="#FFFFFF" d="M721.137,112.527c-0.535,0.143-1.118,0.258-1.749,0.35c-0.632,0.09-1.193,0.135-1.688,0.135
			c-1.726,0-3.037-0.463-3.936-1.393c-0.898-0.928-1.348-2.416-1.348-4.465v-8.991h-1.923V95.77h1.923v-4.857h2.847v4.857h5.873
			v2.394h-5.873v7.704c0,0.889,0.02,1.582,0.061,2.082c0.04,0.5,0.182,0.967,0.424,1.4c0.223,0.402,0.526,0.699,0.915,0.885
			c0.389,0.188,0.981,0.281,1.778,0.281c0.465,0,0.949-0.068,1.453-0.205c0.505-0.137,0.868-0.25,1.09-0.34h0.152L721.137,112.527
			L721.137,112.527z"/>
		<path fill="#FFFFFF" d="M727.629,92.942h-3.209v-2.951h3.209V92.942z M727.447,112.68h-2.846V95.772h2.846V112.68z"/>
		<path fill="#FFFFFF" d="M747.49,104.232c0,2.756-0.707,4.93-2.119,6.525c-1.413,1.594-3.306,2.391-5.677,2.391
			c-2.392,0-4.291-0.797-5.699-2.391c-1.407-1.596-2.11-3.77-2.11-6.525c0-2.753,0.703-4.931,2.11-6.531
			c1.408-1.6,3.309-2.398,5.699-2.398c2.371,0,4.264,0.799,5.677,2.398C746.783,99.301,747.49,101.479,747.49,104.232z
			 M744.553,104.232c0-2.189-0.43-3.816-1.286-4.88c-0.857-1.064-2.05-1.598-3.572-1.598c-1.544,0-2.742,0.532-3.595,1.598
			c-0.854,1.064-1.279,2.691-1.279,4.88c0,2.119,0.429,3.727,1.287,4.822c0.856,1.094,2.053,1.643,3.587,1.643
			c1.514,0,2.702-0.543,3.563-1.629C744.122,107.984,744.553,106.373,744.553,104.232z"/>
		<path fill="#FFFFFF" d="M766.031,112.68h-2.846v-9.627c0-0.775-0.045-1.505-0.137-2.187c-0.091-0.682-0.257-1.213-0.499-1.598
			c-0.253-0.424-0.615-0.738-1.09-0.945c-0.475-0.206-1.09-0.311-1.848-0.311c-0.776,0-1.589,0.191-2.438,0.575
			c-0.848,0.384-1.659,0.872-2.437,1.468v12.625h-2.846V95.77h2.846v1.877c0.888-0.735,1.806-1.312,2.754-1.725
			c0.949-0.414,1.923-0.621,2.922-0.621c1.826,0,3.219,0.551,4.178,1.65s1.438,2.684,1.438,4.752L766.031,112.68L766.031,112.68z"/>
		<path fill="#FFFFFF" d="M784.65,112.68h-2.831v-1.801c-0.252,0.17-0.593,0.41-1.021,0.719c-0.43,0.309-0.846,0.555-1.249,0.734
			c-0.475,0.23-1.02,0.426-1.635,0.582s-1.337,0.234-2.164,0.234c-1.523,0-2.815-0.504-3.875-1.514
			c-1.061-1.01-1.59-2.295-1.59-3.859c0-1.281,0.274-2.318,0.825-3.111c0.55-0.791,1.334-1.414,2.354-1.869
			c1.029-0.453,2.267-0.762,3.708-0.923c1.443-0.16,2.992-0.281,4.647-0.363v-0.438c0-0.646-0.113-1.182-0.341-1.605
			c-0.228-0.425-0.554-0.757-0.978-0.998c-0.402-0.232-0.888-0.39-1.453-0.471c-0.563-0.081-1.154-0.121-1.771-0.121
			c-0.747,0-1.579,0.1-2.497,0.295c-0.919,0.197-1.867,0.482-2.846,0.855h-0.152v-2.893c0.556-0.149,1.357-0.316,2.407-0.498
			c1.05-0.183,2.084-0.272,3.103-0.272c1.191,0,2.229,0.099,3.111,0.295s1.646,0.532,2.293,1.007
			c0.636,0.465,1.12,1.064,1.453,1.803c0.333,0.735,0.5,1.648,0.5,2.738L784.65,112.68L784.65,112.68z M781.819,108.518v-4.709
			c-0.868,0.051-1.89,0.127-3.065,0.229c-1.176,0.1-2.105,0.246-2.793,0.438c-0.815,0.232-1.478,0.596-1.981,1.082
			c-0.505,0.49-0.757,1.164-0.757,2.021c0,0.969,0.293,1.697,0.878,2.188c0.585,0.492,1.479,0.734,2.68,0.734
			c0.998,0,1.912-0.195,2.739-0.584C780.346,109.529,781.113,109.063,781.819,108.518z"/>
		<path fill="#FFFFFF" d="M793.005,112.68h-2.846V89.127h2.846V112.68z"/>
		<path fill="#FFFFFF" d="M827.169,111.045c-0.555,0.242-1.058,0.469-1.506,0.682c-0.449,0.211-1.037,0.436-1.764,0.666
			c-0.615,0.191-1.284,0.355-2.006,0.49c-0.723,0.137-1.517,0.205-2.384,0.205c-1.636,0-3.121-0.23-4.458-0.689
			c-1.338-0.459-2.5-1.178-3.489-2.154c-0.969-0.959-1.726-2.18-2.271-3.656s-0.817-3.195-0.817-5.152
			c0-1.858,0.263-3.519,0.787-4.981s1.281-2.699,2.271-3.709c0.958-0.979,2.116-1.726,3.474-2.24
			c1.356-0.514,2.863-0.771,4.52-0.771c1.211,0,2.419,0.146,3.625,0.438c1.205,0.292,2.545,0.808,4.019,1.544v3.557h-0.228
			c-1.24-1.039-2.473-1.795-3.693-2.271c-1.221-0.475-2.526-0.711-3.92-0.711c-1.141,0-2.167,0.185-3.08,0.552
			c-0.914,0.369-1.729,0.941-2.445,1.719c-0.694,0.758-1.237,1.713-1.627,2.869c-0.389,1.154-0.582,2.489-0.582,4.004
			c0,1.583,0.215,2.945,0.644,4.085s0.981,2.068,1.658,2.785c0.706,0.746,1.53,1.299,2.475,1.658
			c0.943,0.357,1.939,0.537,2.989,0.537c1.443,0,2.795-0.248,4.057-0.742c1.263-0.494,2.442-1.236,3.542-2.225h0.212
			L827.169,111.045L827.169,111.045z"/>
		<path fill="#FFFFFF" d="M845.591,104.232c0,2.756-0.706,4.93-2.118,6.525c-1.413,1.594-3.307,2.391-5.678,2.391
			c-2.392,0-4.291-0.797-5.698-2.391c-1.407-1.596-2.111-3.77-2.111-6.525c0-2.753,0.704-4.931,2.111-6.531s3.308-2.398,5.698-2.398
			c2.371,0,4.265,0.799,5.678,2.398C844.885,99.301,845.591,101.479,845.591,104.232z M842.653,104.232
			c0-2.189-0.429-3.816-1.286-4.88s-2.049-1.598-3.572-1.598c-1.544,0-2.742,0.532-3.595,1.598c-0.854,1.064-1.279,2.691-1.279,4.88
			c0,2.119,0.43,3.727,1.287,4.822c0.857,1.094,2.054,1.643,3.587,1.643c1.515,0,2.702-0.543,3.564-1.629
			C842.223,107.984,842.653,106.373,842.653,104.232z"/>
		<path fill="#FFFFFF" d="M864.133,112.68h-2.846v-9.627c0-0.775-0.045-1.505-0.136-2.187s-0.257-1.213-0.499-1.598
			c-0.253-0.424-0.616-0.738-1.09-0.945c-0.476-0.206-1.09-0.311-1.849-0.311c-0.775,0-1.589,0.191-2.437,0.575
			c-0.849,0.384-1.66,0.872-2.438,1.468v12.625h-2.846V95.77h2.846v1.877c0.889-0.735,1.807-1.312,2.754-1.725
			c0.949-0.414,1.924-0.621,2.923-0.621c1.825,0,3.219,0.551,4.178,1.65s1.438,2.684,1.438,4.752L864.133,112.68L864.133,112.68z"/>
		<path fill="#FFFFFF" d="M881.691,107.805c0,1.545-0.638,2.813-1.914,3.801c-1.277,0.988-3.021,1.482-5.23,1.482
			c-1.251,0-2.397-0.148-3.442-0.447c-1.044-0.297-1.92-0.623-2.626-0.975v-3.195h0.15c0.898,0.676,1.897,1.215,2.997,1.613
			c1.101,0.398,2.154,0.598,3.163,0.598c1.252,0,2.23-0.203,2.938-0.604c0.706-0.404,1.059-1.039,1.059-1.908
			c0-0.666-0.19-1.17-0.573-1.514c-0.385-0.344-1.121-0.637-2.212-0.877c-0.402-0.094-0.931-0.197-1.581-0.318
			s-1.243-0.252-1.777-0.395c-1.484-0.395-2.536-0.973-3.156-1.732c-0.621-0.762-0.932-1.697-0.932-2.808
			c0-0.697,0.145-1.353,0.432-1.969c0.288-0.615,0.725-1.164,1.311-1.648c0.564-0.475,1.283-0.85,2.156-1.128
			c0.872-0.277,1.85-0.416,2.93-0.416c1.009,0,2.029,0.124,3.064,0.371c1.034,0.247,1.896,0.547,2.58,0.899v3.043h-0.15
			c-0.727-0.535-1.609-0.986-2.648-1.354s-2.06-0.554-3.059-0.554c-1.038,0-1.916,0.201-2.634,0.6
			c-0.717,0.398-1.075,0.99-1.075,1.779c0,0.695,0.219,1.221,0.651,1.574c0.424,0.353,1.11,0.64,2.06,0.863
			c0.523,0.121,1.111,0.242,1.764,0.363c0.65,0.121,1.193,0.229,1.627,0.332c1.322,0.303,2.341,0.82,3.058,1.559
			C881.334,105.586,881.691,106.574,881.691,107.805z"/>
		<path fill="#FFFFFF" d="M894.543,112.527c-0.535,0.143-1.117,0.258-1.749,0.35c-0.631,0.09-1.192,0.135-1.688,0.135
			c-1.727,0-3.037-0.463-3.937-1.393c-0.897-0.928-1.347-2.416-1.347-4.465v-8.991H883.9V95.77h1.923v-4.857h2.846v4.857h5.873
			v2.394h-5.873v7.704c0,0.889,0.021,1.582,0.062,2.082c0.04,0.5,0.182,0.967,0.424,1.4c0.222,0.402,0.526,0.699,0.915,0.885
			c0.389,0.188,0.981,0.281,1.778,0.281c0.465,0,0.948-0.068,1.453-0.205s0.867-0.25,1.09-0.34h0.151L894.543,112.527
			L894.543,112.527z"/>
		<path fill="#FFFFFF" d="M911.117,112.68h-2.831v-1.801c-0.252,0.17-0.593,0.41-1.021,0.719c-0.431,0.309-0.847,0.555-1.249,0.734
			c-0.476,0.23-1.021,0.426-1.636,0.582c-0.614,0.156-1.337,0.234-2.164,0.234c-1.523,0-2.815-0.504-3.875-1.514
			c-1.061-1.01-1.59-2.295-1.59-3.859c0-1.281,0.274-2.318,0.825-3.111c0.55-0.791,1.334-1.414,2.354-1.869
			c1.028-0.453,2.266-0.762,3.708-0.923c1.442-0.16,2.991-0.281,4.646-0.363v-0.438c0-0.646-0.113-1.182-0.341-1.605
			c-0.228-0.425-0.553-0.757-0.978-0.998c-0.402-0.232-0.888-0.39-1.452-0.471s-1.155-0.121-1.771-0.121
			c-0.747,0-1.579,0.1-2.497,0.295c-0.919,0.197-1.867,0.482-2.846,0.855h-0.152v-2.893c0.557-0.149,1.357-0.316,2.407-0.498
			c1.05-0.183,2.084-0.272,3.103-0.272c1.191,0,2.229,0.099,3.111,0.295s1.647,0.532,2.293,1.007
			c0.636,0.465,1.12,1.064,1.453,1.803c0.333,0.735,0.5,1.648,0.5,2.738L911.117,112.68L911.117,112.68z M908.286,108.518v-4.709
			c-0.868,0.051-1.89,0.127-3.064,0.229c-1.177,0.1-2.106,0.246-2.794,0.438c-0.815,0.232-1.478,0.596-1.981,1.082
			c-0.505,0.49-0.757,1.164-0.757,2.021c0,0.969,0.293,1.697,0.878,2.188c0.585,0.492,1.479,0.734,2.68,0.734
			c0.998,0,1.912-0.195,2.739-0.584C906.813,109.529,907.58,109.063,908.286,108.518z"/>
		<path fill="#FFFFFF" d="M930.734,112.68h-2.846v-9.627c0-0.775-0.045-1.505-0.137-2.187c-0.091-0.682-0.257-1.213-0.499-1.598
			c-0.253-0.424-0.616-0.738-1.09-0.945c-0.475-0.206-1.09-0.311-1.848-0.311c-0.776,0-1.589,0.191-2.438,0.575
			c-0.848,0.384-1.66,0.872-2.437,1.468v12.625h-2.847V95.77h2.847v1.877c0.888-0.735,1.806-1.312,2.754-1.725
			c0.949-0.414,1.923-0.621,2.922-0.621c1.826,0,3.219,0.551,4.178,1.65s1.438,2.684,1.438,4.752L930.734,112.68L930.734,112.68z"/>
		<path fill="#FFFFFF" d="M944.994,112.527c-0.535,0.143-1.118,0.258-1.749,0.35c-0.631,0.09-1.192,0.135-1.688,0.135
			c-1.727,0-3.037-0.463-3.937-1.393c-0.897-0.928-1.347-2.416-1.347-4.465v-8.991h-1.923V95.77h1.923v-4.857h2.846v4.857h5.873
			v2.394h-5.873v7.704c0,0.889,0.021,1.582,0.062,2.082c0.04,0.5,0.182,0.967,0.424,1.4c0.222,0.402,0.525,0.699,0.915,0.885
			c0.389,0.188,0.98,0.281,1.777,0.281c0.466,0,0.949-0.068,1.453-0.205c0.505-0.137,0.868-0.25,1.091-0.34h0.151L944.994,112.527
			L944.994,112.527z"/>
	</g>
</g>
</svg>
