<?xml version="1.0" encoding="utf-8"?>
<!-- Generator: Adobe Illustrator 16.0.0, SVG Export Plug-In . SVG Version: 6.00 Build 0)  -->
<!DOCTYPE svg PUBLIC "-//W3C//DTD SVG 1.1//EN" "http://www.w3.org/Graphics/SVG/1.1/DTD/svg11.dtd">
<svg version="1.1" id="Layer_3" xmlns="http://www.w3.org/2000/svg" xmlns:xlink="http://www.w3.org/1999/xlink" x="0px" y="0px"
	 width="719px" height="207px" viewBox="0 127 719 207" enable-background="new 0 127 719 207" xml:space="preserve">
<path fill="#291159" fill-opacity="0.8" stroke="#FFFFFF" stroke-width="3" stroke-miterlimit="10" d="M718.867,330.309
	c0,2.039-3.238,3.691-7.236,3.691H7.369c-3.996,0-7.236-1.652-7.236-3.691V130.69c0-2.04,3.24-3.69,7.236-3.69h704.262
	c3.998,0,7.236,1.651,7.236,3.69V330.309L718.867,330.309z"/>
<g id="step18White_1_">
	<g enable-background="new    ">
		<path fill="#FFFFFF" d="M136.794,181.025c0,0.998-0.174,1.925-0.522,2.777c-0.348,0.853-0.835,1.592-1.46,2.217
			c-0.777,0.777-1.695,1.36-2.755,1.749s-2.397,0.583-4.011,0.583h-2.997v8.4h-2.997v-22.539h6.115c1.352,0,2.498,0.114,3.436,0.341
			c0.938,0.228,1.771,0.583,2.498,1.067c0.857,0.575,1.521,1.292,1.99,2.149C136.56,178.627,136.794,179.712,136.794,181.025z
			 M133.676,181.1c0-0.777-0.136-1.453-0.409-2.028s-0.687-1.045-1.241-1.408c-0.484-0.313-1.037-0.537-1.658-0.673
			c-0.62-0.137-1.405-0.204-2.354-0.204h-2.967v9.006h2.528c1.211,0,2.195-0.108,2.952-0.325s1.372-0.563,1.847-1.037
			c0.474-0.484,0.81-0.994,1.007-1.528C133.578,182.367,133.676,181.766,133.676,181.1z"/>
		<path fill="#FFFFFF" d="M153.914,188.593h-12.458c0,1.039,0.156,1.944,0.469,2.717c0.313,0.771,0.742,1.405,1.287,1.899
			c0.524,0.484,1.148,0.848,1.87,1.09c0.721,0.242,1.516,0.363,2.384,0.363c1.15,0,2.309-0.229,3.474-0.688
			c1.166-0.459,1.996-0.911,2.49-1.355h0.151v3.104c-0.959,0.403-1.938,0.742-2.937,1.014c-0.999,0.273-2.049,0.409-3.148,0.409
			c-2.806,0-4.995-0.759-6.569-2.278c-1.574-1.519-2.361-3.676-2.361-6.471c0-2.765,0.754-4.96,2.263-6.584
			c1.509-1.625,3.494-2.438,5.957-2.438c2.28,0,4.039,0.666,5.275,1.998c1.236,1.332,1.854,3.225,1.854,5.676V188.593z
			 M151.144,186.414c-0.01-1.494-0.386-2.649-1.127-3.467c-0.742-0.817-1.87-1.227-3.383-1.227c-1.524,0-2.737,0.449-3.64,1.348
			c-0.903,0.898-1.416,2.014-1.537,3.346H151.144z"/>
		<path fill="#FFFFFF" d="M168.778,182.947h-0.151c-0.424-0.101-0.835-0.174-1.233-0.22c-0.399-0.045-0.871-0.067-1.416-0.067
			c-0.878,0-1.726,0.194-2.543,0.582c-0.817,0.389-1.604,0.891-2.361,1.506v12.004h-2.846v-16.908h2.846v2.498
			c1.13-0.908,2.126-1.552,2.99-1.93c0.862-0.379,1.743-0.568,2.641-0.568c0.494,0,0.853,0.014,1.075,0.038
			c0.222,0.025,0.555,0.073,0.999,0.144V182.947z"/>
		<path fill="#FFFFFF" d="M174.514,177.013h-3.209v-2.951h3.209V177.013z M174.333,196.751h-2.846v-16.908h2.846V196.751z"/>
		<path fill="#FFFFFF" d="M194.375,188.305c0,2.755-0.707,4.93-2.119,6.524c-1.413,1.594-3.306,2.391-5.677,2.391
			c-2.392,0-4.291-0.797-5.699-2.391c-1.407-1.595-2.111-3.77-2.111-6.524s0.704-4.932,2.111-6.531
			c1.408-1.6,3.308-2.399,5.699-2.399c2.371,0,4.264,0.8,5.677,2.399C193.668,183.374,194.375,185.55,194.375,188.305z
			 M191.438,188.305c0-2.189-0.429-3.816-1.286-4.882c-0.857-1.064-2.049-1.597-3.572-1.597c-1.544,0-2.742,0.532-3.595,1.597
			c-0.854,1.065-1.279,2.692-1.279,4.882c0,2.119,0.429,3.727,1.287,4.821c0.857,1.095,2.053,1.643,3.587,1.643
			c1.514,0,2.702-0.543,3.564-1.628C191.007,192.057,191.438,190.445,191.438,188.305z"/>
		<path fill="#FFFFFF" d="M212.493,196.751h-2.846v-1.771c-0.816,0.707-1.67,1.257-2.558,1.65s-1.852,0.59-2.892,0.59
			c-2.018,0-3.62-0.776-4.806-2.33c-1.186-1.555-1.778-3.709-1.778-6.464c0-1.433,0.204-2.71,0.613-3.829
			c0.408-1.121,0.961-2.074,1.657-2.861c0.687-0.767,1.485-1.353,2.399-1.756c0.913-0.403,1.859-0.605,2.838-0.605
			c0.888,0,1.675,0.094,2.361,0.28s1.408,0.477,2.164,0.87v-7.326h2.846V196.751z M209.647,192.589v-9.703
			c-0.767-0.343-1.453-0.58-2.059-0.711c-0.605-0.132-1.266-0.197-1.982-0.197c-1.595,0-2.836,0.555-3.724,1.665
			s-1.332,2.685-1.332,4.723c0,2.008,0.343,3.534,1.029,4.579c0.687,1.044,1.786,1.566,3.3,1.566c0.808,0,1.625-0.179,2.452-0.537
			S208.931,193.154,209.647,192.589z"/>
		<path fill="#FFFFFF" d="M243.403,188.305c0,2.755-0.707,4.93-2.119,6.524c-1.413,1.594-3.306,2.391-5.677,2.391
			c-2.392,0-4.291-0.797-5.699-2.391c-1.407-1.595-2.111-3.77-2.111-6.524s0.704-4.932,2.111-6.531
			c1.408-1.6,3.308-2.399,5.699-2.399c2.371,0,4.264,0.8,5.677,2.399C242.696,183.374,243.403,185.55,243.403,188.305z
			 M240.465,188.305c0-2.189-0.429-3.816-1.286-4.882c-0.857-1.064-2.049-1.597-3.572-1.597c-1.544,0-2.742,0.532-3.595,1.597
			c-0.854,1.065-1.279,2.692-1.279,4.882c0,2.119,0.429,3.727,1.287,4.821c0.857,1.095,2.053,1.643,3.587,1.643
			c1.514,0,2.702-0.543,3.564-1.628C240.035,192.057,240.465,190.445,240.465,188.305z"/>
		<path fill="#FFFFFF" d="M256.904,175.954h-0.151c-0.313-0.091-0.722-0.184-1.227-0.28c-0.504-0.096-0.948-0.144-1.332-0.144
			c-1.221,0-2.106,0.271-2.656,0.81c-0.55,0.54-0.824,1.517-0.824,2.93v0.574h5.131v2.393h-5.041v14.516h-2.846v-14.516h-1.922
			v-2.393h1.922v-0.56c0-2.008,0.5-3.55,1.499-4.624c0.999-1.075,2.442-1.612,4.329-1.612c0.636,0,1.208,0.03,1.718,0.091
			s0.977,0.131,1.4,0.212V175.954z"/>
		<path fill="#FFFFFF" d="M280.154,182.947h-0.151c-0.424-0.101-0.835-0.174-1.233-0.22c-0.399-0.045-0.87-0.067-1.415-0.067
			c-0.879,0-1.727,0.194-2.543,0.582c-0.818,0.389-1.605,0.891-2.361,1.506v12.004h-2.846v-16.908h2.846v2.498
			c1.13-0.908,2.126-1.552,2.989-1.93c0.862-0.379,1.743-0.568,2.642-0.568c0.494,0,0.853,0.014,1.074,0.038
			c0.222,0.025,0.555,0.073,0.999,0.144V182.947z"/>
		<path fill="#FFFFFF" d="M297.245,188.305c0,2.755-0.707,4.93-2.119,6.524c-1.413,1.594-3.306,2.391-5.677,2.391
			c-2.392,0-4.291-0.797-5.699-2.391c-1.407-1.595-2.111-3.77-2.111-6.524s0.704-4.932,2.111-6.531
			c1.408-1.6,3.308-2.399,5.699-2.399c2.371,0,4.264,0.8,5.677,2.399C296.538,183.374,297.245,185.55,297.245,188.305z
			 M294.307,188.305c0-2.189-0.429-3.816-1.286-4.882c-0.857-1.064-2.049-1.597-3.572-1.597c-1.544,0-2.742,0.532-3.595,1.597
			c-0.854,1.065-1.279,2.692-1.279,4.882c0,2.119,0.429,3.727,1.287,4.821c0.857,1.095,2.053,1.643,3.587,1.643
			c1.514,0,2.702-0.543,3.564-1.628C293.876,192.057,294.307,190.445,294.307,188.305z"/>
		<path fill="#FFFFFF" d="M310.428,196.6c-0.535,0.142-1.118,0.257-1.749,0.349c-0.631,0.09-1.193,0.136-1.688,0.136
			c-1.726,0-3.037-0.464-3.936-1.393s-1.347-2.417-1.347-4.466v-8.99h-1.923v-2.393h1.923v-4.858h2.846v4.858h5.873v2.393h-5.873
			v7.704c0,0.888,0.02,1.582,0.061,2.081c0.04,0.5,0.182,0.967,0.424,1.4c0.222,0.403,0.526,0.699,0.915,0.886
			s0.981,0.28,1.778,0.28c0.465,0,0.949-0.068,1.453-0.205c0.505-0.136,0.868-0.25,1.09-0.34h0.152V196.6z"/>
		<path fill="#FFFFFF" d="M327.002,196.751h-2.831v-1.801c-0.252,0.171-0.593,0.411-1.021,0.719
			c-0.43,0.308-0.846,0.553-1.249,0.734c-0.475,0.231-1.02,0.426-1.635,0.582s-1.337,0.234-2.164,0.234
			c-1.524,0-2.816-0.504-3.875-1.514c-1.061-1.009-1.59-2.295-1.59-3.859c0-1.281,0.274-2.318,0.825-3.11
			c0.55-0.792,1.334-1.415,2.354-1.87c1.029-0.453,2.266-0.762,3.708-0.923c1.443-0.161,2.992-0.282,4.647-0.363v-0.438
			c0-0.646-0.113-1.182-0.341-1.605c-0.227-0.424-0.553-0.756-0.977-0.998c-0.403-0.232-0.888-0.389-1.453-0.47
			c-0.564-0.081-1.155-0.121-1.771-0.121c-0.747,0-1.579,0.099-2.497,0.295c-0.919,0.197-1.867,0.482-2.846,0.855h-0.152v-2.892
			c0.556-0.15,1.357-0.317,2.407-0.499s2.084-0.272,3.103-0.272c1.191,0,2.228,0.099,3.111,0.295
			c0.883,0.197,1.647,0.532,2.293,1.007c0.636,0.464,1.12,1.064,1.453,1.802c0.333,0.736,0.5,1.649,0.5,2.739V196.751z
			 M324.171,192.589v-4.708c-0.868,0.051-1.89,0.126-3.065,0.228c-1.176,0.101-2.106,0.247-2.793,0.438
			c-0.816,0.232-1.478,0.593-1.982,1.082c-0.505,0.49-0.757,1.163-0.757,2.021c0,0.969,0.293,1.698,0.878,2.188
			c0.585,0.49,1.479,0.734,2.68,0.734c0.998,0,1.912-0.194,2.739-0.583C322.698,193.601,323.465,193.134,324.171,192.589z"/>
		<path fill="#FFFFFF" d="M341.262,196.6c-0.535,0.142-1.118,0.257-1.749,0.349c-0.631,0.09-1.193,0.136-1.688,0.136
			c-1.726,0-3.037-0.464-3.936-1.393s-1.347-2.417-1.347-4.466v-8.99h-1.923v-2.393h1.923v-4.858h2.846v4.858h5.873v2.393h-5.873
			v7.704c0,0.888,0.02,1.582,0.061,2.081c0.04,0.5,0.182,0.967,0.424,1.4c0.222,0.403,0.526,0.699,0.915,0.886
			s0.981,0.28,1.778,0.28c0.465,0,0.949-0.068,1.453-0.205c0.505-0.136,0.868-0.25,1.09-0.34h0.152V196.6z"/>
		<path fill="#FFFFFF" d="M347.754,177.013h-3.209v-2.951h3.209V177.013z M347.573,196.751h-2.846v-16.908h2.846V196.751z"/>
		<path fill="#FFFFFF" d="M367.615,188.305c0,2.755-0.707,4.93-2.119,6.524c-1.414,1.594-3.307,2.391-5.677,2.391
			c-2.392,0-4.291-0.797-5.699-2.391c-1.407-1.595-2.111-3.77-2.111-6.524s0.704-4.932,2.111-6.531
			c1.408-1.6,3.308-2.399,5.699-2.399c2.371,0,4.263,0.8,5.677,2.399C366.908,183.374,367.615,185.55,367.615,188.305z
			 M364.678,188.305c0-2.189-0.43-3.816-1.287-4.882c-0.857-1.064-2.049-1.597-3.572-1.597c-1.544,0-2.742,0.532-3.595,1.597
			c-0.854,1.065-1.279,2.692-1.279,4.882c0,2.119,0.429,3.727,1.287,4.821c0.857,1.095,2.053,1.643,3.587,1.643
			c1.513,0,2.703-0.543,3.564-1.628C364.246,192.057,364.678,190.445,364.678,188.305z"/>
		<path fill="#FFFFFF" d="M386.156,196.751h-2.846v-9.627c0-0.777-0.045-1.506-0.135-2.188c-0.092-0.681-0.258-1.213-0.5-1.597
			c-0.252-0.424-0.615-0.739-1.09-0.946c-0.475-0.206-1.09-0.311-1.848-0.311c-0.775,0-1.588,0.192-2.436,0.576
			c-0.848,0.383-1.66,0.872-2.438,1.468v12.624h-2.846v-16.908h2.846v1.877c0.889-0.736,1.807-1.312,2.754-1.725
			c0.949-0.414,1.924-0.621,2.922-0.621c1.826,0,3.219,0.55,4.178,1.65c0.959,1.1,1.438,2.684,1.438,4.752V196.751z"/>
	</g>
	<line fill="none" stroke="#FFFFFF" stroke-width="3" x1="117.23" y1="203.878" x2="395.506" y2="203.878"/>
	<g>
		<path fill="#FFFFFF" d="M135.984,242.49h-0.151c-0.424-0.102-0.835-0.174-1.233-0.221c-0.399-0.045-0.87-0.067-1.415-0.067
			c-0.879,0-1.727,0.194-2.543,0.583c-0.818,0.389-1.605,0.891-2.361,1.506v12.004h-2.846v-16.908h2.846v2.498
			c1.13-0.908,2.126-1.553,2.989-1.93c0.862-0.379,1.743-0.568,2.642-0.568c0.494,0,0.853,0.013,1.074,0.037
			c0.222,0.025,0.555,0.074,0.999,0.145V242.49z"/>
		<path fill="#FFFFFF" d="M168.421,244.457H150.47v-2.422h17.951V244.457z M168.421,250.814H150.47v-2.422h17.951V250.814z"/>
		<path fill="#FFFFFF" d="M200.724,256.295h-15.258v-3.164c1.059-0.908,2.121-1.816,3.186-2.725s2.057-1.811,2.975-2.709
			c1.938-1.877,3.265-3.369,3.98-4.473c0.717-1.105,1.075-2.299,1.075-3.58c0-1.171-0.386-2.087-1.158-2.748
			c-0.771-0.66-1.849-0.991-3.231-0.991c-0.918,0-1.912,0.161-2.982,0.484c-1.069,0.323-2.113,0.817-3.133,1.483h-0.151v-3.179
			c0.717-0.353,1.673-0.676,2.868-0.969c1.196-0.292,2.354-0.438,3.475-0.438c2.311,0,4.122,0.557,5.434,1.672
			s1.968,2.627,1.968,4.533c0,0.858-0.108,1.658-0.325,2.4c-0.218,0.74-0.537,1.445-0.961,2.111
			c-0.395,0.625-0.855,1.24-1.386,1.846c-0.529,0.605-1.173,1.277-1.93,2.014c-1.08,1.06-2.194,2.086-3.345,3.08
			s-2.226,1.915-3.225,2.763h12.125V256.295z"/>
		<path fill="#FFFFFF" d="M216.087,242.49h-0.151c-0.424-0.102-0.835-0.174-1.233-0.221c-0.399-0.045-0.87-0.067-1.415-0.067
			c-0.879,0-1.727,0.194-2.543,0.583c-0.818,0.389-1.605,0.891-2.361,1.506v12.004h-2.846v-16.908h2.846v2.498
			c1.13-0.908,2.126-1.553,2.989-1.93c0.862-0.379,1.743-0.568,2.642-0.568c0.494,0,0.853,0.013,1.074,0.037
			c0.222,0.025,0.555,0.074,0.999,0.145V242.49z"/>
		<path fill="#FFFFFF" d="M226.274,256.57c0,0.8-0.115,1.531-0.345,2.192c-0.229,0.662-0.553,1.222-0.971,1.681
			c-0.388,0.436-0.846,0.773-1.372,1.012s-1.084,0.357-1.672,0.357c-0.513,0-0.976-0.057-1.391-0.168
			c-0.414-0.112-0.837-0.285-1.266-0.521v4.131h-1.659V251.76h1.659v1.033c0.44-0.371,0.937-0.681,1.486-0.932
			c0.55-0.25,1.137-0.375,1.761-0.375c1.188,0,2.113,0.449,2.775,1.346C225.943,253.73,226.274,254.976,226.274,256.57z
			 M224.562,256.614c0-1.188-0.203-2.077-0.609-2.665s-1.029-0.883-1.871-0.883c-0.477,0-0.956,0.104-1.438,0.309
			c-0.482,0.207-0.944,0.477-1.385,0.813v5.586c0.471,0.211,0.875,0.355,1.213,0.432c0.338,0.077,0.723,0.115,1.151,0.115
			c0.924,0,1.645-0.312,2.162-0.936C224.302,258.762,224.562,257.838,224.562,256.614z"/>
		<path fill="#FFFFFF" d="M259.786,244.457h-17.951v-2.422h17.951V244.457z M259.786,250.814h-17.951v-2.422h17.951V250.814z"/>
		<path fill="#FFFFFF" d="M291.604,247.848c0,2.756-0.707,4.93-2.119,6.524c-1.413,1.595-3.306,2.392-5.677,2.392
			c-2.392,0-4.291-0.797-5.699-2.392c-1.407-1.595-2.111-3.769-2.111-6.524c0-2.754,0.704-4.932,2.111-6.531
			c1.408-1.6,3.308-2.398,5.699-2.398c2.371,0,4.264,0.799,5.677,2.398C290.897,242.916,291.604,245.094,291.604,247.848z
			 M288.667,247.848c0-2.189-0.429-3.816-1.286-4.881s-2.049-1.598-3.572-1.598c-1.544,0-2.742,0.533-3.595,1.598
			c-0.854,1.064-1.279,2.691-1.279,4.881c0,2.119,0.429,3.727,1.287,4.822c0.857,1.094,2.053,1.642,3.587,1.642
			c1.514,0,2.702-0.542,3.564-1.628C288.236,251.6,288.667,249.988,288.667,247.848z"/>
		<path fill="#FFFFFF" d="M306.558,242.49h-0.151c-0.424-0.102-0.835-0.174-1.233-0.221c-0.399-0.045-0.87-0.067-1.415-0.067
			c-0.879,0-1.727,0.194-2.543,0.583c-0.818,0.389-1.605,0.891-2.361,1.506v12.004h-2.846v-16.908h2.846v2.498
			c1.13-0.908,2.126-1.553,2.989-1.93c0.862-0.379,1.743-0.568,2.642-0.568c0.494,0,0.853,0.013,1.074,0.037
			c0.222,0.025,0.555,0.074,0.999,0.145V242.49z"/>
		<path fill="#FFFFFF" d="M324.117,247.712c0,1.413-0.199,2.685-0.598,3.814c-0.399,1.13-0.937,2.079-1.612,2.846
			c-0.717,0.798-1.504,1.396-2.361,1.794s-1.802,0.598-2.831,0.598c-0.958,0-1.796-0.113-2.512-0.34
			c-0.717-0.229-1.424-0.533-2.119-0.916l-0.182,0.787h-2.664v-23.553h2.846v8.416c0.797-0.656,1.645-1.193,2.543-1.613
			c0.897-0.418,1.906-0.627,3.027-0.627c1.998,0,3.574,0.767,4.729,2.301C323.539,242.752,324.117,244.917,324.117,247.712z
			 M321.18,247.787c0-2.018-0.333-3.549-0.999-4.594s-1.74-1.566-3.225-1.566c-0.827,0-1.664,0.18-2.512,0.537
			c-0.848,0.358-1.635,0.82-2.361,1.385v9.688c0.807,0.363,1.5,0.616,2.081,0.758c0.58,0.141,1.238,0.211,1.976,0.211
			c1.574,0,2.808-0.517,3.7-1.551C320.734,251.619,321.18,249.998,321.18,247.787z"/>
		<path fill="#FFFFFF" d="M331.609,236.557H328.4v-2.952h3.209V236.557z M331.427,256.295h-2.846v-16.908h2.846V256.295z"/>
		<path fill="#FFFFFF" d="M345.838,256.143c-0.535,0.143-1.118,0.258-1.749,0.349s-1.193,0.136-1.688,0.136
			c-1.726,0-3.037-0.463-3.936-1.393c-0.898-0.928-1.347-2.416-1.347-4.465v-8.991h-1.923v-2.392h1.923v-4.859h2.846v4.859h5.873
			v2.392h-5.873v7.704c0,0.889,0.02,1.582,0.061,2.082c0.04,0.5,0.182,0.967,0.424,1.4c0.222,0.403,0.526,0.698,0.915,0.885
			c0.389,0.188,0.981,0.28,1.778,0.28c0.465,0,0.949-0.067,1.453-0.204c0.505-0.137,0.868-0.25,1.09-0.341h0.152V256.143z"/>
		<path fill="#FFFFFF" d="M362.414,256.295h-2.832v-1.802c-0.252,0.172-0.593,0.411-1.021,0.72c-0.43,0.307-0.846,0.552-1.249,0.733
			c-0.475,0.232-1.02,0.427-1.635,0.583s-1.337,0.234-2.164,0.234c-1.524,0-2.816-0.504-3.875-1.514
			c-1.061-1.009-1.59-2.295-1.59-3.859c0-1.281,0.274-2.318,0.825-3.111c0.55-0.792,1.334-1.415,2.354-1.869
			c1.029-0.454,2.266-0.762,3.708-0.924c1.443-0.16,2.992-0.281,4.647-0.363v-0.438c0-0.646-0.113-1.181-0.341-1.604
			c-0.227-0.424-0.553-0.757-0.977-0.999c-0.403-0.231-0.888-0.388-1.453-0.47c-0.564-0.08-1.155-0.121-1.771-0.121
			c-0.747,0-1.579,0.1-2.497,0.295c-0.919,0.197-1.867,0.482-2.846,0.855h-0.152v-2.891c0.556-0.151,1.357-0.318,2.407-0.5
			s2.084-0.271,3.103-0.271c1.191,0,2.228,0.098,3.111,0.295c0.883,0.197,1.647,0.532,2.293,1.006
			c0.635,0.465,1.119,1.065,1.453,1.802c0.332,0.737,0.5,1.649,0.5,2.739V256.295z M359.583,252.132v-4.708
			c-0.868,0.051-1.89,0.127-3.065,0.228s-2.106,0.247-2.793,0.438c-0.816,0.232-1.478,0.594-1.982,1.082
			c-0.505,0.49-0.757,1.164-0.757,2.021c0,0.969,0.293,1.697,0.878,2.188c0.585,0.489,1.479,0.734,2.68,0.734
			c0.998,0,1.912-0.195,2.739-0.584C358.109,253.144,358.876,252.677,359.583,252.132z"/>
		<path fill="#FFFFFF" d="M370.768,256.295h-2.846v-23.553h2.846V256.295z"/>
		<path fill="#FFFFFF" d="M399.377,251.42c0,1.545-0.639,2.811-1.914,3.8c-1.277,0.989-3.02,1.483-5.23,1.483
			c-1.252,0-2.398-0.148-3.443-0.447c-1.045-0.297-1.92-0.622-2.627-0.976v-3.194h0.152c0.898,0.677,1.896,1.214,2.996,1.613
			c1.1,0.398,2.154,0.598,3.164,0.598c1.252,0,2.23-0.202,2.938-0.605c0.705-0.404,1.059-1.039,1.059-1.908
			c0-0.666-0.191-1.17-0.574-1.514c-0.385-0.342-1.121-0.635-2.211-0.877c-0.404-0.092-0.932-0.197-1.582-0.318
			s-1.244-0.252-1.777-0.394c-1.484-0.394-2.537-0.972-3.156-1.733c-0.621-0.762-0.932-1.697-0.932-2.808
			c0-0.696,0.145-1.353,0.432-1.968s0.725-1.166,1.309-1.65c0.566-0.474,1.285-0.85,2.158-1.127
			c0.871-0.277,1.848-0.416,2.928-0.416c1.01,0,2.031,0.123,3.066,0.371c1.033,0.246,1.895,0.547,2.58,0.9v3.042h-0.15
			c-0.727-0.534-1.611-0.986-2.65-1.354c-1.039-0.369-2.059-0.553-3.057-0.553c-1.039,0-1.918,0.199-2.635,0.598
			s-1.074,0.992-1.074,1.779c0,0.695,0.217,1.221,0.65,1.574c0.424,0.354,1.111,0.641,2.059,0.862
			c0.525,0.121,1.113,0.242,1.764,0.363s1.193,0.232,1.627,0.333c1.322,0.303,2.342,0.822,3.059,1.559
			C399.02,249.201,399.377,250.189,399.377,251.42z"/>
		<path fill="#FFFFFF" d="M418.07,239.387l-9.869,23.145h-3.043l3.148-7.055l-6.734-16.09h3.088l5.191,12.533l5.236-12.533H418.07z"
			/>
		<path fill="#FFFFFF" d="M433.873,251.42c0,1.545-0.639,2.811-1.914,3.8c-1.277,0.989-3.02,1.483-5.23,1.483
			c-1.252,0-2.398-0.148-3.443-0.447c-1.045-0.297-1.92-0.622-2.627-0.976v-3.194h0.152c0.898,0.677,1.896,1.214,2.996,1.613
			c1.1,0.398,2.154,0.598,3.164,0.598c1.252,0,2.23-0.202,2.938-0.605c0.705-0.404,1.059-1.039,1.059-1.908
			c0-0.666-0.191-1.17-0.574-1.514c-0.385-0.342-1.121-0.635-2.211-0.877c-0.404-0.092-0.932-0.197-1.582-0.318
			s-1.244-0.252-1.777-0.394c-1.484-0.394-2.537-0.972-3.156-1.733c-0.621-0.762-0.932-1.697-0.932-2.808
			c0-0.696,0.145-1.353,0.432-1.968s0.725-1.166,1.309-1.65c0.566-0.474,1.285-0.85,2.158-1.127
			c0.871-0.277,1.848-0.416,2.928-0.416c1.01,0,2.031,0.123,3.066,0.371c1.033,0.246,1.895,0.547,2.58,0.9v3.042h-0.15
			c-0.727-0.534-1.611-0.986-2.65-1.354c-1.039-0.369-2.059-0.553-3.057-0.553c-1.039,0-1.918,0.199-2.635,0.598
			s-1.074,0.992-1.074,1.779c0,0.695,0.217,1.221,0.65,1.574c0.424,0.354,1.111,0.641,2.059,0.862
			c0.525,0.121,1.113,0.242,1.764,0.363s1.193,0.232,1.627,0.333c1.322,0.303,2.342,0.822,3.059,1.559
			C433.516,249.201,433.873,250.189,433.873,251.42z"/>
		<path fill="#FFFFFF" d="M446.725,256.143c-0.535,0.143-1.117,0.258-1.748,0.349s-1.193,0.136-1.688,0.136
			c-1.727,0-3.037-0.463-3.936-1.393c-0.898-0.928-1.348-2.416-1.348-4.465v-8.991h-1.922v-2.392h1.922v-4.859h2.846v4.859h5.873
			v2.392h-5.873v7.704c0,0.889,0.02,1.582,0.061,2.082s0.182,0.967,0.424,1.4c0.223,0.403,0.527,0.698,0.916,0.885
			c0.389,0.188,0.98,0.28,1.777,0.28c0.465,0,0.949-0.067,1.453-0.204c0.506-0.137,0.869-0.25,1.09-0.341h0.152V256.143z"/>
		<path fill="#FFFFFF" d="M464.313,248.136h-12.457c0,1.04,0.156,1.944,0.469,2.718c0.313,0.771,0.742,1.404,1.287,1.898
			c0.525,0.484,1.148,0.848,1.869,1.09s1.516,0.363,2.385,0.363c1.15,0,2.309-0.229,3.473-0.688c1.166-0.46,1.996-0.911,2.49-1.355
			h0.152v3.104c-0.959,0.403-1.938,0.741-2.938,1.014c-0.998,0.272-2.049,0.408-3.148,0.408c-2.805,0-4.994-0.759-6.568-2.277
			c-1.574-1.52-2.361-3.676-2.361-6.471c0-2.766,0.754-4.96,2.262-6.585c1.51-1.624,3.494-2.437,5.957-2.437
			c2.281,0,4.039,0.666,5.275,1.998s1.854,3.224,1.854,5.676V248.136z M461.543,245.956c-0.01-1.493-0.387-2.649-1.127-3.466
			c-0.742-0.818-1.871-1.227-3.385-1.227c-1.523,0-2.736,0.449-3.639,1.348c-0.904,0.898-1.416,2.013-1.537,3.345H461.543z"/>
		<path fill="#FFFFFF" d="M493.299,256.295h-2.846v-9.627c0-0.727-0.031-1.428-0.098-2.104c-0.066-0.676-0.205-1.216-0.416-1.62
			c-0.232-0.434-0.564-0.762-1-0.983c-0.434-0.222-1.059-0.333-1.877-0.333c-0.797,0-1.594,0.199-2.391,0.598
			s-1.594,0.906-2.393,1.521c0.031,0.232,0.057,0.502,0.076,0.811c0.021,0.307,0.031,0.612,0.031,0.915v10.823h-2.846v-9.627
			c0-0.747-0.033-1.456-0.1-2.127c-0.064-0.672-0.203-1.209-0.416-1.612c-0.232-0.434-0.564-0.759-0.998-0.976
			c-0.434-0.218-1.061-0.326-1.877-0.326c-0.777,0-1.557,0.191-2.34,0.575c-0.781,0.384-1.561,0.873-2.338,1.468v12.625h-2.846
			v-16.908h2.846v1.877c0.889-0.736,1.773-1.312,2.656-1.726c0.883-0.413,1.824-0.62,2.822-0.62c1.15,0,2.127,0.242,2.93,0.727
			s1.4,1.155,1.793,2.013c1.15-0.969,2.201-1.667,3.148-2.097c0.949-0.429,1.963-0.643,3.043-0.643c1.857,0,3.227,0.563,4.109,1.688
			s1.324,2.697,1.324,4.715V256.295z"/>
		<path fill="#FFFFFF" d="M520.229,242.49h-0.152c-0.424-0.102-0.834-0.174-1.232-0.221c-0.4-0.045-0.871-0.067-1.416-0.067
			c-0.879,0-1.727,0.194-2.543,0.583c-0.818,0.389-1.605,0.891-2.361,1.506v12.004h-2.846v-16.908h2.846v2.498
			c1.131-0.908,2.127-1.553,2.99-1.93c0.861-0.379,1.742-0.568,2.641-0.568c0.494,0,0.854,0.013,1.074,0.037
			c0.223,0.025,0.555,0.074,1,0.145V242.49z"/>
		<path fill="#FFFFFF" d="M535.502,256.295h-2.832v-1.802c-0.252,0.172-0.592,0.411-1.021,0.72c-0.43,0.307-0.846,0.552-1.248,0.733
			c-0.475,0.232-1.02,0.427-1.635,0.583s-1.338,0.234-2.164,0.234c-1.525,0-2.816-0.504-3.875-1.514
			c-1.061-1.009-1.59-2.295-1.59-3.859c0-1.281,0.273-2.318,0.824-3.111c0.551-0.792,1.334-1.415,2.354-1.869
			c1.029-0.454,2.266-0.762,3.709-0.924c1.443-0.16,2.992-0.281,4.646-0.363v-0.438c0-0.646-0.113-1.181-0.34-1.604
			s-0.553-0.757-0.977-0.999c-0.404-0.231-0.889-0.388-1.453-0.47c-0.564-0.08-1.156-0.121-1.771-0.121
			c-0.746,0-1.578,0.1-2.496,0.295c-0.92,0.197-1.867,0.482-2.846,0.855h-0.152v-2.891c0.555-0.151,1.357-0.318,2.406-0.5
			c1.051-0.182,2.084-0.271,3.104-0.271c1.191,0,2.227,0.098,3.111,0.295c0.883,0.197,1.646,0.532,2.293,1.006
			c0.635,0.465,1.119,1.065,1.453,1.802c0.332,0.737,0.5,1.649,0.5,2.739V256.295z M532.67,252.132v-4.708
			c-0.867,0.051-1.889,0.127-3.064,0.228s-2.107,0.247-2.793,0.438c-0.816,0.232-1.479,0.594-1.982,1.082
			c-0.506,0.49-0.758,1.164-0.758,2.021c0,0.969,0.293,1.697,0.879,2.188c0.584,0.489,1.479,0.734,2.68,0.734
			c0.998,0,1.912-0.195,2.738-0.584C531.197,253.144,531.965,252.677,532.67,252.132z"/>
		<path fill="#FFFFFF" d="M554.693,256.295h-2.846v-1.771c-0.816,0.707-1.67,1.256-2.557,1.65c-0.889,0.393-1.852,0.59-2.893,0.59
			c-2.018,0-3.619-0.777-4.805-2.331s-1.779-3.708-1.779-6.464c0-1.432,0.205-2.709,0.613-3.829s0.961-2.073,1.658-2.86
			c0.686-0.768,1.484-1.353,2.398-1.756c0.914-0.404,1.859-0.605,2.838-0.605c0.889,0,1.676,0.093,2.361,0.279
			c0.688,0.188,1.408,0.477,2.164,0.871v-7.326h2.846V256.295z M551.848,252.132v-9.702c-0.766-0.344-1.453-0.58-2.059-0.712
			c-0.605-0.131-1.266-0.196-1.982-0.196c-1.594,0-2.836,0.555-3.723,1.664c-0.889,1.111-1.332,2.686-1.332,4.723
			c0,2.009,0.342,3.535,1.029,4.58c0.686,1.043,1.785,1.566,3.299,1.566c0.809,0,1.625-0.18,2.453-0.537
			C550.359,253.158,551.133,252.697,551.848,252.132z"/>
		<path fill="#FFFFFF" d="M563.352,236.557h-3.209v-2.952h3.209V236.557z M563.17,256.295h-2.846v-16.908h2.846V256.295z"/>
		<path fill="#FFFFFF" d="M582.818,256.295h-2.846v-1.877c-0.959,0.756-1.877,1.337-2.754,1.74
			c-0.879,0.403-1.848,0.605-2.906,0.605c-1.777,0-3.16-0.543-4.148-1.627c-0.988-1.085-1.482-2.677-1.482-4.775v-10.975h2.846
			v9.627c0,0.857,0.039,1.592,0.121,2.203c0.08,0.609,0.252,1.133,0.514,1.566c0.273,0.443,0.625,0.767,1.061,0.969
			c0.434,0.201,1.064,0.303,1.891,0.303c0.736,0,1.541-0.191,2.414-0.576c0.873-0.383,1.689-0.872,2.445-1.468v-12.624h2.846
			V256.295z"/>
		<path fill="#FFFFFF" d="M600.498,251.42c0,1.545-0.639,2.811-1.914,3.8c-1.277,0.989-3.02,1.483-5.23,1.483
			c-1.252,0-2.398-0.148-3.443-0.447c-1.045-0.297-1.92-0.622-2.627-0.976v-3.194h0.152c0.898,0.677,1.896,1.214,2.996,1.613
			c1.1,0.398,2.154,0.598,3.164,0.598c1.252,0,2.23-0.202,2.938-0.605c0.705-0.404,1.059-1.039,1.059-1.908
			c0-0.666-0.191-1.17-0.574-1.514c-0.385-0.342-1.121-0.635-2.211-0.877c-0.404-0.092-0.932-0.197-1.582-0.318
			s-1.244-0.252-1.777-0.394c-1.484-0.394-2.537-0.972-3.156-1.733c-0.621-0.762-0.932-1.697-0.932-2.808
			c0-0.696,0.145-1.353,0.432-1.968s0.725-1.166,1.309-1.65c0.566-0.474,1.285-0.85,2.158-1.127
			c0.871-0.277,1.848-0.416,2.928-0.416c1.01,0,2.031,0.123,3.066,0.371c1.033,0.246,1.895,0.547,2.58,0.9v3.042h-0.15
			c-0.727-0.534-1.611-0.986-2.65-1.354c-1.039-0.369-2.059-0.553-3.057-0.553c-1.039,0-1.918,0.199-2.635,0.598
			s-1.074,0.992-1.074,1.779c0,0.695,0.217,1.221,0.65,1.574c0.424,0.354,1.111,0.641,2.059,0.862
			c0.525,0.121,1.113,0.242,1.764,0.363s1.193,0.232,1.627,0.333c1.322,0.303,2.342,0.822,3.059,1.559
			C600.141,249.201,600.498,250.189,600.498,251.42z"/>
	</g>
</g>
</svg>
