<?xml version="1.0" encoding="utf-8"?>
<!-- Generator: Adobe Illustrator 16.0.0, SVG Export Plug-In . SVG Version: 6.00 Build 0)  -->
<!DOCTYPE svg PUBLIC "-//W3C//DTD SVG 1.1//EN" "http://www.w3.org/Graphics/SVG/1.1/DTD/svg11.dtd">
<svg version="1.1" id="Layer_2" xmlns="http://www.w3.org/2000/svg" xmlns:xlink="http://www.w3.org/1999/xlink" x="0px" y="0px"
	 width="913px" height="317px" viewBox="0 0 913 317" enable-background="new 0 0 913 317" xml:space="preserve">
<g id="step3White">
	<path fill="#291159" fill-opacity="0.8" stroke="#FFFFFF" stroke-width="3" stroke-miterlimit="10" d="M913,305
		c0,6.627-5.373,12-12,12H12c-6.627,0-12-5.373-12-12V12C0,5.373,5.373,0,12,0h889c6.627,0,12,5.373,12,12V305z"/>
	<g enable-background="new    ">
		<path fill="#FFFFFF" d="M125.523,74.925l-8.204,22.539h-3.996l-8.204-22.539h3.209l7.069,19.83l7.069-19.83H125.523z"/>
		<path fill="#FFFFFF" d="M141.614,89.018c0,2.755-0.707,4.93-2.119,6.524c-1.413,1.594-3.305,2.391-5.676,2.391
			c-2.392,0-4.291-0.797-5.699-2.391c-1.407-1.595-2.111-3.77-2.111-6.524s0.704-4.932,2.111-6.531
			c1.408-1.6,3.308-2.399,5.699-2.399c2.371,0,4.263,0.8,5.676,2.399C140.907,84.086,141.614,86.263,141.614,89.018z
			 M138.677,89.018c0-2.189-0.429-3.816-1.287-4.882c-0.858-1.064-2.049-1.597-3.572-1.597c-1.544,0-2.742,0.532-3.595,1.597
			c-0.853,1.065-1.279,2.692-1.279,4.882c0,2.119,0.429,3.727,1.287,4.821c0.857,1.095,2.053,1.643,3.587,1.643
			c1.514,0,2.702-0.543,3.564-1.628C138.246,92.77,138.677,91.158,138.677,89.018z"/>
		<path fill="#FFFFFF" d="M148.895,97.464h-2.846V73.911h2.846V97.464z"/>
		<path fill="#FFFFFF" d="M168.542,97.464h-2.846v-1.877c-0.959,0.757-1.877,1.337-2.754,1.74c-0.879,0.404-1.848,0.605-2.906,0.605
			c-1.777,0-3.16-0.542-4.148-1.627c-0.989-1.084-1.483-2.677-1.483-4.775V80.555h2.847v9.627c0,0.858,0.039,1.593,0.121,2.203
			c0.08,0.61,0.252,1.133,0.514,1.566c0.273,0.444,0.625,0.767,1.061,0.969c0.434,0.202,1.064,0.303,1.891,0.303
			c0.736,0,1.541-0.191,2.414-0.575c0.873-0.384,1.689-0.873,2.445-1.468V80.555h2.846v16.909H168.542z"/>
		<path fill="#FFFFFF" d="M198.815,97.464h-2.846v-9.627c0-0.727-0.032-1.428-0.098-2.104c-0.066-0.677-0.205-1.217-0.416-1.62
			c-0.232-0.434-0.565-0.762-1-0.983c-0.434-0.223-1.059-0.334-1.877-0.334c-0.797,0-1.594,0.2-2.391,0.599
			c-0.798,0.398-1.595,0.905-2.393,1.521c0.031,0.232,0.056,0.503,0.076,0.811s0.03,0.613,0.03,0.916v10.822h-2.846v-9.627
			c0-0.747-0.033-1.455-0.099-2.127c-0.065-0.671-0.204-1.208-0.416-1.611c-0.232-0.435-0.565-0.76-0.999-0.977
			s-1.06-0.326-1.877-0.326c-0.777,0-1.557,0.192-2.339,0.576c-0.782,0.383-1.562,0.872-2.338,1.468v12.624h-2.846V80.557h2.846
			v1.877c0.888-0.736,1.772-1.312,2.656-1.725c0.883-0.414,1.824-0.621,2.822-0.621c1.15,0,2.127,0.242,2.93,0.727
			c0.802,0.484,1.4,1.155,1.793,2.014c1.15-0.969,2.2-1.668,3.148-2.097c0.949-0.429,1.963-0.644,3.043-0.644
			c1.856,0,3.227,0.563,4.109,1.688c0.883,1.126,1.324,2.697,1.324,4.715v10.973H198.815z"/>
		<path fill="#FFFFFF" d="M218.448,89.306h-12.457c0,1.039,0.156,1.944,0.469,2.717c0.313,0.771,0.742,1.405,1.287,1.899
			c0.524,0.484,1.147,0.848,1.869,1.09c0.721,0.242,1.516,0.363,2.384,0.363c1.15,0,2.309-0.229,3.474-0.688
			c1.166-0.459,1.996-0.911,2.49-1.355h0.151v3.104c-0.959,0.403-1.938,0.742-2.937,1.014c-0.999,0.273-2.049,0.409-3.148,0.409
			c-2.806,0-4.995-0.759-6.569-2.278c-1.574-1.519-2.361-3.676-2.361-6.471c0-2.765,0.754-4.96,2.263-6.584
			c1.509-1.625,3.494-2.438,5.957-2.438c2.28,0,4.038,0.666,5.274,1.998c1.236,1.332,1.854,3.225,1.854,5.676V89.306L218.448,89.306
			z M215.679,87.126c-0.011-1.494-0.387-2.649-1.128-3.467c-0.742-0.817-1.87-1.227-3.384-1.227c-1.523,0-2.737,0.449-3.64,1.348
			c-0.903,0.898-1.415,2.014-1.536,3.346H215.679z"/>
		<path fill="#FFFFFF" d="M248.071,89.018c0,2.755-0.707,4.93-2.119,6.524c-1.413,1.594-3.306,2.391-5.677,2.391
			c-2.392,0-4.291-0.797-5.699-2.391c-1.407-1.595-2.111-3.77-2.111-6.524s0.704-4.932,2.111-6.531
			c1.408-1.6,3.308-2.399,5.699-2.399c2.371,0,4.264,0.8,5.677,2.399C247.364,84.086,248.071,86.263,248.071,89.018z
			 M245.134,89.018c0-2.189-0.429-3.816-1.286-4.882c-0.857-1.064-2.049-1.597-3.572-1.597c-1.544,0-2.742,0.532-3.595,1.597
			c-0.854,1.065-1.279,2.692-1.279,4.882c0,2.119,0.429,3.727,1.287,4.821c0.857,1.095,2.053,1.643,3.587,1.643
			c1.514,0,2.702-0.543,3.564-1.628C244.703,92.77,245.134,91.158,245.134,89.018z"/>
		<path fill="#FFFFFF" d="M261.572,76.667h-0.151c-0.313-0.091-0.722-0.184-1.227-0.28c-0.504-0.096-0.948-0.144-1.332-0.144
			c-1.221,0-2.106,0.271-2.656,0.81c-0.55,0.54-0.824,1.517-0.824,2.93v0.574h5.131v2.393h-5.041v14.516h-2.846V82.95h-1.922v-2.393
			h1.922v-0.56c0-2.008,0.5-3.55,1.499-4.624c0.999-1.075,2.442-1.612,4.329-1.612c0.636,0,1.208,0.03,1.718,0.091
			c0.51,0.061,0.977,0.131,1.4,0.212V76.667z"/>
		<path fill="#FFFFFF" d="M287.411,97.464h-2.831v-1.801c-0.252,0.171-0.593,0.411-1.021,0.719c-0.43,0.308-0.846,0.553-1.249,0.734
			c-0.475,0.231-1.02,0.426-1.635,0.582c-0.615,0.156-1.337,0.234-2.164,0.234c-1.524,0-2.816-0.504-3.875-1.514
			c-1.061-1.009-1.59-2.295-1.59-3.859c0-1.281,0.274-2.318,0.825-3.11c0.55-0.792,1.334-1.415,2.354-1.87
			c1.029-0.453,2.266-0.762,3.708-0.923c1.443-0.161,2.992-0.282,4.647-0.363v-0.438c0-0.646-0.113-1.182-0.341-1.605
			c-0.228-0.424-0.554-0.756-0.978-0.998c-0.402-0.232-0.888-0.389-1.453-0.47c-0.563-0.081-1.154-0.121-1.771-0.121
			c-0.747,0-1.579,0.099-2.497,0.295c-0.919,0.197-1.867,0.482-2.846,0.855h-0.152v-2.892c0.556-0.15,1.357-0.317,2.407-0.499
			c1.05-0.182,2.084-0.272,3.103-0.272c1.191,0,2.229,0.099,3.111,0.295c0.883,0.197,1.646,0.532,2.293,1.007
			c0.636,0.464,1.12,1.064,1.453,1.802c0.333,0.736,0.5,1.649,0.5,2.739L287.411,97.464L287.411,97.464z M284.58,93.302v-4.708
			c-0.868,0.051-1.89,0.126-3.065,0.228c-1.176,0.101-2.105,0.247-2.792,0.438c-0.816,0.232-1.478,0.593-1.982,1.082
			c-0.505,0.49-0.757,1.163-0.757,2.021c0,0.969,0.293,1.698,0.878,2.188c0.585,0.49,1.479,0.734,2.68,0.734
			c0.998,0,1.912-0.194,2.739-0.583C283.106,94.314,283.874,93.847,284.58,93.302z"/>
		<path fill="#FFFFFF" d="M320.394,91.031c0,0.879-0.202,1.746-0.611,2.604c-0.408,0.858-0.981,1.585-1.718,2.18
			c-0.81,0.646-1.748,1.15-2.823,1.514c-1.074,0.363-2.368,0.545-3.882,0.545c-1.625,0-3.086-0.15-4.385-0.453
			c-1.296-0.303-2.615-0.752-3.958-1.348v-3.754h0.213c1.141,0.948,2.456,1.68,3.95,2.195c1.493,0.514,2.896,0.771,4.207,0.771
			c1.857,0,3.305-0.348,4.337-1.045c1.034-0.695,1.554-1.624,1.554-2.785c0-0.998-0.245-1.735-0.734-2.209
			c-0.489-0.475-1.232-0.843-2.231-1.105c-0.758-0.202-1.576-0.368-2.46-0.5c-0.884-0.131-1.817-0.297-2.809-0.499
			c-1.998-0.424-3.479-1.147-4.442-2.172c-0.964-1.024-1.445-2.359-1.445-4.004c0-1.887,0.798-3.434,2.393-4.64
			c1.594-1.205,3.617-1.809,6.069-1.809c1.584,0,3.037,0.151,4.358,0.454c1.321,0.303,2.491,0.676,3.513,1.12v3.542h-0.212
			c-0.857-0.727-1.985-1.329-3.385-1.809c-1.396-0.479-2.826-0.72-4.29-0.72c-1.604,0-2.896,0.334-3.867,1
			c-0.975,0.666-1.46,1.523-1.46,2.572c0,0.939,0.24,1.676,0.727,2.211c0.484,0.534,1.337,0.943,2.559,1.226
			c0.646,0.142,1.563,0.313,2.756,0.515c1.189,0.202,2.198,0.408,3.025,0.621c1.676,0.443,2.938,1.114,3.784,2.013
			C319.972,88.161,320.394,89.417,320.394,91.031z"/>
		<path fill="#FFFFFF" d="M339.859,88.806c0,1.372-0.197,2.626-0.592,3.762c-0.395,1.135-0.947,2.096-1.665,2.883
			c-0.665,0.747-1.449,1.325-2.354,1.733c-0.903,0.409-1.859,0.613-2.868,0.613c-0.878,0-1.673-0.096-2.384-0.288
			c-0.712-0.191-1.438-0.489-2.172-0.893v7.084h-2.848V80.555h2.848v1.771c0.756-0.636,1.604-1.168,2.55-1.597
			s1.95-0.644,3.021-0.644c2.037,0,3.625,0.77,4.761,2.309C339.292,83.935,339.859,86.072,339.859,88.806z M336.923,88.882
			c0-2.039-0.349-3.563-1.044-4.572c-0.697-1.009-1.767-1.514-3.209-1.514c-0.818,0-1.641,0.177-2.468,0.53s-1.62,0.817-2.376,1.393
			V94.3c0.807,0.363,1.5,0.611,2.081,0.742c0.58,0.131,1.236,0.197,1.976,0.197c1.584,0,2.82-0.535,3.708-1.605
			C336.479,92.565,336.923,90.981,336.923,88.882z"/>
		<path fill="#FFFFFF" d="M358.432,97.464h-2.846v-9.627c0-0.777-0.045-1.506-0.136-2.188c-0.091-0.681-0.257-1.213-0.499-1.597
			c-0.253-0.424-0.616-0.739-1.09-0.946c-0.477-0.206-1.09-0.311-1.85-0.311c-0.774,0-1.589,0.192-2.437,0.576
			c-0.849,0.383-1.66,0.872-2.438,1.468v12.624h-2.846V73.91h2.846v8.521c0.89-0.736,1.808-1.312,2.754-1.725
			c0.949-0.414,1.925-0.621,2.924-0.621c1.824,0,3.219,0.55,4.178,1.65s1.438,2.684,1.438,4.752L358.432,97.464L358.432,97.464z"/>
		<path fill="#FFFFFF" d="M378.064,89.306h-12.457c0,1.039,0.154,1.944,0.469,2.717c0.313,0.771,0.742,1.405,1.287,1.899
			c0.522,0.484,1.146,0.848,1.869,1.09c0.721,0.242,1.516,0.363,2.384,0.363c1.148,0,2.309-0.229,3.474-0.688
			c1.166-0.459,1.996-0.911,2.49-1.355h0.149v3.104c-0.959,0.403-1.938,0.742-2.937,1.014c-0.999,0.273-2.049,0.409-3.148,0.409
			c-2.806,0-4.993-0.759-6.567-2.278s-2.361-3.676-2.361-6.471c0-2.765,0.754-4.96,2.263-6.584c1.511-1.625,3.494-2.438,5.957-2.438
			c2.28,0,4.038,0.666,5.274,1.998s1.854,3.225,1.854,5.676L378.064,89.306L378.064,89.306z M375.295,87.126
			c-0.011-1.494-0.387-2.649-1.128-3.467c-0.742-0.817-1.87-1.227-3.384-1.227c-1.523,0-2.737,0.449-3.642,1.348
			c-0.901,0.898-1.415,2.014-1.534,3.346H375.295z"/>
		<path fill="#FFFFFF" d="M392.929,83.66h-0.149c-0.426-0.101-0.835-0.174-1.233-0.22c-0.397-0.045-0.87-0.067-1.415-0.067
			c-0.879,0-1.727,0.194-2.543,0.582c-0.818,0.389-1.604,0.891-2.361,1.506v12.004h-2.846V80.557h2.846v2.498
			c1.132-0.908,2.126-1.552,2.989-1.93c0.862-0.379,1.743-0.568,2.644-0.568c0.492,0,0.853,0.014,1.072,0.038
			c0.224,0.025,0.557,0.073,0.999,0.144L392.929,83.66L392.929,83.66z"/>
		<path fill="#FFFFFF" d="M409.761,89.306h-12.457c0,1.039,0.156,1.944,0.471,2.717c0.313,0.771,0.74,1.405,1.285,1.899
			c0.524,0.484,1.147,0.848,1.869,1.09c0.723,0.242,1.518,0.363,2.384,0.363c1.15,0,2.311-0.229,3.476-0.688
			c1.166-0.459,1.996-0.911,2.49-1.355h0.149v3.104c-0.959,0.403-1.938,0.742-2.937,1.014c-0.999,0.273-2.049,0.409-3.148,0.409
			c-2.806,0-4.995-0.759-6.568-2.278s-2.36-3.676-2.36-6.471c0-2.765,0.754-4.96,2.263-6.584c1.509-1.625,3.494-2.438,5.957-2.438
			c2.28,0,4.038,0.666,5.274,1.998c1.234,1.332,1.854,3.225,1.854,5.676L409.761,89.306L409.761,89.306z M406.991,87.126
			c-0.011-1.494-0.389-2.649-1.128-3.467c-0.742-0.817-1.87-1.227-3.386-1.227c-1.521,0-2.735,0.449-3.64,1.348
			c-0.903,0.898-1.415,2.014-1.536,3.346H406.991z"/>
		<path fill="#FFFFFF" d="M104.726,101.097v-1.816h306.549v1.816H104.726z"/>
	</g>
	<g>
		<g>
			<g enable-background="new    ">
				<path fill="#FFFFFF" d="M272.458,140.094h-3.345v6.342h-2.906v-6.342h-10.792v-3.482l10.914-12.715h2.785v13.775h3.345
					L272.458,140.094L272.458,140.094z M266.206,137.672V127.5l-8.734,10.172H266.206z"/>
			</g>
			<g enable-background="new    ">
				<path fill="#FFFFFF" d="M269.96,170.582c0.484,0.436,0.883,0.98,1.196,1.635c0.313,0.656,0.469,1.504,0.469,2.543
					c0,1.029-0.187,1.975-0.56,2.832c-0.374,0.857-0.898,1.604-1.574,2.24c-0.757,0.705-1.647,1.229-2.671,1.566
					c-1.024,0.336-2.147,0.506-3.368,0.506c-1.251,0-2.482-0.148-3.693-0.445c-1.211-0.297-2.205-0.623-2.982-0.977v-3.164h0.227
					c0.857,0.564,1.867,1.035,3.027,1.408c1.16,0.373,2.28,0.561,3.36,0.561c0.636,0,1.312-0.107,2.028-0.318
					c0.716-0.213,1.296-0.525,1.741-0.939c0.464-0.441,0.81-0.932,1.037-1.467c0.228-0.535,0.341-1.211,0.341-2.027
					c0-0.809-0.129-1.477-0.386-2.008c-0.258-0.527-0.613-0.943-1.067-1.248c-0.454-0.313-1.004-0.525-1.65-0.643
					s-1.342-0.176-2.089-0.176h-1.362v-2.512h1.06c1.534,0,2.757-0.32,3.67-0.961c0.914-0.641,1.37-1.576,1.37-2.809
					c0-0.547-0.116-1.021-0.348-1.432c-0.232-0.408-0.555-0.744-0.969-1.007c-0.434-0.263-0.898-0.443-1.393-0.546
					c-0.495-0.102-1.055-0.149-1.68-0.149c-0.959,0-1.978,0.171-3.058,0.515c-1.08,0.344-2.099,0.828-3.058,1.453h-0.151v-3.162
					c0.716-0.354,1.673-0.681,2.868-0.979c1.196-0.297,2.354-0.446,3.474-0.446c1.1,0,2.068,0.102,2.906,0.303
					c0.837,0.203,1.594,0.524,2.271,0.97c0.727,0.483,1.276,1.069,1.65,1.756c0.373,0.687,0.56,1.487,0.56,2.405
					c0,1.253-0.441,2.347-1.325,3.277c-0.883,0.935-1.925,1.521-3.125,1.764v0.214c0.484,0.079,1.039,0.25,1.665,0.506
					C268.996,169.879,269.526,170.199,269.96,170.582z"/>
			</g>
		</g>
		<g enable-background="new    ">
			<path fill="#FFFFFF" d="M204.306,139.221l-8.204,22.539h-3.996l-8.204-22.539h3.209l7.069,19.83l7.069-19.83H204.306z"/>
			<path fill="#FFFFFF" d="M233.391,149.923h-17.952v-2.422h17.952V149.923z M233.391,156.281h-17.952v-2.422h17.952V156.281z"/>
			<path fill="#FFFFFF" d="M276.682,153.102h-26.367v-2.422h26.367V153.102z"/>
			<path fill="#FFFFFF" d="M298.043,148.18h-2.859v13.58h-2.661v-13.58h-6.4v13.58h-2.662v-13.58H280.6v-2.236h17.445
				L298.043,148.18L298.043,148.18z"/>
			<path fill="#FFFFFF" d="M312.866,147.956h-0.151c-0.424-0.101-0.835-0.174-1.231-0.22c-0.399-0.045-0.87-0.067-1.415-0.067
				c-0.881,0-1.729,0.194-2.543,0.582c-0.818,0.39-1.605,0.892-2.361,1.506v12.004h-2.846v-16.907h2.846v2.498
				c1.13-0.908,2.126-1.553,2.989-1.931c0.86-0.379,1.741-0.567,2.642-0.567c0.494,0,0.854,0.014,1.074,0.037
				c0.222,0.025,0.555,0.073,0.999,0.145L312.866,147.956L312.866,147.956z"/>
			<path fill="#FFFFFF" d="M322.883,138.758c0.313,0.28,0.569,0.633,0.771,1.055c0.202,0.424,0.303,0.971,0.303,1.642
				c0,0.664-0.12,1.272-0.361,1.825c-0.239,0.555-0.579,1.035-1.016,1.445c-0.488,0.457-1.063,0.793-1.724,1.012
				c-0.661,0.218-1.387,0.326-2.175,0.326c-0.808,0-1.602-0.096-2.383-0.287c-0.781-0.192-1.423-0.402-1.924-0.631v-2.041h0.146
				c0.554,0.364,1.202,0.668,1.951,0.908c0.749,0.241,1.474,0.361,2.168,0.361c0.41,0,0.849-0.068,1.311-0.205
				s0.837-0.339,1.123-0.605c0.3-0.285,0.521-0.603,0.669-0.946c0.146-0.345,0.22-0.781,0.22-1.31c0-0.521-0.083-0.951-0.249-1.293
				c-0.166-0.343-0.396-0.611-0.688-0.807c-0.293-0.202-0.647-0.34-1.064-0.415s-0.866-0.112-1.348-0.112h-0.879v-1.621h0.684
				c0.989,0,1.779-0.207,2.368-0.619c0.589-0.414,0.884-1.019,0.884-1.813c0-0.352-0.075-0.659-0.225-0.923
				c-0.15-0.265-0.358-0.479-0.625-0.649c-0.28-0.169-0.579-0.285-0.898-0.352c-0.317-0.066-0.681-0.098-1.084-0.098
				c-0.618,0-1.274,0.109-1.973,0.332c-0.697,0.222-1.354,0.533-1.975,0.938h-0.098v-2.041c0.462-0.229,1.079-0.438,1.853-0.63
				c0.771-0.192,1.519-0.288,2.239-0.288c0.71,0,1.335,0.064,1.875,0.195c0.54,0.13,1.028,0.339,1.466,0.625
				c0.47,0.313,0.822,0.689,1.063,1.133c0.241,0.444,0.361,0.96,0.361,1.553c0,0.809-0.285,1.512-0.854,2.114
				c-0.568,0.603-1.242,0.981-2.017,1.138v0.137c0.313,0.053,0.671,0.162,1.073,0.328
				C322.259,138.304,322.603,138.511,322.883,138.758z"/>
		</g>
	</g>
	<g enable-background="new    ">
		<path fill="#FFFFFF" d="M504.283,82.273c0,0.998-0.174,1.925-0.522,2.777c-0.348,0.853-0.835,1.592-1.46,2.217
			c-0.776,0.777-1.694,1.36-2.756,1.749c-1.059,0.389-2.396,0.583-4.011,0.583h-2.997V98h-2.997V75.461h6.115
			c1.353,0,2.497,0.114,3.437,0.341c0.938,0.228,1.771,0.583,2.497,1.067c0.857,0.575,1.521,1.292,1.99,2.149
			C504.049,79.876,504.283,80.961,504.283,82.273z M501.165,82.349c0-0.777-0.136-1.453-0.409-2.028
			c-0.271-0.575-0.686-1.045-1.24-1.408c-0.483-0.313-1.036-0.537-1.657-0.673c-0.62-0.137-1.405-0.204-2.354-0.204h-2.967v9.006
			h2.527c1.211,0,2.194-0.108,2.951-0.325c0.758-0.217,1.372-0.563,1.848-1.037c0.475-0.484,0.81-0.994,1.007-1.528
			C501.066,83.615,501.165,83.015,501.165,82.349z"/>
		<path fill="#FFFFFF" d="M518.557,84.195h-0.149c-0.424-0.101-0.836-0.174-1.234-0.22c-0.397-0.045-0.87-0.067-1.415-0.067
			c-0.878,0-1.726,0.194-2.543,0.582c-0.816,0.389-1.604,0.891-2.361,1.506V98h-2.846V81.092h2.846v2.498
			c1.131-0.908,2.127-1.552,2.989-1.93c0.863-0.379,1.743-0.568,2.643-0.568c0.493,0,0.853,0.014,1.074,0.038
			c0.222,0.025,0.556,0.073,0.998,0.144L518.557,84.195L518.557,84.195z"/>
		<path fill="#FFFFFF" d="M535.646,89.554c0,2.755-0.707,4.93-2.119,6.524c-1.413,1.594-3.306,2.391-5.677,2.391
			c-2.393,0-4.291-0.797-5.698-2.391c-1.408-1.595-2.111-3.77-2.111-6.524c0-2.754,0.703-4.932,2.111-6.531
			c1.407-1.599,3.307-2.399,5.698-2.399c2.371,0,4.264,0.8,5.677,2.399C534.939,84.622,535.646,86.799,535.646,89.554z
			 M532.71,89.554c0-2.189-0.429-3.816-1.286-4.882c-0.857-1.064-2.049-1.597-3.572-1.597c-1.545,0-2.741,0.532-3.596,1.597
			c-0.853,1.065-1.279,2.692-1.279,4.882c0,2.119,0.431,3.727,1.287,4.821c0.857,1.094,2.054,1.643,3.588,1.643
			c1.515,0,2.701-0.543,3.564-1.628C532.279,93.306,532.71,91.693,532.71,89.554z"/>
		<path fill="#FFFFFF" d="M548.831,97.849c-0.535,0.142-1.118,0.257-1.749,0.349c-0.631,0.09-1.193,0.136-1.688,0.136
			c-1.726,0-3.036-0.464-3.936-1.393c-0.899-0.929-1.347-2.417-1.347-4.466v-8.99h-1.923v-2.393h1.923v-4.858h2.846v4.858h5.873
			v2.393h-5.873v7.704c0,0.888,0.02,1.582,0.061,2.081c0.04,0.5,0.183,0.967,0.425,1.4c0.222,0.403,0.525,0.699,0.915,0.886
			c0.389,0.187,0.98,0.28,1.777,0.28c0.465,0,0.949-0.068,1.453-0.205c0.505-0.136,0.868-0.25,1.09-0.34h0.152L548.831,97.849
			L548.831,97.849z"/>
		<path fill="#FFFFFF" d="M566.677,89.554c0,2.755-0.707,4.93-2.119,6.524c-1.413,1.594-3.306,2.391-5.677,2.391
			c-2.392,0-4.291-0.797-5.699-2.391c-1.406-1.595-2.11-3.77-2.11-6.524c0-2.754,0.704-4.932,2.11-6.531
			c1.408-1.6,3.309-2.399,5.699-2.399c2.371,0,4.264,0.8,5.677,2.399C565.97,84.622,566.677,86.799,566.677,89.554z M563.739,89.554
			c0-2.189-0.43-3.816-1.286-4.882c-0.857-1.064-2.049-1.597-3.572-1.597c-1.544,0-2.742,0.532-3.595,1.597
			c-0.854,1.065-1.279,2.692-1.279,4.882c0,2.119,0.429,3.727,1.287,4.821c0.857,1.095,2.053,1.643,3.587,1.643
			c1.514,0,2.702-0.543,3.564-1.628C563.309,93.306,563.739,91.693,563.739,89.554z"/>
		<path fill="#FFFFFF" d="M585.219,98h-2.846v-9.627c0-0.777-0.045-1.506-0.136-2.188c-0.091-0.681-0.257-1.213-0.499-1.597
			c-0.253-0.424-0.616-0.739-1.09-0.946c-0.476-0.206-1.091-0.311-1.849-0.311c-0.776,0-1.589,0.192-2.437,0.576
			c-0.849,0.383-1.66,0.872-2.438,1.468V98h-2.846V81.092h2.846v1.877c0.888-0.736,1.807-1.312,2.754-1.725
			c0.949-0.414,1.923-0.621,2.922-0.621c1.826,0,3.22,0.55,4.179,1.65s1.438,2.684,1.438,4.752L585.219,98L585.219,98z"/>
		<path fill="#FFFFFF" d="M619.595,75.461L611.391,98h-3.996l-8.203-22.539h3.209l7.068,19.83l7.068-19.83H619.595z"/>
		<path fill="#FFFFFF" d="M635.686,89.554c0,2.755-0.707,4.93-2.118,6.524c-1.413,1.594-3.307,2.391-5.678,2.391
			c-2.392,0-4.291-0.797-5.698-2.391c-1.407-1.595-2.111-3.77-2.111-6.524c0-2.754,0.704-4.932,2.111-6.531
			c1.407-1.6,3.308-2.399,5.698-2.399c2.371,0,4.265,0.8,5.678,2.399C634.979,84.622,635.686,86.799,635.686,89.554z
			 M632.748,89.554c0-2.189-0.429-3.816-1.286-4.882c-0.856-1.064-2.049-1.597-3.572-1.597c-1.544,0-2.741,0.532-3.595,1.597
			s-1.279,2.692-1.279,4.882c0,2.119,0.43,3.727,1.287,4.821c0.857,1.095,2.053,1.643,3.587,1.643c1.515,0,2.702-0.543,3.564-1.628
			C632.317,93.306,632.748,91.693,632.748,89.554z"/>
		<path fill="#FFFFFF" d="M642.966,98h-2.846V74.447h2.846V98z"/>
		<path fill="#FFFFFF" d="M662.612,98h-2.847v-1.877c-0.958,0.757-1.877,1.337-2.754,1.74c-0.879,0.404-1.848,0.605-2.906,0.605
			c-1.775,0-3.158-0.542-4.147-1.627c-0.988-1.084-1.482-2.677-1.482-4.775V81.092h2.847v9.627c0,0.858,0.04,1.593,0.121,2.203
			c0.08,0.61,0.252,1.133,0.514,1.566c0.272,0.444,0.626,0.767,1.061,0.969s1.064,0.303,1.893,0.303
			c0.735,0,1.541-0.191,2.414-0.575c0.873-0.384,1.688-0.873,2.443-1.468V81.092h2.847V98H662.612z"/>
		<path fill="#FFFFFF" d="M692.886,98h-2.846v-9.627c0-0.727-0.032-1.428-0.098-2.104c-0.066-0.677-0.205-1.217-0.416-1.62
			c-0.232-0.434-0.565-0.762-1-0.983c-0.435-0.223-1.06-0.334-1.878-0.334c-0.797,0-1.594,0.2-2.391,0.599
			c-0.798,0.398-1.595,0.905-2.393,1.521c0.03,0.232,0.056,0.503,0.076,0.811c0.02,0.308,0.029,0.613,0.029,0.916V98h-2.846v-9.627
			c0-0.747-0.033-1.455-0.099-2.127c-0.065-0.671-0.204-1.208-0.416-1.611c-0.232-0.435-0.565-0.76-0.999-0.977
			c-0.435-0.217-1.061-0.326-1.877-0.326c-0.777,0-1.558,0.192-2.34,0.576c-0.781,0.383-1.562,0.872-2.338,1.468V98h-2.846V81.092
			h2.846v1.877c0.889-0.736,1.772-1.312,2.656-1.725c0.883-0.414,1.824-0.621,2.822-0.621c1.149,0,2.127,0.242,2.93,0.727
			c0.802,0.484,1.4,1.155,1.793,2.014c1.15-0.969,2.2-1.668,3.148-2.097c0.948-0.429,1.963-0.644,3.043-0.644
			c1.855,0,3.227,0.563,4.108,1.688c0.884,1.126,1.324,2.697,1.324,4.715V98H692.886z"/>
		<path fill="#FFFFFF" d="M712.519,89.842h-12.456c0,1.039,0.155,1.944,0.469,2.717c0.313,0.771,0.742,1.405,1.287,1.899
			c0.523,0.484,1.146,0.848,1.869,1.09c0.721,0.242,1.516,0.363,2.384,0.363c1.149,0,2.309-0.229,3.474-0.688
			c1.166-0.459,1.996-0.911,2.49-1.355h0.15v3.104c-0.959,0.403-1.938,0.742-2.937,1.014c-0.999,0.273-2.049,0.409-3.148,0.409
			c-2.806,0-4.995-0.759-6.568-2.278c-1.574-1.519-2.361-3.676-2.361-6.471c0-2.765,0.754-4.96,2.263-6.584
			c1.51-1.625,3.494-2.438,5.957-2.438c2.28,0,4.038,0.666,5.274,1.998c1.235,1.332,1.854,3.225,1.854,5.676V89.842L712.519,89.842z
			 M709.749,87.662c-0.011-1.494-0.387-2.649-1.128-3.467c-0.742-0.817-1.87-1.227-3.384-1.227c-1.523,0-2.737,0.449-3.641,1.348
			c-0.902,0.898-1.415,2.014-1.536,3.346H709.749z"/>
		<path fill="#FFFFFF" d="M486.513,101.633v-1.816h227.521v1.816H486.513z"/>
	</g>
	<g>
		<g>
			<g enable-background="new    ">
				<path fill="#FFFFFF" d="M601.326,140.63h-3.346v6.342h-2.906v-6.342h-10.793v-3.482l10.914-12.715h2.784v13.775h3.347V140.63
					L601.326,140.63z M595.074,138.208v-10.172l-8.734,10.172H595.074z"/>
			</g>
			<g enable-background="new    ">
				<path fill="#FFFFFF" d="M598.828,171.118c0.484,0.435,0.883,0.979,1.195,1.635c0.313,0.656,0.47,1.504,0.47,2.543
					c0,1.029-0.188,1.974-0.561,2.831c-0.374,0.857-0.897,1.604-1.573,2.24c-0.759,0.706-1.648,1.229-2.672,1.566
					c-1.024,0.338-2.147,0.506-3.368,0.506c-1.251,0-2.482-0.147-3.693-0.445c-1.211-0.297-2.205-0.623-2.981-0.977v-3.164h0.228
					c0.856,0.565,1.867,1.035,3.027,1.408c1.159,0.373,2.279,0.561,3.359,0.561c0.636,0,1.313-0.106,2.028-0.317
					c0.717-0.213,1.297-0.524,1.74-0.938c0.465-0.443,0.811-0.934,1.037-1.469c0.228-0.535,0.341-1.211,0.341-2.027
					c0-0.809-0.129-1.477-0.387-2.006s-0.612-0.945-1.066-1.248c-0.454-0.313-1.005-0.527-1.649-0.645
					c-0.646-0.115-1.343-0.175-2.09-0.175h-1.361v-2.513h1.06c1.534,0,2.758-0.319,3.671-0.961s1.37-1.576,1.37-2.809
					c0-0.545-0.116-1.021-0.349-1.431c-0.231-0.408-0.556-0.744-0.969-1.007c-0.435-0.262-0.897-0.443-1.393-0.545
					s-1.056-0.15-1.682-0.15c-0.959,0-1.978,0.171-3.058,0.514c-1.08,0.344-2.1,0.828-3.058,1.453h-0.151v-3.162
					c0.717-0.354,1.673-0.68,2.868-0.978s2.354-0.446,3.474-0.446c1.101,0,2.068,0.102,2.906,0.303
					c0.838,0.202,1.595,0.524,2.271,0.969c0.728,0.484,1.275,1.07,1.649,1.757c0.373,0.687,0.56,1.487,0.56,2.405
					c0,1.252-0.44,2.346-1.323,3.277c-0.884,0.934-1.925,1.521-3.125,1.764v0.213c0.483,0.08,1.039,0.25,1.664,0.507
					C597.864,170.415,598.395,170.734,598.828,171.118z"/>
			</g>
		</g>
		<g enable-background="new    ">
			<path fill="#FFFFFF" d="M521.174,139.757l-8.204,22.539h-3.996l-8.204-22.539h3.21l7.067,19.83l7.069-19.83H521.174z"/>
			<path fill="#FFFFFF" d="M532.974,167.71c0,0.886-0.127,1.694-0.381,2.427c-0.254,0.733-0.611,1.354-1.073,1.86
				c-0.431,0.481-0.938,0.854-1.52,1.118s-1.199,0.396-1.851,0.396c-0.566,0-1.079-0.062-1.538-0.186s-0.927-0.315-1.401-0.576
				v4.569h-1.836v-14.932h1.836v1.143c0.488-0.409,1.036-0.754,1.646-1.029c0.609-0.275,1.258-0.415,1.947-0.415
				c1.315,0,2.339,0.496,3.071,1.489C532.607,164.566,532.974,165.945,532.974,167.71z M531.079,167.759
				c0-1.315-0.226-2.298-0.674-2.948c-0.449-0.651-1.141-0.978-2.07-0.978c-0.527,0-1.058,0.114-1.592,0.342
				s-1.045,0.527-1.533,0.898v6.182c0.521,0.233,0.968,0.394,1.343,0.479c0.375,0.084,0.799,0.127,1.274,0.127
				c1.021,0,1.818-0.346,2.393-1.035C530.794,170.136,531.079,169.113,531.079,167.759z"/>
			<path fill="#FFFFFF" d="M562.72,150.459h-17.952v-2.422h17.952V150.459z M562.72,156.816h-17.952v-2.422h17.952V156.816z"/>
			<path fill="#FFFFFF" d="M606.011,153.638h-26.367v-2.422h26.367V153.638z"/>
			<path fill="#FFFFFF" d="M627.372,148.716h-2.859v13.58h-2.662v-13.58h-6.399v13.58h-2.662v-13.58h-2.861v-2.236h17.445
				L627.372,148.716L627.372,148.716z"/>
			<path fill="#FFFFFF" d="M642.195,148.491h-0.151c-0.424-0.101-0.835-0.174-1.233-0.22c-0.398-0.045-0.869-0.067-1.414-0.067
				c-0.88,0-1.728,0.194-2.543,0.582c-0.818,0.389-1.605,0.891-2.361,1.506v12.004h-2.846v-16.908h2.846v2.498
				c1.13-0.908,2.126-1.552,2.989-1.93c0.861-0.379,1.742-0.568,2.642-0.568c0.494,0,0.854,0.014,1.074,0.038
				c0.222,0.025,0.555,0.073,0.999,0.144L642.195,148.491L642.195,148.491z"/>
			<path fill="#FFFFFF" d="M653.481,167.71c0,0.886-0.128,1.694-0.382,2.427c-0.254,0.733-0.611,1.354-1.073,1.86
				c-0.431,0.481-0.937,0.854-1.52,1.118s-1.198,0.396-1.851,0.396c-0.566,0-1.079-0.062-1.538-0.186s-0.926-0.315-1.401-0.576
				v4.569h-1.836v-14.932h1.836v1.143c0.488-0.409,1.037-0.754,1.646-1.029c0.608-0.275,1.258-0.415,1.947-0.415
				c1.315,0,2.34,0.496,3.071,1.489C653.114,164.566,653.481,165.945,653.481,167.71z M651.587,167.759
				c0-1.315-0.225-2.298-0.674-2.948c-0.449-0.651-1.14-0.978-2.07-0.978c-0.526,0-1.058,0.114-1.592,0.342
				s-1.045,0.527-1.533,0.898v6.182c0.521,0.233,0.969,0.394,1.343,0.479c0.374,0.084,0.8,0.127,1.274,0.127
				c1.022,0,1.819-0.346,2.393-1.035C651.302,170.136,651.587,169.113,651.587,167.759z"/>
			<path fill="#FFFFFF" d="M664.673,139.294c0.313,0.28,0.569,0.632,0.771,1.055c0.202,0.423,0.303,0.97,0.303,1.641
				c0,0.664-0.12,1.272-0.361,1.826c-0.241,0.554-0.579,1.035-1.016,1.445c-0.488,0.456-1.063,0.793-1.725,1.011
				c-0.66,0.218-1.385,0.327-2.173,0.327c-0.808,0-1.602-0.096-2.383-0.288s-1.423-0.402-1.924-0.63v-2.041h0.146
				c0.555,0.364,1.204,0.667,1.953,0.908c0.749,0.241,1.473,0.361,2.168,0.361c0.41,0,0.848-0.068,1.31-0.205
				c0.462-0.137,0.837-0.339,1.123-0.605c0.3-0.286,0.521-0.603,0.669-0.947c0.146-0.344,0.22-0.781,0.22-1.309
				c0-0.521-0.083-0.952-0.249-1.294c-0.166-0.342-0.396-0.61-0.688-0.806c-0.294-0.202-0.647-0.34-1.064-0.415
				c-0.417-0.075-0.866-0.112-1.348-0.112h-0.88v-1.621h0.685c0.989,0,1.779-0.207,2.368-0.62s0.884-1.018,0.884-1.812
				c0-0.352-0.075-0.659-0.225-0.923c-0.15-0.264-0.358-0.48-0.625-0.649c-0.28-0.169-0.579-0.286-0.898-0.352
				c-0.319-0.066-0.681-0.098-1.084-0.098c-0.618,0-1.276,0.11-1.973,0.332c-0.697,0.222-1.354,0.534-1.974,0.938h-0.098v-2.041
				c0.462-0.228,1.079-0.438,1.851-0.63c0.772-0.192,1.52-0.288,2.241-0.288c0.71,0,1.335,0.065,1.875,0.195
				s1.028,0.339,1.465,0.625c0.47,0.313,0.823,0.69,1.064,1.133c0.241,0.443,0.361,0.96,0.361,1.553
				c0,0.808-0.285,1.512-0.854,2.114s-1.242,0.981-2.017,1.138v0.137c0.313,0.052,0.671,0.161,1.073,0.327
				C664.049,138.84,664.393,139.047,664.673,139.294z"/>
		</g>
	</g>
	<g>
		<g enable-background="new    ">
			<path fill="#FFFFFF" d="M522.104,213.757l-8.204,22.539h-3.996l-8.204-22.539h3.209l7.068,19.83l7.068-19.83H522.104z"/>
			<path fill="#FFFFFF" d="M533.902,241.71c0,0.886-0.127,1.694-0.381,2.427c-0.255,0.733-0.611,1.354-1.074,1.86
				c-0.431,0.481-0.937,0.854-1.52,1.118s-1.199,0.396-1.851,0.396c-0.566,0-1.079-0.063-1.538-0.187s-0.927-0.315-1.401-0.576
				v4.569h-1.836v-14.932h1.836v1.143c0.488-0.409,1.037-0.754,1.646-1.029c0.608-0.275,1.259-0.415,1.948-0.415
				c1.313,0,2.339,0.496,3.07,1.489C533.535,238.566,533.902,239.945,533.902,241.71z M532.008,241.759
				c0-1.315-0.225-2.298-0.674-2.948c-0.449-0.651-1.139-0.978-2.07-0.978c-0.526,0-1.059,0.114-1.592,0.342
				s-1.045,0.527-1.533,0.897v6.183c0.521,0.233,0.97,0.394,1.344,0.479c0.374,0.084,0.8,0.127,1.273,0.127
				c1.021,0,1.82-0.346,2.394-1.035C531.722,244.136,532.008,243.113,532.008,241.759z"/>
			<path fill="#FFFFFF" d="M563.648,224.459h-17.951v-2.422h17.951V224.459z M563.648,230.816h-17.951v-2.422h17.951V230.816z"/>
			<path fill="#FFFFFF" d="M595.92,223.672c0,1.969-0.225,3.754-0.673,5.357c-0.449,1.604-1.128,2.973-2.036,4.103
				c-0.918,1.15-2.068,2.039-3.451,2.664c-1.383,0.626-3.007,0.938-4.874,0.938c-0.523,0-1.02-0.027-1.482-0.084
				c-0.463-0.055-0.878-0.144-1.241-0.264v-2.893h0.15c0.294,0.152,0.706,0.296,1.241,0.432c0.535,0.137,1.13,0.205,1.786,0.205
				c2.23,0,3.979-0.669,5.245-2.006s2-3.182,2.202-5.533c-0.938,0.565-1.821,0.969-2.648,1.211c-0.828,0.242-1.73,0.363-2.71,0.363
				c-0.929,0-1.769-0.09-2.521-0.271c-0.752-0.181-1.506-0.535-2.264-1.061c-0.888-0.615-1.557-1.396-2.006-2.346
				c-0.448-0.949-0.673-2.084-0.673-3.406c0-2.301,0.756-4.172,2.271-5.615c1.514-1.443,3.36-2.164,5.541-2.164
				c1.09,0,2.099,0.17,3.026,0.508c0.929,0.338,1.74,0.844,2.438,1.521c0.856,0.838,1.519,1.915,1.982,3.231
				C595.688,219.88,595.92,221.583,595.92,223.672z M592.863,223.021c0-1.563-0.162-2.82-0.484-3.77
				c-0.323-0.947-0.768-1.686-1.332-2.21c-0.475-0.454-0.984-0.778-1.529-0.978c-0.545-0.195-1.135-0.295-1.771-0.295
				c-1.453,0-2.601,0.455-3.443,1.362c-0.842,0.908-1.264,2.185-1.264,3.829c0,0.959,0.137,1.741,0.408,2.348
				c0.272,0.604,0.731,1.135,1.378,1.588c0.454,0.313,0.954,0.522,1.499,0.629c0.545,0.105,1.149,0.158,1.815,0.158
				c0.787,0,1.584-0.104,2.392-0.316c0.808-0.213,1.563-0.52,2.271-0.924c0.011-0.213,0.022-0.422,0.037-0.629
				C592.855,223.609,592.863,223.344,592.863,223.021z"/>
			<path fill="#FFFFFF" d="M605.411,236.296h-3.617v-4.313h3.617V236.296z"/>
			<path fill="#FFFFFF" d="M627.268,228.984c0,2.291-0.754,4.16-2.263,5.607c-1.509,1.448-3.356,2.172-5.548,2.172
				c-1.109,0-2.119-0.171-3.027-0.514c-0.907-0.344-1.71-0.854-2.405-1.529c-0.868-0.838-1.536-1.947-2.007-3.33
				c-0.469-1.383-0.702-3.048-0.702-4.994c0-1.998,0.214-3.77,0.643-5.313c0.429-1.543,1.113-2.916,2.051-4.117
				c0.89-1.14,2.034-2.03,3.438-2.671s3.037-0.962,4.903-0.962c0.597,0,1.096,0.024,1.5,0.076c0.402,0.051,0.812,0.142,1.226,0.272
				v2.891h-0.151c-0.281-0.151-0.709-0.295-1.278-0.432c-0.57-0.137-1.152-0.205-1.748-0.205c-2.17,0-3.9,0.68-5.191,2.037
				c-1.292,1.356-2.044,3.19-2.256,5.502c0.848-0.516,1.683-0.906,2.505-1.174c0.822-0.267,1.773-0.4,2.854-0.4
				c0.959,0,1.804,0.088,2.534,0.266c0.731,0.177,1.481,0.531,2.248,1.066c0.889,0.615,1.558,1.394,2.006,2.33
				C627.043,226.503,627.268,227.643,627.268,228.984z M624.195,229.105c0-0.938-0.14-1.715-0.416-2.332
				c-0.278-0.614-0.734-1.149-1.37-1.604c-0.464-0.322-0.979-0.535-1.544-0.637c-0.565-0.102-1.155-0.15-1.771-0.15
				c-0.856,0-1.653,0.102-2.391,0.303s-1.494,0.515-2.271,0.938c-0.02,0.224-0.034,0.438-0.045,0.644
				c-0.01,0.207-0.016,0.467-0.016,0.78c0,1.595,0.164,2.853,0.492,3.776c0.328,0.923,0.778,1.652,1.354,2.188
				c0.464,0.443,0.966,0.771,1.506,0.977c0.539,0.207,1.127,0.311,1.765,0.311c1.463,0,2.612-0.445,3.451-1.34
				C623.776,232.064,624.195,230.781,624.195,229.105z"/>
			<path fill="#FFFFFF" d="M646.463,229.137c0,1.049-0.191,2.053-0.576,3.012c-0.383,0.959-0.908,1.767-1.573,2.422
				c-0.728,0.707-1.593,1.25-2.597,1.628c-1.004,0.379-2.167,0.567-3.487,0.567c-1.231,0-2.417-0.129-3.559-0.387
				c-1.141-0.257-2.104-0.566-2.892-0.931v-3.193h0.213c0.827,0.524,1.796,0.972,2.906,1.339c1.108,0.369,2.198,0.553,3.27,0.553
				c0.716,0,1.409-0.101,2.081-0.303c0.671-0.201,1.269-0.555,1.794-1.06c0.443-0.435,0.779-0.953,1.006-1.56
				c0.229-0.604,0.341-1.308,0.341-2.104c0-0.777-0.134-1.434-0.4-1.969c-0.268-0.534-0.638-0.963-1.112-1.286
				c-0.523-0.384-1.163-0.652-1.915-0.81c-0.752-0.156-1.592-0.234-2.52-0.234c-0.89,0-1.744,0.061-2.566,0.182
				s-1.531,0.242-2.127,0.363v-11.61h13.563v2.649H635.67v5.994c0.434-0.041,0.878-0.07,1.332-0.092
				c0.454-0.021,0.848-0.029,1.181-0.029c1.222,0,2.291,0.104,3.209,0.311s1.762,0.572,2.528,1.098
				c0.807,0.556,1.433,1.271,1.877,2.149C646.24,226.714,646.463,227.814,646.463,229.137z"/>
			<path fill="#FFFFFF" d="M666.684,228.984c0,2.291-0.754,4.16-2.263,5.607c-1.509,1.448-3.356,2.172-5.548,2.172
				c-1.109,0-2.119-0.171-3.027-0.514c-0.907-0.344-1.71-0.854-2.405-1.529c-0.868-0.838-1.536-1.947-2.007-3.33
				c-0.469-1.383-0.702-3.048-0.702-4.994c0-1.998,0.214-3.77,0.643-5.313c0.429-1.543,1.113-2.916,2.051-4.117
				c0.89-1.14,2.034-2.03,3.438-2.671s3.037-0.962,4.903-0.962c0.597,0,1.096,0.024,1.5,0.076c0.402,0.051,0.812,0.142,1.226,0.272
				v2.891h-0.151c-0.281-0.151-0.709-0.295-1.278-0.432c-0.57-0.137-1.152-0.205-1.748-0.205c-2.17,0-3.9,0.68-5.191,2.037
				c-1.292,1.356-2.044,3.19-2.256,5.502c0.848-0.516,1.683-0.906,2.505-1.174c0.822-0.267,1.773-0.4,2.854-0.4
				c0.959,0,1.804,0.088,2.534,0.266c0.731,0.177,1.481,0.531,2.248,1.066c0.889,0.615,1.558,1.394,2.006,2.33
				C666.459,226.503,666.684,227.643,666.684,228.984z M663.611,229.105c0-0.938-0.14-1.715-0.416-2.332
				c-0.278-0.614-0.734-1.149-1.37-1.604c-0.464-0.322-0.979-0.535-1.544-0.637c-0.565-0.102-1.155-0.15-1.771-0.15
				c-0.856,0-1.653,0.102-2.391,0.303s-1.494,0.515-2.271,0.938c-0.02,0.224-0.034,0.438-0.045,0.644
				c-0.01,0.207-0.016,0.467-0.016,0.78c0,1.595,0.164,2.853,0.492,3.776c0.328,0.923,0.778,1.652,1.354,2.188
				c0.464,0.443,0.966,0.771,1.506,0.977c0.539,0.207,1.127,0.311,1.765,0.311c1.463,0,2.612-0.445,3.451-1.34
				C663.192,232.064,663.611,230.781,663.611,229.105z"/>
			<path fill="#FFFFFF" d="M689.33,233.025l-1.681,1.681l-6.601-6.66l-6.6,6.66l-1.682-1.681l6.66-6.6l-6.66-6.6l1.682-1.68
				l6.6,6.66l6.601-6.66l1.681,1.68l-6.66,6.6L689.33,233.025z"/>
			<path fill="#FFFFFF" d="M710.143,236.296h-12.199v-2.301h4.691v-15.106h-4.691v-2.059c0.636,0,1.316-0.053,2.044-0.159
				c0.727-0.104,1.275-0.26,1.648-0.461c0.464-0.253,0.83-0.573,1.099-0.962c0.267-0.389,0.421-0.91,0.462-1.566h2.346v20.313h4.602
				L710.143,236.296L710.143,236.296z"/>
			<path fill="#FFFFFF" d="M731.105,225.02c0,4.047-0.634,7.017-1.899,8.907c-1.267,1.894-3.231,2.839-5.896,2.839
				c-2.703,0-4.68-0.959-5.926-2.875c-1.247-1.918-1.869-4.865-1.869-8.841c0-4.007,0.63-6.966,1.893-8.878
				c1.262-1.912,3.229-2.867,5.902-2.867c2.704,0,4.681,0.971,5.927,2.912C730.482,218.16,731.105,221.094,731.105,225.02z
				 M727.125,231.893c0.354-0.818,0.593-1.779,0.719-2.885s0.189-2.435,0.189-3.988c0-1.533-0.063-2.865-0.189-3.996
				s-0.371-2.088-0.733-2.875c-0.354-0.777-0.835-1.363-1.445-1.756c-0.61-0.396-1.396-0.592-2.354-0.592
				c-0.947,0-1.732,0.196-2.354,0.592c-0.621,0.393-1.113,0.987-1.477,1.784c-0.344,0.747-0.577,1.722-0.703,2.923
				c-0.127,1.2-0.189,2.518-0.189,3.95c0,1.574,0.056,2.892,0.166,3.95c0.111,1.061,0.349,2.008,0.712,2.846
				c0.333,0.787,0.805,1.389,1.415,1.803c0.61,0.412,1.421,0.619,2.43,0.619c0.948,0,1.735-0.195,2.361-0.591
				C726.298,233.284,726.782,232.688,727.125,231.893z"/>
			<path fill="#FFFFFF" d="M740.738,208.816h-6.095v-1.768h6.095V208.816z"/>
			<path fill="#FFFFFF" d="M752.369,207.294c0.313,0.28,0.568,0.632,0.771,1.056c0.202,0.422,0.304,0.969,0.304,1.641
				c0,0.664-0.12,1.271-0.361,1.826c-0.241,0.554-0.579,1.035-1.016,1.445c-0.488,0.455-1.063,0.793-1.725,1.01
				c-0.661,0.219-1.385,0.328-2.173,0.328c-0.808,0-1.602-0.097-2.383-0.289c-0.781-0.191-1.423-0.401-1.924-0.629v-2.041h0.146
				c0.555,0.363,1.204,0.666,1.953,0.907s1.472,0.361,2.168,0.361c0.41,0,0.847-0.068,1.31-0.205
				c0.462-0.138,0.837-0.339,1.122-0.604c0.301-0.287,0.522-0.604,0.67-0.947c0.146-0.344,0.22-0.781,0.22-1.31
				c0-0.521-0.083-0.952-0.249-1.294s-0.396-0.609-0.688-0.806c-0.293-0.202-0.646-0.341-1.063-0.415
				c-0.417-0.075-0.866-0.112-1.349-0.112h-0.879v-1.62h0.685c0.988,0,1.778-0.207,2.367-0.621c0.59-0.412,0.885-1.018,0.885-1.812
				c0-0.353-0.075-0.659-0.226-0.923c-0.149-0.264-0.357-0.48-0.625-0.649c-0.279-0.169-0.579-0.286-0.897-0.353
				c-0.319-0.065-0.682-0.098-1.084-0.098c-0.618,0-1.276,0.11-1.974,0.332c-0.696,0.223-1.354,0.534-1.973,0.938h-0.098v-2.041
				c0.462-0.228,1.079-0.438,1.851-0.63c0.772-0.192,1.52-0.288,2.241-0.288c0.71,0,1.335,0.065,1.875,0.194
				c0.54,0.131,1.028,0.34,1.465,0.625c0.469,0.313,0.823,0.69,1.064,1.133c0.24,0.443,0.36,0.961,0.36,1.554
				c0,0.808-0.285,1.513-0.854,2.114c-0.569,0.602-1.242,0.98-2.018,1.138v0.138c0.313,0.051,0.672,0.16,1.074,0.326
				C751.745,206.84,752.089,207.047,752.369,207.294z"/>
			<path fill="#FFFFFF" d="M766.344,206.15c0,1.271-0.145,2.423-0.435,3.457c-0.29,1.035-0.729,1.918-1.313,2.646
				c-0.593,0.742-1.335,1.314-2.227,1.719c-0.893,0.404-1.94,0.605-3.146,0.605c-0.339,0-0.656-0.018-0.957-0.055
				c-0.3-0.035-0.565-0.092-0.801-0.17v-1.865h0.099c0.188,0.098,0.455,0.189,0.801,0.277c0.345,0.088,0.729,0.133,1.151,0.133
				c1.438,0,2.566-0.433,3.385-1.295c0.817-0.861,1.291-2.053,1.421-3.568c-0.605,0.363-1.175,0.625-1.709,0.781
				s-1.116,0.233-1.748,0.233c-0.6,0-1.142-0.059-1.626-0.176c-0.485-0.117-0.972-0.345-1.46-0.685
				c-0.573-0.396-1.004-0.9-1.294-1.514s-0.436-1.345-0.436-2.197c0-1.483,0.488-2.691,1.465-3.623
				c0.978-0.931,2.169-1.396,3.574-1.396c0.703,0,1.354,0.108,1.953,0.327c0.599,0.218,1.123,0.545,1.572,0.98
				c0.554,0.541,0.979,1.235,1.278,2.086C766.193,203.703,766.344,204.805,766.344,206.15z M764.371,205.73
				c0-1.008-0.104-1.818-0.313-2.432s-0.495-1.087-0.858-1.426c-0.307-0.293-0.635-0.503-0.986-0.63
				c-0.351-0.127-0.732-0.19-1.143-0.19c-0.938,0-1.679,0.293-2.223,0.879s-0.814,1.409-0.814,2.471
				c0,0.619,0.088,1.123,0.264,1.515s0.472,0.731,0.889,1.024c0.293,0.203,0.615,0.338,0.968,0.406
				c0.352,0.067,0.741,0.103,1.172,0.103c0.508,0,1.021-0.068,1.543-0.205c0.521-0.138,1.009-0.335,1.465-0.597
				c0.007-0.137,0.015-0.271,0.024-0.404C764.366,206.109,764.371,205.939,764.371,205.73z"/>
			<path fill="#FFFFFF" d="M789.996,235.236c-0.948,0.453-1.85,0.808-2.701,1.06c-0.854,0.252-1.759,0.379-2.717,0.379
				c-1.222,0-2.342-0.18-3.361-0.538c-1.019-0.357-1.892-0.9-2.618-1.627c-0.735-0.727-1.307-1.645-1.71-2.755
				s-0.604-2.405-0.604-3.892c0-2.764,0.759-4.934,2.276-6.508c1.519-1.573,3.524-2.36,6.019-2.36c0.969,0,1.919,0.136,2.853,0.407
				c0.935,0.272,1.789,0.605,2.565,1v3.162h-0.15c-0.868-0.676-1.764-1.194-2.688-1.559c-0.923-0.363-1.824-0.545-2.701-0.545
				c-1.615,0-2.89,0.543-3.822,1.627c-0.934,1.085-1.399,2.678-1.399,4.775c0,2.039,0.456,3.604,1.369,4.699
				c0.913,1.097,2.197,1.644,3.854,1.644c0.574,0,1.16-0.075,1.756-0.228c0.595-0.15,1.13-0.349,1.604-0.59
				c0.414-0.213,0.803-0.438,1.166-0.675c0.362-0.235,0.649-0.44,0.862-0.612h0.15v3.135H789.996z"/>
			<path fill="#FFFFFF" d="M818.316,236.296h-2.847v-9.627c0-0.728-0.032-1.428-0.098-2.104c-0.066-0.676-0.205-1.217-0.416-1.619
				c-0.232-0.434-0.565-0.762-1-0.983c-0.435-0.224-1.06-0.334-1.877-0.334c-0.797,0-1.594,0.2-2.392,0.599
				s-1.595,0.905-2.393,1.521c0.031,0.232,0.056,0.503,0.076,0.811c0.02,0.309,0.03,0.613,0.03,0.916v10.822h-2.847v-9.627
				c0-0.747-0.033-1.455-0.099-2.127c-0.065-0.671-0.204-1.208-0.416-1.611c-0.232-0.435-0.565-0.76-0.999-0.977
				c-0.435-0.217-1.061-0.326-1.877-0.326c-0.777,0-1.558,0.191-2.339,0.576c-0.782,0.383-1.563,0.872-2.338,1.468v12.624h-2.847
				v-16.908h2.847v1.877c0.888-0.736,1.771-1.312,2.655-1.725c0.883-0.414,1.824-0.621,2.822-0.621c1.15,0,2.127,0.242,2.93,0.727
				s1.4,1.155,1.793,2.015c1.15-0.97,2.2-1.668,3.148-2.097c0.949-0.43,1.963-0.645,3.043-0.645c1.856,0,3.227,0.563,4.109,1.688
				c0.883,1.127,1.323,2.697,1.323,4.716v10.973H818.316z"/>
			<path fill="#FFFFFF" d="M831.133,213.294c0.313,0.28,0.569,0.632,0.771,1.056c0.202,0.422,0.303,0.969,0.303,1.641
				c0,0.664-0.12,1.271-0.361,1.826c-0.241,0.554-0.579,1.035-1.016,1.445c-0.488,0.455-1.063,0.793-1.725,1.01
				c-0.66,0.219-1.385,0.328-2.173,0.328c-0.808,0-1.602-0.097-2.383-0.289c-0.781-0.191-1.423-0.401-1.924-0.629v-2.041h0.146
				c0.555,0.363,1.204,0.666,1.953,0.907s1.473,0.361,2.168,0.361c0.41,0,0.848-0.068,1.31-0.205
				c0.462-0.138,0.837-0.339,1.123-0.604c0.3-0.287,0.521-0.604,0.669-0.947c0.146-0.344,0.22-0.781,0.22-1.31
				c0-0.521-0.083-0.952-0.249-1.294s-0.396-0.609-0.688-0.806c-0.293-0.202-0.647-0.341-1.064-0.415
				c-0.417-0.075-0.866-0.112-1.348-0.112h-0.879v-1.62h0.684c0.989,0,1.779-0.207,2.368-0.621c0.589-0.412,0.884-1.018,0.884-1.812
				c0-0.353-0.075-0.659-0.225-0.923c-0.15-0.264-0.358-0.48-0.625-0.649c-0.28-0.169-0.579-0.286-0.898-0.353
				c-0.319-0.065-0.681-0.098-1.084-0.098c-0.618,0-1.276,0.11-1.973,0.332c-0.697,0.223-1.354,0.534-1.974,0.938h-0.098v-2.041
				c0.462-0.228,1.079-0.438,1.851-0.63c0.772-0.192,1.52-0.288,2.241-0.288c0.71,0,1.335,0.065,1.875,0.194
				c0.54,0.131,1.028,0.34,1.465,0.625c0.47,0.313,0.823,0.69,1.064,1.133c0.241,0.443,0.361,0.961,0.361,1.554
				c0,0.808-0.285,1.513-0.854,2.114s-1.242,0.98-2.017,1.138v0.138c0.313,0.051,0.671,0.16,1.073,0.326
				C830.509,212.84,830.854,213.047,831.133,213.294z"/>
		</g>
	</g>
</g>
</svg>
