<?xml version="1.0" encoding="utf-8"?>
<!-- Generator: Adobe Illustrator 16.0.0, SVG Export Plug-In . SVG Version: 6.00 Build 0)  -->
<!DOCTYPE svg PUBLIC "-//W3C//DTD SVG 1.1//EN" "http://www.w3.org/Graphics/SVG/1.1/DTD/svg11.dtd">
<svg version="1.1" id="Layer_2" xmlns="http://www.w3.org/2000/svg" xmlns:xlink="http://www.w3.org/1999/xlink" x="0px" y="0px"
	 width="799px" height="285px" viewBox="0 0 799 285" enable-background="new 0 0 799 285" xml:space="preserve">
<g id="step8White">
	<path fill="#291159" fill-opacity="0.8" stroke="#FFFFFF" stroke-width="3" stroke-miterlimit="10" d="M799,273
		c0,6.627-5.373,12-12,12H12c-6.627,0-12-5.373-12-12V12C0,5.373,5.373,0,12,0h775c6.627,0,12,5.373,12,12V273z"/>
	<g>
		<g enable-background="new    ">
			<path fill="#FFFFFF" d="M147.836,116.836c0,0.998-0.174,1.925-0.522,2.777c-0.348,0.853-0.835,1.592-1.46,2.217
				c-0.777,0.777-1.695,1.36-2.755,1.749s-2.397,0.583-4.011,0.583h-2.997v8.4h-2.997v-22.539h6.115
				c1.352,0,2.498,0.114,3.436,0.341c0.938,0.228,1.771,0.583,2.498,1.067c0.857,0.575,1.521,1.292,1.99,2.149
				C147.602,114.439,147.836,115.524,147.836,116.836z M144.718,116.912c0-0.777-0.136-1.453-0.409-2.028s-0.687-1.045-1.241-1.408
				c-0.484-0.313-1.037-0.537-1.658-0.673c-0.62-0.137-1.405-0.204-2.354-0.204h-2.967v9.006h2.528c1.211,0,2.195-0.108,2.952-0.325
				s1.372-0.563,1.847-1.037c0.474-0.484,0.81-0.994,1.007-1.528C144.619,118.178,144.718,117.578,144.718,116.912z"/>
			<path fill="#FFFFFF" d="M154.436,132.563h-2.846V109.01h2.846V132.563z"/>
			<path fill="#FFFFFF" d="M173.205,132.563h-2.831v-1.801c-0.252,0.171-0.593,0.411-1.021,0.719
				c-0.429,0.308-0.846,0.553-1.249,0.734c-0.475,0.231-1.02,0.426-1.635,0.582c-0.616,0.156-1.337,0.234-2.165,0.234
				c-1.524,0-2.815-0.504-3.875-1.514c-1.06-1.009-1.589-2.295-1.589-3.859c0-1.281,0.275-2.318,0.825-3.11
				c0.55-0.792,1.334-1.415,2.354-1.87c1.029-0.453,2.265-0.762,3.708-0.923c1.443-0.161,2.992-0.282,4.647-0.363v-0.438
				c0-0.646-0.113-1.182-0.341-1.605c-0.227-0.424-0.552-0.756-0.976-0.998c-0.404-0.232-0.888-0.389-1.453-0.47
				c-0.565-0.081-1.156-0.121-1.771-0.121c-0.747,0-1.58,0.099-2.498,0.295c-0.918,0.197-1.867,0.482-2.846,0.855h-0.151v-2.892
				c0.555-0.15,1.357-0.317,2.407-0.499c1.049-0.182,2.083-0.272,3.103-0.272c1.19,0,2.228,0.099,3.111,0.295
				c0.883,0.197,1.647,0.532,2.293,1.007c0.636,0.464,1.12,1.064,1.453,1.802c0.333,0.736,0.5,1.649,0.5,2.739V132.563z
				 M170.375,128.401v-4.708c-0.868,0.051-1.89,0.126-3.065,0.228c-1.175,0.101-2.106,0.247-2.792,0.438
				c-0.817,0.232-1.479,0.593-1.983,1.082c-0.505,0.49-0.757,1.163-0.757,2.021c0,0.969,0.292,1.698,0.878,2.188
				c0.585,0.49,1.478,0.734,2.679,0.734c0.999,0,1.912-0.194,2.74-0.583C168.901,129.413,169.668,128.946,170.375,128.401z"/>
			<path fill="#FFFFFF" d="M192.821,132.563h-2.846v-9.627c0-0.777-0.045-1.506-0.135-2.188c-0.092-0.681-0.258-1.213-0.5-1.597
				c-0.252-0.424-0.615-0.739-1.09-0.946c-0.475-0.206-1.09-0.311-1.848-0.311c-0.775,0-1.588,0.192-2.436,0.576
				c-0.848,0.383-1.66,0.872-2.438,1.468v12.624h-2.846v-16.908h2.846v1.877c0.889-0.736,1.807-1.312,2.754-1.725
				c0.949-0.414,1.924-0.621,2.922-0.621c1.826,0,3.219,0.55,4.178,1.65c0.959,1.1,1.438,2.684,1.438,4.752V132.563z"/>
			<path fill="#FFFFFF" d="M210.804,131.503c-0.948,0.454-1.849,0.808-2.701,1.06c-0.854,0.252-1.759,0.379-2.717,0.379
				c-1.222,0-2.342-0.18-3.361-0.538c-1.019-0.357-1.892-0.9-2.618-1.627c-0.736-0.727-1.307-1.645-1.71-2.755
				c-0.404-1.11-0.605-2.406-0.605-3.891c0-2.765,0.759-4.934,2.277-6.508s3.524-2.361,6.018-2.361c0.969,0,1.919,0.136,2.853,0.408
				s1.789,0.605,2.565,0.999v3.163h-0.15c-0.868-0.676-1.764-1.195-2.688-1.559c-0.923-0.363-1.824-0.545-2.701-0.545
				c-1.615,0-2.89,0.543-3.822,1.627c-0.934,1.085-1.4,2.677-1.4,4.775c0,2.039,0.456,3.605,1.37,4.7
				c0.913,1.096,2.197,1.643,3.853,1.643c0.574,0,1.16-0.075,1.756-0.228c0.595-0.15,1.13-0.348,1.604-0.59
				c0.414-0.212,0.803-0.437,1.166-0.674c0.363-0.236,0.65-0.441,0.863-0.613h0.15V131.503z"/>
			<path fill="#FFFFFF" d="M229.801,132.563h-3.754l-6.781-7.402l-1.846,1.756v5.646h-2.846V109.01h2.846v15.106l8.219-8.462h3.588
				l-7.856,7.811L229.801,132.563z"/>
			<path fill="#FFFFFF" d="M263.995,132.563h-2.997v-19.42l-6.267,13.214h-1.786l-6.221-13.214v19.42h-2.801v-22.539h4.087
				l6.009,12.549l5.813-12.549h4.163V132.563z"/>
			<path fill="#FFFFFF" d="M282.962,132.563h-2.831v-1.801c-0.252,0.171-0.593,0.411-1.021,0.719
				c-0.43,0.308-0.846,0.553-1.249,0.734c-0.475,0.231-1.02,0.426-1.635,0.582s-1.337,0.234-2.164,0.234
				c-1.524,0-2.816-0.504-3.875-1.514c-1.061-1.009-1.59-2.295-1.59-3.859c0-1.281,0.274-2.318,0.825-3.11
				c0.55-0.792,1.334-1.415,2.354-1.87c1.029-0.453,2.266-0.762,3.708-0.923c1.443-0.161,2.992-0.282,4.647-0.363v-0.438
				c0-0.646-0.113-1.182-0.341-1.605c-0.227-0.424-0.553-0.756-0.977-0.998c-0.403-0.232-0.888-0.389-1.453-0.47
				c-0.564-0.081-1.155-0.121-1.771-0.121c-0.747,0-1.579,0.099-2.497,0.295c-0.919,0.197-1.867,0.482-2.846,0.855h-0.152v-2.892
				c0.556-0.15,1.357-0.317,2.407-0.499s2.084-0.272,3.103-0.272c1.191,0,2.228,0.099,3.111,0.295
				c0.883,0.197,1.647,0.532,2.293,1.007c0.636,0.464,1.12,1.064,1.453,1.802c0.333,0.736,0.5,1.649,0.5,2.739V132.563z
				 M280.131,128.401v-4.708c-0.868,0.051-1.89,0.126-3.065,0.228c-1.176,0.101-2.106,0.247-2.793,0.438
				c-0.816,0.232-1.478,0.593-1.982,1.082c-0.505,0.49-0.757,1.163-0.757,2.021c0,0.969,0.293,1.698,0.878,2.188
				c0.585,0.49,1.479,0.734,2.68,0.734c0.998,0,1.912-0.194,2.739-0.583C278.657,129.413,279.425,128.946,280.131,128.401z"/>
			<path fill="#FFFFFF" d="M300.52,127.689c0,1.544-0.638,2.811-1.914,3.8c-1.277,0.988-3.02,1.482-5.23,1.482
				c-1.251,0-2.398-0.148-3.443-0.446c-1.044-0.297-1.92-0.623-2.626-0.976v-3.194h0.151c0.898,0.676,1.897,1.214,2.997,1.612
				s2.154,0.598,3.163,0.598c1.252,0,2.23-0.202,2.938-0.605c0.706-0.403,1.059-1.039,1.059-1.907c0-0.666-0.191-1.171-0.574-1.514
				c-0.384-0.343-1.121-0.636-2.211-0.878c-0.403-0.091-0.931-0.197-1.581-0.318c-0.651-0.121-1.244-0.252-1.778-0.393
				c-1.484-0.395-2.536-0.972-3.156-1.733c-0.621-0.762-0.932-1.698-0.932-2.808c0-0.697,0.145-1.353,0.432-1.969
				c0.288-0.615,0.725-1.165,1.31-1.649c0.565-0.475,1.284-0.85,2.157-1.128c0.872-0.277,1.849-0.416,2.929-0.416
				c1.009,0,2.03,0.124,3.065,0.371c1.034,0.247,1.895,0.547,2.58,0.9v3.043h-0.15c-0.727-0.535-1.61-0.986-2.649-1.355
				c-1.039-0.368-2.059-0.553-3.058-0.553c-1.039,0-1.917,0.2-2.634,0.599s-1.075,0.991-1.075,1.778
				c0,0.696,0.218,1.221,0.651,1.574c0.424,0.354,1.11,0.641,2.059,0.863c0.524,0.121,1.112,0.242,1.764,0.363
				c0.65,0.121,1.193,0.231,1.627,0.332c1.322,0.303,2.341,0.823,3.058,1.56C300.162,125.469,300.52,126.458,300.52,127.689z"/>
			<path fill="#FFFFFF" d="M316.671,127.689c0,1.544-0.638,2.811-1.914,3.8c-1.277,0.988-3.02,1.482-5.23,1.482
				c-1.251,0-2.398-0.148-3.443-0.446c-1.044-0.297-1.92-0.623-2.626-0.976v-3.194h0.151c0.898,0.676,1.897,1.214,2.997,1.612
				s2.154,0.598,3.163,0.598c1.252,0,2.23-0.202,2.938-0.605c0.706-0.403,1.059-1.039,1.059-1.907c0-0.666-0.191-1.171-0.574-1.514
				c-0.384-0.343-1.121-0.636-2.211-0.878c-0.403-0.091-0.931-0.197-1.581-0.318c-0.651-0.121-1.244-0.252-1.778-0.393
				c-1.484-0.395-2.536-0.972-3.156-1.733c-0.621-0.762-0.932-1.698-0.932-2.808c0-0.697,0.145-1.353,0.432-1.969
				c0.288-0.615,0.725-1.165,1.31-1.649c0.565-0.475,1.284-0.85,2.157-1.128c0.872-0.277,1.849-0.416,2.929-0.416
				c1.009,0,2.03,0.124,3.065,0.371c1.034,0.247,1.895,0.547,2.58,0.9v3.043h-0.15c-0.727-0.535-1.61-0.986-2.649-1.355
				c-1.039-0.368-2.059-0.553-3.058-0.553c-1.039,0-1.917,0.2-2.634,0.599s-1.075,0.991-1.075,1.778
				c0,0.696,0.218,1.221,0.651,1.574c0.424,0.354,1.11,0.641,2.059,0.863c0.524,0.121,1.112,0.242,1.764,0.363
				c0.65,0.121,1.193,0.231,1.627,0.332c1.322,0.303,2.341,0.823,3.058,1.56C316.313,125.469,316.671,126.458,316.671,127.689z"/>
			<path fill="#FFFFFF" d="M350.501,120.726H332.55v-2.422h17.951V120.726z M350.501,127.083H332.55v-2.422h17.951V127.083z"/>
			<path fill="#FFFFFF" d="M392.581,132.563h-2.846v-9.627c0-0.727-0.032-1.428-0.098-2.104c-0.066-0.677-0.205-1.217-0.416-1.62
				c-0.232-0.434-0.565-0.762-1-0.983c-0.434-0.223-1.059-0.334-1.877-0.334c-0.797,0-1.594,0.2-2.391,0.599
				c-0.798,0.398-1.595,0.905-2.393,1.521c0.031,0.232,0.056,0.503,0.076,0.811s0.03,0.613,0.03,0.916v10.822h-2.846v-9.627
				c0-0.747-0.033-1.455-0.099-2.127c-0.065-0.671-0.204-1.208-0.416-1.611c-0.232-0.435-0.565-0.76-0.999-0.977
				s-1.06-0.326-1.877-0.326c-0.777,0-1.557,0.192-2.339,0.576c-0.782,0.383-1.562,0.872-2.338,1.468v12.624h-2.846v-16.908h2.846
				v1.877c0.888-0.736,1.772-1.312,2.656-1.725c0.883-0.414,1.824-0.621,2.822-0.621c1.15,0,2.127,0.242,2.93,0.727
				c0.802,0.484,1.4,1.155,1.793,2.014c1.15-0.969,2.2-1.668,3.148-2.097c0.949-0.429,1.963-0.644,3.043-0.644
				c1.856,0,3.227,0.563,4.109,1.688c0.883,1.126,1.324,2.697,1.324,4.715V132.563z"/>
		</g>
		<g enable-background="new    ">
			<path fill="#FFFFFF" d="M405.569,132.839c0,0.8-0.115,1.531-0.345,2.192c-0.229,0.662-0.553,1.223-0.971,1.682
				c-0.388,0.436-0.846,0.772-1.372,1.011s-1.084,0.357-1.672,0.357c-0.513,0-0.976-0.057-1.391-0.168
				c-0.414-0.112-0.837-0.285-1.266-0.521v4.13h-1.659v-13.493h1.659v1.032c0.44-0.37,0.937-0.681,1.486-0.931
				s1.137-0.375,1.761-0.375c1.188,0,2.113,0.448,2.775,1.346S405.569,131.244,405.569,132.839z M403.857,132.883
				c0-1.188-0.203-2.076-0.609-2.665c-0.406-0.588-1.029-0.883-1.871-0.883c-0.477,0-0.956,0.104-1.438,0.31
				s-0.944,0.477-1.385,0.812v5.586c0.471,0.212,0.875,0.356,1.213,0.433s0.723,0.114,1.151,0.114c0.924,0,1.645-0.312,2.162-0.935
				C403.598,135.03,403.857,134.106,403.857,132.883z"/>
		</g>
		<g enable-background="new    ">
			<path fill="#FFFFFF" d="M439.08,120.726h-17.951v-2.422h17.951V120.726z M439.08,127.083h-17.951v-2.422h17.951V127.083z"/>
			<path fill="#FFFFFF" d="M471.383,132.563h-15.258v-3.164c1.059-0.908,2.121-1.816,3.186-2.725s2.057-1.811,2.975-2.709
				c1.938-1.877,3.265-3.368,3.98-4.473c0.717-1.105,1.075-2.299,1.075-3.58c0-1.171-0.386-2.086-1.158-2.747
				c-0.771-0.661-1.849-0.991-3.231-0.991c-0.918,0-1.912,0.161-2.982,0.484c-1.069,0.322-2.113,0.816-3.133,1.482h-0.151v-3.178
				c0.717-0.354,1.673-0.677,2.868-0.969c1.196-0.293,2.354-0.439,3.475-0.439c2.311,0,4.122,0.558,5.434,1.673
				s1.968,2.626,1.968,4.533c0,0.857-0.108,1.657-0.325,2.399c-0.218,0.741-0.537,1.445-0.961,2.111
				c-0.395,0.626-0.855,1.241-1.386,1.847c-0.529,0.605-1.173,1.276-1.93,2.013c-1.08,1.061-2.194,2.087-3.345,3.081
				s-2.226,1.915-3.225,2.763h12.125V132.563z"/>
			<path fill="#FFFFFF" d="M480.843,132.563h-3.617v-4.314h3.617V132.563z"/>
			<path fill="#FFFFFF" d="M501.08,132.563h-12.2v-2.301h4.692v-15.106h-4.692v-2.059c0.636,0,1.317-0.053,2.044-0.159
				c0.727-0.105,1.276-0.26,1.649-0.461c0.464-0.253,0.83-0.573,1.098-0.962c0.267-0.388,0.421-0.91,0.462-1.566h2.346v20.313h4.602
				V132.563z"/>
			<path fill="#FFFFFF" d="M522.242,126.282c0,1.947-0.76,3.566-2.278,4.858s-3.429,1.938-5.729,1.938
				c-2.441,0-4.387-0.631-5.835-1.892c-1.448-1.262-2.172-2.877-2.172-4.844c0-1.252,0.363-2.385,1.09-3.398
				c0.727-1.015,1.751-1.819,3.073-2.414v-0.092c-1.211-0.646-2.107-1.352-2.688-2.119c-0.58-0.767-0.87-1.725-0.87-2.875
				c0-1.695,0.696-3.108,2.089-4.238c1.393-1.131,3.164-1.695,5.313-1.695c2.251,0,4.047,0.539,5.389,1.619
				c1.343,1.08,2.014,2.452,2.014,4.117c0,1.02-0.318,2.021-0.953,3.005c-0.637,0.983-1.569,1.753-2.801,2.308v0.092
				c1.413,0.605,2.492,1.352,3.239,2.24C521.869,123.779,522.242,124.909,522.242,126.282z M519.124,126.569
				c0-0.929-0.204-1.673-0.613-2.232c-0.408-0.561-1.208-1.123-2.399-1.688c-0.474-0.223-0.993-0.43-1.559-0.621
				s-1.316-0.459-2.256-0.803c-0.908,0.495-1.637,1.166-2.187,2.014c-0.551,0.848-0.825,1.807-0.825,2.876
				c0,1.362,0.469,2.487,1.408,3.376c0.938,0.888,2.129,1.332,3.572,1.332c1.473,0,2.65-0.379,3.534-1.136
				C518.683,128.93,519.124,127.891,519.124,126.569z M518.654,115.277c0-1.08-0.416-1.939-1.248-2.581
				c-0.833-0.641-1.895-0.961-3.187-0.961c-1.271,0-2.313,0.303-3.126,0.908s-1.219,1.423-1.219,2.452
				c0,0.727,0.205,1.354,0.613,1.885c0.409,0.529,1.027,1.001,1.854,1.415c0.373,0.182,0.91,0.419,1.612,0.711
				c0.701,0.293,1.385,0.535,2.051,0.727c0.999-0.666,1.69-1.356,2.074-2.073C518.463,117.042,518.654,116.215,518.654,115.277z"/>
			<path fill="#FFFFFF" d="M545.053,129.293l-1.681,1.68l-6.6-6.66l-6.6,6.66l-1.681-1.68l6.66-6.6l-6.66-6.6l1.681-1.68l6.6,6.66
				l6.6-6.66l1.681,1.68l-6.66,6.6L545.053,129.293z"/>
			<path fill="#FFFFFF" d="M565.865,132.563h-12.2v-2.301h4.692v-15.106h-4.692v-2.059c0.636,0,1.317-0.053,2.044-0.159
				c0.727-0.105,1.276-0.26,1.649-0.461c0.464-0.253,0.83-0.573,1.098-0.962c0.267-0.388,0.421-0.91,0.462-1.566h2.346v20.313h4.602
				V132.563z"/>
			<path fill="#FFFFFF" d="M586.83,121.286c0,4.047-0.633,7.017-1.899,8.908c-1.267,1.893-3.231,2.838-5.896,2.838
				c-2.704,0-4.68-0.958-5.926-2.875c-1.247-1.918-1.869-4.864-1.869-8.84c0-4.007,0.63-6.966,1.892-8.878s3.229-2.868,5.903-2.868
				c2.704,0,4.68,0.971,5.926,2.913C586.207,114.427,586.83,117.361,586.83,121.286z M582.85,128.159
				c0.354-0.818,0.593-1.779,0.719-2.884c0.126-1.105,0.189-2.435,0.189-3.989c0-1.533-0.063-2.865-0.189-3.996
				c-0.126-1.13-0.371-2.088-0.734-2.875c-0.353-0.777-0.835-1.363-1.445-1.756c-0.61-0.395-1.395-0.591-2.354-0.591
				c-0.948,0-1.733,0.196-2.354,0.591c-0.621,0.393-1.113,0.988-1.477,1.785c-0.343,0.747-0.577,1.721-0.703,2.922
				c-0.127,1.201-0.189,2.518-0.189,3.951c0,1.574,0.056,2.891,0.166,3.95c0.111,1.06,0.349,2.008,0.712,2.846
				c0.333,0.787,0.805,1.388,1.415,1.802c0.61,0.413,1.421,0.62,2.43,0.62c0.948,0,1.735-0.196,2.361-0.591
				C582.022,129.551,582.507,128.956,582.85,128.159z"/>
		</g>
		<g enable-background="new    ">
			<path fill="#FFFFFF" d="M595.729,112.289h-5.506v-1.597h5.506V112.289z"/>
			<path fill="#FFFFFF" d="M607.29,113.065c0,0.612-0.111,1.197-0.335,1.756s-0.529,1.03-0.918,1.412
				c-0.424,0.412-0.928,0.728-1.514,0.949c-0.585,0.22-1.263,0.331-2.034,0.331c-0.718,0-1.409-0.075-2.073-0.225
				c-0.665-0.15-1.227-0.331-1.686-0.542v-1.862h0.123c0.482,0.306,1.048,0.566,1.694,0.781c0.647,0.215,1.283,0.322,1.906,0.322
				c0.418,0,0.822-0.059,1.214-0.177c0.391-0.118,0.739-0.323,1.046-0.618c0.259-0.253,0.454-0.556,0.587-0.909
				c0.132-0.353,0.198-0.762,0.198-1.227c0-0.453-0.078-0.835-0.234-1.147c-0.155-0.312-0.372-0.562-0.648-0.75
				c-0.306-0.224-0.678-0.381-1.116-0.472s-0.928-0.137-1.47-0.137c-0.518,0-1.016,0.035-1.495,0.106
				c-0.479,0.07-0.893,0.141-1.24,0.211V104.1h7.907v1.544h-6.204v3.495c0.253-0.023,0.512-0.041,0.776-0.053
				c0.266-0.012,0.494-0.018,0.688-0.018c0.712,0,1.336,0.061,1.871,0.181s1.026,0.334,1.474,0.64
				c0.471,0.324,0.835,0.741,1.095,1.253C607.161,111.654,607.29,112.295,607.29,113.065z"/>
		</g>
		<g enable-background="new    ">
			<path fill="#FFFFFF" d="M635.982,130.641c0,2.865-0.65,4.97-1.952,6.312s-3.306,2.013-6.009,2.013
				c-0.898,0-1.773-0.063-2.627-0.188c-0.853-0.127-1.693-0.306-2.52-0.538v-2.906h0.15c0.465,0.182,1.201,0.406,2.211,0.674
				c1.008,0.268,2.018,0.401,3.027,0.401c0.969,0,1.771-0.116,2.406-0.349c0.636-0.231,1.13-0.555,1.483-0.969
				c0.353-0.393,0.605-0.867,0.757-1.422c0.151-0.556,0.227-1.176,0.227-1.862v-1.544c-0.857,0.687-1.678,1.198-2.459,1.536
				c-0.782,0.339-1.779,0.507-2.99,0.507c-2.018,0-3.619-0.729-4.806-2.187c-1.186-1.458-1.778-3.515-1.778-6.169
				c0-1.453,0.204-2.706,0.613-3.761c0.408-1.055,0.966-1.966,1.672-2.732c0.656-0.717,1.453-1.273,2.393-1.673
				c0.938-0.398,1.871-0.598,2.8-0.598c0.979,0,1.799,0.099,2.46,0.295c0.66,0.197,1.359,0.497,2.096,0.9l0.182-0.727h2.664V130.641
				z M633.137,127.917v-9.219c-0.756-0.343-1.46-0.588-2.111-0.734c-0.65-0.146-1.299-0.219-1.945-0.219
				c-1.564,0-2.795,0.524-3.693,1.574c-0.898,1.049-1.347,2.572-1.347,4.57c0,1.897,0.333,3.336,0.999,4.314
				s1.771,1.469,3.314,1.469c0.828,0,1.658-0.159,2.49-0.478C631.677,128.877,632.441,128.451,633.137,127.917z"/>
			<path fill="#FFFFFF" d="M666.256,132.563h-2.846v-9.627c0-0.727-0.032-1.428-0.098-2.104c-0.066-0.677-0.205-1.217-0.416-1.62
				c-0.232-0.434-0.565-0.762-1-0.983c-0.434-0.223-1.059-0.334-1.877-0.334c-0.797,0-1.594,0.2-2.391,0.599
				c-0.798,0.398-1.596,0.905-2.393,1.521c0.031,0.232,0.056,0.503,0.076,0.811c0.02,0.308,0.03,0.613,0.03,0.916v10.822h-2.846
				v-9.627c0-0.747-0.032-1.455-0.099-2.127c-0.065-0.671-0.204-1.208-0.416-1.611c-0.232-0.435-0.565-0.76-0.999-0.977
				c-0.435-0.217-1.06-0.326-1.877-0.326c-0.777,0-1.557,0.192-2.339,0.576c-0.781,0.383-1.562,0.872-2.338,1.468v12.624h-2.846
				v-16.908h2.846v1.877c0.887-0.736,1.773-1.312,2.656-1.725c0.883-0.414,1.824-0.621,2.822-0.621c1.15,0,2.127,0.242,2.93,0.727
				c0.802,0.484,1.4,1.155,1.793,2.014c1.15-0.969,2.2-1.668,3.148-2.097c0.949-0.429,1.963-0.644,3.043-0.644
				c1.856,0,3.227,0.563,4.109,1.688c0.883,1.126,1.324,2.697,1.324,4.715V132.563z"/>
		</g>
		<line fill="none" stroke="#FFFFFF" stroke-width="3" x1="130.065" y1="141.234" x2="318.25" y2="141.234"/>
	</g>
</g>
</svg>
