<?xml version="1.0" encoding="utf-8"?>
<!-- Generator: Adobe Illustrator 16.0.0, SVG Export Plug-In . SVG Version: 6.00 Build 0)  -->
<!DOCTYPE svg PUBLIC "-//W3C//DTD SVG 1.1//EN" "http://www.w3.org/Graphics/SVG/1.1/DTD/svg11.dtd">
<svg version="1.1" id="Layer_2" xmlns="http://www.w3.org/2000/svg" xmlns:xlink="http://www.w3.org/1999/xlink" x="0px" y="0px"
	 width="962px" height="435px" viewBox="0 0 962 435" enable-background="new 0 0 962 435" xml:space="preserve">
<g id="step9White">
	<path fill="#291159" fill-opacity="0.8" stroke="#FFFFFF" stroke-width="3" stroke-miterlimit="10" d="M962,423
		c0,6.627-5.373,12-12,12H12c-6.627,0-12-5.373-12-12V12C0,5.373,5.373,0,12,0h938c6.627,0,12,5.373,12,12V423z"/>
	<g>
		<g enable-background="new    ">
			<path fill="#FFFFFF" d="M117.259,115.748h-2.997v-19.42l-6.267,13.214h-1.786l-6.221-13.214v19.42h-2.8V93.209h4.087
				l6.009,12.549l5.813-12.549h4.163V115.748z"/>
			<path fill="#FFFFFF" d="M136.225,115.748h-2.831v-1.801c-0.252,0.171-0.593,0.411-1.021,0.719
				c-0.429,0.308-0.846,0.553-1.249,0.734c-0.475,0.231-1.02,0.426-1.635,0.582c-0.616,0.156-1.337,0.234-2.165,0.234
				c-1.524,0-2.815-0.504-3.875-1.514c-1.06-1.009-1.589-2.295-1.589-3.859c0-1.281,0.275-2.318,0.825-3.11
				c0.55-0.792,1.334-1.415,2.354-1.87c1.029-0.453,2.265-0.762,3.708-0.923c1.443-0.161,2.992-0.282,4.647-0.363v-0.438
				c0-0.646-0.113-1.182-0.341-1.605c-0.227-0.424-0.552-0.756-0.976-0.998c-0.404-0.232-0.888-0.389-1.453-0.47
				c-0.565-0.081-1.156-0.121-1.771-0.121c-0.747,0-1.58,0.099-2.498,0.295c-0.918,0.197-1.867,0.482-2.846,0.855h-0.151v-2.892
				c0.555-0.15,1.357-0.317,2.407-0.499c1.049-0.182,2.083-0.272,3.103-0.272c1.19,0,2.228,0.099,3.111,0.295
				c0.883,0.197,1.647,0.532,2.293,1.007c0.636,0.464,1.12,1.064,1.453,1.802c0.333,0.736,0.5,1.649,0.5,2.739V115.748z
				 M133.395,111.586v-4.708c-0.868,0.051-1.89,0.126-3.065,0.228c-1.175,0.101-2.106,0.247-2.792,0.438
				c-0.817,0.232-1.479,0.593-1.983,1.082c-0.505,0.49-0.757,1.163-0.757,2.021c0,0.969,0.292,1.698,0.878,2.188
				c0.585,0.49,1.478,0.734,2.679,0.734c0.999,0,1.912-0.194,2.74-0.583C131.921,112.598,132.688,112.131,133.395,111.586z"/>
			<path fill="#FFFFFF" d="M153.783,110.874c0,1.544-0.638,2.811-1.914,3.8c-1.277,0.988-3.02,1.482-5.23,1.482
				c-1.251,0-2.398-0.148-3.443-0.446c-1.044-0.297-1.92-0.623-2.626-0.976v-3.194h0.151c0.898,0.676,1.897,1.214,2.997,1.612
				c1.1,0.398,2.154,0.598,3.163,0.598c1.252,0,2.23-0.202,2.938-0.605c0.706-0.403,1.059-1.039,1.059-1.907
				c0-0.666-0.191-1.171-0.574-1.514c-0.384-0.343-1.121-0.636-2.211-0.878c-0.403-0.091-0.931-0.197-1.581-0.318
				c-0.651-0.121-1.244-0.252-1.778-0.393c-1.484-0.395-2.536-0.972-3.156-1.733c-0.621-0.762-0.931-1.698-0.931-2.808
				c0-0.697,0.144-1.353,0.431-1.969c0.288-0.615,0.724-1.165,1.31-1.649c0.565-0.475,1.284-0.85,2.157-1.128
				c0.872-0.277,1.849-0.416,2.929-0.416c1.009,0,2.03,0.124,3.065,0.371c1.034,0.247,1.895,0.547,2.58,0.9v3.043h-0.15
				c-0.727-0.535-1.61-0.986-2.649-1.355c-1.039-0.368-2.059-0.553-3.058-0.553c-1.039,0-1.917,0.2-2.634,0.599
				s-1.075,0.991-1.075,1.778c0,0.696,0.217,1.221,0.651,1.574c0.424,0.354,1.11,0.641,2.059,0.863
				c0.524,0.121,1.112,0.242,1.764,0.363c0.65,0.121,1.193,0.231,1.627,0.332c1.322,0.303,2.341,0.823,3.058,1.56
				C153.426,108.654,153.783,109.643,153.783,110.874z"/>
			<path fill="#FFFFFF" d="M169.934,110.874c0,1.544-0.638,2.811-1.914,3.8c-1.277,0.988-3.02,1.482-5.23,1.482
				c-1.251,0-2.398-0.148-3.443-0.446c-1.044-0.297-1.92-0.623-2.626-0.976v-3.194h0.151c0.898,0.676,1.897,1.214,2.997,1.612
				s2.154,0.598,3.163,0.598c1.252,0,2.23-0.202,2.938-0.605c0.706-0.403,1.059-1.039,1.059-1.907c0-0.666-0.191-1.171-0.574-1.514
				c-0.384-0.343-1.121-0.636-2.211-0.878c-0.403-0.091-0.931-0.197-1.581-0.318c-0.651-0.121-1.244-0.252-1.778-0.393
				c-1.484-0.395-2.536-0.972-3.156-1.733c-0.621-0.762-0.932-1.698-0.932-2.808c0-0.697,0.145-1.353,0.432-1.969
				c0.288-0.615,0.725-1.165,1.31-1.649c0.565-0.475,1.284-0.85,2.157-1.128c0.872-0.277,1.849-0.416,2.929-0.416
				c1.009,0,2.03,0.124,3.065,0.371c1.034,0.247,1.895,0.547,2.58,0.9v3.043h-0.15c-0.727-0.535-1.61-0.986-2.649-1.355
				c-1.039-0.368-2.059-0.553-3.058-0.553c-1.039,0-1.917,0.2-2.634,0.599s-1.075,0.991-1.075,1.778
				c0,0.696,0.218,1.221,0.651,1.574c0.424,0.354,1.11,0.641,2.059,0.863c0.524,0.121,1.112,0.242,1.764,0.363
				c0.65,0.121,1.193,0.231,1.627,0.332c1.322,0.303,2.341,0.823,3.058,1.56C169.576,108.654,169.934,109.643,169.934,110.874z"/>
			<path fill="#FFFFFF" d="M204.174,104.502c0,2.048-0.446,3.904-1.34,5.57c-0.893,1.664-2.081,2.956-3.564,3.875
				c-1.029,0.635-2.178,1.095-3.443,1.377c-1.267,0.282-2.935,0.424-5.003,0.424h-5.691V93.209h5.631c2.2,0,3.948,0.159,5.245,0.478
				c1.296,0.317,2.394,0.754,3.292,1.31c1.534,0.958,2.729,2.234,3.588,3.829C203.745,100.42,204.174,102.312,204.174,104.502z
				 M201.04,104.456c0-1.766-0.308-3.255-0.923-4.466s-1.534-2.164-2.755-2.86c-0.888-0.505-1.832-0.855-2.83-1.052
				c-1-0.197-2.195-0.295-3.588-0.295h-2.815v17.392h2.815c1.443,0,2.702-0.106,3.776-0.317c1.075-0.213,2.062-0.605,2.96-1.182
				c1.119-0.716,1.96-1.659,2.52-2.83C200.761,107.675,201.04,106.212,201.04,104.456z"/>
			<path fill="#FFFFFF" d="M222.943,107.59h-12.457c0,1.039,0.156,1.944,0.469,2.717c0.313,0.771,0.742,1.405,1.287,1.899
				c0.524,0.484,1.147,0.848,1.869,1.09c0.721,0.242,1.516,0.363,2.384,0.363c1.15,0,2.309-0.229,3.474-0.688
				c1.166-0.459,1.996-0.911,2.49-1.355h0.151v3.104c-0.959,0.403-1.938,0.742-2.937,1.014c-0.999,0.273-2.049,0.409-3.148,0.409
				c-2.806,0-4.995-0.759-6.569-2.278c-1.574-1.519-2.361-3.676-2.361-6.471c0-2.765,0.754-4.96,2.263-6.584
				c1.509-1.625,3.494-2.438,5.957-2.438c2.28,0,4.038,0.666,5.274,1.998s1.854,3.225,1.854,5.676V107.59z M220.174,105.41
				c-0.011-1.494-0.387-2.649-1.128-3.467c-0.742-0.817-1.87-1.227-3.384-1.227c-1.523,0-2.737,0.449-3.64,1.348
				c-0.903,0.898-1.415,2.014-1.536,3.346H220.174z"/>
			<path fill="#FFFFFF" d="M241.395,115.748h-2.846v-9.627c0-0.777-0.045-1.506-0.136-2.188c-0.091-0.681-0.257-1.213-0.499-1.597
				c-0.253-0.424-0.616-0.739-1.09-0.946c-0.475-0.206-1.09-0.311-1.848-0.311c-0.776,0-1.589,0.192-2.437,0.576
				c-0.848,0.383-1.66,0.872-2.437,1.468v12.624h-2.846V98.84h2.846v1.877c0.888-0.736,1.806-1.312,2.754-1.725
				c0.949-0.414,1.923-0.621,2.922-0.621c1.826,0,3.219,0.55,4.178,1.65c0.959,1.1,1.438,2.684,1.438,4.752V115.748z"/>
			<path fill="#FFFFFF" d="M258.953,110.874c0,1.544-0.638,2.811-1.914,3.8c-1.277,0.988-3.02,1.482-5.23,1.482
				c-1.251,0-2.398-0.148-3.443-0.446c-1.044-0.297-1.92-0.623-2.626-0.976v-3.194h0.151c0.898,0.676,1.897,1.214,2.997,1.612
				s2.154,0.598,3.163,0.598c1.252,0,2.23-0.202,2.938-0.605c0.706-0.403,1.059-1.039,1.059-1.907c0-0.666-0.191-1.171-0.574-1.514
				c-0.384-0.343-1.121-0.636-2.211-0.878c-0.403-0.091-0.931-0.197-1.581-0.318c-0.651-0.121-1.244-0.252-1.778-0.393
				c-1.484-0.395-2.536-0.972-3.156-1.733c-0.621-0.762-0.932-1.698-0.932-2.808c0-0.697,0.145-1.353,0.432-1.969
				c0.288-0.615,0.725-1.165,1.31-1.649c0.565-0.475,1.284-0.85,2.157-1.128c0.872-0.277,1.849-0.416,2.929-0.416
				c1.009,0,2.03,0.124,3.065,0.371c1.034,0.247,1.895,0.547,2.58,0.9v3.043h-0.15c-0.727-0.535-1.61-0.986-2.649-1.355
				c-1.039-0.368-2.059-0.553-3.058-0.553c-1.039,0-1.917,0.2-2.634,0.599s-1.075,0.991-1.075,1.778
				c0,0.696,0.218,1.221,0.651,1.574c0.424,0.354,1.11,0.641,2.059,0.863c0.524,0.121,1.112,0.242,1.764,0.363
				c0.65,0.121,1.193,0.231,1.627,0.332c1.322,0.303,2.341,0.823,3.058,1.56C258.596,108.654,258.953,109.643,258.953,110.874z"/>
			<path fill="#FFFFFF" d="M266.082,96.01h-3.209v-2.951h3.209V96.01z M265.9,115.748h-2.846V98.84h2.846V115.748z"/>
			<path fill="#FFFFFF" d="M280.313,115.597c-0.535,0.142-1.118,0.257-1.749,0.349c-0.631,0.09-1.193,0.136-1.688,0.136
				c-1.726,0-3.037-0.464-3.936-1.393s-1.347-2.417-1.347-4.466v-8.99h-1.923V98.84h1.923v-4.858h2.846v4.858h5.873v2.393h-5.873
				v7.704c0,0.888,0.02,1.582,0.061,2.081c0.04,0.5,0.182,0.967,0.424,1.4c0.222,0.403,0.526,0.699,0.915,0.886
				s0.981,0.28,1.778,0.28c0.465,0,0.949-0.068,1.453-0.205c0.505-0.136,0.868-0.25,1.09-0.34h0.152V115.597z"/>
			<path fill="#FFFFFF" d="M298.218,98.84l-9.869,23.145h-3.042l3.148-7.054L281.72,98.84h3.088l5.191,12.533l5.237-12.533H298.218z
				"/>
			<path fill="#FFFFFF" d="M334.107,98.84l-4.405,16.908h-2.633l-4.345-13.033l-4.313,13.033h-2.619l-4.45-16.908h2.967
				l3.103,13.094l4.224-13.094h2.347l4.328,13.094l2.938-13.094H334.107z"/>
			<path fill="#FFFFFF" d="M341.267,96.01h-3.209v-2.951h3.209V96.01z M341.085,115.748h-2.846V98.84h2.846V115.748z"/>
			<path fill="#FFFFFF" d="M355.496,115.597c-0.535,0.142-1.118,0.257-1.749,0.349c-0.631,0.09-1.193,0.136-1.688,0.136
				c-1.726,0-3.037-0.464-3.936-1.393s-1.347-2.417-1.347-4.466v-8.99h-1.923V98.84h1.923v-4.858h2.846v4.858h5.873v2.393h-5.873
				v7.704c0,0.888,0.02,1.582,0.061,2.081c0.04,0.5,0.182,0.967,0.424,1.4c0.222,0.403,0.526,0.699,0.915,0.886
				s0.981,0.28,1.778,0.28c0.465,0,0.949-0.068,1.453-0.205c0.505-0.136,0.868-0.25,1.09-0.34h0.152V115.597z"/>
			<path fill="#FFFFFF" d="M373.068,115.748h-2.846v-9.627c0-0.777-0.045-1.506-0.136-2.188c-0.091-0.681-0.257-1.213-0.499-1.597
				c-0.253-0.424-0.616-0.739-1.09-0.946c-0.475-0.206-1.09-0.311-1.848-0.311c-0.776,0-1.589,0.192-2.437,0.576
				c-0.848,0.383-1.66,0.872-2.437,1.468v12.624h-2.846V92.195h2.846v8.521c0.888-0.736,1.806-1.312,2.754-1.725
				c0.949-0.414,1.923-0.621,2.922-0.621c1.826,0,3.219,0.55,4.178,1.65c0.959,1.1,1.438,2.684,1.438,4.752V115.748z"/>
			<path fill="#FFFFFF" d="M381.605,96.01h-3.209v-2.951h3.209V96.01z M381.424,115.748h-2.846V98.84h2.846V115.748z"/>
			<path fill="#FFFFFF" d="M401.193,115.748h-2.846v-9.627c0-0.777-0.045-1.506-0.136-2.188c-0.091-0.681-0.257-1.213-0.499-1.597
				c-0.253-0.424-0.616-0.739-1.09-0.946c-0.475-0.206-1.09-0.311-1.848-0.311c-0.776,0-1.589,0.192-2.437,0.576
				c-0.848,0.383-1.66,0.872-2.437,1.468v12.624h-2.846V98.84h2.846v1.877c0.888-0.736,1.806-1.312,2.754-1.725
				c0.949-0.414,1.923-0.621,2.922-0.621c1.826,0,3.219,0.55,4.178,1.65c0.959,1.1,1.438,2.684,1.438,4.752V115.748z"/>
			<path fill="#FFFFFF" d="M430.711,115.748h-2.831v-1.801c-0.252,0.171-0.593,0.411-1.021,0.719
				c-0.43,0.308-0.846,0.553-1.249,0.734c-0.475,0.231-1.02,0.426-1.635,0.582s-1.337,0.234-2.164,0.234
				c-1.524,0-2.816-0.504-3.875-1.514c-1.061-1.009-1.59-2.295-1.59-3.859c0-1.281,0.274-2.318,0.825-3.11
				c0.55-0.792,1.334-1.415,2.354-1.87c1.029-0.453,2.266-0.762,3.708-0.923c1.443-0.161,2.992-0.282,4.647-0.363v-0.438
				c0-0.646-0.113-1.182-0.341-1.605c-0.227-0.424-0.553-0.756-0.977-0.998c-0.403-0.232-0.888-0.389-1.453-0.47
				c-0.564-0.081-1.155-0.121-1.771-0.121c-0.747,0-1.579,0.099-2.497,0.295c-0.919,0.197-1.867,0.482-2.846,0.855h-0.152v-2.892
				c0.556-0.15,1.357-0.317,2.407-0.499s2.084-0.272,3.103-0.272c1.191,0,2.228,0.099,3.111,0.295
				c0.883,0.197,1.647,0.532,2.293,1.007c0.636,0.464,1.12,1.064,1.453,1.802c0.333,0.736,0.5,1.649,0.5,2.739V115.748z
				 M427.88,111.586v-4.708c-0.868,0.051-1.89,0.126-3.065,0.228c-1.176,0.101-2.106,0.247-2.793,0.438
				c-0.816,0.232-1.478,0.593-1.982,1.082c-0.505,0.49-0.757,1.163-0.757,2.021c0,0.969,0.293,1.698,0.878,2.188
				c0.585,0.49,1.479,0.734,2.68,0.734c0.998,0,1.912-0.194,2.739-0.583C426.406,112.598,427.174,112.131,427.88,111.586z"/>
			<path fill="#FFFFFF" d="M462.058,100.021c0,0.998-0.174,1.925-0.522,2.777c-0.348,0.853-0.835,1.592-1.461,2.217
				c-0.776,0.777-1.695,1.36-2.754,1.749c-1.061,0.389-2.397,0.583-4.012,0.583h-2.997v8.4h-2.997V93.209h6.115
				c1.353,0,2.498,0.114,3.436,0.341c0.939,0.228,1.771,0.583,2.498,1.067c0.857,0.575,1.521,1.292,1.99,2.149
				C461.823,97.624,462.058,98.709,462.058,100.021z M458.939,100.097c0-0.777-0.137-1.453-0.408-2.028
				c-0.273-0.575-0.687-1.045-1.242-1.408c-0.484-0.313-1.036-0.537-1.657-0.673c-0.62-0.137-1.405-0.204-2.354-0.204h-2.967v9.006
				h2.528c1.211,0,2.194-0.108,2.951-0.325s1.372-0.563,1.847-1.037c0.475-0.484,0.81-0.994,1.007-1.528
				C458.841,101.363,458.939,100.763,458.939,100.097z"/>
			<path fill="#FFFFFF" d="M476.332,101.943h-0.151c-0.424-0.101-0.835-0.174-1.233-0.22c-0.399-0.045-0.87-0.067-1.415-0.067
				c-0.879,0-1.727,0.194-2.543,0.582c-0.818,0.389-1.605,0.891-2.361,1.506v12.004h-2.846V98.84h2.846v2.498
				c1.13-0.908,2.126-1.552,2.989-1.93c0.862-0.379,1.743-0.568,2.642-0.568c0.494,0,0.853,0.014,1.074,0.038
				c0.222,0.025,0.555,0.073,0.999,0.144V101.943z"/>
			<path fill="#FFFFFF" d="M493.422,107.302c0,2.755-0.707,4.93-2.119,6.524c-1.413,1.594-3.306,2.391-5.677,2.391
				c-2.392,0-4.291-0.797-5.699-2.391c-1.407-1.595-2.111-3.77-2.111-6.524s0.704-4.932,2.111-6.531
				c1.408-1.6,3.308-2.399,5.699-2.399c2.371,0,4.264,0.8,5.677,2.399C492.715,102.37,493.422,104.547,493.422,107.302z
				 M490.484,107.302c0-2.189-0.429-3.816-1.286-4.882c-0.857-1.064-2.049-1.597-3.572-1.597c-1.544,0-2.742,0.532-3.595,1.597
				c-0.854,1.065-1.279,2.692-1.279,4.882c0,2.119,0.429,3.727,1.287,4.821c0.857,1.095,2.053,1.643,3.587,1.643
				c1.514,0,2.702-0.543,3.564-1.628C490.054,111.054,490.484,109.441,490.484,107.302z"/>
			<path fill="#FFFFFF" d="M506.605,115.597c-0.535,0.142-1.118,0.257-1.749,0.349c-0.631,0.09-1.193,0.136-1.688,0.136
				c-1.726,0-3.037-0.464-3.936-1.393s-1.347-2.417-1.347-4.466v-8.99h-1.923V98.84h1.923v-4.858h2.846v4.858h5.873v2.393h-5.873
				v7.704c0,0.888,0.02,1.582,0.061,2.081c0.04,0.5,0.182,0.967,0.424,1.4c0.222,0.403,0.526,0.699,0.915,0.886
				s0.981,0.28,1.778,0.28c0.465,0,0.949-0.068,1.453-0.205c0.505-0.136,0.868-0.25,1.09-0.34h0.152V115.597z"/>
			<path fill="#FFFFFF" d="M524.452,107.302c0,2.755-0.707,4.93-2.119,6.524c-1.413,1.594-3.306,2.391-5.677,2.391
				c-2.392,0-4.291-0.797-5.699-2.391c-1.407-1.595-2.111-3.77-2.111-6.524s0.704-4.932,2.111-6.531
				c1.408-1.6,3.308-2.399,5.699-2.399c2.371,0,4.264,0.8,5.677,2.399C523.745,102.37,524.452,104.547,524.452,107.302z
				 M521.515,107.302c0-2.189-0.429-3.816-1.286-4.882c-0.857-1.064-2.049-1.597-3.572-1.597c-1.544,0-2.742,0.532-3.595,1.597
				c-0.854,1.065-1.279,2.692-1.279,4.882c0,2.119,0.429,3.727,1.287,4.821c0.857,1.095,2.053,1.643,3.587,1.643
				c1.514,0,2.702-0.543,3.564-1.628C521.084,111.054,521.515,109.441,521.515,107.302z"/>
			<path fill="#FFFFFF" d="M542.994,115.748h-2.846v-9.627c0-0.777-0.045-1.506-0.136-2.188c-0.091-0.681-0.257-1.213-0.499-1.597
				c-0.253-0.424-0.616-0.739-1.09-0.946c-0.475-0.206-1.09-0.311-1.848-0.311c-0.776,0-1.589,0.192-2.437,0.576
				c-0.848,0.383-1.66,0.872-2.437,1.468v12.624h-2.846V98.84h2.846v1.877c0.888-0.736,1.806-1.312,2.754-1.725
				c0.949-0.414,1.923-0.621,2.922-0.621c1.826,0,3.219,0.55,4.178,1.65c0.959,1.1,1.438,2.684,1.438,4.752V115.748z"/>
			<path fill="#FFFFFF" d="M577.37,93.209l-8.204,22.539h-3.996l-8.204-22.539h3.209l7.069,19.83l7.068-19.83H577.37z"/>
			<path fill="#FFFFFF" d="M593.461,107.302c0,2.755-0.707,4.93-2.119,6.524c-1.413,1.594-3.306,2.391-5.677,2.391
				c-2.392,0-4.291-0.797-5.699-2.391c-1.407-1.595-2.111-3.77-2.111-6.524s0.704-4.932,2.111-6.531
				c1.408-1.6,3.308-2.399,5.699-2.399c2.371,0,4.264,0.8,5.677,2.399C592.754,102.37,593.461,104.547,593.461,107.302z
				 M590.523,107.302c0-2.189-0.429-3.816-1.286-4.882c-0.857-1.064-2.049-1.597-3.572-1.597c-1.544,0-2.742,0.532-3.595,1.597
				c-0.854,1.065-1.279,2.692-1.279,4.882c0,2.119,0.429,3.727,1.287,4.821c0.857,1.095,2.053,1.643,3.587,1.643
				c1.514,0,2.702-0.543,3.564-1.628C590.093,111.054,590.523,109.441,590.523,107.302z"/>
			<path fill="#FFFFFF" d="M600.74,115.748h-2.846V92.195h2.846V115.748z"/>
			<path fill="#FFFFFF" d="M620.388,115.748h-2.846v-1.877c-0.958,0.757-1.877,1.337-2.754,1.74
				c-0.879,0.404-1.848,0.605-2.906,0.605c-1.776,0-3.159-0.542-4.148-1.627c-0.988-1.084-1.482-2.677-1.482-4.775V98.84h2.846
				v9.627c0,0.858,0.04,1.593,0.121,2.203c0.08,0.61,0.252,1.133,0.514,1.566c0.273,0.444,0.626,0.767,1.061,0.969
				c0.434,0.202,1.064,0.303,1.892,0.303c0.736,0,1.541-0.191,2.414-0.575s1.688-0.873,2.444-1.468V98.84h2.846V115.748z"/>
			<path fill="#FFFFFF" d="M650.661,115.748h-2.846v-9.627c0-0.727-0.032-1.428-0.098-2.104c-0.066-0.677-0.205-1.217-0.416-1.62
				c-0.232-0.434-0.565-0.762-1-0.983c-0.434-0.223-1.059-0.334-1.877-0.334c-0.797,0-1.594,0.2-2.391,0.599
				c-0.798,0.398-1.595,0.905-2.393,1.521c0.031,0.232,0.056,0.503,0.076,0.811s0.03,0.613,0.03,0.916v10.822h-2.846v-9.627
				c0-0.747-0.033-1.455-0.099-2.127c-0.065-0.671-0.204-1.208-0.416-1.611c-0.232-0.435-0.565-0.76-0.999-0.977
				s-1.06-0.326-1.877-0.326c-0.777,0-1.557,0.192-2.339,0.576c-0.782,0.383-1.562,0.872-2.338,1.468v12.624h-2.846V98.84h2.846
				v1.877c0.888-0.736,1.772-1.312,2.656-1.725c0.883-0.414,1.824-0.621,2.822-0.621c1.15,0,2.127,0.242,2.93,0.727
				c0.802,0.484,1.4,1.155,1.793,2.014c1.15-0.969,2.2-1.668,3.148-2.097c0.949-0.429,1.963-0.644,3.043-0.644
				c1.856,0,3.227,0.563,4.109,1.688c0.883,1.126,1.324,2.697,1.324,4.715V115.748z"/>
			<path fill="#FFFFFF" d="M670.294,107.59h-12.457c0,1.039,0.156,1.944,0.469,2.717c0.313,0.771,0.742,1.405,1.287,1.899
				c0.524,0.484,1.147,0.848,1.869,1.09c0.721,0.242,1.516,0.363,2.384,0.363c1.15,0,2.309-0.229,3.474-0.688
				c1.166-0.459,1.996-0.911,2.49-1.355h0.151v3.104c-0.959,0.403-1.938,0.742-2.937,1.014c-0.999,0.273-2.049,0.409-3.148,0.409
				c-2.806,0-4.995-0.759-6.569-2.278c-1.574-1.519-2.361-3.676-2.361-6.471c0-2.765,0.754-4.96,2.263-6.584
				c1.509-1.625,3.494-2.438,5.957-2.438c2.28,0,4.038,0.666,5.274,1.998s1.854,3.225,1.854,5.676V107.59z M667.524,105.41
				c-0.011-1.494-0.387-2.649-1.128-3.467c-0.742-0.817-1.87-1.227-3.384-1.227c-1.523,0-2.737,0.449-3.64,1.348
				c-0.903,0.898-1.415,2.014-1.536,3.346H667.524z"/>
		</g>
		<line fill="none" stroke="#FFFFFF" stroke-width="2" x1="94.166" y1="125.42" x2="673.557" y2="125.42"/>
		<g enable-background="new    ">
			<path fill="#FFFFFF" d="M118.099,238.41h-3.89l-7.538-8.961h-4.223v8.961H99.45v-22.539h6.312c1.362,0,2.498,0.089,3.406,0.266
				s1.726,0.492,2.452,0.945c0.817,0.516,1.456,1.164,1.915,1.945c0.459,0.782,0.688,1.773,0.688,2.975
				c0,1.625-0.409,2.984-1.226,4.079c-0.817,1.096-1.943,1.92-3.375,2.476L118.099,238.41z M111.09,222.214
				c0-0.646-0.114-1.219-0.34-1.718c-0.228-0.5-0.604-0.921-1.128-1.264c-0.434-0.293-0.949-0.497-1.544-0.613
				c-0.596-0.116-1.297-0.174-2.104-0.174h-3.527v8.506h3.027c0.948,0,1.776-0.083,2.482-0.249c0.706-0.167,1.307-0.478,1.801-0.931
				c0.454-0.424,0.79-0.911,1.006-1.461C110.982,223.761,111.09,223.062,111.09,222.214z"/>
		</g>
		<g enable-background="new    ">
			<path fill="#FFFFFF" d="M128.285,238.686c0,0.801-0.115,1.531-0.345,2.193c-0.229,0.662-0.553,1.223-0.971,1.682
				c-0.388,0.436-0.846,0.771-1.372,1.01s-1.084,0.357-1.672,0.357c-0.512,0-0.976-0.056-1.39-0.168
				c-0.415-0.111-0.837-0.285-1.267-0.52v4.129h-1.659v-13.492h1.659v1.032c0.441-0.37,0.937-0.681,1.487-0.931
				c0.55-0.25,1.137-0.375,1.76-0.375c1.188,0,2.114,0.448,2.775,1.346C127.954,235.846,128.285,237.092,128.285,238.686z
				 M126.573,238.73c0-1.188-0.203-2.076-0.609-2.665c-0.405-0.589-1.029-0.883-1.87-0.883c-0.477,0-0.957,0.103-1.438,0.31
				c-0.482,0.205-0.944,0.477-1.386,0.812v5.586c0.471,0.212,0.875,0.356,1.213,0.433c0.339,0.076,0.723,0.114,1.152,0.114
				c0.923,0,1.644-0.312,2.162-0.935C126.314,240.878,126.573,239.954,126.573,238.73z"/>
			<path fill="#FFFFFF" d="M139.554,243.734h-8.895v-1.845c0.617-0.53,1.236-1.06,1.857-1.589c0.62-0.529,1.198-1.056,1.733-1.579
				c1.13-1.095,1.903-1.964,2.321-2.608c0.418-0.644,0.627-1.34,0.627-2.086c0-0.684-0.226-1.217-0.676-1.603
				c-0.449-0.386-1.078-0.577-1.884-0.577c-0.535,0-1.115,0.094-1.738,0.281c-0.624,0.189-1.232,0.477-1.827,0.865h-0.088v-1.854
				c0.418-0.205,0.976-0.394,1.672-0.564c0.697-0.17,1.373-0.256,2.025-0.256c1.348,0,2.403,0.325,3.168,0.975
				c0.765,0.65,1.147,1.531,1.147,2.644c0,0.5-0.063,0.966-0.189,1.399c-0.127,0.432-0.313,0.842-0.561,1.23
				c-0.229,0.365-0.499,0.724-0.808,1.076c-0.309,0.354-0.684,0.744-1.125,1.174c-0.63,0.617-1.279,1.217-1.95,1.796
				s-1.297,1.116-1.88,1.61h7.068V243.734z"/>
		</g>
		<g enable-background="new    ">
			<path fill="#FFFFFF" d="M168.742,226.573H150.79v-2.422h17.952V226.573z M168.742,232.931H150.79v-2.422h17.952V232.931z"/>
			<path fill="#FFFFFF" d="M201.558,232.068h-3.345v6.342h-2.906v-6.342h-10.792v-3.482l10.914-12.715h2.785v13.775h3.345V232.068z
				 M195.307,229.646v-10.172l-8.734,10.172H195.307z"/>
			<path fill="#FFFFFF" d="M210.504,238.41h-3.617v-4.314h3.617V238.41z"/>
			<path fill="#FFFFFF" d="M231.997,225.786c0,1.968-0.225,3.754-0.673,5.358c-0.449,1.604-1.128,2.972-2.036,4.102
				c-0.918,1.15-2.068,2.039-3.451,2.664c-1.383,0.626-3.007,0.939-4.874,0.939c-0.524,0-1.02-0.028-1.483-0.084
				s-0.878-0.144-1.241-0.265v-2.892h0.151c0.293,0.152,0.706,0.296,1.241,0.432c0.535,0.137,1.13,0.205,1.786,0.205
				c2.23,0,3.979-0.669,5.245-2.006c1.266-1.337,2-3.182,2.202-5.533c-0.938,0.565-1.821,0.969-2.648,1.211
				c-0.828,0.242-1.731,0.363-2.71,0.363c-0.929,0-1.769-0.09-2.521-0.271s-1.506-0.535-2.263-1.061
				c-0.888-0.615-1.557-1.397-2.006-2.346s-0.673-2.084-0.673-3.406c0-2.301,0.756-4.172,2.27-5.615s3.361-2.164,5.541-2.164
				c1.09,0,2.099,0.169,3.027,0.507c0.928,0.338,1.74,0.845,2.437,1.521c0.857,0.838,1.519,1.915,1.983,3.232
				C231.766,221.994,231.997,223.697,231.997,225.786z M228.94,225.135c0-1.563-0.162-2.82-0.484-3.769
				c-0.323-0.948-0.768-1.686-1.332-2.21c-0.475-0.454-0.984-0.779-1.529-0.977c-0.545-0.196-1.135-0.295-1.771-0.295
				c-1.453,0-2.601,0.454-3.443,1.362s-1.264,2.185-1.264,3.829c0,0.959,0.137,1.741,0.408,2.347
				c0.273,0.605,0.732,1.136,1.378,1.589c0.454,0.313,0.954,0.522,1.499,0.629c0.545,0.105,1.15,0.158,1.816,0.158
				c0.787,0,1.584-0.105,2.391-0.317c0.808-0.212,1.564-0.52,2.271-0.923c0.01-0.213,0.022-0.422,0.037-0.629
				C228.933,225.724,228.94,225.458,228.94,225.135z"/>
			<path fill="#FFFFFF" d="M251.903,232.129c0,1.947-0.76,3.566-2.278,4.858s-3.429,1.938-5.729,1.938
				c-2.441,0-4.387-0.631-5.835-1.892c-1.448-1.262-2.172-2.877-2.172-4.844c0-1.252,0.363-2.385,1.09-3.398
				c0.727-1.015,1.751-1.819,3.073-2.414v-0.092c-1.211-0.646-2.107-1.352-2.688-2.119c-0.58-0.767-0.87-1.725-0.87-2.875
				c0-1.695,0.696-3.108,2.089-4.238c1.393-1.131,3.164-1.695,5.313-1.695c2.251,0,4.047,0.539,5.389,1.619
				c1.343,1.08,2.014,2.452,2.014,4.117c0,1.02-0.318,2.021-0.953,3.005c-0.637,0.983-1.569,1.753-2.801,2.308v0.092
				c1.413,0.605,2.492,1.352,3.239,2.24C251.53,229.626,251.903,230.756,251.903,232.129z M248.785,232.416
				c0-0.929-0.204-1.673-0.613-2.232c-0.408-0.561-1.208-1.123-2.399-1.688c-0.474-0.223-0.993-0.43-1.559-0.621
				s-1.316-0.459-2.256-0.803c-0.908,0.495-1.637,1.166-2.187,2.014c-0.551,0.848-0.825,1.807-0.825,2.876
				c0,1.362,0.469,2.487,1.408,3.376c0.938,0.888,2.129,1.332,3.572,1.332c1.473,0,2.65-0.379,3.534-1.136
				C248.344,234.777,248.785,233.738,248.785,232.416z M248.315,221.124c0-1.08-0.416-1.939-1.248-2.581
				c-0.833-0.641-1.895-0.961-3.187-0.961c-1.271,0-2.313,0.303-3.126,0.908s-1.219,1.423-1.219,2.452
				c0,0.727,0.205,1.354,0.613,1.885c0.409,0.529,1.027,1.001,1.854,1.415c0.373,0.182,0.91,0.419,1.612,0.711
				c0.701,0.293,1.385,0.535,2.051,0.727c0.999-0.666,1.69-1.356,2.074-2.073C248.124,222.89,248.315,222.063,248.315,221.124z"/>
			<path fill="#FFFFFF" d="M274.714,235.141l-1.681,1.68l-6.6-6.66l-6.6,6.66l-1.681-1.68l6.66-6.6l-6.66-6.6l1.681-1.68l6.6,6.66
				l6.6-6.66l1.681,1.68l-6.66,6.6L274.714,235.141z"/>
			<path fill="#FFFFFF" d="M295.526,238.41h-12.2v-2.301h4.692v-15.106h-4.692v-2.059c0.636,0,1.317-0.053,2.044-0.159
				c0.727-0.105,1.276-0.26,1.649-0.461c0.464-0.253,0.83-0.573,1.098-0.962c0.267-0.388,0.421-0.91,0.462-1.566h2.346v20.313h4.602
				V238.41z"/>
			<path fill="#FFFFFF" d="M316.491,227.133c0,4.047-0.633,7.017-1.899,8.908c-1.267,1.893-3.231,2.838-5.896,2.838
				c-2.704,0-4.68-0.958-5.926-2.875c-1.247-1.918-1.869-4.864-1.869-8.84c0-4.007,0.63-6.966,1.892-8.878s3.229-2.868,5.903-2.868
				c2.704,0,4.68,0.971,5.926,2.913C315.868,220.274,316.491,223.208,316.491,227.133z M312.511,234.006
				c0.354-0.818,0.593-1.779,0.719-2.884c0.126-1.105,0.189-2.435,0.189-3.989c0-1.533-0.063-2.865-0.189-3.996
				c-0.126-1.13-0.371-2.088-0.734-2.875c-0.353-0.777-0.835-1.363-1.445-1.756c-0.61-0.395-1.395-0.591-2.354-0.591
				c-0.948,0-1.733,0.196-2.354,0.591c-0.621,0.393-1.113,0.988-1.477,1.785c-0.343,0.747-0.577,1.721-0.703,2.922
				c-0.127,1.201-0.189,2.518-0.189,3.951c0,1.574,0.056,2.891,0.166,3.95c0.111,1.06,0.349,2.008,0.712,2.846
				c0.333,0.787,0.805,1.388,1.415,1.802c0.61,0.413,1.421,0.62,2.43,0.62c0.948,0,1.735-0.196,2.361-0.591
				C311.684,235.398,312.168,234.803,312.511,234.006z"/>
		</g>
		<g enable-background="new    ">
			<path fill="#FFFFFF" d="M328.745,218.913c0,0.612-0.111,1.197-0.335,1.757c-0.224,0.559-0.529,1.029-0.918,1.412
				c-0.424,0.411-0.928,0.728-1.514,0.948c-0.585,0.22-1.263,0.331-2.034,0.331c-0.718,0-1.409-0.075-2.073-0.226
				c-0.665-0.149-1.227-0.331-1.686-0.542v-1.862h0.123c0.482,0.306,1.048,0.565,1.694,0.78c0.647,0.215,1.283,0.322,1.906,0.322
				c0.418,0,0.822-0.059,1.214-0.176c0.391-0.118,0.739-0.324,1.046-0.618c0.259-0.253,0.454-0.556,0.587-0.909
				c0.132-0.353,0.198-0.762,0.198-1.227c0-0.453-0.078-0.835-0.234-1.147c-0.155-0.312-0.372-0.562-0.648-0.75
				c-0.306-0.224-0.678-0.381-1.116-0.472s-0.928-0.137-1.47-0.137c-0.518,0-1.016,0.035-1.495,0.106
				c-0.479,0.07-0.893,0.141-1.24,0.211v-6.769h7.907v1.544h-6.204v3.495c0.253-0.023,0.512-0.041,0.776-0.053
				c0.266-0.012,0.494-0.018,0.688-0.018c0.712,0,1.336,0.061,1.871,0.181s1.026,0.334,1.474,0.64
				c0.471,0.324,0.835,0.741,1.095,1.253C328.616,217.501,328.745,218.143,328.745,218.913z"/>
			<path fill="#FFFFFF" d="M340.235,218.913c0,0.612-0.111,1.197-0.335,1.757c-0.224,0.559-0.529,1.029-0.918,1.412
				c-0.424,0.411-0.928,0.728-1.514,0.948c-0.585,0.22-1.263,0.331-2.034,0.331c-0.718,0-1.409-0.075-2.073-0.226
				c-0.665-0.149-1.227-0.331-1.686-0.542v-1.862h0.123c0.482,0.306,1.048,0.565,1.694,0.78c0.647,0.215,1.283,0.322,1.906,0.322
				c0.418,0,0.822-0.059,1.214-0.176c0.391-0.118,0.739-0.324,1.046-0.618c0.259-0.253,0.454-0.556,0.587-0.909
				c0.132-0.353,0.198-0.762,0.198-1.227c0-0.453-0.078-0.835-0.234-1.147c-0.155-0.312-0.372-0.562-0.648-0.75
				c-0.306-0.224-0.678-0.381-1.116-0.472s-0.928-0.137-1.47-0.137c-0.518,0-1.016,0.035-1.495,0.106
				c-0.479,0.07-0.893,0.141-1.24,0.211v-6.769h7.907v1.544h-6.204v3.495c0.253-0.023,0.512-0.041,0.776-0.053
				c0.266-0.012,0.494-0.018,0.688-0.018c0.712,0,1.336,0.061,1.871,0.181s1.026,0.334,1.474,0.64
				c0.471,0.324,0.835,0.741,1.095,1.253C340.106,217.501,340.235,218.143,340.235,218.913z"/>
		</g>
		<g enable-background="new    ">
			<path fill="#FFFFFF" d="M368.928,236.488c0,2.865-0.651,4.97-1.953,6.312s-3.305,2.013-6.009,2.013
				c-0.898,0-1.773-0.063-2.626-0.188c-0.853-0.127-1.693-0.306-2.52-0.538v-2.906h0.151c0.464,0.182,1.201,0.406,2.21,0.674
				c1.009,0.268,2.018,0.401,3.027,0.401c0.969,0,1.771-0.116,2.407-0.349c0.636-0.231,1.13-0.555,1.483-0.969
				c0.353-0.393,0.605-0.867,0.757-1.422c0.151-0.556,0.227-1.176,0.227-1.862v-1.544c-0.858,0.687-1.678,1.198-2.459,1.536
				c-0.782,0.339-1.779,0.507-2.99,0.507c-2.019,0-3.62-0.729-4.806-2.187c-1.186-1.458-1.778-3.515-1.778-6.169
				c0-1.453,0.204-2.706,0.613-3.761c0.408-1.055,0.966-1.966,1.672-2.732c0.656-0.717,1.453-1.273,2.392-1.673
				c0.938-0.398,1.872-0.598,2.8-0.598c0.979,0,1.799,0.099,2.46,0.295c0.661,0.197,1.359,0.497,2.096,0.9l0.182-0.727h2.664
				V236.488z M366.082,233.764v-9.219c-0.757-0.343-1.46-0.588-2.112-0.734c-0.65-0.146-1.299-0.219-1.945-0.219
				c-1.564,0-2.795,0.524-3.693,1.574c-0.898,1.049-1.347,2.572-1.347,4.57c0,1.897,0.333,3.336,0.999,4.314
				s1.771,1.469,3.315,1.469c0.827,0,1.658-0.159,2.49-0.478C364.622,234.725,365.386,234.298,366.082,233.764z"/>
			<path fill="#FFFFFF" d="M399.201,238.41h-2.846v-9.627c0-0.727-0.032-1.428-0.098-2.104c-0.066-0.677-0.205-1.217-0.416-1.62
				c-0.232-0.434-0.565-0.762-1-0.983c-0.434-0.223-1.059-0.334-1.877-0.334c-0.797,0-1.594,0.2-2.391,0.599
				c-0.797,0.398-1.595,0.905-2.392,1.521c0.03,0.232,0.055,0.503,0.076,0.811c0.02,0.308,0.03,0.613,0.03,0.916v10.822h-2.846
				v-9.627c0-0.747-0.033-1.455-0.099-2.127c-0.065-0.671-0.204-1.208-0.416-1.611c-0.232-0.435-0.565-0.76-0.999-0.977
				c-0.434-0.217-1.06-0.326-1.877-0.326c-0.777,0-1.557,0.192-2.339,0.576c-0.782,0.383-1.562,0.872-2.338,1.468v12.624h-2.846
				v-16.908h2.846v1.877c0.888-0.736,1.773-1.312,2.657-1.725c0.883-0.414,1.824-0.621,2.823-0.621c1.15,0,2.126,0.242,2.929,0.727
				c0.802,0.484,1.4,1.155,1.793,2.014c1.15-0.969,2.2-1.668,3.148-2.097s1.962-0.644,3.042-0.644c1.856,0,3.227,0.563,4.109,1.688
				c0.883,1.126,1.324,2.697,1.324,4.715V238.41z"/>
			<path fill="#FFFFFF" d="M425.796,214.857l-10.854,28.154h-2.618l10.808-28.154H425.796z"/>
			<path fill="#FFFFFF" d="M455.434,229.752c0,1.372-0.197,2.626-0.59,3.762c-0.395,1.135-0.949,2.096-1.666,2.883
				c-0.666,0.747-1.45,1.325-2.354,1.733c-0.903,0.409-1.859,0.613-2.868,0.613c-0.878,0-1.673-0.096-2.384-0.288
				c-0.712-0.191-1.436-0.489-2.172-0.893v7.084h-2.846v-23.145h2.846v1.771c0.756-0.636,1.606-1.168,2.55-1.597
				s1.95-0.644,3.021-0.644c2.038,0,3.625,0.77,4.76,2.309C454.867,224.881,455.434,227.018,455.434,229.752z M452.498,229.828
				c0-2.039-0.349-3.563-1.044-4.572c-0.697-1.009-1.767-1.514-3.209-1.514c-0.818,0-1.641,0.177-2.468,0.53
				s-1.62,0.817-2.376,1.393v9.581c0.807,0.363,1.5,0.611,2.081,0.742c0.58,0.131,1.238,0.197,1.976,0.197
				c1.584,0,2.82-0.535,3.708-1.605C452.053,233.511,452.498,231.927,452.498,229.828z"/>
			<path fill="#FFFFFF" d="M470.419,224.605h-0.151c-0.424-0.101-0.835-0.174-1.233-0.22c-0.399-0.045-0.87-0.067-1.415-0.067
				c-0.879,0-1.727,0.194-2.543,0.582c-0.818,0.389-1.605,0.891-2.361,1.506v12.004h-2.846v-16.908h2.846V224
				c1.13-0.908,2.126-1.552,2.989-1.93c0.862-0.379,1.743-0.568,2.642-0.568c0.494,0,0.853,0.014,1.074,0.038
				c0.222,0.025,0.555,0.073,0.999,0.144V224.605z"/>
			<path fill="#FFFFFF" d="M487.51,229.964c0,2.755-0.707,4.93-2.119,6.524c-1.414,1.594-3.307,2.391-5.677,2.391
				c-2.392,0-4.291-0.797-5.699-2.391c-1.407-1.595-2.111-3.77-2.111-6.524s0.704-4.932,2.111-6.531
				c1.408-1.6,3.308-2.399,5.699-2.399c2.371,0,4.263,0.8,5.677,2.399C486.803,225.032,487.51,227.209,487.51,229.964z
				 M484.572,229.964c0-2.189-0.43-3.816-1.287-4.882c-0.857-1.064-2.048-1.597-3.572-1.597c-1.544,0-2.742,0.532-3.595,1.597
				c-0.854,1.065-1.279,2.692-1.279,4.882c0,2.119,0.429,3.727,1.287,4.821c0.857,1.095,2.053,1.643,3.587,1.643
				c1.514,0,2.703-0.543,3.564-1.628C484.141,233.716,484.572,232.104,484.572,229.964z"/>
			<path fill="#FFFFFF" d="M500.693,238.259c-0.535,0.142-1.119,0.257-1.75,0.349c-0.631,0.09-1.193,0.136-1.688,0.136
				c-1.725,0-3.037-0.464-3.936-1.393s-1.346-2.417-1.346-4.466v-8.99h-1.924v-2.393h1.924v-4.858h2.846v4.858h5.873v2.393h-5.873
				v7.704c0,0.888,0.02,1.582,0.061,2.081c0.039,0.5,0.182,0.967,0.424,1.4c0.221,0.403,0.525,0.699,0.914,0.886
				s0.982,0.28,1.779,0.28c0.465,0,0.949-0.068,1.453-0.205c0.504-0.136,0.867-0.25,1.09-0.34h0.152V238.259z"/>
			<path fill="#FFFFFF" d="M518.539,229.964c0,2.755-0.707,4.93-2.119,6.524c-1.412,1.594-3.305,2.391-5.676,2.391
				c-2.393,0-4.291-0.797-5.699-2.391c-1.408-1.595-2.111-3.77-2.111-6.524s0.703-4.932,2.111-6.531s3.307-2.399,5.699-2.399
				c2.371,0,4.264,0.8,5.676,2.399S518.539,227.209,518.539,229.964z M515.602,229.964c0-2.189-0.428-3.816-1.285-4.882
				c-0.857-1.064-2.049-1.597-3.572-1.597c-1.545,0-2.742,0.532-3.596,1.597c-0.854,1.065-1.279,2.692-1.279,4.882
				c0,2.119,0.43,3.727,1.287,4.821s2.053,1.643,3.588,1.643c1.514,0,2.701-0.543,3.564-1.628
				C515.172,233.716,515.602,232.104,515.602,229.964z"/>
			<path fill="#FFFFFF" d="M537.082,238.41h-2.846v-9.627c0-0.777-0.045-1.506-0.137-2.188c-0.09-0.681-0.256-1.213-0.498-1.597
				c-0.254-0.424-0.617-0.739-1.09-0.946c-0.475-0.206-1.09-0.311-1.848-0.311c-0.777,0-1.59,0.192-2.438,0.576
				c-0.848,0.383-1.66,0.872-2.436,1.468v12.624h-2.846v-16.908h2.846v1.877c0.887-0.736,1.805-1.312,2.754-1.725
				c0.949-0.414,1.922-0.621,2.922-0.621c1.826,0,3.219,0.55,4.178,1.65c0.959,1.1,1.438,2.684,1.438,4.752V238.41z"/>
			<path fill="#FFFFFF" d="M568.082,221.502l-6.842,16.908h-2.861l-6.795-16.908h3.088l5.236,13.457l5.191-13.457H568.082z"/>
			<path fill="#FFFFFF" d="M585.943,229.964c0,2.755-0.707,4.93-2.119,6.524c-1.414,1.594-3.307,2.391-5.678,2.391
				c-2.391,0-4.291-0.797-5.699-2.391c-1.406-1.595-2.111-3.77-2.111-6.524s0.705-4.932,2.111-6.531
				c1.408-1.6,3.309-2.399,5.699-2.399c2.371,0,4.264,0.8,5.678,2.399C585.236,225.032,585.943,227.209,585.943,229.964z
				 M583.006,229.964c0-2.189-0.43-3.816-1.287-4.882c-0.857-1.064-2.049-1.597-3.572-1.597c-1.543,0-2.742,0.532-3.594,1.597
				c-0.854,1.065-1.279,2.692-1.279,4.882c0,2.119,0.428,3.727,1.287,4.821c0.857,1.095,2.053,1.643,3.586,1.643
				c1.514,0,2.703-0.543,3.564-1.628C582.574,233.716,583.006,232.104,583.006,229.964z"/>
			<path fill="#FFFFFF" d="M593.223,238.41h-2.846v-23.553h2.846V238.41z"/>
			<path fill="#FFFFFF" d="M612.871,238.41h-2.846v-1.877c-0.959,0.757-1.877,1.337-2.754,1.74
				c-0.879,0.404-1.848,0.605-2.906,0.605c-1.777,0-3.16-0.542-4.148-1.627c-0.988-1.084-1.482-2.677-1.482-4.775v-10.975h2.846
				v9.627c0,0.858,0.039,1.593,0.121,2.203c0.08,0.61,0.252,1.133,0.514,1.566c0.273,0.444,0.625,0.767,1.061,0.969
				c0.434,0.202,1.064,0.303,1.891,0.303c0.736,0,1.541-0.191,2.414-0.575s1.689-0.873,2.445-1.468v-12.625h2.846V238.41z"/>
			<path fill="#FFFFFF" d="M643.145,238.41h-2.846v-9.627c0-0.727-0.033-1.428-0.098-2.104c-0.066-0.677-0.205-1.217-0.416-1.62
				c-0.232-0.434-0.566-0.762-1-0.983c-0.434-0.223-1.059-0.334-1.877-0.334c-0.797,0-1.594,0.2-2.391,0.599
				c-0.799,0.398-1.596,0.905-2.393,1.521c0.031,0.232,0.055,0.503,0.076,0.811c0.02,0.308,0.029,0.613,0.029,0.916v10.822h-2.846
				v-9.627c0-0.747-0.033-1.455-0.098-2.127c-0.066-0.671-0.205-1.208-0.416-1.611c-0.232-0.435-0.566-0.76-1-0.977
				s-1.059-0.326-1.877-0.326c-0.777,0-1.557,0.192-2.338,0.576c-0.783,0.383-1.563,0.872-2.338,1.468v12.624h-2.846v-16.908h2.846
				v1.877c0.887-0.736,1.771-1.312,2.656-1.725c0.883-0.414,1.824-0.621,2.822-0.621c1.15,0,2.127,0.242,2.93,0.727
				c0.801,0.484,1.4,1.155,1.793,2.014c1.15-0.969,2.199-1.668,3.148-2.097s1.963-0.644,3.043-0.644
				c1.855,0,3.227,0.563,4.109,1.688c0.883,1.126,1.324,2.697,1.324,4.715V238.41z"/>
			<path fill="#FFFFFF" d="M662.777,230.252H650.32c0,1.039,0.156,1.944,0.469,2.717c0.313,0.771,0.742,1.405,1.287,1.899
				c0.523,0.484,1.146,0.848,1.869,1.09c0.721,0.242,1.516,0.363,2.383,0.363c1.15,0,2.309-0.229,3.475-0.688
				s1.996-0.911,2.49-1.355h0.15v3.104c-0.959,0.403-1.938,0.742-2.936,1.014c-1,0.273-2.049,0.409-3.148,0.409
				c-2.807,0-4.996-0.759-6.57-2.278c-1.574-1.519-2.361-3.676-2.361-6.471c0-2.765,0.754-4.96,2.264-6.584
				c1.508-1.625,3.494-2.438,5.957-2.438c2.279,0,4.037,0.666,5.273,1.998s1.855,3.225,1.855,5.676V230.252z M660.008,228.072
				c-0.012-1.494-0.387-2.649-1.129-3.467s-1.869-1.227-3.383-1.227c-1.523,0-2.738,0.449-3.641,1.348s-1.414,2.014-1.535,3.346
				H660.008z"/>
		</g>
		<g enable-background="new    ">
			<path fill="#FFFFFF" d="M116.745,178.066h-3.89l-7.538-8.961h-4.223v8.961h-2.997v-22.539h6.312c1.362,0,2.498,0.089,3.406,0.266
				s1.726,0.492,2.452,0.945c0.817,0.516,1.456,1.164,1.915,1.945c0.459,0.782,0.688,1.773,0.688,2.975
				c0,1.625-0.409,2.984-1.226,4.079c-0.817,1.096-1.943,1.92-3.375,2.476L116.745,178.066z M109.737,161.87
				c0-0.646-0.114-1.219-0.34-1.718c-0.228-0.5-0.604-0.921-1.128-1.264c-0.434-0.293-0.949-0.497-1.544-0.613
				c-0.596-0.116-1.297-0.174-2.104-0.174h-3.527v8.506h3.027c0.948,0,1.776-0.083,2.482-0.249c0.706-0.167,1.307-0.478,1.801-0.931
				c0.454-0.424,0.79-0.911,1.006-1.461C109.628,163.417,109.737,162.718,109.737,161.87z"/>
		</g>
		<g enable-background="new    ">
			<path fill="#FFFFFF" d="M126.932,178.342c0,0.801-0.115,1.531-0.345,2.193c-0.229,0.662-0.553,1.222-0.971,1.681
				c-0.388,0.436-0.846,0.772-1.372,1.011s-1.084,0.357-1.672,0.357c-0.512,0-0.976-0.056-1.39-0.168
				c-0.415-0.111-0.837-0.285-1.267-0.521v4.13h-1.659v-13.493h1.659v1.033c0.441-0.371,0.937-0.681,1.487-0.932
				c0.55-0.25,1.137-0.375,1.76-0.375c1.188,0,2.114,0.449,2.775,1.346C126.601,175.502,126.932,176.748,126.932,178.342z
				 M125.22,178.387c0-1.188-0.203-2.077-0.609-2.665c-0.405-0.589-1.029-0.883-1.87-0.883c-0.477,0-0.957,0.103-1.438,0.309
				c-0.482,0.206-0.944,0.477-1.386,0.813v5.586c0.471,0.211,0.875,0.355,1.213,0.432c0.339,0.077,0.723,0.115,1.152,0.115
				c0.923,0,1.644-0.312,2.162-0.936C124.961,180.534,125.22,179.61,125.22,178.387z"/>
			<path fill="#FFFFFF" d="M138.2,183.39h-8.895v-1.844c0.617-0.53,1.236-1.06,1.857-1.589c0.62-0.529,1.198-1.056,1.733-1.579
				c1.13-1.095,1.903-1.964,2.321-2.608c0.418-0.644,0.627-1.34,0.627-2.087c0-0.683-0.226-1.216-0.676-1.602
				c-0.449-0.386-1.078-0.578-1.884-0.578c-0.535,0-1.115,0.095-1.738,0.282c-0.624,0.188-1.232,0.477-1.827,0.865h-0.088v-1.854
				c0.418-0.206,0.976-0.394,1.672-0.564c0.697-0.171,1.373-0.256,2.025-0.256c1.348,0,2.403,0.325,3.168,0.975
				c0.765,0.65,1.147,1.531,1.147,2.644c0,0.5-0.063,0.966-0.189,1.398c-0.127,0.433-0.313,0.843-0.561,1.231
				c-0.229,0.364-0.499,0.724-0.808,1.076c-0.309,0.354-0.684,0.744-1.125,1.174c-0.63,0.617-1.279,1.217-1.95,1.796
				s-1.297,1.116-1.88,1.61h7.068V183.39z"/>
		</g>
		<g enable-background="new    ">
			<path fill="#FFFFFF" d="M167.388,166.229h-17.952v-2.422h17.952V166.229z M167.388,172.587h-17.952v-2.422h17.952V172.587z"/>
			<path fill="#FFFFFF" d="M209.468,178.066h-2.846v-9.627c0-0.727-0.032-1.428-0.098-2.104c-0.066-0.677-0.205-1.217-0.416-1.62
				c-0.232-0.434-0.565-0.762-1-0.983c-0.434-0.223-1.059-0.334-1.877-0.334c-0.797,0-1.594,0.2-2.391,0.599
				c-0.798,0.398-1.595,0.905-2.393,1.521c0.031,0.232,0.056,0.503,0.076,0.811s0.03,0.613,0.03,0.916v10.822h-2.846v-9.627
				c0-0.747-0.033-1.455-0.099-2.127c-0.065-0.671-0.204-1.208-0.416-1.611c-0.232-0.435-0.565-0.76-0.999-0.977
				c-0.434-0.217-1.06-0.326-1.877-0.326c-0.777,0-1.557,0.192-2.339,0.576c-0.782,0.383-1.562,0.872-2.338,1.468v12.624h-2.846
				v-16.908h2.846v1.877c0.888-0.736,1.773-1.312,2.657-1.725c0.883-0.414,1.824-0.621,2.823-0.621c1.15,0,2.126,0.242,2.929,0.727
				c0.802,0.484,1.4,1.155,1.793,2.014c1.15-0.969,2.2-1.668,3.148-2.097c0.949-0.429,1.963-0.644,3.043-0.644
				c1.856,0,3.227,0.563,4.109,1.688c0.883,1.126,1.324,2.697,1.324,4.715V178.066z"/>
		</g>
		<g enable-background="new    ">
			<path fill="#FFFFFF" d="M222.455,178.342c0,0.801-0.115,1.531-0.345,2.193c-0.229,0.662-0.553,1.222-0.971,1.681
				c-0.388,0.436-0.846,0.772-1.372,1.011s-1.084,0.357-1.672,0.357c-0.512,0-0.976-0.056-1.39-0.168
				c-0.415-0.111-0.837-0.285-1.267-0.521v4.13h-1.659v-13.493h1.659v1.033c0.441-0.371,0.937-0.681,1.487-0.932
				c0.55-0.25,1.137-0.375,1.76-0.375c1.188,0,2.114,0.449,2.775,1.346C222.124,175.502,222.455,176.748,222.455,178.342z
				 M220.743,178.387c0-1.188-0.203-2.077-0.609-2.665c-0.405-0.589-1.029-0.883-1.87-0.883c-0.477,0-0.957,0.103-1.438,0.309
				c-0.482,0.206-0.944,0.477-1.386,0.813v5.586c0.471,0.211,0.875,0.355,1.213,0.432c0.339,0.077,0.723,0.115,1.152,0.115
				c0.923,0,1.644-0.312,2.162-0.936C220.484,180.534,220.743,179.61,220.743,178.387z"/>
		</g>
		<g enable-background="new    ">
			<path fill="#FFFFFF" d="M240.347,184.303h-2.846v-15.863c0-0.777-0.045-1.506-0.136-2.188c-0.091-0.681-0.257-1.213-0.5-1.597
				c-0.252-0.424-0.616-0.739-1.09-0.946c-0.475-0.206-1.09-0.311-1.847-0.311c-0.777,0-1.589,0.192-2.437,0.576
				c-0.848,0.383-1.66,0.872-2.437,1.468v12.624h-2.846v-16.908h2.846v1.877c0.888-0.736,1.806-1.312,2.755-1.725
				c0.948-0.414,1.922-0.621,2.921-0.621c1.826,0,3.219,0.55,4.178,1.65c0.958,1.1,1.438,2.684,1.438,4.752V184.303z"/>
			<path fill="#FFFFFF" d="M275.584,166.229h-17.952v-2.422h17.952V166.229z M275.584,172.587h-17.952v-2.422h17.952V172.587z"/>
			<path fill="#FFFFFF" d="M313.291,178.066h-2.997v-19.42l-6.267,13.214h-1.786l-6.221-13.214v19.42h-2.801v-22.539h4.087
				l6.009,12.549l5.813-12.549h4.163V178.066z"/>
			<path fill="#FFFFFF" d="M332.257,178.066h-2.831v-1.801c-0.252,0.171-0.593,0.411-1.021,0.719
				c-0.43,0.308-0.846,0.553-1.249,0.734c-0.475,0.231-1.02,0.426-1.635,0.582s-1.337,0.234-2.164,0.234
				c-1.524,0-2.816-0.504-3.875-1.514c-1.061-1.009-1.59-2.295-1.59-3.859c0-1.281,0.274-2.318,0.825-3.11
				c0.55-0.792,1.334-1.415,2.354-1.87c1.029-0.453,2.266-0.762,3.708-0.923c1.443-0.161,2.992-0.282,4.647-0.363v-0.438
				c0-0.646-0.113-1.182-0.341-1.605c-0.227-0.424-0.553-0.756-0.977-0.998c-0.403-0.232-0.888-0.389-1.453-0.47
				c-0.564-0.081-1.155-0.121-1.771-0.121c-0.747,0-1.579,0.099-2.497,0.295c-0.919,0.197-1.867,0.482-2.846,0.855h-0.152v-2.892
				c0.556-0.15,1.357-0.317,2.407-0.499s2.084-0.272,3.103-0.272c1.191,0,2.228,0.099,3.111,0.295
				c0.883,0.197,1.647,0.532,2.293,1.007c0.636,0.464,1.12,1.064,1.453,1.802c0.333,0.736,0.5,1.649,0.5,2.739V178.066z
				 M329.426,173.904v-4.708c-0.868,0.051-1.89,0.126-3.065,0.228c-1.176,0.101-2.106,0.247-2.793,0.438
				c-0.816,0.232-1.478,0.593-1.982,1.082c-0.505,0.49-0.757,1.163-0.757,2.021c0,0.969,0.293,1.698,0.878,2.188
				c0.585,0.49,1.479,0.734,2.68,0.734c0.998,0,1.912-0.194,2.739-0.583C327.953,174.916,328.72,174.449,329.426,173.904z"/>
			<path fill="#FFFFFF" d="M349.815,173.192c0,1.544-0.638,2.811-1.914,3.8c-1.277,0.988-3.02,1.482-5.23,1.482
				c-1.251,0-2.398-0.148-3.443-0.446c-1.044-0.297-1.92-0.623-2.626-0.976v-3.194h0.151c0.898,0.676,1.897,1.214,2.997,1.612
				s2.154,0.598,3.163,0.598c1.252,0,2.23-0.202,2.938-0.605c0.706-0.403,1.059-1.039,1.059-1.907c0-0.666-0.191-1.171-0.574-1.514
				c-0.384-0.343-1.121-0.636-2.211-0.878c-0.403-0.091-0.931-0.197-1.581-0.318c-0.651-0.121-1.244-0.252-1.778-0.393
				c-1.484-0.395-2.536-0.972-3.156-1.733c-0.621-0.762-0.932-1.698-0.932-2.808c0-0.697,0.145-1.353,0.432-1.969
				c0.288-0.615,0.725-1.165,1.31-1.649c0.565-0.475,1.284-0.85,2.157-1.128c0.872-0.277,1.849-0.416,2.929-0.416
				c1.009,0,2.03,0.124,3.065,0.371c1.034,0.247,1.895,0.547,2.58,0.9v3.043h-0.15c-0.727-0.535-1.61-0.986-2.649-1.355
				c-1.039-0.368-2.059-0.553-3.058-0.553c-1.039,0-1.917,0.2-2.634,0.599s-1.075,0.991-1.075,1.778
				c0,0.696,0.218,1.221,0.651,1.574c0.424,0.354,1.11,0.641,2.059,0.863c0.524,0.121,1.112,0.242,1.764,0.363
				c0.65,0.121,1.193,0.231,1.627,0.332c1.322,0.303,2.341,0.823,3.058,1.56C349.458,170.973,349.815,171.961,349.815,173.192z"/>
			<path fill="#FFFFFF" d="M365.965,173.192c0,1.544-0.638,2.811-1.914,3.8c-1.277,0.988-3.02,1.482-5.23,1.482
				c-1.251,0-2.398-0.148-3.443-0.446c-1.044-0.297-1.92-0.623-2.626-0.976v-3.194h0.151c0.898,0.676,1.897,1.214,2.997,1.612
				s2.154,0.598,3.163,0.598c1.252,0,2.23-0.202,2.938-0.605c0.706-0.403,1.059-1.039,1.059-1.907c0-0.666-0.191-1.171-0.574-1.514
				c-0.384-0.343-1.121-0.636-2.211-0.878c-0.403-0.091-0.931-0.197-1.581-0.318c-0.651-0.121-1.244-0.252-1.778-0.393
				c-1.484-0.395-2.536-0.972-3.156-1.733c-0.621-0.762-0.932-1.698-0.932-2.808c0-0.697,0.145-1.353,0.432-1.969
				c0.288-0.615,0.725-1.165,1.31-1.649c0.565-0.475,1.284-0.85,2.157-1.128c0.872-0.277,1.849-0.416,2.929-0.416
				c1.009,0,2.03,0.124,3.065,0.371c1.034,0.247,1.895,0.547,2.58,0.9v3.043h-0.15c-0.727-0.535-1.61-0.986-2.649-1.355
				c-1.039-0.368-2.059-0.553-3.058-0.553c-1.039,0-1.917,0.2-2.634,0.599s-1.075,0.991-1.075,1.778
				c0,0.696,0.218,1.221,0.651,1.574c0.424,0.354,1.11,0.641,2.059,0.863c0.524,0.121,1.112,0.242,1.764,0.363
				c0.65,0.121,1.193,0.231,1.627,0.332c1.322,0.303,2.341,0.823,3.058,1.56C365.608,170.973,365.965,171.961,365.965,173.192z"/>
			<path fill="#FFFFFF" d="M400.206,166.82c0,2.048-0.446,3.904-1.34,5.57c-0.893,1.664-2.081,2.956-3.564,3.875
				c-1.029,0.635-2.178,1.095-3.443,1.377c-1.267,0.282-2.935,0.424-5.003,0.424h-5.691v-22.539h5.631
				c2.2,0,3.948,0.159,5.245,0.478c1.296,0.317,2.394,0.754,3.292,1.31c1.534,0.958,2.729,2.234,3.588,3.829
				C399.777,162.738,400.206,164.63,400.206,166.82z M397.072,166.774c0-1.766-0.308-3.255-0.923-4.466s-1.534-2.164-2.755-2.86
				c-0.888-0.505-1.832-0.855-2.83-1.052c-1-0.197-2.195-0.295-3.588-0.295h-2.815v17.392h2.815c1.443,0,2.702-0.106,3.776-0.317
				c1.075-0.213,2.062-0.605,2.96-1.182c1.119-0.716,1.96-1.659,2.52-2.83C396.792,169.993,397.072,168.53,397.072,166.774z"/>
			<path fill="#FFFFFF" d="M418.975,169.908h-12.457c0,1.039,0.156,1.944,0.469,2.717c0.313,0.771,0.742,1.405,1.287,1.899
				c0.524,0.484,1.147,0.848,1.869,1.09c0.721,0.242,1.516,0.363,2.384,0.363c1.15,0,2.309-0.229,3.474-0.688
				c1.166-0.459,1.996-0.911,2.49-1.355h0.151v3.104c-0.959,0.403-1.938,0.742-2.937,1.014c-0.999,0.273-2.049,0.409-3.148,0.409
				c-2.806,0-4.995-0.759-6.569-2.278c-1.574-1.519-2.361-3.676-2.361-6.471c0-2.765,0.754-4.96,2.263-6.584
				c1.509-1.625,3.494-2.438,5.957-2.438c2.28,0,4.038,0.666,5.274,1.998s1.854,3.225,1.854,5.676V169.908z M416.206,167.729
				c-0.011-1.494-0.387-2.649-1.128-3.467c-0.742-0.817-1.87-1.227-3.384-1.227c-1.523,0-2.737,0.449-3.64,1.348
				c-0.903,0.898-1.415,2.014-1.536,3.346H416.206z"/>
			<path fill="#FFFFFF" d="M437.426,178.066h-2.846v-9.627c0-0.777-0.045-1.506-0.136-2.188c-0.091-0.681-0.257-1.213-0.499-1.597
				c-0.253-0.424-0.616-0.739-1.09-0.946c-0.475-0.206-1.09-0.311-1.848-0.311c-0.776,0-1.589,0.192-2.437,0.576
				c-0.848,0.383-1.66,0.872-2.437,1.468v12.624h-2.846v-16.908h2.846v1.877c0.888-0.736,1.806-1.312,2.754-1.725
				c0.949-0.414,1.923-0.621,2.922-0.621c1.826,0,3.219,0.55,4.178,1.65c0.959,1.1,1.438,2.684,1.438,4.752V178.066z"/>
			<path fill="#FFFFFF" d="M454.985,173.192c0,1.544-0.638,2.811-1.914,3.8c-1.277,0.988-3.02,1.482-5.23,1.482
				c-1.251,0-2.398-0.148-3.443-0.446c-1.044-0.297-1.92-0.623-2.626-0.976v-3.194h0.151c0.898,0.676,1.897,1.214,2.997,1.612
				s2.154,0.598,3.163,0.598c1.252,0,2.23-0.202,2.938-0.605c0.706-0.403,1.059-1.039,1.059-1.907c0-0.666-0.191-1.171-0.574-1.514
				c-0.384-0.343-1.121-0.636-2.211-0.878c-0.403-0.091-0.931-0.197-1.581-0.318c-0.651-0.121-1.244-0.252-1.778-0.393
				c-1.484-0.395-2.536-0.972-3.156-1.733c-0.621-0.762-0.932-1.698-0.932-2.808c0-0.697,0.145-1.353,0.432-1.969
				c0.288-0.615,0.725-1.165,1.31-1.649c0.565-0.475,1.284-0.85,2.157-1.128c0.872-0.277,1.849-0.416,2.929-0.416
				c1.009,0,2.03,0.124,3.065,0.371c1.034,0.247,1.895,0.547,2.58,0.9v3.043h-0.15c-0.727-0.535-1.61-0.986-2.649-1.355
				c-1.039-0.368-2.059-0.553-3.058-0.553c-1.039,0-1.917,0.2-2.634,0.599s-1.075,0.991-1.075,1.778
				c0,0.696,0.218,1.221,0.651,1.574c0.424,0.354,1.11,0.641,2.059,0.863c0.524,0.121,1.112,0.242,1.764,0.363
				c0.65,0.121,1.193,0.231,1.627,0.332c1.322,0.303,2.341,0.823,3.058,1.56C454.627,170.973,454.985,171.961,454.985,173.192z"/>
			<path fill="#FFFFFF" d="M462.114,158.328h-3.209v-2.951h3.209V158.328z M461.932,178.066h-2.846v-16.908h2.846V178.066z"/>
			<path fill="#FFFFFF" d="M476.344,177.915c-0.535,0.142-1.118,0.257-1.749,0.349c-0.631,0.09-1.193,0.136-1.688,0.136
				c-1.726,0-3.037-0.464-3.936-1.393s-1.347-2.417-1.347-4.466v-8.99h-1.923v-2.393h1.923V156.3h2.846v4.858h5.873v2.393h-5.873
				v7.704c0,0.888,0.02,1.582,0.061,2.081c0.04,0.5,0.182,0.967,0.424,1.4c0.222,0.403,0.526,0.699,0.915,0.886
				s0.981,0.28,1.778,0.28c0.465,0,0.949-0.068,1.453-0.205c0.505-0.136,0.868-0.25,1.09-0.34h0.152V177.915z"/>
			<path fill="#FFFFFF" d="M494.25,161.158l-9.869,23.145h-3.042l3.148-7.054l-6.735-16.091h3.088l5.192,12.533l5.236-12.533H494.25
				z"/>
			<path fill="#FFFFFF" d="M530.139,161.158l-4.404,16.908h-2.633l-4.346-13.033l-4.313,13.033h-2.619l-4.451-16.908h2.967
				l3.104,13.094l4.223-13.094h2.348l4.328,13.094l2.938-13.094H530.139z"/>
			<path fill="#FFFFFF" d="M537.299,158.328h-3.209v-2.951h3.209V158.328z M537.117,178.066h-2.846v-16.908h2.846V178.066z"/>
			<path fill="#FFFFFF" d="M551.527,177.915c-0.535,0.142-1.117,0.257-1.748,0.349c-0.631,0.09-1.193,0.136-1.688,0.136
				c-1.727,0-3.037-0.464-3.936-1.393s-1.348-2.417-1.348-4.466v-8.99h-1.922v-2.393h1.922V156.3h2.846v4.858h5.873v2.393h-5.873
				v7.704c0,0.888,0.02,1.582,0.061,2.081c0.041,0.5,0.182,0.967,0.424,1.4c0.223,0.403,0.527,0.699,0.916,0.886
				s0.98,0.28,1.777,0.28c0.465,0,0.949-0.068,1.453-0.205c0.506-0.136,0.869-0.25,1.09-0.34h0.152V177.915z"/>
			<path fill="#FFFFFF" d="M569.1,178.066h-2.846v-9.627c0-0.777-0.045-1.506-0.135-2.188c-0.092-0.681-0.258-1.213-0.5-1.597
				c-0.252-0.424-0.615-0.739-1.09-0.946c-0.475-0.206-1.09-0.311-1.848-0.311c-0.775,0-1.588,0.192-2.436,0.576
				c-0.848,0.383-1.66,0.872-2.438,1.468v12.624h-2.846v-23.553h2.846v8.521c0.889-0.736,1.807-1.312,2.754-1.725
				c0.949-0.414,1.924-0.621,2.922-0.621c1.826,0,3.219,0.55,4.178,1.65c0.959,1.1,1.438,2.684,1.438,4.752V178.066z"/>
			<path fill="#FFFFFF" d="M577.637,158.328h-3.209v-2.951h3.209V158.328z M577.455,178.066h-2.846v-16.908h2.846V178.066z"/>
			<path fill="#FFFFFF" d="M597.225,178.066h-2.846v-9.627c0-0.777-0.045-1.506-0.135-2.188c-0.092-0.681-0.258-1.213-0.5-1.597
				c-0.252-0.424-0.615-0.739-1.09-0.946c-0.475-0.206-1.09-0.311-1.848-0.311c-0.775,0-1.588,0.192-2.436,0.576
				c-0.848,0.383-1.66,0.872-2.438,1.468v12.624h-2.846v-16.908h2.846v1.877c0.889-0.736,1.807-1.312,2.754-1.725
				c0.949-0.414,1.924-0.621,2.922-0.621c1.826,0,3.219,0.55,4.178,1.65c0.959,1.1,1.438,2.684,1.438,4.752V178.066z"/>
			<path fill="#FFFFFF" d="M626.742,178.066h-2.83v-1.801c-0.252,0.171-0.594,0.411-1.021,0.719c-0.43,0.308-0.846,0.553-1.25,0.734
				c-0.475,0.231-1.02,0.426-1.635,0.582s-1.336,0.234-2.164,0.234c-1.523,0-2.816-0.504-3.875-1.514
				c-1.061-1.009-1.59-2.295-1.59-3.859c0-1.281,0.275-2.318,0.826-3.11c0.549-0.792,1.334-1.415,2.354-1.87
				c1.029-0.453,2.266-0.762,3.707-0.923c1.443-0.161,2.992-0.282,4.648-0.363v-0.438c0-0.646-0.113-1.182-0.342-1.605
				c-0.227-0.424-0.553-0.756-0.977-0.998c-0.402-0.232-0.887-0.389-1.453-0.47c-0.564-0.081-1.154-0.121-1.77-0.121
				c-0.748,0-1.58,0.099-2.498,0.295c-0.918,0.197-1.867,0.482-2.846,0.855h-0.152v-2.892c0.557-0.15,1.357-0.317,2.408-0.499
				c1.049-0.182,2.084-0.272,3.102-0.272c1.191,0,2.229,0.099,3.111,0.295c0.883,0.197,1.648,0.532,2.293,1.007
				c0.637,0.464,1.121,1.064,1.453,1.802c0.334,0.736,0.5,1.649,0.5,2.739V178.066z M623.912,173.904v-4.708
				c-0.869,0.051-1.891,0.126-3.066,0.228c-1.176,0.101-2.105,0.247-2.793,0.438c-0.816,0.232-1.477,0.593-1.982,1.082
				c-0.504,0.49-0.756,1.163-0.756,2.021c0,0.969,0.293,1.698,0.877,2.188c0.586,0.49,1.479,0.734,2.68,0.734
				c0.998,0,1.912-0.194,2.74-0.583C622.438,174.916,623.205,174.449,623.912,173.904z"/>
			<path fill="#FFFFFF" d="M658.09,162.34c0,0.998-0.174,1.925-0.523,2.777c-0.348,0.853-0.834,1.592-1.461,2.217
				c-0.775,0.777-1.695,1.36-2.754,1.749c-1.061,0.389-2.396,0.583-4.012,0.583h-2.996v8.4h-2.998v-22.539h6.115
				c1.354,0,2.498,0.114,3.436,0.341c0.939,0.228,1.771,0.583,2.498,1.067c0.857,0.575,1.521,1.292,1.99,2.149
				C657.855,159.942,658.09,161.027,658.09,162.34z M654.971,162.415c0-0.777-0.137-1.453-0.408-2.028
				c-0.273-0.575-0.686-1.045-1.242-1.408c-0.484-0.313-1.035-0.537-1.656-0.673c-0.621-0.137-1.406-0.204-2.354-0.204h-2.967v9.006
				h2.527c1.211,0,2.195-0.108,2.951-0.325c0.758-0.217,1.373-0.563,1.848-1.037c0.475-0.484,0.809-0.994,1.006-1.528
				C654.873,163.682,654.971,163.081,654.971,162.415z"/>
			<path fill="#FFFFFF" d="M672.363,164.262h-0.15c-0.424-0.101-0.836-0.174-1.234-0.22c-0.398-0.045-0.869-0.067-1.414-0.067
				c-0.879,0-1.727,0.194-2.543,0.582c-0.818,0.389-1.605,0.891-2.361,1.506v12.004h-2.846v-16.908h2.846v2.498
				c1.129-0.908,2.125-1.552,2.988-1.93c0.863-0.379,1.744-0.568,2.643-0.568c0.494,0,0.852,0.014,1.074,0.038
				c0.221,0.025,0.555,0.073,0.998,0.144V164.262z"/>
			<path fill="#FFFFFF" d="M689.453,169.62c0,2.755-0.707,4.93-2.119,6.524c-1.412,1.594-3.305,2.391-5.676,2.391
				c-2.393,0-4.291-0.797-5.699-2.391c-1.408-1.595-2.111-3.77-2.111-6.524s0.703-4.932,2.111-6.531s3.307-2.399,5.699-2.399
				c2.371,0,4.264,0.8,5.676,2.399S689.453,166.865,689.453,169.62z M686.516,169.62c0-2.189-0.428-3.816-1.285-4.882
				c-0.857-1.064-2.049-1.597-3.572-1.597c-1.545,0-2.742,0.532-3.596,1.597c-0.854,1.065-1.279,2.692-1.279,4.882
				c0,2.119,0.43,3.727,1.287,4.821s2.053,1.643,3.588,1.643c1.514,0,2.701-0.543,3.564-1.628
				C686.086,173.372,686.516,171.76,686.516,169.62z"/>
			<path fill="#FFFFFF" d="M702.637,177.915c-0.535,0.142-1.117,0.257-1.748,0.349c-0.631,0.09-1.193,0.136-1.688,0.136
				c-1.727,0-3.037-0.464-3.936-1.393s-1.348-2.417-1.348-4.466v-8.99h-1.922v-2.393h1.922V156.3h2.846v4.858h5.873v2.393h-5.873
				v7.704c0,0.888,0.02,1.582,0.061,2.081c0.041,0.5,0.182,0.967,0.424,1.4c0.223,0.403,0.527,0.699,0.916,0.886
				s0.98,0.28,1.777,0.28c0.465,0,0.949-0.068,1.453-0.205c0.506-0.136,0.869-0.25,1.09-0.34h0.152V177.915z"/>
			<path fill="#FFFFFF" d="M720.484,169.62c0,2.755-0.707,4.93-2.119,6.524c-1.414,1.594-3.307,2.391-5.678,2.391
				c-2.391,0-4.291-0.797-5.699-2.391c-1.406-1.595-2.111-3.77-2.111-6.524s0.705-4.932,2.111-6.531
				c1.408-1.6,3.309-2.399,5.699-2.399c2.371,0,4.264,0.8,5.678,2.399C719.777,164.688,720.484,166.865,720.484,169.62z
				 M717.547,169.62c0-2.189-0.43-3.816-1.287-4.882c-0.857-1.064-2.049-1.597-3.572-1.597c-1.543,0-2.742,0.532-3.594,1.597
				c-0.854,1.065-1.279,2.692-1.279,4.882c0,2.119,0.428,3.727,1.287,4.821c0.857,1.095,2.053,1.643,3.586,1.643
				c1.514,0,2.703-0.543,3.564-1.628C717.115,173.372,717.547,171.76,717.547,169.62z"/>
			<path fill="#FFFFFF" d="M739.025,178.066h-2.846v-9.627c0-0.777-0.045-1.506-0.135-2.188c-0.092-0.681-0.258-1.213-0.5-1.597
				c-0.252-0.424-0.615-0.739-1.09-0.946c-0.475-0.206-1.09-0.311-1.848-0.311c-0.775,0-1.588,0.192-2.436,0.576
				c-0.848,0.383-1.66,0.872-2.438,1.468v12.624h-2.846v-16.908h2.846v1.877c0.889-0.736,1.807-1.312,2.754-1.725
				c0.949-0.414,1.924-0.621,2.922-0.621c1.826,0,3.219,0.55,4.178,1.65c0.959,1.1,1.438,2.684,1.438,4.752V178.066z"/>
			<path fill="#FFFFFF" d="M773.402,155.527l-8.205,22.539h-3.996l-8.203-22.539h3.209l7.068,19.83l7.068-19.83H773.402z"/>
			<path fill="#FFFFFF" d="M789.492,169.62c0,2.755-0.707,4.93-2.119,6.524c-1.412,1.594-3.305,2.391-5.676,2.391
				c-2.393,0-4.291-0.797-5.699-2.391c-1.408-1.595-2.111-3.77-2.111-6.524s0.703-4.932,2.111-6.531s3.307-2.399,5.699-2.399
				c2.371,0,4.264,0.8,5.676,2.399S789.492,166.865,789.492,169.62z M786.555,169.62c0-2.189-0.428-3.816-1.285-4.882
				c-0.857-1.064-2.049-1.597-3.572-1.597c-1.545,0-2.742,0.532-3.596,1.597c-0.854,1.065-1.279,2.692-1.279,4.882
				c0,2.119,0.43,3.727,1.287,4.821s2.053,1.643,3.588,1.643c1.514,0,2.701-0.543,3.564-1.628
				C786.125,173.372,786.555,171.76,786.555,169.62z"/>
			<path fill="#FFFFFF" d="M796.771,178.066h-2.846v-23.553h2.846V178.066z"/>
			<path fill="#FFFFFF" d="M816.42,178.066h-2.846v-1.877c-0.959,0.757-1.877,1.337-2.754,1.74
				c-0.879,0.404-1.848,0.605-2.906,0.605c-1.777,0-3.16-0.542-4.148-1.627c-0.988-1.084-1.482-2.677-1.482-4.775v-10.975h2.846
				v9.627c0,0.858,0.039,1.593,0.121,2.203c0.08,0.61,0.252,1.133,0.514,1.566c0.273,0.444,0.625,0.767,1.061,0.969
				c0.434,0.202,1.064,0.303,1.891,0.303c0.736,0,1.541-0.191,2.414-0.575s1.689-0.873,2.445-1.468v-12.625h2.846V178.066z"/>
			<path fill="#FFFFFF" d="M846.693,178.066h-2.846v-9.627c0-0.727-0.033-1.428-0.098-2.104c-0.066-0.677-0.205-1.217-0.416-1.62
				c-0.232-0.434-0.566-0.762-1-0.983c-0.434-0.223-1.059-0.334-1.877-0.334c-0.797,0-1.594,0.2-2.391,0.599
				c-0.799,0.398-1.596,0.905-2.393,1.521c0.031,0.232,0.055,0.503,0.076,0.811c0.02,0.308,0.029,0.613,0.029,0.916v10.822h-2.846
				v-9.627c0-0.747-0.033-1.455-0.098-2.127c-0.066-0.671-0.205-1.208-0.416-1.611c-0.232-0.435-0.566-0.76-1-0.977
				s-1.059-0.326-1.877-0.326c-0.777,0-1.557,0.192-2.338,0.576c-0.783,0.383-1.563,0.872-2.338,1.468v12.624h-2.846v-16.908h2.846
				v1.877c0.887-0.736,1.771-1.312,2.656-1.725c0.883-0.414,1.824-0.621,2.822-0.621c1.15,0,2.127,0.242,2.93,0.727
				c0.801,0.484,1.4,1.155,1.793,2.014c1.15-0.969,2.199-1.668,3.148-2.097s1.963-0.644,3.043-0.644
				c1.855,0,3.227,0.563,4.109,1.688c0.883,1.126,1.324,2.697,1.324,4.715V178.066z"/>
			<path fill="#FFFFFF" d="M866.326,169.908h-12.457c0,1.039,0.156,1.944,0.469,2.717c0.313,0.771,0.742,1.405,1.287,1.899
				c0.523,0.484,1.146,0.848,1.869,1.09c0.721,0.242,1.516,0.363,2.383,0.363c1.15,0,2.309-0.229,3.475-0.688
				s1.996-0.911,2.49-1.355h0.15v3.104c-0.959,0.403-1.938,0.742-2.936,1.014c-1,0.273-2.049,0.409-3.148,0.409
				c-2.807,0-4.996-0.759-6.57-2.278c-1.574-1.519-2.361-3.676-2.361-6.471c0-2.765,0.754-4.96,2.264-6.584
				c1.508-1.625,3.494-2.438,5.957-2.438c2.279,0,4.037,0.666,5.273,1.998s1.855,3.225,1.855,5.676V169.908z M863.557,167.729
				c-0.012-1.494-0.387-2.649-1.129-3.467s-1.869-1.227-3.383-1.227c-1.523,0-2.738,0.449-3.641,1.348s-1.414,2.014-1.535,3.346
				H863.557z"/>
		</g>
		<g enable-background="new    ">
			<path fill="#FFFFFF" d="M159.821,284.784h-17.952v-2.422h17.952V284.784z M159.821,291.142h-17.952v-2.422h17.952V291.142z"/>
			<path fill="#FFFFFF" d="M197.526,296.621h-2.997v-19.42l-6.267,13.214h-1.786l-6.221-13.214v19.42h-2.8v-22.539h4.087
				l6.009,12.549l5.812-12.549h4.163V296.621z"/>
			<path fill="#FFFFFF" d="M216.493,296.621h-2.831v-1.801c-0.252,0.171-0.593,0.411-1.021,0.719
				c-0.43,0.308-0.846,0.553-1.249,0.734c-0.475,0.231-1.02,0.426-1.635,0.582s-1.337,0.234-2.164,0.234
				c-1.524,0-2.816-0.504-3.875-1.514c-1.061-1.009-1.59-2.295-1.59-3.859c0-1.281,0.274-2.318,0.825-3.11
				c0.55-0.792,1.334-1.415,2.354-1.87c1.029-0.453,2.266-0.762,3.708-0.923c1.443-0.161,2.992-0.282,4.647-0.363v-0.438
				c0-0.646-0.113-1.182-0.341-1.605c-0.227-0.424-0.553-0.756-0.977-0.998c-0.403-0.232-0.888-0.389-1.453-0.47
				c-0.564-0.081-1.155-0.121-1.771-0.121c-0.747,0-1.579,0.099-2.497,0.295c-0.919,0.197-1.867,0.482-2.846,0.855h-0.152v-2.892
				c0.556-0.15,1.357-0.317,2.407-0.499s2.084-0.272,3.103-0.272c1.191,0,2.228,0.099,3.111,0.295
				c0.883,0.197,1.647,0.532,2.293,1.007c0.636,0.464,1.12,1.064,1.453,1.802c0.333,0.736,0.5,1.649,0.5,2.739V296.621z
				 M213.662,292.459v-4.708c-0.868,0.051-1.89,0.126-3.065,0.228c-1.176,0.101-2.106,0.247-2.793,0.438
				c-0.816,0.232-1.478,0.593-1.982,1.082c-0.505,0.49-0.757,1.163-0.757,2.021c0,0.969,0.293,1.698,0.878,2.188
				c0.585,0.49,1.479,0.734,2.68,0.734c0.998,0,1.912-0.194,2.739-0.583C212.188,293.471,212.956,293.004,213.662,292.459z"/>
			<path fill="#FFFFFF" d="M234.051,291.747c0,1.544-0.638,2.811-1.914,3.8c-1.277,0.988-3.02,1.482-5.23,1.482
				c-1.251,0-2.398-0.148-3.443-0.446c-1.044-0.297-1.92-0.623-2.626-0.976v-3.194h0.151c0.898,0.676,1.897,1.214,2.997,1.612
				s2.154,0.598,3.163,0.598c1.252,0,2.23-0.202,2.938-0.605c0.706-0.403,1.059-1.039,1.059-1.907c0-0.666-0.191-1.171-0.574-1.514
				c-0.384-0.343-1.121-0.636-2.211-0.878c-0.403-0.091-0.931-0.197-1.581-0.318c-0.651-0.121-1.244-0.252-1.778-0.393
				c-1.484-0.395-2.536-0.972-3.156-1.733c-0.621-0.762-0.932-1.698-0.932-2.808c0-0.697,0.145-1.353,0.432-1.969
				c0.288-0.615,0.725-1.165,1.31-1.649c0.565-0.475,1.284-0.85,2.157-1.128c0.872-0.277,1.849-0.416,2.929-0.416
				c1.009,0,2.03,0.124,3.065,0.371c1.034,0.247,1.895,0.547,2.58,0.9v3.043h-0.15c-0.727-0.535-1.61-0.986-2.649-1.355
				c-1.039-0.368-2.059-0.553-3.058-0.553c-1.039,0-1.917,0.2-2.634,0.599s-1.075,0.991-1.075,1.778
				c0,0.696,0.218,1.221,0.651,1.574c0.424,0.354,1.11,0.641,2.059,0.863c0.524,0.121,1.112,0.242,1.764,0.363
				c0.65,0.121,1.193,0.231,1.627,0.332c1.322,0.303,2.341,0.823,3.058,1.56C233.693,289.527,234.051,290.516,234.051,291.747z"/>
			<path fill="#FFFFFF" d="M250.201,291.747c0,1.544-0.638,2.811-1.914,3.8c-1.277,0.988-3.02,1.482-5.23,1.482
				c-1.251,0-2.398-0.148-3.443-0.446c-1.044-0.297-1.92-0.623-2.626-0.976v-3.194h0.151c0.898,0.676,1.897,1.214,2.997,1.612
				s2.154,0.598,3.163,0.598c1.252,0,2.23-0.202,2.938-0.605c0.706-0.403,1.059-1.039,1.059-1.907c0-0.666-0.191-1.171-0.574-1.514
				c-0.384-0.343-1.121-0.636-2.211-0.878c-0.403-0.091-0.931-0.197-1.581-0.318c-0.651-0.121-1.244-0.252-1.778-0.393
				c-1.484-0.395-2.536-0.972-3.156-1.733c-0.621-0.762-0.932-1.698-0.932-2.808c0-0.697,0.145-1.353,0.432-1.969
				c0.288-0.615,0.725-1.165,1.31-1.649c0.565-0.475,1.284-0.85,2.157-1.128c0.872-0.277,1.849-0.416,2.929-0.416
				c1.009,0,2.03,0.124,3.065,0.371c1.034,0.247,1.895,0.547,2.58,0.9v3.043h-0.15c-0.727-0.535-1.61-0.986-2.649-1.355
				c-1.039-0.368-2.059-0.553-3.058-0.553c-1.039,0-1.917,0.2-2.634,0.599s-1.075,0.991-1.075,1.778
				c0,0.696,0.218,1.221,0.651,1.574c0.424,0.354,1.11,0.641,2.059,0.863c0.524,0.121,1.112,0.242,1.764,0.363
				c0.65,0.121,1.193,0.231,1.627,0.332c1.322,0.303,2.341,0.823,3.058,1.56C249.844,289.527,250.201,290.516,250.201,291.747z"/>
			<path fill="#FFFFFF" d="M279.583,288.175c0,2.755-0.707,4.93-2.119,6.524c-1.413,1.594-3.306,2.391-5.677,2.391
				c-2.392,0-4.291-0.797-5.699-2.391c-1.407-1.595-2.111-3.77-2.111-6.524s0.704-4.932,2.111-6.531
				c1.408-1.6,3.308-2.399,5.699-2.399c2.371,0,4.264,0.8,5.677,2.399C278.876,283.243,279.583,285.42,279.583,288.175z
				 M276.646,288.175c0-2.189-0.429-3.816-1.286-4.882c-0.857-1.064-2.049-1.597-3.572-1.597c-1.544,0-2.742,0.532-3.595,1.597
				c-0.854,1.065-1.279,2.692-1.279,4.882c0,2.119,0.429,3.727,1.287,4.821c0.857,1.095,2.053,1.643,3.587,1.643
				c1.514,0,2.702-0.543,3.564-1.628C276.215,291.927,276.646,290.314,276.646,288.175z"/>
			<path fill="#FFFFFF" d="M293.085,275.823h-0.151c-0.313-0.091-0.722-0.184-1.227-0.28c-0.504-0.096-0.948-0.144-1.332-0.144
				c-1.221,0-2.106,0.271-2.656,0.81c-0.55,0.54-0.824,1.517-0.824,2.93v0.574h5.131v2.393h-5.041v14.516h-2.846v-14.516h-1.922
				v-2.393h1.922v-0.56c0-2.008,0.5-3.55,1.499-4.624c0.999-1.075,2.442-1.612,4.329-1.612c0.636,0,1.208,0.03,1.718,0.091
				s0.977,0.131,1.4,0.212V275.823z"/>
			<path fill="#FFFFFF" d="M330.457,296.621h-2.846v-9.627c0-0.727-0.032-1.428-0.098-2.104c-0.066-0.677-0.205-1.217-0.416-1.62
				c-0.232-0.434-0.565-0.762-1-0.983c-0.434-0.223-1.059-0.334-1.877-0.334c-0.797,0-1.594,0.2-2.391,0.599
				c-0.798,0.398-1.595,0.905-2.393,1.521c0.031,0.232,0.056,0.503,0.076,0.811s0.03,0.613,0.03,0.916v10.822h-2.846v-9.627
				c0-0.747-0.033-1.455-0.099-2.127c-0.065-0.671-0.204-1.208-0.416-1.611c-0.232-0.435-0.565-0.76-0.999-0.977
				s-1.06-0.326-1.877-0.326c-0.777,0-1.557,0.192-2.339,0.576c-0.782,0.383-1.562,0.872-2.338,1.468v12.624h-2.846v-16.908h2.846
				v1.877c0.888-0.736,1.772-1.312,2.656-1.725c0.883-0.414,1.824-0.621,2.822-0.621c1.15,0,2.127,0.242,2.93,0.727
				c0.802,0.484,1.4,1.155,1.793,2.014c1.15-0.969,2.2-1.668,3.148-2.097c0.949-0.429,1.963-0.644,3.043-0.644
				c1.856,0,3.227,0.563,4.109,1.688c0.883,1.126,1.324,2.697,1.324,4.715V296.621z"/>
			<path fill="#FFFFFF" d="M349.076,296.621h-2.831v-1.801c-0.252,0.171-0.593,0.411-1.021,0.719
				c-0.43,0.308-0.846,0.553-1.249,0.734c-0.475,0.231-1.02,0.426-1.635,0.582s-1.337,0.234-2.164,0.234
				c-1.524,0-2.816-0.504-3.875-1.514c-1.061-1.009-1.59-2.295-1.59-3.859c0-1.281,0.274-2.318,0.825-3.11
				c0.55-0.792,1.334-1.415,2.354-1.87c1.029-0.453,2.266-0.762,3.708-0.923c1.443-0.161,2.992-0.282,4.647-0.363v-0.438
				c0-0.646-0.113-1.182-0.341-1.605c-0.227-0.424-0.553-0.756-0.977-0.998c-0.403-0.232-0.888-0.389-1.453-0.47
				c-0.564-0.081-1.155-0.121-1.771-0.121c-0.747,0-1.579,0.099-2.497,0.295c-0.919,0.197-1.867,0.482-2.846,0.855h-0.152v-2.892
				c0.556-0.15,1.357-0.317,2.407-0.499s2.084-0.272,3.103-0.272c1.191,0,2.228,0.099,3.111,0.295
				c0.883,0.197,1.647,0.532,2.293,1.007c0.636,0.464,1.12,1.064,1.453,1.802c0.333,0.736,0.5,1.649,0.5,2.739V296.621z
				 M346.245,292.459v-4.708c-0.868,0.051-1.89,0.126-3.065,0.228c-1.176,0.101-2.106,0.247-2.793,0.438
				c-0.816,0.232-1.478,0.593-1.982,1.082c-0.505,0.49-0.757,1.163-0.757,2.021c0,0.969,0.293,1.698,0.878,2.188
				c0.585,0.49,1.479,0.734,2.68,0.734c0.998,0,1.912-0.194,2.739-0.583C344.771,293.471,345.539,293.004,346.245,292.459z"/>
			<path fill="#FFFFFF" d="M363.334,296.47c-0.535,0.142-1.118,0.257-1.749,0.349c-0.631,0.09-1.193,0.136-1.688,0.136
				c-1.726,0-3.037-0.464-3.936-1.393s-1.347-2.417-1.347-4.466v-8.99h-1.923v-2.393h1.923v-4.858h2.846v4.858h5.873v2.393h-5.873
				v7.704c0,0.888,0.02,1.582,0.061,2.081c0.04,0.5,0.182,0.967,0.424,1.4c0.222,0.403,0.526,0.699,0.915,0.886
				s0.981,0.28,1.778,0.28c0.465,0,0.949-0.068,1.453-0.205c0.505-0.136,0.868-0.25,1.09-0.34h0.152V296.47z"/>
			<path fill="#FFFFFF" d="M375.55,296.47c-0.535,0.142-1.118,0.257-1.749,0.349c-0.631,0.09-1.193,0.136-1.688,0.136
				c-1.726,0-3.037-0.464-3.936-1.393s-1.347-2.417-1.347-4.466v-8.99h-1.923v-2.393h1.923v-4.858h2.846v4.858h5.873v2.393h-5.873
				v7.704c0,0.888,0.02,1.582,0.061,2.081c0.04,0.5,0.182,0.967,0.424,1.4c0.222,0.403,0.526,0.699,0.915,0.886
				s0.981,0.28,1.778,0.28c0.465,0,0.949-0.068,1.453-0.205c0.505-0.136,0.868-0.25,1.09-0.34h0.152V296.47z"/>
			<path fill="#FFFFFF" d="M393.139,288.463h-12.457c0,1.039,0.156,1.944,0.469,2.717c0.313,0.771,0.742,1.405,1.287,1.899
				c0.524,0.484,1.147,0.848,1.869,1.09c0.721,0.242,1.516,0.363,2.384,0.363c1.15,0,2.309-0.229,3.474-0.688
				c1.166-0.459,1.996-0.911,2.49-1.355h0.151v3.104c-0.959,0.403-1.938,0.742-2.937,1.014c-0.999,0.273-2.049,0.409-3.148,0.409
				c-2.806,0-4.995-0.759-6.569-2.278c-1.574-1.519-2.361-3.676-2.361-6.471c0-2.765,0.754-4.96,2.263-6.584
				c1.509-1.625,3.494-2.438,5.957-2.438c2.28,0,4.038,0.666,5.274,1.998s1.854,3.225,1.854,5.676V288.463z M390.369,286.283
				c-0.011-1.494-0.387-2.649-1.128-3.467c-0.742-0.817-1.87-1.227-3.384-1.227c-1.523,0-2.737,0.449-3.64,1.348
				c-0.903,0.898-1.415,2.014-1.536,3.346H390.369z"/>
			<path fill="#FFFFFF" d="M408.003,282.816h-0.151c-0.424-0.101-0.835-0.174-1.233-0.22c-0.399-0.045-0.87-0.067-1.415-0.067
				c-0.879,0-1.727,0.194-2.543,0.582c-0.818,0.389-1.605,0.891-2.361,1.506v12.004h-2.846v-16.908h2.846v2.498
				c1.13-0.908,2.126-1.552,2.989-1.93c0.862-0.379,1.743-0.568,2.642-0.568c0.494,0,0.853,0.014,1.074,0.038
				c0.222,0.025,0.555,0.073,0.999,0.144V282.816z"/>
			<path fill="#FFFFFF" d="M424.637,276.883h-3.209v-2.951h3.209V276.883z M424.455,296.621h-2.846v-16.908h2.846V296.621z"/>
			<path fill="#FFFFFF" d="M444.225,296.621h-2.846v-9.627c0-0.777-0.045-1.506-0.136-2.188c-0.091-0.681-0.257-1.213-0.499-1.597
				c-0.253-0.424-0.616-0.739-1.09-0.946c-0.475-0.206-1.09-0.311-1.848-0.311c-0.776,0-1.589,0.192-2.437,0.576
				c-0.848,0.383-1.66,0.872-2.437,1.468v12.624h-2.846v-16.908h2.846v1.877c0.888-0.736,1.806-1.312,2.754-1.725
				c0.949-0.414,1.923-0.621,2.922-0.621c1.826,0,3.219,0.55,4.178,1.65c0.959,1.1,1.438,2.684,1.438,4.752V296.621z"/>
			<path fill="#FFFFFF" d="M469.383,296.47c-0.535,0.142-1.118,0.257-1.749,0.349c-0.631,0.09-1.193,0.136-1.688,0.136
				c-1.726,0-3.037-0.464-3.936-1.393s-1.347-2.417-1.347-4.466v-8.99h-1.923v-2.393h1.923v-4.858h2.846v4.858h5.873v2.393h-5.873
				v7.704c0,0.888,0.02,1.582,0.061,2.081c0.04,0.5,0.182,0.967,0.424,1.4c0.222,0.403,0.526,0.699,0.915,0.886
				s0.981,0.28,1.778,0.28c0.465,0,0.949-0.068,1.453-0.205c0.505-0.136,0.868-0.25,1.09-0.34h0.152V296.47z"/>
			<path fill="#FFFFFF" d="M486.955,296.621h-2.846v-9.627c0-0.777-0.045-1.506-0.136-2.188c-0.091-0.681-0.257-1.213-0.499-1.597
				c-0.253-0.424-0.616-0.739-1.09-0.946c-0.475-0.206-1.09-0.311-1.848-0.311c-0.776,0-1.589,0.192-2.437,0.576
				c-0.848,0.383-1.66,0.872-2.437,1.468v12.624h-2.846v-23.553h2.846v8.521c0.888-0.736,1.806-1.312,2.754-1.725
				c0.949-0.414,1.923-0.621,2.922-0.621c1.826,0,3.219,0.55,4.178,1.65c0.959,1.1,1.438,2.684,1.438,4.752V296.621z"/>
			<path fill="#FFFFFF" d="M506.588,288.463h-12.457c0,1.039,0.156,1.944,0.469,2.717c0.313,0.771,0.742,1.405,1.287,1.899
				c0.524,0.484,1.147,0.848,1.869,1.09c0.721,0.242,1.516,0.363,2.384,0.363c1.15,0,2.309-0.229,3.474-0.688
				c1.166-0.459,1.996-0.911,2.49-1.355h0.151v3.104c-0.959,0.403-1.938,0.742-2.937,1.014c-0.999,0.273-2.049,0.409-3.148,0.409
				c-2.806,0-4.995-0.759-6.569-2.278c-1.574-1.519-2.361-3.676-2.361-6.471c0-2.765,0.754-4.96,2.263-6.584
				c1.509-1.625,3.494-2.438,5.957-2.438c2.28,0,4.038,0.666,5.274,1.998s1.854,3.225,1.854,5.676V288.463z M503.818,286.283
				c-0.011-1.494-0.387-2.649-1.128-3.467c-0.742-0.817-1.87-1.227-3.384-1.227c-1.523,0-2.737,0.449-3.64,1.348
				c-0.903,0.898-1.415,2.014-1.536,3.346H503.818z"/>
			<path fill="#FFFFFF" d="M535.816,296.621h-2.846v-1.877c-0.958,0.757-1.877,1.337-2.754,1.74
				c-0.879,0.404-1.848,0.605-2.906,0.605c-1.776,0-3.159-0.542-4.148-1.627c-0.988-1.084-1.482-2.677-1.482-4.775v-10.975h2.846
				v9.627c0,0.858,0.04,1.593,0.121,2.203c0.08,0.61,0.252,1.133,0.514,1.566c0.273,0.444,0.626,0.767,1.061,0.969
				c0.434,0.202,1.064,0.303,1.892,0.303c0.736,0,1.541-0.191,2.414-0.575s1.688-0.873,2.444-1.468v-12.625h2.846V296.621z"/>
			<path fill="#FFFFFF" d="M555.555,296.621h-2.846v-9.627c0-0.777-0.045-1.506-0.136-2.188c-0.091-0.681-0.257-1.213-0.499-1.597
				c-0.253-0.424-0.616-0.739-1.09-0.946c-0.475-0.206-1.09-0.311-1.848-0.311c-0.776,0-1.589,0.192-2.437,0.576
				c-0.848,0.383-1.66,0.872-2.437,1.468v12.624h-2.846v-16.908h2.846v1.877c0.888-0.736,1.806-1.312,2.754-1.725
				c0.949-0.414,1.923-0.621,2.922-0.621c1.826,0,3.219,0.55,4.178,1.65c0.959,1.1,1.438,2.684,1.438,4.752V296.621z"/>
			<path fill="#FFFFFF" d="M564.092,276.883h-3.209v-2.951h3.209V276.883z M563.91,296.621h-2.846v-16.908h2.846V296.621z"/>
			<path fill="#FFFFFF" d="M584.163,279.713l-6.842,16.908h-2.86l-6.796-16.908h3.088l5.236,13.457l5.192-13.457H584.163z"/>
			<path fill="#FFFFFF" d="M601.768,288.463h-12.457c0,1.039,0.156,1.944,0.469,2.717c0.313,0.771,0.742,1.405,1.287,1.899
				c0.524,0.484,1.147,0.848,1.869,1.09c0.721,0.242,1.516,0.363,2.384,0.363c1.15,0,2.309-0.229,3.474-0.688
				c1.166-0.459,1.996-0.911,2.49-1.355h0.151v3.104c-0.959,0.403-1.938,0.742-2.937,1.014c-0.999,0.273-2.049,0.409-3.148,0.409
				c-2.806,0-4.995-0.759-6.569-2.278c-1.574-1.519-2.361-3.676-2.361-6.471c0-2.765,0.754-4.96,2.263-6.584
				c1.509-1.625,3.494-2.438,5.957-2.438c2.28,0,4.038,0.666,5.274,1.998s1.854,3.225,1.854,5.676V288.463z M598.998,286.283
				c-0.011-1.494-0.387-2.649-1.128-3.467c-0.742-0.817-1.87-1.227-3.384-1.227c-1.523,0-2.737,0.449-3.64,1.348
				c-0.903,0.898-1.415,2.014-1.536,3.346H598.998z"/>
			<path fill="#FFFFFF" d="M616.632,282.816h-0.151c-0.424-0.101-0.835-0.174-1.233-0.22c-0.399-0.045-0.87-0.067-1.415-0.067
				c-0.879,0-1.727,0.194-2.543,0.582c-0.818,0.389-1.605,0.891-2.361,1.506v12.004h-2.846v-16.908h2.846v2.498
				c1.13-0.908,2.126-1.552,2.989-1.93c0.862-0.379,1.743-0.568,2.642-0.568c0.494,0,0.853,0.014,1.074,0.038
				c0.222,0.025,0.555,0.073,0.999,0.144V282.816z"/>
			<path fill="#FFFFFF" d="M631.39,291.747c0,1.544-0.638,2.811-1.914,3.8c-1.277,0.988-3.02,1.482-5.23,1.482
				c-1.251,0-2.398-0.148-3.443-0.446c-1.044-0.297-1.92-0.623-2.626-0.976v-3.194h0.151c0.898,0.676,1.897,1.214,2.997,1.612
				s2.154,0.598,3.163,0.598c1.252,0,2.23-0.202,2.938-0.605c0.706-0.403,1.059-1.039,1.059-1.907c0-0.666-0.191-1.171-0.574-1.514
				c-0.384-0.343-1.121-0.636-2.211-0.878c-0.403-0.091-0.931-0.197-1.581-0.318c-0.651-0.121-1.244-0.252-1.778-0.393
				c-1.484-0.395-2.536-0.972-3.156-1.733c-0.621-0.762-0.932-1.698-0.932-2.808c0-0.697,0.145-1.353,0.432-1.969
				c0.288-0.615,0.725-1.165,1.31-1.649c0.565-0.475,1.284-0.85,2.157-1.128c0.872-0.277,1.849-0.416,2.929-0.416
				c1.009,0,2.03,0.124,3.065,0.371c1.034,0.247,1.895,0.547,2.58,0.9v3.043h-0.15c-0.727-0.535-1.61-0.986-2.649-1.355
				c-1.039-0.368-2.059-0.553-3.058-0.553c-1.039,0-1.917,0.2-2.634,0.599s-1.075,0.991-1.075,1.778
				c0,0.696,0.218,1.221,0.651,1.574c0.424,0.354,1.11,0.641,2.059,0.863c0.524,0.121,1.112,0.242,1.764,0.363
				c0.65,0.121,1.193,0.231,1.627,0.332c1.322,0.303,2.341,0.823,3.058,1.56C631.032,289.527,631.39,290.516,631.39,291.747z"/>
			<path fill="#FFFFFF" d="M649.615,288.463h-12.457c0,1.039,0.156,1.944,0.469,2.717c0.313,0.771,0.742,1.405,1.287,1.899
				c0.524,0.484,1.147,0.848,1.869,1.09c0.721,0.242,1.516,0.363,2.384,0.363c1.15,0,2.309-0.229,3.474-0.688
				c1.166-0.459,1.996-0.911,2.49-1.355h0.151v3.104c-0.959,0.403-1.938,0.742-2.937,1.014c-0.999,0.273-2.049,0.409-3.148,0.409
				c-2.806,0-4.995-0.759-6.569-2.278c-1.574-1.519-2.361-3.676-2.361-6.471c0-2.765,0.754-4.96,2.263-6.584
				c1.509-1.625,3.494-2.438,5.957-2.438c2.28,0,4.038,0.666,5.274,1.998s1.854,3.225,1.854,5.676V288.463z M646.846,286.283
				c-0.011-1.494-0.387-2.649-1.128-3.467c-0.742-0.817-1.87-1.227-3.384-1.227c-1.523,0-2.737,0.449-3.64,1.348
				c-0.903,0.898-1.415,2.014-1.536,3.346H646.846z"/>
		</g>
	</g>
</g>
</svg>
