<?xml version="1.0" encoding="utf-8"?>
<!-- Generator: Adobe Illustrator 16.0.0, SVG Export Plug-In . SVG Version: 6.00 Build 0)  -->
<!DOCTYPE svg PUBLIC "-//W3C//DTD SVG 1.1//EN" "http://www.w3.org/Graphics/SVG/1.1/DTD/svg11.dtd">
<svg version="1.1" id="Layer_2" xmlns="http://www.w3.org/2000/svg" xmlns:xlink="http://www.w3.org/1999/xlink" x="0px" y="0px"
	 width="913px" height="317px" viewBox="0 0 913 317" enable-background="new 0 0 913 317" xml:space="preserve">
<g id="step1White">
	
		<path fill="#291159" fill-opacity="0.8" stroke="#FFFFFF" stroke-width="3" stroke-linecap="round" stroke-linejoin="round" stroke-miterlimit="10" d="
		M913,305c0,6.627-5.373,12-12,12H12c-6.627,0-12-5.373-12-12V12C0,5.373,5.373,0,12,0h889c6.627,0,12,5.373,12,12V305z"/>
	<g>
		<g>
			<path fill="#FFFFFF" d="M117.957,123.121c-0.605,0.15-1.203,0.259-1.794,0.325c-0.59,0.065-1.193,0.099-1.809,0.099
				c-1.756,0-3.166-0.482-4.23-1.446c-1.065-0.964-1.643-2.344-1.733-4.14c-0.242,0.04-0.477,0.068-0.704,0.083
				c-0.227,0.016-0.446,0.022-0.658,0.022c-1.584,0-3.025-0.262-4.321-0.787c-1.297-0.524-2.399-1.286-3.308-2.285
				s-1.607-2.225-2.097-3.678c-0.489-1.453-0.734-3.113-0.734-4.98c0-1.837,0.242-3.483,0.727-4.942
				c0.484-1.458,1.19-2.707,2.119-3.746c0.888-0.989,1.991-1.746,3.307-2.271c1.317-0.524,2.752-0.787,4.307-0.787
				c1.614,0,3.065,0.265,4.352,0.795c1.287,0.529,2.379,1.284,3.277,2.263c0.918,1.009,1.622,2.245,2.111,3.708
				c0.49,1.464,0.734,3.124,0.734,4.98c0,2.755-0.563,5.076-1.688,6.963c-1.125,1.887-2.637,3.209-4.534,3.966
				c0.04,1.15,0.313,2.044,0.817,2.679c0.504,0.637,1.423,0.954,2.755,0.954c0.414,0,0.906-0.063,1.476-0.189
				c0.57-0.126,0.976-0.239,1.218-0.341h0.409V123.121z M114.385,106.334c0-2.927-0.656-5.185-1.968-6.773
				c-1.312-1.59-3.103-2.385-5.374-2.385c-2.291,0-4.089,0.795-5.396,2.385c-1.307,1.589-1.96,3.847-1.96,6.773
				c0,2.957,0.666,5.22,1.998,6.789s3.118,2.354,5.358,2.354s4.024-0.784,5.351-2.354
				C113.721,111.554,114.385,109.291,114.385,106.334z"/>
			<path fill="#FFFFFF" d="M136.045,117.596H133.2v-1.877c-0.959,0.757-1.877,1.337-2.755,1.74
				c-0.878,0.404-1.847,0.605-2.906,0.605c-1.776,0-3.159-0.542-4.147-1.627c-0.989-1.084-1.483-2.677-1.483-4.775v-10.975h2.846
				v9.627c0,0.858,0.04,1.593,0.121,2.203c0.081,0.61,0.252,1.133,0.515,1.566c0.272,0.444,0.625,0.767,1.06,0.969
				c0.434,0.202,1.064,0.303,1.892,0.303c0.736,0,1.542-0.191,2.414-0.575c0.873-0.384,1.688-0.873,2.445-1.468v-12.625h2.846
				V117.596z"/>
			<path fill="#FFFFFF" d="M154.785,117.596h-2.831v-1.801c-0.252,0.171-0.593,0.411-1.021,0.719
				c-0.43,0.308-0.846,0.553-1.249,0.734c-0.475,0.231-1.02,0.426-1.635,0.582s-1.337,0.234-2.164,0.234
				c-1.524,0-2.816-0.504-3.875-1.514c-1.06-1.009-1.589-2.295-1.589-3.859c0-1.281,0.275-2.318,0.825-3.11
				c0.55-0.792,1.334-1.415,2.354-1.87c1.029-0.453,2.266-0.762,3.708-0.923c1.443-0.161,2.992-0.282,4.647-0.363v-0.438
				c0-0.646-0.113-1.182-0.341-1.605c-0.227-0.424-0.553-0.756-0.977-0.998c-0.403-0.232-0.888-0.389-1.453-0.47
				c-0.564-0.081-1.155-0.121-1.771-0.121c-0.747,0-1.579,0.099-2.497,0.295c-0.919,0.197-1.868,0.482-2.846,0.855h-0.151v-2.892
				c0.555-0.15,1.357-0.317,2.407-0.499s2.084-0.272,3.103-0.272c1.191,0,2.228,0.099,3.111,0.295
				c0.883,0.197,1.647,0.532,2.293,1.007c0.636,0.464,1.12,1.064,1.453,1.802c0.333,0.736,0.5,1.649,0.5,2.739V117.596z
				 M151.954,113.434v-4.708c-0.868,0.051-1.89,0.126-3.065,0.228c-1.176,0.101-2.106,0.247-2.793,0.438
				c-0.816,0.232-1.478,0.593-1.982,1.082c-0.505,0.49-0.757,1.163-0.757,2.021c0,0.969,0.292,1.698,0.878,2.188
				c0.585,0.49,1.479,0.734,2.68,0.734c0.998,0,1.912-0.194,2.739-0.583C150.48,114.445,151.248,113.979,151.954,113.434z"/>
			<path fill="#FFFFFF" d="M174.401,117.596h-2.846v-9.627c0-0.777-0.045-1.506-0.136-2.188c-0.091-0.681-0.257-1.213-0.499-1.597
				c-0.253-0.424-0.616-0.739-1.09-0.946c-0.475-0.206-1.09-0.311-1.848-0.311c-0.776,0-1.589,0.192-2.437,0.576
				c-0.848,0.383-1.66,0.872-2.437,1.468v12.624h-2.846v-16.908h2.846v1.877c0.888-0.736,1.806-1.312,2.754-1.725
				c0.949-0.414,1.923-0.621,2.922-0.621c1.826,0,3.219,0.55,4.178,1.65c0.959,1.1,1.438,2.684,1.438,4.752V117.596z"/>
			<path fill="#FFFFFF" d="M188.661,117.444c-0.535,0.142-1.118,0.257-1.749,0.349c-0.631,0.09-1.193,0.136-1.688,0.136
				c-1.726,0-3.037-0.464-3.936-1.393s-1.347-2.417-1.347-4.466v-8.99h-1.923v-2.393h1.923v-4.858h2.846v4.858h5.873v2.393h-5.873
				v7.704c0,0.888,0.02,1.582,0.061,2.081c0.04,0.5,0.182,0.967,0.424,1.4c0.222,0.403,0.526,0.699,0.915,0.886
				s0.981,0.28,1.778,0.28c0.465,0,0.949-0.068,1.453-0.205c0.505-0.136,0.868-0.25,1.09-0.34h0.152V117.444z"/>
			<path fill="#FFFFFF" d="M206.113,117.596h-2.846v-1.877c-0.958,0.757-1.877,1.337-2.754,1.74
				c-0.879,0.404-1.848,0.605-2.906,0.605c-1.776,0-3.159-0.542-4.148-1.627c-0.988-1.084-1.482-2.677-1.482-4.775v-10.975h2.846
				v9.627c0,0.858,0.04,1.593,0.121,2.203c0.08,0.61,0.252,1.133,0.514,1.566c0.273,0.444,0.626,0.767,1.061,0.969
				c0.434,0.202,1.064,0.303,1.892,0.303c0.736,0,1.541-0.191,2.414-0.575s1.688-0.873,2.444-1.468v-12.625h2.846V117.596z"/>
			<path fill="#FFFFFF" d="M236.387,117.596h-2.846v-9.627c0-0.727-0.032-1.428-0.098-2.104c-0.066-0.677-0.205-1.217-0.416-1.62
				c-0.232-0.434-0.565-0.762-1-0.983c-0.434-0.223-1.059-0.334-1.877-0.334c-0.797,0-1.594,0.2-2.391,0.599
				c-0.798,0.398-1.595,0.905-2.393,1.521c0.031,0.232,0.056,0.503,0.076,0.811s0.03,0.613,0.03,0.916v10.822h-2.846v-9.627
				c0-0.747-0.033-1.455-0.099-2.127c-0.065-0.671-0.204-1.208-0.416-1.611c-0.232-0.435-0.565-0.76-0.999-0.977
				s-1.06-0.326-1.877-0.326c-0.777,0-1.557,0.192-2.339,0.576c-0.782,0.383-1.562,0.872-2.338,1.468v12.624h-2.846v-16.908h2.846
				v1.877c0.888-0.736,1.772-1.312,2.656-1.725c0.883-0.414,1.824-0.621,2.822-0.621c1.15,0,2.127,0.242,2.93,0.727
				c0.802,0.484,1.4,1.155,1.793,2.014c1.15-0.969,2.2-1.668,3.148-2.097c0.949-0.429,1.963-0.644,3.043-0.644
				c1.856,0,3.227,0.563,4.109,1.688c0.883,1.126,1.324,2.697,1.324,4.715V117.596z"/>
			<path fill="#FFFFFF" d="M270.763,95.057l-8.204,22.539h-3.996l-8.204-22.539h3.209l7.069,19.83l7.068-19.83H270.763z"/>
			<path fill="#FFFFFF" d="M285.582,117.596h-2.831v-1.801c-0.252,0.171-0.593,0.411-1.021,0.719
				c-0.43,0.308-0.846,0.553-1.249,0.734c-0.475,0.231-1.02,0.426-1.635,0.582s-1.337,0.234-2.164,0.234
				c-1.524,0-2.816-0.504-3.875-1.514c-1.061-1.009-1.59-2.295-1.59-3.859c0-1.281,0.274-2.318,0.825-3.11
				c0.55-0.792,1.334-1.415,2.354-1.87c1.029-0.453,2.266-0.762,3.708-0.923c1.443-0.161,2.992-0.282,4.647-0.363v-0.438
				c0-0.646-0.113-1.182-0.341-1.605c-0.227-0.424-0.553-0.756-0.977-0.998c-0.403-0.232-0.888-0.389-1.453-0.47
				c-0.564-0.081-1.155-0.121-1.771-0.121c-0.747,0-1.579,0.099-2.497,0.295c-0.919,0.197-1.867,0.482-2.846,0.855h-0.152v-2.892
				c0.556-0.15,1.357-0.317,2.407-0.499s2.084-0.272,3.103-0.272c1.191,0,2.228,0.099,3.111,0.295
				c0.883,0.197,1.647,0.532,2.293,1.007c0.636,0.464,1.12,1.064,1.453,1.802c0.333,0.736,0.5,1.649,0.5,2.739V117.596z
				 M282.751,113.434v-4.708c-0.868,0.051-1.89,0.126-3.065,0.228c-1.176,0.101-2.106,0.247-2.793,0.438
				c-0.816,0.232-1.478,0.593-1.982,1.082c-0.505,0.49-0.757,1.163-0.757,2.021c0,0.969,0.293,1.698,0.878,2.188
				c0.585,0.49,1.479,0.734,2.68,0.734c0.998,0,1.912-0.194,2.739-0.583C281.277,114.445,282.045,113.979,282.751,113.434z"/>
			<path fill="#FFFFFF" d="M303.563,116.536c-0.948,0.454-1.849,0.808-2.701,1.06c-0.854,0.252-1.759,0.379-2.717,0.379
				c-1.222,0-2.342-0.18-3.361-0.538c-1.019-0.357-1.892-0.9-2.618-1.627c-0.736-0.727-1.307-1.645-1.71-2.755
				c-0.404-1.11-0.605-2.406-0.605-3.891c0-2.765,0.759-4.934,2.277-6.508s3.524-2.361,6.018-2.361c0.969,0,1.919,0.136,2.853,0.408
				s1.789,0.605,2.565,0.999v3.163h-0.15c-0.868-0.676-1.764-1.195-2.688-1.559c-0.923-0.363-1.824-0.545-2.701-0.545
				c-1.615,0-2.89,0.543-3.822,1.627c-0.934,1.085-1.4,2.677-1.4,4.775c0,2.039,0.456,3.605,1.37,4.7
				c0.913,1.096,2.197,1.643,3.853,1.643c0.574,0,1.16-0.075,1.756-0.228c0.595-0.15,1.13-0.348,1.604-0.59
				c0.414-0.212,0.803-0.437,1.166-0.674c0.363-0.236,0.65-0.441,0.863-0.613h0.15V116.536z"/>
			<path fill="#FFFFFF" d="M321.228,117.596h-2.846v-1.877c-0.958,0.757-1.877,1.337-2.754,1.74
				c-0.879,0.404-1.848,0.605-2.906,0.605c-1.776,0-3.159-0.542-4.148-1.627c-0.988-1.084-1.482-2.677-1.482-4.775v-10.975h2.846
				v9.627c0,0.858,0.04,1.593,0.121,2.203c0.08,0.61,0.252,1.133,0.514,1.566c0.273,0.444,0.626,0.767,1.061,0.969
				c0.434,0.202,1.064,0.303,1.892,0.303c0.736,0,1.541-0.191,2.414-0.575s1.688-0.873,2.444-1.468v-12.625h2.846V117.596z"/>
			<path fill="#FFFFFF" d="M340.845,117.596h-2.846v-1.877c-0.958,0.757-1.877,1.337-2.754,1.74
				c-0.879,0.404-1.848,0.605-2.906,0.605c-1.776,0-3.159-0.542-4.148-1.627c-0.988-1.084-1.482-2.677-1.482-4.775v-10.975h2.846
				v9.627c0,0.858,0.04,1.593,0.121,2.203c0.08,0.61,0.252,1.133,0.514,1.566c0.273,0.444,0.626,0.767,1.061,0.969
				c0.434,0.202,1.064,0.303,1.892,0.303c0.736,0,1.541-0.191,2.414-0.575s1.688-0.873,2.444-1.468v-12.625h2.846V117.596z"/>
			<path fill="#FFFFFF" d="M371.118,117.596h-2.846v-9.627c0-0.727-0.032-1.428-0.098-2.104c-0.066-0.677-0.205-1.217-0.416-1.62
				c-0.232-0.434-0.565-0.762-1-0.983c-0.434-0.223-1.059-0.334-1.877-0.334c-0.797,0-1.594,0.2-2.391,0.599
				c-0.798,0.398-1.595,0.905-2.393,1.521c0.031,0.232,0.056,0.503,0.076,0.811s0.03,0.613,0.03,0.916v10.822h-2.846v-9.627
				c0-0.747-0.033-1.455-0.099-2.127c-0.065-0.671-0.204-1.208-0.416-1.611c-0.232-0.435-0.565-0.76-0.999-0.977
				s-1.06-0.326-1.877-0.326c-0.777,0-1.557,0.192-2.339,0.576c-0.782,0.383-1.562,0.872-2.338,1.468v12.624h-2.846v-16.908h2.846
				v1.877c0.888-0.736,1.772-1.312,2.656-1.725c0.883-0.414,1.824-0.621,2.822-0.621c1.15,0,2.127,0.242,2.93,0.727
				c0.802,0.484,1.4,1.155,1.793,2.014c1.15-0.969,2.2-1.668,3.148-2.097c0.949-0.429,1.963-0.644,3.043-0.644
				c1.856,0,3.227,0.563,4.109,1.688c0.883,1.126,1.324,2.697,1.324,4.715V117.596z"/>
			<path fill="#FFFFFF" d="M406.766,106.35c0,2.048-0.446,3.904-1.34,5.57c-0.893,1.664-2.081,2.956-3.564,3.875
				c-1.029,0.635-2.178,1.095-3.443,1.377c-1.267,0.282-2.935,0.424-5.003,0.424h-5.691V95.057h5.631c2.2,0,3.948,0.159,5.245,0.478
				c1.296,0.317,2.394,0.754,3.292,1.31c1.534,0.958,2.729,2.234,3.588,3.829C406.337,102.268,406.766,104.159,406.766,106.35z
				 M403.632,106.304c0-1.766-0.308-3.255-0.923-4.466s-1.534-2.164-2.755-2.86c-0.888-0.505-1.832-0.855-2.83-1.052
				c-1-0.197-2.195-0.295-3.588-0.295h-2.815v17.392h2.815c1.443,0,2.702-0.106,3.776-0.317c1.075-0.213,2.062-0.605,2.96-1.182
				c1.119-0.716,1.96-1.659,2.52-2.83C403.353,109.522,403.632,108.06,403.632,106.304z"/>
			<path fill="#FFFFFF" d="M425.535,109.438h-12.457c0,1.039,0.156,1.944,0.469,2.717c0.313,0.771,0.742,1.405,1.287,1.899
				c0.524,0.484,1.147,0.848,1.869,1.09c0.721,0.242,1.516,0.363,2.384,0.363c1.15,0,2.309-0.229,3.474-0.688
				c1.166-0.459,1.996-0.911,2.49-1.355h0.151v3.104c-0.959,0.403-1.938,0.742-2.937,1.014c-0.999,0.273-2.049,0.409-3.148,0.409
				c-2.806,0-4.995-0.759-6.569-2.278c-1.574-1.519-2.361-3.676-2.361-6.471c0-2.765,0.754-4.96,2.263-6.584
				c1.509-1.625,3.494-2.438,5.957-2.438c2.28,0,4.038,0.666,5.274,1.998s1.854,3.225,1.854,5.676V109.438z M422.766,107.258
				c-0.011-1.494-0.387-2.649-1.128-3.467c-0.742-0.817-1.87-1.227-3.384-1.227c-1.523,0-2.737,0.449-3.64,1.348
				c-0.903,0.898-1.415,2.014-1.536,3.346H422.766z"/>
			<path fill="#FFFFFF" d="M443.986,117.596h-2.846v-9.627c0-0.777-0.045-1.506-0.136-2.188c-0.091-0.681-0.257-1.213-0.499-1.597
				c-0.253-0.424-0.616-0.739-1.09-0.946c-0.475-0.206-1.09-0.311-1.848-0.311c-0.776,0-1.589,0.192-2.437,0.576
				c-0.848,0.383-1.66,0.872-2.437,1.468v12.624h-2.846v-16.908h2.846v1.877c0.888-0.736,1.806-1.312,2.754-1.725
				c0.949-0.414,1.923-0.621,2.922-0.621c1.826,0,3.219,0.55,4.178,1.65c0.959,1.1,1.438,2.684,1.438,4.752V117.596z"/>
			<path fill="#FFFFFF" d="M461.545,112.722c0,1.544-0.638,2.811-1.914,3.8c-1.277,0.988-3.02,1.482-5.23,1.482
				c-1.251,0-2.398-0.148-3.443-0.446c-1.044-0.297-1.92-0.623-2.626-0.976v-3.194h0.151c0.898,0.676,1.897,1.214,2.997,1.612
				s2.154,0.598,3.163,0.598c1.252,0,2.23-0.202,2.938-0.605c0.706-0.403,1.059-1.039,1.059-1.907c0-0.666-0.191-1.171-0.574-1.514
				c-0.384-0.343-1.121-0.636-2.211-0.878c-0.403-0.091-0.931-0.197-1.581-0.318c-0.651-0.121-1.244-0.252-1.778-0.393
				c-1.484-0.395-2.536-0.972-3.156-1.733c-0.621-0.762-0.932-1.698-0.932-2.808c0-0.697,0.145-1.353,0.432-1.969
				c0.288-0.615,0.725-1.165,1.31-1.649c0.565-0.475,1.284-0.85,2.157-1.128c0.872-0.277,1.849-0.416,2.929-0.416
				c1.009,0,2.03,0.124,3.065,0.371c1.034,0.247,1.895,0.547,2.58,0.9v3.043h-0.15c-0.727-0.535-1.61-0.986-2.649-1.355
				c-1.039-0.368-2.059-0.553-3.058-0.553c-1.039,0-1.917,0.2-2.634,0.599s-1.075,0.991-1.075,1.778
				c0,0.696,0.218,1.221,0.651,1.574c0.424,0.354,1.11,0.641,2.059,0.863c0.524,0.121,1.112,0.242,1.764,0.363
				c0.65,0.121,1.193,0.231,1.627,0.332c1.322,0.303,2.341,0.823,3.058,1.56C461.188,110.502,461.545,111.49,461.545,112.722z"/>
			<path fill="#FFFFFF" d="M468.674,97.857h-3.209v-2.951h3.209V97.857z M468.492,117.596h-2.846v-16.908h2.846V117.596z"/>
			<path fill="#FFFFFF" d="M482.904,117.444c-0.535,0.142-1.118,0.257-1.749,0.349c-0.631,0.09-1.193,0.136-1.688,0.136
				c-1.726,0-3.037-0.464-3.936-1.393s-1.347-2.417-1.347-4.466v-8.99h-1.923v-2.393h1.923v-4.858h2.846v4.858h5.873v2.393h-5.873
				v7.704c0,0.888,0.02,1.582,0.061,2.081c0.04,0.5,0.182,0.967,0.424,1.4c0.222,0.403,0.526,0.699,0.915,0.886
				s0.981,0.28,1.778,0.28c0.465,0,0.949-0.068,1.453-0.205c0.505-0.136,0.868-0.25,1.09-0.34h0.152V117.444z"/>
			<path fill="#FFFFFF" d="M500.81,100.688l-9.869,23.145h-3.042l3.148-7.054l-6.735-16.091h3.088l5.191,12.533l5.237-12.533H500.81
				z"/>
		</g>
		<g enable-background="new    ">
			<path fill="#FFFFFF" d="M119.434,177.49c0,1.372-0.197,2.626-0.59,3.762c-0.394,1.135-0.949,2.096-1.665,2.883
				c-0.666,0.747-1.451,1.325-2.354,1.733c-0.903,0.409-1.859,0.613-2.868,0.613c-0.878,0-1.673-0.096-2.384-0.288
				c-0.712-0.191-1.436-0.489-2.172-0.893v7.084h-2.846V169.24h2.846v1.771c0.757-0.636,1.607-1.168,2.55-1.597
				c0.944-0.429,1.95-0.644,3.02-0.644c2.038,0,3.625,0.77,4.76,2.309C118.866,172.619,119.434,174.756,119.434,177.49z
				 M116.497,177.566c0-2.039-0.348-3.563-1.044-4.572c-0.696-1.009-1.766-1.514-3.209-1.514c-0.817,0-1.64,0.177-2.467,0.53
				c-0.828,0.354-1.62,0.817-2.376,1.393v9.581c0.807,0.363,1.501,0.611,2.082,0.742c0.58,0.131,1.238,0.197,1.975,0.197
				c1.584,0,2.82-0.535,3.708-1.605C116.053,181.249,116.497,179.665,116.497,177.566z"/>
		</g>
		<g enable-background="new    ">
			<path fill="#FFFFFF" d="M132.309,186.24l-4.414,10.908h-1.846l-4.385-10.908h1.992l3.379,8.682l3.35-8.682H132.309z"/>
		</g>
		<g enable-background="new    ">
			<path fill="#FFFFFF" d="M161.596,174.312h-17.952v-2.422h17.952V174.312z M161.596,180.669h-17.952v-2.422h17.952V180.669z"/>
			<path fill="#FFFFFF" d="M193.717,178.988c0,1.05-0.192,2.054-0.576,3.013c-0.383,0.959-0.908,1.766-1.574,2.422
				c-0.727,0.706-1.592,1.249-2.596,1.627c-1.004,0.379-2.167,0.567-3.489,0.567c-1.231,0-2.417-0.128-3.557-0.386
				c-1.141-0.257-2.104-0.567-2.891-0.931v-3.193h0.212c0.827,0.524,1.796,0.971,2.906,1.339c1.11,0.369,2.2,0.553,3.27,0.553
				c0.716,0,1.41-0.101,2.082-0.303c0.671-0.202,1.269-0.555,1.793-1.06c0.444-0.434,0.78-0.953,1.006-1.559
				c0.228-0.605,0.341-1.308,0.341-2.104c0-0.777-0.134-1.433-0.401-1.968s-0.638-0.964-1.112-1.287
				c-0.525-0.383-1.163-0.652-1.915-0.81c-0.751-0.156-1.592-0.234-2.52-0.234c-0.888,0-1.743,0.061-2.566,0.182
				c-0.822,0.121-1.531,0.242-2.126,0.363v-11.61h13.562v2.649h-10.641v5.994c0.434-0.04,0.878-0.07,1.332-0.091
				s0.848-0.03,1.181-0.03c1.221,0,2.291,0.104,3.209,0.311c0.918,0.207,1.761,0.572,2.528,1.097
				c0.807,0.556,1.433,1.271,1.877,2.15C193.494,176.566,193.717,177.667,193.717,178.988z"/>
			<path fill="#FFFFFF" d="M203.358,186.148h-3.617v-4.314h3.617V186.148z"/>
			<path fill="#FFFFFF" d="M223.596,186.148h-12.2v-2.301h4.692v-15.106h-4.692v-2.059c0.636,0,1.317-0.053,2.044-0.159
				c0.727-0.105,1.276-0.26,1.649-0.461c0.464-0.253,0.83-0.573,1.098-0.962c0.267-0.388,0.421-0.91,0.462-1.566h2.346v20.313h4.602
				V186.148z"/>
			<path fill="#FFFFFF" d="M244.924,178.838c0,2.29-0.754,4.16-2.263,5.607c-1.509,1.448-3.357,2.172-5.548,2.172
				c-1.109,0-2.119-0.171-3.027-0.514c-0.908-0.344-1.71-0.854-2.406-1.529c-0.868-0.838-1.536-1.947-2.006-3.33
				c-0.469-1.383-0.703-3.048-0.703-4.995c0-1.998,0.214-3.769,0.643-5.313c0.429-1.543,1.113-2.916,2.051-4.117
				c0.889-1.14,2.034-2.03,3.437-2.671s3.037-0.962,4.904-0.962c0.596,0,1.095,0.025,1.499,0.076
				c0.403,0.051,0.812,0.142,1.226,0.272v2.892h-0.151c-0.282-0.152-0.709-0.296-1.279-0.432c-0.57-0.137-1.152-0.205-1.748-0.205
				c-2.17,0-3.9,0.68-5.191,2.036c-1.292,1.357-2.044,3.191-2.256,5.503c0.848-0.516,1.683-0.906,2.505-1.174
				c0.822-0.267,1.773-0.4,2.854-0.4c0.959,0,1.804,0.088,2.535,0.265s1.481,0.532,2.248,1.067c0.888,0.615,1.557,1.393,2.006,2.33
				C244.699,176.355,244.924,177.495,244.924,178.838z M241.852,178.959c0-0.939-0.139-1.716-0.416-2.332
				c-0.278-0.615-0.734-1.15-1.37-1.604c-0.464-0.323-0.979-0.535-1.544-0.637c-0.565-0.101-1.155-0.15-1.771-0.15
				c-0.857,0-1.654,0.101-2.391,0.303c-0.737,0.201-1.494,0.514-2.271,0.938c-0.02,0.223-0.035,0.438-0.045,0.644
				c-0.01,0.207-0.016,0.467-0.016,0.78c0,1.594,0.164,2.853,0.492,3.776c0.328,0.923,0.779,1.652,1.355,2.187
				c0.464,0.444,0.966,0.771,1.506,0.977c0.539,0.207,1.127,0.311,1.764,0.311c1.463,0,2.613-0.446,3.451-1.34
				C241.433,181.918,241.852,180.634,241.852,178.959z"/>
			<path fill="#FFFFFF" d="M264.631,178.838c0,2.29-0.754,4.16-2.263,5.607c-1.509,1.448-3.357,2.172-5.548,2.172
				c-1.109,0-2.119-0.171-3.027-0.514c-0.908-0.344-1.71-0.854-2.406-1.529c-0.868-0.838-1.536-1.947-2.006-3.33
				c-0.469-1.383-0.703-3.048-0.703-4.995c0-1.998,0.214-3.769,0.643-5.313c0.429-1.543,1.113-2.916,2.051-4.117
				c0.889-1.14,2.034-2.03,3.437-2.671s3.037-0.962,4.904-0.962c0.596,0,1.095,0.025,1.499,0.076
				c0.403,0.051,0.812,0.142,1.226,0.272v2.892h-0.151c-0.282-0.152-0.709-0.296-1.279-0.432c-0.57-0.137-1.152-0.205-1.748-0.205
				c-2.17,0-3.9,0.68-5.191,2.036c-1.292,1.357-2.044,3.191-2.256,5.503c0.848-0.516,1.683-0.906,2.505-1.174
				c0.822-0.267,1.773-0.4,2.854-0.4c0.959,0,1.804,0.088,2.535,0.265s1.481,0.532,2.248,1.067c0.888,0.615,1.557,1.393,2.006,2.33
				C264.406,176.355,264.631,177.495,264.631,178.838z M261.559,178.959c0-0.939-0.139-1.716-0.416-2.332
				c-0.278-0.615-0.734-1.15-1.37-1.604c-0.464-0.323-0.979-0.535-1.544-0.637c-0.565-0.101-1.155-0.15-1.771-0.15
				c-0.857,0-1.654,0.101-2.391,0.303c-0.737,0.201-1.494,0.514-2.271,0.938c-0.02,0.223-0.035,0.438-0.045,0.644
				c-0.01,0.207-0.016,0.467-0.016,0.78c0,1.594,0.164,2.853,0.492,3.776c0.328,0.923,0.779,1.652,1.355,2.187
				c0.464,0.444,0.966,0.771,1.506,0.977c0.539,0.207,1.127,0.311,1.764,0.311c1.463,0,2.613-0.446,3.451-1.34
				C261.14,181.918,261.559,180.634,261.559,178.959z"/>
			<path fill="#FFFFFF" d="M287.277,182.879l-1.681,1.68l-6.6-6.66l-6.6,6.66l-1.681-1.68l6.66-6.6l-6.66-6.6l1.681-1.68l6.6,6.66
				l6.6-6.66l1.681,1.68l-6.66,6.6L287.277,182.879z"/>
			<path fill="#FFFFFF" d="M308.09,186.148h-12.2v-2.301h4.692v-15.106h-4.692v-2.059c0.636,0,1.317-0.053,2.044-0.159
				c0.727-0.105,1.276-0.26,1.649-0.461c0.464-0.253,0.83-0.573,1.098-0.962c0.267-0.388,0.421-0.91,0.462-1.566h2.346v20.313h4.602
				V186.148z"/>
			<path fill="#FFFFFF" d="M329.053,174.871c0,4.047-0.633,7.017-1.899,8.908c-1.267,1.893-3.231,2.838-5.896,2.838
				c-2.704,0-4.68-0.958-5.926-2.875c-1.247-1.918-1.869-4.864-1.869-8.84c0-4.007,0.63-6.966,1.892-8.878s3.229-2.868,5.903-2.868
				c2.704,0,4.68,0.971,5.926,2.913C328.43,168.013,329.053,170.946,329.053,174.871z M325.072,181.744
				c0.354-0.818,0.593-1.779,0.719-2.884c0.126-1.105,0.189-2.435,0.189-3.989c0-1.533-0.063-2.865-0.189-3.996
				c-0.126-1.13-0.371-2.088-0.734-2.875c-0.353-0.777-0.835-1.363-1.445-1.756c-0.61-0.395-1.395-0.591-2.354-0.591
				c-0.948,0-1.733,0.196-2.354,0.591c-0.621,0.393-1.113,0.988-1.477,1.785c-0.343,0.747-0.577,1.721-0.703,2.922
				c-0.127,1.201-0.189,2.518-0.189,3.951c0,1.574,0.056,2.891,0.166,3.95c0.111,1.06,0.349,2.008,0.712,2.846
				c0.333,0.787,0.805,1.388,1.415,1.802c0.61,0.413,1.421,0.62,2.43,0.62c0.948,0,1.735-0.196,2.361-0.591
				C324.245,183.137,324.729,182.541,325.072,181.744z"/>
		</g>
		<g enable-background="new    ">
			<path fill="#FFFFFF" d="M342.494,156.004c0,1.27-0.145,2.422-0.435,3.457s-0.728,1.917-1.313,2.646
				c-0.592,0.742-1.334,1.315-2.227,1.719s-1.94,0.605-3.145,0.605c-0.338,0-0.658-0.018-0.957-0.054s-0.566-0.093-0.801-0.171
				v-1.865h0.098c0.189,0.098,0.456,0.19,0.801,0.278s0.729,0.132,1.152,0.132c1.439,0,2.567-0.432,3.384-1.294
				s1.291-2.053,1.421-3.569c-0.605,0.364-1.175,0.625-1.709,0.781s-1.117,0.234-1.748,0.234c-0.599,0-1.141-0.059-1.626-0.176
				s-0.972-0.345-1.46-0.684c-0.573-0.397-1.004-0.901-1.294-1.514s-0.435-1.345-0.435-2.197c0-1.484,0.488-2.692,1.465-3.623
				s2.168-1.396,3.574-1.396c0.703,0,1.354,0.109,1.953,0.327s1.123,0.545,1.572,0.981c0.553,0.54,0.98,1.235,1.279,2.085
				S342.494,154.656,342.494,156.004z M340.521,155.584c0-1.009-0.104-1.819-0.313-2.432s-0.495-1.087-0.859-1.426
				c-0.306-0.293-0.635-0.503-0.986-0.63s-0.732-0.19-1.143-0.19c-0.938,0-1.678,0.293-2.222,0.879s-0.815,1.409-0.815,2.471
				c0,0.618,0.088,1.123,0.264,1.514s0.472,0.732,0.889,1.025c0.293,0.202,0.615,0.337,0.967,0.405s0.742,0.103,1.172,0.103
				c0.508,0,1.022-0.068,1.543-0.205s1.009-0.335,1.465-0.596c0.006-0.137,0.015-0.271,0.024-0.405S340.521,155.792,340.521,155.584
				z"/>
			<path fill="#FFFFFF" d="M353.949,157.146c0.313,0.28,0.57,0.632,0.771,1.055s0.303,0.97,0.303,1.641
				c0,0.664-0.121,1.272-0.361,1.826s-0.58,1.035-1.016,1.445c-0.488,0.456-1.063,0.793-1.724,1.011s-1.385,0.327-2.173,0.327
				c-0.807,0-1.602-0.096-2.383-0.288s-1.422-0.402-1.924-0.63v-2.041h0.146c0.553,0.364,1.205,0.667,1.953,0.908
				s1.471,0.361,2.168,0.361c0.41,0,0.846-0.068,1.309-0.205s0.836-0.339,1.123-0.605c0.299-0.286,0.522-0.603,0.669-0.947
				s0.22-0.781,0.22-1.309c0-0.521-0.083-0.952-0.249-1.294s-0.396-0.61-0.688-0.806c-0.293-0.202-0.648-0.34-1.064-0.415
				s-0.866-0.112-1.348-0.112h-0.879v-1.621h0.684c0.99,0,1.779-0.207,2.368-0.62s0.884-1.018,0.884-1.812
				c0-0.352-0.075-0.659-0.225-0.923s-0.358-0.48-0.625-0.649c-0.28-0.169-0.58-0.286-0.898-0.352s-0.68-0.098-1.084-0.098
				c-0.619,0-1.276,0.11-1.973,0.332s-1.354,0.534-1.973,0.938h-0.098v-2.041c0.462-0.228,1.079-0.438,1.851-0.63
				s1.519-0.288,2.241-0.288c0.709,0,1.334,0.065,1.875,0.195s1.029,0.339,1.465,0.625c0.469,0.313,0.824,0.69,1.064,1.133
				s0.361,0.96,0.361,1.553c0,0.808-0.285,1.512-0.854,2.114s-1.242,0.981-2.017,1.138v0.137c0.313,0.052,0.67,0.161,1.074,0.327
				S353.669,156.899,353.949,157.146z"/>
		</g>
		<g enable-background="new    ">
		</g>
		<g enable-background="new    ">
			<path fill="#FFFFFF" d="M381.127,184.227c0,2.865-0.651,4.97-1.953,6.312s-3.305,2.013-6.009,2.013
				c-0.898,0-1.773-0.063-2.626-0.188c-0.853-0.127-1.693-0.306-2.52-0.538v-2.906h0.151c0.464,0.182,1.201,0.406,2.21,0.674
				c1.009,0.268,2.018,0.401,3.027,0.401c0.969,0,1.771-0.116,2.407-0.349c0.636-0.231,1.13-0.555,1.483-0.969
				c0.353-0.393,0.605-0.867,0.757-1.422c0.151-0.556,0.227-1.176,0.227-1.862v-1.544c-0.858,0.687-1.678,1.198-2.459,1.536
				c-0.782,0.339-1.779,0.507-2.99,0.507c-2.019,0-3.62-0.729-4.806-2.187c-1.186-1.458-1.778-3.515-1.778-6.169
				c0-1.453,0.204-2.706,0.613-3.761c0.408-1.055,0.966-1.966,1.672-2.732c0.656-0.717,1.453-1.273,2.392-1.673
				c0.938-0.398,1.872-0.598,2.8-0.598c0.979,0,1.799,0.099,2.46,0.295c0.661,0.197,1.359,0.497,2.096,0.9l0.182-0.727h2.664
				V184.227z M378.281,181.502v-9.219c-0.757-0.343-1.46-0.588-2.112-0.734c-0.65-0.146-1.299-0.219-1.945-0.219
				c-1.564,0-2.795,0.524-3.693,1.574c-0.898,1.049-1.347,2.572-1.347,4.57c0,1.897,0.333,3.336,0.999,4.314
				s1.771,1.469,3.315,1.469c0.827,0,1.658-0.159,2.49-0.478C376.821,182.463,377.585,182.036,378.281,181.502z"/>
			<path fill="#FFFFFF" d="M411.4,186.148h-2.846v-9.627c0-0.727-0.033-1.428-0.098-2.104c-0.066-0.677-0.205-1.217-0.417-1.62
				c-0.232-0.434-0.565-0.762-0.999-0.983c-0.434-0.223-1.06-0.334-1.877-0.334c-0.797,0-1.595,0.2-2.392,0.599
				c-0.797,0.398-1.595,0.905-2.392,1.521c0.03,0.232,0.055,0.503,0.076,0.811c0.02,0.308,0.03,0.613,0.03,0.916v10.822h-2.846
				v-9.627c0-0.747-0.033-1.455-0.099-2.127c-0.065-0.671-0.204-1.208-0.416-1.611c-0.232-0.435-0.565-0.76-0.999-0.977
				c-0.434-0.217-1.06-0.326-1.877-0.326c-0.777,0-1.557,0.192-2.339,0.576c-0.782,0.383-1.562,0.872-2.338,1.468v12.624h-2.846
				V169.24h2.846v1.877c0.888-0.736,1.773-1.312,2.657-1.725c0.883-0.414,1.824-0.621,2.823-0.621c1.15,0,2.126,0.242,2.929,0.727
				c0.802,0.484,1.4,1.155,1.793,2.014c1.15-0.969,2.2-1.668,3.148-2.097c0.948-0.429,1.962-0.644,3.042-0.644
				c1.856,0,3.227,0.563,4.109,1.688c0.883,1.126,1.325,2.697,1.325,4.715V186.148z"/>
			<path fill="#FFFFFF" d="M427.097,162.596l-10.854,28.154h-2.618l10.808-28.154H427.097z"/>
			<path fill="#FFFFFF" d="M443.459,185.089c-0.948,0.454-1.849,0.808-2.701,1.06c-0.854,0.252-1.759,0.379-2.717,0.379
				c-1.222,0-2.342-0.18-3.361-0.538c-1.019-0.357-1.892-0.9-2.618-1.627c-0.736-0.727-1.307-1.645-1.71-2.755
				c-0.404-1.11-0.605-2.406-0.605-3.891c0-2.765,0.759-4.934,2.277-6.508s3.524-2.361,6.018-2.361c0.969,0,1.919,0.136,2.853,0.408
				s1.789,0.605,2.565,0.999v3.163h-0.15c-0.868-0.676-1.764-1.195-2.688-1.559c-0.923-0.363-1.824-0.545-2.701-0.545
				c-1.615,0-2.89,0.543-3.822,1.627c-0.934,1.085-1.4,2.677-1.4,4.775c0,2.039,0.456,3.605,1.37,4.7
				c0.913,1.096,2.197,1.643,3.853,1.643c0.574,0,1.16-0.075,1.756-0.228c0.595-0.15,1.13-0.348,1.604-0.59
				c0.414-0.212,0.803-0.437,1.166-0.674c0.363-0.236,0.65-0.441,0.863-0.613h0.15V185.089z"/>
			<path fill="#FFFFFF" d="M471.781,186.148h-2.846v-9.627c0-0.727-0.033-1.428-0.098-2.104c-0.066-0.677-0.205-1.217-0.416-1.62
				c-0.232-0.434-0.566-0.762-1-0.983c-0.434-0.223-1.059-0.334-1.877-0.334c-0.797,0-1.594,0.2-2.391,0.599
				c-0.799,0.398-1.596,0.905-2.393,1.521c0.031,0.232,0.055,0.503,0.076,0.811c0.02,0.308,0.029,0.613,0.029,0.916v10.822h-2.846
				v-9.627c0-0.747-0.033-1.455-0.098-2.127c-0.066-0.671-0.205-1.208-0.416-1.611c-0.232-0.435-0.566-0.76-1-0.977
				s-1.06-0.326-1.877-0.326c-0.777,0-1.557,0.192-2.339,0.576c-0.782,0.383-1.562,0.872-2.338,1.468v12.624h-2.846V169.24h2.846
				v1.877c0.888-0.736,1.772-1.312,2.656-1.725c0.883-0.414,1.824-0.621,2.822-0.621c1.15,0,2.127,0.242,2.93,0.727
				c0.801,0.484,1.4,1.155,1.793,2.014c1.15-0.969,2.199-1.668,3.148-2.097s1.963-0.644,3.043-0.644
				c1.855,0,3.227,0.563,4.109,1.688c0.883,1.126,1.324,2.697,1.324,4.715V186.148z"/>
		</g>
		<g enable-background="new    ">
			<path fill="#FFFFFF" d="M484.597,163.146c0.313,0.28,0.569,0.632,0.771,1.055s0.303,0.97,0.303,1.641
				c0,0.664-0.12,1.272-0.361,1.826s-0.579,1.035-1.016,1.445c-0.488,0.456-1.063,0.793-1.724,1.011s-1.385,0.327-2.173,0.327
				c-0.808,0-1.602-0.096-2.383-0.288s-1.423-0.402-1.924-0.63v-2.041h0.146c0.554,0.364,1.204,0.667,1.953,0.908
				s1.472,0.361,2.168,0.361c0.41,0,0.847-0.068,1.309-0.205s0.837-0.339,1.123-0.605c0.3-0.286,0.522-0.603,0.669-0.947
				s0.22-0.781,0.22-1.309c0-0.521-0.083-0.952-0.249-1.294s-0.396-0.61-0.688-0.806c-0.293-0.202-0.647-0.34-1.064-0.415
				s-0.866-0.112-1.348-0.112h-0.879v-1.621h0.684c0.989,0,1.778-0.207,2.368-0.62s0.884-1.018,0.884-1.812
				c0-0.352-0.075-0.659-0.225-0.923s-0.358-0.48-0.625-0.649c-0.28-0.169-0.579-0.286-0.898-0.352s-0.681-0.098-1.084-0.098
				c-0.618,0-1.276,0.11-1.973,0.332s-1.354,0.534-1.973,0.938h-0.098v-2.041c0.462-0.228,1.079-0.438,1.851-0.63
				s1.519-0.288,2.241-0.288c0.71,0,1.335,0.065,1.875,0.195s1.028,0.339,1.465,0.625c0.469,0.313,0.823,0.69,1.064,1.133
				s0.361,0.96,0.361,1.553c0,0.808-0.284,1.512-0.854,2.114s-1.242,0.981-2.017,1.138v0.137c0.313,0.052,0.671,0.161,1.074,0.327
				S484.316,162.899,484.597,163.146z"/>
		</g>
		<g>
			<g enable-background="new    ">
				<path fill="#FFFFFF" d="M578.881,185.982h-12.2v-2.301h4.692v-15.106h-4.692v-2.059c0.636,0,1.317-0.053,2.044-0.159
					c0.727-0.105,1.275-0.26,1.649-0.461c0.464-0.253,0.83-0.573,1.098-0.962c0.267-0.388,0.421-0.91,0.462-1.566h2.346v20.313
					h4.602V185.982z"/>
				<path fill="#FFFFFF" d="M608.383,184.923c-0.949,0.454-1.85,0.808-2.702,1.06s-1.759,0.379-2.718,0.379
					c-1.221,0-2.341-0.18-3.359-0.538c-1.02-0.357-1.893-0.9-2.619-1.627c-0.736-0.727-1.307-1.645-1.711-2.755
					c-0.403-1.11-0.605-2.406-0.605-3.891c0-2.765,0.76-4.934,2.278-6.508s3.524-2.361,6.017-2.361c0.969,0,1.92,0.136,2.854,0.408
					s1.789,0.605,2.566,0.999v3.163h-0.152c-0.867-0.676-1.763-1.195-2.687-1.559c-0.923-0.363-1.823-0.545-2.702-0.545
					c-1.614,0-2.889,0.543-3.821,1.627c-0.934,1.085-1.4,2.677-1.4,4.775c0,2.039,0.456,3.605,1.37,4.7
					c0.913,1.096,2.197,1.643,3.852,1.643c0.576,0,1.16-0.075,1.756-0.228c0.596-0.15,1.131-0.348,1.605-0.59
					c0.413-0.212,0.802-0.437,1.165-0.674c0.363-0.236,0.651-0.441,0.862-0.613h0.152V184.923z"/>
				<path fill="#FFFFFF" d="M636.703,185.982h-2.846v-9.627c0-0.727-0.033-1.428-0.098-2.104c-0.066-0.677-0.205-1.217-0.416-1.62
					c-0.232-0.434-0.566-0.762-1-0.983c-0.434-0.223-1.059-0.334-1.877-0.334c-0.797,0-1.594,0.2-2.391,0.599
					c-0.799,0.398-1.596,0.905-2.393,1.521c0.031,0.232,0.055,0.503,0.076,0.811c0.02,0.308,0.029,0.613,0.029,0.916v10.822h-2.846
					v-9.627c0-0.747-0.033-1.455-0.098-2.127c-0.066-0.671-0.205-1.208-0.416-1.611c-0.232-0.435-0.566-0.76-1-0.977
					s-1.059-0.326-1.877-0.326c-0.777,0-1.557,0.192-2.338,0.576c-0.783,0.383-1.563,0.872-2.338,1.468v12.624h-2.847v-16.908h2.847
					v1.877c0.887-0.736,1.771-1.312,2.656-1.725c0.883-0.414,1.824-0.621,2.822-0.621c1.15,0,2.127,0.242,2.93,0.727
					c0.801,0.484,1.4,1.155,1.793,2.014c1.15-0.969,2.199-1.668,3.148-2.097s1.963-0.644,3.043-0.644
					c1.855,0,3.227,0.563,4.109,1.688c0.883,1.126,1.324,2.697,1.324,4.715V185.982z"/>
			</g>
		</g>
		<g>
			
				<rect x="676.307" y="127.923" fill="none" stroke="#FFFFFF" stroke-width="3" stroke-linejoin="round" stroke-miterlimit="10" width="97.627" height="97.627"/>
			
				<rect x="720.545" y="92.177" fill="none" stroke="#FFFFFF" stroke-width="3" stroke-linejoin="round" stroke-miterlimit="10" width="97.627" height="97.628"/>
			
				<line fill="none" stroke="#FFFFFF" stroke-width="3" stroke-linejoin="round" stroke-miterlimit="10" x1="676.307" y1="127.923" x2="720.545" y2="92.177"/>
			
				<line fill="none" stroke="#FFFFFF" stroke-width="3" stroke-linejoin="round" stroke-miterlimit="10" x1="676.307" y1="225.55" x2="720.545" y2="189.805"/>
			
				<line fill="none" stroke="#FFFFFF" stroke-width="3" stroke-linejoin="round" stroke-miterlimit="10" x1="773.934" y1="127.923" x2="818.172" y2="92.177"/>
			
				<line fill="none" stroke="#FFFFFF" stroke-width="3" stroke-linejoin="round" stroke-miterlimit="10" x1="773.934" y1="225.55" x2="818.172" y2="189.805"/>
		</g>
		<path fill="#FFFFFF" stroke="#FFFFFF" stroke-linejoin="round" stroke-miterlimit="10" d="M657.961,193.576v21.855
			c0,1.568,0.079,2.914,0.236,4.035c0.156,1.121,0.479,2.063,0.972,2.819c0.49,0.759,1.153,1.407,1.99,1.95
			c0.837,0.541,1.835,0.943,2.99,1.207v0.729c-2.675-0.349-4.633-1.234-5.875-2.662c-1.24-1.427-1.861-3.576-1.861-6.451v-23.482
			h0.016v-6.617c0-2.82-0.474-4.881-1.421-6.176s-2.542-2.254-4.785-2.874v-1.2c2.243-0.609,3.838-1.563,4.785-2.857
			c0.948-1.295,1.421-3.354,1.421-6.175v-6.682v-23.484c0-2.873,0.622-5.023,1.864-6.451c1.242-1.426,3.201-2.313,5.875-2.66v0.727
			c-1.158,0.264-2.156,0.666-2.993,1.208c-0.837,0.543-1.5,1.192-1.99,1.95c-0.488,0.759-0.813,1.697-0.971,2.818
			s-0.237,2.468-0.237,4.035v21.857h-0.016v6.996c0,1.518-0.129,2.796-0.387,3.838c-0.262,1.042-0.661,1.919-1.209,2.63
			c-0.549,0.71-1.244,1.287-2.096,1.729c-0.847,0.441-1.96,0.816-3.34,1.121c1.369,0.307,2.448,0.664,3.237,1.074
			c0.79,0.41,1.461,0.941,2.014,1.596c0.554,0.652,0.987,1.547,1.304,2.686c0.315,1.138,0.477,2.47,0.477,3.995V193.576
			L657.961,193.576z"/>
		<line fill="none" stroke="#FFFFFF" stroke-width="3" stroke-miterlimit="10" x1="94.828" y1="128.4" x2="500.334" y2="128.4"/>
	</g>
</g>
</svg>
