<?xml version="1.0" encoding="utf-8"?>
<!-- Generator: Adobe Illustrator 16.0.0, SVG Export Plug-In . SVG Version: 6.00 Build 0)  -->
<!DOCTYPE svg PUBLIC "-//W3C//DTD SVG 1.1//EN" "http://www.w3.org/Graphics/SVG/1.1/DTD/svg11.dtd">
<svg version="1.1" id="Layer_3" xmlns="http://www.w3.org/2000/svg" xmlns:xlink="http://www.w3.org/1999/xlink" x="0px" y="0px"
	 width="862px" height="519px" viewBox="0 0 862 519" enable-background="new 0 0 862 519" xml:space="preserve">
<path fill="#291159" fill-opacity="0.8" stroke="#FFFFFF" stroke-width="3" stroke-miterlimit="10" d="M862,509.745
	c0,5.111-3.885,9.255-8.68,9.255H8.679C3.887,519,0,514.856,0,509.745V9.251C0,4.14,3.885,0,8.679,0h844.644
	C858.117,0,862,4.14,862,9.251V509.745L862,509.745z"/>
<g id="step21White">
	<g enable-background="new    ">
		<path fill="#FFFFFF" d="M127.742,398.055l-8.204,22.539h-3.996l-8.204-22.539h3.209l7.069,19.83l7.069-19.83H127.742z"/>
		<path fill="#FFFFFF" d="M135.919,417.869h-0.088c-0.247-0.06-0.487-0.103-0.719-0.127c-0.232-0.027-0.507-0.041-0.825-0.041
			c-0.512,0-1.006,0.113-1.482,0.34s-0.936,0.52-1.377,0.879v6.998h-1.659v-9.857h1.659v1.455c0.659-0.528,1.24-0.903,1.743-1.125
			c0.503-0.221,1.016-0.33,1.54-0.33c0.289,0,0.497,0.009,0.627,0.021c0.129,0.016,0.323,0.043,0.582,0.084L135.919,417.869
			L135.919,417.869z"/>
		<path fill="#FFFFFF" d="M168.407,408.758h-17.952v-2.422h17.952V408.758z M168.407,415.115h-17.952v-2.422h17.952V415.115z"/>
		<path fill="#FFFFFF" d="M199.423,420.594h-12.2v-2.301h4.692v-15.105h-4.692v-2.059c0.636,0,1.317-0.053,2.044-0.16
			c0.727-0.104,1.276-0.26,1.649-0.461c0.464-0.252,0.83-0.572,1.098-0.961c0.267-0.389,0.421-0.91,0.462-1.565h2.346v20.313h4.602
			L199.423,420.594L199.423,420.594z"/>
		<path fill="#FFFFFF" d="M210.17,420.594h-3.617v-4.313h3.617V420.594z"/>
		<path fill="#FFFFFF" d="M231.663,407.971c0,1.968-0.225,3.754-0.673,5.357c-0.449,1.604-1.128,2.973-2.036,4.102
			c-0.918,1.15-2.068,2.039-3.451,2.664c-1.383,0.627-3.007,0.939-4.874,0.939c-0.524,0-1.02-0.027-1.483-0.084
			c-0.464-0.056-0.878-0.144-1.241-0.265v-2.893h0.151c0.293,0.152,0.706,0.297,1.241,0.432c0.535,0.138,1.13,0.205,1.786,0.205
			c2.23,0,3.979-0.668,5.245-2.006c1.266-1.336,2-3.182,2.202-5.533c-0.938,0.566-1.821,0.97-2.648,1.211
			c-0.828,0.242-1.731,0.363-2.71,0.363c-0.929,0-1.769-0.09-2.521-0.271c-0.752-0.182-1.506-0.535-2.263-1.062
			c-0.888-0.615-1.557-1.396-2.006-2.346c-0.449-0.947-0.673-2.084-0.673-3.406c0-2.301,0.756-4.172,2.27-5.615
			c1.514-1.442,3.361-2.164,5.541-2.164c1.09,0,2.099,0.17,3.027,0.509c0.928,0.338,1.74,0.844,2.437,1.52
			c0.857,0.838,1.519,1.916,1.983,3.232C231.432,404.178,231.663,405.881,231.663,407.971z M228.606,407.318
			c0-1.563-0.162-2.82-0.484-3.769c-0.323-0.949-0.768-1.686-1.332-2.211c-0.475-0.453-0.984-0.779-1.529-0.977
			c-0.545-0.195-1.135-0.295-1.771-0.295c-1.453,0-2.601,0.454-3.443,1.362c-0.842,0.908-1.264,2.185-1.264,3.828
			c0,0.959,0.137,1.742,0.408,2.349c0.273,0.604,0.732,1.135,1.378,1.588c0.454,0.313,0.954,0.522,1.499,0.629
			c0.545,0.105,1.15,0.158,1.816,0.158c0.787,0,1.584-0.105,2.391-0.316c0.808-0.213,1.564-0.521,2.271-0.924
			c0.01-0.213,0.022-0.422,0.037-0.629C228.599,407.908,228.606,407.643,228.606,407.318z"/>
		<path fill="#FFFFFF" d="M251.568,414.313c0,1.947-0.76,3.566-2.278,4.859c-1.519,1.291-3.429,1.938-5.729,1.938
			c-2.441,0-4.387-0.632-5.835-1.894c-1.448-1.262-2.172-2.877-2.172-4.844c0-1.252,0.363-2.385,1.09-3.398
			c0.727-1.013,1.751-1.817,3.073-2.414v-0.092c-1.211-0.645-2.107-1.352-2.688-2.119c-0.58-0.766-0.87-1.725-0.87-2.875
			c0-1.694,0.696-3.106,2.089-4.237c1.393-1.132,3.164-1.695,5.313-1.695c2.251,0,4.047,0.539,5.389,1.619
			c1.343,1.08,2.014,2.453,2.014,4.117c0,1.02-0.318,2.021-0.953,3.006c-0.637,0.981-1.569,1.752-2.801,2.307v0.092
			c1.413,0.605,2.492,1.353,3.239,2.24C251.196,411.811,251.568,412.939,251.568,414.313z M248.45,414.6
			c0-0.928-0.204-1.672-0.613-2.231c-0.408-0.562-1.208-1.123-2.399-1.688c-0.474-0.223-0.993-0.43-1.559-0.621
			c-0.566-0.19-1.316-0.459-2.256-0.803c-0.908,0.496-1.637,1.166-2.187,2.014c-0.551,0.849-0.825,1.808-0.825,2.878
			c0,1.36,0.469,2.485,1.408,3.375c0.938,0.889,2.129,1.332,3.572,1.332c1.473,0,2.65-0.38,3.534-1.136
			C248.009,416.961,248.45,415.922,248.45,414.6z M247.98,403.309c0-1.08-0.416-1.938-1.248-2.582
			c-0.833-0.641-1.895-0.961-3.187-0.961c-1.271,0-2.313,0.304-3.126,0.908c-0.813,0.605-1.219,1.424-1.219,2.453
			c0,0.727,0.205,1.354,0.613,1.885c0.409,0.529,1.027,1,1.854,1.414c0.373,0.183,0.91,0.42,1.612,0.711
			c0.701,0.293,1.385,0.535,2.051,0.728c0.999-0.666,1.69-1.355,2.074-2.072C247.789,405.074,247.98,404.246,247.98,403.309z"/>
		<path fill="#FFFFFF" d="M281.751,420.594h-3.588l-4.798-6.494l-4.829,6.494h-3.314l6.6-8.432l-6.539-8.478h3.588l4.768,6.39
			l4.783-6.39h3.33l-6.645,8.326L281.751,420.594z"/>
		<path fill="#FFFFFF" d="M309.966,420.594h-12.2v-2.301h4.692v-15.105h-4.692v-2.059c0.636,0,1.317-0.053,2.044-0.16
			c0.727-0.104,1.276-0.26,1.649-0.461c0.464-0.252,0.83-0.572,1.098-0.961c0.267-0.389,0.421-0.91,0.462-1.565h2.346v20.313h4.602
			L309.966,420.594L309.966,420.594z"/>
		<path fill="#FFFFFF" d="M330.93,409.316c0,4.047-0.633,7.018-1.898,8.907c-1.268,1.894-3.231,2.839-5.896,2.839
			c-2.704,0-4.68-0.957-5.926-2.875c-1.247-1.919-1.869-4.863-1.869-8.841c0-4.006,0.63-6.965,1.893-8.877
			c1.262-1.912,3.229-2.869,5.902-2.869c2.704,0,4.681,0.972,5.926,2.914C330.307,402.458,330.93,405.393,330.93,409.316z
			 M326.949,416.189c0.354-0.818,0.593-1.779,0.719-2.884s0.189-2.436,0.189-3.989c0-1.533-0.063-2.865-0.189-3.996
			c-0.126-1.129-0.371-2.088-0.734-2.875c-0.353-0.777-0.835-1.363-1.444-1.756c-0.61-0.396-1.396-0.591-2.354-0.591
			c-0.948,0-1.732,0.195-2.354,0.591c-0.621,0.393-1.113,0.987-1.478,1.784c-0.343,0.748-0.577,1.722-0.703,2.923
			c-0.127,1.2-0.188,2.518-0.188,3.95c0,1.574,0.056,2.892,0.166,3.951c0.111,1.06,0.349,2.008,0.712,2.846
			c0.333,0.787,0.805,1.388,1.415,1.802s1.421,0.621,2.43,0.621c0.948,0,1.735-0.197,2.361-0.593
			C326.122,417.582,326.606,416.986,326.949,416.189z"/>
		<path fill="#FFFFFF" d="M342.134,398.943c0.282,0.254,0.516,0.569,0.697,0.953c0.182,0.383,0.272,0.877,0.272,1.481
			c0,0.6-0.108,1.15-0.325,1.65c-0.219,0.5-0.524,0.936-0.918,1.307c-0.441,0.412-0.961,0.717-1.559,0.912
			c-0.598,0.197-1.252,0.297-1.964,0.297c-0.729,0-1.447-0.088-2.153-0.26c-0.706-0.174-1.284-0.363-1.737-0.57v-1.844h0.133
			c0.5,0.33,1.088,0.604,1.765,0.82c0.678,0.216,1.329,0.325,1.959,0.325c0.371,0,0.766-0.061,1.184-0.186
			c0.418-0.123,0.756-0.305,1.015-0.547c0.271-0.258,0.473-0.543,0.604-0.855c0.133-0.313,0.197-0.707,0.197-1.184
			c0-0.471-0.073-0.859-0.225-1.168c-0.151-0.31-0.357-0.553-0.622-0.729c-0.265-0.182-0.586-0.307-0.962-0.375
			c-0.377-0.067-0.782-0.102-1.218-0.102h-0.794v-1.465h0.616c0.896,0,1.607-0.188,2.142-0.562c0.532-0.373,0.798-0.92,0.798-1.637
			c0-0.318-0.067-0.596-0.202-0.834c-0.136-0.238-0.324-0.434-0.564-0.586c-0.253-0.154-0.523-0.26-0.813-0.318
			c-0.289-0.058-0.615-0.088-0.979-0.088c-0.561,0-1.153,0.1-1.783,0.299c-0.629,0.201-1.225,0.482-1.782,0.848h-0.088v-1.844
			c0.417-0.207,0.975-0.396,1.672-0.57c0.697-0.174,1.372-0.26,2.025-0.26c0.642,0,1.206,0.06,1.693,0.176
			c0.488,0.119,0.931,0.308,1.323,0.566c0.424,0.281,0.744,0.623,0.962,1.023s0.327,0.867,0.327,1.402
			c0,0.729-0.258,1.366-0.772,1.909c-0.515,0.545-1.122,0.888-1.821,1.029v0.123c0.281,0.047,0.604,0.145,0.971,0.295
			S341.881,398.721,342.134,398.943z"/>
		<path fill="#FFFFFF" d="M354.674,401.098c0,0.611-0.11,1.197-0.335,1.756c-0.224,0.56-0.529,1.029-0.918,1.412
			c-0.424,0.412-0.928,0.728-1.514,0.947c-0.585,0.221-1.264,0.332-2.034,0.332c-0.718,0-1.409-0.076-2.073-0.225
			c-0.665-0.15-1.227-0.332-1.686-0.543v-1.863h0.123c0.481,0.307,1.048,0.566,1.693,0.781c0.647,0.215,1.283,0.321,1.906,0.321
			c0.418,0,0.822-0.059,1.214-0.176s0.739-0.324,1.046-0.617c0.26-0.254,0.454-0.557,0.587-0.909
			c0.133-0.354,0.198-0.763,0.198-1.228c0-0.453-0.078-0.836-0.233-1.146c-0.155-0.313-0.372-0.563-0.648-0.75
			c-0.306-0.226-0.678-0.382-1.116-0.474c-0.438-0.092-0.928-0.137-1.47-0.137c-0.519,0-1.016,0.035-1.495,0.104
			c-0.479,0.07-0.893,0.142-1.24,0.214v-6.771h7.907v1.545h-6.204v3.494c0.253-0.023,0.512-0.041,0.776-0.053
			c0.266-0.012,0.494-0.019,0.688-0.019c0.712,0,1.336,0.062,1.871,0.181c0.535,0.121,1.026,0.334,1.475,0.641
			c0.471,0.324,0.835,0.742,1.095,1.254C354.545,399.686,354.674,400.326,354.674,401.098z"/>
		<path fill="#FFFFFF" d="M383.805,412.436h-12.457c0,1.039,0.156,1.945,0.47,2.718c0.313,0.771,0.741,1.405,1.286,1.899
			c0.524,0.484,1.147,0.849,1.869,1.09c0.722,0.242,1.517,0.363,2.385,0.363c1.149,0,2.309-0.229,3.474-0.688
			c1.166-0.459,1.996-0.91,2.49-1.355h0.15v3.104c-0.959,0.403-1.938,0.741-2.937,1.014c-0.999,0.273-2.049,0.41-3.148,0.41
			c-2.806,0-4.995-0.76-6.568-2.279c-1.574-1.518-2.361-3.676-2.361-6.471c0-2.765,0.754-4.959,2.263-6.584s3.494-2.438,5.957-2.438
			c2.28,0,4.038,0.666,5.274,1.998c1.235,1.332,1.854,3.226,1.854,5.676V412.436L383.805,412.436z M381.035,410.256
			c-0.011-1.494-0.387-2.647-1.128-3.467c-0.742-0.816-1.87-1.227-3.384-1.227c-1.523,0-2.737,0.448-3.641,1.348
			c-0.902,0.897-1.415,2.014-1.536,3.346H381.035z"/>
		<path fill="#FFFFFF" d="M398.669,406.789h-0.151c-0.424-0.1-0.835-0.174-1.232-0.219c-0.399-0.045-0.87-0.068-1.415-0.068
			c-0.879,0-1.728,0.195-2.543,0.582c-0.818,0.389-1.605,0.891-2.361,1.506v12.004h-2.846v-16.908h2.846v2.498
			c1.13-0.907,2.126-1.551,2.989-1.93c0.862-0.379,1.743-0.568,2.642-0.568c0.494,0,0.854,0.015,1.074,0.039
			c0.221,0.025,0.555,0.072,0.999,0.144L398.669,406.789L398.669,406.789z"/>
		<path fill="#FFFFFF" d="M415.063,418.672c0,2.865-0.65,4.971-1.952,6.313c-1.303,1.342-3.306,2.012-6.01,2.012
			c-0.897,0-1.773-0.063-2.627-0.188c-0.853-0.127-1.691-0.307-2.52-0.539v-2.905h0.149c0.466,0.182,1.201,0.405,2.212,0.674
			c1.009,0.268,2.018,0.402,3.026,0.402c0.969,0,1.771-0.117,2.406-0.351c0.636-0.229,1.13-0.555,1.483-0.969
			c0.354-0.394,0.604-0.867,0.757-1.422c0.151-0.556,0.227-1.176,0.227-1.861v-1.545c-0.856,0.688-1.678,1.199-2.459,1.537
			c-0.782,0.338-1.779,0.506-2.99,0.506c-2.018,0-3.619-0.729-4.806-2.186c-1.186-1.459-1.778-3.517-1.778-6.17
			c0-1.453,0.204-2.705,0.613-3.761c0.408-1.055,0.966-1.967,1.672-2.731c0.656-0.718,1.453-1.273,2.394-1.674
			c0.938-0.398,1.871-0.599,2.8-0.599c0.979,0,1.799,0.101,2.46,0.295c0.66,0.197,1.358,0.498,2.096,0.9l0.183-0.728h2.663
			L415.063,418.672L415.063,418.672z M412.216,415.947v-9.22c-0.756-0.342-1.46-0.588-2.11-0.733s-1.3-0.219-1.945-0.219
			c-1.563,0-2.795,0.524-3.693,1.573c-0.896,1.05-1.347,2.572-1.347,4.57c0,1.898,0.333,3.336,0.999,4.314
			c0.666,0.978,1.771,1.469,3.313,1.469c0.828,0,1.658-0.158,2.49-0.478C410.756,416.908,411.521,416.482,412.216,415.947z"/>
		<path fill="#FFFFFF" d="M432.741,415.721c0,1.543-0.639,2.812-1.914,3.799c-1.277,0.988-3.021,1.482-5.23,1.482
			c-1.251,0-2.397-0.148-3.442-0.445c-1.044-0.297-1.92-0.623-2.626-0.977v-3.193h0.15c0.898,0.677,1.897,1.213,2.997,1.611
			c1.101,0.398,2.154,0.598,3.163,0.598c1.252,0,2.23-0.201,2.938-0.604c0.706-0.402,1.059-1.039,1.059-1.906
			c0-0.666-0.191-1.172-0.574-1.514c-0.384-0.345-1.121-0.638-2.211-0.879c-0.402-0.091-0.931-0.197-1.581-0.318
			s-1.244-0.252-1.777-0.393c-1.484-0.396-2.536-0.972-3.156-1.732c-0.621-0.762-0.933-1.699-0.933-2.809
			c0-0.697,0.146-1.353,0.433-1.97c0.288-0.614,0.725-1.164,1.31-1.647c0.565-0.476,1.284-0.851,2.157-1.129
			c0.872-0.277,1.849-0.416,2.929-0.416c1.01,0,2.03,0.125,3.065,0.371c1.034,0.248,1.895,0.547,2.58,0.899v3.043h-0.15
			c-0.727-0.535-1.609-0.985-2.648-1.354c-1.039-0.367-2.06-0.554-3.059-0.554c-1.039,0-1.917,0.201-2.634,0.601
			c-0.717,0.398-1.075,0.99-1.075,1.776c0,0.697,0.218,1.222,0.651,1.574c0.424,0.354,1.109,0.642,2.059,0.863
			c0.524,0.121,1.112,0.242,1.765,0.363c0.649,0.121,1.192,0.231,1.627,0.332c1.321,0.303,2.341,0.823,3.058,1.561
			C432.384,413.5,432.741,414.488,432.741,415.721z"/>
	</g>
	<g enable-background="new    ">
		<path fill="#FFFFFF" d="M135.375,255.163h-14.259v-22.539h2.997v19.875h11.262V255.163z"/>
		<path fill="#FFFFFF" d="M167.904,243.326h-17.952v-2.422h17.952V243.326z M167.904,249.683h-17.952v-2.422h17.952V249.683z"/>
		<path fill="#FFFFFF" d="M209.983,255.163h-2.846v-9.627c0-0.727-0.032-1.428-0.098-2.104c-0.066-0.677-0.205-1.217-0.416-1.62
			c-0.232-0.434-0.565-0.762-1-0.983c-0.434-0.223-1.059-0.334-1.877-0.334c-0.797,0-1.594,0.2-2.391,0.599
			c-0.798,0.398-1.595,0.905-2.393,1.521c0.031,0.232,0.056,0.503,0.076,0.811c0.02,0.308,0.03,0.613,0.03,0.916v10.822h-2.846
			v-9.627c0-0.747-0.033-1.455-0.099-2.127c-0.065-0.671-0.204-1.208-0.416-1.611c-0.232-0.435-0.565-0.76-0.999-0.977
			c-0.434-0.217-1.06-0.326-1.877-0.326c-0.777,0-1.557,0.192-2.339,0.576c-0.782,0.383-1.562,0.872-2.338,1.468v12.624h-2.846
			v-16.908h2.846v1.877c0.888-0.736,1.772-1.312,2.656-1.725c0.883-0.414,1.824-0.621,2.822-0.621c1.15,0,2.127,0.242,2.93,0.727
			c0.802,0.484,1.4,1.155,1.793,2.014c1.15-0.969,2.2-1.668,3.148-2.097c0.949-0.429,1.963-0.644,3.043-0.644
			c1.856,0,3.227,0.563,4.109,1.688c0.883,1.126,1.324,2.697,1.324,4.715v10.973H209.983z"/>
		<path fill="#FFFFFF" d="M226.014,241.358h-0.151c-0.424-0.101-0.835-0.174-1.233-0.22c-0.399-0.045-0.87-0.067-1.415-0.067
			c-0.879,0-1.727,0.194-2.543,0.582c-0.818,0.389-1.605,0.891-2.361,1.506v12.004h-2.846v-16.908h2.846v2.498
			c1.13-0.908,2.126-1.552,2.989-1.93c0.862-0.379,1.743-0.568,2.642-0.568c0.494,0,0.853,0.014,1.074,0.038
			c0.222,0.025,0.555,0.073,0.999,0.144L226.014,241.358L226.014,241.358z"/>
		<path fill="#FFFFFF" d="M241.195,254.103c-0.948,0.454-1.849,0.808-2.701,1.06c-0.854,0.252-1.759,0.379-2.717,0.379
			c-1.222,0-2.342-0.18-3.361-0.538c-1.019-0.357-1.892-0.9-2.618-1.627c-0.736-0.727-1.307-1.645-1.71-2.755
			c-0.404-1.11-0.605-2.406-0.605-3.891c0-2.765,0.759-4.934,2.277-6.508c1.518-1.574,3.524-2.361,6.018-2.361
			c0.969,0,1.919,0.136,2.853,0.408c0.934,0.272,1.789,0.605,2.565,0.999v3.163h-0.15c-0.868-0.676-1.764-1.195-2.688-1.559
			c-0.923-0.363-1.824-0.545-2.701-0.545c-1.615,0-2.89,0.543-3.822,1.627c-0.934,1.085-1.4,2.677-1.4,4.775
			c0,2.039,0.456,3.605,1.37,4.7c0.913,1.096,2.197,1.643,3.853,1.643c0.574,0,1.16-0.075,1.756-0.228
			c0.595-0.15,1.13-0.348,1.604-0.59c0.414-0.212,0.803-0.437,1.166-0.674c0.363-0.236,0.65-0.441,0.863-0.613h0.15v3.135H241.195z"
			/>
		<path fill="#FFFFFF" d="M274.603,243.326h-17.951v-2.422h17.951V243.326z M274.603,249.683h-17.951v-2.422h17.951V249.683z"/>
		<path fill="#FFFFFF" d="M305.149,255.163h-2.831v-1.801c-0.252,0.171-0.593,0.411-1.021,0.719
			c-0.43,0.308-0.846,0.553-1.249,0.734c-0.475,0.231-1.02,0.426-1.635,0.582c-0.615,0.156-1.337,0.234-2.164,0.234
			c-1.524,0-2.816-0.504-3.875-1.514c-1.061-1.009-1.59-2.295-1.59-3.859c0-1.281,0.274-2.318,0.825-3.11
			c0.55-0.792,1.334-1.415,2.354-1.87c1.029-0.453,2.266-0.762,3.708-0.923c1.443-0.161,2.992-0.282,4.647-0.363v-0.438
			c0-0.646-0.113-1.182-0.341-1.605c-0.227-0.424-0.553-0.756-0.977-0.998c-0.403-0.232-0.888-0.389-1.453-0.47
			c-0.564-0.081-1.155-0.121-1.771-0.121c-0.747,0-1.579,0.099-2.497,0.295c-0.919,0.197-1.867,0.482-2.846,0.855h-0.152v-2.892
			c0.556-0.15,1.357-0.317,2.407-0.499c1.05-0.182,2.084-0.272,3.103-0.272c1.191,0,2.228,0.099,3.111,0.295
			c0.883,0.197,1.647,0.532,2.293,1.007c0.636,0.464,1.12,1.064,1.453,1.802c0.333,0.736,0.5,1.649,0.5,2.739L305.149,255.163
			L305.149,255.163z M302.318,251v-4.708c-0.868,0.051-1.89,0.126-3.065,0.228c-1.176,0.101-2.106,0.247-2.793,0.438
			c-0.816,0.232-1.478,0.593-1.982,1.082c-0.505,0.49-0.757,1.163-0.757,2.021c0,0.969,0.293,1.698,0.878,2.188
			c0.585,0.49,1.479,0.734,2.68,0.734c0.998,0,1.912-0.194,2.739-0.583C300.845,252.012,301.612,251.545,302.318,251z"/>
		<path fill="#FFFFFF" d="M324.765,255.163h-2.846v-9.627c0-0.777-0.045-1.506-0.136-2.188c-0.091-0.681-0.257-1.213-0.499-1.597
			c-0.253-0.424-0.616-0.739-1.09-0.946c-0.476-0.206-1.09-0.311-1.849-0.311c-0.775,0-1.589,0.192-2.437,0.576
			c-0.849,0.383-1.66,0.872-2.438,1.468v12.624h-2.846v-16.908h2.846v1.877c0.889-0.736,1.807-1.312,2.754-1.725
			c0.949-0.414,1.924-0.621,2.923-0.621c1.825,0,3.219,0.55,4.178,1.65s1.438,2.684,1.438,4.752L324.765,255.163L324.765,255.163z"
			/>
		<path fill="#FFFFFF" d="M343.958,253.241c0,2.865-0.65,4.97-1.952,6.312c-1.302,1.341-3.305,2.013-6.009,2.013
			c-0.898,0-1.774-0.063-2.627-0.188c-0.854-0.127-1.692-0.306-2.521-0.538v-2.906H331c0.465,0.182,1.201,0.406,2.211,0.674
			c1.009,0.268,2.018,0.401,3.027,0.401c0.969,0,1.771-0.116,2.405-0.349c0.637-0.231,1.131-0.555,1.483-0.969
			c0.354-0.393,0.605-0.867,0.757-1.422c0.151-0.556,0.228-1.176,0.228-1.862v-1.544c-0.857,0.687-1.679,1.198-2.459,1.536
			c-0.782,0.339-1.779,0.507-2.99,0.507c-2.019,0-3.62-0.729-4.806-2.187c-1.187-1.458-1.778-3.515-1.778-6.169
			c0-1.453,0.204-2.706,0.613-3.761c0.407-1.055,0.966-1.966,1.672-2.732c0.655-0.717,1.453-1.273,2.393-1.673
			c0.938-0.398,1.871-0.598,2.8-0.598c0.979,0,1.8,0.099,2.46,0.295c0.66,0.197,1.359,0.497,2.097,0.9l0.182-0.727h2.664V253.241
			L343.958,253.241z M341.112,250.516v-9.219c-0.756-0.343-1.46-0.588-2.111-0.734c-0.65-0.146-1.299-0.219-1.945-0.219
			c-1.563,0-2.795,0.524-3.692,1.574c-0.897,1.049-1.348,2.572-1.348,4.57c0,1.897,0.333,3.336,0.999,4.314s1.771,1.469,3.314,1.469
			c0.828,0,1.658-0.159,2.49-0.478C339.652,251.477,340.417,251.05,341.112,250.516z"/>
		<path fill="#FFFFFF" d="M363.575,255.163h-2.847v-1.877c-0.957,0.757-1.877,1.337-2.754,1.74
			c-0.879,0.404-1.848,0.605-2.905,0.605c-1.776,0-3.159-0.542-4.148-1.627c-0.988-1.084-1.481-2.677-1.481-4.775v-10.975h2.846
			v9.627c0,0.858,0.04,1.593,0.121,2.203c0.08,0.61,0.252,1.133,0.514,1.566c0.273,0.444,0.626,0.767,1.062,0.969
			c0.434,0.202,1.063,0.303,1.892,0.303c0.736,0,1.541-0.191,2.414-0.575c0.873-0.384,1.688-0.873,2.444-1.468v-12.625h2.846v16.909
			H363.575z"/>
		<path fill="#FFFFFF" d="M372.052,255.163h-2.846V231.61h2.846V255.163z"/>
		<path fill="#FFFFFF" d="M390.823,255.163h-2.831v-1.801c-0.252,0.171-0.593,0.411-1.021,0.719
			c-0.43,0.308-0.846,0.553-1.249,0.734c-0.475,0.231-1.02,0.426-1.635,0.582c-0.615,0.156-1.337,0.234-2.164,0.234
			c-1.523,0-2.815-0.504-3.875-1.514c-1.061-1.009-1.59-2.295-1.59-3.859c0-1.281,0.274-2.318,0.825-3.11
			c0.55-0.792,1.334-1.415,2.354-1.87c1.029-0.453,2.267-0.762,3.708-0.923c1.443-0.161,2.992-0.282,4.647-0.363v-0.438
			c0-0.646-0.113-1.182-0.341-1.605c-0.228-0.424-0.554-0.756-0.978-0.998c-0.402-0.232-0.888-0.389-1.453-0.47
			c-0.563-0.081-1.154-0.121-1.771-0.121c-0.747,0-1.579,0.099-2.497,0.295c-0.919,0.197-1.867,0.482-2.846,0.855h-0.152v-2.892
			c0.556-0.15,1.357-0.317,2.407-0.499c1.05-0.182,2.084-0.272,3.103-0.272c1.191,0,2.229,0.099,3.111,0.295
			c0.883,0.197,1.646,0.532,2.293,1.007c0.636,0.464,1.12,1.064,1.453,1.802c0.333,0.736,0.5,1.649,0.5,2.739L390.823,255.163
			L390.823,255.163z M387.992,251v-4.708c-0.868,0.051-1.891,0.126-3.065,0.228c-1.176,0.101-2.105,0.247-2.793,0.438
			c-0.815,0.232-1.478,0.593-1.981,1.082c-0.505,0.49-0.758,1.163-0.758,2.021c0,0.969,0.294,1.698,0.879,2.188
			c0.585,0.49,1.479,0.734,2.68,0.734c0.998,0,1.912-0.194,2.739-0.583C386.519,252.012,387.286,251.545,387.992,251z"/>
		<path fill="#FFFFFF" d="M406.852,241.358H406.7c-0.424-0.101-0.835-0.174-1.233-0.22c-0.398-0.045-0.87-0.067-1.415-0.067
			c-0.879,0-1.727,0.194-2.543,0.582c-0.817,0.389-1.604,0.891-2.36,1.506v12.004h-2.847v-16.908h2.847v2.498
			c1.13-0.908,2.126-1.552,2.988-1.93c0.862-0.379,1.743-0.568,2.643-0.568c0.494,0,0.853,0.014,1.074,0.038
			c0.222,0.025,0.555,0.073,0.998,0.144V241.358L406.852,241.358z"/>
		<path fill="#FFFFFF" d="M445.103,255.163h-2.846v-9.627c0-0.727-0.032-1.428-0.098-2.104c-0.066-0.677-0.205-1.217-0.416-1.62
			c-0.232-0.434-0.565-0.762-1-0.983c-0.435-0.223-1.06-0.334-1.877-0.334c-0.797,0-1.594,0.2-2.392,0.599
			c-0.798,0.398-1.595,0.905-2.393,1.521c0.031,0.232,0.056,0.503,0.076,0.811c0.02,0.308,0.029,0.613,0.029,0.916v10.822h-2.846
			v-9.627c0-0.747-0.033-1.455-0.099-2.127c-0.065-0.671-0.204-1.208-0.416-1.611c-0.232-0.435-0.565-0.76-0.999-0.977
			c-0.435-0.217-1.061-0.326-1.877-0.326c-0.777,0-1.558,0.192-2.339,0.576c-0.782,0.383-1.563,0.872-2.338,1.468v12.624h-2.847
			v-16.908h2.847v1.877c0.888-0.736,1.771-1.312,2.655-1.725c0.883-0.414,1.824-0.621,2.822-0.621c1.15,0,2.127,0.242,2.93,0.727
			c0.803,0.484,1.4,1.155,1.793,2.014c1.15-0.969,2.2-1.668,3.148-2.097c0.949-0.429,1.963-0.644,3.043-0.644
			c1.855,0,3.227,0.563,4.109,1.688c0.883,1.126,1.323,2.697,1.323,4.715v10.973H445.103z"/>
		<path fill="#FFFFFF" d="M464.993,246.716c0,2.755-0.707,4.93-2.119,6.524c-1.413,1.594-3.306,2.391-5.677,2.391
			c-2.393,0-4.291-0.797-5.699-2.391c-1.407-1.595-2.111-3.77-2.111-6.524c0-2.754,0.704-4.932,2.111-6.531
			c1.408-1.6,3.308-2.399,5.699-2.399c2.371,0,4.264,0.8,5.677,2.399C464.286,241.785,464.993,243.961,464.993,246.716z
			 M462.056,246.716c0-2.189-0.429-3.816-1.286-4.882c-0.856-1.064-2.049-1.597-3.571-1.597c-1.544,0-2.742,0.532-3.596,1.597
			s-1.278,2.692-1.278,4.882c0,2.119,0.429,3.727,1.287,4.821c0.856,1.095,2.053,1.643,3.587,1.643c1.514,0,2.702-0.543,3.563-1.628
			C461.625,250.468,462.056,248.856,462.056,246.716z"/>
		<path fill="#FFFFFF" d="M494.069,255.163h-2.847v-9.627c0-0.727-0.031-1.428-0.098-2.104c-0.066-0.677-0.205-1.217-0.416-1.62
			c-0.232-0.434-0.565-0.762-1-0.983c-0.434-0.223-1.059-0.334-1.877-0.334c-0.797,0-1.594,0.2-2.391,0.599
			c-0.799,0.398-1.596,0.905-2.394,1.521c0.031,0.232,0.056,0.503,0.076,0.811c0.02,0.308,0.03,0.613,0.03,0.916v10.822h-2.847
			v-9.627c0-0.747-0.032-1.455-0.099-2.127c-0.065-0.671-0.204-1.208-0.416-1.611c-0.232-0.435-0.565-0.76-0.999-0.977
			c-0.434-0.217-1.06-0.326-1.877-0.326c-0.777,0-1.557,0.192-2.339,0.576c-0.782,0.383-1.563,0.872-2.338,1.468v12.624h-2.847
			v-16.908h2.847v1.877c0.888-0.736,1.771-1.312,2.656-1.725c0.883-0.414,1.823-0.621,2.821-0.621c1.15,0,2.127,0.242,2.931,0.727
			c0.802,0.484,1.399,1.155,1.793,2.014c1.149-0.969,2.199-1.668,3.147-2.097c0.949-0.429,1.963-0.644,3.043-0.644
			c1.856,0,3.228,0.563,4.109,1.688c0.883,1.126,1.324,2.697,1.324,4.715v10.973H494.069z"/>
		<path fill="#FFFFFF" d="M513.702,247.004h-12.457c0,1.039,0.156,1.944,0.469,2.717c0.313,0.771,0.742,1.405,1.287,1.899
			c0.524,0.484,1.147,0.848,1.869,1.09c0.721,0.242,1.516,0.363,2.384,0.363c1.15,0,2.309-0.229,3.474-0.688
			c1.166-0.459,1.996-0.911,2.49-1.355h0.151v3.104c-0.959,0.403-1.938,0.742-2.938,1.014c-0.999,0.273-2.049,0.409-3.147,0.409
			c-2.807,0-4.995-0.759-6.569-2.278s-2.361-3.676-2.361-6.471c0-2.765,0.755-4.96,2.264-6.584c1.509-1.625,3.494-2.438,5.957-2.438
			c2.279,0,4.038,0.666,5.273,1.998c1.236,1.332,1.854,3.225,1.854,5.676V247.004L513.702,247.004z M510.933,244.825
			c-0.011-1.494-0.387-2.649-1.128-3.467c-0.741-0.817-1.87-1.227-3.384-1.227c-1.522,0-2.737,0.449-3.64,1.348
			c-0.903,0.898-1.415,2.014-1.536,3.346H510.933z"/>
		<path fill="#FFFFFF" d="M532.153,255.163h-2.847v-9.627c0-0.777-0.045-1.506-0.136-2.188c-0.091-0.681-0.257-1.213-0.499-1.597
			c-0.253-0.424-0.616-0.739-1.09-0.946c-0.475-0.206-1.09-0.311-1.848-0.311c-0.776,0-1.59,0.192-2.438,0.576
			c-0.848,0.383-1.66,0.872-2.437,1.468v12.624h-2.847v-16.908h2.847v1.877c0.888-0.736,1.806-1.312,2.754-1.725
			c0.948-0.414,1.923-0.621,2.922-0.621c1.826,0,3.219,0.55,4.178,1.65s1.438,2.684,1.438,4.752L532.153,255.163L532.153,255.163z"
			/>
		<path fill="#FFFFFF" d="M546.413,255.011c-0.535,0.142-1.118,0.257-1.749,0.349c-0.631,0.09-1.193,0.136-1.688,0.136
			c-1.726,0-3.036-0.464-3.936-1.393s-1.347-2.417-1.347-4.466v-8.99h-1.923v-2.393h1.923v-4.858h2.846v4.858h5.873v2.393h-5.873
			v7.704c0,0.888,0.02,1.582,0.061,2.081c0.04,0.5,0.183,0.967,0.425,1.4c0.222,0.403,0.525,0.699,0.915,0.886
			c0.389,0.187,0.98,0.28,1.777,0.28c0.465,0,0.949-0.068,1.453-0.205c0.505-0.136,0.868-0.25,1.09-0.34h0.152L546.413,255.011
			L546.413,255.011z"/>
		<path fill="#FFFFFF" d="M563.864,255.163h-2.847v-1.877c-0.958,0.757-1.877,1.337-2.754,1.74
			c-0.879,0.404-1.848,0.605-2.905,0.605c-1.776,0-3.159-0.542-4.148-1.627c-0.988-1.084-1.482-2.677-1.482-4.775v-10.975h2.847
			v9.627c0,0.858,0.04,1.593,0.121,2.203c0.08,0.61,0.252,1.133,0.514,1.566c0.273,0.444,0.626,0.767,1.061,0.969
			c0.435,0.202,1.064,0.303,1.893,0.303c0.736,0,1.541-0.191,2.414-0.575c0.873-0.384,1.688-0.873,2.443-1.468v-12.625h2.847v16.909
			H563.864z"/>
		<path fill="#FFFFFF" d="M594.138,255.163h-2.846v-9.627c0-0.727-0.032-1.428-0.098-2.104c-0.066-0.677-0.205-1.217-0.416-1.62
			c-0.232-0.434-0.565-0.762-1-0.983c-0.435-0.223-1.06-0.334-1.877-0.334c-0.798,0-1.595,0.2-2.392,0.599
			c-0.798,0.398-1.595,0.905-2.393,1.521c0.031,0.232,0.056,0.503,0.076,0.811c0.02,0.308,0.029,0.613,0.029,0.916v10.822h-2.846
			v-9.627c0-0.747-0.033-1.455-0.099-2.127c-0.065-0.671-0.204-1.208-0.416-1.611c-0.232-0.435-0.565-0.76-0.999-0.977
			c-0.435-0.217-1.061-0.326-1.877-0.326c-0.777,0-1.558,0.192-2.34,0.576c-0.781,0.383-1.562,0.872-2.338,1.468v12.624h-2.846
			v-16.908h2.846v1.877c0.889-0.736,1.772-1.312,2.656-1.725c0.883-0.414,1.824-0.621,2.822-0.621c1.149,0,2.127,0.242,2.93,0.727
			c0.802,0.484,1.4,1.155,1.793,2.014c1.15-0.969,2.2-1.668,3.148-2.097c0.949-0.429,1.963-0.644,3.043-0.644
			c1.855,0,3.227,0.563,4.108,1.688c0.884,1.126,1.324,2.697,1.324,4.715v10.973H594.138z"/>
	</g>
	<g>
		<g enable-background="new    ">
			<path fill="#FFFFFF" d="M124.415,88.817c-0.555,0.242-1.057,0.469-1.506,0.682c-0.449,0.211-1.037,0.434-1.764,0.666
				c-0.616,0.191-1.284,0.355-2.006,0.491c-0.721,0.137-1.516,0.204-2.384,0.204c-1.635,0-3.121-0.229-4.458-0.688
				s-2.5-1.178-3.489-2.157c-0.969-0.958-1.726-2.177-2.271-3.655s-0.817-3.196-0.817-5.153c0-1.857,0.262-3.518,0.787-4.98
				c0.524-1.463,1.281-2.699,2.271-3.709c0.958-0.979,2.117-1.725,3.474-2.24c1.357-0.514,2.863-0.771,4.518-0.771
				c1.211,0,2.419,0.146,3.625,0.439c1.206,0.292,2.545,0.807,4.019,1.543v3.558h-0.227c-1.241-1.039-2.473-1.796-3.693-2.271
				c-1.221-0.475-2.528-0.711-3.92-0.711c-1.141,0-2.167,0.184-3.08,0.552c-0.914,0.369-1.729,0.941-2.445,1.718
				c-0.696,0.758-1.239,1.714-1.627,2.869c-0.388,1.155-0.583,2.49-0.583,4.004c0,1.584,0.214,2.946,0.643,4.086
				c0.429,1.141,0.981,2.069,1.658,2.785c0.706,0.747,1.531,1.3,2.475,1.658c0.943,0.358,1.939,0.537,2.989,0.537
				c1.443,0,2.795-0.247,4.057-0.742c1.261-0.494,2.442-1.235,3.542-2.225h0.212V88.817L124.415,88.817z"/>
			<path fill="#FFFFFF" d="M142.579,82.293h-12.458c0,1.039,0.156,1.944,0.469,2.717c0.313,0.771,0.742,1.405,1.287,1.899
				c0.524,0.484,1.148,0.848,1.87,1.09c0.721,0.242,1.516,0.363,2.384,0.363c1.15,0,2.309-0.229,3.474-0.688
				c1.166-0.459,1.996-0.911,2.49-1.355h0.151v3.104c-0.959,0.403-1.938,0.742-2.937,1.014c-0.999,0.273-2.049,0.409-3.148,0.409
				c-2.806,0-4.995-0.759-6.569-2.278c-1.574-1.519-2.361-3.676-2.361-6.471c0-2.765,0.754-4.96,2.263-6.584
				c1.509-1.625,3.494-2.438,5.957-2.438c2.28,0,4.039,0.666,5.275,1.998c1.236,1.332,1.854,3.225,1.854,5.676L142.579,82.293
				L142.579,82.293z M139.809,80.114c-0.01-1.494-0.386-2.649-1.127-3.467c-0.742-0.817-1.87-1.227-3.383-1.227
				c-1.524,0-2.737,0.449-3.64,1.348c-0.903,0.898-1.416,2.014-1.537,3.346H139.809z"/>
			<path fill="#FFFFFF" d="M161.03,90.452h-2.846v-9.627c0-0.777-0.045-1.506-0.136-2.188c-0.091-0.681-0.257-1.213-0.499-1.597
				c-0.253-0.424-0.616-0.739-1.09-0.946c-0.475-0.206-1.09-0.311-1.848-0.311c-0.777,0-1.589,0.192-2.437,0.576
				c-0.848,0.383-1.66,0.872-2.437,1.468v12.624h-2.846V73.543h2.846v1.877c0.888-0.736,1.806-1.312,2.755-1.725
				c0.948-0.414,1.922-0.621,2.921-0.621c1.826,0,3.219,0.55,4.178,1.65s1.438,2.684,1.438,4.752L161.03,90.452L161.03,90.452z"/>
			<path fill="#FFFFFF" d="M175.29,90.3c-0.535,0.142-1.118,0.257-1.749,0.349c-0.631,0.09-1.193,0.136-1.688,0.136
				c-1.726,0-3.037-0.464-3.936-1.393c-0.899-0.929-1.347-2.417-1.347-4.466v-8.99h-1.923v-2.393h1.923v-4.858h2.846v4.858h5.873
				v2.393h-5.873v7.704c0,0.888,0.02,1.582,0.061,2.081c0.04,0.5,0.182,0.967,0.424,1.4c0.222,0.403,0.526,0.699,0.915,0.886
				s0.981,0.28,1.778,0.28c0.465,0,0.949-0.068,1.453-0.205c0.505-0.136,0.868-0.25,1.09-0.34h0.152L175.29,90.3L175.29,90.3z"/>
			<path fill="#FFFFFF" d="M189.276,76.647h-0.151c-0.424-0.101-0.835-0.174-1.233-0.22c-0.399-0.045-0.87-0.067-1.415-0.067
				c-0.879,0-1.727,0.194-2.543,0.582c-0.818,0.389-1.605,0.891-2.361,1.506v12.004h-2.846V73.543h2.846v2.498
				c1.13-0.908,2.126-1.552,2.989-1.93c0.862-0.379,1.743-0.568,2.642-0.568c0.494,0,0.853,0.014,1.074,0.038
				c0.222,0.025,0.555,0.073,0.999,0.144L189.276,76.647L189.276,76.647z"/>
			<path fill="#FFFFFF" d="M195.012,70.713h-3.209v-2.951h3.209V70.713z M194.83,90.452h-2.846V73.543h2.846V90.452z"/>
			<path fill="#FFFFFF" d="M209.56,69.654h-0.151c-0.313-0.091-0.722-0.184-1.227-0.28c-0.504-0.096-0.948-0.144-1.332-0.144
				c-1.221,0-2.106,0.271-2.656,0.81c-0.55,0.54-0.824,1.517-0.824,2.93v0.574h5.131v2.393h-5.041v14.516h-2.846V75.936h-1.922
				v-2.393h1.922v-0.56c0-2.008,0.5-3.55,1.499-4.624c0.999-1.075,2.442-1.612,4.329-1.612c0.636,0,1.208,0.03,1.718,0.091
				c0.51,0.061,0.977,0.131,1.4,0.212V69.654L209.56,69.654z"/>
			<path fill="#FFFFFF" d="M225.377,90.452h-2.846v-1.877c-0.958,0.757-1.877,1.337-2.754,1.74
				c-0.879,0.404-1.848,0.605-2.906,0.605c-1.776,0-3.159-0.542-4.148-1.627c-0.988-1.084-1.482-2.677-1.482-4.775V73.543h2.846
				v9.627c0,0.858,0.04,1.593,0.121,2.203c0.08,0.61,0.252,1.133,0.514,1.566c0.273,0.444,0.626,0.767,1.061,0.969
				c0.434,0.202,1.064,0.303,1.892,0.303c0.736,0,1.541-0.191,2.414-0.575c0.873-0.384,1.688-0.873,2.444-1.468V73.543h2.846v16.909
				H225.377z"/>
			<path fill="#FFFFFF" d="M244.691,88.53c0,2.865-0.65,4.97-1.952,6.312c-1.302,1.342-3.305,2.013-6.009,2.013
				c-0.898,0-1.774-0.063-2.627-0.188c-0.853-0.127-1.692-0.306-2.52-0.538v-2.906h0.15c0.465,0.182,1.201,0.406,2.211,0.674
				c1.009,0.268,2.018,0.401,3.027,0.401c0.969,0,1.771-0.116,2.406-0.349c0.636-0.231,1.13-0.555,1.483-0.969
				c0.354-0.393,0.605-0.867,0.757-1.422c0.151-0.556,0.227-1.176,0.227-1.862v-1.544c-0.857,0.687-1.678,1.198-2.459,1.536
				c-0.782,0.339-1.779,0.507-2.99,0.507c-2.018,0-3.62-0.729-4.806-2.187s-1.778-3.515-1.778-6.169
				c0-1.453,0.204-2.706,0.613-3.761c0.408-1.055,0.966-1.966,1.672-2.732c0.656-0.717,1.453-1.273,2.393-1.673
				c0.938-0.398,1.871-0.598,2.8-0.598c0.979,0,1.799,0.099,2.46,0.295c0.66,0.197,1.359,0.497,2.096,0.9l0.182-0.727h2.664V88.53
				L244.691,88.53z M241.846,85.805v-9.219c-0.756-0.343-1.46-0.588-2.111-0.734c-0.65-0.146-1.299-0.219-1.945-0.219
				c-1.563,0-2.795,0.524-3.693,1.574c-0.897,1.049-1.347,2.572-1.347,4.57c0,1.897,0.333,3.336,0.999,4.314
				s1.771,1.469,3.314,1.469c0.828,0,1.658-0.159,2.49-0.478C240.386,86.766,241.15,86.339,241.846,85.805z"/>
			<path fill="#FFFFFF" d="M263.432,90.452h-2.831v-1.801c-0.252,0.171-0.593,0.411-1.021,0.719
				c-0.43,0.308-0.846,0.553-1.249,0.734c-0.475,0.231-1.02,0.426-1.635,0.582c-0.615,0.156-1.337,0.234-2.164,0.234
				c-1.524,0-2.816-0.504-3.875-1.514c-1.061-1.009-1.59-2.295-1.59-3.859c0-1.281,0.274-2.318,0.825-3.11
				c0.55-0.792,1.334-1.415,2.354-1.87c1.029-0.453,2.266-0.762,3.708-0.923c1.443-0.161,2.992-0.282,4.647-0.363v-0.438
				c0-0.646-0.113-1.182-0.341-1.605c-0.227-0.424-0.553-0.756-0.977-0.998c-0.403-0.232-0.888-0.389-1.453-0.47
				c-0.564-0.081-1.155-0.121-1.771-0.121c-0.747,0-1.579,0.099-2.497,0.295c-0.919,0.197-1.867,0.482-2.846,0.855h-0.152v-2.892
				c0.556-0.15,1.357-0.317,2.407-0.499c1.05-0.182,2.084-0.272,3.103-0.272c1.191,0,2.228,0.099,3.111,0.295
				c0.883,0.197,1.647,0.532,2.293,1.007c0.636,0.464,1.12,1.064,1.453,1.802c0.333,0.736,0.5,1.649,0.5,2.739L263.432,90.452
				L263.432,90.452z M260.601,86.29v-4.708c-0.868,0.051-1.89,0.126-3.065,0.228c-1.176,0.101-2.106,0.247-2.793,0.438
				c-0.816,0.232-1.478,0.593-1.982,1.082c-0.505,0.49-0.757,1.163-0.757,2.021c0,0.969,0.293,1.698,0.878,2.188
				c0.585,0.49,1.479,0.734,2.68,0.734c0.998,0,1.912-0.194,2.739-0.583C259.127,87.301,259.895,86.834,260.601,86.29z"/>
			<path fill="#FFFFFF" d="M271.785,90.452h-2.846V66.899h2.846V90.452z"/>
			<path fill="#FFFFFF" d="M303.286,74.725c0,0.998-0.174,1.925-0.522,2.777c-0.348,0.853-0.835,1.592-1.461,2.217
				c-0.776,0.777-1.695,1.36-2.754,1.749c-1.061,0.389-2.397,0.583-4.012,0.583h-2.997v8.4h-2.997V67.913h6.115
				c1.353,0,2.498,0.114,3.436,0.341c0.939,0.228,1.771,0.583,2.498,1.067c0.857,0.575,1.521,1.292,1.99,2.149
				C303.052,72.328,303.286,73.413,303.286,74.725z M300.168,74.8c0-0.777-0.137-1.453-0.408-2.028
				c-0.273-0.575-0.687-1.045-1.242-1.408c-0.484-0.313-1.036-0.537-1.657-0.673c-0.62-0.137-1.405-0.204-2.354-0.204h-2.967v9.006
				h2.528c1.211,0,2.194-0.108,2.951-0.325s1.372-0.563,1.847-1.037c0.475-0.484,0.81-0.994,1.007-1.528
				C300.069,76.067,300.168,75.466,300.168,74.8z"/>
			<path fill="#FFFFFF" d="M320.663,82.005c0,2.755-0.707,4.93-2.119,6.524c-1.413,1.594-3.306,2.391-5.677,2.391
				c-2.393,0-4.291-0.797-5.699-2.391c-1.407-1.595-2.111-3.77-2.111-6.524s0.704-4.932,2.111-6.531
				c1.408-1.6,3.308-2.399,5.699-2.399c2.371,0,4.264,0.8,5.677,2.399C319.956,77.074,320.663,79.25,320.663,82.005z
				 M317.726,82.005c0-2.189-0.429-3.816-1.285-4.882c-0.857-1.064-2.05-1.597-3.572-1.597c-1.544,0-2.742,0.532-3.595,1.597
				c-0.854,1.065-1.279,2.692-1.279,4.882c0,2.119,0.429,3.727,1.287,4.821c0.856,1.095,2.053,1.643,3.587,1.643
				c1.514,0,2.702-0.543,3.563-1.628C317.295,85.757,317.726,84.145,317.726,82.005z"/>
			<path fill="#FFFFFF" d="M333.848,90.3c-0.535,0.142-1.117,0.257-1.749,0.349c-0.631,0.09-1.192,0.136-1.688,0.136
				c-1.727,0-3.037-0.464-3.937-1.393c-0.898-0.929-1.347-2.417-1.347-4.466v-8.99h-1.923v-2.393h1.923v-4.858h2.846v4.858h5.873
				v2.393h-5.873v7.704c0,0.888,0.021,1.582,0.062,2.081c0.04,0.5,0.182,0.967,0.424,1.4c0.222,0.403,0.526,0.699,0.915,0.886
				s0.981,0.28,1.778,0.28c0.465,0,0.949-0.068,1.453-0.205c0.505-0.136,0.867-0.25,1.09-0.34h0.151L333.848,90.3L333.848,90.3z"/>
			<path fill="#FFFFFF" d="M351.436,82.293h-12.457c0,1.039,0.156,1.944,0.47,2.717c0.313,0.771,0.742,1.405,1.287,1.899
				c0.523,0.484,1.146,0.848,1.868,1.09s1.517,0.363,2.385,0.363c1.149,0,2.309-0.229,3.474-0.688
				c1.166-0.459,1.996-0.911,2.49-1.355h0.15v3.104c-0.959,0.403-1.938,0.742-2.937,1.014c-0.999,0.273-2.049,0.409-3.148,0.409
				c-2.806,0-4.994-0.759-6.568-2.278s-2.361-3.676-2.361-6.471c0-2.765,0.754-4.96,2.263-6.584c1.51-1.625,3.494-2.438,5.957-2.438
				c2.28,0,4.038,0.666,5.274,1.998c1.236,1.332,1.854,3.225,1.854,5.676V82.293L351.436,82.293z M348.666,80.114
				c-0.011-1.494-0.387-2.649-1.128-3.467c-0.742-0.817-1.87-1.227-3.384-1.227c-1.523,0-2.737,0.449-3.641,1.348
				c-0.902,0.898-1.415,2.014-1.536,3.346H348.666z"/>
			<path fill="#FFFFFF" d="M369.887,90.452h-2.846v-9.627c0-0.777-0.045-1.506-0.136-2.188c-0.091-0.681-0.257-1.213-0.499-1.597
				c-0.253-0.424-0.616-0.739-1.09-0.946c-0.476-0.206-1.091-0.311-1.849-0.311c-0.775,0-1.589,0.192-2.437,0.576
				c-0.849,0.383-1.66,0.872-2.438,1.468v12.624h-2.846V73.543h2.846v1.877c0.889-0.736,1.807-1.312,2.754-1.725
				c0.949-0.414,1.924-0.621,2.922-0.621c1.826,0,3.22,0.55,4.179,1.65s1.438,2.684,1.438,4.752L369.887,90.452L369.887,90.452z"/>
			<path fill="#FFFFFF" d="M384.146,90.3c-0.535,0.142-1.118,0.257-1.749,0.349c-0.632,0.09-1.193,0.136-1.688,0.136
				c-1.726,0-3.037-0.464-3.936-1.393c-0.899-0.929-1.348-2.417-1.348-4.466v-8.99h-1.923v-2.393h1.923v-4.858h2.847v4.858h5.872
				v2.393h-5.872v7.704c0,0.888,0.02,1.582,0.061,2.081c0.04,0.5,0.182,0.967,0.424,1.4c0.223,0.403,0.526,0.699,0.915,0.886
				c0.39,0.187,0.981,0.28,1.778,0.28c0.465,0,0.949-0.068,1.453-0.205c0.505-0.136,0.868-0.25,1.09-0.34h0.152L384.146,90.3
				L384.146,90.3z"/>
			<path fill="#FFFFFF" d="M390.639,70.713h-3.209v-2.951h3.209V70.713z M390.457,90.452h-2.846V73.543h2.846V90.452z"/>
			<path fill="#FFFFFF" d="M409.229,90.452h-2.83v-1.801c-0.252,0.171-0.594,0.411-1.021,0.719c-0.43,0.308-0.846,0.553-1.249,0.734
				c-0.475,0.231-1.02,0.426-1.635,0.582c-0.615,0.156-1.337,0.234-2.164,0.234c-1.524,0-2.816-0.504-3.875-1.514
				c-1.062-1.009-1.59-2.295-1.59-3.859c0-1.281,0.273-2.318,0.825-3.11c0.55-0.792,1.334-1.415,2.354-1.87
				c1.029-0.453,2.266-0.762,3.708-0.923c1.443-0.161,2.992-0.282,4.647-0.363v-0.438c0-0.646-0.113-1.182-0.342-1.605
				c-0.227-0.424-0.553-0.756-0.977-0.998c-0.403-0.232-0.888-0.389-1.453-0.47c-0.563-0.081-1.155-0.121-1.771-0.121
				c-0.747,0-1.579,0.099-2.497,0.295c-0.919,0.197-1.867,0.482-2.847,0.855h-0.151v-2.892c0.556-0.15,1.356-0.317,2.406-0.499
				c1.051-0.182,2.084-0.272,3.104-0.272c1.191,0,2.228,0.099,3.111,0.295c0.883,0.197,1.646,0.532,2.293,1.007
				c0.636,0.464,1.119,1.064,1.453,1.802c0.332,0.736,0.5,1.649,0.5,2.739V90.452L409.229,90.452z M406.397,86.29v-4.708
				c-0.868,0.051-1.891,0.126-3.065,0.228c-1.176,0.101-2.106,0.247-2.793,0.438c-0.816,0.232-1.479,0.593-1.982,1.082
				c-0.505,0.49-0.757,1.163-0.757,2.021c0,0.969,0.293,1.698,0.878,2.188c0.585,0.49,1.479,0.734,2.681,0.734
				c0.998,0,1.911-0.194,2.738-0.583S405.691,86.834,406.397,86.29z"/>
			<path fill="#FFFFFF" d="M417.582,90.452h-2.846V66.899h2.846V90.452z"/>
		</g>
		<line fill="none" stroke="#FFFFFF" stroke-width="3" x1="102.643" y1="100.42" x2="420.965" y2="100.42"/>
	</g>
	<g>
		<g enable-background="new    ">
			<path fill="#FFFFFF" d="M187.94,329.586h-3.466c-1.786-2.049-3.174-4.283-4.163-6.705c-0.988-2.422-1.482-5.152-1.482-8.189
				c0-3.036,0.494-5.768,1.482-8.188c0.989-2.422,2.377-4.655,4.163-6.705h3.466v0.15c-0.816,0.735-1.597,1.588-2.338,2.551
				c-0.742,0.965-1.431,2.086-2.066,3.369c-0.605,1.239-1.098,2.606-1.476,4.103c-0.379,1.491-0.567,3.065-0.567,4.723
				c0,1.725,0.184,3.305,0.552,4.738c0.368,1.432,0.865,2.795,1.491,4.086c0.605,1.241,1.297,2.362,2.074,3.366
				c0.776,1.005,1.554,1.855,2.33,2.552V329.586L187.94,329.586z"/>
			<path fill="#FFFFFF" d="M208.375,317.008h-3.345v6.342h-2.906v-6.342h-10.792v-3.482l10.913-12.715h2.785v13.775h3.345V317.008z
				 M202.124,314.586v-10.172l-8.733,10.172H202.124z"/>
			<path fill="#FFFFFF" d="M217.321,323.35h-3.617v-4.313h3.617V323.35z"/>
			<path fill="#FFFFFF" d="M239.359,317.008h-3.345v6.342h-2.906v-6.342h-10.792v-3.482l10.913-12.715h2.785v13.775h3.345V317.008
				L239.359,317.008z M233.108,314.586v-10.172l-8.733,10.172H233.108z"/>
			<path fill="#FFFFFF" d="M258.373,316.189c0,1.049-0.192,2.053-0.576,3.012c-0.383,0.959-0.908,1.766-1.574,2.422
				c-0.727,0.707-1.592,1.25-2.596,1.627c-1.004,0.379-2.167,0.568-3.488,0.568c-1.231,0-2.417-0.129-3.558-0.387
				c-1.141-0.257-2.104-0.566-2.892-0.931v-3.192h0.213c0.827,0.522,1.796,0.971,2.906,1.338c1.109,0.369,2.199,0.553,3.27,0.553
				c0.716,0,1.409-0.1,2.081-0.303c0.671-0.201,1.269-0.556,1.794-1.06c0.443-0.435,0.779-0.953,1.006-1.56
				c0.228-0.604,0.341-1.309,0.341-2.104c0-0.776-0.134-1.432-0.401-1.967s-0.638-0.965-1.112-1.287
				c-0.524-0.383-1.163-0.651-1.915-0.812c-0.752-0.155-1.592-0.233-2.52-0.233c-0.889,0-1.744,0.062-2.566,0.183
				c-0.822,0.121-1.531,0.241-2.127,0.362v-11.608h13.563v2.647H247.58v5.994c0.434-0.039,0.878-0.07,1.332-0.091
				s0.848-0.03,1.181-0.03c1.221,0,2.291,0.104,3.209,0.312c0.918,0.207,1.761,0.571,2.528,1.098
				c0.807,0.555,1.433,1.271,1.877,2.15C258.15,313.768,258.373,314.867,258.373,316.189z"/>
			<path fill="#FFFFFF" d="M288.902,323.35h-3.588l-4.798-6.494l-4.829,6.494h-3.314l6.6-8.432l-6.539-8.477h3.588l4.768,6.389
				l4.783-6.389h3.33l-6.645,8.326L288.902,323.35z"/>
			<path fill="#FFFFFF" d="M317.117,323.35h-12.2v-2.301h4.692v-15.107h-4.692v-2.059c0.636,0,1.317-0.053,2.044-0.158
				c0.728-0.104,1.276-0.26,1.649-0.461c0.464-0.254,0.83-0.574,1.098-0.963c0.267-0.387,0.421-0.91,0.462-1.566h2.346v20.314h4.603
				L317.117,323.35L317.117,323.35z"/>
			<path fill="#FFFFFF" d="M338.082,312.072c0,4.047-0.633,7.016-1.899,8.908c-1.266,1.892-3.23,2.838-5.896,2.838
				c-2.704,0-4.68-0.959-5.926-2.875c-1.247-1.918-1.869-4.865-1.869-8.84c0-4.008,0.63-6.968,1.892-8.879
				c1.263-1.912,3.229-2.867,5.903-2.867c2.704,0,4.68,0.971,5.926,2.912C337.459,305.213,338.082,308.146,338.082,312.072z
				 M334.102,318.945c0.354-0.818,0.594-1.779,0.72-2.885c0.126-1.106,0.188-2.435,0.188-3.988c0-1.533-0.063-2.865-0.188-3.996
				s-0.371-2.088-0.734-2.875c-0.353-0.777-0.835-1.363-1.445-1.756c-0.609-0.396-1.395-0.592-2.354-0.592
				c-0.948,0-1.733,0.196-2.354,0.592c-0.621,0.393-1.112,0.988-1.477,1.785c-0.343,0.746-0.577,1.721-0.703,2.922
				c-0.127,1.201-0.188,2.518-0.188,3.951c0,1.573,0.056,2.891,0.165,3.948c0.111,1.062,0.35,2.009,0.713,2.847
				c0.333,0.787,0.805,1.389,1.415,1.803c0.609,0.412,1.421,0.619,2.43,0.619c0.948,0,1.735-0.195,2.361-0.59
				C333.274,320.338,333.759,319.742,334.102,318.945z"/>
			<path fill="#FFFFFF" d="M349.691,308.025h-7.113v-1.342h2.734v-8.808h-2.734v-1.2c0.371,0,0.768-0.031,1.19-0.093
				c0.424-0.062,0.744-0.151,0.963-0.269c0.271-0.147,0.483-0.334,0.64-0.562s0.246-0.53,0.27-0.914h1.367v11.843h2.685
				L349.691,308.025L349.691,308.025z"/>
			<path fill="#FFFFFF" d="M362.231,304.328h-1.95v3.697h-1.694v-3.697h-6.292v-2.029l6.362-7.412h1.624v8.029h1.95V304.328z
				 M358.587,302.916v-5.93l-5.092,5.93H358.587z"/>
			<path fill="#FFFFFF" d="M390.518,321.428c0,2.865-0.649,4.969-1.951,6.312c-1.303,1.342-3.306,2.014-6.01,2.014
				c-0.897,0-1.773-0.063-2.627-0.188c-0.853-0.127-1.691-0.306-2.52-0.537v-2.906h0.149c0.466,0.182,1.201,0.406,2.212,0.674
				c1.009,0.268,2.018,0.4,3.026,0.4c0.969,0,1.771-0.115,2.406-0.348c0.635-0.233,1.13-0.556,1.483-0.97
				c0.354-0.394,0.604-0.866,0.757-1.422c0.15-0.558,0.227-1.176,0.227-1.862v-1.544c-0.856,0.687-1.678,1.197-2.459,1.535
				c-0.782,0.34-1.779,0.509-2.99,0.509c-2.018,0-3.62-0.729-4.806-2.188c-1.186-1.457-1.778-3.515-1.778-6.168
				c0-1.453,0.204-2.707,0.613-3.763c0.408-1.055,0.966-1.965,1.672-2.731c0.656-0.718,1.453-1.272,2.394-1.672
				c0.938-0.398,1.87-0.599,2.8-0.599c0.979,0,1.799,0.099,2.46,0.295c0.66,0.197,1.358,0.496,2.096,0.9l0.182-0.727h2.664V321.428
				L390.518,321.428z M387.672,318.703v-9.219c-0.756-0.344-1.46-0.588-2.111-0.734c-0.649-0.146-1.299-0.219-1.944-0.219
				c-1.563,0-2.795,0.523-3.693,1.574c-0.896,1.049-1.347,2.571-1.347,4.569c0,1.896,0.333,3.337,0.999,4.314
				s1.771,1.469,3.313,1.469c0.828,0,1.658-0.16,2.49-0.479C386.212,319.664,386.977,319.236,387.672,318.703z"/>
			<path fill="#FFFFFF" d="M420.791,323.35h-2.846v-9.627c0-0.727-0.032-1.428-0.099-2.104c-0.065-0.678-0.205-1.217-0.416-1.621
				c-0.231-0.434-0.564-0.762-1-0.982c-0.434-0.223-1.059-0.334-1.877-0.334c-0.797,0-1.594,0.199-2.391,0.598
				c-0.798,0.398-1.595,0.906-2.394,1.521c0.031,0.232,0.057,0.502,0.076,0.811c0.021,0.308,0.03,0.613,0.03,0.916v10.822h-2.846
				v-9.627c0-0.748-0.033-1.455-0.1-2.127c-0.065-0.672-0.204-1.209-0.416-1.611c-0.231-0.436-0.564-0.76-0.999-0.977
				c-0.434-0.217-1.06-0.326-1.877-0.326c-0.776,0-1.557,0.191-2.339,0.576c-0.782,0.383-1.562,0.871-2.338,1.467v12.625h-2.846
				v-16.908h2.846v1.877c0.888-0.735,1.772-1.313,2.656-1.725c0.883-0.414,1.824-0.621,2.822-0.621c1.149,0,2.127,0.242,2.93,0.728
				c0.802,0.483,1.399,1.153,1.793,2.014c1.149-0.969,2.2-1.668,3.147-2.098c0.949-0.429,1.964-0.644,3.043-0.644
				c1.856,0,3.228,0.563,4.109,1.688s1.324,2.696,1.324,4.715v10.974H420.791z"/>
			<path fill="#FFFFFF" d="M434.809,314.691c0,3.037-0.494,5.768-1.483,8.188c-0.988,2.422-2.376,4.656-4.162,6.705h-3.467v-0.151
				c0.776-0.695,1.557-1.548,2.339-2.552s1.471-2.125,2.065-3.366c0.626-1.291,1.122-2.654,1.491-4.086
				c0.368-1.435,0.553-3.015,0.553-4.738c0-1.656-0.188-3.23-0.561-4.724s-0.868-2.86-1.483-4.102
				c-0.636-1.283-1.323-2.404-2.065-3.369c-0.741-0.963-1.521-1.813-2.339-2.552v-0.149h3.467c1.786,2.05,3.174,4.283,4.162,6.705
				C434.313,308.924,434.809,311.654,434.809,314.691z"/>
			<path fill="#FFFFFF" d="M449.399,329.586h-3.467c-1.786-2.049-3.174-4.283-4.163-6.705c-0.987-2.422-1.481-5.152-1.481-8.189
				c0-3.036,0.494-5.768,1.481-8.188c0.989-2.422,2.378-4.655,4.163-6.705h3.467v0.15c-0.816,0.735-1.598,1.588-2.339,2.551
				c-0.741,0.965-1.431,2.086-2.065,3.369c-0.605,1.239-1.099,2.606-1.477,4.103c-0.379,1.491-0.566,3.065-0.566,4.723
				c0,1.725,0.184,3.305,0.552,4.738c0.368,1.432,0.865,2.795,1.491,4.086c0.604,1.241,1.297,2.362,2.074,3.366
				c0.775,1.005,1.554,1.855,2.33,2.552V329.586L449.399,329.586z"/>
			<path fill="#FFFFFF" d="M469.32,323.35h-15.258v-3.164c1.059-0.908,2.12-1.815,3.186-2.725s2.057-1.811,2.975-2.709
				c1.938-1.877,3.266-3.369,3.98-4.473c0.717-1.105,1.075-2.299,1.075-3.58c0-1.172-0.387-2.086-1.158-2.748
				c-0.771-0.66-1.849-0.99-3.231-0.99c-0.918,0-1.911,0.16-2.981,0.484c-1.069,0.322-2.113,0.816-3.133,1.482h-0.151v-3.179
				c0.717-0.354,1.673-0.679,2.868-0.969c1.196-0.294,2.354-0.439,3.475-0.439c2.312,0,4.122,0.558,5.435,1.673
				c1.312,1.114,1.968,2.627,1.968,4.532c0,0.856-0.108,1.658-0.325,2.399c-0.218,0.74-0.537,1.445-0.961,2.111
				c-0.395,0.625-0.855,1.24-1.386,1.846c-0.529,0.605-1.173,1.277-1.931,2.015c-1.079,1.062-2.193,2.086-3.345,3.08
				c-1.15,0.994-2.226,1.916-3.225,2.765h12.125L469.32,323.35L469.32,323.35z"/>
			<path fill="#FFFFFF" d="M478.78,323.35h-3.617v-4.313h3.617V323.35z"/>
			<path fill="#FFFFFF" d="M500.273,310.725c0,1.969-0.226,3.754-0.674,5.359c-0.448,1.604-1.128,2.971-2.035,4.102
				c-0.918,1.15-2.068,2.039-3.451,2.664s-3.007,0.939-4.874,0.939c-0.524,0-1.021-0.029-1.483-0.084
				c-0.464-0.057-0.878-0.145-1.241-0.266v-2.892h0.151c0.293,0.152,0.706,0.295,1.241,0.433c0.535,0.137,1.13,0.205,1.786,0.205
				c2.229,0,3.979-0.67,5.245-2.006c1.266-1.339,2-3.183,2.201-5.533c-0.938,0.563-1.82,0.969-2.647,1.211
				c-0.828,0.242-1.731,0.363-2.71,0.363c-0.929,0-1.77-0.091-2.521-0.271c-0.752-0.182-1.506-0.535-2.263-1.061
				c-0.888-0.615-1.557-1.398-2.006-2.347c-0.449-0.949-0.673-2.084-0.673-3.406c0-2.301,0.756-4.172,2.27-5.614
				c1.514-1.443,3.361-2.164,5.541-2.164c1.09,0,2.099,0.168,3.027,0.506c0.928,0.338,1.739,0.846,2.437,1.521
				c0.857,0.839,1.52,1.914,1.983,3.232C500.042,306.934,500.273,308.637,500.273,310.725z M497.217,310.074
				c0-1.564-0.162-2.82-0.483-3.77c-0.323-0.947-0.769-1.687-1.332-2.209c-0.476-0.455-0.984-0.779-1.529-0.978
				s-1.135-0.295-1.771-0.295c-1.452,0-2.601,0.452-3.442,1.36s-1.265,2.187-1.265,3.83c0,0.959,0.138,1.74,0.408,2.346
				c0.273,0.605,0.732,1.138,1.378,1.591c0.454,0.313,0.954,0.521,1.499,0.629c0.545,0.104,1.15,0.157,1.816,0.157
				c0.787,0,1.584-0.104,2.391-0.317c0.809-0.211,1.564-0.521,2.271-0.922c0.01-0.213,0.021-0.422,0.037-0.629
				C497.209,310.662,497.217,310.396,497.217,310.074z"/>
			<path fill="#FFFFFF" d="M519.981,310.725c0,1.969-0.226,3.754-0.674,5.359c-0.448,1.604-1.128,2.971-2.035,4.102
				c-0.919,1.15-2.068,2.039-3.451,2.664s-3.007,0.939-4.874,0.939c-0.524,0-1.021-0.029-1.483-0.084
				c-0.464-0.057-0.878-0.145-1.241-0.266v-2.892h0.151c0.293,0.152,0.706,0.295,1.241,0.433c0.535,0.137,1.13,0.205,1.786,0.205
				c2.229,0,3.979-0.67,5.245-2.006c1.266-1.339,2-3.183,2.201-5.533c-0.938,0.563-1.82,0.969-2.647,1.211
				c-0.828,0.242-1.731,0.363-2.71,0.363c-0.929,0-1.77-0.091-2.521-0.271c-0.752-0.182-1.506-0.535-2.263-1.061
				c-0.888-0.615-1.557-1.398-2.006-2.347c-0.449-0.949-0.673-2.084-0.673-3.406c0-2.301,0.756-4.172,2.27-5.614
				c1.514-1.443,3.361-2.164,5.541-2.164c1.09,0,2.1,0.168,3.027,0.506s1.74,0.846,2.437,1.521c0.857,0.839,1.52,1.914,1.983,3.232
				C519.75,306.934,519.981,308.637,519.981,310.725z M516.925,310.074c0-1.564-0.162-2.82-0.483-3.77
				c-0.323-0.947-0.769-1.687-1.332-2.209c-0.476-0.455-0.984-0.779-1.529-0.978s-1.135-0.295-1.771-0.295
				c-1.452,0-2.601,0.452-3.442,1.36s-1.265,2.187-1.265,3.83c0,0.959,0.138,1.74,0.408,2.346c0.273,0.605,0.732,1.138,1.378,1.591
				c0.454,0.313,0.954,0.521,1.499,0.629c0.545,0.104,1.15,0.157,1.816,0.157c0.787,0,1.584-0.104,2.391-0.317
				c0.809-0.211,1.564-0.521,2.271-0.922c0.01-0.213,0.021-0.422,0.037-0.629C516.917,310.662,516.925,310.396,516.925,310.074z"/>
			<path fill="#FFFFFF" d="M550.361,323.35h-3.588l-4.799-6.494l-4.828,6.494h-3.314l6.6-8.432l-6.539-8.477h3.589l4.768,6.389
				l4.783-6.389h3.33l-6.646,8.326L550.361,323.35z"/>
			<path fill="#FFFFFF" d="M578.576,323.35h-12.2v-2.301h4.692v-15.107h-4.692v-2.059c0.636,0,1.317-0.053,2.044-0.158
				c0.727-0.104,1.276-0.26,1.649-0.461c0.464-0.254,0.83-0.574,1.098-0.963c0.267-0.387,0.421-0.91,0.462-1.566h2.346v20.314h4.603
				L578.576,323.35L578.576,323.35z"/>
			<path fill="#FFFFFF" d="M599.54,312.072c0,4.047-0.633,7.016-1.899,8.908c-1.266,1.892-3.23,2.838-5.896,2.838
				c-2.704,0-4.68-0.959-5.926-2.875c-1.247-1.918-1.869-4.865-1.869-8.84c0-4.008,0.63-6.968,1.892-8.879
				c1.262-1.912,3.229-2.867,5.903-2.867c2.704,0,4.68,0.971,5.926,2.912C598.917,305.213,599.54,308.146,599.54,312.072z
				 M595.56,318.945c0.354-0.818,0.594-1.779,0.72-2.885c0.126-1.106,0.188-2.435,0.188-3.988c0-1.533-0.063-2.865-0.188-3.996
				s-0.371-2.088-0.734-2.875c-0.353-0.777-0.835-1.363-1.445-1.756c-0.609-0.396-1.395-0.592-2.354-0.592
				c-0.948,0-1.733,0.196-2.354,0.592c-0.62,0.393-1.112,0.988-1.477,1.785c-0.343,0.746-0.577,1.721-0.703,2.922
				c-0.127,1.201-0.188,2.518-0.188,3.951c0,1.573,0.056,2.891,0.166,3.948c0.11,1.062,0.349,2.009,0.712,2.847
				c0.333,0.787,0.805,1.389,1.415,1.803c0.609,0.412,1.421,0.619,2.43,0.619c0.948,0,1.734-0.195,2.361-0.59
				C594.732,320.338,595.217,319.742,595.56,318.945z"/>
			<path fill="#FFFFFF" d="M611.15,308.025h-7.113v-1.342h2.735v-8.808h-2.735v-1.2c0.371,0,0.768-0.031,1.191-0.093
				c0.423-0.062,0.743-0.151,0.962-0.269c0.271-0.147,0.483-0.334,0.64-0.562s0.246-0.53,0.27-0.914h1.367v11.843h2.685
				L611.15,308.025L611.15,308.025z"/>
			<path fill="#FFFFFF" d="M623.373,301.451c0,2.359-0.37,4.09-1.107,5.193c-0.738,1.104-1.885,1.653-3.438,1.653
				c-1.577,0-2.729-0.56-3.455-1.676c-0.727-1.117-1.09-2.836-1.09-5.154c0-2.336,0.367-4.061,1.104-5.175
				c0.735-1.115,1.882-1.672,3.441-1.672c1.576,0,2.728,0.564,3.455,1.697C623.01,297.453,623.373,299.162,623.373,301.451z
				 M621.052,305.457c0.206-0.477,0.347-1.035,0.419-1.68c0.073-0.646,0.11-1.42,0.11-2.326c0-0.895-0.037-1.67-0.11-2.33
				c-0.072-0.658-0.216-1.217-0.428-1.676c-0.206-0.454-0.487-0.795-0.843-1.024c-0.356-0.229-0.813-0.344-1.372-0.344
				c-0.554,0-1.011,0.114-1.372,0.344c-0.362,0.229-0.649,0.576-0.86,1.042c-0.199,0.436-0.337,1.004-0.411,1.703
				c-0.072,0.699-0.109,1.469-0.109,2.303c0,0.918,0.032,1.687,0.098,2.303c0.064,0.619,0.203,1.172,0.415,1.66
				c0.193,0.459,0.469,0.81,0.824,1.051c0.355,0.24,0.828,0.361,1.417,0.361c0.553,0,1.012-0.115,1.376-0.344
				C620.569,306.27,620.852,305.922,621.052,305.457z"/>
			<path fill="#FFFFFF" d="M650.765,322.289c-0.947,0.455-1.849,0.809-2.7,1.061c-0.854,0.252-1.76,0.379-2.718,0.379
				c-1.222,0-2.342-0.18-3.36-0.539c-1.02-0.356-1.893-0.899-2.618-1.627c-0.736-0.727-1.308-1.645-1.71-2.754
				c-0.404-1.11-0.605-2.406-0.605-3.891c0-2.766,0.76-4.934,2.277-6.508s3.523-2.361,6.018-2.361c0.97,0,1.919,0.135,2.854,0.408
				c0.934,0.271,1.789,0.605,2.564,0.998v3.164h-0.149c-0.868-0.676-1.765-1.195-2.688-1.559c-0.923-0.363-1.823-0.545-2.701-0.545
				c-1.614,0-2.89,0.543-3.821,1.627c-0.935,1.084-1.4,2.676-1.4,4.774c0,2.039,0.456,3.604,1.37,4.699
				c0.913,1.096,2.197,1.643,3.854,1.643c0.573,0,1.159-0.073,1.756-0.227c0.595-0.15,1.13-0.349,1.604-0.591
				c0.414-0.213,0.803-0.438,1.166-0.674c0.363-0.235,0.65-0.44,0.863-0.613h0.149v3.135H650.765z"/>
			<path fill="#FFFFFF" d="M679.086,323.35h-2.846v-9.627c0-0.727-0.032-1.428-0.099-2.104c-0.065-0.678-0.205-1.217-0.416-1.621
				c-0.231-0.434-0.564-0.762-1-0.982c-0.434-0.223-1.059-0.334-1.877-0.334c-0.797,0-1.594,0.199-2.391,0.598
				c-0.798,0.398-1.595,0.906-2.394,1.521c0.031,0.232,0.057,0.502,0.076,0.811c0.021,0.308,0.03,0.613,0.03,0.916v10.822h-2.846
				v-9.627c0-0.748-0.033-1.455-0.1-2.127c-0.065-0.672-0.204-1.209-0.416-1.611c-0.231-0.436-0.564-0.76-0.999-0.977
				c-0.434-0.217-1.06-0.326-1.877-0.326c-0.776,0-1.557,0.191-2.339,0.576c-0.782,0.383-1.562,0.871-2.338,1.467v12.625h-2.846
				v-16.908h2.846v1.877c0.888-0.735,1.772-1.313,2.656-1.725c0.883-0.414,1.824-0.621,2.822-0.621c1.149,0,2.127,0.242,2.93,0.728
				c0.802,0.483,1.399,1.153,1.793,2.014c1.15-0.969,2.2-1.668,3.147-2.098c0.949-0.429,1.964-0.644,3.044-0.644
				c1.855,0,3.227,0.563,4.108,1.688s1.324,2.696,1.324,4.715v10.974H679.086z"/>
			<path fill="#FFFFFF" d="M705.682,299.797l-10.854,28.154h-2.618l10.808-28.154H705.682z"/>
			<path fill="#FFFFFF" d="M732.519,318.475c0,1.545-0.638,2.812-1.913,3.801c-1.277,0.988-3.021,1.482-5.23,1.482
				c-1.251,0-2.398-0.148-3.443-0.447c-1.044-0.297-1.92-0.623-2.626-0.975v-3.195h0.151c0.898,0.676,1.896,1.215,2.997,1.613
				c1.1,0.398,2.154,0.598,3.163,0.598c1.252,0,2.229-0.203,2.938-0.604c0.706-0.404,1.06-1.039,1.06-1.908
				c0-0.666-0.191-1.17-0.574-1.514c-0.384-0.343-1.121-0.636-2.211-0.878c-0.403-0.092-0.931-0.196-1.581-0.317
				c-0.651-0.121-1.244-0.252-1.778-0.394c-1.483-0.395-2.536-0.973-3.155-1.733c-0.621-0.762-0.933-1.696-0.933-2.808
				c0-0.696,0.146-1.354,0.433-1.969c0.288-0.615,0.725-1.166,1.31-1.649c0.565-0.476,1.284-0.851,2.157-1.127
				c0.872-0.277,1.849-0.416,2.929-0.416c1.009,0,2.03,0.122,3.065,0.37c1.033,0.246,1.895,0.548,2.58,0.9v3.043h-0.15
				c-0.727-0.535-1.61-0.986-2.649-1.354c-1.038-0.369-2.059-0.554-3.058-0.554c-1.039,0-1.917,0.199-2.634,0.599
				s-1.075,0.991-1.075,1.778c0,0.695,0.218,1.222,0.651,1.574c0.424,0.354,1.109,0.641,2.059,0.863
				c0.524,0.121,1.112,0.242,1.764,0.363c0.65,0.121,1.193,0.23,1.628,0.332c1.321,0.303,2.341,0.822,3.058,1.559
				C732.161,316.256,732.519,317.244,732.519,318.475z"/>
			<path fill="#FFFFFF" d="M745.128,314.691c0,3.037-0.495,5.768-1.484,8.188c-0.987,2.422-2.376,4.656-4.161,6.705h-3.468v-0.151
				c0.777-0.695,1.558-1.548,2.339-2.552c0.782-1.004,1.472-2.125,2.066-3.366c0.626-1.291,1.122-2.654,1.491-4.086
				c0.368-1.435,0.553-3.015,0.553-4.738c0-1.656-0.188-3.23-0.561-4.724s-0.868-2.86-1.483-4.102
				c-0.636-1.283-1.324-2.404-2.065-3.369c-0.741-0.963-1.521-1.813-2.34-2.552v-0.149h3.468c1.785,2.05,3.174,4.283,4.162,6.705
				C744.633,308.924,745.128,311.654,745.128,314.691z"/>
			<path fill="#FFFFFF" d="M758.184,308.025h-8.896v-1.844c0.617-0.529,1.236-1.06,1.856-1.589c0.621-0.528,1.198-1.057,1.734-1.579
				c1.129-1.095,1.903-1.964,2.32-2.607c0.418-0.645,0.627-1.34,0.627-2.088c0-0.683-0.227-1.217-0.675-1.602
				c-0.45-0.386-1.078-0.578-1.886-0.578c-0.534,0-1.113,0.094-1.737,0.282c-0.623,0.188-1.232,0.478-1.826,0.866h-0.089v-1.854
				c0.418-0.207,0.976-0.396,1.673-0.564c0.697-0.171,1.372-0.256,2.025-0.256c1.347,0,2.401,0.324,3.168,0.975
				c0.765,0.65,1.146,1.532,1.146,2.643c0,0.5-0.063,0.968-0.188,1.398c-0.128,0.434-0.313,0.844-0.562,1.23
				c-0.229,0.365-0.498,0.725-0.808,1.078c-0.31,0.352-0.685,0.744-1.125,1.174c-0.629,0.617-1.279,1.215-1.95,1.795
				s-1.297,1.117-1.88,1.611h7.068v1.508H758.184z"/>
		</g>
		<g enable-background="new    ">
			<path fill="#FFFFFF" d="M459.784,373.35h-15.258v-3.164c1.059-0.908,2.121-1.815,3.186-2.725
				c1.065-0.909,2.057-1.811,2.976-2.709c1.938-1.877,3.265-3.369,3.979-4.473c0.717-1.105,1.075-2.299,1.075-3.58
				c0-1.172-0.386-2.086-1.158-2.748c-0.771-0.66-1.849-0.99-3.23-0.99c-0.918,0-1.912,0.16-2.982,0.484
				c-1.069,0.322-2.113,0.816-3.133,1.482h-0.151v-3.179c0.717-0.354,1.673-0.679,2.868-0.969c1.196-0.294,2.354-0.439,3.475-0.439
				c2.312,0,4.122,0.558,5.435,1.673c1.312,1.114,1.968,2.627,1.968,4.532c0,0.856-0.108,1.658-0.325,2.399
				c-0.218,0.74-0.537,1.445-0.961,2.111c-0.395,0.625-0.854,1.24-1.386,1.846c-0.529,0.605-1.173,1.277-1.93,2.015
				c-1.08,1.062-2.194,2.086-3.346,3.08c-1.15,0.994-2.226,1.916-3.225,2.765h12.125L459.784,373.35L459.784,373.35z"/>
		</g>
		<g>
			<path fill="#FFFFFF" d="M127.966,322.811l-8.204,22.539h-3.996l-8.204-22.539h3.209l7.069,19.83l7.069-19.83H127.966z"/>
			<path fill="#FFFFFF" d="M136.143,342.625h-0.088c-0.247-0.059-0.487-0.102-0.719-0.129c-0.232-0.025-0.507-0.039-0.825-0.039
				c-0.512,0-1.006,0.113-1.482,0.34c-0.476,0.227-0.936,0.52-1.377,0.878v6.998h-1.659v-9.856h1.659v1.455
				c0.659-0.528,1.24-0.903,1.743-1.125c0.503-0.221,1.016-0.33,1.54-0.33c0.289,0,0.497,0.008,0.627,0.021
				c0.129,0.016,0.323,0.043,0.582,0.084L136.143,342.625L136.143,342.625z"/>
			<path fill="#FFFFFF" d="M168.631,333.514h-17.952v-2.423h17.952V333.514z M168.631,339.87h-17.952v-2.422h17.952V339.87z"/>
			<path fill="#FFFFFF" d="M203.007,335.891h-19.829v-1.815h19.829V335.891z"/>
			<path fill="#FFFFFF" d="M222.715,335.891h-19.829v-1.815h19.829V335.891z"/>
			<path fill="#FFFFFF" d="M242.423,335.891h-19.829v-1.815h19.829V335.891z"/>
			<path fill="#FFFFFF" d="M262.131,335.891h-19.829v-1.815h19.829V335.891z"/>
			<path fill="#FFFFFF" d="M281.839,335.891H262.01v-1.815h19.829V335.891L281.839,335.891z"/>
			<path fill="#FFFFFF" d="M301.547,335.891h-19.829v-1.815h19.829V335.891z"/>
			<path fill="#FFFFFF" d="M321.255,335.891h-19.829v-1.815h19.829V335.891z"/>
			<path fill="#FFFFFF" d="M340.963,335.891h-19.829v-1.815h19.829V335.891z"/>
			<path fill="#FFFFFF" d="M360.671,335.891h-19.829v-1.815h19.829V335.891z"/>
			<path fill="#FFFFFF" d="M380.379,335.891H360.55v-1.815h19.829V335.891z"/>
			<path fill="#FFFFFF" d="M400.087,335.891h-19.829v-1.815h19.829V335.891z"/>
			<path fill="#FFFFFF" d="M419.795,335.891h-19.829v-1.815h19.829V335.891z"/>
			<path fill="#FFFFFF" d="M439.503,335.891h-19.829v-1.815h19.829V335.891z"/>
			<path fill="#FFFFFF" d="M459.211,335.891h-19.829v-1.815h19.829V335.891z"/>
			<path fill="#FFFFFF" d="M478.919,335.891H459.09v-1.815h19.829V335.891z"/>
			<path fill="#FFFFFF" d="M498.627,335.891h-19.829v-1.815h19.829V335.891z"/>
			<path fill="#FFFFFF" d="M518.335,335.891h-19.829v-1.815h19.829V335.891z"/>
			<path fill="#FFFFFF" d="M538.043,335.891h-19.829v-1.815h19.829V335.891z"/>
			<path fill="#FFFFFF" d="M557.751,335.891h-19.829v-1.815h19.829V335.891z"/>
			<path fill="#FFFFFF" d="M577.459,335.891H557.63v-1.815h19.829V335.891z"/>
			<path fill="#FFFFFF" d="M597.167,335.891h-19.829v-1.815h19.829V335.891z"/>
			<path fill="#FFFFFF" d="M616.875,335.891h-19.829v-1.815h19.829V335.891z"/>
			<path fill="#FFFFFF" d="M636.583,335.891h-19.829v-1.815h19.829V335.891z"/>
			<path fill="#FFFFFF" d="M656.291,335.891h-19.829v-1.815h19.829V335.891z"/>
			<path fill="#FFFFFF" d="M675.999,335.891H656.17v-1.815h19.829V335.891L675.999,335.891z"/>
			<path fill="#FFFFFF" d="M695.707,335.891h-19.829v-1.815h19.829V335.891z"/>
			<path fill="#FFFFFF" d="M715.415,335.891h-19.829v-1.815h19.829V335.891z"/>
			<path fill="#FFFFFF" d="M735.123,335.891h-19.829v-1.815h19.829V335.891z"/>
		</g>
	</g>
	<g>
		<g>
			<path fill="#FFFFFF" d="M127.44,151.103l-8.204,22.539h-3.996l-8.204-22.539h3.209l7.069,19.829l7.069-19.829H127.44z"/>
			<path fill="#FFFFFF" d="M135.617,170.917h-0.088c-0.247-0.059-0.487-0.101-0.719-0.128c-0.232-0.026-0.507-0.04-0.825-0.04
				c-0.512,0-1.006,0.113-1.482,0.34s-0.936,0.519-1.377,0.878v6.998h-1.659v-9.857h1.659v1.457c0.659-0.53,1.24-0.905,1.743-1.125
				c0.503-0.221,1.016-0.331,1.54-0.331c0.289,0,0.497,0.008,0.627,0.022c0.129,0.015,0.323,0.042,0.582,0.083L135.617,170.917
				L135.617,170.917z"/>
			<path fill="#FFFFFF" d="M168.106,161.805h-17.952v-2.422h17.952V161.805z M168.106,168.162h-17.952v-2.422h17.952V168.162z"/>
			<path fill="#FFFFFF" d="M202.481,164.183h-19.829v-1.816h19.829V164.183z"/>
			<path fill="#FFFFFF" d="M222.189,164.183H202.36v-1.816h19.829V164.183z"/>
			<path fill="#FFFFFF" d="M241.897,164.183h-19.829v-1.816h19.829V164.183z"/>
			<path fill="#FFFFFF" d="M261.605,164.183h-19.829v-1.816h19.829V164.183z"/>
			<path fill="#FFFFFF" d="M294.104,161.805h-17.952v-2.422h17.952V161.805z M294.104,168.162h-17.952v-2.422h17.952V168.162z"/>
			<path fill="#FFFFFF" d="M328.479,164.183H308.65v-1.816h19.828V164.183z"/>
			<path fill="#FFFFFF" d="M348.188,164.183h-19.828v-1.816h19.828V164.183z"/>
			<path fill="#FFFFFF" d="M367.896,164.183h-19.829v-1.816h19.829V164.183z"/>
			<path fill="#FFFFFF" d="M387.604,164.183h-19.828v-1.816h19.828V164.183z"/>
			<path fill="#FFFFFF" d="M420.102,161.805H402.15v-2.422h17.951V161.805z M420.102,168.162H402.15v-2.422h17.951V168.162z"/>
			<path fill="#FFFFFF" d="M454.478,164.183h-19.828v-1.816h19.828V164.183z"/>
			<path fill="#FFFFFF" d="M474.186,164.183h-19.828v-1.816h19.828V164.183z"/>
			<path fill="#FFFFFF" d="M493.894,164.183h-19.828v-1.816h19.828V164.183z"/>
			<path fill="#FFFFFF" d="M513.602,164.183h-19.828v-1.816h19.828V164.183z"/>
		</g>
		<g>
			<g enable-background="new    ">
				<path fill="#FFFFFF" d="M223.982,156.642h-14.259v-22.539h2.997v19.875h11.262V156.642L223.982,156.642z"/>
				<path fill="#FFFFFF" d="M234.268,141.319h-8.895v-1.845c0.618-0.529,1.237-1.059,1.857-1.588c0.62-0.529,1.199-1.056,1.734-1.58
					c1.13-1.094,1.903-1.963,2.321-2.607c0.417-0.645,0.626-1.34,0.626-2.087c0-0.683-0.225-1.217-0.675-1.602
					c-0.45-0.386-1.078-0.578-1.884-0.578c-0.536,0-1.115,0.094-1.739,0.282s-1.232,0.477-1.827,0.865h-0.088v-1.854
					c0.418-0.206,0.976-0.395,1.672-0.564c0.697-0.171,1.373-0.256,2.025-0.256c1.347,0,2.403,0.324,3.168,0.975
					c0.765,0.651,1.147,1.531,1.147,2.643c0,0.501-0.063,0.967-0.19,1.399c-0.127,0.432-0.313,0.843-0.56,1.23
					c-0.229,0.365-0.499,0.724-0.808,1.077s-0.684,0.744-1.125,1.174c-0.63,0.617-1.28,1.216-1.951,1.796
					c-0.67,0.579-1.297,1.116-1.879,1.61h7.068v1.51H234.268z"/>
			</g>
			<g enable-background="new    ">
				<path fill="#FFFFFF" d="M201.474,197.642h-15.258v-3.164c1.06-0.908,2.122-1.816,3.186-2.725
					c1.065-0.908,2.056-1.811,2.975-2.709c1.938-1.877,3.264-3.368,3.981-4.473c0.716-1.105,1.075-2.299,1.075-3.58
					c0-1.171-0.386-2.086-1.158-2.747c-0.771-0.661-1.849-0.991-3.231-0.991c-0.918,0-1.913,0.161-2.982,0.484
					c-1.07,0.322-2.114,0.816-3.133,1.482h-0.151v-3.178c0.716-0.354,1.673-0.677,2.868-0.969c1.196-0.293,2.354-0.439,3.474-0.439
					c2.311,0,4.122,0.558,5.434,1.673c1.312,1.115,1.968,2.626,1.968,4.533c0,0.857-0.108,1.657-0.325,2.399
					c-0.217,0.741-0.538,1.445-0.961,2.111c-0.394,0.626-0.855,1.241-1.385,1.847c-0.529,0.605-1.173,1.276-1.93,2.013
					c-1.08,1.061-2.195,2.087-3.345,3.081s-2.225,1.915-3.224,2.763h12.125v2.589H201.474z"/>
				<path fill="#FFFFFF" d="M230.96,197.642h-2.846v-9.627c0-0.727-0.033-1.428-0.098-2.104c-0.066-0.677-0.205-1.217-0.417-1.62
					c-0.232-0.434-0.565-0.762-0.999-0.983c-0.434-0.223-1.06-0.334-1.877-0.334c-0.797,0-1.595,0.2-2.392,0.599
					c-0.797,0.398-1.595,0.905-2.392,1.521c0.03,0.232,0.055,0.503,0.076,0.811c0.02,0.308,0.03,0.613,0.03,0.916v10.822h-2.846
					v-9.627c0-0.747-0.033-1.455-0.099-2.127c-0.065-0.671-0.204-1.208-0.416-1.611c-0.232-0.435-0.565-0.76-0.999-0.977
					c-0.434-0.217-1.06-0.326-1.877-0.326c-0.777,0-1.557,0.192-2.339,0.576c-0.782,0.383-1.562,0.872-2.338,1.468v12.624h-2.846
					v-16.908h2.846v1.877c0.888-0.736,1.773-1.312,2.657-1.725c0.883-0.414,1.824-0.621,2.823-0.621c1.15,0,2.126,0.242,2.929,0.727
					c0.802,0.484,1.4,1.155,1.793,2.014c1.15-0.969,2.2-1.668,3.148-2.097c0.948-0.429,1.962-0.644,3.042-0.644
					c1.856,0,3.227,0.563,4.109,1.688c0.883,1.126,1.325,2.697,1.325,4.715v10.973H230.96z"/>
				<path fill="#FFFFFF" d="M246.99,183.837h-0.151c-0.424-0.101-0.835-0.174-1.233-0.22c-0.399-0.045-0.871-0.067-1.416-0.067
					c-0.878,0-1.726,0.194-2.543,0.582c-0.817,0.389-1.604,0.891-2.361,1.506v12.004h-2.846v-16.908h2.846v2.498
					c1.13-0.908,2.126-1.552,2.99-1.93c0.862-0.379,1.743-0.568,2.641-0.568c0.494,0,0.853,0.014,1.075,0.038
					c0.222,0.025,0.555,0.073,0.999,0.144L246.99,183.837L246.99,183.837z"/>
				<path fill="#FFFFFF" d="M257.185,182.319h-8.895v-1.845c0.618-0.529,1.237-1.059,1.857-1.588c0.62-0.529,1.199-1.056,1.734-1.58
					c1.13-1.094,1.903-1.963,2.321-2.607c0.417-0.645,0.626-1.34,0.626-2.087c0-0.683-0.225-1.217-0.675-1.602
					c-0.45-0.386-1.078-0.578-1.884-0.578c-0.536,0-1.115,0.094-1.739,0.282s-1.232,0.477-1.827,0.865h-0.088v-1.854
					c0.418-0.206,0.976-0.395,1.672-0.564c0.697-0.171,1.373-0.256,2.025-0.256c1.347,0,2.403,0.324,3.168,0.975
					c0.765,0.651,1.147,1.531,1.147,2.643c0,0.501-0.063,0.967-0.19,1.399c-0.127,0.432-0.313,0.843-0.56,1.23
					c-0.229,0.365-0.499,0.724-0.808,1.077s-0.684,0.744-1.125,1.174c-0.63,0.617-1.28,1.216-1.951,1.796
					c-0.67,0.579-1.297,1.116-1.879,1.61h7.068v1.51H257.185z"/>
			</g>
		</g>
		<g>
			<g enable-background="new    ">
				<path fill="#FFFFFF" d="M315.432,160.878h-3.466c-1.786-2.049-3.174-4.283-4.163-6.705c-0.988-2.422-1.482-5.152-1.482-8.189
					c0-3.037,0.494-5.768,1.482-8.189c0.989-2.422,2.376-4.656,4.163-6.705h3.466v0.151c-0.816,0.736-1.597,1.587-2.338,2.551
					c-0.742,0.964-1.431,2.086-2.065,3.368c-0.605,1.24-1.099,2.608-1.477,4.102c-0.379,1.493-0.567,3.067-0.567,4.723
					c0,1.726,0.184,3.305,0.552,4.738c0.369,1.433,0.865,2.795,1.491,4.086c0.604,1.242,1.296,2.364,2.073,3.368
					c0.777,1.004,1.555,1.854,2.331,2.551V160.878L315.432,160.878z"/>
				<path fill="#FFFFFF" d="M345.13,154.642h-2.846v-9.627c0-0.727-0.033-1.428-0.099-2.104c-0.065-0.677-0.204-1.217-0.417-1.62
					c-0.231-0.434-0.564-0.762-0.999-0.983c-0.434-0.223-1.06-0.334-1.877-0.334c-0.797,0-1.595,0.2-2.392,0.599
					c-0.797,0.398-1.595,0.905-2.392,1.521c0.029,0.232,0.055,0.503,0.075,0.811c0.021,0.308,0.03,0.613,0.03,0.916v10.822h-2.846
					v-9.627c0-0.747-0.033-1.455-0.1-2.127c-0.064-0.671-0.203-1.208-0.416-1.611c-0.231-0.435-0.564-0.76-0.998-0.977
					c-0.435-0.217-1.061-0.326-1.878-0.326c-0.776,0-1.557,0.192-2.339,0.576c-0.781,0.383-1.562,0.872-2.338,1.468v12.624h-2.846
					v-16.908h2.846v1.877c0.889-0.736,1.773-1.312,2.657-1.725c0.883-0.414,1.824-0.621,2.823-0.621
					c1.149,0,2.126,0.242,2.929,0.727c0.802,0.484,1.4,1.155,1.793,2.014c1.15-0.969,2.2-1.668,3.148-2.097
					c0.947-0.429,1.962-0.644,3.042-0.644c1.855,0,3.227,0.563,4.108,1.688c0.883,1.126,1.325,2.697,1.325,4.715v10.973H345.13z"/>
				<path fill="#FFFFFF" d="M361.16,140.837h-0.151c-0.424-0.101-0.835-0.174-1.232-0.22c-0.399-0.045-0.87-0.067-1.415-0.067
					c-0.879,0-1.728,0.194-2.543,0.582c-0.818,0.389-1.605,0.891-2.362,1.506v12.004h-2.846v-16.908h2.846v2.498
					c1.13-0.908,2.126-1.552,2.99-1.93c0.861-0.379,1.743-0.568,2.642-0.568c0.494,0,0.854,0.014,1.074,0.038
					c0.222,0.025,0.555,0.073,0.999,0.144L361.16,140.837L361.16,140.837z"/>
				<path fill="#FFFFFF" d="M376.342,153.583c-0.948,0.454-1.849,0.808-2.701,1.06c-0.854,0.252-1.759,0.379-2.717,0.379
					c-1.222,0-2.342-0.18-3.36-0.538c-1.02-0.357-1.893-0.9-2.618-1.627c-0.736-0.727-1.308-1.645-1.71-2.755
					c-0.404-1.11-0.605-2.406-0.605-3.891c0-2.765,0.759-4.934,2.277-6.508c1.518-1.574,3.523-2.361,6.018-2.361
					c0.969,0,1.919,0.136,2.854,0.408c0.934,0.272,1.789,0.605,2.564,0.999v3.163h-0.149c-0.868-0.676-1.765-1.195-2.688-1.559
					c-0.923-0.363-1.824-0.545-2.701-0.545c-1.614,0-2.89,0.543-3.821,1.627c-0.935,1.085-1.4,2.677-1.4,4.775
					c0,2.039,0.456,3.605,1.37,4.7c0.913,1.096,2.197,1.643,3.853,1.643c0.574,0,1.16-0.075,1.757-0.228
					c0.595-0.15,1.13-0.348,1.604-0.59c0.414-0.212,0.803-0.437,1.166-0.674c0.363-0.236,0.65-0.441,0.863-0.613h0.149v3.135
					H376.342z"/>
				<path fill="#FFFFFF" d="M388.527,145.984c0,3.037-0.495,5.768-1.484,8.189c-0.988,2.422-2.376,4.656-4.162,6.705h-3.467v-0.151
					c0.777-0.696,1.557-1.547,2.339-2.551c0.782-1.004,1.471-2.126,2.066-3.368c0.626-1.291,1.122-2.653,1.49-4.086
					c0.368-1.434,0.554-3.013,0.554-4.738c0-1.655-0.188-3.229-0.562-4.723c-0.373-1.494-0.868-2.861-1.482-4.102
					c-0.637-1.282-1.324-2.404-2.066-3.368c-0.741-0.964-1.521-1.814-2.339-2.551v-0.151h3.467c1.786,2.049,3.174,4.283,4.162,6.705
					C388.032,140.216,388.527,142.947,388.527,145.984z"/>
				<path fill="#FFFFFF" d="M401.584,139.319h-8.896v-1.845c0.616-0.529,1.235-1.059,1.856-1.588
					c0.621-0.529,1.198-1.056,1.734-1.58c1.129-1.094,1.902-1.963,2.319-2.607c0.418-0.645,0.627-1.34,0.627-2.087
					c0-0.683-0.226-1.217-0.675-1.602c-0.45-0.386-1.078-0.578-1.885-0.578c-0.535,0-1.114,0.094-1.738,0.282
					c-0.623,0.188-1.231,0.477-1.826,0.865h-0.089v-1.854c0.418-0.206,0.977-0.395,1.674-0.564c0.696-0.171,1.371-0.256,2.024-0.256
					c1.347,0,2.402,0.324,3.168,0.975c0.766,0.65,1.146,1.531,1.146,2.643c0,0.501-0.063,0.967-0.189,1.399
					c-0.126,0.432-0.313,0.843-0.561,1.23c-0.229,0.365-0.498,0.724-0.809,1.077c-0.309,0.353-0.684,0.744-1.125,1.174
					c-0.629,0.617-1.278,1.216-1.95,1.796c-0.671,0.579-1.297,1.116-1.88,1.61h7.069v1.51H401.584z"/>
			</g>
			<g enable-background="new    ">
				<path fill="#FFFFFF" d="M327.275,197.642h-15.259v-3.164c1.061-0.908,2.122-1.816,3.187-2.725
					c1.064-0.908,2.056-1.811,2.975-2.709c1.938-1.877,3.265-3.368,3.981-4.473c0.716-1.105,1.075-2.299,1.075-3.58
					c0-1.171-0.387-2.086-1.158-2.747c-0.771-0.661-1.85-0.991-3.231-0.991c-0.918,0-1.913,0.161-2.981,0.484
					c-1.07,0.322-2.114,0.816-3.133,1.482h-0.151v-3.178c0.716-0.354,1.673-0.677,2.868-0.969c1.195-0.293,2.354-0.439,3.474-0.439
					c2.312,0,4.122,0.558,5.435,1.673c1.312,1.115,1.968,2.626,1.968,4.533c0,0.857-0.108,1.657-0.325,2.399
					c-0.217,0.741-0.538,1.445-0.961,2.111c-0.395,0.626-0.855,1.241-1.385,1.847c-0.529,0.605-1.174,1.276-1.931,2.013
					c-1.08,1.061-2.194,2.087-3.345,3.081s-2.225,1.915-3.224,2.763h12.125v2.589H327.275z"/>
				<path fill="#FFFFFF" d="M356.761,197.642h-2.846v-9.627c0-0.727-0.033-1.428-0.098-2.104c-0.066-0.677-0.205-1.217-0.417-1.62
					c-0.232-0.434-0.565-0.762-0.999-0.983c-0.435-0.223-1.061-0.334-1.877-0.334c-0.798,0-1.596,0.2-2.393,0.599
					c-0.797,0.398-1.595,0.905-2.392,1.521c0.029,0.232,0.055,0.503,0.076,0.811c0.02,0.308,0.029,0.613,0.029,0.916v10.822H343
					v-9.627c0-0.747-0.033-1.455-0.099-2.127c-0.065-0.671-0.204-1.208-0.416-1.611c-0.232-0.435-0.565-0.76-0.999-0.977
					c-0.435-0.217-1.061-0.326-1.877-0.326c-0.777,0-1.558,0.192-2.34,0.576c-0.781,0.383-1.562,0.872-2.338,1.468v12.624h-2.846
					v-16.908h2.846v1.877c0.889-0.736,1.773-1.312,2.657-1.725c0.883-0.414,1.824-0.621,2.823-0.621
					c1.149,0,2.126,0.242,2.929,0.727c0.802,0.484,1.4,1.155,1.793,2.014c1.15-0.969,2.2-1.668,3.148-2.097
					c0.948-0.429,1.962-0.644,3.042-0.644c1.855,0,3.227,0.563,4.108,1.688c0.884,1.126,1.325,2.697,1.325,4.715v10.973H356.761z"/>
				<path fill="#FFFFFF" d="M372.791,183.837h-0.151c-0.424-0.101-0.835-0.174-1.232-0.22c-0.399-0.045-0.87-0.067-1.415-0.067
					c-0.879,0-1.728,0.194-2.543,0.582c-0.818,0.389-1.605,0.891-2.361,1.506v12.004h-2.846v-16.908h2.846v2.498
					c1.13-0.908,2.126-1.552,2.989-1.93c0.862-0.379,1.743-0.568,2.642-0.568c0.494,0,0.854,0.014,1.074,0.038
					c0.222,0.025,0.555,0.073,0.999,0.144L372.791,183.837L372.791,183.837z"/>
				<path fill="#FFFFFF" d="M382.986,182.319h-8.896v-1.845c0.617-0.529,1.236-1.059,1.857-1.588
					c0.621-0.529,1.197-1.056,1.733-1.58c1.129-1.094,1.903-1.963,2.32-2.607c0.418-0.645,0.627-1.34,0.627-2.087
					c0-0.683-0.226-1.217-0.675-1.602c-0.45-0.386-1.078-0.578-1.885-0.578c-0.535,0-1.114,0.094-1.738,0.282
					c-0.623,0.188-1.232,0.477-1.826,0.865h-0.089v-1.854c0.418-0.206,0.976-0.395,1.673-0.564c0.697-0.171,1.372-0.256,2.025-0.256
					c1.347,0,2.401,0.324,3.168,0.975c0.765,0.65,1.146,1.531,1.146,2.643c0,0.501-0.063,0.967-0.188,1.399
					c-0.126,0.432-0.313,0.843-0.562,1.23c-0.229,0.365-0.498,0.724-0.808,1.077s-0.685,0.744-1.125,1.174
					c-0.629,0.617-1.279,1.216-1.95,1.796c-0.671,0.579-1.297,1.116-1.88,1.61h7.069v1.51H382.986z"/>
			</g>
		</g>
		<g>
			<g enable-background="new    ">
				<path fill="#FFFFFF" d="M471.053,154.642h-2.846v-9.627c0-0.727-0.032-1.428-0.098-2.104c-0.066-0.677-0.205-1.217-0.416-1.62
					c-0.232-0.434-0.566-0.762-1-0.983c-0.435-0.223-1.06-0.334-1.877-0.334c-0.798,0-1.595,0.2-2.392,0.599
					c-0.798,0.398-1.596,0.905-2.393,1.521c0.031,0.232,0.056,0.503,0.076,0.811c0.02,0.308,0.029,0.613,0.029,0.916v10.822h-2.846
					v-9.627c0-0.747-0.032-1.455-0.099-2.127c-0.065-0.671-0.204-1.208-0.416-1.611c-0.232-0.435-0.565-0.76-0.999-0.977
					c-0.436-0.217-1.061-0.326-1.877-0.326c-0.777,0-1.558,0.192-2.339,0.576c-0.781,0.383-1.563,0.872-2.339,1.468v12.624h-2.846
					v-16.908h2.846v1.877c0.888-0.736,1.773-1.312,2.656-1.725c0.883-0.414,1.824-0.621,2.822-0.621c1.149,0,2.127,0.242,2.93,0.727
					c0.802,0.484,1.4,1.155,1.793,2.014c1.15-0.969,2.2-1.668,3.148-2.097c0.949-0.429,1.963-0.644,3.043-0.644
					c1.855,0,3.227,0.563,4.108,1.688c0.884,1.126,1.324,2.697,1.324,4.715v10.973H471.053z"/>
				<path fill="#FFFFFF" d="M489.035,153.583c-0.948,0.454-1.85,0.808-2.701,1.06c-0.854,0.252-1.759,0.379-2.717,0.379
					c-1.223,0-2.342-0.18-3.361-0.538c-1.02-0.357-1.892-0.9-2.618-1.627c-0.736-0.727-1.308-1.645-1.71-2.755
					c-0.403-1.11-0.604-2.406-0.604-3.891c0-2.765,0.759-4.934,2.276-6.508c1.521-1.574,3.524-2.361,6.019-2.361
					c0.969,0,1.92,0.136,2.853,0.408c0.935,0.272,1.788,0.605,2.565,0.999v3.163h-0.15c-0.869-0.676-1.764-1.195-2.688-1.559
					c-0.923-0.363-1.824-0.545-2.701-0.545c-1.615,0-2.889,0.543-3.822,1.627c-0.934,1.085-1.399,2.677-1.399,4.775
					c0,2.039,0.457,3.605,1.37,4.7c0.912,1.096,2.195,1.643,3.853,1.643c0.574,0,1.16-0.075,1.756-0.228
					c0.595-0.15,1.129-0.348,1.604-0.59c0.414-0.212,0.803-0.437,1.166-0.674c0.362-0.236,0.649-0.441,0.862-0.613h0.15v3.135
					H489.035z"/>
				<path fill="#FFFFFF" d="M500.199,139.319h-8.896v-1.845c0.617-0.529,1.236-1.059,1.857-1.588c0.62-0.529,1.197-1.056,1.733-1.58
					c1.13-1.094,1.902-1.963,2.32-2.607c0.418-0.644,0.627-1.34,0.627-2.087c0-0.683-0.227-1.217-0.676-1.602
					c-0.449-0.386-1.078-0.578-1.885-0.578c-0.535,0-1.113,0.094-1.738,0.282c-0.623,0.188-1.232,0.477-1.826,0.865h-0.088v-1.854
					c0.418-0.206,0.976-0.395,1.672-0.564c0.697-0.171,1.373-0.256,2.025-0.256c1.348,0,2.402,0.324,3.168,0.975
					c0.766,0.651,1.146,1.531,1.146,2.643c0,0.501-0.063,0.967-0.188,1.399c-0.126,0.432-0.313,0.843-0.562,1.23
					c-0.229,0.365-0.498,0.724-0.807,1.077s-0.684,0.744-1.125,1.174c-0.629,0.617-1.279,1.216-1.951,1.796
					c-0.67,0.579-1.297,1.116-1.879,1.61h7.068v1.51H500.199z"/>
			</g>
			<g enable-background="new    ">
				<path fill="#FFFFFF" d="M476.275,197.642h-15.259v-3.164c1.06-0.908,2.121-1.816,3.187-2.725
					c1.064-0.909,2.057-1.811,2.975-2.709c1.938-1.877,3.265-3.368,3.98-4.473c0.717-1.105,1.075-2.299,1.075-3.58
					c0-1.171-0.387-2.086-1.158-2.747c-0.771-0.661-1.85-0.991-3.231-0.991c-0.918,0-1.912,0.161-2.981,0.484
					c-1.069,0.322-2.113,0.816-3.133,1.482h-0.151v-3.178c0.716-0.354,1.673-0.677,2.868-0.969c1.196-0.293,2.354-0.439,3.475-0.439
					c2.312,0,4.121,0.558,5.435,1.673c1.312,1.115,1.968,2.626,1.968,4.533c0,0.857-0.108,1.657-0.325,2.399
					c-0.217,0.741-0.537,1.445-0.961,2.111c-0.396,0.626-0.855,1.241-1.386,1.847c-0.529,0.605-1.173,1.276-1.931,2.013
					c-1.08,1.061-2.193,2.087-3.345,3.081s-2.226,1.915-3.225,2.763h12.125L476.275,197.642L476.275,197.642z"/>
			</g>
		</g>
	</g>
</g>
</svg>
