<?xml version="1.0" encoding="utf-8"?>
<!-- Generator: Adobe Illustrator 16.0.0, SVG Export Plug-In . SVG Version: 6.00 Build 0)  -->
<!DOCTYPE svg PUBLIC "-//W3C//DTD SVG 1.1//EN" "http://www.w3.org/Graphics/SVG/1.1/DTD/svg11.dtd">
<svg version="1.1" id="Layer_3" xmlns="http://www.w3.org/2000/svg" xmlns:xlink="http://www.w3.org/1999/xlink" x="0px" y="0px"
	 width="864px" height="406px" viewBox="0 0 864 406" enable-background="new 0 0 864 406" xml:space="preserve">
<path fill="#291159" fill-opacity="0.8" stroke="#FFFFFF" stroke-width="3" stroke-miterlimit="10" d="M864,398.761
	c0,3.998-3.893,7.239-8.699,7.239H8.699C3.895,406,0,402.759,0,398.761V7.238C0,3.238,3.896,0,8.699,0h846.602
	C860.108,0,864,3.238,864,7.238V398.761L864,398.761z"/>
<g>
	<g id="step26White_2_">
		<g>
			<g enable-background="new    ">
				<path fill="#FFFFFF" d="M180.132,225.305h-11.398v6.357h9.793v2.664h-9.793v10.854h-2.997v-22.539h14.395V225.305z"/>
				<path fill="#FFFFFF" d="M189.448,249.885c-0.553,0.266-1.078,0.471-1.575,0.619c-0.498,0.146-1.025,0.221-1.584,0.221
					c-0.712,0-1.365-0.105-1.959-0.314s-1.103-0.525-1.526-0.947c-0.43-0.424-0.762-0.959-0.997-1.607
					c-0.235-0.646-0.353-1.402-0.353-2.268c0-1.611,0.442-2.877,1.328-3.795c0.885-0.918,2.055-1.377,3.508-1.377
					c0.564,0,1.119,0.08,1.663,0.238c0.544,0.16,1.043,0.354,1.496,0.584v1.844h-0.088c-0.506-0.395-1.028-0.697-1.566-0.908
					c-0.538-0.213-1.063-0.318-1.575-0.318c-0.941,0-1.684,0.316-2.228,0.949c-0.544,0.631-0.816,1.561-0.816,2.783
					c0,1.189,0.266,2.102,0.799,2.74c0.532,0.639,1.281,0.957,2.246,0.957c0.335,0,0.676-0.043,1.024-0.133
					c0.347-0.088,0.659-0.201,0.935-0.344c0.241-0.123,0.468-0.254,0.68-0.393s0.379-0.258,0.503-0.357h0.088V249.885z"/>
				<path fill="#FFFFFF" d="M222.501,233.344h-17.952v-2.422h17.952V233.344z M222.501,239.701h-17.952v-2.422h17.952V239.701z"/>
				<path fill="#FFFFFF" d="M256.876,235.721h-19.829v-1.816h19.829V235.721z"/>
				<path fill="#FFFFFF" d="M276.584,235.721h-19.829v-1.816h19.829V235.721z"/>
				<path fill="#FFFFFF" d="M296.292,235.721h-19.829v-1.816h19.829V235.721z"/>
				<path fill="#FFFFFF" d="M316,235.721h-19.829v-1.816H316V235.721z"/>
				<path fill="#FFFFFF" d="M335.708,235.721h-19.829v-1.816h19.829V235.721z"/>
				<path fill="#FFFFFF" d="M355.416,235.721h-19.829v-1.816h19.829V235.721z"/>
				<path fill="#FFFFFF" d="M375.124,235.721h-19.829v-1.816h19.829V235.721z"/>
				<path fill="#FFFFFF" d="M394.832,235.721h-19.829v-1.816h19.829V235.721z"/>
				<path fill="#FFFFFF" d="M414.54,235.721h-19.829v-1.816h19.829V235.721z"/>
				<path fill="#FFFFFF" d="M434.248,235.721h-19.829v-1.816h19.829V235.721z"/>
				<path fill="#FFFFFF" d="M453.956,235.721h-19.829v-1.816h19.829V235.721z"/>
				<path fill="#FFFFFF" d="M473.664,235.721h-19.829v-1.816h19.829V235.721z"/>
				<path fill="#FFFFFF" d="M493.372,235.721h-19.829v-1.816h19.829V235.721z"/>
				<path fill="#FFFFFF" d="M513.08,235.721h-19.829v-1.816h19.829V235.721z"/>
				<path fill="#FFFFFF" d="M532.788,235.721h-19.829v-1.816h19.829V235.721z"/>
				<path fill="#FFFFFF" d="M552.496,235.721h-19.829v-1.816h19.829V235.721z"/>
				<path fill="#FFFFFF" d="M572.204,235.721h-19.829v-1.816h19.829V235.721z"/>
				<path fill="#FFFFFF" d="M591.912,235.721h-19.829v-1.816h19.829V235.721z"/>
				<path fill="#FFFFFF" d="M611.62,235.721h-19.829v-1.816h19.829V235.721z"/>
				<path fill="#FFFFFF" d="M631.328,235.721h-19.829v-1.816h19.829V235.721z"/>
				<path fill="#FFFFFF" d="M651.036,235.721h-19.829v-1.816h19.829V235.721z"/>
				<path fill="#FFFFFF" d="M670.744,235.721h-19.829v-1.816h19.829V235.721z"/>
				<path fill="#FFFFFF" d="M690.452,235.721h-19.829v-1.816h19.829V235.721z"/>
			</g>
			<g>
				<g enable-background="new    ">
					<path fill="#FFFFFF" d="M251.042,229.637h-3.466c-1.786-2.049-3.174-4.283-4.163-6.705c-0.989-2.422-1.483-5.152-1.483-8.189
						s0.494-5.768,1.483-8.189c0.989-2.422,2.376-4.657,4.163-6.706h3.466v0.151c-0.817,0.736-1.597,1.587-2.338,2.551
						c-0.742,0.964-1.431,2.085-2.066,3.369c-0.605,1.24-1.098,2.607-1.476,4.102c-0.379,1.492-0.568,3.066-0.568,4.723
						c0,1.725,0.184,3.305,0.552,4.738c0.369,1.432,0.865,2.795,1.491,4.086c0.605,1.242,1.296,2.363,2.074,3.367
						c0.777,1.004,1.554,1.855,2.331,2.551V229.637z"/>
					<path fill="#FFFFFF" d="M271.128,217.119c0,1.947-0.759,3.566-2.278,4.857c-1.519,1.293-3.428,1.938-5.729,1.938
						c-2.442,0-4.387-0.631-5.835-1.891c-1.448-1.262-2.172-2.877-2.172-4.844c0-1.252,0.363-2.385,1.09-3.398
						c0.727-1.016,1.75-1.82,3.073-2.414v-0.092c-1.211-0.646-2.106-1.352-2.687-2.119c-0.58-0.768-0.87-1.725-0.87-2.875
						c0-1.695,0.696-3.109,2.089-4.239c1.393-1.131,3.164-1.695,5.313-1.695c2.25,0,4.046,0.539,5.389,1.619
						c1.342,1.08,2.013,2.452,2.013,4.118c0,1.02-0.318,2.02-0.954,3.004s-1.569,1.754-2.8,2.309v0.092
						c1.413,0.605,2.492,1.352,3.239,2.24C270.754,214.615,271.128,215.746,271.128,217.119z M268.01,217.406
						c0-0.93-0.204-1.674-0.613-2.232c-0.408-0.561-1.208-1.123-2.399-1.688c-0.475-0.223-0.994-0.43-1.559-0.621
						c-0.565-0.191-1.317-0.459-2.255-0.803c-0.908,0.494-1.637,1.166-2.187,2.014c-0.55,0.848-0.825,1.807-0.825,2.875
						c0,1.363,0.469,2.488,1.408,3.377c0.938,0.887,2.129,1.332,3.572,1.332c1.473,0,2.651-0.379,3.535-1.137
						C267.568,219.768,268.01,218.729,268.01,217.406z M267.541,206.113c0-1.08-0.417-1.939-1.249-2.58
						c-0.833-0.641-1.895-0.961-3.187-0.961c-1.271,0-2.313,0.303-3.126,0.908c-0.812,0.606-1.218,1.422-1.218,2.452
						c0,0.727,0.205,1.355,0.613,1.885c0.409,0.529,1.027,1.002,1.854,1.416c0.373,0.182,0.911,0.418,1.612,0.711
						c0.701,0.293,1.385,0.535,2.051,0.727c0.999-0.666,1.69-1.357,2.074-2.074C267.349,207.879,267.541,207.053,267.541,206.113z"
						/>
					<path fill="#FFFFFF" d="M280.422,223.4h-3.618v-4.314h3.618V223.4z"/>
					<path fill="#FFFFFF" d="M301.916,210.775c0,1.969-0.225,3.754-0.673,5.359c-0.449,1.604-1.128,2.971-2.036,4.102
						c-0.918,1.15-2.068,2.039-3.451,2.664s-3.007,0.939-4.874,0.939c-0.524,0-1.02-0.029-1.483-0.084
						c-0.464-0.057-0.878-0.145-1.241-0.266V220.6h0.151c0.293,0.152,0.706,0.295,1.241,0.432s1.13,0.205,1.786,0.205
						c2.23,0,3.979-0.67,5.245-2.006c1.266-1.338,2-3.182,2.202-5.533c-0.938,0.564-1.821,0.969-2.648,1.211
						c-0.828,0.242-1.731,0.363-2.71,0.363c-0.929,0-1.769-0.09-2.521-0.271s-1.506-0.535-2.263-1.061
						c-0.888-0.615-1.557-1.398-2.006-2.346c-0.449-0.949-0.673-2.084-0.673-3.406c0-2.301,0.756-4.172,2.27-5.616
						c1.514-1.443,3.361-2.164,5.541-2.164c1.09,0,2.099,0.169,3.027,0.507c0.928,0.338,1.74,0.845,2.437,1.521
						c0.857,0.838,1.519,1.915,1.983,3.233C301.685,206.984,301.916,208.688,301.916,210.775z M298.859,210.125
						c0-1.564-0.162-2.82-0.484-3.77c-0.323-0.947-0.768-1.686-1.332-2.209c-0.475-0.455-0.984-0.78-1.529-0.977
						c-0.545-0.196-1.135-0.295-1.771-0.295c-1.453,0-2.601,0.454-3.443,1.362c-0.843,0.908-1.264,2.186-1.264,3.83
						c0,0.959,0.137,1.74,0.408,2.346c0.273,0.605,0.732,1.137,1.378,1.59c0.454,0.313,0.954,0.521,1.499,0.629
						c0.545,0.105,1.15,0.158,1.816,0.158c0.787,0,1.584-0.105,2.391-0.318c0.808-0.211,1.564-0.52,2.271-0.922
						c0.01-0.213,0.022-0.422,0.037-0.629C298.852,210.713,298.859,210.447,298.859,210.125z"/>
					<path fill="#FFFFFF" d="M321.82,217.119c0,1.947-0.76,3.566-2.278,4.857c-1.519,1.293-3.429,1.938-5.729,1.938
						c-2.441,0-4.387-0.631-5.835-1.891c-1.448-1.262-2.172-2.877-2.172-4.844c0-1.252,0.363-2.385,1.09-3.398
						c0.727-1.016,1.751-1.82,3.073-2.414v-0.092c-1.211-0.646-2.107-1.352-2.688-2.119s-0.87-1.725-0.87-2.875
						c0-1.695,0.696-3.109,2.089-4.239c1.393-1.131,3.164-1.695,5.313-1.695c2.251,0,4.047,0.539,5.389,1.619
						c1.343,1.08,2.014,2.452,2.014,4.118c0,1.02-0.318,2.02-0.953,3.004c-0.637,0.984-1.569,1.754-2.801,2.309v0.092
						c1.413,0.605,2.492,1.352,3.239,2.24C321.447,214.615,321.82,215.746,321.82,217.119z M318.702,217.406
						c0-0.93-0.204-1.674-0.613-2.232c-0.408-0.561-1.208-1.123-2.399-1.688c-0.474-0.223-0.993-0.43-1.559-0.621
						s-1.316-0.459-2.256-0.803c-0.908,0.494-1.637,1.166-2.187,2.014c-0.551,0.848-0.825,1.807-0.825,2.875
						c0,1.363,0.469,2.488,1.408,3.377c0.938,0.887,2.129,1.332,3.572,1.332c1.473,0,2.65-0.379,3.534-1.137
						C318.261,219.768,318.702,218.729,318.702,217.406z M318.232,206.113c0-1.08-0.416-1.939-1.248-2.58
						c-0.833-0.641-1.895-0.961-3.187-0.961c-1.271,0-2.313,0.303-3.126,0.908c-0.813,0.606-1.219,1.422-1.219,2.452
						c0,0.727,0.205,1.355,0.613,1.885c0.409,0.529,1.027,1.002,1.854,1.416c0.373,0.182,0.91,0.418,1.612,0.711
						c0.701,0.293,1.385,0.535,2.051,0.727c0.999-0.666,1.69-1.357,2.074-2.074C318.041,207.879,318.232,207.053,318.232,206.113z"
						/>
					<path fill="#FFFFFF" d="M341.529,217.119c0,1.947-0.76,3.566-2.278,4.857c-1.519,1.293-3.429,1.938-5.729,1.938
						c-2.441,0-4.387-0.631-5.835-1.891c-1.448-1.262-2.172-2.877-2.172-4.844c0-1.252,0.363-2.385,1.09-3.398
						c0.727-1.016,1.751-1.82,3.073-2.414v-0.092c-1.211-0.646-2.107-1.352-2.688-2.119s-0.87-1.725-0.87-2.875
						c0-1.695,0.696-3.109,2.089-4.239c1.393-1.131,3.164-1.695,5.313-1.695c2.251,0,4.047,0.539,5.389,1.619
						c1.343,1.08,2.014,2.452,2.014,4.118c0,1.02-0.318,2.02-0.953,3.004c-0.637,0.984-1.569,1.754-2.801,2.309v0.092
						c1.413,0.605,2.492,1.352,3.239,2.24C341.156,214.615,341.529,215.746,341.529,217.119z M338.411,217.406
						c0-0.93-0.204-1.674-0.613-2.232c-0.408-0.561-1.208-1.123-2.399-1.688c-0.474-0.223-0.993-0.43-1.559-0.621
						s-1.316-0.459-2.256-0.803c-0.908,0.494-1.637,1.166-2.187,2.014c-0.551,0.848-0.825,1.807-0.825,2.875
						c0,1.363,0.469,2.488,1.408,3.377c0.938,0.887,2.129,1.332,3.572,1.332c1.473,0,2.65-0.379,3.534-1.137
						C337.97,219.768,338.411,218.729,338.411,217.406z M337.941,206.113c0-1.08-0.416-1.939-1.248-2.58
						c-0.833-0.641-1.895-0.961-3.187-0.961c-1.271,0-2.313,0.303-3.126,0.908c-0.813,0.606-1.219,1.422-1.219,2.452
						c0,0.727,0.205,1.355,0.613,1.885c0.409,0.529,1.027,1.002,1.854,1.416c0.373,0.182,0.91,0.418,1.612,0.711
						c0.701,0.293,1.385,0.535,2.051,0.727c0.999-0.666,1.69-1.357,2.074-2.074C337.75,207.879,337.941,207.053,337.941,206.113z"/>
					<path fill="#FFFFFF" d="M371.711,223.4h-3.588l-4.798-6.494l-4.829,6.494h-3.314l6.6-8.432l-6.539-8.477h3.588l4.768,6.389
						l4.783-6.389h3.33l-6.645,8.326L371.711,223.4z"/>
					<path fill="#FFFFFF" d="M399.926,223.4h-12.2V221.1h4.692v-15.107h-4.692v-2.059c0.636,0,1.317-0.053,2.044-0.158
						s1.276-0.26,1.649-0.461c0.464-0.253,0.83-0.573,1.098-0.962c0.267-0.388,0.421-0.91,0.462-1.566h2.346V221.1h4.602V223.4z"/>
					<path fill="#FFFFFF" d="M420.891,212.123c0,4.047-0.633,7.016-1.899,8.908s-3.231,2.838-5.896,2.838
						c-2.704,0-4.68-0.959-5.926-2.875c-1.247-1.918-1.869-4.865-1.869-8.84c0-4.008,0.63-6.967,1.892-8.878
						c1.262-1.912,3.229-2.868,5.903-2.868c2.704,0,4.68,0.971,5.926,2.913C420.268,205.264,420.891,208.197,420.891,212.123z
						 M416.91,218.996c0.354-0.818,0.593-1.779,0.719-2.885s0.189-2.434,0.189-3.988c0-1.533-0.063-2.865-0.189-3.996
						s-0.371-2.088-0.734-2.875c-0.353-0.777-0.835-1.363-1.445-1.756c-0.61-0.395-1.395-0.591-2.354-0.591
						c-0.948,0-1.733,0.196-2.354,0.591c-0.621,0.393-1.113,0.989-1.477,1.786c-0.343,0.746-0.577,1.721-0.703,2.922
						c-0.127,1.201-0.189,2.518-0.189,3.951c0,1.574,0.056,2.891,0.166,3.949c0.111,1.061,0.349,2.008,0.712,2.846
						c0.333,0.787,0.805,1.389,1.415,1.803c0.61,0.412,1.421,0.619,2.43,0.619c0.948,0,1.735-0.195,2.361-0.59
						C416.083,220.389,416.567,219.793,416.91,218.996z"/>
					<path fill="#FFFFFF" d="M433.232,200.717c0,1.146-0.132,2.188-0.394,3.123c-0.262,0.936-0.657,1.734-1.187,2.393
						c-0.535,0.67-1.206,1.188-2.012,1.553c-0.807,0.365-1.754,0.547-2.842,0.547c-0.306,0-0.595-0.016-0.865-0.049
						c-0.271-0.031-0.512-0.082-0.724-0.154v-1.686h0.089c0.17,0.09,0.411,0.172,0.724,0.252c0.312,0.08,0.658,0.119,1.041,0.119
						c1.3,0,2.319-0.389,3.058-1.17c0.738-0.779,1.166-1.854,1.284-3.224c-0.547,0.329-1.062,0.564-1.544,0.706
						c-0.482,0.141-1.01,0.211-1.58,0.211c-0.541,0-1.031-0.053-1.469-0.158c-0.438-0.106-0.879-0.312-1.319-0.618
						c-0.519-0.358-0.908-0.814-1.17-1.367c-0.262-0.554-0.393-1.215-0.393-1.986c0-1.341,0.441-2.433,1.324-3.273
						c0.882-0.842,1.959-1.262,3.229-1.262c0.636,0,1.224,0.099,1.765,0.295c0.541,0.197,1.015,0.493,1.421,0.887
						c0.5,0.489,0.886,1.117,1.156,1.885S433.232,199.5,433.232,200.717z M431.449,200.337c0-0.912-0.094-1.645-0.282-2.197
						s-0.447-0.982-0.776-1.288c-0.276-0.266-0.574-0.455-0.892-0.569c-0.317-0.115-0.662-0.172-1.032-0.172
						c-0.848,0-1.517,0.265-2.008,0.794s-0.736,1.273-0.736,2.232c0,0.559,0.079,1.015,0.238,1.368
						c0.158,0.353,0.426,0.661,0.803,0.927c0.265,0.182,0.556,0.304,0.873,0.366c0.318,0.062,0.671,0.092,1.06,0.092
						c0.459,0,0.924-0.062,1.395-0.185c0.471-0.124,0.911-0.304,1.323-0.539c0.006-0.123,0.014-0.245,0.022-0.366
						C431.445,200.68,431.449,200.526,431.449,200.337z"/>
					<path fill="#FFFFFF" d="M445.762,214.742c0,3.037-0.495,5.768-1.484,8.189c-0.988,2.422-2.376,4.656-4.162,6.705h-3.467v-0.152
						c0.777-0.695,1.557-1.547,2.339-2.551s1.471-2.125,2.066-3.367c0.626-1.291,1.122-2.654,1.491-4.086
						c0.368-1.434,0.553-3.014,0.553-4.738c0-1.656-0.188-3.23-0.561-4.723c-0.373-1.494-0.868-2.861-1.483-4.102
						c-0.636-1.283-1.324-2.404-2.066-3.369c-0.741-0.964-1.521-1.814-2.339-2.551v-0.151h3.467
						c1.786,2.049,3.174,4.284,4.162,6.706C445.267,208.975,445.762,211.705,445.762,214.742z"/>
					<path fill="#FFFFFF" d="M460.353,229.637h-3.466c-1.786-2.049-3.174-4.283-4.163-6.705c-0.988-2.422-1.482-5.152-1.482-8.189
						s0.494-5.768,1.482-8.189c0.989-2.422,2.377-4.657,4.163-6.706h3.466v0.151c-0.816,0.736-1.597,1.587-2.338,2.551
						c-0.742,0.964-1.431,2.085-2.066,3.369c-0.605,1.24-1.098,2.607-1.476,4.102c-0.379,1.492-0.567,3.066-0.567,4.723
						c0,1.725,0.184,3.305,0.552,4.738c0.368,1.432,0.865,2.795,1.491,4.086c0.605,1.242,1.297,2.363,2.074,3.367
						c0.776,1.004,1.554,1.855,2.33,2.551V229.637z"/>
					<path fill="#FFFFFF" d="M478.986,223.4h-12.2V221.1h4.692v-15.107h-4.692v-2.059c0.636,0,1.317-0.053,2.044-0.158
						s1.276-0.26,1.649-0.461c0.464-0.253,0.83-0.573,1.098-0.962c0.267-0.388,0.421-0.91,0.462-1.566h2.346V221.1h4.602V223.4z"/>
					<path fill="#FFFFFF" d="M489.733,223.4h-3.617v-4.314h3.617V223.4z"/>
					<path fill="#FFFFFF" d="M511.59,216.09c0,2.289-0.754,4.16-2.263,5.607s-3.357,2.172-5.548,2.172
						c-1.109,0-2.119-0.172-3.027-0.514c-0.908-0.344-1.71-0.854-2.406-1.529c-0.868-0.838-1.536-1.947-2.006-3.33
						c-0.469-1.383-0.703-3.049-0.703-4.996c0-1.998,0.214-3.768,0.643-5.313c0.429-1.543,1.113-2.916,2.051-4.117
						c0.889-1.14,2.034-2.031,3.437-2.671s3.037-0.962,4.904-0.962c0.596,0,1.095,0.025,1.499,0.076
						c0.403,0.051,0.812,0.142,1.226,0.272v2.892h-0.151c-0.282-0.152-0.709-0.296-1.279-0.432c-0.57-0.137-1.152-0.205-1.748-0.205
						c-2.17,0-3.9,0.68-5.191,2.036c-1.292,1.357-2.044,3.191-2.256,5.504c0.848-0.516,1.683-0.906,2.505-1.174s1.773-0.4,2.854-0.4
						c0.959,0,1.804,0.088,2.535,0.264c0.731,0.178,1.481,0.533,2.248,1.068c0.888,0.615,1.557,1.393,2.006,2.33
						C511.365,213.607,511.59,214.746,511.59,216.09z M508.518,216.211c0-0.939-0.139-1.717-0.416-2.332
						c-0.278-0.615-0.734-1.15-1.37-1.604c-0.464-0.324-0.979-0.535-1.544-0.637s-1.155-0.15-1.771-0.15
						c-0.857,0-1.654,0.1-2.391,0.303c-0.737,0.201-1.494,0.514-2.271,0.938c-0.02,0.223-0.035,0.438-0.045,0.643
						c-0.01,0.207-0.016,0.467-0.016,0.781c0,1.594,0.164,2.852,0.492,3.775s0.779,1.652,1.355,2.188
						c0.464,0.443,0.966,0.77,1.506,0.977c0.539,0.207,1.127,0.311,1.764,0.311c1.463,0,2.613-0.447,3.451-1.34
						C508.099,219.17,508.518,217.885,508.518,216.211z"/>
					<path fill="#FFFFFF" d="M530.936,212.123c0,4.047-0.633,7.016-1.899,8.908s-3.231,2.838-5.896,2.838
						c-2.704,0-4.68-0.959-5.926-2.875c-1.247-1.918-1.869-4.865-1.869-8.84c0-4.008,0.63-6.967,1.892-8.878
						c1.262-1.912,3.229-2.868,5.903-2.868c2.704,0,4.68,0.971,5.926,2.913C530.313,205.264,530.936,208.197,530.936,212.123z
						 M526.955,218.996c0.354-0.818,0.593-1.779,0.719-2.885s0.189-2.434,0.189-3.988c0-1.533-0.063-2.865-0.189-3.996
						s-0.371-2.088-0.734-2.875c-0.353-0.777-0.835-1.363-1.445-1.756c-0.61-0.395-1.395-0.591-2.354-0.591
						c-0.948,0-1.733,0.196-2.354,0.591c-0.621,0.393-1.113,0.989-1.477,1.786c-0.343,0.746-0.577,1.721-0.703,2.922
						c-0.127,1.201-0.189,2.518-0.189,3.951c0,1.574,0.056,2.891,0.166,3.949c0.111,1.061,0.349,2.008,0.712,2.846
						c0.333,0.787,0.805,1.389,1.415,1.803c0.61,0.412,1.421,0.619,2.43,0.619c0.948,0,1.735-0.195,2.361-0.59
						C526.128,220.389,526.612,219.793,526.955,218.996z"/>
					<path fill="#FFFFFF" d="M550.674,223.4h-15.258v-3.164c1.059-0.908,2.121-1.816,3.186-2.725s2.057-1.811,2.975-2.709
						c1.938-1.877,3.265-3.369,3.98-4.473c0.717-1.105,1.075-2.299,1.075-3.58c0-1.172-0.386-2.086-1.158-2.748
						c-0.771-0.661-1.849-0.991-3.231-0.991c-0.918,0-1.912,0.161-2.982,0.484c-1.069,0.323-2.113,0.817-3.133,1.483h-0.151V201.8
						c0.717-0.354,1.673-0.677,2.868-0.969c1.196-0.293,2.354-0.439,3.475-0.439c2.311,0,4.122,0.558,5.434,1.673
						s1.968,2.626,1.968,4.533c0,0.857-0.108,1.658-0.325,2.4c-0.218,0.74-0.537,1.445-0.961,2.111
						c-0.395,0.625-0.855,1.24-1.386,1.846c-0.529,0.605-1.173,1.277-1.93,2.014c-1.08,1.061-2.194,2.086-3.345,3.08
						s-2.226,1.916-3.225,2.764h12.125V223.4z"/>
					<path fill="#FFFFFF" d="M581.023,223.4h-3.588l-4.798-6.494l-4.829,6.494h-3.314l6.6-8.432l-6.539-8.477h3.588l4.768,6.389
						l4.783-6.389h3.33l-6.645,8.326L581.023,223.4z"/>
					<path fill="#FFFFFF" d="M609.238,223.4h-12.2V221.1h4.692v-15.107h-4.692v-2.059c0.636,0,1.317-0.053,2.044-0.158
						s1.276-0.26,1.649-0.461c0.464-0.253,0.83-0.573,1.098-0.962c0.267-0.388,0.421-0.91,0.462-1.566h2.346V221.1h4.602V223.4z"/>
					<path fill="#FFFFFF" d="M630.201,212.123c0,4.047-0.633,7.016-1.899,8.908s-3.231,2.838-5.896,2.838
						c-2.704,0-4.68-0.959-5.926-2.875c-1.247-1.918-1.869-4.865-1.869-8.84c0-4.008,0.63-6.967,1.892-8.878
						c1.262-1.912,3.229-2.868,5.903-2.868c2.704,0,4.68,0.971,5.926,2.913C629.578,205.264,630.201,208.197,630.201,212.123z
						 M626.221,218.996c0.354-0.818,0.593-1.779,0.719-2.885s0.189-2.434,0.189-3.988c0-1.533-0.063-2.865-0.189-3.996
						s-0.371-2.088-0.734-2.875c-0.353-0.777-0.835-1.363-1.445-1.756c-0.61-0.395-1.395-0.591-2.354-0.591
						c-0.948,0-1.733,0.196-2.354,0.591c-0.621,0.393-1.113,0.989-1.477,1.786c-0.343,0.746-0.577,1.721-0.703,2.922
						c-0.127,1.201-0.189,2.518-0.189,3.951c0,1.574,0.056,2.891,0.166,3.949c0.111,1.061,0.349,2.008,0.712,2.846
						c0.333,0.787,0.805,1.389,1.415,1.803c0.61,0.412,1.421,0.619,2.43,0.619c0.948,0,1.735-0.195,2.361-0.59
						C625.394,220.389,625.878,219.793,626.221,218.996z"/>
					<path fill="#FFFFFF" d="M639.103,203.126h-5.506v-1.598h5.506V203.126z"/>
					<path fill="#FFFFFF" d="M650.019,208.076h-7.113v-1.342h2.735v-8.806h-2.735v-1.2c0.371,0,0.768-0.031,1.191-0.093
						s0.744-0.151,0.962-0.269c0.271-0.147,0.484-0.334,0.64-0.561c0.156-0.227,0.246-0.531,0.27-0.914h1.367v11.842h2.684V208.076z
						"/>
					<path fill="#FFFFFF" d="M662.241,200.717c0,1.146-0.132,2.188-0.394,3.123c-0.262,0.936-0.657,1.734-1.187,2.393
						c-0.535,0.67-1.206,1.188-2.012,1.553c-0.807,0.365-1.754,0.547-2.842,0.547c-0.306,0-0.595-0.016-0.865-0.049
						c-0.271-0.031-0.512-0.082-0.724-0.154v-1.686h0.089c0.17,0.09,0.411,0.172,0.724,0.252c0.312,0.08,0.658,0.119,1.041,0.119
						c1.3,0,2.319-0.389,3.058-1.17c0.738-0.779,1.166-1.854,1.284-3.224c-0.547,0.329-1.062,0.564-1.544,0.706
						c-0.482,0.141-1.01,0.211-1.58,0.211c-0.541,0-1.031-0.053-1.469-0.158c-0.438-0.106-0.879-0.312-1.319-0.618
						c-0.519-0.358-0.908-0.814-1.17-1.367c-0.262-0.554-0.393-1.215-0.393-1.986c0-1.341,0.441-2.433,1.324-3.273
						c0.882-0.842,1.959-1.262,3.229-1.262c0.636,0,1.224,0.099,1.765,0.295c0.541,0.197,1.015,0.493,1.421,0.887
						c0.5,0.489,0.886,1.117,1.156,1.885S662.241,199.5,662.241,200.717z M660.458,200.337c0-0.912-0.094-1.645-0.282-2.197
						s-0.447-0.982-0.776-1.288c-0.276-0.266-0.574-0.455-0.892-0.569c-0.317-0.115-0.662-0.172-1.032-0.172
						c-0.848,0-1.517,0.265-2.008,0.794s-0.736,1.273-0.736,2.232c0,0.559,0.079,1.015,0.238,1.368
						c0.158,0.353,0.426,0.661,0.803,0.927c0.265,0.182,0.556,0.304,0.873,0.366c0.318,0.062,0.671,0.092,1.06,0.092
						c0.459,0,0.924-0.062,1.395-0.185c0.471-0.124,0.911-0.304,1.323-0.539c0.006-0.123,0.014-0.245,0.022-0.366
						C660.454,200.68,660.458,200.526,660.458,200.337z"/>
					<path fill="#FFFFFF" d="M674.77,214.742c0,3.037-0.495,5.768-1.484,8.189c-0.988,2.422-2.376,4.656-4.162,6.705h-3.467v-0.152
						c0.777-0.695,1.557-1.547,2.339-2.551s1.471-2.125,2.066-3.367c0.626-1.291,1.122-2.654,1.491-4.086
						c0.368-1.434,0.553-3.014,0.553-4.738c0-1.656-0.188-3.23-0.561-4.723c-0.373-1.494-0.868-2.861-1.483-4.102
						c-0.636-1.283-1.324-2.404-2.066-3.369c-0.741-0.964-1.521-1.814-2.339-2.551v-0.151h3.467
						c1.786,2.049,3.174,4.284,4.162,6.706C674.274,208.975,674.77,211.705,674.77,214.742z"/>
					<path fill="#FFFFFF" d="M687.825,208.076h-8.896v-1.844c0.617-0.529,1.236-1.059,1.857-1.588s1.198-1.057,1.734-1.581
						c1.129-1.094,1.903-1.963,2.32-2.607c0.418-0.645,0.627-1.34,0.627-2.087c0-0.683-0.226-1.217-0.675-1.602
						c-0.45-0.386-1.078-0.578-1.885-0.578c-0.535,0-1.114,0.094-1.738,0.282c-0.623,0.188-1.232,0.477-1.826,0.865h-0.089v-1.854
						c0.418-0.206,0.976-0.395,1.673-0.564c0.697-0.171,1.372-0.256,2.025-0.256c1.347,0,2.402,0.324,3.168,0.975
						c0.765,0.65,1.146,1.531,1.146,2.643c0,0.501-0.063,0.967-0.189,1.399s-0.313,0.843-0.561,1.23
						c-0.229,0.365-0.498,0.724-0.808,1.077c-0.309,0.353-0.684,0.744-1.125,1.174c-0.629,0.618-1.279,1.215-1.95,1.795
						s-1.297,1.117-1.88,1.611h7.069V208.076z"/>
				</g>
				<g enable-background="new    ">
					<path fill="#FFFFFF" d="M361.042,279.637h-3.466c-1.786-2.049-3.174-4.283-4.163-6.705c-0.989-2.422-1.483-5.152-1.483-8.189
						s0.494-5.768,1.483-8.189c0.989-2.422,2.376-4.656,4.163-6.705h3.466v0.15c-0.817,0.736-1.597,1.588-2.338,2.551
						c-0.742,0.965-1.431,2.086-2.066,3.369c-0.605,1.24-1.098,2.607-1.476,4.102c-0.379,1.492-0.568,3.066-0.568,4.723
						c0,1.725,0.184,3.305,0.552,4.738c0.369,1.432,0.865,2.795,1.491,4.086c0.605,1.242,1.296,2.363,2.074,3.367
						c0.777,1.004,1.554,1.855,2.331,2.551V279.637z"/>
					<path fill="#FFFFFF" d="M380.961,273.4h-15.258v-3.164c1.06-0.908,2.122-1.816,3.186-2.725
						c1.065-0.908,2.056-1.811,2.975-2.709c1.938-1.877,3.264-3.369,3.981-4.473c0.716-1.105,1.075-2.299,1.075-3.58
						c0-1.172-0.386-2.086-1.158-2.748c-0.771-0.66-1.849-0.99-3.231-0.99c-0.918,0-1.913,0.16-2.982,0.484
						c-1.07,0.322-2.114,0.816-3.133,1.482h-0.151v-3.178c0.716-0.354,1.673-0.678,2.868-0.969c1.196-0.293,2.354-0.439,3.474-0.439
						c2.311,0,4.122,0.557,5.434,1.672c1.312,1.115,1.968,2.627,1.968,4.533c0,0.857-0.108,1.658-0.325,2.4
						c-0.217,0.74-0.538,1.445-0.961,2.111c-0.394,0.625-0.855,1.24-1.385,1.846c-0.529,0.605-1.173,1.277-1.93,2.014
						c-1.08,1.061-2.195,2.086-3.345,3.08s-2.225,1.916-3.224,2.764h12.125V273.4z"/>
					<path fill="#FFFFFF" d="M390.422,273.4h-3.618v-4.314h3.618V273.4z"/>
					<path fill="#FFFFFF" d="M412.279,266.09c0,2.289-0.754,4.16-2.263,5.607s-3.357,2.172-5.548,2.172
						c-1.109,0-2.119-0.172-3.027-0.514c-0.908-0.344-1.71-0.854-2.406-1.529c-0.868-0.838-1.536-1.947-2.006-3.33
						c-0.469-1.383-0.703-3.049-0.703-4.996c0-1.998,0.214-3.768,0.643-5.313c0.429-1.543,1.113-2.916,2.051-4.117
						c0.889-1.141,2.034-2.031,3.437-2.672s3.037-0.961,4.904-0.961c0.596,0,1.095,0.025,1.499,0.076
						c0.403,0.051,0.812,0.141,1.226,0.271v2.893h-0.151c-0.282-0.152-0.709-0.297-1.279-0.432c-0.57-0.137-1.152-0.205-1.748-0.205
						c-2.17,0-3.9,0.68-5.191,2.035c-1.292,1.357-2.044,3.191-2.256,5.504c0.848-0.516,1.683-0.906,2.505-1.174s1.773-0.4,2.854-0.4
						c0.959,0,1.804,0.088,2.535,0.264c0.731,0.178,1.481,0.533,2.248,1.068c0.888,0.615,1.557,1.393,2.006,2.33
						C412.055,263.607,412.279,264.746,412.279,266.09z M409.207,266.211c0-0.939-0.139-1.717-0.416-2.332
						c-0.278-0.615-0.734-1.15-1.37-1.604c-0.464-0.324-0.979-0.535-1.544-0.637s-1.155-0.15-1.771-0.15
						c-0.857,0-1.654,0.1-2.391,0.303c-0.737,0.201-1.494,0.514-2.271,0.938c-0.02,0.223-0.035,0.438-0.045,0.643
						c-0.01,0.207-0.016,0.467-0.016,0.781c0,1.594,0.164,2.852,0.492,3.775s0.779,1.652,1.355,2.188
						c0.464,0.443,0.966,0.77,1.506,0.977c0.539,0.207,1.127,0.311,1.764,0.311c1.463,0,2.613-0.447,3.451-1.34
						C408.788,269.17,409.207,267.885,409.207,266.211z"/>
					<path fill="#FFFFFF" d="M432.168,267.059h-3.345v6.342h-2.906v-6.342h-10.792v-3.482l10.913-12.715h2.785v13.775h3.345V267.059
						z M425.917,264.637v-10.172l-8.733,10.172H425.917z"/>
					<path fill="#FFFFFF" d="M462.004,273.4h-3.588l-4.798-6.494l-4.829,6.494h-3.314l6.6-8.432l-6.539-8.477h3.588l4.768,6.389
						l4.783-6.389h3.33l-6.645,8.326L462.004,273.4z"/>
					<path fill="#FFFFFF" d="M490.219,273.4h-12.2V271.1h4.692v-15.107h-4.692v-2.059c0.636,0,1.317-0.053,2.044-0.158
						s1.276-0.26,1.649-0.461c0.464-0.254,0.83-0.574,1.098-0.963c0.267-0.387,0.421-0.91,0.462-1.566h2.346V271.1h4.602V273.4z"/>
					<path fill="#FFFFFF" d="M511.182,262.123c0,4.047-0.633,7.016-1.899,8.908s-3.231,2.838-5.896,2.838
						c-2.704,0-4.68-0.959-5.926-2.875c-1.247-1.918-1.869-4.865-1.869-8.84c0-4.008,0.63-6.967,1.892-8.879
						s3.229-2.867,5.903-2.867c2.704,0,4.68,0.971,5.926,2.912C510.559,255.264,511.182,258.197,511.182,262.123z M507.201,268.996
						c0.354-0.818,0.593-1.779,0.719-2.885s0.189-2.434,0.189-3.988c0-1.533-0.063-2.865-0.189-3.996s-0.371-2.088-0.734-2.875
						c-0.353-0.777-0.835-1.363-1.445-1.756c-0.61-0.395-1.395-0.592-2.354-0.592c-0.948,0-1.733,0.197-2.354,0.592
						c-0.621,0.393-1.113,0.988-1.477,1.785c-0.343,0.746-0.577,1.721-0.703,2.922c-0.127,1.201-0.189,2.518-0.189,3.951
						c0,1.574,0.056,2.891,0.166,3.949c0.111,1.061,0.349,2.008,0.712,2.846c0.333,0.787,0.805,1.389,1.415,1.803
						c0.61,0.412,1.421,0.619,2.43,0.619c0.948,0,1.735-0.195,2.361-0.59C506.374,270.389,506.858,269.793,507.201,268.996z"/>
					<path fill="#FFFFFF" d="M520.083,253.127h-5.506v-1.598h5.506V253.127z"/>
					<path fill="#FFFFFF" d="M530.999,258.076h-7.113v-1.342h2.735v-8.807h-2.735v-1.199c0.371,0,0.768-0.031,1.191-0.094
						c0.424-0.061,0.744-0.15,0.962-0.268c0.271-0.148,0.484-0.334,0.64-0.561c0.156-0.227,0.246-0.531,0.27-0.914h1.367v11.842
						h2.684V258.076z"/>
					<path fill="#FFFFFF" d="M543.133,253.902c0,0.611-0.111,1.197-0.335,1.756s-0.529,1.029-0.918,1.412
						c-0.424,0.412-0.928,0.729-1.514,0.949c-0.585,0.221-1.263,0.33-2.034,0.33c-0.718,0-1.409-0.074-2.073-0.225
						c-0.665-0.15-1.227-0.33-1.686-0.543v-1.861h0.123c0.482,0.307,1.048,0.566,1.694,0.781c0.647,0.215,1.283,0.322,1.906,0.322
						c0.418,0,0.822-0.059,1.214-0.178c0.391-0.117,0.739-0.322,1.046-0.617c0.259-0.252,0.454-0.557,0.587-0.908
						c0.132-0.354,0.198-0.762,0.198-1.227c0-0.453-0.078-0.836-0.234-1.148c-0.155-0.311-0.372-0.561-0.648-0.75
						c-0.306-0.223-0.678-0.381-1.116-0.473c-0.438-0.09-0.928-0.137-1.47-0.137c-0.518,0-1.016,0.035-1.495,0.107
						c-0.479,0.07-0.893,0.141-1.24,0.211v-6.768h7.907v1.543h-6.204v3.494c0.253-0.023,0.512-0.041,0.776-0.053
						c0.266-0.012,0.494-0.018,0.688-0.018c0.712,0,1.336,0.061,1.871,0.182s1.026,0.334,1.474,0.641
						c0.471,0.322,0.835,0.74,1.095,1.252C543.004,252.49,543.133,253.133,543.133,253.902z"/>
					<path fill="#FFFFFF" d="M555.75,264.742c0,3.037-0.495,5.768-1.484,8.189c-0.988,2.422-2.376,4.656-4.162,6.705h-3.467v-0.152
						c0.777-0.695,1.557-1.547,2.339-2.551s1.471-2.125,2.066-3.367c0.626-1.291,1.122-2.654,1.491-4.086
						c0.368-1.434,0.553-3.014,0.553-4.738c0-1.656-0.188-3.23-0.561-4.723c-0.373-1.494-0.868-2.861-1.483-4.102
						c-0.636-1.283-1.324-2.404-2.066-3.369c-0.741-0.963-1.521-1.814-2.339-2.551v-0.15h3.467c1.786,2.049,3.174,4.283,4.162,6.705
						C555.255,258.975,555.75,261.705,555.75,264.742z"/>
					<path fill="#FFFFFF" d="M568.806,258.076h-8.896v-1.844c0.617-0.529,1.236-1.059,1.857-1.588s1.198-1.057,1.734-1.58
						c1.129-1.094,1.903-1.963,2.32-2.607c0.418-0.645,0.627-1.34,0.627-2.088c0-0.682-0.226-1.217-0.675-1.602
						c-0.45-0.385-1.078-0.578-1.885-0.578c-0.535,0-1.114,0.094-1.738,0.283c-0.623,0.188-1.232,0.477-1.826,0.865h-0.089v-1.854
						c0.418-0.207,0.976-0.395,1.673-0.564c0.697-0.172,1.372-0.256,2.025-0.256c1.347,0,2.402,0.324,3.168,0.975
						c0.765,0.65,1.146,1.531,1.146,2.643c0,0.5-0.063,0.967-0.189,1.398c-0.127,0.434-0.313,0.844-0.561,1.23
						c-0.229,0.365-0.498,0.725-0.808,1.078c-0.309,0.352-0.684,0.744-1.125,1.174c-0.629,0.617-1.279,1.215-1.95,1.795
						s-1.297,1.117-1.88,1.611h7.069V258.076z"/>
				</g>
			</g>
		</g>
		<g enable-background="new    ">
			<path fill="#FFFFFF" d="M222.926,320.088h-17.952v-2.422h17.952V320.088z M222.926,326.445h-17.952v-2.422h17.952V326.445z"/>
			<path fill="#FFFFFF" d="M253.245,321.07c0.484,0.436,0.883,0.98,1.196,1.635c0.313,0.656,0.469,1.504,0.469,2.543
				c0,1.029-0.187,1.975-0.561,2.832c-0.373,0.857-0.897,1.604-1.574,2.24c-0.756,0.705-1.647,1.229-2.671,1.566
				c-1.024,0.338-2.147,0.506-3.368,0.506c-1.251,0-2.482-0.148-3.693-0.445s-2.205-0.623-2.982-0.977v-3.164h0.227
				c0.857,0.566,1.867,1.035,3.027,1.408s2.28,0.561,3.36,0.561c0.636,0,1.312-0.107,2.028-0.318
				c0.717-0.213,1.297-0.525,1.741-0.939c0.464-0.443,0.81-0.932,1.036-1.467c0.228-0.535,0.341-1.211,0.341-2.029
				c0-0.807-0.129-1.475-0.386-2.006c-0.258-0.529-0.613-0.945-1.067-1.248c-0.454-0.313-1.004-0.527-1.65-0.643
				c-0.646-0.117-1.342-0.176-2.088-0.176h-1.363v-2.512h1.061c1.533,0,2.757-0.32,3.67-0.961s1.37-1.576,1.37-2.809
				c0-0.545-0.116-1.021-0.349-1.43c-0.231-0.408-0.555-0.744-0.969-1.008c-0.434-0.262-0.897-0.443-1.393-0.545
				c-0.494-0.1-1.054-0.15-1.68-0.15c-0.959,0-1.978,0.172-3.058,0.514c-1.08,0.344-2.099,0.828-3.058,1.453h-0.151v-3.162
				c0.717-0.354,1.673-0.68,2.868-0.977c1.196-0.297,2.354-0.447,3.475-0.447c1.1,0,2.068,0.102,2.906,0.303
				c0.837,0.203,1.594,0.525,2.27,0.969c0.727,0.484,1.277,1.07,1.65,1.756c0.373,0.688,0.561,1.488,0.561,2.406
				c0,1.252-0.442,2.346-1.325,3.277c-0.883,0.934-1.925,1.521-3.126,1.764v0.213c0.484,0.08,1.04,0.25,1.666,0.506
				C252.281,320.367,252.812,320.688,253.245,321.07z"/>
			<path fill="#FFFFFF" d="M272.953,321.07c0.484,0.436,0.883,0.98,1.196,1.635c0.313,0.656,0.469,1.504,0.469,2.543
				c0,1.029-0.187,1.975-0.561,2.832c-0.373,0.857-0.897,1.604-1.574,2.24c-0.756,0.705-1.647,1.229-2.671,1.566
				c-1.024,0.338-2.147,0.506-3.368,0.506c-1.251,0-2.482-0.148-3.693-0.445s-2.205-0.623-2.982-0.977v-3.164h0.228
				c0.857,0.566,1.867,1.035,3.027,1.408s2.28,0.561,3.36,0.561c0.636,0,1.312-0.107,2.028-0.318
				c0.717-0.213,1.297-0.525,1.741-0.939c0.464-0.443,0.81-0.932,1.036-1.467c0.228-0.535,0.341-1.211,0.341-2.029
				c0-0.807-0.129-1.475-0.386-2.006c-0.258-0.529-0.613-0.945-1.067-1.248c-0.454-0.313-1.004-0.527-1.65-0.643
				c-0.646-0.117-1.342-0.176-2.088-0.176h-1.363v-2.512h1.061c1.533,0,2.757-0.32,3.67-0.961s1.37-1.576,1.37-2.809
				c0-0.545-0.116-1.021-0.349-1.43c-0.231-0.408-0.555-0.744-0.969-1.008c-0.434-0.262-0.897-0.443-1.393-0.545
				c-0.494-0.1-1.054-0.15-1.68-0.15c-0.959,0-1.978,0.172-3.058,0.514c-1.08,0.344-2.099,0.828-3.058,1.453h-0.151v-3.162
				c0.717-0.354,1.673-0.68,2.868-0.977c1.196-0.297,2.354-0.447,3.475-0.447c1.1,0,2.068,0.102,2.906,0.303
				c0.837,0.203,1.594,0.525,2.27,0.969c0.727,0.484,1.277,1.07,1.65,1.756c0.373,0.688,0.561,1.488,0.561,2.406
				c0,1.252-0.442,2.346-1.325,3.277c-0.883,0.934-1.925,1.521-3.126,1.764v0.213c0.484,0.08,1.04,0.25,1.666,0.506
				C271.989,320.367,272.52,320.688,272.953,321.07z"/>
			<path fill="#FFFFFF" d="M308.07,331.924h-3.709l-10.686-20.162v20.162h-2.801v-22.539h4.646l9.748,18.406v-18.406h2.801V331.924z
				"/>
		</g>
	</g>
	<g>
		<g enable-background="new    ">
			<path fill="#FFFFFF" d="M185.747,69.81c-0.555,0.242-1.057,0.469-1.506,0.682c-0.449,0.211-1.037,0.434-1.764,0.666
				c-0.616,0.191-1.284,0.355-2.006,0.491c-0.721,0.137-1.516,0.204-2.384,0.204c-1.635,0-3.121-0.229-4.458-0.688
				c-1.337-0.459-2.5-1.178-3.489-2.157c-0.969-0.958-1.726-2.177-2.271-3.655c-0.545-1.478-0.817-3.196-0.817-5.153
				c0-1.857,0.262-3.518,0.787-4.98c0.524-1.463,1.281-2.699,2.271-3.709c0.958-0.979,2.117-1.725,3.474-2.24
				c1.357-0.514,2.863-0.771,4.518-0.771c1.211,0,2.419,0.146,3.625,0.439c1.206,0.292,2.545,0.807,4.019,1.543v3.558h-0.227
				c-1.241-1.039-2.473-1.796-3.693-2.271c-1.221-0.475-2.528-0.711-3.92-0.711c-1.141,0-2.167,0.184-3.08,0.552
				c-0.914,0.369-1.729,0.941-2.445,1.718c-0.696,0.758-1.239,1.714-1.627,2.869c-0.388,1.155-0.583,2.49-0.583,4.004
				c0,1.584,0.214,2.946,0.643,4.086c0.429,1.141,0.981,2.069,1.658,2.785c0.706,0.747,1.531,1.3,2.475,1.658
				c0.943,0.358,1.939,0.537,2.989,0.537c1.443,0,2.795-0.247,4.057-0.742c1.261-0.494,2.442-1.235,3.542-2.225h0.212V69.81z"/>
			<path fill="#FFFFFF" d="M204.168,62.999c0,2.755-0.707,4.93-2.119,6.524c-1.413,1.594-3.305,2.391-5.676,2.391
				c-2.392,0-4.291-0.797-5.699-2.391c-1.407-1.595-2.111-3.77-2.111-6.524s0.704-4.932,2.111-6.531
				c1.408-1.6,3.308-2.399,5.699-2.399c2.371,0,4.263,0.8,5.676,2.399C203.462,58.067,204.168,60.244,204.168,62.999z
				 M201.232,62.999c0-2.189-0.429-3.816-1.287-4.882c-0.858-1.064-2.049-1.597-3.572-1.597c-1.544,0-2.742,0.532-3.595,1.597
				c-0.853,1.065-1.279,2.692-1.279,4.882c0,2.119,0.429,3.727,1.287,4.821c0.857,1.095,2.053,1.643,3.587,1.643
				c1.514,0,2.702-0.543,3.564-1.628C200.801,66.75,201.232,65.138,201.232,62.999z"/>
			<path fill="#FFFFFF" d="M222.59,71.445h-2.846v-1.877c-0.959,0.757-1.877,1.337-2.754,1.74c-0.879,0.404-1.848,0.605-2.907,0.605
				c-1.776,0-3.159-0.542-4.147-1.627c-0.989-1.084-1.483-2.677-1.483-4.775V54.537h2.846v9.627c0,0.858,0.04,1.593,0.121,2.203
				c0.081,0.61,0.252,1.133,0.515,1.566c0.272,0.444,0.625,0.767,1.06,0.969c0.434,0.202,1.064,0.303,1.892,0.303
				c0.736,0,1.541-0.191,2.414-0.575s1.689-0.873,2.445-1.468V54.537h2.846V71.445z"/>
			<path fill="#FFFFFF" d="M231.066,71.445h-2.846V47.892h2.846V71.445z"/>
			<path fill="#FFFFFF" d="M251.107,62.999c0,2.755-0.707,4.93-2.119,6.524c-1.413,1.594-3.306,2.391-5.677,2.391
				c-2.392,0-4.291-0.797-5.699-2.391c-1.407-1.595-2.111-3.77-2.111-6.524s0.704-4.932,2.111-6.531
				c1.408-1.6,3.308-2.399,5.699-2.399c2.371,0,4.264,0.8,5.677,2.399C250.4,58.067,251.107,60.244,251.107,62.999z M248.17,62.999
				c0-2.189-0.429-3.816-1.286-4.882c-0.857-1.064-2.049-1.597-3.572-1.597c-1.544,0-2.742,0.532-3.595,1.597
				c-0.854,1.065-1.279,2.692-1.279,4.882c0,2.119,0.429,3.727,1.287,4.821c0.857,1.095,2.053,1.643,3.587,1.643
				c1.514,0,2.702-0.543,3.564-1.628C247.739,66.75,248.17,65.138,248.17,62.999z"/>
			<path fill="#FFFFFF" d="M280.185,71.445h-2.846v-9.627c0-0.727-0.032-1.428-0.098-2.104c-0.066-0.677-0.205-1.217-0.416-1.62
				c-0.232-0.434-0.565-0.762-1-0.983c-0.434-0.223-1.059-0.334-1.877-0.334c-0.797,0-1.594,0.2-2.391,0.599
				c-0.798,0.398-1.595,0.905-2.393,1.521c0.031,0.232,0.056,0.503,0.076,0.811s0.03,0.613,0.03,0.916v10.822h-2.846v-9.627
				c0-0.747-0.033-1.455-0.099-2.127c-0.065-0.671-0.204-1.208-0.416-1.611c-0.232-0.435-0.565-0.76-0.999-0.977
				s-1.06-0.326-1.877-0.326c-0.777,0-1.557,0.192-2.339,0.576c-0.782,0.383-1.562,0.872-2.338,1.468v12.624h-2.846V54.537h2.846
				v1.877c0.888-0.736,1.772-1.312,2.656-1.725c0.883-0.414,1.824-0.621,2.822-0.621c1.15,0,2.127,0.242,2.93,0.727
				c0.802,0.484,1.4,1.155,1.793,2.014c1.15-0.969,2.2-1.668,3.148-2.097c0.949-0.429,1.963-0.644,3.043-0.644
				c1.856,0,3.227,0.563,4.109,1.688c0.883,1.126,1.324,2.697,1.324,4.715V71.445z"/>
			<path fill="#FFFFFF" d="M300.544,62.863c0,1.412-0.199,2.684-0.598,3.814c-0.399,1.13-0.937,2.078-1.612,2.846
				c-0.717,0.797-1.504,1.395-2.361,1.793s-1.802,0.598-2.831,0.598c-0.958,0-1.796-0.113-2.512-0.34
				c-0.717-0.228-1.424-0.532-2.119-0.916l-0.182,0.787h-2.664V47.892h2.846v8.416c0.797-0.656,1.645-1.193,2.543-1.612
				c0.897-0.418,1.906-0.628,3.027-0.628c1.998,0,3.574,0.767,4.729,2.301S300.544,60.067,300.544,62.863z M297.607,62.938
				c0-2.019-0.333-3.55-0.999-4.594c-0.666-1.045-1.74-1.567-3.225-1.567c-0.827,0-1.664,0.18-2.512,0.538s-1.635,0.819-2.361,1.385
				v9.688c0.807,0.363,1.5,0.615,2.081,0.757c0.58,0.142,1.238,0.212,1.976,0.212c1.574,0,2.808-0.517,3.7-1.552
				C297.161,66.77,297.607,65.148,297.607,62.938z"/>
			<path fill="#FFFFFF" d="M334.753,71.445h-3.891l-7.537-8.961h-4.224v8.961h-2.997V48.906h6.313c1.361,0,2.497,0.089,3.405,0.266
				s1.726,0.492,2.452,0.945c0.817,0.516,1.455,1.164,1.915,1.945c0.459,0.782,0.688,1.773,0.688,2.975
				c0,1.625-0.408,2.984-1.227,4.079c-0.816,1.096-1.942,1.92-3.375,2.476L334.753,71.445z M327.745,55.249
				c0-0.646-0.114-1.219-0.341-1.718c-0.228-0.5-0.604-0.921-1.128-1.264c-0.434-0.293-0.948-0.497-1.544-0.613
				s-1.297-0.174-2.104-0.174h-3.526v8.506h3.027c0.948,0,1.776-0.083,2.482-0.249c0.706-0.167,1.307-0.478,1.802-0.931
				c0.453-0.424,0.789-0.911,1.006-1.461S327.745,56.096,327.745,55.249z"/>
			<path fill="#FFFFFF" d="M350.828,63.287h-12.457c0,1.039,0.156,1.944,0.469,2.717c0.313,0.771,0.742,1.405,1.287,1.899
				c0.524,0.484,1.147,0.848,1.869,1.09c0.721,0.242,1.516,0.363,2.384,0.363c1.15,0,2.309-0.229,3.474-0.688
				c1.166-0.459,1.996-0.911,2.49-1.355h0.151v3.104c-0.959,0.403-1.938,0.742-2.937,1.014c-0.999,0.273-2.049,0.409-3.148,0.409
				c-2.806,0-4.995-0.759-6.569-2.278c-1.574-1.519-2.361-3.676-2.361-6.471c0-2.765,0.754-4.96,2.263-6.584
				c1.509-1.625,3.494-2.438,5.957-2.438c2.28,0,4.038,0.666,5.274,1.998s1.854,3.225,1.854,5.676V63.287z M348.059,61.107
				c-0.011-1.494-0.387-2.649-1.128-3.467c-0.742-0.817-1.87-1.227-3.384-1.227c-1.523,0-2.737,0.449-3.64,1.348
				c-0.903,0.898-1.415,2.014-1.536,3.346H348.059z"/>
			<path fill="#FFFFFF" d="M370.021,62.787c0,1.372-0.197,2.626-0.59,3.762c-0.395,1.135-0.949,2.096-1.666,2.883
				c-0.666,0.747-1.45,1.325-2.354,1.733c-0.903,0.409-1.859,0.613-2.868,0.613c-0.878,0-1.673-0.096-2.384-0.288
				c-0.712-0.191-1.436-0.489-2.172-0.893v7.084h-2.846V54.537h2.846v1.771c0.756-0.636,1.606-1.168,2.55-1.597
				s1.95-0.644,3.021-0.644c2.038,0,3.625,0.77,4.76,2.309C369.454,57.916,370.021,60.052,370.021,62.787z M367.085,62.863
				c0-2.039-0.349-3.563-1.044-4.572c-0.697-1.009-1.767-1.514-3.209-1.514c-0.818,0-1.641,0.177-2.468,0.53
				s-1.62,0.817-2.376,1.393v9.581c0.807,0.363,1.5,0.611,2.081,0.742c0.58,0.131,1.238,0.197,1.976,0.197
				c1.584,0,2.82-0.535,3.708-1.605C366.641,66.545,367.085,64.961,367.085,62.863z"/>
			<path fill="#FFFFFF" d="M377.332,71.445h-2.846V47.892h2.846V71.445z"/>
			<path fill="#FFFFFF" d="M396.979,71.445h-2.846v-1.877c-0.958,0.757-1.877,1.337-2.754,1.74
				c-0.879,0.404-1.848,0.605-2.906,0.605c-1.776,0-3.159-0.542-4.148-1.627c-0.988-1.084-1.482-2.677-1.482-4.775V54.537h2.846
				v9.627c0,0.858,0.04,1.593,0.121,2.203c0.08,0.61,0.252,1.133,0.514,1.566c0.273,0.444,0.626,0.767,1.061,0.969
				c0.434,0.202,1.064,0.303,1.892,0.303c0.736,0,1.541-0.191,2.414-0.575s1.688-0.873,2.444-1.468V54.537h2.846V71.445z"/>
			<path fill="#FFFFFF" d="M414.659,66.571c0,1.544-0.638,2.811-1.914,3.8c-1.277,0.988-3.02,1.482-5.23,1.482
				c-1.251,0-2.398-0.148-3.443-0.446c-1.044-0.297-1.92-0.623-2.626-0.976v-3.194h0.151c0.898,0.676,1.897,1.214,2.997,1.612
				s2.154,0.598,3.163,0.598c1.252,0,2.23-0.202,2.938-0.605c0.706-0.403,1.059-1.039,1.059-1.907c0-0.666-0.191-1.171-0.574-1.514
				c-0.384-0.343-1.121-0.636-2.211-0.878c-0.403-0.091-0.931-0.197-1.581-0.318c-0.651-0.121-1.244-0.252-1.778-0.393
				c-1.484-0.395-2.536-0.972-3.156-1.733c-0.621-0.762-0.932-1.698-0.932-2.808c0-0.697,0.145-1.353,0.432-1.969
				c0.288-0.615,0.725-1.165,1.31-1.649c0.565-0.475,1.284-0.85,2.157-1.128c0.872-0.277,1.849-0.416,2.929-0.416
				c1.009,0,2.03,0.124,3.065,0.371c1.034,0.247,1.895,0.547,2.58,0.9v3.043h-0.15c-0.727-0.535-1.61-0.986-2.649-1.355
				c-1.039-0.368-2.059-0.553-3.058-0.553c-1.039,0-1.917,0.2-2.634,0.599s-1.075,0.991-1.075,1.778
				c0,0.696,0.218,1.221,0.651,1.574c0.424,0.354,1.11,0.641,2.059,0.863c0.524,0.121,1.112,0.242,1.764,0.363
				c0.65,0.121,1.193,0.231,1.627,0.332c1.322,0.303,2.341,0.823,3.058,1.56C414.302,64.351,414.659,65.339,414.659,66.571z"/>
			<path fill="#FFFFFF" d="M421.789,51.707h-3.209v-2.951h3.209V51.707z M421.607,71.445h-2.846V54.537h2.846V71.445z"/>
			<path fill="#FFFFFF" d="M441.648,62.999c0,2.755-0.707,4.93-2.119,6.524c-1.413,1.594-3.306,2.391-5.677,2.391
				c-2.392,0-4.291-0.797-5.699-2.391c-1.407-1.595-2.111-3.77-2.111-6.524s0.704-4.932,2.111-6.531
				c1.408-1.6,3.308-2.399,5.699-2.399c2.371,0,4.264,0.8,5.677,2.399C440.941,58.067,441.648,60.244,441.648,62.999z
				 M438.711,62.999c0-2.189-0.429-3.816-1.286-4.882c-0.857-1.064-2.049-1.597-3.572-1.597c-1.544,0-2.742,0.532-3.595,1.597
				c-0.854,1.065-1.279,2.692-1.279,4.882c0,2.119,0.429,3.727,1.287,4.821c0.857,1.095,2.053,1.643,3.587,1.643
				c1.514,0,2.702-0.543,3.564-1.628C438.28,66.75,438.711,65.138,438.711,62.999z"/>
			<path fill="#FFFFFF" d="M460.19,71.445h-2.846v-9.627c0-0.777-0.045-1.506-0.136-2.188c-0.091-0.681-0.257-1.213-0.499-1.597
				c-0.253-0.424-0.616-0.739-1.09-0.946c-0.475-0.206-1.09-0.311-1.848-0.311c-0.776,0-1.589,0.192-2.437,0.576
				c-0.848,0.383-1.66,0.872-2.437,1.468v12.624h-2.846V54.537h2.846v1.877c0.888-0.736,1.806-1.312,2.754-1.725
				c0.949-0.414,1.923-0.621,2.922-0.621c1.826,0,3.219,0.55,4.178,1.65c0.959,1.1,1.438,2.684,1.438,4.752V71.445z"/>
		</g>
		<line fill="none" stroke="#FFFFFF" stroke-width="3" x1="163.324" y1="83.41" x2="464.403" y2="83.41"/>
	</g>
	<g>
		<g>
			<g enable-background="new    ">
				<path fill="#FFFFFF" d="M257.631,126.07h-3.966l-9.089-10.035l-2.283,2.391v7.645h-3.056v-22.539h3.056v11.762l11.156-11.762
					h3.703l-10.262,10.596L257.631,126.07z"/>
				<path fill="#FFFFFF" d="M273.57,125.01c-0.968,0.454-1.886,0.808-2.755,1.06s-1.793,0.379-2.77,0.379
					c-1.245,0-2.387-0.18-3.426-0.538c-1.039-0.357-1.929-0.9-2.669-1.627c-0.751-0.727-1.333-1.645-1.744-2.755
					s-0.617-2.406-0.617-3.891c0-2.765,0.774-4.934,2.322-6.508s3.593-2.361,6.134-2.361c0.987,0,1.957,0.136,2.908,0.408
					c0.952,0.272,1.823,0.605,2.616,0.999v3.163h-0.154c-0.886-0.676-1.798-1.195-2.739-1.559s-1.859-0.545-2.755-0.545
					c-1.646,0-2.944,0.543-3.896,1.627c-0.952,1.085-1.428,2.677-1.428,4.775c0,2.039,0.466,3.605,1.396,4.7
					c0.931,1.096,2.24,1.643,3.927,1.643c0.587,0,1.184-0.075,1.79-0.228c0.607-0.15,1.152-0.348,1.636-0.59
					c0.422-0.212,0.818-0.437,1.188-0.674c0.37-0.236,0.663-0.441,0.88-0.613h0.154V125.01z"/>
				<path fill="#FFFFFF" d="M302.379,132.306h-2.901v-8.144c-0.895,0.757-1.785,1.319-2.669,1.688
					c-0.886,0.368-1.842,0.553-2.87,0.553c-2.048,0-3.681-0.774-4.899-2.323s-1.829-3.686-1.829-6.41
					c0-1.453,0.214-2.737,0.641-3.853s0.99-2.052,1.689-2.808c0.68-0.737,1.477-1.308,2.392-1.711
					c0.916-0.403,1.883-0.605,2.901-0.605c0.926,0,1.746,0.101,2.461,0.303s1.443,0.5,2.184,0.893l0.186-0.727h2.716V132.306z
					 M299.478,121.771v-9.566c-0.803-0.354-1.512-0.601-2.129-0.742c-0.617-0.141-1.286-0.211-2.007-0.211
					c-1.677,0-2.952,0.558-3.826,1.672c-0.875,1.115-1.312,2.651-1.312,4.609c0,1.978,0.353,3.499,1.057,4.563
					c0.705,1.065,1.813,1.597,3.325,1.597c0.844,0,1.688-0.179,2.531-0.537C297.96,122.798,298.747,122.336,299.478,121.771z"/>
				<path fill="#FFFFFF" d="M314.8,131.393h-7.113v-1.342h2.735v-8.807h-2.735v-1.2c0.371,0,0.768-0.031,1.191-0.093
					s0.744-0.151,0.962-0.269c0.271-0.147,0.484-0.334,0.64-0.561c0.156-0.227,0.246-0.531,0.27-0.914h1.367v11.843h2.684V131.393z"
					/>
				<path fill="#FFFFFF" d="M339.912,132.306h-2.901v-8.144c-0.895,0.757-1.785,1.319-2.669,1.688
					c-0.886,0.368-1.842,0.553-2.87,0.553c-2.048,0-3.681-0.774-4.899-2.323s-1.829-3.686-1.829-6.41
					c0-1.453,0.214-2.737,0.641-3.853s0.99-2.052,1.689-2.808c0.68-0.737,1.477-1.308,2.392-1.711
					c0.916-0.403,1.883-0.605,2.901-0.605c0.926,0,1.746,0.101,2.461,0.303s1.443,0.5,2.184,0.893l0.186-0.727h2.716V132.306z
					 M337.011,121.771v-9.566c-0.803-0.354-1.512-0.601-2.129-0.742c-0.617-0.141-1.286-0.211-2.007-0.211
					c-1.677,0-2.952,0.558-3.826,1.672c-0.875,1.115-1.312,2.651-1.312,4.609c0,1.978,0.353,3.499,1.057,4.563
					c0.705,1.065,1.813,1.597,3.325,1.597c0.844,0,1.688-0.179,2.531-0.537C335.493,122.798,336.28,122.336,337.011,121.771z"/>
				<path fill="#FFFFFF" d="M353.082,131.393h-8.896v-1.845c0.617-0.529,1.236-1.059,1.857-1.588s1.198-1.056,1.734-1.58
					c1.129-1.094,1.903-1.963,2.32-2.607c0.418-0.645,0.627-1.34,0.627-2.087c0-0.683-0.226-1.217-0.675-1.602
					c-0.45-0.386-1.078-0.578-1.885-0.578c-0.535,0-1.114,0.094-1.738,0.282c-0.623,0.188-1.232,0.477-1.826,0.865h-0.089V118.8
					c0.418-0.206,0.976-0.395,1.673-0.564c0.697-0.171,1.372-0.256,2.025-0.256c1.347,0,2.402,0.324,3.168,0.975
					c0.765,0.65,1.146,1.531,1.146,2.643c0,0.501-0.063,0.967-0.189,1.399s-0.313,0.843-0.561,1.23
					c-0.229,0.365-0.498,0.724-0.808,1.077c-0.309,0.353-0.684,0.744-1.125,1.174c-0.629,0.617-1.279,1.216-1.95,1.796
					c-0.671,0.579-1.297,1.116-1.88,1.61h7.069V131.393z"/>
			</g>
			<g enable-background="new    ">
				<path fill="#FFFFFF" d="M289.684,159.265h-0.154c-0.432-0.101-0.852-0.174-1.258-0.22c-0.406-0.045-0.887-0.067-1.442-0.067
					c-0.895,0-1.759,0.194-2.592,0.582c-0.834,0.389-1.636,0.891-2.407,1.506v12.004h-2.901v-16.908h2.901v2.498
					c1.151-0.908,2.168-1.552,3.047-1.93c0.88-0.379,1.777-0.568,2.693-0.568c0.504,0,0.869,0.014,1.095,0.038
					c0.227,0.025,0.566,0.073,1.019,0.144V159.265z"/>
				<path fill="#FFFFFF" d="M299.877,157.747h-8.896v-1.845c0.617-0.529,1.236-1.059,1.857-1.588s1.198-1.056,1.734-1.58
					c1.129-1.094,1.903-1.963,2.32-2.607c0.418-0.645,0.627-1.34,0.627-2.087c0-0.683-0.226-1.217-0.675-1.602
					c-0.45-0.386-1.078-0.578-1.885-0.578c-0.535,0-1.114,0.094-1.738,0.282c-0.623,0.188-1.232,0.477-1.826,0.865h-0.089v-1.854
					c0.418-0.206,0.976-0.395,1.673-0.564c0.697-0.171,1.372-0.256,2.025-0.256c1.347,0,2.402,0.324,3.168,0.975
					c0.765,0.65,1.146,1.531,1.146,2.643c0,0.501-0.063,0.967-0.189,1.399s-0.313,0.843-0.561,1.23
					c-0.229,0.365-0.498,0.724-0.808,1.077c-0.309,0.353-0.684,0.744-1.125,1.174c-0.629,0.617-1.279,1.216-1.95,1.796
					c-0.671,0.579-1.297,1.116-1.88,1.61h7.069V157.747z"/>
			</g>
		</g>
		<g>
			<path fill="#FFFFFF" d="M180.576,128.196h-11.398v6.357h9.793v2.664h-9.793v10.853h-2.997v-22.539h14.395V128.196z"/>
			<path fill="#FFFFFF" d="M189.891,152.776c-0.553,0.265-1.078,0.471-1.575,0.618c-0.498,0.147-1.025,0.221-1.584,0.221
				c-0.712,0-1.365-0.104-1.959-0.313c-0.594-0.208-1.103-0.525-1.526-0.949c-0.43-0.423-0.762-0.958-0.997-1.606
				c-0.235-0.647-0.353-1.403-0.353-2.268c0-1.612,0.442-2.876,1.328-3.794c0.885-0.918,2.055-1.376,3.508-1.376
				c0.564,0,1.119,0.079,1.663,0.238c0.544,0.159,1.043,0.353,1.496,0.582v1.845h-0.088c-0.506-0.394-1.028-0.697-1.566-0.909
				c-0.538-0.212-1.063-0.318-1.575-0.318c-0.941,0-1.684,0.316-2.228,0.949c-0.544,0.633-0.816,1.561-0.816,2.784
				c0,1.188,0.266,2.102,0.799,2.74c0.532,0.638,1.281,0.958,2.246,0.958c0.335,0,0.676-0.044,1.024-0.132
				c0.347-0.088,0.659-0.203,0.935-0.344c0.241-0.124,0.468-0.254,0.68-0.393s0.379-0.257,0.503-0.357h0.088V152.776z"/>
			<path fill="#FFFFFF" d="M222.944,136.233h-17.952v-2.422h17.952V136.233z M222.944,142.591h-17.952v-2.422h17.952V142.591z"/>
			<path fill="#FFFFFF" d="M257.32,138.611h-19.829v-1.816h19.829V138.611z"/>
			<path fill="#FFFFFF" d="M277.028,138.611h-19.829v-1.816h19.829V138.611z"/>
			<path fill="#FFFFFF" d="M296.736,138.611h-19.829v-1.816h19.829V138.611z"/>
			<path fill="#FFFFFF" d="M316.444,138.611h-19.829v-1.816h19.829V138.611z"/>
			<path fill="#FFFFFF" d="M336.152,138.611h-19.829v-1.816h19.829V138.611z"/>
			<path fill="#FFFFFF" d="M355.86,138.611h-19.829v-1.816h19.829V138.611z"/>
		</g>
	</g>
</g>
</svg>
