<?xml version="1.0" encoding="utf-8"?>
<!-- Generator: Adobe Illustrator 16.0.0, SVG Export Plug-In . SVG Version: 6.00 Build 0)  -->
<!DOCTYPE svg PUBLIC "-//W3C//DTD SVG 1.1//EN" "http://www.w3.org/Graphics/SVG/1.1/DTD/svg11.dtd">
<svg version="1.1" id="Layer_3" xmlns="http://www.w3.org/2000/svg" xmlns:xlink="http://www.w3.org/1999/xlink" x="0px" y="0px"
	 width="875px" height="460px" viewBox="0 0 875 460" enable-background="new 0 0 875 460" xml:space="preserve">
<path fill="#291159" fill-opacity="0.8" stroke="#FFFFFF" stroke-width="3" stroke-miterlimit="10" d="M872.531,450.487
	c0,4.503-3.922,8.153-8.761,8.153H11.229c-4.838,0-8.76-3.65-8.76-8.153V9.512c0-4.504,3.922-8.152,8.76-8.152h852.542
	c4.839,0,8.761,3.648,8.761,8.152V450.487L872.531,450.487z"/>
<g id="step15White_1_">
	<g>
		<text transform="matrix(1 0 0 1 111.2969 76.9502)" enable-background="new    "><tspan x="0" y="0" fill="#FFFFFF" font-family="'Verdana'" font-size="31">Force of Gravity between two contiguous</tspan><tspan x="0" y="45" fill="#FFFFFF" font-family="'Verdana'" font-size="31">Schwarzchild Protons</tspan></text>
		<line fill="none" stroke="#FFFFFF" stroke-width="3" x1="112.828" y1="86.914" x2="751.053" y2="86.914"/>
		<line fill="none" stroke="#FFFFFF" stroke-width="3" x1="112.828" y1="130.681" x2="447.72" y2="130.681"/>
	</g>
	<g>
		<text transform="matrix(1 0 0 1 121.2217 232.2285)"><tspan x="0" y="0" fill="#FFFFFF" font-family="'Verdana'" font-size="31">F</tspan><tspan x="17.816" y="-14" fill="#FFFFFF" font-family="'Verdana'" font-size="31"> </tspan><tspan x="28.714" y="0" fill="#FFFFFF" font-family="'Verdana'" font-size="31">= </tspan><tspan x="64.982" y="-14" fill="#FFFFFF" font-family="'Verdana'" font-size="31">___</tspan></text>
		<g>
			<text transform="matrix(1 0 0 1 187.3325 215.2275)" fill="#FFFFFF" font-family="'Verdana'" font-size="31">GM</text>
			<text transform="matrix(0.583 0 0 0.583 237.4956 199.9043)" fill="#FFFFFF" font-family="'Verdana'" font-size="31">2</text>
			<text transform="matrix(1 0 0 1 180.2383 257.2275)" fill="#FFFFFF" font-family="'Verdana'" font-size="31">(2r</text>
			<text transform="matrix(0.583 0 0 0.583 227.2529 262.5508)" fill="#FFFFFF" font-family="'Verdana'" font-size="31">p</text>
			<text transform="matrix(1 0 0 1 238.5132 257.2275)" fill="#FFFFFF" font-family="'Verdana'" font-size="31">)</text>
			<text transform="matrix(0.583 0 0 0.583 252.5903 241.9043)" fill="#FFFFFF" font-family="'Verdana'" font-size="31">2</text>
		</g>
	</g>
	<g>
		<text transform="matrix(1 0 0 1 119.2217 373.4189)" fill="#FFFFFF" font-family="'Verdana'" font-size="31">F</text>
		<text transform="matrix(1 0 0 1 137.0376 359.4189)" fill="#FFFFFF" font-family="'Verdana'" font-size="31"> </text>
		<text transform="matrix(1 0 0 1 147.936 373.4189)" fill="#FFFFFF" font-family="'Verdana'" font-size="31">= </text>
		<text transform="matrix(1 0 0 1 184.2036 359.4189)" fill="#FFFFFF" font-family="'Verdana'" font-size="31">________ </text>
		<text transform="matrix(1 0 0 1 352.7661 373.4189)" fill="#FFFFFF" font-family="'Verdana'" font-size="31">= 7.49 x 10</text>
		<text transform="matrix(0.583 0 0 0.583 538.9932 358.0957)" fill="#FFFFFF" font-family="'Verdana'" font-size="31">47</text>
		<text transform="matrix(1 0 0 1 561.9727 373.4189)" fill="#FFFFFF" font-family="'Verdana'" font-size="31"> dynes</text>
		<g>
			<text transform="matrix(1 0 0 1 228.3325 356.418)" fill="#FFFFFF" font-family="'Verdana'" font-size="31">GM</text>
			<text transform="matrix(0.583 0 0 0.583 278.4956 341.0947)" fill="#FFFFFF" font-family="'Verdana'" font-size="31">2</text>
			<text transform="matrix(1 0 0 1 177.7031 400.418)" fill="#FFFFFF" font-family="'Verdana'" font-size="31">(2.64 Fm)</text>
			<text transform="matrix(0.583 0 0 0.583 335.125 385.0947)" fill="#FFFFFF" font-family="'Verdana'" font-size="31">2</text>
		</g>
	</g>
	<g>
		<g>
			<text transform="matrix(1 0 0 1 582.9395 228.1475)" fill="#FFFFFF" font-family="'Verdana'" font-size="34.1">r</text>
			<text transform="matrix(0.583 0 0 0.583 597.4922 233.4707)" fill="#FFFFFF" font-family="'Verdana'" font-size="31">p</text>
			<circle fill="none" stroke="#FFFFFF" stroke-width="3" stroke-miterlimit="10" cx="572.582" cy="203.355" r="63.795"/>
			
				<line fill="none" stroke="#FFFFFF" stroke-width="3" stroke-miterlimit="10" x1="574.271" y1="202.064" x2="636.377" y2="202.064"/>
			<g>
				
					<line fill="none" stroke="#FFFFFF" stroke-width="3" stroke-miterlimit="10" x1="574.271" y1="274.824" x2="636.377" y2="274.824"/>
				
					<line fill="none" stroke="#FFFFFF" stroke-width="3" stroke-miterlimit="10" x1="636.377" y1="274.824" x2="698.482" y2="274.824"/>
				
					<line fill="none" stroke="#FFFFFF" stroke-width="3" stroke-miterlimit="10" x1="575.271" y1="268.324" x2="575.271" y2="281.324"/>
				
					<line fill="none" stroke="#FFFFFF" stroke-width="3" stroke-miterlimit="10" x1="697.482" y1="268.324" x2="697.482" y2="281.324"/>
			</g>
		</g>
		<g>
			<text transform="matrix(1 0 0 1 666.957 228.1475)" fill="#FFFFFF" font-family="'Verdana'" font-size="34.1">r</text>
			<text transform="matrix(0.583 0 0 0.583 681.5088 233.4707)" fill="#FFFFFF" font-family="'Verdana'" font-size="31">p</text>
			<circle fill="none" stroke="#FFFFFF" stroke-width="3" stroke-miterlimit="10" cx="699.908" cy="203.355" r="63.795"/>
			
				<line fill="none" stroke="#FFFFFF" stroke-width="3" stroke-miterlimit="10" x1="634.288" y1="202.064" x2="696.394" y2="202.064"/>
		</g>
		<text transform="matrix(1 0 0 1 615.7949 305.3242)" fill="#FFFFFF" font-family="'Verdana'" font-size="31">2r</text>
		<text transform="matrix(0.583 0 0 0.583 648.7324 310.6475)" fill="#FFFFFF" font-family="'Verdana'" font-size="31">p</text>
	</g>
</g>
</svg>
