<?xml version="1.0" encoding="utf-8"?>
<!-- Generator: Adobe Illustrator 16.0.0, SVG Export Plug-In . SVG Version: 6.00 Build 0)  -->
<!DOCTYPE svg PUBLIC "-//W3C//DTD SVG 1.1//EN" "http://www.w3.org/Graphics/SVG/1.1/DTD/svg11.dtd">
<svg version="1.1" id="Layer_2" xmlns="http://www.w3.org/2000/svg" xmlns:xlink="http://www.w3.org/1999/xlink" x="0px" y="0px"
	 width="1002.92px" height="284px" viewBox="0 0 1002.92 284" enable-background="new 0 0 1002.92 284" xml:space="preserve">
<g id="step5White">
	<path fill="#291159" fill-opacity="0.8" stroke="#FFFFFF" stroke-width="3" stroke-miterlimit="10" d="M1002.92,272
		c0,6.627-5.372,12-12,12H12c-6.627,0-12-5.373-12-12V12C0,5.373,5.373,0,12,0h978.92c6.628,0,12,5.373,12,12V272z"/>
	<g>
		<g>
			<path fill="#FFFFFF" d="M236.306,115.642c0,0.999-0.174,1.925-0.522,2.778c-0.348,0.853-0.835,1.592-1.46,2.217
				c-0.776,0.776-1.694,1.359-2.755,1.749c-1.06,0.388-2.396,0.583-4.011,0.583h-2.998v8.4h-2.997v-22.54h6.115
				c1.352,0,2.498,0.114,3.436,0.341c0.938,0.228,1.771,0.583,2.498,1.066c0.857,0.575,1.521,1.292,1.99,2.149
				C236.071,113.244,236.306,114.329,236.306,115.642z M233.188,115.718c0-0.777-0.136-1.453-0.409-2.028
				c-0.272-0.575-0.687-1.044-1.241-1.408c-0.483-0.313-1.036-0.538-1.657-0.673c-0.62-0.137-1.405-0.205-2.354-0.205h-2.966v9.006
				h2.528c1.211,0,2.194-0.107,2.951-0.324c0.758-0.218,1.372-0.563,1.848-1.037c0.474-0.484,0.81-0.994,1.007-1.529
				C233.09,116.983,233.188,116.384,233.188,115.718z"/>
			<path fill="#FFFFFF" d="M242.905,131.368h-2.846v-23.553h2.846V131.368z"/>
			<path fill="#FFFFFF" d="M261.676,131.368h-2.831v-1.801c-0.252,0.172-0.593,0.411-1.021,0.719
				c-0.429,0.309-0.846,0.553-1.249,0.734c-0.475,0.232-1.02,0.426-1.635,0.583c-0.616,0.157-1.337,0.235-2.165,0.235
				c-1.523,0-2.814-0.504-3.875-1.515c-1.06-1.009-1.589-2.295-1.589-3.859c0-1.281,0.275-2.318,0.825-3.11s1.334-1.416,2.354-1.87
				c1.029-0.454,2.266-0.762,3.708-0.923c1.443-0.161,2.992-0.282,4.647-0.363v-0.438c0-0.646-0.113-1.182-0.341-1.604
				c-0.228-0.424-0.553-0.757-0.977-0.999c-0.403-0.231-0.888-0.388-1.453-0.469c-0.564-0.081-1.155-0.121-1.771-0.121
				c-0.747,0-1.58,0.099-2.498,0.295c-0.918,0.197-1.867,0.482-2.846,0.855h-0.151v-2.892c0.555-0.15,1.357-0.317,2.407-0.5
				c1.049-0.182,2.083-0.271,3.103-0.271c1.19,0,2.229,0.099,3.111,0.295c0.883,0.197,1.646,0.533,2.293,1.007
				c0.636,0.464,1.12,1.065,1.453,1.801c0.333,0.737,0.5,1.65,0.5,2.74V131.368L261.676,131.368z M258.845,127.205v-4.708
				c-0.868,0.052-1.891,0.126-3.065,0.228c-1.175,0.101-2.105,0.248-2.792,0.438c-0.816,0.232-1.479,0.594-1.982,1.082
				c-0.505,0.49-0.758,1.164-0.758,2.021c0,0.969,0.292,1.698,0.879,2.187c0.585,0.49,1.478,0.734,2.679,0.734
				c0.999,0,1.912-0.194,2.74-0.583C257.37,128.218,258.138,127.751,258.845,127.205z"/>
			<path fill="#FFFFFF" d="M281.293,131.368h-2.847v-9.627c0-0.776-0.045-1.506-0.136-2.188s-0.257-1.213-0.5-1.598
				c-0.252-0.424-0.616-0.738-1.09-0.945c-0.476-0.207-1.09-0.311-1.847-0.311c-0.777,0-1.59,0.192-2.438,0.575
				c-0.848,0.384-1.66,0.873-2.437,1.468v12.624h-2.847v-16.906H270v1.877c0.888-0.736,1.806-1.313,2.755-1.727
				c0.947-0.414,1.922-0.621,2.921-0.621c1.826,0,3.219,0.55,4.178,1.65c0.958,1.1,1.438,2.685,1.438,4.753L281.293,131.368
				L281.293,131.368z"/>
			<path fill="#FFFFFF" d="M299.274,130.309c-0.949,0.454-1.849,0.808-2.702,1.06c-0.853,0.252-1.759,0.378-2.717,0.378
				c-1.221,0-2.341-0.179-3.36-0.537s-1.892-0.9-2.618-1.628c-0.737-0.727-1.308-1.645-1.71-2.755
				c-0.404-1.109-0.605-2.406-0.605-3.89c0-2.765,0.759-4.935,2.278-6.509c1.519-1.574,3.523-2.361,6.017-2.361
				c0.969,0,1.92,0.136,2.854,0.409c0.934,0.271,1.789,0.604,2.565,0.999v3.164h-0.15c-0.868-0.676-1.764-1.196-2.688-1.56
				c-0.923-0.362-1.824-0.545-2.702-0.545c-1.615,0-2.889,0.542-3.821,1.627c-0.935,1.085-1.4,2.678-1.4,4.776
				c0,2.039,0.457,3.605,1.37,4.7s2.197,1.643,3.852,1.643c0.575,0,1.16-0.076,1.756-0.227c0.596-0.151,1.131-0.349,1.604-0.59
				c0.414-0.212,0.802-0.438,1.166-0.675c0.363-0.236,0.65-0.44,0.863-0.612h0.15L299.274,130.309L299.274,130.309z"/>
			<path fill="#FFFFFF" d="M318.271,131.368h-3.754l-6.781-7.401l-1.847,1.756v5.646h-2.846v-23.553h2.846v15.106l8.219-8.461h3.587
				l-7.855,7.811L318.271,131.368z"/>
			<path fill="#FFFFFF" d="M346.652,131.368h-14.259v-22.539h2.997v19.875h11.262V131.368z"/>
			<path fill="#FFFFFF" d="M363.576,123.21h-12.458c0,1.04,0.155,1.944,0.469,2.717c0.313,0.771,0.742,1.404,1.287,1.898
				c0.523,0.484,1.147,0.849,1.87,1.09c0.721,0.242,1.516,0.363,2.384,0.363c1.149,0,2.309-0.229,3.474-0.688
				c1.166-0.459,1.996-0.911,2.49-1.355h0.151v3.104c-0.959,0.403-1.938,0.741-2.938,1.014c-0.999,0.271-2.049,0.409-3.147,0.409
				c-2.807,0-4.995-0.759-6.569-2.278c-1.574-1.519-2.361-3.675-2.361-6.471c0-2.766,0.754-4.959,2.263-6.584
				c1.51-1.625,3.494-2.438,5.957-2.438c2.28,0,4.039,0.666,5.275,1.998s1.854,3.225,1.854,5.676L363.576,123.21L363.576,123.21z
				 M360.806,121.029c-0.01-1.493-0.386-2.648-1.127-3.466c-0.742-0.817-1.87-1.226-3.383-1.226c-1.524,0-2.737,0.448-3.641,1.347
				c-0.902,0.897-1.415,2.013-1.536,3.345H360.806z"/>
			<path fill="#FFFFFF" d="M382.027,131.368h-2.846v-9.627c0-0.776-0.045-1.506-0.136-2.188s-0.257-1.213-0.5-1.598
				c-0.252-0.424-0.616-0.738-1.09-0.945c-0.476-0.207-1.09-0.311-1.848-0.311c-0.776,0-1.589,0.192-2.437,0.575
				c-0.848,0.384-1.66,0.873-2.438,1.468v12.624h-2.846v-16.906h2.846v1.877c0.889-0.736,1.807-1.313,2.756-1.727
				c0.947-0.414,1.922-0.621,2.921-0.621c1.825,0,3.219,0.55,4.178,1.65c0.958,1.1,1.438,2.685,1.438,4.753L382.027,131.368
				L382.027,131.368z"/>
			<path fill="#FFFFFF" d="M401.221,129.446c0,2.866-0.651,4.971-1.953,6.313s-3.305,2.013-6.009,2.013
				c-0.898,0-1.773-0.063-2.626-0.189c-0.854-0.126-1.693-0.306-2.521-0.537v-2.906h0.151c0.464,0.182,1.201,0.406,2.21,0.673
				c1.009,0.268,2.019,0.401,3.027,0.401c0.969,0,1.771-0.116,2.407-0.349c0.636-0.231,1.13-0.555,1.482-0.969
				c0.354-0.394,0.605-0.868,0.757-1.423s0.228-1.175,0.228-1.862v-1.544c-0.858,0.688-1.679,1.198-2.459,1.536
				c-0.782,0.338-1.779,0.507-2.99,0.507c-2.02,0-3.62-0.729-4.806-2.187c-1.187-1.458-1.778-3.515-1.778-6.168
				c0-1.453,0.204-2.707,0.613-3.762c0.407-1.055,0.966-1.965,1.672-2.731c0.656-0.716,1.453-1.274,2.392-1.673
				s1.872-0.599,2.8-0.599c0.979,0,1.8,0.1,2.46,0.295c0.661,0.197,1.359,0.498,2.097,0.901l0.182-0.727h2.664V129.446
				L401.221,129.446z M398.375,126.722v-9.218c-0.757-0.344-1.46-0.589-2.112-0.734c-0.65-0.146-1.299-0.219-1.945-0.219
				c-1.563,0-2.795,0.524-3.692,1.573c-0.898,1.051-1.348,2.573-1.348,4.571c0,1.897,0.333,3.335,0.999,4.314
				c0.666,0.979,1.771,1.468,3.315,1.468c0.827,0,1.658-0.159,2.49-0.477C396.915,127.683,397.679,127.257,398.375,126.722z"/>
			<path fill="#FFFFFF" d="M415.601,131.218c-0.535,0.142-1.118,0.257-1.749,0.348c-0.63,0.091-1.192,0.136-1.688,0.136
				c-1.727,0-3.038-0.464-3.937-1.393c-0.897-0.928-1.347-2.417-1.347-4.465v-8.991h-1.921v-2.392h1.922v-4.859h2.846v4.859h5.873
				v2.392h-5.873v7.705c0,0.888,0.021,1.582,0.062,2.081c0.04,0.5,0.182,0.967,0.424,1.399c0.222,0.404,0.527,0.699,0.916,0.887
				c0.389,0.187,0.98,0.279,1.779,0.279c0.464,0,0.947-0.067,1.452-0.204s0.868-0.25,1.091-0.341h0.15L415.601,131.218
				L415.601,131.218z"/>
			<path fill="#FFFFFF" d="M433.175,131.368h-2.846v-9.627c0-0.776-0.045-1.506-0.137-2.188c-0.091-0.682-0.257-1.213-0.5-1.598
				c-0.252-0.424-0.615-0.738-1.09-0.945s-1.09-0.311-1.847-0.311c-0.777,0-1.589,0.192-2.438,0.575
				c-0.848,0.384-1.659,0.873-2.437,1.468v12.624h-2.846v-23.552h2.846v8.522c0.888-0.736,1.806-1.313,2.755-1.727
				c0.948-0.414,1.922-0.621,2.921-0.621c1.826,0,3.219,0.55,4.178,1.65c0.958,1.1,1.438,2.685,1.438,4.753L433.175,131.368
				L433.175,131.368z"/>
			<path fill="#FFFFFF" d="M468.413,119.531h-17.952v-2.422h17.952V119.531z M468.413,125.889h-17.952v-2.422h17.952V125.889z"/>
			<path fill="#FFFFFF" d="M488.695,131.368h-2.845v-23.553h2.845V131.368z"/>
			<path fill="#FFFFFF" d="M524.086,119.531h-17.953v-2.422h17.953V119.531z M524.086,125.889h-17.953v-2.422h17.953V125.889z"/>
			<path fill="#FFFFFF" d="M555.101,131.368h-12.2v-2.301h4.692v-15.105H542.9v-2.06c0.637,0,1.316-0.053,2.043-0.159
				c0.728-0.104,1.277-0.259,1.65-0.461c0.464-0.252,0.83-0.572,1.098-0.961c0.269-0.388,0.422-0.91,0.461-1.565h2.348v20.313h4.602
				L555.101,131.368L555.101,131.368z"/>
			<path fill="#FFFFFF" d="M565.848,131.368h-3.617v-4.313h3.617V131.368z"/>
			<path fill="#FFFFFF" d="M587.705,124.058c0,2.291-0.754,4.16-2.265,5.607c-1.508,1.448-3.356,2.173-5.547,2.173
				c-1.109,0-2.119-0.173-3.026-0.516c-0.908-0.343-1.711-0.853-2.406-1.528c-0.869-0.838-1.537-1.947-2.006-3.33
				s-0.704-3.047-0.704-4.995c0-1.998,0.214-3.77,0.644-5.313s1.112-2.916,2.052-4.117c0.888-1.14,2.032-2.03,3.436-2.671
				c1.402-0.641,3.037-0.961,4.904-0.961c0.596,0,1.096,0.025,1.499,0.076c0.402,0.051,0.812,0.142,1.226,0.272v2.891h-0.149
				c-0.283-0.151-0.709-0.295-1.279-0.431c-0.57-0.138-1.153-0.205-1.748-0.205c-2.17,0-3.9,0.679-5.192,2.036
				c-1.292,1.356-2.044,3.191-2.255,5.502c0.848-0.516,1.682-0.906,2.504-1.173c0.823-0.268,1.773-0.401,2.854-0.401
				c0.959,0,1.805,0.088,2.535,0.265c0.731,0.176,1.48,0.532,2.247,1.067c0.89,0.616,1.558,1.393,2.007,2.331
				C587.482,121.574,587.705,122.716,587.705,124.058z M584.633,124.179c0-0.938-0.139-1.715-0.416-2.331
				c-0.278-0.615-0.734-1.15-1.371-1.604c-0.464-0.322-0.979-0.534-1.543-0.636c-0.566-0.101-1.156-0.151-1.771-0.151
				c-0.856,0-1.654,0.102-2.392,0.304s-1.493,0.515-2.271,0.938c-0.021,0.223-0.035,0.438-0.045,0.644
				c-0.012,0.207-0.017,0.467-0.017,0.779c0,1.596,0.164,2.854,0.492,3.777c0.328,0.923,0.779,1.652,1.354,2.188
				c0.465,0.443,0.967,0.77,1.508,0.976c0.539,0.207,1.127,0.311,1.763,0.311c1.463,0,2.613-0.445,3.451-1.34
				C584.213,127.138,584.633,125.854,584.633,124.179z"/>
			<path fill="#FFFFFF" d="M607.08,131.368h-15.258v-3.164c1.06-0.907,2.12-1.815,3.186-2.725c1.064-0.908,2.057-1.811,2.975-2.709
				c1.938-1.877,3.266-3.368,3.981-4.473c0.716-1.105,1.075-2.298,1.075-3.58c0-1.17-0.388-2.086-1.158-2.747
				c-0.771-0.661-1.85-0.992-3.232-0.992c-0.918,0-1.912,0.162-2.98,0.484c-1.069,0.322-2.114,0.816-3.134,1.482h-0.15v-3.179
				c0.716-0.354,1.672-0.676,2.867-0.969c1.196-0.292,2.354-0.439,3.475-0.439c2.312,0,4.122,0.559,5.435,1.673
				c1.313,1.115,1.969,2.626,1.969,4.533c0,0.858-0.109,1.657-0.326,2.399c-0.217,0.74-0.537,1.444-0.961,2.11
				c-0.395,0.626-0.855,1.241-1.385,1.848c-0.53,0.605-1.174,1.276-1.931,2.013c-1.08,1.06-2.194,2.086-3.346,3.081
				c-1.15,0.994-2.225,1.915-3.225,2.762h12.125L607.08,131.368L607.08,131.368z"/>
			<path fill="#FFFFFF" d="M640.956,128.099l-1.682,1.68l-6.6-6.66l-6.6,6.66l-1.681-1.68l6.66-6.601l-6.66-6.6l1.681-1.68l6.6,6.66
				l6.6-6.66l1.682,1.68l-6.66,6.6L640.956,128.099z"/>
			<path fill="#FFFFFF" d="M672.668,131.368h-12.201v-2.301h4.693v-15.105h-4.693v-2.06c0.637,0,1.317-0.053,2.044-0.159
				c0.728-0.104,1.276-0.259,1.649-0.461c0.465-0.252,0.83-0.572,1.098-0.961c0.268-0.388,0.422-0.91,0.462-1.565h2.347v20.313
				h4.603L672.668,131.368L672.668,131.368z"/>
			<path fill="#FFFFFF" d="M693.632,120.092c0,4.047-0.634,7.016-1.899,8.907c-1.267,1.894-3.231,2.839-5.896,2.839
				c-2.704,0-4.68-0.958-5.926-2.876c-1.246-1.917-1.869-4.864-1.869-8.841c0-4.006,0.631-6.965,1.893-8.877
				c1.261-1.913,3.229-2.868,5.902-2.868c2.705,0,4.68,0.971,5.926,2.913C693.009,113.232,693.632,116.167,693.632,120.092z
				 M689.65,126.964c0.354-0.817,0.595-1.779,0.72-2.884c0.127-1.104,0.188-2.435,0.188-3.988c0-1.534-0.063-2.866-0.188-3.996
				c-0.125-1.13-0.37-2.089-0.733-2.876c-0.354-0.777-0.835-1.362-1.446-1.756c-0.608-0.395-1.395-0.591-2.354-0.591
				c-0.948,0-1.732,0.197-2.354,0.591c-0.622,0.393-1.111,0.988-1.476,1.786c-0.343,0.746-0.577,1.721-0.704,2.921
				c-0.126,1.2-0.189,2.518-0.189,3.95c0,1.574,0.057,2.892,0.168,3.951c0.109,1.061,0.349,2.008,0.712,2.847
				c0.331,0.786,0.805,1.388,1.413,1.801c0.611,0.414,1.422,0.621,2.431,0.621c0.949,0,1.735-0.197,2.36-0.59
				C688.822,128.356,689.308,127.761,689.65,126.964z"/>
			<path fill="#FFFFFF" d="M702.531,111.095h-5.507v-1.598h5.507V111.095z"/>
			<path fill="#FFFFFF" d="M713.043,109.718c0.281,0.253,0.514,0.569,0.697,0.953c0.182,0.382,0.272,0.876,0.272,1.481
				c0,0.601-0.108,1.15-0.327,1.65c-0.218,0.5-0.522,0.936-0.917,1.306c-0.44,0.412-0.961,0.716-1.559,0.914
				c-0.597,0.197-1.252,0.295-1.963,0.295c-0.73,0-1.447-0.087-2.153-0.26s-1.286-0.363-1.739-0.569v-1.844h0.133
				c0.5,0.33,1.089,0.603,1.767,0.821c0.676,0.218,1.329,0.327,1.959,0.327c0.37,0,0.764-0.063,1.182-0.187s0.756-0.306,1.017-0.547
				c0.27-0.259,0.472-0.544,0.604-0.856c0.133-0.312,0.199-0.706,0.199-1.182c0-0.471-0.075-0.86-0.226-1.169
				c-0.149-0.309-0.356-0.552-0.623-0.728c-0.264-0.183-0.585-0.308-0.961-0.375c-0.377-0.067-0.782-0.103-1.219-0.103h-0.794
				v-1.465h0.618c0.895,0,1.607-0.188,2.14-0.562s0.8-0.919,0.8-1.637c0-0.317-0.067-0.596-0.203-0.834
				c-0.137-0.238-0.323-0.434-0.565-0.587c-0.252-0.153-0.522-0.259-0.811-0.318c-0.289-0.059-0.615-0.088-0.98-0.088
				c-0.559,0-1.151,0.101-1.782,0.301c-0.63,0.199-1.224,0.481-1.781,0.847h-0.09v-1.843c0.419-0.206,0.977-0.396,1.674-0.569
				c0.696-0.173,1.372-0.26,2.024-0.26c0.642,0,1.205,0.059,1.693,0.176c0.488,0.118,0.93,0.306,1.324,0.564
				c0.424,0.283,0.743,0.624,0.962,1.024c0.218,0.4,0.327,0.868,0.327,1.403c0,0.729-0.259,1.367-0.773,1.911
				c-0.514,0.544-1.121,0.887-1.822,1.027v0.124c0.283,0.047,0.606,0.146,0.972,0.295
				C712.48,109.308,712.789,109.494,713.043,109.718z"/>
			<path fill="#FFFFFF" d="M724.531,109.718c0.282,0.253,0.516,0.569,0.697,0.953c0.184,0.382,0.273,0.876,0.273,1.481
				c0,0.601-0.108,1.15-0.327,1.65c-0.217,0.5-0.523,0.936-0.917,1.306c-0.441,0.412-0.961,0.716-1.558,0.914
				c-0.599,0.197-1.253,0.295-1.965,0.295c-0.729,0-1.446-0.087-2.152-0.26c-0.705-0.173-1.285-0.363-1.738-0.569v-1.844h0.133
				c0.5,0.33,1.088,0.603,1.766,0.821c0.677,0.218,1.329,0.327,1.959,0.327c0.37,0,0.765-0.063,1.183-0.187s0.756-0.306,1.015-0.547
				c0.271-0.259,0.473-0.544,0.604-0.856c0.133-0.312,0.199-0.706,0.199-1.182c0-0.471-0.076-0.86-0.227-1.169
				c-0.149-0.309-0.356-0.552-0.622-0.728c-0.265-0.183-0.586-0.308-0.962-0.375s-0.782-0.103-1.218-0.103h-0.795v-1.465h0.618
				c0.895,0,1.607-0.188,2.14-0.562c0.533-0.374,0.799-0.919,0.799-1.637c0-0.317-0.066-0.596-0.203-0.834
				c-0.135-0.238-0.322-0.434-0.563-0.587c-0.253-0.153-0.523-0.259-0.813-0.318c-0.288-0.059-0.614-0.088-0.979-0.088
				c-0.56,0-1.153,0.101-1.783,0.301c-0.629,0.199-1.223,0.481-1.782,0.847h-0.089v-1.843c0.418-0.206,0.977-0.396,1.673-0.569
				c0.697-0.173,1.372-0.26,2.025-0.26c0.642,0,1.206,0.059,1.694,0.176c0.487,0.118,0.93,0.306,1.323,0.564
				c0.423,0.283,0.744,0.624,0.961,1.024c0.219,0.4,0.327,0.868,0.327,1.403c0,0.729-0.258,1.367-0.771,1.911
				c-0.516,0.544-1.122,0.887-1.822,1.027v0.124c0.282,0.047,0.604,0.146,0.971,0.295
				C723.972,109.308,724.279,109.494,724.531,109.718z"/>
			<path fill="#FFFFFF" d="M753.063,130.309c-0.947,0.454-1.849,0.808-2.702,1.06c-0.853,0.252-1.758,0.378-2.717,0.378
				c-1.221,0-2.342-0.179-3.359-0.537c-1.021-0.358-1.893-0.9-2.618-1.628c-0.737-0.727-1.309-1.645-1.711-2.755
				c-0.404-1.109-0.605-2.406-0.605-3.89c0-2.765,0.761-4.935,2.277-6.509c1.52-1.574,3.524-2.361,6.018-2.361
				c0.97,0,1.92,0.136,2.854,0.409c0.934,0.272,1.788,0.604,2.564,0.999v3.164h-0.15c-0.868-0.676-1.765-1.196-2.688-1.56
				c-0.922-0.362-1.823-0.545-2.701-0.545c-1.614,0-2.889,0.542-3.821,1.627c-0.935,1.085-1.4,2.678-1.4,4.776
				c0,2.039,0.457,3.605,1.371,4.7c0.912,1.095,2.196,1.643,3.852,1.643c0.575,0,1.16-0.076,1.756-0.227
				c0.597-0.151,1.131-0.349,1.604-0.59c0.413-0.212,0.802-0.438,1.165-0.675c0.363-0.236,0.651-0.44,0.863-0.612h0.15
				L753.063,130.309L753.063,130.309z"/>
			<path fill="#FFFFFF" d="M781.385,131.368h-2.846v-9.627c0-0.727-0.033-1.428-0.1-2.104c-0.064-0.676-0.204-1.216-0.417-1.62
				c-0.231-0.434-0.563-0.762-0.998-0.984c-0.435-0.222-1.061-0.333-1.877-0.333c-0.798,0-1.596,0.199-2.393,0.599
				c-0.797,0.397-1.594,0.905-2.392,1.521c0.029,0.232,0.056,0.502,0.075,0.811c0.021,0.308,0.03,0.612,0.03,0.916v10.822h-2.846
				v-9.627c0-0.747-0.033-1.456-0.1-2.127c-0.064-0.671-0.203-1.208-0.416-1.611c-0.231-0.435-0.564-0.76-0.999-0.977
				c-0.434-0.217-1.06-0.326-1.877-0.326c-0.776,0-1.557,0.192-2.339,0.575c-0.782,0.384-1.562,0.873-2.339,1.468v12.624h-2.846
				v-16.906h2.846v1.877c0.889-0.736,1.773-1.313,2.657-1.727c0.883-0.414,1.823-0.621,2.823-0.621c1.149,0,2.126,0.242,2.929,0.728
				c0.802,0.483,1.398,1.155,1.794,2.013c1.15-0.969,2.199-1.667,3.147-2.096c0.947-0.43,1.963-0.645,3.043-0.645
				c1.855,0,3.227,0.563,4.108,1.688c0.884,1.125,1.325,2.697,1.325,4.715v10.975H781.385z"/>
		</g>
		
			<line fill="none" stroke="#FFFFFF" stroke-width="3" stroke-miterlimit="10" x1="218.96" y1="141.367" x2="438.673" y2="141.367"/>
	</g>
</g>
</svg>
