<?xml version="1.0" encoding="utf-8"?>
<!-- Generator: Adobe Illustrator 16.0.0, SVG Export Plug-In . SVG Version: 6.00 Build 0)  -->
<!DOCTYPE svg PUBLIC "-//W3C//DTD SVG 1.1//EN" "http://www.w3.org/Graphics/SVG/1.1/DTD/svg11.dtd">
<svg version="1.1" id="Layer_3" xmlns="http://www.w3.org/2000/svg" xmlns:xlink="http://www.w3.org/1999/xlink" x="0px" y="0px"
	 width="864px" height="406px" viewBox="0 0 864 406" enable-background="new 0 0 864 406" xml:space="preserve">
<path fill="#291159" fill-opacity="0.8" stroke="#FFFFFF" stroke-width="3" stroke-miterlimit="10" d="M864,398.761
	c0,3.998-3.893,7.239-8.699,7.239H8.699C3.895,406,0,402.759,0,398.761V7.238C0,3.238,3.896,0,8.699,0h846.602
	C860.108,0,864,3.238,864,7.238V398.761L864,398.761z"/>
<g>
	<g id="step26White" enable-background="new    ">
		<path fill="#FFFFFF" d="M176.368,290.469h-2.846v-8.144c-0.878,0.757-1.751,1.319-2.619,1.688
			c-0.868,0.368-1.807,0.553-2.815,0.553c-2.008,0-3.61-0.774-4.806-2.323c-1.196-1.549-1.794-3.686-1.794-6.41
			c0-1.453,0.209-2.737,0.628-3.853c0.419-1.115,0.971-2.052,1.658-2.808c0.666-0.737,1.448-1.308,2.346-1.711
			c0.898-0.403,1.847-0.605,2.846-0.605c0.908,0,1.713,0.101,2.414,0.303c0.702,0.202,1.416,0.5,2.142,0.893l0.182-0.727h2.664
			V290.469z M173.522,279.934v-9.566c-0.787-0.354-1.483-0.601-2.089-0.742c-0.605-0.141-1.262-0.211-1.968-0.211
			c-1.645,0-2.896,0.558-3.754,1.672c-0.858,1.115-1.287,2.651-1.287,4.609c0,1.978,0.346,3.499,1.037,4.563
			c0.691,1.065,1.778,1.597,3.262,1.597c0.827,0,1.655-0.179,2.482-0.537C172.034,280.961,172.806,280.499,173.522,279.934z"/>
		<path fill="#FFFFFF" d="M189.484,289.556h-8.895v-1.845c0.618-0.529,1.237-1.059,1.857-1.588s1.199-1.056,1.734-1.58
			c1.13-1.094,1.903-1.963,2.321-2.607c0.417-0.645,0.626-1.34,0.626-2.087c0-0.683-0.225-1.217-0.675-1.602
			c-0.45-0.386-1.078-0.578-1.884-0.578c-0.536,0-1.115,0.094-1.739,0.282s-1.232,0.477-1.827,0.865h-0.088v-1.854
			c0.418-0.206,0.976-0.395,1.672-0.564c0.697-0.171,1.373-0.256,2.025-0.256c1.347,0,2.403,0.324,3.168,0.975
			s1.147,1.531,1.147,2.643c0,0.501-0.063,0.967-0.19,1.399s-0.313,0.843-0.56,1.23c-0.229,0.365-0.499,0.724-0.808,1.077
			c-0.309,0.353-0.684,0.744-1.125,1.174c-0.63,0.617-1.28,1.216-1.951,1.796c-0.67,0.579-1.297,1.116-1.879,1.61h7.068V289.556z"/>
		<path fill="#FFFFFF" d="M223.217,272.396h-17.952v-2.422h17.952V272.396z M223.217,278.753h-17.952v-2.422h17.952V278.753z"/>
		<path fill="#FFFFFF" d="M254.233,284.232h-12.2v-2.301h4.692v-15.106h-4.692v-2.059c0.636,0,1.317-0.053,2.044-0.159
			c0.727-0.105,1.276-0.26,1.649-0.461c0.464-0.253,0.83-0.573,1.098-0.962c0.267-0.388,0.421-0.91,0.462-1.566h2.346v20.313h4.602
			V284.232z"/>
		<path fill="#FFFFFF" d="M264.98,284.232h-3.617v-4.314h3.617V284.232z"/>
		<path fill="#FFFFFF" d="M286.836,276.922c0,2.29-0.754,4.16-2.263,5.607c-1.509,1.448-3.357,2.172-5.548,2.172
			c-1.109,0-2.119-0.171-3.027-0.514c-0.908-0.344-1.71-0.854-2.406-1.529c-0.868-0.838-1.536-1.947-2.006-3.33
			c-0.469-1.383-0.703-3.048-0.703-4.995c0-1.998,0.214-3.769,0.643-5.313c0.429-1.543,1.113-2.916,2.051-4.117
			c0.889-1.14,2.034-2.03,3.437-2.671s3.037-0.962,4.904-0.962c0.596,0,1.095,0.025,1.499,0.076
			c0.403,0.051,0.812,0.142,1.226,0.272v2.892h-0.151c-0.282-0.152-0.709-0.296-1.279-0.432c-0.57-0.137-1.152-0.205-1.748-0.205
			c-2.17,0-3.9,0.68-5.191,2.036c-1.292,1.357-2.044,3.191-2.256,5.503c0.848-0.516,1.683-0.906,2.505-1.174
			c0.822-0.267,1.773-0.4,2.854-0.4c0.959,0,1.804,0.088,2.535,0.265s1.481,0.532,2.248,1.067c0.888,0.615,1.557,1.393,2.006,2.33
			C286.612,274.439,286.836,275.579,286.836,276.922z M283.764,277.043c0-0.939-0.139-1.716-0.416-2.332
			c-0.278-0.615-0.734-1.15-1.37-1.604c-0.464-0.323-0.979-0.535-1.544-0.637c-0.565-0.101-1.155-0.15-1.771-0.15
			c-0.857,0-1.654,0.101-2.391,0.303c-0.737,0.201-1.494,0.514-2.271,0.938c-0.02,0.223-0.035,0.438-0.045,0.644
			c-0.01,0.207-0.016,0.467-0.016,0.78c0,1.594,0.164,2.853,0.492,3.776c0.328,0.923,0.779,1.652,1.355,2.187
			c0.464,0.444,0.966,0.771,1.506,0.977c0.539,0.207,1.127,0.311,1.764,0.311c1.463,0,2.613-0.446,3.451-1.34
			C283.345,280.002,283.764,278.718,283.764,277.043z"/>
		<path fill="#FFFFFF" d="M306.181,272.955c0,4.047-0.633,7.017-1.899,8.908c-1.267,1.893-3.231,2.838-5.896,2.838
			c-2.704,0-4.68-0.958-5.926-2.875c-1.247-1.918-1.869-4.864-1.869-8.84c0-4.007,0.63-6.966,1.892-8.878s3.229-2.868,5.903-2.868
			c2.704,0,4.68,0.971,5.926,2.913C305.558,266.097,306.181,269.03,306.181,272.955z M302.201,279.828
			c0.354-0.818,0.593-1.779,0.719-2.884c0.126-1.105,0.189-2.435,0.189-3.989c0-1.533-0.063-2.865-0.189-3.996
			c-0.126-1.13-0.371-2.088-0.734-2.875c-0.353-0.777-0.835-1.363-1.445-1.756c-0.61-0.395-1.395-0.591-2.354-0.591
			c-0.948,0-1.733,0.196-2.354,0.591c-0.621,0.393-1.113,0.988-1.477,1.785c-0.343,0.747-0.577,1.721-0.703,2.922
			c-0.127,1.201-0.189,2.518-0.189,3.951c0,1.574,0.056,2.891,0.166,3.95c0.111,1.06,0.349,2.008,0.712,2.846
			c0.333,0.787,0.805,1.388,1.415,1.802c0.61,0.413,1.421,0.62,2.43,0.62c0.948,0,1.735-0.196,2.361-0.591
			C301.374,281.221,301.858,280.625,302.201,279.828z"/>
		<path fill="#FFFFFF" d="M325.92,284.232h-15.258v-3.164c1.059-0.908,2.121-1.816,3.186-2.725s2.057-1.811,2.975-2.709
			c1.938-1.877,3.265-3.368,3.98-4.473c0.717-1.105,1.075-2.299,1.075-3.58c0-1.171-0.386-2.086-1.158-2.747
			c-0.771-0.661-1.849-0.991-3.231-0.991c-0.918,0-1.912,0.161-2.982,0.484c-1.069,0.322-2.113,0.816-3.133,1.482h-0.151v-3.178
			c0.717-0.354,1.673-0.677,2.868-0.969c1.196-0.293,2.354-0.439,3.475-0.439c2.311,0,4.122,0.558,5.434,1.673
			s1.968,2.626,1.968,4.533c0,0.857-0.108,1.657-0.325,2.399c-0.218,0.741-0.537,1.445-0.961,2.111
			c-0.395,0.626-0.855,1.241-1.386,1.847c-0.529,0.605-1.173,1.276-1.93,2.013c-1.08,1.061-2.194,2.087-3.345,3.081
			s-2.226,1.915-3.225,2.763h12.125V284.232z"/>
		<path fill="#FFFFFF" d="M356.269,284.232h-3.588l-4.798-6.494l-4.829,6.494h-3.314l6.6-8.432l-6.539-8.477h3.588l4.768,6.389
			l4.783-6.389h3.33l-6.645,8.326L356.269,284.232z"/>
		<path fill="#FFFFFF" d="M384.484,284.232h-12.2v-2.301h4.692v-15.106h-4.692v-2.059c0.636,0,1.317-0.053,2.044-0.159
			c0.727-0.105,1.276-0.26,1.649-0.461c0.464-0.253,0.83-0.573,1.098-0.962c0.267-0.388,0.421-0.91,0.462-1.566h2.346v20.313h4.602
			V284.232z"/>
		<path fill="#FFFFFF" d="M405.448,272.955c0,4.047-0.633,7.017-1.899,8.908c-1.267,1.893-3.231,2.838-5.896,2.838
			c-2.704,0-4.68-0.958-5.926-2.875c-1.247-1.918-1.869-4.864-1.869-8.84c0-4.007,0.63-6.966,1.892-8.878s3.229-2.868,5.903-2.868
			c2.704,0,4.68,0.971,5.926,2.913C404.825,266.097,405.448,269.03,405.448,272.955z M401.467,279.828
			c0.354-0.818,0.593-1.779,0.719-2.884c0.126-1.105,0.189-2.435,0.189-3.989c0-1.533-0.063-2.865-0.189-3.996
			c-0.126-1.13-0.371-2.088-0.734-2.875c-0.353-0.777-0.835-1.363-1.445-1.756c-0.61-0.395-1.395-0.591-2.354-0.591
			c-0.948,0-1.733,0.196-2.354,0.591c-0.621,0.393-1.113,0.988-1.477,1.785c-0.343,0.747-0.577,1.721-0.703,2.922
			c-0.127,1.201-0.189,2.518-0.189,3.951c0,1.574,0.056,2.891,0.166,3.95c0.111,1.06,0.349,2.008,0.712,2.846
			c0.333,0.787,0.805,1.388,1.415,1.802c0.61,0.413,1.421,0.62,2.43,0.62c0.948,0,1.735-0.196,2.361-0.591
			C400.64,281.221,401.125,280.625,401.467,279.828z"/>
		<path fill="#FFFFFF" d="M414.348,263.959h-5.506v-1.598h5.506V263.959z"/>
		<path fill="#FFFFFF" d="M425.265,268.909h-7.113v-1.342h2.735v-8.807h-2.735v-1.2c0.371,0,0.768-0.031,1.191-0.093
			s0.744-0.151,0.962-0.269c0.271-0.147,0.484-0.334,0.64-0.561c0.156-0.227,0.246-0.531,0.27-0.914h1.367v11.843h2.684V268.909z"/>
		<path fill="#FFFFFF" d="M437.486,261.55c0,1.146-0.131,2.188-0.393,3.123c-0.262,0.936-0.658,1.733-1.188,2.392
			c-0.535,0.671-1.205,1.188-2.012,1.554c-0.807,0.364-1.753,0.547-2.841,0.547c-0.306,0-0.595-0.017-0.865-0.049
			s-0.512-0.083-0.724-0.154v-1.686h0.089c0.17,0.089,0.411,0.172,0.724,0.252c0.312,0.079,0.658,0.119,1.041,0.119
			c1.299,0,2.319-0.39,3.057-1.17c0.738-0.779,1.166-1.854,1.285-3.225c-0.547,0.329-1.063,0.564-1.545,0.706
			c-0.482,0.141-1.01,0.211-1.58,0.211c-0.541,0-1.031-0.053-1.468-0.158c-0.438-0.106-0.879-0.312-1.319-0.618
			c-0.519-0.358-0.908-0.814-1.17-1.367c-0.262-0.554-0.393-1.215-0.393-1.986c0-1.341,0.441-2.433,1.324-3.273
			c0.882-0.842,1.959-1.262,3.229-1.262c0.637,0,1.225,0.099,1.766,0.295c0.541,0.197,1.014,0.493,1.42,0.887
			c0.5,0.489,0.887,1.117,1.156,1.885C437.352,259.339,437.486,260.332,437.486,261.55z M435.703,261.17
			c0-0.912-0.094-1.645-0.281-2.197c-0.189-0.553-0.447-0.982-0.777-1.288c-0.275-0.266-0.574-0.455-0.891-0.569
			c-0.318-0.115-0.662-0.172-1.033-0.172c-0.847,0-1.516,0.265-2.007,0.794s-0.736,1.273-0.736,2.232
			c0,0.559,0.079,1.015,0.238,1.368c0.158,0.353,0.426,0.661,0.803,0.927c0.265,0.182,0.556,0.304,0.873,0.366
			c0.318,0.062,0.671,0.092,1.06,0.092c0.459,0,0.924-0.062,1.395-0.185c0.471-0.124,0.91-0.304,1.322-0.539
			c0.006-0.123,0.014-0.245,0.023-0.366C435.699,261.513,435.703,261.358,435.703,261.17z"/>
		<path fill="#FFFFFF" d="M471.236,272.396h-17.951v-2.422h17.951V272.396z M471.236,278.753h-17.951v-2.422h17.951V278.753z"/>
		<path fill="#FFFFFF" d="M503.523,275.574c0,1.372-0.197,2.626-0.59,3.762c-0.395,1.135-0.949,2.096-1.666,2.883
			c-0.666,0.747-1.449,1.325-2.354,1.733c-0.902,0.409-1.859,0.613-2.867,0.613c-0.879,0-1.674-0.096-2.385-0.288
			c-0.711-0.191-1.436-0.489-2.172-0.893v7.084h-2.846v-23.145h2.846v1.771c0.756-0.636,1.607-1.168,2.551-1.597
			s1.949-0.644,3.02-0.644c2.039,0,3.625,0.77,4.76,2.309C502.957,270.703,503.523,272.84,503.523,275.574z M500.588,275.65
			c0-2.039-0.35-3.563-1.045-4.572c-0.697-1.009-1.766-1.514-3.209-1.514c-0.818,0-1.641,0.177-2.467,0.53
			c-0.828,0.354-1.621,0.817-2.377,1.393v9.581c0.807,0.363,1.5,0.611,2.082,0.742c0.58,0.131,1.238,0.197,1.975,0.197
			c1.584,0,2.82-0.535,3.709-1.605C500.143,279.333,500.588,277.749,500.588,275.65z"/>
		<path fill="#FFFFFF" d="M518.51,270.428h-0.152c-0.424-0.101-0.834-0.174-1.232-0.22c-0.4-0.045-0.871-0.067-1.416-0.067
			c-0.879,0-1.727,0.194-2.543,0.582c-0.818,0.389-1.605,0.891-2.361,1.506v12.004h-2.846v-16.908h2.846v2.498
			c1.131-0.908,2.127-1.552,2.99-1.93c0.861-0.379,1.742-0.568,2.641-0.568c0.494,0,0.854,0.014,1.074,0.038
			c0.223,0.025,0.555,0.073,1,0.144V270.428z"/>
		<path fill="#FFFFFF" d="M535.6,275.786c0,2.755-0.707,4.93-2.119,6.524c-1.414,1.594-3.307,2.391-5.678,2.391
			c-2.391,0-4.291-0.797-5.699-2.391c-1.406-1.595-2.111-3.77-2.111-6.524s0.705-4.932,2.111-6.531
			c1.408-1.6,3.309-2.399,5.699-2.399c2.371,0,4.264,0.8,5.678,2.399C534.893,270.854,535.6,273.031,535.6,275.786z
			 M532.662,275.786c0-2.189-0.43-3.816-1.287-4.882c-0.857-1.064-2.049-1.597-3.572-1.597c-1.543,0-2.742,0.532-3.594,1.597
			c-0.854,1.065-1.279,2.692-1.279,4.882c0,2.119,0.428,3.727,1.287,4.821c0.857,1.095,2.053,1.643,3.586,1.643
			c1.514,0,2.703-0.543,3.564-1.628C532.23,279.538,532.662,277.926,532.662,275.786z"/>
		<path fill="#FFFFFF" d="M548.783,284.081c-0.535,0.142-1.117,0.257-1.748,0.349c-0.631,0.09-1.193,0.136-1.688,0.136
			c-1.727,0-3.037-0.464-3.936-1.393s-1.348-2.417-1.348-4.466v-8.99h-1.922v-2.393h1.922v-4.858h2.846v4.858h5.873v2.393h-5.873
			v7.704c0,0.888,0.02,1.582,0.061,2.081c0.041,0.5,0.182,0.967,0.424,1.4c0.223,0.403,0.527,0.699,0.916,0.886
			s0.98,0.28,1.777,0.28c0.465,0,0.949-0.068,1.453-0.205c0.506-0.136,0.869-0.25,1.09-0.34h0.152V284.081z"/>
		<path fill="#FFFFFF" d="M566.629,275.786c0,2.755-0.707,4.93-2.119,6.524c-1.412,1.594-3.305,2.391-5.676,2.391
			c-2.393,0-4.291-0.797-5.699-2.391c-1.408-1.595-2.111-3.77-2.111-6.524s0.703-4.932,2.111-6.531s3.307-2.399,5.699-2.399
			c2.371,0,4.264,0.8,5.676,2.399S566.629,273.031,566.629,275.786z M563.691,275.786c0-2.189-0.428-3.816-1.285-4.882
			c-0.857-1.064-2.049-1.597-3.572-1.597c-1.545,0-2.742,0.532-3.596,1.597c-0.854,1.065-1.279,2.692-1.279,4.882
			c0,2.119,0.43,3.727,1.287,4.821s2.053,1.643,3.588,1.643c1.514,0,2.701-0.543,3.564-1.628
			C563.262,279.538,563.691,277.926,563.691,275.786z"/>
		<path fill="#FFFFFF" d="M585.17,284.232h-2.846v-9.627c0-0.777-0.045-1.506-0.135-2.188c-0.092-0.681-0.258-1.213-0.5-1.597
			c-0.252-0.424-0.615-0.739-1.09-0.946c-0.475-0.206-1.09-0.311-1.848-0.311c-0.775,0-1.588,0.192-2.436,0.576
			c-0.848,0.383-1.66,0.872-2.438,1.468v12.624h-2.846v-16.908h2.846v1.877c0.889-0.736,1.807-1.312,2.754-1.725
			c0.949-0.414,1.924-0.621,2.922-0.621c1.826,0,3.219,0.55,4.178,1.65c0.959,1.1,1.438,2.684,1.438,4.752V284.232z"/>
		<path fill="#FFFFFF" d="M614.051,283.173c-0.947,0.454-1.848,0.808-2.701,1.06s-1.758,0.379-2.717,0.379
			c-1.221,0-2.342-0.18-3.361-0.538c-1.018-0.357-1.891-0.9-2.617-1.627c-0.736-0.727-1.307-1.645-1.711-2.755
			s-0.605-2.406-0.605-3.891c0-2.765,0.76-4.934,2.277-6.508c1.52-1.574,3.525-2.361,6.018-2.361c0.969,0,1.92,0.136,2.854,0.408
			s1.789,0.605,2.564,0.999v3.163h-0.15c-0.867-0.676-1.764-1.195-2.688-1.559c-0.922-0.363-1.824-0.545-2.701-0.545
			c-1.615,0-2.889,0.543-3.822,1.627c-0.934,1.085-1.4,2.677-1.4,4.775c0,2.039,0.457,3.605,1.371,4.7
			c0.912,1.096,2.197,1.643,3.852,1.643c0.574,0,1.16-0.075,1.756-0.228c0.596-0.15,1.131-0.348,1.604-0.59
			c0.414-0.212,0.803-0.437,1.166-0.674c0.363-0.236,0.65-0.441,0.863-0.613h0.15V283.173z"/>
		<path fill="#FFFFFF" d="M631.838,284.232h-2.846v-9.627c0-0.777-0.045-1.506-0.137-2.188c-0.09-0.681-0.256-1.213-0.498-1.597
			c-0.254-0.424-0.617-0.739-1.09-0.946c-0.475-0.206-1.09-0.311-1.848-0.311c-0.777,0-1.59,0.192-2.438,0.576
			c-0.848,0.383-1.66,0.872-2.436,1.468v12.624h-2.846V260.68h2.846v8.521c0.887-0.736,1.805-1.312,2.754-1.725
			c0.949-0.414,1.922-0.621,2.922-0.621c1.826,0,3.219,0.55,4.178,1.65c0.959,1.1,1.438,2.684,1.438,4.752V284.232z"/>
		<path fill="#FFFFFF" d="M650.457,284.232h-2.832v-1.801c-0.252,0.171-0.592,0.411-1.021,0.719s-0.846,0.553-1.248,0.734
			c-0.475,0.231-1.02,0.426-1.635,0.582s-1.338,0.234-2.164,0.234c-1.525,0-2.816-0.504-3.875-1.514
			c-1.061-1.009-1.59-2.295-1.59-3.859c0-1.281,0.273-2.318,0.824-3.11s1.334-1.415,2.354-1.87c1.029-0.453,2.266-0.762,3.709-0.923
			s2.992-0.282,4.646-0.363v-0.438c0-0.646-0.113-1.182-0.34-1.605s-0.553-0.756-0.977-0.998c-0.404-0.232-0.889-0.389-1.453-0.47
			s-1.156-0.121-1.771-0.121c-0.746,0-1.578,0.099-2.496,0.295c-0.92,0.197-1.867,0.482-2.846,0.855h-0.152v-2.892
			c0.555-0.15,1.357-0.317,2.406-0.499c1.051-0.182,2.084-0.272,3.104-0.272c1.191,0,2.227,0.099,3.111,0.295
			c0.883,0.197,1.646,0.532,2.293,1.007c0.635,0.464,1.119,1.064,1.453,1.802c0.332,0.736,0.5,1.649,0.5,2.739V284.232z
			 M647.625,280.07v-4.708c-0.867,0.051-1.889,0.126-3.064,0.228c-1.176,0.101-2.107,0.247-2.793,0.438
			c-0.816,0.232-1.479,0.593-1.982,1.082c-0.506,0.49-0.758,1.163-0.758,2.021c0,0.969,0.293,1.698,0.879,2.188
			c0.584,0.49,1.479,0.734,2.68,0.734c0.998,0,1.912-0.194,2.738-0.583C646.152,281.082,646.92,280.615,647.625,280.07z"/>
		<path fill="#FFFFFF" d="M666.486,270.428h-0.152c-0.424-0.101-0.834-0.174-1.232-0.22c-0.4-0.045-0.871-0.067-1.416-0.067
			c-0.879,0-1.727,0.194-2.543,0.582c-0.818,0.389-1.605,0.891-2.361,1.506v12.004h-2.846v-16.908h2.846v2.498
			c1.131-0.908,2.127-1.552,2.99-1.93c0.861-0.379,1.742-0.568,2.641-0.568c0.494,0,0.854,0.014,1.074,0.038
			c0.223,0.025,0.555,0.073,1,0.144V270.428z"/>
		<path fill="#FFFFFF" d="M682.879,282.311c0,2.865-0.65,4.97-1.953,6.312c-1.301,1.342-3.305,2.013-6.008,2.013
			c-0.898,0-1.775-0.063-2.627-0.188c-0.854-0.127-1.693-0.306-2.52-0.538v-2.906h0.15c0.465,0.182,1.201,0.406,2.211,0.674
			c1.008,0.268,2.018,0.401,3.027,0.401c0.969,0,1.77-0.116,2.406-0.349c0.635-0.231,1.129-0.555,1.482-0.969
			c0.354-0.393,0.605-0.867,0.758-1.422c0.15-0.556,0.227-1.176,0.227-1.862v-1.544c-0.857,0.687-1.678,1.198-2.459,1.536
			c-0.783,0.339-1.779,0.507-2.99,0.507c-2.018,0-3.621-0.729-4.807-2.187S668,278.273,668,275.619c0-1.453,0.203-2.706,0.613-3.761
			c0.408-1.055,0.965-1.966,1.672-2.732c0.656-0.717,1.453-1.273,2.393-1.673c0.938-0.398,1.871-0.598,2.799-0.598
			c0.979,0,1.799,0.099,2.461,0.295c0.66,0.197,1.359,0.497,2.096,0.9l0.182-0.727h2.664V282.311z M680.033,279.586v-9.219
			c-0.756-0.343-1.461-0.588-2.111-0.734c-0.65-0.146-1.299-0.219-1.945-0.219c-1.564,0-2.795,0.524-3.693,1.574
			c-0.898,1.049-1.348,2.572-1.348,4.57c0,1.897,0.334,3.336,1,4.314s1.771,1.469,3.314,1.469c0.828,0,1.658-0.159,2.49-0.478
			C678.572,280.547,679.338,280.12,680.033,279.586z"/>
		<path fill="#FFFFFF" d="M702.633,276.074h-12.457c0,1.039,0.156,1.944,0.469,2.717c0.313,0.771,0.742,1.405,1.287,1.899
			c0.523,0.484,1.146,0.848,1.869,1.09c0.721,0.242,1.516,0.363,2.383,0.363c1.15,0,2.309-0.229,3.475-0.688s1.996-0.911,2.49-1.355
			h0.15v3.104c-0.959,0.403-1.938,0.742-2.936,1.014c-1,0.273-2.049,0.409-3.148,0.409c-2.807,0-4.996-0.759-6.57-2.278
			c-1.574-1.519-2.361-3.676-2.361-6.471c0-2.765,0.754-4.96,2.264-6.584c1.508-1.625,3.494-2.438,5.957-2.438
			c2.279,0,4.037,0.666,5.273,1.998s1.855,3.225,1.855,5.676V276.074z M699.863,273.895c-0.012-1.494-0.387-2.649-1.129-3.467
			s-1.869-1.227-3.383-1.227c-1.523,0-2.738,0.449-3.641,1.348s-1.414,2.014-1.535,3.346H699.863z"/>
	</g>
	<g>
		<g enable-background="new    ">
			<path fill="#FFFFFF" d="M303.883,112.179c-0.555,0.242-1.057,0.469-1.506,0.682c-0.449,0.211-1.037,0.434-1.764,0.666
				c-0.616,0.191-1.284,0.355-2.006,0.491c-0.721,0.137-1.516,0.204-2.384,0.204c-1.635,0-3.121-0.229-4.458-0.688
				c-1.337-0.459-2.5-1.178-3.489-2.157c-0.969-0.958-1.726-2.177-2.271-3.655c-0.545-1.478-0.817-3.196-0.817-5.153
				c0-1.857,0.262-3.518,0.787-4.98c0.524-1.463,1.281-2.699,2.271-3.709c0.958-0.979,2.117-1.725,3.474-2.24
				c1.357-0.514,2.863-0.771,4.518-0.771c1.211,0,2.419,0.146,3.625,0.439c1.206,0.292,2.545,0.807,4.019,1.543v3.558h-0.227
				c-1.241-1.039-2.473-1.796-3.693-2.271c-1.221-0.475-2.528-0.711-3.92-0.711c-1.141,0-2.167,0.184-3.08,0.552
				c-0.914,0.369-1.729,0.941-2.445,1.718c-0.696,0.758-1.239,1.714-1.627,2.869c-0.388,1.155-0.583,2.49-0.583,4.004
				c0,1.584,0.214,2.946,0.643,4.086c0.429,1.141,0.981,2.069,1.658,2.785c0.706,0.747,1.531,1.3,2.475,1.658
				c0.943,0.358,1.939,0.537,2.989,0.537c1.443,0,2.795-0.247,4.057-0.742c1.261-0.494,2.442-1.235,3.542-2.225h0.212V112.179z"/>
			<path fill="#FFFFFF" d="M322.305,105.367c0,2.755-0.707,4.93-2.119,6.524c-1.413,1.594-3.305,2.391-5.676,2.391
				c-2.392,0-4.291-0.797-5.699-2.391c-1.407-1.595-2.111-3.77-2.111-6.524s0.704-4.932,2.111-6.531
				c1.408-1.6,3.308-2.399,5.699-2.399c2.371,0,4.263,0.8,5.676,2.399C321.598,100.436,322.305,102.612,322.305,105.367z
				 M319.368,105.367c0-2.189-0.429-3.816-1.287-4.882c-0.858-1.064-2.049-1.597-3.572-1.597c-1.544,0-2.742,0.532-3.595,1.597
				c-0.853,1.065-1.279,2.692-1.279,4.882c0,2.119,0.429,3.727,1.287,4.821c0.857,1.095,2.053,1.643,3.587,1.643
				c1.514,0,2.702-0.543,3.564-1.628C318.937,109.119,319.368,107.507,319.368,105.367z"/>
			<path fill="#FFFFFF" d="M340.726,113.813h-2.846v-1.877c-0.959,0.757-1.877,1.337-2.754,1.74
				c-0.879,0.404-1.848,0.605-2.907,0.605c-1.776,0-3.159-0.542-4.147-1.627c-0.989-1.084-1.483-2.677-1.483-4.775V96.905h2.846
				v9.627c0,0.858,0.04,1.593,0.121,2.203c0.081,0.61,0.252,1.133,0.515,1.566c0.272,0.444,0.625,0.767,1.06,0.969
				c0.434,0.202,1.064,0.303,1.892,0.303c0.736,0,1.541-0.191,2.414-0.575s1.689-0.873,2.445-1.468V96.905h2.846V113.813z"/>
			<path fill="#FFFFFF" d="M349.203,113.813h-2.846V90.261h2.846V113.813z"/>
			<path fill="#FFFFFF" d="M369.244,105.367c0,2.755-0.707,4.93-2.119,6.524c-1.413,1.594-3.306,2.391-5.677,2.391
				c-2.392,0-4.291-0.797-5.699-2.391c-1.407-1.595-2.111-3.77-2.111-6.524s0.704-4.932,2.111-6.531
				c1.408-1.6,3.308-2.399,5.699-2.399c2.371,0,4.264,0.8,5.677,2.399C368.537,100.436,369.244,102.612,369.244,105.367z
				 M366.306,105.367c0-2.189-0.429-3.816-1.286-4.882c-0.857-1.064-2.049-1.597-3.572-1.597c-1.544,0-2.742,0.532-3.595,1.597
				c-0.854,1.065-1.279,2.692-1.279,4.882c0,2.119,0.429,3.727,1.287,4.821c0.857,1.095,2.053,1.643,3.587,1.643
				c1.514,0,2.702-0.543,3.564-1.628C365.875,109.119,366.306,107.507,366.306,105.367z"/>
			<path fill="#FFFFFF" d="M398.321,113.813h-2.846v-9.627c0-0.727-0.032-1.428-0.098-2.104c-0.066-0.677-0.205-1.217-0.416-1.62
				c-0.232-0.434-0.565-0.762-1-0.983c-0.434-0.223-1.059-0.334-1.877-0.334c-0.797,0-1.594,0.2-2.391,0.599
				c-0.798,0.398-1.595,0.905-2.393,1.521c0.031,0.232,0.056,0.503,0.076,0.811s0.03,0.613,0.03,0.916v10.822h-2.846v-9.627
				c0-0.747-0.033-1.455-0.099-2.127c-0.065-0.671-0.204-1.208-0.416-1.611c-0.232-0.435-0.565-0.76-0.999-0.977
				s-1.06-0.326-1.877-0.326c-0.777,0-1.557,0.192-2.339,0.576c-0.782,0.383-1.562,0.872-2.338,1.468v12.624h-2.846V96.905h2.846
				v1.877c0.888-0.736,1.772-1.312,2.656-1.725c0.883-0.414,1.824-0.621,2.822-0.621c1.15,0,2.127,0.242,2.93,0.727
				c0.802,0.484,1.4,1.155,1.793,2.014c1.15-0.969,2.2-1.668,3.148-2.097c0.949-0.429,1.963-0.644,3.043-0.644
				c1.856,0,3.227,0.563,4.109,1.688c0.883,1.126,1.324,2.697,1.324,4.715V113.813z"/>
			<path fill="#FFFFFF" d="M418.68,105.231c0,1.412-0.199,2.684-0.598,3.814c-0.399,1.13-0.937,2.078-1.612,2.846
				c-0.717,0.797-1.504,1.395-2.361,1.793s-1.802,0.598-2.831,0.598c-0.958,0-1.796-0.113-2.512-0.34
				c-0.717-0.228-1.424-0.532-2.119-0.916l-0.182,0.787h-2.664V90.261h2.846v8.416c0.797-0.656,1.645-1.193,2.543-1.612
				c0.897-0.418,1.906-0.628,3.027-0.628c1.998,0,3.574,0.767,4.729,2.301S418.68,102.436,418.68,105.231z M415.744,105.307
				c0-2.019-0.333-3.55-0.999-4.594c-0.666-1.045-1.74-1.567-3.225-1.567c-0.827,0-1.664,0.18-2.512,0.538s-1.635,0.819-2.361,1.385
				v9.688c0.807,0.363,1.5,0.615,2.081,0.757c0.58,0.142,1.238,0.212,1.976,0.212c1.574,0,2.808-0.517,3.7-1.552
				C415.297,109.139,415.744,107.517,415.744,105.307z"/>
			<path fill="#FFFFFF" d="M452.889,113.813h-3.891l-7.537-8.961h-4.223v8.961h-2.998V91.274h6.313c1.361,0,2.498,0.089,3.406,0.266
				s1.725,0.492,2.451,0.945c0.818,0.516,1.455,1.164,1.916,1.945c0.459,0.782,0.688,1.773,0.688,2.975
				c0,1.625-0.408,2.984-1.227,4.079c-0.816,1.096-1.941,1.92-3.375,2.476L452.889,113.813z M445.881,97.617
				c0-0.646-0.113-1.219-0.34-1.718c-0.229-0.5-0.604-0.921-1.129-1.264c-0.434-0.293-0.947-0.497-1.543-0.613
				s-1.297-0.174-2.105-0.174h-3.525v8.506h3.027c0.947,0,1.775-0.083,2.482-0.249c0.705-0.167,1.307-0.478,1.801-0.931
				c0.453-0.424,0.789-0.911,1.006-1.461S445.881,98.465,445.881,97.617z"/>
			<path fill="#FFFFFF" d="M468.965,105.655h-12.457c0,1.039,0.156,1.944,0.469,2.717c0.313,0.771,0.742,1.405,1.287,1.899
				c0.523,0.484,1.146,0.848,1.869,1.09c0.721,0.242,1.516,0.363,2.383,0.363c1.15,0,2.309-0.229,3.475-0.688
				s1.996-0.911,2.49-1.355h0.15v3.104c-0.959,0.403-1.938,0.742-2.936,1.014c-1,0.273-2.049,0.409-3.148,0.409
				c-2.807,0-4.996-0.759-6.57-2.278c-1.574-1.519-2.361-3.676-2.361-6.471c0-2.765,0.754-4.96,2.264-6.584
				c1.508-1.625,3.494-2.438,5.957-2.438c2.279,0,4.037,0.666,5.273,1.998s1.855,3.225,1.855,5.676V105.655z M466.195,103.476
				c-0.012-1.494-0.387-2.649-1.129-3.467s-1.869-1.227-3.383-1.227c-1.523,0-2.738,0.449-3.641,1.348s-1.414,2.014-1.535,3.346
				H466.195z"/>
			<path fill="#FFFFFF" d="M488.158,105.155c0,1.372-0.197,2.626-0.59,3.762c-0.395,1.135-0.949,2.096-1.666,2.883
				c-0.666,0.747-1.451,1.325-2.354,1.733c-0.904,0.409-1.859,0.613-2.869,0.613c-0.877,0-1.672-0.096-2.383-0.288
				c-0.713-0.191-1.436-0.489-2.172-0.893v7.084h-2.846V96.905h2.846v1.771c0.756-0.636,1.605-1.168,2.549-1.597
				s1.951-0.644,3.021-0.644c2.037,0,3.625,0.77,4.76,2.309S488.158,102.421,488.158,105.155z M485.221,105.231
				c0-2.039-0.348-3.563-1.043-4.572c-0.697-1.009-1.768-1.514-3.209-1.514c-0.818,0-1.641,0.177-2.469,0.53
				c-0.826,0.354-1.619,0.817-2.375,1.393v9.581c0.807,0.363,1.5,0.611,2.08,0.742s1.238,0.197,1.977,0.197
				c1.584,0,2.82-0.535,3.707-1.605C484.777,108.914,485.221,107.33,485.221,105.231z"/>
			<path fill="#FFFFFF" d="M495.469,113.813h-2.846V90.261h2.846V113.813z"/>
			<path fill="#FFFFFF" d="M515.115,113.813h-2.846v-1.877c-0.957,0.757-1.877,1.337-2.754,1.74
				c-0.879,0.404-1.848,0.605-2.906,0.605c-1.775,0-3.158-0.542-4.148-1.627c-0.988-1.084-1.482-2.677-1.482-4.775V96.905h2.846
				v9.627c0,0.858,0.041,1.593,0.121,2.203s0.252,1.133,0.514,1.566c0.273,0.444,0.627,0.767,1.061,0.969s1.064,0.303,1.893,0.303
				c0.736,0,1.541-0.191,2.414-0.575s1.688-0.873,2.443-1.468V96.905h2.846V113.813z"/>
			<path fill="#FFFFFF" d="M532.795,108.939c0,1.544-0.637,2.811-1.914,3.8c-1.277,0.988-3.02,1.482-5.23,1.482
				c-1.25,0-2.398-0.148-3.443-0.446c-1.043-0.297-1.92-0.623-2.625-0.976v-3.194h0.15c0.898,0.676,1.898,1.214,2.998,1.612
				s2.154,0.598,3.162,0.598c1.252,0,2.23-0.202,2.938-0.605s1.059-1.039,1.059-1.907c0-0.666-0.191-1.171-0.574-1.514
				s-1.121-0.636-2.211-0.878c-0.402-0.091-0.93-0.197-1.58-0.318c-0.652-0.121-1.244-0.252-1.779-0.393
				c-1.484-0.395-2.535-0.972-3.156-1.733s-0.932-1.698-0.932-2.808c0-0.697,0.145-1.353,0.432-1.969
				c0.289-0.615,0.725-1.165,1.311-1.649c0.564-0.475,1.283-0.85,2.156-1.128c0.873-0.277,1.85-0.416,2.93-0.416
				c1.008,0,2.029,0.124,3.064,0.371s1.895,0.547,2.58,0.9v3.043h-0.15c-0.727-0.535-1.609-0.986-2.648-1.355
				c-1.039-0.368-2.059-0.553-3.059-0.553c-1.039,0-1.916,0.2-2.633,0.599s-1.076,0.991-1.076,1.778
				c0,0.696,0.219,1.221,0.652,1.574c0.424,0.354,1.109,0.641,2.059,0.863c0.523,0.121,1.111,0.242,1.764,0.363
				c0.65,0.121,1.193,0.231,1.627,0.332c1.322,0.303,2.34,0.823,3.057,1.56C532.438,106.72,532.795,107.708,532.795,108.939z"/>
			<path fill="#FFFFFF" d="M539.926,94.075h-3.209v-2.951h3.209V94.075z M539.744,113.813h-2.846V96.905h2.846V113.813z"/>
			<path fill="#FFFFFF" d="M559.785,105.367c0,2.755-0.707,4.93-2.119,6.524c-1.414,1.594-3.307,2.391-5.678,2.391
				c-2.391,0-4.291-0.797-5.699-2.391c-1.406-1.595-2.111-3.77-2.111-6.524s0.705-4.932,2.111-6.531
				c1.408-1.6,3.309-2.399,5.699-2.399c2.371,0,4.264,0.8,5.678,2.399C559.078,100.436,559.785,102.612,559.785,105.367z
				 M556.848,105.367c0-2.189-0.43-3.816-1.287-4.882c-0.857-1.064-2.049-1.597-3.572-1.597c-1.543,0-2.742,0.532-3.594,1.597
				c-0.854,1.065-1.279,2.692-1.279,4.882c0,2.119,0.428,3.727,1.287,4.821c0.857,1.095,2.053,1.643,3.586,1.643
				c1.514,0,2.703-0.543,3.564-1.628C556.416,109.119,556.848,107.507,556.848,105.367z"/>
			<path fill="#FFFFFF" d="M578.326,113.813h-2.846v-9.627c0-0.777-0.045-1.506-0.135-2.188c-0.092-0.681-0.258-1.213-0.5-1.597
				c-0.252-0.424-0.615-0.739-1.09-0.946c-0.475-0.206-1.09-0.311-1.848-0.311c-0.775,0-1.588,0.192-2.436,0.576
				c-0.848,0.383-1.66,0.872-2.438,1.468v12.624h-2.846V96.905h2.846v1.877c0.889-0.736,1.807-1.312,2.754-1.725
				c0.949-0.414,1.924-0.621,2.922-0.621c1.826,0,3.219,0.55,4.178,1.65c0.959,1.1,1.438,2.684,1.438,4.752V113.813z"/>
		</g>
		<line fill="none" stroke="#FFFFFF" stroke-width="3" x1="281.461" y1="125.78" x2="582.539" y2="125.78"/>
	</g>
	<g>
		<g>
			<g enable-background="new    ">
				<path fill="#FFFFFF" d="M419.256,178.438h-3.966l-9.089-10.035l-2.283,2.391v7.645h-3.056v-22.539h3.056v11.762l11.156-11.762
					h3.703l-10.262,10.596L419.256,178.438z"/>
				<path fill="#FFFFFF" d="M435.195,177.379c-0.967,0.454-1.885,0.808-2.754,1.06c-0.869,0.252-1.793,0.379-2.77,0.379
					c-1.245,0-2.387-0.18-3.426-0.538c-1.039-0.357-1.929-0.9-2.669-1.627c-0.751-0.727-1.333-1.645-1.744-2.755
					s-0.617-2.406-0.617-3.891c0-2.765,0.774-4.934,2.322-6.508s3.593-2.361,6.134-2.361c0.987,0,1.957,0.136,2.909,0.408
					c0.951,0.272,1.822,0.605,2.615,0.999v3.163h-0.154c-0.885-0.676-1.797-1.195-2.739-1.559c-0.941-0.363-1.859-0.545-2.755-0.545
					c-1.646,0-2.944,0.543-3.896,1.627c-0.952,1.085-1.428,2.677-1.428,4.775c0,2.039,0.466,3.605,1.396,4.7
					c0.931,1.096,2.24,1.643,3.927,1.643c0.587,0,1.184-0.075,1.79-0.228c0.607-0.15,1.152-0.348,1.635-0.59
					c0.422-0.212,0.818-0.437,1.189-0.674c0.369-0.236,0.662-0.441,0.879-0.613h0.154V177.379z"/>
				<path fill="#FFFFFF" d="M464.004,184.675h-2.9v-8.144c-0.895,0.757-1.785,1.319-2.67,1.688s-1.842,0.553-2.869,0.553
					c-2.049,0-3.682-0.774-4.9-2.323s-1.828-3.686-1.828-6.41c0-1.453,0.213-2.737,0.641-3.853c0.426-1.115,0.99-2.052,1.689-2.808
					c0.68-0.737,1.477-1.308,2.391-1.711c0.916-0.403,1.883-0.605,2.902-0.605c0.926,0,1.746,0.101,2.461,0.303
					s1.443,0.5,2.184,0.893l0.186-0.727h2.715V184.675z M461.104,174.14v-9.566c-0.803-0.354-1.512-0.601-2.129-0.742
					c-0.617-0.141-1.287-0.211-2.008-0.211c-1.676,0-2.951,0.558-3.826,1.672c-0.875,1.115-1.311,2.651-1.311,4.609
					c0,1.978,0.352,3.499,1.057,4.563c0.705,1.065,1.813,1.597,3.324,1.597c0.844,0,1.688-0.179,2.531-0.537
					C459.586,175.167,460.373,174.705,461.104,174.14z"/>
				<path fill="#FFFFFF" d="M476.426,183.762h-7.113v-1.342h2.734v-8.807h-2.734v-1.2c0.371,0,0.768-0.031,1.191-0.093
					s0.744-0.151,0.961-0.269c0.271-0.147,0.484-0.334,0.641-0.561s0.246-0.531,0.27-0.914h1.367v11.843h2.684V183.762z"/>
				<path fill="#FFFFFF" d="M501.537,184.675h-2.9v-8.144c-0.895,0.757-1.785,1.319-2.67,1.688s-1.842,0.553-2.869,0.553
					c-2.049,0-3.682-0.774-4.9-2.323s-1.828-3.686-1.828-6.41c0-1.453,0.213-2.737,0.641-3.853c0.426-1.115,0.99-2.052,1.689-2.808
					c0.68-0.737,1.477-1.308,2.391-1.711c0.916-0.403,1.883-0.605,2.902-0.605c0.926,0,1.746,0.101,2.461,0.303
					s1.443,0.5,2.184,0.893l0.186-0.727h2.715V184.675z M498.637,174.14v-9.566c-0.803-0.354-1.512-0.601-2.129-0.742
					c-0.617-0.141-1.287-0.211-2.008-0.211c-1.676,0-2.951,0.558-3.826,1.672c-0.875,1.115-1.311,2.651-1.311,4.609
					c0,1.978,0.352,3.499,1.057,4.563c0.705,1.065,1.813,1.597,3.324,1.597c0.844,0,1.688-0.179,2.531-0.537
					C497.119,175.167,497.906,174.705,498.637,174.14z"/>
				<path fill="#FFFFFF" d="M514.707,183.762h-8.895v-1.845c0.617-0.529,1.236-1.059,1.857-1.588s1.197-1.056,1.734-1.58
					c1.129-1.094,1.902-1.963,2.32-2.607s0.627-1.34,0.627-2.087c0-0.683-0.227-1.217-0.676-1.602
					c-0.449-0.386-1.078-0.578-1.885-0.578c-0.535,0-1.113,0.094-1.738,0.282c-0.623,0.188-1.232,0.477-1.826,0.865h-0.088v-1.854
					c0.418-0.206,0.975-0.395,1.672-0.564c0.697-0.171,1.373-0.256,2.025-0.256c1.348,0,2.402,0.324,3.168,0.975
					s1.146,1.531,1.146,2.643c0,0.501-0.063,0.967-0.189,1.399s-0.313,0.843-0.561,1.23c-0.229,0.365-0.498,0.724-0.807,1.077
					c-0.309,0.353-0.684,0.744-1.125,1.174c-0.629,0.617-1.279,1.216-1.951,1.796c-0.67,0.579-1.297,1.116-1.879,1.61h7.068V183.762
					z"/>
			</g>
			<g enable-background="new    ">
				<path fill="#FFFFFF" d="M447.309,210.634h-0.154c-0.432-0.101-0.852-0.174-1.258-0.22c-0.406-0.045-0.887-0.067-1.441-0.067
					c-0.895,0-1.76,0.194-2.592,0.582c-0.834,0.389-1.637,0.891-2.408,1.506v12.004h-2.9V207.53h2.9v2.498
					c1.152-0.908,2.168-1.552,3.047-1.93c0.881-0.379,1.777-0.568,2.693-0.568c0.504,0,0.869,0.014,1.096,0.038
					c0.227,0.025,0.566,0.073,1.018,0.144V210.634z"/>
				<path fill="#FFFFFF" d="M463.203,229.762h-1.66v-5.612c0-0.424-0.018-0.833-0.057-1.227c-0.039-0.395-0.119-0.709-0.242-0.944
					c-0.137-0.253-0.33-0.444-0.582-0.574c-0.254-0.129-0.619-0.193-1.096-0.193c-0.465,0-0.93,0.116-1.395,0.349
					s-0.928,0.527-1.393,0.887c0.018,0.135,0.031,0.292,0.043,0.472s0.018,0.357,0.018,0.534v6.31h-1.658v-5.612
					c0-0.436-0.02-0.849-0.059-1.24c-0.037-0.391-0.119-0.704-0.242-0.939c-0.135-0.253-0.33-0.442-0.582-0.569
					c-0.254-0.127-0.617-0.189-1.094-0.189c-0.453,0-0.908,0.111-1.363,0.335c-0.457,0.224-0.912,0.509-1.363,0.856v7.359h-1.66
					v-9.857h1.66v1.095c0.518-0.43,1.033-0.765,1.549-1.006c0.514-0.241,1.063-0.362,1.645-0.362c0.672,0,1.24,0.142,1.707,0.424
					c0.469,0.282,0.816,0.674,1.047,1.174c0.67-0.565,1.281-0.973,1.836-1.223c0.553-0.25,1.143-0.375,1.773-0.375
					c1.082,0,1.881,0.328,2.396,0.984c0.514,0.655,0.771,1.572,0.771,2.749V229.762z"/>
				<path fill="#FFFFFF" d="M475.082,209.115h-8.896v-1.845c0.617-0.529,1.236-1.059,1.857-1.588s1.199-1.056,1.734-1.58
					c1.129-1.094,1.904-1.963,2.32-2.607c0.418-0.645,0.627-1.34,0.627-2.087c0-0.683-0.225-1.217-0.674-1.602
					c-0.451-0.386-1.078-0.578-1.885-0.578c-0.535,0-1.115,0.094-1.738,0.282s-1.232,0.477-1.826,0.865h-0.09v-1.854
					c0.418-0.206,0.977-0.395,1.674-0.564c0.697-0.171,1.371-0.256,2.025-0.256c1.346,0,2.402,0.324,3.168,0.975
					c0.764,0.65,1.146,1.531,1.146,2.643c0,0.501-0.063,0.967-0.189,1.399s-0.314,0.843-0.561,1.23
					c-0.23,0.365-0.498,0.724-0.809,1.077c-0.309,0.353-0.684,0.744-1.125,1.174c-0.629,0.617-1.279,1.216-1.949,1.796
					c-0.672,0.579-1.297,1.116-1.881,1.61h7.07V209.115z"/>
			</g>
		</g>
		<g>
			<path fill="#FFFFFF" d="M342.201,180.564h-11.398v6.357h9.793v2.664h-9.793v10.853h-2.997V177.9h14.395V180.564z"/>
			<path fill="#FFFFFF" d="M351.517,205.145c-0.553,0.265-1.078,0.471-1.575,0.617c-0.498,0.147-1.025,0.221-1.584,0.221
				c-0.712,0-1.365-0.104-1.959-0.313s-1.103-0.525-1.526-0.949c-0.43-0.424-0.762-0.959-0.997-1.606
				c-0.235-0.647-0.353-1.403-0.353-2.268c0-1.612,0.442-2.876,1.328-3.794c0.885-0.918,2.055-1.376,3.508-1.376
				c0.564,0,1.119,0.079,1.663,0.238c0.544,0.159,1.043,0.353,1.496,0.582v1.845h-0.088c-0.506-0.394-1.028-0.697-1.566-0.909
				c-0.538-0.212-1.063-0.318-1.575-0.318c-0.941,0-1.684,0.316-2.228,0.949c-0.544,0.633-0.816,1.561-0.816,2.784
				c0,1.188,0.266,2.102,0.799,2.74c0.532,0.638,1.281,0.958,2.246,0.958c0.335,0,0.676-0.045,1.024-0.133
				c0.347-0.088,0.659-0.203,0.935-0.344c0.241-0.124,0.468-0.255,0.68-0.393c0.212-0.139,0.379-0.258,0.503-0.358h0.088V205.145z"
				/>
			<path fill="#FFFFFF" d="M384.57,188.602h-17.952v-2.422h17.952V188.602z M384.57,194.959h-17.952v-2.422h17.952V194.959z"/>
			<path fill="#FFFFFF" d="M418.945,190.98h-19.829v-1.816h19.829V190.98z"/>
			<path fill="#FFFFFF" d="M438.653,190.98h-19.829v-1.816h19.829V190.98z"/>
			<path fill="#FFFFFF" d="M458.361,190.98h-19.829v-1.816h19.829V190.98z"/>
			<path fill="#FFFFFF" d="M478.069,190.98H458.24v-1.816h19.829V190.98z"/>
			<path fill="#FFFFFF" d="M497.777,190.98h-19.829v-1.816h19.829V190.98z"/>
			<path fill="#FFFFFF" d="M517.485,190.98h-19.829v-1.816h19.829V190.98z"/>
		</g>
	</g>
</g>
</svg>
