<?xml version="1.0" encoding="utf-8"?>
<!-- Generator: Adobe Illustrator 16.0.0, SVG Export Plug-In . SVG Version: 6.00 Build 0)  -->
<!DOCTYPE svg PUBLIC "-//W3C//DTD SVG 1.1//EN" "http://www.w3.org/Graphics/SVG/1.1/DTD/svg11.dtd">
<svg version="1.1" id="Layer_3" xmlns="http://www.w3.org/2000/svg" xmlns:xlink="http://www.w3.org/1999/xlink" x="0px" y="0px"
	 width="1072px" height="243px" viewBox="0 0 1072 243" enable-background="new 0 0 1072 243" xml:space="preserve">
<g id="step12White">
	<path fill="#291159" fill-opacity="0.8" stroke="#FFFFFF" stroke-width="3" stroke-miterlimit="10" d="M1072,231
		c0,6.627-5.373,12-12,12H12c-6.627,0-12-5.373-12-12V12C0,5.373,5.373,0,12,0h1048c6.627,0,12,5.373,12,12V231z"/>
	<g enable-background="new    ">
		<path fill="#FFFFFF" d="M250.834,111.602c-0.949,0.455-1.85,0.809-2.702,1.061c-0.854,0.252-1.759,0.379-2.717,0.379
			c-1.222,0-2.342-0.18-3.36-0.539c-1.02-0.356-1.892-0.899-2.619-1.627c-0.737-0.727-1.307-1.645-1.71-2.754
			c-0.404-1.11-0.604-2.406-0.604-3.891c0-2.766,0.759-4.934,2.277-6.508c1.52-1.574,3.524-2.362,6.018-2.362
			c0.969,0,1.92,0.136,2.853,0.408c0.935,0.272,1.789,0.606,2.566,0.999v3.164h-0.151c-0.868-0.676-1.763-1.195-2.687-1.559
			s-1.824-0.545-2.702-0.545c-1.615,0-2.89,0.543-3.822,1.627c-0.934,1.084-1.4,2.676-1.4,4.774c0,2.039,0.457,3.604,1.37,4.699
			c0.913,1.096,2.197,1.644,3.853,1.644c0.575,0,1.16-0.074,1.756-0.228c0.595-0.15,1.13-0.349,1.604-0.591
			c0.414-0.213,0.803-0.438,1.166-0.674c0.364-0.235,0.651-0.44,0.863-0.612h0.151L250.834,111.602L250.834,111.602z"/>
		<path fill="#FFFFFF" d="M279.695,100.824h-17.951v-2.422h17.951V100.824z M279.695,107.182h-17.951v-2.422h17.951V107.182z"/>
		<path fill="#FFFFFF" d="M311.998,112.662H296.74v-3.164c1.06-0.907,2.121-1.815,3.187-2.725c1.065-0.908,2.057-1.811,2.975-2.709
			c1.938-1.877,3.266-3.369,3.98-4.473c0.717-1.105,1.074-2.299,1.074-3.58c0-1.171-0.386-2.086-1.157-2.748
			c-0.771-0.661-1.849-0.991-3.231-0.991c-0.918,0-1.911,0.161-2.981,0.484c-1.069,0.321-2.113,0.815-3.133,1.481h-0.151v-3.178
			c0.717-0.354,1.673-0.677,2.868-0.969c1.196-0.293,2.354-0.439,3.475-0.439c2.312,0,4.122,0.559,5.434,1.674
			c1.313,1.114,1.969,2.625,1.969,4.532c0,0.857-0.108,1.658-0.325,2.4c-0.218,0.739-0.537,1.444-0.961,2.11
			c-0.396,0.625-0.855,1.24-1.386,1.847c-0.529,0.604-1.174,1.276-1.931,2.014c-1.079,1.062-2.193,2.086-3.345,3.08
			c-1.15,0.994-2.226,1.916-3.225,2.765H312v2.588H311.998z"/>
		<path fill="#FFFFFF" d="M321.458,112.662h-3.616v-4.313h3.616V112.662z"/>
		<path fill="#FFFFFF" d="M342.951,100.037c0,1.969-0.225,3.754-0.673,5.359c-0.449,1.604-1.128,2.971-2.036,4.102
			c-0.918,1.15-2.067,2.039-3.451,2.664c-1.383,0.625-3.007,0.939-4.874,0.939c-0.523,0-1.02-0.029-1.482-0.084
			c-0.464-0.057-0.878-0.145-1.241-0.266v-2.892h0.151c0.293,0.152,0.706,0.296,1.24,0.433c0.535,0.137,1.131,0.205,1.786,0.205
			c2.23,0,3.979-0.67,5.245-2.006c1.267-1.339,2-3.183,2.202-5.533c-0.938,0.563-1.821,0.969-2.647,1.211
			c-0.828,0.242-1.731,0.363-2.711,0.363c-0.929,0-1.769-0.091-2.521-0.271c-0.752-0.182-1.506-0.535-2.263-1.061
			c-0.889-0.615-1.558-1.398-2.006-2.347c-0.449-0.948-0.674-2.084-0.674-3.405c0-2.302,0.757-4.173,2.271-5.617
			c1.514-1.443,3.36-2.164,5.541-2.164c1.09,0,2.099,0.17,3.026,0.508c0.929,0.338,1.74,0.845,2.438,1.521
			c0.857,0.838,1.519,1.914,1.983,3.231C342.72,96.246,342.951,97.949,342.951,100.037z M339.895,99.387
			c0-1.564-0.162-2.82-0.484-3.77c-0.322-0.947-0.768-1.686-1.332-2.209c-0.475-0.455-0.983-0.779-1.528-0.978
			c-0.545-0.196-1.136-0.295-1.771-0.295c-1.453,0-2.601,0.454-3.442,1.362c-0.843,0.908-1.265,2.185-1.265,3.83
			c0,0.959,0.137,1.739,0.408,2.346c0.273,0.604,0.732,1.137,1.378,1.59c0.454,0.313,0.954,0.521,1.499,0.629
			c0.545,0.105,1.15,0.158,1.816,0.158c0.786,0,1.584-0.105,2.391-0.318c0.808-0.211,1.564-0.52,2.271-0.922
			c0.011-0.213,0.022-0.422,0.037-0.629C339.887,99.975,339.895,99.709,339.895,99.387z"/>
		<path fill="#FFFFFF" d="M362.659,100.037c0,1.969-0.225,3.754-0.673,5.359c-0.449,1.604-1.128,2.971-2.036,4.102
			c-0.918,1.15-2.067,2.039-3.451,2.664c-1.383,0.625-3.007,0.939-4.874,0.939c-0.523,0-1.02-0.029-1.482-0.084
			c-0.464-0.057-0.878-0.145-1.241-0.266v-2.892h0.151c0.293,0.152,0.706,0.296,1.241,0.433c0.534,0.137,1.13,0.205,1.785,0.205
			c2.23,0,3.979-0.67,5.245-2.006c1.267-1.339,2-3.183,2.202-5.533c-0.938,0.563-1.821,0.969-2.647,1.211
			c-0.828,0.242-1.731,0.363-2.71,0.363c-0.93,0-1.77-0.091-2.521-0.271c-0.752-0.182-1.506-0.535-2.263-1.061
			c-0.889-0.615-1.558-1.398-2.006-2.347c-0.449-0.948-0.674-2.084-0.674-3.405c0-2.302,0.757-4.173,2.271-5.617
			c1.514-1.443,3.361-2.164,5.541-2.164c1.09,0,2.099,0.17,3.026,0.508c0.929,0.338,1.74,0.845,2.438,1.521
			c0.857,0.838,1.519,1.914,1.983,3.231C362.428,96.246,362.659,97.949,362.659,100.037z M359.603,99.387
			c0-1.564-0.162-2.82-0.484-3.77c-0.322-0.947-0.768-1.686-1.332-2.209c-0.475-0.455-0.983-0.779-1.528-0.978
			c-0.545-0.196-1.136-0.295-1.771-0.295c-1.453,0-2.601,0.454-3.442,1.362c-0.843,0.908-1.265,2.185-1.265,3.83
			c0,0.959,0.137,1.739,0.408,2.346c0.272,0.604,0.731,1.137,1.378,1.59c0.454,0.313,0.954,0.521,1.499,0.629
			c0.545,0.105,1.15,0.158,1.816,0.158c0.786,0,1.584-0.105,2.391-0.318c0.808-0.211,1.563-0.52,2.271-0.922
			c0.011-0.213,0.022-0.422,0.037-0.629C359.595,99.975,359.603,99.709,359.603,99.387z"/>
		<path fill="#FFFFFF" d="M393.039,112.662h-3.588l-4.798-6.494l-4.829,6.494h-3.313l6.6-8.432l-6.539-8.477h3.588l4.769,6.389
			l4.782-6.389h3.33l-6.645,8.326L393.039,112.662z"/>
		<path fill="#FFFFFF" d="M421.254,112.662h-12.2v-2.301h4.691V95.254h-4.691v-2.059c0.636,0,1.316-0.053,2.044-0.158
			c0.727-0.105,1.275-0.261,1.648-0.461c0.464-0.254,0.83-0.574,1.099-0.963c0.267-0.388,0.421-0.91,0.462-1.566h2.346v20.314h4.603
			L421.254,112.662L421.254,112.662z"/>
		<path fill="#FFFFFF" d="M442.218,101.385c0,4.047-0.633,7.016-1.899,8.908c-1.266,1.892-3.23,2.838-5.896,2.838
			c-2.704,0-4.681-0.959-5.927-2.875c-1.247-1.918-1.868-4.865-1.868-8.84c0-4.008,0.63-6.967,1.892-8.879s3.229-2.867,5.903-2.867
			c2.704,0,4.68,0.971,5.926,2.912C441.595,94.525,442.218,97.459,442.218,101.385z M438.237,108.258
			c0.354-0.818,0.593-1.779,0.719-2.885c0.126-1.106,0.189-2.435,0.189-3.988c0-1.533-0.063-2.865-0.189-3.996
			s-0.371-2.088-0.733-2.875c-0.354-0.777-0.835-1.363-1.445-1.756c-0.61-0.396-1.395-0.592-2.354-0.592
			c-0.948,0-1.733,0.196-2.354,0.592c-0.621,0.393-1.113,0.988-1.477,1.785c-0.344,0.746-0.577,1.721-0.703,2.922
			c-0.127,1.201-0.189,2.518-0.189,3.951c0,1.574,0.057,2.891,0.166,3.949c0.111,1.061,0.35,2.008,0.712,2.846
			c0.333,0.787,0.806,1.389,1.415,1.803c0.61,0.412,1.421,0.619,2.431,0.619c0.947,0,1.734-0.195,2.36-0.59
			C437.41,109.65,437.895,109.055,438.237,108.258z"/>
		<path fill="#FFFFFF" d="M453.828,97.338h-7.112v-1.342h2.734v-8.807h-2.734V85.99c0.371,0,0.768-0.031,1.19-0.094
			s0.744-0.15,0.962-0.27c0.271-0.146,0.484-0.334,0.641-0.561c0.155-0.227,0.246-0.531,0.27-0.914h1.367v11.842h2.684
			L453.828,97.338L453.828,97.338z"/>
		<path fill="#FFFFFF" d="M466.051,90.765c0,2.358-0.37,4.09-1.107,5.192c-0.739,1.104-1.885,1.654-3.438,1.654
			c-1.577,0-2.729-0.559-3.455-1.676c-0.728-1.117-1.09-2.835-1.09-5.152c0-2.336,0.366-4.062,1.104-5.177
			c0.735-1.114,1.882-1.672,3.441-1.672c1.575,0,2.728,0.565,3.455,1.698C465.688,86.766,466.051,88.476,466.051,90.765z
			 M463.729,94.77c0.206-0.477,0.346-1.036,0.419-1.682c0.073-0.645,0.11-1.418,0.11-2.324c0-0.895-0.037-1.671-0.11-2.33
			c-0.073-0.658-0.216-1.219-0.428-1.678c-0.206-0.452-0.487-0.793-0.843-1.022c-0.356-0.229-0.813-0.344-1.372-0.344
			c-0.555,0-1.012,0.114-1.372,0.344c-0.362,0.229-0.649,0.576-0.86,1.041c-0.2,0.437-0.337,1.004-0.411,1.703
			c-0.073,0.7-0.109,1.47-0.109,2.304c0,0.918,0.031,1.687,0.098,2.303c0.063,0.619,0.203,1.172,0.415,1.66
			c0.192,0.459,0.469,0.81,0.824,1.051c0.355,0.24,0.827,0.361,1.417,0.361c0.553,0,1.012-0.115,1.376-0.344
			C463.247,95.582,463.529,95.234,463.729,94.77z"/>
		<path fill="#FFFFFF" d="M493.442,111.602c-0.948,0.455-1.849,0.809-2.701,1.061c-0.854,0.252-1.759,0.379-2.717,0.379
			c-1.222,0-2.342-0.18-3.361-0.539c-1.019-0.356-1.892-0.899-2.617-1.627c-0.736-0.727-1.308-1.645-1.71-2.754
			c-0.404-1.11-0.605-2.406-0.605-3.891c0-2.766,0.759-4.934,2.277-6.508c1.518-1.574,3.523-2.362,6.018-2.362
			c0.969,0,1.919,0.136,2.854,0.408c0.934,0.272,1.788,0.606,2.564,0.999v3.164h-0.149c-0.868-0.676-1.765-1.195-2.688-1.559
			c-0.923-0.363-1.824-0.545-2.701-0.545c-1.615,0-2.89,0.543-3.821,1.627c-0.935,1.084-1.4,2.676-1.4,4.774
			c0,2.039,0.456,3.604,1.37,4.699c0.913,1.096,2.196,1.644,3.853,1.644c0.574,0,1.16-0.074,1.756-0.228
			c0.596-0.15,1.131-0.349,1.604-0.591c0.414-0.213,0.803-0.438,1.166-0.674c0.363-0.235,0.649-0.44,0.863-0.612h0.149v3.134
			H493.442z"/>
		<path fill="#FFFFFF" d="M521.764,112.662h-2.847v-9.627c0-0.727-0.031-1.428-0.098-2.104c-0.065-0.678-0.205-1.217-0.416-1.621
			c-0.231-0.434-0.564-0.762-1-0.982c-0.434-0.223-1.059-0.334-1.877-0.334c-0.797,0-1.594,0.199-2.391,0.599
			c-0.798,0.397-1.596,0.905-2.394,1.521c0.031,0.232,0.057,0.502,0.076,0.811c0.021,0.308,0.03,0.613,0.03,0.916v10.822h-2.847
			v-9.627c0-0.748-0.032-1.455-0.099-2.127s-0.204-1.209-0.416-1.611c-0.231-0.436-0.564-0.76-0.999-0.977
			c-0.434-0.217-1.06-0.326-1.877-0.326c-0.777,0-1.557,0.191-2.339,0.576c-0.782,0.383-1.563,0.871-2.338,1.467v12.625h-2.846
			V95.754h2.846v1.877c0.888-0.736,1.771-1.313,2.656-1.726c0.883-0.413,1.823-0.62,2.821-0.62c1.15,0,2.127,0.241,2.931,0.727
			c0.802,0.484,1.399,1.154,1.793,2.014c1.149-0.969,2.199-1.668,3.147-2.097c0.949-0.429,1.963-0.644,3.043-0.644
			c1.856,0,3.228,0.563,4.109,1.688c0.883,1.125,1.324,2.697,1.324,4.715v10.975H521.764z"/>
		<path fill="#FFFFFF" d="M548.359,89.108l-10.854,28.155h-2.618l10.808-28.155H548.359L548.359,89.108z"/>
		<path fill="#FFFFFF" d="M575.196,107.787c0,1.545-0.638,2.812-1.914,3.801c-1.276,0.988-3.02,1.482-5.229,1.482
			c-1.251,0-2.398-0.148-3.443-0.447c-1.044-0.297-1.92-0.623-2.626-0.975v-3.195h0.151c0.897,0.676,1.896,1.215,2.997,1.613
			c1.1,0.398,2.153,0.598,3.163,0.598c1.252,0,2.229-0.203,2.938-0.604c0.706-0.403,1.06-1.039,1.06-1.908
			c0-0.666-0.191-1.17-0.574-1.514c-0.384-0.343-1.121-0.636-2.211-0.877c-0.403-0.093-0.932-0.197-1.581-0.318
			c-0.651-0.121-1.244-0.252-1.778-0.394c-1.484-0.395-2.536-0.973-3.156-1.733c-0.621-0.762-0.932-1.696-0.932-2.808
			c0-0.696,0.145-1.354,0.432-1.969c0.288-0.615,0.726-1.166,1.311-1.649c0.564-0.476,1.284-0.851,2.157-1.127
			c0.872-0.277,1.849-0.416,2.929-0.416c1.009,0,2.03,0.124,3.064,0.371s1.896,0.547,2.58,0.901v3.043h-0.149
			c-0.728-0.535-1.61-0.986-2.649-1.355s-2.059-0.553-3.058-0.553c-1.039,0-1.917,0.199-2.634,0.598
			c-0.718,0.398-1.075,0.992-1.075,1.779c0,0.695,0.218,1.221,0.65,1.574c0.425,0.354,1.11,0.641,2.06,0.862
			c0.523,0.121,1.112,0.242,1.764,0.363c0.65,0.121,1.193,0.229,1.627,0.332c1.322,0.303,2.341,0.821,3.059,1.559
			C574.839,105.568,575.196,106.557,575.196,107.787z"/>
		<path fill="#FFFFFF" d="M604.482,100.824h-17.951v-2.422h17.951V100.824z M604.482,107.182h-17.951v-2.422h17.951V107.182z"/>
		<path fill="#FFFFFF" d="M638.495,106.229c0,0.879-0.203,1.746-0.612,2.604c-0.408,0.857-0.981,1.584-1.719,2.181
			c-0.808,0.646-1.747,1.149-2.822,1.514c-1.074,0.363-2.368,0.546-3.882,0.546c-1.625,0-3.087-0.15-4.384-0.453
			c-1.297-0.304-2.616-0.752-3.958-1.349v-3.754h0.212c1.142,0.946,2.457,1.681,3.951,2.194c1.493,0.515,2.896,0.771,4.207,0.771
			c1.857,0,3.303-0.348,4.337-1.045c1.034-0.695,1.552-1.625,1.552-2.785c0-0.998-0.244-1.736-0.733-2.209
			c-0.489-0.475-1.233-0.844-2.232-1.105c-0.757-0.202-1.577-0.368-2.46-0.5c-0.883-0.131-1.817-0.297-2.808-0.5
			c-1.998-0.424-3.479-1.146-4.442-2.172c-0.964-1.022-1.446-2.358-1.446-4.004c0-1.886,0.799-3.433,2.394-4.639
			c1.594-1.205,3.617-1.809,6.069-1.809c1.584,0,3.036,0.15,4.358,0.453c1.322,0.304,2.492,0.677,3.513,1.121v3.541h-0.213
			c-0.856-0.727-1.984-1.328-3.383-1.809c-1.397-0.479-2.828-0.72-4.291-0.72c-1.604,0-2.895,0.334-3.868,1
			c-0.973,0.666-1.46,1.522-1.46,2.571c0,0.94,0.242,1.676,0.728,2.211c0.483,0.533,1.337,0.943,2.558,1.226
			c0.646,0.144,1.564,0.313,2.755,0.517c1.19,0.2,2.2,0.407,3.027,0.62c1.675,0.443,2.937,1.113,3.784,2.013
			C638.072,103.357,638.495,104.613,638.495,106.229z"/>
		<path fill="#FFFFFF" d="M657.96,104.004c0,1.371-0.196,2.625-0.59,3.762c-0.395,1.135-0.948,2.096-1.666,2.883
			c-0.666,0.746-1.449,1.324-2.354,1.732c-0.903,0.41-1.859,0.613-2.868,0.613c-0.878,0-1.673-0.097-2.384-0.287
			c-0.712-0.191-1.437-0.49-2.172-0.894v7.084h-2.847V95.752h2.847v1.772c0.756-0.637,1.605-1.168,2.55-1.597
			c0.942-0.43,1.95-0.645,3.021-0.645c2.038,0,3.625,0.771,4.761,2.31C657.394,99.133,657.96,101.27,657.96,104.004z
			 M655.024,104.08c0-2.039-0.349-3.563-1.044-4.571c-0.697-1.011-1.767-1.515-3.209-1.515c-0.818,0-1.641,0.176-2.468,0.529
			s-1.62,0.818-2.376,1.393v9.582c0.807,0.363,1.5,0.611,2.081,0.742c0.58,0.131,1.237,0.197,1.976,0.197
			c1.584,0,2.82-0.535,3.708-1.605C654.58,107.763,655.024,106.178,655.024,104.08z"/>
		<path fill="#FFFFFF" d="M676.549,104.504h-12.457c0,1.039,0.155,1.943,0.469,2.717c0.313,0.771,0.742,1.404,1.287,1.898
			c0.523,0.483,1.146,0.848,1.869,1.09c0.721,0.242,1.516,0.363,2.384,0.363c1.15,0,2.309-0.229,3.474-0.688
			c1.166-0.459,1.996-0.912,2.49-1.354h0.151v3.104c-0.959,0.402-1.938,0.742-2.938,1.014c-0.999,0.273-2.049,0.408-3.147,0.408
			c-2.807,0-4.995-0.758-6.569-2.277c-1.574-1.519-2.361-3.676-2.361-6.471c0-2.766,0.754-4.961,2.264-6.584
			c1.509-1.625,3.493-2.438,5.957-2.438c2.279,0,4.037,0.666,5.273,1.998s1.854,3.226,1.854,5.676V104.504L676.549,104.504z
			 M673.779,102.324c-0.011-1.494-0.387-2.649-1.128-3.467c-0.742-0.818-1.87-1.227-3.384-1.227c-1.523,0-2.737,0.449-3.64,1.348
			c-0.903,0.898-1.415,2.014-1.536,3.346H673.779z"/>
		<path fill="#FFFFFF" d="M695.016,104.504h-12.457c0,1.039,0.156,1.943,0.469,2.717c0.313,0.771,0.742,1.404,1.287,1.898
			c0.524,0.483,1.147,0.848,1.869,1.09c0.721,0.242,1.516,0.363,2.384,0.363c1.15,0,2.309-0.229,3.474-0.688
			c1.166-0.459,1.996-0.912,2.49-1.354h0.151v3.104c-0.959,0.402-1.938,0.742-2.938,1.014c-0.999,0.273-2.049,0.408-3.147,0.408
			c-2.807,0-4.995-0.758-6.569-2.277c-1.574-1.519-2.361-3.676-2.361-6.471c0-2.766,0.755-4.961,2.264-6.584
			c1.509-1.625,3.494-2.438,5.957-2.438c2.279,0,4.038,0.666,5.273,1.998c1.236,1.332,1.854,3.226,1.854,5.676V104.504
			L695.016,104.504z M692.246,102.324c-0.011-1.494-0.387-2.649-1.128-3.467c-0.742-0.818-1.87-1.227-3.384-1.227
			c-1.522,0-2.737,0.449-3.64,1.348c-0.903,0.898-1.415,2.014-1.536,3.346H692.246z"/>
		<path fill="#FFFFFF" d="M713.044,112.662h-2.847v-1.771c-0.815,0.707-1.67,1.256-2.558,1.649c-0.889,0.394-1.853,0.59-2.893,0.59
			c-2.018,0-3.619-0.776-4.806-2.329c-1.186-1.556-1.778-3.709-1.778-6.466c0-1.432,0.204-2.709,0.613-3.827
			c0.408-1.121,0.961-2.074,1.657-2.861c0.687-0.769,1.484-1.354,2.398-1.756c0.913-0.403,1.859-0.604,2.838-0.604
			c0.889,0,1.676,0.094,2.361,0.279c0.687,0.186,1.408,0.477,2.164,0.871V89.11h2.846v23.552H713.044z M710.197,108.5v-9.703
			c-0.767-0.344-1.453-0.58-2.059-0.711c-0.605-0.133-1.267-0.197-1.982-0.197c-1.595,0-2.836,0.555-3.724,1.664
			c-0.889,1.111-1.332,2.686-1.332,4.723c0,2.008,0.343,3.535,1.029,4.58c0.687,1.043,1.785,1.566,3.3,1.566
			c0.808,0,1.625-0.18,2.452-0.537C708.71,109.525,709.481,109.064,710.197,108.5z"/>
		<path fill="#FFFFFF" d="M743.953,104.215c0,2.756-0.707,4.93-2.118,6.525c-1.413,1.594-3.307,2.391-5.678,2.391
			c-2.392,0-4.291-0.797-5.699-2.391c-1.406-1.597-2.11-3.771-2.11-6.525c0-2.754,0.704-4.932,2.11-6.531
			c1.408-1.6,3.309-2.398,5.699-2.398c2.371,0,4.265,0.799,5.678,2.398C743.246,99.283,743.953,101.461,743.953,104.215z
			 M741.016,104.215c0-2.189-0.429-3.816-1.286-4.881c-0.857-1.065-2.049-1.599-3.572-1.599c-1.544,0-2.742,0.533-3.595,1.599
			c-0.854,1.063-1.279,2.69-1.279,4.881c0,2.119,0.43,3.727,1.287,4.822c0.857,1.094,2.053,1.643,3.587,1.643
			c1.514,0,2.702-0.543,3.564-1.629C740.585,107.967,741.016,106.355,741.016,104.215z"/>
		<path fill="#FFFFFF" d="M757.454,91.863h-0.15c-0.313-0.091-0.723-0.184-1.228-0.279c-0.504-0.097-0.947-0.145-1.332-0.145
			c-1.221,0-2.105,0.271-2.655,0.811c-0.551,0.539-0.824,1.517-0.824,2.93v0.574h5.131v2.393h-5.041v14.516h-2.846V98.146h-1.922
			v-2.393h1.922v-0.561c0-2.008,0.5-3.55,1.499-4.624c0.999-1.075,2.441-1.612,4.329-1.612c0.636,0,1.208,0.031,1.718,0.092
			s0.977,0.131,1.399,0.212V91.863L757.454,91.863z"/>
		<path fill="#FFFFFF" d="M773.029,112.662h-2.846V89.109h2.846V112.662z"/>
		<path fill="#FFFFFF" d="M781.718,92.924h-3.209v-2.951h3.209V92.924z M781.536,112.662h-2.846V95.754h2.846V112.662z"/>
		<path fill="#FFFFFF" d="M800.881,110.74c0,2.865-0.65,4.969-1.952,6.312c-1.303,1.342-3.306,2.014-6.01,2.014
			c-0.897,0-1.773-0.063-2.627-0.188c-0.853-0.127-1.691-0.305-2.52-0.537v-2.906h0.15c0.465,0.182,1.2,0.406,2.211,0.674
			c1.009,0.268,2.018,0.4,3.026,0.4c0.97,0,1.771-0.115,2.406-0.348c0.635-0.233,1.13-0.556,1.483-0.97
			c0.354-0.393,0.604-0.866,0.757-1.422c0.15-0.558,0.227-1.176,0.227-1.862v-1.543c-0.856,0.686-1.678,1.196-2.459,1.534
			c-0.782,0.341-1.778,0.509-2.99,0.509c-2.018,0-3.619-0.729-4.806-2.188c-1.186-1.457-1.778-3.515-1.778-6.168
			c0-1.453,0.204-2.707,0.613-3.763c0.408-1.055,0.966-1.965,1.672-2.731c0.656-0.717,1.453-1.272,2.394-1.672
			c0.938-0.397,1.871-0.599,2.8-0.599c0.979,0,1.799,0.1,2.46,0.295c0.66,0.197,1.359,0.498,2.096,0.901l0.183-0.727h2.663
			L800.881,110.74L800.881,110.74z M798.035,108.016v-9.219c-0.756-0.344-1.46-0.588-2.11-0.734s-1.3-0.219-1.945-0.219
			c-1.563,0-2.795,0.523-3.693,1.574c-0.896,1.049-1.347,2.572-1.347,4.57c0,1.896,0.333,3.336,0.999,4.313s1.771,1.469,3.314,1.469
			c0.827,0,1.657-0.16,2.489-0.479C796.575,108.977,797.34,108.549,798.035,108.016z"/>
		<path fill="#FFFFFF" d="M820.619,112.662h-2.846v-9.627c0-0.776-0.045-1.506-0.136-2.188s-0.257-1.213-0.499-1.598
			c-0.253-0.424-0.616-0.738-1.09-0.945c-0.476-0.207-1.091-0.311-1.849-0.311c-0.775,0-1.589,0.19-2.437,0.575
			c-0.849,0.384-1.66,0.871-2.438,1.468v12.625h-2.846V89.108h2.846v8.522c0.888-0.736,1.807-1.313,2.754-1.725
			c0.949-0.414,1.923-0.621,2.922-0.621c1.826,0,3.22,0.549,4.179,1.65c0.959,1.1,1.438,2.684,1.438,4.752L820.619,112.662
			L820.619,112.662z"/>
		<path fill="#FFFFFF" d="M834.879,112.51c-0.535,0.143-1.118,0.258-1.749,0.35c-0.632,0.09-1.193,0.135-1.688,0.135
			c-1.726,0-3.037-0.463-3.936-1.393c-0.898-0.928-1.348-2.416-1.348-4.465v-8.99h-1.923v-2.393h1.923v-4.858h2.847v4.858h5.873
			v2.393h-5.873v7.703c0,0.889,0.02,1.582,0.061,2.082c0.04,0.5,0.182,0.967,0.424,1.4c0.223,0.401,0.526,0.699,0.915,0.885
			c0.39,0.188,0.981,0.281,1.778,0.281c0.465,0,0.949-0.068,1.453-0.205c0.505-0.137,0.868-0.25,1.09-0.34h0.152L834.879,112.51
			L834.879,112.51z"/>
	</g>
</g>
</svg>
