<?xml version="1.0" encoding="utf-8"?>
<!-- Generator: Adobe Illustrator 16.0.0, SVG Export Plug-In . SVG Version: 6.00 Build 0)  -->
<!DOCTYPE svg PUBLIC "-//W3C//DTD SVG 1.1//EN" "http://www.w3.org/Graphics/SVG/1.1/DTD/svg11.dtd">
<svg version="1.1" id="Layer_3" xmlns="http://www.w3.org/2000/svg" xmlns:xlink="http://www.w3.org/1999/xlink" x="0px" y="0px"
	 width="719px" height="297px" viewBox="0 0 719 297" enable-background="new 0 0 719 297" xml:space="preserve">
<path fill="#291159" fill-opacity="0.8" stroke="#FFFFFF" stroke-width="3" stroke-miterlimit="10" d="M718.867,291.704
	c0,2.925-3.238,5.296-7.236,5.296H7.369c-3.996,0-7.236-2.371-7.236-5.296V5.295C0.133,2.369,3.373,0,7.369,0h704.262
	c3.998,0,7.236,2.369,7.236,5.295V291.704L718.867,291.704z"/>
<g id="step22White">
	<g enable-background="new    ">
		<path fill="#FFFFFF" d="M50.992,125.217l-8.204,22.539h-3.996l-8.204-22.539h3.209l7.069,19.83l7.069-19.83H50.992z"/>
		<path fill="#FFFFFF" d="M60.307,152.461c-0.553,0.266-1.078,0.471-1.575,0.618c-0.498,0.147-1.025,0.221-1.584,0.221
			c-0.712,0-1.365-0.104-1.959-0.313s-1.103-0.525-1.526-0.948c-0.43-0.424-0.762-0.959-0.997-1.606
			c-0.235-0.647-0.353-1.403-0.353-2.268c0-1.612,0.442-2.877,1.328-3.795c0.885-0.918,2.055-1.377,3.508-1.377
			c0.564,0,1.119,0.08,1.663,0.238c0.544,0.159,1.043,0.354,1.496,0.583v1.844h-0.088c-0.506-0.394-1.028-0.697-1.566-0.908
			c-0.538-0.212-1.063-0.318-1.575-0.318c-0.941,0-1.684,0.316-2.228,0.949c-0.544,0.632-0.816,1.561-0.816,2.784
			c0,1.188,0.266,2.102,0.799,2.74c0.532,0.638,1.281,0.957,2.246,0.957c0.335,0,0.676-0.044,1.024-0.133
			c0.347-0.088,0.659-0.202,0.935-0.344c0.241-0.124,0.468-0.255,0.68-0.393c0.212-0.139,0.379-0.258,0.503-0.357h0.088V152.461z"/>
		<path fill="#FFFFFF" d="M93.36,135.919H75.408v-2.422H93.36V135.919z M93.36,142.276H75.408v-2.422H93.36V142.276z"/>
		<path fill="#FFFFFF" d="M127.736,138.297h-19.829v-1.816h19.829V138.297z"/>
		<path fill="#FFFFFF" d="M147.444,138.297h-19.829v-1.816h19.829V138.297z"/>
		<path fill="#FFFFFF" d="M179.942,135.919h-17.951v-2.422h17.951V135.919z M179.942,142.276h-17.951v-2.422h17.951V142.276z"/>
		<path fill="#FFFFFF" d="M212.305,128.593l-10.203,19.163h-3.238l10.853-19.89H196.88v-2.649h15.425V128.593z"/>
		<path fill="#FFFFFF" d="M221.705,147.756h-3.617v-4.314h3.617V147.756z"/>
		<path fill="#FFFFFF" d="M243.743,141.414h-3.345v6.342h-2.906v-6.342H226.7v-3.482l10.913-12.715h2.785v13.775h3.345V141.414z
			 M237.492,138.992V128.82l-8.733,10.172H237.492z"/>
		<path fill="#FFFFFF" d="M262.906,135.132c0,1.968-0.225,3.754-0.673,5.358c-0.449,1.604-1.128,2.972-2.036,4.102
			c-0.918,1.15-2.068,2.039-3.451,2.664c-1.383,0.626-3.007,0.939-4.874,0.939c-0.524,0-1.02-0.028-1.483-0.084
			s-0.878-0.144-1.241-0.265v-2.892h0.151c0.293,0.152,0.706,0.296,1.241,0.432c0.535,0.137,1.13,0.205,1.786,0.205
			c2.23,0,3.979-0.669,5.245-2.006c1.266-1.337,2-3.182,2.202-5.533c-0.938,0.565-1.821,0.969-2.648,1.211
			c-0.828,0.242-1.731,0.363-2.71,0.363c-0.929,0-1.769-0.09-2.521-0.271s-1.506-0.535-2.263-1.061
			c-0.888-0.615-1.557-1.397-2.006-2.346s-0.673-2.084-0.673-3.406c0-2.301,0.756-4.172,2.27-5.615s3.361-2.164,5.541-2.164
			c1.09,0,2.099,0.169,3.027,0.507c0.928,0.338,1.74,0.845,2.437,1.521c0.857,0.838,1.519,1.915,1.983,3.232
			C262.674,131.34,262.906,133.043,262.906,135.132z M259.849,134.48c0-1.563-0.162-2.82-0.484-3.769
			c-0.323-0.948-0.768-1.686-1.332-2.21c-0.475-0.454-0.984-0.779-1.529-0.977c-0.545-0.196-1.135-0.295-1.771-0.295
			c-1.453,0-2.601,0.454-3.443,1.362s-1.264,2.185-1.264,3.829c0,0.959,0.137,1.741,0.408,2.347
			c0.273,0.605,0.732,1.136,1.378,1.589c0.454,0.313,0.954,0.522,1.499,0.629c0.545,0.105,1.15,0.158,1.816,0.158
			c0.787,0,1.584-0.105,2.391-0.317c0.808-0.212,1.564-0.52,2.271-0.923c0.01-0.213,0.022-0.422,0.037-0.629
			C259.841,135.069,259.849,134.804,259.849,134.48z"/>
		<path fill="#FFFFFF" d="M293.286,147.756h-3.588l-4.798-6.494l-4.829,6.494h-3.314l6.6-8.432l-6.539-8.477h3.588l4.768,6.389
			l4.783-6.389h3.33l-6.645,8.326L293.286,147.756z"/>
		<path fill="#FFFFFF" d="M321.5,147.756h-12.2v-2.301h4.692v-15.106H309.3v-2.059c0.636,0,1.317-0.053,2.044-0.159
			c0.727-0.105,1.276-0.26,1.649-0.461c0.464-0.253,0.83-0.573,1.098-0.962c0.267-0.388,0.421-0.91,0.462-1.566h2.346v20.313h4.602
			V147.756z"/>
		<path fill="#FFFFFF" d="M342.464,136.479c0,4.047-0.633,7.017-1.899,8.908c-1.267,1.893-3.231,2.838-5.896,2.838
			c-2.704,0-4.68-0.958-5.926-2.875c-1.247-1.918-1.869-4.864-1.869-8.84c0-4.007,0.63-6.966,1.892-8.878s3.229-2.868,5.903-2.868
			c2.704,0,4.68,0.971,5.926,2.913C341.841,129.62,342.464,132.554,342.464,136.479z M338.484,143.352
			c0.354-0.818,0.593-1.779,0.719-2.884c0.126-1.105,0.189-2.435,0.189-3.989c0-1.533-0.063-2.865-0.189-3.996
			c-0.126-1.13-0.371-2.088-0.734-2.875c-0.353-0.777-0.835-1.363-1.445-1.756c-0.61-0.395-1.395-0.591-2.354-0.591
			c-0.948,0-1.733,0.196-2.354,0.591c-0.621,0.393-1.113,0.988-1.477,1.785c-0.343,0.747-0.577,1.721-0.703,2.922
			c-0.127,1.201-0.189,2.518-0.189,3.951c0,1.574,0.056,2.891,0.166,3.95c0.111,1.06,0.349,2.008,0.712,2.846
			c0.333,0.787,0.805,1.388,1.415,1.802c0.61,0.413,1.421,0.62,2.43,0.62c0.948,0,1.735-0.196,2.361-0.591
			C337.657,144.744,338.141,144.148,338.484,143.352z"/>
		<path fill="#FFFFFF" d="M355.125,128.735h-1.95v3.697h-1.694v-3.697h-6.292v-2.03l6.362-7.412h1.624v8.03h1.95V128.735z
			 M351.48,127.323v-5.931l-5.092,5.931H351.48z"/>
		<path fill="#FFFFFF" d="M366.35,121.261l-5.947,11.172h-1.889l6.329-11.596h-7.484v-1.544h8.992V121.261z"/>
		<path fill="#FFFFFF" d="M394.9,147.756h-2.846v-1.771c-0.816,0.707-1.67,1.257-2.559,1.65c-0.887,0.394-1.852,0.59-2.891,0.59
			c-2.018,0-3.621-0.776-4.807-2.33c-1.186-1.555-1.777-3.709-1.777-6.464c0-1.433,0.203-2.71,0.613-3.829
			c0.408-1.121,0.961-2.074,1.656-2.861c0.688-0.767,1.486-1.353,2.4-1.756c0.912-0.403,1.859-0.605,2.838-0.605
			c0.887,0,1.674,0.094,2.361,0.28c0.686,0.187,1.408,0.477,2.164,0.87v-7.326h2.846V147.756z M392.055,143.594v-9.703
			c-0.768-0.343-1.453-0.58-2.059-0.711c-0.605-0.132-1.266-0.197-1.982-0.197c-1.596,0-2.836,0.555-3.725,1.665
			c-0.887,1.11-1.332,2.685-1.332,4.723c0,2.008,0.344,3.534,1.029,4.579c0.688,1.044,1.787,1.566,3.301,1.566
			c0.807,0,1.625-0.179,2.451-0.537C390.566,144.62,391.338,144.158,392.055,143.594z"/>
		<path fill="#FFFFFF" d="M415.123,130.848l-9.869,23.145h-3.043l3.148-7.054l-6.734-16.091h3.088l5.191,12.533l5.236-12.533
			H415.123z"/>
		<path fill="#FFFFFF" d="M432.984,147.756h-2.846v-9.627c0-0.777-0.045-1.506-0.137-2.188c-0.09-0.681-0.256-1.213-0.498-1.597
			c-0.254-0.424-0.617-0.739-1.09-0.946c-0.475-0.206-1.09-0.311-1.848-0.311c-0.777,0-1.59,0.192-2.438,0.576
			c-0.848,0.383-1.66,0.872-2.436,1.468v12.624h-2.846v-16.908h2.846v1.877c0.887-0.736,1.805-1.312,2.754-1.725
			c0.949-0.414,1.922-0.621,2.922-0.621c1.826,0,3.219,0.55,4.178,1.65c0.959,1.1,1.438,2.684,1.438,4.752V147.756z"/>
		<path fill="#FFFFFF" d="M452.617,139.598H440.16c0,1.039,0.156,1.944,0.469,2.717c0.313,0.771,0.742,1.405,1.287,1.899
			c0.523,0.484,1.146,0.848,1.869,1.09c0.721,0.242,1.516,0.363,2.383,0.363c1.15,0,2.309-0.229,3.475-0.688s1.996-0.911,2.49-1.355
			h0.15v3.104c-0.959,0.403-1.938,0.742-2.936,1.014c-1,0.273-2.049,0.409-3.148,0.409c-2.807,0-4.996-0.759-6.57-2.278
			c-1.574-1.519-2.361-3.676-2.361-6.471c0-2.765,0.754-4.96,2.264-6.584c1.508-1.625,3.494-2.438,5.957-2.438
			c2.279,0,4.037,0.666,5.273,1.998s1.855,3.225,1.855,5.676V139.598z M449.848,137.418c-0.012-1.494-0.387-2.649-1.129-3.467
			s-1.869-1.227-3.383-1.227c-1.523,0-2.738,0.449-3.641,1.348s-1.414,2.014-1.535,3.346H449.848z"/>
		<path fill="#FFFFFF" d="M469.01,142.882c0,1.544-0.639,2.811-1.914,3.8c-1.277,0.988-3.02,1.482-5.23,1.482
			c-1.252,0-2.398-0.148-3.443-0.446c-1.045-0.297-1.92-0.623-2.627-0.976v-3.194h0.152c0.898,0.676,1.896,1.214,2.996,1.612
			s2.154,0.598,3.164,0.598c1.252,0,2.23-0.202,2.938-0.605c0.705-0.403,1.059-1.039,1.059-1.907c0-0.666-0.191-1.171-0.574-1.514
			c-0.385-0.343-1.121-0.636-2.211-0.878c-0.404-0.091-0.932-0.197-1.582-0.318s-1.244-0.252-1.777-0.393
			c-1.484-0.395-2.537-0.972-3.156-1.733c-0.621-0.762-0.932-1.698-0.932-2.808c0-0.697,0.145-1.353,0.432-1.969
			c0.287-0.615,0.725-1.165,1.309-1.649c0.566-0.475,1.285-0.85,2.158-1.128c0.871-0.277,1.848-0.416,2.928-0.416
			c1.01,0,2.031,0.124,3.066,0.371c1.033,0.247,1.895,0.547,2.58,0.9v3.043h-0.15c-0.727-0.535-1.611-0.986-2.65-1.355
			c-1.039-0.368-2.059-0.553-3.057-0.553c-1.039,0-1.918,0.2-2.635,0.599s-1.074,0.991-1.074,1.778c0,0.696,0.217,1.221,0.65,1.574
			c0.424,0.354,1.111,0.641,2.059,0.863c0.525,0.121,1.113,0.242,1.764,0.363s1.193,0.231,1.627,0.332
			c1.322,0.303,2.342,0.823,3.059,1.56C468.652,140.662,469.01,141.65,469.01,142.882z"/>
		<path fill="#FFFFFF" d="M502.84,135.919h-17.951v-2.422h17.951V135.919z M502.84,142.276h-17.951v-2.422h17.951V142.276z"/>
	</g>
	<g>
		<g enable-background="new    ">
			<path fill="#FFFFFF" d="M135.126,104.146l-8.363,22.539h-4.073l-8.363-22.539h3.271l7.205,19.83l7.206-19.83H135.126z"/>
			<path fill="#FFFFFF" d="M143.311,123.96h-0.088c-0.247-0.059-0.487-0.102-0.72-0.128s-0.507-0.04-0.825-0.04
				c-0.512,0-1.006,0.113-1.482,0.34s-0.936,0.52-1.376,0.878v6.998h-1.659v-9.857h1.659v1.456c0.658-0.529,1.239-0.904,1.742-1.125
				s1.017-0.331,1.54-0.331c0.288,0,0.497,0.008,0.627,0.022c0.129,0.015,0.323,0.043,0.582,0.084V123.96z"/>
		</g>
		<g enable-background="new    ">
			<path fill="#FFFFFF" d="M130.535,153.88h-0.154c-0.432-0.101-0.852-0.174-1.258-0.22c-0.406-0.045-0.887-0.067-1.442-0.067
				c-0.895,0-1.759,0.194-2.592,0.582c-0.834,0.389-1.636,0.891-2.407,1.506v12.004h-2.901v-16.908h2.901v2.498
				c1.151-0.908,2.168-1.552,3.047-1.93c0.88-0.379,1.777-0.568,2.693-0.568c0.504,0,0.869,0.014,1.095,0.038
				c0.227,0.025,0.566,0.073,1.019,0.144V153.88z"/>
		</g>
	</g>
	<g>
		<path fill="#FFFFFF" d="M538.967,127.625c-0.947,0.454-1.848,0.808-2.701,1.06s-1.758,0.379-2.717,0.379
			c-1.221,0-2.342-0.18-3.361-0.538c-1.018-0.357-1.891-0.9-2.617-1.627c-0.736-0.727-1.307-1.645-1.711-2.755
			s-0.605-2.406-0.605-3.891c0-2.765,0.76-4.934,2.277-6.508c1.52-1.574,3.525-2.361,6.018-2.361c0.969,0,1.92,0.136,2.854,0.408
			s1.789,0.605,2.564,0.999v3.163h-0.15c-0.867-0.676-1.764-1.195-2.688-1.559c-0.922-0.363-1.824-0.545-2.701-0.545
			c-1.615,0-2.889,0.543-3.822,1.627c-0.934,1.085-1.4,2.677-1.4,4.775c0,2.039,0.457,3.605,1.371,4.7
			c0.912,1.096,2.197,1.643,3.852,1.643c0.574,0,1.16-0.075,1.756-0.228c0.596-0.15,1.131-0.348,1.604-0.59
			c0.414-0.212,0.803-0.437,1.166-0.674c0.363-0.236,0.65-0.441,0.863-0.613h0.15V127.625z"/>
		<path fill="#FFFFFF" d="M556.77,120.526h-12.457c0,1.039,0.156,1.944,0.469,2.717c0.313,0.771,0.742,1.405,1.287,1.899
			c0.523,0.484,1.146,0.848,1.869,1.09c0.721,0.242,1.516,0.363,2.383,0.363c1.15,0,2.309-0.229,3.475-0.688s1.996-0.911,2.49-1.355
			h0.15v3.104c-0.959,0.403-1.938,0.742-2.936,1.014c-1,0.273-2.049,0.409-3.148,0.409c-2.807,0-4.996-0.759-6.57-2.278
			c-1.574-1.519-2.361-3.676-2.361-6.471c0-2.765,0.754-4.96,2.264-6.584c1.508-1.625,3.494-2.438,5.957-2.438
			c2.279,0,4.037,0.666,5.273,1.998s1.855,3.225,1.855,5.676V120.526z M554,118.347c-0.012-1.494-0.387-2.649-1.129-3.467
			s-1.869-1.227-3.383-1.227c-1.523,0-2.738,0.449-3.641,1.348s-1.414,2.014-1.535,3.346H554z"/>
		<path fill="#FFFFFF" d="M575.221,128.685h-2.846v-9.627c0-0.777-0.045-1.506-0.137-2.188c-0.09-0.681-0.256-1.213-0.498-1.597
			c-0.254-0.424-0.617-0.739-1.09-0.946c-0.475-0.206-1.09-0.311-1.848-0.311c-0.777,0-1.59,0.192-2.438,0.576
			c-0.848,0.383-1.66,0.872-2.436,1.468v12.624h-2.846v-16.908h2.846v1.877c0.887-0.736,1.805-1.312,2.754-1.725
			c0.949-0.414,1.922-0.621,2.922-0.621c1.826,0,3.219,0.55,4.178,1.65c0.959,1.1,1.438,2.684,1.438,4.752V128.685z"/>
		<path fill="#FFFFFF" d="M589.48,128.533c-0.535,0.142-1.119,0.257-1.75,0.349c-0.631,0.09-1.193,0.136-1.688,0.136
			c-1.725,0-3.037-0.464-3.936-1.393s-1.346-2.417-1.346-4.466v-8.99h-1.924v-2.393h1.924v-4.858h2.846v4.858h5.873v2.393h-5.873
			v7.704c0,0.888,0.02,1.582,0.061,2.081c0.039,0.5,0.182,0.967,0.424,1.4c0.221,0.403,0.525,0.699,0.914,0.886
			s0.982,0.28,1.779,0.28c0.465,0,0.949-0.068,1.453-0.205c0.504-0.136,0.867-0.25,1.09-0.34h0.152V128.533z"/>
		<path fill="#FFFFFF" d="M603.465,114.88h-0.15c-0.424-0.101-0.836-0.174-1.234-0.22c-0.398-0.045-0.869-0.067-1.414-0.067
			c-0.879,0-1.727,0.194-2.543,0.582c-0.818,0.389-1.605,0.891-2.361,1.506v12.004h-2.846v-16.908h2.846v2.498
			c1.129-0.908,2.125-1.552,2.988-1.93c0.863-0.379,1.744-0.568,2.643-0.568c0.494,0,0.852,0.014,1.074,0.038
			c0.221,0.025,0.555,0.073,0.998,0.144V114.88z"/>
		<path fill="#FFFFFF" d="M609.201,108.946h-3.209v-2.951h3.209V108.946z M609.02,128.685h-2.846v-16.908h2.846V128.685z"/>
		<path fill="#FFFFFF" d="M623.748,107.887h-0.15c-0.313-0.091-0.723-0.184-1.227-0.28c-0.504-0.096-0.949-0.144-1.332-0.144
			c-1.221,0-2.107,0.271-2.656,0.81c-0.551,0.54-0.824,1.517-0.824,2.93v0.574h5.131v2.393h-5.041v14.516h-2.846v-14.516h-1.922
			v-2.393h1.922v-0.56c0-2.008,0.5-3.55,1.498-4.624c1-1.075,2.443-1.612,4.33-1.612c0.635,0,1.207,0.03,1.717,0.091
			s0.977,0.131,1.4,0.212V107.887z"/>
		<path fill="#FFFFFF" d="M639.566,128.685h-2.846v-1.877c-0.959,0.757-1.877,1.337-2.754,1.74
			c-0.879,0.404-1.848,0.605-2.906,0.605c-1.777,0-3.16-0.542-4.148-1.627c-0.988-1.084-1.482-2.677-1.482-4.775v-10.975h2.846
			v9.627c0,0.858,0.039,1.593,0.121,2.203c0.08,0.61,0.252,1.133,0.514,1.566c0.273,0.444,0.625,0.767,1.061,0.969
			c0.434,0.202,1.064,0.303,1.891,0.303c0.736,0,1.541-0.191,2.414-0.575s1.689-0.873,2.445-1.468v-12.625h2.846V128.685z"/>
		<path fill="#FFFFFF" d="M658.881,126.763c0,2.865-0.65,4.97-1.953,6.312c-1.301,1.342-3.305,2.013-6.008,2.013
			c-0.898,0-1.775-0.063-2.627-0.188c-0.854-0.127-1.693-0.306-2.52-0.538v-2.906h0.15c0.465,0.182,1.201,0.406,2.211,0.674
			c1.008,0.268,2.018,0.401,3.027,0.401c0.969,0,1.77-0.116,2.406-0.349c0.635-0.231,1.129-0.555,1.482-0.969
			c0.354-0.393,0.605-0.867,0.758-1.422c0.15-0.556,0.227-1.176,0.227-1.862v-1.544c-0.857,0.687-1.678,1.198-2.459,1.536
			c-0.783,0.339-1.779,0.507-2.99,0.507c-2.018,0-3.621-0.729-4.807-2.187s-1.777-3.515-1.777-6.169
			c0-1.453,0.203-2.706,0.613-3.761c0.408-1.055,0.965-1.966,1.672-2.732c0.656-0.717,1.453-1.273,2.393-1.673
			c0.938-0.398,1.871-0.598,2.799-0.598c0.979,0,1.799,0.099,2.461,0.295c0.66,0.197,1.359,0.497,2.096,0.9l0.182-0.727h2.664
			V126.763z M656.035,124.038v-9.219c-0.756-0.343-1.461-0.588-2.111-0.734c-0.65-0.146-1.299-0.219-1.945-0.219
			c-1.564,0-2.795,0.524-3.693,1.574c-0.898,1.049-1.348,2.572-1.348,4.57c0,1.897,0.334,3.336,1,4.314s1.771,1.469,3.314,1.469
			c0.828,0,1.658-0.159,2.49-0.478C654.574,124.999,655.34,124.572,656.035,124.038z"/>
		<path fill="#FFFFFF" d="M677.621,128.685h-2.832v-1.801c-0.252,0.171-0.592,0.411-1.021,0.719s-0.846,0.553-1.248,0.734
			c-0.475,0.231-1.02,0.426-1.635,0.582s-1.338,0.234-2.164,0.234c-1.525,0-2.816-0.504-3.875-1.514
			c-1.061-1.009-1.59-2.295-1.59-3.859c0-1.281,0.273-2.318,0.824-3.11s1.334-1.415,2.354-1.87c1.029-0.453,2.266-0.762,3.709-0.923
			s2.992-0.282,4.646-0.363v-0.438c0-0.646-0.113-1.182-0.34-1.605s-0.553-0.756-0.977-0.998c-0.404-0.232-0.889-0.389-1.453-0.47
			s-1.156-0.121-1.771-0.121c-0.746,0-1.578,0.099-2.496,0.295c-0.92,0.197-1.867,0.482-2.846,0.855h-0.152v-2.892
			c0.555-0.15,1.357-0.317,2.406-0.499c1.051-0.182,2.084-0.272,3.104-0.272c1.191,0,2.227,0.099,3.111,0.295
			c0.883,0.197,1.646,0.532,2.293,1.007c0.635,0.464,1.119,1.064,1.453,1.802c0.332,0.736,0.5,1.649,0.5,2.739V128.685z
			 M674.789,124.522v-4.708c-0.867,0.051-1.889,0.126-3.064,0.228c-1.176,0.101-2.107,0.247-2.793,0.438
			c-0.816,0.232-1.479,0.593-1.982,1.082c-0.506,0.49-0.758,1.163-0.758,2.021c0,0.969,0.293,1.698,0.879,2.188
			c0.584,0.49,1.479,0.734,2.68,0.734c0.998,0,1.912-0.194,2.738-0.583C673.316,125.534,674.084,125.067,674.789,124.522z"/>
		<path fill="#FFFFFF" d="M685.975,128.685h-2.846v-23.553h2.846V128.685z"/>
		<path fill="#FFFFFF" d="M535.563,144.887h-0.152c-0.313-0.091-0.721-0.184-1.227-0.28c-0.504-0.096-0.947-0.144-1.332-0.144
			c-1.221,0-2.105,0.271-2.656,0.81c-0.549,0.54-0.824,1.517-0.824,2.93v0.574h5.131v2.393h-5.041v14.516h-2.846v-14.516h-1.922
			v-2.393h1.922v-0.56c0-2.008,0.5-3.55,1.5-4.624c0.998-1.075,2.441-1.612,4.328-1.612c0.637,0,1.209,0.03,1.719,0.091
			s0.977,0.131,1.4,0.212V144.887z"/>
		<path fill="#FFFFFF" d="M551.773,157.238c0,2.755-0.707,4.93-2.119,6.524c-1.412,1.594-3.305,2.391-5.676,2.391
			c-2.393,0-4.291-0.797-5.699-2.391c-1.408-1.595-2.111-3.77-2.111-6.524s0.703-4.932,2.111-6.531s3.307-2.399,5.699-2.399
			c2.371,0,4.264,0.8,5.676,2.399S551.773,154.483,551.773,157.238z M548.836,157.238c0-2.189-0.428-3.816-1.285-4.882
			c-0.857-1.064-2.049-1.597-3.572-1.597c-1.545,0-2.742,0.532-3.596,1.597c-0.854,1.065-1.279,2.692-1.279,4.882
			c0,2.119,0.43,3.727,1.287,4.821s2.053,1.643,3.588,1.643c1.514,0,2.701-0.543,3.564-1.628
			C548.406,160.99,548.836,159.378,548.836,157.238z"/>
		<path fill="#FFFFFF" d="M566.729,151.88h-0.15c-0.424-0.101-0.836-0.174-1.234-0.22c-0.398-0.045-0.869-0.067-1.414-0.067
			c-0.879,0-1.727,0.194-2.543,0.582c-0.818,0.389-1.605,0.891-2.361,1.506v12.004h-2.846v-16.908h2.846v2.498
			c1.129-0.908,2.125-1.552,2.988-1.93c0.863-0.379,1.744-0.568,2.643-0.568c0.494,0,0.852,0.014,1.074,0.038
			c0.221,0.025,0.555,0.073,0.998,0.144V151.88z"/>
		<path fill="#FFFFFF" d="M581.91,164.625c-0.949,0.454-1.85,0.808-2.701,1.06c-0.854,0.252-1.76,0.379-2.717,0.379
			c-1.223,0-2.342-0.18-3.361-0.538c-1.02-0.357-1.893-0.9-2.619-1.627c-0.736-0.727-1.307-1.645-1.709-2.755
			c-0.404-1.11-0.605-2.406-0.605-3.891c0-2.765,0.758-4.934,2.277-6.508c1.518-1.574,3.523-2.361,6.018-2.361
			c0.969,0,1.918,0.136,2.852,0.408s1.789,0.605,2.566,0.999v3.163h-0.15c-0.869-0.676-1.764-1.195-2.688-1.559
			s-1.824-0.545-2.701-0.545c-1.615,0-2.891,0.543-3.822,1.627c-0.934,1.085-1.4,2.677-1.4,4.775c0,2.039,0.455,3.605,1.369,4.7
			c0.914,1.096,2.197,1.643,3.854,1.643c0.574,0,1.16-0.075,1.756-0.228c0.594-0.15,1.129-0.348,1.604-0.59
			c0.414-0.212,0.803-0.437,1.166-0.674c0.363-0.236,0.65-0.441,0.863-0.613h0.15V164.625z"/>
		<path fill="#FFFFFF" d="M599.711,157.526h-12.457c0,1.039,0.156,1.944,0.469,2.717c0.313,0.771,0.742,1.405,1.287,1.899
			c0.525,0.484,1.148,0.848,1.869,1.09s1.516,0.363,2.385,0.363c1.15,0,2.309-0.229,3.473-0.688c1.166-0.459,1.996-0.911,2.49-1.355
			h0.152v3.104c-0.959,0.403-1.938,0.742-2.938,1.014c-0.998,0.273-2.049,0.409-3.148,0.409c-2.805,0-4.994-0.759-6.568-2.278
			c-1.574-1.519-2.361-3.676-2.361-6.471c0-2.765,0.754-4.96,2.262-6.584c1.51-1.625,3.494-2.438,5.957-2.438
			c2.281,0,4.039,0.666,5.275,1.998s1.854,3.225,1.854,5.676V157.526z M596.941,155.347c-0.01-1.494-0.387-2.649-1.127-3.467
			c-0.742-0.817-1.871-1.227-3.385-1.227c-1.523,0-2.736,0.449-3.639,1.348c-0.904,0.898-1.416,2.014-1.537,3.346H596.941z"/>
	</g>
</g>
</svg>
