<?xml version="1.0" encoding="utf-8"?>
<!-- Generator: Adobe Illustrator 16.0.0, SVG Export Plug-In . SVG Version: 6.00 Build 0)  -->
<!DOCTYPE svg PUBLIC "-//W3C//DTD SVG 1.1//EN" "http://www.w3.org/Graphics/SVG/1.1/DTD/svg11.dtd">
<svg version="1.1" id="Layer_3" xmlns="http://www.w3.org/2000/svg" xmlns:xlink="http://www.w3.org/1999/xlink" x="0px" y="0px"
	 width="784px" height="410px" viewBox="0 0 784 410" enable-background="new 0 0 784 410" xml:space="preserve">
<path fill="#291159" fill-opacity="0.8" stroke="#FFFFFF" stroke-width="3" stroke-linecap="round" stroke-linejoin="round" stroke-miterlimit="10" d="
	M784,398c0,6.627-5.373,12-12,12H12c-6.627,0-12-5.373-12-12V12C0,5.373,5.373,0,12,0h760c6.627,0,12,5.373,12,12V398z"/>
<g id="step2White">
	<g>
		<path fill="#FFFFFF" d="M300.733,95.238c0,0.998-0.174,1.925-0.522,2.777c-0.348,0.853-0.835,1.592-1.46,2.217
			c-0.777,0.777-1.695,1.36-2.755,1.749s-2.397,0.583-4.011,0.583h-2.997v8.4h-2.997V88.426h6.115c1.352,0,2.498,0.114,3.436,0.341
			c0.938,0.228,1.771,0.583,2.498,1.067c0.857,0.575,1.521,1.292,1.99,2.149C300.499,92.841,300.733,93.926,300.733,95.238z
			 M297.615,95.313c0-0.777-0.136-1.453-0.409-2.028s-0.687-1.045-1.241-1.408c-0.484-0.313-1.037-0.537-1.658-0.673
			c-0.62-0.137-1.405-0.204-2.354-0.204h-2.967v9.006h2.528c1.211,0,2.195-0.108,2.952-0.325s1.372-0.563,1.847-1.037
			c0.474-0.484,0.81-0.994,1.007-1.528C297.517,96.58,297.615,95.979,297.615,95.313z"/>
		<path fill="#FFFFFF" d="M315.007,97.16h-0.151c-0.424-0.101-0.835-0.174-1.233-0.22c-0.399-0.045-0.871-0.067-1.416-0.067
			c-0.878,0-1.726,0.194-2.543,0.582c-0.817,0.389-1.604,0.891-2.361,1.506v12.004h-2.846V94.057h2.846v2.498
			c1.13-0.908,2.126-1.552,2.99-1.93c0.862-0.379,1.743-0.568,2.641-0.568c0.494,0,0.853,0.014,1.075,0.038
			c0.222,0.025,0.555,0.073,0.999,0.144V97.16z"/>
		<path fill="#FFFFFF" d="M332.097,102.519c0,2.755-0.707,4.93-2.119,6.524c-1.413,1.594-3.305,2.391-5.676,2.391
			c-2.392,0-4.291-0.797-5.699-2.391c-1.407-1.595-2.111-3.77-2.111-6.524s0.704-4.932,2.111-6.531
			c1.408-1.6,3.308-2.399,5.699-2.399c2.371,0,4.263,0.8,5.676,2.399C331.39,97.587,332.097,99.764,332.097,102.519z
			 M329.16,102.519c0-2.189-0.429-3.816-1.287-4.882c-0.858-1.064-2.049-1.597-3.572-1.597c-1.544,0-2.742,0.532-3.595,1.597
			c-0.853,1.065-1.279,2.692-1.279,4.882c0,2.119,0.429,3.727,1.287,4.821c0.857,1.095,2.053,1.643,3.587,1.643
			c1.514,0,2.702-0.543,3.564-1.628C328.729,106.271,329.16,104.658,329.16,102.519z"/>
		<path fill="#FFFFFF" d="M345.281,110.813c-0.535,0.142-1.118,0.257-1.749,0.349c-0.631,0.09-1.193,0.136-1.688,0.136
			c-1.726,0-3.037-0.464-3.936-1.393s-1.347-2.417-1.347-4.466v-8.99h-1.923v-2.393h1.923v-4.858h2.846v4.858h5.873v2.393h-5.873
			v7.704c0,0.888,0.02,1.582,0.061,2.081c0.04,0.5,0.182,0.967,0.424,1.4c0.222,0.403,0.526,0.699,0.915,0.886
			s0.981,0.28,1.778,0.28c0.465,0,0.949-0.068,1.453-0.205c0.505-0.136,0.868-0.25,1.09-0.34h0.152V110.813z"/>
		<path fill="#FFFFFF" d="M363.127,102.519c0,2.755-0.707,4.93-2.119,6.524c-1.413,1.594-3.306,2.391-5.677,2.391
			c-2.392,0-4.291-0.797-5.699-2.391c-1.407-1.595-2.111-3.77-2.111-6.524s0.704-4.932,2.111-6.531
			c1.408-1.6,3.308-2.399,5.699-2.399c2.371,0,4.264,0.8,5.677,2.399C362.42,97.587,363.127,99.764,363.127,102.519z
			 M360.189,102.519c0-2.189-0.429-3.816-1.286-4.882c-0.857-1.064-2.049-1.597-3.572-1.597c-1.544,0-2.742,0.532-3.595,1.597
			c-0.854,1.065-1.279,2.692-1.279,4.882c0,2.119,0.429,3.727,1.287,4.821c0.857,1.095,2.053,1.643,3.587,1.643
			c1.514,0,2.702-0.543,3.564-1.628C359.759,106.271,360.189,104.658,360.189,102.519z"/>
		<path fill="#FFFFFF" d="M381.669,110.965h-2.846v-9.627c0-0.777-0.045-1.506-0.136-2.188c-0.091-0.681-0.257-1.213-0.499-1.597
			c-0.253-0.424-0.616-0.739-1.09-0.946c-0.475-0.206-1.09-0.311-1.848-0.311c-0.776,0-1.589,0.192-2.437,0.576
			c-0.848,0.383-1.66,0.872-2.437,1.468v12.624h-2.846V94.057h2.846v1.877c0.888-0.736,1.806-1.312,2.754-1.725
			c0.949-0.414,1.923-0.621,2.922-0.621c1.826,0,3.219,0.55,4.178,1.65c0.959,1.1,1.438,2.684,1.438,4.752V110.965z"/>
		<path fill="#FFFFFF" d="M408.598,97.16h-0.151c-0.424-0.101-0.835-0.174-1.233-0.22c-0.399-0.045-0.87-0.067-1.415-0.067
			c-0.879,0-1.727,0.194-2.543,0.582c-0.818,0.389-1.605,0.891-2.361,1.506v12.004h-2.846V94.057h2.846v2.498
			c1.13-0.908,2.126-1.552,2.989-1.93c0.862-0.379,1.743-0.568,2.642-0.568c0.494,0,0.853,0.014,1.074,0.038
			c0.222,0.025,0.555,0.073,0.999,0.144V97.16z"/>
		<path fill="#FFFFFF" d="M423.871,110.965h-2.831v-1.801c-0.252,0.171-0.593,0.411-1.021,0.719
			c-0.43,0.308-0.846,0.553-1.249,0.734c-0.475,0.231-1.02,0.426-1.635,0.582s-1.337,0.234-2.164,0.234
			c-1.524,0-2.816-0.504-3.875-1.514c-1.061-1.009-1.59-2.295-1.59-3.859c0-1.281,0.274-2.318,0.825-3.11
			c0.55-0.792,1.334-1.415,2.354-1.87c1.029-0.453,2.266-0.762,3.708-0.923c1.443-0.161,2.992-0.282,4.647-0.363v-0.438
			c0-0.646-0.113-1.182-0.341-1.605c-0.227-0.424-0.553-0.756-0.977-0.998c-0.403-0.232-0.888-0.389-1.453-0.47
			c-0.564-0.081-1.155-0.121-1.771-0.121c-0.747,0-1.579,0.099-2.497,0.295c-0.919,0.197-1.867,0.482-2.846,0.855h-0.152V94.42
			c0.556-0.15,1.357-0.317,2.407-0.499s2.084-0.272,3.103-0.272c1.191,0,2.228,0.099,3.111,0.295
			c0.883,0.197,1.647,0.532,2.293,1.007c0.636,0.464,1.12,1.064,1.453,1.802c0.333,0.736,0.5,1.649,0.5,2.739V110.965z
			 M421.04,106.803v-4.708c-0.868,0.051-1.89,0.126-3.065,0.228c-1.176,0.101-2.106,0.247-2.793,0.438
			c-0.816,0.232-1.478,0.593-1.982,1.082c-0.505,0.49-0.757,1.163-0.757,2.021c0,0.969,0.293,1.698,0.878,2.188
			c0.585,0.49,1.479,0.734,2.68,0.734c0.998,0,1.912-0.194,2.739-0.583C419.566,107.814,420.334,107.348,421.04,106.803z"/>
		<path fill="#FFFFFF" d="M443.063,110.965h-2.846v-1.771c-0.816,0.707-1.67,1.257-2.558,1.65s-1.852,0.59-2.892,0.59
			c-2.018,0-3.62-0.776-4.806-2.33c-1.186-1.555-1.778-3.709-1.778-6.464c0-1.433,0.204-2.71,0.613-3.829
			c0.408-1.121,0.961-2.074,1.657-2.861c0.687-0.767,1.485-1.353,2.399-1.756c0.913-0.403,1.859-0.605,2.838-0.605
			c0.888,0,1.675,0.094,2.361,0.28s1.408,0.477,2.164,0.87v-7.326h2.846V110.965z M440.218,106.803V97.1
			c-0.767-0.343-1.453-0.58-2.059-0.711c-0.605-0.132-1.266-0.197-1.982-0.197c-1.595,0-2.836,0.555-3.724,1.665
			s-1.332,2.685-1.332,4.723c0,2.008,0.343,3.534,1.029,4.579c0.687,1.044,1.786,1.566,3.3,1.566c0.808,0,1.625-0.179,2.452-0.537
			S439.502,107.367,440.218,106.803z"/>
		<path fill="#FFFFFF" d="M451.722,91.227h-3.209v-2.951h3.209V91.227z M451.54,110.965h-2.846V94.057h2.846V110.965z"/>
		<path fill="#FFFFFF" d="M471.188,110.965h-2.846v-1.877c-0.958,0.757-1.877,1.337-2.754,1.74
			c-0.879,0.404-1.848,0.605-2.906,0.605c-1.776,0-3.159-0.542-4.148-1.627c-0.988-1.084-1.482-2.677-1.482-4.775V94.057h2.846
			v9.627c0,0.858,0.04,1.593,0.121,2.203c0.08,0.61,0.252,1.133,0.514,1.566c0.273,0.444,0.626,0.767,1.061,0.969
			c0.434,0.202,1.064,0.303,1.892,0.303c0.736,0,1.541-0.191,2.414-0.575s1.688-0.873,2.444-1.468V94.057h2.846V110.965z"/>
		<path fill="#FFFFFF" d="M488.867,106.091c0,1.544-0.638,2.811-1.914,3.8c-1.277,0.988-3.02,1.482-5.23,1.482
			c-1.251,0-2.398-0.148-3.443-0.446c-1.044-0.297-1.92-0.623-2.626-0.976v-3.194h0.151c0.898,0.676,1.897,1.214,2.997,1.612
			s2.154,0.598,3.163,0.598c1.252,0,2.23-0.202,2.938-0.605c0.706-0.403,1.059-1.039,1.059-1.907c0-0.666-0.191-1.171-0.574-1.514
			c-0.384-0.343-1.121-0.636-2.211-0.878c-0.403-0.091-0.931-0.197-1.581-0.318c-0.651-0.121-1.244-0.252-1.778-0.393
			c-1.484-0.395-2.536-0.972-3.156-1.733c-0.621-0.762-0.932-1.698-0.932-2.808c0-0.697,0.145-1.353,0.432-1.969
			c0.288-0.615,0.725-1.165,1.31-1.649c0.565-0.475,1.284-0.85,2.157-1.128c0.872-0.277,1.849-0.416,2.929-0.416
			c1.009,0,2.03,0.124,3.065,0.371c1.034,0.247,1.895,0.547,2.58,0.9v3.043h-0.15c-0.727-0.535-1.61-0.986-2.649-1.355
			c-1.039-0.368-2.059-0.553-3.058-0.553c-1.039,0-1.917,0.2-2.634,0.599s-1.075,0.991-1.075,1.778c0,0.696,0.218,1.221,0.651,1.574
			c0.424,0.354,1.11,0.641,2.059,0.863c0.524,0.121,1.112,0.242,1.764,0.363c0.65,0.121,1.193,0.231,1.627,0.332
			c1.322,0.303,2.341,0.823,3.058,1.56C488.51,103.871,488.867,104.859,488.867,106.091z"/>
	</g>
	<g enable-background="new    ">
		<path fill="#FFFFFF" d="M249.486,162.456h-0.151c-0.424-0.101-0.835-0.174-1.233-0.22c-0.399-0.045-0.871-0.067-1.416-0.067
			c-0.878,0-1.726,0.194-2.543,0.582c-0.817,0.389-1.604,0.891-2.361,1.506v12.004h-2.846v-16.908h2.846v2.498
			c1.13-0.908,2.126-1.552,2.99-1.93c0.862-0.379,1.743-0.568,2.641-0.568c0.494,0,0.853,0.014,1.075,0.038
			c0.222,0.025,0.555,0.073,0.999,0.144V162.456z"/>
	</g>
	<g enable-background="new    ">
		<path fill="#FFFFFF" d="M260.771,181.675c0,0.886-0.127,1.694-0.381,2.427s-0.612,1.353-1.074,1.86
			c-0.43,0.481-0.936,0.854-1.519,1.118s-1.2,0.396-1.851,0.396c-0.566,0-1.079-0.062-1.538-0.186s-0.926-0.315-1.401-0.576v4.57
			h-1.836v-14.932h1.836v1.143c0.488-0.41,1.037-0.754,1.646-1.03s1.258-0.415,1.948-0.415c1.315,0,2.339,0.496,3.071,1.489
			S260.771,179.91,260.771,181.675z M258.876,181.724c0-1.315-0.225-2.298-0.674-2.949s-1.139-0.977-2.07-0.977
			c-0.527,0-1.058,0.114-1.592,0.342s-1.045,0.527-1.533,0.898v6.182c0.521,0.234,0.968,0.394,1.343,0.479s0.799,0.127,1.274,0.127
			c1.022,0,1.82-0.345,2.393-1.035S258.876,183.078,258.876,181.724z"/>
	</g>
	<g enable-background="new    ">
		<path fill="#FFFFFF" d="M290.519,164.424h-17.952v-2.422h17.952V164.424z M290.519,170.781h-17.952v-2.422h17.952V170.781z"/>
		<path fill="#FFFFFF" d="M321.534,176.261h-12.2v-2.301h4.692v-15.106h-4.692v-2.059c0.636,0,1.317-0.053,2.043-0.159
			c0.727-0.105,1.276-0.26,1.65-0.461c0.464-0.253,0.83-0.573,1.098-0.962c0.267-0.388,0.421-0.91,0.461-1.566h2.346v20.313h4.602
			V176.261z"/>
		<path fill="#FFFFFF" d="M332.281,176.261h-3.617v-4.314h3.617V176.261z"/>
		<path fill="#FFFFFF" d="M351.822,165.407c0.484,0.435,0.883,0.979,1.196,1.635c0.313,0.656,0.469,1.504,0.469,2.543
			c0,1.029-0.187,1.974-0.561,2.831c-0.373,0.857-0.897,1.604-1.574,2.24c-0.756,0.706-1.647,1.229-2.671,1.566
			c-1.024,0.338-2.147,0.507-3.368,0.507c-1.251,0-2.482-0.148-3.693-0.446c-1.211-0.297-2.205-0.623-2.982-0.976v-3.164h0.228
			c0.857,0.565,1.867,1.034,3.027,1.408c1.16,0.373,2.28,0.56,3.36,0.56c0.636,0,1.312-0.106,2.028-0.317
			c0.717-0.213,1.297-0.525,1.741-0.939c0.464-0.443,0.81-0.933,1.036-1.468c0.228-0.535,0.341-1.211,0.341-2.028
			c0-0.808-0.129-1.476-0.386-2.006c-0.258-0.529-0.613-0.945-1.067-1.248c-0.454-0.313-1.004-0.527-1.65-0.644
			c-0.646-0.116-1.342-0.175-2.088-0.175h-1.363v-2.512h1.061c1.533,0,2.757-0.32,3.67-0.962c0.913-0.641,1.37-1.576,1.37-2.808
			c0-0.545-0.116-1.021-0.349-1.431c-0.231-0.408-0.555-0.744-0.969-1.007c-0.434-0.262-0.897-0.443-1.393-0.545
			c-0.494-0.101-1.054-0.15-1.68-0.15c-0.959,0-1.978,0.171-3.058,0.514c-1.08,0.344-2.099,0.828-3.058,1.453h-0.151v-3.163
			c0.717-0.354,1.673-0.679,2.868-0.977c1.196-0.297,2.354-0.446,3.475-0.446c1.1,0,2.068,0.101,2.906,0.303
			c0.837,0.202,1.594,0.524,2.27,0.969c0.727,0.484,1.277,1.069,1.65,1.756s0.561,1.488,0.561,2.406
			c0,1.252-0.442,2.345-1.325,3.277c-0.883,0.934-1.925,1.521-3.126,1.764v0.212c0.484,0.081,1.04,0.25,1.666,0.507
			C350.858,164.704,351.388,165.024,351.822,165.407z"/>
		<path fill="#FFFFFF" d="M373.514,176.261h-15.258v-3.164c1.059-0.908,2.121-1.816,3.186-2.725s2.057-1.811,2.975-2.709
			c1.938-1.877,3.265-3.368,3.98-4.473c0.717-1.105,1.075-2.299,1.075-3.58c0-1.171-0.386-2.086-1.158-2.747
			c-0.771-0.661-1.849-0.991-3.231-0.991c-0.918,0-1.912,0.161-2.982,0.484c-1.069,0.322-2.113,0.816-3.133,1.482h-0.151v-3.178
			c0.717-0.354,1.673-0.677,2.868-0.969c1.196-0.293,2.354-0.439,3.475-0.439c2.311,0,4.122,0.558,5.434,1.673
			s1.968,2.626,1.968,4.533c0,0.857-0.108,1.657-0.325,2.399c-0.218,0.741-0.537,1.445-0.961,2.111
			c-0.395,0.626-0.855,1.241-1.386,1.847c-0.529,0.605-1.173,1.276-1.93,2.013c-1.08,1.061-2.194,2.087-3.345,3.081
			s-2.226,1.915-3.225,2.763h12.125V176.261z"/>
		<path fill="#FFFFFF" d="M391.934,176.261h-12.2v-2.301h4.692v-15.106h-4.692v-2.059c0.636,0,1.317-0.053,2.044-0.159
			c0.727-0.105,1.276-0.26,1.649-0.461c0.464-0.253,0.83-0.573,1.098-0.962c0.267-0.388,0.421-0.91,0.462-1.566h2.346v20.313h4.602
			V176.261z"/>
		<path fill="#FFFFFF" d="M416.199,172.991l-1.68,1.68l-6.6-6.66l-6.6,6.66l-1.682-1.68l6.66-6.6l-6.66-6.6l1.682-1.68l6.6,6.66
			l6.6-6.66l1.68,1.68l-6.66,6.6L416.199,172.991z"/>
		<path fill="#FFFFFF" d="M437.012,176.261h-12.199v-2.301h4.691v-15.106h-4.691v-2.059c0.635,0,1.316-0.053,2.043-0.159
			c0.727-0.105,1.277-0.26,1.65-0.461c0.463-0.253,0.83-0.573,1.098-0.962c0.266-0.388,0.42-0.91,0.461-1.566h2.346v20.313h4.602
			V176.261z"/>
		<path fill="#FFFFFF" d="M457.975,164.983c0,4.047-0.633,7.017-1.898,8.908c-1.268,1.893-3.232,2.838-5.896,2.838
			c-2.703,0-4.68-0.958-5.926-2.875c-1.246-1.918-1.869-4.864-1.869-8.84c0-4.007,0.631-6.966,1.893-8.878s3.229-2.868,5.902-2.868
			c2.705,0,4.68,0.971,5.926,2.913C457.352,158.125,457.975,161.059,457.975,164.983z M453.994,171.856
			c0.354-0.818,0.594-1.779,0.719-2.884c0.127-1.105,0.189-2.435,0.189-3.989c0-1.533-0.063-2.865-0.189-3.996
			c-0.125-1.13-0.371-2.088-0.734-2.875c-0.352-0.777-0.834-1.363-1.445-1.756c-0.609-0.395-1.395-0.591-2.354-0.591
			c-0.947,0-1.732,0.196-2.354,0.591c-0.621,0.393-1.113,0.988-1.477,1.785c-0.342,0.747-0.576,1.721-0.703,2.922
			s-0.189,2.518-0.189,3.951c0,1.574,0.057,2.891,0.166,3.95c0.111,1.06,0.35,2.008,0.713,2.846
			c0.332,0.787,0.805,1.388,1.414,1.802c0.611,0.413,1.422,0.62,2.43,0.62c0.949,0,1.736-0.196,2.361-0.591
			C453.168,173.249,453.652,172.653,453.994,171.856z"/>
	</g>
	<g enable-background="new    ">
		<path fill="#FFFFFF" d="M467.606,148.782h-6.094v-1.768h6.094V148.782z"/>
		<path fill="#FFFFFF" d="M479.687,154.261h-7.871v-1.484h3.027v-9.746h-3.027v-1.328c0.41,0,0.85-0.034,1.318-0.103
			s0.823-0.168,1.064-0.298c0.3-0.163,0.536-0.369,0.708-0.62s0.271-0.588,0.298-1.011h1.514v13.105h2.969V154.261z"/>
		<path fill="#FFFFFF" d="M491.952,147.259c0.313,0.28,0.569,0.632,0.771,1.055s0.303,0.97,0.303,1.641
			c0,0.664-0.12,1.272-0.361,1.826s-0.579,1.035-1.016,1.445c-0.488,0.456-1.063,0.793-1.724,1.011s-1.385,0.327-2.173,0.327
			c-0.808,0-1.602-0.096-2.383-0.288s-1.423-0.402-1.924-0.63v-2.041h0.146c0.554,0.364,1.204,0.667,1.953,0.908
			s1.472,0.361,2.168,0.361c0.41,0,0.847-0.068,1.309-0.205s0.837-0.339,1.123-0.605c0.3-0.286,0.522-0.603,0.669-0.947
			s0.22-0.781,0.22-1.309c0-0.521-0.083-0.952-0.249-1.294s-0.396-0.61-0.688-0.806c-0.293-0.202-0.647-0.34-1.064-0.415
			s-0.866-0.112-1.348-0.112h-0.879v-1.621h0.684c0.989,0,1.778-0.207,2.368-0.62s0.884-1.018,0.884-1.812
			c0-0.352-0.075-0.659-0.225-0.923s-0.358-0.48-0.625-0.649c-0.28-0.169-0.579-0.286-0.898-0.352s-0.681-0.098-1.084-0.098
			c-0.618,0-1.276,0.11-1.973,0.332s-1.354,0.534-1.973,0.938h-0.098v-2.041c0.462-0.228,1.079-0.438,1.851-0.63
			s1.519-0.288,2.241-0.288c0.71,0,1.335,0.065,1.875,0.195s1.028,0.339,1.465,0.625c0.469,0.313,0.823,0.69,1.064,1.133
			s0.361,0.96,0.361,1.553c0,0.808-0.284,1.512-0.854,2.114s-1.242,0.981-2.017,1.138v0.137c0.313,0.052,0.671,0.161,1.074,0.327
			S491.672,147.012,491.952,147.259z"/>
	</g>
	<g enable-background="new    ">
		<path fill="#FFFFFF" d="M516.865,175.201c-0.949,0.454-1.85,0.808-2.702,1.06s-1.759,0.379-2.718,0.379
			c-1.221,0-2.341-0.18-3.359-0.538c-1.02-0.357-1.893-0.9-2.619-1.627c-0.736-0.727-1.307-1.645-1.711-2.755
			c-0.403-1.11-0.605-2.406-0.605-3.891c0-2.765,0.76-4.934,2.278-6.508s3.524-2.361,6.017-2.361c0.969,0,1.92,0.136,2.854,0.408
			s1.789,0.605,2.566,0.999v3.163h-0.152c-0.867-0.676-1.763-1.195-2.687-1.559c-0.923-0.363-1.823-0.545-2.702-0.545
			c-1.614,0-2.889,0.543-3.821,1.627c-0.934,1.085-1.4,2.677-1.4,4.775c0,2.039,0.456,3.605,1.37,4.7
			c0.913,1.096,2.197,1.643,3.852,1.643c0.576,0,1.16-0.075,1.756-0.228c0.596-0.15,1.131-0.348,1.605-0.59
			c0.413-0.212,0.802-0.437,1.165-0.674c0.363-0.236,0.651-0.441,0.862-0.613h0.152V175.201z"/>
		<path fill="#FFFFFF" d="M545.186,176.261h-2.846v-9.627c0-0.727-0.033-1.428-0.098-2.104c-0.066-0.677-0.205-1.217-0.417-1.62
			c-0.232-0.434-0.565-0.762-0.999-0.983c-0.434-0.223-1.06-0.334-1.877-0.334c-0.797,0-1.595,0.2-2.392,0.599
			c-0.798,0.398-1.595,0.905-2.392,1.521c0.03,0.232,0.055,0.503,0.076,0.811c0.02,0.308,0.029,0.613,0.029,0.916v10.822h-2.846
			v-9.627c0-0.747-0.032-1.455-0.098-2.127c-0.066-0.671-0.205-1.208-0.416-1.611c-0.232-0.435-0.566-0.76-1-0.977
			s-1.059-0.326-1.877-0.326c-0.777,0-1.557,0.192-2.338,0.576c-0.782,0.383-1.563,0.872-2.339,1.468v12.624h-2.846v-16.908h2.846
			v1.877c0.888-0.736,1.773-1.312,2.657-1.725c0.883-0.414,1.823-0.621,2.822-0.621c1.15,0,2.127,0.242,2.93,0.727
			c0.801,0.484,1.399,1.155,1.793,2.014c1.15-0.969,2.199-1.668,3.148-2.097c0.948-0.429,1.963-0.644,3.043-0.644
			c1.855,0,3.227,0.563,4.109,1.688c0.883,1.126,1.324,2.697,1.324,4.715V176.261z"/>
	</g>
	<g>
		<g enable-background="new    ">
			<path fill="#FFFFFF" d="M417.044,272.191h-0.167c-0.466-0.11-0.918-0.191-1.356-0.241s-0.958-0.075-1.557-0.075
				c-0.966,0-1.898,0.214-2.798,0.642c-0.898,0.428-1.765,0.979-2.598,1.656v13.204h-3.13v-18.599h3.13v2.747
				c1.244-0.999,2.34-1.706,3.289-2.122c0.949-0.417,1.918-0.625,2.905-0.625c0.544,0,0.938,0.015,1.183,0.042
				s0.61,0.08,1.099,0.158V272.191z"/>
		</g>
		<g enable-background="new    ">
			<path fill="#FFFFFF" d="M429.457,293.333c0,0.974-0.14,1.863-0.419,2.67c-0.279,0.805-0.673,1.487-1.182,2.046
				c-0.473,0.53-1.03,0.94-1.671,1.229c-0.641,0.291-1.319,0.436-2.035,0.436c-0.623,0-1.188-0.068-1.691-0.204
				c-0.506-0.136-1.02-0.348-1.542-0.634v5.027h-2.02v-16.425h2.02v1.257c0.537-0.451,1.14-0.829,1.81-1.133
				c0.67-0.305,1.385-0.457,2.144-0.457c1.446,0,2.573,0.546,3.378,1.639C429.055,289.876,429.457,291.393,429.457,293.333z
				 M427.373,293.387c0-1.446-0.247-2.528-0.741-3.244s-1.253-1.074-2.277-1.074c-0.58,0-1.164,0.125-1.751,0.376
				c-0.588,0.251-1.149,0.58-1.687,0.988v6.8c0.573,0.258,1.065,0.434,1.478,0.526c0.411,0.093,0.879,0.14,1.401,0.14
				c1.124,0,2.001-0.38,2.632-1.139C427.058,296.001,427.373,294.876,427.373,293.387z"/>
		</g>
		<circle fill="none" stroke="#FFFFFF" stroke-width="3" stroke-miterlimit="10" cx="392" cy="262.586" r="63.795"/>
		
			<line fill="none" stroke="#FFFFFF" stroke-width="3" stroke-miterlimit="10" x1="393.689" y1="261.295" x2="455.795" y2="261.295"/>
	</g>
	<line fill="none" stroke="#FFFFFF" stroke-width="3" stroke-miterlimit="10" x1="282.963" y1="119.5" x2="491.5" y2="119.5"/>
</g>
</svg>
