<?xml version="1.0" encoding="utf-8"?>
<!-- Generator: Adobe Illustrator 16.0.0, SVG Export Plug-In . SVG Version: 6.00 Build 0)  -->
<!DOCTYPE svg PUBLIC "-//W3C//DTD SVG 1.1//EN" "http://www.w3.org/Graphics/SVG/1.1/DTD/svg11.dtd">
<svg version="1.1" id="Layer_3" xmlns="http://www.w3.org/2000/svg" xmlns:xlink="http://www.w3.org/1999/xlink" x="0px" y="0px"
	 width="1072px" height="391px" viewBox="0 0 1072 391" enable-background="new 0 0 1072 391" xml:space="preserve">
<g id="step10White">
	<path fill="#291159" fill-opacity="0.8" stroke="#FFFFFF" stroke-width="3" stroke-miterlimit="10" d="M1072,379
		c0,6.627-5.373,12-12,12H12c-6.627,0-12-5.373-12-12V12C0,5.373,5.373,0,12,0h1048c6.627,0,12,5.373,12,12V379z"/>
	<g>
		<line fill="none" stroke="#FFFFFF" stroke-width="3" stroke-miterlimit="10" x1="103.648" y1="90.715" x2="915.166" y2="90.715"/>
		
			<line fill="none" stroke="#FFFFFF" stroke-width="3" stroke-miterlimit="10" x1="103.181" y1="134.715" x2="807.166" y2="134.715"/>
	</g>
	<g>
		<g>
			<g enable-background="new    ">
				<path fill="#FFFFFF" d="M203.328,188.537H188.07v-3.164c1.06-0.908,2.122-1.816,3.186-2.725
					c1.065-0.908,2.056-1.813,2.975-2.709c1.938-1.879,3.264-3.369,3.981-4.474c0.716-1.105,1.075-2.299,1.075-3.58
					c0-1.171-0.386-2.086-1.158-2.747c-0.771-0.661-1.849-0.991-3.231-0.991c-0.918,0-1.913,0.161-2.982,0.484
					c-1.07,0.322-2.114,0.816-3.133,1.482h-0.151v-3.178c0.716-0.354,1.673-0.678,2.868-0.97c1.196-0.293,2.354-0.438,3.474-0.438
					c2.311,0,4.122,0.558,5.434,1.672c1.312,1.115,1.968,2.627,1.968,4.533c0,0.857-0.108,1.657-0.325,2.399
					c-0.217,0.741-0.538,1.444-0.961,2.111c-0.394,0.627-0.855,1.242-1.385,1.848c-0.529,0.605-1.173,1.275-1.93,2.012
					c-1.08,1.061-2.195,2.088-3.345,3.082s-2.225,1.914-3.224,2.762h12.125v2.59L203.328,188.537L203.328,188.537z"/>
				<path fill="#FFFFFF" d="M227.167,186.873c-1.231,0.564-2.576,1.057-4.034,1.475c-1.458,0.42-2.868,0.629-4.23,0.629
					c-1.756,0-3.366-0.242-4.829-0.727c-1.463-0.484-2.709-1.211-3.739-2.18c-1.04-0.98-1.842-2.203-2.407-3.67
					c-0.565-1.471-0.848-3.189-0.848-5.154c0-3.604,1.052-6.447,3.156-8.531s4.993-3.126,8.666-3.126
					c1.281,0,2.591,0.154,3.928,0.462c1.337,0.308,2.778,0.83,4.322,1.565v3.559h-0.272c-0.313-0.242-0.767-0.561-1.362-0.954
					c-0.596-0.394-1.181-0.722-1.756-0.983c-0.696-0.313-1.486-0.572-2.369-0.779c-0.883-0.206-1.885-0.311-3.005-0.311
					c-2.523,0-4.519,0.811-5.986,2.43c-1.469,1.619-2.203,3.813-2.203,6.577c0,2.916,0.767,5.186,2.301,6.805s3.623,2.43,6.267,2.43
					c0.969,0,1.935-0.096,2.899-0.289c0.963-0.189,1.809-0.438,2.535-0.738v-5.525h-6.04v-2.635h9.006V186.873z"/>
				<path fill="#FFFFFF" d="M252.477,188.537h-2.997v-19.421l-6.267,13.216h-1.786l-6.221-13.216v19.421h-2.8v-22.54h4.087
					l6.009,12.548l5.813-12.548h4.163L252.477,188.537L252.477,188.537z"/>
			</g>
			<g enable-background="new    ">
				<path fill="#FFFFFF" d="M219.936,227.479c-0.949,0.453-1.849,0.808-2.702,1.06s-1.759,0.379-2.717,0.379
					c-1.221,0-2.341-0.181-3.36-0.537c-1.02-0.354-1.892-0.897-2.619-1.627c-0.737-0.728-1.307-1.646-1.71-2.756
					c-0.404-1.108-0.605-2.406-0.605-3.892c0-2.764,0.759-4.934,2.278-6.508s3.524-2.361,6.017-2.361
					c0.969,0,1.92,0.138,2.853,0.408c0.934,0.273,1.789,0.605,2.566,1v3.162h-0.151c-0.868-0.676-1.763-1.195-2.687-1.559
					c-0.923-0.363-1.824-0.545-2.702-0.545c-1.615,0-2.889,0.543-3.822,1.627c-0.934,1.086-1.4,2.678-1.4,4.775
					c0,2.037,0.457,3.604,1.37,4.699c0.913,1.098,2.197,1.645,3.852,1.645c0.575,0,1.16-0.076,1.756-0.23
					c0.595-0.148,1.13-0.348,1.604-0.59c0.414-0.211,0.802-0.436,1.166-0.674c0.363-0.236,0.651-0.441,0.863-0.613h0.151
					L219.936,227.479L219.936,227.479z"/>
				<path fill="#FFFFFF" d="M231.1,213.215h-8.895v-1.846c0.618-0.529,1.237-1.061,1.857-1.588c0.62-0.529,1.199-1.057,1.734-1.58
					c1.13-1.094,1.903-1.963,2.321-2.607c0.417-0.645,0.626-1.34,0.626-2.086c0-0.684-0.225-1.217-0.675-1.602
					c-0.45-0.387-1.078-0.578-1.884-0.578c-0.536,0-1.115,0.094-1.739,0.281c-0.624,0.187-1.232,0.477-1.827,0.863h-0.088v-1.854
					c0.418-0.205,0.976-0.396,1.672-0.563c0.697-0.171,1.373-0.257,2.025-0.257c1.347,0,2.403,0.324,3.168,0.978
					c0.765,0.649,1.147,1.529,1.147,2.643c0,0.502-0.063,0.967-0.19,1.4c-0.126,0.432-0.313,0.842-0.56,1.229
					c-0.229,0.365-0.499,0.725-0.808,1.076c-0.309,0.355-0.684,0.744-1.125,1.174c-0.63,0.617-1.28,1.217-1.951,1.797
					c-0.67,0.578-1.297,1.115-1.879,1.609h7.068v1.512H231.1L231.1,213.215z"/>
			</g>
		</g>
		<g enable-background="new    ">
			<path fill="#FFFFFF" d="M129.568,206.861h-3.89l-7.538-8.961h-4.223v8.961h-2.997v-22.54h6.312c1.362,0,2.498,0.09,3.406,0.266
				c0.908,0.178,1.726,0.492,2.452,0.945c0.817,0.516,1.456,1.164,1.915,1.945c0.459,0.783,0.688,1.773,0.688,2.975
				c0,1.625-0.409,2.984-1.226,4.08c-0.817,1.096-1.943,1.92-3.375,2.475L129.568,206.861z M122.561,190.666
				c0-0.646-0.114-1.219-0.34-1.719c-0.228-0.5-0.604-0.92-1.128-1.266c-0.434-0.293-0.949-0.494-1.544-0.611
				c-0.596-0.115-1.297-0.174-2.104-0.174h-3.527v8.506h3.027c0.948,0,1.776-0.082,2.482-0.248c0.706-0.168,1.307-0.48,1.801-0.934
				c0.454-0.424,0.79-0.908,1.006-1.461C122.452,192.213,122.561,191.514,122.561,190.666z"/>
			<path fill="#FFFFFF" d="M138.123,209.344c0,0.9-0.372,1.639-1.116,2.215c-0.745,0.576-1.761,0.865-3.049,0.865
				c-0.729,0-1.398-0.088-2.007-0.262c-0.609-0.172-1.12-0.361-1.531-0.568v-1.861h0.088c0.523,0.396,1.106,0.707,1.747,0.939
				s1.256,0.348,1.844,0.348c0.729,0,1.3-0.117,1.712-0.352c0.412-0.236,0.618-0.607,0.618-1.113c0-0.387-0.112-0.682-0.335-0.883
				c-0.224-0.199-0.653-0.369-1.289-0.512c-0.235-0.053-0.542-0.113-0.922-0.186c-0.379-0.07-0.725-0.146-1.037-0.229
				c-0.865-0.229-1.478-0.565-1.84-1.011c-0.362-0.444-0.543-0.989-0.543-1.639c0-0.404,0.084-0.789,0.251-1.146
				c0.168-0.357,0.422-0.681,0.764-0.961c0.329-0.277,0.749-0.496,1.257-0.658c0.508-0.162,1.078-0.242,1.708-0.242
				c0.588,0,1.184,0.072,1.787,0.218c0.603,0.143,1.104,0.317,1.505,0.522v1.774h-0.088c-0.424-0.313-0.938-0.576-1.544-0.791
				c-0.606-0.217-1.2-0.321-1.783-0.321c-0.606,0-1.118,0.116-1.535,0.35c-0.418,0.231-0.627,0.578-0.627,1.037
				c0,0.404,0.126,0.711,0.38,0.918c0.247,0.205,0.647,0.373,1.2,0.502c0.306,0.07,0.649,0.142,1.028,0.213
				c0.379,0.07,0.696,0.136,0.949,0.193c0.771,0.176,1.365,0.479,1.783,0.907C137.914,208.049,138.123,208.625,138.123,209.344z"/>
			<path fill="#FFFFFF" d="M166.876,195.025h-17.952v-2.422h17.952V195.025z M166.876,201.383h-17.952v-2.422h17.952V201.383z"/>
			<path fill="#FFFFFF" d="M201.252,197.402h-19.829v-1.816h19.829V197.402z"/>
			<path fill="#FFFFFF" d="M220.96,197.402h-19.829v-1.816h19.829V197.402z"/>
			<path fill="#FFFFFF" d="M240.668,197.402h-19.829v-1.816h19.829V197.402z"/>
			<path fill="#FFFFFF" d="M260.376,197.402h-19.829v-1.816h19.829V197.402z"/>
			<path fill="#FFFFFF" d="M292.875,195.025h-17.951v-2.422h17.951V195.025z M292.875,201.383h-17.951v-2.422h17.951V201.383z"/>
			<path fill="#FFFFFF" d="M326.888,200.428c0,0.879-0.204,1.746-0.612,2.604s-0.98,1.586-1.719,2.18
				c-0.808,0.646-1.748,1.149-2.822,1.515c-1.074,0.362-2.368,0.547-3.883,0.547c-1.625,0-3.086-0.15-4.383-0.453
				c-1.297-0.305-2.615-0.752-3.958-1.35v-3.755h0.212c1.142,0.949,2.457,1.683,3.951,2.195c1.493,0.514,2.896,0.771,4.207,0.771
				c1.856,0,3.303-0.348,4.337-1.045c1.034-0.695,1.552-1.623,1.552-2.785c0-0.998-0.244-1.733-0.733-2.209
				c-0.488-0.475-1.232-0.842-2.231-1.104c-0.757-0.201-1.576-0.367-2.46-0.5c-0.883-0.131-1.817-0.297-2.809-0.498
				c-1.998-0.424-3.479-1.148-4.441-2.172c-0.964-1.025-1.445-2.359-1.445-4.004c0-1.887,0.798-3.434,2.394-4.641
				c1.594-1.205,3.616-1.809,6.068-1.809c1.584,0,3.037,0.152,4.358,0.455c1.322,0.303,2.492,0.676,3.513,1.119v3.543h-0.213
				c-0.856-0.729-1.984-1.33-3.383-1.812c-1.397-0.479-2.828-0.721-4.291-0.721c-1.604,0-2.896,0.334-3.867,1
				c-0.973,0.666-1.461,1.523-1.461,2.572c0,0.939,0.242,1.676,0.728,2.211c0.485,0.535,1.338,0.943,2.559,1.227
				c0.646,0.143,1.563,0.314,2.755,0.516c1.19,0.203,2.2,0.406,3.027,0.621c1.675,0.441,2.938,1.113,3.783,2.014
				C326.465,197.559,326.888,198.814,326.888,200.428z"/>
			<path fill="#FFFFFF" d="M352.438,189.953l-4.404,16.908H345.4l-4.346-13.033l-4.313,13.033h-2.618l-4.45-16.908h2.967
				l3.104,13.094l4.225-13.094h2.348l4.327,13.094l2.938-13.094H352.438z"/>
			<path fill="#FFFFFF" d="M369.377,206.861h-2.831v-1.801c-0.252,0.172-0.594,0.412-1.021,0.719
				c-0.431,0.309-0.847,0.553-1.249,0.734c-0.476,0.231-1.021,0.426-1.636,0.582c-0.614,0.155-1.337,0.233-2.164,0.233
				c-1.523,0-2.815-0.504-3.875-1.515c-1.061-1.01-1.59-2.295-1.59-3.858c0-1.281,0.273-2.317,0.825-3.108
				c0.55-0.793,1.334-1.416,2.354-1.871c1.028-0.453,2.267-0.763,3.708-0.922c1.442-0.163,2.991-0.284,4.646-0.364v-0.439
				c0-0.645-0.113-1.182-0.342-1.604c-0.228-0.426-0.553-0.758-0.978-0.998c-0.402-0.232-0.888-0.391-1.452-0.471
				c-0.563-0.082-1.155-0.121-1.771-0.121c-0.747,0-1.579,0.1-2.497,0.297c-0.919,0.195-1.867,0.48-2.847,0.854h-0.151v-2.893
				c0.557-0.15,1.356-0.316,2.407-0.498c1.05-0.182,2.084-0.273,3.103-0.273c1.191,0,2.229,0.102,3.111,0.295
				c0.883,0.197,1.646,0.533,2.293,1.008c0.636,0.465,1.12,1.064,1.453,1.803c0.333,0.736,0.5,1.648,0.5,2.738L369.377,206.861
				L369.377,206.861z M366.546,202.699v-4.707c-0.868,0.051-1.891,0.125-3.064,0.227c-1.175,0.102-2.105,0.248-2.794,0.439
				c-0.815,0.23-1.478,0.592-1.98,1.082c-0.505,0.49-0.758,1.162-0.758,2.02c0,0.969,0.293,1.699,0.878,2.188
				s1.479,0.733,2.681,0.733c0.998,0,1.912-0.192,2.738-0.582C365.072,203.711,365.84,203.244,366.546,202.699z"/>
			<path fill="#FFFFFF" d="M385.406,193.057h-0.15c-0.425-0.1-0.835-0.174-1.232-0.219c-0.398-0.045-0.87-0.068-1.415-0.068
				c-0.88,0-1.728,0.195-2.543,0.582c-0.818,0.389-1.604,0.891-2.361,1.506v12.003h-2.846v-16.907h2.846v2.498
				c1.131-0.908,2.126-1.551,2.989-1.93c0.861-0.381,1.742-0.568,2.643-0.568c0.493,0,0.854,0.014,1.073,0.039
				c0.222,0.023,0.556,0.072,0.999,0.143L385.406,193.057L385.406,193.057z"/>
			<path fill="#FFFFFF" d="M400.346,206.861h-13.651v-2.104l9.854-12.428h-9.644v-2.377h13.186v2.029l-9.898,12.473h10.155
				L400.346,206.861L400.346,206.861z"/>
			<path fill="#FFFFFF" d="M416.451,201.988c0,1.543-0.639,2.811-1.914,3.799c-1.276,0.988-3.021,1.482-5.229,1.482
				c-1.251,0-2.397-0.148-3.442-0.445c-1.044-0.297-1.92-0.623-2.626-0.979v-3.191h0.15c0.897,0.676,1.896,1.213,2.997,1.609
				c1.101,0.397,2.154,0.6,3.163,0.6c1.252,0,2.229-0.201,2.938-0.605c0.706-0.402,1.06-1.039,1.06-1.906
				c0-0.666-0.19-1.172-0.574-1.514c-0.384-0.344-1.121-0.637-2.211-0.879c-0.402-0.09-0.932-0.197-1.581-0.318
				c-0.65-0.121-1.244-0.252-1.777-0.393c-1.483-0.395-2.536-0.971-3.156-1.732c-0.62-0.761-0.932-1.699-0.932-2.809
				c0-0.697,0.146-1.352,0.432-1.969c0.288-0.615,0.726-1.164,1.311-1.648c0.564-0.475,1.284-0.85,2.157-1.129
				c0.872-0.277,1.85-0.416,2.929-0.416c1.01,0,2.03,0.125,3.065,0.371c1.033,0.248,1.895,0.547,2.579,0.9v3.043h-0.149
				c-0.728-0.535-1.609-0.986-2.648-1.355c-1.039-0.367-2.06-0.553-3.059-0.553c-1.039,0-1.917,0.201-2.634,0.6
				c-0.718,0.398-1.075,0.99-1.075,1.777c0,0.697,0.219,1.221,0.65,1.574c0.425,0.354,1.11,0.641,2.06,0.862
				c0.523,0.12,1.112,0.241,1.765,0.362c0.649,0.121,1.192,0.231,1.627,0.332c1.321,0.304,2.341,0.824,3.059,1.563
				C416.094,199.768,416.451,200.756,416.451,201.988z"/>
			<path fill="#FFFFFF" d="M433.026,205.803c-0.948,0.453-1.85,0.807-2.701,1.059c-0.854,0.252-1.759,0.38-2.717,0.38
				c-1.223,0-2.343-0.181-3.361-0.537c-1.02-0.356-1.892-0.899-2.617-1.627c-0.736-0.728-1.308-1.646-1.71-2.757
				c-0.404-1.108-0.604-2.405-0.604-3.891c0-2.764,0.759-4.934,2.276-6.508c1.519-1.574,3.523-2.361,6.019-2.361
				c0.969,0,1.919,0.137,2.854,0.408c0.935,0.273,1.789,0.605,2.564,1v3.162h-0.149c-0.868-0.676-1.765-1.195-2.688-1.559
				c-0.924-0.363-1.824-0.545-2.701-0.545c-1.614,0-2.891,0.543-3.821,1.627c-0.935,1.086-1.399,2.678-1.399,4.773
				c0,2.039,0.455,3.605,1.369,4.701c0.913,1.097,2.197,1.646,3.854,1.646c0.574,0,1.16-0.076,1.756-0.23
				c0.596-0.15,1.131-0.348,1.604-0.59c0.414-0.211,0.804-0.436,1.166-0.674c0.363-0.236,0.65-0.441,0.863-0.613h0.149v3.137
				H433.026L433.026,205.803z"/>
			<path fill="#FFFFFF" d="M450.813,206.861h-2.847v-9.627c0-0.777-0.045-1.506-0.137-2.188c-0.091-0.68-0.257-1.213-0.498-1.596
				c-0.254-0.424-0.616-0.74-1.091-0.947c-0.476-0.205-1.09-0.311-1.849-0.311c-0.775,0-1.589,0.191-2.437,0.574
				c-0.849,0.385-1.66,0.873-2.438,1.471v12.623h-2.846v-23.554h2.846v8.521c0.889-0.736,1.807-1.311,2.755-1.725
				s1.923-0.621,2.922-0.621c1.825,0,3.219,0.551,4.178,1.65c0.96,1.1,1.438,2.684,1.438,4.752L450.813,206.861L450.813,206.861z"/>
			<path fill="#FFFFFF" d="M459.349,187.123h-3.209v-2.951h3.209V187.123z M459.167,206.861h-2.847v-16.908h2.847V206.861z"/>
			<path fill="#FFFFFF" d="M467.674,206.861h-2.847v-23.553h2.847V206.861z"/>
			<path fill="#FFFFFF" d="M487.019,206.861h-2.846v-1.771c-0.815,0.707-1.67,1.258-2.559,1.65c-0.889,0.395-1.853,0.59-2.893,0.59
				c-2.019,0-3.62-0.775-4.806-2.33c-1.188-1.555-1.778-3.709-1.778-6.463c0-1.434,0.204-2.711,0.613-3.83
				c0.407-1.121,0.961-2.074,1.656-2.861c0.688-0.766,1.484-1.352,2.398-1.756c0.913-0.4,1.859-0.604,2.838-0.604
				c0.889,0,1.676,0.094,2.361,0.279c0.688,0.188,1.407,0.479,2.164,0.869v-7.326h2.846v23.553H487.019L487.019,206.861z
				 M484.173,202.699v-9.703c-0.768-0.342-1.453-0.58-2.06-0.711c-0.605-0.131-1.267-0.197-1.981-0.197
				c-1.596,0-2.836,0.555-3.725,1.666c-0.889,1.109-1.332,2.684-1.332,4.723c0,2.008,0.344,3.533,1.028,4.578
				c0.688,1.045,1.786,1.566,3.301,1.566c0.809,0,1.625-0.178,2.452-0.537C482.685,203.727,483.456,203.264,484.173,202.699z"/>
			<path fill="#FFFFFF" d="M516.021,205.803c-0.948,0.453-1.85,0.807-2.701,1.059c-0.854,0.252-1.76,0.38-2.718,0.38
				c-1.222,0-2.342-0.181-3.36-0.537c-1.02-0.356-1.893-0.899-2.617-1.627c-0.736-0.728-1.308-1.646-1.71-2.757
				c-0.404-1.108-0.605-2.405-0.605-3.891c0-2.764,0.76-4.934,2.277-6.508c1.519-1.574,3.523-2.361,6.019-2.361
				c0.969,0,1.919,0.137,2.854,0.408c0.934,0.273,1.788,0.605,2.564,1v3.162h-0.149c-0.868-0.676-1.765-1.195-2.688-1.559
				c-0.923-0.363-1.823-0.545-2.7-0.545c-1.615,0-2.891,0.543-3.822,1.627c-0.934,1.086-1.399,2.678-1.399,4.773
				c0,2.039,0.456,3.605,1.37,4.701c0.913,1.097,2.196,1.646,3.854,1.646c0.574,0,1.16-0.076,1.756-0.23
				c0.596-0.15,1.131-0.348,1.604-0.59c0.414-0.211,0.804-0.436,1.166-0.674c0.363-0.236,0.649-0.441,0.863-0.613h0.149v3.137
				H516.021L516.021,205.803z"/>
			<path fill="#FFFFFF" d="M534.081,198.416c0,2.754-0.707,4.93-2.119,6.523c-1.413,1.594-3.307,2.391-5.678,2.391
				c-2.393,0-4.291-0.797-5.698-2.391c-1.407-1.597-2.111-3.771-2.111-6.523c0-2.756,0.704-4.932,2.111-6.531
				c1.407-1.599,3.308-2.4,5.698-2.4c2.371,0,4.265,0.801,5.678,2.4C533.372,193.484,534.081,195.66,534.081,198.416z
				 M531.143,198.416c0-2.189-0.429-3.816-1.285-4.883c-0.856-1.064-2.05-1.596-3.572-1.596c-1.544,0-2.741,0.529-3.595,1.596
				c-0.854,1.064-1.279,2.691-1.279,4.883c0,2.119,0.43,3.727,1.287,4.82c0.856,1.096,2.054,1.643,3.587,1.643
				c1.515,0,2.702-0.543,3.563-1.627C530.712,202.168,531.143,200.555,531.143,198.416z"/>
			<path fill="#FFFFFF" d="M552.622,206.861h-2.847v-9.627c0-0.777-0.045-1.506-0.137-2.188c-0.091-0.68-0.257-1.213-0.499-1.596
				c-0.253-0.424-0.615-0.74-1.09-0.947c-0.476-0.205-1.09-0.311-1.849-0.311c-0.775,0-1.589,0.191-2.438,0.574
				c-0.849,0.385-1.66,0.873-2.438,1.471v12.623h-2.846v-16.907h2.846v1.877c0.889-0.736,1.807-1.311,2.755-1.725
				s1.923-0.621,2.922-0.621c1.825,0,3.219,0.551,4.178,1.648c0.959,1.1,1.438,2.686,1.438,4.752v10.977h0.003V206.861z"/>
			<path fill="#FFFFFF" d="M571.814,206.861h-2.847v-1.771c-0.815,0.707-1.67,1.258-2.559,1.65c-0.888,0.395-1.853,0.59-2.893,0.59
				c-2.018,0-3.62-0.775-4.806-2.33c-1.188-1.555-1.778-3.709-1.778-6.463c0-1.434,0.204-2.711,0.613-3.83
				c0.407-1.121,0.961-2.074,1.656-2.861c0.688-0.766,1.484-1.352,2.398-1.756c0.913-0.4,1.859-0.604,2.838-0.604
				c0.889,0,1.676,0.094,2.361,0.279c0.688,0.188,1.408,0.479,2.164,0.869v-7.326h2.846v23.553H571.814L571.814,206.861z
				 M568.969,202.699v-9.703c-0.768-0.342-1.453-0.58-2.06-0.711c-0.605-0.131-1.267-0.197-1.981-0.197
				c-1.595,0-2.836,0.555-3.725,1.666c-0.888,1.109-1.331,2.684-1.331,4.723c0,2.008,0.343,3.533,1.028,4.578
				c0.687,1.045,1.785,1.566,3.3,1.566c0.809,0,1.625-0.178,2.452-0.537C567.48,203.727,568.253,203.264,568.969,202.699z"/>
			<path fill="#FFFFFF" d="M580.473,187.123h-3.209v-2.951h3.209V187.123z M580.29,206.861h-2.846v-16.908h2.846V206.861z"/>
			<path fill="#FFFFFF" d="M594.702,206.711c-0.534,0.141-1.117,0.256-1.749,0.348c-0.631,0.09-1.192,0.137-1.688,0.137
				c-1.726,0-3.036-0.465-3.937-1.393c-0.897-0.93-1.347-2.418-1.347-4.467v-8.99h-1.924v-2.393h1.924v-4.857h2.847v4.857h5.872
				v2.393h-5.872v7.705c0,0.887,0.02,1.582,0.061,2.08c0.04,0.5,0.183,0.967,0.424,1.4c0.223,0.402,0.526,0.699,0.915,0.887
				c0.39,0.186,0.981,0.279,1.778,0.279c0.465,0,0.949-0.068,1.453-0.205c0.505-0.135,0.867-0.25,1.09-0.34h0.151L594.702,206.711
				L594.702,206.711z"/>
			<path fill="#FFFFFF" d="M601.195,187.123h-3.209v-2.951h3.209V187.123z M601.014,206.861h-2.846v-16.908h2.846V206.861z"/>
			<path fill="#FFFFFF" d="M621.056,198.416c0,2.754-0.707,4.93-2.118,6.523c-1.413,1.594-3.307,2.391-5.678,2.391
				c-2.393,0-4.291-0.797-5.699-2.391c-1.406-1.597-2.11-3.771-2.11-6.523c0-2.756,0.704-4.932,2.11-6.531
				c1.408-1.6,3.309-2.4,5.699-2.4c2.371,0,4.265,0.801,5.678,2.4C620.349,193.484,621.056,195.66,621.056,198.416z
				 M618.118,198.416c0-2.189-0.429-3.816-1.285-4.883c-0.857-1.064-2.05-1.596-3.572-1.596c-1.544,0-2.742,0.529-3.596,1.596
				c-0.854,1.064-1.278,2.691-1.278,4.883c0,2.119,0.43,3.727,1.287,4.82c0.856,1.096,2.053,1.643,3.587,1.643
				c1.515,0,2.702-0.543,3.563-1.627C617.688,202.168,618.118,200.555,618.118,198.416z"/>
			<path fill="#FFFFFF" d="M639.597,206.861h-2.846v-9.627c0-0.777-0.045-1.506-0.137-2.188c-0.091-0.68-0.257-1.213-0.499-1.596
				c-0.253-0.424-0.616-0.74-1.09-0.947c-0.476-0.205-1.091-0.311-1.849-0.311c-0.776,0-1.589,0.191-2.438,0.574
				c-0.849,0.385-1.66,0.873-2.438,1.471v12.623h-2.847v-16.907h2.847v1.877c0.888-0.736,1.806-1.311,2.754-1.725
				c0.949-0.414,1.923-0.621,2.922-0.621c1.826,0,3.22,0.551,4.179,1.648c0.959,1.1,1.438,2.686,1.438,4.752L639.597,206.861
				L639.597,206.861z"/>
			<path fill="#FFFFFF" d="M665.072,186.064h-0.15c-0.313-0.092-0.723-0.184-1.228-0.281c-0.505-0.096-0.947-0.143-1.332-0.143
				c-1.222,0-2.105,0.27-2.655,0.809c-0.551,0.541-0.824,1.518-0.824,2.93v0.574h5.131v2.393h-5.041v14.517h-2.846v-14.517h-1.923
				v-2.393h1.923v-0.559c0-2.008,0.5-3.551,1.499-4.625c0.999-1.074,2.441-1.611,4.328-1.611c0.637,0,1.209,0.029,1.719,0.09
				s0.978,0.131,1.399,0.213V186.064L665.072,186.064z"/>
			<path fill="#FFFFFF" d="M681.284,198.416c0,2.754-0.707,4.93-2.119,6.523c-1.412,1.593-3.306,2.391-5.677,2.391
				c-2.393,0-4.291-0.797-5.698-2.391c-1.407-1.597-2.111-3.771-2.111-6.523c0-2.756,0.704-4.932,2.111-6.531
				c1.407-1.599,3.308-2.4,5.698-2.4c2.371,0,4.265,0.801,5.677,2.4C680.577,193.484,681.284,195.66,681.284,198.416z
				 M678.347,198.416c0-2.189-0.429-3.816-1.286-4.883c-0.856-1.064-2.049-1.596-3.571-1.596c-1.544,0-2.742,0.529-3.596,1.596
				c-0.854,1.064-1.278,2.691-1.278,4.883c0,2.119,0.43,3.727,1.287,4.82c0.856,1.096,2.053,1.643,3.587,1.643
				c1.515,0,2.702-0.543,3.563-1.627C677.915,202.168,678.347,200.555,678.347,198.416z"/>
			<path fill="#FFFFFF" d="M696.239,193.057h-0.15c-0.424-0.1-0.835-0.174-1.232-0.219c-0.398-0.045-0.87-0.068-1.415-0.068
				c-0.879,0-1.728,0.195-2.543,0.582c-0.818,0.389-1.604,0.891-2.361,1.506v12.003h-2.846v-16.907h2.846v2.498
				c1.131-0.908,2.126-1.551,2.989-1.93c0.861-0.381,1.742-0.568,2.643-0.568c0.493,0,0.854,0.014,1.073,0.039
				c0.222,0.023,0.556,0.072,0.999,0.143L696.239,193.057L696.239,193.057z"/>
			<path fill="#FFFFFF" d="M722.956,206.861h-2.83v-1.801c-0.252,0.172-0.594,0.412-1.021,0.719
				c-0.431,0.309-0.847,0.553-1.25,0.734c-0.475,0.231-1.02,0.426-1.635,0.582c-0.615,0.155-1.337,0.233-2.164,0.233
				c-1.523,0-2.815-0.504-3.875-1.515c-1.062-1.01-1.59-2.295-1.59-3.858c0-1.281,0.273-2.317,0.825-3.108
				c0.55-0.793,1.334-1.416,2.354-1.871c1.029-0.453,2.267-0.763,3.708-0.922c1.443-0.163,2.992-0.284,4.647-0.364v-0.439
				c0-0.645-0.113-1.182-0.342-1.604c-0.228-0.426-0.554-0.758-0.978-0.998c-0.402-0.232-0.888-0.391-1.453-0.471
				c-0.563-0.082-1.154-0.121-1.771-0.121c-0.746,0-1.578,0.1-2.496,0.297c-0.92,0.195-1.867,0.48-2.847,0.854h-0.151v-2.893
				c0.556-0.15,1.356-0.316,2.406-0.498c1.051-0.182,2.084-0.273,3.104-0.273c1.19,0,2.229,0.102,3.111,0.295
				c0.883,0.197,1.646,0.533,2.293,1.008c0.636,0.465,1.119,1.064,1.453,1.803c0.332,0.736,0.5,1.648,0.5,2.738V206.861
				L722.956,206.861z M720.125,202.699v-4.707c-0.868,0.051-1.891,0.125-3.065,0.227c-1.174,0.102-2.105,0.248-2.793,0.439
				c-0.815,0.23-1.479,0.592-1.981,1.082s-0.757,1.162-0.757,2.02c0,0.969,0.293,1.699,0.878,2.188s1.479,0.733,2.681,0.733
				c0.997,0,1.911-0.192,2.738-0.582C718.652,203.711,719.419,203.244,720.125,202.699z"/>
			<path fill="#FFFFFF" d="M754.213,198.279c0,1.412-0.199,2.684-0.599,3.813c-0.398,1.131-0.938,2.078-1.611,2.848
				c-0.718,0.797-1.505,1.396-2.361,1.793c-0.856,0.396-1.802,0.599-2.831,0.599c-0.958,0-1.796-0.113-2.512-0.34
				c-0.718-0.229-1.425-0.531-2.119-0.916l-0.183,0.786h-2.664v-23.554h2.847v8.416c0.797-0.654,1.646-1.191,2.543-1.609
				c0.896-0.418,1.906-0.629,3.026-0.629c1.998,0,3.574,0.768,4.729,2.301C753.635,193.32,754.213,195.484,754.213,198.279z
				 M751.276,198.355c0-2.021-0.333-3.551-0.999-4.594c-0.666-1.045-1.74-1.568-3.226-1.568c-0.827,0-1.664,0.18-2.513,0.539
				c-0.848,0.357-1.635,0.818-2.36,1.385v9.688c0.808,0.363,1.5,0.615,2.081,0.758c0.58,0.144,1.237,0.213,1.977,0.213
				c1.573,0,2.809-0.52,3.699-1.555C750.831,202.188,751.276,200.564,751.276,198.355z"/>
			<path fill="#FFFFFF" d="M761.523,206.861h-2.847v-23.553h2.847V206.861z"/>
			<path fill="#FFFFFF" d="M780.294,206.861h-2.831v-1.801c-0.252,0.172-0.594,0.412-1.021,0.719
				c-0.431,0.309-0.847,0.553-1.249,0.734c-0.476,0.231-1.021,0.426-1.636,0.582c-0.614,0.155-1.337,0.233-2.164,0.233
				c-1.523,0-2.815-0.504-3.875-1.515c-1.061-1.01-1.59-2.295-1.59-3.858c0-1.281,0.273-2.317,0.825-3.108
				c0.55-0.793,1.334-1.416,2.354-1.871c1.028-0.453,2.267-0.763,3.708-0.922c1.442-0.163,2.991-0.284,4.646-0.364v-0.439
				c0-0.645-0.113-1.182-0.342-1.604c-0.228-0.426-0.553-0.758-0.978-0.998c-0.402-0.232-0.888-0.391-1.452-0.471
				c-0.563-0.082-1.155-0.121-1.771-0.121c-0.747,0-1.579,0.1-2.497,0.297c-0.919,0.195-1.867,0.48-2.847,0.854h-0.151v-2.893
				c0.557-0.15,1.356-0.316,2.407-0.498c1.05-0.182,2.084-0.273,3.103-0.273c1.191,0,2.229,0.102,3.111,0.295
				c0.883,0.197,1.646,0.533,2.293,1.008c0.636,0.465,1.12,1.064,1.453,1.803c0.333,0.736,0.5,1.648,0.5,2.738L780.294,206.861
				L780.294,206.861z M777.463,202.699v-4.707c-0.868,0.051-1.891,0.125-3.064,0.227c-1.175,0.102-2.105,0.248-2.793,0.439
				c-0.816,0.23-1.479,0.592-1.982,1.082s-0.757,1.162-0.757,2.02c0,0.969,0.293,1.699,0.878,2.188s1.479,0.733,2.681,0.733
				c0.998,0,1.911-0.192,2.738-0.582C775.99,203.711,776.757,203.244,777.463,202.699z"/>
			<path fill="#FFFFFF" d="M798.275,205.803c-0.948,0.453-1.85,0.807-2.701,1.059c-0.854,0.252-1.759,0.38-2.717,0.38
				c-1.223,0-2.343-0.181-3.36-0.537c-1.021-0.356-1.893-0.899-2.618-1.627c-0.736-0.728-1.308-1.646-1.71-2.757
				c-0.404-1.108-0.604-2.405-0.604-3.891c0-2.764,0.759-4.934,2.276-6.508c1.519-1.574,3.523-2.361,6.019-2.361
				c0.969,0,1.919,0.137,2.854,0.408c0.935,0.273,1.789,0.605,2.564,1v3.162h-0.149c-0.868-0.676-1.765-1.195-2.688-1.559
				c-0.923-0.363-1.824-0.545-2.701-0.545c-1.614,0-2.89,0.543-3.821,1.627c-0.935,1.086-1.399,2.678-1.399,4.773
				c0,2.039,0.456,3.605,1.369,4.701c0.913,1.097,2.197,1.646,3.854,1.646c0.574,0,1.16-0.076,1.756-0.23
				c0.596-0.15,1.131-0.348,1.604-0.59c0.414-0.211,0.803-0.436,1.166-0.674c0.362-0.236,0.649-0.441,0.862-0.613h0.149v3.137
				H798.275L798.275,205.803z"/>
			<path fill="#FFFFFF" d="M817.271,206.861h-3.755l-6.78-7.402l-1.847,1.756v5.646h-2.846v-23.553h2.846v15.107l8.22-8.463h3.588
				l-7.855,7.812L817.271,206.861z"/>
			<path fill="#FFFFFF" d="M845.305,206.861h-2.846v-9.627c0-0.777-0.046-1.506-0.137-2.188c-0.092-0.68-0.258-1.213-0.499-1.596
				c-0.253-0.424-0.615-0.74-1.091-0.947c-0.475-0.205-1.09-0.311-1.848-0.311c-0.775,0-1.589,0.191-2.438,0.574
				c-0.849,0.385-1.66,0.873-2.438,1.471v12.623h-2.847v-23.554h2.847v8.521c0.888-0.736,1.807-1.311,2.754-1.725
				c0.949-0.414,1.923-0.621,2.922-0.621c1.826,0,3.22,0.551,4.179,1.65s1.438,2.684,1.438,4.752L845.305,206.861L845.305,206.861z"
				/>
			<path fill="#FFFFFF" d="M865.195,198.416c0,2.754-0.707,4.93-2.119,6.523c-1.413,1.594-3.307,2.391-5.677,2.391
				c-2.393,0-4.291-0.797-5.699-2.391c-1.406-1.597-2.11-3.771-2.11-6.523c0-2.756,0.704-4.932,2.11-6.531
				c1.408-1.6,3.309-2.4,5.699-2.4c2.37,0,4.264,0.801,5.677,2.4C864.488,193.484,865.195,195.66,865.195,198.416z M862.258,198.416
				c0-2.189-0.43-3.816-1.286-4.883c-0.856-1.064-2.049-1.596-3.571-1.596c-1.545,0-2.742,0.529-3.596,1.596
				c-0.854,1.064-1.278,2.691-1.278,4.883c0,2.119,0.429,3.727,1.286,4.82c0.857,1.096,2.054,1.643,3.588,1.643
				c1.514,0,2.701-0.543,3.563-1.627C861.827,202.168,862.258,200.555,862.258,198.416z"/>
			<path fill="#FFFFFF" d="M872.476,206.861h-2.846v-23.553h2.846V206.861z"/>
			<path fill="#FFFFFF" d="M892.26,198.703h-12.457c0,1.039,0.156,1.945,0.47,2.717c0.313,0.771,0.741,1.406,1.286,1.9
				c0.524,0.481,1.147,0.848,1.869,1.09s1.517,0.363,2.385,0.363c1.149,0,2.309-0.23,3.474-0.689c1.166-0.459,1.996-0.91,2.49-1.355
				h0.15v3.104c-0.959,0.403-1.938,0.742-2.938,1.015c-0.999,0.272-2.049,0.409-3.147,0.409c-2.807,0-4.995-0.76-6.568-2.276
				c-1.574-1.521-2.361-3.678-2.361-6.474c0-2.764,0.755-4.959,2.264-6.584s3.494-2.438,5.957-2.438
				c2.279,0,4.038,0.666,5.273,1.998s1.854,3.225,1.854,5.676V198.703L892.26,198.703z M889.49,196.523
				c-0.012-1.495-0.388-2.648-1.128-3.467c-0.742-0.816-1.87-1.227-3.384-1.227c-1.522,0-2.737,0.449-3.641,1.348
				c-0.903,0.898-1.415,2.014-1.536,3.347H889.49z"/>
		</g>
	</g>
	<g enable-background="new    ">
		<path fill="#FFFFFF" d="M123.244,260.689h-0.151c-0.424-0.101-0.835-0.174-1.233-0.219c-0.399-0.046-0.871-0.068-1.416-0.068
			c-0.878,0-1.726,0.195-2.543,0.582c-0.817,0.389-1.604,0.891-2.361,1.506v12.004h-2.846v-16.908h2.846v2.498
			c1.13-0.908,2.126-1.551,2.99-1.93c0.862-0.379,1.743-0.568,2.641-0.568c0.494,0,0.853,0.016,1.075,0.039
			c0.222,0.025,0.555,0.072,0.999,0.145L123.244,260.689L123.244,260.689z"/>
		<path fill="#FFFFFF" d="M133.43,274.77c0,0.801-0.115,1.531-0.344,2.193s-0.553,1.223-0.971,1.682
			c-0.388,0.437-0.846,0.771-1.372,1.01c-0.526,0.24-1.084,0.357-1.672,0.357c-0.512,0-0.975-0.057-1.39-0.168
			s-0.837-0.285-1.267-0.52v4.129h-1.659v-13.492h1.659v1.033c0.441-0.371,0.937-0.682,1.487-0.932
			c0.55-0.25,1.137-0.375,1.76-0.375c1.188,0,2.114,0.446,2.775,1.346C133.099,271.93,133.43,273.176,133.43,274.77z
			 M131.718,274.814c0-1.189-0.203-2.076-0.609-2.666c-0.406-0.588-1.03-0.881-1.871-0.881c-0.477,0-0.957,0.102-1.438,0.309
			c-0.482,0.205-0.944,0.477-1.386,0.811v5.586c0.471,0.215,0.875,0.357,1.213,0.437c0.338,0.075,0.722,0.114,1.152,0.114
			c0.923,0,1.644-0.313,2.162-0.938C131.458,276.961,131.718,276.037,131.718,274.814z"/>
		<path fill="#FFFFFF" d="M162.396,262.658h-17.952v-2.422h17.952V262.658z M162.396,269.016h-17.952v-2.422h17.952V269.016z"/>
		<path fill="#FFFFFF" d="M198.68,274.494h-3.891l-7.537-8.961h-4.224v8.961h-2.997v-22.539h6.313c1.361,0,2.497,0.09,3.405,0.266
			c0.908,0.178,1.726,0.492,2.452,0.945c0.817,0.516,1.455,1.164,1.915,1.945c0.459,0.781,0.688,1.771,0.688,2.975
			c0,1.625-0.408,2.984-1.227,4.08c-0.816,1.096-1.942,1.92-3.375,2.475L198.68,274.494z M191.671,258.299
			c0-0.646-0.114-1.219-0.341-1.719c-0.228-0.5-0.604-0.92-1.128-1.264c-0.434-0.293-0.948-0.496-1.544-0.613
			c-0.596-0.115-1.297-0.174-2.104-0.174h-3.526v8.506h3.027c0.948,0,1.776-0.082,2.482-0.248c0.706-0.168,1.307-0.48,1.802-0.932
			c0.453-0.426,0.789-0.91,1.006-1.463C191.563,259.846,191.671,259.146,191.671,258.299z"/>
		<path fill="#FFFFFF" d="M207.233,276.977c0,0.9-0.372,1.64-1.116,2.215c-0.744,0.576-1.761,0.865-3.049,0.865
			c-0.729,0-1.399-0.088-2.008-0.262c-0.609-0.172-1.119-0.361-1.531-0.568v-1.86h0.088c0.523,0.395,1.106,0.707,1.748,0.938
			c0.641,0.232,1.256,0.348,1.844,0.348c0.729,0,1.301-0.116,1.712-0.352c0.412-0.236,0.618-0.607,0.618-1.113
			c0-0.387-0.112-0.682-0.336-0.883c-0.224-0.199-0.652-0.369-1.288-0.512c-0.235-0.053-0.543-0.113-0.922-0.184
			c-0.38-0.072-0.726-0.148-1.037-0.23c-0.865-0.229-1.479-0.566-1.84-1.01c-0.362-0.445-0.543-0.99-0.543-1.637
			c0-0.406,0.084-0.789,0.252-1.148c0.167-0.357,0.422-0.68,0.763-0.961c0.33-0.277,0.749-0.496,1.258-0.658
			c0.509-0.162,1.078-0.242,1.708-0.242c0.588,0,1.184,0.072,1.787,0.217c0.603,0.144,1.104,0.318,1.504,0.523v1.775h-0.088
			c-0.424-0.314-0.938-0.576-1.544-0.791s-1.2-0.322-1.783-0.322c-0.605,0-1.118,0.117-1.535,0.35
			c-0.418,0.232-0.627,0.578-0.627,1.037c0,0.404,0.127,0.711,0.38,0.918c0.247,0.205,0.646,0.373,1.2,0.502
			c0.306,0.07,0.648,0.142,1.027,0.213c0.38,0.07,0.696,0.136,0.949,0.193c0.771,0.176,1.364,0.479,1.782,0.908
			C207.024,275.682,207.233,276.258,207.233,276.977z"/>
		<path fill="#FFFFFF" d="M240.534,262.658h-17.951v-2.422h17.951V262.658z M240.534,269.016h-17.951v-2.422h17.951V269.016z"/>
		<path fill="#FFFFFF" d="M271.548,274.494h-12.2v-2.301h4.692v-15.105h-4.692v-2.059c0.636,0,1.317-0.055,2.044-0.16
			s1.276-0.26,1.649-0.461c0.464-0.252,0.83-0.572,1.098-0.961c0.267-0.391,0.421-0.91,0.462-1.566h2.346v20.313h4.602
			L271.548,274.494L271.548,274.494z"/>
		<path fill="#FFFFFF" d="M282.295,274.494h-3.617v-4.314h3.617V274.494z"/>
		<path fill="#FFFFFF" d="M301.836,263.641c0.484,0.437,0.883,0.98,1.196,1.635c0.313,0.656,0.469,1.504,0.469,2.543
			c0,1.029-0.187,1.976-0.561,2.832c-0.373,0.857-0.897,1.604-1.574,2.24c-0.756,0.705-1.647,1.229-2.671,1.566
			c-1.024,0.338-2.147,0.506-3.368,0.506c-1.251,0-2.482-0.148-3.693-0.445c-1.211-0.297-2.205-0.623-2.982-0.977v-3.164h0.228
			c0.857,0.566,1.867,1.035,3.027,1.408c1.16,0.373,2.28,0.561,3.36,0.561c0.636,0,1.312-0.106,2.028-0.318
			c0.717-0.213,1.297-0.524,1.741-0.938c0.464-0.44,0.81-0.932,1.036-1.467c0.228-0.535,0.341-1.211,0.341-2.029
			c0-0.807-0.129-1.475-0.386-2.006c-0.258-0.528-0.613-0.944-1.067-1.248c-0.454-0.313-1.004-0.524-1.65-0.644
			c-0.646-0.117-1.342-0.176-2.088-0.176h-1.363v-2.512h1.061c1.533,0,2.757-0.32,3.67-0.961c0.913-0.641,1.37-1.576,1.37-2.809
			c0-0.545-0.116-1.021-0.349-1.432c-0.231-0.406-0.555-0.742-0.969-1.009c-0.434-0.262-0.897-0.44-1.393-0.545
			c-0.494-0.101-1.054-0.147-1.68-0.147c-0.959,0-1.978,0.172-3.058,0.514c-1.08,0.344-2.099,0.828-3.058,1.453h-0.151v-3.162
			c0.717-0.355,1.673-0.68,2.868-0.977c1.196-0.3,2.354-0.447,3.475-0.447c1.1,0,2.068,0.102,2.906,0.303
			c0.837,0.203,1.594,0.525,2.27,0.969c0.727,0.484,1.277,1.07,1.65,1.756c0.373,0.688,0.561,1.488,0.561,2.406
			c0,1.252-0.442,2.346-1.325,3.277c-0.883,0.934-1.925,1.52-3.126,1.764v0.213c0.484,0.08,1.04,0.25,1.666,0.506
			C300.873,262.938,301.403,263.258,301.836,263.641z"/>
		<path fill="#FFFFFF" d="M323.528,274.494H308.27v-3.164c1.06-0.908,2.121-1.816,3.188-2.725c1.064-0.91,2.057-1.813,2.975-2.709
			c1.938-1.879,3.266-3.367,3.979-4.476c0.718-1.104,1.075-2.299,1.075-3.58c0-1.17-0.387-2.086-1.157-2.746
			c-0.771-0.661-1.85-0.989-3.231-0.989c-0.918,0-1.911,0.16-2.981,0.481c-1.068,0.322-2.112,0.815-3.133,1.481h-0.15v-3.178
			c0.717-0.354,1.673-0.676,2.867-0.969c1.196-0.293,2.354-0.439,3.476-0.439c2.312,0,4.122,0.56,5.435,1.675
			c1.313,1.114,1.968,2.625,1.968,4.532c0,0.857-0.107,1.656-0.324,2.398c-0.219,0.742-0.537,1.445-0.961,2.111
			c-0.396,0.627-0.854,1.242-1.387,1.848c-0.528,0.605-1.173,1.275-1.93,2.012c-1.08,1.062-2.194,2.088-3.346,3.082
			c-1.15,0.994-2.227,1.914-3.226,2.762h12.125L323.528,274.494L323.528,274.494z"/>
		<path fill="#FFFFFF" d="M353.861,254.619h-11.396v6.355h9.794v2.664h-9.794v10.854h-2.997v-22.539h14.396L353.861,254.619
			L353.861,254.619z"/>
		<path fill="#FFFFFF" d="M381.729,274.494h-2.846v-9.627c0-0.729-0.032-1.428-0.099-2.105c-0.065-0.676-0.205-1.217-0.416-1.619
			c-0.231-0.434-0.564-0.762-1-0.981c-0.435-0.224-1.06-0.334-1.877-0.334c-0.797,0-1.594,0.2-2.392,0.6
			c-0.798,0.398-1.595,0.904-2.393,1.521c0.03,0.231,0.056,0.504,0.075,0.811c0.021,0.311,0.03,0.613,0.03,0.916v10.822h-2.847
			v-9.627c0-0.746-0.033-1.455-0.1-2.127c-0.064-0.67-0.204-1.207-0.416-1.611c-0.231-0.434-0.564-0.76-0.999-0.977
			s-1.061-0.326-1.877-0.326c-0.776,0-1.558,0.193-2.339,0.576s-1.563,0.873-2.338,1.469v12.623h-2.847v-16.908h2.847v1.877
			c0.888-0.736,1.771-1.311,2.655-1.725c0.883-0.414,1.824-0.621,2.822-0.621c1.149,0,2.127,0.242,2.93,0.727s1.4,1.156,1.793,2.016
			c1.15-0.971,2.2-1.668,3.148-2.098s1.963-0.645,3.043-0.645c1.854,0,3.227,0.563,4.108,1.688c0.883,1.127,1.323,2.697,1.323,4.715
			v10.976h0.008V274.494z"/>
		<path fill="#FFFFFF" d="M416.967,262.658h-17.951v-2.422h17.951V262.658z M416.967,269.016h-17.951v-2.422h17.951V269.016z"/>
		<path fill="#FFFFFF" d="M453.25,274.494h-3.892l-7.537-8.961h-4.225v8.961H434.6v-22.539h6.313c1.361,0,2.497,0.09,3.405,0.266
			c0.907,0.178,1.727,0.492,2.451,0.945c0.817,0.516,1.455,1.164,1.915,1.945c0.459,0.781,0.688,1.771,0.688,2.975
			c0,1.625-0.408,2.984-1.229,4.08c-0.815,1.096-1.941,1.92-3.375,2.475L453.25,274.494z M446.242,258.299
			c0-0.646-0.113-1.219-0.341-1.719c-0.229-0.5-0.604-0.92-1.128-1.264c-0.435-0.293-0.948-0.496-1.545-0.613
			c-0.596-0.115-1.297-0.174-2.104-0.174H437.6v8.506h3.027c0.947,0,1.775-0.082,2.481-0.248c0.706-0.168,1.308-0.48,1.802-0.932
			c0.453-0.426,0.789-0.91,1.007-1.463C446.133,259.846,446.242,259.146,446.242,258.299z"/>
		<path fill="#FFFFFF" d="M468.463,274.494h-2.831v-1.801c-0.252,0.172-0.594,0.412-1.021,0.719
			c-0.431,0.309-0.847,0.553-1.249,0.734c-0.476,0.229-1.021,0.426-1.636,0.582c-0.614,0.153-1.337,0.231-2.163,0.231
			c-1.524,0-2.816-0.504-3.875-1.515c-1.062-1.008-1.591-2.295-1.591-3.858c0-1.28,0.273-2.315,0.825-3.106
			c0.55-0.793,1.334-1.416,2.354-1.871c1.028-0.453,2.267-0.765,3.708-0.922c1.442-0.162,2.991-0.283,4.646-0.363v-0.439
			c0-0.646-0.112-1.182-0.341-1.605c-0.228-0.422-0.554-0.756-0.978-0.997c-0.403-0.232-0.889-0.39-1.453-0.47
			c-0.563-0.082-1.154-0.121-1.771-0.121c-0.747,0-1.579,0.099-2.497,0.295c-0.919,0.197-1.867,0.482-2.846,0.855h-0.152v-2.893
			c0.557-0.15,1.356-0.316,2.407-0.498c1.05-0.182,2.084-0.273,3.104-0.273c1.19,0,2.229,0.1,3.11,0.295
			c0.883,0.197,1.646,0.533,2.293,1.008c0.636,0.463,1.12,1.064,1.453,1.802s0.5,1.649,0.5,2.739L468.463,274.494L468.463,274.494z
			 M465.632,270.332v-4.707c-0.868,0.051-1.891,0.125-3.064,0.227c-1.175,0.103-2.105,0.248-2.793,0.439
			c-0.815,0.232-1.479,0.592-1.981,1.082c-0.505,0.49-0.758,1.162-0.758,2.02c0,0.969,0.293,1.699,0.878,2.188
			s1.479,0.733,2.681,0.733c0.998,0,1.912-0.192,2.739-0.582C464.158,271.344,464.926,270.877,465.632,270.332z"/>
		<path fill="#FFFFFF" d="M487.655,274.494h-2.847v-1.771c-0.815,0.707-1.67,1.258-2.558,1.65c-0.889,0.395-1.853,0.59-2.893,0.59
			c-2.019,0-3.62-0.775-4.807-2.33s-1.777-3.709-1.777-6.463c0-1.434,0.203-2.711,0.612-3.83c0.408-1.121,0.961-2.074,1.657-2.861
			c0.688-0.766,1.484-1.352,2.398-1.756c0.913-0.402,1.858-0.604,2.838-0.604c0.889,0,1.676,0.094,2.36,0.28
			c0.688,0.187,1.408,0.478,2.164,0.869v-7.326h2.847v23.554L487.655,274.494L487.655,274.494z M484.81,270.332v-9.703
			c-0.767-0.342-1.452-0.58-2.059-0.711s-1.267-0.197-1.982-0.197c-1.595,0-2.836,0.555-3.724,1.666
			c-0.889,1.109-1.332,2.684-1.332,4.723c0,2.009,0.343,3.533,1.028,4.578c0.687,1.045,1.786,1.566,3.301,1.566
			c0.808,0,1.625-0.178,2.451-0.537C483.321,271.359,484.094,270.896,484.81,270.332z"/>
		<path fill="#FFFFFF" d="M496.313,254.756h-3.209v-2.951h3.209V254.756z M496.132,274.494h-2.847v-16.908h2.847V274.494z"/>
		<path fill="#FFFFFF" d="M515.779,274.494h-2.847v-1.877c-0.958,0.758-1.877,1.338-2.754,1.74
			c-0.879,0.401-1.849,0.604-2.905,0.604c-1.776,0-3.159-0.541-4.147-1.627c-0.988-1.084-1.482-2.676-1.482-4.775v-10.975h2.847
			v9.627c0,0.859,0.04,1.594,0.121,2.203c0.08,0.611,0.252,1.133,0.515,1.566c0.272,0.444,0.626,0.768,1.062,0.969
			c0.434,0.203,1.063,0.303,1.892,0.303c0.736,0,1.541-0.189,2.414-0.574s1.688-0.873,2.444-1.469v-12.625h2.846v16.91H515.779z"/>
		<path fill="#FFFFFF" d="M533.459,269.621c0,1.543-0.639,2.811-1.914,3.799c-1.277,0.988-3.021,1.482-5.229,1.482
			c-1.251,0-2.397-0.148-3.442-0.445s-1.921-0.623-2.627-0.977v-3.193h0.15c0.898,0.676,1.897,1.213,2.997,1.611
			c1.101,0.396,2.154,0.598,3.163,0.598c1.252,0,2.229-0.201,2.938-0.605c0.705-0.402,1.059-1.039,1.059-1.906
			c0-0.666-0.19-1.172-0.573-1.514c-0.385-0.344-1.121-0.637-2.211-0.879c-0.403-0.09-0.932-0.197-1.581-0.318
			c-0.65-0.121-1.244-0.252-1.778-0.393c-1.483-0.395-2.535-0.971-3.155-1.732c-0.621-0.762-0.933-1.698-0.933-2.809
			c0-0.697,0.146-1.352,0.433-1.969c0.288-0.615,0.726-1.164,1.311-1.648c0.564-0.475,1.283-0.85,2.156-1.129
			c0.872-0.277,1.85-0.416,2.93-0.416c1.009,0,2.029,0.125,3.064,0.371c1.034,0.248,1.896,0.547,2.58,0.9v3.043h-0.149
			c-0.728-0.535-1.61-0.986-2.648-1.355c-1.039-0.367-2.061-0.553-3.059-0.553c-1.039,0-1.918,0.201-2.635,0.6
			c-0.717,0.399-1.074,0.99-1.074,1.777c0,0.697,0.218,1.221,0.65,1.574c0.424,0.354,1.109,0.641,2.06,0.863
			c0.523,0.121,1.111,0.24,1.765,0.36c0.648,0.121,1.192,0.232,1.627,0.332c1.321,0.306,2.341,0.824,3.058,1.563
			C533.102,267.4,533.459,268.389,533.459,269.621z"/>
		<path fill="#FFFFFF" d="M562.84,266.049c0,2.754-0.707,4.93-2.119,6.523c-1.413,1.594-3.307,2.391-5.677,2.391
			c-2.393,0-4.291-0.797-5.699-2.391c-1.406-1.594-2.11-3.771-2.11-6.523c0-2.756,0.703-4.932,2.11-6.531
			c1.408-1.6,3.309-2.399,5.699-2.399c2.37,0,4.264,0.801,5.677,2.399C562.133,261.117,562.84,263.293,562.84,266.049z
			 M559.902,266.049c0-2.189-0.43-3.816-1.286-4.883c-0.856-1.064-2.049-1.596-3.571-1.596c-1.544,0-2.742,0.529-3.596,1.596
			c-0.854,1.066-1.278,2.693-1.278,4.883c0,2.119,0.429,3.727,1.287,4.82c0.856,1.096,2.053,1.643,3.587,1.643
			c1.514,0,2.701-0.543,3.563-1.627C559.472,269.801,559.902,268.188,559.902,266.049z"/>
		<path fill="#FFFFFF" d="M576.342,253.697h-0.15c-0.313-0.092-0.723-0.187-1.228-0.281c-0.504-0.096-0.948-0.143-1.332-0.143
			c-1.222,0-2.105,0.27-2.656,0.809c-0.55,0.541-0.823,1.518-0.823,2.93v0.574h5.131v2.393h-5.041v14.517h-2.846v-14.517h-1.923
			v-2.393h1.923v-0.559c0-2.01,0.5-3.553,1.498-4.625c1-1.074,2.442-1.611,4.329-1.611c0.637,0,1.208,0.029,1.719,0.09
			c0.51,0.061,0.978,0.131,1.399,0.213V253.697L576.342,253.697z"/>
		<path fill="#FFFFFF" d="M603.921,265.912c0,1.412-0.199,2.684-0.599,3.813c-0.398,1.133-0.938,2.078-1.611,2.848
			c-0.718,0.798-1.505,1.396-2.361,1.794c-0.856,0.396-1.802,0.598-2.831,0.598c-0.958,0-1.796-0.112-2.512-0.34
			c-0.718-0.228-1.425-0.531-2.119-0.916l-0.183,0.787h-2.664v-23.554h2.847v8.416c0.797-0.655,1.646-1.192,2.543-1.61
			c0.896-0.418,1.906-0.629,3.026-0.629c1.998,0,3.574,0.768,4.729,2.301C603.343,260.953,603.921,263.117,603.921,265.912z
			 M600.984,265.988c0-2.021-0.333-3.551-0.999-4.594c-0.666-1.047-1.74-1.568-3.226-1.568c-0.827,0-1.664,0.18-2.512,0.539
			c-0.849,0.355-1.636,0.816-2.361,1.385v9.688c0.808,0.363,1.5,0.615,2.081,0.756c0.58,0.144,1.237,0.214,1.977,0.214
			c1.573,0,2.809-0.519,3.699-1.554C600.538,269.82,600.984,268.197,600.984,265.988z"/>
		<path fill="#FFFFFF" d="M611.231,274.494h-2.847v-23.553h2.847V274.494z"/>
		<path fill="#FFFFFF" d="M630.002,274.494h-2.831v-1.801c-0.252,0.172-0.594,0.412-1.021,0.719
			c-0.431,0.309-0.847,0.553-1.249,0.734c-0.476,0.229-1.021,0.426-1.636,0.582c-0.614,0.153-1.337,0.231-2.164,0.231
			c-1.523,0-2.815-0.504-3.875-1.515c-1.062-1.008-1.59-2.295-1.59-3.858c0-1.28,0.273-2.315,0.825-3.106
			c0.55-0.793,1.334-1.416,2.354-1.871c1.028-0.453,2.266-0.765,3.708-0.922c1.442-0.162,2.991-0.283,4.646-0.363v-0.439
			c0-0.646-0.113-1.182-0.342-1.605c-0.228-0.424-0.553-0.756-0.978-0.997c-0.402-0.232-0.888-0.39-1.452-0.47
			c-0.564-0.082-1.155-0.121-1.771-0.121c-0.747,0-1.579,0.099-2.497,0.295c-0.919,0.197-1.867,0.482-2.847,0.855h-0.151v-2.893
			c0.557-0.15,1.356-0.316,2.406-0.498c1.051-0.182,2.084-0.273,3.104-0.273c1.191,0,2.229,0.1,3.111,0.295
			c0.883,0.197,1.646,0.533,2.293,1.008c0.636,0.463,1.12,1.064,1.453,1.802s0.5,1.649,0.5,2.739L630.002,274.494L630.002,274.494z
			 M627.171,270.332v-4.707c-0.868,0.051-1.891,0.125-3.064,0.227c-1.175,0.103-2.106,0.248-2.794,0.439
			c-0.815,0.232-1.478,0.592-1.981,1.082s-0.757,1.162-0.757,2.02c0,0.969,0.293,1.699,0.878,2.188s1.479,0.733,2.681,0.733
			c0.998,0,1.912-0.192,2.738-0.582C625.697,271.344,626.465,270.877,627.171,270.332z"/>
		<path fill="#FFFFFF" d="M647.983,273.436c-0.948,0.453-1.85,0.808-2.701,1.06c-0.854,0.252-1.759,0.379-2.717,0.379
			c-1.223,0-2.343-0.181-3.361-0.537c-1.02-0.354-1.893-0.897-2.617-1.627c-0.736-0.728-1.308-1.646-1.71-2.756
			c-0.404-1.109-0.605-2.406-0.605-3.892c0-2.764,0.76-4.934,2.277-6.508c1.519-1.574,3.523-2.361,6.019-2.361
			c0.969,0,1.919,0.138,2.854,0.408c0.935,0.273,1.789,0.605,2.564,1v3.162h-0.149c-0.868-0.676-1.765-1.195-2.688-1.559
			c-0.924-0.363-1.824-0.545-2.701-0.545c-1.614,0-2.891,0.543-3.821,1.627c-0.935,1.086-1.4,2.678-1.4,4.775
			c0,2.037,0.456,3.604,1.37,4.698c0.913,1.099,2.197,1.646,3.854,1.646c0.574,0,1.16-0.076,1.756-0.23
			c0.596-0.148,1.131-0.348,1.604-0.59c0.414-0.211,0.804-0.436,1.166-0.674c0.363-0.236,0.65-0.441,0.863-0.613h0.149v3.137
			H647.983L647.983,273.436z"/>
		<path fill="#FFFFFF" d="M666.979,274.494h-3.754l-6.78-7.402l-1.847,1.756v5.646h-2.846v-23.553h2.846v15.104l8.22-8.463h3.588
			l-7.855,7.813L666.979,274.494z"/>
		<path fill="#FFFFFF" d="M695.013,274.494h-2.846v-9.627c0-0.777-0.045-1.506-0.137-2.189c-0.091-0.68-0.257-1.213-0.499-1.596
			c-0.253-0.424-0.616-0.74-1.09-0.947c-0.476-0.205-1.091-0.311-1.849-0.311c-0.776,0-1.589,0.193-2.438,0.576
			s-1.66,0.873-2.438,1.469v12.623h-2.847v-23.553h2.847v8.521c0.888-0.735,1.806-1.312,2.754-1.726
			c0.949-0.414,1.923-0.621,2.922-0.621c1.826,0,3.22,0.552,4.179,1.648c0.959,1.1,1.438,2.686,1.438,4.752L695.013,274.494
			L695.013,274.494z"/>
		<path fill="#FFFFFF" d="M714.903,266.049c0,2.754-0.707,4.93-2.119,6.523c-1.413,1.594-3.307,2.391-5.677,2.391
			c-2.393,0-4.291-0.797-5.699-2.391c-1.406-1.594-2.11-3.771-2.11-6.523c0-2.756,0.704-4.932,2.11-6.531
			c1.408-1.6,3.309-2.399,5.699-2.399c2.37,0,4.264,0.801,5.677,2.399C714.196,261.117,714.903,263.293,714.903,266.049z
			 M711.966,266.049c0-2.189-0.43-3.816-1.286-4.883c-0.856-1.064-2.049-1.596-3.571-1.596c-1.544,0-2.742,0.529-3.596,1.596
			s-1.278,2.693-1.278,4.883c0,2.119,0.43,3.727,1.287,4.82c0.856,1.096,2.053,1.643,3.587,1.643c1.514,0,2.701-0.543,3.563-1.627
			C711.535,269.801,711.966,268.188,711.966,266.049z"/>
		<path fill="#FFFFFF" d="M722.184,274.494h-2.846v-23.553h2.846V274.494z"/>
		<path fill="#FFFFFF" d="M741.968,266.336h-12.457c0,1.039,0.156,1.945,0.47,2.717c0.313,0.771,0.741,1.406,1.286,1.9
			c0.523,0.484,1.146,0.848,1.869,1.09c0.722,0.242,1.517,0.363,2.384,0.363c1.15,0,2.31-0.23,3.475-0.689
			c1.166-0.459,1.996-0.91,2.49-1.355h0.15v3.104c-0.959,0.404-1.938,0.742-2.938,1.017c-0.999,0.271-2.049,0.408-3.147,0.408
			c-2.807,0-4.995-0.761-6.568-2.277c-1.574-1.521-2.361-3.676-2.361-6.473c0-2.765,0.755-4.959,2.264-6.584
			s3.494-2.438,5.957-2.438c2.279,0,4.038,0.666,5.273,1.998c1.235,1.331,1.854,3.225,1.854,5.676V266.336L741.968,266.336z
			 M739.198,264.156c-0.011-1.494-0.388-2.648-1.128-3.467c-0.742-0.816-1.87-1.229-3.385-1.229c-1.522,0-2.736,0.449-3.64,1.349
			c-0.903,0.897-1.415,2.016-1.536,3.348H739.198L739.198,264.156z"/>
	</g>
	<g>
		<rect x="105" y="57.687" fill="none" width="864" height="82.843"/>
		<path fill="#FFFFFF" d="M123.486,61.254h-7.793v19.233h-2.9V61.254H105v-2.578h18.486V61.254z"/>
		<path fill="#FFFFFF" d="M139.878,80.488h-2.754v-9.316c0-0.752-0.044-1.457-0.132-2.117c-0.088-0.658-0.249-1.174-0.483-1.545
			c-0.244-0.41-0.596-0.715-1.055-0.916c-0.459-0.199-1.055-0.3-1.787-0.3c-0.752,0-1.538,0.186-2.358,0.557
			s-1.606,0.845-2.358,1.421v12.217h-2.754V57.695h2.754v8.247c0.859-0.713,1.748-1.27,2.666-1.67s1.86-0.601,2.827-0.601
			c1.768,0,3.115,0.532,4.043,1.597s1.392,2.598,1.392,4.6V80.488z"/>
		<path fill="#FFFFFF" d="M158.877,72.592h-12.056c0,1.006,0.151,1.882,0.454,2.63c0.303,0.746,0.718,1.359,1.245,1.838
			c0.508,0.469,1.111,0.82,1.809,1.055s1.467,0.352,2.307,0.352c1.113,0,2.234-0.222,3.362-0.666s1.931-0.882,2.41-1.312h0.146
			v3.003c-0.928,0.391-1.875,0.718-2.842,0.981s-1.982,0.396-3.047,0.396c-2.715,0-4.834-0.734-6.357-2.205
			c-1.523-1.469-2.285-3.557-2.285-6.262c0-2.676,0.73-4.8,2.19-6.372s3.381-2.358,5.764-2.358c2.207,0,3.909,0.645,5.105,1.934
			s1.794,3.12,1.794,5.493V72.592z M156.196,70.483c-0.01-1.445-0.374-2.563-1.091-3.354s-1.809-1.187-3.274-1.187
			c-1.475,0-2.649,0.435-3.523,1.304s-1.37,1.948-1.487,3.237H156.196z"/>
		<path fill="#FFFFFF" d="M186.313,80.488h-2.739v-1.743c-0.244,0.166-0.574,0.398-0.989,0.696s-0.818,0.534-1.208,0.71
			c-0.459,0.225-0.986,0.412-1.582,0.563s-1.294,0.228-2.095,0.228c-1.475,0-2.725-0.488-3.75-1.465s-1.538-2.222-1.538-3.735
			c0-1.24,0.266-2.243,0.798-3.01s1.292-1.37,2.278-1.81c0.996-0.439,2.192-0.737,3.589-0.894s2.896-0.273,4.497-0.352v-0.425
			c0-0.625-0.11-1.143-0.33-1.553s-0.535-0.732-0.945-0.967c-0.391-0.225-0.859-0.376-1.406-0.454s-1.118-0.117-1.714-0.117
			c-0.723,0-1.528,0.096-2.417,0.285c-0.889,0.191-1.807,0.467-2.754,0.828h-0.146v-2.798c0.537-0.146,1.313-0.308,2.329-0.483
			s2.017-0.264,3.003-0.264c1.152,0,2.156,0.096,3.01,0.285c0.854,0.191,1.594,0.516,2.219,0.975
			c0.615,0.449,1.084,1.03,1.406,1.743s0.483,1.597,0.483,2.651V80.488z M183.574,76.459v-4.556c-0.84,0.049-1.829,0.122-2.966,0.22
			s-2.039,0.239-2.703,0.425c-0.791,0.225-1.431,0.574-1.919,1.047c-0.488,0.475-0.732,1.126-0.732,1.956
			c0,0.938,0.283,1.644,0.85,2.116c0.566,0.475,1.431,0.711,2.593,0.711c0.967,0,1.851-0.188,2.651-0.564
			C182.148,77.439,182.891,76.987,183.574,76.459z"/>
		<path fill="#FFFFFF" d="M215.493,80.488h-2.754v-9.316c0-0.703-0.032-1.382-0.095-2.036s-0.198-1.177-0.403-1.567
			c-0.225-0.42-0.547-0.737-0.967-0.952s-1.025-0.322-1.816-0.322c-0.771,0-1.543,0.193-2.314,0.579s-1.543,0.876-2.314,1.472
			c0.029,0.225,0.054,0.486,0.073,0.784s0.029,0.593,0.029,0.886v10.474h-2.754v-9.316c0-0.723-0.032-1.408-0.095-2.059
			c-0.063-0.648-0.198-1.169-0.403-1.56c-0.225-0.42-0.547-0.734-0.967-0.944s-1.025-0.315-1.816-0.315
			c-0.752,0-1.506,0.186-2.263,0.557s-1.511,0.845-2.263,1.421v12.217h-2.754V64.125h2.754v1.816c0.859-0.713,1.716-1.27,2.571-1.67
			s1.765-0.601,2.732-0.601c1.113,0,2.058,0.234,2.834,0.703s1.355,1.118,1.736,1.948c1.113-0.938,2.129-1.613,3.047-2.028
			s1.899-0.623,2.944-0.623c1.797,0,3.123,0.545,3.977,1.633c0.854,1.09,1.282,2.61,1.282,4.563V80.488z"/>
		<path fill="#FFFFFF" d="M234.741,72.314c0,2.666-0.684,4.771-2.051,6.313s-3.198,2.314-5.493,2.314
			c-2.314,0-4.153-0.771-5.515-2.314s-2.043-3.647-2.043-6.313s0.681-4.772,2.043-6.32s3.201-2.322,5.515-2.322
			c2.295,0,4.126,0.774,5.493,2.322S234.741,69.648,234.741,72.314z M231.899,72.314c0-2.119-0.415-3.693-1.245-4.725
			c-0.83-1.029-1.982-1.545-3.457-1.545c-1.494,0-2.654,0.516-3.479,1.545c-0.825,1.031-1.238,2.605-1.238,4.725
			c0,2.051,0.415,3.606,1.245,4.666s1.987,1.589,3.472,1.589c1.465,0,2.615-0.524,3.45-1.575
			C231.482,75.945,231.899,74.384,231.899,72.314z"/>
		<path fill="#FFFFFF" d="M252.568,80.488h-2.754v-1.816c-0.928,0.732-1.816,1.294-2.666,1.685s-1.787,0.586-2.813,0.586
			c-1.719,0-3.057-0.524-4.014-1.575c-0.957-1.049-1.436-2.59-1.436-4.621v-10.62h2.754v9.316c0,0.83,0.039,1.541,0.117,2.132
			s0.244,1.096,0.498,1.516c0.264,0.43,0.605,0.742,1.025,0.938s1.03,0.293,1.831,0.293c0.713,0,1.492-0.186,2.336-0.557
			s1.633-0.845,2.366-1.421V64.125h2.754V80.488z"/>
		<path fill="#FFFFFF" d="M271.67,80.488h-2.754v-9.316c0-0.752-0.044-1.457-0.132-2.117c-0.088-0.658-0.249-1.174-0.483-1.545
			c-0.244-0.41-0.596-0.715-1.055-0.916c-0.459-0.199-1.055-0.3-1.787-0.3c-0.752,0-1.538,0.186-2.358,0.557
			s-1.606,0.845-2.358,1.421v12.217h-2.754V64.125h2.754v1.816c0.859-0.713,1.748-1.27,2.666-1.67s1.86-0.601,2.827-0.601
			c1.768,0,3.115,0.532,4.043,1.597s1.392,2.598,1.392,4.6V80.488z"/>
		<path fill="#FFFFFF" d="M285.469,80.341c-0.518,0.137-1.082,0.249-1.692,0.337s-1.155,0.132-1.633,0.132
			c-1.67,0-2.939-0.449-3.809-1.348s-1.304-2.339-1.304-4.321V66.44h-1.86v-2.314h1.86v-4.702h2.754v4.702h5.684v2.314h-5.684v7.456
			c0,0.859,0.02,1.531,0.059,2.014c0.039,0.484,0.176,0.936,0.41,1.355c0.215,0.391,0.51,0.677,0.886,0.857s0.95,0.271,1.721,0.271
			c0.449,0,0.918-0.065,1.406-0.198c0.488-0.131,0.84-0.241,1.055-0.329h0.146V80.341z"/>
		<path fill="#FFFFFF" d="M313.286,72.314c0,2.666-0.684,4.771-2.051,6.313s-3.198,2.314-5.493,2.314
			c-2.314,0-4.153-0.771-5.515-2.314s-2.043-3.647-2.043-6.313s0.681-4.772,2.043-6.32s3.201-2.322,5.515-2.322
			c2.295,0,4.126,0.774,5.493,2.322S313.286,69.648,313.286,72.314z M310.444,72.314c0-2.119-0.415-3.693-1.245-4.725
			c-0.83-1.029-1.982-1.545-3.457-1.545c-1.494,0-2.654,0.516-3.479,1.545c-0.825,1.031-1.238,2.605-1.238,4.725
			c0,2.051,0.415,3.606,1.245,4.666s1.987,1.589,3.472,1.589c1.465,0,2.615-0.524,3.45-1.575
			C310.027,75.945,310.444,74.384,310.444,72.314z"/>
		<path fill="#FFFFFF" d="M326.353,60.361h-0.146c-0.303-0.088-0.698-0.178-1.187-0.271c-0.488-0.092-0.918-0.139-1.289-0.139
			c-1.182,0-2.039,0.262-2.571,0.783c-0.532,0.523-0.798,1.468-0.798,2.835v0.557h4.966v2.314h-4.878v14.048h-2.754V66.44h-1.86
			v-2.314h1.86v-0.542c0-1.943,0.483-3.436,1.45-4.475c0.967-1.041,2.363-1.561,4.189-1.561c0.615,0,1.169,0.029,1.663,0.088
			s0.945,0.127,1.355,0.205V60.361z"/>
		<path fill="#FFFFFF" d="M356.06,58.676l-7.939,21.812h-3.867l-7.939-21.812h3.105l6.841,19.189l6.841-19.189H356.06z"/>
		<path fill="#FFFFFF" d="M370.4,80.488h-2.739v-1.743c-0.244,0.166-0.574,0.398-0.989,0.696s-0.818,0.534-1.208,0.71
			c-0.459,0.225-0.986,0.412-1.582,0.563s-1.294,0.228-2.095,0.228c-1.475,0-2.725-0.488-3.75-1.465s-1.538-2.222-1.538-3.735
			c0-1.24,0.266-2.243,0.798-3.01s1.292-1.37,2.278-1.81c0.996-0.439,2.192-0.737,3.589-0.894s2.896-0.273,4.497-0.352v-0.425
			c0-0.625-0.11-1.143-0.33-1.553s-0.535-0.732-0.945-0.967c-0.391-0.225-0.859-0.376-1.406-0.454s-1.118-0.117-1.714-0.117
			c-0.723,0-1.528,0.096-2.417,0.285c-0.889,0.191-1.807,0.467-2.754,0.828h-0.146v-2.798c0.537-0.146,1.313-0.308,2.329-0.483
			s2.017-0.264,3.003-0.264c1.152,0,2.156,0.096,3.01,0.285c0.854,0.191,1.594,0.516,2.219,0.975
			c0.615,0.449,1.084,1.03,1.406,1.743s0.483,1.597,0.483,2.651V80.488z M367.661,76.459v-4.556c-0.84,0.049-1.829,0.122-2.966,0.22
			s-2.039,0.239-2.703,0.425c-0.791,0.225-1.431,0.574-1.919,1.047c-0.488,0.475-0.732,1.126-0.732,1.956
			c0,0.938,0.283,1.644,0.85,2.116c0.566,0.475,1.431,0.711,2.593,0.711c0.967,0,1.851-0.188,2.651-0.564
			C366.235,77.439,366.978,76.987,367.661,76.459z"/>
		<path fill="#FFFFFF" d="M387.803,79.462c-0.918,0.439-1.79,0.781-2.615,1.025s-1.702,0.366-2.629,0.366
			c-1.182,0-2.266-0.174-3.252-0.521c-0.986-0.346-1.831-0.871-2.534-1.574c-0.713-0.703-1.265-1.592-1.655-2.666
			s-0.586-2.329-0.586-3.765c0-2.676,0.735-4.775,2.205-6.299s3.411-2.285,5.823-2.285c0.938,0,1.858,0.132,2.761,0.396
			s1.731,0.586,2.483,0.967v3.062h-0.146c-0.84-0.654-1.707-1.157-2.6-1.509s-1.765-0.527-2.615-0.527
			c-1.563,0-2.795,0.525-3.699,1.574c-0.903,1.051-1.355,2.591-1.355,4.622c0,1.973,0.442,3.489,1.326,4.548
			c0.884,1.061,2.126,1.59,3.728,1.59c0.557,0,1.123-0.073,1.699-0.22s1.094-0.337,1.553-0.571c0.4-0.205,0.776-0.422,1.128-0.652
			c0.352-0.229,0.63-0.427,0.835-0.593h0.146V79.462z"/>
		<path fill="#FFFFFF" d="M404.897,80.488h-2.754v-1.816c-0.928,0.732-1.816,1.294-2.666,1.685s-1.787,0.586-2.813,0.586
			c-1.719,0-3.057-0.524-4.014-1.575c-0.957-1.049-1.436-2.59-1.436-4.621v-10.62h2.754v9.316c0,0.83,0.039,1.541,0.117,2.132
			s0.244,1.096,0.498,1.516c0.264,0.43,0.605,0.742,1.025,0.938s1.03,0.293,1.831,0.293c0.713,0,1.492-0.186,2.336-0.557
			s1.633-0.845,2.366-1.421V64.125h2.754V80.488z"/>
		<path fill="#FFFFFF" d="M423.882,80.488h-2.754v-1.816c-0.928,0.732-1.816,1.294-2.666,1.685s-1.787,0.586-2.813,0.586
			c-1.719,0-3.057-0.524-4.014-1.575c-0.957-1.049-1.436-2.59-1.436-4.621v-10.62h2.754v9.316c0,0.83,0.039,1.541,0.117,2.132
			s0.244,1.096,0.498,1.516c0.264,0.43,0.605,0.742,1.025,0.938s1.03,0.293,1.831,0.293c0.713,0,1.492-0.186,2.336-0.557
			s1.633-0.845,2.366-1.421V64.125h2.754V80.488z"/>
		<path fill="#FFFFFF" d="M453.179,80.488h-2.754v-9.316c0-0.703-0.032-1.382-0.095-2.036s-0.198-1.177-0.403-1.567
			c-0.225-0.42-0.547-0.737-0.967-0.952s-1.025-0.322-1.816-0.322c-0.771,0-1.543,0.193-2.314,0.579s-1.543,0.876-2.314,1.472
			c0.029,0.225,0.054,0.486,0.073,0.784s0.029,0.593,0.029,0.886v10.474h-2.754v-9.316c0-0.723-0.032-1.408-0.095-2.059
			c-0.063-0.648-0.198-1.169-0.403-1.56c-0.225-0.42-0.547-0.734-0.967-0.944s-1.025-0.315-1.816-0.315
			c-0.752,0-1.506,0.186-2.263,0.557s-1.511,0.845-2.263,1.421v12.217h-2.754V64.125h2.754v1.816c0.859-0.713,1.716-1.27,2.571-1.67
			s1.765-0.601,2.732-0.601c1.113,0,2.058,0.234,2.834,0.703s1.355,1.118,1.736,1.948c1.113-0.938,2.129-1.613,3.047-2.028
			s1.899-0.623,2.944-0.623c1.797,0,3.123,0.545,3.977,1.633c0.854,1.09,1.282,2.61,1.282,4.563V80.488z"/>
		<path fill="#FFFFFF" d="M487.676,69.604c0,1.982-0.432,3.779-1.296,5.391s-2.014,2.861-3.45,3.75
			c-0.996,0.615-2.107,1.06-3.333,1.333s-2.839,0.41-4.841,0.41h-5.508V58.676h5.449c2.129,0,3.821,0.153,5.076,0.462
			c1.255,0.307,2.317,0.729,3.186,1.267c1.484,0.928,2.642,2.163,3.472,3.706S487.676,67.485,487.676,69.604z M484.644,69.56
			c0-1.709-0.298-3.149-0.894-4.321s-1.484-2.095-2.666-2.769c-0.859-0.488-1.772-0.828-2.739-1.018
			c-0.967-0.191-2.124-0.286-3.472-0.286h-2.725v16.831h2.725c1.396,0,2.615-0.103,3.655-0.308s1.995-0.586,2.864-1.143
			c1.084-0.693,1.897-1.606,2.439-2.739S484.644,71.259,484.644,69.56z"/>
		<path fill="#FFFFFF" d="M505.84,72.592h-12.056c0,1.006,0.151,1.882,0.454,2.63c0.303,0.746,0.718,1.359,1.245,1.838
			c0.508,0.469,1.111,0.82,1.809,1.055s1.467,0.352,2.307,0.352c1.113,0,2.234-0.222,3.362-0.666s1.931-0.882,2.41-1.312h0.146
			v3.003c-0.928,0.391-1.875,0.718-2.842,0.981s-1.982,0.396-3.047,0.396c-2.715,0-4.834-0.734-6.357-2.205
			c-1.523-1.469-2.285-3.557-2.285-6.262c0-2.676,0.73-4.8,2.19-6.372s3.381-2.358,5.764-2.358c2.207,0,3.909,0.645,5.105,1.934
			s1.794,3.12,1.794,5.493V72.592z M503.159,70.483c-0.01-1.445-0.374-2.563-1.091-3.354s-1.809-1.187-3.274-1.187
			c-1.475,0-2.649,0.435-3.523,1.304s-1.37,1.948-1.487,3.237H503.159z"/>
		<path fill="#FFFFFF" d="M523.696,80.488h-2.754v-9.316c0-0.752-0.044-1.457-0.132-2.117c-0.088-0.658-0.249-1.174-0.483-1.545
			c-0.244-0.41-0.596-0.715-1.055-0.916c-0.459-0.199-1.055-0.3-1.787-0.3c-0.752,0-1.538,0.186-2.358,0.557
			s-1.606,0.845-2.358,1.421v12.217h-2.754V64.125h2.754v1.816c0.859-0.713,1.748-1.27,2.666-1.67s1.86-0.601,2.827-0.601
			c1.768,0,3.115,0.532,4.043,1.597s1.392,2.598,1.392,4.6V80.488z"/>
		<path fill="#FFFFFF" d="M540.688,75.771c0,1.494-0.618,2.72-1.853,3.677c-1.236,0.957-2.923,1.436-5.062,1.436
			c-1.211,0-2.322-0.145-3.333-0.433c-1.011-0.287-1.858-0.603-2.542-0.944v-3.091h0.146c0.869,0.654,1.836,1.175,2.9,1.561
			s2.085,0.578,3.062,0.578c1.211,0,2.158-0.195,2.842-0.586s1.025-1.006,1.025-1.846c0-0.645-0.186-1.133-0.557-1.465
			s-1.084-0.615-2.139-0.85c-0.391-0.088-0.901-0.19-1.531-0.308s-1.204-0.244-1.721-0.381c-1.436-0.381-2.454-0.939-3.054-1.677
			s-0.901-1.644-0.901-2.718c0-0.674,0.139-1.309,0.417-1.904s0.701-1.128,1.267-1.597c0.547-0.459,1.243-0.822,2.087-1.092
			c0.845-0.268,1.79-0.402,2.834-0.402c0.977,0,1.965,0.12,2.967,0.359c1,0.239,1.833,0.529,2.497,0.871v2.944h-0.146
			c-0.703-0.518-1.558-0.954-2.563-1.312c-1.006-0.355-1.992-0.534-2.959-0.534c-1.006,0-1.855,0.193-2.549,0.579
			s-1.04,0.959-1.04,1.721c0,0.674,0.21,1.182,0.63,1.523c0.41,0.342,1.074,0.62,1.992,0.835c0.508,0.117,1.077,0.234,1.707,0.352
			s1.155,0.225,1.575,0.322c1.279,0.293,2.266,0.796,2.959,1.509C540.342,73.623,540.688,74.58,540.688,75.771z"/>
		<path fill="#FFFFFF" d="M547.588,61.386h-3.105V58.53h3.105V61.386z M547.412,80.488h-2.754V64.125h2.754V80.488z"/>
		<path fill="#FFFFFF" d="M561.357,80.341c-0.518,0.137-1.082,0.249-1.691,0.337c-0.611,0.088-1.155,0.132-1.634,0.132
			c-1.67,0-2.939-0.449-3.809-1.348s-1.304-2.339-1.304-4.321V66.44h-1.86v-2.314h1.86v-4.702h2.754v4.702h5.684v2.314h-5.684v7.456
			c0,0.859,0.02,1.531,0.059,2.014c0.039,0.484,0.176,0.936,0.41,1.355c0.215,0.391,0.51,0.677,0.887,0.857
			c0.375,0.181,0.949,0.271,1.721,0.271c0.449,0,0.918-0.065,1.406-0.198c0.488-0.131,0.84-0.241,1.055-0.329h0.146V80.341z"/>
		<path fill="#FFFFFF" d="M578.687,64.125l-9.551,22.397h-2.944l3.047-6.826l-6.519-15.571h2.988l5.024,12.129l5.068-12.129H578.687
			z"/>
		<path fill="#FFFFFF" d="M606.519,80.488h-2.754v-9.316c0-0.752-0.044-1.457-0.132-2.117c-0.088-0.658-0.249-1.174-0.483-1.545
			c-0.244-0.41-0.596-0.715-1.055-0.916c-0.459-0.199-1.055-0.3-1.787-0.3c-0.752,0-1.538,0.186-2.358,0.557
			s-1.606,0.845-2.358,1.421v12.217h-2.754V64.125h2.754v1.816c0.859-0.713,1.748-1.27,2.666-1.67s1.86-0.601,2.827-0.601
			c1.768,0,3.115,0.532,4.043,1.597s1.392,2.598,1.392,4.6V80.488z"/>
		<path fill="#FFFFFF" d="M625.518,72.592h-12.056c0,1.006,0.151,1.882,0.454,2.63c0.303,0.746,0.718,1.359,1.245,1.838
			c0.508,0.469,1.11,0.82,1.81,1.055c0.697,0.234,1.467,0.352,2.307,0.352c1.113,0,2.234-0.222,3.361-0.666
			c1.129-0.444,1.932-0.882,2.41-1.312h0.146v3.003c-0.928,0.391-1.875,0.718-2.842,0.981s-1.982,0.396-3.047,0.396
			c-2.715,0-4.834-0.734-6.357-2.205c-1.523-1.469-2.285-3.557-2.285-6.262c0-2.676,0.73-4.8,2.189-6.372
			c1.461-1.572,3.382-2.358,5.765-2.358c2.207,0,3.909,0.645,5.104,1.934c1.197,1.289,1.795,3.12,1.795,5.493V72.592z
			 M622.837,70.483c-0.01-1.445-0.374-2.563-1.091-3.354c-0.719-0.791-1.81-1.187-3.274-1.187c-1.475,0-2.649,0.435-3.522,1.304
			c-0.875,0.869-1.37,1.948-1.487,3.237H622.837z"/>
		<path fill="#FFFFFF" d="M641.792,79.462c-0.918,0.439-1.79,0.781-2.614,1.025c-0.826,0.244-1.702,0.366-2.63,0.366
			c-1.182,0-2.266-0.174-3.252-0.521c-0.986-0.346-1.831-0.871-2.534-1.574c-0.713-0.703-1.265-1.592-1.655-2.666
			s-0.586-2.329-0.586-3.765c0-2.676,0.735-4.775,2.204-6.299c1.471-1.523,3.411-2.285,5.823-2.285c0.938,0,1.858,0.132,2.761,0.396
			c0.904,0.264,1.731,0.586,2.483,0.967v3.062h-0.146c-0.84-0.654-1.706-1.157-2.601-1.509c-0.893-0.352-1.765-0.527-2.614-0.527
			c-1.563,0-2.796,0.525-3.698,1.574c-0.904,1.051-1.355,2.591-1.355,4.622c0,1.973,0.441,3.489,1.326,4.548
			c0.883,1.061,2.126,1.59,3.728,1.59c0.557,0,1.123-0.073,1.699-0.22s1.094-0.337,1.553-0.571c0.4-0.205,0.776-0.422,1.128-0.652
			c0.352-0.229,0.63-0.427,0.835-0.593h0.146V79.462z"/>
		<path fill="#FFFFFF" d="M659.019,72.592h-12.056c0,1.006,0.151,1.882,0.454,2.63c0.303,0.746,0.718,1.359,1.245,1.838
			c0.508,0.469,1.111,0.82,1.809,1.055c0.699,0.234,1.468,0.352,2.308,0.352c1.113,0,2.233-0.222,3.362-0.666
			c1.127-0.444,1.931-0.882,2.409-1.312h0.146v3.003c-0.928,0.391-1.875,0.718-2.842,0.981s-1.982,0.396-3.047,0.396
			c-2.715,0-4.834-0.734-6.357-2.205c-1.523-1.469-2.285-3.557-2.285-6.262c0-2.676,0.729-4.8,2.19-6.372
			c1.459-1.572,3.381-2.358,5.764-2.358c2.207,0,3.908,0.645,5.105,1.934c1.195,1.289,1.794,3.12,1.794,5.493V72.592z
			 M656.338,70.483c-0.01-1.445-0.373-2.563-1.092-3.354c-0.717-0.791-1.809-1.187-3.273-1.187c-1.475,0-2.648,0.435-3.523,1.304
			c-0.873,0.869-1.369,1.948-1.486,3.237H656.338z"/>
		<path fill="#FFFFFF" d="M674.883,75.771c0,1.494-0.617,2.72-1.854,3.677c-1.234,0.957-2.922,1.436-5.061,1.436
			c-1.211,0-2.322-0.145-3.332-0.433c-1.012-0.287-1.858-0.603-2.542-0.944v-3.091h0.146c0.869,0.654,1.836,1.175,2.9,1.561
			s2.085,0.578,3.062,0.578c1.211,0,2.158-0.195,2.842-0.586s1.025-1.006,1.025-1.846c0-0.645-0.186-1.133-0.557-1.465
			s-1.084-0.615-2.139-0.85c-0.391-0.088-0.9-0.19-1.531-0.308c-0.629-0.117-1.203-0.244-1.721-0.381
			c-1.436-0.381-2.453-0.939-3.055-1.677c-0.6-0.737-0.9-1.644-0.9-2.718c0-0.674,0.139-1.309,0.418-1.904
			c0.277-0.596,0.7-1.128,1.267-1.597c0.547-0.459,1.243-0.822,2.087-1.092c0.846-0.268,1.79-0.402,2.835-0.402
			c0.977,0,1.966,0.12,2.966,0.359c1.002,0.239,1.834,0.529,2.498,0.871v2.944h-0.146c-0.703-0.518-1.558-0.954-2.563-1.312
			c-1.006-0.355-1.992-0.534-2.959-0.534c-1.006,0-1.855,0.193-2.549,0.579s-1.04,0.959-1.04,1.721c0,0.674,0.21,1.182,0.63,1.523
			c0.41,0.342,1.074,0.62,1.992,0.835c0.508,0.117,1.077,0.234,1.706,0.352c0.631,0.117,1.155,0.225,1.575,0.322
			c1.279,0.293,2.266,0.796,2.959,1.509C674.536,73.623,674.883,74.58,674.883,75.771z"/>
		<path fill="#FFFFFF" d="M690.513,75.771c0,1.494-0.618,2.72-1.853,3.677c-1.236,0.957-2.923,1.436-5.062,1.436
			c-1.211,0-2.321-0.145-3.333-0.433c-1.01-0.287-1.857-0.603-2.541-0.944v-3.091h0.146c0.869,0.654,1.836,1.175,2.9,1.561
			s2.085,0.578,3.062,0.578c1.211,0,2.158-0.195,2.842-0.586s1.025-1.006,1.025-1.846c0-0.645-0.186-1.133-0.557-1.465
			s-1.084-0.615-2.139-0.85c-0.391-0.088-0.901-0.19-1.53-0.308c-0.631-0.117-1.204-0.244-1.722-0.381
			c-1.436-0.381-2.454-0.939-3.054-1.677c-0.602-0.737-0.901-1.644-0.901-2.718c0-0.674,0.14-1.309,0.417-1.904
			c0.279-0.596,0.701-1.128,1.268-1.597c0.547-0.459,1.242-0.822,2.088-1.092c0.844-0.268,1.789-0.402,2.834-0.402
			c0.977,0,1.965,0.12,2.967,0.359c1,0.239,1.833,0.529,2.497,0.871v2.944h-0.146c-0.703-0.518-1.558-0.954-2.563-1.312
			c-1.006-0.355-1.992-0.534-2.959-0.534c-1.006,0-1.855,0.193-2.549,0.579s-1.04,0.959-1.04,1.721c0,0.674,0.21,1.182,0.63,1.523
			c0.41,0.342,1.074,0.62,1.992,0.835c0.508,0.117,1.076,0.234,1.707,0.352c0.629,0.117,1.154,0.225,1.574,0.322
			c1.279,0.293,2.266,0.796,2.959,1.509C690.166,73.623,690.513,74.58,690.513,75.771z"/>
		<path fill="#FFFFFF" d="M707.168,80.488h-2.739v-1.743c-0.244,0.166-0.573,0.398-0.989,0.696c-0.414,0.298-0.817,0.534-1.208,0.71
			c-0.459,0.225-0.986,0.412-1.582,0.563s-1.294,0.228-2.095,0.228c-1.475,0-2.725-0.488-3.75-1.465s-1.538-2.222-1.538-3.735
			c0-1.24,0.267-2.243,0.798-3.01c0.533-0.767,1.292-1.37,2.278-1.81c0.996-0.439,2.192-0.737,3.589-0.894s2.896-0.273,4.497-0.352
			v-0.425c0-0.625-0.11-1.143-0.329-1.553c-0.221-0.41-0.535-0.732-0.945-0.967c-0.391-0.225-0.859-0.376-1.406-0.454
			s-1.118-0.117-1.714-0.117c-0.723,0-1.528,0.096-2.417,0.285c-0.889,0.191-1.807,0.467-2.754,0.828h-0.146v-2.798
			c0.537-0.146,1.313-0.308,2.329-0.483s2.017-0.264,3.003-0.264c1.152,0,2.156,0.096,3.01,0.285
			c0.855,0.191,1.595,0.516,2.22,0.975c0.615,0.449,1.084,1.03,1.406,1.743s0.483,1.597,0.483,2.651V80.488z M704.429,76.459v-4.556
			c-0.84,0.049-1.829,0.122-2.966,0.22c-1.139,0.098-2.039,0.239-2.703,0.425c-0.791,0.225-1.431,0.574-1.919,1.047
			c-0.488,0.475-0.732,1.126-0.732,1.956c0,0.938,0.283,1.644,0.85,2.116c0.566,0.475,1.431,0.711,2.593,0.711
			c0.967,0,1.851-0.188,2.651-0.564C703.003,77.439,703.745,76.987,704.429,76.459z"/>
		<path fill="#FFFFFF" d="M722.681,67.128h-0.146c-0.41-0.098-0.808-0.168-1.194-0.213c-0.385-0.043-0.842-0.065-1.369-0.065
			c-0.85,0-1.67,0.188-2.461,0.563c-0.791,0.377-1.553,0.862-2.285,1.458v11.616h-2.754V64.125h2.754v2.417
			c1.094-0.879,2.059-1.502,2.893-1.867c0.836-0.367,1.688-0.55,2.557-0.55c0.479,0,0.825,0.013,1.04,0.036
			c0.215,0.025,0.537,0.071,0.967,0.14V67.128z"/>
		<path fill="#FFFFFF" d="M739.424,64.125l-9.551,22.397h-2.944l3.047-6.826l-6.519-15.571h2.988l5.024,12.129l5.068-12.129H739.424
			z"/>
		<path fill="#FFFFFF" d="M762.07,80.341c-0.518,0.137-1.082,0.249-1.691,0.337c-0.611,0.088-1.155,0.132-1.634,0.132
			c-1.67,0-2.939-0.449-3.809-1.348s-1.304-2.339-1.304-4.321V66.44h-1.86v-2.314h1.86v-4.702h2.754v4.702h5.684v2.314h-5.684v7.456
			c0,0.859,0.02,1.531,0.059,2.014c0.039,0.484,0.176,0.936,0.41,1.355c0.215,0.391,0.51,0.677,0.887,0.857
			c0.375,0.181,0.949,0.271,1.721,0.271c0.449,0,0.918-0.065,1.406-0.198c0.488-0.131,0.84-0.241,1.055-0.329h0.146V80.341z"/>
		<path fill="#FFFFFF" d="M779.341,72.314c0,2.666-0.684,4.771-2.051,6.313s-3.198,2.314-5.493,2.314
			c-2.314,0-4.152-0.771-5.516-2.314c-1.361-1.543-2.043-3.647-2.043-6.313s0.682-4.772,2.043-6.32
			c1.363-1.548,3.201-2.322,5.516-2.322c2.295,0,4.126,0.774,5.493,2.322S779.341,69.648,779.341,72.314z M776.499,72.314
			c0-2.119-0.415-3.693-1.245-4.725c-0.83-1.029-1.982-1.545-3.457-1.545c-1.494,0-2.654,0.516-3.479,1.545
			c-0.826,1.031-1.238,2.605-1.238,4.725c0,2.051,0.415,3.606,1.245,4.666s1.987,1.589,3.472,1.589c1.465,0,2.615-0.524,3.449-1.575
			C776.082,75.945,776.499,74.384,776.499,72.314z"/>
		<path fill="#FFFFFF" d="M808.55,72.109c0,1.328-0.19,2.541-0.571,3.641c-0.381,1.098-0.918,2.028-1.611,2.79
			c-0.645,0.723-1.404,1.282-2.277,1.677c-0.875,0.396-1.8,0.594-2.776,0.594c-0.85,0-1.618-0.093-2.308-0.278
			c-0.688-0.186-1.389-0.474-2.102-0.864v6.855h-2.754V64.125h2.754v1.714c0.732-0.615,1.555-1.13,2.469-1.545
			c0.912-0.415,1.887-0.623,2.922-0.623c1.973,0,3.508,0.745,4.607,2.234C808,67.395,808.55,69.462,808.55,72.109z M805.708,72.182
			c0-1.973-0.337-3.447-1.011-4.424s-1.709-1.465-3.105-1.465c-0.791,0-1.587,0.171-2.388,0.513s-1.567,0.791-2.3,1.348v9.272
			c0.781,0.352,1.453,0.591,2.014,0.718c0.563,0.127,1.199,0.19,1.912,0.19c1.533,0,2.729-0.518,3.589-1.553
			S805.708,74.213,805.708,72.182z"/>
		<path fill="#FFFFFF" d="M823.052,67.128h-0.146c-0.41-0.098-0.808-0.168-1.194-0.213c-0.385-0.043-0.842-0.065-1.369-0.065
			c-0.85,0-1.67,0.188-2.461,0.563c-0.791,0.377-1.553,0.862-2.285,1.458v11.616h-2.754V64.125h2.754v2.417
			c1.094-0.879,2.059-1.502,2.893-1.867c0.836-0.367,1.688-0.55,2.557-0.55c0.479,0,0.825,0.013,1.04,0.036
			c0.215,0.025,0.537,0.071,0.967,0.14V67.128z"/>
		<path fill="#FFFFFF" d="M839.59,72.314c0,2.666-0.684,4.771-2.051,6.313s-3.198,2.314-5.493,2.314
			c-2.314,0-4.153-0.771-5.515-2.314c-1.363-1.543-2.044-3.647-2.044-6.313s0.681-4.772,2.044-6.32
			c1.361-1.548,3.2-2.322,5.515-2.322c2.295,0,4.126,0.774,5.493,2.322S839.59,69.648,839.59,72.314z M836.748,72.314
			c0-2.119-0.415-3.693-1.245-4.725c-0.83-1.029-1.982-1.545-3.457-1.545c-1.494,0-2.653,0.516-3.479,1.545
			c-0.824,1.031-1.237,2.605-1.237,4.725c0,2.051,0.415,3.606,1.245,4.666s1.987,1.589,3.472,1.589c1.465,0,2.614-0.524,3.45-1.575
			C836.33,75.945,836.748,74.384,836.748,72.314z"/>
		<path fill="#FFFFFF" d="M857.124,80.488h-2.754v-1.714c-0.791,0.684-1.616,1.216-2.476,1.597s-1.792,0.571-2.798,0.571
			c-1.953,0-3.503-0.752-4.651-2.256c-1.146-1.504-1.721-3.589-1.721-6.255c0-1.387,0.197-2.622,0.594-3.706
			c0.395-1.084,0.93-2.007,1.604-2.769c0.664-0.742,1.438-1.309,2.322-1.699c0.883-0.391,1.799-0.586,2.746-0.586
			c0.859,0,1.621,0.091,2.285,0.271s1.362,0.461,2.095,0.842v-7.09h2.754V80.488z M854.37,76.459v-9.39
			c-0.742-0.332-1.406-0.562-1.992-0.688s-1.226-0.19-1.919-0.19c-1.543,0-2.744,0.537-3.604,1.611s-1.289,2.598-1.289,4.57
			c0,1.943,0.332,3.42,0.996,4.432c0.664,1.01,1.729,1.516,3.193,1.516c0.781,0,1.572-0.173,2.373-0.52
			S853.677,77.006,854.37,76.459z"/>
		<path fill="#FFFFFF" d="M876.108,80.488h-2.754v-1.816c-0.928,0.732-1.816,1.294-2.666,1.685s-1.787,0.586-2.813,0.586
			c-1.719,0-3.057-0.524-4.014-1.575c-0.957-1.049-1.436-2.59-1.436-4.621v-10.62h2.754v9.316c0,0.83,0.039,1.541,0.117,2.132
			s0.244,1.096,0.498,1.516c0.264,0.43,0.605,0.742,1.025,0.938s1.03,0.293,1.831,0.293c0.713,0,1.492-0.186,2.336-0.557
			c0.846-0.371,1.634-0.845,2.366-1.421V64.125h2.754V80.488z"/>
		<path fill="#FFFFFF" d="M893.628,79.462c-0.918,0.439-1.79,0.781-2.614,1.025c-0.826,0.244-1.702,0.366-2.63,0.366
			c-1.182,0-2.266-0.174-3.252-0.521c-0.986-0.346-1.831-0.871-2.534-1.574c-0.713-0.703-1.265-1.592-1.655-2.666
			s-0.586-2.329-0.586-3.765c0-2.676,0.735-4.775,2.204-6.299c1.471-1.523,3.411-2.285,5.823-2.285c0.938,0,1.858,0.132,2.761,0.396
			c0.904,0.264,1.731,0.586,2.483,0.967v3.062h-0.146c-0.84-0.654-1.706-1.157-2.601-1.509c-0.893-0.352-1.765-0.527-2.614-0.527
			c-1.563,0-2.796,0.525-3.698,1.574c-0.904,1.051-1.355,2.591-1.355,4.622c0,1.973,0.441,3.489,1.326,4.548
			c0.883,1.061,2.126,1.59,3.728,1.59c0.557,0,1.123-0.073,1.699-0.22s1.094-0.337,1.553-0.571c0.4-0.205,0.776-0.422,1.128-0.652
			c0.352-0.229,0.63-0.427,0.835-0.593h0.146V79.462z"/>
		<path fill="#FFFFFF" d="M910.854,72.592h-12.056c0,1.006,0.151,1.882,0.454,2.63c0.303,0.746,0.718,1.359,1.245,1.838
			c0.508,0.469,1.111,0.82,1.809,1.055c0.699,0.234,1.468,0.352,2.308,0.352c1.113,0,2.233-0.222,3.362-0.666
			c1.127-0.444,1.931-0.882,2.409-1.312h0.146v3.003c-0.928,0.391-1.875,0.718-2.842,0.981s-1.982,0.396-3.047,0.396
			c-2.715,0-4.834-0.734-6.357-2.205c-1.523-1.469-2.285-3.557-2.285-6.262c0-2.676,0.729-4.8,2.19-6.372
			c1.459-1.572,3.381-2.358,5.764-2.358c2.207,0,3.908,0.645,5.105,1.934c1.195,1.289,1.794,3.12,1.794,5.493V72.592z
			 M908.174,70.483c-0.01-1.445-0.373-2.563-1.092-3.354c-0.717-0.791-1.809-1.187-3.273-1.187c-1.475,0-2.648,0.435-3.523,1.304
			c-0.873,0.869-1.369,1.948-1.486,3.237H908.174z"/>
		<path fill="#FFFFFF" d="M116.206,123.341c-0.518,0.137-1.082,0.249-1.692,0.337s-1.155,0.132-1.633,0.132
			c-1.67,0-2.939-0.449-3.809-1.348s-1.304-2.339-1.304-4.321v-8.701h-1.86v-2.314h1.86v-4.702h2.754v4.702h5.684v2.314h-5.684
			v7.456c0,0.859,0.02,1.531,0.059,2.014c0.039,0.484,0.176,0.936,0.41,1.355c0.215,0.391,0.51,0.677,0.886,0.857
			s0.95,0.271,1.721,0.271c0.449,0,0.918-0.065,1.406-0.198c0.488-0.131,0.84-0.241,1.055-0.329h0.146V123.341z"/>
		<path fill="#FFFFFF" d="M133.213,123.488h-2.754v-9.316c0-0.752-0.044-1.457-0.132-2.117c-0.088-0.658-0.249-1.174-0.483-1.545
			c-0.244-0.41-0.596-0.715-1.055-0.916c-0.459-0.199-1.055-0.3-1.787-0.3c-0.752,0-1.538,0.186-2.358,0.557
			s-1.606,0.845-2.358,1.421v12.217h-2.754v-22.793h2.754v8.247c0.859-0.713,1.748-1.27,2.666-1.67s1.86-0.601,2.827-0.601
			c1.768,0,3.115,0.532,4.043,1.597s1.392,2.598,1.392,4.6V123.488z"/>
		<path fill="#FFFFFF" d="M152.212,115.592h-12.056c0,1.006,0.151,1.882,0.454,2.63c0.303,0.746,0.718,1.359,1.245,1.838
			c0.508,0.469,1.111,0.82,1.809,1.055s1.467,0.352,2.307,0.352c1.113,0,2.234-0.222,3.362-0.666s1.931-0.882,2.41-1.312h0.146
			v3.003c-0.928,0.391-1.875,0.718-2.842,0.981s-1.982,0.396-3.047,0.396c-2.715,0-4.834-0.734-6.357-2.205
			c-1.523-1.469-2.285-3.557-2.285-6.262c0-2.676,0.73-4.8,2.19-6.372s3.381-2.358,5.764-2.358c2.207,0,3.909,0.645,5.105,1.934
			s1.794,3.12,1.794,5.493V115.592z M149.531,113.483c-0.01-1.445-0.374-2.563-1.091-3.354s-1.809-1.187-3.274-1.187
			c-1.475,0-2.649,0.435-3.523,1.304s-1.37,1.948-1.487,3.237H149.531z"/>
		<path fill="#FFFFFF" d="M183.003,117.262c0,0.85-0.198,1.689-0.593,2.52s-0.95,1.533-1.663,2.109
			c-0.781,0.625-1.692,1.113-2.732,1.465s-2.292,0.527-3.757,0.527c-1.572,0-2.986-0.146-4.241-0.439s-2.532-0.728-3.831-1.304
			v-3.633h0.205c1.104,0.918,2.378,1.626,3.823,2.124s2.803,0.747,4.072,0.747c1.797,0,3.196-0.337,4.197-1.011
			s1.501-1.572,1.501-2.695c0-0.967-0.237-1.68-0.71-2.139s-1.194-0.815-2.161-1.069c-0.732-0.195-1.526-0.356-2.38-0.483
			s-1.76-0.288-2.717-0.483c-1.934-0.41-3.367-1.11-4.299-2.102s-1.399-2.283-1.399-3.875c0-1.826,0.771-3.322,2.314-4.49
			c1.543-1.166,3.501-1.75,5.874-1.75c1.533,0,2.939,0.146,4.219,0.439s2.412,0.654,3.398,1.084v3.428h-0.205
			c-0.83-0.703-1.921-1.286-3.274-1.75s-2.737-0.696-4.153-0.696c-1.553,0-2.8,0.322-3.743,0.967s-1.414,1.475-1.414,2.49
			c0,0.908,0.234,1.621,0.703,2.139s1.294,0.913,2.476,1.187c0.625,0.137,1.514,0.303,2.666,0.498s2.129,0.396,2.93,0.601
			c1.621,0.43,2.842,1.079,3.662,1.948S183.003,115.7,183.003,117.262z"/>
		<path fill="#FFFFFF" d="M199.541,122.462c-0.918,0.439-1.79,0.781-2.615,1.025s-1.702,0.366-2.629,0.366
			c-1.182,0-2.266-0.174-3.252-0.521c-0.986-0.346-1.831-0.871-2.534-1.574c-0.713-0.703-1.265-1.592-1.655-2.666
			s-0.586-2.329-0.586-3.765c0-2.676,0.735-4.775,2.205-6.299s3.411-2.285,5.823-2.285c0.938,0,1.858,0.132,2.761,0.396
			s1.731,0.586,2.483,0.967v3.062h-0.146c-0.84-0.654-1.707-1.157-2.6-1.509s-1.765-0.527-2.615-0.527
			c-1.563,0-2.795,0.525-3.699,1.574c-0.903,1.051-1.355,2.591-1.355,4.622c0,1.973,0.442,3.489,1.326,4.548
			c0.884,1.061,2.126,1.59,3.728,1.59c0.557,0,1.123-0.073,1.699-0.22s1.094-0.337,1.553-0.571c0.4-0.205,0.776-0.422,1.128-0.652
			c0.352-0.229,0.63-0.427,0.835-0.593h0.146V122.462z"/>
		<path fill="#FFFFFF" d="M216.753,123.488h-2.754v-9.316c0-0.752-0.044-1.457-0.132-2.117c-0.088-0.658-0.249-1.174-0.483-1.545
			c-0.244-0.41-0.596-0.715-1.055-0.916c-0.459-0.199-1.055-0.3-1.787-0.3c-0.752,0-1.538,0.186-2.358,0.557
			s-1.606,0.845-2.358,1.421v12.217h-2.754v-22.793h2.754v8.247c0.859-0.713,1.748-1.27,2.666-1.67s1.86-0.601,2.827-0.601
			c1.768,0,3.115,0.532,4.043,1.597s1.392,2.598,1.392,4.6V123.488z"/>
		<path fill="#FFFFFF" d="M242.49,107.125l-4.263,16.362h-2.549l-4.204-12.612l-4.175,12.612h-2.534l-4.307-16.362h2.871
			l3.003,12.671l4.087-12.671h2.271l4.189,12.671l2.842-12.671H242.49z"/>
		<path fill="#FFFFFF" d="M258.882,123.488h-2.739v-1.743c-0.244,0.166-0.574,0.398-0.989,0.696s-0.818,0.534-1.208,0.71
			c-0.459,0.225-0.986,0.412-1.582,0.563s-1.294,0.228-2.095,0.228c-1.475,0-2.725-0.488-3.75-1.465s-1.538-2.222-1.538-3.735
			c0-1.24,0.266-2.243,0.798-3.01s1.292-1.37,2.278-1.81c0.996-0.439,2.192-0.737,3.589-0.894s2.896-0.273,4.497-0.352v-0.425
			c0-0.625-0.11-1.143-0.33-1.553s-0.535-0.732-0.945-0.967c-0.391-0.225-0.859-0.376-1.406-0.454s-1.118-0.117-1.714-0.117
			c-0.723,0-1.528,0.096-2.417,0.285c-0.889,0.191-1.807,0.467-2.754,0.828h-0.146v-2.798c0.537-0.146,1.313-0.308,2.329-0.483
			s2.017-0.264,3.003-0.264c1.152,0,2.156,0.096,3.01,0.285c0.854,0.191,1.594,0.516,2.219,0.975
			c0.615,0.449,1.084,1.03,1.406,1.743s0.483,1.597,0.483,2.651V123.488z M256.143,119.459v-4.556
			c-0.84,0.049-1.829,0.122-2.966,0.22s-2.039,0.239-2.703,0.425c-0.791,0.225-1.431,0.574-1.919,1.047
			c-0.488,0.475-0.732,1.126-0.732,1.956c0,0.938,0.283,1.644,0.85,2.116c0.566,0.475,1.431,0.711,2.593,0.711
			c0.967,0,1.851-0.188,2.651-0.564C254.717,120.439,255.459,119.987,256.143,119.459z"/>
		<path fill="#FFFFFF" d="M274.395,110.128h-0.146c-0.41-0.098-0.808-0.168-1.194-0.213c-0.386-0.043-0.842-0.065-1.37-0.065
			c-0.85,0-1.67,0.188-2.461,0.563c-0.791,0.377-1.553,0.862-2.285,1.458v11.616h-2.754v-16.362h2.754v2.417
			c1.094-0.879,2.058-1.502,2.893-1.867c0.835-0.367,1.687-0.55,2.556-0.55c0.479,0,0.825,0.013,1.04,0.036
			c0.215,0.025,0.537,0.071,0.967,0.14V110.128z"/>
		<path fill="#FFFFFF" d="M288.853,123.488H275.64v-2.036l9.536-12.026h-9.331v-2.3h12.759v1.963l-9.58,12.07h9.829V123.488z"/>
		<path fill="#FFFFFF" d="M304.702,122.462c-0.918,0.439-1.79,0.781-2.615,1.025s-1.702,0.366-2.629,0.366
			c-1.182,0-2.266-0.174-3.252-0.521c-0.986-0.346-1.831-0.871-2.534-1.574c-0.713-0.703-1.265-1.592-1.655-2.666
			s-0.586-2.329-0.586-3.765c0-2.676,0.735-4.775,2.205-6.299s3.411-2.285,5.823-2.285c0.938,0,1.858,0.132,2.761,0.396
			s1.731,0.586,2.483,0.967v3.062h-0.146c-0.84-0.654-1.707-1.157-2.6-1.509s-1.765-0.527-2.615-0.527
			c-1.563,0-2.795,0.525-3.699,1.574c-0.903,1.051-1.355,2.591-1.355,4.622c0,1.973,0.442,3.489,1.326,4.548
			c0.884,1.061,2.126,1.59,3.728,1.59c0.557,0,1.123-0.073,1.699-0.22s1.094-0.337,1.553-0.571c0.4-0.205,0.776-0.422,1.128-0.652
			c0.352-0.229,0.63-0.427,0.835-0.593h0.146V122.462z"/>
		<path fill="#FFFFFF" d="M321.914,123.488h-2.754v-9.316c0-0.752-0.044-1.457-0.132-2.117c-0.088-0.658-0.249-1.174-0.483-1.545
			c-0.244-0.41-0.596-0.715-1.055-0.916c-0.459-0.199-1.055-0.3-1.787-0.3c-0.752,0-1.538,0.186-2.358,0.557
			s-1.606,0.845-2.358,1.421v12.217h-2.754v-22.793h2.754v8.247c0.859-0.713,1.748-1.27,2.666-1.67s1.86-0.601,2.827-0.601
			c1.768,0,3.115,0.532,4.043,1.597s1.392,2.598,1.392,4.6V123.488z"/>
		<path fill="#FFFFFF" d="M330.176,104.386h-3.105v-2.856h3.105V104.386z M330,123.488h-2.754v-16.362H330V123.488z"/>
		<path fill="#FFFFFF" d="M338.232,123.488h-2.754v-22.793h2.754V123.488z"/>
		<path fill="#FFFFFF" d="M356.953,123.488h-2.754v-1.714c-0.791,0.684-1.616,1.216-2.476,1.597s-1.792,0.571-2.798,0.571
			c-1.953,0-3.503-0.752-4.651-2.256s-1.721-3.589-1.721-6.255c0-1.387,0.198-2.622,0.593-3.706s0.93-2.007,1.604-2.769
			c0.664-0.742,1.438-1.309,2.322-1.699s1.799-0.586,2.747-0.586c0.859,0,1.621,0.091,2.285,0.271s1.362,0.461,2.095,0.842v-7.09
			h2.754V123.488z M354.199,119.459v-9.39c-0.742-0.332-1.406-0.562-1.992-0.688s-1.226-0.19-1.919-0.19
			c-1.543,0-2.744,0.537-3.604,1.611s-1.289,2.598-1.289,4.57c0,1.943,0.332,3.42,0.996,4.432c0.664,1.01,1.729,1.516,3.193,1.516
			c0.781,0,1.572-0.173,2.373-0.52S353.506,120.006,354.199,119.459z"/>
		<path fill="#FFFFFF" d="M385.02,122.462c-0.918,0.439-1.79,0.781-2.615,1.025s-1.702,0.366-2.629,0.366
			c-1.182,0-2.266-0.174-3.252-0.521c-0.986-0.346-1.831-0.871-2.534-1.574c-0.713-0.703-1.265-1.592-1.655-2.666
			s-0.586-2.329-0.586-3.765c0-2.676,0.735-4.775,2.205-6.299s3.411-2.285,5.823-2.285c0.938,0,1.858,0.132,2.761,0.396
			s1.731,0.586,2.483,0.967v3.062h-0.146c-0.84-0.654-1.707-1.157-2.6-1.509s-1.765-0.527-2.615-0.527
			c-1.563,0-2.795,0.525-3.699,1.574c-0.903,1.051-1.355,2.591-1.355,4.622c0,1.973,0.442,3.489,1.326,4.548
			c0.884,1.061,2.126,1.59,3.728,1.59c0.557,0,1.123-0.073,1.699-0.22s1.094-0.337,1.553-0.571c0.4-0.205,0.776-0.422,1.128-0.652
			c0.352-0.229,0.63-0.427,0.835-0.593h0.146V122.462z"/>
		<path fill="#FFFFFF" d="M402.495,115.314c0,2.666-0.684,4.771-2.051,6.313s-3.198,2.314-5.493,2.314
			c-2.314,0-4.153-0.771-5.515-2.314s-2.043-3.647-2.043-6.313s0.681-4.772,2.043-6.32s3.201-2.322,5.515-2.322
			c2.295,0,4.126,0.774,5.493,2.322S402.495,112.648,402.495,115.314z M399.653,115.314c0-2.119-0.415-3.693-1.245-4.725
			c-0.83-1.029-1.982-1.545-3.457-1.545c-1.494,0-2.654,0.516-3.479,1.545c-0.825,1.031-1.238,2.605-1.238,4.725
			c0,2.051,0.415,3.606,1.245,4.666s1.987,1.589,3.472,1.589c1.465,0,2.615-0.524,3.45-1.575
			C399.236,118.945,399.653,117.384,399.653,115.314z"/>
		<path fill="#FFFFFF" d="M420.439,123.488h-2.754v-9.316c0-0.752-0.044-1.457-0.132-2.117c-0.088-0.658-0.249-1.174-0.483-1.545
			c-0.244-0.41-0.596-0.715-1.055-0.916c-0.459-0.199-1.055-0.3-1.787-0.3c-0.752,0-1.538,0.186-2.358,0.557
			s-1.606,0.845-2.358,1.421v12.217h-2.754v-16.362h2.754v1.816c0.859-0.713,1.748-1.27,2.666-1.67s1.86-0.601,2.827-0.601
			c1.768,0,3.115,0.532,4.043,1.597s1.392,2.598,1.392,4.6V123.488z"/>
		<path fill="#FFFFFF" d="M439.014,123.488h-2.754v-1.714c-0.791,0.684-1.616,1.216-2.476,1.597s-1.792,0.571-2.798,0.571
			c-1.953,0-3.503-0.752-4.651-2.256s-1.721-3.589-1.721-6.255c0-1.387,0.198-2.622,0.593-3.706s0.93-2.007,1.604-2.769
			c0.664-0.742,1.438-1.309,2.322-1.699s1.799-0.586,2.747-0.586c0.859,0,1.621,0.091,2.285,0.271s1.362,0.461,2.095,0.842v-7.09
			h2.754V123.488z M436.26,119.459v-9.39c-0.742-0.332-1.406-0.562-1.992-0.688s-1.226-0.19-1.919-0.19
			c-1.543,0-2.744,0.537-3.604,1.611s-1.289,2.598-1.289,4.57c0,1.943,0.332,3.42,0.996,4.432c0.664,1.01,1.729,1.516,3.193,1.516
			c0.781,0,1.572-0.173,2.373-0.52S435.566,120.006,436.26,119.459z"/>
		<path fill="#FFFFFF" d="M447.393,104.386h-3.105v-2.856h3.105V104.386z M447.217,123.488h-2.754v-16.362h2.754V123.488z"/>
		<path fill="#FFFFFF" d="M461.162,123.341c-0.518,0.137-1.082,0.249-1.692,0.337s-1.155,0.132-1.633,0.132
			c-1.67,0-2.939-0.449-3.809-1.348s-1.304-2.339-1.304-4.321v-8.701h-1.86v-2.314h1.86v-4.702h2.754v4.702h5.684v2.314h-5.684
			v7.456c0,0.859,0.02,1.531,0.059,2.014c0.039,0.484,0.176,0.936,0.41,1.355c0.215,0.391,0.51,0.677,0.886,0.857
			s0.95,0.271,1.721,0.271c0.449,0,0.918-0.065,1.406-0.198c0.488-0.131,0.84-0.241,1.055-0.329h0.146V123.341z"/>
		<path fill="#FFFFFF" d="M467.446,104.386h-3.105v-2.856h3.105V104.386z M467.271,123.488h-2.754v-16.362h2.754V123.488z"/>
		<path fill="#FFFFFF" d="M486.665,115.314c0,2.666-0.684,4.771-2.051,6.313s-3.198,2.314-5.493,2.314
			c-2.314,0-4.153-0.771-5.515-2.314s-2.043-3.647-2.043-6.313s0.681-4.772,2.043-6.32s3.201-2.322,5.515-2.322
			c2.295,0,4.126,0.774,5.493,2.322S486.665,112.648,486.665,115.314z M483.823,115.314c0-2.119-0.415-3.693-1.245-4.725
			c-0.83-1.029-1.982-1.545-3.457-1.545c-1.494,0-2.654,0.516-3.479,1.545c-0.825,1.031-1.238,2.605-1.238,4.725
			c0,2.051,0.415,3.606,1.245,4.666s1.987,1.589,3.472,1.589c1.465,0,2.615-0.524,3.45-1.575
			C483.406,118.945,483.823,117.384,483.823,115.314z"/>
		<path fill="#FFFFFF" d="M504.609,123.488h-2.754v-9.316c0-0.752-0.044-1.457-0.132-2.117c-0.088-0.658-0.249-1.174-0.483-1.545
			c-0.244-0.41-0.596-0.715-1.055-0.916c-0.459-0.199-1.055-0.3-1.787-0.3c-0.752,0-1.538,0.186-2.358,0.557
			s-1.606,0.845-2.358,1.421v12.217h-2.754v-16.362h2.754v1.816c0.859-0.713,1.748-1.27,2.666-1.67s1.86-0.601,2.827-0.601
			c1.768,0,3.115,0.532,4.043,1.597s1.392,2.598,1.392,4.6V123.488z"/>
		<path fill="#FFFFFF" d="M533.174,123.488h-2.739v-1.743c-0.244,0.166-0.574,0.398-0.989,0.696s-0.818,0.534-1.208,0.71
			c-0.459,0.225-0.986,0.412-1.582,0.563s-1.294,0.228-2.095,0.228c-1.475,0-2.725-0.488-3.75-1.465s-1.538-2.222-1.538-3.735
			c0-1.24,0.266-2.243,0.798-3.01s1.292-1.37,2.278-1.81c0.996-0.439,2.192-0.737,3.589-0.894s2.896-0.273,4.497-0.352v-0.425
			c0-0.625-0.11-1.143-0.33-1.553s-0.535-0.732-0.945-0.967c-0.391-0.225-0.859-0.376-1.406-0.454s-1.118-0.117-1.714-0.117
			c-0.723,0-1.528,0.096-2.417,0.285c-0.889,0.191-1.807,0.467-2.754,0.828h-0.146v-2.798c0.537-0.146,1.313-0.308,2.329-0.483
			s2.017-0.264,3.003-0.264c1.152,0,2.156,0.096,3.01,0.285c0.854,0.191,1.594,0.516,2.219,0.975
			c0.615,0.449,1.084,1.03,1.406,1.743s0.483,1.597,0.483,2.651V123.488z M530.435,119.459v-4.556
			c-0.84,0.049-1.829,0.122-2.966,0.22s-2.039,0.239-2.703,0.425c-0.791,0.225-1.431,0.574-1.919,1.047
			c-0.488,0.475-0.732,1.126-0.732,1.956c0,0.938,0.283,1.644,0.85,2.116c0.566,0.475,1.431,0.711,2.593,0.711
			c0.967,0,1.851-0.188,2.651-0.564C529.009,120.439,529.751,119.987,530.435,119.459z"/>
		<path fill="#FFFFFF" d="M546.973,123.341c-0.518,0.137-1.082,0.249-1.691,0.337c-0.611,0.088-1.155,0.132-1.634,0.132
			c-1.67,0-2.939-0.449-3.809-1.348s-1.304-2.339-1.304-4.321v-8.701h-1.86v-2.314h1.86v-4.702h2.754v4.702h5.684v2.314h-5.684
			v7.456c0,0.859,0.02,1.531,0.059,2.014c0.039,0.484,0.176,0.936,0.41,1.355c0.215,0.391,0.51,0.677,0.887,0.857
			c0.375,0.181,0.949,0.271,1.721,0.271c0.449,0,0.918-0.065,1.406-0.198c0.488-0.131,0.84-0.241,1.055-0.329h0.146V123.341z"/>
		<path fill="#FFFFFF" d="M573.56,123.488h-2.739v-1.743c-0.244,0.166-0.574,0.398-0.988,0.696c-0.416,0.298-0.818,0.534-1.209,0.71
			c-0.459,0.225-0.986,0.412-1.582,0.563s-1.294,0.228-2.095,0.228c-1.475,0-2.725-0.488-3.75-1.465s-1.538-2.222-1.538-3.735
			c0-1.24,0.266-2.243,0.799-3.01c0.531-0.767,1.291-1.37,2.277-1.81c0.996-0.439,2.192-0.737,3.589-0.894s2.896-0.273,4.497-0.352
			v-0.425c0-0.625-0.109-1.143-0.33-1.553c-0.219-0.41-0.534-0.732-0.944-0.967c-0.391-0.225-0.859-0.376-1.406-0.454
			s-1.118-0.117-1.714-0.117c-0.723,0-1.528,0.096-2.417,0.285c-0.889,0.191-1.807,0.467-2.754,0.828h-0.146v-2.798
			c0.537-0.146,1.313-0.308,2.329-0.483s2.017-0.264,3.003-0.264c1.152,0,2.155,0.096,3.011,0.285
			c0.854,0.191,1.594,0.516,2.219,0.975c0.615,0.449,1.084,1.03,1.406,1.743s0.483,1.597,0.483,2.651V123.488z M570.82,119.459
			v-4.556c-0.84,0.049-1.828,0.122-2.967,0.22c-1.137,0.098-2.038,0.239-2.702,0.425c-0.791,0.225-1.431,0.574-1.919,1.047
			c-0.488,0.475-0.732,1.126-0.732,1.956c0,0.938,0.283,1.644,0.85,2.116c0.566,0.475,1.431,0.711,2.593,0.711
			c0.967,0,1.851-0.188,2.651-0.564C569.395,120.439,570.137,119.987,570.82,119.459z"/>
		<path fill="#FFFFFF" d="M603.091,123.488h-2.754v-9.316c0-0.752-0.044-1.457-0.132-2.117c-0.088-0.658-0.249-1.174-0.483-1.545
			c-0.244-0.41-0.596-0.715-1.055-0.916c-0.459-0.199-1.055-0.3-1.787-0.3c-0.752,0-1.538,0.186-2.358,0.557
			s-1.606,0.845-2.358,1.421v12.217h-2.754v-16.362h2.754v1.816c0.859-0.713,1.748-1.27,2.666-1.67s1.86-0.601,2.827-0.601
			c1.768,0,3.115,0.532,4.043,1.597s1.392,2.598,1.392,4.6V123.488z"/>
		<path fill="#FFFFFF" d="M621.958,123.488h-2.754v-1.816c-0.928,0.732-1.816,1.294-2.666,1.685s-1.787,0.586-2.813,0.586
			c-1.719,0-3.057-0.524-4.014-1.575c-0.957-1.049-1.436-2.59-1.436-4.621v-10.62h2.754v9.316c0,0.83,0.039,1.541,0.117,2.132
			s0.244,1.096,0.498,1.516c0.264,0.43,0.605,0.742,1.025,0.938s1.03,0.293,1.831,0.293c0.713,0,1.492-0.186,2.336-0.557
			c0.846-0.371,1.634-0.845,2.366-1.421v-12.217h2.754V123.488z"/>
		<path fill="#FFFFFF" d="M639.478,122.462c-0.918,0.439-1.79,0.781-2.614,1.025c-0.826,0.244-1.702,0.366-2.63,0.366
			c-1.182,0-2.266-0.174-3.252-0.521c-0.986-0.346-1.831-0.871-2.534-1.574c-0.713-0.703-1.265-1.592-1.655-2.666
			s-0.586-2.329-0.586-3.765c0-2.676,0.735-4.775,2.204-6.299c1.471-1.523,3.411-2.285,5.823-2.285c0.938,0,1.858,0.132,2.761,0.396
			c0.904,0.264,1.731,0.586,2.483,0.967v3.062h-0.146c-0.84-0.654-1.706-1.157-2.601-1.509c-0.893-0.352-1.765-0.527-2.614-0.527
			c-1.563,0-2.796,0.525-3.698,1.574c-0.904,1.051-1.355,2.591-1.355,4.622c0,1.973,0.441,3.489,1.326,4.548
			c0.883,1.061,2.126,1.59,3.728,1.59c0.557,0,1.123-0.073,1.699-0.22s1.094-0.337,1.553-0.571c0.4-0.205,0.776-0.422,1.128-0.652
			c0.352-0.229,0.63-0.427,0.835-0.593h0.146V122.462z"/>
		<path fill="#FFFFFF" d="M645.791,123.488h-2.754v-22.793h2.754V123.488z"/>
		<path fill="#FFFFFF" d="M664.937,115.592h-12.056c0,1.006,0.151,1.882,0.454,2.63c0.303,0.746,0.718,1.359,1.245,1.838
			c0.508,0.469,1.111,0.82,1.809,1.055c0.699,0.234,1.468,0.352,2.308,0.352c1.113,0,2.233-0.222,3.362-0.666
			c1.127-0.444,1.931-0.882,2.409-1.312h0.146v3.003c-0.928,0.391-1.875,0.718-2.842,0.981s-1.982,0.396-3.047,0.396
			c-2.715,0-4.834-0.734-6.357-2.205c-1.523-1.469-2.285-3.557-2.285-6.262c0-2.676,0.729-4.8,2.19-6.372
			c1.459-1.572,3.381-2.358,5.764-2.358c2.207,0,3.908,0.645,5.105,1.934c1.195,1.289,1.794,3.12,1.794,5.493V115.592z
			 M662.256,113.483c-0.01-1.445-0.373-2.563-1.092-3.354c-0.717-0.791-1.809-1.187-3.273-1.187c-1.475,0-2.648,0.435-3.523,1.304
			c-0.873,0.869-1.369,1.948-1.486,3.237H662.256z"/>
		<path fill="#FFFFFF" d="M683.057,115.314c0,2.666-0.684,4.771-2.051,6.313s-3.198,2.314-5.493,2.314
			c-2.314,0-4.153-0.771-5.515-2.314c-1.363-1.543-2.044-3.647-2.044-6.313s0.681-4.772,2.044-6.32
			c1.361-1.548,3.2-2.322,5.515-2.322c2.295,0,4.126,0.774,5.493,2.322S683.057,112.648,683.057,115.314z M680.215,115.314
			c0-2.119-0.415-3.693-1.245-4.725c-0.83-1.029-1.982-1.545-3.457-1.545c-1.494,0-2.653,0.516-3.479,1.545
			c-0.824,1.031-1.237,2.605-1.237,4.725c0,2.051,0.415,3.606,1.245,4.666s1.987,1.589,3.472,1.589c1.465,0,2.614-0.524,3.45-1.575
			C679.797,118.945,680.215,117.384,680.215,115.314z"/>
		<path fill="#FFFFFF" d="M701.001,123.488h-2.754v-9.316c0-0.752-0.044-1.457-0.132-2.117c-0.088-0.658-0.249-1.174-0.483-1.545
			c-0.244-0.41-0.596-0.715-1.055-0.916c-0.459-0.199-1.055-0.3-1.787-0.3c-0.752,0-1.538,0.186-2.358,0.557
			s-1.606,0.845-2.358,1.421v12.217h-2.754v-16.362h2.754v1.816c0.859-0.713,1.748-1.27,2.666-1.67s1.86-0.601,2.827-0.601
			c1.768,0,3.115,0.532,4.043,1.597s1.392,2.598,1.392,4.6V123.488z"/>
		<path fill="#FFFFFF" d="M727.061,110.128h-0.146c-0.41-0.098-0.809-0.168-1.193-0.213c-0.387-0.043-0.843-0.065-1.37-0.065
			c-0.85,0-1.67,0.188-2.461,0.563c-0.791,0.377-1.553,0.862-2.285,1.458v11.616h-2.754v-16.362h2.754v2.417
			c1.094-0.879,2.058-1.502,2.894-1.867c0.834-0.367,1.687-0.55,2.556-0.55c0.479,0,0.825,0.013,1.04,0.036
			c0.215,0.025,0.537,0.071,0.967,0.14V110.128z"/>
		<path fill="#FFFFFF" d="M741.841,123.488h-2.739v-1.743c-0.244,0.166-0.574,0.398-0.988,0.696
			c-0.416,0.298-0.818,0.534-1.209,0.71c-0.459,0.225-0.986,0.412-1.582,0.563s-1.294,0.228-2.095,0.228
			c-1.475,0-2.725-0.488-3.75-1.465s-1.538-2.222-1.538-3.735c0-1.24,0.266-2.243,0.799-3.01c0.531-0.767,1.291-1.37,2.277-1.81
			c0.996-0.439,2.192-0.737,3.589-0.894s2.896-0.273,4.497-0.352v-0.425c0-0.625-0.109-1.143-0.33-1.553
			c-0.219-0.41-0.534-0.732-0.944-0.967c-0.391-0.225-0.859-0.376-1.406-0.454s-1.118-0.117-1.714-0.117
			c-0.723,0-1.528,0.096-2.417,0.285c-0.889,0.191-1.807,0.467-2.754,0.828h-0.146v-2.798c0.537-0.146,1.313-0.308,2.329-0.483
			s2.017-0.264,3.003-0.264c1.152,0,2.155,0.096,3.011,0.285c0.854,0.191,1.594,0.516,2.219,0.975
			c0.615,0.449,1.084,1.03,1.406,1.743s0.483,1.597,0.483,2.651V123.488z M739.102,119.459v-4.556
			c-0.84,0.049-1.828,0.122-2.967,0.22c-1.137,0.098-2.038,0.239-2.702,0.425c-0.791,0.225-1.431,0.574-1.919,1.047
			c-0.488,0.475-0.732,1.126-0.732,1.956c0,0.938,0.283,1.644,0.85,2.116c0.566,0.475,1.431,0.711,2.593,0.711
			c0.967,0,1.851-0.188,2.651-0.564C737.676,120.439,738.418,119.987,739.102,119.459z"/>
		<path fill="#FFFFFF" d="M760.415,123.488h-2.754v-1.714c-0.791,0.684-1.616,1.216-2.476,1.597s-1.792,0.571-2.798,0.571
			c-1.953,0-3.503-0.752-4.651-2.256c-1.146-1.504-1.721-3.589-1.721-6.255c0-1.387,0.197-2.622,0.594-3.706
			c0.395-1.084,0.93-2.007,1.604-2.769c0.664-0.742,1.438-1.309,2.322-1.699c0.883-0.391,1.799-0.586,2.746-0.586
			c0.859,0,1.621,0.091,2.285,0.271s1.362,0.461,2.095,0.842v-7.09h2.754V123.488z M757.661,119.459v-9.39
			c-0.742-0.332-1.406-0.562-1.992-0.688s-1.226-0.19-1.919-0.19c-1.543,0-2.744,0.537-3.604,1.611s-1.289,2.598-1.289,4.57
			c0,1.943,0.332,3.42,0.996,4.432c0.664,1.01,1.729,1.516,3.193,1.516c0.781,0,1.572-0.173,2.373-0.52
			S756.968,120.006,757.661,119.459z"/>
		<path fill="#FFFFFF" d="M768.794,104.386h-3.105v-2.856h3.105V104.386z M768.618,123.488h-2.754v-16.362h2.754V123.488z"/>
		<path fill="#FFFFFF" d="M787.632,123.488h-2.754v-1.816c-0.928,0.732-1.816,1.294-2.666,1.685s-1.787,0.586-2.813,0.586
			c-1.719,0-3.057-0.524-4.014-1.575c-0.957-1.049-1.436-2.59-1.436-4.621v-10.62h2.754v9.316c0,0.83,0.039,1.541,0.117,2.132
			s0.244,1.096,0.498,1.516c0.264,0.43,0.605,0.742,1.025,0.938s1.03,0.293,1.831,0.293c0.713,0,1.492-0.186,2.336-0.557
			c0.846-0.371,1.634-0.845,2.366-1.421v-12.217h2.754V123.488z"/>
		<path fill="#FFFFFF" d="M804.741,118.771c0,1.494-0.618,2.72-1.853,3.677c-1.236,0.957-2.923,1.436-5.062,1.436
			c-1.211,0-2.321-0.145-3.333-0.433c-1.01-0.287-1.857-0.603-2.541-0.944v-3.091h0.146c0.869,0.654,1.836,1.175,2.9,1.561
			s2.085,0.578,3.062,0.578c1.211,0,2.158-0.195,2.842-0.586s1.025-1.006,1.025-1.846c0-0.645-0.186-1.133-0.557-1.465
			s-1.084-0.615-2.139-0.85c-0.391-0.088-0.901-0.19-1.53-0.308c-0.631-0.117-1.204-0.244-1.722-0.381
			c-1.436-0.381-2.454-0.939-3.054-1.677c-0.602-0.737-0.901-1.644-0.901-2.718c0-0.674,0.14-1.309,0.417-1.904
			c0.279-0.596,0.701-1.128,1.268-1.597c0.547-0.459,1.242-0.822,2.088-1.092c0.844-0.268,1.789-0.402,2.834-0.402
			c0.977,0,1.965,0.12,2.967,0.359c1,0.239,1.833,0.529,2.497,0.871v2.944h-0.146c-0.703-0.518-1.558-0.954-2.563-1.312
			c-1.006-0.355-1.992-0.534-2.959-0.534c-1.006,0-1.855,0.193-2.549,0.579s-1.04,0.959-1.04,1.721c0,0.674,0.21,1.182,0.63,1.523
			c0.41,0.342,1.074,0.62,1.992,0.835c0.508,0.117,1.076,0.234,1.707,0.352c0.629,0.117,1.154,0.225,1.574,0.322
			c1.279,0.293,2.266,0.796,2.959,1.509C804.395,116.623,804.741,117.58,804.741,118.771z"/>
	</g>
</g>
</svg>
