<?xml version="1.0" encoding="utf-8"?>
<!-- Generator: Adobe Illustrator 16.0.0, SVG Export Plug-In . SVG Version: 6.00 Build 0)  -->
<!DOCTYPE svg PUBLIC "-//W3C//DTD SVG 1.1//EN" "http://www.w3.org/Graphics/SVG/1.1/DTD/svg11.dtd">
<svg version="1.1" id="Layer_3" xmlns="http://www.w3.org/2000/svg" xmlns:xlink="http://www.w3.org/1999/xlink" x="0px" y="0px"
	 width="1037px" height="679px" viewBox="0 0 1037 679" enable-background="new 0 0 1037 679" xml:space="preserve">
<g id="step13White">
	<path fill="#291159" fill-opacity="0.8" stroke="#FFFFFF" stroke-width="3" stroke-miterlimit="10" d="M1035.688,666.104
		c0,6.669-4.661,12.075-10.413,12.075H11.727c-5.751,0-10.414-5.406-10.414-12.075V12.897c0-6.67,4.663-12.076,10.414-12.076
		h1013.546c5.752,0,10.414,5.406,10.414,12.076V666.104L1035.688,666.104z"/>
	<g>
		<text transform="matrix(1 0 0 1 105.8838 73.7217)" fill="#FFFFFF" font-family="'Verdana'" font-size="31">M</text>
		<text transform="matrix(0.583 0 0 0.583 132.0098 84.0449)" fill="#FFFFFF" font-family="'Verdana'" font-size="31"> </text>
		<text transform="matrix(1 0 0 1 138.3638 73.7217)" fill="#FFFFFF" font-family="'Verdana'" font-size="31">= Mass of black hole</text>
		<text transform="matrix(1 0 0 1 104.1445 134.5205)" fill="#FFFFFF" font-family="'Verdana'" font-size="31">Solve for M:</text>
		<g>
			<g>
				<g>
					<text transform="matrix(1 0 0 1 280.2822 189.0527)" fill="#FFFFFF" font-family="'Verdana'" font-size="31">2GM</text>
					<text transform="matrix(1 0 0 1 299.2822 229.0527)" fill="#FFFFFF" font-family="'Verdana'" font-size="31">c</text>
					<text transform="matrix(0.583 0 0 0.583 315.4331 213.7295)" fill="#FFFFFF" font-family="'Verdana'" font-size="31">2</text>
				</g>
				<text transform="matrix(1 0 0 1 105.542 206.377)" fill="#FFFFFF" font-family="'Verdana'" font-size="31">2G รท R</text>
				<text transform="matrix(0.583 0 0 0.583 218.0078 211.7002)" fill="#FFFFFF" font-family="'Verdana'" font-size="31">S</text>
				<text transform="matrix(1 0 0 1 230.3623 206.377)" fill="#FFFFFF" font-family="'Verdana'" font-size="31"> = </text>
				<text transform="matrix(1 0 0 1 277.5283 192.377)" fill="#FFFFFF" font-family="'Verdana'" font-size="31">____ </text>
				<text transform="matrix(1 0 0 1 367.2588 206.377)" fill="#FFFFFF" font-family="'Verdana'" font-size="31">รท 2G</text>
			</g>
		</g>
		<g>
			<text transform="matrix(1 0 0 1 158.4336 297.0327)"><tspan x="0" y="0" fill="#FFFFFF" font-family="'Verdana'" font-size="31">   </tspan><tspan x="32.695" y="-14" fill="#FFFFFF" font-family="'Verdana'" font-size="31">__ </tspan><tspan x="83.01" y="0" fill="#FFFFFF" font-family="'Verdana'" font-size="31">= </tspan><tspan x="119.277" y="-14" fill="#FFFFFF" font-family="'Verdana'" font-size="31">____ </tspan></text>
			<g>
				<text transform="matrix(1 0 0 1 193.9058 277.0332)" fill="#FFFFFF" font-family="'Verdana'" font-size="31">R</text>
				<text transform="matrix(0.583 0 0 0.583 215.4604 282.3564)" fill="#FFFFFF" font-family="'Verdana'" font-size="31">S</text>
				<text transform="matrix(1 0 0 1 188.9878 321.0332)" fill="#FFFFFF" font-family="'Verdana'" font-size="31">2G</text>
			</g>
			<g>
				<text transform="matrix(1 0 0 1 282.3711 280.0332)" fill="#FFFFFF" font-family="'Verdana'" font-size="31">2GM</text>
				<text transform="matrix(1 0 0 1 279.3711 322.0332)" fill="#FFFFFF" font-family="'Verdana'" font-size="31">c</text>
				<text transform="matrix(0.583 0 0 0.583 295.522 306.71)" fill="#FFFFFF" font-family="'Verdana'" font-size="31">2</text>
				<text transform="matrix(1 0 0 1 307.0117 322.0332)" fill="#FFFFFF" font-family="'Verdana'" font-size="31">2G</text>
			</g>
		</g>
		<g>
			<text transform="matrix(1 0 0 1 191.1797 388.6494)"><tspan x="0" y="0" fill="#FFFFFF" font-family="'Verdana'" font-size="31">__ </tspan><tspan x="50.314" y="14" fill="#FFFFFF" font-family="'Verdana'" font-size="31">= </tspan><tspan x="86.582" y="0" fill="#FFFFFF" font-family="'Verdana'" font-size="31">__</tspan></text>
			<g>
				<text transform="matrix(1 0 0 1 196.6519 382.6494)" fill="#FFFFFF" font-family="'Verdana'" font-size="31">R</text>
				<text transform="matrix(0.583 0 0 0.583 218.2065 387.9727)" fill="#FFFFFF" font-family="'Verdana'" font-size="31">S</text>
				<text transform="matrix(1 0 0 1 191.7339 426.6494)" fill="#FFFFFF" font-family="'Verdana'" font-size="31">2G</text>
			</g>
			<g>
				<text transform="matrix(1 0 0 1 286.0542 385.6494)" fill="#FFFFFF" font-family="'Verdana'" font-size="31">M</text>
				<text transform="matrix(1 0 0 1 282.2969 427.6494)" fill="#FFFFFF" font-family="'Verdana'" font-size="31">c</text>
				<text transform="matrix(0.583 0 0 0.583 298.4478 412.3262)" fill="#FFFFFF" font-family="'Verdana'" font-size="31">2</text>
			</g>
		</g>
		<g>
			<text transform="matrix(1 0 0 1 595.5869 297.9429)"><tspan x="0" y="0" fill="#FFFFFF" font-family="'Verdana'" font-size="31">   </tspan><tspan x="32.695" y="-14" fill="#FFFFFF" font-family="'Verdana'" font-size="31">___ </tspan><tspan x="102.718" y="0" fill="#FFFFFF" font-family="'Verdana'" font-size="31">= </tspan><tspan x="138.985" y="-14" fill="#FFFFFF" font-family="'Verdana'" font-size="31">___</tspan></text>
			<g>
				<text transform="matrix(1 0 0 1 626.2383 277.9434)" fill="#FFFFFF" font-family="'Verdana'" font-size="31">c</text>
				<text transform="matrix(0.583 0 0 0.583 642.3896 262.6201)" fill="#FFFFFF" font-family="'Verdana'" font-size="31">2</text>
				<text transform="matrix(1 0 0 1 653.8789 277.9434)" fill="#FFFFFF" font-family="'Verdana'" font-size="31">R</text>
				<text transform="matrix(0.583 0 0 0.583 675.4336 283.2666)" fill="#FFFFFF" font-family="'Verdana'" font-size="31">S</text>
				<text transform="matrix(1 0 0 1 635.1406 321.9434)" fill="#FFFFFF" font-family="'Verdana'" font-size="31">2G</text>
			</g>
			<g>
				<text transform="matrix(1 0 0 1 736.5244 280.9434)" fill="#FFFFFF" font-family="'Verdana'" font-size="31">c</text>
				<text transform="matrix(0.583 0 0 0.583 752.6758 265.6201)" fill="#FFFFFF" font-family="'Verdana'" font-size="31">2</text>
				<text transform="matrix(1 0 0 1 764.165 280.9434)" fill="#FFFFFF" font-family="'Verdana'" font-size="31">M</text>
				<text transform="matrix(1 0 0 1 747.5244 322.9434)" fill="#FFFFFF" font-family="'Verdana'" font-size="31">c</text>
				<text transform="matrix(0.583 0 0 0.583 763.6758 307.6201)" fill="#FFFFFF" font-family="'Verdana'" font-size="31">2</text>
			</g>
		</g>
		<g>
			<text transform="matrix(1 0 0 1 662.1484 402.3906)"><tspan x="0" y="0" fill="#FFFFFF" font-family="'Verdana'" font-size="31">M</tspan><tspan x="26.126" y="-14" fill="#FFFFFF" font-family="'Verdana'" font-size="31"> </tspan><tspan x="37.024" y="0" fill="#FFFFFF" font-family="'Verdana'" font-size="31">= </tspan><tspan x="73.292" y="-14" fill="#FFFFFF" font-family="'Verdana'" font-size="31">___</tspan></text>
			<g>
				<text transform="matrix(1 0 0 1 737.3105 381.3906)" fill="#FFFFFF" font-family="'Verdana'" font-size="31">R</text>
				<text transform="matrix(0.583 0 0 0.583 758.8652 386.7139)" fill="#FFFFFF" font-family="'Verdana'" font-size="31">S</text>
				<text transform="matrix(1 0 0 1 771.2207 381.3906)" fill="#FFFFFF" font-family="'Verdana'" font-size="31">c</text>
				<text transform="matrix(0.583 0 0 0.583 787.3711 366.0674)" fill="#FFFFFF" font-family="'Verdana'" font-size="31">2</text>
				<text transform="matrix(1 0 0 1 743.2129 427.3906)" fill="#FFFFFF" font-family="'Verdana'" font-size="31">2G</text>
			</g>
		</g>
		<g>
			<g>
				<g>
					<text transform="matrix(1 0 0 1 649.6016 175.6738)" fill="#FFFFFF" font-family="'Verdana'" font-size="31">R</text>
					<text transform="matrix(0.583 0 0 0.583 671.1563 180.9971)" fill="#FFFFFF" font-family="'Verdana'" font-size="31">S</text>
					<text transform="matrix(1 0 0 1 644.6836 220.6738)" fill="#FFFFFF" font-family="'Verdana'" font-size="31">2G</text>
				</g>
				<text transform="matrix(1 0 0 1 579.8154 195.998)" fill="#FFFFFF" font-family="'Verdana'" font-size="31">c</text>
				<text transform="matrix(0.583 0 0 0.583 595.9668 180.6748)" fill="#FFFFFF" font-family="'Verdana'" font-size="31">2</text>
				<text transform="matrix(1 0 0 1 607.4561 195.998)" fill="#FFFFFF" font-family="'Verdana'" font-size="31"> x </text>
				<text transform="matrix(1 0 0 1 647.5986 181.998)" fill="#FFFFFF" font-family="'Verdana'" font-size="31">__</text>
				<text transform="matrix(1 0 0 1 687.0146 195.998)" fill="#FFFFFF" font-family="'Verdana'" font-size="31"> = </text>
				<text transform="matrix(1 0 0 1 734.1807 181.998)" fill="#FFFFFF" font-family="'Verdana'" font-size="31">__ </text>
				<text transform="matrix(1 0 0 1 784.4951 195.998)" fill="#FFFFFF" font-family="'Verdana'" font-size="31">x c</text>
				<text transform="matrix(0.583 0 0 0.583 829.8906 180.6748)" fill="#FFFFFF" font-family="'Verdana'" font-size="31">2</text>
			</g>
			<g>
				<text transform="matrix(1 0 0 1 740.9922 177.4922)" fill="#FFFFFF" font-family="'Verdana'" font-size="31">M</text>
				<text transform="matrix(1 0 0 1 737.2354 219.4922)" fill="#FFFFFF" font-family="'Verdana'" font-size="31">c</text>
				<text transform="matrix(0.583 0 0 0.583 753.3867 204.1689)" fill="#FFFFFF" font-family="'Verdana'" font-size="31">2</text>
			</g>
		</g>
		
			<line fill="none" stroke="#FFFFFF" stroke-width="3" stroke-miterlimit="10" x1="540.757" y1="155.252" x2="540.757" y2="427.649"/>
		<text transform="matrix(1 0 0 1 478.1455 206.3774)" fill="#FFFFFF" font-family="'Verdana'" font-size="28">(1)</text>
		<text transform="matrix(1 0 0 1 478.1455 297.0327)" fill="#FFFFFF" font-family="'Verdana'" font-size="28">(2)</text>
		<text transform="matrix(1 0 0 1 478.1455 402.6484)" fill="#FFFFFF" font-family="'Verdana'" font-size="28">(3)</text>
		<text transform="matrix(1 0 0 1 889.625 206.3774)" fill="#FFFFFF" font-family="'Verdana'" font-size="28">(4)</text>
		<text transform="matrix(1 0 0 1 889.625 297.0327)" fill="#FFFFFF" font-family="'Verdana'" font-size="28">(5)</text>
		<text transform="matrix(1 0 0 1 889.625 402.6484)" fill="#FFFFFF" font-family="'Verdana'" font-size="28">(6)</text>
		<g>
			<text transform="matrix(1.0194 0 0 1 179.3857 495.3545)" fill="#FFFFFF" font-family="'Verdana'" font-size="31">1.32 Fm x </text>
			<text transform="matrix(1 0 0 1 352.082 495.3545)" fill="#FFFFFF" font-family="'Verdana'" font-size="31">(2.99 x 10</text>
			<text transform="matrix(0.583 0 0 0.583 516.1191 480.0313)" fill="#FFFFFF" font-family="'Verdana'" font-size="31">10</text>
			<text transform="matrix(1 0 0 1 539.0986 495.3545)" fill="#FFFFFF" font-family="'Verdana'" font-size="31"> cm / s)</text>
			<text transform="matrix(1 0 0 1 662.4023 495.3545)" fill="#FFFFFF" font-family="'MyriadPro-Regular'" font-size="12"> </text>
			<text transform="matrix(1.0194 0 0 1 664.9463 495.3545)" fill="#FFFFFF" font-family="'Verdana'" font-size="31"> </text>
			<text transform="matrix(1.0194 0 0 1 196.3857 546.3545)" fill="#FFFFFF" font-family="'Verdana'" font-size="31">2 x (6.67 x 10</text>
			<text transform="matrix(0.583 0 0 0.583 424.6162 531.0313)" fill="#FFFFFF" font-family="'Verdana'" font-size="31">-8</text>
			<text transform="matrix(1 0 0 1 444.3125 546.3545)" fill="#FFFFFF" font-family="'Verdana'" font-size="31"> cm</text>
			<text transform="matrix(0.583 0 0 0.583 501.5146 531.0313)" fill="#FFFFFF" font-family="'Verdana'" font-size="31">3</text>
			<text transform="matrix(1 0 0 1 513.0039 546.3545)" fill="#FFFFFF" font-family="'Verdana'" font-size="31"> / gm s</text>
			<text transform="matrix(0.583 0 0 0.583 625.3945 531.0313)" fill="#FFFFFF" font-family="'Verdana'" font-size="31">2</text>
			<text transform="matrix(1 0 0 1 636.8848 546.3545)" fill="#FFFFFF" font-family="'Verdana'" font-size="31">)</text>
			<text transform="matrix(1 0 0 1 650.9609 546.3545)" fill="#FFFFFF" font-family="'MyriadPro-Regular'" font-size="12"> </text>
			<text transform="matrix(1.0194 0 0 1 653.5049 546.3545)" fill="#FFFFFF" font-family="'Verdana'" font-size="31"> </text>
			<text transform="matrix(1 0 0 1 112.4648 517.3555)"><tspan x="0" y="0" fill="#FFFFFF" font-family="'Verdana'" font-size="31">M =</tspan><tspan x="62.394" y="-14" fill="#FFFFFF" font-family="'Verdana'" font-size="31"> ________________________  </tspan></text>
		</g>
		<text transform="matrix(1.016 0 0 1 112.1973 602.6484)" fill="#FFFFFF" font-family="'Verdana'" font-size="31">M = </text>
		<text transform="matrix(1 0 0 1 186.6621 602.6484)" fill="#FFFFFF" font-family="'Verdana'" font-size="31">8.85 x 10</text>
		<text transform="matrix(0.583 0 0 0.583 336.6216 587.3252)" fill="#FFFFFF" font-family="'Verdana'" font-size="31">14</text>
		<text transform="matrix(1 0 0 1 359.6011 602.6484)" fill="#FFFFFF" font-family="'Verdana'" font-size="31"> gm</text>
		<text transform="matrix(1 0 0 1 419.9663 602.6484)" fill="#FFFFFF" font-family="'MyriadPro-Regular'" font-size="12"> </text>
		<text transform="matrix(1 0 0 1 422.5098 588.6484)" fill="#FFFFFF" font-family="'Verdana'" font-size="31"> </text>
	</g>
</g>
</svg>
