<?xml version="1.0" encoding="utf-8"?>
<!-- Generator: Adobe Illustrator 16.0.0, SVG Export Plug-In . SVG Version: 6.00 Build 0)  -->
<!DOCTYPE svg PUBLIC "-//W3C//DTD SVG 1.1//EN" "http://www.w3.org/Graphics/SVG/1.1/DTD/svg11.dtd">
<svg version="1.1" id="Layer_3" xmlns="http://www.w3.org/2000/svg" xmlns:xlink="http://www.w3.org/1999/xlink" x="0px" y="0px"
	 width="719px" height="355px" viewBox="0 61 719 355" enable-background="new 0 61 719 355" xml:space="preserve">
<path fill="#291159" fill-opacity="0.8" stroke="#FFFFFF" stroke-width="3" stroke-miterlimit="10" d="M718.867,409.67
	c0,3.496-3.238,6.33-7.236,6.33H7.369c-3.996,0-7.236-2.834-7.236-6.33V67.329c0-3.497,3.24-6.329,7.236-6.329h704.262
	c3.998,0,7.236,2.832,7.236,6.329V409.67L718.867,409.67z"/>
<g id="step19White">
	<g enable-background="new    ">
		<path fill="#FFFFFF" d="M109.389,233.371c-0.535,0.141-1.118,0.256-1.749,0.348c-0.63,0.09-1.193,0.137-1.688,0.137
			c-1.726,0-3.038-0.465-3.936-1.393c-0.898-0.93-1.347-2.418-1.347-4.467v-8.99h-1.922v-2.393h1.922v-4.858h2.846v4.858h5.873
			v2.393h-5.873v7.704c0,0.887,0.02,1.583,0.061,2.081c0.04,0.5,0.182,0.967,0.424,1.4c0.222,0.404,0.527,0.699,0.916,0.887
			c0.389,0.186,0.981,0.279,1.779,0.279c0.464,0,0.948-0.068,1.453-0.205c0.504-0.135,0.868-0.25,1.09-0.34h0.151V233.371z"/>
		<path fill="#FFFFFF" d="M142.583,221.685h-17.952v-2.422h17.952V221.685z M142.583,228.043h-17.952v-2.422h17.952V228.043z"/>
		<path fill="#FFFFFF" d="M174.704,226.362c0,1.05-0.192,2.054-0.576,3.013c-0.383,0.959-0.908,1.766-1.574,2.422
			c-0.727,0.705-1.592,1.248-2.596,1.627s-2.167,0.566-3.488,0.566c-1.231,0-2.417-0.127-3.558-0.385s-2.104-0.568-2.892-0.932
			v-3.193h0.213c0.827,0.525,1.796,0.971,2.906,1.34c1.109,0.369,2.199,0.553,3.27,0.553c0.716,0,1.409-0.102,2.081-0.303
			c0.671-0.203,1.269-0.555,1.794-1.061c0.443-0.434,0.779-0.953,1.006-1.559c0.228-0.605,0.341-1.307,0.341-2.104
			c0-0.777-0.134-1.433-0.401-1.968s-0.638-0.964-1.112-1.287c-0.524-0.383-1.163-0.652-1.915-0.81
			c-0.752-0.156-1.592-0.234-2.52-0.234c-0.889,0-1.744,0.061-2.566,0.182s-1.531,0.242-2.127,0.363v-11.61h13.563v2.649h-10.641
			v5.994c0.434-0.04,0.878-0.07,1.332-0.091s0.848-0.03,1.181-0.03c1.221,0,2.291,0.104,3.209,0.311s1.761,0.572,2.528,1.097
			c0.807,0.556,1.433,1.271,1.877,2.15C174.481,223.94,174.704,225.041,174.704,226.362z"/>
		<path fill="#FFFFFF" d="M184.346,233.521h-3.617v-4.314h3.617V233.521z"/>
		<path fill="#FFFFFF" d="M205.689,226.362c0,1.05-0.192,2.054-0.576,3.013c-0.383,0.959-0.908,1.766-1.574,2.422
			c-0.727,0.705-1.592,1.248-2.596,1.627s-2.167,0.566-3.488,0.566c-1.231,0-2.417-0.127-3.558-0.385s-2.104-0.568-2.892-0.932
			v-3.193h0.213c0.827,0.525,1.796,0.971,2.906,1.34c1.109,0.369,2.199,0.553,3.27,0.553c0.716,0,1.409-0.102,2.081-0.303
			c0.671-0.203,1.269-0.555,1.794-1.061c0.443-0.434,0.779-0.953,1.006-1.559c0.228-0.605,0.341-1.307,0.341-2.104
			c0-0.777-0.134-1.433-0.401-1.968s-0.638-0.964-1.112-1.287c-0.524-0.383-1.163-0.652-1.915-0.81
			c-0.752-0.156-1.592-0.234-2.52-0.234c-0.889,0-1.744,0.061-2.566,0.182s-1.531,0.242-2.127,0.363v-11.61h13.563v2.649h-10.641
			v5.994c0.434-0.04,0.878-0.07,1.332-0.091s0.848-0.03,1.181-0.03c1.221,0,2.291,0.104,3.209,0.311s1.761,0.572,2.528,1.097
			c0.807,0.556,1.433,1.271,1.877,2.15C205.466,223.94,205.689,225.041,205.689,226.362z"/>
		<path fill="#FFFFFF" d="M225.397,226.362c0,1.05-0.192,2.054-0.576,3.013c-0.383,0.959-0.908,1.766-1.574,2.422
			c-0.727,0.705-1.592,1.248-2.596,1.627s-2.167,0.566-3.488,0.566c-1.231,0-2.417-0.127-3.558-0.385s-2.104-0.568-2.892-0.932
			v-3.193h0.213c0.827,0.525,1.796,0.971,2.906,1.34c1.109,0.369,2.199,0.553,3.27,0.553c0.716,0,1.409-0.102,2.081-0.303
			c0.671-0.203,1.269-0.555,1.794-1.061c0.443-0.434,0.779-0.953,1.006-1.559c0.228-0.605,0.341-1.307,0.341-2.104
			c0-0.777-0.134-1.433-0.401-1.968s-0.638-0.964-1.112-1.287c-0.524-0.383-1.163-0.652-1.915-0.81
			c-0.752-0.156-1.592-0.234-2.52-0.234c-0.889,0-1.744,0.061-2.566,0.182s-1.531,0.242-2.127,0.363v-11.61h13.563v2.649h-10.641
			v5.994c0.434-0.04,0.878-0.07,1.332-0.091s0.848-0.03,1.181-0.03c1.221,0,2.291,0.104,3.209,0.311s1.761,0.572,2.528,1.097
			c0.807,0.556,1.433,1.271,1.877,2.15C225.174,223.94,225.397,225.041,225.397,226.362z"/>
		<path fill="#FFFFFF" d="M255.927,233.521h-3.588l-4.798-6.494l-4.829,6.494h-3.314l6.6-8.431l-6.539-8.477h3.588l4.768,6.389
			l4.783-6.389h3.33l-6.645,8.326L255.927,233.521z"/>
		<path fill="#FFFFFF" d="M284.142,233.521h-12.2v-2.301h4.692v-15.106h-4.692v-2.059c0.636,0,1.317-0.053,2.044-0.159
			c0.727-0.105,1.276-0.26,1.649-0.461c0.464-0.253,0.83-0.573,1.098-0.962c0.267-0.388,0.421-0.91,0.462-1.566h2.346v20.313h4.602
			V233.521z"/>
		<path fill="#FFFFFF" d="M305.106,222.245c0,4.047-0.633,7.017-1.899,8.908c-1.267,1.893-3.231,2.838-5.896,2.838
			c-2.704,0-4.68-0.957-5.926-2.875c-1.247-1.918-1.869-4.864-1.869-8.839c0-4.007,0.63-6.966,1.892-8.878s3.229-2.868,5.903-2.868
			c2.704,0,4.68,0.971,5.926,2.913C304.483,215.386,305.106,218.32,305.106,222.245z M301.125,229.117
			c0.354-0.818,0.593-1.779,0.719-2.883c0.126-1.105,0.189-2.435,0.189-3.989c0-1.533-0.063-2.865-0.189-3.996
			c-0.126-1.13-0.371-2.088-0.734-2.875c-0.353-0.777-0.835-1.363-1.445-1.756c-0.61-0.395-1.395-0.591-2.354-0.591
			c-0.948,0-1.733,0.196-2.354,0.591c-0.621,0.393-1.113,0.988-1.477,1.785c-0.343,0.747-0.577,1.721-0.703,2.922
			c-0.127,1.201-0.189,2.518-0.189,3.951c0,1.574,0.056,2.891,0.166,3.95c0.111,1.059,0.349,2.008,0.712,2.846
			c0.333,0.787,0.805,1.387,1.415,1.801s1.421,0.621,2.43,0.621c0.948,0,1.735-0.197,2.361-0.592
			C300.298,230.51,300.783,229.914,301.125,229.117z"/>
		<path fill="#FFFFFF" d="M314.006,213.249H308.5v-1.598h5.506V213.249z"/>
		<path fill="#FFFFFF" d="M325.673,218.199h-8.896v-1.845c0.617-0.529,1.236-1.059,1.857-1.588s1.198-1.056,1.734-1.58
			c1.129-1.094,1.903-1.963,2.32-2.607c0.418-0.645,0.627-1.34,0.627-2.087c0-0.683-0.226-1.217-0.675-1.602
			c-0.45-0.386-1.078-0.578-1.885-0.578c-0.535,0-1.114,0.094-1.738,0.282c-0.623,0.188-1.232,0.477-1.826,0.865h-0.089v-1.854
			c0.418-0.206,0.976-0.395,1.673-0.564c0.697-0.171,1.372-0.256,2.025-0.256c1.347,0,2.402,0.324,3.168,0.975
			c0.765,0.65,1.146,1.531,1.146,2.643c0,0.501-0.063,0.967-0.189,1.399s-0.313,0.843-0.561,1.23
			c-0.229,0.365-0.498,0.724-0.808,1.077c-0.309,0.353-0.684,0.744-1.125,1.174c-0.629,0.617-1.279,1.216-1.95,1.796
			c-0.671,0.579-1.297,1.116-1.88,1.61h7.069V218.199z"/>
		<path fill="#FFFFFF" d="M336.006,211.872c0.282,0.253,0.515,0.57,0.697,0.953c0.182,0.382,0.273,0.876,0.273,1.482
			c0,0.6-0.109,1.15-0.326,1.65c-0.218,0.5-0.524,0.936-0.918,1.306c-0.441,0.412-0.961,0.717-1.558,0.913
			c-0.598,0.197-1.252,0.296-1.964,0.296c-0.729,0-1.447-0.087-2.153-0.26c-0.706-0.174-1.285-0.363-1.738-0.569v-1.845h0.133
			c0.5,0.33,1.088,0.604,1.765,0.82c0.677,0.218,1.329,0.327,1.959,0.327c0.371,0,0.765-0.062,1.183-0.186
			c0.418-0.123,0.756-0.306,1.015-0.547c0.271-0.259,0.473-0.544,0.604-0.856c0.133-0.312,0.198-0.706,0.198-1.183
			c0-0.471-0.074-0.86-0.225-1.169s-0.357-0.552-0.622-0.728c-0.265-0.183-0.586-0.308-0.962-0.376
			c-0.377-0.067-0.782-0.101-1.218-0.101h-0.794v-1.466h0.617c0.895,0,1.607-0.187,2.141-0.56c0.532-0.374,0.798-0.92,0.798-1.638
			c0-0.317-0.067-0.596-0.202-0.834c-0.136-0.238-0.324-0.434-0.565-0.586c-0.253-0.153-0.523-0.26-0.812-0.318
			s-0.615-0.088-0.979-0.088c-0.56,0-1.153,0.1-1.783,0.3c-0.629,0.2-1.224,0.482-1.782,0.848H328.7v-1.845
			c0.417-0.206,0.975-0.396,1.672-0.569s1.372-0.26,2.025-0.26c0.642,0,1.206,0.059,1.694,0.176c0.488,0.118,0.93,0.307,1.323,0.565
			c0.424,0.282,0.744,0.623,0.962,1.023s0.327,0.868,0.327,1.403c0,0.729-0.258,1.366-0.772,1.91s-1.122,0.887-1.822,1.028v0.123
			c0.282,0.048,0.605,0.146,0.971,0.296S335.753,211.648,336.006,211.872z"/>
		<path fill="#FFFFFF" d="M364.113,228.648c0,1.543-0.637,2.811-1.914,3.799s-3.019,1.482-5.23,1.482
			c-1.251,0-2.398-0.148-3.443-0.445c-1.044-0.297-1.92-0.623-2.626-0.977v-3.193h0.151c0.898,0.676,1.897,1.213,2.997,1.611
			s2.154,0.598,3.163,0.598c1.252,0,2.23-0.201,2.937-0.605c0.707-0.402,1.059-1.039,1.059-1.906c0-0.666-0.191-1.172-0.574-1.514
			c-0.383-0.344-1.121-0.636-2.21-0.878c-0.403-0.091-0.931-0.197-1.581-0.318c-0.651-0.121-1.244-0.252-1.778-0.393
			c-1.484-0.395-2.536-0.972-3.156-1.733c-0.621-0.762-0.932-1.698-0.932-2.808c0-0.697,0.145-1.353,0.432-1.969
			c0.288-0.615,0.725-1.165,1.31-1.649c0.565-0.475,1.284-0.85,2.157-1.128c0.872-0.277,1.849-0.416,2.929-0.416
			c1.009,0,2.03,0.124,3.065,0.371c1.035,0.247,1.895,0.547,2.58,0.9v3.043h-0.15c-0.727-0.535-1.609-0.986-2.648-1.355
			c-1.04-0.368-2.059-0.553-3.058-0.553c-1.039,0-1.917,0.2-2.634,0.599s-1.075,0.991-1.075,1.778c0,0.696,0.218,1.221,0.651,1.574
			c0.424,0.354,1.11,0.641,2.059,0.863c0.524,0.121,1.112,0.242,1.764,0.363c0.65,0.121,1.193,0.231,1.627,0.332
			c1.323,0.303,2.34,0.823,3.057,1.56C363.756,226.428,364.113,227.416,364.113,228.648z"/>
	</g>
	<g>
		<g enable-background="new    ">
			<path fill="#FFFFFF" d="M109.173,312.926c-0.535,0.141-1.118,0.256-1.749,0.348c-0.63,0.09-1.193,0.137-1.688,0.137
				c-1.726,0-3.038-0.465-3.936-1.393c-0.898-0.93-1.347-2.418-1.347-4.467v-8.99h-1.922v-2.393h1.922v-4.857h2.846v4.857h5.873
				v2.393H103.3v7.705c0,0.887,0.02,1.582,0.061,2.08c0.04,0.5,0.182,0.967,0.424,1.4c0.222,0.404,0.527,0.699,0.916,0.887
				c0.389,0.186,0.981,0.279,1.779,0.279c0.464,0,0.948-0.068,1.453-0.205c0.504-0.135,0.868-0.25,1.09-0.34h0.151V312.926z"/>
			<path fill="#FFFFFF" d="M142.368,301.24h-17.952v-2.422h17.952V301.24z M142.368,307.598h-17.952v-2.422h17.952V307.598z"/>
		</g>
		<g enable-background="new    ">
			<path fill="#FFFFFF" d="M173.668,291.002c-0.949,0.453-1.849,0.807-2.702,1.059c-0.853,0.252-1.759,0.379-2.717,0.379
				c-1.221,0-2.341-0.18-3.36-0.537c-1.02-0.357-1.892-0.9-2.619-1.627c-0.737-0.727-1.307-1.645-1.71-2.756
				c-0.404-1.109-0.605-2.406-0.605-3.891c0-2.764,0.759-4.934,2.278-6.508c1.519-1.574,3.524-2.361,6.017-2.361
				c0.969,0,1.92,0.137,2.853,0.408c0.934,0.273,1.789,0.605,2.566,1v3.162h-0.151c-0.868-0.676-1.763-1.195-2.687-1.559
				c-0.923-0.363-1.824-0.545-2.702-0.545c-1.615,0-2.889,0.543-3.822,1.627c-0.934,1.086-1.4,2.678-1.4,4.775
				c0,2.039,0.457,3.605,1.37,4.701c0.913,1.096,2.197,1.643,3.852,1.643c0.575,0,1.16-0.076,1.756-0.229
				c0.595-0.15,1.13-0.348,1.604-0.59c0.414-0.211,0.802-0.436,1.166-0.674c0.363-0.236,0.651-0.441,0.863-0.613h0.151V291.002z"/>
			<path fill="#FFFFFF" d="M191.454,292.061h-2.846v-9.627c0-0.777-0.045-1.506-0.136-2.188c-0.091-0.68-0.257-1.213-0.5-1.596
				c-0.252-0.424-0.616-0.74-1.09-0.947c-0.475-0.205-1.09-0.311-1.847-0.311c-0.777,0-1.589,0.193-2.437,0.576
				s-1.66,0.873-2.437,1.469v12.623h-2.846v-23.553h2.846v8.521c0.888-0.736,1.806-1.311,2.755-1.725
				c0.948-0.414,1.922-0.621,2.921-0.621c1.826,0,3.219,0.551,4.178,1.65c0.958,1.1,1.438,2.684,1.438,4.752V292.061z"/>
			<path fill="#FFFFFF" d="M210.072,292.061h-2.831v-1.801c-0.252,0.172-0.593,0.412-1.021,0.719
				c-0.429,0.309-0.846,0.553-1.249,0.734c-0.475,0.232-1.02,0.426-1.635,0.582c-0.616,0.156-1.337,0.234-2.165,0.234
				c-1.524,0-2.815-0.504-3.875-1.514c-1.06-1.008-1.589-2.295-1.589-3.859c0-1.281,0.275-2.318,0.825-3.109
				c0.55-0.793,1.334-1.416,2.354-1.871c1.029-0.453,2.265-0.762,3.708-0.922c1.443-0.162,2.992-0.283,4.647-0.363v-0.439
				c0-0.646-0.113-1.182-0.341-1.605c-0.227-0.424-0.552-0.756-0.976-0.998c-0.404-0.232-0.888-0.389-1.453-0.469
				c-0.565-0.082-1.156-0.121-1.771-0.121c-0.747,0-1.58,0.098-2.498,0.295c-0.918,0.197-1.867,0.482-2.846,0.855h-0.151v-2.893
				c0.555-0.15,1.357-0.316,2.407-0.498c1.049-0.182,2.083-0.273,3.103-0.273c1.19,0,2.228,0.1,3.111,0.295
				c0.883,0.197,1.647,0.533,2.293,1.008c0.636,0.463,1.121,1.064,1.453,1.801c0.334,0.736,0.5,1.65,0.5,2.74V292.061z
				 M207.242,287.898v-4.707c-0.868,0.051-1.89,0.125-3.065,0.227c-1.175,0.102-2.106,0.248-2.792,0.439
				c-0.817,0.232-1.479,0.592-1.983,1.082c-0.505,0.49-0.757,1.162-0.757,2.02c0,0.969,0.292,1.699,0.878,2.188
				c0.585,0.49,1.478,0.734,2.679,0.734c0.999,0,1.912-0.193,2.74-0.582C205.768,288.91,206.535,288.443,207.242,287.898z"/>
			<path fill="#FFFFFF" d="M226.103,278.256h-0.151c-0.424-0.1-0.835-0.174-1.233-0.219c-0.399-0.045-0.87-0.068-1.415-0.068
				c-0.879,0-1.727,0.195-2.543,0.582c-0.818,0.389-1.605,0.891-2.361,1.506v12.004h-2.846v-16.908h2.846v2.498
				c1.13-0.908,2.126-1.551,2.989-1.93c0.862-0.379,1.743-0.568,2.642-0.568c0.494,0,0.853,0.014,1.074,0.039
				s0.555,0.072,0.999,0.143V278.256z"/>
			<path fill="#FFFFFF" d="M241.375,292.061h-2.831v-1.801c-0.252,0.172-0.593,0.412-1.021,0.719
				c-0.43,0.309-0.846,0.553-1.249,0.734c-0.475,0.232-1.02,0.426-1.635,0.582s-1.337,0.234-2.164,0.234
				c-1.524,0-2.816-0.504-3.875-1.514c-1.061-1.008-1.59-2.295-1.59-3.859c0-1.281,0.274-2.318,0.825-3.109
				c0.55-0.793,1.334-1.416,2.354-1.871c1.029-0.453,2.266-0.762,3.708-0.922c1.443-0.162,2.992-0.283,4.647-0.363v-0.439
				c0-0.646-0.113-1.182-0.341-1.605c-0.227-0.424-0.553-0.756-0.977-0.998c-0.403-0.232-0.888-0.389-1.453-0.469
				c-0.564-0.082-1.155-0.121-1.771-0.121c-0.747,0-1.579,0.098-2.497,0.295c-0.919,0.197-1.867,0.482-2.846,0.855h-0.152v-2.893
				c0.556-0.15,1.357-0.316,2.407-0.498s2.084-0.273,3.103-0.273c1.191,0,2.228,0.1,3.111,0.295
				c0.883,0.197,1.647,0.533,2.293,1.008c0.636,0.463,1.12,1.064,1.453,1.801s0.5,1.65,0.5,2.74V292.061z M238.544,287.898v-4.707
				c-0.868,0.051-1.89,0.125-3.065,0.227s-2.106,0.248-2.793,0.439c-0.816,0.232-1.478,0.592-1.982,1.082s-0.757,1.162-0.757,2.02
				c0,0.969,0.293,1.699,0.878,2.188c0.585,0.49,1.479,0.734,2.68,0.734c0.998,0,1.912-0.193,2.739-0.582
				S237.838,288.443,238.544,287.898z"/>
			<path fill="#FFFFFF" d="M259.357,291.002c-0.948,0.453-1.849,0.807-2.701,1.059c-0.854,0.252-1.759,0.379-2.717,0.379
				c-1.222,0-2.342-0.18-3.361-0.537c-1.019-0.357-1.892-0.9-2.618-1.627c-0.736-0.727-1.307-1.645-1.71-2.756
				c-0.404-1.109-0.605-2.406-0.605-3.891c0-2.764,0.759-4.934,2.277-6.508s3.524-2.361,6.018-2.361
				c0.969,0,1.919,0.137,2.853,0.408c0.934,0.273,1.789,0.605,2.565,1v3.162h-0.15c-0.868-0.676-1.764-1.195-2.688-1.559
				c-0.923-0.363-1.824-0.545-2.701-0.545c-1.615,0-2.89,0.543-3.822,1.627c-0.934,1.086-1.4,2.678-1.4,4.775
				c0,2.039,0.456,3.605,1.37,4.701c0.913,1.096,2.197,1.643,3.853,1.643c0.574,0,1.16-0.076,1.756-0.229
				c0.595-0.15,1.13-0.348,1.604-0.59c0.414-0.211,0.803-0.436,1.166-0.674c0.363-0.236,0.65-0.441,0.863-0.613h0.15V291.002z"/>
			<path fill="#FFFFFF" d="M271.785,291.91c-0.535,0.141-1.118,0.256-1.749,0.348c-0.631,0.09-1.193,0.137-1.688,0.137
				c-1.726,0-3.037-0.465-3.936-1.393c-0.898-0.93-1.347-2.418-1.347-4.467v-8.99h-1.923v-2.393h1.923v-4.857h2.846v4.857h5.873
				v2.393h-5.873v7.705c0,0.887,0.02,1.582,0.061,2.08c0.04,0.5,0.182,0.967,0.424,1.4c0.222,0.404,0.526,0.699,0.915,0.887
				c0.389,0.186,0.981,0.279,1.778,0.279c0.465,0,0.949-0.068,1.453-0.205c0.505-0.135,0.868-0.25,1.09-0.34h0.152V291.91z"/>
			<path fill="#FFFFFF" d="M289.373,283.902h-12.457c0,1.039,0.156,1.945,0.469,2.717s0.742,1.406,1.287,1.9
				c0.524,0.484,1.147,0.848,1.869,1.09c0.721,0.242,1.516,0.363,2.384,0.363c1.15,0,2.309-0.23,3.474-0.689
				c1.166-0.459,1.996-0.91,2.49-1.355h0.151v3.104c-0.959,0.404-1.938,0.742-2.937,1.014c-0.999,0.273-2.049,0.41-3.148,0.41
				c-2.806,0-4.995-0.76-6.569-2.279c-1.574-1.518-2.361-3.676-2.361-6.471c0-2.764,0.754-4.959,2.263-6.584
				s3.494-2.438,5.957-2.438c2.28,0,4.038,0.666,5.274,1.998s1.854,3.225,1.854,5.676V283.902z M286.604,281.723
				c-0.011-1.494-0.387-2.648-1.128-3.467c-0.742-0.816-1.87-1.227-3.384-1.227c-1.523,0-2.737,0.449-3.64,1.348
				c-0.903,0.898-1.415,2.014-1.536,3.346H286.604z"/>
			<path fill="#FFFFFF" d="M304.237,278.256h-0.151c-0.424-0.1-0.835-0.174-1.233-0.219c-0.399-0.045-0.87-0.068-1.415-0.068
				c-0.879,0-1.727,0.195-2.543,0.582c-0.818,0.389-1.605,0.891-2.361,1.506v12.004h-2.846v-16.908h2.846v2.498
				c1.13-0.908,2.126-1.551,2.989-1.93c0.862-0.379,1.743-0.568,2.642-0.568c0.494,0,0.853,0.014,1.074,0.039
				s0.555,0.072,0.999,0.143V278.256z"/>
			<path fill="#FFFFFF" d="M309.975,272.322h-3.209v-2.951h3.209V272.322z M309.793,292.061h-2.846v-16.908h2.846V292.061z"/>
			<path fill="#FFFFFF" d="M327.502,287.188c0,1.543-0.638,2.811-1.914,3.799c-1.277,0.988-3.02,1.482-5.23,1.482
				c-1.251,0-2.398-0.148-3.443-0.445c-1.044-0.297-1.92-0.623-2.626-0.977v-3.193h0.151c0.898,0.676,1.897,1.213,2.997,1.611
				s2.154,0.598,3.163,0.598c1.252,0,2.23-0.201,2.938-0.605c0.706-0.402,1.059-1.039,1.059-1.906c0-0.666-0.191-1.172-0.574-1.514
				c-0.384-0.344-1.121-0.637-2.211-0.879c-0.403-0.09-0.931-0.197-1.581-0.318c-0.651-0.121-1.244-0.252-1.778-0.393
				c-1.484-0.395-2.536-0.971-3.156-1.732c-0.621-0.762-0.932-1.699-0.932-2.809c0-0.697,0.145-1.352,0.432-1.969
				c0.288-0.615,0.725-1.164,1.31-1.648c0.565-0.475,1.284-0.85,2.157-1.129c0.872-0.277,1.849-0.416,2.929-0.416
				c1.009,0,2.03,0.125,3.065,0.371c1.034,0.248,1.895,0.547,2.58,0.9v3.043h-0.15c-0.727-0.535-1.61-0.986-2.649-1.355
				c-1.039-0.367-2.059-0.553-3.058-0.553c-1.039,0-1.917,0.201-2.634,0.6s-1.075,0.99-1.075,1.777c0,0.697,0.218,1.221,0.651,1.574
				c0.424,0.354,1.11,0.641,2.059,0.863c0.524,0.121,1.112,0.242,1.764,0.363c0.65,0.121,1.193,0.232,1.627,0.332
				c1.322,0.303,2.341,0.824,3.058,1.561C327.145,284.967,327.502,285.955,327.502,287.188z"/>
			<path fill="#FFFFFF" d="M340.354,291.91c-0.535,0.141-1.118,0.256-1.749,0.348c-0.631,0.09-1.193,0.137-1.688,0.137
				c-1.726,0-3.037-0.465-3.936-1.393c-0.898-0.93-1.347-2.418-1.347-4.467v-8.99h-1.923v-2.393h1.923v-4.857h2.846v4.857h5.873
				v2.393h-5.873v7.705c0,0.887,0.02,1.582,0.061,2.08c0.04,0.5,0.182,0.967,0.424,1.4c0.222,0.404,0.526,0.699,0.915,0.887
				c0.389,0.186,0.981,0.279,1.778,0.279c0.465,0,0.949-0.068,1.453-0.205c0.505-0.135,0.868-0.25,1.09-0.34h0.152V291.91z"/>
			<path fill="#FFFFFF" d="M346.848,272.322h-3.209v-2.951h3.209V272.322z M346.666,292.061h-2.846v-16.908h2.846V292.061z"/>
			<path fill="#FFFFFF" d="M364.799,291.002c-0.948,0.453-1.849,0.807-2.701,1.059c-0.854,0.252-1.759,0.379-2.717,0.379
				c-1.222,0-2.342-0.18-3.361-0.537c-1.019-0.357-1.892-0.9-2.618-1.627c-0.736-0.727-1.307-1.645-1.71-2.756
				c-0.404-1.109-0.605-2.406-0.605-3.891c0-2.764,0.759-4.934,2.277-6.508s3.524-2.361,6.018-2.361
				c0.969,0,1.919,0.137,2.853,0.408c0.934,0.273,1.789,0.605,2.565,1v3.162h-0.15c-0.868-0.676-1.764-1.195-2.688-1.559
				c-0.923-0.363-1.824-0.545-2.701-0.545c-1.615,0-2.89,0.543-3.822,1.627c-0.934,1.086-1.4,2.678-1.4,4.775
				c0,2.039,0.456,3.605,1.37,4.701c0.913,1.096,2.197,1.643,3.853,1.643c0.574,0,1.16-0.076,1.756-0.229
				c0.595-0.15,1.13-0.348,1.604-0.59c0.414-0.211,0.803-0.436,1.166-0.674c0.363-0.236,0.65-0.441,0.863-0.613h0.15V291.002z"/>
			<path fill="#FFFFFF" d="M382.403,272.322h-3.209v-2.951h3.209V272.322z M382.222,292.061h-2.846v-16.908h2.846V292.061z"/>
			<path fill="#FFFFFF" d="M401.99,292.061h-2.846v-9.627c0-0.777-0.045-1.506-0.136-2.188c-0.091-0.68-0.257-1.213-0.499-1.596
				c-0.253-0.424-0.616-0.74-1.09-0.947c-0.475-0.205-1.09-0.311-1.848-0.311c-0.776,0-1.589,0.193-2.437,0.576
				s-1.66,0.873-2.437,1.469v12.623h-2.846v-16.908h2.846v1.877c0.888-0.736,1.806-1.311,2.754-1.725
				c0.949-0.414,1.923-0.621,2.922-0.621c1.826,0,3.219,0.551,4.178,1.65s1.438,2.684,1.438,4.752V292.061z"/>
			<path fill="#FFFFFF" d="M416.25,291.91c-0.535,0.141-1.118,0.256-1.749,0.348c-0.631,0.09-1.193,0.137-1.688,0.137
				c-1.726,0-3.037-0.465-3.936-1.393c-0.898-0.93-1.347-2.418-1.347-4.467v-8.99h-1.923v-2.393h1.923v-4.857h2.846v4.857h5.873
				v2.393h-5.873v7.705c0,0.887,0.02,1.582,0.061,2.08c0.04,0.5,0.182,0.967,0.424,1.4c0.222,0.404,0.526,0.699,0.915,0.887
				c0.389,0.186,0.981,0.279,1.778,0.279c0.465,0,0.949-0.068,1.453-0.205c0.505-0.135,0.868-0.25,1.09-0.34h0.152V291.91z"/>
			<path fill="#FFFFFF" d="M433.838,283.902h-12.457c0,1.039,0.156,1.945,0.469,2.717s0.742,1.406,1.287,1.9
				c0.524,0.484,1.147,0.848,1.869,1.09c0.721,0.242,1.516,0.363,2.384,0.363c1.15,0,2.309-0.23,3.474-0.689
				c1.166-0.459,1.996-0.91,2.49-1.355h0.151v3.104c-0.959,0.404-1.938,0.742-2.937,1.014c-0.999,0.273-2.049,0.41-3.148,0.41
				c-2.806,0-4.995-0.76-6.569-2.279c-1.574-1.518-2.361-3.676-2.361-6.471c0-2.764,0.754-4.959,2.263-6.584
				s3.494-2.438,5.957-2.438c2.28,0,4.038,0.666,5.274,1.998s1.854,3.225,1.854,5.676V283.902z M431.068,281.723
				c-0.011-1.494-0.387-2.648-1.128-3.467c-0.742-0.816-1.87-1.227-3.384-1.227c-1.523,0-2.737,0.449-3.64,1.348
				c-0.903,0.898-1.415,2.014-1.536,3.346H431.068z"/>
			<path fill="#FFFFFF" d="M448.702,278.256h-0.151c-0.424-0.1-0.835-0.174-1.233-0.219c-0.399-0.045-0.87-0.068-1.415-0.068
				c-0.879,0-1.727,0.195-2.543,0.582c-0.818,0.389-1.605,0.891-2.361,1.506v12.004h-2.846v-16.908h2.846v2.498
				c1.13-0.908,2.126-1.551,2.989-1.93c0.862-0.379,1.743-0.568,2.642-0.568c0.494,0,0.853,0.014,1.074,0.039
				s0.555,0.072,0.999,0.143V278.256z"/>
			<path fill="#FFFFFF" d="M463.977,292.061h-2.831v-1.801c-0.252,0.172-0.593,0.412-1.021,0.719
				c-0.43,0.309-0.846,0.553-1.249,0.734c-0.475,0.232-1.02,0.426-1.635,0.582s-1.337,0.234-2.164,0.234
				c-1.524,0-2.816-0.504-3.875-1.514c-1.061-1.008-1.59-2.295-1.59-3.859c0-1.281,0.274-2.318,0.825-3.109
				c0.55-0.793,1.334-1.416,2.354-1.871c1.029-0.453,2.266-0.762,3.708-0.922c1.443-0.162,2.992-0.283,4.647-0.363v-0.439
				c0-0.646-0.113-1.182-0.341-1.605c-0.227-0.424-0.553-0.756-0.977-0.998c-0.403-0.232-0.888-0.389-1.453-0.469
				c-0.564-0.082-1.155-0.121-1.771-0.121c-0.747,0-1.579,0.098-2.497,0.295c-0.919,0.197-1.867,0.482-2.846,0.855h-0.152v-2.893
				c0.556-0.15,1.357-0.316,2.407-0.498s2.084-0.273,3.103-0.273c1.191,0,2.228,0.1,3.111,0.295
				c0.883,0.197,1.647,0.533,2.293,1.008c0.636,0.463,1.12,1.064,1.453,1.801s0.5,1.65,0.5,2.74V292.061z M461.146,287.898v-4.707
				c-0.868,0.051-1.89,0.125-3.065,0.227s-2.106,0.248-2.793,0.439c-0.816,0.232-1.478,0.592-1.982,1.082s-0.757,1.162-0.757,2.02
				c0,0.969,0.293,1.699,0.878,2.188c0.585,0.49,1.479,0.734,2.68,0.734c0.998,0,1.912-0.193,2.739-0.582
				S460.439,288.443,461.146,287.898z"/>
			<path fill="#FFFFFF" d="M481.957,291.002c-0.948,0.453-1.849,0.807-2.701,1.059c-0.854,0.252-1.759,0.379-2.717,0.379
				c-1.222,0-2.342-0.18-3.361-0.537c-1.019-0.357-1.892-0.9-2.618-1.627c-0.736-0.727-1.307-1.645-1.71-2.756
				c-0.404-1.109-0.605-2.406-0.605-3.891c0-2.764,0.759-4.934,2.277-6.508s3.524-2.361,6.018-2.361
				c0.969,0,1.919,0.137,2.853,0.408c0.934,0.273,1.789,0.605,2.565,1v3.162h-0.15c-0.868-0.676-1.764-1.195-2.688-1.559
				c-0.923-0.363-1.824-0.545-2.701-0.545c-1.615,0-2.89,0.543-3.822,1.627c-0.934,1.086-1.4,2.678-1.4,4.775
				c0,2.039,0.456,3.605,1.37,4.701c0.913,1.096,2.197,1.643,3.853,1.643c0.574,0,1.16-0.076,1.756-0.229
				c0.595-0.15,1.13-0.348,1.604-0.59c0.414-0.211,0.803-0.436,1.166-0.674c0.363-0.236,0.65-0.441,0.863-0.613h0.15V291.002z"/>
			<path fill="#FFFFFF" d="M494.386,291.91c-0.535,0.141-1.118,0.256-1.749,0.348c-0.631,0.09-1.193,0.137-1.688,0.137
				c-1.726,0-3.037-0.465-3.936-1.393c-0.898-0.93-1.347-2.418-1.347-4.467v-8.99h-1.923v-2.393h1.923v-4.857h2.846v4.857h5.873
				v2.393h-5.873v7.705c0,0.887,0.02,1.582,0.061,2.08c0.04,0.5,0.182,0.967,0.424,1.4c0.222,0.404,0.526,0.699,0.915,0.887
				c0.389,0.186,0.981,0.279,1.778,0.279c0.465,0,0.949-0.068,1.453-0.205c0.505-0.135,0.868-0.25,1.09-0.34h0.152V291.91z"/>
			<path fill="#FFFFFF" d="M500.879,272.322h-3.209v-2.951h3.209V272.322z M500.697,292.061h-2.846v-16.908h2.846V292.061z"/>
			<path fill="#FFFFFF" d="M520.738,283.615c0,2.754-0.707,4.93-2.119,6.523c-1.413,1.594-3.306,2.391-5.677,2.391
				c-2.392,0-4.291-0.797-5.699-2.391c-1.407-1.594-2.111-3.77-2.111-6.523c0-2.756,0.704-4.932,2.111-6.531
				c1.408-1.6,3.308-2.4,5.699-2.4c2.371,0,4.264,0.801,5.677,2.4C520.031,278.684,520.738,280.859,520.738,283.615z
				 M517.801,283.615c0-2.189-0.429-3.816-1.286-4.883c-0.857-1.064-2.049-1.596-3.572-1.596c-1.544,0-2.742,0.531-3.595,1.596
				c-0.854,1.066-1.279,2.693-1.279,4.883c0,2.119,0.429,3.727,1.287,4.82c0.857,1.096,2.053,1.643,3.587,1.643
				c1.514,0,2.702-0.543,3.564-1.627C517.37,287.367,517.801,285.754,517.801,283.615z"/>
			<path fill="#FFFFFF" d="M539.28,292.061h-2.846v-9.627c0-0.777-0.045-1.506-0.136-2.188c-0.091-0.68-0.257-1.213-0.499-1.596
				c-0.253-0.424-0.616-0.74-1.09-0.947c-0.475-0.205-1.09-0.311-1.848-0.311c-0.776,0-1.589,0.193-2.437,0.576
				s-1.66,0.873-2.437,1.469v12.623h-2.846v-16.908h2.846v1.877c0.888-0.736,1.806-1.311,2.754-1.725
				c0.949-0.414,1.923-0.621,2.922-0.621c1.826,0,3.219,0.551,4.178,1.65s1.438,2.684,1.438,4.752V292.061z"/>
			<path fill="#FFFFFF" d="M564.438,291.91c-0.535,0.141-1.118,0.256-1.749,0.348c-0.631,0.09-1.193,0.137-1.688,0.137
				c-1.726,0-3.037-0.465-3.936-1.393c-0.898-0.93-1.347-2.418-1.347-4.467v-8.99h-1.923v-2.393h1.923v-4.857h2.846v4.857h5.873
				v2.393h-5.873v7.705c0,0.887,0.02,1.582,0.061,2.08c0.04,0.5,0.182,0.967,0.424,1.4c0.222,0.404,0.526,0.699,0.915,0.887
				c0.389,0.186,0.981,0.279,1.778,0.279c0.465,0,0.949-0.068,1.453-0.205c0.505-0.135,0.868-0.25,1.09-0.34h0.152V291.91z"/>
			<path fill="#FFFFFF" d="M570.932,272.322h-3.209v-2.951h3.209V272.322z M570.75,292.061h-2.846v-16.908h2.846V292.061z"/>
			<path fill="#FFFFFF" d="M601.053,292.061h-2.846v-9.627c0-0.727-0.032-1.428-0.098-2.104c-0.066-0.676-0.205-1.217-0.416-1.619
				c-0.232-0.434-0.565-0.762-1-0.984c-0.434-0.223-1.059-0.334-1.877-0.334c-0.797,0-1.594,0.201-2.391,0.6
				c-0.798,0.398-1.595,0.904-2.393,1.52c0.031,0.232,0.056,0.504,0.076,0.811c0.021,0.309,0.03,0.613,0.03,0.916v10.822h-2.846
				v-9.627c0-0.746-0.033-1.455-0.099-2.127c-0.065-0.67-0.204-1.207-0.416-1.611c-0.232-0.434-0.565-0.76-0.999-0.977
				s-1.06-0.326-1.877-0.326c-0.777,0-1.557,0.193-2.339,0.576s-1.562,0.873-2.338,1.469v12.623h-2.846v-16.908h2.846v1.877
				c0.888-0.736,1.772-1.311,2.656-1.725c0.883-0.414,1.824-0.621,2.822-0.621c1.15,0,2.127,0.242,2.93,0.727
				c0.802,0.484,1.4,1.156,1.793,2.014c1.15-0.969,2.2-1.668,3.148-2.096c0.949-0.43,1.963-0.645,3.043-0.645
				c1.856,0,3.227,0.563,4.109,1.688c0.883,1.127,1.324,2.697,1.324,4.715V292.061z"/>
			<path fill="#FFFFFF" d="M620.686,283.902h-12.457c0,1.039,0.156,1.945,0.469,2.717s0.742,1.406,1.287,1.9
				c0.524,0.484,1.147,0.848,1.869,1.09c0.721,0.242,1.516,0.363,2.384,0.363c1.15,0,2.309-0.23,3.474-0.689
				c1.166-0.459,1.996-0.91,2.49-1.355h0.151v3.104c-0.959,0.404-1.938,0.742-2.937,1.014c-0.999,0.273-2.049,0.41-3.148,0.41
				c-2.806,0-4.995-0.76-6.569-2.279c-1.574-1.518-2.361-3.676-2.361-6.471c0-2.764,0.754-4.959,2.263-6.584
				s3.494-2.438,5.957-2.438c2.28,0,4.038,0.666,5.274,1.998s1.854,3.225,1.854,5.676V283.902z M617.916,281.723
				c-0.011-1.494-0.387-2.648-1.128-3.467c-0.742-0.816-1.87-1.227-3.384-1.227c-1.523,0-2.737,0.449-3.64,1.348
				c-0.903,0.898-1.415,2.014-1.536,3.346H617.916z"/>
			<path fill="#FFFFFF" d="M175.576,325.615c0,2.754-0.707,4.93-2.119,6.523c-1.413,1.594-3.305,2.391-5.676,2.391
				c-2.392,0-4.291-0.797-5.699-2.391c-1.407-1.594-2.111-3.77-2.111-6.523c0-2.756,0.704-4.932,2.111-6.531
				c1.408-1.6,3.308-2.4,5.699-2.4c2.371,0,4.263,0.801,5.676,2.4C174.869,320.684,175.576,322.859,175.576,325.615z
				 M172.639,325.615c0-2.189-0.429-3.816-1.287-4.883c-0.858-1.064-2.049-1.596-3.572-1.596c-1.544,0-2.742,0.531-3.595,1.596
				c-0.853,1.066-1.279,2.693-1.279,4.883c0,2.119,0.429,3.727,1.287,4.82c0.857,1.096,2.053,1.643,3.587,1.643
				c1.514,0,2.702-0.543,3.564-1.627C172.208,329.367,172.639,327.754,172.639,325.615z"/>
			<path fill="#FFFFFF" d="M189.078,313.264h-0.151c-0.313-0.092-0.722-0.184-1.226-0.281c-0.505-0.096-0.949-0.143-1.332-0.143
				c-1.221,0-2.106,0.27-2.657,0.809c-0.55,0.541-0.825,1.518-0.825,2.93v0.574h5.131v2.393h-5.041v14.516h-2.846v-14.516h-1.922
				v-2.393h1.922v-0.559c0-2.008,0.5-3.551,1.499-4.625s2.442-1.611,4.329-1.611c0.636,0,1.208,0.029,1.718,0.09
				c0.51,0.061,0.977,0.131,1.4,0.213V313.264z"/>
			<path fill="#FFFFFF" d="M210.557,333.91c-0.535,0.141-1.117,0.256-1.748,0.348c-0.631,0.09-1.194,0.137-1.688,0.137
				c-1.726,0-3.038-0.465-3.936-1.393c-0.898-0.93-1.347-2.418-1.347-4.467v-8.99h-1.922v-2.393h1.922v-4.857h2.846v4.857h5.873
				v2.393h-5.873v7.705c0,0.887,0.02,1.582,0.061,2.08c0.04,0.5,0.182,0.967,0.424,1.4c0.222,0.404,0.527,0.699,0.916,0.887
				c0.389,0.186,0.981,0.279,1.779,0.279c0.464,0,0.948-0.068,1.452-0.205c0.506-0.135,0.869-0.25,1.09-0.34h0.152V333.91z"/>
			<path fill="#FFFFFF" d="M228.13,334.061h-2.846v-9.627c0-0.777-0.045-1.506-0.136-2.188c-0.091-0.68-0.257-1.213-0.499-1.596
				c-0.253-0.424-0.616-0.74-1.09-0.947c-0.475-0.205-1.09-0.311-1.848-0.311c-0.776,0-1.589,0.193-2.437,0.576
				s-1.66,0.873-2.437,1.469v12.623h-2.846v-23.553h2.846v8.521c0.888-0.736,1.806-1.311,2.754-1.725
				c0.949-0.414,1.923-0.621,2.922-0.621c1.826,0,3.219,0.551,4.178,1.65s1.438,2.684,1.438,4.752V334.061z"/>
			<path fill="#FFFFFF" d="M247.763,325.902h-12.457c0,1.039,0.156,1.945,0.469,2.717s0.742,1.406,1.287,1.9
				c0.524,0.484,1.147,0.848,1.869,1.09c0.721,0.242,1.516,0.363,2.384,0.363c1.15,0,2.309-0.23,3.474-0.689
				c1.166-0.459,1.996-0.91,2.49-1.355h0.151v3.104c-0.959,0.404-1.938,0.742-2.937,1.014c-0.999,0.273-2.049,0.41-3.148,0.41
				c-2.806,0-4.995-0.76-6.569-2.279c-1.574-1.518-2.361-3.676-2.361-6.471c0-2.764,0.754-4.959,2.263-6.584
				s3.494-2.438,5.957-2.438c2.28,0,4.038,0.666,5.274,1.998s1.854,3.225,1.854,5.676V325.902z M244.993,323.723
				c-0.011-1.494-0.387-2.648-1.128-3.467c-0.742-0.816-1.87-1.227-3.384-1.227c-1.523,0-2.737,0.449-3.64,1.348
				c-0.903,0.898-1.415,2.014-1.536,3.346H244.993z"/>
			<path fill="#FFFFFF" d="M279.58,327.627c0,0.879-0.204,1.746-0.613,2.604c-0.408,0.859-0.981,1.586-1.718,2.18
				c-0.808,0.646-1.748,1.15-2.823,1.514c-1.074,0.363-2.368,0.545-3.882,0.545c-1.625,0-3.086-0.15-4.383-0.453
				s-2.616-0.752-3.958-1.348v-3.754h0.212c1.141,0.949,2.457,1.68,3.951,2.195c1.493,0.514,2.896,0.771,4.207,0.771
				c1.857,0,3.303-0.348,4.337-1.045c1.034-0.695,1.552-1.623,1.552-2.785c0-0.998-0.245-1.734-0.734-2.209
				s-1.233-0.842-2.232-1.105c-0.757-0.201-1.577-0.367-2.46-0.5c-0.883-0.131-1.818-0.297-2.808-0.498
				c-1.998-0.424-3.479-1.148-4.442-2.172c-0.964-1.025-1.446-2.359-1.446-4.004c0-1.887,0.798-3.434,2.393-4.641
				c1.594-1.205,3.617-1.809,6.069-1.809c1.584,0,3.037,0.152,4.359,0.455s2.492,0.676,3.512,1.119v3.543h-0.212
				c-0.857-0.727-1.985-1.33-3.383-1.809c-1.398-0.48-2.828-0.721-4.291-0.721c-1.605,0-2.895,0.334-3.868,1s-1.46,1.523-1.46,2.572
				c0,0.939,0.242,1.676,0.727,2.211s1.337,0.943,2.558,1.227c0.646,0.141,1.564,0.313,2.755,0.514
				c1.19,0.203,2.2,0.408,3.027,0.621c1.675,0.443,2.937,1.115,3.784,2.014S279.58,326.014,279.58,327.627z"/>
			<path fill="#FFFFFF" d="M292.946,333.91c-0.535,0.141-1.118,0.256-1.749,0.348c-0.631,0.09-1.193,0.137-1.688,0.137
				c-1.726,0-3.037-0.465-3.936-1.393c-0.898-0.93-1.347-2.418-1.347-4.467v-8.99h-1.923v-2.393h1.923v-4.857h2.846v4.857h5.873
				v2.393h-5.873v7.705c0,0.887,0.02,1.582,0.061,2.08c0.04,0.5,0.182,0.967,0.424,1.4c0.222,0.404,0.526,0.699,0.915,0.887
				c0.389,0.186,0.981,0.279,1.778,0.279c0.465,0,0.949-0.068,1.453-0.205c0.505-0.135,0.868-0.25,1.09-0.34h0.152V333.91z"/>
			<path fill="#FFFFFF" d="M306.933,320.256h-0.151c-0.424-0.1-0.835-0.174-1.233-0.219c-0.399-0.045-0.87-0.068-1.415-0.068
				c-0.879,0-1.727,0.195-2.543,0.582c-0.818,0.389-1.605,0.891-2.361,1.506v12.004h-2.846v-16.908h2.846v2.498
				c1.13-0.908,2.126-1.551,2.989-1.93c0.862-0.379,1.743-0.568,2.642-0.568c0.494,0,0.853,0.014,1.074,0.039
				s0.555,0.072,0.999,0.143V320.256z"/>
			<path fill="#FFFFFF" d="M324.021,325.615c0,2.754-0.707,4.93-2.119,6.523c-1.413,1.594-3.306,2.391-5.677,2.391
				c-2.392,0-4.291-0.797-5.699-2.391c-1.407-1.594-2.111-3.77-2.111-6.523c0-2.756,0.704-4.932,2.111-6.531
				c1.408-1.6,3.308-2.4,5.699-2.4c2.371,0,4.264,0.801,5.677,2.4C323.314,320.684,324.021,322.859,324.021,325.615z
				 M321.084,325.615c0-2.189-0.429-3.816-1.286-4.883c-0.857-1.064-2.049-1.596-3.572-1.596c-1.544,0-2.742,0.531-3.595,1.596
				c-0.854,1.066-1.279,2.693-1.279,4.883c0,2.119,0.429,3.727,1.287,4.82c0.857,1.096,2.053,1.643,3.587,1.643
				c1.514,0,2.702-0.543,3.564-1.627C320.653,329.367,321.084,327.754,321.084,325.615z"/>
			<path fill="#FFFFFF" d="M342.563,334.061h-2.846v-9.627c0-0.777-0.045-1.506-0.136-2.188c-0.091-0.68-0.257-1.213-0.499-1.596
				c-0.253-0.424-0.616-0.74-1.09-0.947c-0.475-0.205-1.09-0.311-1.848-0.311c-0.776,0-1.589,0.193-2.437,0.576
				s-1.66,0.873-2.437,1.469v12.623h-2.846v-16.908h2.846v1.877c0.888-0.736,1.806-1.311,2.754-1.725
				c0.949-0.414,1.923-0.621,2.922-0.621c1.826,0,3.219,0.551,4.178,1.65s1.438,2.684,1.438,4.752V334.061z"/>
			<path fill="#FFFFFF" d="M361.757,332.139c0,2.865-0.65,4.971-1.952,6.313s-3.305,2.012-6.009,2.012
				c-0.898,0-1.774-0.063-2.627-0.188c-0.853-0.127-1.692-0.307-2.52-0.539v-2.906h0.15c0.465,0.182,1.201,0.406,2.211,0.674
				c1.009,0.268,2.018,0.402,3.027,0.402c0.969,0,1.771-0.117,2.406-0.35c0.636-0.23,1.13-0.555,1.483-0.969
				c0.354-0.393,0.605-0.867,0.757-1.422s0.227-1.176,0.227-1.861v-1.545c-0.857,0.688-1.678,1.199-2.459,1.537
				c-0.782,0.338-1.779,0.506-2.99,0.506c-2.018,0-3.62-0.729-4.806-2.186c-1.186-1.459-1.778-3.516-1.778-6.17
				c0-1.453,0.204-2.705,0.613-3.76c0.408-1.055,0.966-1.967,1.672-2.732c0.656-0.717,1.453-1.273,2.393-1.674
				c0.938-0.398,1.871-0.598,2.8-0.598c0.979,0,1.799,0.1,2.46,0.295c0.66,0.197,1.359,0.498,2.096,0.9l0.182-0.727h2.664V332.139z
				 M358.911,329.414v-9.219c-0.756-0.342-1.46-0.588-2.111-0.734c-0.65-0.145-1.299-0.219-1.945-0.219
				c-1.563,0-2.795,0.525-3.693,1.574c-0.897,1.049-1.347,2.572-1.347,4.57c0,1.898,0.333,3.336,0.999,4.314
				s1.771,1.469,3.314,1.469c0.828,0,1.658-0.158,2.49-0.477C357.451,330.375,358.216,329.949,358.911,329.414z"/>
			<path fill="#FFFFFF" d="M392.878,314.186H381.48v6.357h9.794v2.664h-9.794v10.854h-2.997v-22.539h14.395V314.186z"/>
			<path fill="#FFFFFF" d="M409.727,325.615c0,2.754-0.707,4.93-2.119,6.523c-1.413,1.594-3.306,2.391-5.677,2.391
				c-2.392,0-4.291-0.797-5.699-2.391c-1.407-1.594-2.111-3.77-2.111-6.523c0-2.756,0.704-4.932,2.111-6.531
				c1.408-1.6,3.308-2.4,5.699-2.4c2.371,0,4.264,0.801,5.677,2.4C409.02,320.684,409.727,322.859,409.727,325.615z
				 M406.789,325.615c0-2.189-0.429-3.816-1.286-4.883c-0.857-1.064-2.049-1.596-3.572-1.596c-1.544,0-2.742,0.531-3.595,1.596
				c-0.854,1.066-1.279,2.693-1.279,4.883c0,2.119,0.429,3.727,1.287,4.82c0.857,1.096,2.053,1.643,3.587,1.643
				c1.514,0,2.702-0.543,3.564-1.627C406.358,329.367,406.789,327.754,406.789,325.615z"/>
			<path fill="#FFFFFF" d="M424.681,320.256h-0.151c-0.424-0.1-0.835-0.174-1.233-0.219c-0.399-0.045-0.87-0.068-1.415-0.068
				c-0.879,0-1.727,0.195-2.543,0.582c-0.818,0.389-1.605,0.891-2.361,1.506v12.004h-2.846v-16.908h2.846v2.498
				c1.13-0.908,2.126-1.551,2.989-1.93c0.862-0.379,1.743-0.568,2.642-0.568c0.494,0,0.853,0.014,1.074,0.039
				s0.555,0.072,0.999,0.143V320.256z"/>
			<path fill="#FFFFFF" d="M439.862,333.002c-0.948,0.453-1.849,0.807-2.701,1.059c-0.854,0.252-1.759,0.379-2.717,0.379
				c-1.222,0-2.342-0.18-3.361-0.537c-1.019-0.357-1.892-0.9-2.618-1.627c-0.736-0.727-1.307-1.645-1.71-2.756
				c-0.404-1.109-0.605-2.406-0.605-3.891c0-2.764,0.759-4.934,2.277-6.508s3.524-2.361,6.018-2.361
				c0.969,0,1.919,0.137,2.853,0.408c0.934,0.273,1.789,0.605,2.565,1v3.162h-0.15c-0.868-0.676-1.764-1.195-2.688-1.559
				c-0.923-0.363-1.824-0.545-2.701-0.545c-1.615,0-2.89,0.543-3.822,1.627c-0.934,1.086-1.4,2.678-1.4,4.775
				c0,2.039,0.456,3.605,1.37,4.701c0.913,1.096,2.197,1.643,3.853,1.643c0.574,0,1.16-0.076,1.756-0.229
				c0.595-0.15,1.13-0.348,1.604-0.59c0.414-0.211,0.803-0.436,1.166-0.674c0.363-0.236,0.65-0.441,0.863-0.613h0.15V333.002z"/>
			<path fill="#FFFFFF" d="M457.664,325.902h-12.457c0,1.039,0.156,1.945,0.469,2.717s0.742,1.406,1.287,1.9
				c0.524,0.484,1.147,0.848,1.869,1.09c0.721,0.242,1.516,0.363,2.384,0.363c1.15,0,2.309-0.23,3.474-0.689
				c1.166-0.459,1.996-0.91,2.49-1.355h0.151v3.104c-0.959,0.404-1.938,0.742-2.937,1.014c-0.999,0.273-2.049,0.41-3.148,0.41
				c-2.806,0-4.995-0.76-6.569-2.279c-1.574-1.518-2.361-3.676-2.361-6.471c0-2.764,0.754-4.959,2.263-6.584
				s3.494-2.438,5.957-2.438c2.28,0,4.038,0.666,5.274,1.998s1.854,3.225,1.854,5.676V325.902z M454.895,323.723
				c-0.011-1.494-0.387-2.648-1.128-3.467c-0.742-0.816-1.87-1.227-3.384-1.227c-1.523,0-2.737,0.449-3.64,1.348
				c-0.903,0.898-1.415,2.014-1.536,3.346H454.895z"/>
		</g>
	</g>
	<g>
		<g>
			<path fill="#FFFFFF" d="M108.38,163.158c-0.535,0.142-1.118,0.257-1.749,0.348c-0.63,0.091-1.193,0.136-1.688,0.136
				c-1.726,0-3.038-0.464-3.936-1.393c-0.898-0.928-1.347-2.417-1.347-4.465v-8.991h-1.922v-2.392h1.922v-4.859h2.846v4.859h5.873
				v2.392h-5.873v7.705c0,0.888,0.02,1.582,0.061,2.081c0.04,0.5,0.182,0.967,0.424,1.4c0.222,0.404,0.527,0.699,0.916,0.886
				c0.389,0.187,0.981,0.28,1.779,0.28c0.464,0,0.948-0.068,1.453-0.205c0.504-0.136,0.868-0.25,1.09-0.34h0.151V163.158z"/>
			<path fill="#FFFFFF" d="M141.575,151.472h-17.952v-2.422h17.952V151.472z M141.575,157.83h-17.952v-2.422h17.952V157.83z"/>
			<path fill="#FFFFFF" d="M175.951,153.85h-19.829v-1.816h19.829V153.85z"/>
			<path fill="#FFFFFF" d="M195.659,153.85H175.83v-1.816h19.829V153.85z"/>
			<path fill="#FFFFFF" d="M215.367,153.85h-19.829v-1.816h19.829V153.85z"/>
			<path fill="#FFFFFF" d="M235.075,153.85h-19.829v-1.816h19.829V153.85z"/>
		</g>
		<g>
			<g enable-background="new    ">
				<path fill="#FFFFFF" d="M182.998,140.309H167.74v-3.164c1.06-0.908,2.122-1.816,3.186-2.725
					c1.065-0.908,2.056-1.811,2.975-2.709c1.938-1.877,3.264-3.368,3.981-4.473c0.716-1.105,1.075-2.299,1.075-3.58
					c0-1.171-0.386-2.086-1.158-2.747c-0.771-0.661-1.849-0.991-3.231-0.991c-0.918,0-1.913,0.161-2.982,0.484
					c-1.07,0.322-2.114,0.816-3.133,1.482H168.3v-3.178c0.716-0.354,1.673-0.677,2.868-0.969c1.196-0.293,2.354-0.439,3.474-0.439
					c2.311,0,4.122,0.558,5.434,1.673c1.312,1.115,1.968,2.626,1.968,4.533c0,0.857-0.108,1.657-0.325,2.399
					c-0.217,0.741-0.538,1.445-0.961,2.111c-0.394,0.626-0.855,1.241-1.385,1.847c-0.529,0.605-1.173,1.276-1.93,2.013
					c-1.08,1.061-2.195,2.087-3.345,3.081s-2.225,1.915-3.224,2.763h12.125V140.309z"/>
				<path fill="#FFFFFF" d="M205.37,125.793h-3.058v14.516h-2.846v-14.516h-6.842v14.516h-2.846v-14.516h-3.058v-2.393h18.648
					V125.793z"/>
				<path fill="#FFFFFF" d="M220.294,126.504h-0.151c-0.424-0.101-0.835-0.174-1.233-0.22c-0.399-0.045-0.871-0.067-1.416-0.067
					c-0.878,0-1.726,0.194-2.543,0.582c-0.817,0.389-1.604,0.891-2.361,1.506v12.004h-2.846v-16.908h2.846v2.498
					c1.13-0.908,2.126-1.552,2.99-1.93c0.862-0.379,1.743-0.568,2.641-0.568c0.494,0,0.853,0.014,1.075,0.038
					c0.222,0.025,0.555,0.073,0.999,0.144V126.504z"/>
			</g>
			<g enable-background="new    ">
				<path fill="#FFFFFF" d="M199.988,166.401l-6.842,16.908h-2.861l-6.796-16.908h3.088l5.237,13.457l5.192-13.457H199.988z"/>
			</g>
		</g>
	</g>
</g>
</svg>
