<?xml version="1.0" encoding="utf-8"?>
<!-- Generator: Adobe Illustrator 16.0.0, SVG Export Plug-In . SVG Version: 6.00 Build 0)  -->
<!DOCTYPE svg PUBLIC "-//W3C//DTD SVG 1.1//EN" "http://www.w3.org/Graphics/SVG/1.1/DTD/svg11.dtd">
<svg version="1.1" id="Layer_1" xmlns="http://www.w3.org/2000/svg" xmlns:xlink="http://www.w3.org/1999/xlink" x="0px" y="0px"
	 width="1687.33px" height="2012.23px" viewBox="0 0 1687.33 2012.23" enable-background="new 0 0 1687.33 2012.23"
	 xml:space="preserve">
<g id="Tetra3DFullGroup">
	<g id="back" display="none">
		<rect id="image_1_" x="0.165" display="inline" fill="#130E22" width="1687" height="2012.23"/>
	</g>
	<g id="fruit">
		<g id="fruitoflife">
			<path fill="none" stroke="#FFFFFF" stroke-miterlimit="10" d="M1005.021,1006.136c0,89.155-72.304,161.415-161.396,161.415
				c-89.2,0-161.497-72.252-161.497-161.415c0-89.224,72.295-161.476,161.497-161.476
				C932.729,844.666,1005.021,916.917,1005.021,1006.136z"/>
			<path fill="none" stroke="#FFFFFF" stroke-miterlimit="10" d="M1005.021,683.253c0,89.16-72.304,161.414-161.396,161.414
				c-89.2,0-161.497-72.254-161.497-161.414c0-89.218,72.295-161.47,161.497-161.47
				C932.729,521.784,1005.021,594.036,1005.021,683.253z"/>
			<path fill="none" stroke="#FFFFFF" stroke-miterlimit="10" d="M725.363,844.693c0,89.16-72.294,161.414-161.396,161.414
				c-89.191,0-161.497-72.254-161.497-161.414c0-89.222,72.306-161.474,161.497-161.474
				C653.068,683.223,725.363,755.475,725.363,844.693z"/>
			<path fill="none" stroke="#FFFFFF" stroke-miterlimit="10" d="M725.364,1167.564c0,89.158-72.293,161.414-161.391,161.414
				c-89.195,0-161.491-72.252-161.491-161.414c0-89.223,72.296-161.476,161.491-161.476
				C653.07,1006.095,725.364,1078.348,725.364,1167.564z"/>
			<path fill="none" stroke="#FFFFFF" stroke-miterlimit="10" d="M1005.021,1329.02c0,89.16-72.304,161.412-161.395,161.412
				c-89.202,0-161.498-72.252-161.498-161.412c0-89.221,72.294-161.479,161.498-161.479
				C932.729,1167.551,1005.021,1239.803,1005.021,1329.02z"/>
			<path fill="none" stroke="#FFFFFF" stroke-miterlimit="10" d="M1284.732,1167.578c0,89.162-72.297,161.414-161.396,161.414
				c-89.196,0-161.494-72.252-161.494-161.414c0-89.219,72.298-161.475,161.494-161.475
				C1212.438,1006.107,1284.732,1078.359,1284.732,1167.578z"/>
			<path fill="none" stroke="#FFFFFF" stroke-miterlimit="10" d="M1284.721,844.693c0,89.16-72.293,161.414-161.386,161.414
				c-89.201,0-161.498-72.254-161.498-161.414c0-89.222,72.298-161.473,161.498-161.473
				C1212.428,683.224,1284.721,755.475,1284.721,844.693z"/>
			<path fill="none" stroke="#FFFFFF" stroke-miterlimit="10" d="M1005.126,360.372c0,89.161-72.295,161.414-161.387,161.414
				c-89.201,0-161.497-72.253-161.497-161.414c0-89.219,72.295-161.47,161.497-161.47
				C932.831,198.902,1005.126,271.153,1005.126,360.372z"/>
			<path fill="none" stroke="#FFFFFF" stroke-miterlimit="10" d="M445.743,683.265c0,89.16-72.294,161.414-161.386,161.414
				c-89.201,0-161.5-72.254-161.5-161.414c0-89.225,72.296-161.476,161.5-161.476C373.448,521.796,445.743,594.047,445.743,683.265z
				"/>
			<path fill="none" stroke="#FFFFFF" stroke-miterlimit="10" d="M445.731,1329.031c0,89.164-72.298,161.416-161.396,161.416
				c-89.199,0-161.497-72.252-161.497-161.416c0-89.217,72.292-161.467,161.497-161.467
				C373.438,1167.564,445.731,1239.814,445.731,1329.031z"/>
			<path fill="none" stroke="#FFFFFF" stroke-miterlimit="10" d="M1564.486,1329.021c0,89.158-72.297,161.414-161.396,161.414
				c-89.192,0-161.496-72.252-161.496-161.414c0-89.225,72.304-161.475,161.496-161.475
				C1492.191,1167.553,1564.486,1239.803,1564.486,1329.021z"/>
			<path fill="none" stroke="#FFFFFF" stroke-miterlimit="10" d="M1564.476,683.276c0,89.161-72.296,161.414-161.387,161.414
				c-89.202,0-161.498-72.253-161.498-161.414c0-89.222,72.296-161.473,161.498-161.473
				C1492.18,521.807,1564.476,594.058,1564.476,683.276z"/>
			<path fill="none" stroke="#FFFFFF" stroke-miterlimit="10" d="M1005.109,1651.912c0,89.162-72.302,161.416-161.396,161.416
				c-89.198,0-161.497-72.254-161.497-161.416c0-89.217,72.298-161.467,161.497-161.467
				C932.813,1490.445,1005.109,1562.695,1005.109,1651.912z"/>
		</g>
		<g id="COLOR" opacity="0.3">
			<g>
				<polygon fill="#9999FF" points="842.689,1652.18 936.468,1490.777 749.485,1490.777 				"/>
				<polygon fill="#9999FF" points="842.689,1652.18 936.468,1490.777 749.485,1490.777 				"/>
			</g>
			<g>
				<polyline fill="#9999FF" points="1123.704,1326.889 1262.214,1087.132 1402.067,1329.306 1123.357,1329.006 				"/>
				<polyline fill="#9999FF" points="1123.704,1326.889 1262.214,1087.132 1402.067,1329.306 1123.357,1329.006 				"/>
			</g>
			<g>
				<polygon fill="#9999FF" points="563.083,1329.3 423.212,1087.134 283.343,1329.275 				"/>
				<polygon fill="#9999FF" points="563.083,1329.3 423.212,1087.134 283.343,1329.275 				"/>
			</g>
			<g>
				<polygon fill="#9999FF" points="1122.313,1329.302 842.417,1329.119 935.542,1167.989 1029.084,1167.8 				"/>
				<polygon fill="#9999FF" points="1122.313,1329.302 842.417,1329.119 935.542,1167.989 1029.084,1167.8 				"/>
			</g>
			<g>
				<polygon fill="#9999FF" points="842.417,1329.119 749.786,1168.698 656.301,1167.837 563.055,1329.35 				"/>
				<polygon fill="#9999FF" points="842.417,1329.119 749.786,1168.698 656.301,1167.837 563.055,1329.35 				"/>
			</g>
			<g>
				<polygon fill="#9999FF" points="842.009,1167.989 982.012,925.698 702.005,925.708 				"/>
				<polygon fill="#9999FF" points="842.009,1167.989 982.012,925.698 702.005,925.708 				"/>
			</g>
			<g>
				<polygon fill="#9999FF" points="1028.917,1006.427 1122.307,844.84 935.848,844.958 				"/>
				<polygon fill="#9999FF" points="1028.917,1006.427 1122.307,844.84 935.848,844.958 				"/>
			</g>
			<g>
				<polygon fill="#9999FF" points="1169.434,924.774 1262.164,764.143 1075.613,764.143 				"/>
				<polygon fill="#9999FF" points="1169.434,924.774 1262.164,764.143 1075.613,764.143 				"/>
			</g>
			<g>
				<polygon fill="#9999FF" points="1308.831,845 1402.086,683.524 1215.083,683.526 				"/>
				<polygon fill="#9999FF" points="1308.831,845 1402.086,683.524 1215.083,683.526 				"/>
			</g>
			<g>
				<polygon fill="#9999FF" points="982.575,602.713 702.878,602.795 842.708,360.657 				"/>
				<polygon fill="#9999FF" points="982.575,602.713 702.878,602.795 842.708,360.657 				"/>
			</g>
			<g>
				<polygon fill="#9999FF" points="469.642,683.749 283.331,683.526 376.572,845 				"/>
				<polygon fill="#9999FF" points="469.642,683.749 283.331,683.526 376.572,845 				"/>
			</g>
			<g>
				<polygon fill="#9999FF" points="609.003,764.149 516.104,925.038 423.118,765.668 				"/>
				<polygon fill="#9999FF" points="609.003,764.149 516.104,925.038 423.118,765.668 				"/>
			</g>
			<g>
				<polygon fill="#9999FF" points="749.786,845 562.318,845 656.085,1006.427 				"/>
				<polygon fill="#9999FF" points="749.786,845 562.318,845 656.085,1006.427 				"/>
			</g>
			<g>
				<polygon fill="#9999FF" points="935.99,845.131 889.434,764.508 982.379,602.951 1121.844,845.131 				"/>
				<polygon fill="#9999FF" points="935.99,845.131 889.434,764.508 982.379,602.951 1121.844,845.131 				"/>
			</g>
			<g>
				<polygon fill="#9999FF" points="1121.844,842.994 1028.961,1006.365 1075.402,1086.553 1262.082,1087.049 				"/>
				<polygon fill="#9999FF" points="1121.844,842.994 1028.961,1006.365 1075.402,1086.553 1262.082,1087.049 				"/>
			</g>
			<g>
				<polygon fill="#9999FF" points="701.783,603.77 795.517,763.854 749.15,845 563.083,845 				"/>
				<polygon fill="#9999FF" points="701.783,603.77 795.517,763.854 749.15,845 563.083,845 				"/>
			</g>
			<g>
				<polygon fill="#9999FF" points="656.284,1005.896 609.141,1087.53 423.118,1086.706 562.482,845 				"/>
				<polygon fill="#9999FF" points="656.284,1005.896 609.141,1087.53 423.118,1086.706 562.482,845 				"/>
			</g>
			<g>
				<polygon fill="#9999FF" points="748.917,1328.261 842.417,1490.229 936.469,1329.119 				"/>
				<polygon fill="#9999FF" points="748.917,1328.261 842.417,1490.229 936.469,1329.119 				"/>
			</g>
			<g>
				<polygon fill="#9999FF" points="749.786,1168.698 843.576,1329.617 935.542,1167.989 				"/>
				<polygon fill="#9999FF" points="749.786,1168.698 843.576,1329.617 935.542,1167.989 				"/>
			</g>
		</g>
	</g>
	<g id="VE">
		<circle fill="none" stroke="#FFFFFF" stroke-width="4" cx="843.665" cy="1006.115" r="726.798"/>
		<line fill="none" stroke="#FFFFFF" stroke-width="4" x1="562.938" y1="1167.809" x2="283.298" y2="1006.404"/>
		<line fill="none" stroke="#FFFFFF" stroke-width="4" x1="843.034" y1="683.363" x2="1122.431" y2="522.115"/>
		<line fill="none" stroke="#FFFFFF" stroke-width="4" x1="1122.426" y1="1167.859" x2="1122.42" y2="1490.73"/>
		<line fill="none" stroke="#FFFFFF" stroke-width="4" x1="563.025" y1="1490.741" x2="563.02" y2="1167.832"/>
		<line fill="none" stroke="#FFFFFF" stroke-width="4" x1="563.012" y1="522.08" x2="842.803" y2="683.586"/>
		<line fill="none" stroke="#FFFFFF" stroke-width="4" x1="1402.051" y1="1006.404" x2="1123.704" y2="1167.084"/>
		<line fill="none" stroke="#FFFFFF" stroke-width="4" x1="1308.756" y1="1167.99" x2="1402.051" y2="1006.404"/>
		<line fill="none" stroke="#FFFFFF" stroke-width="4" x1="1122.415" y1="1490.73" x2="1215.724" y2="1329.12"/>
		<line fill="none" stroke="#FFFFFF" stroke-width="4" x1="1402.051" y1="1006.404" x2="1308.547" y2="844.46"/>
		<line fill="none" stroke="#FFFFFF" stroke-width="4" x1="1215.677" y1="683.613" x2="1122.431" y2="522.115"/>
		<line fill="none" stroke="#FFFFFF" stroke-width="4" x1="749.786" y1="522.104" x2="563.012" y2="522.092"/>
		<line fill="none" stroke="#FFFFFF" stroke-width="4" x1="1122.431" y1="522.104" x2="935.848" y2="522.092"/>
		<line fill="none" stroke="#FFFFFF" stroke-width="4" x1="376.52" y1="844.99" x2="283.298" y2="1006.404"/>
		<line fill="none" stroke="#FFFFFF" stroke-width="4" x1="563.012" y1="522.08" x2="469.506" y2="683.985"/>
		<line fill="none" stroke="#FFFFFF" stroke-width="4" x1="283.298" y1="1006.404" x2="376.822" y2="1168.336"/>
		<line fill="none" stroke="#FFFFFF" stroke-width="4" x1="469.191" y1="1328.262" x2="563.034" y2="1490.741"/>
		<line fill="none" stroke="#FFFFFF" stroke-width="4" x1="937.268" y1="1490.737" x2="1122.415" y2="1490.734"/>
		<line fill="none" stroke="#FFFFFF" stroke-width="4" x1="563.034" y1="1490.741" x2="749.485" y2="1490.73"/>
		<line fill="none" stroke="#FFFFFF" stroke-width="4" x1="469.848" y1="1006.404" x2="283.298" y2="1006.404"/>
		<line fill="none" stroke="#FFFFFF" stroke-width="4" x1="1402.051" y1="1006.404" x2="1215.799" y2="1006.404"/>
		<line fill="none" stroke="#FFFFFF" stroke-width="4" x1="563.034" y1="1490.741" x2="656.085" y2="1329.618"/>
		<line fill="none" stroke="#FFFFFF" stroke-width="4" x1="1029.084" y1="683.75" x2="1122.431" y2="522.115"/>
		<line fill="none" stroke="#FFFFFF" stroke-width="4" x1="656.359" y1="683.719" x2="563.012" y2="522.08"/>
		<line fill="none" stroke="#FFFFFF" stroke-width="4" x1="1122.415" y1="1490.73" x2="1028.917" y2="1328.832"/>
	</g>
	<g id="sixtyFour">
		<line fill="none" stroke="#FFFFFF" x1="842.689" y1="1652.18" x2="842.708" y2="1006.115"/>
		<line fill="none" stroke="#FFFFFF" x1="843.665" y1="1005.85" x2="1402.086" y2="683.52"/>
		<line fill="none" stroke="#FFFFFF" x1="842.171" y1="1006.115" x2="283.331" y2="683.531"/>
		<line fill="none" stroke="#FFFFFF" x1="470.316" y1="683.525" x2="283.331" y2="683.527"/>
		<line fill="none" stroke="#FFFFFF" x1="1402.086" y1="683.525" x2="1215.083" y2="683.527"/>
		<line fill="none" stroke="#FFFFFF" x1="562.758" y1="844.93" x2="749.786" y2="845.002"/>
		<line fill="none" stroke="#FFFFFF" x1="702.87" y1="602.803" x2="982.628" y2="602.803"/>
		<line fill="none" stroke="#FFFFFF" x1="1169.434" y1="924.775" x2="1262.164" y2="764.145"/>
		<line fill="none" stroke="#FFFFFF" x1="889.165" y1="764.512" x2="982.575" y2="602.715"/>
		<line fill="none" stroke="#FFFFFF" x1="562.969" y1="1167.98" x2="842.751" y2="683.469"/>
		<line fill="none" stroke="#FFFFFF" x1="1402.086" y1="683.52" x2="1308.831" y2="845.002"/>
		<line fill="none" stroke="#FFFFFF" x1="283.342" y1="1329.276" x2="842.708" y2="360.658"/>
		<line fill="none" stroke="#FFFFFF" x1="516.49" y1="925.709" x2="423.204" y2="764.15"/>
		<line fill="none" stroke="#FFFFFF" x1="1122.43" y1="1167.99" x2="842.702" y2="683.498"/>
		<line fill="none" stroke="#FFFFFF" x1="795.016" y1="762.373" x2="702.878" y2="602.797"/>
		<line fill="none" stroke="#FFFFFF" x1="376.572" y1="845.002" x2="283.331" y2="683.531"/>
		<line fill="none" stroke="#FFFFFF" x1="842.708" y1="360.658" x2="1402.066" y2="1329.307"/>
		<line fill="none" stroke="#FFFFFF" x1="656.085" y1="1006.428" x2="562.777" y2="844.838"/>
		<line fill="none" stroke="#FFFFFF" x1="1262.164" y1="764.145" x2="1075.613" y2="764.145"/>
		<line fill="none" stroke="#FFFFFF" x1="423.204" y1="764.15" x2="609.696" y2="764.15"/>
		<line fill="none" stroke="#FFFFFF" x1="935.848" y1="844.959" x2="1122.875" y2="844.975"/>
		<line fill="none" stroke="#FFFFFF" x1="843.225" y1="1489.787" x2="936.469" y2="1328.262"/>
		<line fill="none" stroke="#FFFFFF" x1="936.467" y1="1489.794" x2="842.689" y2="1652.18"/>
		<line fill="none" stroke="#FFFFFF" x1="842.734" y1="1490.778" x2="749.178" y2="1328.755"/>
		<line fill="none" stroke="#FFFFFF" x1="842.689" y1="1652.18" x2="748.917" y2="1489.794"/>
		<line fill="none" stroke="#FFFFFF" x1="936.467" y1="1166.39" x2="842.417" y2="1329.12"/>
		<line fill="none" stroke="#FFFFFF" x1="1122.307" y1="844.842" x2="1028.917" y2="1006.428"/>
		<line fill="none" stroke="#FFFFFF" x1="842.417" y1="1329.12" x2="748.917" y2="1167.194"/>
		<line fill="none" stroke="#FFFFFF" x1="702.005" y1="925.709" x2="982.012" y2="925.699"/>
		<line fill="none" stroke="#FFFFFF" x1="842.008" y1="1167.99" x2="982.012" y2="925.699"/>
		<line fill="none" stroke="#FFFFFF" x1="842.008" y1="1167.99" x2="702.005" y2="925.709"/>
		<line fill="none" stroke="#FFFFFF" x1="283.342" y1="1329.276" x2="1402.066" y2="1329.307"/>
		<line fill="none" stroke="#FFFFFF" x1="562.777" y1="1167.869" x2="1122.657" y2="1167.859"/>
		<line fill="none" stroke="#FFFFFF" x1="1075.622" y1="1087.135" x2="1262.215" y2="1087.133"/>
		<line fill="none" stroke="#FFFFFF" x1="1262.146" y1="1087.094" x2="1122.311" y2="1329.303"/>
		<line fill="none" stroke="#FFFFFF" x1="563.055" y1="1329.351" x2="656.301" y2="1167.838"/>
		<line fill="none" stroke="#FFFFFF" x1="1122.348" y1="1329.327" x2="1029.084" y2="1167.801"/>
		<line fill="none" stroke="#FFFFFF" x1="563.083" y1="1329.301" x2="423.202" y2="1087.024"/>
		<line fill="none" stroke="#FFFFFF" x1="423.212" y1="1087.135" x2="609.003" y2="1087.133"/>
		<line fill="none" stroke="#FFFFFF" x1="469.506" y1="683.985" x2="376.573" y2="844.899"/>
		<line fill="none" stroke="#FFFFFF" x1="1308.161" y1="843.791" x2="1215.389" y2="683.113"/>
		<line fill="none" stroke="#FFFFFF" x1="747.419" y1="1490.741" x2="938.03" y2="1490.73"/>
	</g>
	<g id="hexagon">
		<polygon fill="#FFFFFF" fill-opacity="0" stroke="#FFE86D" stroke-opacity="0" points="2.665,521.115 843.665,35.115 
			1684.665,521.115 1684.665,1492.115 843.665,1977.115 2.665,1492.115 		"/>
	</g>
</g>
</svg>
