<?xml version="1.0" encoding="utf-8"?>
<!-- Generator: Adobe Illustrator 16.0.0, SVG Export Plug-In . SVG Version: 6.00 Build 0)  -->
<!DOCTYPE svg PUBLIC "-//W3C//DTD SVG 1.1//EN" "http://www.w3.org/Graphics/SVG/1.1/DTD/svg11.dtd">
<svg version="1.1" id="Layer_1" xmlns="http://www.w3.org/2000/svg" xmlns:xlink="http://www.w3.org/1999/xlink" x="0px" y="0px"
	 width="1683.969px" height="1984.252px" viewBox="0 0 1683.969 1984.252" enable-background="new 0 0 1683.969 1984.252"
	 xml:space="preserve">
<g id="_x36_4Tetra3DFullGroup">
	<g id="back" display="none">
		<rect id="image" y="-13.988" display="inline" fill="#130E22" width="1683.969" height="2012.229"/>
	</g>
	<g id="sixtyFour">
		<g>
			<line fill="none" stroke="#FFFFFF" stroke-miterlimit="10" x1="842.024" y1="346.29" x2="842.005" y2="1153.506"/>
			<line fill="none" stroke="#FFFFFF" stroke-miterlimit="10" x1="981.701" y1="911.422" x2="282.635" y2="1314.961"/>
			<line fill="none" stroke="#FFFFFF" stroke-miterlimit="10" x1="702.276" y1="911.422" x2="1401.341" y2="1314.925"/>
			<line fill="none" stroke="#FFFFFF" stroke-miterlimit="10" x1="842.851" y1="669.658" x2="1121.934" y2="830.753"/>
			<line fill="none" stroke="#FFFFFF" stroke-miterlimit="10" x1="1121.934" y1="1153.365" x2="841.487" y2="1315.229"/>
			<line fill="none" stroke="#FFFFFF" stroke-miterlimit="10" x1="562.276" y1="1153.401" x2="562.294" y2="830.07"/>
			<line fill="none" stroke="#FFFFFF" stroke-miterlimit="10" x1="1121.686" y1="830.07" x2="1121.735" y2="1153.653"/>
			<line fill="none" stroke="#FFFFFF" stroke-miterlimit="10" x1="842.851" y1="1315.411" x2="562.276" y2="1153.472"/>
			<line fill="none" stroke="#FFFFFF" stroke-miterlimit="10" x1="561.881" y1="830.896" x2="841.827" y2="669.265"/>
			<line fill="none" stroke="#FFFFFF" stroke-miterlimit="10" x1="422.473" y1="1072.765" x2="981.771" y2="749.9"/>
			<line fill="none" stroke="#FFFFFF" stroke-miterlimit="10" x1="981.845" y1="588.468" x2="981.845" y2="1234.47"/>
			<line fill="none" stroke="#FFFFFF" stroke-miterlimit="10" x1="702.133" y1="588.413" x2="702.133" y2="1233.034"/>
			<line fill="none" stroke="#FFFFFF" stroke-miterlimit="10" x1="701.881" y1="750.007" x2="1261.52" y2="1072.749"/>
			<line fill="none" stroke="#FFFFFF" stroke-miterlimit="10" x1="561.881" y1="991.737" x2="1121.934" y2="1314.727"/>
			<line fill="none" stroke="#FFFFFF" stroke-miterlimit="10" x1="562.33" y1="1314.995" x2="1121.649" y2="992.079"/>
			<line fill="none" stroke="#FFFFFF" stroke-miterlimit="10" x1="282.635" y1="1314.961" x2="1401.341" y2="1314.925"/>
			<line fill="none" stroke="#FFFFFF" stroke-miterlimit="10" x1="562.151" y1="992.079" x2="1121.934" y2="992.079"/>
			<line fill="none" stroke="#FFFFFF" stroke-miterlimit="10" x1="702.168" y1="588.468" x2="981.845" y2="588.468"/>
			<line fill="none" stroke="#FFFFFF" stroke-miterlimit="10" x1="982.474" y1="749.9" x2="701.521" y2="749.935"/>
			<line fill="none" stroke="#FFFFFF" stroke-miterlimit="10" x1="1121.686" y1="830.608" x2="562.294" y2="830.625"/>
			<line fill="none" stroke="#FFFFFF" stroke-miterlimit="10" x1="981.701" y1="911.317" x2="702.276" y2="911.352"/>
			<line fill="none" stroke="#FFFFFF" stroke-miterlimit="10" x1="1261.52" y1="1072.749" x2="422.473" y2="1072.765"/>
			<line fill="none" stroke="#FFFFFF" stroke-miterlimit="10" x1="1121.934" y1="1153.545" x2="562.276" y2="1153.472"/>
			<line fill="none" stroke="#FFFFFF" stroke-miterlimit="10" x1="1261.52" y1="1234.197" x2="422.473" y2="1234.252"/>
			<line fill="none" stroke="#FFFFFF" stroke-miterlimit="10" x1="841.487" y1="508.675" x2="422.564" y2="1234.324"/>
			<line fill="none" stroke="#FFFFFF" stroke-miterlimit="10" x1="841.72" y1="669.658" x2="562.438" y2="1153.401"/>
			<line fill="none" stroke="#FFFFFF" stroke-miterlimit="10" x1="981.845" y1="588.413" x2="562.347" y2="1314.995"/>
			<line fill="none" stroke="#FFFFFF" stroke-miterlimit="10" x1="981.701" y1="911.567" x2="842.005" y2="1153.506"/>
			<line fill="none" stroke="#FFFFFF" stroke-miterlimit="10" x1="1122.004" y1="830.07" x2="841.827" y2="1315.229"/>
			<line fill="none" stroke="#FFFFFF" stroke-miterlimit="10" x1="1121.593" y1="992.079" x2="981.845" y2="1234.129"/>
			<line fill="none" stroke="#FFFFFF" stroke-miterlimit="10" x1="1261.466" y1="1072.783" x2="1121.574" y2="1315.033"/>
			<line fill="none" stroke="#FFFFFF" stroke-miterlimit="10" x1="282.635" y1="1314.961" x2="842.024" y2="346.29"/>
			<line fill="none" stroke="#FFFFFF" stroke-miterlimit="10" x1="981.808" y1="749.9" x2="702.796" y2="1233.034"/>
			<line fill="none" stroke="#FFFFFF" stroke-miterlimit="10" x1="841.933" y1="507.706" x2="1261.52" y2="1234.324"/>
			<line fill="none" stroke="#FFFFFF" stroke-miterlimit="10" x1="562.401" y1="1314.995" x2="422.564" y2="1072.765"/>
			<line fill="none" stroke="#FFFFFF" stroke-miterlimit="10" x1="562.294" y1="992.079" x2="702.205" y2="1234.324"/>
			<line fill="none" stroke="#FFFFFF" stroke-miterlimit="10" x1="562.042" y1="830.032" x2="841.487" y2="1314.024"/>
			<line fill="none" stroke="#FFFFFF" stroke-miterlimit="10" x1="702.276" y1="911.53" x2="842.005" y2="1153.472"/>
			<line fill="none" stroke="#FFFFFF" stroke-miterlimit="10" x1="702.133" y1="588.413" x2="1121.686" y2="1315.033"/>
			<line fill="none" stroke="#FFFFFF" stroke-miterlimit="10" x1="842.076" y1="669.265" x2="1121.504" y2="1153.365"/>
			<line fill="none" stroke="#FFFFFF" stroke-miterlimit="10" x1="701.576" y1="748.931" x2="981.845" y2="1234.179"/>
			<line fill="none" stroke="#FFFFFF" stroke-miterlimit="10" x1="842.024" y1="346.29" x2="1401.341" y2="1314.925"/>
			<line fill="none" stroke="#FFFFFF" stroke-miterlimit="10" x1="1121.504" y1="1315.033" x2="1261.52" y2="1234.197"/>
			<line fill="none" stroke="#FFFFFF" stroke-miterlimit="10" x1="1261.52" y1="1234.197" x2="1261.52" y2="1072.749"/>
			<line fill="none" stroke="#FFFFFF" stroke-miterlimit="10" x1="841.988" y1="507.706" x2="702.168" y2="588.45"/>
			<line fill="none" stroke="#FFFFFF" stroke-miterlimit="10" x1="422.473" y1="1234.252" x2="562.33" y2="1314.961"/>
			<line fill="none" stroke="#FFFFFF" stroke-miterlimit="10" x1="422.473" y1="1072.765" x2="422.473" y2="1234.252"/>
			<line fill="none" stroke="#FFFFFF" stroke-miterlimit="10" x1="981.845" y1="588.413" x2="841.988" y2="507.706"/>
		</g>
		<g>
			<line fill="none" stroke="#FFFFFF" stroke-miterlimit="10" x1="841.451" y1="1637.793" x2="841.471" y2="830.577"/>
			<line fill="none" stroke="#FFFFFF" stroke-miterlimit="10" x1="701.774" y1="1072.661" x2="1400.841" y2="669.122"/>
			<line fill="none" stroke="#FFFFFF" stroke-miterlimit="10" x1="981.199" y1="1072.661" x2="282.135" y2="669.158"/>
			<line fill="none" stroke="#FFFFFF" stroke-miterlimit="10" x1="840.625" y1="1314.425" x2="561.542" y2="1153.329"/>
			<line fill="none" stroke="#FFFFFF" stroke-miterlimit="10" x1="561.542" y1="830.717" x2="841.988" y2="668.854"/>
			<line fill="none" stroke="#FFFFFF" stroke-miterlimit="10" x1="1121.199" y1="830.681" x2="1121.182" y2="1154.013"/>
			<line fill="none" stroke="#FFFFFF" stroke-miterlimit="10" x1="561.79" y1="1154.013" x2="561.74" y2="830.429"/>
			<line fill="none" stroke="#FFFFFF" stroke-miterlimit="10" x1="840.625" y1="668.671" x2="1121.199" y2="830.611"/>
			<line fill="none" stroke="#FFFFFF" stroke-miterlimit="10" x1="1121.595" y1="1153.188" x2="841.648" y2="1314.817"/>
			<line fill="none" stroke="#FFFFFF" stroke-miterlimit="10" x1="1261.003" y1="911.318" x2="701.704" y2="1234.183"/>
			<line fill="none" stroke="#FFFFFF" stroke-miterlimit="10" x1="701.631" y1="1395.614" x2="701.631" y2="749.613"/>
			<line fill="none" stroke="#FFFFFF" stroke-miterlimit="10" x1="981.343" y1="1395.669" x2="981.343" y2="751.048"/>
			<line fill="none" stroke="#FFFFFF" stroke-miterlimit="10" x1="981.595" y1="1234.075" x2="421.956" y2="911.333"/>
			<line fill="none" stroke="#FFFFFF" stroke-miterlimit="10" x1="1121.595" y1="992.345" x2="561.542" y2="669.356"/>
			<line fill="none" stroke="#FFFFFF" stroke-miterlimit="10" x1="1121.146" y1="669.087" x2="561.826" y2="992.003"/>
			<line fill="none" stroke="#FFFFFF" stroke-miterlimit="10" x1="1400.841" y1="669.122" x2="282.135" y2="669.158"/>
			<line fill="none" stroke="#FFFFFF" stroke-miterlimit="10" x1="1121.324" y1="992.003" x2="561.542" y2="992.003"/>
			<line fill="none" stroke="#FFFFFF" stroke-miterlimit="10" x1="981.308" y1="1395.614" x2="701.631" y2="1395.614"/>
			<line fill="none" stroke="#FFFFFF" stroke-miterlimit="10" x1="701.002" y1="1234.183" x2="981.954" y2="1234.146"/>
			<line fill="none" stroke="#FFFFFF" stroke-miterlimit="10" x1="561.79" y1="1153.474" x2="1121.182" y2="1153.458"/>
			<line fill="none" stroke="#FFFFFF" stroke-miterlimit="10" x1="701.774" y1="1072.765" x2="981.199" y2="1072.73"/>
			<line fill="none" stroke="#FFFFFF" stroke-miterlimit="10" x1="421.956" y1="911.333" x2="1261.003" y2="911.318"/>
			<line fill="none" stroke="#FFFFFF" stroke-miterlimit="10" x1="561.542" y1="830.538" x2="1121.199" y2="830.611"/>
			<line fill="none" stroke="#FFFFFF" stroke-miterlimit="10" x1="421.956" y1="749.885" x2="1261.003" y2="749.831"/>
			<line fill="none" stroke="#FFFFFF" stroke-miterlimit="10" x1="841.988" y1="1475.408" x2="1260.911" y2="749.758"/>
			<line fill="none" stroke="#FFFFFF" stroke-miterlimit="10" x1="841.756" y1="1314.425" x2="1121.038" y2="830.681"/>
			<line fill="none" stroke="#FFFFFF" stroke-miterlimit="10" x1="701.631" y1="1395.669" x2="1121.129" y2="669.087"/>
			<line fill="none" stroke="#FFFFFF" stroke-miterlimit="10" x1="701.774" y1="1072.515" x2="841.471" y2="830.577"/>
			<line fill="none" stroke="#FFFFFF" stroke-miterlimit="10" x1="561.472" y1="1154.013" x2="841.648" y2="668.854"/>
			<line fill="none" stroke="#FFFFFF" stroke-miterlimit="10" x1="561.883" y1="992.003" x2="701.631" y2="749.954"/>
			<line fill="none" stroke="#FFFFFF" stroke-miterlimit="10" x1="422.01" y1="911.299" x2="561.901" y2="669.049"/>
			<line fill="none" stroke="#FFFFFF" stroke-miterlimit="10" x1="1400.841" y1="669.122" x2="841.451" y2="1637.793"/>
			<line fill="none" stroke="#FFFFFF" stroke-miterlimit="10" x1="701.668" y1="1234.183" x2="980.68" y2="751.048"/>
			<line fill="none" stroke="#FFFFFF" stroke-miterlimit="10" x1="841.543" y1="1476.377" x2="421.956" y2="749.758"/>
			<line fill="none" stroke="#FFFFFF" stroke-miterlimit="10" x1="1121.074" y1="669.087" x2="1260.911" y2="911.318"/>
			<line fill="none" stroke="#FFFFFF" stroke-miterlimit="10" x1="1121.182" y1="992.003" x2="981.271" y2="749.758"/>
			<line fill="none" stroke="#FFFFFF" stroke-miterlimit="10" x1="1121.434" y1="1154.05" x2="841.988" y2="670.058"/>
			<line fill="none" stroke="#FFFFFF" stroke-miterlimit="10" x1="981.199" y1="1072.552" x2="841.471" y2="830.611"/>
			<line fill="none" stroke="#FFFFFF" stroke-miterlimit="10" x1="981.343" y1="1395.669" x2="561.79" y2="669.049"/>
			<line fill="none" stroke="#FFFFFF" stroke-miterlimit="10" x1="841.399" y1="1314.817" x2="561.972" y2="830.717"/>
			<line fill="none" stroke="#FFFFFF" stroke-miterlimit="10" x1="981.899" y1="1235.151" x2="701.631" y2="749.904"/>
			<line fill="none" stroke="#FFFFFF" stroke-miterlimit="10" x1="841.451" y1="1637.793" x2="282.135" y2="669.158"/>
			<line fill="none" stroke="#FFFFFF" stroke-miterlimit="10" x1="561.972" y1="669.049" x2="421.956" y2="749.885"/>
			<line fill="none" stroke="#FFFFFF" stroke-miterlimit="10" x1="421.956" y1="749.885" x2="421.956" y2="911.333"/>
			<line fill="none" stroke="#FFFFFF" stroke-miterlimit="10" x1="841.487" y1="1476.377" x2="981.308" y2="1395.632"/>
			<line fill="none" stroke="#FFFFFF" stroke-miterlimit="10" x1="1261.003" y1="749.831" x2="1121.146" y2="669.122"/>
			<line fill="none" stroke="#FFFFFF" stroke-miterlimit="10" x1="1261.003" y1="911.318" x2="1261.003" y2="749.831"/>
			<line fill="none" stroke="#FFFFFF" stroke-miterlimit="10" x1="701.631" y1="1395.669" x2="841.487" y2="1476.377"/>
		</g>
		<circle id="border" display="none" fill="none" stroke="#FFFFFF" stroke-width="6" cx="841.983" cy="992.126" r="726.798"/>
		<g>
			<g>
				<g>
					<path fill="none" stroke="#FFFFFF" d="M701.289,914.447C836.343,835.269,881.642,661.6,802.463,526.545
						c-79.175-135.057-252.845-180.354-387.899-101.177"/>
					<path fill="none" stroke="#FFFFFF" d="M313.386,813.269"/>
					<path fill="none" stroke="#FFFFFF" d="M701.174,914.25c-135.002,79.144-289.301,96.077-429.638,59.474"/>
					<path fill="none" stroke="#FFFFFF" d="M152.777,771.376c36.579-140.397,126.736-266.833,261.788-346.008"/>
					<path fill="none" stroke="#FFFFFF" d="M152.777,771.376c-23.137,88.703,30.016,179.368,118.719,202.501"/>
					<path fill="none" stroke="#FFFFFF" d="M473.996,855.161"/>
				</g>
				<g>
					<path fill="none" stroke="#FFFFFF" d="M980.771,914.447C845.717,835.269,800.418,661.6,879.597,526.545
						c79.175-135.057,252.845-180.354,387.899-101.177"/>
					<path fill="none" stroke="#FFFFFF" d="M1368.674,813.269"/>
					<path fill="none" stroke="#FFFFFF" d="M980.887,914.25c135.002,79.144,289.301,96.077,429.637,59.474"/>
					<path fill="none" stroke="#FFFFFF" d="M1529.283,771.376c-36.578-140.397-126.736-266.833-261.787-346.008"/>
					<path fill="none" stroke="#FFFFFF" d="M1529.283,771.376c23.137,88.703-30.016,179.368-118.719,202.501"/>
					<path fill="none" stroke="#FFFFFF" d="M1208.064,855.161"/>
				</g>
			</g>
			<g>
				<g>
					<path fill="none" stroke="#FFFFFF" d="M980.771,1069.181c-135.054,79.178-180.353,252.848-101.174,387.902
						c79.175,135.055,252.845,180.352,387.898,101.176"/>
					<path fill="none" stroke="#FFFFFF" d="M1368.674,1170.358"/>
					<path fill="none" stroke="#FFFFFF" d="M980.886,1069.378c135.002-79.144,289.302-96.078,429.638-59.475"/>
					<path fill="none" stroke="#FFFFFF" d="M1529.283,1212.251c-36.579,140.398-126.736,266.834-261.788,346.008"/>
					<path fill="none" stroke="#FFFFFF" d="M1529.283,1212.251c23.137-88.703-30.017-179.369-118.72-202.502"/>
					<path fill="none" stroke="#FFFFFF" d="M1208.063,1128.466"/>
				</g>
				<g>
					<path fill="none" stroke="#FFFFFF" d="M701.289,1069.181c135.055,79.178,180.353,252.848,101.174,387.902
						c-79.175,135.055-252.845,180.352-387.899,101.176"/>
					<path fill="none" stroke="#FFFFFF" d="M313.386,1170.358"/>
					<path fill="none" stroke="#FFFFFF" d="M701.173,1069.378c-135.002-79.144-289.301-96.078-429.637-59.475"/>
					<path fill="none" stroke="#FFFFFF" d="M152.776,1212.251c36.578,140.398,126.736,266.834,261.787,346.008"/>
					<path fill="none" stroke="#FFFFFF" d="M152.776,1212.251c-23.136-88.703,30.016-179.369,118.719-202.502"/>
					<path fill="none" stroke="#FFFFFF" d="M473.995,1128.466"/>
				</g>
			</g>
		</g>
		<line fill="none" stroke="#FFFFFF" x1="414.563" y1="991.784" x2="1269.405" y2="991.784"/>
		<circle id="border_1_" fill="none" stroke="#FFFFFF" cx="841.984" cy="992.126" r="726.798"/>
	</g>
	<g id="fruit">
		<g>
			<path fill="none" stroke="#FFFFFF" d="M1003.332,992.205c0,89.435-72.331,161.333-161.343,161.333
				c-89.193,0-161.346-72.322-161.346-161.333c0-89.253,72.271-161.354,161.346-161.354
				C931.081,830.73,1003.332,902.951,1003.332,992.205z"/>
			<path fill="none" stroke="#FFFFFF" d="M1003.332,669.316c0,89.213-72.331,161.333-161.343,161.333
				c-89.193,0-161.346-72.321-161.346-161.333c0-89.454,72.271-161.354,161.346-161.354
				C931.081,507.882,1003.332,580.164,1003.332,669.316z"/>
			<path fill="none" stroke="#FFFFFF" d="M723.748,830.73c0,89.271-72.331,161.353-161.344,161.353
				c-89.284,0-161.347-72.34-161.347-161.354c0-89.214,72.332-161.332,161.347-161.332
				C651.438,669.276,723.748,741.517,723.748,830.73z"/>
			<path fill="none" stroke="#FFFFFF" d="M723.748,1153.597c0,89.354-72.331,161.335-161.344,161.335
				c-89.284,0-161.347-72.341-161.347-161.335c0-89.392,72.332-161.352,161.347-161.352
				C651.438,992.146,723.748,1064.306,723.748,1153.597z"/>
			<path fill="none" stroke="#FFFFFF" d="M1003.332,1314.992c0,89.452-72.331,161.354-161.343,161.354
				c-89.193,0-161.346-72.341-161.346-161.354c0-89.415,72.271-161.335,161.346-161.335
				C931.081,1153.561,1003.332,1225.779,1003.332,1314.992z"/>
			<path fill="none" stroke="#FFFFFF" d="M1282.998,1153.597c0,89.354-72.331,161.335-161.344,161.335
				c-89.193,0-161.347-72.341-161.347-161.335c0-89.352,72.332-161.352,161.347-161.352
				C1210.667,992.245,1282.998,1064.344,1282.998,1153.597z"/>
			<path fill="none" stroke="#FFFFFF" d="M1282.998,830.73c0,89.271-72.331,161.353-161.344,161.353
				c-89.193,0-161.347-72.34-161.347-161.354c0-89.214,72.332-161.332,161.347-161.332
				C1210.667,669.376,1282.998,741.517,1282.998,830.73z"/>
			<path fill="none" stroke="#FFFFFF" d="M1003.433,346.529c0,89.112-72.331,161.334-161.343,161.334
				c-89.424,0-161.345-72.322-161.345-161.334c0-89.453,72.333-161.535,161.345-161.535
				C931.201,185.056,1003.433,257.255,1003.433,346.529z"/>
			<path fill="none" stroke="#FFFFFF" d="M444.152,669.356c0,89.149-72.331,161.334-161.346,161.334
				c-89.214,0-161.345-72.321-161.345-161.334c0-89.232,72.332-161.354,161.345-161.354
				C371.84,507.882,444.152,580.164,444.152,669.356z"/>
			<path fill="none" stroke="#FFFFFF" d="M444.152,1314.992c0,89.452-72.331,161.354-161.346,161.354
				c-89.214,0-161.345-72.341-161.345-161.354c0-89.415,72.332-161.335,161.345-161.335
				C371.821,1153.657,444.152,1225.779,444.152,1314.992z"/>
			<path fill="none" stroke="#FFFFFF" d="M1562.734,1314.992c0,89.452-72.333,161.354-161.348,161.354
				c-89.44,0-161.439-72.341-161.439-161.354c0-89.415,72.331-161.335,161.439-161.335
				C1490.401,1153.561,1562.734,1225.779,1562.734,1314.992z"/>
			<path fill="none" stroke="#FFFFFF" d="M1562.734,669.356c0,89.213-72.333,161.334-161.348,161.334
				c-89.44,0-161.439-72.321-161.439-161.334c0-89.232,72.331-161.354,161.439-161.354
				C1490.401,507.923,1562.734,580.164,1562.734,669.356z"/>
			<path fill="none" stroke="#FFFFFF" d="M1003.394,1637.778c0,89.174-72.331,161.354-161.344,161.354
				c-89.441,0-161.344-72.341-161.344-161.354c0-89.438,72.291-161.354,161.344-161.354
				C931.162,1476.387,1003.394,1548.625,1003.394,1637.778z"/>
		</g>
	</g>
	<g id="hexagon">
		<polygon fill="#FFFFFF" fill-opacity="0" stroke="#FFE86D" stroke-miterlimit="10" stroke-opacity="0" points="-7,507 834,21 
			1675,507 1675,1478 834,1963 -7,1478 		"/>
	</g>
</g>
</svg>
