<?xml version="1.0" encoding="utf-8"?>
<!-- Generator: Adobe Illustrator 16.0.0, SVG Export Plug-In . SVG Version: 6.00 Build 0)  -->
<!DOCTYPE svg PUBLIC "-//W3C//DTD SVG 1.1//EN" "http://www.w3.org/Graphics/SVG/1.1/DTD/svg11.dtd">
<svg version="1.1" id="Layer_1" xmlns="http://www.w3.org/2000/svg" xmlns:xlink="http://www.w3.org/1999/xlink" x="0px" y="0px"
	 width="1687.33px" height="2012.23px" viewBox="0 0 1687.33 2012.23" enable-background="new 0 0 1687.33 2012.23"
	 xml:space="preserve">
<g id="Tetra3DFullGroup">
	<g id="back" display="none">
		<rect id="image" y="0.001" display="inline" fill="#130E22" width="1687.33" height="2012.229"/>
	</g>
	<g id="fruit">
		<g>
			<path fill="none" stroke="#FFFFFF" d="M1005.02,1006.135c0,89.156-72.301,161.414-161.392,161.414
				c-89.201,0-161.497-72.252-161.497-161.414c0-89.223,72.296-161.475,161.497-161.475
				C932.725,844.665,1005.02,916.917,1005.02,1006.135z"/>
			<path fill="none" stroke="#FFFFFF" d="M1005.02,683.253c0,89.16-72.301,161.414-161.392,161.414
				c-89.201,0-161.497-72.254-161.497-161.414c0-89.218,72.296-161.47,161.497-161.47
				C932.725,521.783,1005.02,594.035,1005.02,683.253z"/>
			<path fill="none" stroke="#FFFFFF" d="M725.36,844.692c0,89.159-72.294,161.414-161.393,161.414
				c-89.194,0-161.497-72.255-161.497-161.414c0-89.219,72.303-161.471,161.497-161.471
				C653.066,683.223,725.36,755.475,725.36,844.692z"/>
			<path fill="none" stroke="#FFFFFF" d="M725.363,1167.563c0,89.162-72.294,161.414-161.388,161.414
				c-89.199,0-161.496-72.252-161.496-161.414c0-89.218,72.297-161.47,161.496-161.47
				C653.068,1006.095,725.363,1078.347,725.363,1167.563z"/>
			<path fill="none" stroke="#FFFFFF" d="M1005.02,1329.02c0,89.159-72.3,161.411-161.391,161.411
				c-89.202,0-161.497-72.252-161.497-161.411c0-89.221,72.295-161.478,161.497-161.478
				C932.727,1167.549,1005.02,1239.801,1005.02,1329.02z"/>
			<path fill="none" stroke="#FFFFFF" d="M1284.73,1167.577c0,89.162-72.296,161.414-161.393,161.414
				c-89.196,0-161.495-72.252-161.495-161.414c0-89.22,72.299-161.472,161.495-161.472
				C1212.436,1006.106,1284.73,1078.358,1284.73,1167.577z"/>
			<path fill="none" stroke="#FFFFFF" d="M1284.719,844.692c0,89.161-72.294,161.414-161.386,161.414
				c-89.201,0-161.497-72.253-161.497-161.414c0-89.219,72.296-161.47,161.497-161.47
				C1212.425,683.224,1284.719,755.475,1284.719,844.692z"/>
			<path fill="none" stroke="#FFFFFF" d="M1005.124,360.371c0,89.161-72.295,161.414-161.386,161.414
				c-89.201,0-161.497-72.253-161.497-161.414c0-89.219,72.295-161.47,161.497-161.47
				C932.829,198.901,1005.124,271.152,1005.124,360.371z"/>
			<path fill="none" stroke="#FFFFFF" d="M445.741,683.265c0,89.161-72.294,161.414-161.386,161.414
				c-89.201,0-161.5-72.253-161.5-161.414c0-89.224,72.296-161.475,161.5-161.475C373.446,521.796,445.741,594.047,445.741,683.265z
				"/>
			<path fill="none" stroke="#FFFFFF" d="M445.729,1329.03c0,89.164-72.294,161.416-161.392,161.416
				c-89.199,0-161.497-72.252-161.497-161.416c0-89.218,72.292-161.468,161.497-161.468
				C373.436,1167.563,445.729,1239.813,445.729,1329.03z"/>
			<path fill="none" stroke="#FFFFFF" d="M1564.483,1329.021c0,89.161-72.296,161.414-161.393,161.414
				c-89.194,0-161.496-72.252-161.496-161.414c0-89.221,72.302-161.471,161.496-161.471
				C1492.188,1167.551,1564.483,1239.801,1564.483,1329.021z"/>
			<path fill="none" stroke="#FFFFFF" d="M1564.473,683.275c0,89.162-72.295,161.414-161.386,161.414
				c-89.202,0-161.497-72.252-161.497-161.414c0-89.219,72.295-161.47,161.497-161.47
				C1492.178,521.807,1564.473,594.058,1564.473,683.275z"/>
			<path fill="none" stroke="#FFFFFF" d="M1005.106,1651.911c0,89.162-72.297,161.416-161.394,161.416
				c-89.2,0-161.497-72.254-161.497-161.416c0-89.217,72.297-161.467,161.497-161.467
				C932.811,1490.444,1005.106,1562.694,1005.106,1651.911z"/>
		</g>
	</g>
	<g id="sixtyFour">
		<g>
			<line fill="none" x1="842.689" y1="1652.18" x2="842.708" y2="1006.114"/>
			<line fill="none" x1="843.665" y1="1005.848" x2="1402.086" y2="683.518"/>
			<line fill="none" x1="842.171" y1="1006.114" x2="283.33" y2="683.53"/>
			<line fill="none" x1="562.938" y1="1167.807" x2="283.297" y2="1006.403"/>
			<line fill="none" x1="843.033" y1="683.362" x2="1122.431" y2="522.114"/>
			<line fill="none" x1="1122.425" y1="1167.858" x2="1122.42" y2="1490.729"/>
			<line fill="none" x1="563.026" y1="1490.74" x2="563.02" y2="1167.831"/>
			<line fill="none" x1="563.012" y1="522.079" x2="842.803" y2="683.583"/>
			<line fill="none" x1="1402.052" y1="1006.403" x2="1123.704" y2="1167.082"/>
			<line fill="none" x1="1308.756" y1="1167.989" x2="1402.052" y2="1006.403"/>
			<line fill="none" x1="1122.415" y1="1490.729" x2="1215.724" y2="1329.119"/>
			<line fill="none" x1="1402.052" y1="1006.403" x2="1122.431" y2="522.114"/>
			<line fill="none" x1="749.786" y1="522.102" x2="563.012" y2="522.09"/>
			<line fill="none" x1="1122.431" y1="522.102" x2="935.849" y2="522.09"/>
			<line fill="none" x1="563.012" y1="522.079" x2="283.297" y2="1006.403"/>
			<line fill="none" x1="283.297" y1="1006.403" x2="376.823" y2="1168.334"/>
			<line fill="none" x1="469.192" y1="1328.261" x2="563.034" y2="1490.74"/>
			<line fill="none" x1="563.034" y1="1490.74" x2="1122.415" y2="1490.729"/>
			<line fill="none" x1="470.316" y1="683.524" x2="283.33" y2="683.526"/>
			<line fill="none" x1="1402.086" y1="683.524" x2="1215.083" y2="683.526"/>
			<line fill="none" x1="283.343" y1="1329.274" x2="1402.065" y2="1329.306"/>
			<line fill="none" x1="469.848" y1="1006.403" x2="283.297" y2="1006.403"/>
			<line fill="none" x1="1402.052" y1="1006.403" x2="1215.799" y2="1006.403"/>
			<line fill="none" x1="562.777" y1="1167.867" x2="1122.657" y2="1167.858"/>
			<line fill="none" x1="423.212" y1="1087.133" x2="609.002" y2="1087.131"/>
			<line fill="none" x1="1075.622" y1="1087.134" x2="1262.214" y2="1087.132"/>
			<line fill="none" x1="702.004" y1="925.707" x2="982.012" y2="925.698"/>
			<line fill="none" x1="562.757" y1="844.929" x2="749.786" y2="845"/>
			<line fill="none" x1="935.849" y1="844.957" x2="1122.875" y2="844.973"/>
			<line fill="none" x1="702.869" y1="602.8" x2="982.627" y2="602.8"/>
			<line fill="none" x1="1262.147" y1="1087.094" x2="1122.311" y2="1329.301"/>
			<line fill="none" x1="1169.434" y1="924.774" x2="1262.164" y2="764.143"/>
			<line fill="none" x1="843.225" y1="1489.785" x2="936.47" y2="1328.262"/>
			<line fill="none" x1="563.056" y1="1329.349" x2="656.302" y2="1167.836"/>
			<line fill="none" x1="889.164" y1="764.511" x2="982.575" y2="602.713"/>
			<line fill="none" x1="562.969" y1="1167.979" x2="842.75" y2="683.468"/>
			<line fill="none" x1="936.467" y1="1489.793" x2="842.689" y2="1652.18"/>
			<line fill="none" x1="1402.086" y1="683.518" x2="1308.831" y2="845"/>
			<line fill="none" x1="283.343" y1="1329.274" x2="842.708" y2="360.657"/>
			<line fill="none" x1="563.034" y1="1490.74" x2="656.085" y2="1329.616"/>
			<line fill="none" x1="1029.084" y1="683.75" x2="1122.431" y2="522.114"/>
			<line fill="none" x1="516.491" y1="925.707" x2="423.203" y2="764.149"/>
			<line fill="none" x1="842.734" y1="1490.777" x2="749.179" y2="1328.754"/>
			<line fill="none" x1="1122.43" y1="1167.989" x2="842.702" y2="683.498"/>
			<line fill="none" x1="795.018" y1="762.373" x2="702.877" y2="602.795"/>
			<line fill="none" x1="1122.348" y1="1329.326" x2="1029.084" y2="1167.8"/>
			<line fill="none" x1="563.082" y1="1329.299" x2="423.202" y2="1087.022"/>
			<line fill="none" x1="656.36" y1="683.718" x2="563.012" y2="522.079"/>
			<line fill="none" x1="1122.415" y1="1490.729" x2="1028.917" y2="1328.832"/>
			<line fill="none" x1="376.573" y1="845" x2="283.33" y2="683.53"/>
			<line fill="none" x1="842.689" y1="1652.18" x2="748.916" y2="1489.793"/>
			<line fill="none" x1="842.708" y1="360.657" x2="1402.065" y2="1329.306"/>
			<line fill="none" x1="936.467" y1="1166.389" x2="842.417" y2="1329.119"/>
			<line fill="none" x1="1122.307" y1="844.84" x2="1028.917" y2="1006.427"/>
			<line fill="none" x1="656.085" y1="1006.427" x2="562.777" y2="844.836"/>
			<line fill="none" x1="842.417" y1="1329.119" x2="748.916" y2="1167.192"/>
			<line fill="none" x1="842.008" y1="1167.988" x2="982.012" y2="925.698"/>
			<line fill="none" x1="842.008" y1="1167.988" x2="702.004" y2="925.707"/>
			<line fill="none" x1="423.203" y1="764.149" x2="610.722" y2="764.149"/>
			<line fill="none" x1="1262.164" y1="764.143" x2="1075.612" y2="764.143"/>
			<circle fill="none" cx="843.665" cy="1006.114" r="726.798"/>
		</g>
		<g>
			<line fill="none" stroke="#FFFFFF" stroke-linecap="round" x1="842.689" y1="1652.18" x2="842.708" y2="1006.114"/>
			<line fill="none" stroke="#FFF200" stroke-linecap="round" x1="842.694" y1="1652.18" x2="842.703" y2="1329.119"/>
			<line fill="none" stroke="#FFFFFF" stroke-linecap="round" x1="843.665" y1="1005.848" x2="1123.744" y2="844.182"/>
			<line fill="none" stroke="#FFF200" stroke-linecap="round" x1="1122.326" y1="845" x2="1402.086" y2="683.518"/>
			<line fill="none" stroke="#FFF200" stroke-linecap="round" x1="563.061" y1="845" x2="283.33" y2="683.53"/>
			<line fill="none" stroke="#B78FFF" stroke-linecap="round" x1="562.938" y1="1167.807" x2="283.297" y2="1006.403"/>
			<line fill="none" stroke="#B78FFF" stroke-linecap="round" x1="843.033" y1="683.362" x2="1122.431" y2="522.114"/>
			<line fill="none" stroke="#B78FFF" stroke-linecap="round" x1="1122.425" y1="1167.858" x2="1122.42" y2="1490.729"/>
			<line fill="none" stroke="#B78FFF" stroke-linecap="round" x1="563.026" y1="1490.74" x2="563.02" y2="1167.831"/>
			<line fill="none" stroke="#B78FFF" stroke-linecap="round" x1="563.012" y1="522.079" x2="842.803" y2="683.583"/>
			<line fill="none" stroke="#B78FFF" stroke-linecap="round" x1="1402.052" y1="1006.403" x2="1123.704" y2="1167.082"/>
			<line fill="none" stroke="#B78FFF" stroke-linecap="round" x1="1308.756" y1="1167.989" x2="1402.052" y2="1006.403"/>
			<line fill="none" stroke="#B78FFF" stroke-linecap="round" x1="1122.415" y1="1490.729" x2="1215.724" y2="1329.119"/>
			<line fill="none" stroke="#FFF200" stroke-linecap="round" x1="1402.052" y1="1006.403" x2="1122.431" y2="522.114"/>
			<line fill="none" stroke="#B78FFF" stroke-linecap="round" x1="749.786" y1="522.102" x2="563.012" y2="522.09"/>
			<line fill="none" stroke="#B78FFF" stroke-linecap="round" x1="1122.431" y1="522.102" x2="935.849" y2="522.09"/>
			<line fill="none" stroke="#FFF200" stroke-linecap="round" x1="563.012" y1="522.079" x2="283.297" y2="1006.403"/>
			<line fill="none" stroke="#B78FFF" stroke-linecap="round" x1="283.297" y1="1006.403" x2="376.554" y2="1167.866"/>
			<line fill="none" stroke="#B78FFF" stroke-linecap="round" x1="469.778" y1="1329.274" x2="563.034" y2="1490.74"/>
			<line fill="none" stroke="#FFF200" stroke-linecap="round" x1="563.034" y1="1490.74" x2="1122.415" y2="1490.729"/>
			<line fill="none" stroke="#FFF200" stroke-linecap="round" x1="470.316" y1="683.524" x2="283.33" y2="683.526"/>
			<line fill="none" stroke="#FFF200" stroke-linecap="round" x1="1402.086" y1="683.524" x2="1215.623" y2="683.526"/>
			<line fill="none" stroke="#FFF200" stroke-linecap="round" x1="469.848" y1="1006.403" x2="283.297" y2="1006.403"/>
			<line fill="none" stroke="#FFF200" stroke-linecap="round" x1="1402.052" y1="1006.403" x2="1215.799" y2="1006.403"/>
			<line fill="none" stroke="#B78FFF" stroke-linecap="round" x1="423.212" y1="1087.133" x2="609.002" y2="1087.131"/>
			<line fill="none" stroke="#B78FFF" stroke-linecap="round" x1="1075.622" y1="1087.134" x2="1262.214" y2="1087.132"/>
			<line fill="none" stroke="#FFFFFF" stroke-linecap="round" x1="702.004" y1="925.707" x2="982.012" y2="925.698"/>
			<line fill="none" stroke="#B78FFF" stroke-linecap="round" x1="702.869" y1="602.8" x2="982.627" y2="602.8"/>
			<line fill="none" stroke="#B78FFF" stroke-linecap="round" x1="1262.147" y1="1087.094" x2="1122.311" y2="1329.301"/>
			<line fill="none" stroke="#FFF200" stroke-linecap="round" x1="1169.434" y1="924.774" x2="1262.164" y2="764.143"/>
			<line fill="none" stroke="#FFF200" stroke-linecap="round" x1="843.225" y1="1489.785" x2="935.867" y2="1329.305"/>
			<line fill="none" stroke="#B78FFF" stroke-linecap="round" x1="563.056" y1="1329.349" x2="656.302" y2="1167.836"/>
			<line fill="none" stroke="#B78FFF" stroke-linecap="round" x1="889.164" y1="764.511" x2="982.575" y2="602.713"/>
			<line fill="none" stroke="#FFF200" stroke-linecap="round" x1="936.467" y1="1489.793" x2="842.689" y2="1652.18"/>
			<line fill="none" stroke="#FFF200" stroke-linecap="round" x1="1402.086" y1="683.518" x2="1308.831" y2="845"/>
			<line fill="none" stroke="#FFF200" stroke-linecap="round" x1="563.034" y1="1490.74" x2="656.085" y2="1329.616"/>
			<line fill="none" stroke="#B78FFF" stroke-linecap="round" x1="1029.084" y1="683.75" x2="1122.431" y2="522.114"/>
			<line fill="none" stroke="#FFF200" stroke-linecap="round" x1="516.491" y1="925.707" x2="423.203" y2="764.149"/>
			<line fill="none" stroke="#FFF200" stroke-linecap="round" x1="842.734" y1="1490.777" x2="749.179" y2="1328.754"/>
			<line fill="none" stroke="#FFFFFF" stroke-linecap="round" x1="1122.43" y1="1167.989" x2="842.702" y2="683.498"/>
			<line fill="none" stroke="#B78FFF" stroke-linecap="round" x1="795.018" y1="762.373" x2="702.877" y2="602.795"/>
			<line fill="none" stroke="#B78FFF" stroke-linecap="round" x1="1122.348" y1="1329.326" x2="1029.084" y2="1167.8"/>
			<line fill="none" stroke="#B78FFF" stroke-linecap="round" x1="563.082" y1="1329.299" x2="423.202" y2="1087.022"/>
			<line fill="none" stroke="#B78FFF" stroke-linecap="round" x1="656.283" y1="683.583" x2="563.012" y2="522.079"/>
			<line fill="none" stroke="#FFF200" stroke-linecap="round" x1="1122.415" y1="1490.729" x2="1029.174" y2="1329.275"/>
			<line fill="none" stroke="#FFF200" stroke-linecap="round" x1="376.573" y1="845" x2="283.33" y2="683.53"/>
			<line fill="none" stroke="#FFF200" stroke-linecap="round" x1="842.689" y1="1652.18" x2="748.916" y2="1489.793"/>
			<line fill="none" stroke="#B78FFF" stroke-linecap="round" x1="1122.307" y1="844.841" x2="1402.065" y2="1329.306"/>
			<line fill="none" stroke="#FFFFFF" stroke-linecap="round" x1="935.612" y1="1167.867" x2="842.417" y2="1329.119"/>
			<line fill="none" stroke="#FFFFFF" stroke-linecap="round" x1="1122.307" y1="844.84" x2="1029.034" y2="1006.226"/>
			<line fill="none" stroke="#FFFFFF" stroke-linecap="round" x1="842.417" y1="1329.119" x2="748.916" y2="1167.192"/>
			<line fill="none" stroke="#FFFFFF" stroke-linecap="round" x1="842.008" y1="1167.988" x2="982.012" y2="925.698"/>
			<line fill="none" stroke="#FFFFFF" stroke-linecap="round" x1="842.008" y1="1167.988" x2="702.004" y2="925.707"/>
			<line fill="none" stroke="#FFF200" stroke-linecap="round" x1="423.203" y1="764.149" x2="609.696" y2="764.149"/>
			<line fill="none" stroke="#FFF200" stroke-linecap="round" x1="1262.164" y1="764.143" x2="1075.612" y2="764.143"/>
			<circle fill="none" stroke="#FFFFFF" stroke-linecap="round" cx="843.665" cy="1006.114" r="726.798"/>
			<line fill="none" stroke="#B78FFF" stroke-linecap="round" x1="283.343" y1="1329.282" x2="843.665" y2="1329.297"/>
			<line fill="none" stroke="#B78FFF" stroke-linecap="round" x1="842.008" y1="1329.275" x2="1402.065" y2="1329.306"/>
			<line fill="none" stroke="#FFFFFF" stroke-linecap="round" x1="563.02" y1="1167.867" x2="1122.657" y2="1167.858"/>
			<line fill="none" stroke="#FFFFFF" stroke-linecap="round" x1="935.849" y1="844.957" x2="1122.875" y2="844.973"/>
			<line fill="none" stroke="#B78FFF" stroke-linecap="round" x1="842.708" y1="360.657" x2="1122.383" y2="844.973"/>
			<line fill="none" stroke="#FFFFFF" stroke-linecap="round" x1="562.969" y1="1167.979" x2="842.75" y2="683.468"/>
			<line fill="none" stroke="#B78FFF" stroke-linecap="round" x1="563.102" y1="844.836" x2="842.708" y2="360.657"/>
			<line fill="none" stroke="#B78FFF" stroke-linecap="round" x1="283.343" y1="1329.274" x2="563.1" y2="844.836"/>
			<line fill="none" stroke="#FFFFFF" stroke-linecap="round" x1="842.171" y1="1006.114" x2="563.102" y2="845.024"/>
			<line fill="none" stroke="#FFFFFF" stroke-linecap="round" x1="563.046" y1="844.929" x2="749.786" y2="845"/>
			<line fill="none" stroke="#FFFFFF" stroke-linecap="round" x1="656.085" y1="1006.427" x2="563.061" y2="845"/>
		</g>
	</g>
	<g id="hexagon">
		<polygon fill="#FFFFFF" fill-opacity="0" points="2.68,520.568 843.66,35.022 1684.65,520.568 1684.65,1491.66 843.66,1977.206 
			2.68,1491.66 		"/>
	</g>
</g>
</svg>
