<?xml version="1.0" encoding="utf-8"?>
<!-- Generator: Adobe Illustrator 16.0.0, SVG Export Plug-In . SVG Version: 6.00 Build 0)  -->
<!DOCTYPE svg PUBLIC "-//W3C//DTD SVG 1.1//EN" "http://www.w3.org/Graphics/SVG/1.1/DTD/svg11.dtd">
<svg version="1.1" id="Layer_1" xmlns="http://www.w3.org/2000/svg" xmlns:xlink="http://www.w3.org/1999/xlink" x="0px" y="0px"
	 width="1490px" height="1712px" viewBox="88 138.5 1490 1712" enable-background="new 88 138.5 1490 1712" xml:space="preserve">
<g id="Tetra3DFullGroup">
	<g id="back" display="none">
		<rect id="image" x="106.202" y="155.776" display="inline" fill="#130E22" width="1453.596" height="1677.447"/>
	</g>
	<g id="fruit">
		<g>
			<path fill="none" stroke="#FFFFFF" d="M994.357,994.521c0,89.154-72.299,161.414-161.393,161.414
				c-89.199,0-161.497-72.252-161.497-161.414c0-89.225,72.296-161.477,161.497-161.477
				C922.062,833.051,994.357,905.303,994.357,994.521z"/>
			<path fill="none" stroke="#FFFFFF" d="M994.357,671.639c0,89.16-72.299,161.414-161.393,161.414
				c-89.199,0-161.497-72.254-161.497-161.414c0-89.218,72.296-161.47,161.497-161.47
				C922.062,510.169,994.357,582.421,994.357,671.639z"/>
			<path fill="none" stroke="#FFFFFF" d="M714.698,833.078c0,89.16-72.294,161.414-161.391,161.414
				c-89.196,0-161.497-72.254-161.497-161.414c0-89.218,72.301-161.47,161.497-161.47
				C642.404,671.608,714.698,743.86,714.698,833.078z"/>
			<path fill="none" stroke="#FFFFFF" d="M714.699,1155.949c0,89.162-72.293,161.414-161.386,161.414
				c-89.2,0-161.496-72.252-161.496-161.414c0-89.219,72.296-161.473,161.496-161.473
				C642.406,994.48,714.699,1066.732,714.699,1155.949z"/>
			<path fill="none" stroke="#FFFFFF" d="M994.357,1317.404c0,89.16-72.299,161.412-161.391,161.412
				c-89.201,0-161.498-72.252-161.498-161.412c0-89.221,72.295-161.479,161.498-161.479
				C922.064,1155.936,994.357,1228.188,994.357,1317.404z"/>
			<path fill="none" stroke="#FFFFFF" d="M1274.068,1155.963c0,89.162-72.295,161.414-161.391,161.414
				c-89.197,0-161.494-72.252-161.494-161.414c0-89.219,72.297-161.471,161.494-161.471
				C1201.773,994.492,1274.068,1066.744,1274.068,1155.963z"/>
			<path fill="none" stroke="#FFFFFF" d="M1274.056,833.078c0,89.161-72.293,161.414-161.387,161.414
				c-89.201,0-161.498-72.253-161.498-161.414c0-89.218,72.299-161.469,161.498-161.469
				C1201.763,671.609,1274.056,743.86,1274.056,833.078z"/>
			<path fill="none" stroke="#FFFFFF" d="M994.462,348.757c0,89.161-72.295,161.414-161.388,161.414
				c-89.2,0-161.496-72.253-161.496-161.414c0-89.219,72.295-161.47,161.496-161.47
				C922.167,187.287,994.462,259.538,994.462,348.757z"/>
			<path fill="none" stroke="#FFFFFF" d="M435.079,671.65c0,89.16-72.294,161.414-161.386,161.414
				c-89.201,0-161.5-72.254-161.5-161.414c0-89.226,72.296-161.477,161.5-161.477C362.783,510.182,435.079,582.433,435.079,671.65z"
				/>
			<path fill="none" stroke="#FFFFFF" d="M435.067,1317.416c0,89.164-72.294,161.416-161.391,161.416
				c-89.199,0-161.497-72.252-161.497-161.416c0-89.217,72.292-161.467,161.497-161.467
				C362.773,1155.949,435.067,1228.199,435.067,1317.416z"/>
			<path fill="none" stroke="#FFFFFF" d="M1553.822,1317.406c0,89.162-72.297,161.414-161.391,161.414
				c-89.197,0-161.496-72.252-161.496-161.414c0-89.221,72.299-161.471,161.496-161.471
				C1481.527,1155.938,1553.822,1228.188,1553.822,1317.406z"/>
			<path fill="none" stroke="#FFFFFF" d="M1553.81,671.661c0,89.162-72.295,161.414-161.387,161.414
				c-89.201,0-161.498-72.252-161.498-161.414c0-89.218,72.297-161.469,161.498-161.469
				C1481.515,510.192,1553.81,582.443,1553.81,671.661z"/>
			<path fill="none" stroke="#FFFFFF" d="M994.445,1640.297c0,89.162-72.297,161.416-161.395,161.416
				c-89.197,0-161.496-72.254-161.496-161.416c0-89.217,72.298-161.467,161.496-161.467
				C922.148,1478.83,994.445,1551.08,994.445,1640.297z"/>
		</g>
	</g>
	<g id="sixtyFour">
		<g>
			<circle fill="none" stroke="#FFFFFF" cx="833" cy="994.5" r="726.798"/>
			<line fill="none" stroke="#FFFFFF" x1="832.024" y1="1640.564" x2="832.043" y2="994.5"/>
			<line fill="none" stroke="#FFFFFF" x1="833" y1="994.234" x2="1391.421" y2="671.904"/>
			<line fill="none" stroke="#FFFFFF" x1="831.506" y1="994.5" x2="272.666" y2="671.916"/>
			<line fill="none" stroke="#FFFFFF" x1="552.272" y1="1156.193" x2="272.633" y2="994.789"/>
			<line fill="none" stroke="#FFFFFF" x1="832.369" y1="671.748" x2="1111.765" y2="510.5"/>
			<line fill="none" stroke="#FFFFFF" x1="1111.76" y1="1156.244" x2="1111.755" y2="1479.115"/>
			<line fill="none" stroke="#FFFFFF" x1="552.36" y1="1479.126" x2="552.354" y2="1156.217"/>
			<line fill="none" stroke="#FFFFFF" x1="552.346" y1="510.465" x2="832.137" y2="671.971"/>
			<line fill="none" stroke="#FFFFFF" x1="1391.385" y1="994.789" x2="1113.039" y2="1155.469"/>
			<line fill="none" stroke="#FFFFFF" x1="1298.091" y1="1156.375" x2="1391.385" y2="994.789"/>
			<line fill="none" stroke="#FFFFFF" x1="1111.75" y1="1479.115" x2="1205.058" y2="1317.505"/>
			<line fill="none" stroke="#FFFFFF" x1="1391.385" y1="994.789" x2="1111.765" y2="510.5"/>
			<line fill="none" stroke="#FFFFFF" x1="739.121" y1="510.488" x2="552.346" y2="510.477"/>
			<line fill="none" stroke="#FFFFFF" x1="1111.765" y1="510.488" x2="925.182" y2="510.477"/>
			<line fill="none" stroke="#FFFFFF" x1="552.346" y1="510.465" x2="272.633" y2="994.789"/>
			<line fill="none" stroke="#FFFFFF" x1="272.633" y1="994.789" x2="366.157" y2="1156.721"/>
			<line fill="none" stroke="#FFFFFF" x1="458.526" y1="1316.646" x2="552.369" y2="1479.126"/>
			<line fill="none" stroke="#FFFFFF" x1="552.369" y1="1479.126" x2="1111.75" y2="1479.115"/>
			<line fill="none" stroke="#FFFFFF" x1="459.651" y1="671.91" x2="272.666" y2="671.912"/>
			<line fill="none" stroke="#FFFFFF" x1="1391.421" y1="671.91" x2="1204.418" y2="671.912"/>
			<line fill="none" stroke="#FFFFFF" x1="272.677" y1="1317.661" x2="1391.401" y2="1317.691"/>
			<line fill="none" stroke="#FFFFFF" x1="459.182" y1="994.789" x2="272.633" y2="994.789"/>
			<line fill="none" stroke="#FFFFFF" x1="1391.385" y1="994.789" x2="1205.134" y2="994.789"/>
			<line fill="none" stroke="#FFFFFF" x1="552.112" y1="1156.254" x2="1111.992" y2="1156.244"/>
			<line fill="none" stroke="#FFFFFF" x1="412.547" y1="1075.52" x2="598.338" y2="1075.518"/>
			<line fill="none" stroke="#FFFFFF" x1="1064.957" y1="1075.52" x2="1251.55" y2="1075.518"/>
			<line fill="none" stroke="#FFFFFF" x1="691.34" y1="914.094" x2="971.346" y2="914.084"/>
			<line fill="none" stroke="#FFFFFF" x1="552.093" y1="833.314" x2="739.121" y2="833.387"/>
			<line fill="none" stroke="#FFFFFF" x1="925.182" y1="833.344" x2="1112.21" y2="833.359"/>
			<line fill="none" stroke="#FFFFFF" x1="692.205" y1="591.188" x2="971.963" y2="591.188"/>
			<line fill="none" stroke="#FFFFFF" x1="1251.482" y1="1075.479" x2="1111.645" y2="1317.688"/>
			<line fill="none" stroke="#FFFFFF" x1="1158.768" y1="913.16" x2="1251.499" y2="752.529"/>
			<line fill="none" stroke="#FFFFFF" x1="832.559" y1="1478.172" x2="925.803" y2="1316.646"/>
			<line fill="none" stroke="#FFFFFF" x1="552.389" y1="1317.735" x2="645.635" y2="1156.223"/>
			<line fill="none" stroke="#FFFFFF" x1="878.5" y1="752.896" x2="971.91" y2="591.1"/>
			<line fill="none" stroke="#FFFFFF" x1="552.303" y1="1156.365" x2="832.086" y2="671.854"/>
			<line fill="none" stroke="#FFFFFF" x1="925.802" y1="1478.179" x2="832.024" y2="1640.564"/>
			<line fill="none" stroke="#FFFFFF" x1="1391.421" y1="671.904" x2="1298.166" y2="833.387"/>
			<line fill="none" stroke="#FFFFFF" x1="272.677" y1="1317.661" x2="832.043" y2="349.043"/>
			<line fill="none" stroke="#FFFFFF" x1="552.369" y1="1479.126" x2="645.42" y2="1318.003"/>
			<line fill="none" stroke="#FFFFFF" x1="1018.419" y1="672.135" x2="1111.765" y2="510.5"/>
			<line fill="none" stroke="#FFFFFF" x1="505.825" y1="914.094" x2="412.539" y2="752.535"/>
			<line fill="none" stroke="#FFFFFF" x1="832.069" y1="1479.163" x2="738.512" y2="1317.14"/>
			<line fill="none" stroke="#FFFFFF" x1="1111.764" y1="1156.375" x2="832.037" y2="671.883"/>
			<line fill="none" stroke="#FFFFFF" x1="784.35" y1="750.758" x2="692.213" y2="591.182"/>
			<line fill="none" stroke="#FFFFFF" x1="1111.682" y1="1317.712" x2="1018.419" y2="1156.186"/>
			<line fill="none" stroke="#FFFFFF" x1="552.418" y1="1317.686" x2="412.537" y2="1075.409"/>
			<line fill="none" stroke="#FFFFFF" x1="645.694" y1="672.104" x2="552.346" y2="510.465"/>
			<line fill="none" stroke="#FFFFFF" x1="1111.75" y1="1479.115" x2="1018.252" y2="1317.217"/>
			<line fill="none" stroke="#FFFFFF" x1="365.907" y1="833.387" x2="272.666" y2="671.916"/>
			<line fill="none" stroke="#FFFFFF" x1="832.024" y1="1640.564" x2="738.252" y2="1478.179"/>
			<line fill="none" stroke="#FFFFFF" x1="832.043" y1="349.043" x2="1391.401" y2="1317.691"/>
			<line fill="none" stroke="#FFFFFF" x1="925.802" y1="1154.774" x2="831.752" y2="1317.505"/>
			<line fill="none" stroke="#FFFFFF" x1="1111.641" y1="833.227" x2="1018.252" y2="994.813"/>
			<line fill="none" stroke="#FFFFFF" x1="645.42" y1="994.813" x2="552.112" y2="833.223"/>
			<line fill="none" stroke="#FFFFFF" x1="831.752" y1="1317.505" x2="738.252" y2="1155.579"/>
			<line fill="none" stroke="#FFFFFF" x1="831.343" y1="1156.375" x2="971.346" y2="914.084"/>
			<line fill="none" stroke="#FFFFFF" x1="831.343" y1="1156.375" x2="691.34" y2="914.094"/>
			<line fill="none" stroke="#FFFFFF" x1="1251.499" y1="752.529" x2="1064.948" y2="752.529"/>
			<line fill="none" stroke="#FFFFFF" x1="412.539" y1="752.535" x2="599.031" y2="752.535"/>
		</g>
	</g>
	<g id="hexagon">
		<polygon fill="#FFFFFF" fill-opacity="0" stroke="#FFE86D" stroke-miterlimit="10" stroke-opacity="0" points="106.567,575.57 
			833,155.776 1559.434,575.57 1559.434,1414.294 833,1833.224 106.567,1414.294 		"/>
	</g>
</g>
</svg>
