<?xml version="1.0" encoding="utf-8"?>
<!-- Generator: Adobe Illustrator 16.0.0, SVG Export Plug-In . SVG Version: 6.00 Build 0)  -->
<!DOCTYPE svg PUBLIC "-//W3C//DTD SVG 1.1//EN" "http://www.w3.org/Graphics/SVG/1.1/DTD/svg11.dtd">
<svg version="1.1" id="Layer_1" xmlns="http://www.w3.org/2000/svg" xmlns:xlink="http://www.w3.org/1999/xlink" x="0px" y="0px"
	 width="1683.969px" height="1984.252px" viewBox="0 0 1683.969 1984.252" enable-background="new 0 0 1683.969 1984.252"
	 xml:space="preserve">
<g id="_x36_4Tetra3DFullGroup">
	<g id="back" display="none">
		<rect id="image" y="-13.988" display="inline" fill="#130E22" width="1683.969" height="2012.229"/>
	</g>
	<g id="sixtyFour">
		<g id="major">
			<line fill="none" stroke="#FFFFFF" stroke-miterlimit="10" x1="1121.209" y1="507.526" x2="562.024" y2="507.905"/>
			<line fill="none" stroke="#FFFFFF" stroke-miterlimit="10" x1="562.024" y1="507.905" x2="282.814" y2="992.375"/>
			<line fill="none" stroke="#FFFFFF" stroke-miterlimit="10" x1="562.798" y1="1476.597" x2="1122.056" y2="1476.265"/>
			<line fill="none" stroke="#FFFFFF" stroke-miterlimit="10" x1="1122.056" y1="1476.265" x2="1401.266" y2="991.702"/>
			<line fill="none" stroke="#FFFFFF" stroke-miterlimit="10" x1="1401.266" y1="991.702" x2="1121.209" y2="507.526"/>
			<line fill="none" stroke="#FFFFFF" stroke-miterlimit="10" x1="562.024" y1="507.905" x2="841.732" y2="669.143"/>
			<line fill="none" stroke="#FFFFFF" stroke-miterlimit="10" x1="841.732" y1="669.143" x2="1121.209" y2="507.526"/>
			<line fill="none" stroke="#FFFFFF" stroke-miterlimit="10" x1="562.798" y1="1476.597" x2="562.541" y2="1153.66"/>
			<line fill="none" stroke="#FFFFFF" stroke-miterlimit="10" x1="562.541" y1="1153.66" x2="282.814" y2="992.439"/>
			<line fill="none" stroke="#FFFFFF" stroke-miterlimit="10" x1="282.814" y1="992.375" x2="562.798" y2="1476.597"/>
			<line fill="none" stroke="#FFFFFF" stroke-miterlimit="10" x1="1401.266" y1="991.721" x2="1121.762" y2="1153.311"/>
			<line fill="none" stroke="#FFFFFF" stroke-miterlimit="10" x1="1121.762" y1="1153.311" x2="1121.945" y2="1476.154"/>
			<line fill="none" stroke="#FFFFFF" stroke-miterlimit="10" x1="841.732" y1="669.143" x2="1121.762" y2="1153.311"/>
			<line fill="none" stroke="#FFFFFF" stroke-miterlimit="10" x1="1121.762" y1="1153.311" x2="562.541" y2="1153.66"/>
			<line fill="none" stroke="#FFFFFF" stroke-miterlimit="10" x1="562.541" y1="1153.66" x2="841.732" y2="669.143"/>
			<circle display="none" fill="none" stroke="#FFFFFF" cx="843.558" cy="992.125" r="726.798"/>
		</g>
	</g>
	<g id="minor">
		
			<line fill="none" stroke="#FFFFFF" stroke-width="3" stroke-miterlimit="10" x1="562.405" y1="830.74" x2="1121.655" y2="830.74"/>
		
			<line fill="none" stroke="#FFFFFF" stroke-width="3" stroke-miterlimit="10" x1="1121.655" y1="830.74" x2="849.075" y2="1315.128"/>
		
			<line fill="none" stroke="#FFFFFF" stroke-width="3" stroke-miterlimit="10" x1="849.075" y1="1315.128" x2="562.405" y2="830.74"/>
		
			<line fill="none" stroke="#FFFFFF" stroke-width="3" stroke-miterlimit="10" x1="562.405" y1="830.74" x2="562.405" y2="507.905"/>
		
			<line fill="none" stroke="#FFFFFF" stroke-width="3" stroke-miterlimit="10" x1="562.405" y1="830.74" x2="282.814" y2="992.375"/>
		
			<line fill="none" stroke="#FFFFFF" stroke-width="3" stroke-miterlimit="10" x1="1121.655" y1="830.74" x2="1401.266" y2="991.721"/>
		
			<line fill="none" stroke="#FFFFFF" stroke-width="3" stroke-miterlimit="10" x1="1401.266" y1="991.721" x2="282.814" y2="992.375"/>
		
			<line fill="none" stroke="#FFFFFF" stroke-width="3" stroke-miterlimit="10" x1="849.075" y1="1315.128" x2="562.798" y2="1476.597"/>
		
			<line fill="none" stroke="#FFFFFF" stroke-width="3" stroke-miterlimit="10" x1="849.075" y1="1315.128" x2="1122.056" y2="1476.265"/>
		
			<line fill="none" stroke="#FFFFFF" stroke-width="3" stroke-miterlimit="10" x1="849.075" y1="1315.128" x2="841.732" y2="669.143"/>
		
			<line fill="none" stroke="#FFFFFF" stroke-width="3" stroke-miterlimit="10" x1="1121.762" y1="1153.311" x2="562.405" y2="830.74"/>
		
			<line fill="none" stroke="#FFFFFF" stroke-width="3" stroke-miterlimit="10" x1="562.541" y1="1153.66" x2="1121.655" y2="830.74"/>
		
			<line fill="none" stroke="#FFFFFF" stroke-width="3" stroke-miterlimit="10" x1="845.403" y1="992.048" x2="1121.209" y2="507.526"/>
		
			<line fill="none" stroke="#FFFFFF" stroke-width="3" stroke-miterlimit="10" x1="845.403" y1="992.048" x2="562.405" y2="507.905"/>
		<line fill="none" stroke="#FFFFFF" stroke-width="3" x1="845.403" y1="992.048" x2="562.798" y2="1476.597"/>
		<line fill="none" stroke="#FFFFFF" stroke-width="3" x1="845.403" y1="992.048" x2="1122.056" y2="1476.265"/>
		
			<line fill="none" stroke="#FFFFFF" stroke-width="3" stroke-miterlimit="10" x1="1121.655" y1="830.74" x2="1121.209" y2="507.526"/>
	</g>
	<g id="fruit">
		<g>
			<path fill="none" stroke="#FFFFFF" d="M1003.332,992.205c0,89.435-72.331,161.333-161.343,161.333
				c-89.193,0-161.346-72.322-161.346-161.333c0-89.253,72.271-161.354,161.346-161.354
				C931.081,830.73,1003.332,902.951,1003.332,992.205z"/>
			<path fill="none" stroke="#FFFFFF" d="M1003.332,669.316c0,89.213-72.331,161.333-161.343,161.333
				c-89.193,0-161.346-72.321-161.346-161.333c0-89.454,72.271-161.354,161.346-161.354
				C931.081,507.882,1003.332,580.164,1003.332,669.316z"/>
			<path fill="none" stroke="#FFFFFF" d="M723.748,830.73c0,89.271-72.331,161.353-161.344,161.353
				c-89.284,0-161.347-72.34-161.347-161.354c0-89.214,72.332-161.332,161.347-161.332
				C651.438,669.276,723.748,741.517,723.748,830.73z"/>
			<path fill="none" stroke="#FFFFFF" d="M723.748,1153.597c0,89.354-72.331,161.335-161.344,161.335
				c-89.284,0-161.347-72.341-161.347-161.335c0-89.392,72.332-161.352,161.347-161.352
				C651.438,992.146,723.748,1064.306,723.748,1153.597z"/>
			<path fill="none" stroke="#FFFFFF" d="M1003.332,1314.992c0,89.452-72.331,161.354-161.343,161.354
				c-89.193,0-161.346-72.341-161.346-161.354c0-89.415,72.271-161.335,161.346-161.335
				C931.081,1153.561,1003.332,1225.779,1003.332,1314.992z"/>
			<path fill="none" stroke="#FFFFFF" d="M1282.998,1153.597c0,89.354-72.331,161.335-161.344,161.335
				c-89.193,0-161.347-72.341-161.347-161.335c0-89.352,72.332-161.352,161.347-161.352
				C1210.667,992.245,1282.998,1064.344,1282.998,1153.597z"/>
			<path fill="none" stroke="#FFFFFF" d="M1282.998,830.73c0,89.271-72.331,161.353-161.344,161.353
				c-89.193,0-161.347-72.34-161.347-161.354c0-89.214,72.332-161.332,161.347-161.332
				C1210.667,669.376,1282.998,741.517,1282.998,830.73z"/>
			<path fill="none" stroke="#FFFFFF" d="M1003.433,346.529c0,89.112-72.331,161.334-161.343,161.334
				c-89.424,0-161.345-72.322-161.345-161.334c0-89.453,72.333-161.535,161.345-161.535
				C931.201,185.056,1003.433,257.255,1003.433,346.529z"/>
			<path fill="none" stroke="#FFFFFF" d="M444.152,669.356c0,89.149-72.331,161.334-161.346,161.334
				c-89.214,0-161.345-72.321-161.345-161.334c0-89.232,72.332-161.354,161.345-161.354
				C371.84,507.882,444.152,580.164,444.152,669.356z"/>
			<path fill="none" stroke="#FFFFFF" d="M444.152,1314.992c0,89.452-72.331,161.354-161.346,161.354
				c-89.214,0-161.345-72.341-161.345-161.354c0-89.415,72.332-161.335,161.345-161.335
				C371.821,1153.657,444.152,1225.779,444.152,1314.992z"/>
			<path fill="none" stroke="#FFFFFF" d="M1562.734,1314.992c0,89.452-72.333,161.354-161.348,161.354
				c-89.44,0-161.439-72.341-161.439-161.354c0-89.415,72.331-161.335,161.439-161.335
				C1490.401,1153.561,1562.734,1225.779,1562.734,1314.992z"/>
			<path fill="none" stroke="#FFFFFF" d="M1562.734,669.356c0,89.213-72.333,161.334-161.348,161.334
				c-89.44,0-161.439-72.321-161.439-161.334c0-89.232,72.331-161.354,161.439-161.354
				C1490.401,507.923,1562.734,580.164,1562.734,669.356z"/>
			<path fill="none" stroke="#FFFFFF" d="M1003.394,1637.778c0,89.174-72.331,161.354-161.344,161.354
				c-89.441,0-161.344-72.341-161.344-161.354c0-89.438,72.291-161.354,161.344-161.354
				C931.162,1476.387,1003.394,1548.625,1003.394,1637.778z"/>
		</g>
	</g>
	<g id="hexagon">
		<polygon fill="#FFFFFF" fill-opacity="0" stroke="#FFE86D" stroke-miterlimit="10" stroke-opacity="0" points="-7,507 834,21 
			1675,507 1675,1478 834,1963 -7,1478 		"/>
	</g>
</g>
</svg>
