<?xml version="1.0" encoding="utf-8"?>
<!-- Generator: Adobe Illustrator 16.0.0, SVG Export Plug-In . SVG Version: 6.00 Build 0)  -->
<!DOCTYPE svg PUBLIC "-//W3C//DTD SVG 1.1//EN" "http://www.w3.org/Graphics/SVG/1.1/DTD/svg11.dtd">
<svg version="1.1" id="Layer_1" xmlns="http://www.w3.org/2000/svg" xmlns:xlink="http://www.w3.org/1999/xlink" x="0px" y="0px"
	 width="1687px" height="1984px" viewBox="0 0 1687 1984" enable-background="new 0 0 1687 1984" xml:space="preserve">
<g id="_x36_4Tetra3DFullGroup">
	<g id="back" display="none">
		<rect id="image" y="-0.126" display="inline" fill="#130E22" width="1687" height="1984.252"/>
	</g>
	<g id="fruit">
		<g>
			<path fill="none" stroke="#FFFFFF" d="M680.063,992.102c0-89.154,72.302-161.414,161.391-161.414
				c89.201,0,161.498,72.252,161.498,161.414c0,89.225-72.297,161.477-161.498,161.477
				C752.358,1153.573,680.063,1081.321,680.063,992.102z"/>
			<path fill="none" stroke="#FFFFFF" d="M680.063,1314.985c0-89.16,72.302-161.414,161.391-161.414
				c89.201,0,161.498,72.254,161.498,161.414c0,89.218-72.297,161.47-161.498,161.47
				C752.358,1476.455,680.063,1404.203,680.063,1314.985z"/>
			<path fill="none" stroke="#FFFFFF" d="M959.722,1153.546c0-89.16,72.294-161.414,161.394-161.414
				c89.193,0,161.497,72.254,161.497,161.414c0,89.218-72.304,161.47-161.497,161.47
				C1032.016,1315.016,959.722,1242.764,959.722,1153.546z"/>
			<path fill="none" stroke="#FFFFFF" d="M959.718,830.675c0-89.162,72.295-161.414,161.391-161.414
				c89.197,0,161.493,72.252,161.493,161.414c0,89.22-72.296,161.473-161.493,161.473
				C1032.014,992.145,959.718,919.893,959.718,830.675z"/>
			<path fill="none" stroke="#FFFFFF" d="M680.063,669.22c0-89.159,72.3-161.411,161.391-161.411
				c89.201,0,161.497,72.252,161.497,161.411c0,89.223-72.296,161.479-161.497,161.479
				C752.356,830.688,680.063,758.436,680.063,669.22z"/>
			<path fill="none" stroke="#FFFFFF" d="M400.352,830.661c0-89.162,72.298-161.414,161.394-161.414
				c89.197,0,161.496,72.252,161.496,161.414c0,89.219-72.299,161.471-161.496,161.471
				C472.646,992.132,400.352,919.88,400.352,830.661z"/>
			<path fill="none" stroke="#FFFFFF" d="M400.364,1153.546c0-89.161,72.295-161.414,161.387-161.414
				c89.201,0,161.496,72.253,161.496,161.414c0,89.218-72.295,161.469-161.496,161.469
				C472.659,1315.015,400.364,1242.764,400.364,1153.546z"/>
			<path fill="none" stroke="#FFFFFF" d="M679.959,1637.867c0-89.161,72.295-161.414,161.384-161.414
				c89.201,0,161.498,72.253,161.498,161.414c0,89.219-72.295,161.47-161.498,161.47
				C752.254,1799.337,679.959,1727.086,679.959,1637.867z"/>
			<path fill="none" stroke="#FFFFFF" d="M1239.341,1314.974c0-89.158,72.294-161.413,161.386-161.413
				c89.201,0,161.5,72.255,161.5,161.413c0,89.226-72.296,161.477-161.5,161.477
				C1311.636,1476.442,1239.341,1404.191,1239.341,1314.974z"/>
			<path fill="none" stroke="#FFFFFF" d="M1239.353,669.208c0-89.164,72.297-161.416,161.394-161.416
				c89.198,0,161.496,72.252,161.496,161.416c0,89.217-72.292,161.467-161.496,161.467
				C1311.647,830.675,1239.353,758.425,1239.353,669.208z"/>
			<path fill="none" stroke="#FFFFFF" d="M120.6,669.218c0-89.162,72.297-161.414,161.394-161.414
				c89.192,0,161.496,72.252,161.496,161.414c0,89.223-72.304,161.473-161.496,161.473C192.896,830.686,120.6,758.436,120.6,669.218
				z"/>
			<path fill="none" stroke="#FFFFFF" d="M120.61,1314.963c0-89.162,72.295-161.414,161.387-161.414
				c89.201,0,161.496,72.252,161.496,161.414c0,89.218-72.295,161.469-161.496,161.469
				C192.905,1476.432,120.61,1404.181,120.61,1314.963z"/>
			<path fill="none" stroke="#FFFFFF" d="M679.977,346.327c0-89.162,72.298-161.416,161.393-161.416
				c89.201,0,161.498,72.254,161.498,161.416c0,89.217-72.297,161.467-161.498,161.467
				C752.271,507.794,679.977,435.544,679.977,346.327z"/>
		</g>
		<g>
			<circle fill="none" stroke="#FFFFFF" cx="843.5" cy="992.248" r="726.798"/>
			<line fill="none" stroke="#FFFFFF" x1="842.524" y1="1638.313" x2="842.543" y2="992.248"/>
			<line fill="none" stroke="#FFFFFF" x1="843.5" y1="991.982" x2="1401.921" y2="669.652"/>
			<line fill="none" stroke="#FFFFFF" x1="842.006" y1="992.248" x2="283.166" y2="669.664"/>
			<line fill="none" stroke="#FFFFFF" x1="562.771" y1="1153.941" x2="283.133" y2="992.537"/>
			<line fill="none" stroke="#FFFFFF" x1="842.869" y1="669.496" x2="1122.266" y2="508.248"/>
			<line fill="none" stroke="#FFFFFF" x1="1122.26" y1="1153.992" x2="1122.255" y2="1476.863"/>
			<line fill="none" stroke="#FFFFFF" x1="562.86" y1="1476.874" x2="562.854" y2="1153.965"/>
			<line fill="none" stroke="#FFFFFF" x1="562.847" y1="508.213" x2="842.638" y2="669.719"/>
			<line fill="none" stroke="#FFFFFF" x1="1401.886" y1="992.537" x2="1123.539" y2="1153.217"/>
			<line fill="none" stroke="#FFFFFF" x1="1308.591" y1="1154.123" x2="1401.886" y2="992.537"/>
			<line fill="none" stroke="#FFFFFF" x1="1122.25" y1="1476.863" x2="1215.559" y2="1315.253"/>
			<line fill="none" stroke="#FFFFFF" x1="1401.886" y1="992.537" x2="1122.266" y2="508.248"/>
			<line fill="none" stroke="#FFFFFF" x1="749.621" y1="508.236" x2="562.847" y2="508.225"/>
			<line fill="none" stroke="#FFFFFF" x1="1122.266" y1="508.236" x2="935.683" y2="508.225"/>
			<line fill="none" stroke="#FFFFFF" x1="562.847" y1="508.213" x2="283.133" y2="992.537"/>
			<line fill="none" stroke="#FFFFFF" x1="283.133" y1="992.537" x2="376.657" y2="1154.469"/>
			<line fill="none" stroke="#FFFFFF" x1="469.026" y1="1314.395" x2="562.869" y2="1476.874"/>
			<line fill="none" stroke="#FFFFFF" x1="562.869" y1="1476.874" x2="1122.25" y2="1476.863"/>
			<line fill="none" stroke="#FFFFFF" x1="470.151" y1="669.658" x2="283.166" y2="669.66"/>
			<line fill="none" stroke="#FFFFFF" x1="1401.921" y1="669.658" x2="1214.918" y2="669.66"/>
			<line fill="none" stroke="#FFFFFF" x1="283.178" y1="1315.409" x2="1401.902" y2="1315.439"/>
			<line fill="none" stroke="#FFFFFF" x1="469.683" y1="992.537" x2="283.133" y2="992.537"/>
			<line fill="none" stroke="#FFFFFF" x1="1401.886" y1="992.537" x2="1215.634" y2="992.537"/>
			<line fill="none" stroke="#FFFFFF" x1="562.612" y1="1154.002" x2="1122.492" y2="1153.992"/>
			<line fill="none" stroke="#FFFFFF" x1="423.047" y1="1073.268" x2="608.838" y2="1073.266"/>
			<line fill="none" stroke="#FFFFFF" x1="1075.457" y1="1073.268" x2="1262.049" y2="1073.266"/>
			<line fill="none" stroke="#FFFFFF" x1="701.84" y1="911.842" x2="981.847" y2="911.832"/>
			<line fill="none" stroke="#FFFFFF" x1="562.592" y1="831.063" x2="749.621" y2="831.135"/>
			<line fill="none" stroke="#FFFFFF" x1="935.683" y1="831.092" x2="1122.71" y2="831.107"/>
			<line fill="none" stroke="#FFFFFF" x1="702.705" y1="588.936" x2="982.463" y2="588.936"/>
			<line fill="none" stroke="#FFFFFF" x1="1261.982" y1="1073.227" x2="1122.146" y2="1315.436"/>
			<line fill="none" stroke="#FFFFFF" x1="1169.269" y1="910.908" x2="1261.999" y2="750.277"/>
			<line fill="none" stroke="#FFFFFF" x1="843.06" y1="1475.92" x2="936.304" y2="1314.395"/>
			<line fill="none" stroke="#FFFFFF" x1="562.89" y1="1315.483" x2="656.136" y2="1153.971"/>
			<line fill="none" stroke="#FFFFFF" x1="889" y1="750.645" x2="982.41" y2="588.848"/>
			<line fill="none" stroke="#FFFFFF" x1="562.804" y1="1154.113" x2="842.586" y2="669.602"/>
			<line fill="none" stroke="#FFFFFF" x1="936.303" y1="1475.927" x2="842.524" y2="1638.313"/>
			<line fill="none" stroke="#FFFFFF" x1="1401.921" y1="669.652" x2="1308.666" y2="831.135"/>
			<line fill="none" stroke="#FFFFFF" x1="283.178" y1="1315.409" x2="842.543" y2="346.791"/>
			<line fill="none" stroke="#FFFFFF" x1="562.869" y1="1476.874" x2="655.92" y2="1315.751"/>
			<line fill="none" stroke="#FFFFFF" x1="1028.919" y1="669.883" x2="1122.266" y2="508.248"/>
			<line fill="none" stroke="#FFFFFF" x1="516.325" y1="911.842" x2="423.039" y2="750.283"/>
			<line fill="none" stroke="#FFFFFF" x1="842.569" y1="1476.911" x2="749.013" y2="1314.888"/>
			<line fill="none" stroke="#FFFFFF" x1="1122.265" y1="1154.123" x2="842.537" y2="669.631"/>
			<line fill="none" stroke="#FFFFFF" x1="794.851" y1="748.506" x2="702.713" y2="588.93"/>
			<line fill="none" stroke="#FFFFFF" x1="1122.183" y1="1315.46" x2="1028.919" y2="1153.934"/>
			<line fill="none" stroke="#FFFFFF" x1="562.918" y1="1315.434" x2="423.037" y2="1073.157"/>
			<line fill="none" stroke="#FFFFFF" x1="656.194" y1="669.852" x2="562.847" y2="508.213"/>
			<line fill="none" stroke="#FFFFFF" x1="1122.25" y1="1476.863" x2="1028.752" y2="1314.965"/>
			<line fill="none" stroke="#FFFFFF" x1="376.407" y1="831.135" x2="283.166" y2="669.664"/>
			<line fill="none" stroke="#FFFFFF" x1="842.524" y1="1638.313" x2="748.752" y2="1475.927"/>
			<line fill="none" stroke="#FFFFFF" x1="842.543" y1="346.791" x2="1401.902" y2="1315.439"/>
			<line fill="none" stroke="#FFFFFF" x1="936.303" y1="1152.522" x2="842.252" y2="1315.253"/>
			<line fill="none" stroke="#FFFFFF" x1="1122.142" y1="830.975" x2="1028.752" y2="992.561"/>
			<line fill="none" stroke="#FFFFFF" x1="655.92" y1="992.561" x2="562.612" y2="830.971"/>
			<line fill="none" stroke="#FFFFFF" x1="842.252" y1="1315.253" x2="748.752" y2="1153.327"/>
			<line fill="none" stroke="#FFFFFF" x1="841.844" y1="1154.123" x2="981.847" y2="911.832"/>
			<line fill="none" stroke="#FFFFFF" x1="841.844" y1="1154.123" x2="701.84" y2="911.842"/>
			<line fill="none" stroke="#FFFFFF" x1="1261.999" y1="750.277" x2="1075.448" y2="750.277"/>
		</g>
	</g>
	<g id="sixtyFour">
		<g id="small_cubocta">
			<line fill="none" stroke="#FFFFFF" stroke-miterlimit="10" x1="1126.608" y1="991.998" x2="986.767" y2="749.748"/>
			<line fill="none" stroke="#FFFFFF" stroke-miterlimit="10" x1="707.16" y1="749.786" x2="567.355" y2="991.944"/>
			<line fill="none" stroke="#FFFFFF" stroke-miterlimit="10" x1="567.355" y1="991.944" x2="707.196" y2="1234.157"/>
			<line fill="none" stroke="#FFFFFF" stroke-miterlimit="10" x1="707.196" y1="1234.157" x2="986.839" y2="1234.197"/>
			<line fill="none" stroke="#FFFFFF" stroke-miterlimit="10" x1="986.839" y1="1234.197" x2="1126.608" y2="991.998"/>
			<line fill="none" stroke="#FFFFFF" stroke-miterlimit="10" x1="986.767" y1="749.748" x2="707.16" y2="749.786"/>
			<line fill="none" stroke="#FFFFFF" stroke-miterlimit="10" x1="707.16" y1="749.786" x2="847" y2="830.541"/>
			<line fill="none" stroke="#FFFFFF" stroke-miterlimit="10" x1="847" y1="830.541" x2="986.767" y2="749.748"/>
			<line fill="none" stroke="#FFFFFF" stroke-miterlimit="10" x1="567.355" y1="991.944" x2="707.16" y2="1072.698"/>
			<line fill="none" stroke="#FFFFFF" stroke-miterlimit="10" x1="707.16" y1="1072.698" x2="707.196" y2="1234.157"/>
			<line fill="none" stroke="#FFFFFF" stroke-miterlimit="10" x1="1126.644" y1="991.998" x2="986.839" y2="1072.756"/>
			<line fill="none" stroke="#FFFFFF" stroke-miterlimit="10" x1="986.839" y1="1072.756" x2="986.839" y2="1234.197"/>
			<line fill="none" stroke="#FFFFFF" stroke-miterlimit="10" x1="847" y1="830.541" x2="986.839" y2="1072.756"/>
			<line fill="none" stroke="#FFFFFF" stroke-miterlimit="10" x1="986.839" y1="1072.756" x2="707.16" y2="1072.698"/>
			<line fill="none" stroke="#FFFFFF" stroke-miterlimit="10" x1="707.16" y1="1072.698" x2="847" y2="830.541"/>
		</g>
		<g id="big_cubocta">
			<line fill="none" stroke="#FFFFFF" stroke-miterlimit="10" x1="1126.276" y1="507.349" x2="567.025" y2="507.719"/>
			<line fill="none" stroke="#FFFFFF" stroke-miterlimit="10" x1="567.025" y1="507.719" x2="287.787" y2="992.256"/>
			<line fill="none" stroke="#FFFFFF" stroke-miterlimit="10" x1="567.799" y1="1476.539" x2="1127.085" y2="1476.187"/>
			<line fill="none" stroke="#FFFFFF" stroke-miterlimit="10" x1="1127.085" y1="1476.187" x2="1406.362" y2="991.576"/>
			<line fill="none" stroke="#FFFFFF" stroke-miterlimit="10" x1="1407.138" y1="992.885" x2="1127.122" y2="508.64"/>
			<line fill="none" stroke="#FFFFFF" stroke-miterlimit="10" x1="567.025" y1="507.719" x2="846.741" y2="668.972"/>
			<line fill="none" stroke="#FFFFFF" stroke-miterlimit="10" x1="846.741" y1="668.972" x2="1126.276" y2="507.349"/>
			<line fill="none" stroke="#FFFFFF" stroke-miterlimit="10" x1="567.799" y1="1476.539" x2="567.541" y2="1153.551"/>
			<line fill="none" stroke="#FFFFFF" stroke-miterlimit="10" x1="567.541" y1="1153.551" x2="287.787" y2="992.313"/>
			<line fill="none" stroke="#FFFFFF" stroke-miterlimit="10" x1="287.787" y1="992.256" x2="567.799" y2="1476.539"/>
			<line fill="none" stroke="#FFFFFF" stroke-miterlimit="10" x1="1406.362" y1="991.593" x2="1126.829" y2="1153.178"/>
			<line fill="none" stroke="#FFFFFF" stroke-miterlimit="10" x1="1126.829" y1="1153.178" x2="1127.012" y2="1476.075"/>
			<line fill="none" stroke="#FFFFFF" stroke-miterlimit="10" x1="846.741" y1="668.972" x2="1126.829" y2="1153.178"/>
			<line fill="none" stroke="#FFFFFF" stroke-miterlimit="10" x1="1126.829" y1="1153.178" x2="567.541" y2="1153.551"/>
			<line fill="none" stroke="#FFFFFF" stroke-miterlimit="10" x1="567.541" y1="1153.551" x2="846.741" y2="668.972"/>
		</g>
		<circle fill="none" stroke="#FFFFFF" cx="843.5" cy="992" r="726.798"/>
	</g>
	<g id="hexagon">
		<polygon fill="#FFFFFF" fill-opacity="0" stroke="#FFE86D" stroke-miterlimit="10" stroke-opacity="0" points="2.515,506.454 
			843.495,20.908 1684.485,506.454 1684.485,1477.546 843.495,1963.092 2.515,1477.546 		"/>
	</g>
</g>
</svg>
