<?xml version="1.0" encoding="utf-8"?>
<!-- Generator: Adobe Illustrator 16.0.0, SVG Export Plug-In . SVG Version: 6.00 Build 0)  -->
<!DOCTYPE svg PUBLIC "-//W3C//DTD SVG 1.1//EN" "http://www.w3.org/Graphics/SVG/1.1/DTD/svg11.dtd">
<svg version="1.1" id="Layer_1" xmlns="http://www.w3.org/2000/svg" xmlns:xlink="http://www.w3.org/1999/xlink" x="0px" y="0px"
	 width="1687px" height="1984px" viewBox="0 0 1687 1984" enable-background="new 0 0 1687 1984" xml:space="preserve">
<g id="Layer_1_1_">
	<g id="_x36_4Tetra3DFullGroup">
		<g id="back" display="none">
			<rect id="image" y="3.682" display="inline" fill="#130E22" width="1687" height="1976.637"/>
		</g>
		<g id="sixtyFour">
			<g id="fruit_13_">
				<path fill="none" stroke="#FFFFFF" stroke-miterlimit="10" d="M964.763,992.037c0,67.089-54.352,121.331-121.304,121.331
					c-67.165,0-121.423-54.239-121.423-121.331c0-67.016,53.945-121.332,121.423-121.332
					C910.41,870.705,964.763,925.021,964.763,992.037z"/>
				<path fill="none" stroke="#FFFFFF" stroke-miterlimit="10" d="M964.763,749.374c0,67.054-54.352,121.331-121.304,121.331
					c-67.165,0-121.423-54.277-121.423-121.331c0-67.089,53.945-121.368,121.423-121.368
					C910.41,627.969,964.763,682.285,964.763,749.374z"/>
				<path fill="none" stroke="#FFFFFF" stroke-miterlimit="10" d="M754.565,870.705c0,67.053-54.185,121.332-121.313,121.332
					c-67.11,0-121.406-54.278-121.406-121.332c0-67.09,54.296-121.405,121.406-121.405
					C700.213,749.299,754.565,803.652,754.565,870.705z"/>
				<path fill="none" stroke="#FFFFFF" stroke-miterlimit="10" d="M754.565,1113.404c0,67.052-54.185,121.369-121.313,121.369
					c-67.035,0-121.387-54.316-121.387-121.369c0-67.088,54.314-121.368,121.387-121.368
					C700.213,992.037,754.565,1046.315,754.565,1113.404z"/>
				<path fill="none" stroke="#FFFFFF" stroke-miterlimit="10" d="M964.763,1234.772c0,67.054-54.314,121.368-121.304,121.368
					c-67.165,0-121.423-54.351-121.423-121.368c0-67.054,53.945-121.406,121.423-121.406
					C910.447,1113.367,964.763,1167.719,964.763,1234.772z"/>
				<path fill="none" stroke="#FFFFFF" stroke-miterlimit="10" d="M1175.043,1113.404c0,67.052-54.204,121.369-121.333,121.369
					c-67.052,0-121.405-54.316-121.405-121.369c0-67.052,54.353-121.368,121.405-121.368
					C1120.729,992.037,1175.043,1046.315,1175.043,1113.404z"/>
				<path fill="none" stroke="#FFFFFF" stroke-miterlimit="10" d="M1175.043,870.705c0,67.053-54.204,121.332-121.333,121.332
					c-67.052,0-121.405-54.278-121.405-121.332c0-67.09,54.353-121.405,121.405-121.405
					C1120.729,749.299,1175.043,803.652,1175.043,870.705z"/>
				<path fill="none" stroke="#FFFFFF" stroke-miterlimit="10" d="M964.874,506.601c0,67.053-54.353,121.369-121.305,121.369
					c-67.091,0-121.423-54.315-121.423-121.369c0-67.053,54.333-121.368,121.423-121.368
					C910.484,385.233,964.874,439.585,964.874,506.601z"/>
				<path fill="none" stroke="#FFFFFF" stroke-miterlimit="10" d="M544.358,749.374c0,67.054-54.352,121.331-121.331,121.331
					c-67.071,0-121.406-54.314-121.406-121.331c0-67.089,54.352-121.368,121.406-121.368
					C489.989,628.006,544.358,682.321,544.358,749.374z"/>
				<path fill="none" stroke="#FFFFFF" stroke-miterlimit="10" d="M544.358,1234.772c0,67.054-54.352,121.368-121.331,121.368
					c-67.035,0-121.406-54.351-121.406-121.368c0-67.054,54.352-121.369,121.406-121.369
					C489.97,1113.404,544.358,1167.719,544.358,1234.772z"/>
				<path fill="none" stroke="#FFFFFF" stroke-miterlimit="10" d="M1385.36,1234.772c0,67.054-54.353,121.368-121.332,121.368
					c-67.054,0-121.406-54.351-121.406-121.368c0-67.054,54.352-121.406,121.406-121.406
					C1330.972,1113.367,1385.36,1167.719,1385.36,1234.772z"/>
				<path fill="none" stroke="#FFFFFF" stroke-miterlimit="10" d="M1385.36,749.374c0,67.054-54.389,121.331-121.368,121.331
					c-67.018,0-121.406-54.277-121.406-121.331c0-67.089,54.388-121.368,121.406-121.368
					C1330.972,628.006,1385.36,682.321,1385.36,749.374z"/>
				<path fill="none" stroke="#FFFFFF" stroke-miterlimit="10" d="M964.835,1477.547c0,66.979-54.351,121.33-121.302,121.33
					c-67.146,0-121.46-54.352-121.46-121.33c0-67.127,53.946-121.406,121.46-121.406
					C910.484,1356.141,964.835,1410.42,964.835,1477.547z"/>
			</g>
			<path id="border" fill="none" stroke="#FFFFFF" stroke-miterlimit="10" d="M843.5,263.827
				c402.24,0,728.323,326.082,728.323,728.323c0,402.241-326.083,728.304-728.323,728.304
				c-402.241,0-728.323-326.063-728.323-728.304C115.176,589.908,441.259,263.827,843.5,263.827z"/>
		</g>
		<g id="fruit">
			<g id="fruit_12_">
				<path fill="none" stroke="#FFFFFF" stroke-miterlimit="10" d="M904.134,992.037c0,33.564-27.212,60.666-60.658,60.666
					c-33.582,0-60.702-27.102-60.702-60.666c0-33.49,27.083-60.666,60.702-60.666C876.957,931.371,904.134,958.546,904.134,992.037z
					"/>
				<path fill="none" stroke="#FFFFFF" stroke-miterlimit="10" d="M904.134,870.705c0,33.49-27.212,60.665-60.658,60.665
					c-33.582,0-60.702-27.175-60.702-60.665c0-33.526,27.083-60.665,60.702-60.665C876.957,810.04,904.134,837.179,904.134,870.705z
					"/>
				<path fill="none" stroke="#FFFFFF" stroke-miterlimit="10" d="M799.021,931.371c0,33.527-27.083,60.666-60.647,60.666
					c-33.471,0-60.702-27.139-60.702-60.666c0-33.526,27.194-60.665,60.702-60.665C771.864,870.705,799.021,897.843,799.021,931.371
					z"/>
				<path fill="none" stroke="#FFFFFF" stroke-miterlimit="10" d="M799.021,1052.74c0,33.524-27.083,60.663-60.647,60.663
					c-33.471,0-60.684-27.139-60.684-60.663c0-33.564,27.194-60.704,60.684-60.704
					C771.883,992.037,799.021,1019.176,799.021,1052.74z"/>
				<path fill="none" stroke="#FFFFFF" stroke-miterlimit="10" d="M904.134,1113.404c0,33.526-27.212,60.666-60.658,60.666
					c-33.582,0-60.702-27.176-60.702-60.666c0-33.489,27.083-60.702,60.702-60.702
					C876.957,1052.702,904.134,1079.879,904.134,1113.404z"/>
				<path fill="none" stroke="#FFFFFF" stroke-miterlimit="10" d="M1009.256,1052.74c0,33.524-27.102,60.663-60.665,60.663
					c-33.453,0-60.703-27.139-60.703-60.663c0-33.528,27.213-60.704,60.703-60.704
					C982.116,992.037,1009.256,1019.176,1009.256,1052.74z"/>
				<path fill="none" stroke="#FFFFFF" stroke-miterlimit="10" d="M1009.256,931.371c0,33.527-27.102,60.666-60.665,60.666
					c-33.453,0-60.703-27.139-60.703-60.666c0-33.526,27.213-60.665,60.703-60.665
					C982.116,870.705,1009.256,897.843,1009.256,931.371z"/>
				<path fill="none" stroke="#FFFFFF" stroke-miterlimit="10" d="M904.171,749.336c0,33.49-27.176,60.667-60.638,60.667
					c-33.545,0-60.703-27.176-60.703-60.667c0-33.527,27.158-60.666,60.703-60.666C876.995,688.672,904.171,715.847,904.171,749.336
					z"/>
				<path fill="none" stroke="#FFFFFF" stroke-miterlimit="10" d="M693.954,870.705c0,33.49-27.193,60.665-60.647,60.665
					c-33.545,0-60.703-27.175-60.703-60.665c0-33.526,27.176-60.665,60.703-60.665C666.761,810.04,693.954,837.179,693.954,870.705z
					"/>
				<path fill="none" stroke="#FFFFFF" stroke-miterlimit="10" d="M693.954,1113.404c0,33.526-27.193,60.666-60.647,60.666
					c-33.527,0-60.703-27.176-60.703-60.666c0-33.489,27.176-60.663,60.703-60.663
					C666.742,1052.74,693.954,1079.879,693.954,1113.404z"/>
				<path fill="none" stroke="#FFFFFF" stroke-miterlimit="10" d="M1114.414,1113.404c0,33.526-27.214,60.666-60.665,60.666
					c-33.527,0-60.702-27.176-60.702-60.666c0-33.489,27.175-60.702,60.702-60.702
					C1087.2,1052.702,1114.414,1079.879,1114.414,1113.404z"/>
				<path fill="none" stroke="#FFFFFF" stroke-miterlimit="10" d="M1114.414,870.705c0,33.49-27.214,60.665-60.665,60.665
					c-33.527,0-60.702-27.175-60.702-60.665c0-33.526,27.175-60.665,60.702-60.665C1087.2,810.04,1114.414,837.179,1114.414,870.705
					z"/>
				<path fill="none" stroke="#FFFFFF" stroke-miterlimit="10" d="M904.171,1234.772c0,33.491-27.214,60.665-60.658,60.665
					c-33.582,0-60.721-27.174-60.721-60.665c0-33.563,27.084-60.702,60.721-60.702
					C876.995,1174.07,904.171,1201.209,904.171,1234.772z"/>
			</g>
			<g id="fruit_11_">
				<path fill="none" stroke="#FFFFFF" stroke-miterlimit="10" d="M1324.548,749.374c0,33.453-27.177,60.667-60.371,60.667
					c-33.563,0-60.997-27.213-60.997-60.667c0-33.527,27.176-60.666,60.997-60.666
					C1297.37,688.708,1324.548,715.847,1324.548,749.374z"/>
				<path fill="none" stroke="#FFFFFF" stroke-miterlimit="10" d="M1324.548,628.043c0,33.453-27.177,60.665-60.371,60.665
					c-33.563,0-60.997-27.212-60.997-60.665c0-33.527,27.176-60.665,60.997-60.665
					C1297.37,567.34,1324.548,594.516,1324.548,628.043z"/>
				<path fill="none" stroke="#FFFFFF" stroke-miterlimit="10" d="M1219.461,688.708c0,33.453-27.102,60.628-60.665,60.628
					c-33.452,0-60.703-27.176-60.703-60.628c0-33.563,27.213-60.702,60.703-60.702
					C1192.285,628.006,1219.461,655.182,1219.461,688.708z"/>
				<path fill="none" stroke="#FFFFFF" stroke-miterlimit="10" d="M1219.461,810.04c0,33.49-27.102,60.665-60.665,60.665
					c-33.452,0-60.665-27.174-60.665-60.665c0-33.564,27.175-60.667,60.665-60.667
					C1192.323,749.374,1219.461,776.476,1219.461,810.04z"/>
				<path fill="none" stroke="#FFFFFF" stroke-miterlimit="10" d="M1324.548,870.705c0,33.49-27.177,60.702-60.371,60.702
					c-33.563,0-60.997-27.174-60.997-60.702c0-33.489,27.176-60.665,60.997-60.665
					C1297.407,810.04,1324.548,837.215,1324.548,870.705z"/>
				<path fill="none" stroke="#FFFFFF" stroke-miterlimit="10" d="M1429.704,810.04c0,33.49-27.102,60.665-60.664,60.665
					c-33.526,0-60.702-27.174-60.702-60.665c0-33.527,27.176-60.667,60.702-60.667
					C1402.528,749.374,1429.704,776.476,1429.704,810.04z"/>
				<path fill="none" stroke="#FFFFFF" stroke-miterlimit="10" d="M1429.704,688.708c0,33.453-27.102,60.628-60.664,60.628
					c-33.526,0-60.702-27.176-60.702-60.628c0-33.563,27.176-60.702,60.702-60.702
					C1402.528,628.006,1429.704,655.182,1429.704,688.708z"/>
				<path fill="none" stroke="#FFFFFF" stroke-miterlimit="10" d="M1324.621,506.674c0,33.453-27.212,60.666-60.665,60.666
					c-33.526,0-60.703-27.213-60.703-60.666c0-33.526,27.177-60.702,60.703-60.702
					C1297.407,445.972,1324.621,473.148,1324.621,506.674z"/>
				<path fill="none" stroke="#FFFFFF" stroke-miterlimit="10" d="M1534.863,870.705c0,33.49-27.176,60.702-60.666,60.702
					c-33.489,0-60.702-27.174-60.702-60.702c0-33.489,27.177-60.665,60.702-60.665
					C1507.651,810.04,1534.863,837.215,1534.863,870.705z"/>
				<path fill="none" stroke="#FFFFFF" stroke-miterlimit="10" d="M1534.863,628.043c0,33.453-27.176,60.665-60.666,60.665
					c-33.489,0-60.738-27.212-60.738-60.665c0-33.527,27.213-60.665,60.738-60.665
					C1507.651,567.377,1534.863,594.516,1534.863,628.043z"/>
			</g>
			<g id="fruit_10_">
				<path fill="none" stroke="#FFFFFF" stroke-miterlimit="10" d="M1324.621,1234.81c0,33.563-27.212,60.666-60.665,60.666
					c-33.564,0-60.703-27.103-60.703-60.666c0-33.453,27.064-60.666,60.703-60.666
					C1297.444,1174.144,1324.621,1201.32,1324.621,1234.81z"/>
				<path fill="none" stroke="#FFFFFF" stroke-miterlimit="10" d="M1324.621,1113.479c0,33.525-27.212,60.665-60.665,60.665
					c-33.564,0-60.703-27.14-60.703-60.665c0-33.452,27.064-60.664,60.703-60.664
					C1297.444,1052.813,1324.621,1079.952,1324.621,1113.479z"/>
				<path fill="none" stroke="#FFFFFF" stroke-miterlimit="10" d="M1219.498,1174.144c0,33.528-27.064,60.666-60.628,60.666
					c-33.452,0-60.704-27.138-60.704-60.666c0-33.452,27.213-60.665,60.704-60.665
					C1192.323,1113.479,1219.498,1140.617,1219.498,1174.144z"/>
				<path fill="none" stroke="#FFFFFF" stroke-miterlimit="10" d="M1219.498,1295.511c0,33.527-27.064,60.665-60.628,60.665
					c-33.452,0-60.704-27.138-60.704-60.665c0-33.489,27.213-60.701,60.704-60.701
					C1192.323,1234.81,1219.498,1261.949,1219.498,1295.511z"/>
				<path fill="none" stroke="#FFFFFF" stroke-miterlimit="10" d="M1324.621,1356.177c0,33.528-27.212,60.667-60.665,60.667
					c-33.564,0-60.703-27.177-60.703-60.667c0-33.488,27.064-60.701,60.703-60.701
					C1297.444,1295.476,1324.621,1322.652,1324.621,1356.177z"/>
				<path fill="none" stroke="#FFFFFF" stroke-miterlimit="10" d="M1429.741,1295.511c0,33.527-27.101,60.665-60.664,60.665
					c-33.453,0-60.702-27.138-60.702-60.665c0-33.489,27.213-60.701,60.702-60.701
					C1402.603,1234.81,1429.741,1261.949,1429.741,1295.511z"/>
				<path fill="none" stroke="#FFFFFF" stroke-miterlimit="10" d="M1429.741,1174.144c0,33.528-27.101,60.666-60.664,60.666
					c-33.453,0-60.702-27.138-60.702-60.666c0-33.452,27.213-60.665,60.702-60.665
					C1402.603,1113.479,1429.741,1140.617,1429.741,1174.144z"/>
				<path fill="none" stroke="#FFFFFF" stroke-miterlimit="10" d="M1324.658,992.11c0,33.525-27.176,60.665-60.629,60.665
					c-33.564,0-60.739-27.14-60.739-60.665c0-33.452,27.175-60.666,60.739-60.666C1297.48,931.445,1324.658,958.62,1324.658,992.11z
					"/>
				<path fill="none" stroke="#FFFFFF" stroke-miterlimit="10" d="M1534.9,1356.177c0,33.528-27.213,60.667-60.665,60.667
					c-33.527,0-60.702-27.177-60.702-60.667c0-33.488,27.175-60.701,60.702-60.701
					C1507.688,1295.476,1534.9,1322.652,1534.9,1356.177z"/>
				<path fill="none" stroke="#FFFFFF" stroke-miterlimit="10" d="M1534.9,1113.479c0,33.525-27.213,60.665-60.665,60.665
					c-33.527,0-60.702-27.14-60.702-60.665c0-33.452,27.175-60.664,60.702-60.664
					C1507.688,1052.813,1534.9,1079.952,1534.9,1113.479z"/>
				<path fill="none" stroke="#FFFFFF" stroke-miterlimit="10" d="M1324.658,1477.547c0,33.487-27.213,60.664-60.665,60.664
					c-33.563,0-60.703-27.177-60.703-60.664c0-33.49,27.065-60.703,60.703-60.703
					C1297.48,1416.844,1324.658,1443.982,1324.658,1477.547z"/>
			</g>
			<g id="fruit_9_">
				<path fill="none" stroke="#FFFFFF" stroke-miterlimit="10" d="M904.134,1477.435c0,33.526-27.212,60.665-60.658,60.665
					c-33.582,0-60.702-27.139-60.702-60.665c0-33.489,27.083-60.664,60.702-60.664
					C876.957,1416.771,904.134,1443.907,904.134,1477.435z"/>
				<path fill="none" stroke="#FFFFFF" stroke-miterlimit="10" d="M904.134,1356.104c0,33.528-27.212,60.667-60.658,60.667
					c-33.582,0-60.702-27.139-60.702-60.667c0-33.488,27.083-60.664,60.702-60.664
					C876.957,1295.401,904.134,1322.579,904.134,1356.104z"/>
				<path fill="none" stroke="#FFFFFF" stroke-miterlimit="10" d="M799.021,1416.771c0,33.525-27.083,60.627-60.647,60.627
					c-33.471,0-60.702-27.102-60.702-60.627c0-33.49,27.194-60.703,60.702-60.703
					C771.864,1356.067,799.021,1383.243,799.021,1416.771z"/>
				<path fill="none" stroke="#FFFFFF" stroke-miterlimit="10" d="M799.021,1538.101c0,33.526-27.083,60.665-60.647,60.665
					c-33.471,0-60.684-27.139-60.684-60.665c0-33.452,27.194-60.665,60.684-60.665
					C771.883,1477.435,799.021,1504.537,799.021,1538.101z"/>
				<path fill="none" stroke="#FFFFFF" stroke-miterlimit="10" d="M904.134,1598.766c0,33.528-27.212,60.704-60.658,60.704
					c-33.582,0-60.702-27.176-60.702-60.704c0-33.452,27.083-60.665,60.702-60.665
					C876.957,1538.101,904.134,1565.276,904.134,1598.766z"/>
				<path fill="none" stroke="#FFFFFF" stroke-miterlimit="10" d="M1009.256,1538.101c0,33.526-27.102,60.665-60.665,60.665
					c-33.453,0-60.703-27.139-60.703-60.665c0-33.452,27.213-60.665,60.703-60.665
					C982.116,1477.435,1009.256,1504.537,1009.256,1538.101z"/>
				<path fill="none" stroke="#FFFFFF" stroke-miterlimit="10" d="M1009.256,1416.771c0,33.525-27.102,60.627-60.665,60.627
					c-33.453,0-60.703-27.102-60.703-60.627c0-33.49,27.213-60.703,60.703-60.703
					C982.116,1356.067,1009.256,1383.243,1009.256,1416.771z"/>
				<path fill="none" stroke="#FFFFFF" stroke-miterlimit="10" d="M693.954,1598.766c0,33.528-27.193,60.704-60.647,60.704
					c-33.527,0-60.703-27.176-60.703-60.704c0-33.452,27.176-60.665,60.703-60.665
					C666.742,1538.101,693.954,1565.276,693.954,1598.766z"/>
				<path fill="none" stroke="#FFFFFF" stroke-miterlimit="10" d="M1114.414,1598.766c0,33.528-27.214,60.704-60.665,60.704
					c-33.527,0-60.702-27.176-60.702-60.704c0-33.452,27.175-60.665,60.702-60.665
					C1087.2,1538.101,1114.414,1565.276,1114.414,1598.766z"/>
				<path fill="none" stroke="#FFFFFF" stroke-miterlimit="10" d="M1114.414,1356.104c0,33.528-27.214,60.667-60.665,60.667
					c-33.527,0-60.702-27.139-60.702-60.667c0-33.488,27.175-60.664,60.702-60.664
					C1087.2,1295.438,1114.414,1322.579,1114.414,1356.104z"/>
				<path fill="none" stroke="#FFFFFF" stroke-miterlimit="10" d="M904.171,1720.134c0,33.49-27.214,60.667-60.658,60.667
					c-33.582,0-60.721-27.177-60.721-60.667c0-33.451,27.084-60.664,60.721-60.664
					C876.995,1659.47,904.171,1686.608,904.171,1720.134z"/>
			</g>
			<g id="fruit_8_">
				<path fill="none" stroke="#FFFFFF" stroke-miterlimit="10" d="M483.637,1234.735c0,33.527-27.195,60.666-60.647,60.666
					c-33.583,0-60.703-27.138-60.703-60.666c0-33.489,27.083-60.665,60.703-60.665
					C456.442,1174.07,483.637,1201.209,483.637,1234.735z"/>
				<path fill="none" stroke="#FFFFFF" stroke-miterlimit="10" d="M483.637,1113.404c0,33.526-27.195,60.666-60.647,60.666
					c-33.583,0-60.703-27.14-60.703-60.666c0-33.524,27.083-60.663,60.703-60.663
					C456.442,1052.702,483.637,1079.879,483.637,1113.404z"/>
				<path fill="none" stroke="#FFFFFF" stroke-miterlimit="10" d="M378.534,1174.07c0,33.525-27.194,60.629-60.648,60.629
					c-33.563,0-60.998-27.104-60.998-60.629c0-33.526,27.194-60.703,60.998-60.703
					C351.358,1113.367,378.534,1140.544,378.534,1174.07z"/>
				<path fill="none" stroke="#FFFFFF" stroke-miterlimit="10" d="M378.534,1295.401c0,33.527-27.194,60.665-60.648,60.665
					c-33.527,0-60.98-27.138-60.98-60.665c0-33.452,27.194-60.666,60.98-60.666C351.358,1234.735,378.534,1261.838,378.534,1295.401
					z"/>
				<path fill="none" stroke="#FFFFFF" stroke-miterlimit="10" d="M483.637,1356.067c0,33.525-27.195,60.703-60.647,60.703
					c-33.583,0-60.703-27.178-60.703-60.703c0-33.488,27.083-60.664,60.703-60.664
					C456.461,1295.401,483.637,1322.579,483.637,1356.067z"/>
				<path fill="none" stroke="#FFFFFF" stroke-miterlimit="10" d="M588.759,1295.401c0,33.527-27.102,60.665-60.666,60.665
					c-33.471,0-60.703-27.138-60.703-60.665c0-33.452,27.194-60.666,60.703-60.666
					C561.621,1234.735,588.759,1261.838,588.759,1295.401z"/>
				<path fill="none" stroke="#FFFFFF" stroke-miterlimit="10" d="M588.759,1174.07c0,33.525-27.102,60.629-60.666,60.629
					c-33.471,0-60.703-27.104-60.703-60.629c0-33.526,27.194-60.703,60.703-60.703
					C561.621,1113.367,588.759,1140.544,588.759,1174.07z"/>
				<path fill="none" stroke="#FFFFFF" stroke-miterlimit="10" d="M483.674,992.037c0,33.526-27.175,60.666-60.647,60.666
					c-33.546,0-60.703-27.14-60.703-60.666c0-33.527,27.157-60.702,60.703-60.702C456.499,931.334,483.674,958.51,483.674,992.037z"
					/>
				<path fill="none" stroke="#FFFFFF" stroke-miterlimit="10" d="M273.449,1113.404c0,33.526-27.157,60.666-60.646,60.666
					c-33.472,0-60.703-27.176-60.703-60.666c0-33.524,27.195-60.663,60.703-60.663
					C246.274,1052.74,273.449,1079.879,273.449,1113.404z"/>
				<path fill="none" stroke="#FFFFFF" stroke-miterlimit="10" d="M273.449,1356.067c0,33.525-27.157,60.703-60.646,60.703
					c-33.472,0-60.703-27.178-60.703-60.703c0-33.488,27.195-60.664,60.703-60.664
					C246.254,1295.401,273.449,1322.579,273.449,1356.067z"/>
				<path fill="none" stroke="#FFFFFF" stroke-miterlimit="10" d="M693.917,1356.067c0,33.525-27.194,60.703-60.647,60.703
					c-33.527,0-60.703-27.178-60.703-60.703c0-33.488,27.176-60.664,60.703-60.664
					C666.705,1295.401,693.917,1322.579,693.917,1356.067z"/>
				<path fill="none" stroke="#FFFFFF" stroke-miterlimit="10" d="M483.656,1477.435c0,33.49-27.194,60.665-60.647,60.665
					c-33.583,0-60.721-27.175-60.721-60.665c0-33.452,27.083-60.664,60.721-60.664
					C456.499,1416.771,483.656,1443.907,483.656,1477.435z"/>
			</g>
			<g id="fruit_7_">
				<path fill="none" stroke="#FFFFFF" stroke-miterlimit="10" d="M483.637,749.374c0,33.453-27.195,60.667-60.647,60.667
					c-33.583,0-60.703-27.213-60.703-60.667c0-33.527,27.083-60.666,60.703-60.666C456.442,688.708,483.637,715.847,483.637,749.374
					z"/>
				<path fill="none" stroke="#FFFFFF" stroke-miterlimit="10" d="M483.637,628.043c0,33.453-27.195,60.665-60.647,60.665
					c-33.583,0-60.703-27.212-60.703-60.665c0-33.527,27.083-60.665,60.703-60.665C456.442,567.34,483.637,594.516,483.637,628.043z
					"/>
				<path fill="none" stroke="#FFFFFF" stroke-miterlimit="10" d="M378.534,688.708c0,33.453-27.194,60.628-60.648,60.628
					c-33.563,0-60.998-27.176-60.998-60.628c0-33.563,27.194-60.702,60.998-60.702C351.358,628.006,378.534,655.182,378.534,688.708
					z"/>
				<path fill="none" stroke="#FFFFFF" stroke-miterlimit="10" d="M378.534,810.04c0,33.49-27.194,60.665-60.648,60.665
					c-33.527,0-60.98-27.174-60.98-60.665c0-33.564,27.194-60.667,60.98-60.667C351.358,749.374,378.534,776.476,378.534,810.04z"/>
				<path fill="none" stroke="#FFFFFF" stroke-miterlimit="10" d="M483.637,870.705c0,33.49-27.195,60.702-60.647,60.702
					c-33.583,0-60.703-27.174-60.703-60.702c0-33.489,27.083-60.665,60.703-60.665C456.461,810.04,483.637,837.215,483.637,870.705z
					"/>
				<path fill="none" stroke="#FFFFFF" stroke-miterlimit="10" d="M588.759,810.04c0,33.49-27.102,60.665-60.666,60.665
					c-33.471,0-60.703-27.174-60.703-60.665c0-33.527,27.194-60.667,60.703-60.667C561.621,749.374,588.759,776.476,588.759,810.04z
					"/>
				<path fill="none" stroke="#FFFFFF" stroke-miterlimit="10" d="M588.759,688.708c0,33.453-27.102,60.628-60.666,60.628
					c-33.471,0-60.703-27.176-60.703-60.628c0-33.563,27.194-60.702,60.703-60.702C561.621,628.006,588.759,655.182,588.759,688.708
					z"/>
				<path fill="none" stroke="#FFFFFF" stroke-miterlimit="10" d="M483.674,506.674c0,33.453-27.175,60.666-60.647,60.666
					c-33.546,0-60.703-27.213-60.703-60.666c0-33.526,27.157-60.702,60.703-60.702C456.499,445.972,483.674,473.148,483.674,506.674
					z"/>
				<path fill="none" stroke="#FFFFFF" stroke-miterlimit="10" d="M273.449,628.043c0,33.453-27.157,60.665-60.646,60.665
					c-33.472,0-60.703-27.212-60.703-60.665c0-33.527,27.195-60.665,60.703-60.665C246.274,567.377,273.449,594.516,273.449,628.043
					z"/>
				<path fill="none" stroke="#FFFFFF" stroke-miterlimit="10" d="M273.449,870.705c0,33.49-27.157,60.702-60.646,60.702
					c-33.472,0-60.703-27.174-60.703-60.702c0-33.489,27.195-60.665,60.703-60.665C246.254,810.04,273.449,837.215,273.449,870.705z
					"/>
				<path fill="none" stroke="#FFFFFF" stroke-miterlimit="10" d="M693.917,628.043c0,33.453-27.194,60.665-60.665,60.665
					c-33.509,0-60.703-27.212-60.703-60.665c0-33.527,27.176-60.665,60.703-60.665C666.705,567.377,693.917,594.516,693.917,628.043
					z"/>
			</g>
			<g id="fruit_6_">
				<path fill="none" stroke="#FFFFFF" stroke-miterlimit="10" d="M904.134,506.601c0,33.453-27.212,60.666-60.658,60.666
					c-33.582,0-60.702-27.213-60.702-60.666c0-33.526,27.083-60.666,60.702-60.666C876.957,445.935,904.134,473.074,904.134,506.601
					z"/>
				<path fill="none" stroke="#FFFFFF" stroke-miterlimit="10" d="M904.134,385.27c0,33.454-27.212,60.666-60.658,60.666
					c-33.582,0-60.702-27.212-60.702-60.666c0-33.527,27.083-60.666,60.702-60.666C876.957,324.568,904.134,351.743,904.134,385.27z
					"/>
				<path fill="none" stroke="#FFFFFF" stroke-miterlimit="10" d="M799.021,445.935c0,33.453-27.083,60.629-60.647,60.629
					c-33.471,0-60.702-27.176-60.702-60.629c0-33.563,27.194-60.702,60.702-60.702C771.864,385.233,799.021,412.409,799.021,445.935
					z"/>
				<path fill="none" stroke="#FFFFFF" stroke-miterlimit="10" d="M799.021,567.267c0,33.49-27.083,60.666-60.647,60.666
					c-33.471,0-60.684-27.176-60.684-60.666c0-33.564,27.194-60.666,60.684-60.666C771.883,506.601,799.021,533.703,799.021,567.267
					z"/>
				<path fill="none" stroke="#FFFFFF" stroke-miterlimit="10" d="M904.134,627.933c0,33.49-27.212,60.702-60.658,60.702
					c-33.582,0-60.702-27.212-60.702-60.702c0-33.49,27.083-60.666,60.702-60.666C876.957,567.267,904.134,594.443,904.134,627.933z
					"/>
				<path fill="none" stroke="#FFFFFF" stroke-miterlimit="10" d="M1009.256,567.267c0,33.49-27.102,60.666-60.665,60.666
					c-33.453,0-60.703-27.176-60.703-60.666c0-33.527,27.213-60.666,60.703-60.666
					C982.116,506.601,1009.256,533.703,1009.256,567.267z"/>
				<path fill="none" stroke="#FFFFFF" stroke-miterlimit="10" d="M1009.256,445.935c0,33.453-27.102,60.629-60.665,60.629
					c-33.453,0-60.703-27.176-60.703-60.629c0-33.563,27.213-60.702,60.703-60.702
					C982.116,385.233,1009.256,412.409,1009.256,445.935z"/>
				<path fill="none" stroke="#FFFFFF" stroke-miterlimit="10" d="M904.171,263.902c0,33.454-27.176,60.666-60.638,60.666
					c-33.545,0-60.703-27.212-60.703-60.666c0-33.526,27.158-60.703,60.703-60.703C876.995,203.199,904.171,230.375,904.171,263.902
					z"/>
				<path fill="none" stroke="#FFFFFF" stroke-miterlimit="10" d="M693.954,385.27c0,33.454-27.193,60.666-60.647,60.666
					c-33.545,0-60.703-27.212-60.703-60.666c0-33.527,27.176-60.666,60.703-60.666C666.761,324.604,693.954,351.743,693.954,385.27z
					"/>
				<path fill="none" stroke="#FFFFFF" stroke-miterlimit="10" d="M1114.414,627.933c0,33.49-27.214,60.702-60.665,60.702
					c-33.527,0-60.702-27.212-60.702-60.702c0-33.49,27.175-60.666,60.702-60.666C1087.2,567.267,1114.414,594.443,1114.414,627.933
					z"/>
				<path fill="none" stroke="#FFFFFF" stroke-miterlimit="10" d="M1114.414,385.27c0,33.454-27.214,60.666-60.665,60.666
					c-33.527,0-60.702-27.212-60.702-60.666c0-33.527,27.175-60.666,60.702-60.666C1087.2,324.604,1114.414,351.743,1114.414,385.27
					z"/>
			</g>
			<g id="_x36__in_1_3_">
				<path fill="none" stroke="#FFFFFF" stroke-miterlimit="10" d="M1085.937,505.982c0,134.228-108.649,243.015-243.236,243.015
					c-134.187,0-243.092-108.768-243.092-243.015c0-134.317,108.846-243.112,243.092-243.112
					C977.087,262.928,1085.937,371.665,1085.937,505.982z"/>
				<path fill="none" stroke="#FFFFFF" stroke-miterlimit="10" d="M664.924,749.076c0,134.208-108.649,242.935-242.954,242.935
					c-134.206,0-243.194-108.727-243.194-242.935c0-134.326,108.648-243.094,243.194-243.094
					C556.057,505.982,664.924,614.749,664.924,749.076z"/>
				<path fill="none" stroke="#FFFFFF" stroke-miterlimit="10" d="M664.924,1235.125c0,134.207-108.649,242.993-242.914,242.993
					c-134.207,0-243.194-108.786-243.194-242.993c0-134.328,108.648-243.115,243.194-243.115
					C556.078,992.01,664.924,1100.797,664.924,1235.125z"/>
				<path fill="none" stroke="#FFFFFF" stroke-miterlimit="10" d="M1085.937,1478.157c0,134.208-108.649,242.975-243.236,242.975
					c-134.187,0-243.092-108.745-243.092-242.974c0-134.346,108.846-243.073,243.092-243.073
					C977.087,1235.064,1085.937,1343.851,1085.937,1478.157z"/>
				<path fill="none" stroke="#FFFFFF" stroke-miterlimit="10" d="M1507.047,1235.125c0,134.207-108.805,242.993-243.234,242.993
					c-134.207,0-243.132-108.747-243.132-242.993c0-134.328,108.645-243.115,243.132-243.115
					C1398.199,992.01,1507.047,1100.797,1507.047,1235.125z"/>
				<path fill="none" stroke="#FFFFFF" stroke-miterlimit="10" d="M1507.006,749.076c0,134.208-108.625,242.935-242.934,242.935
					c-134.188,0-243.253-108.727-243.253-242.935c0-134.326,108.824-243.094,243.253-243.094
					C1398.179,505.982,1507.006,614.749,1507.006,749.076z"/>
				<circle fill="none" stroke="#FFFFFF" stroke-miterlimit="10" cx="842.7" cy="992.049" r="242.908"/>
			</g>
			<g id="big_star_1_" display="none">
				
					<line display="inline" fill="none" stroke="#FFFFFF" stroke-miterlimit="10" x1="842.907" y1="160.346" x2="122.638" y2="1406.444"/>
				
					<line display="inline" fill="none" stroke="#FFFFFF" stroke-miterlimit="10" x1="122.638" y1="1406.444" x2="1562.334" y2="1406.444"/>
				
					<line display="inline" fill="none" stroke="#FFFFFF" stroke-miterlimit="10" x1="1562.334" y1="1406.444" x2="842.907" y2="160.346"/>
				
					<line display="inline" fill="none" stroke="#FFFFFF" stroke-miterlimit="10" x1="124.233" y1="577.761" x2="842.907" y2="1823.654"/>
				
					<line display="inline" fill="none" stroke="#FFFFFF" stroke-miterlimit="10" x1="842.907" y1="1823.654" x2="1563.199" y2="576.896"/>
				
					<line display="inline" fill="none" stroke="#FFFFFF" stroke-miterlimit="10" x1="1563.199" y1="576.896" x2="124.233" y2="577.761"/>
				
					<line display="inline" fill="none" stroke="#FFFFFF" stroke-miterlimit="10" x1="602.621" y1="299.018" x2="1083.105" y2="299.018"/>
				
					<line display="inline" fill="none" stroke="#FFFFFF" stroke-miterlimit="10" x1="1083.105" y1="299.018" x2="842.838" y2="714.84"/>
				
					<line display="inline" fill="none" stroke="#FFFFFF" stroke-miterlimit="10" x1="842.838" y1="714.84" x2="602.621" y2="299.018"/>
				
					<line display="inline" fill="none" stroke="#FFFFFF" stroke-miterlimit="10" x1="362.698" y1="437.643" x2="122.638" y2="847.609"/>
				
					<line display="inline" fill="none" stroke="#FFFFFF" stroke-miterlimit="10" x1="122.638" y1="847.609" x2="602.621" y2="853.487"/>
				
					<line display="inline" fill="none" stroke="#FFFFFF" stroke-miterlimit="10" x1="602.621" y1="853.487" x2="362.698" y2="437.643"/>
				
					<line display="inline" fill="none" stroke="#FFFFFF" stroke-miterlimit="10" x1="124.908" y1="1130.744" x2="352.615" y2="1543.694"/>
				
					<line display="inline" fill="none" stroke="#FFFFFF" stroke-miterlimit="10" x1="352.615" y1="1543.694" x2="602.711" y2="1130.717"/>
				
					<line display="inline" fill="none" stroke="#FFFFFF" stroke-miterlimit="10" x1="602.711" y1="1130.717" x2="124.908" y2="1130.717"/>
				
					<line display="inline" fill="none" stroke="#FFFFFF" stroke-miterlimit="10" x1="608.377" y1="1685.223" x2="842.588" y2="1269.265"/>
				
					<line display="inline" fill="none" stroke="#FFFFFF" stroke-miterlimit="10" x1="842.588" y1="1269.265" x2="1082.877" y2="1685.178"/>
				
					<line display="inline" fill="none" stroke="#FFFFFF" stroke-miterlimit="10" x1="1082.877" y1="1685.178" x2="608.377" y2="1685.223"/>
				
					<line display="inline" fill="none" stroke="#FFFFFF" stroke-miterlimit="10" x1="1563.199" y1="1132.48" x2="1322.912" y2="1546.472"/>
				
					<line display="inline" fill="none" stroke="#FFFFFF" stroke-miterlimit="10" x1="1322.912" y1="1546.472" x2="1082.877" y2="1130.717"/>
				
					<line display="inline" fill="none" stroke="#FFFFFF" stroke-miterlimit="10" x1="1082.877" y1="1130.717" x2="1563.199" y2="1132.48"/>
				
					<line display="inline" fill="none" stroke="#FFFFFF" stroke-miterlimit="10" x1="1323.209" y1="437.643" x2="1083.105" y2="853.532"/>
				
					<line display="inline" fill="none" stroke="#FFFFFF" stroke-miterlimit="10" x1="1083.105" y1="853.532" x2="1563.199" y2="853.746"/>
				
					<line display="inline" fill="none" stroke="#FFFFFF" stroke-miterlimit="10" x1="1563.199" y1="853.746" x2="1323.209" y2="437.643"/>
				
					<line display="inline" fill="none" stroke="#FFFFFF" stroke-miterlimit="10" x1="1083.105" y1="853.532" x2="842.588" y2="1269.119"/>
				
					<line display="inline" fill="none" stroke="#FFFFFF" stroke-miterlimit="10" x1="842.588" y1="1269.119" x2="602.621" y2="853.487"/>
				
					<line display="inline" fill="none" stroke="#FFFFFF" stroke-miterlimit="10" x1="602.621" y1="853.487" x2="1083.105" y2="853.532"/>
				
					<line display="inline" fill="none" stroke="#FFFFFF" stroke-miterlimit="10" x1="842.838" y1="714.84" x2="1082.877" y2="1130.717"/>
				
					<line display="inline" fill="none" stroke="#FFFFFF" stroke-miterlimit="10" x1="1082.877" y1="1130.717" x2="602.711" y2="1130.717"/>
				
					<line display="inline" fill="none" stroke="#FFFFFF" stroke-miterlimit="10" x1="602.711" y1="1130.717" x2="842.838" y2="714.84"/>
			</g>
		</g>
		<g id="hexagon">
			<polygon fill="#FFFFFF" fill-opacity="0" stroke="#FFE86D" stroke-miterlimit="10" stroke-opacity="0" points="-7,507 834,21 
				1675,507 1675,1478 834,1963 -7,1478 			"/>
		</g>
	</g>
</g>
</svg>
