<?xml version="1.0" encoding="utf-8"?>
<!-- Generator: Adobe Illustrator 16.0.0, SVG Export Plug-In . SVG Version: 6.00 Build 0)  -->
<!DOCTYPE svg PUBLIC "-//W3C//DTD SVG 1.1//EN" "http://www.w3.org/Graphics/SVG/1.1/DTD/svg11.dtd">
<svg version="1.1" id="Layer_1" xmlns="http://www.w3.org/2000/svg" xmlns:xlink="http://www.w3.org/1999/xlink" x="0px" y="0px"
	 width="1687.334px" height="2012.229px" viewBox="150.126 -13.988 1687.334 2012.229"
	 enable-background="new 150.126 -13.988 1687.334 2012.229" xml:space="preserve">

	 	<style>
		#hexagon, #sixtyFour, #fruit {
			cursor: pointer;
			transition: 0.2s;
		}
	 </style>

<g id="sixtyFourTetraGroup">
	<g id="back" display="none">
		<rect id="image" x="151.141" y="-13.988" display="inline" fill="#130E22" width="1686.319" height="2012.229"/>
	</g>
	<g id="fruit" stroke-width="2">
		<g>
			<path fill="none" stroke="#FFFFFF" d="M1153.48,992.146c0,89.159-72.298,161.414-161.389,161.414
				c-89.201,0-161.497-72.252-161.497-161.414c0-89.22,72.296-161.472,161.497-161.472
				C1081.186,830.677,1153.48,902.929,1153.48,992.146z"/>
			<path fill="none" stroke="#FFFFFF" d="M1153.48,669.265c0,89.16-72.298,161.414-161.389,161.414
				c-89.201,0-161.497-72.254-161.497-161.414c0-89.218,72.296-161.47,161.497-161.47
				C1081.186,507.795,1153.48,580.047,1153.48,669.265z"/>
			<path fill="none" stroke="#FFFFFF" d="M873.821,830.704c0,89.16-72.294,161.414-161.389,161.414
				c-89.198,0-161.497-72.254-161.497-161.414c0-89.218,72.299-161.47,161.497-161.47
				C801.527,669.234,873.821,741.486,873.821,830.704z"/>
			<path fill="none" stroke="#FFFFFF" d="M873.824,1153.575c0,89.162-72.294,161.414-161.387,161.414
				c-89.2,0-161.496-72.252-161.496-161.414c0-89.218,72.296-161.47,161.496-161.47
				C801.529,992.106,873.824,1064.358,873.824,1153.575z"/>
			<path fill="none" stroke="#FFFFFF" d="M1153.48,1315.03c0,89.16-72.297,161.412-161.388,161.412
				c-89.202,0-161.497-72.252-161.497-161.412c0-89.22,72.295-161.474,161.497-161.474
				C1081.188,1153.561,1153.48,1225.813,1153.48,1315.03z"/>
			<path fill="none" stroke="#FFFFFF" d="M1433.191,1153.589c0,89.162-72.295,161.414-161.389,161.414
				c-89.199,0-161.495-72.252-161.495-161.414c0-89.219,72.296-161.471,161.495-161.471
				C1360.896,992.118,1433.191,1064.37,1433.191,1153.589z"/>
			<path fill="none" stroke="#FFFFFF" d="M1433.18,830.704c0,89.161-72.294,161.414-161.386,161.414
				c-89.201,0-161.497-72.253-161.497-161.414c0-89.218,72.296-161.469,161.497-161.469
				C1360.886,669.235,1433.18,741.486,1433.18,830.704z"/>
			<path fill="none" stroke="#FFFFFF" d="M1153.585,346.383c0,89.161-72.295,161.414-161.386,161.414
				c-89.201,0-161.497-72.253-161.497-161.414c0-89.219,72.295-161.47,161.497-161.47
				C1081.29,184.913,1153.585,257.164,1153.585,346.383z"/>
			<path fill="none" stroke="#FFFFFF" d="M594.202,669.276c0,89.161-72.294,161.414-161.386,161.414
				c-89.201,0-161.5-72.253-161.5-161.414c0-89.221,72.296-161.472,161.5-161.472C521.907,507.808,594.202,580.059,594.202,669.276z
				"/>
			<path fill="none" stroke="#FFFFFF" d="M594.19,1315.042c0,89.164-72.294,161.416-161.389,161.416
				c-89.199,0-161.497-72.252-161.497-161.416c0-89.217,72.293-161.467,161.497-161.467
				C521.896,1153.575,594.19,1225.825,594.19,1315.042z"/>
			<path fill="none" stroke="#FFFFFF" d="M1712.944,1315.032c0,89.162-72.296,161.414-161.389,161.414
				c-89.198,0-161.496-72.252-161.496-161.414c0-89.22,72.298-161.47,161.496-161.47
				C1640.649,1153.563,1712.944,1225.813,1712.944,1315.032z"/>
			<path fill="none" stroke="#FFFFFF" d="M1712.934,669.287c0,89.162-72.295,161.414-161.386,161.414
				c-89.202,0-161.497-72.252-161.497-161.414c0-89.218,72.295-161.469,161.497-161.469
				C1640.639,507.818,1712.934,580.069,1712.934,669.287z"/>
			<path fill="none" stroke="#FFFFFF" d="M1153.567,1637.923c0,89.162-72.296,161.416-161.39,161.416
				c-89.2,0-161.497-72.254-161.497-161.416c0-89.217,72.297-161.467,161.497-161.467
				C1081.271,1476.456,1153.567,1548.706,1153.567,1637.923z"/>
		</g>
	</g>
	<g id="sixtyFour" stroke-width="8">
		<g>
			<line fill="none" stroke="#FFFFFF" x1="432.767" y1="992.142" x2="712.73" y2="588.536"/>
			<line fill="none" stroke="#FFFFFF" x1="712.73" y1="588.536" x2="991.58" y2="992.449"/>
			<line fill="none" stroke="#FFFFFF" x1="991.58" y1="992.449" x2="1270.578" y2="588.536"/>
			<line fill="none" stroke="#FFFFFF" x1="1270.578" y1="588.536" x2="1551.52" y2="992.142"/>
			<line fill="none" stroke="#FFFFFF" x1="1551.52" y1="992.142" x2="1271.689" y2="1395.521"/>
			<line fill="none" stroke="#FFFFFF" x1="1271.689" y1="1395.521" x2="989.764" y2="996.136"/>
			<line fill="none" stroke="#FFFFFF" x1="989.764" y1="996.136" x2="712.73" y2="1395.521"/>
			<line fill="none" stroke="#FFFFFF" x1="712.73" y1="1395.521" x2="432.767" y2="992.142"/>
			<line fill="none" stroke="#FFFFFF" x1="992.4" y1="1395.521" x2="432.731" y2="588.536"/>
			<line fill="none" stroke="#FFFFFF" x1="432.731" y1="588.536" x2="1551.462" y2="588.536"/>
			<line fill="none" stroke="#FFFFFF" x1="1551.462" y1="588.536" x2="992.4" y2="1395.521"/>
			<line fill="none" stroke="#FFFFFF" x1="1551.52" y1="992.142" x2="432.767" y2="992.142"/>
			<line fill="none" stroke="#FFFFFF" x1="432.731" y1="1395.521" x2="992.4" y2="586.736"/>
			<line fill="none" stroke="#FFFFFF" x1="992.4" y1="586.736" x2="1551.462" y2="1395.703"/>
			<line fill="none" stroke="#FFFFFF" x1="432.731" y1="1395.521" x2="1551.462" y2="1395.703"/>
			<line fill="none" stroke="#FFFFFF" x1="572.555" y1="790.618" x2="1411.667" y2="791.226"/>
			<line fill="none" stroke="#FFFFFF" x1="1413.332" y1="1195.829" x2="570.917" y2="1195.829"/>
			<circle id="circle_6_" fill="none" stroke="#FFFFFF" cx="992.126" cy="992.126" r="726.798"/>
		</g>
	</g>
	<g id="hexagon" stroke-width="8" stroke-opacity="0">
		<polygon fill="#FFFFFF" fill-opacity="0" stroke="#ffe86d" stroke-miterlimit="10" points="151.141,506.58 
			992.121,21.034 1833.111,506.58 1833.111,1477.672 992.121,1963.218 151.141,1477.672 		"/>
	</g>
</g>
</svg>
