<?xml version="1.0" encoding="utf-8"?>
<!-- Generator: Adobe Illustrator 16.0.0, SVG Export Plug-In . SVG Version: 6.00 Build 0)  -->
<!DOCTYPE svg PUBLIC "-//W3C//DTD SVG 1.1//EN" "http://www.w3.org/Graphics/SVG/1.1/DTD/svg11.dtd">
<svg version="1.1" id="Layer_1" xmlns="http://www.w3.org/2000/svg" xmlns:xlink="http://www.w3.org/1999/xlink" x="0px" y="0px"
	 width="1683.969px" height="1984.252px" viewBox="0 0 1683.969 1984.252" enable-background="new 0 0 1683.969 1984.252"
	 xml:space="preserve">
<g id="_x36_4Tetra3DFullGroup">
	<g id="back" display="none">
		<rect id="image" x="1.608" y="-13.87" display="inline" fill="#130E22" width="1683.969" height="2012.229"/>
	</g>
	<g id="fruit">
		<g>
			<path fill="none" stroke="#FFFFFF" d="M1004.94,992.322c0,89.435-72.331,161.333-161.345,161.333
				c-89.191,0-161.347-72.322-161.347-161.333c0-89.253,72.271-161.354,161.347-161.354
				C932.689,830.848,1004.94,903.068,1004.94,992.322z"/>
			<path fill="none" stroke="#FFFFFF" d="M1004.94,669.434c0,89.215-72.331,161.333-161.345,161.333
				c-89.191,0-161.347-72.319-161.347-161.333c0-89.452,72.271-161.354,161.347-161.354
				C932.689,507.999,1004.94,580.281,1004.94,669.434z"/>
			<path fill="none" stroke="#FFFFFF" d="M725.356,830.848c0,89.271-72.331,161.354-161.346,161.354
				c-89.283,0-161.348-72.34-161.348-161.354c0-89.214,72.332-161.332,161.348-161.332
				C653.046,669.394,725.356,741.634,725.356,830.848z"/>
			<path fill="none" stroke="#FFFFFF" d="M725.356,1153.714c0,89.354-72.331,161.335-161.346,161.335
				c-89.283,0-161.348-72.341-161.348-161.335c0-89.392,72.332-161.352,161.348-161.352
				C653.046,992.264,725.356,1064.423,725.356,1153.714z"/>
			<path fill="none" stroke="#FFFFFF" d="M1004.94,1315.109c0,89.451-72.331,161.354-161.345,161.354
				c-89.191,0-161.347-72.341-161.347-161.354c0-89.415,72.271-161.335,161.347-161.335
				C932.689,1153.678,1004.94,1225.896,1004.94,1315.109z"/>
			<path fill="none" stroke="#FFFFFF" d="M1284.605,1153.714c0,89.354-72.33,161.335-161.345,161.335
				c-89.191,0-161.348-72.341-161.348-161.335c0-89.352,72.332-161.352,161.348-161.352
				C1212.275,992.362,1284.605,1064.461,1284.605,1153.714z"/>
			<path fill="none" stroke="#FFFFFF" d="M1284.605,830.848c0,89.271-72.33,161.354-161.345,161.354
				c-89.191,0-161.348-72.34-161.348-161.354c0-89.214,72.332-161.332,161.348-161.332
				C1212.275,669.493,1284.605,741.634,1284.605,830.848z"/>
			<path fill="none" stroke="#FFFFFF" d="M1005.041,346.646c0,89.111-72.331,161.334-161.343,161.334
				c-89.424,0-161.345-72.322-161.345-161.334c0-89.453,72.332-161.535,161.345-161.535
				C932.81,185.174,1005.041,257.372,1005.041,346.646z"/>
			<path fill="none" stroke="#FFFFFF" d="M445.761,669.474c0,89.148-72.331,161.334-161.346,161.334
				c-89.214,0-161.345-72.319-161.345-161.334c0-89.23,72.332-161.354,161.345-161.354
				C373.448,507.999,445.761,580.281,445.761,669.474z"/>
			<path fill="none" stroke="#FFFFFF" d="M445.761,1315.109c0,89.451-72.331,161.354-161.346,161.354
				c-89.214,0-161.345-72.341-161.345-161.354c0-89.415,72.332-161.335,161.345-161.335
				C373.43,1153.774,445.761,1225.896,445.761,1315.109z"/>
			<path fill="none" stroke="#FFFFFF" d="M1564.343,1315.109c0,89.451-72.333,161.354-161.349,161.354
				c-89.439,0-161.438-72.341-161.438-161.354c0-89.415,72.331-161.335,161.438-161.335
				C1492.01,1153.678,1564.343,1225.896,1564.343,1315.109z"/>
			<path fill="none" stroke="#FFFFFF" d="M1564.343,669.474c0,89.214-72.333,161.334-161.349,161.334
				c-89.439,0-161.438-72.319-161.438-161.334c0-89.23,72.331-161.354,161.438-161.354
				C1492.01,508.04,1564.343,580.281,1564.343,669.474z"/>
			<path fill="none" stroke="#FFFFFF" d="M1005.002,1637.896c0,89.174-72.331,161.354-161.344,161.354
				c-89.44,0-161.344-72.341-161.344-161.354c0-89.438,72.291-161.354,161.344-161.354
				C932.771,1476.504,1005.002,1548.742,1005.002,1637.896z"/>
		</g>
		<g id="minor">
			<line fill="none" stroke="#FFFFFF" stroke-miterlimit="10" x1="1122.672" y1="1477.826" x2="1403.096" y2="992.107"/>
			<line fill="none" stroke="#FFFFFF" stroke-miterlimit="10" x1="1403.096" y1="992.107" x2="1122.672" y2="506.452"/>
			<line fill="none" stroke="#FFFFFF" stroke-miterlimit="10" x1="561.648" y1="506.415" x2="281.132" y2="992.107"/>
			<line fill="none" stroke="#FFFFFF" stroke-miterlimit="10" x1="281.132" y1="992.107" x2="561.686" y2="1477.845"/>
			<line fill="none" stroke="#FFFFFF" stroke-miterlimit="10" x1="1122.672" y1="1154.026" x2="1122.672" y2="1477.826"/>
			<line fill="none" stroke="#FFFFFF" stroke-miterlimit="10" x1="561.648" y1="1477.863" x2="561.686" y2="1154.025"/>
			<line fill="none" stroke="#FFFFFF" stroke-miterlimit="10" x1="561.686" y1="1154.025" x2="842.192" y2="668.334"/>
			<line fill="none" stroke="#FFFFFF" stroke-miterlimit="10" x1="842.192" y1="668.334" x2="1122.672" y2="1154.026"/>
			<g id="plane">
				<line fill="none" stroke="#FFFFFF" stroke-miterlimit="10" x1="1403.096" y1="992.107" x2="1122.672" y2="1154.026"/>
				<line fill="none" stroke="#FFFFFF" stroke-miterlimit="10" x1="561.686" y1="1154.025" x2="281.28" y2="992.107"/>
				<line fill="none" stroke="#FFFFFF" stroke-miterlimit="10" x1="1122.672" y1="1154.026" x2="561.686" y2="1154.025"/>
				<line fill="none" stroke="#FFFFFF" stroke-miterlimit="10" x1="281.28" y1="992.107" x2="561.76" y2="830.449"/>
				<line fill="none" stroke="#FFFFFF" stroke-miterlimit="10" x1="561.76" y1="830.449" x2="1123.26" y2="830.449"/>
				<line fill="none" stroke="#FFFFFF" stroke-miterlimit="10" x1="1123.26" y1="830.449" x2="1403.096" y2="992.107"/>
			</g>
		</g>
	</g>
	<g id="sixtyFour">
		<g id="cruves">
			<g id="curved_vortex" display="none">
				<path display="inline" fill="none" stroke="#FFFFFF" stroke-miterlimit="10" d="M561.279,506.526
					c167.851,96.881,280.783,278.132,280.783,485.886c0,207.513-112.451,388.605-279.972,485.618"/>
				<path display="inline" fill="none" stroke="#FFFFFF" stroke-miterlimit="10" d="M1122.931,1477.845
					c-167.667-96.899-280.7-278.225-280.7-486.098c0-207.495,112.628-388.562,280.109-485.535"/>
			</g>
			<g id="tetra_vortex">
				<line fill="none" stroke="#FFFFFF" stroke-miterlimit="10" x1="1122.672" y1="1477.826" x2="842.192" y2="992.144"/>
				<line fill="none" stroke="#FFFFFF" stroke-miterlimit="10" x1="842.192" y1="992.144" x2="561.648" y2="1477.845"/>
				<line fill="none" stroke="#FFFFFF" stroke-miterlimit="10" x1="842.192" y1="992.144" x2="1122.635" y2="506.415"/>
				<line fill="none" stroke="#FFFFFF" stroke-miterlimit="10" x1="842.192" y1="992.144" x2="561.611" y2="506.415"/>
				<line fill="none" stroke="#FFFFFF" stroke-miterlimit="10" x1="842.192" y1="1315.936" x2="842.192" y2="668.315"/>
				<g>
					<line fill="none" stroke="#FFFFFF" stroke-miterlimit="10" x1="842.192" y1="1315.88" x2="561.648" y2="1477.799"/>
					<line fill="none" stroke="#FFFFFF" stroke-miterlimit="10" x1="1122.635" y1="1477.78" x2="842.192" y2="1315.88"/>
					<line fill="none" stroke="#FFFFFF" stroke-miterlimit="10" x1="1122.672" y1="506.452" x2="561.648" y2="506.415"/>
					<line fill="none" stroke="#FFFFFF" stroke-miterlimit="10" x1="842.192" y1="668.334" x2="1122.635" y2="506.415"/>
					<line fill="none" stroke="#FFFFFF" stroke-miterlimit="10" x1="561.648" y1="506.415" x2="842.192" y2="668.334"/>
					<line fill="none" stroke="#FFFFFF" stroke-miterlimit="10" x1="560.096" y1="1477.919" x2="1121.082" y2="1477.9"/>
				</g>
			</g>
			<path fill="none" stroke="#FFFFFF" stroke-miterlimit="10" d="M1122.672,1477.882c-56-96.808-160.644-161.946-280.516-161.946
				c-119.864,0-224.397,65.064-280.396,161.883"/>
			<path fill="none" stroke="#FFFFFF" stroke-miterlimit="10" d="M1122.672,506.378c-55.999,96.789-160.644,161.938-280.516,161.938
				c-119.864,0-224.397-65.111-280.396-161.9"/>
			<path fill="none" stroke="#FFFFFF" stroke-miterlimit="10" d="M281.28,992.088c0-103.1,251.093-186.563,560.653-186.563
				c309.939,0,561.052,83.5,561.052,186.563c0,103.139-251.148,186.657-561.052,186.657
				C532.373,1178.745,281.28,1095.244,281.28,992.088z"/>
			<path id="boundary_1_" fill="none" stroke="#FFFFFF" stroke-miterlimit="10" d="M281.428,992.005
				c0-309.792,251.167-560.663,560.617-560.663c309.902,0,561.051,250.908,561.051,560.663
				c0,309.94-251.147,560.894-561.051,560.894C532.521,1552.881,281.428,1301.944,281.428,992.005z"/>
		</g>
	</g>
	<g id="hexagon">
		<polygon fill="#FFFFFF" fill-opacity="0" stroke="#FFE86D" stroke-miterlimit="10" stroke-opacity="0" points="-5.392,507.117 
			835.608,21.117 1676.608,507.117 1676.608,1478.117 835.608,1963.117 -5.392,1478.117 		"/>
	</g>
</g>
</svg>
