<?xml version="1.0" encoding="utf-8"?>
<!-- Generator: Adobe Illustrator 16.0.0, SVG Export Plug-In . SVG Version: 6.00 Build 0)  -->
<!DOCTYPE svg PUBLIC "-//W3C//DTD SVG 1.1//EN" "http://www.w3.org/Graphics/SVG/1.1/DTD/svg11.dtd">
<svg version="1.1" id="Layer_1" xmlns="http://www.w3.org/2000/svg" xmlns:xlink="http://www.w3.org/1999/xlink" x="0px" y="0px"
	 width="1687px" height="1984px" viewBox="0 0 1687 1984" enable-background="new 0 0 1687 1984" xml:space="preserve">
<g id="_x36_4Tetra3DFullGroup">
	<g id="back" display="none">
		<rect id="image" x="-1.475" display="inline" fill="#130E22" width="1687" height="1984.252"/>
	</g>
	<g id="fruit">
		<g>
			<path fill="none" stroke="#FFFFFF" d="M1004.842,992c0,89.117-72.345,161.362-161.382,161.362
				c-89.198,0-161.342-72.325-161.342-161.362c0-89.218,72.285-161.442,161.342-161.442
				C932.518,830.558,1004.842,902.782,1004.842,992z"/>
			<path fill="none" stroke="#FFFFFF" d="M1004.842,669.135c0,89.178-72.345,161.383-161.382,161.383
				c-89.198,0-161.342-72.225-161.342-161.383c0-89.197,72.285-161.342,161.342-161.342
				C932.518,507.793,1004.842,579.979,1004.842,669.135z"/>
			<path fill="none" stroke="#FFFFFF" d="M725.232,830.578c0,89.198-72.348,161.382-161.362,161.382
				c-89.258,0-161.342-72.325-161.342-161.382c0-89.198,72.325-161.443,161.342-161.443
				C652.907,669.095,725.232,741.4,725.232,830.578z"/>
			<path fill="none" stroke="#FFFFFF" d="M725.232,1153.463c0,89.157-72.348,161.342-161.362,161.342
				c-89.258,0-161.342-72.225-161.342-161.342c0-89.277,72.325-161.463,161.342-161.463
				C652.907,991.96,725.232,1064.186,725.232,1153.463z"/>
			<path fill="none" stroke="#FFFFFF" d="M1004.842,1314.845c0,89.198-72.345,161.402-161.382,161.402
				c-89.198,0-161.342-72.244-161.342-161.402c0-89.196,72.285-161.439,161.342-161.439
				C932.518,1153.402,1004.842,1225.646,1004.842,1314.845z"/>
			<path fill="none" stroke="#FFFFFF" d="M1284.513,1153.463c0,89.157-72.325,161.342-161.342,161.342
				c-89.178,0-161.463-72.225-161.463-161.342c0-89.238,72.345-161.463,161.463-161.463
				C1212.229,991.96,1284.513,1064.225,1284.513,1153.463z"/>
			<path fill="none" stroke="#FFFFFF" d="M1284.513,830.578c0,89.198-72.325,161.382-161.342,161.382
				c-89.238,0-161.463-72.325-161.463-161.382c0-89.198,72.345-161.443,161.463-161.443
				C1212.208,669.095,1284.513,741.4,1284.513,830.578z"/>
			<path fill="none" stroke="#FFFFFF" d="M1004.963,346.35c0,89.138-72.346,161.362-161.362,161.362
				c-89.315,0-161.342-72.345-161.342-161.362c0-89.258,72.268-161.502,161.342-161.502
				C932.678,184.848,1004.963,257.133,1004.963,346.35z"/>
			<path fill="none" stroke="#FFFFFF" d="M445.622,669.135c0,89.178-72.325,161.383-161.342,161.383
				c-89.458,0-161.503-72.225-161.503-161.383c0-89.197,72.345-161.342,161.503-161.342
				C373.316,507.692,445.622,579.979,445.622,669.135z"/>
			<path fill="none" stroke="#FFFFFF" d="M445.622,1314.845c0,89.198-72.325,161.402-161.342,161.402
				c-89.458,0-161.523-72.244-161.523-161.402c0-89.196,72.345-161.382,161.523-161.382
				C373.316,1153.463,445.622,1225.646,445.622,1314.845z"/>
			<path fill="none" stroke="#FFFFFF" d="M1564.243,1314.845c0,89.198-72.325,161.402-161.362,161.402
				c-89.378,0-161.342-72.244-161.342-161.402c0-89.196,72.345-161.439,161.342-161.439
				C1491.918,1153.402,1564.243,1225.646,1564.243,1314.845z"/>
			<path fill="none" stroke="#FFFFFF" d="M1564.243,669.195c0,89.154-72.325,161.342-161.362,161.342
				c-89.378,0-161.342-72.188-161.342-161.342c0-89.258,72.345-161.463,161.342-161.463
				C1491.918,507.732,1564.243,579.979,1564.243,669.195z"/>
			<path fill="none" stroke="#FFFFFF" d="M1004.923,1637.71c0,89.157-72.346,161.442-161.363,161.442
				c-89.338,0-161.502-72.308-161.502-161.442c0-89.258,72.348-161.442,161.502-161.442
				C932.678,1476.268,1004.923,1548.492,1004.923,1637.71z"/>
		</g>
		<g id="_x36_4THG_4_">
			<g id="_x36_4_Grid_6_">
				<line fill="none" stroke="#FFFFFF" stroke-miterlimit="10" x1="844.218" y1="348.804" x2="844.218" y2="1637.725"/>
				<line fill="none" stroke="#FFFFFF" stroke-miterlimit="10" x1="1402.432" y1="671.065" x2="285.986" y2="1315.518"/>
				<line fill="none" stroke="#FFFFFF" stroke-miterlimit="10" x1="285.986" y1="671.048" x2="1402.432" y2="1315.499"/>
				<line fill="none" stroke="#FFFFFF" stroke-miterlimit="10" x1="565.075" y1="509.926" x2="1402.485" y2="993.291"/>
				<line fill="none" stroke="#FFFFFF" stroke-miterlimit="10" x1="1402.485" y1="993.291" x2="565.057" y2="1476.585"/>
				<line fill="none" stroke="#FFFFFF" stroke-miterlimit="10" x1="565.057" y1="1476.585" x2="565.075" y2="509.926"/>
				<line fill="none" stroke="#FFFFFF" stroke-miterlimit="10" x1="1123.324" y1="509.908" x2="1123.36" y2="1476.604"/>
				<line fill="none" stroke="#FFFFFF" stroke-miterlimit="10" x1="1123.36" y1="1476.604" x2="286.021" y2="993.291"/>
				<line fill="none" stroke="#FFFFFF" stroke-miterlimit="10" x1="286.021" y1="993.291" x2="1123.324" y2="509.908"/>
				<line fill="none" stroke="#FFFFFF" stroke-miterlimit="10" x1="425.53" y1="1073.808" x2="1123.307" y2="670.994"/>
				<line fill="none" stroke="#FFFFFF" stroke-miterlimit="10" x1="565.075" y1="509.926" x2="286.021" y2="993.291"/>
				<line fill="none" stroke="#FFFFFF" stroke-miterlimit="10" x1="286.021" y1="993.291" x2="565.057" y2="1476.585"/>
				<line fill="none" stroke="#FFFFFF" stroke-miterlimit="10" x1="565.057" y1="1476.585" x2="1123.36" y2="1476.604"/>
				<line fill="none" stroke="#FFFFFF" stroke-miterlimit="10" x1="1123.36" y1="1476.604" x2="1402.485" y2="993.291"/>
				<line fill="none" stroke="#FFFFFF" stroke-miterlimit="10" x1="1402.485" y1="993.291" x2="1123.324" y2="509.908"/>
				<line fill="none" stroke="#FFFFFF" stroke-miterlimit="10" x1="1123.324" y1="509.908" x2="565.075" y2="509.926"/>
				<line fill="none" stroke="#FFFFFF" stroke-miterlimit="10" x1="983.762" y1="590.496" x2="983.762" y2="1396.069"/>
				<line fill="none" stroke="#FFFFFF" stroke-miterlimit="10" x1="704.637" y1="590.424" x2="704.637" y2="1396.033"/>
				<line fill="none" stroke="#FFFFFF" stroke-miterlimit="10" x1="564.824" y1="671.209" x2="1262.851" y2="1073.789"/>
				<line fill="none" stroke="#FFFFFF" stroke-miterlimit="10" x1="425.53" y1="912.704" x2="1123.558" y2="1315.284"/>
				<line fill="none" stroke="#FFFFFF" stroke-miterlimit="10" x1="565.11" y1="1315.553" x2="1262.851" y2="912.686"/>
			</g>
			<g>
				<line fill="none" stroke="#FFFFFF" stroke-miterlimit="10" x1="285.986" y1="1315.518" x2="1402.432" y2="1315.499"/>
				<line fill="none" stroke="#FFFFFF" stroke-miterlimit="10" x1="1402.432" y1="671.065" x2="285.986" y2="671.048"/>
				<line fill="none" stroke="#FFFFFF" stroke-miterlimit="10" x1="286.021" y1="993.291" x2="1402.485" y2="993.291"/>
				<line fill="none" stroke="#FFFFFF" stroke-miterlimit="10" x1="704.673" y1="590.496" x2="983.762" y2="590.496"/>
				<line fill="none" stroke="#FFFFFF" stroke-miterlimit="10" x1="1262.851" y1="751.582" x2="425.53" y2="751.636"/>
				<line fill="none" stroke="#FFFFFF" stroke-miterlimit="10" x1="1309.432" y1="832.134" x2="379.003" y2="832.151"/>
				<line fill="none" stroke="#FFFFFF" stroke-miterlimit="10" x1="1262.851" y1="912.686" x2="425.584" y2="912.704"/>
				<line fill="none" stroke="#FFFFFF" stroke-miterlimit="10" x1="1262.851" y1="1073.789" x2="425.53" y2="1073.808"/>
				<line fill="none" stroke="#FFFFFF" stroke-miterlimit="10" x1="1309.432" y1="1154.413" x2="379.003" y2="1154.342"/>
				<line fill="none" stroke="#FFFFFF" stroke-miterlimit="10" x1="1262.851" y1="1234.911" x2="425.53" y2="1234.983"/>
				<line fill="none" stroke="#FFFFFF" stroke-miterlimit="10" x1="983.762" y1="1396.069" x2="704.583" y2="1396.069"/>
			</g>
			<g>
				<line fill="none" stroke="#FFFFFF" stroke-miterlimit="10" x1="425.62" y1="912.739" x2="565.182" y2="671.048"/>
				<line fill="none" stroke="#FFFFFF" stroke-miterlimit="10" x1="843.697" y1="510.841" x2="425.62" y2="1235.055"/>
				<line fill="none" stroke="#FFFFFF" stroke-miterlimit="10" x1="937.289" y1="509.818" x2="472.093" y2="1315.571"/>
				<line fill="none" stroke="#FFFFFF" stroke-miterlimit="10" x1="983.762" y1="590.424" x2="565.128" y2="1315.571"/>
				<line fill="none" stroke="#FFFFFF" stroke-miterlimit="10" x1="1123.307" y1="670.994" x2="704.637" y2="1396.159"/>
				<line fill="none" stroke="#FFFFFF" stroke-miterlimit="10" x1="1216.396" y1="670.994" x2="751.128" y2="1476.675"/>
				<line fill="none" stroke="#FFFFFF" stroke-miterlimit="10" x1="1262.814" y1="751.528" x2="844.218" y2="1476.585"/>
				<line fill="none" stroke="#FFFFFF" stroke-miterlimit="10" x1="1262.814" y1="1073.825" x2="1123.217" y2="1315.607"/>
				<line fill="none" stroke="#FFFFFF" stroke-miterlimit="10" x1="285.986" y1="1315.518" x2="844.218" y2="348.804"/>
				<line fill="none" stroke="#FFFFFF" stroke-miterlimit="10" x1="1402.432" y1="671.065" x2="844.218" y2="1637.725"/>
				<line fill="none" stroke="#FFFFFF" stroke-miterlimit="10" x1="1123.324" y1="509.908" x2="565.057" y2="1476.585"/>
			</g>
			<g>
				<line fill="none" stroke="#FFFFFF" stroke-miterlimit="10" x1="844.146" y1="509.89" x2="1262.887" y2="1235.055"/>
				<line fill="none" stroke="#FFFFFF" stroke-miterlimit="10" x1="565.182" y1="1315.553" x2="425.62" y2="1073.808"/>
				<line fill="none" stroke="#FFFFFF" stroke-miterlimit="10" x1="425.53" y1="751.636" x2="844.218" y2="1476.585"/>
				<line fill="none" stroke="#FFFFFF" stroke-miterlimit="10" x1="472.075" y1="670.958" x2="937.289" y2="1476.693"/>
				<line fill="none" stroke="#FFFFFF" stroke-miterlimit="10" x1="565.128" y1="671.012" x2="983.762" y2="1396.069"/>
				<line fill="none" stroke="#FFFFFF" stroke-miterlimit="10" x1="704.637" y1="590.424" x2="1123.324" y2="1315.607"/>
				<line fill="none" stroke="#FFFFFF" stroke-miterlimit="10" x1="751.182" y1="509.818" x2="1216.307" y2="1315.607"/>
				<line fill="none" stroke="#FFFFFF" stroke-miterlimit="10" x1="1123.271" y1="671.048" x2="1262.851" y2="912.829"/>
				<line fill="none" stroke="#FFFFFF" stroke-miterlimit="10" x1="565.075" y1="509.926" x2="1123.36" y2="1476.604"/>
				<line fill="none" stroke="#FFFFFF" stroke-miterlimit="10" x1="844.218" y1="348.804" x2="1402.432" y2="1315.499"/>
				<line fill="none" stroke="#FFFFFF" stroke-miterlimit="10" x1="844.218" y1="1637.725" x2="285.986" y2="671.048"/>
			</g>
			<g>
				<line fill="none" stroke="#FFFFFF" stroke-miterlimit="10" x1="844.218" y1="1476.585" x2="983.69" y2="1396.069"/>
				<line fill="none" stroke="#FFFFFF" stroke-miterlimit="10" x1="1122.123" y1="1316.181" x2="1262.851" y2="1234.911"/>
				<line fill="none" stroke="#FFFFFF" stroke-miterlimit="10" x1="1262.851" y1="912.686" x2="1262.851" y2="751.582"/>
				<line fill="none" stroke="#FFFFFF" stroke-miterlimit="10" x1="1262.851" y1="1234.911" x2="1262.851" y2="1073.789"/>
				<line fill="none" stroke="#FFFFFF" stroke-miterlimit="10" x1="844.218" y1="509.908" x2="704.673" y2="590.479"/>
				<line fill="none" stroke="#FFFFFF" stroke-miterlimit="10" x1="564.824" y1="671.209" x2="425.53" y2="751.636"/>
				<line fill="none" stroke="#FFFFFF" stroke-miterlimit="10" x1="425.53" y1="1234.983" x2="565.11" y2="1315.535"/>
				<line fill="none" stroke="#FFFFFF" stroke-miterlimit="10" x1="704.278" y1="1395.854" x2="844.218" y2="1476.585"/>
				<line fill="none" stroke="#FFFFFF" stroke-miterlimit="10" x1="425.53" y1="1073.808" x2="425.53" y2="1234.983"/>
				<line fill="none" stroke="#FFFFFF" stroke-miterlimit="10" x1="425.53" y1="751.636" x2="425.53" y2="912.704"/>
				<line fill="none" stroke="#FFFFFF" stroke-miterlimit="10" x1="983.762" y1="590.424" x2="844.218" y2="509.908"/>
				<line fill="none" stroke="#FFFFFF" stroke-miterlimit="10" x1="1262.851" y1="751.582" x2="1123.307" y2="670.994"/>
			</g>
		</g>
	</g>
	<g id="sixtyFour">
		<g>
			<g>
				<line fill="none" stroke="#FFFFFF" stroke-miterlimit="10" x1="842.316" y1="831.686" x2="983.385" y2="750.254"/>
				<line fill="none" stroke="#FFFFFF" stroke-miterlimit="10" x1="842.316" y1="830.286" x2="703.668" y2="750.254"/>
				<line fill="none" stroke="#FFFFFF" stroke-miterlimit="10" x1="843.464" y1="991.695" x2="843.464" y2="508.114"/>
				<line fill="none" stroke="#FFFFFF" stroke-miterlimit="10" x1="703.668" y1="749.537" x2="703.668" y2="588.81"/>
				<line fill="none" stroke="#FFFFFF" stroke-miterlimit="10" x1="983.385" y1="752.012" x2="983.385" y2="588.81"/>
				<line fill="none" stroke="#FFFFFF" stroke-miterlimit="10" x1="983.385" y1="588.81" x2="843.464" y2="508.132"/>
				<line fill="none" stroke="#FFFFFF" stroke-miterlimit="10" x1="843.464" y1="508.132" x2="703.668" y2="588.81"/>
				<line fill="none" stroke="#FFFFFF" stroke-miterlimit="10" x1="703.668" y1="588.81" x2="983.385" y2="588.81"/>
				<line fill="none" stroke="#FFFFFF" stroke-miterlimit="10" x1="983.385" y1="588.81" x2="843.464" y2="830.968"/>
				<line fill="none" stroke="#FFFFFF" stroke-miterlimit="10" x1="843.464" y1="830.968" x2="703.668" y2="588.81"/>
				<line fill="none" stroke="#FFFFFF" stroke-miterlimit="10" x1="703.668" y1="750.254" x2="843.464" y2="508.132"/>
				<line fill="none" stroke="#FFFFFF" stroke-miterlimit="10" x1="843.464" y1="508.132" x2="983.385" y2="750.254"/>
				<line fill="none" stroke="#FFFFFF" stroke-miterlimit="10" x1="983.385" y1="750.254" x2="703.668" y2="750.254"/>
				<line fill="none" stroke="#FFFFFF" stroke-miterlimit="10" x1="843.464" y1="991.695" x2="703.668" y2="749.555"/>
				<line fill="none" stroke="#FFFFFF" stroke-miterlimit="10" x1="843.464" y1="991.695" x2="983.385" y2="749.555"/>
			</g>
			<g>
				<line fill="none" stroke="#FFFFFF" stroke-miterlimit="10" x1="844.737" y1="1151.723" x2="703.668" y2="1233.118"/>
				<line fill="none" stroke="#FFFFFF" stroke-miterlimit="10" x1="844.737" y1="1153.122" x2="983.385" y2="1233.118"/>
				<line fill="none" stroke="#FFFFFF" stroke-miterlimit="10" x1="843.572" y1="991.695" x2="843.572" y2="1475.276"/>
				<line fill="none" stroke="#FFFFFF" stroke-miterlimit="10" x1="983.385" y1="1233.835" x2="983.385" y2="1394.58"/>
				<line fill="none" stroke="#FFFFFF" stroke-miterlimit="10" x1="703.668" y1="1231.36" x2="703.668" y2="1394.58"/>
				<line fill="none" stroke="#FFFFFF" stroke-miterlimit="10" x1="703.668" y1="1394.563" x2="843.572" y2="1475.276"/>
				<line fill="none" stroke="#FFFFFF" stroke-miterlimit="10" x1="843.572" y1="1475.276" x2="983.385" y2="1394.563"/>
				<line fill="none" stroke="#FFFFFF" stroke-miterlimit="10" x1="983.385" y1="1394.563" x2="703.668" y2="1394.563"/>
				<line fill="none" stroke="#FFFFFF" stroke-miterlimit="10" x1="703.668" y1="1394.563" x2="843.572" y2="1152.422"/>
				<line fill="none" stroke="#FFFFFF" stroke-miterlimit="10" x1="843.572" y1="1152.422" x2="983.385" y2="1394.563"/>
				<line fill="none" stroke="#FFFFFF" stroke-miterlimit="10" x1="983.385" y1="1233.118" x2="843.572" y2="1475.276"/>
				<line fill="none" stroke="#FFFFFF" stroke-miterlimit="10" x1="843.572" y1="1475.276" x2="703.668" y2="1233.118"/>
				<line fill="none" stroke="#FFFFFF" stroke-miterlimit="10" x1="703.668" y1="1233.118" x2="983.385" y2="1233.118"/>
				<line fill="none" stroke="#FFFFFF" stroke-miterlimit="10" x1="843.572" y1="991.695" x2="983.385" y2="1233.835"/>
				<line fill="none" stroke="#FFFFFF" stroke-miterlimit="10" x1="843.572" y1="991.695" x2="703.668" y2="1233.835"/>
			</g>
			<g>
				<line fill="none" stroke="#FFFFFF" stroke-miterlimit="10" x1="982.649" y1="1070.974" x2="982.614" y2="1233.871"/>
				<line fill="none" stroke="#FFFFFF" stroke-miterlimit="10" x1="983.869" y1="1071.691" x2="1122.48" y2="991.624"/>
				<line fill="none" stroke="#FFFFFF" stroke-miterlimit="10" x1="843.464" y1="991.982" x2="1262.277" y2="1233.781"/>
				<line fill="none" stroke="#FFFFFF" stroke-miterlimit="10" x1="1123.091" y1="991.982" x2="1262.313" y2="1072.354"/>
				<line fill="none" stroke="#FFFFFF" stroke-miterlimit="10" x1="981.09" y1="1232.975" x2="1122.445" y2="1314.604"/>
				<line fill="none" stroke="#FFFFFF" stroke-miterlimit="10" x1="1122.445" y1="1314.604" x2="1262.277" y2="1233.781"/>
				<line fill="none" stroke="#FFFFFF" stroke-miterlimit="10" x1="1262.277" y1="1233.781" x2="1262.295" y2="1072.354"/>
				<line fill="none" stroke="#FFFFFF" stroke-miterlimit="10" x1="1262.295" y1="1072.354" x2="1122.445" y2="1314.604"/>
				<line fill="none" stroke="#FFFFFF" stroke-miterlimit="10" x1="1122.445" y1="1314.604" x2="982.686" y2="1072.354"/>
				<line fill="none" stroke="#FFFFFF" stroke-miterlimit="10" x1="982.686" y1="1072.354" x2="1262.295" y2="1072.354"/>
				<line fill="none" stroke="#FFFFFF" stroke-miterlimit="10" x1="1122.48" y1="991.624" x2="1262.277" y2="1233.781"/>
				<line fill="none" stroke="#FFFFFF" stroke-miterlimit="10" x1="1262.277" y1="1233.781" x2="982.614" y2="1233.871"/>
				<line fill="none" stroke="#FFFFFF" stroke-miterlimit="10" x1="982.614" y1="1233.871" x2="1122.48" y2="991.624"/>
				<line fill="none" stroke="#FFFFFF" stroke-miterlimit="10" x1="843.464" y1="991.982" x2="1123.091" y2="991.982"/>
				<line fill="none" stroke="#FFFFFF" stroke-miterlimit="10" x1="843.464" y1="991.982" x2="983.242" y2="1234.229"/>
			</g>
			<g>
				<line fill="none" stroke="#FFFFFF" stroke-miterlimit="10" x1="704.314" y1="912.991" x2="704.35" y2="750.111"/>
				<line fill="none" stroke="#FFFFFF" stroke-miterlimit="10" x1="703.095" y1="912.291" x2="564.483" y2="992.341"/>
				<line fill="none" stroke="#FFFFFF" stroke-miterlimit="10" x1="843.464" y1="991.982" x2="424.688" y2="750.201"/>
				<line fill="none" stroke="#FFFFFF" stroke-miterlimit="10" x1="563.873" y1="992" x2="424.651" y2="911.627"/>
				<line fill="none" stroke="#FFFFFF" stroke-miterlimit="10" x1="705.875" y1="750.99" x2="564.519" y2="669.38"/>
				<line fill="none" stroke="#FFFFFF" stroke-miterlimit="10" x1="564.519" y1="669.38" x2="424.688" y2="750.201"/>
				<line fill="none" stroke="#FFFFFF" stroke-miterlimit="10" x1="424.688" y1="750.201" x2="424.669" y2="911.627"/>
				<line fill="none" stroke="#FFFFFF" stroke-miterlimit="10" x1="424.669" y1="911.627" x2="564.519" y2="669.38"/>
				<line fill="none" stroke="#FFFFFF" stroke-miterlimit="10" x1="564.519" y1="669.38" x2="704.278" y2="911.627"/>
				<line fill="none" stroke="#FFFFFF" stroke-miterlimit="10" x1="704.278" y1="911.627" x2="424.669" y2="911.627"/>
				<line fill="none" stroke="#FFFFFF" stroke-miterlimit="10" x1="564.483" y1="992.341" x2="424.688" y2="750.201"/>
				<line fill="none" stroke="#FFFFFF" stroke-miterlimit="10" x1="424.688" y1="750.201" x2="704.35" y2="750.111"/>
				<line fill="none" stroke="#FFFFFF" stroke-miterlimit="10" x1="704.35" y1="750.111" x2="564.483" y2="992.341"/>
				<line fill="none" stroke="#FFFFFF" stroke-miterlimit="10" x1="843.464" y1="991.982" x2="563.873" y2="992"/>
				<line fill="none" stroke="#FFFFFF" stroke-miterlimit="10" x1="843.464" y1="991.982" x2="703.722" y2="749.752"/>
			</g>
			<g>
				<line fill="none" stroke="#FFFFFF" stroke-miterlimit="10" x1="705.48" y1="1073" x2="564.429" y2="991.534"/>
				<line fill="none" stroke="#FFFFFF" stroke-miterlimit="10" x1="704.26" y1="1073.718" x2="704.296" y2="1233.781"/>
				<line fill="none" stroke="#FFFFFF" stroke-miterlimit="10" x1="843.464" y1="991.982" x2="424.669" y2="1233.781"/>
				<line fill="none" stroke="#FFFFFF" stroke-miterlimit="10" x1="703.688" y1="1234.122" x2="564.465" y2="1314.513"/>
				<line fill="none" stroke="#FFFFFF" stroke-miterlimit="10" x1="565.972" y1="990.655" x2="424.615" y2="1072.265"/>
				<line fill="none" stroke="#FFFFFF" stroke-miterlimit="10" x1="424.615" y1="1072.265" x2="424.669" y2="1233.781"/>
				<line fill="none" stroke="#FFFFFF" stroke-miterlimit="10" x1="424.669" y1="1233.781" x2="564.465" y2="1314.495"/>
				<line fill="none" stroke="#FFFFFF" stroke-miterlimit="10" x1="564.465" y1="1314.495" x2="424.615" y2="1072.265"/>
				<line fill="none" stroke="#FFFFFF" stroke-miterlimit="10" x1="424.615" y1="1072.265" x2="704.278" y2="1072.354"/>
				<line fill="none" stroke="#FFFFFF" stroke-miterlimit="10" x1="704.278" y1="1072.354" x2="564.465" y2="1314.495"/>
				<line fill="none" stroke="#FFFFFF" stroke-miterlimit="10" x1="704.296" y1="1233.781" x2="424.669" y2="1233.781"/>
				<line fill="none" stroke="#FFFFFF" stroke-miterlimit="10" x1="424.669" y1="1233.781" x2="564.429" y2="991.534"/>
				<line fill="none" stroke="#FFFFFF" stroke-miterlimit="10" x1="564.429" y1="991.534" x2="704.296" y2="1233.781"/>
				<line fill="none" stroke="#FFFFFF" stroke-miterlimit="10" x1="843.464" y1="991.982" x2="703.688" y2="1234.122"/>
				<line fill="none" stroke="#FFFFFF" stroke-miterlimit="10" x1="843.464" y1="991.982" x2="563.819" y2="991.91"/>
			</g>
			<g>
				<line fill="none" stroke="#FFFFFF" stroke-miterlimit="10" x1="981.484" y1="910.964" x2="1122.535" y2="992.448"/>
				<line fill="none" stroke="#FFFFFF" stroke-miterlimit="10" x1="982.722" y1="910.264" x2="982.668" y2="750.183"/>
				<line fill="none" stroke="#FFFFFF" stroke-miterlimit="10" x1="843.464" y1="991.982" x2="1262.295" y2="750.201"/>
				<line fill="none" stroke="#FFFFFF" stroke-miterlimit="10" x1="983.277" y1="749.842" x2="1122.499" y2="669.469"/>
				<line fill="none" stroke="#FFFFFF" stroke-miterlimit="10" x1="1120.992" y1="993.31" x2="1262.349" y2="911.699"/>
				<line fill="none" stroke="#FFFFFF" stroke-miterlimit="10" x1="1262.349" y1="911.699" x2="1262.295" y2="750.201"/>
				<line fill="none" stroke="#FFFFFF" stroke-miterlimit="10" x1="1262.295" y1="750.201" x2="1122.499" y2="669.469"/>
				<line fill="none" stroke="#FFFFFF" stroke-miterlimit="10" x1="1122.499" y1="669.469" x2="1262.349" y2="911.699"/>
				<line fill="none" stroke="#FFFFFF" stroke-miterlimit="10" x1="1262.349" y1="911.699" x2="982.686" y2="911.609"/>
				<line fill="none" stroke="#FFFFFF" stroke-miterlimit="10" x1="982.686" y1="911.609" x2="1122.499" y2="669.469"/>
				<line fill="none" stroke="#FFFFFF" stroke-miterlimit="10" x1="982.668" y1="750.183" x2="1262.295" y2="750.201"/>
				<line fill="none" stroke="#FFFFFF" stroke-miterlimit="10" x1="1262.295" y1="750.201" x2="1122.535" y2="992.448"/>
				<line fill="none" stroke="#FFFFFF" stroke-miterlimit="10" x1="1122.535" y1="992.448" x2="982.668" y2="750.183"/>
				<line fill="none" stroke="#FFFFFF" stroke-miterlimit="10" x1="843.464" y1="991.982" x2="983.277" y2="749.842"/>
				<line fill="none" stroke="#FFFFFF" stroke-miterlimit="10" x1="843.464" y1="991.982" x2="1123.145" y2="992.072"/>
			</g>
		</g>
		<g>
			<line fill="none" stroke="#FFFFFF" stroke-miterlimit="10" x1="703.487" y1="911.667" x2="843.267" y2="830.897"/>
			<line fill="none" stroke="#FFFFFF" stroke-miterlimit="10" x1="843.267" y1="830.897" x2="983.514" y2="912.276"/>
			<line fill="none" stroke="#FFFFFF" stroke-miterlimit="10" x1="983.514" y1="912.276" x2="983.154" y2="1073.033"/>
			<line fill="none" stroke="#FFFFFF" stroke-miterlimit="10" x1="983.154" y1="1073.033" x2="843.245" y2="1152.995"/>
			<line fill="none" stroke="#FFFFFF" stroke-miterlimit="10" x1="843.245" y1="1152.995" x2="703.559" y2="1072.423"/>
			<line fill="none" stroke="#FFFFFF" stroke-miterlimit="10" x1="703.559" y1="1072.423" x2="703.487" y2="911.667"/>
			<line fill="none" stroke="#FFFFFF" stroke-miterlimit="10" x1="843.267" y1="830.897" x2="983.154" y2="1073.033"/>
			<line fill="none" stroke="#FFFFFF" stroke-miterlimit="10" x1="983.154" y1="1073.033" x2="703.559" y2="1072.423"/>
			<line fill="none" stroke="#FFFFFF" stroke-miterlimit="10" x1="703.559" y1="1072.423" x2="843.267" y2="830.897"/>
			<line fill="none" stroke="#FFFFFF" stroke-miterlimit="10" x1="703.487" y1="911.667" x2="983.514" y2="912.276"/>
			<line fill="none" stroke="#FFFFFF" stroke-miterlimit="10" x1="983.514" y1="912.276" x2="843.357" y2="1153.103"/>
			<line fill="none" stroke="#FFFFFF" stroke-miterlimit="10" x1="843.357" y1="1153.103" x2="703.487" y2="911.667"/>
		</g>
	</g>
	<g id="hexagon">
		<polygon display="none" fill="#FFFFFF" fill-opacity="0" stroke="#FFE86D" stroke-miterlimit="10" stroke-opacity="0" points="
			-7,507 834,21 1675,507 1675,1478 834,1963 -7,1478 		"/>
	</g>
</g>
</svg>
