<?xml version="1.0" encoding="utf-8"?>
<!-- Generator: Adobe Illustrator 16.0.0, SVG Export Plug-In . SVG Version: 6.00 Build 0)  -->
<!DOCTYPE svg PUBLIC "-//W3C//DTD SVG 1.1//EN" "http://www.w3.org/Graphics/SVG/1.1/DTD/svg11.dtd">
<svg version="1.1" id="Layer_1" xmlns="http://www.w3.org/2000/svg" xmlns:xlink="http://www.w3.org/1999/xlink" x="0px" y="0px"
	 width="1687px" height="1984px" viewBox="0 0 1687 1984" enable-background="new 0 0 1687 1984" xml:space="preserve">
<g id="_x36_4Tetra3DFullGroup">
	<g id="back" display="none">
		<rect id="image" x="-1.475" display="inline" fill="#130E22" width="1687" height="1984.252"/>
	</g>
	<g id="fruit">
		<g>
			<path fill="none" stroke="#FFFFFF" d="M1004.842,992c0,89.117-72.345,161.362-161.382,161.362
				c-89.198,0-161.342-72.325-161.342-161.362c0-89.218,72.285-161.442,161.342-161.442
				C932.518,830.558,1004.842,902.782,1004.842,992z"/>
			<path fill="none" stroke="#FFFFFF" d="M1004.842,669.135c0,89.178-72.345,161.383-161.382,161.383
				c-89.198,0-161.342-72.225-161.342-161.383c0-89.197,72.285-161.342,161.342-161.342
				C932.518,507.793,1004.842,579.979,1004.842,669.135z"/>
			<path fill="none" stroke="#FFFFFF" d="M725.232,830.578c0,89.198-72.347,161.382-161.362,161.382
				c-89.258,0-161.342-72.325-161.342-161.382c0-89.198,72.325-161.443,161.342-161.443
				C652.907,669.095,725.232,741.4,725.232,830.578z"/>
			<path fill="none" stroke="#FFFFFF" d="M725.232,1153.463c0,89.157-72.347,161.342-161.362,161.342
				c-89.258,0-161.342-72.225-161.342-161.342c0-89.277,72.325-161.463,161.342-161.463
				C652.907,991.96,725.232,1064.186,725.232,1153.463z"/>
			<path fill="none" stroke="#FFFFFF" d="M1004.842,1314.845c0,89.198-72.345,161.402-161.382,161.402
				c-89.198,0-161.342-72.244-161.342-161.402c0-89.196,72.285-161.44,161.342-161.44
				C932.518,1153.402,1004.842,1225.646,1004.842,1314.845z"/>
			<path fill="none" stroke="#FFFFFF" d="M1284.513,1153.463c0,89.157-72.325,161.342-161.342,161.342
				c-89.178,0-161.463-72.225-161.463-161.342c0-89.238,72.345-161.463,161.463-161.463
				C1212.229,991.96,1284.513,1064.225,1284.513,1153.463z"/>
			<path fill="none" stroke="#FFFFFF" d="M1284.513,830.578c0,89.198-72.325,161.382-161.342,161.382
				c-89.238,0-161.463-72.325-161.463-161.382c0-89.198,72.345-161.443,161.463-161.443
				C1212.208,669.095,1284.513,741.4,1284.513,830.578z"/>
			<path fill="none" stroke="#FFFFFF" d="M1004.963,346.35c0,89.138-72.346,161.362-161.362,161.362
				c-89.316,0-161.342-72.345-161.342-161.362c0-89.258,72.267-161.502,161.342-161.502
				C932.678,184.848,1004.963,257.133,1004.963,346.35z"/>
			<path fill="none" stroke="#FFFFFF" d="M445.622,669.135c0,89.178-72.325,161.383-161.342,161.383
				c-89.458,0-161.503-72.225-161.503-161.383c0-89.197,72.345-161.342,161.503-161.342
				C373.316,507.692,445.622,579.979,445.622,669.135z"/>
			<path fill="none" stroke="#FFFFFF" d="M445.622,1314.845c0,89.198-72.325,161.402-161.342,161.402
				c-89.458,0-161.523-72.244-161.523-161.402c0-89.196,72.345-161.382,161.523-161.382
				C373.316,1153.463,445.622,1225.646,445.622,1314.845z"/>
			<path fill="none" stroke="#FFFFFF" d="M1564.243,1314.845c0,89.198-72.325,161.402-161.362,161.402
				c-89.378,0-161.342-72.244-161.342-161.402c0-89.196,72.345-161.44,161.342-161.44
				C1491.918,1153.402,1564.243,1225.646,1564.243,1314.845z"/>
			<path fill="none" stroke="#FFFFFF" d="M1564.243,669.195c0,89.155-72.325,161.342-161.362,161.342
				c-89.378,0-161.342-72.187-161.342-161.342c0-89.258,72.345-161.463,161.342-161.463
				C1491.918,507.732,1564.243,579.979,1564.243,669.195z"/>
			<path fill="none" stroke="#FFFFFF" d="M1004.923,1637.71c0,89.157-72.346,161.442-161.363,161.442
				c-89.338,0-161.502-72.307-161.502-161.442c0-89.258,72.347-161.442,161.502-161.442
				C932.678,1476.268,1004.923,1548.492,1004.923,1637.71z"/>
		</g>
	</g>
	<g id="sixtyFour">
		<g id="tree">
			<line fill="none" stroke="#FFFFFF" stroke-miterlimit="10" x1="563.863" y1="1153.422" x2="1123.299" y2="830.562"/>
			<line fill="none" stroke="#FFFFFF" stroke-miterlimit="10" x1="1123.299" y1="1153.422" x2="563.863" y2="830.562"/>
			<line fill="none" stroke="#FFFFFF" stroke-miterlimit="10" x1="843.483" y1="1637.721" x2="843.483" y2="346.28"/>
			<line fill="none" stroke="#FFFFFF" stroke-miterlimit="10" x1="563.863" y1="1153.422" x2="563.863" y2="507.669"/>
			<line fill="none" stroke="#FFFFFF" stroke-miterlimit="10" x1="1123.299" y1="1153.422" x2="1123.299" y2="507.669"/>
			<line fill="none" stroke="#FFFFFF" stroke-miterlimit="10" x1="1123.299" y1="507.669" x2="843.483" y2="346.28"/>
			<line fill="none" stroke="#FFFFFF" stroke-miterlimit="10" x1="843.483" y1="346.28" x2="563.863" y2="507.669"/>
			<line fill="none" stroke="#FFFFFF" stroke-miterlimit="10" x1="563.863" y1="507.669" x2="1123.299" y2="507.669"/>
			<line fill="none" stroke="#FFFFFF" stroke-miterlimit="10" x1="1123.299" y1="507.669" x2="843.483" y2="991.968"/>
			<line fill="none" stroke="#FFFFFF" stroke-miterlimit="10" x1="843.483" y1="991.968" x2="563.863" y2="507.669"/>
			<line fill="none" stroke="#FFFFFF" stroke-miterlimit="10" x1="563.863" y1="830.562" x2="843.483" y2="346.28"/>
			<line fill="none" stroke="#FFFFFF" stroke-miterlimit="10" x1="843.483" y1="346.28" x2="1123.299" y2="830.562"/>
			<line fill="none" stroke="#FFFFFF" stroke-miterlimit="10" x1="1123.299" y1="830.562" x2="563.863" y2="830.562"/>
			<line fill="none" stroke="#FFFFFF" stroke-miterlimit="10" x1="563.863" y1="1153.422" x2="843.483" y2="1637.721"/>
			<line fill="none" stroke="#FFFFFF" stroke-miterlimit="10" x1="843.483" y1="1637.721" x2="1123.299" y2="1153.422"/>
			<line fill="none" stroke="#FFFFFF" stroke-miterlimit="10" x1="1123.299" y1="1153.422" x2="563.863" y2="1153.422"/>
			<line fill="none" stroke="#FFFFFF" stroke-miterlimit="10" x1="563.863" y1="1153.422" x2="843.483" y2="1314.876"/>
			<line fill="none" stroke="#FFFFFF" stroke-miterlimit="10" x1="843.483" y1="1314.876" x2="1123.299" y2="1153.422"/>
		</g>
	</g>
	<g id="hexagon">
		<polygon display="none" fill="#FFFFFF" fill-opacity="0" stroke="#FFE86D" stroke-miterlimit="10" stroke-opacity="0" points="
			-7,507 834,21 1675,507 1675,1478 834,1963 -7,1478 		"/>
	</g>
</g>
</svg>
