<?xml version="1.0" encoding="utf-8"?>
<!-- Generator: Adobe Illustrator 16.0.0, SVG Export Plug-In . SVG Version: 6.00 Build 0)  -->
<!DOCTYPE svg PUBLIC "-//W3C//DTD SVG 1.1//EN" "http://www.w3.org/Graphics/SVG/1.1/DTD/svg11.dtd">
<svg version="1.1" id="Layer_1" xmlns="http://www.w3.org/2000/svg" xmlns:xlink="http://www.w3.org/1999/xlink" x="0px" y="0px"
	 width="1683.969px" height="1984.252px" viewBox="0 0 1683.969 1984.252" enable-background="new 0 0 1683.969 1984.252"
	 xml:space="preserve">
<g id="_x36_4Tetra3DFullGroup">
	<g id="back" display="none">
		<rect id="image" y="-13.988" display="inline" fill="#130E22" width="1683.969" height="2012.229"/>
	</g>
	<g id="fruit">
		<g>
			<path fill="none" stroke="#FFFFFF" d="M1003.332,992.205c0,89.435-72.331,161.333-161.343,161.333
				c-89.193,0-161.346-72.322-161.346-161.333c0-89.253,72.271-161.354,161.346-161.354
				C931.081,830.73,1003.332,902.951,1003.332,992.205z"/>
			<path fill="none" stroke="#FFFFFF" d="M1003.332,669.316c0,89.213-72.331,161.333-161.343,161.333
				c-89.193,0-161.346-72.321-161.346-161.333c0-89.454,72.271-161.354,161.346-161.354
				C931.081,507.882,1003.332,580.164,1003.332,669.316z"/>
			<path fill="none" stroke="#FFFFFF" d="M723.748,830.73c0,89.271-72.331,161.353-161.344,161.353
				c-89.284,0-161.347-72.34-161.347-161.354c0-89.214,72.332-161.332,161.347-161.332
				C651.438,669.276,723.748,741.517,723.748,830.73z"/>
			<path fill="none" stroke="#FFFFFF" d="M723.748,1153.597c0,89.354-72.331,161.335-161.344,161.335
				c-89.284,0-161.347-72.341-161.347-161.335c0-89.392,72.332-161.352,161.347-161.352
				C651.438,992.146,723.748,1064.306,723.748,1153.597z"/>
			<path fill="none" stroke="#FFFFFF" d="M1003.332,1314.992c0,89.452-72.331,161.354-161.343,161.354
				c-89.193,0-161.346-72.341-161.346-161.354c0-89.415,72.271-161.335,161.346-161.335
				C931.081,1153.561,1003.332,1225.779,1003.332,1314.992z"/>
			<path fill="none" stroke="#FFFFFF" d="M1282.998,1153.597c0,89.354-72.331,161.335-161.344,161.335
				c-89.193,0-161.347-72.341-161.347-161.335c0-89.352,72.332-161.352,161.347-161.352
				C1210.667,992.245,1282.998,1064.344,1282.998,1153.597z"/>
			<path fill="none" stroke="#FFFFFF" d="M1282.998,830.73c0,89.271-72.331,161.353-161.344,161.353
				c-89.193,0-161.347-72.34-161.347-161.354c0-89.214,72.332-161.332,161.347-161.332
				C1210.667,669.376,1282.998,741.517,1282.998,830.73z"/>
			<path fill="none" stroke="#FFFFFF" d="M1003.433,346.529c0,89.112-72.331,161.334-161.343,161.334
				c-89.424,0-161.345-72.322-161.345-161.334c0-89.453,72.333-161.535,161.345-161.535
				C931.201,185.056,1003.433,257.255,1003.433,346.529z"/>
			<path fill="none" stroke="#FFFFFF" d="M444.152,669.356c0,89.149-72.331,161.334-161.346,161.334
				c-89.214,0-161.345-72.321-161.345-161.334c0-89.232,72.332-161.354,161.345-161.354
				C371.84,507.882,444.152,580.164,444.152,669.356z"/>
			<path fill="none" stroke="#FFFFFF" d="M444.152,1314.992c0,89.452-72.331,161.354-161.346,161.354
				c-89.214,0-161.345-72.341-161.345-161.354c0-89.415,72.332-161.335,161.345-161.335
				C371.821,1153.657,444.152,1225.779,444.152,1314.992z"/>
			<path fill="none" stroke="#FFFFFF" d="M1562.734,1314.992c0,89.452-72.333,161.354-161.348,161.354
				c-89.44,0-161.439-72.341-161.439-161.354c0-89.415,72.331-161.335,161.439-161.335
				C1490.401,1153.561,1562.734,1225.779,1562.734,1314.992z"/>
			<path fill="none" stroke="#FFFFFF" d="M1562.734,669.356c0,89.213-72.333,161.334-161.348,161.334
				c-89.44,0-161.439-72.321-161.439-161.334c0-89.232,72.331-161.354,161.439-161.354
				C1490.401,507.923,1562.734,580.164,1562.734,669.356z"/>
			<path fill="none" stroke="#FFFFFF" d="M1003.394,1637.778c0,89.174-72.331,161.354-161.344,161.354
				c-89.441,0-161.344-72.341-161.344-161.354c0-89.438,72.291-161.354,161.344-161.354
				C931.162,1476.387,1003.394,1548.625,1003.394,1637.778z"/>
		</g>
	</g>
	<g id="VE">
		
			<line fill="none" stroke="#FFFFFF" stroke-width="3" stroke-miterlimit="10" x1="1124.244" y1="507.653" x2="565.059" y2="508.032"/>
		
			<line fill="none" stroke="#FFFFFF" stroke-width="3" stroke-miterlimit="10" x1="565.059" y1="508.032" x2="285.849" y2="992.502"/>
		
			<line fill="none" stroke="#FFFFFF" stroke-width="3" stroke-miterlimit="10" x1="565.833" y1="1476.724" x2="1125.09" y2="1476.392"/>
		
			<line fill="none" stroke="#FFFFFF" stroke-width="3" stroke-miterlimit="10" x1="1125.09" y1="1476.392" x2="1404.301" y2="991.829"/>
		
			<line fill="none" stroke="#FFFFFF" stroke-width="3" stroke-miterlimit="10" x1="1404.301" y1="991.829" x2="1124.244" y2="507.653"/>
		
			<line fill="none" stroke="#FFFFFF" stroke-width="3" stroke-miterlimit="10" x1="565.059" y1="508.032" x2="844.768" y2="669.27"/>
		
			<line fill="none" stroke="#FFFFFF" stroke-width="3" stroke-miterlimit="10" x1="844.768" y1="669.27" x2="1124.244" y2="507.653"/>
		
			<line fill="none" stroke="#FFFFFF" stroke-width="3" stroke-miterlimit="10" x1="565.833" y1="1476.724" x2="565.576" y2="1153.787"/>
		
			<line fill="none" stroke="#FFFFFF" stroke-width="3" stroke-miterlimit="10" x1="565.576" y1="1153.787" x2="285.849" y2="992.566"/>
		
			<line fill="none" stroke="#FFFFFF" stroke-width="3" stroke-miterlimit="10" x1="285.849" y1="992.502" x2="565.833" y2="1476.724"/>
		
			<line fill="none" stroke="#FFFFFF" stroke-width="3" stroke-miterlimit="10" x1="1404.301" y1="991.848" x2="1124.797" y2="1153.438"/>
		
			<line fill="none" stroke="#FFFFFF" stroke-width="3" stroke-miterlimit="10" x1="1124.797" y1="1153.438" x2="1124.979" y2="1476.281"/>
		
			<line fill="none" stroke="#FFFFFF" stroke-width="3" stroke-miterlimit="10" x1="1404.301" y1="991.848" x2="1032.252" y2="992.502"/>
		
			<line fill="none" stroke="#FFFFFF" stroke-width="3" stroke-miterlimit="10" x1="659.794" y1="991.848" x2="285.849" y2="992.502"/>
		
			<line fill="none" stroke="#FFFFFF" stroke-width="3" stroke-miterlimit="10" x1="940.26" y1="830.868" x2="1124.244" y2="507.654"/>
		
			<line fill="none" stroke="#FFFFFF" stroke-width="3" stroke-miterlimit="10" x1="754.148" y1="830.868" x2="565.44" y2="508.033"/>
		<line fill="none" stroke="#FFFFFF" stroke-width="3" x1="754.148" y1="1153.842" x2="565.833" y2="1476.724"/>
		<line fill="none" stroke="#FFFFFF" stroke-width="3" x1="940.26" y1="1152.89" x2="1125.09" y2="1476.392"/>
	</g>
	<g id="sixtyFour">
		<line fill="none" stroke="#FFFFFF" stroke-miterlimit="10" x1="939.152" y1="830.74" x2="1121.655" y2="830.74"/>
		<line fill="none" stroke="#FFFFFF" stroke-miterlimit="10" x1="562.405" y1="830.74" x2="751.724" y2="830.74"/>
		<line fill="none" stroke="#FFFFFF" stroke-miterlimit="10" x1="940.063" y1="1153.438" x2="847.223" y2="1314"/>
		<line fill="none" stroke="#FFFFFF" stroke-miterlimit="10" x1="1121.655" y1="830.741" x2="1031.275" y2="991.35"/>
		<line fill="none" stroke="#FFFFFF" stroke-miterlimit="10" x1="847.223" y1="1314" x2="753.383" y2="1153.438"/>
		<line fill="none" stroke="#FFFFFF" stroke-miterlimit="10" x1="658.292" y1="992.763" x2="562.405" y2="830.741"/>
		<line fill="none" stroke="#FFFFFF" stroke-miterlimit="10" x1="847.235" y1="1314.002" x2="843.571" y2="992.761"/>
		<line fill="none" stroke="#FFFFFF" stroke-miterlimit="10" x1="843.358" y1="992.762" x2="562.405" y2="830.741"/>
		<line fill="none" stroke="#FFFFFF" stroke-miterlimit="10" x1="843.571" y1="991.35" x2="1121.655" y2="830.741"/>
		<line fill="none" stroke="#FFFFFF" stroke-miterlimit="10" x1="705.74" y1="911.528" x2="981.392" y2="911.528"/>
		<line fill="none" stroke="#FFFFFF" stroke-miterlimit="10" x1="705.74" y1="911.528" x2="841.989" y2="1153.657"/>
		<line fill="none" stroke="#FFFFFF" stroke-miterlimit="10" x1="841.989" y1="1153.657" x2="981.392" y2="911.528"/>
		<line fill="none" stroke="#FFFFFF" stroke-miterlimit="10" x1="844.768" y1="669.27" x2="1124.797" y2="1153.438"/>
		<line fill="none" stroke="#FFFFFF" stroke-miterlimit="10" x1="1124.797" y1="1153.438" x2="565.576" y2="1153.787"/>
		<line fill="none" stroke="#FFFFFF" stroke-miterlimit="10" x1="565.576" y1="1153.787" x2="844.768" y2="669.27"/>
	</g>
	<g id="hexagon">
		<polygon fill="#FFFFFF" fill-opacity="0" stroke="#FFE86D" stroke-miterlimit="10" stroke-opacity="0" points="-7,507 834,21 
			1675,507 1675,1478 834,1963 -7,1478 		"/>
	</g>
</g>
</svg>
