<?xml version="1.0" encoding="utf-8"?>
<!-- Generator: Adobe Illustrator 16.0.0, SVG Export Plug-In . SVG Version: 6.00 Build 0)  -->
<!DOCTYPE svg PUBLIC "-//W3C//DTD SVG 1.1//EN" "http://www.w3.org/Graphics/SVG/1.1/DTD/svg11.dtd">
<svg version="1.1" id="Layer_1" xmlns="http://www.w3.org/2000/svg" xmlns:xlink="http://www.w3.org/1999/xlink" x="0px" y="0px"
	 width="44.833px" height="44.833px" viewBox="0 0 44.833 44.833" enable-background="new 0 0 44.833 44.833" xml:space="preserve">
<g>
	<path fill="#FFDA00" d="M33.808,30.569c-1.43,0.656-2.992,1.227-4.686,1.713s-3.33,0.73-4.912,0.73
		c-2.039,0-3.909-0.281-5.608-0.844s-3.146-1.406-4.342-2.531c-1.207-1.137-2.139-2.559-2.795-4.264
		c-0.656-1.705-0.984-3.7-0.984-5.985c0-4.184,1.222-7.485,3.665-9.905s5.798-3.63,10.064-3.63c1.488,0,3.008,0.179,4.561,0.536
		s3.227,0.964,5.02,1.819v4.131h-0.316c-0.363-0.281-0.891-0.65-1.582-1.107s-1.371-0.838-2.039-1.143
		c-0.809-0.363-1.727-0.665-2.752-0.905s-2.188-0.36-3.488-0.36c-2.93,0-5.248,0.94-6.953,2.821s-2.558,4.427-2.558,7.638
		c0,3.387,0.891,6.02,2.672,7.901s4.207,2.822,7.278,2.822c1.125,0,2.246-0.111,3.365-0.334s2.102-0.51,2.945-0.861v-6.417h-7.014
		v-3.059h10.459V30.569z"/>
</g>
<g>
</g>
<g>
</g>
<g>
</g>
<g>
</g>
<g>
</g>
<g>
</g>
</svg>
