<?xml version="1.0" encoding="utf-8"?>
<!-- Generator: Adobe Illustrator 16.0.0, SVG Export Plug-In . SVG Version: 6.00 Build 0)  -->
<!DOCTYPE svg PUBLIC "-//W3C//DTD SVG 1.1//EN" "http://www.w3.org/Graphics/SVG/1.1/DTD/svg11.dtd">
<svg version="1.1" xmlns="http://www.w3.org/2000/svg" xmlns:xlink="http://www.w3.org/1999/xlink" x="0px" y="0px"
	 width="1984.252px" height="1984.252px" viewBox="0 0 1984.252 1984.252" enable-background="new 0 0 1984.252 1984.252"
	 xml:space="preserve">
<g id="back" display="none">
	<rect id="image" y="-13.988" display="inline" fill="#130E22" width="1984.252" height="2012.229"/>
</g>
<g id="fol" display="none">
	<g id="folGroup" display="inline">
		<g id="rotation_1_1_">
			<path fill="none" stroke="#FFFFFF" stroke-width="6" stroke-miterlimit="10" d="M1153.493,992.146
				c0,89.162-72.295,161.414-161.386,161.414c-89.201,0-161.497-72.252-161.497-161.414c0-89.217,72.296-161.469,161.497-161.469
				C1081.198,830.677,1153.493,902.929,1153.493,992.146z"/>
			<path fill="none" stroke="#FFFFFF" stroke-width="6" stroke-miterlimit="10" d="M1153.493,1153.589
				c0,89.16-72.295,161.412-161.386,161.412c-89.201,0-161.497-72.252-161.497-161.412c0-89.219,72.296-161.471,161.497-161.471
				C1081.198,992.118,1153.493,1064.37,1153.493,1153.589z"/>
			<path fill="none" stroke="#FFFFFF" stroke-width="6" stroke-miterlimit="10" d="M1293.342,1072.868
				c0,89.16-72.294,161.412-161.386,161.412c-89.201,0-161.496-72.252-161.496-161.412c0-89.219,72.295-161.471,161.496-161.471
				C1221.048,911.397,1293.342,983.649,1293.342,1072.868z"/>
			<path fill="none" stroke="#FFFFFF" stroke-width="6" stroke-miterlimit="10" d="M1293.334,911.426
				c0,89.159-72.294,161.413-161.386,161.413c-89.201,0-161.496-72.254-161.496-161.413c0-89.218,72.295-161.47,161.496-161.47
				C1221.04,749.956,1293.334,822.208,1293.334,911.426z"/>
			<path fill="none" stroke="#FFFFFF" stroke-width="6" stroke-miterlimit="10" d="M1153.493,830.704
				c0,89.161-72.295,161.414-161.386,161.414c-89.202,0-161.496-72.253-161.496-161.414c0-89.216,72.294-161.469,161.496-161.469
				C1081.198,669.235,1153.493,741.488,1153.493,830.704z"/>
			<path fill="none" stroke="#FFFFFF" stroke-width="6" stroke-miterlimit="10" d="M1013.651,911.426
				c0,89.159-72.294,161.413-161.386,161.413c-89.201,0-161.497-72.254-161.497-161.413c0-89.218,72.296-161.47,161.497-161.47
				C941.357,749.956,1013.651,822.208,1013.651,911.426z"/>
			<path fill="none" stroke="#FFFFFF" stroke-width="6" stroke-miterlimit="10" d="M1013.651,1072.868
				c0,89.16-72.295,161.412-161.386,161.412c-89.202,0-161.497-72.252-161.497-161.412c0-89.219,72.295-161.472,161.497-161.472
				C941.356,911.396,1013.651,983.649,1013.651,1072.868z"/>
		</g>
		<g id="rotation_2_1_">
			<path fill="none" stroke="#FFFFFF" stroke-width="6" stroke-miterlimit="10" d="M1013.651,749.984
				c0,89.16-72.294,161.413-161.386,161.413c-89.201,0-161.497-72.253-161.497-161.413c0-89.218,72.296-161.47,161.497-161.47
				C941.357,588.515,1013.651,660.767,1013.651,749.984z"/>
			<path fill="none" stroke="#FFFFFF" stroke-width="6" stroke-miterlimit="10" d="M873.834,992.146
				c0,89.162-72.294,161.414-161.386,161.414c-89.201,0-161.497-72.252-161.497-161.414c0-89.217,72.296-161.47,161.497-161.47
				C801.54,830.676,873.834,902.929,873.834,992.146z"/>
			<path fill="none" stroke="#FFFFFF" stroke-width="6" stroke-miterlimit="10" d="M1013.651,1234.31
				c0,89.16-72.295,161.412-161.386,161.412c-89.202,0-161.497-72.252-161.497-161.412c0-89.219,72.295-161.471,161.497-161.471
				C941.356,1072.839,1013.651,1145.091,1013.651,1234.31z"/>
			<path fill="none" stroke="#FFFFFF" stroke-width="6" stroke-miterlimit="10" d="M1293.342,1234.308
				c0,89.16-72.296,161.414-161.387,161.414c-89.201,0-161.496-72.254-161.496-161.414c0-89.219,72.295-161.471,161.496-161.471
				C1221.046,1072.837,1293.342,1145.089,1293.342,1234.308z"/>
			<path fill="none" stroke="#FFFFFF" stroke-width="6" stroke-miterlimit="10" d="M1433.191,992.146
				c0,89.162-72.294,161.414-161.386,161.414c-89.201,0-161.497-72.252-161.497-161.414c0-89.217,72.296-161.47,161.497-161.47
				C1360.897,830.676,1433.191,902.929,1433.191,992.146z"/>
			<path fill="none" stroke="#FFFFFF" stroke-width="6" stroke-miterlimit="10" d="M1293.334,749.984
				c0,89.16-72.294,161.413-161.386,161.413c-89.201,0-161.496-72.253-161.496-161.413c0-89.218,72.295-161.471,161.496-161.471
				C1221.04,588.514,1293.334,660.767,1293.334,749.984z"/>
		</g>
		<g id="rotation_3_1_">
			<path fill="none" stroke="#FFFFFF" stroke-width="6" stroke-miterlimit="10" d="M1153.493,669.265
				c0,89.16-72.295,161.414-161.386,161.414c-89.201,0-161.497-72.254-161.497-161.414c0-89.218,72.296-161.47,161.497-161.47
				C1081.198,507.795,1153.493,580.047,1153.493,669.265z"/>
			<path fill="none" stroke="#FFFFFF" stroke-width="6" stroke-miterlimit="10" d="M873.834,830.704
				c0,89.16-72.294,161.414-161.386,161.414c-89.201,0-161.497-72.254-161.497-161.414c0-89.218,72.296-161.47,161.497-161.47
				C801.54,669.234,873.834,741.486,873.834,830.704z"/>
			<path fill="none" stroke="#FFFFFF" stroke-width="6" stroke-miterlimit="10" d="M873.837,1153.575
				c0,89.162-72.295,161.414-161.386,161.414c-89.201,0-161.497-72.252-161.497-161.414c0-89.217,72.296-161.469,161.497-161.469
				C801.542,992.106,873.837,1064.358,873.837,1153.575z"/>
			<path fill="none" stroke="#FFFFFF" stroke-width="6" stroke-miterlimit="10" d="M1153.494,1315.03
				c0,89.16-72.295,161.412-161.386,161.412c-89.201,0-161.497-72.252-161.497-161.412c0-89.219,72.296-161.471,161.497-161.471
				C1081.199,1153.56,1153.494,1225.812,1153.494,1315.03z"/>
			<path fill="none" stroke="#FFFFFF" stroke-width="6" stroke-miterlimit="10" d="M1433.204,1153.589
				c0,89.162-72.295,161.414-161.386,161.414c-89.201,0-161.497-72.252-161.497-161.414c0-89.219,72.296-161.471,161.497-161.471
				C1360.909,992.118,1433.204,1064.37,1433.204,1153.589z"/>
			<path fill="none" stroke="#FFFFFF" stroke-width="6" stroke-miterlimit="10" d="M1433.192,830.704
				c0,89.161-72.294,161.414-161.386,161.414c-89.201,0-161.497-72.253-161.497-161.414c0-89.218,72.296-161.469,161.497-161.469
				C1360.898,669.235,1433.192,741.486,1433.192,830.704z"/>
		</g>
		<g id="rotation_4_1_">
			<path fill="none" stroke="#FFFFFF" stroke-width="6" stroke-miterlimit="10" d="M1013.651,588.543
				c0,89.161-72.293,161.413-161.385,161.413c-89.201,0-161.497-72.252-161.497-161.413c0-89.218,72.296-161.47,161.497-161.47
				C941.358,427.073,1013.651,499.325,1013.651,588.543z"/>
			<path fill="none" stroke="#FFFFFF" stroke-width="6" stroke-miterlimit="10" d="M873.813,669.274
				c0,89.161-72.295,161.413-161.386,161.413c-89.201,0-161.497-72.252-161.497-161.413c0-89.219,72.296-161.47,161.497-161.47
				C801.519,507.805,873.813,580.056,873.813,669.274z"/>
			<path fill="none" stroke="#FFFFFF" stroke-width="6" stroke-miterlimit="10" d="M733.996,911.434
				c0,89.161-72.295,161.413-161.386,161.413c-89.202,0-161.497-72.252-161.497-161.413c0-89.218,72.295-161.47,161.497-161.47
				C661.701,749.964,733.996,822.216,733.996,911.434z"/>
			<path fill="none" stroke="#FFFFFF" stroke-width="6" stroke-miterlimit="10" d="M734.008,1072.876
				c0,89.162-72.295,161.414-161.386,161.414c-89.201,0-161.497-72.252-161.497-161.414c0-89.219,72.296-161.47,161.497-161.47
				C661.713,911.406,734.008,983.657,734.008,1072.876z"/>
			<path fill="none" stroke="#FFFFFF" stroke-width="6" stroke-miterlimit="10" d="M873.849,1315.019
				c0,89.16-72.295,161.412-161.386,161.412c-89.201,0-161.497-72.252-161.497-161.412c0-89.219,72.296-161.471,161.497-161.471
				C801.554,1153.548,873.849,1225.8,873.849,1315.019z"/>
			<path fill="none" stroke="#FFFFFF" stroke-width="6" stroke-miterlimit="10" d="M1293.341,1395.761
				c0,89.162-72.294,161.414-161.385,161.414c-89.201,0-161.496-72.252-161.496-161.414c0-89.219,72.295-161.469,161.496-161.469
				C1221.047,1234.292,1293.341,1306.542,1293.341,1395.761z"/>
			<path fill="none" stroke="#FFFFFF" stroke-width="6" stroke-miterlimit="10" d="M1433.216,1315.042
				c0,89.16-72.294,161.414-161.386,161.414c-89.201,0-161.497-72.254-161.497-161.414c0-89.217,72.296-161.469,161.497-161.469
				C1360.922,1153.573,1433.216,1225.825,1433.216,1315.042z"/>
			<path fill="none" stroke="#FFFFFF" stroke-width="6" stroke-miterlimit="10" d="M1573.044,1072.853
				c0,89.162-72.294,161.414-161.384,161.414c-89.202,0-161.498-72.252-161.498-161.414c0-89.217,72.296-161.469,161.498-161.469
				C1500.75,911.384,1573.044,983.636,1573.044,1072.853z"/>
			<path fill="none" stroke="#FFFFFF" stroke-width="6" stroke-miterlimit="10" d="M1573.058,911.424
				c0,89.161-72.295,161.413-161.386,161.413c-89.201,0-161.497-72.252-161.497-161.413c0-89.219,72.296-161.47,161.497-161.47
				C1500.763,749.954,1573.058,822.205,1573.058,911.424z"/>
			<path fill="none" stroke="#FFFFFF" stroke-width="6" stroke-miterlimit="10" d="M1433.193,669.264
				c0,89.161-72.294,161.413-161.386,161.413c-89.201,0-161.497-72.252-161.497-161.413c0-89.218,72.296-161.47,161.497-161.47
				C1360.899,507.794,1433.193,580.046,1433.193,669.264z"/>
			<path fill="none" stroke="#FFFFFF" stroke-width="6" stroke-miterlimit="10" d="M1293.379,588.542
				c0,89.161-72.295,161.414-161.385,161.414c-89.201,0-161.497-72.253-161.497-161.414c0-89.218,72.296-161.469,161.497-161.469
				C1221.084,427.073,1293.379,499.324,1293.379,588.542z"/>
			<path fill="none" stroke="#FFFFFF" stroke-width="6" stroke-miterlimit="10" d="M1013.707,1395.763
				c0,89.16-72.295,161.414-161.385,161.414c-89.202,0-161.497-72.254-161.497-161.414c0-89.219,72.295-161.469,161.497-161.469
				C941.412,1234.294,1013.707,1306.544,1013.707,1395.763z"/>
		</g>
		<g id="rotation_5_1_">
			<path fill="none" stroke="#FFFFFF" stroke-width="6" stroke-miterlimit="10" d="M1153.549,507.823
				c0,89.161-72.295,161.414-161.385,161.414c-89.201,0-161.497-72.253-161.497-161.414c0-89.218,72.296-161.469,161.497-161.469
				C1081.254,346.354,1153.549,418.605,1153.549,507.823z"/>
			<path fill="none" stroke="#FFFFFF" stroke-width="6" stroke-miterlimit="10" d="M873.869,507.833
				c0,89.161-72.294,161.414-161.385,161.414c-89.201,0-161.497-72.253-161.497-161.414c0-89.218,72.296-161.469,161.497-161.469
				C801.575,346.364,873.869,418.615,873.869,507.833z"/>
			<path fill="none" stroke="#FFFFFF" stroke-width="6" stroke-miterlimit="10" d="M733.996,750.004
				c0,89.161-72.294,161.413-161.385,161.413c-89.202,0-161.497-72.252-161.497-161.413c0-89.218,72.295-161.47,161.497-161.47
				C661.702,588.534,733.996,660.786,733.996,750.004z"/>
			<path fill="none" stroke="#FFFFFF" stroke-width="6" stroke-miterlimit="10" d="M594.195,992.147
				c0,89.162-72.295,161.414-161.386,161.414c-89.201,0-161.496-72.252-161.496-161.414c0-89.219,72.295-161.47,161.496-161.47
				C521.9,830.678,594.195,902.929,594.195,992.147z"/>
			<path fill="none" stroke="#FFFFFF" stroke-width="6" stroke-miterlimit="10" d="M734.022,1234.317
				c0,89.162-72.295,161.414-161.386,161.414c-89.201,0-161.497-72.252-161.497-161.414c0-89.219,72.296-161.469,161.497-161.469
				C661.728,1072.849,734.022,1145.099,734.022,1234.317z"/>
			<path fill="none" stroke="#FFFFFF" stroke-width="6" stroke-miterlimit="10" d="M873.853,1476.448
				c0,89.162-72.294,161.414-161.386,161.414c-89.201,0-161.497-72.252-161.497-161.414c0-89.219,72.296-161.471,161.497-161.471
				C801.559,1314.978,873.853,1387.229,873.853,1476.448z"/>
			<path fill="none" stroke="#FFFFFF" stroke-width="6" stroke-miterlimit="10" d="M1153.542,1476.481
				c0,89.162-72.295,161.414-161.386,161.414c-89.201,0-161.496-72.252-161.496-161.414c0-89.219,72.295-161.469,161.496-161.469
				C1081.247,1315.013,1153.542,1387.263,1153.542,1476.481z"/>
			<path fill="none" stroke="#FFFFFF" stroke-width="6" stroke-miterlimit="10" d="M1433.254,1476.483
				c0,89.162-72.295,161.414-161.386,161.414c-89.201,0-161.497-72.252-161.497-161.414c0-89.219,72.296-161.469,161.497-161.469
				C1360.959,1315.015,1433.254,1387.265,1433.254,1476.483z"/>
			<path fill="none" stroke="#FFFFFF" stroke-width="6" stroke-miterlimit="10" d="M1573.071,1234.308
				c0,89.162-72.295,161.414-161.386,161.414c-89.2,0-161.497-72.252-161.497-161.414c0-89.219,72.297-161.471,161.497-161.471
				C1500.776,1072.837,1573.071,1145.089,1573.071,1234.308z"/>
			<path fill="none" stroke="#FFFFFF" stroke-width="6" stroke-miterlimit="10" d="M1712.903,992.157
				c0,89.162-72.294,161.416-161.386,161.416c-89.202,0-161.497-72.254-161.497-161.416c0-89.217,72.295-161.469,161.497-161.469
				C1640.609,830.688,1712.903,902.94,1712.903,992.157z"/>
			<path fill="none" stroke="#FFFFFF" stroke-width="6" stroke-miterlimit="10" d="M1573.063,749.994
				c0,89.161-72.295,161.414-161.387,161.414c-89.202,0-161.496-72.253-161.496-161.414c0-89.219,72.294-161.47,161.496-161.47
				C1500.768,588.524,1573.063,660.775,1573.063,749.994z"/>
			<path fill="none" stroke="#FFFFFF" stroke-width="6" stroke-miterlimit="10" d="M1433.231,507.822
				c0,89.162-72.294,161.415-161.386,161.415c-89.202,0-161.497-72.253-161.497-161.415c0-89.218,72.295-161.469,161.497-161.469
				C1360.938,346.354,1433.231,418.604,1433.231,507.822z"/>
		</g>
		<g id="rotation_6_1_">
			<path fill="none" stroke="#FFFFFF" stroke-width="6" stroke-miterlimit="10" d="M1013.713,427.102
				c0,89.162-72.295,161.415-161.386,161.415c-89.203,0-161.497-72.253-161.497-161.415c0-89.218,72.294-161.469,161.497-161.469
				C941.418,265.633,1013.713,337.884,1013.713,427.102z"/>
			<path fill="none" stroke="#FFFFFF" stroke-width="6" stroke-miterlimit="10" d="M734.011,588.541
				c0,89.161-72.294,161.414-161.385,161.414c-89.201,0-161.497-72.253-161.497-161.414c0-89.219,72.296-161.47,161.497-161.47
				C661.717,427.071,734.011,499.322,734.011,588.541z"/>
			<path fill="none" stroke="#FFFFFF" stroke-width="6" stroke-miterlimit="10" d="M594.178,830.717
				c0,89.162-72.295,161.415-161.386,161.415c-89.201,0-161.497-72.253-161.497-161.415c0-89.218,72.296-161.469,161.497-161.469
				C521.883,669.248,594.178,741.499,594.178,830.717z"/>
			<path fill="none" stroke="#FFFFFF" stroke-width="6" stroke-miterlimit="10" d="M594.199,1153.601
				c0,89.162-72.294,161.414-161.386,161.414c-89.201,0-161.496-72.252-161.496-161.414c0-89.217,72.295-161.469,161.496-161.469
				C521.905,992.132,594.199,1064.384,594.199,1153.601z"/>
			<path fill="none" stroke="#FFFFFF" stroke-width="6" stroke-miterlimit="10" d="M734.038,1395.749
				c0,89.162-72.295,161.414-161.386,161.414c-89.201,0-161.497-72.252-161.497-161.414c0-89.219,72.296-161.469,161.497-161.469
				C661.743,1234.28,734.038,1306.53,734.038,1395.749z"/>
			<path fill="none" stroke="#FFFFFF" stroke-width="6" stroke-miterlimit="10" d="M1013.711,1557.204
				c0,89.162-72.294,161.414-161.385,161.414c-89.202,0-161.497-72.252-161.497-161.414c0-89.219,72.295-161.469,161.497-161.469
				C941.417,1395.735,1013.711,1467.985,1013.711,1557.204z"/>
			<path fill="none" stroke="#FFFFFF" stroke-width="6" stroke-miterlimit="10" d="M1293.401,1557.202
				c0,89.162-72.295,161.416-161.386,161.416c-89.2,0-161.496-72.254-161.496-161.416c0-89.217,72.296-161.467,161.496-161.467
				C1221.106,1395.735,1293.401,1467.985,1293.401,1557.202z"/>
			<path fill="none" stroke="#FFFFFF" stroke-width="6" stroke-miterlimit="10" d="M1573.108,1395.749
				c0,89.162-72.294,161.414-161.386,161.414c-89.201,0-161.497-72.252-161.497-161.414c0-89.219,72.296-161.469,161.497-161.469
				C1500.814,1234.28,1573.108,1306.53,1573.108,1395.749z"/>
			<path fill="none" stroke="#FFFFFF" stroke-width="6" stroke-miterlimit="10" d="M1712.919,1153.591
				c0,89.16-72.294,161.412-161.386,161.412c-89.202,0-161.497-72.252-161.497-161.412c0-89.219,72.295-161.471,161.497-161.471
				C1640.625,992.12,1712.919,1064.372,1712.919,1153.591z"/>
			<path fill="none" stroke="#FFFFFF" stroke-width="6" stroke-miterlimit="10" d="M1712.931,830.717
				c0,89.162-72.295,161.415-161.386,161.415c-89.203,0-161.497-72.253-161.497-161.415c0-89.218,72.294-161.469,161.497-161.469
				C1640.636,669.248,1712.931,741.499,1712.931,830.717z"/>
			<path fill="none" stroke="#FFFFFF" stroke-width="6" stroke-miterlimit="10" d="M1573.1,588.564
				c0,89.161-72.294,161.414-161.386,161.414c-89.201,0-161.497-72.253-161.497-161.414c0-89.219,72.296-161.47,161.497-161.47
				C1500.806,427.095,1573.1,499.346,1573.1,588.564z"/>
			<path fill="none" stroke="#FFFFFF" stroke-width="6" stroke-miterlimit="10" d="M1293.418,427.102
				c0,89.162-72.295,161.414-161.386,161.414c-89.201,0-161.497-72.252-161.497-161.414c0-89.218,72.296-161.47,161.497-161.47
				C1221.123,265.632,1293.418,337.884,1293.418,427.102z"/>
		</g>
		<g id="rotation_7_1_">
			<path fill="none" stroke="#FFFFFF" stroke-width="6" stroke-miterlimit="10" d="M1153.598,346.383
				c0,89.161-72.295,161.414-161.386,161.414c-89.201,0-161.496-72.253-161.496-161.414c0-89.219,72.295-161.47,161.496-161.47
				C1081.303,184.913,1153.598,257.164,1153.598,346.383z"/>
			<path fill="none" stroke="#FFFFFF" stroke-width="6" stroke-miterlimit="10" d="M594.215,669.276
				c0,89.162-72.295,161.414-161.386,161.414c-89.201,0-161.497-72.252-161.497-161.414c0-89.218,72.296-161.469,161.497-161.469
				C521.92,507.808,594.215,580.059,594.215,669.276z"/>
			<path fill="none" stroke="#FFFFFF" stroke-width="6" stroke-miterlimit="10" d="M594.203,1315.042
				c0,89.164-72.294,161.416-161.386,161.416c-89.201,0-161.497-72.252-161.497-161.416c0-89.217,72.296-161.467,161.497-161.467
				C521.909,1153.575,594.203,1225.825,594.203,1315.042z"/>
			<path fill="none" stroke="#FFFFFF" stroke-width="6" stroke-miterlimit="10" d="M1712.957,1315.032
				c0,89.162-72.295,161.414-161.386,161.414c-89.201,0-161.497-72.252-161.497-161.414c0-89.219,72.296-161.469,161.497-161.469
				C1640.662,1153.563,1712.957,1225.813,1712.957,1315.032z"/>
			<path fill="none" stroke="#FFFFFF" stroke-width="6" stroke-miterlimit="10" d="M1712.946,669.287
				c0,89.162-72.295,161.414-161.386,161.414c-89.202,0-161.497-72.252-161.497-161.414c0-89.218,72.295-161.469,161.497-161.469
				C1640.651,507.818,1712.946,580.069,1712.946,669.287z"/>
			<path fill="none" stroke="#FFFFFF" stroke-width="6" stroke-miterlimit="10" d="M1153.58,1637.923
				c0,89.162-72.295,161.416-161.387,161.416c-89.2,0-161.496-72.254-161.496-161.416c0-89.217,72.296-161.467,161.496-161.467
				C1081.285,1476.456,1153.58,1548.706,1153.58,1637.923z"/>
		</g>
	</g>
</g>
<g id="FruitOfLife">
	<g id="FruitGroup">
		<path fill="none" stroke="#FFFFFF" stroke-width="6" stroke-miterlimit="10" d="M1153.48,992.146
			c0,89.162-72.295,161.414-161.386,161.414c-89.201,0-161.497-72.252-161.497-161.414c0-89.217,72.296-161.469,161.497-161.469
			C1081.186,830.677,1153.48,902.929,1153.48,992.146z"/>
		<path fill="none" stroke="#FFFFFF" stroke-width="6" stroke-miterlimit="10" d="M1153.48,669.265
			c0,89.16-72.295,161.414-161.386,161.414c-89.201,0-161.497-72.254-161.497-161.414c0-89.218,72.296-161.47,161.497-161.47
			C1081.186,507.795,1153.48,580.047,1153.48,669.265z"/>
		<path fill="none" stroke="#FFFFFF" stroke-width="6" stroke-miterlimit="10" d="M873.821,830.704
			c0,89.16-72.294,161.414-161.386,161.414c-89.201,0-161.497-72.254-161.497-161.414c0-89.218,72.296-161.47,161.497-161.47
			C801.527,669.234,873.821,741.486,873.821,830.704z"/>
		<path fill="none" stroke="#FFFFFF" stroke-width="6" stroke-miterlimit="10" d="M873.824,1153.575
			c0,89.162-72.294,161.414-161.386,161.414c-89.201,0-161.497-72.252-161.497-161.414c0-89.217,72.296-161.469,161.497-161.469
			C801.529,992.106,873.824,1064.358,873.824,1153.575z"/>
		<path fill="none" stroke="#FFFFFF" stroke-width="6" stroke-miterlimit="10" d="M1153.481,1315.03
			c0,89.16-72.295,161.412-161.386,161.412c-89.202,0-161.497-72.252-161.497-161.412c0-89.219,72.295-161.471,161.497-161.471
			C1081.187,1153.56,1153.481,1225.812,1153.481,1315.03z"/>
		<path fill="none" stroke="#FFFFFF" stroke-width="6" stroke-miterlimit="10" d="M1433.191,1153.589
			c0,89.162-72.295,161.414-161.386,161.414c-89.201,0-161.497-72.252-161.497-161.414c0-89.219,72.296-161.471,161.497-161.471
			C1360.896,992.118,1433.191,1064.37,1433.191,1153.589z"/>
		<path fill="none" stroke="#FFFFFF" stroke-width="6" stroke-miterlimit="10" d="M1433.18,830.704
			c0,89.161-72.294,161.414-161.386,161.414c-89.201,0-161.497-72.253-161.497-161.414c0-89.218,72.296-161.469,161.497-161.469
			C1360.886,669.235,1433.18,741.486,1433.18,830.704z"/>
		<path fill="none" stroke="#FFFFFF" stroke-width="6" stroke-miterlimit="10" d="M1153.585,346.383
			c0,89.161-72.295,161.414-161.386,161.414c-89.201,0-161.497-72.253-161.497-161.414c0-89.219,72.295-161.47,161.497-161.47
			C1081.29,184.913,1153.585,257.164,1153.585,346.383z"/>
		<path fill="none" stroke="#FFFFFF" stroke-width="6" stroke-miterlimit="10" d="M594.202,669.276
			c0,89.162-72.294,161.414-161.386,161.414c-89.201,0-161.497-72.252-161.497-161.414c0-89.218,72.296-161.469,161.497-161.469
			C521.907,507.808,594.202,580.059,594.202,669.276z"/>
		<path fill="none" stroke="#FFFFFF" stroke-width="6" stroke-miterlimit="10" d="M594.19,1315.042
			c0,89.164-72.294,161.416-161.386,161.416c-89.201,0-161.497-72.252-161.497-161.416c0-89.217,72.296-161.467,161.497-161.467
			C521.896,1153.575,594.19,1225.825,594.19,1315.042z"/>
		<path fill="none" stroke="#FFFFFF" stroke-width="6" stroke-miterlimit="10" d="M1712.944,1315.032
			c0,89.162-72.295,161.414-161.386,161.414c-89.201,0-161.497-72.252-161.497-161.414c0-89.219,72.296-161.469,161.497-161.469
			C1640.649,1153.563,1712.944,1225.813,1712.944,1315.032z"/>
		<path fill="none" stroke="#FFFFFF" stroke-width="6" stroke-miterlimit="10" d="M1712.934,669.287
			c0,89.162-72.295,161.414-161.386,161.414c-89.202,0-161.497-72.252-161.497-161.414c0-89.218,72.295-161.469,161.497-161.469
			C1640.639,507.818,1712.934,580.069,1712.934,669.287z"/>
		<path fill="none" stroke="#FFFFFF" stroke-width="6" stroke-miterlimit="10" d="M1153.567,1637.923
			c0,89.162-72.295,161.416-161.387,161.416c-89.201,0-161.497-72.254-161.497-161.416c0-89.217,72.295-161.467,161.497-161.467
			C1081.272,1476.456,1153.567,1548.706,1153.567,1637.923z"/>
	</g>
</g>
<g id="_x36_4tetra">
	<g id="_x36_4TetraGroup">
		
			<line fill="none" stroke="#FFFFFF" stroke-width="6" stroke-miterlimit="10" x1="993.102" y1="346.06" x2="993.083" y2="992.126"/>
		
			<line fill="none" stroke="#FFFFFF" stroke-width="6" stroke-miterlimit="10" x1="992.126" y1="992.392" x2="433.705" y2="1314.722"/>
		
			<line fill="none" stroke="#FFFFFF" stroke-width="6" stroke-miterlimit="10" x1="993.62" y1="992.126" x2="1552.461" y2="1314.71"/>
		
			<line fill="none" stroke="#FFFFFF" stroke-width="6" stroke-miterlimit="10" x1="1272.854" y1="830.433" x2="1552.494" y2="991.837"/>
		
			<line fill="none" stroke="#FFFFFF" stroke-width="6" stroke-miterlimit="10" x1="992.758" y1="1314.878" x2="713.36" y2="1476.126"/>
		
			<line fill="none" stroke="#FFFFFF" stroke-width="6" stroke-miterlimit="10" x1="713.366" y1="830.382" x2="713.371" y2="507.511"/>
		
			<line fill="none" stroke="#FFFFFF" stroke-width="6" stroke-miterlimit="10" x1="1272.765" y1="507.5" x2="1272.771" y2="830.409"/>
		
			<line fill="none" stroke="#FFFFFF" stroke-width="6" stroke-miterlimit="10" x1="1272.779" y1="1476.161" x2="992.988" y2="1314.655"/>
		
			<line fill="none" stroke="#FFFFFF" stroke-width="6" stroke-miterlimit="10" x1="433.74" y1="991.837" x2="712.087" y2="831.157"/>
		
			<line fill="none" stroke="#FFFFFF" stroke-width="6" stroke-miterlimit="10" x1="527.035" y1="830.251" x2="433.74" y2="991.837"/>
		
			<line fill="none" stroke="#FFFFFF" stroke-width="6" stroke-miterlimit="10" x1="713.376" y1="507.511" x2="620.067" y2="669.121"/>
		
			<line fill="none" stroke="#FFFFFF" stroke-width="6" stroke-miterlimit="10" x1="433.74" y1="991.837" x2="713.36" y2="1476.126"/>
		
			<line fill="none" stroke="#FFFFFF" stroke-width="6" stroke-miterlimit="10" x1="1086.005" y1="1476.138" x2="1272.779" y2="1476.149"/>
		
			<line fill="none" stroke="#FFFFFF" stroke-width="6" stroke-miterlimit="10" x1="713.36" y1="1476.138" x2="899.942" y2="1476.149"/>
		
			<line fill="none" stroke="#FFFFFF" stroke-width="6" stroke-miterlimit="10" x1="1272.779" y1="1476.161" x2="1552.494" y2="991.837"/>
		
			<line fill="none" stroke="#FFFFFF" stroke-width="6" stroke-miterlimit="10" x1="1552.494" y1="991.837" x2="1458.968" y2="829.905"/>
		
			<line fill="none" stroke="#FFFFFF" stroke-width="6" stroke-miterlimit="10" x1="1366.599" y1="669.978" x2="1272.757" y2="507.5"/>
		
			<line fill="none" stroke="#FFFFFF" stroke-width="6" stroke-miterlimit="10" x1="1272.757" y1="507.5" x2="713.376" y2="507.511"/>
		
			<line fill="none" stroke="#FFFFFF" stroke-width="6" stroke-miterlimit="10" x1="1365.475" y1="1314.716" x2="1552.461" y2="1314.714"/>
		
			<line fill="none" stroke="#FFFFFF" stroke-width="6" stroke-miterlimit="10" x1="433.705" y1="1314.716" x2="620.708" y2="1314.714"/>
		
			<line fill="none" stroke="#FFFFFF" stroke-width="6" stroke-miterlimit="10" x1="1552.448" y1="668.965" x2="433.725" y2="668.935"/>
		
			<line fill="none" stroke="#FFFFFF" stroke-width="6" stroke-miterlimit="10" x1="1365.943" y1="991.837" x2="1552.494" y2="991.837"/>
		
			<line fill="none" stroke="#FFFFFF" stroke-width="6" stroke-miterlimit="10" x1="433.74" y1="991.837" x2="619.992" y2="991.837"/>
		
			<line fill="none" stroke="#FFFFFF" stroke-width="6" stroke-miterlimit="10" x1="1273.014" y1="830.372" x2="713.134" y2="830.382"/>
		
			<line fill="none" stroke="#FFFFFF" stroke-width="6" stroke-miterlimit="10" x1="1412.579" y1="911.106" x2="1226.789" y2="911.108"/>
		
			<line fill="none" stroke="#FFFFFF" stroke-width="6" stroke-miterlimit="10" x1="760.169" y1="911.106" x2="573.577" y2="911.108"/>
		
			<line fill="none" stroke="#FFFFFF" stroke-width="6" stroke-miterlimit="10" x1="1133.787" y1="1072.532" x2="853.779" y2="1072.542"/>
		
			<line fill="none" stroke="#FFFFFF" stroke-width="6" stroke-miterlimit="10" x1="1273.034" y1="1153.31" x2="1086.005" y2="1153.239"/>
		
			<line fill="none" stroke="#FFFFFF" stroke-width="6" stroke-miterlimit="10" x1="899.942" y1="1153.282" x2="712.916" y2="1153.267"/>
		
			<line fill="none" stroke="#FFFFFF" stroke-width="6" stroke-miterlimit="10" x1="1132.922" y1="1395.44" x2="853.164" y2="1395.44"/>
		
			<line fill="none" stroke="#FFFFFF" stroke-width="6" stroke-miterlimit="10" x1="573.644" y1="911.147" x2="713.48" y2="668.939"/>
		
			<line fill="none" stroke="#FFFFFF" stroke-width="6" stroke-miterlimit="10" x1="666.357" y1="1073.466" x2="573.627" y2="1234.097"/>
		
			<line fill="none" stroke="#FFFFFF" stroke-width="6" stroke-miterlimit="10" x1="992.566" y1="508.454" x2="899.321" y2="669.978"/>
		
			<line fill="none" stroke="#FFFFFF" stroke-width="6" stroke-miterlimit="10" x1="1272.735" y1="668.891" x2="1179.489" y2="830.403"/>
		
			<line fill="none" stroke="#FFFFFF" stroke-width="6" stroke-miterlimit="10" x1="946.627" y1="1233.728" x2="853.216" y2="1395.526"/>
		
			<line fill="none" stroke="#FFFFFF" stroke-width="6" stroke-miterlimit="10" x1="1272.822" y1="830.261" x2="993.041" y2="1314.771"/>
		
			<line fill="none" stroke="#FFFFFF" stroke-width="6" stroke-miterlimit="10" x1="899.324" y1="508.447" x2="993.102" y2="346.06"/>
		
			<line fill="none" stroke="#FFFFFF" stroke-width="6" stroke-miterlimit="10" x1="433.705" y1="1314.722" x2="526.96" y2="1153.239"/>
		
			<line fill="none" stroke="#FFFFFF" stroke-width="6" stroke-miterlimit="10" x1="1552.448" y1="668.965" x2="993.083" y2="1637.583"/>
		
			<line fill="none" stroke="#FFFFFF" stroke-width="6" stroke-miterlimit="10" x1="1272.757" y1="507.5" x2="1179.706" y2="668.623"/>
		
			<line fill="none" stroke="#FFFFFF" stroke-width="6" stroke-miterlimit="10" x1="806.707" y1="1314.491" x2="713.36" y2="1476.126"/>
		
			<line fill="none" stroke="#FFFFFF" stroke-width="6" stroke-miterlimit="10" x1="1319.3" y1="1072.532" x2="1412.588" y2="1234.091"/>
		
			<line fill="none" stroke="#FFFFFF" stroke-width="6" stroke-miterlimit="10" x1="993.057" y1="507.463" x2="1086.612" y2="669.486"/>
		
			<line fill="none" stroke="#FFFFFF" stroke-width="6" stroke-miterlimit="10" x1="713.361" y1="830.251" x2="993.089" y2="1314.743"/>
		
			<line fill="none" stroke="#FFFFFF" stroke-width="6" stroke-miterlimit="10" x1="1040.774" y1="1235.868" x2="1132.914" y2="1395.444"/>
		
			<line fill="none" stroke="#FFFFFF" stroke-width="6" stroke-miterlimit="10" x1="713.443" y1="668.914" x2="806.707" y2="830.44"/>
		
			<line fill="none" stroke="#FFFFFF" stroke-width="6" stroke-miterlimit="10" x1="1272.709" y1="668.94" x2="1412.589" y2="911.217"/>
		
			<line fill="none" stroke="#FFFFFF" stroke-width="6" stroke-miterlimit="10" x1="1179.431" y1="1314.522" x2="1272.779" y2="1476.161"/>
		
			<line fill="none" stroke="#FFFFFF" stroke-width="6" stroke-miterlimit="10" x1="713.376" y1="507.511" x2="806.874" y2="669.409"/>
		
			<line fill="none" stroke="#FFFFFF" stroke-width="6" stroke-miterlimit="10" x1="1459.218" y1="1153.239" x2="1552.461" y2="1314.71"/>
		
			<line fill="none" stroke="#FFFFFF" stroke-width="6" stroke-miterlimit="10" x1="993.102" y1="346.06" x2="1086.875" y2="508.447"/>
		
			<line fill="none" stroke="#FFFFFF" stroke-width="6" stroke-miterlimit="10" x1="993.083" y1="1637.583" x2="433.725" y2="668.935"/>
		
			<line fill="none" stroke="#FFFFFF" stroke-width="6" stroke-miterlimit="10" x1="899.324" y1="831.852" x2="993.374" y2="669.121"/>
		
			<line fill="none" stroke="#FFFFFF" stroke-width="6" stroke-miterlimit="10" x1="713.484" y1="1153.399" x2="806.874" y2="991.813"/>
		
			<line fill="none" stroke="#FFFFFF" stroke-width="6" stroke-miterlimit="10" x1="1179.706" y1="991.813" x2="1273.014" y2="1153.403"/>
		
			<line fill="none" stroke="#FFFFFF" stroke-width="6" stroke-miterlimit="10" x1="993.374" y1="669.121" x2="1086.875" y2="831.047"/>
		
			<line fill="none" stroke="#FFFFFF" stroke-width="6" stroke-miterlimit="10" x1="993.783" y1="830.251" x2="853.779" y2="1072.542"/>
		
			<line fill="none" stroke="#FFFFFF" stroke-width="6" stroke-miterlimit="10" x1="993.783" y1="830.251" x2="1133.787" y2="1072.532"/>
		
			<line fill="none" stroke="#FFFFFF" stroke-width="6" stroke-miterlimit="10" x1="1412.588" y1="1234.091" x2="1225.069" y2="1234.091"/>
		
			<line fill="none" stroke="#FFFFFF" stroke-width="6" stroke-miterlimit="10" x1="573.627" y1="1234.097" x2="760.179" y2="1234.097"/>
		<circle fill="none" stroke="#FFFFFF" stroke-width="6" stroke-miterlimit="10" cx="992.126" cy="992.126" r="726.798"/>
	</g>
</g>
<g id="hexagon">
	<polygon fill="none" stroke="#ECDB7A" stroke-width="6" stroke-miterlimit="10" points="151.141,506.58 992.121,21.034 
		1833.111,506.58 1833.111,1477.672 992.121,1963.218 151.141,1477.672 	"/>
</g>
</svg>
