<?xml version="1.0" encoding="utf-8"?>
<!-- Generator: Adobe Illustrator 16.0.0, SVG Export Plug-In . SVG Version: 6.00 Build 0)  -->
<!DOCTYPE svg PUBLIC "-//W3C//DTD SVG 1.1//EN" "http://www.w3.org/Graphics/SVG/1.1/DTD/svg11.dtd">
<svg version="1.1" id="Layer_1" xmlns="http://www.w3.org/2000/svg" xmlns:xlink="http://www.w3.org/1999/xlink" x="0px" y="0px"
	 width="1984.252px" height="1984.252px" viewBox="0 0 1984.252 1984.252" enable-background="new 0 0 1984.252 1984.252"
	 xml:space="preserve">
	 
	 <style>

		#hexagon, #Fruit, #sixtyFour {

			cursor: pointer;
			transition: 0.3s;

		}

	</style>


<g id="Tetra3DFullGroup">
	<g id="back" display="none">
		<rect id="image" y="-13.988" display="inline" fill="#130E22" width="1984.252" height="2012.229"/>
	</g>
	<g id="Fruit" stroke-width="2">
		<g>
			<path fill="none" stroke="#FFFFFF" d="M1153.48,992.146c0,89.16-72.297,161.414-161.388,161.414
				c-89.201,0-161.497-72.252-161.497-161.414c0-89.219,72.296-161.471,161.497-161.471
				C1081.186,830.677,1153.48,902.929,1153.48,992.146z"/>
			<path fill="none" stroke="#FFFFFF" d="M1153.48,669.265c0,89.16-72.297,161.414-161.388,161.414
				c-89.201,0-161.497-72.254-161.497-161.414c0-89.218,72.296-161.47,161.497-161.47
				C1081.186,507.795,1153.48,580.047,1153.48,669.265z"/>
			<path fill="none" stroke="#FFFFFF" d="M873.821,830.704c0,89.16-72.294,161.414-161.388,161.414
				c-89.199,0-161.497-72.254-161.497-161.414c0-89.218,72.298-161.47,161.497-161.47
				C801.527,669.234,873.821,741.486,873.821,830.704z"/>
			<path fill="none" stroke="#FFFFFF" d="M873.824,1153.575c0,89.162-72.294,161.414-161.387,161.414
				c-89.2,0-161.496-72.252-161.496-161.414c0-89.218,72.296-161.47,161.496-161.47
				C801.529,992.106,873.824,1064.358,873.824,1153.575z"/>
			<path fill="none" stroke="#FFFFFF" d="M1153.48,1315.03c0,89.16-72.296,161.412-161.387,161.412
				c-89.202,0-161.497-72.252-161.497-161.412c0-89.22,72.295-161.473,161.497-161.473
				C1081.188,1153.561,1153.48,1225.813,1153.48,1315.03z"/>
			<path fill="none" stroke="#FFFFFF" d="M1433.191,1153.589c0,89.162-72.295,161.414-161.388,161.414
				c-89.2,0-161.495-72.252-161.495-161.414c0-89.219,72.296-161.471,161.495-161.471
				C1360.896,992.118,1433.191,1064.37,1433.191,1153.589z"/>
			<path fill="none" stroke="#FFFFFF" d="M1433.18,830.704c0,89.161-72.294,161.414-161.386,161.414
				c-89.201,0-161.497-72.253-161.497-161.414c0-89.218,72.296-161.469,161.497-161.469
				C1360.886,669.235,1433.18,741.486,1433.18,830.704z"/>
			<path fill="none" stroke="#FFFFFF" d="M1153.585,346.383c0,89.161-72.295,161.414-161.386,161.414
				c-89.201,0-161.497-72.253-161.497-161.414c0-89.219,72.295-161.47,161.497-161.47
				C1081.29,184.913,1153.585,257.164,1153.585,346.383z"/>
			<path fill="none" stroke="#FFFFFF" d="M594.202,669.276c0,89.161-72.294,161.414-161.386,161.414
				c-89.201,0-161.499-72.253-161.499-161.414c0-89.22,72.296-161.471,161.499-161.471
				C521.907,507.808,594.202,580.059,594.202,669.276z"/>
			<path fill="none" stroke="#FFFFFF" d="M594.19,1315.042c0,89.164-72.294,161.416-161.388,161.416
				c-89.199,0-161.497-72.252-161.497-161.416c0-89.217,72.294-161.467,161.497-161.467
				C521.896,1153.575,594.19,1225.825,594.19,1315.042z"/>
			<path fill="none" stroke="#FFFFFF" d="M1712.944,1315.032c0,89.162-72.296,161.414-161.388,161.414
				c-89.199,0-161.496-72.252-161.496-161.414c0-89.22,72.297-161.47,161.496-161.47
				C1640.649,1153.563,1712.944,1225.813,1712.944,1315.032z"/>
			<path fill="none" stroke="#FFFFFF" d="M1712.934,669.287c0,89.162-72.295,161.414-161.386,161.414
				c-89.202,0-161.497-72.252-161.497-161.414c0-89.218,72.295-161.469,161.497-161.469
				C1640.639,507.818,1712.934,580.069,1712.934,669.287z"/>
			<path fill="none" stroke="#FFFFFF" d="M1153.567,1637.923c0,89.162-72.296,161.416-161.389,161.416
				c-89.2,0-161.497-72.254-161.497-161.416c0-89.217,72.297-161.467,161.497-161.467
				C1081.271,1476.456,1153.567,1548.706,1153.567,1637.923z"/>
		</g>
	</g>
	<g id="sixtyFour" stroke-width="6">
		<g>
			<line fill="none" stroke="#FFFFFF" x1="993.102" y1="346.06" x2="993.083" y2="992.126"/>
			<line fill="none" stroke="#FFFFFF" x1="992.126" y1="992.392" x2="433.705" y2="1314.722"/>
			<line fill="none" stroke="#FFFFFF" x1="993.62" y1="992.126" x2="1552.461" y2="1314.71"/>
			<line fill="none" stroke="#FFFFFF" x1="1272.854" y1="830.433" x2="1552.494" y2="991.837"/>
			<line fill="none" stroke="#FFFFFF" x1="992.758" y1="1314.878" x2="713.36" y2="1476.126"/>
			<line fill="none" stroke="#FFFFFF" x1="713.366" y1="830.382" x2="713.371" y2="507.511"/>
			<line fill="none" stroke="#FFFFFF" x1="1272.765" y1="507.5" x2="1272.771" y2="830.409"/>
			<line fill="none" stroke="#FFFFFF" x1="1272.779" y1="1476.161" x2="992.988" y2="1314.655"/>
			<line fill="none" stroke="#FFFFFF" x1="433.74" y1="991.837" x2="712.087" y2="831.157"/>
			<line fill="none" stroke="#FFFFFF" x1="527.035" y1="830.251" x2="433.74" y2="991.837"/>
			<line fill="none" stroke="#FFFFFF" x1="713.376" y1="507.511" x2="620.067" y2="669.121"/>
			<line fill="none" stroke="#FFFFFF" x1="433.74" y1="991.837" x2="713.36" y2="1476.126"/>
			<line fill="none" stroke="#FFFFFF" x1="1086.005" y1="1476.138" x2="1272.779" y2="1476.149"/>
			<line fill="none" stroke="#FFFFFF" x1="713.36" y1="1476.138" x2="899.942" y2="1476.149"/>
			<line fill="none" stroke="#FFFFFF" x1="1272.779" y1="1476.161" x2="1552.494" y2="991.837"/>
			<line fill="none" stroke="#FFFFFF" x1="1552.494" y1="991.837" x2="1458.968" y2="829.905"/>
			<line fill="none" stroke="#FFFFFF" x1="1366.599" y1="669.979" x2="1272.757" y2="507.5"/>
			<line fill="none" stroke="#FFFFFF" x1="1272.757" y1="507.5" x2="713.376" y2="507.511"/>
			<line fill="none" stroke="#FFFFFF" x1="1365.475" y1="1314.716" x2="1552.461" y2="1314.714"/>
			<line fill="none" stroke="#FFFFFF" x1="433.705" y1="1314.716" x2="620.708" y2="1314.714"/>
			<line fill="none" stroke="#FFFFFF" x1="1552.448" y1="668.965" x2="433.725" y2="668.935"/>
			<line fill="none" stroke="#FFFFFF" x1="1365.943" y1="991.837" x2="1552.494" y2="991.837"/>
			<line fill="none" stroke="#FFFFFF" x1="433.74" y1="991.837" x2="619.992" y2="991.837"/>
			<line fill="none" stroke="#FFFFFF" x1="1273.014" y1="830.372" x2="713.134" y2="830.382"/>
			<line fill="none" stroke="#FFFFFF" x1="1412.579" y1="911.106" x2="1226.789" y2="911.108"/>
			<line fill="none" stroke="#FFFFFF" x1="760.169" y1="911.106" x2="573.577" y2="911.108"/>
			<line fill="none" stroke="#FFFFFF" x1="1133.787" y1="1072.532" x2="853.779" y2="1072.542"/>
			<line fill="none" stroke="#FFFFFF" x1="1273.034" y1="1153.311" x2="1086.005" y2="1153.239"/>
			<line fill="none" stroke="#FFFFFF" x1="899.942" y1="1153.282" x2="712.916" y2="1153.267"/>
			<line fill="none" stroke="#FFFFFF" x1="1132.922" y1="1395.439" x2="853.164" y2="1395.439"/>
			<line fill="none" stroke="#FFFFFF" x1="573.644" y1="911.146" x2="713.48" y2="668.939"/>
			<line fill="none" stroke="#FFFFFF" x1="666.357" y1="1073.466" x2="573.627" y2="1234.097"/>
			<line fill="none" stroke="#FFFFFF" x1="992.566" y1="508.454" x2="899.321" y2="669.979"/>
			<line fill="none" stroke="#FFFFFF" x1="1272.735" y1="668.891" x2="1179.489" y2="830.403"/>
			<line fill="none" stroke="#FFFFFF" x1="946.627" y1="1233.729" x2="853.216" y2="1395.526"/>
			<line fill="none" stroke="#FFFFFF" x1="1272.822" y1="830.261" x2="993.041" y2="1314.771"/>
			<line fill="none" stroke="#FFFFFF" x1="899.324" y1="508.447" x2="993.102" y2="346.06"/>
			<line fill="none" stroke="#FFFFFF" x1="433.705" y1="1314.722" x2="526.96" y2="1153.239"/>
			<line fill="none" stroke="#FFFFFF" x1="1552.448" y1="668.965" x2="993.083" y2="1637.583"/>
			<line fill="none" stroke="#FFFFFF" x1="1272.757" y1="507.5" x2="1179.706" y2="668.623"/>
			<line fill="none" stroke="#FFFFFF" x1="806.707" y1="1314.491" x2="713.36" y2="1476.126"/>
			<line fill="none" stroke="#FFFFFF" x1="1319.3" y1="1072.532" x2="1412.588" y2="1234.091"/>
			<line fill="none" stroke="#FFFFFF" x1="993.057" y1="507.463" x2="1086.612" y2="669.486"/>
			<line fill="none" stroke="#FFFFFF" x1="713.361" y1="830.251" x2="993.089" y2="1314.743"/>
			<line fill="none" stroke="#FFFFFF" x1="1040.774" y1="1235.868" x2="1132.914" y2="1395.444"/>
			<line fill="none" stroke="#FFFFFF" x1="713.443" y1="668.914" x2="806.707" y2="830.44"/>
			<line fill="none" stroke="#FFFFFF" x1="1272.709" y1="668.94" x2="1412.589" y2="911.217"/>
			<line fill="none" stroke="#FFFFFF" x1="1179.431" y1="1314.521" x2="1272.779" y2="1476.161"/>
			<line fill="none" stroke="#FFFFFF" x1="713.376" y1="507.511" x2="806.874" y2="669.409"/>
			<line fill="none" stroke="#FFFFFF" x1="1459.218" y1="1153.239" x2="1552.461" y2="1314.71"/>
			<line fill="none" stroke="#FFFFFF" x1="993.102" y1="346.06" x2="1086.875" y2="508.447"/>
			<line fill="none" stroke="#FFFFFF" x1="993.083" y1="1637.583" x2="433.725" y2="668.935"/>
			<line fill="none" stroke="#FFFFFF" x1="899.324" y1="831.852" x2="993.374" y2="669.121"/>
			<line fill="none" stroke="#FFFFFF" x1="713.484" y1="1153.399" x2="806.874" y2="991.813"/>
			<line fill="none" stroke="#FFFFFF" x1="1179.706" y1="991.813" x2="1273.014" y2="1153.403"/>
			<line fill="none" stroke="#FFFFFF" x1="993.374" y1="669.121" x2="1086.875" y2="831.047"/>
			<line fill="none" stroke="#FFFFFF" x1="993.783" y1="830.251" x2="853.779" y2="1072.542"/>
			<line fill="none" stroke="#FFFFFF" x1="993.783" y1="830.251" x2="1133.787" y2="1072.532"/>
			<line fill="none" stroke="#FFFFFF" x1="1412.588" y1="1234.091" x2="1225.069" y2="1234.091"/>
			<line fill="none" stroke="#FFFFFF" x1="573.627" y1="1234.097" x2="760.179" y2="1234.097"/>
			<circle fill="none" stroke="#FFFFFF" cx="992.126" cy="992.126" r="726.798"/>
		</g>
	</g>
	<g id="hexagon" stroke-width="6">
		<polygon fill="#FFFFFF" fill-opacity="0" stroke="#ECDB7A" stroke-miterlimit="10" points="151.141,506.58 
			992.121,21.034 1833.111,506.58 1833.111,1477.672 992.121,1963.218 151.141,1477.672 		"/>
	</g>
</g>
</svg>
