<?xml version="1.0" encoding="utf-8"?>
<!-- Generator: Adobe Illustrator 16.0.0, SVG Export Plug-In . SVG Version: 6.00 Build 0)  -->
<!DOCTYPE svg PUBLIC "-//W3C//DTD SVG 1.1//EN" "http://www.w3.org/Graphics/SVG/1.1/DTD/svg11.dtd">
<svg version="1.1" id="Layer_1" xmlns="http://www.w3.org/2000/svg" xmlns:xlink="http://www.w3.org/1999/xlink" x="0px" y="0px"
	 width="1687.375px" height="1984.252px" viewBox="-10.229 0 1687.375 1984.252"
	 enable-background="new -10.229 0 1687.375 1984.252" xml:space="preserve">
<g id="Tetra3DFullGroup">
	<g id="back">
		<rect id="image" x="-211.479" y="-13.988" display="none" fill="#130E22" width="1984" height="1998.24"/>
	</g>
	<g id="fruit" stroke-width="8">
		<g>
			<path fill="none" stroke="#FFFFFF" d="M994.99,992.146c0,89.157-72.299,161.414-161.391,161.414
				c-89.201,0-161.497-72.252-161.497-161.414c0-89.222,72.295-161.474,161.497-161.474
				C922.695,830.676,994.99,902.928,994.99,992.146z"/>
			<path fill="none" stroke="#FFFFFF" d="M994.99,669.264c0,89.16-72.299,161.414-161.391,161.414
				c-89.201,0-161.497-72.254-161.497-161.414c0-89.218,72.295-161.47,161.497-161.47
				C922.695,507.794,994.99,580.046,994.99,669.264z"/>
			<path fill="none" stroke="#FFFFFF" d="M715.332,830.703c0,89.16-72.294,161.414-161.391,161.414
				c-89.196,0-161.497-72.254-161.497-161.414c0-89.218,72.301-161.47,161.497-161.47
				C643.037,669.233,715.332,741.485,715.332,830.703z"/>
			<path fill="none" stroke="#FFFFFF" d="M715.333,1153.574c0,89.162-72.293,161.414-161.386,161.414
				c-89.2,0-161.496-72.252-161.496-161.414c0-89.218,72.296-161.47,161.496-161.47
				C643.039,992.105,715.333,1064.357,715.333,1153.574z"/>
			<path fill="none" stroke="#FFFFFF" d="M994.99,1315.029c0,89.16-72.299,161.412-161.389,161.412
				c-89.203,0-161.498-72.252-161.498-161.412c0-89.22,72.294-161.476,161.498-161.476
				C922.697,1153.56,994.99,1225.812,994.99,1315.029z"/>
			<path fill="none" stroke="#FFFFFF" d="M1274.701,1153.588c0,89.162-72.295,161.414-161.391,161.414
				c-89.197,0-161.494-72.252-161.494-161.414c0-89.219,72.297-161.471,161.494-161.471
				C1202.406,992.117,1274.701,1064.369,1274.701,1153.588z"/>
			<path fill="none" stroke="#FFFFFF" d="M1274.689,830.703c0,89.161-72.293,161.414-161.385,161.414
				c-89.201,0-161.498-72.253-161.498-161.414c0-89.218,72.297-161.469,161.498-161.469
				C1202.396,669.234,1274.689,741.485,1274.689,830.703z"/>
			<path fill="none" stroke="#FFFFFF" d="M995.095,346.382c0,89.161-72.295,161.414-161.387,161.414
				c-89.201,0-161.497-72.253-161.497-161.414c0-89.219,72.295-161.47,161.497-161.47
				C922.8,184.912,995.095,257.163,995.095,346.382z"/>
			<path fill="none" stroke="#FFFFFF" d="M435.712,669.275c0,89.161-72.294,161.414-161.386,161.414
				c-89.201,0-161.5-72.253-161.5-161.414c0-89.223,72.296-161.474,161.5-161.474C363.417,507.807,435.712,580.058,435.712,669.275z
				"/>
			<path fill="none" stroke="#FFFFFF" d="M435.7,1315.041c0,89.164-72.294,161.416-161.391,161.416
				c-89.199,0-161.497-72.252-161.497-161.416c0-89.217,72.292-161.467,161.497-161.467
				C363.406,1153.574,435.7,1225.824,435.7,1315.041z"/>
			<path fill="none" stroke="#FFFFFF" d="M1554.455,1315.031c0,89.162-72.297,161.414-161.391,161.414
				c-89.197,0-161.496-72.252-161.496-161.414c0-89.22,72.299-161.47,161.496-161.47
				C1482.16,1153.562,1554.455,1225.812,1554.455,1315.031z"/>
			<path fill="none" stroke="#FFFFFF" d="M1554.443,669.286c0,89.162-72.295,161.414-161.385,161.414
				c-89.203,0-161.498-72.252-161.498-161.414c0-89.218,72.295-161.469,161.498-161.469
				C1482.148,507.817,1554.443,580.068,1554.443,669.286z"/>
			<path fill="none" stroke="#FFFFFF"  d="M995.078,1637.922c0,89.162-72.297,161.416-161.393,161.416
				c-89.199,0-161.497-72.254-161.497-161.416c0-89.217,72.297-161.467,161.497-161.467
				C922.781,1476.455,995.078,1548.705,995.078,1637.922z"/>
		</g>
	</g>
	<g id="sixtyFour" stroke-width="8">
		<g>
			<line fill="none" stroke="#FFFFFF" x1="834.611" y1="346.06" x2="834.593" y2="992.125"/>
			<line fill="none" stroke="#FFFFFF" x1="833.636" y1="992.391" x2="275.215" y2="1314.721"/>
			<line fill="none" stroke="#FFFFFF" x1="835.13" y1="992.125" x2="1393.97" y2="1314.709"/>
			<line fill="none" stroke="#FFFFFF" x1="1114.363" y1="830.432" x2="1394.003" y2="991.836"/>
			<line fill="none" stroke="#FFFFFF" x1="834.267" y1="1314.877" x2="554.87" y2="1476.125"/>
			<line fill="none" stroke="#FFFFFF" x1="554.876" y1="830.381" x2="554.881" y2="507.51"/>
			<line fill="none" stroke="#FFFFFF" x1="1114.275" y1="507.499" x2="1114.281" y2="830.408"/>
			<line fill="none" stroke="#FFFFFF" x1="1114.289" y1="1476.16" x2="834.498" y2="1314.654"/>
			<line fill="none" stroke="#FFFFFF" x1="275.25" y1="991.836" x2="553.597" y2="831.156"/>
			<line fill="none" stroke="#FFFFFF" x1="368.545" y1="830.25" x2="275.25" y2="991.836"/>
			<line fill="none" stroke="#FFFFFF" x1="554.886" y1="507.51" x2="461.577" y2="669.12"/>
			<line fill="none" stroke="#FFFFFF" x1="275.25" y1="991.836" x2="554.87" y2="1476.125"/>
			<line fill="none" stroke="#FFFFFF" x1="927.515" y1="1476.137" x2="1114.289" y2="1476.148"/>
			<line fill="none" stroke="#FFFFFF" x1="554.87" y1="1476.137" x2="741.453" y2="1476.148"/>
			<line fill="none" stroke="#FFFFFF" x1="1114.289" y1="1476.16" x2="1394.003" y2="991.836"/>
			<line fill="none" stroke="#FFFFFF" x1="1394.003" y1="991.836" x2="1300.478" y2="829.904"/>
			<line fill="none" stroke="#FFFFFF" x1="1208.109" y1="669.978" x2="1114.267" y2="507.499"/>
			<line fill="none" stroke="#FFFFFF" x1="1114.267" y1="507.499" x2="554.886" y2="507.51"/>
			<line fill="none" stroke="#FFFFFF" x1="1206.984" y1="1314.715" x2="1393.97" y2="1314.713"/>
			<line fill="none" stroke="#FFFFFF" x1="275.215" y1="1314.715" x2="462.218" y2="1314.713"/>
			<line fill="none" stroke="#FFFFFF" x1="1393.958" y1="668.964" x2="275.234" y2="668.934"/>
			<line fill="none" stroke="#FFFFFF" x1="1207.453" y1="991.836" x2="1394.003" y2="991.836"/>
			<line fill="none" stroke="#FFFFFF" x1="275.25" y1="991.836" x2="461.502" y2="991.836"/>
			<line fill="none" stroke="#FFFFFF" x1="1114.523" y1="830.371" x2="554.644" y2="830.381"/>
			<line fill="none" stroke="#FFFFFF" x1="1254.089" y1="911.105" x2="1068.298" y2="911.107"/>
			<line fill="none" stroke="#FFFFFF" x1="601.679" y1="911.105" x2="415.087" y2="911.107"/>
			<line fill="none" stroke="#FFFFFF" x1="975.296" y1="1072.531" x2="695.289" y2="1072.541"/>
			<line fill="none" stroke="#FFFFFF" x1="1114.544" y1="1153.31" x2="927.515" y2="1153.238"/>
			<line fill="none" stroke="#FFFFFF" x1="741.453" y1="1153.281" x2="554.426" y2="1153.266"/>
			<line fill="none" stroke="#FFFFFF" x1="974.431" y1="1395.438" x2="694.673" y2="1395.438"/>
			<line fill="none" stroke="#FFFFFF" x1="415.153" y1="911.146" x2="554.99" y2="668.938"/>
			<line fill="none" stroke="#FFFFFF" x1="507.867" y1="1073.465" x2="415.137" y2="1234.096"/>
			<line fill="none" stroke="#FFFFFF" x1="834.076" y1="508.453" x2="740.832" y2="669.978"/>
			<line fill="none" stroke="#FFFFFF" x1="1114.246" y1="668.89" x2="1021" y2="830.402"/>
			<line fill="none" stroke="#FFFFFF" x1="788.136" y1="1233.728" x2="694.726" y2="1395.525"/>
			<line fill="none" stroke="#FFFFFF" x1="1114.332" y1="830.26" x2="834.55" y2="1314.771"/>
			<line fill="none" stroke="#FFFFFF" x1="740.833" y1="508.446" x2="834.611" y2="346.06"/>
			<line fill="none" stroke="#FFFFFF" x1="275.215" y1="1314.721" x2="368.47" y2="1153.238"/>
			<line fill="none" stroke="#FFFFFF" x1="1393.958" y1="668.964" x2="834.593" y2="1637.582"/>
			<line fill="none" stroke="#FFFFFF" x1="1114.267" y1="507.499" x2="1021.216" y2="668.622"/>
			<line fill="none" stroke="#FFFFFF" x1="648.217" y1="1314.49" x2="554.87" y2="1476.125"/>
			<line fill="none" stroke="#FFFFFF" x1="1160.81" y1="1072.531" x2="1254.097" y2="1234.09"/>
			<line fill="none" stroke="#FFFFFF" x1="834.566" y1="507.462" x2="928.123" y2="669.485"/>
			<line fill="none" stroke="#FFFFFF" x1="554.871" y1="830.25" x2="834.599" y2="1314.742"/>
			<line fill="none" stroke="#FFFFFF" x1="882.285" y1="1235.867" x2="974.423" y2="1395.443"/>
			<line fill="none" stroke="#FFFFFF" x1="554.953" y1="668.913" x2="648.217" y2="830.439"/>
			<line fill="none" stroke="#FFFFFF" x1="1114.218" y1="668.939" x2="1254.099" y2="911.216"/>
			<line fill="none" stroke="#FFFFFF" x1="1020.941" y1="1314.521" x2="1114.289" y2="1476.16"/>
			<line fill="none" stroke="#FFFFFF" x1="554.886" y1="507.51" x2="648.384" y2="669.408"/>
			<line fill="none" stroke="#FFFFFF" x1="1300.728" y1="1153.238" x2="1393.97" y2="1314.709"/>
			<line fill="none" stroke="#FFFFFF" x1="834.611" y1="346.06" x2="928.384" y2="508.446"/>
			<line fill="none" stroke="#FFFFFF" x1="834.593" y1="1637.582" x2="275.234" y2="668.934"/>
			<line fill="none" stroke="#FFFFFF" x1="740.833" y1="831.851" x2="834.884" y2="669.12"/>
			<line fill="none" stroke="#FFFFFF" x1="554.994" y1="1153.398" x2="648.384" y2="991.812"/>
			<line fill="none" stroke="#FFFFFF" x1="1021.216" y1="991.812" x2="1114.523" y2="1153.402"/>
			<line fill="none" stroke="#FFFFFF" x1="834.884" y1="669.12" x2="928.384" y2="831.046"/>
			<line fill="none" stroke="#FFFFFF" x1="835.292" y1="830.25" x2="695.289" y2="1072.541"/>
			<line fill="none" stroke="#FFFFFF" x1="835.292" y1="830.25" x2="975.296" y2="1072.531"/>
			<line fill="none" stroke="#FFFFFF" x1="415.137" y1="1234.096" x2="601.688" y2="1234.096"/>
			<circle fill="none" stroke="#FFFFFF" cx="833.636" cy="992.125" r="726.798"/>
		</g>
	</g>
	<g id="hexagon" stroke-width="8">
		<polygon fill="#FFFFFF" fill-opacity="0" stroke="#FFE86D" stroke-miterlimit="10" points="-7.349,506.579 
			833.63,21.033 1674.621,506.579 1674.621,1477.671 833.63,1963.217 -7.349,1477.671 		"/>
	</g>
</g>
</svg>
