<?xml version="1.0" encoding="utf-8"?>
<!-- Generator: Adobe Illustrator 16.0.0, SVG Export Plug-In . SVG Version: 6.00 Build 0)  -->
<!DOCTYPE svg PUBLIC "-//W3C//DTD SVG 1.1//EN" "http://www.w3.org/Graphics/SVG/1.1/DTD/svg11.dtd">
<svg version="1.1" id="Layer_1" xmlns="http://www.w3.org/2000/svg" xmlns:xlink="http://www.w3.org/1999/xlink" x="0px" y="0px"
	 width="7200px" height="4542.267px" viewBox="-90.551 -13.988 7200 4542.267"
	 enable-background="new -90.551 -13.988 7200 4542.267" xml:space="preserve">
<g id="back">
	<rect id="image" x="-90.551" y="-13.988" fill="#130E22" width="7200" height="4542.268"/>
</g>
<g id="Layer_1_1_">
	<g id="Tetra3DFullGroup">
		<g id="fruit">
			<g>
				<path fill="none" stroke="#FFFFFF" stroke-width="2" d="M1153.48,992.146c0,89.157-72.3,161.414-161.391,161.414
					c-89.201,0-161.497-72.252-161.497-161.414c0-89.222,72.296-161.474,161.497-161.474
					C1081.186,830.677,1153.48,902.929,1153.48,992.146z"/>
				<path fill="none" stroke="#FFFFFF" stroke-width="2" d="M1153.48,669.265c0,89.16-72.3,161.414-161.391,161.414
					c-89.201,0-161.497-72.254-161.497-161.414c0-89.218,72.296-161.47,161.497-161.47
					C1081.186,507.795,1153.48,580.047,1153.48,669.265z"/>
				<path fill="none" stroke="#FFFFFF" stroke-width="2" d="M873.821,830.704c0,89.16-72.294,161.414-161.391,161.414
					c-89.196,0-161.497-72.254-161.497-161.414c0-89.218,72.301-161.47,161.497-161.47
					C801.527,669.234,873.821,741.486,873.821,830.704z"/>
				<path fill="none" stroke="#FFFFFF" stroke-width="2" d="M873.824,1153.575c0,89.162-72.294,161.414-161.387,161.414
					c-89.2,0-161.496-72.252-161.496-161.414c0-89.218,72.296-161.47,161.496-161.47
					C801.529,992.106,873.824,1064.358,873.824,1153.575z"/>
				<path fill="none" stroke="#FFFFFF" stroke-width="2" d="M1153.48,1315.03c0,89.16-72.299,161.412-161.39,161.412
					c-89.202,0-161.497-72.252-161.497-161.412c0-89.22,72.295-161.476,161.497-161.476
					C1081.188,1153.561,1153.48,1225.813,1153.48,1315.03z"/>
				<path fill="none" stroke="#FFFFFF" stroke-width="2" d="M1433.191,1153.589c0,89.162-72.295,161.414-161.391,161.414
					c-89.197,0-161.495-72.252-161.495-161.414c0-89.219,72.298-161.471,161.495-161.471
					C1360.896,992.118,1433.191,1064.37,1433.191,1153.589z"/>
				<path fill="none" stroke="#FFFFFF" stroke-width="2" d="M1433.18,830.704c0,89.161-72.294,161.414-161.386,161.414
					c-89.201,0-161.497-72.253-161.497-161.414c0-89.218,72.296-161.469,161.497-161.469
					C1360.886,669.235,1433.18,741.486,1433.18,830.704z"/>
				<path fill="none" stroke="#FFFFFF" stroke-width="2" d="M1153.585,346.383c0,89.161-72.295,161.414-161.386,161.414
					c-89.201,0-161.497-72.253-161.497-161.414c0-89.219,72.295-161.47,161.497-161.47
					C1081.29,184.913,1153.585,257.164,1153.585,346.383z"/>
				<path fill="none" stroke="#FFFFFF" stroke-width="2" d="M594.202,669.276c0,89.161-72.294,161.414-161.386,161.414
					c-89.201,0-161.5-72.253-161.5-161.414c0-89.223,72.296-161.474,161.5-161.474C521.907,507.808,594.202,580.059,594.202,669.276
					z"/>
				<path fill="none" stroke="#FFFFFF" stroke-width="2" d="M594.19,1315.042c0,89.164-72.294,161.416-161.391,161.416
					c-89.199,0-161.497-72.252-161.497-161.416c0-89.217,72.292-161.467,161.497-161.467
					C521.896,1153.575,594.19,1225.825,594.19,1315.042z"/>
				<path fill="none" stroke="#FFFFFF" stroke-width="2" d="M1712.944,1315.032c0,89.162-72.296,161.414-161.391,161.414
					c-89.196,0-161.496-72.252-161.496-161.414c0-89.22,72.3-161.47,161.496-161.47
					C1640.649,1153.563,1712.944,1225.813,1712.944,1315.032z"/>
				<path fill="none" stroke="#FFFFFF" stroke-width="2" d="M1712.934,669.287c0,89.162-72.295,161.414-161.386,161.414
					c-89.202,0-161.497-72.252-161.497-161.414c0-89.218,72.295-161.469,161.497-161.469
					C1640.639,507.818,1712.934,580.069,1712.934,669.287z"/>
				<path fill="none" stroke="#FFFFFF" stroke-width="2" d="M1153.567,1637.923c0,89.162-72.296,161.416-161.392,161.416
					c-89.2,0-161.497-72.254-161.497-161.416c0-89.217,72.297-161.467,161.497-161.467
					C1081.271,1476.456,1153.567,1548.706,1153.567,1637.923z"/>
			</g>
		</g>
		<g id="sixtyFour">
			<g>
				<line fill="none" stroke="#FFFFFF" stroke-width="6" x1="993.102" y1="346.06" x2="993.083" y2="992.126"/>
				<line fill="none" stroke="#FFFFFF" stroke-width="6" x1="992.126" y1="992.392" x2="433.705" y2="1314.722"/>
				<line fill="none" stroke="#FFFFFF" stroke-width="6" x1="993.62" y1="992.126" x2="1552.461" y2="1314.71"/>
				<line fill="none" stroke="#FFFFFF" stroke-width="6" x1="1272.854" y1="830.433" x2="1552.494" y2="991.837"/>
				<line fill="none" stroke="#FFFFFF" stroke-width="6" x1="992.758" y1="1314.878" x2="713.36" y2="1476.126"/>
				<line fill="none" stroke="#FFFFFF" stroke-width="6" x1="713.366" y1="830.382" x2="713.371" y2="507.511"/>
				<line fill="none" stroke="#FFFFFF" stroke-width="6" x1="1272.765" y1="507.5" x2="1272.771" y2="830.409"/>
				<line fill="none" stroke="#FFFFFF" stroke-width="6" x1="1272.779" y1="1476.161" x2="992.988" y2="1314.655"/>
				<line fill="none" stroke="#FFFFFF" stroke-width="6" x1="433.74" y1="991.837" x2="712.087" y2="831.157"/>
				<line fill="none" stroke="#FFFFFF" stroke-width="6" x1="527.035" y1="830.251" x2="433.74" y2="991.837"/>
				<line fill="none" stroke="#FFFFFF" stroke-width="6" x1="713.376" y1="507.511" x2="620.067" y2="669.121"/>
				<line fill="none" stroke="#FFFFFF" stroke-width="6" x1="433.74" y1="991.837" x2="713.36" y2="1476.126"/>
				<line fill="none" stroke="#FFFFFF" stroke-width="6" x1="1086.005" y1="1476.138" x2="1272.779" y2="1476.149"/>
				<line fill="none" stroke="#FFFFFF" stroke-width="6" x1="713.36" y1="1476.138" x2="899.942" y2="1476.149"/>
				<line fill="none" stroke="#FFFFFF" stroke-width="6" x1="1272.779" y1="1476.161" x2="1552.494" y2="991.837"/>
				<line fill="none" stroke="#FFFFFF" stroke-width="6" x1="1552.494" y1="991.837" x2="1458.968" y2="829.905"/>
				<line fill="none" stroke="#FFFFFF" stroke-width="6" x1="1366.599" y1="669.979" x2="1272.757" y2="507.5"/>
				<line fill="none" stroke="#FFFFFF" stroke-width="6" x1="1272.757" y1="507.5" x2="713.376" y2="507.511"/>
				<line fill="none" stroke="#FFFFFF" stroke-width="6" x1="1365.475" y1="1314.716" x2="1552.461" y2="1314.714"/>
				<line fill="none" stroke="#FFFFFF" stroke-width="6" x1="433.705" y1="1314.716" x2="620.708" y2="1314.714"/>
				<line fill="none" stroke="#FFFFFF" stroke-width="6" x1="1552.448" y1="668.965" x2="433.725" y2="668.935"/>
				<line fill="none" stroke="#FFFFFF" stroke-width="6" x1="1365.943" y1="991.837" x2="1552.494" y2="991.837"/>
				<line fill="none" stroke="#FFFFFF" stroke-width="6" x1="433.74" y1="991.837" x2="619.992" y2="991.837"/>
				<line fill="none" stroke="#FFFFFF" stroke-width="6" x1="1273.014" y1="830.372" x2="713.134" y2="830.382"/>
				<line fill="none" stroke="#FFFFFF" stroke-width="6" x1="1412.579" y1="911.106" x2="1226.789" y2="911.108"/>
				<line fill="none" stroke="#FFFFFF" stroke-width="6" x1="760.169" y1="911.106" x2="573.577" y2="911.108"/>
				<line fill="none" stroke="#FFFFFF" stroke-width="6" x1="1133.787" y1="1072.532" x2="853.779" y2="1072.542"/>
				<line fill="none" stroke="#FFFFFF" stroke-width="6" x1="1273.034" y1="1153.311" x2="1086.005" y2="1153.239"/>
				<line fill="none" stroke="#FFFFFF" stroke-width="6" x1="899.942" y1="1153.282" x2="712.916" y2="1153.267"/>
				<line fill="none" stroke="#FFFFFF" stroke-width="6" x1="1132.922" y1="1395.439" x2="853.164" y2="1395.439"/>
				<line fill="none" stroke="#FFFFFF" stroke-width="6" x1="573.644" y1="911.146" x2="713.48" y2="668.939"/>
				<line fill="none" stroke="#FFFFFF" stroke-width="6" x1="666.357" y1="1073.466" x2="573.627" y2="1234.097"/>
				<line fill="none" stroke="#FFFFFF" stroke-width="6" x1="992.566" y1="508.454" x2="899.321" y2="669.979"/>
				<line fill="none" stroke="#FFFFFF" stroke-width="6" x1="1272.735" y1="668.891" x2="1179.489" y2="830.403"/>
				<line fill="none" stroke="#FFFFFF" stroke-width="6" x1="946.627" y1="1233.729" x2="853.216" y2="1395.526"/>
				<line fill="none" stroke="#FFFFFF" stroke-width="6" x1="1272.822" y1="830.261" x2="993.041" y2="1314.771"/>
				<line fill="none" stroke="#FFFFFF" stroke-width="6" x1="899.324" y1="508.447" x2="993.102" y2="346.06"/>
				<line fill="none" stroke="#FFFFFF" stroke-width="6" x1="433.705" y1="1314.722" x2="526.96" y2="1153.239"/>
				<line fill="none" stroke="#FFFFFF" stroke-width="6" x1="1552.448" y1="668.965" x2="993.083" y2="1637.583"/>
				<line fill="none" stroke="#FFFFFF" stroke-width="6" x1="1272.757" y1="507.5" x2="1179.706" y2="668.623"/>
				<line fill="none" stroke="#FFFFFF" stroke-width="6" x1="806.707" y1="1314.491" x2="713.36" y2="1476.126"/>
				<line fill="none" stroke="#FFFFFF" stroke-width="6" x1="1319.3" y1="1072.532" x2="1412.588" y2="1234.091"/>
				<line fill="none" stroke="#FFFFFF" stroke-width="6" x1="993.057" y1="507.463" x2="1086.612" y2="669.486"/>
				<line fill="none" stroke="#FFFFFF" stroke-width="6" x1="713.361" y1="830.251" x2="993.089" y2="1314.743"/>
				<line fill="none" stroke="#FFFFFF" stroke-width="6" x1="1040.774" y1="1235.868" x2="1132.914" y2="1395.444"/>
				<line fill="none" stroke="#FFFFFF" stroke-width="6" x1="713.443" y1="668.914" x2="806.707" y2="830.44"/>
				<line fill="none" stroke="#FFFFFF" stroke-width="6" x1="1272.709" y1="668.94" x2="1412.589" y2="911.217"/>
				<line fill="none" stroke="#FFFFFF" stroke-width="6" x1="1179.431" y1="1314.521" x2="1272.779" y2="1476.161"/>
				<line fill="none" stroke="#FFFFFF" stroke-width="6" x1="713.376" y1="507.511" x2="806.874" y2="669.409"/>
				<line fill="none" stroke="#FFFFFF" stroke-width="6" x1="1459.218" y1="1153.239" x2="1552.461" y2="1314.71"/>
				<line fill="none" stroke="#FFFFFF" stroke-width="6" x1="993.102" y1="346.06" x2="1086.875" y2="508.447"/>
				<line fill="none" stroke="#FFFFFF" stroke-width="6" x1="993.083" y1="1637.583" x2="433.725" y2="668.935"/>
				<line fill="none" stroke="#FFFFFF" stroke-width="6" x1="899.324" y1="831.852" x2="993.374" y2="669.121"/>
				<line fill="none" stroke="#FFFFFF" stroke-width="6" x1="713.484" y1="1153.399" x2="806.874" y2="991.813"/>
				<line fill="none" stroke="#FFFFFF" stroke-width="6" x1="1179.706" y1="991.813" x2="1273.014" y2="1153.403"/>
				<line fill="none" stroke="#FFFFFF" stroke-width="6" x1="993.374" y1="669.121" x2="1086.875" y2="831.047"/>
				<line fill="none" stroke="#FFFFFF" stroke-width="6" x1="993.783" y1="830.251" x2="853.779" y2="1072.542"/>
				<line fill="none" stroke="#FFFFFF" stroke-width="6" x1="993.783" y1="830.251" x2="1133.787" y2="1072.532"/>
				<line fill="none" stroke="#FFFFFF" stroke-width="6" x1="1412.588" y1="1234.091" x2="1225.069" y2="1234.091"/>
				<line fill="none" stroke="#FFFFFF" stroke-width="6" x1="573.627" y1="1234.097" x2="760.179" y2="1234.097"/>
				<circle fill="none" stroke="#FFFFFF" stroke-width="6" cx="992.126" cy="992.126" r="726.798"/>
			</g>
		</g>
		<g id="hexagon">
			<polygon fill="#FFFFFF" fill-opacity="0" stroke="#ECDB7A" stroke-width="6" stroke-miterlimit="10" points="151.141,506.58 
				992.121,21.034 1833.111,506.58 1833.111,1477.672 992.121,1963.218 151.141,1477.672 			"/>
		</g>
	</g>
</g>
<g id="Layer_2">
	<g id="_x36_4Tetra3DFullGroup">
		<g id="fruit_1_">
			<g>
				<path fill="none" stroke="#FFFFFF" stroke-width="2" d="M2835.45,992.146c0,89.157-72.298,161.414-161.39,161.414
					c-89.2,0-161.496-72.252-161.496-161.414c0-89.222,72.295-161.474,161.496-161.474
					C2763.155,830.676,2835.45,902.928,2835.45,992.146z"/>
				<path fill="none" stroke="#FFFFFF" stroke-width="2" d="M2835.45,669.264c0,89.16-72.298,161.414-161.39,161.414
					c-89.2,0-161.496-72.254-161.496-161.414c0-89.217,72.295-161.469,161.496-161.469
					C2763.155,507.795,2835.45,580.047,2835.45,669.264z"/>
				<path fill="none" stroke="#FFFFFF" stroke-width="2" d="M2555.791,830.703c0,89.16-72.294,161.414-161.389,161.414
					c-89.198,0-161.497-72.254-161.497-161.414c0-89.217,72.299-161.469,161.497-161.469
					C2483.497,669.234,2555.791,741.486,2555.791,830.703z"/>
				<path fill="none" stroke="#FFFFFF" stroke-width="2" d="M2555.794,1153.574c0,89.162-72.294,161.414-161.387,161.414
					c-89.2,0-161.496-72.252-161.496-161.414c0-89.217,72.296-161.469,161.496-161.469
					C2483.499,992.105,2555.794,1064.357,2555.794,1153.574z"/>
				<path fill="none" stroke="#FFFFFF" stroke-width="2" d="M2835.45,1315.029c0,89.16-72.298,161.412-161.388,161.412
					c-89.202,0-161.498-72.252-161.498-161.412c0-89.219,72.295-161.474,161.498-161.474
					C2763.157,1153.561,2835.45,1225.813,2835.45,1315.029z"/>
				<path fill="none" stroke="#FFFFFF" stroke-width="2" d="M3115.161,1153.588c0,89.162-72.295,161.414-161.39,161.414
					c-89.198,0-161.494-72.252-161.494-161.414c0-89.219,72.295-161.471,161.494-161.471
					C3042.866,992.117,3115.161,1064.369,3115.161,1153.588z"/>
				<path fill="none" stroke="#FFFFFF" stroke-width="2" d="M3115.148,830.703c0,89.162-72.293,161.414-161.386,161.414
					c-89.2,0-161.497-72.252-161.497-161.414c0-89.217,72.296-161.469,161.497-161.469
					C3042.855,669.234,3115.148,741.486,3115.148,830.703z"/>
				<path fill="none" stroke="#FFFFFF" stroke-width="2" d="M2835.555,346.382c0,89.161-72.295,161.415-161.386,161.415
					c-89.201,0-161.497-72.253-161.497-161.415c0-89.219,72.295-161.47,161.497-161.47
					C2763.26,184.913,2835.555,257.164,2835.555,346.382z"/>
				<path fill="none" stroke="#FFFFFF" stroke-width="2" d="M2276.172,669.275c0,89.162-72.294,161.414-161.386,161.414
					c-89.201,0-161.499-72.252-161.499-161.414c0-89.222,72.296-161.472,161.499-161.472
					C2203.877,507.807,2276.172,580.059,2276.172,669.275z"/>
				<path fill="none" stroke="#FFFFFF" stroke-width="2" d="M2276.16,1315.041c0,89.164-72.294,161.416-161.389,161.416
					c-89.199,0-161.496-72.252-161.496-161.416c0-89.217,72.293-161.467,161.496-161.467
					C2203.866,1153.574,2276.16,1225.824,2276.16,1315.041z"/>
				<path fill="none" stroke="#FFFFFF" stroke-width="2" d="M3394.914,1315.031c0,89.162-72.296,161.414-161.389,161.414
					c-89.198,0-161.496-72.252-161.496-161.414c0-89.219,72.298-161.469,161.496-161.469
					C3322.619,1153.563,3394.914,1225.813,3394.914,1315.031z"/>
				<path fill="none" stroke="#FFFFFF" stroke-width="2" d="M3394.903,669.287c0,89.162-72.295,161.414-161.386,161.414
					c-89.202,0-161.498-72.252-161.498-161.414c0-89.219,72.295-161.469,161.498-161.469
					C3322.607,507.818,3394.903,580.068,3394.903,669.287z"/>
				<path fill="none" stroke="#FFFFFF" stroke-width="2" d="M2835.537,1637.922c0,89.162-72.296,161.416-161.39,161.416
					c-89.2,0-161.497-72.254-161.497-161.416c0-89.217,72.297-161.467,161.497-161.467
					C2763.241,1476.455,2835.537,1548.705,2835.537,1637.922z"/>
			</g>
		</g>
		<g id="sixtyFour_1_">
			<line fill="none" stroke="#FFFFFF" stroke-width="6" x1="2951.832" y1="507.813" x2="2394.383" y2="507.799"/>
			<line fill="none" stroke="#FFFFFF" stroke-width="6" x1="2394.383" y1="507.799" x2="2114.709" y2="992.113"/>
			<line fill="none" stroke="#FFFFFF" stroke-width="6" x1="2254.752" y1="1234.645" x2="2394.418" y2="1476.426"/>
			<line fill="none" stroke="#FFFFFF" stroke-width="6" x1="2394.418" y1="1476.426" x2="2956.637" y2="1476.414"/>
			<line fill="none" stroke="#FFFFFF" stroke-width="6" x1="2953.784" y1="1476.451" x2="3095.008" y2="1231.924"/>
			<line fill="none" stroke="#FFFFFF" stroke-width="6" x1="3163.1" y1="1114.023" x2="3233.5" y2="992.127"/>
			<line fill="none" stroke="#FFFFFF" stroke-width="6" x1="3233.5" y1="992.127" x2="2953.762" y2="507.789"/>
			<line fill="none" stroke="#FFFFFF" stroke-width="6" x1="2114.76" y1="749.949" x2="3233.459" y2="749.949"/>
			<line fill="none" stroke="#FFFFFF" stroke-width="6" x1="2674.135" y1="1718.623" x2="2674.135" y2="749.949"/>
			<line fill="none" stroke="#FFFFFF" stroke-width="6" x1="2114.691" y1="992.176" x2="3233.5" y2="992.176"/>
			<line fill="none" stroke="#FFFFFF" stroke-width="6" x1="2114.76" y1="749.949" x2="2185.124" y2="871.813"/>
			<line fill="none" stroke="#FFFFFF" stroke-width="6" x1="2254.581" y1="749.949" x2="2324.487" y2="871.025"/>
			<line fill="none" stroke="#FFFFFF" stroke-width="6" x1="2116.332" y1="1231.459" x2="2674.066" y2="265.627"/>
			<line fill="none" stroke="#FFFFFF" stroke-width="6" x1="2394.383" y1="507.799" x2="2464.288" y2="628.854"/>
			<line fill="none" stroke="#FFFFFF" stroke-width="6" x1="2534.165" y1="507.896" x2="2603.636" y2="628.934"/>
			<line fill="none" stroke="#FFFFFF" stroke-width="6" x1="2674.049" y1="507.789" x2="2533.757" y2="749.957"/>
			<line fill="none" stroke="#FFFFFF" stroke-width="6" x1="2674.049" y1="507.789" x2="2813.766" y2="749.949"/>
			<line fill="none" stroke="#FFFFFF" stroke-width="6" x1="2533.757" y1="749.957" x2="2673.107" y2="993.646"/>
			<line fill="none" stroke="#FFFFFF" stroke-width="6" x1="2673.107" y1="993.646" x2="2813.766" y2="749.949"/>
			<line fill="none" stroke="#FFFFFF" stroke-width="6" x1="2533.757" y1="749.957" x2="2394.403" y2="992.113"/>
			<line fill="none" stroke="#FFFFFF" stroke-width="6" x1="2394.448" y1="749.844" x2="2464.579" y2="871.801"/>
			<line fill="none" stroke="#FFFFFF" stroke-width="6" x1="2953.754" y1="749.961" x2="2883.848" y2="871.037"/>
			<line fill="none" stroke="#FFFFFF" stroke-width="6" x1="2813.889" y1="749.855" x2="2743.756" y2="871.813"/>
			<line fill="none" stroke="#FFFFFF" stroke-width="6" x1="2813.948" y1="749.951" x2="2951.832" y2="993.646"/>
			<line fill="none" stroke="#FFFFFF" stroke-width="6" x1="3093.668" y1="749.973" x2="3022.828" y2="871.674"/>
			<line fill="none" stroke="#FFFFFF" stroke-width="6" x1="2953.754" y1="749.961" x2="3093.668" y2="992.104"/>
			<line fill="none" stroke="#FFFFFF" stroke-width="6" x1="3163.1" y1="871.813" x2="3233.459" y2="749.949"/>
			<line fill="none" stroke="#FFFFFF" stroke-width="6" x1="2813.814" y1="507.865" x2="2743.907" y2="628.939"/>
			<line fill="none" stroke="#FFFFFF" stroke-width="6" x1="2673.844" y1="265.627" x2="2953.729" y2="750.004"/>
			<line fill="none" stroke="#FFFFFF" stroke-width="6" x1="2953.762" y1="507.789" x2="2882.922" y2="629.49"/>
			<line fill="none" stroke="#FFFFFF" stroke-width="6" x1="2114.759" y1="992.125" x2="2185.124" y2="1113.953"/>
			<line fill="none" stroke="#FFFFFF" stroke-width="6" x1="3233.5" y1="1234.301" x2="2114.801" y2="1234.301"/>
			<line fill="none" stroke="#FFFFFF" stroke-width="6" x1="3233.5" y1="1234.299" x2="3093.67" y2="992.127"/>
			<line fill="none" stroke="#FFFFFF" stroke-width="6" x1="3093.748" y1="992.074" x2="2955.244" y2="1231.924"/>
			<line fill="none" stroke="#FFFFFF" stroke-width="6" x1="2813.766" y1="1476.924" x2="2674.191" y2="1718.623"/>
			<line fill="none" stroke="#FFFFFF" stroke-width="6" x1="2953.877" y1="1476.449" x2="2814.504" y2="1235.104"/>
			<line fill="none" stroke="#FFFFFF" stroke-width="6" x1="2674.209" y1="1476.461" x2="2814.502" y2="1234.293"/>
			<line fill="none" stroke="#FFFFFF" stroke-width="6" x1="2674.209" y1="1476.461" x2="2534.493" y2="1234.301"/>
			<line fill="none" stroke="#FFFFFF" stroke-width="6" x1="2394.506" y1="1234.287" x2="2534.297" y2="992.174"/>
			<line fill="none" stroke="#FFFFFF" stroke-width="6" x1="2394.505" y1="1234.289" x2="2254.591" y2="992.148"/>
			<line fill="none" stroke="#FFFFFF" stroke-width="6" x1="2674.416" y1="1718.623" x2="2534.488" y2="1476.461"/>
			<line fill="none" stroke="#FFFFFF" stroke-width="6" x1="2394.497" y1="1476.461" x2="2534.493" y2="1235.953"/>
			<line fill="none" stroke="#FFFFFF" stroke-width="6" x1="2394.505" y1="992.113" x2="2394.505" y2="1476.461"/>
			<line fill="none" stroke="#FFFFFF" stroke-width="6" x1="2534.297" y1="992.174" x2="2673.107" y2="1234.645"/>
			<line fill="none" stroke="#FFFFFF" stroke-width="6" x1="2673.107" y1="1234.645" x2="2813.766" y2="993.646"/>
			<line fill="none" stroke="#FFFFFF" stroke-width="6" x1="2813.766" y1="993.646" x2="2951.832" y2="1237.834"/>
			<line fill="none" stroke="#FFFFFF" stroke-width="6" x1="2951.832" y1="1476.414" x2="2951.832" y2="993.646"/>
		</g>
		<g id="hexagon_1_">
			<polygon fill="#FFFFFF" fill-opacity="0" stroke="#ECDB7A" stroke-width="6" stroke-miterlimit="10" points="1833.111,506.58 
				2674.091,21.034 3515.081,506.58 3515.081,1477.672 2674.091,1963.217 1833.111,1477.672 			"/>
		</g>
	</g>
</g>
<g id="Layer_3">
	<g id="_x36_4Tetra3DFullGroup_1_">
		<g id="sixtyFour_2_">
			<g>
				
					<rect x="3873.802" y="509.2" transform="matrix(-0.0014 -1 1 -0.0014 3370.7046 5350.1338)" fill="none" stroke="#FFFFFF" stroke-width="6" width="965.746" height="965.747"/>
				<line fill="none" stroke="#FFFFFF" stroke-width="6" x1="4114.561" y1="509.535" x2="4115.913" y2="1475.279"/>
				<line fill="none" stroke="#FFFFFF" stroke-width="6" x1="4355.994" y1="509.196" x2="4357.348" y2="1474.942"/>
				<line fill="none" stroke="#FFFFFF" stroke-width="6" x1="4597.432" y1="508.858" x2="4598.784" y2="1474.604"/>
				<line fill="none" stroke="#FFFFFF" stroke-width="6" x1="4839.883" y1="1232.829" x2="3874.137" y2="1234.182"/>
				<line fill="none" stroke="#FFFFFF" stroke-width="6" x1="4839.545" y1="991.394" x2="3873.799" y2="992.748"/>
				<line fill="none" stroke="#FFFFFF" stroke-width="6" x1="4839.206" y1="749.958" x2="3873.462" y2="751.31"/>
				<line fill="none" stroke="#FFFFFF" stroke-width="6" x1="4357.348" y1="1474.942" x2="4839.545" y2="991.394"/>
				<line fill="none" stroke="#FFFFFF" stroke-width="6" x1="3874.477" y1="1475.618" x2="4838.868" y2="508.521"/>
				<line fill="none" stroke="#FFFFFF" stroke-width="6" x1="4355.994" y1="509.196" x2="3873.799" y2="992.748"/>
				<line fill="none" stroke="#FFFFFF" stroke-width="6" x1="4840.221" y1="1474.266" x2="3873.122" y2="509.873"/>
				<line fill="none" stroke="#FFFFFF" stroke-width="6" x1="4839.545" y1="991.394" x2="4355.994" y2="509.196"/>
				<line fill="none" stroke="#FFFFFF" stroke-width="6" x1="3873.799" y1="992.748" x2="4357.348" y2="1474.942"/>
				<circle id="circle_5_" fill="none" stroke="#FFFFFF" stroke-width="6" cx="4356.064" cy="992.126" r="726.798"/>
			</g>
		</g>
		<g id="fruit_2_">
			<g>
				<path fill="none" stroke="#FFFFFF" stroke-width="2" d="M4517.396,992.206c0,89.435-72.33,161.333-161.342,161.333
					c-89.193,0-161.345-72.322-161.345-161.333c0-89.253,72.271-161.354,161.344-161.354
					C4445.146,830.731,4517.396,902.952,4517.396,992.206z"/>
				<path fill="none" stroke="#FFFFFF" stroke-width="2" d="M4517.396,669.317c0,89.213-72.33,161.333-161.342,161.333
					c-89.193,0-161.345-72.321-161.345-161.333c0-89.454,72.271-161.354,161.344-161.354
					C4445.146,507.883,4517.396,580.165,4517.396,669.317z"/>
				<path fill="none" stroke="#FFFFFF" stroke-width="2" d="M4237.813,830.731c0,89.271-72.33,161.353-161.344,161.353
					c-89.283,0-161.345-72.34-161.345-161.354c0-89.214,72.332-161.332,161.345-161.332
					C4165.502,669.277,4237.813,741.518,4237.813,830.731z"/>
				<path fill="none" stroke="#FFFFFF" stroke-width="2" d="M4237.813,1153.598c0,89.354-72.33,161.335-161.344,161.335
					c-89.283,0-161.345-72.341-161.345-161.335c0-89.392,72.332-161.352,161.345-161.352
					C4165.502,992.146,4237.813,1064.307,4237.813,1153.598z"/>
				<path fill="none" stroke="#FFFFFF" stroke-width="2" d="M4517.396,1314.993c0,89.452-72.33,161.354-161.342,161.354
					c-89.193,0-161.345-72.341-161.345-161.354c0-89.415,72.271-161.335,161.344-161.335
					C4445.146,1153.561,4517.396,1225.78,4517.396,1314.993z"/>
				<path fill="none" stroke="#FFFFFF" stroke-width="2" d="M4797.063,1153.598c0,89.354-72.33,161.335-161.344,161.335
					c-89.193,0-161.346-72.341-161.346-161.335c0-89.352,72.332-161.352,161.346-161.352S4797.063,1064.345,4797.063,1153.598z"/>
				<path fill="none" stroke="#FFFFFF" stroke-width="2" d="M4797.063,830.731c0,89.271-72.33,161.353-161.344,161.353
					c-89.193,0-161.346-72.34-161.346-161.354c0-89.214,72.332-161.332,161.346-161.332
					C4724.732,669.377,4797.063,741.518,4797.063,830.731z"/>
				<path fill="none" stroke="#FFFFFF" stroke-width="2" d="M4517.498,346.53c0,89.112-72.331,161.334-161.343,161.334
					c-89.424,0-161.345-72.322-161.345-161.334c0-89.453,72.332-161.535,161.345-161.535
					C4445.268,185.056,4517.498,257.256,4517.498,346.53z"/>
				<path fill="none" stroke="#FFFFFF" stroke-width="2" d="M3958.218,669.357c0,89.151-72.331,161.334-161.345,161.334
					c-89.214,0-161.345-72.321-161.345-161.334c0-89.232,72.332-161.354,161.345-161.354
					C3885.905,507.883,3958.218,580.165,3958.218,669.357z"/>
				<path fill="none" stroke="#FFFFFF" stroke-width="2" d="M3958.218,1314.993c0,89.452-72.331,161.354-161.345,161.354
					c-89.214,0-161.345-72.341-161.345-161.354c0-89.415,72.332-161.335,161.345-161.335
					C3885.887,1153.658,3958.218,1225.78,3958.218,1314.993z"/>
				<path fill="none" stroke="#FFFFFF" stroke-width="2" d="M5076.8,1314.993c0,89.452-72.333,161.354-161.345,161.354
					c-89.443,0-161.442-72.341-161.442-161.354c0-89.415,72.331-161.335,161.442-161.335
					C5004.467,1153.561,5076.8,1225.78,5076.8,1314.993z"/>
				<path fill="none" stroke="#FFFFFF" stroke-width="2" d="M5076.8,669.357c0,89.213-72.333,161.334-161.345,161.334
					c-89.443,0-161.442-72.321-161.442-161.334c0-89.232,72.331-161.354,161.442-161.354
					C5004.467,507.924,5076.8,580.165,5076.8,669.357z"/>
				<path fill="none" stroke="#FFFFFF" stroke-width="2" d="M4517.459,1637.779c0,89.174-72.332,161.354-161.344,161.354
					c-89.443,0-161.344-72.341-161.344-161.354c0-89.437,72.291-161.354,161.344-161.354
					C4445.229,1476.388,4517.459,1548.626,4517.459,1637.779z"/>
			</g>
		</g>
		<g id="hexagon_2_">
			<polygon fill="#FFFFFF" fill-opacity="0" stroke="#ECDB7A" stroke-width="6" stroke-miterlimit="10" points="3515.081,506.58 
				4356.061,21.034 5197.051,506.58 5197.051,1477.672 4356.061,1963.218 3515.081,1477.672 			"/>
		</g>
	</g>
</g>
<g id="Layer_2_1_">
	<g id="sixtyFourTetraGroup">
		<g id="fruit_3_">
			<g>
				<path fill="none" stroke="#FFFFFF" stroke-width="2" d="M6199.391,992.146c0,89.159-72.299,161.414-161.389,161.414
					c-89.201,0-161.498-72.252-161.498-161.414c0-89.22,72.297-161.472,161.498-161.472
					C6127.096,830.677,6199.391,902.929,6199.391,992.146z"/>
				<path fill="none" stroke="#FFFFFF" stroke-width="2" d="M6199.391,669.265c0,89.16-72.299,161.414-161.389,161.414
					c-89.201,0-161.498-72.254-161.498-161.414c0-89.218,72.297-161.47,161.498-161.47
					C6127.096,507.795,6199.391,580.047,6199.391,669.265z"/>
				<path fill="none" stroke="#FFFFFF" stroke-width="2" d="M5919.73,830.704c0,89.16-72.293,161.414-161.389,161.414
					c-89.197,0-161.496-72.254-161.496-161.414c0-89.218,72.299-161.47,161.496-161.47
					C5847.438,669.234,5919.73,741.486,5919.73,830.704z"/>
				<path fill="none" stroke="#FFFFFF" stroke-width="2" d="M5919.734,1153.575c0,89.162-72.295,161.414-161.387,161.414
					c-89.201,0-161.496-72.252-161.496-161.414c0-89.218,72.295-161.47,161.496-161.47
					C5847.439,992.106,5919.734,1064.358,5919.734,1153.575z"/>
				<path fill="none" stroke="#FFFFFF" stroke-width="2" d="M6199.391,1315.03c0,89.16-72.297,161.412-161.389,161.412
					c-89.201,0-161.496-72.252-161.496-161.412c0-89.22,72.295-161.474,161.496-161.474
					C6127.098,1153.561,6199.391,1225.813,6199.391,1315.03z"/>
				<path fill="none" stroke="#FFFFFF" stroke-width="2" d="M6479.102,1153.589c0,89.162-72.295,161.414-161.389,161.414
					c-89.199,0-161.496-72.252-161.496-161.414c0-89.219,72.297-161.471,161.496-161.471
					C6406.807,992.118,6479.102,1064.37,6479.102,1153.589z"/>
				<path fill="none" stroke="#FFFFFF" stroke-width="2" d="M6479.09,830.704c0,89.161-72.295,161.414-161.387,161.414
					c-89.201,0-161.496-72.253-161.496-161.414c0-89.218,72.295-161.469,161.496-161.469
					C6406.795,669.235,6479.09,741.486,6479.09,830.704z"/>
				<path fill="none" stroke="#FFFFFF" stroke-width="2" d="M6199.494,346.383c0,89.161-72.295,161.414-161.385,161.414
					c-89.201,0-161.498-72.253-161.498-161.414c0-89.219,72.295-161.47,161.498-161.47
					C6127.199,184.913,6199.494,257.164,6199.494,346.383z"/>
				<path fill="none" stroke="#FFFFFF" stroke-width="2" d="M5640.111,669.276c0,89.161-72.293,161.414-161.385,161.414
					c-89.201,0-161.5-72.253-161.5-161.414c0-89.221,72.297-161.472,161.5-161.472
					C5567.816,507.808,5640.111,580.059,5640.111,669.276z"/>
				<path fill="none" stroke="#FFFFFF" stroke-width="2" d="M5640.1,1315.042c0,89.164-72.293,161.416-161.389,161.416
					c-89.199,0-161.496-72.252-161.496-161.416c0-89.217,72.293-161.467,161.496-161.467
					C5567.807,1153.575,5640.1,1225.825,5640.1,1315.042z"/>
				<path fill="none" stroke="#FFFFFF" stroke-width="2" d="M6758.854,1315.032c0,89.162-72.295,161.414-161.389,161.414
					c-89.197,0-161.496-72.252-161.496-161.414c0-89.22,72.299-161.47,161.496-161.47
					C6686.559,1153.563,6758.854,1225.813,6758.854,1315.032z"/>
				<path fill="none" stroke="#FFFFFF" stroke-width="2" d="M6758.844,669.287c0,89.162-72.295,161.414-161.387,161.414
					c-89.201,0-161.496-72.252-161.496-161.414c0-89.218,72.295-161.469,161.496-161.469
					C6686.549,507.818,6758.844,580.069,6758.844,669.287z"/>
				<path fill="none" stroke="#FFFFFF" stroke-width="2" d="M6199.477,1637.923c0,89.162-72.295,161.416-161.389,161.416
					c-89.201,0-161.498-72.254-161.498-161.416c0-89.217,72.297-161.467,161.498-161.467
					C6127.182,1476.456,6199.477,1548.706,6199.477,1637.923z"/>
			</g>
		</g>
		<g id="sixtyFour_3_">
			<g>
				<line fill="none" stroke="#FFFFFF" stroke-width="6" x1="5478.676" y1="992.142" x2="5758.641" y2="588.536"/>
				<line fill="none" stroke="#FFFFFF" stroke-width="6" x1="5758.641" y1="588.536" x2="6037.49" y2="992.449"/>
				<line fill="none" stroke="#FFFFFF" stroke-width="6" x1="6037.49" y1="992.449" x2="6316.488" y2="588.536"/>
				<line fill="none" stroke="#FFFFFF" stroke-width="6" x1="6316.488" y1="588.536" x2="6597.43" y2="992.142"/>
				<line fill="none" stroke="#FFFFFF" stroke-width="6" x1="6597.43" y1="992.142" x2="6317.6" y2="1395.521"/>
				<line fill="none" stroke="#FFFFFF" stroke-width="6" x1="6317.6" y1="1395.521" x2="6035.674" y2="996.136"/>
				<line fill="none" stroke="#FFFFFF" stroke-width="6" x1="6035.674" y1="996.136" x2="5758.641" y2="1395.521"/>
				<line fill="none" stroke="#FFFFFF" stroke-width="6" x1="5758.641" y1="1395.521" x2="5478.676" y2="992.142"/>
				<line fill="none" stroke="#FFFFFF" stroke-width="6" x1="6038.311" y1="1395.521" x2="5478.641" y2="588.536"/>
				<line fill="none" stroke="#FFFFFF" stroke-width="6" x1="5478.641" y1="588.536" x2="6597.371" y2="588.536"/>
				<line fill="none" stroke="#FFFFFF" stroke-width="6" x1="6597.371" y1="588.536" x2="6038.311" y2="1395.521"/>
				<line fill="none" stroke="#FFFFFF" stroke-width="6" x1="6597.43" y1="992.142" x2="5478.676" y2="992.142"/>
				<line fill="none" stroke="#FFFFFF" stroke-width="6" x1="5478.641" y1="1395.521" x2="6038.311" y2="586.736"/>
				<line fill="none" stroke="#FFFFFF" stroke-width="6" x1="6038.311" y1="586.736" x2="6597.371" y2="1395.703"/>
				<line fill="none" stroke="#FFFFFF" stroke-width="6" x1="5478.641" y1="1395.521" x2="6597.371" y2="1395.703"/>
				<line fill="none" stroke="#FFFFFF" stroke-width="6" x1="5618.465" y1="790.618" x2="6457.576" y2="791.226"/>
				<line fill="none" stroke="#FFFFFF" stroke-width="6" x1="6459.242" y1="1195.829" x2="5616.826" y2="1195.829"/>
				<circle id="circle_6_" fill="none" stroke="#FFFFFF" stroke-width="6" cx="6038.035" cy="992.126" r="726.798"/>
			</g>
		</g>
		<g id="hexagon_3_">
			<polygon fill="#FFFFFF" fill-opacity="0" stroke="#ECDB7A" stroke-width="6" stroke-miterlimit="10" points="5197.051,506.58 
				6038.031,21.034 6879.021,506.58 6879.021,1477.672 6038.031,1963.218 5197.051,1477.672 			"/>
		</g>
	</g>
</g>
</svg>
