<?xml version="1.0" encoding="utf-8"?>
<!-- Generator: Adobe Illustrator 16.0.0, SVG Export Plug-In . SVG Version: 6.00 Build 0)  -->
<!DOCTYPE svg PUBLIC "-//W3C//DTD SVG 1.1//EN" "http://www.w3.org/Graphics/SVG/1.1/DTD/svg11.dtd">
<svg version="1.1" id="Layer_1" xmlns="http://www.w3.org/2000/svg" xmlns:xlink="http://www.w3.org/1999/xlink" x="0px" y="0px"
	 width="1684.051px" height="1984.252px" viewBox="0 0 1684.051 1984.252" enable-background="new 0 0 1684.051 1984.252"
	 xml:space="preserve">
<g id="_x36_4Tetra3DFullGroup">
	<g id="back">
		<rect id="image" x="0" y="-13.988" display="none" fill="#130E22" width="1684.052" height="2012.229"/>
	</g>
	<g id="fruit">
		<g>
			<path fill="none" stroke="#FFFFFF" d="M1003.438,992.146c0,89.157-72.301,161.414-161.39,161.414
				c-89.201,0-161.498-72.252-161.498-161.414c0-89.222,72.296-161.474,161.498-161.474
				C931.143,830.676,1003.438,902.928,1003.438,992.146z"/>
			<path fill="none" stroke="#FFFFFF" d="M1003.438,669.264c0,89.16-72.301,161.414-161.39,161.414
				c-89.201,0-161.498-72.254-161.498-161.414c0-89.218,72.296-161.47,161.498-161.47
				C931.143,507.794,1003.438,580.046,1003.438,669.264z"/>
			<path fill="none" stroke="#FFFFFF" d="M723.778,830.703c0,89.16-72.293,161.414-161.39,161.414
				c-89.196,0-161.497-72.254-161.497-161.414c0-89.218,72.301-161.47,161.497-161.47
				C651.485,669.233,723.778,741.485,723.778,830.703z"/>
			<path fill="none" stroke="#FFFFFF" d="M723.782,1153.574c0,89.162-72.294,161.414-161.387,161.414
				c-89.2,0-161.496-72.252-161.496-161.414c0-89.218,72.296-161.47,161.496-161.47
				C651.487,992.105,723.782,1064.357,723.782,1153.574z"/>
			<path fill="none" stroke="#FFFFFF" d="M1003.438,1315.029c0,89.16-72.299,161.412-161.39,161.412
				c-89.201,0-161.497-72.252-161.497-161.412c0-89.22,72.295-161.476,161.497-161.476
				C931.145,1153.56,1003.438,1225.812,1003.438,1315.029z"/>
			<path fill="none" stroke="#FFFFFF" d="M1283.149,1153.588c0,89.162-72.295,161.414-161.391,161.414
				c-89.197,0-161.496-72.252-161.496-161.414c0-89.219,72.299-161.471,161.496-161.471
				C1210.854,992.117,1283.149,1064.369,1283.149,1153.588z"/>
			<path fill="none" stroke="#FFFFFF" d="M1283.137,830.703c0,89.161-72.295,161.414-161.387,161.414
				c-89.201,0-161.496-72.253-161.496-161.414c0-89.218,72.295-161.469,161.496-161.469
				C1210.842,669.234,1283.137,741.485,1283.137,830.703z"/>
			<path fill="none" stroke="#FFFFFF" d="M1003.542,346.382c0,89.161-72.295,161.414-161.384,161.414
				c-89.201,0-161.498-72.253-161.498-161.414c0-89.219,72.294-161.47,161.498-161.47
				C931.247,184.912,1003.542,257.163,1003.542,346.382z"/>
			<path fill="none" stroke="#FFFFFF" d="M444.16,669.275c0,89.161-72.294,161.414-161.386,161.414
				c-89.201,0-161.5-72.253-161.5-161.414c0-89.223,72.296-161.474,161.5-161.474C371.865,507.807,444.16,580.058,444.16,669.275z"
				/>
			<path fill="none" stroke="#FFFFFF" d="M444.148,1315.041c0,89.164-72.294,161.416-161.391,161.416
				c-89.199,0-161.497-72.252-161.497-161.416c0-89.217,72.292-161.467,161.497-161.467
				C371.854,1153.574,444.148,1225.824,444.148,1315.041z"/>
			<path fill="none" stroke="#FFFFFF" d="M1562.901,1315.031c0,89.162-72.295,161.414-161.391,161.414
				c-89.195,0-161.496-72.252-161.496-161.414c0-89.22,72.301-161.47,161.496-161.47
				C1490.606,1153.562,1562.901,1225.812,1562.901,1315.031z"/>
			<path fill="none" stroke="#FFFFFF" d="M1562.891,669.286c0,89.162-72.295,161.414-161.387,161.414
				c-89.201,0-161.496-72.252-161.496-161.414c0-89.218,72.295-161.469,161.496-161.469
				C1490.596,507.817,1562.891,580.068,1562.891,669.286z"/>
			<path fill="none" stroke="#FFFFFF" d="M1003.524,1637.922c0,89.162-72.295,161.416-161.39,161.416
				c-89.201,0-161.498-72.254-161.498-161.416c0-89.217,72.296-161.467,161.498-161.467
				C931.229,1476.455,1003.524,1548.705,1003.524,1637.922z"/>
		</g>
	</g>
	<g id="sixtyFour">
		<g>
			<line fill="none" stroke="#FFFFFF" x1="1119.819" y1="507.814" x2="562.37" y2="507.802"/>
			<line fill="none" stroke="#FFFFFF" x1="562.37" y1="507.802" x2="282.696" y2="992.116"/>
			<line fill="none" stroke="#FFFFFF" x1="422.739" y1="1234.646" x2="562.405" y2="1476.429"/>
			<line fill="none" stroke="#FFFFFF" x1="562.405" y1="1476.429" x2="1124.624" y2="1476.417"/>
			<line fill="none" stroke="#FFFFFF" x1="1121.772" y1="1476.454" x2="1262.995" y2="1231.927"/>
			<line fill="none" stroke="#FFFFFF" x1="1331.086" y1="1114.026" x2="1401.487" y2="992.13"/>
			<line fill="none" stroke="#FFFFFF" x1="1401.487" y1="992.13" x2="1121.749" y2="507.792"/>
			<line fill="none" stroke="#FFFFFF" x1="282.747" y1="749.952" x2="1401.446" y2="749.952"/>
			<line fill="none" stroke="#FFFFFF" x1="842.121" y1="1718.626" x2="842.122" y2="749.952"/>
			<line fill="none" stroke="#FFFFFF" x1="282.678" y1="992.179" x2="1401.487" y2="992.179"/>
			<line fill="none" stroke="#FFFFFF" x1="282.747" y1="749.952" x2="353.112" y2="871.814"/>
			<line fill="none" stroke="#FFFFFF" x1="422.569" y1="749.952" x2="492.475" y2="871.028"/>
			<line fill="none" stroke="#FFFFFF" x1="284.319" y1="1231.462" x2="842.054" y2="265.63"/>
			<line fill="none" stroke="#FFFFFF" x1="562.37" y1="507.802" x2="632.276" y2="628.855"/>
			<line fill="none" stroke="#FFFFFF" x1="702.153" y1="507.898" x2="771.624" y2="628.937"/>
			<line fill="none" stroke="#FFFFFF" x1="842.036" y1="507.792" x2="701.745" y2="749.96"/>
			<line fill="none" stroke="#FFFFFF" x1="842.036" y1="507.792" x2="981.752" y2="749.952"/>
			<line fill="none" stroke="#FFFFFF" x1="701.745" y1="749.96" x2="841.094" y2="993.648"/>
			<line fill="none" stroke="#FFFFFF" x1="841.094" y1="993.648" x2="981.752" y2="749.952"/>
			<line fill="none" stroke="#FFFFFF" x1="701.745" y1="749.96" x2="562.391" y2="992.116"/>
			<line fill="none" stroke="#FFFFFF" x1="562.436" y1="749.847" x2="632.567" y2="871.804"/>
			<line fill="none" stroke="#FFFFFF" x1="1121.741" y1="749.964" x2="1051.834" y2="871.04"/>
			<line fill="none" stroke="#FFFFFF" x1="981.875" y1="749.858" x2="911.742" y2="871.814"/>
			<line fill="none" stroke="#FFFFFF" x1="981.936" y1="749.954" x2="1119.819" y2="993.648"/>
			<line fill="none" stroke="#FFFFFF" x1="1261.655" y1="749.976" x2="1190.815" y2="871.677"/>
			<line fill="none" stroke="#FFFFFF" x1="1121.741" y1="749.964" x2="1261.655" y2="992.105"/>
			<line fill="none" stroke="#FFFFFF" x1="1331.086" y1="871.814" x2="1401.446" y2="749.952"/>
			<line fill="none" stroke="#FFFFFF" x1="981.801" y1="507.867" x2="911.895" y2="628.942"/>
			<line fill="none" stroke="#FFFFFF" x1="841.831" y1="265.63" x2="1121.715" y2="750.007"/>
			<line fill="none" stroke="#FFFFFF" x1="1121.749" y1="507.792" x2="1050.909" y2="629.492"/>
			<line fill="none" stroke="#FFFFFF" x1="282.747" y1="992.128" x2="353.112" y2="1113.956"/>
			<line fill="none" stroke="#FFFFFF" x1="1401.487" y1="1234.304" x2="282.788" y2="1234.304"/>
			<line fill="none" stroke="#FFFFFF" x1="1401.487" y1="1234.302" x2="1261.657" y2="992.13"/>
			<line fill="none" stroke="#FFFFFF" x1="1261.735" y1="992.077" x2="1123.231" y2="1231.927"/>
			<line fill="none" stroke="#FFFFFF" x1="981.752" y1="1476.927" x2="842.178" y2="1718.626"/>
			<line fill="none" stroke="#FFFFFF" x1="1121.864" y1="1476.452" x2="982.491" y2="1235.105"/>
			<line fill="none" stroke="#FFFFFF" x1="842.195" y1="1476.464" x2="982.489" y2="1234.296"/>
			<line fill="none" stroke="#FFFFFF" x1="842.195" y1="1476.464" x2="702.481" y2="1234.304"/>
			<line fill="none" stroke="#FFFFFF" x1="562.493" y1="1234.29" x2="702.284" y2="992.177"/>
			<line fill="none" stroke="#FFFFFF" x1="562.493" y1="1234.292" x2="422.579" y2="992.151"/>
			<line fill="none" stroke="#FFFFFF" x1="842.402" y1="1718.626" x2="702.475" y2="1476.464"/>
			<line fill="none" stroke="#FFFFFF" x1="562.485" y1="1476.464" x2="702.481" y2="1235.956"/>
			<line fill="none" stroke="#FFFFFF" x1="562.493" y1="992.116" x2="562.493" y2="1476.464"/>
			<line fill="none" stroke="#FFFFFF" x1="702.284" y1="992.177" x2="841.094" y2="1234.646"/>
			<line fill="none" stroke="#FFFFFF" x1="841.094" y1="1234.646" x2="981.752" y2="993.648"/>
			<line fill="none" stroke="#FFFFFF" x1="981.752" y1="993.648" x2="1119.819" y2="1237.837"/>
			<line fill="none" stroke="#FFFFFF" x1="1119.819" y1="1476.417" x2="1119.819" y2="993.648"/>
			<circle fill="none" stroke="#FFFFFF" cx="842.083" cy="992.128" r="726.798"/>
		</g>
	</g>
	<g id="hexagon">
		<polygon fill="#FFFFFF" fill-opacity="0" stroke="#FFE86D" stroke-miterlimit="10" stroke-opacity="0" points="1.099,506.579 
			842.079,21.033 1683.069,506.579 1683.069,1477.671 842.079,1963.217 1.099,1477.671 		"/>
	</g>
</g>
</svg>
