<?xml version="1.0" encoding="utf-8"?>
<!-- Generator: Adobe Illustrator 16.0.0, SVG Export Plug-In . SVG Version: 6.00 Build 0)  -->
<!DOCTYPE svg PUBLIC "-//W3C//DTD SVG 1.1//EN" "http://www.w3.org/Graphics/SVG/1.1/DTD/svg11.dtd">
<svg version="1.1" id="Layer_1" xmlns="http://www.w3.org/2000/svg" xmlns:xlink="http://www.w3.org/1999/xlink" x="0px" y="0px"
	 width="1687px" height="1984px" viewBox="143.599 81.429 1687 1984" enable-background="new 143.599 81.429 1687 1984"
	 xml:space="preserve">
<g id="Layer_1_1_">
	<g id="_x36_4Tetra3DFullGroup">
		<g id="back" display="none">
			<rect id="image" x="143.6" y="87.039" display="inline" fill="#130E22" width="1687" height="1976.637"/>
		</g>
		<g id="fruit" stroke-width="2">
			<g id="fruit_1_">
				<path fill="none" stroke="#FFFFFF" stroke-miterlimit="10" d="M1125.228,1072.661c0,76.35-61.853,138.075-138.056,138.075
					c-76.433,0-138.183-61.726-138.183-138.075c0-76.287,61.392-138.077,138.183-138.077
					C1063.375,934.563,1125.228,996.374,1125.228,1072.661z"/>
				<path fill="none" stroke="#FFFFFF" stroke-miterlimit="10" d="M1125.228,796.487c0,76.328-61.853,138.097-138.056,138.097
					c-76.433,0-138.183-61.769-138.183-138.097S910.381,658.39,987.172,658.39C1063.375,658.348,1125.228,720.159,1125.228,796.487z
					"/>
				<path fill="none" stroke="#FFFFFF" stroke-miterlimit="10" d="M886.011,934.563c0,76.308-61.664,138.076-138.055,138.076
					c-76.371,0-138.161-61.769-138.161-138.076c0-76.329,61.791-138.14,138.161-138.14
					C824.158,796.423,886.011,858.277,886.011,934.563z"/>
				<path fill="none" stroke="#FFFFFF" stroke-miterlimit="10" d="M886.011,1210.778c0,76.31-61.664,138.098-138.055,138.098
					c-76.287,0-138.139-61.789-138.139-138.098c0-76.37,61.81-138.117,138.139-138.117
					C824.158,1072.661,886.011,1134.407,886.011,1210.778z"/>
				<path fill="none" stroke="#FFFFFF" stroke-miterlimit="10" d="M1125.228,1348.897c0,76.307-61.811,138.118-138.056,138.118
					c-76.433,0-138.183-61.854-138.183-138.118c0-76.309,61.392-138.162,138.183-138.162
					C1063.417,1210.736,1125.228,1272.59,1125.228,1348.897z"/>
				<path fill="none" stroke="#FFFFFF" stroke-miterlimit="10" d="M1364.53,1210.778c0,76.31-61.686,138.098-138.077,138.098
					c-76.306,0-138.16-61.789-138.16-138.098c0-76.327,61.854-138.117,138.16-138.117
					C1302.719,1072.661,1364.53,1134.407,1364.53,1210.778z"/>
				<path fill="none" stroke="#FFFFFF" stroke-miterlimit="10" d="M1364.53,934.563c0,76.308-61.686,138.076-138.077,138.076
					c-76.306,0-138.16-61.769-138.16-138.076c0-76.329,61.854-138.14,138.16-138.14
					C1302.719,796.423,1364.53,858.277,1364.53,934.563z"/>
				<path fill="none" stroke="#FFFFFF" stroke-miterlimit="10" d="M1125.355,520.229c0,76.307-61.854,138.097-138.057,138.097
					c-76.349,0-138.181-61.791-138.181-138.097c0-76.329,61.832-138.14,138.181-138.14
					C1063.46,382.089,1125.355,443.943,1125.355,520.229z"/>
				<path fill="none" stroke="#FFFFFF" stroke-miterlimit="10" d="M646.793,796.487c0,76.328-61.853,138.097-138.077,138.097
					c-76.329,0-138.16-61.811-138.16-138.097c0-76.328,61.853-138.097,138.16-138.097
					C584.919,658.39,646.793,720.179,646.793,796.487z"/>
				<path fill="none" stroke="#FFFFFF" stroke-miterlimit="10" d="M646.793,1348.897c0,76.307-61.853,138.118-138.077,138.118
					c-76.286,0-138.16-61.854-138.16-138.118c0-76.309,61.853-138.12,138.16-138.12
					C584.898,1210.778,646.793,1272.59,646.793,1348.897z"/>
				<path fill="none" stroke="#FFFFFF" stroke-miterlimit="10" d="M1603.874,1348.897c0,76.307-61.852,138.118-138.076,138.118
					c-76.308,0-138.16-61.854-138.16-138.118c0-76.309,61.853-138.162,138.16-138.162
					C1541.978,1210.736,1603.874,1272.59,1603.874,1348.897z"/>
				<path fill="none" stroke="#FFFFFF" stroke-miterlimit="10" d="M1603.874,796.487c0,76.328-61.896,138.097-138.119,138.097
					c-76.265,0-138.16-61.769-138.16-138.097s61.896-138.097,138.16-138.097C1541.978,658.39,1603.874,720.179,1603.874,796.487z"/>
				<path fill="none" stroke="#FFFFFF" stroke-miterlimit="10" d="M1125.311,1625.156c0,76.223-61.852,138.075-138.055,138.075
					c-76.413,0-138.223-61.853-138.223-138.075c0-76.393,61.391-138.14,138.223-138.14
					C1063.46,1487.016,1125.311,1548.785,1125.311,1625.156z"/>
			</g>
			<g id="fruit_2_" display="none">
				<path display="inline" fill="none" stroke="#FFFFFF" stroke-miterlimit="10" d="M1021.709,1072.661
					c0,19.083-15.47,34.511-34.5,34.511c-19.104,0-34.532-15.429-34.532-34.511c0-19.062,15.407-34.511,34.532-34.511
					C1006.25,1038.149,1021.709,1053.599,1021.709,1072.661z"/>
				<path display="inline" fill="none" stroke="#FFFFFF" stroke-miterlimit="10" d="M1021.709,1003.639
					c0,19.041-15.47,34.511-34.5,34.511c-19.104,0-34.532-15.47-34.532-34.511c0-19.072,15.407-34.511,34.532-34.511
					C1006.25,969.117,1021.709,984.566,1021.709,1003.639z"/>
				<path display="inline" fill="none" stroke="#FFFFFF" stroke-miterlimit="10" d="M961.919,1038.149
					c0,19.073-15.407,34.501-34.5,34.501c-19.041,0-34.533-15.428-34.533-34.501c0-19.083,15.47-34.521,34.533-34.521
					C946.47,1003.628,961.919,1019.077,961.919,1038.149z"/>
				<path display="inline" fill="none" stroke="#FFFFFF" stroke-miterlimit="10" d="M961.919,1107.182
					c0,19.072-15.407,34.511-34.5,34.511c-19.041,0-34.521-15.438-34.521-34.511c0-19.094,15.47-34.521,34.521-34.521
					C946.481,1072.661,961.919,1088.088,961.919,1107.182z"/>
				<path display="inline" fill="none" stroke="#FFFFFF" stroke-miterlimit="10" d="M1021.709,1141.692
					c0,19.072-15.47,34.521-34.5,34.521c-19.104,0-34.532-15.459-34.532-34.521c0-19.04,15.407-34.521,34.532-34.521
					C1006.26,1107.172,1021.709,1122.62,1021.709,1141.692z"/>
				<path display="inline" fill="none" stroke="#FFFFFF" stroke-miterlimit="10" d="M1081.521,1107.182
					c0,19.072-15.418,34.511-34.511,34.511c-19.041,0-34.532-15.438-34.532-34.511s15.471-34.521,34.532-34.521
					C1066.083,1072.661,1081.521,1088.088,1081.521,1107.182z"/>
				<path display="inline" fill="none" stroke="#FFFFFF" stroke-miterlimit="10" d="M1081.521,1038.149
					c0,19.073-15.418,34.501-34.511,34.501c-19.041,0-34.532-15.428-34.532-34.501c0-19.083,15.471-34.521,34.532-34.521
					C1066.083,1003.628,1081.521,1019.077,1081.521,1038.149z"/>
				<path display="inline" fill="none" stroke="#FFFFFF" stroke-miterlimit="10" d="M1021.741,934.596
					c0,19.041-15.47,34.511-34.5,34.511c-19.083,0-34.532-15.47-34.532-34.511c0-19.072,15.449-34.521,34.532-34.521
					C1006.271,900.075,1021.741,915.534,1021.741,934.596z"/>
				<path display="inline" fill="none" stroke="#FFFFFF" stroke-miterlimit="10" d="M902.15,1003.639
					c0,19.041-15.47,34.511-34.501,34.511c-19.083,0-34.532-15.47-34.532-34.511c0-19.072,15.46-34.511,34.532-34.511
					C886.68,969.128,902.15,984.566,902.15,1003.639z"/>
				<path display="inline" fill="none" stroke="#FFFFFF" stroke-miterlimit="10" d="M902.15,1141.692
					c0,19.072-15.47,34.521-34.501,34.521c-19.072,0-34.532-15.459-34.532-34.521c0-19.04,15.46-34.511,34.532-34.511
					C886.669,1107.182,902.15,1122.62,902.15,1141.692z"/>
				<path display="inline" fill="none" stroke="#FFFFFF" stroke-miterlimit="10" d="M1141.333,1141.692
					c0,19.072-15.47,34.521-34.5,34.521c-19.073,0-34.533-15.459-34.533-34.521c0-19.04,15.46-34.521,34.533-34.521
					C1125.863,1107.172,1141.333,1122.62,1141.333,1141.692z"/>
				<path display="inline" fill="none" stroke="#FFFFFF" stroke-miterlimit="10" d="M1141.333,1003.639
					c0,19.041-15.47,34.511-34.511,34.511c-19.063,0-34.532-15.47-34.532-34.511c0-19.072,15.46-34.511,34.532-34.511
					C1125.863,969.128,1141.333,984.566,1141.333,1003.639z"/>
				<path display="inline" fill="none" stroke="#FFFFFF" stroke-miterlimit="10" d="M1021.731,1210.735
					c0,19.051-15.471,34.511-34.5,34.511c-19.104,0-34.543-15.46-34.543-34.511c0-19.094,15.407-34.521,34.543-34.521
					C1006.271,1176.214,1021.731,1191.642,1021.731,1210.735z"/>
			</g>
			<g id="fruit_3_" display="none">
				<path display="inline" fill="none" stroke="#FFFFFF" stroke-miterlimit="10" d="M1004.487,1072.661
					c0,9.552-7.744,17.275-17.27,17.275c-9.562,0-17.285-7.723-17.285-17.275c0-9.542,7.711-17.274,17.285-17.274
					C996.749,1055.386,1004.487,1063.119,1004.487,1072.661z"/>
				<path display="inline" fill="none" stroke="#FFFFFF" stroke-miterlimit="10" d="M1004.487,1038.112
					c0,9.53-7.744,17.274-17.27,17.274c-9.562,0-17.285-7.744-17.285-17.274c0-9.546,7.711-17.274,17.285-17.274
					C996.749,1020.833,1004.487,1028.565,1004.487,1038.112z"/>
				<path display="inline" fill="none" stroke="#FFFFFF" stroke-miterlimit="10" d="M974.559,1055.386
					c0,9.546-7.712,17.269-17.269,17.269c-9.531,0-17.285-7.723-17.285-17.269c0-9.552,7.744-17.279,17.285-17.279
					C966.825,1038.107,974.559,1045.84,974.559,1055.386z"/>
				<path display="inline" fill="none" stroke="#FFFFFF" stroke-miterlimit="10" d="M974.559,1089.939
					c0,9.547-7.712,17.274-17.269,17.274c-9.531,0-17.28-7.728-17.28-17.274c0-9.557,7.744-17.279,17.28-17.279
					C966.831,1072.661,974.559,1080.383,974.559,1089.939z"/>
				<path display="inline" fill="none" stroke="#FFFFFF" stroke-miterlimit="10" d="M1004.487,1107.214
					c0,9.547-7.744,17.279-17.27,17.279c-9.562,0-17.285-7.737-17.285-17.279c0-9.53,7.711-17.278,17.285-17.278
					C996.753,1089.936,1004.487,1097.667,1004.487,1107.214z"/>
				<path display="inline" fill="none" stroke="#FFFFFF" stroke-miterlimit="10" d="M1034.424,1089.939
					c0,9.547-7.718,17.274-17.273,17.274c-9.531,0-17.286-7.728-17.286-17.274c0-9.546,7.744-17.279,17.286-17.279
					C1026.697,1072.661,1034.424,1080.383,1034.424,1089.939z"/>
				<path display="inline" fill="none" stroke="#FFFFFF" stroke-miterlimit="10" d="M1034.424,1055.386
					c0,9.546-7.718,17.269-17.273,17.269c-9.531,0-17.286-7.723-17.286-17.269c0-9.552,7.744-17.279,17.286-17.279
					C1026.697,1038.107,1034.424,1045.84,1034.424,1055.386z"/>
				<path display="inline" fill="none" stroke="#FFFFFF" stroke-miterlimit="10" d="M1004.501,1003.553
					c0,9.531-7.743,17.274-17.269,17.274c-9.552,0-17.285-7.743-17.285-17.274c0-9.546,7.733-17.279,17.285-17.279
					C996.758,986.274,1004.501,994.012,1004.501,1003.553z"/>
				<path display="inline" fill="none" stroke="#FFFFFF" stroke-miterlimit="10" d="M944.642,1038.112
					c0,9.53-7.744,17.274-17.269,17.274c-9.552,0-17.285-7.744-17.285-17.274c0-9.546,7.738-17.274,17.285-17.274
					C936.898,1020.838,944.642,1028.565,944.642,1038.112z"/>
				<path display="inline" fill="none" stroke="#FFFFFF" stroke-miterlimit="10" d="M944.642,1107.214
					c0,9.547-7.744,17.279-17.269,17.279c-9.546,0-17.285-7.737-17.285-17.279c0-9.53,7.738-17.274,17.285-17.274
					C936.893,1089.939,944.642,1097.667,944.642,1107.214z"/>
				<path display="inline" fill="none" stroke="#FFFFFF" stroke-miterlimit="10" d="M1064.363,1107.214
					c0,9.547-7.743,17.279-17.27,17.279c-9.547,0-17.284-7.737-17.284-17.279c0-9.53,7.737-17.278,17.284-17.278
					C1056.62,1089.936,1064.363,1097.667,1064.363,1107.214z"/>
				<path display="inline" fill="none" stroke="#FFFFFF" stroke-miterlimit="10" d="M1064.363,1038.112
					c0,9.53-7.743,17.274-17.274,17.274c-9.542,0-17.284-7.744-17.284-17.274c0-9.546,7.737-17.274,17.284-17.274
					C1056.62,1020.838,1064.363,1028.565,1064.363,1038.112z"/>
				<path display="inline" fill="none" stroke="#FFFFFF" stroke-miterlimit="10" d="M1004.498,1141.772
					c0,9.536-7.744,17.274-17.27,17.274c-9.563,0-17.291-7.738-17.291-17.274c0-9.558,7.712-17.279,17.291-17.279
					C996.758,1124.493,1004.498,1132.215,1004.498,1141.772z"/>
			</g>
			<g id="circles_1_">
				<path fill="none" stroke="#FFFFFF" stroke-miterlimit="10" d="M1023.404,1212.239c0,153.055-123.924,277.137-277.093,277.137
					c-153.078,0-277.366-124.06-277.366-277.137c0-153.215,123.923-277.323,277.366-277.323
					C899.252,934.917,1023.404,1058.979,1023.404,1212.239z"/>
				<path fill="none" stroke="#FFFFFF" stroke-miterlimit="10" d="M1023.268,935.008c0,153.055-123.994,277.139-277.117,277.139
					c-153.123,0-277.32-124.063-277.32-277.139c0-153.239,123.923-277.321,277.32-277.321
					C899.138,657.711,1023.268,781.77,1023.268,935.008z"/>
				<path fill="none" stroke="#FFFFFF" stroke-miterlimit="10" d="M1263.624,1350.739c0,153.079-123.926,277.162-277.436,277.162
					c-153.055,0-277.275-124.039-277.275-277.162c0-153.214,124.151-277.229,277.275-277.229
					C1139.47,1073.441,1263.624,1197.616,1263.624,1350.739z"/>
				<path fill="none" stroke="#FFFFFF" stroke-miterlimit="10" d="M1503.955,1212.239c0,153.055-124.106,277.137-277.435,277.137
					c-153.077,0-277.321-124.036-277.321-277.137c0-153.215,123.925-277.323,277.321-277.323
					C1379.804,934.917,1503.955,1058.979,1503.955,1212.239z"/>
				<path fill="none" stroke="#FFFFFF" stroke-miterlimit="10" d="M1263.624,1073.532c0,153.102-123.926,277.186-277.436,277.186
					c-153.055,0-277.275-124.04-277.275-277.186c0-153.192,124.151-277.275,277.275-277.275
					C1139.47,796.257,1263.624,920.34,1263.624,1073.532z"/>
				<path fill="none" stroke="#FFFFFF" stroke-miterlimit="10" d="M1263.624,796.303c0,153.077-123.926,277.183-277.436,277.183
					c-153.055,0-277.275-124.06-277.275-277.183c0-153.192,124.151-277.276,277.275-277.276
					C1139.47,518.981,1263.624,643.111,1263.624,796.303z"/>
				<path fill="none" stroke="#FFFFFF" stroke-miterlimit="10" d="M1503.727,934.962c0,153.102-123.923,277.186-277.434,277.186
					c-153.055,0-277.276-124.039-277.276-277.186c0-153.192,124.153-277.251,277.276-277.251
					C1379.576,657.688,1503.727,781.77,1503.727,934.962z"/>
				<path fill="none" stroke="#FFFFFF" stroke-miterlimit="10" d="M1023.404,657.756c0,153.077-123.924,277.16-277.184,277.16
					c-153.055,0-277.275-124.038-277.275-277.16c0-153.215,124.151-277.309,277.275-277.309
					C899.252,380.493,1023.404,504.541,1023.404,657.756z"/>
				<path fill="none" stroke="#FFFFFF" stroke-miterlimit="10" d="M783.481,1073.532c0,153.102-123.925,277.162-277.115,277.162
					c-153.078,0-277.344-124.061-277.344-277.162c0-153.214,124.152-277.321,277.344-277.321
					C659.351,796.303,783.481,920.318,783.481,1073.532z"/>
				<path fill="none" stroke="#FFFFFF" stroke-miterlimit="10" d="M1023.541,1489.444c0,153.079-123.924,277.163-277.229,277.163
					c-153.078,0-277.343-124.038-277.343-277.163c0-153.214,124.151-277.297,277.343-277.297
					C899.366,1212.192,1023.541,1336.23,1023.541,1489.444z"/>
				<path fill="none" stroke="#FFFFFF" stroke-miterlimit="10" d="M1503.705,1489.444c0,153.079-123.924,277.163-277.229,277.163
					c-153.078,0-277.459-124.038-277.459-277.163c0-153.214,124.153-277.297,277.459-277.297
					C1379.553,1212.192,1503.705,1336.23,1503.705,1489.444z"/>
				<path fill="none" stroke="#FFFFFF" stroke-miterlimit="10" d="M1743.696,1073.51c0,153.077-123.924,277.161-277.344,277.161
					c-153.077,0-277.343-124.037-277.343-277.161c0-153.215,124.151-277.298,277.343-277.298
					C1619.566,796.257,1743.696,920.272,1743.696,1073.51z"/>
				<path fill="none" stroke="#FFFFFF" stroke-miterlimit="10" d="M1503.819,657.778c0,153.101-123.925,277.184-277.115,277.184
					c-153.077,0-277.458-124.083-277.458-277.184c0-153.191,124.153-277.309,277.458-277.309
					C1379.667,380.538,1503.819,504.587,1503.819,657.778z"/>
			</g>
			<g id="fruit_5_" display="none">
				<path display="inline" fill="none" stroke="#FFFFFF" stroke-miterlimit="10" d="M1056.21,1072.661
					c0,38.174-30.947,69.038-69.018,69.038c-38.216,0-69.08-30.864-69.08-69.038c0-38.133,30.821-69.039,69.08-69.039
					C1025.285,1003.622,1056.21,1034.528,1056.21,1072.661z"/>
				<path display="inline" fill="none" stroke="#FFFFFF" stroke-miterlimit="10" d="M1056.21,934.584
					c0,38.091-30.947,69.038-69.018,69.038c-38.216,0-69.08-30.947-69.08-69.038c0-38.153,30.821-69.038,69.08-69.038
					C1025.285,865.524,1056.21,896.43,1056.21,934.584z"/>
				<path display="inline" fill="none" stroke="#FFFFFF" stroke-miterlimit="10" d="M936.603,1003.622
					c0,38.154-30.822,69.018-69.017,69.018c-38.091,0-69.082-30.863-69.082-69.018c0-38.175,30.948-69.058,69.082-69.058
					C905.697,934.563,936.603,965.469,936.603,1003.622z"/>
				<path display="inline" fill="none" stroke="#FFFFFF" stroke-miterlimit="10" d="M936.603,1141.72
					c0,38.152-30.822,69.037-69.017,69.037c-38.091,0-69.06-30.885-69.06-69.037c0-38.196,30.947-69.059,69.06-69.059
					C905.718,1072.661,936.603,1103.523,936.603,1141.72z"/>
				<path display="inline" fill="none" stroke="#FFFFFF" stroke-miterlimit="10" d="M1056.21,1210.757
					c0,38.154-30.947,69.059-69.018,69.059c-38.216,0-69.08-30.924-69.08-69.059c0-38.089,30.821-69.058,69.08-69.058
					C1025.304,1141.699,1056.21,1172.604,1056.21,1210.757z"/>
				<path display="inline" fill="none" stroke="#FFFFFF" stroke-miterlimit="10" d="M1175.862,1141.72
					c0,38.152-30.843,69.037-69.038,69.037c-38.091,0-69.08-30.885-69.08-69.037c0-38.153,30.947-69.059,69.08-69.059
					C1144.978,1072.661,1175.862,1103.523,1175.862,1141.72z"/>
				<path display="inline" fill="none" stroke="#FFFFFF" stroke-miterlimit="10" d="M1175.862,1003.622
					c0,38.154-30.843,69.018-69.038,69.018c-38.091,0-69.08-30.863-69.08-69.018c0-38.175,30.947-69.058,69.08-69.058
					C1144.978,934.563,1175.862,965.469,1175.862,1003.622z"/>
				<path display="inline" fill="none" stroke="#FFFFFF" stroke-miterlimit="10" d="M1056.273,796.466
					c0,38.091-30.947,69.038-69.017,69.038c-38.175,0-69.08-30.947-69.08-69.038c0-38.153,30.905-69.058,69.08-69.058
					C1025.327,727.408,1056.273,758.333,1056.273,796.466z"/>
				<path display="inline" fill="none" stroke="#FFFFFF" stroke-miterlimit="10" d="M817.036,934.584
					c0,38.091-30.947,69.038-69.018,69.038c-38.174,0-69.08-30.947-69.08-69.038c0-38.153,30.927-69.038,69.08-69.038
					C786.088,865.546,817.036,896.43,817.036,934.584z"/>
				<path display="inline" fill="none" stroke="#FFFFFF" stroke-miterlimit="10" d="M817.036,1210.757
					c0,38.154-30.947,69.059-69.018,69.059c-38.153,0-69.08-30.924-69.08-69.059c0-38.089,30.927-69.037,69.08-69.037
					C786.066,1141.72,817.036,1172.604,817.036,1210.757z"/>
				<path display="inline" fill="none" stroke="#FFFFFF" stroke-miterlimit="10" d="M1295.512,1210.757
					c0,38.154-30.946,69.059-69.016,69.059c-38.155,0-69.082-30.924-69.082-69.059c0-38.089,30.927-69.058,69.082-69.058
					C1264.566,1141.699,1295.512,1172.604,1295.512,1210.757z"/>
				<path display="inline" fill="none" stroke="#FFFFFF" stroke-miterlimit="10" d="M1295.512,934.584
					c0,38.091-30.946,69.038-69.038,69.038c-38.133,0-69.079-30.947-69.079-69.038c0-38.153,30.927-69.038,69.079-69.038
					C1264.566,865.546,1295.512,896.43,1295.512,934.584z"/>
				<path display="inline" fill="none" stroke="#FFFFFF" stroke-miterlimit="10" d="M1056.252,1348.876
					c0,38.11-30.948,69.037-69.017,69.037c-38.216,0-69.102-30.927-69.102-69.037c0-38.196,30.822-69.06,69.102-69.06
					C1025.327,1279.816,1056.252,1310.68,1056.252,1348.876z"/>
			</g>
		</g>
		<g id="sixtyFour" stroke-width="8">
			<g id="_x36__in_1_3_">
				<path fill="none" stroke="#FFFFFF" stroke-miterlimit="10" d="M1263.624,519.072c0,153.101-123.926,277.185-277.436,277.185
					c-153.055,0-277.275-124.061-277.275-277.185c0-153.203,124.151-277.297,277.275-277.297
					C1139.47,241.843,1263.624,365.87,1263.624,519.072z"/>
				<path fill="none" stroke="#FFFFFF" stroke-miterlimit="10" d="M783.413,796.349c0,153.078-123.925,277.093-277.115,277.093
					c-153.077,0-277.39-124.015-277.39-277.093c0-153.214,123.925-277.276,277.39-277.276
					C659.239,519.072,783.413,643.134,783.413,796.349z"/>
				<path fill="none" stroke="#FFFFFF" stroke-miterlimit="10" d="M783.413,1350.739c0,153.079-123.925,277.162-277.069,277.162
					c-153.078,0-277.39-124.083-277.39-277.162c0-153.214,123.925-277.298,277.39-277.298
					C659.262,1073.441,783.413,1197.525,783.413,1350.739z"/>
				<path fill="none" stroke="#FFFFFF" stroke-miterlimit="10" d="M1263.624,1627.946c0,153.078-123.926,277.138-277.436,277.138
					c-153.055,0-277.275-124.037-277.275-277.138c0-153.236,124.151-277.252,277.275-277.252
					C1139.47,1350.671,1263.624,1474.754,1263.624,1627.946z"/>
				<path fill="none" stroke="#FFFFFF" stroke-miterlimit="10" d="M1743.946,1350.739c0,153.079-124.105,277.162-277.435,277.162
					c-153.077,0-277.319-124.039-277.319-277.162c0-153.214,123.923-277.298,277.319-277.298
					C1619.794,1073.441,1743.946,1197.525,1743.946,1350.739z"/>
				<path fill="none" stroke="#FFFFFF" stroke-miterlimit="10" d="M1743.9,796.349c0,153.078-123.899,277.093-277.092,277.093
					c-153.056,0-277.457-124.015-277.457-277.093c0-153.214,124.128-277.276,277.457-277.276
					C1619.772,519.072,1743.9,643.134,1743.9,796.349z"/>
			</g>
			<g id="big_star_1_">
				<line fill="none" stroke="#FFFFFF" stroke-miterlimit="10" x1="986.506" y1="241.775" x2="266.237" y2="1487.874"/>
				<line fill="none" stroke="#FFFFFF" stroke-miterlimit="10" x1="266.237" y1="1487.874" x2="1705.933" y2="1487.874"/>
				<line fill="none" stroke="#FFFFFF" stroke-miterlimit="10" x1="1705.933" y1="1487.874" x2="986.506" y2="241.775"/>
				<line fill="none" stroke="#FFFFFF" stroke-miterlimit="10" x1="267.832" y1="659.19" x2="986.506" y2="1905.084"/>
				<line fill="none" stroke="#FFFFFF" stroke-miterlimit="10" x1="986.506" y1="1905.084" x2="1706.798" y2="658.326"/>
				<line fill="none" stroke="#FFFFFF" stroke-miterlimit="10" x1="1706.798" y1="658.326" x2="267.832" y2="659.19"/>
				<line fill="none" stroke="#FFFFFF" stroke-miterlimit="10" x1="746.22" y1="380.447" x2="1226.704" y2="380.447"/>
				<line fill="none" stroke="#FFFFFF" stroke-miterlimit="10" x1="1226.704" y1="380.447" x2="986.438" y2="796.27"/>
				<line fill="none" stroke="#FFFFFF" stroke-miterlimit="10" x1="986.438" y1="796.27" x2="746.22" y2="380.447"/>
				<line fill="none" stroke="#FFFFFF" stroke-miterlimit="10" x1="506.297" y1="519.072" x2="266.237" y2="929.039"/>
				<line fill="none" stroke="#FFFFFF" stroke-miterlimit="10" x1="266.237" y1="929.039" x2="746.22" y2="934.917"/>
				<line fill="none" stroke="#FFFFFF" stroke-miterlimit="10" x1="746.22" y1="934.917" x2="506.297" y2="519.072"/>
				<line fill="none" stroke="#FFFFFF" stroke-miterlimit="10" x1="268.507" y1="1212.174" x2="496.214" y2="1625.124"/>
				<line fill="none" stroke="#FFFFFF" stroke-miterlimit="10" x1="496.214" y1="1625.124" x2="746.311" y2="1212.147"/>
				<line fill="none" stroke="#FFFFFF" stroke-miterlimit="10" x1="746.311" y1="1212.147" x2="268.507" y2="1212.147"/>
				<line fill="none" stroke="#FFFFFF" stroke-miterlimit="10" x1="751.977" y1="1766.652" x2="986.188" y2="1350.694"/>
				<line fill="none" stroke="#FFFFFF" stroke-miterlimit="10" x1="986.188" y1="1350.694" x2="1226.476" y2="1766.607"/>
				<line fill="none" stroke="#FFFFFF" stroke-miterlimit="10" x1="1226.476" y1="1766.607" x2="751.977" y2="1766.652"/>
				<line fill="none" stroke="#FFFFFF" stroke-miterlimit="10" x1="1706.798" y1="1213.911" x2="1466.511" y2="1627.901"/>
				<line fill="none" stroke="#FFFFFF" stroke-miterlimit="10" x1="1466.511" y1="1627.901" x2="1226.476" y2="1212.147"/>
				<line fill="none" stroke="#FFFFFF" stroke-miterlimit="10" x1="1226.476" y1="1212.147" x2="1706.798" y2="1213.911"/>
				<line fill="none" stroke="#FFFFFF" stroke-miterlimit="10" x1="1466.808" y1="519.072" x2="1226.704" y2="934.962"/>
				<line fill="none" stroke="#FFFFFF" stroke-miterlimit="10" x1="1226.704" y1="934.962" x2="1706.798" y2="935.176"/>
				<line fill="none" stroke="#FFFFFF" stroke-miterlimit="10" x1="1706.798" y1="935.176" x2="1466.808" y2="519.072"/>
			</g>
			<g id="borders_8_">
				<path fill="none" stroke="#FFFFFF" stroke-miterlimit="10" d="M987.099,242.867c458.8,0,830.733,371.933,830.733,830.733
					c0,458.8-371.934,830.71-830.733,830.71c-458.8,0-830.733-371.91-830.733-830.71C156.366,614.8,528.299,242.867,987.099,242.867
					z"/>
			</g>
			<g>
				<circle fill="none" stroke="#FFFFFF" stroke-miterlimit="10" cx="986.188" cy="1073.486" r="277.063"/>
				<line fill="none" stroke="#FFFFFF" stroke-miterlimit="10" x1="1226.704" y1="934.962" x2="986.188" y2="1350.549"/>
				<line fill="none" stroke="#FFFFFF" stroke-miterlimit="10" x1="986.188" y1="1350.549" x2="746.22" y2="934.917"/>
				<line fill="none" stroke="#FFFFFF" stroke-miterlimit="10" x1="746.22" y1="934.917" x2="1226.704" y2="934.962"/>
				<line fill="none" stroke="#FFFFFF" stroke-miterlimit="10" x1="986.438" y1="796.27" x2="1226.476" y2="1212.147"/>
				<line fill="none" stroke="#FFFFFF" stroke-miterlimit="10" x1="1226.476" y1="1212.147" x2="746.311" y2="1212.147"/>
				<line fill="none" stroke="#FFFFFF" stroke-miterlimit="10" x1="746.311" y1="1212.147" x2="986.438" y2="796.27"/>
			</g>
		</g>
	<g id="hexagon" stroke-width="8" stroke-opacity="0">
		<polygon fill="#FFFFFF" fill-opacity="0" stroke="#FFE86D" stroke-miterlimit="10" points="-7, 507 
			834, 21 1675, 507 1675, 1478 834, 1963 -7, 1478"/>
	</g>
	</g>
</g>
</svg>
