<?xml version="1.0" encoding="utf-8"?>
<!-- Generator: Adobe Illustrator 16.0.0, SVG Export Plug-In . SVG Version: 6.00 Build 0)  -->
<!DOCTYPE svg PUBLIC "-//W3C//DTD SVG 1.1//EN" "http://www.w3.org/Graphics/SVG/1.1/DTD/svg11.dtd">
<svg version="1.1" id="Layer_1" xmlns="http://www.w3.org/2000/svg" xmlns:xlink="http://www.w3.org/1999/xlink" x="0px" y="0px"
	 width="1683.969px" height="1984.252px" viewBox="150.126 0 1683.969 1984.252"
	 enable-background="new 150.126 0 1683.969 1984.252" xml:space="preserve">

	 	 <style>
		#hexagon, #sixtyFour, #fruit {
			cursor: pointer;
			transition: 0.2s;
		}
	 </style>

<g id="_x36_4Tetra3DFullGroup">
	<g id="back" display="none">
		<rect id="image" x="150.126" y="-13.988" display="inline" fill="#130E22" width="1683.969" height="2012.229"/>
	</g>
	<g id="sixtyFour" stroke-width="8">
		<g>
			
				<rect x="509.861" y="509.195" transform="matrix(0.0014 1 -1 0.0014 1983.412 -2.0529)" fill="none" stroke="#FFFFFF" width="965.746" height="965.746"/>
			<line fill="none" stroke="#FFFFFF" x1="750.62" y1="509.535" x2="751.974" y2="1475.279"/>
			<line fill="none" stroke="#FFFFFF" x1="992.055" y1="509.196" x2="993.408" y2="1474.942"/>
			<line fill="none" stroke="#FFFFFF" x1="1233.492" y1="508.858" x2="1234.845" y2="1474.604"/>
			<line fill="none" stroke="#FFFFFF" x1="1475.943" y1="1232.829" x2="510.197" y2="1234.182"/>
			<line fill="none" stroke="#FFFFFF" x1="1475.605" y1="991.394" x2="509.859" y2="992.748"/>
			<line fill="none" stroke="#FFFFFF" x1="1475.267" y1="749.958" x2="509.522" y2="751.31"/>
			<line fill="none" stroke="#FFFFFF" x1="993.408" y1="1474.942" x2="1475.605" y2="991.394"/>
			<line fill="none" stroke="#FFFFFF" x1="510.537" y1="1475.618" x2="1474.929" y2="508.521"/>
			<line fill="none" stroke="#FFFFFF" x1="992.055" y1="509.196" x2="509.859" y2="992.748"/>
			<line fill="none" stroke="#FFFFFF" x1="1476.28" y1="1474.266" x2="509.183" y2="509.873"/>
			<line fill="none" stroke="#FFFFFF" x1="1475.605" y1="991.394" x2="992.055" y2="509.196"/>
			<line fill="none" stroke="#FFFFFF" x1="509.859" y1="992.748" x2="993.408" y2="1474.942"/>
			<circle id="circle_5_" fill="none" stroke="#FFFFFF" cx="992.126" cy="992.126" r="726.798"/>
		</g>
	</g>
	<g id="fruit" stroke-width="2">
		<g>
			<path fill="none" stroke="#FFFFFF" d="M1153.458,992.206c0,89.435-72.331,161.333-161.343,161.333
				c-89.193,0-161.344-72.322-161.344-161.333c0-89.253,72.271-161.354,161.344-161.354
				C1081.207,830.731,1153.458,902.952,1153.458,992.206z"/>
			<path fill="none" stroke="#FFFFFF" d="M1153.458,669.317c0,89.213-72.331,161.333-161.343,161.333
				c-89.193,0-161.344-72.321-161.344-161.333c0-89.454,72.271-161.354,161.344-161.354
				C1081.207,507.883,1153.458,580.165,1153.458,669.317z"/>
			<path fill="none" stroke="#FFFFFF" d="M873.874,830.731c0,89.272-72.331,161.353-161.344,161.353
				c-89.284,0-161.345-72.34-161.345-161.354c0-89.213,72.332-161.332,161.345-161.332
				C801.563,669.277,873.874,741.518,873.874,830.731z"/>
			<path fill="none" stroke="#FFFFFF" d="M873.874,1153.598c0,89.354-72.331,161.335-161.344,161.335
				c-89.284,0-161.345-72.341-161.345-161.335c0-89.392,72.332-161.352,161.345-161.352
				C801.563,992.146,873.874,1064.307,873.874,1153.598z"/>
			<path fill="none" stroke="#FFFFFF" d="M1153.458,1314.993c0,89.452-72.331,161.354-161.343,161.354
				c-89.193,0-161.344-72.341-161.344-161.354c0-89.415,72.271-161.335,161.344-161.335
				C1081.207,1153.561,1153.458,1225.78,1153.458,1314.993z"/>
			<path fill="none" stroke="#FFFFFF" d="M1433.124,1153.598c0,89.354-72.331,161.335-161.344,161.335
				c-89.193,0-161.345-72.341-161.345-161.335c0-89.352,72.332-161.352,161.345-161.352S1433.124,1064.345,1433.124,1153.598z"/>
			<path fill="none" stroke="#FFFFFF" d="M1433.124,830.731c0,89.272-72.331,161.353-161.344,161.353
				c-89.193,0-161.345-72.34-161.345-161.354c0-89.213,72.332-161.332,161.345-161.332
				C1360.793,669.377,1433.124,741.518,1433.124,830.731z"/>
			<path fill="none" stroke="#FFFFFF" d="M1153.559,346.53c0,89.113-72.331,161.334-161.343,161.334
				c-89.424,0-161.345-72.322-161.345-161.334c0-89.453,72.333-161.535,161.345-161.535
				C1081.327,185.056,1153.559,257.256,1153.559,346.53z"/>
			<path fill="none" stroke="#FFFFFF" d="M594.278,669.357c0,89.152-72.331,161.334-161.345,161.334
				c-89.214,0-161.345-72.321-161.345-161.334c0-89.232,72.332-161.354,161.345-161.354
				C521.966,507.883,594.278,580.165,594.278,669.357z"/>
			<path fill="none" stroke="#FFFFFF" d="M594.278,1314.993c0,89.452-72.331,161.354-161.345,161.354
				c-89.214,0-161.345-72.341-161.345-161.354c0-89.415,72.332-161.335,161.345-161.335
				C521.947,1153.658,594.278,1225.78,594.278,1314.993z"/>
			<path fill="none" stroke="#FFFFFF" d="M1712.86,1314.993c0,89.452-72.333,161.354-161.345,161.354
				c-89.443,0-161.442-72.341-161.442-161.354c0-89.415,72.331-161.335,161.442-161.335
				C1640.527,1153.561,1712.86,1225.78,1712.86,1314.993z"/>
			<path fill="none" stroke="#FFFFFF" d="M1712.86,669.357c0,89.213-72.333,161.334-161.345,161.334
				c-89.443,0-161.442-72.321-161.442-161.334c0-89.232,72.331-161.354,161.442-161.354
				C1640.527,507.924,1712.86,580.165,1712.86,669.357z"/>
			<path fill="none" stroke="#FFFFFF" d="M1153.52,1637.779c0,89.174-72.332,161.354-161.344,161.354
				c-89.444,0-161.344-72.341-161.344-161.354c0-89.436,72.291-161.354,161.344-161.354
				C1081.288,1476.388,1153.52,1548.626,1153.52,1637.779z"/>
		</g>
	</g>
	<g id="hexagon" stroke-width="8" stroke-opacity="0">
		<polygon fill="#FFFFFF" fill-opacity="0" stroke="#ffe86d" stroke-miterlimit="10" points="151.141,506.58 
			992.121,21.034 1833.111,506.58 1833.111,1477.672 992.121,1963.218 151.141,1477.672 		"/>
	</g>
</g>
</svg>
