<?xml version="1.0" encoding="utf-8"?>
<!-- Generator: Adobe Illustrator 16.0.0, SVG Export Plug-In . SVG Version: 6.00 Build 0)  -->
<!DOCTYPE svg PUBLIC "-//W3C//DTD SVG 1.1//EN" "http://www.w3.org/Graphics/SVG/1.1/DTD/svg11.dtd">
<svg version="1.1" id="Layer_1" xmlns="http://www.w3.org/2000/svg" xmlns:xlink="http://www.w3.org/1999/xlink" x="0px" y="0px"
	 width="1687px" height="1984px" viewBox="143.599 81.429 1687 1984" enable-background="new 143.599 81.429 1687 1984"
	 xml:space="preserve">
<g id="Layer_1_1_">
	<g id="_x36_4Tetra3DFullGroup">
		<g id="back">
			<rect id="image" x="143.6" y="87.039" display="none" fill="#130E22" width="1687" height="1976.637"/>
		</g>
		<g id="fruit" stroke-width="2">
			<g id="geo">
				<path fill="none" stroke="#FFFFFF" stroke-miterlimit="10" d="M1264.013,1073.472c0,153.09-123.987,276.825-276.772,276.825
					c-153.195,0-277.015-123.735-277.015-276.825c0-152.921,123.525-276.825,277.015-276.825
					C1140.026,796.604,1264.013,920.55,1264.013,1073.472z"/>
				<path fill="none" stroke="#FFFFFF" stroke-miterlimit="10" d="M1264.013,1627.206c0,153.217-123.987,276.825-276.772,276.825
					c-153.195,0-277.015-123.524-277.015-276.825c0-152.921,123.525-276.825,277.015-276.825
					C1140.026,1350.339,1264.013,1474.285,1264.013,1627.206z"/>
				<path fill="none" stroke="#FFFFFF" stroke-miterlimit="10" d="M1264.013,519.779c0,153.09-123.987,276.825-276.772,276.825
					c-153.195,0-277.015-123.735-277.015-276.825c0-152.921,123.525-276.825,277.015-276.825
					C1140.026,242.912,1264.013,366.858,1264.013,519.779z"/>
				<path fill="none" stroke="#FFFFFF" stroke-miterlimit="10" d="M1743.709,796.604c0,153.09-123.946,276.825-276.783,276.825
					c-153.175,0-277.162-123.735-277.162-276.825c0-152.921,123.608-276.825,277.162-276.825
					C1619.721,519.737,1743.709,643.683,1743.709,796.604z"/>
				<path fill="none" stroke="#FFFFFF" stroke-miterlimit="10" d="M784.455,796.646c0,153.09-123.946,276.825-276.762,276.825
					c-153.153,0-276.994-123.735-276.994-276.825c0-152.921,123.525-276.825,276.994-276.825
					C660.488,519.821,784.455,643.768,784.455,796.646z"/>
				<path fill="none" stroke="#FFFFFF" stroke-miterlimit="10" d="M784.455,1350.297c0,153.09-123.946,276.825-276.762,276.825
					c-153.153,0-276.994-123.524-276.994-276.825c0-152.921,123.525-276.825,276.994-276.825
					C660.488,1073.43,784.455,1197.376,784.455,1350.297z"/>
				<path fill="none" stroke="#FFFFFF" stroke-miterlimit="10" d="M1743.709,1350.297c0,153.09-123.946,276.825-276.783,276.825
					c-153.175,0-277.162-123.524-277.162-276.825c0-152.921,123.608-276.825,277.162-276.825
					C1619.721,1073.43,1743.709,1197.376,1743.709,1350.297z"/>
				<path fill="none" stroke="#FFFFFF" stroke-miterlimit="10" d="M1817.833,1073.472c0,459.228-371.88,830.56-830.381,830.56
					c-459.543,0-831.086-371.332-831.086-830.56c0-458.806,370.89-830.56,831.086-830.56
					C1445.869,242.87,1817.833,614.666,1817.833,1073.472z"/>
			</g>
		</g>
		<g id="sixtyFour" stroke-width="8">
			<g id="fruit_13_">
				<path fill="none" stroke="#FFFFFF" stroke-miterlimit="10" d="M1125.538,1073.472c0,76.524-61.994,138.392-138.36,138.392
					c-76.608,0-138.497-61.867-138.497-138.392c0-76.439,61.531-138.392,138.497-138.392
					C1063.543,935.08,1125.538,997.032,1125.538,1073.472z"/>
				<path fill="none" stroke="#FFFFFF" stroke-miterlimit="10" d="M1125.538,796.688c0,76.482-61.994,138.392-138.36,138.392
					c-76.608,0-138.497-61.91-138.497-138.392c0-76.523,61.531-138.434,138.497-138.434
					C1063.543,658.213,1125.538,720.165,1125.538,796.688z"/>
				<path fill="none" stroke="#FFFFFF" stroke-miterlimit="10" d="M885.785,935.08c0,76.482-61.804,138.392-138.371,138.392
					c-76.545,0-138.476-61.91-138.476-138.392c0-76.523,61.931-138.476,138.476-138.476
					C823.791,796.604,885.785,858.599,885.785,935.08z"/>
				<path fill="none" stroke="#FFFFFF" stroke-miterlimit="10" d="M885.785,1211.905c0,76.481-61.804,138.434-138.371,138.434
					c-76.46,0-138.455-61.952-138.455-138.434c0-76.523,61.952-138.434,138.455-138.434
					C823.791,1073.472,885.785,1135.382,885.785,1211.905z"/>
				<path fill="none" stroke="#FFFFFF" stroke-miterlimit="10" d="M1125.538,1350.339c0,76.482-61.952,138.434-138.36,138.434
					c-76.608,0-138.497-61.994-138.497-138.434c0-76.481,61.531-138.476,138.497-138.476
					C1063.585,1211.863,1125.538,1273.857,1125.538,1350.339z"/>
				<path fill="none" stroke="#FFFFFF" stroke-miterlimit="10" d="M1365.385,1211.905c0,76.481-61.825,138.434-138.392,138.434
					c-76.481,0-138.476-61.952-138.476-138.434s61.994-138.434,138.476-138.434
					C1303.434,1073.472,1365.385,1135.382,1365.385,1211.905z"/>
				<path fill="none" stroke="#FFFFFF" stroke-miterlimit="10" d="M1365.385,935.08c0,76.482-61.825,138.392-138.392,138.392
					c-76.481,0-138.476-61.91-138.476-138.392c0-76.523,61.994-138.476,138.476-138.476
					C1303.434,796.604,1365.385,858.599,1365.385,935.08z"/>
				<path fill="none" stroke="#FFFFFF" stroke-miterlimit="10" d="M1125.665,519.779c0,76.481-61.994,138.434-138.36,138.434
					c-76.524,0-138.497-61.952-138.497-138.434c0-76.482,61.973-138.434,138.497-138.434
					C1063.628,381.346,1125.665,443.34,1125.665,519.779z"/>
				<path fill="none" stroke="#FFFFFF" stroke-miterlimit="10" d="M646.021,796.688c0,76.482-61.994,138.392-138.392,138.392
					c-76.502,0-138.476-61.952-138.476-138.392c0-76.523,61.994-138.434,138.476-138.434
					C584.006,658.255,646.021,720.207,646.021,796.688z"/>
				<path fill="none" stroke="#FFFFFF" stroke-miterlimit="10" d="M646.021,1350.339c0,76.482-61.994,138.434-138.392,138.434
					c-76.46,0-138.476-61.994-138.476-138.434c0-76.481,61.994-138.434,138.476-138.434
					C583.985,1211.905,646.021,1273.857,646.021,1350.339z"/>
				<path fill="none" stroke="#FFFFFF" stroke-miterlimit="10" d="M1605.276,1350.339c0,76.482-61.994,138.434-138.392,138.434
					c-76.482,0-138.477-61.994-138.477-138.434c0-76.481,61.994-138.476,138.477-138.476
					C1543.24,1211.863,1605.276,1273.857,1605.276,1350.339z"/>
				<path fill="none" stroke="#FFFFFF" stroke-miterlimit="10" d="M1605.276,796.688c0,76.482-62.036,138.392-138.434,138.392
					c-76.44,0-138.477-61.91-138.477-138.392c0-76.523,62.036-138.434,138.477-138.434
					C1543.24,658.255,1605.276,720.207,1605.276,796.688z"/>
				<path fill="none" stroke="#FFFFFF" stroke-miterlimit="10" d="M1125.623,1627.249c0,76.397-61.994,138.392-138.36,138.392
					c-76.587,0-138.539-61.994-138.539-138.392c0-76.566,61.531-138.477,138.539-138.477
					C1063.628,1488.772,1125.623,1550.683,1125.623,1627.249z"/>
			</g>
			<g id="fruit_12_">
				<path fill="none" stroke="#FFFFFF" stroke-miterlimit="10" d="M1056.384,1073.472c0,38.283-31.039,69.196-69.186,69.196
					c-38.304,0-69.238-30.913-69.238-69.196c0-38.199,30.892-69.196,69.238-69.196
					C1025.387,1004.276,1056.384,1035.273,1056.384,1073.472z"/>
				<path fill="none" stroke="#FFFFFF" stroke-miterlimit="10" d="M1056.384,935.08c0,38.199-31.039,69.196-69.186,69.196
					c-38.304,0-69.238-30.997-69.238-69.196c0-38.241,30.892-69.195,69.238-69.195
					C1025.387,865.885,1056.384,896.839,1056.384,935.08z"/>
				<path fill="none" stroke="#FFFFFF" stroke-miterlimit="10" d="M936.492,1004.276c0,38.241-30.892,69.196-69.175,69.196
					c-38.178,0-69.238-30.955-69.238-69.196s31.018-69.196,69.238-69.196C905.516,935.08,936.492,966.035,936.492,1004.276z"/>
				<path fill="none" stroke="#FFFFFF" stroke-miterlimit="10" d="M936.492,1142.71c0,38.24-30.892,69.195-69.175,69.195
					c-38.178,0-69.217-30.955-69.217-69.195c0-38.283,31.018-69.238,69.217-69.238
					C905.537,1073.472,936.492,1104.427,936.492,1142.71z"/>
				<path fill="none" stroke="#FFFFFF" stroke-miterlimit="10" d="M1056.384,1211.905c0,38.241-31.039,69.196-69.186,69.196
					c-38.304,0-69.238-30.997-69.238-69.196c0-38.198,30.892-69.237,69.238-69.237
					C1025.387,1142.668,1056.384,1173.665,1056.384,1211.905z"/>
				<path fill="none" stroke="#FFFFFF" stroke-miterlimit="10" d="M1176.287,1142.71c0,38.24-30.912,69.195-69.195,69.195
					c-38.156,0-69.238-30.955-69.238-69.195c0-38.241,31.039-69.238,69.238-69.238
					C1145.333,1073.472,1176.287,1104.427,1176.287,1142.71z"/>
				<path fill="none" stroke="#FFFFFF" stroke-miterlimit="10" d="M1176.287,1004.276c0,38.241-30.912,69.196-69.195,69.196
					c-38.156,0-69.238-30.955-69.238-69.196s31.039-69.196,69.238-69.196C1145.333,935.08,1176.287,966.035,1176.287,1004.276z"/>
				<path fill="none" stroke="#FFFFFF" stroke-miterlimit="10" d="M1056.426,796.646c0,38.199-30.997,69.196-69.164,69.196
					c-38.262,0-69.238-30.997-69.238-69.196c0-38.241,30.976-69.196,69.238-69.196
					C1025.429,727.451,1056.426,758.448,1056.426,796.646z"/>
				<path fill="none" stroke="#FFFFFF" stroke-miterlimit="10" d="M816.652,935.08c0,38.199-31.018,69.196-69.175,69.196
					c-38.262,0-69.238-30.997-69.238-69.196c0-38.241,30.997-69.195,69.238-69.195C785.634,865.885,816.652,896.839,816.652,935.08z
					"/>
				<path fill="none" stroke="#FFFFFF" stroke-miterlimit="10" d="M816.652,1211.905c0,38.241-31.018,69.196-69.175,69.196
					c-38.241,0-69.238-30.997-69.238-69.196c0-38.198,30.997-69.195,69.238-69.195
					C785.613,1142.71,816.652,1173.665,816.652,1211.905z"/>
				<path fill="none" stroke="#FFFFFF" stroke-miterlimit="10" d="M1296.232,1211.905c0,38.241-31.039,69.196-69.195,69.196
					c-38.241,0-69.238-30.997-69.238-69.196c0-38.198,30.997-69.237,69.238-69.237
					C1265.193,1142.668,1296.232,1173.665,1296.232,1211.905z"/>
				<path fill="none" stroke="#FFFFFF" stroke-miterlimit="10" d="M1296.232,935.08c0,38.199-31.039,69.196-69.195,69.196
					c-38.241,0-69.238-30.997-69.238-69.196c0-38.241,30.997-69.195,69.238-69.195
					C1265.193,865.885,1296.232,896.839,1296.232,935.08z"/>
				<path fill="none" stroke="#FFFFFF" stroke-miterlimit="10" d="M1056.426,1350.339c0,38.199-31.039,69.196-69.186,69.196
					c-38.304,0-69.259-30.997-69.259-69.196c0-38.282,30.892-69.237,69.259-69.237
					C1025.429,1281.102,1056.426,1312.057,1056.426,1350.339z"/>
			</g>
			<g id="fruit_11_">
				<path fill="none" stroke="#FFFFFF" stroke-miterlimit="10" d="M1535.912,796.688c0,38.157-30.997,69.196-68.859,69.196
					c-38.283,0-69.574-31.04-69.574-69.196c0-38.241,30.996-69.195,69.574-69.195
					C1504.915,727.493,1535.912,758.448,1535.912,796.688z"/>
				<path fill="none" stroke="#FFFFFF" stroke-miterlimit="10" d="M1535.912,658.297c0,38.157-30.997,69.196-68.859,69.196
					c-38.283,0-69.574-31.04-69.574-69.196c0-38.241,30.996-69.195,69.574-69.195
					C1504.915,589.059,1535.912,620.056,1535.912,658.297z"/>
				<path fill="none" stroke="#FFFFFF" stroke-miterlimit="10" d="M1416.05,727.493c0,38.156-30.912,69.153-69.195,69.153
					c-38.157,0-69.238-30.997-69.238-69.153c0-38.283,31.039-69.238,69.238-69.238
					C1385.053,658.255,1416.05,689.252,1416.05,727.493z"/>
				<path fill="none" stroke="#FFFFFF" stroke-miterlimit="10" d="M1416.05,865.885c0,38.198-30.912,69.195-69.195,69.195
					c-38.157,0-69.196-30.997-69.196-69.195c0-38.283,30.997-69.196,69.196-69.196
					C1385.095,796.688,1416.05,827.602,1416.05,865.885z"/>
				<path fill="none" stroke="#FFFFFF" stroke-miterlimit="10" d="M1535.912,935.08c0,38.199-30.997,69.238-68.859,69.238
					c-38.283,0-69.574-30.997-69.574-69.238c0-38.199,30.996-69.195,69.574-69.195
					C1504.957,865.885,1535.912,896.881,1535.912,935.08z"/>
				<path fill="none" stroke="#FFFFFF" stroke-miterlimit="10" d="M1655.856,865.885c0,38.198-30.912,69.195-69.195,69.195
					c-38.241,0-69.238-30.997-69.238-69.195c0-38.241,30.997-69.196,69.238-69.196
					C1624.859,796.688,1655.856,827.602,1655.856,865.885z"/>
				<path fill="none" stroke="#FFFFFF" stroke-miterlimit="10" d="M1655.856,727.493c0,38.156-30.912,69.153-69.195,69.153
					c-38.241,0-69.238-30.997-69.238-69.153c0-38.283,30.997-69.238,69.238-69.238
					C1624.859,658.255,1655.856,689.252,1655.856,727.493z"/>
				<path fill="none" stroke="#FFFFFF" stroke-miterlimit="10" d="M1535.996,519.863c0,38.157-31.039,69.196-69.195,69.196
					c-38.241,0-69.238-31.039-69.238-69.196c0-38.241,30.997-69.238,69.238-69.238
					C1504.957,450.625,1535.996,481.623,1535.996,519.863z"/>
				<path fill="none" stroke="#FFFFFF" stroke-miterlimit="10" d="M1296.19,658.297c0,38.157-30.997,69.196-69.196,69.196
					c-38.24,0-69.237-31.04-69.237-69.196c0-38.241,30.997-69.195,69.237-69.195C1265.193,589.102,1296.19,620.056,1296.19,658.297z
					"/>
				<path fill="none" stroke="#FFFFFF" stroke-miterlimit="10" d="M1775.801,935.08c0,38.199-30.997,69.238-69.196,69.238
					c-38.198,0-69.237-30.997-69.237-69.238c0-38.199,30.997-69.195,69.237-69.195
					C1744.762,865.885,1775.801,896.881,1775.801,935.08z"/>
				<path fill="none" stroke="#FFFFFF" stroke-miterlimit="10" d="M1775.801,658.297c0,38.157-30.997,69.196-69.196,69.196
					c-38.198,0-69.279-31.04-69.279-69.196c0-38.241,31.039-69.195,69.279-69.195
					C1744.762,589.102,1775.801,620.056,1775.801,658.297z"/>
				<path fill="none" stroke="#FFFFFF" stroke-miterlimit="10" d="M1535.954,1073.514c0,38.199-30.997,69.196-69.153,69.196
					c-38.283,0-69.28-30.997-69.28-69.196c0-38.283,30.912-69.195,69.28-69.195
					C1504.957,1004.318,1535.954,1035.273,1535.954,1073.514z"/>
			</g>
			<g id="fruit_10_">
				<path fill="none" stroke="#FFFFFF" stroke-miterlimit="10" d="M1535.996,1350.381c0,38.283-31.039,69.196-69.195,69.196
					c-38.283,0-69.238-30.913-69.238-69.196c0-38.156,30.87-69.195,69.238-69.195
					C1504.999,1281.186,1535.996,1312.183,1535.996,1350.381z"/>
				<path fill="none" stroke="#FFFFFF" stroke-miterlimit="10" d="M1535.996,1211.989c0,38.241-31.039,69.196-69.195,69.196
					c-38.283,0-69.238-30.955-69.238-69.196c0-38.156,30.87-69.195,69.238-69.195
					C1504.999,1142.794,1535.996,1173.749,1535.996,1211.989z"/>
				<path fill="none" stroke="#FFFFFF" stroke-miterlimit="10" d="M1416.092,1281.186c0,38.241-30.87,69.195-69.153,69.195
					c-38.156,0-69.238-30.954-69.238-69.195c0-38.156,31.039-69.196,69.238-69.196
					C1385.095,1211.989,1416.092,1242.944,1416.092,1281.186z"/>
				<path fill="none" stroke="#FFFFFF" stroke-miterlimit="10" d="M1416.092,1419.619c0,38.241-30.87,69.195-69.153,69.195
					c-38.156,0-69.238-30.954-69.238-69.195c0-38.199,31.039-69.238,69.238-69.238
					C1385.095,1350.381,1416.092,1381.336,1416.092,1419.619z"/>
				<path fill="none" stroke="#FFFFFF" stroke-miterlimit="10" d="M1535.996,1488.814c0,38.241-31.039,69.196-69.195,69.196
					c-38.283,0-69.238-30.997-69.238-69.196c0-38.198,30.87-69.237,69.238-69.237
					C1504.999,1419.577,1535.996,1450.574,1535.996,1488.814z"/>
				<path fill="none" stroke="#FFFFFF" stroke-miterlimit="10" d="M1655.898,1419.619c0,38.241-30.912,69.195-69.195,69.195
					c-38.156,0-69.238-30.954-69.238-69.195c0-38.199,31.039-69.238,69.238-69.238
					C1624.944,1350.381,1655.898,1381.336,1655.898,1419.619z"/>
				<path fill="none" stroke="#FFFFFF" stroke-miterlimit="10" d="M1655.898,1281.186c0,38.241-30.912,69.195-69.195,69.195
					c-38.156,0-69.238-30.954-69.238-69.195c0-38.156,31.039-69.196,69.238-69.196
					C1624.944,1211.989,1655.898,1242.944,1655.898,1281.186z"/>
				<path fill="none" stroke="#FFFFFF" stroke-miterlimit="10" d="M1536.038,1073.556c0,38.241-30.997,69.196-69.153,69.196
					c-38.283,0-69.28-30.955-69.28-69.196c0-38.156,30.997-69.195,69.28-69.195
					C1505.041,1004.36,1536.038,1035.357,1536.038,1073.556z"/>
				<path fill="none" stroke="#FFFFFF" stroke-miterlimit="10" d="M1296.232,1488.814c0,38.241-30.997,69.196-69.153,69.196
					c-38.241,0-69.238-30.997-69.238-69.196c0-38.198,30.997-69.195,69.238-69.195
					C1265.235,1419.619,1296.232,1450.574,1296.232,1488.814z"/>
				<path fill="none" stroke="#FFFFFF" stroke-miterlimit="10" d="M1775.843,1488.814c0,38.241-31.039,69.196-69.195,69.196
					c-38.241,0-69.238-30.997-69.238-69.196c0-38.198,30.997-69.237,69.238-69.237
					C1744.804,1419.577,1775.843,1450.574,1775.843,1488.814z"/>
				<path fill="none" stroke="#FFFFFF" stroke-miterlimit="10" d="M1775.843,1211.989c0,38.241-31.039,69.196-69.195,69.196
					c-38.241,0-69.238-30.955-69.238-69.196c0-38.156,30.997-69.195,69.238-69.195
					C1744.804,1142.794,1775.843,1173.749,1775.843,1211.989z"/>
				<path fill="none" stroke="#FFFFFF" stroke-miterlimit="10" d="M1536.038,1627.249c0,38.198-31.039,69.195-69.195,69.195
					c-38.283,0-69.238-30.997-69.238-69.195c0-38.199,30.87-69.238,69.238-69.238
					C1505.041,1558.011,1536.038,1588.966,1536.038,1627.249z"/>
			</g>
			<g id="fruit_9_">
				<path fill="none" stroke="#FFFFFF" stroke-miterlimit="10" d="M1056.384,1627.122c0,38.241-31.039,69.196-69.186,69.196
					c-38.304,0-69.238-30.955-69.238-69.196c0-38.198,30.892-69.195,69.238-69.195
					C1025.387,1557.927,1056.384,1588.881,1056.384,1627.122z"/>
				<path fill="none" stroke="#FFFFFF" stroke-miterlimit="10" d="M1056.384,1488.73c0,38.241-31.039,69.196-69.186,69.196
					c-38.304,0-69.238-30.955-69.238-69.196c0-38.198,30.892-69.195,69.238-69.195
					C1025.387,1419.493,1056.384,1450.49,1056.384,1488.73z"/>
				<path fill="none" stroke="#FFFFFF" stroke-miterlimit="10" d="M936.492,1557.927c0,38.24-30.892,69.153-69.175,69.153
					c-38.178,0-69.238-30.913-69.238-69.153c0-38.199,31.018-69.238,69.238-69.238
					C905.516,1488.688,936.492,1519.686,936.492,1557.927z"/>
				<path fill="none" stroke="#FFFFFF" stroke-miterlimit="10" d="M936.492,1696.318c0,38.24-30.892,69.195-69.175,69.195
					c-38.178,0-69.217-30.955-69.217-69.195c0-38.157,31.018-69.196,69.217-69.196
					C905.537,1627.122,936.492,1658.035,936.492,1696.318z"/>
				<path fill="none" stroke="#FFFFFF" stroke-miterlimit="10" d="M1056.384,1765.514c0,38.241-31.039,69.238-69.186,69.238
					c-38.304,0-69.238-30.997-69.238-69.238c0-38.156,30.892-69.195,69.238-69.195
					C1025.387,1696.318,1056.384,1727.315,1056.384,1765.514z"/>
				<path fill="none" stroke="#FFFFFF" stroke-miterlimit="10" d="M1176.287,1696.318c0,38.24-30.912,69.195-69.195,69.195
					c-38.156,0-69.238-30.955-69.238-69.195c0-38.157,31.039-69.196,69.238-69.196
					C1145.333,1627.122,1176.287,1658.035,1176.287,1696.318z"/>
				<path fill="none" stroke="#FFFFFF" stroke-miterlimit="10" d="M1176.287,1557.927c0,38.24-30.912,69.153-69.195,69.153
					c-38.156,0-69.238-30.913-69.238-69.153c0-38.199,31.039-69.238,69.238-69.238
					C1145.333,1488.688,1176.287,1519.686,1176.287,1557.927z"/>
				<path fill="none" stroke="#FFFFFF" stroke-miterlimit="10" d="M816.652,1488.73c0,38.241-31.018,69.196-69.175,69.196
					c-38.262,0-69.238-30.997-69.238-69.196c0-38.198,30.997-69.195,69.238-69.195
					C785.634,1419.535,816.652,1450.49,816.652,1488.73z"/>
				<path fill="none" stroke="#FFFFFF" stroke-miterlimit="10" d="M816.652,1765.514c0,38.241-31.018,69.238-69.175,69.238
					c-38.241,0-69.238-30.997-69.238-69.238c0-38.156,30.997-69.195,69.238-69.195
					C785.613,1696.318,816.652,1727.315,816.652,1765.514z"/>
				<path fill="none" stroke="#FFFFFF" stroke-miterlimit="10" d="M1296.232,1765.514c0,38.241-31.039,69.238-69.195,69.238
					c-38.241,0-69.238-30.997-69.238-69.238c0-38.156,30.997-69.195,69.238-69.195
					C1265.193,1696.318,1296.232,1727.315,1296.232,1765.514z"/>
				<path fill="none" stroke="#FFFFFF" stroke-miterlimit="10" d="M1296.232,1488.73c0,38.241-31.039,69.196-69.195,69.196
					c-38.241,0-69.238-30.955-69.238-69.196c0-38.198,30.997-69.195,69.238-69.195
					C1265.193,1419.535,1296.232,1450.49,1296.232,1488.73z"/>
				<path fill="none" stroke="#FFFFFF" stroke-miterlimit="10" d="M1056.426,1903.947c0,38.199-31.039,69.196-69.186,69.196
					c-38.304,0-69.259-30.997-69.259-69.196c0-38.156,30.892-69.195,69.259-69.195
					C1025.429,1834.752,1056.426,1865.707,1056.426,1903.947z"/>
			</g>
			<g id="fruit_8_">
				<path fill="none" stroke="#FFFFFF" stroke-miterlimit="10" d="M576.762,1350.297c0,38.241-31.018,69.196-69.175,69.196
					c-38.304,0-69.238-30.955-69.238-69.196c0-38.198,30.892-69.195,69.238-69.195
					C545.744,1281.102,576.762,1312.057,576.762,1350.297z"/>
				<path fill="none" stroke="#FFFFFF" stroke-miterlimit="10" d="M576.762,1211.905c0,38.241-31.018,69.196-69.175,69.196
					c-38.304,0-69.238-30.955-69.238-69.196c0-38.24,30.892-69.195,69.238-69.195
					C545.744,1142.668,576.762,1173.665,576.762,1211.905z"/>
				<path fill="none" stroke="#FFFFFF" stroke-miterlimit="10" d="M456.88,1281.102c0,38.24-31.018,69.153-69.175,69.153
					c-38.283,0-69.575-30.913-69.575-69.153c0-38.241,31.018-69.238,69.575-69.238C425.883,1211.863,456.88,1242.86,456.88,1281.102
					z"/>
				<path fill="none" stroke="#FFFFFF" stroke-miterlimit="10" d="M456.88,1419.493c0,38.24-31.018,69.195-69.175,69.195
					c-38.241,0-69.554-30.955-69.554-69.195c0-38.157,31.018-69.196,69.554-69.196C425.883,1350.297,456.88,1381.21,456.88,1419.493
					z"/>
				<path fill="none" stroke="#FFFFFF" stroke-miterlimit="10" d="M576.762,1488.688c0,38.241-31.018,69.238-69.175,69.238
					c-38.304,0-69.238-30.997-69.238-69.238c0-38.198,30.892-69.195,69.238-69.195
					C545.765,1419.493,576.762,1450.49,576.762,1488.688z"/>
				<path fill="none" stroke="#FFFFFF" stroke-miterlimit="10" d="M696.665,1419.493c0,38.24-30.913,69.195-69.196,69.195
					c-38.178,0-69.238-30.955-69.238-69.195c0-38.157,31.018-69.196,69.238-69.196
					C665.71,1350.297,696.665,1381.21,696.665,1419.493z"/>
				<path fill="none" stroke="#FFFFFF" stroke-miterlimit="10" d="M696.665,1281.102c0,38.24-30.913,69.153-69.196,69.153
					c-38.178,0-69.238-30.913-69.238-69.153c0-38.241,31.018-69.238,69.238-69.238
					C665.71,1211.863,696.665,1242.86,696.665,1281.102z"/>
				<path fill="none" stroke="#FFFFFF" stroke-miterlimit="10" d="M576.804,1073.472c0,38.241-30.997,69.196-69.175,69.196
					c-38.262,0-69.238-30.955-69.238-69.196c0-38.241,30.976-69.238,69.238-69.238
					C545.807,1004.234,576.804,1035.231,576.804,1073.472z"/>
				<path fill="none" stroke="#FFFFFF" stroke-miterlimit="10" d="M337.02,1211.905c0,38.241-30.976,69.196-69.174,69.196
					c-38.178,0-69.238-30.997-69.238-69.196c0-38.24,31.018-69.195,69.238-69.195C306.023,1142.71,337.02,1173.665,337.02,1211.905z
					"/>
				<path fill="none" stroke="#FFFFFF" stroke-miterlimit="10" d="M337.02,1488.688c0,38.241-30.976,69.238-69.174,69.238
					c-38.178,0-69.238-30.997-69.238-69.238c0-38.198,31.018-69.195,69.238-69.195C306.001,1419.493,337.02,1450.49,337.02,1488.688
					z"/>
				<path fill="none" stroke="#FFFFFF" stroke-miterlimit="10" d="M816.61,1488.688c0,38.241-31.018,69.238-69.175,69.238
					c-38.241,0-69.238-30.997-69.238-69.238c0-38.198,30.997-69.195,69.238-69.195C785.571,1419.493,816.61,1450.49,816.61,1488.688
					z"/>
				<path fill="none" stroke="#FFFFFF" stroke-miterlimit="10" d="M816.61,1211.905c0,38.241-31.018,69.196-69.196,69.196
					c-38.22,0-69.238-30.955-69.238-69.196c0-38.24,30.997-69.195,69.238-69.195C785.571,1142.71,816.61,1173.665,816.61,1211.905z"
					/>
				<path fill="none" stroke="#FFFFFF" stroke-miterlimit="10" d="M576.783,1627.122c0,38.199-31.018,69.196-69.175,69.196
					c-38.304,0-69.259-30.997-69.259-69.196c0-38.156,30.892-69.195,69.259-69.195
					C545.807,1557.927,576.783,1588.881,576.783,1627.122z"/>
			</g>
			<g id="fruit_7_">
				<path fill="none" stroke="#FFFFFF" stroke-miterlimit="10" d="M576.762,796.688c0,38.157-31.018,69.196-69.175,69.196
					c-38.304,0-69.238-31.04-69.238-69.196c0-38.241,30.892-69.195,69.238-69.195C545.744,727.493,576.762,758.448,576.762,796.688z
					"/>
				<path fill="none" stroke="#FFFFFF" stroke-miterlimit="10" d="M576.762,658.297c0,38.157-31.018,69.196-69.175,69.196
					c-38.304,0-69.238-31.04-69.238-69.196c0-38.241,30.892-69.195,69.238-69.195C545.744,589.059,576.762,620.056,576.762,658.297z
					"/>
				<path fill="none" stroke="#FFFFFF" stroke-miterlimit="10" d="M456.88,727.493c0,38.156-31.018,69.153-69.175,69.153
					c-38.283,0-69.575-30.997-69.575-69.153c0-38.283,31.018-69.238,69.575-69.238C425.883,658.255,456.88,689.252,456.88,727.493z"
					/>
				<path fill="none" stroke="#FFFFFF" stroke-miterlimit="10" d="M456.88,865.885c0,38.198-31.018,69.195-69.175,69.195
					c-38.241,0-69.554-30.997-69.554-69.195c0-38.283,31.018-69.196,69.554-69.196C425.883,796.688,456.88,827.602,456.88,865.885z"
					/>
				<path fill="none" stroke="#FFFFFF" stroke-miterlimit="10" d="M576.762,935.08c0,38.199-31.018,69.238-69.175,69.238
					c-38.304,0-69.238-30.997-69.238-69.238c0-38.199,30.892-69.195,69.238-69.195C545.765,865.885,576.762,896.881,576.762,935.08z
					"/>
				<path fill="none" stroke="#FFFFFF" stroke-miterlimit="10" d="M696.665,865.885c0,38.198-30.913,69.195-69.196,69.195
					c-38.178,0-69.238-30.997-69.238-69.195c0-38.241,31.018-69.196,69.238-69.196C665.71,796.688,696.665,827.602,696.665,865.885z
					"/>
				<path fill="none" stroke="#FFFFFF" stroke-miterlimit="10" d="M696.665,727.493c0,38.156-30.913,69.153-69.196,69.153
					c-38.178,0-69.238-30.997-69.238-69.153c0-38.283,31.018-69.238,69.238-69.238C665.71,658.255,696.665,689.252,696.665,727.493z
					"/>
				<path fill="none" stroke="#FFFFFF" stroke-miterlimit="10" d="M576.804,519.863c0,38.157-30.997,69.196-69.175,69.196
					c-38.262,0-69.238-31.039-69.238-69.196c0-38.241,30.976-69.238,69.238-69.238C545.807,450.625,576.804,481.623,576.804,519.863
					z"/>
				<path fill="none" stroke="#FFFFFF" stroke-miterlimit="10" d="M337.02,658.297c0,38.157-30.976,69.196-69.174,69.196
					c-38.178,0-69.238-31.04-69.238-69.196c0-38.241,31.018-69.195,69.238-69.195C306.023,589.102,337.02,620.056,337.02,658.297z"
					/>
				<path fill="none" stroke="#FFFFFF" stroke-miterlimit="10" d="M337.02,935.08c0,38.199-30.976,69.238-69.174,69.238
					c-38.178,0-69.238-30.997-69.238-69.238c0-38.199,31.018-69.195,69.238-69.195C306.001,865.885,337.02,896.881,337.02,935.08z"
					/>
				<path fill="none" stroke="#FFFFFF" stroke-miterlimit="10" d="M816.61,658.297c0,38.157-31.018,69.196-69.196,69.196
					c-38.22,0-69.238-31.04-69.238-69.196c0-38.241,30.997-69.195,69.238-69.195C785.571,589.102,816.61,620.056,816.61,658.297z"/>
			</g>
			<g id="fruit_6_">
				<path fill="none" stroke="#FFFFFF" stroke-miterlimit="10" d="M1056.384,519.779c0,38.157-31.039,69.196-69.186,69.196
					c-38.304,0-69.238-31.039-69.238-69.196c0-38.241,30.892-69.196,69.238-69.196
					C1025.387,450.583,1056.384,481.538,1056.384,519.779z"/>
				<path fill="none" stroke="#FFFFFF" stroke-miterlimit="10" d="M1056.384,381.388c0,38.157-31.039,69.196-69.186,69.196
					c-38.304,0-69.238-31.039-69.238-69.196c0-38.241,30.892-69.196,69.238-69.196
					C1025.387,312.15,1056.384,343.147,1056.384,381.388z"/>
				<path fill="none" stroke="#FFFFFF" stroke-miterlimit="10" d="M936.492,450.583c0,38.157-30.892,69.154-69.175,69.154
					c-38.178,0-69.238-30.997-69.238-69.154c0-38.283,31.018-69.238,69.238-69.238C905.516,381.346,936.492,412.343,936.492,450.583
					z"/>
				<path fill="none" stroke="#FFFFFF" stroke-miterlimit="10" d="M936.492,588.975c0,38.199-30.892,69.196-69.175,69.196
					c-38.178,0-69.217-30.997-69.217-69.196c0-38.283,31.018-69.196,69.217-69.196C905.537,519.779,936.492,550.692,936.492,588.975
					z"/>
				<path fill="none" stroke="#FFFFFF" stroke-miterlimit="10" d="M1056.384,658.171c0,38.199-31.039,69.238-69.186,69.238
					c-38.304,0-69.238-31.039-69.238-69.238s30.892-69.196,69.238-69.196C1025.387,588.975,1056.384,619.972,1056.384,658.171z"/>
				<path fill="none" stroke="#FFFFFF" stroke-miterlimit="10" d="M1176.287,588.975c0,38.199-30.912,69.196-69.195,69.196
					c-38.156,0-69.238-30.997-69.238-69.196c0-38.241,31.039-69.196,69.238-69.196
					C1145.333,519.779,1176.287,550.692,1176.287,588.975z"/>
				<path fill="none" stroke="#FFFFFF" stroke-miterlimit="10" d="M1176.287,450.583c0,38.157-30.912,69.154-69.195,69.154
					c-38.156,0-69.238-30.997-69.238-69.154c0-38.283,31.039-69.238,69.238-69.238
					C1145.333,381.346,1176.287,412.343,1176.287,450.583z"/>
				<path fill="none" stroke="#FFFFFF" stroke-miterlimit="10" d="M1056.426,242.954c0,38.157-30.997,69.196-69.164,69.196
					c-38.262,0-69.238-31.039-69.238-69.196c0-38.241,30.976-69.238,69.238-69.238
					C1025.429,173.716,1056.426,204.713,1056.426,242.954z"/>
				<path fill="none" stroke="#FFFFFF" stroke-miterlimit="10" d="M816.652,381.388c0,38.157-31.018,69.196-69.175,69.196
					c-38.262,0-69.238-31.039-69.238-69.196c0-38.241,30.997-69.196,69.238-69.196C785.634,312.192,816.652,343.147,816.652,381.388
					z"/>
				<path fill="none" stroke="#FFFFFF" stroke-miterlimit="10" d="M816.652,658.171c0,38.199-31.018,69.238-69.175,69.238
					c-38.241,0-69.238-31.039-69.238-69.238s30.997-69.196,69.238-69.196C785.613,588.975,816.652,619.972,816.652,658.171z"/>
				<path fill="none" stroke="#FFFFFF" stroke-miterlimit="10" d="M1296.232,658.171c0,38.199-31.039,69.238-69.195,69.238
					c-38.241,0-69.238-31.039-69.238-69.238s30.997-69.196,69.238-69.196C1265.193,588.975,1296.232,619.972,1296.232,658.171z"/>
				<path fill="none" stroke="#FFFFFF" stroke-miterlimit="10" d="M1296.232,381.388c0,38.157-31.039,69.196-69.195,69.196
					c-38.241,0-69.238-31.039-69.238-69.196c0-38.241,30.997-69.196,69.238-69.196
					C1265.193,312.192,1296.232,343.147,1296.232,381.388z"/>
			</g>
		</g>
	<g id="hexagon" stroke-width="8" stroke-opacity="0">
		<polygon fill="#FFFFFF" fill-opacity="0" stroke="#FFE86D" stroke-miterlimit="10" points="-7, 507 
			834, 21 1675, 507 1675, 1478 834, 1963 -7, 1478"/>
	</g>
	</g>
</g>
</svg>
