<?xml version="1.0" encoding="utf-8"?>
<!-- Generator: Adobe Illustrator 16.0.0, SVG Export Plug-In . SVG Version: 6.00 Build 0)  -->
<!DOCTYPE svg PUBLIC "-//W3C//DTD SVG 1.1//EN" "http://www.w3.org/Graphics/SVG/1.1/DTD/svg11.dtd">
<svg version="1.1" id="Layer_1" xmlns="http://www.w3.org/2000/svg" xmlns:xlink="http://www.w3.org/1999/xlink" x="0px" y="0px"
	 width="1687px" height="1984.252px" viewBox="148.626 0 1687 1984.252" enable-background="new 148.626 0 1687 1984.252"
	 xml:space="preserve">

	 	<style>
		#hexagon, #sixtyFour, #fruit {
			cursor: pointer;
			transition: 0.2s;
		}
	 </style>

<g id="Tetra3DFullGroup">	 
	<g id="back" display="none">
		<rect id="image" x="148.626" y="-13.988" display="inline" fill="#130E22" width="1687" height="2012.229"/>
	</g>
	<g id="sixtyFour" stroke-width="8">
		<line fill="none" stroke="#FFFFFF" stroke-miterlimit="10" x1="992.127" y1="346.364" x2="992.109" y2="1637.888"/>
		<line fill="none" stroke="#FFFFFF" stroke-miterlimit="10" x1="1551.475" y1="669.27" x2="432.731" y2="1315.025"/>
		<line fill="none" stroke="#FFFFFF" stroke-miterlimit="10" x1="432.751" y1="669.239" x2="1551.486" y2="1315.014"/>
		<line fill="none" stroke="#FFFFFF" stroke-miterlimit="10" x1="712.402" y1="507.815" x2="1551.52" y2="992.142"/>
		<line fill="none" stroke="#FFFFFF" stroke-miterlimit="10" x1="1551.52" y1="992.142" x2="712.387" y2="1476.43"/>
		<line fill="none" stroke="#FFFFFF" stroke-miterlimit="10" x1="712.387" y1="1476.43" x2="712.402" y2="507.815"/>
		<line fill="none" stroke="#FFFFFF" stroke-miterlimit="10" x1="1271.783" y1="507.805" x2="1271.805" y2="1476.466"/>
		<line fill="none" stroke="#FFFFFF" stroke-miterlimit="10" x1="1271.805" y1="1476.466" x2="432.767" y2="992.142"/>
		<line fill="none" stroke="#FFFFFF" stroke-miterlimit="10" x1="432.767" y1="992.142" x2="1271.783" y2="507.805"/>
		<line fill="none" stroke="#FFFFFF" stroke-miterlimit="10" x1="572.584" y1="1072.847" x2="1271.758" y2="669.194"/>
		<line fill="none" stroke="#FFFFFF" stroke-miterlimit="10" x1="712.402" y1="507.815" x2="432.767" y2="992.142"/>
		<line fill="none" stroke="#FFFFFF" stroke-miterlimit="10" x1="432.767" y1="992.142" x2="712.387" y2="1476.43"/>
		<line fill="none" stroke="#FFFFFF" stroke-miterlimit="10" x1="712.387" y1="1476.43" x2="1271.805" y2="1476.466"/>
		<line fill="none" stroke="#FFFFFF" stroke-miterlimit="10" x1="1271.805" y1="1476.466" x2="1551.52" y2="992.142"/>
		<line fill="none" stroke="#FFFFFF" stroke-miterlimit="10" x1="1551.52" y1="992.142" x2="1271.783" y2="507.805"/>
		<line fill="none" stroke="#FFFFFF" stroke-miterlimit="10" x1="1271.783" y1="507.805" x2="712.402" y2="507.815"/>
		<line fill="none" stroke="#FFFFFF" stroke-miterlimit="10" x1="1131.951" y1="588.535" x2="1131.947" y2="1395.744"/>
		<line fill="none" stroke="#FFFFFF" stroke-miterlimit="10" x1="852.254" y1="588.494" x2="852.25" y2="1395.703"/>
		<line fill="none" stroke="#FFFFFF" stroke-miterlimit="10" x1="712.157" y1="669.426" x2="1411.619" y2="1072.836"/>
		<line fill="none" stroke="#FFFFFF" stroke-miterlimit="10" x1="572.576" y1="911.416" x2="1272.039" y2="1314.826"/>
		<line fill="none" stroke="#FFFFFF" stroke-miterlimit="10" x1="712.445" y1="1315.061" x2="1411.619" y2="911.408"/>
		<line fill="none" stroke="#FFFFFF" stroke-miterlimit="10" x1="432.731" y1="1315.025" x2="1551.486" y2="1315.014"/>
		<line fill="none" stroke="#FFFFFF" stroke-miterlimit="10" x1="1551.475" y1="669.27" x2="432.751" y2="669.239"/>
		<line fill="none" stroke="#FFFFFF" stroke-miterlimit="10" x1="432.767" y1="992.142" x2="1551.52" y2="992.142"/>
		<line fill="none" stroke="#FFFFFF" stroke-miterlimit="10" x1="852.276" y1="588.536" x2="1131.951" y2="588.535"/>
		<line fill="none" stroke="#FFFFFF" stroke-miterlimit="10" x1="1411.619" y1="749.965" x2="572.584" y2="750.011"/>
		<line fill="none" stroke="#FFFFFF" stroke-miterlimit="10" x1="1272.039" y1="830.677" x2="712.16" y2="830.688"/>
		<line fill="none" stroke="#FFFFFF" stroke-miterlimit="10" x1="1411.605" y1="911.408" x2="572.604" y2="911.416"/>
		<line fill="none" stroke="#FFFFFF" stroke-miterlimit="10" x1="1411.621" y1="1072.836" x2="572.579" y2="1072.847"/>
		<line fill="none" stroke="#FFFFFF" stroke-miterlimit="10" x1="1458.264" y1="1153.613" x2="525.986" y2="1153.544"/>
		<line fill="none" stroke="#FFFFFF" stroke-miterlimit="10" x1="1411.619" y1="1234.277" x2="572.576" y2="1234.323"/>
		<line fill="none" stroke="#FFFFFF" stroke-miterlimit="10" x1="1131.947" y1="1395.744" x2="852.19" y2="1395.745"/>
		<line fill="none" stroke="#FFFFFF" stroke-miterlimit="10" x1="572.67" y1="911.452" x2="712.507" y2="669.244"/>
		<line fill="none" stroke="#FFFFFF" stroke-miterlimit="10" x1="991.58" y1="508.752" x2="572.665" y2="1234.409"/>
		<line fill="none" stroke="#FFFFFF" stroke-miterlimit="10" x1="1131.949" y1="588.494" x2="712.456" y2="1315.096"/>
		<line fill="none" stroke="#FFFFFF" stroke-miterlimit="10" x1="1271.758" y1="669.194" x2="852.247" y2="1395.832"/>
		<line fill="none" stroke="#FFFFFF" stroke-miterlimit="10" x1="1271.848" y1="830.565" x2="992.066" y2="1315.075"/>
		<line fill="none" stroke="#FFFFFF" stroke-miterlimit="10" x1="1411.57" y1="749.917" x2="992.104" y2="1476.43"/>
		<line fill="none" stroke="#FFFFFF" stroke-miterlimit="10" x1="1411.568" y1="1072.852" x2="1271.689" y2="1315.13"/>
		<line fill="none" stroke="#FFFFFF" stroke-miterlimit="10" x1="432.731" y1="1315.025" x2="992.127" y2="346.364"/>
		<line fill="none" stroke="#FFFFFF" stroke-miterlimit="10" x1="1551.475" y1="669.27" x2="992.109" y2="1637.888"/>
		<line fill="none" stroke="#FFFFFF" stroke-miterlimit="10" x1="1271.783" y1="507.805" x2="712.387" y2="1476.43"/>
		<line fill="none" stroke="#FFFFFF" stroke-miterlimit="10" x1="992.066" y1="507.775" x2="1411.629" y2="1234.386"/>
		<line fill="none" stroke="#FFFFFF" stroke-miterlimit="10" x1="712.511" y1="1315.052" x2="572.671" y2="1072.847"/>
		<line fill="none" stroke="#FFFFFF" stroke-miterlimit="10" x1="572.584" y1="750.011" x2="992.104" y2="1476.43"/>
		<line fill="none" stroke="#FFFFFF" stroke-miterlimit="10" x1="712.388" y1="830.556" x2="992.115" y2="1315.048"/>
		<line fill="none" stroke="#FFFFFF" stroke-miterlimit="10" x1="712.461" y1="669.223" x2="1131.947" y2="1395.744"/>
		<line fill="none" stroke="#FFFFFF" stroke-miterlimit="10" x1="852.254" y1="588.494" x2="1271.783" y2="1315.122"/>
		<line fill="none" stroke="#FFFFFF" stroke-miterlimit="10" x1="1271.734" y1="669.245" x2="1411.615" y2="911.521"/>
		<line fill="none" stroke="#FFFFFF" stroke-miterlimit="10" x1="712.402" y1="507.815" x2="1271.805" y2="1476.466"/>
		<line fill="none" stroke="#FFFFFF" stroke-miterlimit="10" x1="992.127" y1="346.364" x2="1551.486" y2="1315.014"/>
		<line fill="none" stroke="#FFFFFF" stroke-miterlimit="10" x1="992.109" y1="1637.888" x2="432.751" y2="669.239"/>
		<line fill="none" stroke="#FFFFFF" stroke-miterlimit="10" x1="992.104" y1="1476.43" x2="1131.887" y2="1395.744"/>
		<line fill="none" stroke="#FFFFFF" stroke-miterlimit="10" x1="1270.578" y1="1315.688" x2="1411.619" y2="1234.277"/>
		<line fill="none" stroke="#FFFFFF" stroke-miterlimit="10" x1="1411.619" y1="911.408" x2="1411.619" y2="749.965"/>
		<line fill="none" stroke="#FFFFFF" stroke-miterlimit="10" x1="1411.619" y1="1234.277" x2="1411.619" y2="1072.836"/>
		<line fill="none" stroke="#FFFFFF" stroke-miterlimit="10" x1="992.082" y1="507.806" x2="852.276" y2="588.526"/>
		<line fill="none" stroke="#FFFFFF" stroke-miterlimit="10" x1="712.157" y1="669.426" x2="572.584" y2="750.011"/>
		<line fill="none" stroke="#FFFFFF" stroke-miterlimit="10" x1="572.576" y1="1234.323" x2="712.445" y2="1315.041"/>
		<line fill="none" stroke="#FFFFFF" stroke-miterlimit="10" x1="851.907" y1="1395.521" x2="992.104" y2="1476.43"/>
		<line fill="none" stroke="#FFFFFF" stroke-miterlimit="10" x1="572.584" y1="1072.847" x2="572.576" y2="1234.323"/>
		<line fill="none" stroke="#FFFFFF" stroke-miterlimit="10" x1="572.584" y1="750.011" x2="572.576" y2="911.416"/>
		<line fill="none" stroke="#FFFFFF" stroke-miterlimit="10" x1="1131.949" y1="588.494" x2="992.082" y2="507.806"/>
		<line fill="none" stroke="#FFFFFF" stroke-miterlimit="10" x1="1411.619" y1="749.965" x2="1271.758" y2="669.194"/>
		<line fill="none" stroke="#FFFFFF" stroke-miterlimit="10" x1="712.511" y1="1153.703" x2="992.4" y2="669.426"/>
		<line fill="none" stroke="#FFFFFF" stroke-miterlimit="10" x1="992.4" y1="669.426" x2="1272.039" y2="1153.707"/>
		<circle fill="none" stroke="#FFFFFF" stroke-miterlimit="10" cx="992.126" cy="992.126" r="726.798"/>
	</g>
	<g id="fruit" stroke-width="2">
		<path fill="none" stroke="#FFFFFF" stroke-miterlimit="10" d="M1153.48,992.146c0,89.161-72.296,161.414-161.387,161.414
			c-89.201,0-161.497-72.252-161.497-161.414c0-89.218,72.296-161.47,161.497-161.47
			C1081.186,830.677,1153.48,902.929,1153.48,992.146z"/>
		<path fill="none" stroke="#FFFFFF" stroke-miterlimit="10" d="M1153.48,669.265c0,89.16-72.296,161.414-161.387,161.414
			c-89.201,0-161.497-72.254-161.497-161.414c0-89.218,72.296-161.47,161.497-161.47
			C1081.186,507.795,1153.48,580.047,1153.48,669.265z"/>
		<path fill="none" stroke="#FFFFFF" stroke-miterlimit="10" d="M873.821,830.704c0,89.16-72.294,161.414-161.387,161.414
			c-89.2,0-161.497-72.254-161.497-161.414c0-89.218,72.297-161.47,161.497-161.47C801.527,669.234,873.821,741.486,873.821,830.704z
			"/>
		<path fill="none" stroke="#FFFFFF" stroke-miterlimit="10" d="M873.824,1153.575c0,89.162-72.294,161.414-161.387,161.414
			c-89.2,0-161.496-72.252-161.496-161.414c0-89.218,72.296-161.47,161.496-161.47
			C801.529,992.106,873.824,1064.358,873.824,1153.575z"/>
		<path fill="none" stroke="#FFFFFF" stroke-miterlimit="10" d="M1153.48,1315.03c0,89.16-72.295,161.412-161.386,161.412
			c-89.202,0-161.497-72.252-161.497-161.412c0-89.22,72.295-161.472,161.497-161.472
			C1081.188,1153.561,1153.48,1225.813,1153.48,1315.03z"/>
		<path fill="none" stroke="#FFFFFF" stroke-miterlimit="10" d="M1433.191,1153.589c0,89.162-72.295,161.414-161.387,161.414
			c-89.201,0-161.496-72.252-161.496-161.414c0-89.219,72.296-161.471,161.496-161.471
			C1360.896,992.118,1433.191,1064.37,1433.191,1153.589z"/>
		<path fill="none" stroke="#FFFFFF" stroke-miterlimit="10" d="M1433.18,830.704c0,89.161-72.294,161.414-161.386,161.414
			c-89.201,0-161.497-72.253-161.497-161.414c0-89.218,72.296-161.469,161.497-161.469
			C1360.886,669.235,1433.18,741.486,1433.18,830.704z"/>
		<path fill="none" stroke="#FFFFFF" stroke-miterlimit="10" d="M1153.585,346.383c0,89.161-72.295,161.414-161.386,161.414
			c-89.201,0-161.497-72.253-161.497-161.414c0-89.219,72.295-161.47,161.497-161.47
			C1081.29,184.913,1153.585,257.164,1153.585,346.383z"/>
		<path fill="none" stroke="#FFFFFF" stroke-miterlimit="10" d="M594.202,669.276c0,89.161-72.294,161.414-161.386,161.414
			c-89.201,0-161.497-72.253-161.497-161.414c0-89.219,72.296-161.47,161.497-161.47
			C521.907,507.808,594.202,580.059,594.202,669.276z"/>
		<path fill="none" stroke="#FFFFFF" stroke-miterlimit="10" d="M594.19,1315.042c0,89.164-72.294,161.416-161.387,161.416
			c-89.2,0-161.496-72.252-161.496-161.416c0-89.217,72.295-161.467,161.496-161.467
			C521.896,1153.575,594.19,1225.825,594.19,1315.042z"/>
		<path fill="none" stroke="#FFFFFF" stroke-miterlimit="10" d="M1712.944,1315.032c0,89.162-72.296,161.414-161.387,161.414
			c-89.2,0-161.497-72.252-161.497-161.414c0-89.22,72.297-161.47,161.497-161.47
			C1640.649,1153.563,1712.944,1225.813,1712.944,1315.032z"/>
		<path fill="none" stroke="#FFFFFF" stroke-miterlimit="10" d="M1712.934,669.287c0,89.162-72.295,161.414-161.386,161.414
			c-89.202,0-161.497-72.252-161.497-161.414c0-89.218,72.295-161.469,161.497-161.469
			C1640.639,507.818,1712.934,580.069,1712.934,669.287z"/>
		<path fill="none" stroke="#FFFFFF" stroke-miterlimit="10" d="M1153.567,1637.923c0,89.162-72.296,161.416-161.388,161.416
			c-89.2,0-161.497-72.254-161.497-161.416c0-89.217,72.296-161.467,161.497-161.467
			C1081.271,1476.456,1153.567,1548.706,1153.567,1637.923z"/>
	</g>
	<g id="hexagon" stroke-width="8" stroke-opacity="0">
		<polygon fill="#FFFFFF" fill-opacity="0" stroke="#FFE86D" stroke-miterlimit="10" points="-7, 507 
			834, 21 1675, 507 1675, 1478 834, 1963 -7, 1478"/>
	</g>
</g>
</svg>
