<?xml version="1.0" encoding="utf-8"?>
<!-- Generator: Adobe Illustrator 16.0.0, SVG Export Plug-In . SVG Version: 6.00 Build 0)  -->
<!DOCTYPE svg PUBLIC "-//W3C//DTD SVG 1.1//EN" "http://www.w3.org/Graphics/SVG/1.1/DTD/svg11.dtd">
<svg version="1.1" id="Layer_1" xmlns="http://www.w3.org/2000/svg" xmlns:xlink="http://www.w3.org/1999/xlink" x="0px" y="0px"
	 width="1687.33px" height="2012.23px" viewBox="-0.165 -14.115 1687.33 2012.23"
	 enable-background="new -0.165 -14.115 1687.33 2012.23" xml:space="preserve">
<g id="Tetra3DFullGroup">
	<g id="back" display="none">
		<rect id="image_1_" y="-14.114" display="inline" fill="#130E22" width="1687" height="2012.229"/>
	</g>
	<g id="fruit" stroke-width="2">
		<g>
			<path fill="none" stroke="#FFFFFF" d="M1004.856,992.021c0,89.156-72.299,161.414-161.392,161.414
				c-89.2,0-161.497-72.252-161.497-161.414c0-89.223,72.295-161.475,161.497-161.475
				C932.562,830.551,1004.856,902.803,1004.856,992.021z"/>
			<path fill="none" stroke="#FFFFFF" d="M1004.856,669.139c0,89.16-72.299,161.414-161.392,161.414
				c-89.2,0-161.497-72.254-161.497-161.414c0-89.218,72.295-161.47,161.497-161.47
				C932.562,507.669,1004.856,579.921,1004.856,669.139z"/>
			<path fill="none" stroke="#FFFFFF" d="M725.198,830.578c0,89.16-72.294,161.414-161.391,161.414
				c-89.196,0-161.497-72.254-161.497-161.414c0-89.218,72.301-161.47,161.497-161.47
				C652.903,669.108,725.198,741.36,725.198,830.578z"/>
			<path fill="none" stroke="#FFFFFF" d="M725.199,1153.449c0,89.162-72.293,161.414-161.386,161.414
				c-89.2,0-161.496-72.252-161.496-161.414c0-89.219,72.296-161.471,161.496-161.471
				C652.905,991.98,725.199,1064.232,725.199,1153.449z"/>
			<path fill="none" stroke="#FFFFFF" d="M1004.856,1314.904c0,89.16-72.299,161.412-161.39,161.412
				c-89.202,0-161.498-72.252-161.498-161.412c0-89.221,72.294-161.477,161.498-161.477
				C932.563,1153.436,1004.856,1225.688,1004.856,1314.904z"/>
			<path fill="none" stroke="#FFFFFF" d="M1284.567,1153.463c0,89.162-72.295,161.414-161.391,161.414
				c-89.197,0-161.494-72.252-161.494-161.414c0-89.219,72.297-161.471,161.494-161.471
				C1212.272,991.992,1284.567,1064.244,1284.567,1153.463z"/>
			<path fill="none" stroke="#FFFFFF" d="M1284.556,830.578c0,89.161-72.293,161.414-161.386,161.414
				c-89.201,0-161.498-72.253-161.498-161.414c0-89.218,72.298-161.469,161.498-161.469
				C1212.263,669.109,1284.556,741.36,1284.556,830.578z"/>
			<path fill="none" stroke="#FFFFFF" d="M1004.961,346.257c0,89.161-72.295,161.414-161.387,161.414
				c-89.201,0-161.497-72.253-161.497-161.414c0-89.219,72.295-161.47,161.497-161.47
				C932.666,184.787,1004.961,257.038,1004.961,346.257z"/>
			<path fill="none" stroke="#FFFFFF" d="M445.578,669.15c0,89.16-72.294,161.414-161.386,161.414
				c-89.201,0-161.5-72.254-161.5-161.414c0-89.224,72.296-161.475,161.5-161.475C373.283,507.682,445.578,579.933,445.578,669.15z"
				/>
			<path fill="none" stroke="#FFFFFF" d="M445.566,1314.916c0,89.164-72.294,161.416-161.391,161.416
				c-89.199,0-161.497-72.252-161.497-161.416c0-89.217,72.292-161.467,161.497-161.467
				C373.272,1153.449,445.566,1225.699,445.566,1314.916z"/>
			<path fill="none" stroke="#FFFFFF" d="M1564.321,1314.906c0,89.162-72.297,161.414-161.391,161.414
				c-89.197,0-161.496-72.252-161.496-161.414c0-89.221,72.299-161.471,161.496-161.471
				C1492.026,1153.438,1564.321,1225.688,1564.321,1314.906z"/>
			<path fill="none" stroke="#FFFFFF" d="M1564.31,669.161c0,89.162-72.295,161.414-161.386,161.414
				c-89.202,0-161.498-72.252-161.498-161.414c0-89.218,72.296-161.469,161.498-161.469
				C1492.015,507.692,1564.31,579.943,1564.31,669.161z"/>
			<path fill="none" stroke="#FFFFFF" d="M1004.944,1637.797c0,89.162-72.297,161.416-161.394,161.416
				c-89.198,0-161.497-72.254-161.497-161.416c0-89.217,72.298-161.467,161.497-161.467
				C932.647,1476.33,1004.944,1548.58,1004.944,1637.797z"/>
		</g>
	</g>
	<g id="sixtyFour" stroke-width="8">
		<g>
			<circle fill="none" stroke="#FFFFFF" cx="843.5" cy="992" r="726.798"/>
			<line fill="none" stroke="#FFFFFF" x1="1124.228" y1="830.307" x2="1403.867" y2="991.711"/>
			<line fill="none" stroke="#FFFFFF" x1="844.131" y1="1314.752" x2="564.734" y2="1476"/>
			<line fill="none" stroke="#FFFFFF" x1="564.74" y1="830.256" x2="564.745" y2="507.385"/>
			<line fill="none" stroke="#FFFFFF" x1="1124.14" y1="507.374" x2="1124.146" y2="830.283"/>
			<line fill="none" stroke="#FFFFFF" x1="1124.153" y1="1476.035" x2="844.362" y2="1314.529"/>
			<line fill="none" stroke="#FFFFFF" x1="285.114" y1="991.711" x2="563.461" y2="831.031"/>
			<line fill="none" stroke="#FFFFFF" x1="378.409" y1="830.125" x2="285.114" y2="991.711"/>
			<line fill="none" stroke="#FFFFFF" x1="564.75" y1="507.385" x2="471.441" y2="668.995"/>
			<line fill="none" stroke="#FFFFFF" x1="937.379" y1="1476.012" x2="1124.153" y2="1476.023"/>
			<line fill="none" stroke="#FFFFFF" x1="564.734" y1="1476.012" x2="751.317" y2="1476.023"/>
			<line fill="none" stroke="#FFFFFF" x1="1403.867" y1="991.711" x2="1310.343" y2="829.779"/>
			<line fill="none" stroke="#FFFFFF" x1="1217.974" y1="669.854" x2="1124.131" y2="507.374"/>
			<line fill="none" stroke="#FFFFFF" x1="1217.317" y1="991.711" x2="1403.867" y2="991.711"/>
			<line fill="none" stroke="#FFFFFF" x1="285.114" y1="991.711" x2="471.366" y2="991.711"/>
			<line fill="none" stroke="#FFFFFF" x1="1263.953" y1="910.98" x2="1078.162" y2="910.982"/>
			<line fill="none" stroke="#FFFFFF" x1="611.543" y1="910.98" x2="424.951" y2="910.982"/>
			<line fill="none" stroke="#FFFFFF" x1="984.295" y1="1395.313" x2="704.537" y2="1395.313"/>
			<line fill="none" stroke="#FFFFFF" x1="425.018" y1="911.021" x2="564.854" y2="668.813"/>
			<line fill="none" stroke="#FFFFFF" x1="843.94" y1="508.328" x2="750.696" y2="669.854"/>
			<line fill="none" stroke="#FFFFFF" x1="1124.11" y1="668.765" x2="1030.864" y2="830.277"/>
			<line fill="none" stroke="#FFFFFF" x1="798" y1="1233.604" x2="704.59" y2="1395.4"/>
			<line fill="none" stroke="#FFFFFF" x1="1124.131" y1="507.374" x2="1031.08" y2="668.497"/>
			<line fill="none" stroke="#FFFFFF" x1="658.081" y1="1314.365" x2="564.734" y2="1476"/>
			<line fill="none" stroke="#FFFFFF" x1="844.431" y1="507.337" x2="937.987" y2="669.36"/>
			<line fill="none" stroke="#FFFFFF" x1="892.149" y1="1235.742" x2="984.287" y2="1395.318"/>
			<line fill="none" stroke="#FFFFFF" x1="564.817" y1="668.788" x2="658.081" y2="830.314"/>
			<line fill="none" stroke="#FFFFFF" x1="1124.082" y1="668.814" x2="1263.963" y2="911.091"/>
			<line fill="none" stroke="#FFFFFF" x1="1030.806" y1="1314.396" x2="1124.153" y2="1476.035"/>
			<line fill="none" stroke="#FFFFFF" x1="564.75" y1="507.385" x2="658.248" y2="669.283"/>
			<line fill="none" stroke="#FFFFFF" x1="750.697" y1="831.726" x2="844.748" y2="668.995"/>
			<line fill="none" stroke="#FFFFFF" x1="1124.153" y1="1476.035" x2="1403.867" y2="991.711"/>
			<line fill="none" stroke="#FFFFFF" x1="285.114" y1="991.711" x2="564.734" y2="1476"/>
			<line fill="none" stroke="#FFFFFF" x1="564.735" y1="830.125" x2="844.463" y2="1314.617"/>
			<line fill="none" stroke="#FFFFFF" x1="1124.196" y1="830.135" x2="844.414" y2="1314.646"/>
			<line fill="none" stroke="#FFFFFF" x1="844.748" y1="668.995" x2="938.248" y2="830.921"/>
			<line fill="none" stroke="#FFFFFF" x1="1124.388" y1="830.246" x2="564.508" y2="830.256"/>
			<line fill="none" stroke="#FFFFFF" x1="1124.131" y1="507.374" x2="564.75" y2="507.385"/>
		</g>
		<g>
			<line fill="none" stroke="#FFE86D" x1="1216.849" y1="1314.59" x2="1403.834" y2="1314.588"/>
			<line fill="none" stroke="#FFE86D" x1="285.079" y1="1314.59" x2="472.082" y2="1314.588"/>
			<line fill="none" stroke="#FFE86D" x1="1124.408" y1="1153.186" x2="937.379" y2="1153.113"/>
			<line fill="none" stroke="#FFE86D" x1="750.697" y1="508.321" x2="844.476" y2="345.935"/>
			<line fill="none" stroke="#FFE86D" x1="285.079" y1="1314.596" x2="378.334" y2="1153.113"/>
			<line fill="none" stroke="#FFE86D" x1="1170.675" y1="1072.406" x2="1263.961" y2="1233.965"/>
			<line fill="none" stroke="#FFE86D" x1="1310.593" y1="1153.113" x2="1403.834" y2="1314.584"/>
			<line fill="none" stroke="#FFE86D" x1="844.476" y1="345.935" x2="938.248" y2="508.321"/>
			<line fill="none" stroke="#FFE86D" x1="1031.08" y1="991.688" x2="1124.388" y2="1153.277"/>
			<line fill="none" stroke="#FFE86D" x1="1263.961" y1="1233.965" x2="1078.162" y2="1233.965"/>
			<line fill="none" stroke="#FFE86D" x1="1403.822" y1="668.839" x2="844.457" y2="1637.457"/>
			<line fill="none" stroke="#FFE86D" x1="844.457" y1="1637.457" x2="285.098" y2="668.809"/>
			<line fill="none" stroke="#FFE86D" x1="985.16" y1="1072.406" x2="705.153" y2="1072.416"/>
			<line fill="none" stroke="#FFE86D" x1="751.317" y1="1153.156" x2="564.29" y2="1153.141"/>
			<line fill="none" stroke="#FFE86D" x1="517.731" y1="1073.34" x2="425.001" y2="1233.971"/>
			<line fill="none" stroke="#FFE86D" x1="564.858" y1="1153.273" x2="658.248" y2="991.688"/>
			<line fill="none" stroke="#FFE86D" x1="845.156" y1="830.125" x2="705.153" y2="1072.416"/>
			<line fill="none" stroke="#FFE86D" x1="845.156" y1="830.125" x2="985.16" y2="1072.406"/>
			<line fill="none" stroke="#FFE86D" x1="425.001" y1="1233.971" x2="611.552" y2="1233.971"/>
			<line fill="none" stroke="#FFE86D" x1="1403.822" y1="668.839" x2="285.098" y2="668.809"/>
			<line fill="none" stroke="#FFE86D" x1="843.5" y1="992.266" x2="285.079" y2="1314.596"/>
			<line fill="none" stroke="#FFE86D" x1="844.994" y1="992" x2="1403.834" y2="1314.584"/>
			<line fill="none" stroke="#FFE86D" x1="844.476" y1="345.935" x2="844.457" y2="992"/>
		</g>
	</g>
	<g id="hexagon" stroke-width="8">
		<polygon fill="#FFFFFF" fill-opacity="0" points="2.5,507 843.5,21 1684.5,507 1684.5,1478 843.5,1963 2.5,1478 		"/>
	</g>
</g>
</svg>
