<?xml version="1.0" encoding="utf-8"?>
<!-- Generator: Adobe Illustrator 16.0.0, SVG Export Plug-In . SVG Version: 6.00 Build 0)  -->
<!DOCTYPE svg PUBLIC "-//W3C//DTD SVG 1.1//EN" "http://www.w3.org/Graphics/SVG/1.1/DTD/svg11.dtd">
<svg version="1.1" id="Layer_1" xmlns="http://www.w3.org/2000/svg" xmlns:xlink="http://www.w3.org/1999/xlink" x="0px" y="0px"
	 width="1984.252px" height="1984.252px" viewBox="0 0 1984.252 1984.252" enable-background="new 0 0 1984.252 1984.252"
	 xml:space="preserve">
<g id="_x36_4Tetra3DFullGroup">
	<g id="back" display="none">
		<rect id="image" y="-13.988" display="inline" fill="#130E22" width="1984.252" height="2012.229"/>
	</g>
	<g id="Fruit">
		<g>
			<path fill="none" stroke="#FFFFFF" d="M1153.48,992.146c0,89.16-72.297,161.414-161.388,161.414
				c-89.201,0-161.497-72.252-161.497-161.414c0-89.219,72.296-161.471,161.497-161.471
				C1081.186,830.677,1153.48,902.929,1153.48,992.146z"/>
			<path fill="none" stroke="#FFFFFF" d="M1153.48,669.265c0,89.16-72.297,161.414-161.388,161.414
				c-89.201,0-161.497-72.254-161.497-161.414c0-89.218,72.296-161.47,161.497-161.47
				C1081.186,507.795,1153.48,580.047,1153.48,669.265z"/>
			<path fill="none" stroke="#FFFFFF" d="M873.821,830.704c0,89.16-72.294,161.414-161.388,161.414
				c-89.199,0-161.497-72.254-161.497-161.414c0-89.218,72.298-161.47,161.497-161.47
				C801.527,669.234,873.821,741.486,873.821,830.704z"/>
			<path fill="none" stroke="#FFFFFF" d="M873.824,1153.575c0,89.162-72.294,161.414-161.387,161.414
				c-89.2,0-161.496-72.252-161.496-161.414c0-89.218,72.296-161.47,161.496-161.47
				C801.529,992.106,873.824,1064.358,873.824,1153.575z"/>
			<path fill="none" stroke="#FFFFFF" d="M1153.48,1315.03c0,89.16-72.296,161.412-161.387,161.412
				c-89.202,0-161.497-72.252-161.497-161.412c0-89.22,72.295-161.473,161.497-161.473
				C1081.188,1153.561,1153.48,1225.813,1153.48,1315.03z"/>
			<path fill="none" stroke="#FFFFFF" d="M1433.191,1153.589c0,89.162-72.295,161.414-161.388,161.414
				c-89.2,0-161.495-72.252-161.495-161.414c0-89.219,72.296-161.471,161.495-161.471
				C1360.896,992.118,1433.191,1064.37,1433.191,1153.589z"/>
			<path fill="none" stroke="#FFFFFF" d="M1433.18,830.704c0,89.161-72.294,161.414-161.386,161.414
				c-89.201,0-161.497-72.253-161.497-161.414c0-89.218,72.296-161.469,161.497-161.469
				C1360.886,669.235,1433.18,741.486,1433.18,830.704z"/>
			<path fill="none" stroke="#FFFFFF" d="M1153.585,346.383c0,89.161-72.295,161.414-161.386,161.414
				c-89.201,0-161.497-72.253-161.497-161.414c0-89.219,72.295-161.47,161.497-161.47
				C1081.29,184.913,1153.585,257.164,1153.585,346.383z"/>
			<path fill="none" stroke="#FFFFFF" d="M594.202,669.276c0,89.161-72.294,161.414-161.386,161.414
				c-89.201,0-161.499-72.253-161.499-161.414c0-89.22,72.296-161.471,161.499-161.471
				C521.907,507.808,594.202,580.059,594.202,669.276z"/>
			<path fill="none" stroke="#FFFFFF" d="M594.19,1315.042c0,89.164-72.294,161.416-161.388,161.416
				c-89.199,0-161.497-72.252-161.497-161.416c0-89.217,72.294-161.467,161.497-161.467
				C521.896,1153.575,594.19,1225.825,594.19,1315.042z"/>
			<path fill="none" stroke="#FFFFFF" d="M1712.944,1315.032c0,89.162-72.296,161.414-161.388,161.414
				c-89.199,0-161.496-72.252-161.496-161.414c0-89.22,72.297-161.47,161.496-161.47
				C1640.649,1153.563,1712.944,1225.813,1712.944,1315.032z"/>
			<path fill="none" stroke="#FFFFFF" d="M1712.934,669.287c0,89.162-72.295,161.414-161.386,161.414
				c-89.202,0-161.497-72.252-161.497-161.414c0-89.218,72.295-161.469,161.497-161.469
				C1640.639,507.818,1712.934,580.069,1712.934,669.287z"/>
			<path fill="none" stroke="#FFFFFF" d="M1153.567,1637.923c0,89.162-72.296,161.416-161.389,161.416
				c-89.2,0-161.497-72.254-161.497-161.416c0-89.217,72.297-161.467,161.497-161.467
				C1081.271,1476.456,1153.567,1548.706,1153.567,1637.923z"/>
		</g>
	</g>
	<g id="sixtyFour">
		
			<line display="none" fill="none" stroke="#FFFFFF" stroke-width="4" stroke-miterlimit="10" x1="1551.478" y1="669.255" x2="432.745" y2="669.245"/>
		
			<line display="none" fill="none" stroke="#FFFFFF" stroke-width="4" stroke-miterlimit="10" x1="432.745" y1="669.245" x2="992.11" y2="1637.894"/>
		
			<line display="none" fill="none" stroke="#FFFFFF" stroke-width="4" stroke-miterlimit="10" x1="992.11" y1="1637.894" x2="1551.478" y2="669.255"/>
		
			<line display="none" fill="none" stroke="#FFFFFF" stroke-width="4" stroke-miterlimit="10" x1="992.128" y1="346.351" x2="432.734" y2="1315.013"/>
		
			<line display="none" fill="none" stroke="#FFFFFF" stroke-width="4" stroke-miterlimit="10" x1="432.734" y1="1315.013" x2="1551.487" y2="1315.001"/>
		
			<line display="none" fill="none" stroke="#FFFFFF" stroke-width="4" stroke-miterlimit="10" x1="1551.487" y1="1315.001" x2="992.128" y2="346.351"/>
		<g>
			<line fill="none" stroke="#FFFFFF" stroke-width="6" x1="1269.862" y1="507.813" x2="712.413" y2="507.8"/>
		</g>
		<g>
			<line fill="none" stroke="#FFFFFF" stroke-width="6" x1="712.413" y1="507.8" x2="432.739" y2="992.114"/>
		</g>
		<g>
			<line fill="none" stroke="#FFFFFF" stroke-width="6" x1="572.782" y1="1234.644" x2="712.448" y2="1476.427"/>
		</g>
		<g>
			<line fill="none" stroke="#FFFFFF" stroke-width="6" x1="712.448" y1="1476.427" x2="1274.667" y2="1476.415"/>
		</g>
		<g>
			<line fill="none" stroke="#FFFFFF" stroke-width="6" x1="1271.815" y1="1476.452" x2="1413.038" y2="1231.925"/>
		</g>
		<g>
			<line fill="none" stroke="#FFFFFF" stroke-width="6" x1="1481.13" y1="1114.024" x2="1551.53" y2="992.128"/>
		</g>
		<g>
			<line fill="none" stroke="#FFFFFF" stroke-width="6" x1="1551.53" y1="992.128" x2="1271.792" y2="507.79"/>
		</g>
		<g>
			<line fill="none" stroke="#FFFFFF" stroke-width="6" x1="432.79" y1="749.95" x2="1551.489" y2="749.95"/>
		</g>
		<g>
			<line fill="none" stroke="#FFFFFF" stroke-width="6" x1="992.165" y1="1718.624" x2="992.165" y2="749.95"/>
		</g>
		<g>
			<line fill="none" stroke="#FFFFFF" stroke-width="6" x1="432.722" y1="992.177" x2="1551.53" y2="992.177"/>
		</g>
		<g>
			<line fill="none" stroke="#FFFFFF" stroke-width="6" x1="432.79" y1="749.95" x2="503.154" y2="871.813"/>
		</g>
		<g>
			<line fill="none" stroke="#FFFFFF" stroke-width="6" x1="572.611" y1="749.95" x2="642.518" y2="871.026"/>
		</g>
		<g>
			<line fill="none" stroke="#FFFFFF" stroke-width="6" x1="434.362" y1="1231.46" x2="992.097" y2="265.628"/>
		</g>
		<g>
			<line fill="none" stroke="#FFFFFF" stroke-width="6" x1="712.413" y1="507.8" x2="782.318" y2="628.853"/>
		</g>
		<g>
			<line fill="none" stroke="#FFFFFF" stroke-width="6" x1="852.195" y1="507.896" x2="921.666" y2="628.935"/>
		</g>
		<g>
			<line fill="none" stroke="#FFFFFF" stroke-width="6" x1="992.079" y1="507.79" x2="851.787" y2="749.958"/>
		</g>
		<g>
			<line fill="none" stroke="#FFFFFF" stroke-width="6" x1="992.079" y1="507.79" x2="1131.796" y2="749.95"/>
		</g>
		<g>
			<line fill="none" stroke="#FFFFFF" stroke-width="6" x1="851.787" y1="749.958" x2="991.138" y2="993.647"/>
		</g>
		<g>
			<line fill="none" stroke="#FFFFFF" stroke-width="6" x1="991.138" y1="993.647" x2="1131.796" y2="749.95"/>
		</g>
		<g>
			<line fill="none" stroke="#FFFFFF" stroke-width="6" x1="851.787" y1="749.958" x2="712.434" y2="992.114"/>
		</g>
		<g>
			<line fill="none" stroke="#FFFFFF" stroke-width="6" x1="712.478" y1="749.845" x2="782.609" y2="871.802"/>
		</g>
		<g>
			<line fill="none" stroke="#FFFFFF" stroke-width="6" x1="1271.784" y1="749.962" x2="1201.878" y2="871.038"/>
		</g>
		<g>
			<line fill="none" stroke="#FFFFFF" stroke-width="6" x1="1131.919" y1="749.856" x2="1061.786" y2="871.813"/>
		</g>
		<g>
			<line fill="none" stroke="#FFFFFF" stroke-width="6" x1="1131.979" y1="749.952" x2="1269.862" y2="993.647"/>
		</g>
		<g>
			<line fill="none" stroke="#FFFFFF" stroke-width="6" x1="1411.698" y1="749.974" x2="1340.858" y2="871.675"/>
		</g>
		<g>
			<line fill="none" stroke="#FFFFFF" stroke-width="6" x1="1271.784" y1="749.962" x2="1411.698" y2="992.103"/>
		</g>
		<g>
			<line fill="none" stroke="#FFFFFF" stroke-width="6" x1="1481.13" y1="871.813" x2="1551.489" y2="749.95"/>
		</g>
		<g>
			<line fill="none" stroke="#FFFFFF" stroke-width="6" x1="1131.845" y1="507.865" x2="1061.938" y2="628.94"/>
		</g>
		<g>
			<line fill="none" stroke="#FFFFFF" stroke-width="6" x1="991.874" y1="265.628" x2="1271.759" y2="750.005"/>
		</g>
		<g>
			<line fill="none" stroke="#FFFFFF" stroke-width="6" x1="1271.792" y1="507.79" x2="1200.952" y2="629.49"/>
		</g>
		<g>
			<line fill="none" stroke="#FFFFFF" stroke-width="6" x1="432.789" y1="992.126" x2="503.154" y2="1113.954"/>
		</g>
		<g>
			<line fill="none" stroke="#FFFFFF" stroke-width="6" x1="1551.53" y1="1234.302" x2="432.831" y2="1234.302"/>
		</g>
		<g>
			<line fill="none" stroke="#FFFFFF" stroke-width="6" x1="1551.53" y1="1234.3" x2="1411.7" y2="992.128"/>
		</g>
		<g>
			<line fill="none" stroke="#FFFFFF" stroke-width="6" x1="1411.778" y1="992.075" x2="1273.274" y2="1231.925"/>
		</g>
		<g>
			<line fill="none" stroke="#FFFFFF" stroke-width="6" x1="1131.796" y1="1476.925" x2="992.222" y2="1718.624"/>
		</g>
		<g>
			<line fill="none" stroke="#FFFFFF" stroke-width="6" x1="1271.907" y1="1476.45" x2="1132.534" y2="1235.103"/>
		</g>
		<g>
			<line fill="none" stroke="#FFFFFF" stroke-width="6" x1="992.239" y1="1476.462" x2="1132.532" y2="1234.294"/>
		</g>
		<g>
			<line fill="none" stroke="#FFFFFF" stroke-width="6" x1="992.239" y1="1476.462" x2="852.523" y2="1234.302"/>
		</g>
		<g>
			<line fill="none" stroke="#FFFFFF" stroke-width="6" x1="712.536" y1="1234.288" x2="852.327" y2="992.175"/>
		</g>
		<g>
			<line fill="none" stroke="#FFFFFF" stroke-width="6" x1="712.535" y1="1234.29" x2="572.621" y2="992.149"/>
		</g>
		<g>
			<line fill="none" stroke="#FFFFFF" stroke-width="6" x1="992.446" y1="1718.624" x2="852.519" y2="1476.462"/>
		</g>
		<g>
			<line fill="none" stroke="#FFFFFF" stroke-width="6" x1="712.527" y1="1476.462" x2="852.523" y2="1235.954"/>
		</g>
		<g>
			<line fill="none" stroke="#FFFFFF" stroke-width="6" x1="712.535" y1="992.114" x2="712.535" y2="1476.462"/>
		</g>
		<g>
			<line fill="none" stroke="#FFFFFF" stroke-width="6" x1="852.327" y1="992.175" x2="991.138" y2="1234.644"/>
		</g>
		<g>
			<line fill="none" stroke="#FFFFFF" stroke-width="6" x1="991.138" y1="1234.644" x2="1131.796" y2="993.647"/>
		</g>
		<g>
			<line fill="none" stroke="#FFFFFF" stroke-width="6" x1="1131.796" y1="993.647" x2="1269.862" y2="1237.835"/>
		</g>
		<g>
			<line fill="none" stroke="#FFFFFF" stroke-width="6" x1="1269.862" y1="1476.415" x2="1269.862" y2="993.647"/>
		</g>
	</g>
	<g id="hexagon">
		<polygon fill="#FFFFFF" fill-opacity="0" stroke="#ECDB7A" stroke-width="6" stroke-miterlimit="10" points="151.141,506.58 
			992.121,21.034 1833.111,506.58 1833.111,1477.672 992.121,1963.218 151.141,1477.672 		"/>
	</g>
</g>
</svg>
