<?xml version="1.0" encoding="utf-8"?>
<!-- Generator: Adobe Illustrator 16.0.0, SVG Export Plug-In . SVG Version: 6.00 Build 0)  -->
<!DOCTYPE svg PUBLIC "-//W3C//DTD SVG 1.1//EN" "http://www.w3.org/Graphics/SVG/1.1/DTD/svg11.dtd">
<svg version="1.1" id="Layer_1" xmlns="http://www.w3.org/2000/svg" xmlns:xlink="http://www.w3.org/1999/xlink" x="0px" y="0px"
	 width="1687px" height="1984px" viewBox="0 0 1687 1984" enable-background="new 0 0 1687 1984" xml:space="preserve">
<g id="Tetra3DFullGroup">
	<g id="back" display="none">
		<rect id="image" x="-211.479" y="-13.988" display="inline" fill="#130E22" width="1984" height="1998.24"/>
	</g>
	<g id="fruit">
		<g>
			<path fill="none" stroke="#FFFFFF" d="M994.99,992.146c0,89.155-72.299,161.414-161.393,161.414
				c-89.199,0-161.497-72.252-161.497-161.414c0-89.224,72.296-161.476,161.497-161.476
				C922.695,830.676,994.99,902.928,994.99,992.146z"/>
			<path fill="none" stroke="#FFFFFF" d="M994.99,669.264c0,89.16-72.299,161.414-161.393,161.414
				c-89.199,0-161.497-72.254-161.497-161.414c0-89.218,72.296-161.47,161.497-161.47
				C922.695,507.794,994.99,580.046,994.99,669.264z"/>
			<path fill="none" stroke="#FFFFFF" d="M715.332,830.703c0,89.16-72.294,161.414-161.391,161.414
				c-89.196,0-161.497-72.254-161.497-161.414c0-89.218,72.301-161.47,161.497-161.47
				C643.037,669.233,715.332,741.485,715.332,830.703z"/>
			<path fill="none" stroke="#FFFFFF" d="M715.333,1153.574c0,89.162-72.293,161.414-161.386,161.414
				c-89.2,0-161.496-72.252-161.496-161.414c0-89.219,72.296-161.472,161.496-161.472
				C643.039,992.105,715.333,1064.357,715.333,1153.574z"/>
			<path fill="none" stroke="#FFFFFF" d="M994.99,1315.029c0,89.16-72.299,161.412-161.391,161.412
				c-89.201,0-161.498-72.252-161.498-161.412c0-89.221,72.295-161.478,161.498-161.478
				C922.697,1153.561,994.99,1225.813,994.99,1315.029z"/>
			<path fill="none" stroke="#FFFFFF" d="M1274.701,1153.588c0,89.162-72.295,161.414-161.391,161.414
				c-89.197,0-161.494-72.252-161.494-161.414c0-89.219,72.297-161.471,161.494-161.471
				C1202.406,992.117,1274.701,1064.369,1274.701,1153.588z"/>
			<path fill="none" stroke="#FFFFFF" d="M1274.689,830.703c0,89.161-72.293,161.414-161.387,161.414
				c-89.201,0-161.498-72.253-161.498-161.414c0-89.218,72.299-161.469,161.498-161.469
				C1202.396,669.234,1274.689,741.485,1274.689,830.703z"/>
			<path fill="none" stroke="#FFFFFF" d="M995.095,346.382c0,89.161-72.295,161.414-161.387,161.414
				c-89.201,0-161.497-72.253-161.497-161.414c0-89.219,72.295-161.47,161.497-161.47
				C922.8,184.912,995.095,257.163,995.095,346.382z"/>
			<path fill="none" stroke="#FFFFFF" d="M435.712,669.275c0,89.16-72.294,161.414-161.386,161.414
				c-89.201,0-161.5-72.254-161.5-161.414c0-89.225,72.296-161.476,161.5-161.476C363.417,507.807,435.712,580.058,435.712,669.275z
				"/>
			<path fill="none" stroke="#FFFFFF" d="M435.7,1315.041c0,89.164-72.294,161.416-161.391,161.416
				c-89.199,0-161.497-72.252-161.497-161.416c0-89.217,72.292-161.467,161.497-161.467
				C363.406,1153.574,435.7,1225.824,435.7,1315.041z"/>
			<path fill="none" stroke="#FFFFFF" d="M1554.455,1315.031c0,89.162-72.297,161.414-161.391,161.414
				c-89.197,0-161.496-72.252-161.496-161.414c0-89.221,72.299-161.471,161.496-161.471
				C1482.16,1153.563,1554.455,1225.813,1554.455,1315.031z"/>
			<path fill="none" stroke="#FFFFFF" d="M1554.443,669.286c0,89.162-72.295,161.414-161.387,161.414
				c-89.201,0-161.498-72.252-161.498-161.414c0-89.218,72.297-161.469,161.498-161.469
				C1482.148,507.817,1554.443,580.068,1554.443,669.286z"/>
			<path fill="none" stroke="#FFFFFF" d="M995.078,1637.922c0,89.162-72.297,161.416-161.395,161.416
				c-89.197,0-161.496-72.254-161.496-161.416c0-89.217,72.298-161.467,161.496-161.467
				C922.781,1476.455,995.078,1548.705,995.078,1637.922z"/>
		</g>
	</g>
	<g id="sixtyFour">
		<g>
			<circle fill="none" stroke="#FFFFFF" cx="833.636" cy="992.125" r="726.798"/>
			<line fill="none" stroke="#FFFFFF" x1="832.66" y1="1638.189" x2="832.679" y2="992.125"/>
			<line fill="none" stroke="#FFFFFF" x1="833.636" y1="991.859" x2="1392.057" y2="669.529"/>
			<line fill="none" stroke="#FFFFFF" x1="832.142" y1="992.125" x2="273.302" y2="669.541"/>
			<line fill="none" stroke="#FFFFFF" x1="552.908" y1="1153.818" x2="273.269" y2="992.414"/>
			<line fill="none" stroke="#FFFFFF" x1="833.005" y1="669.373" x2="1112.401" y2="508.125"/>
			<line fill="none" stroke="#FFFFFF" x1="1112.396" y1="1153.869" x2="1112.391" y2="1476.74"/>
			<line fill="none" stroke="#FFFFFF" x1="552.996" y1="1476.751" x2="552.99" y2="1153.842"/>
			<line fill="none" stroke="#FFFFFF" x1="552.982" y1="508.09" x2="832.773" y2="669.596"/>
			<line fill="none" stroke="#FFFFFF" x1="1392.021" y1="992.414" x2="1113.675" y2="1153.094"/>
			<line fill="none" stroke="#FFFFFF" x1="1298.727" y1="1154" x2="1392.021" y2="992.414"/>
			<line fill="none" stroke="#FFFFFF" x1="1112.386" y1="1476.74" x2="1205.694" y2="1315.13"/>
			<line fill="none" stroke="#FFFFFF" x1="1392.021" y1="992.414" x2="1112.401" y2="508.125"/>
			<line fill="none" stroke="#FFFFFF" x1="739.757" y1="508.113" x2="552.982" y2="508.102"/>
			<line fill="none" stroke="#FFFFFF" x1="1112.401" y1="508.113" x2="925.818" y2="508.102"/>
			<line fill="none" stroke="#FFFFFF" x1="552.982" y1="508.09" x2="273.269" y2="992.414"/>
			<line fill="none" stroke="#FFFFFF" x1="273.269" y1="992.414" x2="366.793" y2="1154.346"/>
			<line fill="none" stroke="#FFFFFF" x1="459.162" y1="1314.271" x2="553.005" y2="1476.751"/>
			<line fill="none" stroke="#FFFFFF" x1="553.005" y1="1476.751" x2="1112.386" y2="1476.74"/>
			<line fill="none" stroke="#FFFFFF" x1="460.287" y1="669.535" x2="273.302" y2="669.537"/>
			<line fill="none" stroke="#FFFFFF" x1="1392.057" y1="669.535" x2="1205.054" y2="669.537"/>
			<line fill="none" stroke="#FFFFFF" x1="273.313" y1="1315.286" x2="1392.037" y2="1315.316"/>
			<line fill="none" stroke="#FFFFFF" x1="459.818" y1="992.414" x2="273.269" y2="992.414"/>
			<line fill="none" stroke="#FFFFFF" x1="1392.021" y1="992.414" x2="1205.77" y2="992.414"/>
			<line fill="none" stroke="#FFFFFF" x1="552.748" y1="1153.879" x2="1112.628" y2="1153.869"/>
			<line fill="none" stroke="#FFFFFF" x1="413.183" y1="1073.145" x2="598.974" y2="1073.143"/>
			<line fill="none" stroke="#FFFFFF" x1="1065.593" y1="1073.145" x2="1252.186" y2="1073.143"/>
			<line fill="none" stroke="#FFFFFF" x1="691.976" y1="911.719" x2="971.982" y2="911.709"/>
			<line fill="none" stroke="#FFFFFF" x1="552.729" y1="830.939" x2="739.757" y2="831.012"/>
			<line fill="none" stroke="#FFFFFF" x1="925.818" y1="830.969" x2="1112.846" y2="830.984"/>
			<line fill="none" stroke="#FFFFFF" x1="692.841" y1="588.813" x2="972.599" y2="588.813"/>
			<line fill="none" stroke="#FFFFFF" x1="1252.118" y1="1073.104" x2="1112.281" y2="1315.313"/>
			<line fill="none" stroke="#FFFFFF" x1="1159.404" y1="910.785" x2="1252.135" y2="750.154"/>
			<line fill="none" stroke="#FFFFFF" x1="833.195" y1="1475.797" x2="926.439" y2="1314.271"/>
			<line fill="none" stroke="#FFFFFF" x1="553.025" y1="1315.36" x2="646.271" y2="1153.848"/>
			<line fill="none" stroke="#FFFFFF" x1="879.136" y1="750.521" x2="972.546" y2="588.725"/>
			<line fill="none" stroke="#FFFFFF" x1="552.939" y1="1153.99" x2="832.722" y2="669.479"/>
			<line fill="none" stroke="#FFFFFF" x1="926.438" y1="1475.804" x2="832.66" y2="1638.189"/>
			<line fill="none" stroke="#FFFFFF" x1="1392.057" y1="669.529" x2="1298.802" y2="831.012"/>
			<line fill="none" stroke="#FFFFFF" x1="273.313" y1="1315.286" x2="832.679" y2="346.668"/>
			<line fill="none" stroke="#FFFFFF" x1="553.005" y1="1476.751" x2="646.056" y2="1315.628"/>
			<line fill="none" stroke="#FFFFFF" x1="1019.055" y1="669.76" x2="1112.401" y2="508.125"/>
			<line fill="none" stroke="#FFFFFF" x1="506.461" y1="911.719" x2="413.175" y2="750.16"/>
			<line fill="none" stroke="#FFFFFF" x1="832.705" y1="1476.788" x2="739.148" y2="1314.765"/>
			<line fill="none" stroke="#FFFFFF" x1="1112.4" y1="1154" x2="832.673" y2="669.508"/>
			<line fill="none" stroke="#FFFFFF" x1="784.986" y1="748.383" x2="692.849" y2="588.807"/>
			<line fill="none" stroke="#FFFFFF" x1="1112.318" y1="1315.337" x2="1019.055" y2="1153.811"/>
			<line fill="none" stroke="#FFFFFF" x1="553.054" y1="1315.311" x2="413.173" y2="1073.034"/>
			<line fill="none" stroke="#FFFFFF" x1="646.33" y1="669.729" x2="552.982" y2="508.09"/>
			<line fill="none" stroke="#FFFFFF" x1="1112.386" y1="1476.74" x2="1018.888" y2="1314.842"/>
			<line fill="none" stroke="#FFFFFF" x1="366.543" y1="831.012" x2="273.302" y2="669.541"/>
			<line fill="none" stroke="#FFFFFF" x1="832.66" y1="1638.189" x2="738.888" y2="1475.804"/>
			<line fill="none" stroke="#FFFFFF" x1="832.679" y1="346.668" x2="1392.037" y2="1315.316"/>
			<line fill="none" stroke="#FFFFFF" x1="926.438" y1="1152.399" x2="832.388" y2="1315.13"/>
			<line fill="none" stroke="#FFFFFF" x1="1112.277" y1="830.852" x2="1018.888" y2="992.438"/>
			<line fill="none" stroke="#FFFFFF" x1="646.056" y1="992.438" x2="552.748" y2="830.848"/>
			<line fill="none" stroke="#FFFFFF" x1="832.388" y1="1315.13" x2="738.888" y2="1153.204"/>
			<line fill="none" stroke="#FFFFFF" x1="831.979" y1="1154" x2="971.982" y2="911.709"/>
			<line fill="none" stroke="#FFFFFF" x1="831.979" y1="1154" x2="691.976" y2="911.719"/>
			<line fill="none" stroke="#FFFFFF" x1="1252.135" y1="750.154" x2="1065.584" y2="750.154"/>
			<line fill="none" stroke="#FFFFFF" x1="413.175" y1="750.16" x2="599.667" y2="750.16"/>
		</g>
	</g>
	<g id="hexagon">
		<polygon fill="#FFFFFF" fill-opacity="0" stroke="#FFE86D" stroke-miterlimit="10" stroke-opacity="0" points="-7,507 834,21 
			1675,507 1675,1478 834,1963 -7,1478 		"/>
	</g>
</g>
</svg>
