<?xml version="1.0" encoding="utf-8"?>
<!-- Generator: Adobe Illustrator 16.0.0, SVG Export Plug-In . SVG Version: 6.00 Build 0)  -->
<!DOCTYPE svg PUBLIC "-//W3C//DTD SVG 1.1//EN" "http://www.w3.org/Graphics/SVG/1.1/DTD/svg11.dtd">
<svg version="1.1" xmlns="http://www.w3.org/2000/svg" xmlns:xlink="http://www.w3.org/1999/xlink" x="0px" y="0px"
	 width="1974.198px" height="2145.215px" viewBox="-142.753 -76.662 1974.198 2145.215"
	 enable-background="new -142.753 -76.662 1974.198 2145.215" xml:space="preserve">
<g id="Layer_1">
	<g id="_x36_4Tetra3DFullGroup">
		<g id="back">
			<rect id="image" x="-142.753" y="-76.662" fill="#130E22" width="1974.198" height="2145.215"/>
		</g>
		<g id="fruit">
			<g>
				<path fill="none" stroke="#FFFFFF" d="M1005.758,995.966c0,89.157-72.301,161.414-161.39,161.414
					c-89.201,0-161.498-72.252-161.498-161.414c0-89.222,72.297-161.474,161.498-161.474
					C933.463,834.496,1005.758,906.748,1005.758,995.966z"/>
				<path fill="none" stroke="#FFFFFF" d="M1005.758,673.084c0,89.16-72.301,161.414-161.39,161.414
					c-89.201,0-161.498-72.254-161.498-161.414c0-89.218,72.297-161.47,161.498-161.47
					C933.463,511.614,1005.758,583.866,1005.758,673.084z"/>
				<path fill="none" stroke="#FFFFFF" d="M726.099,834.523c0,89.16-72.294,161.414-161.391,161.414
					c-89.196,0-161.497-72.254-161.497-161.414c0-89.218,72.301-161.47,161.497-161.47
					C653.805,673.054,726.099,745.306,726.099,834.523z"/>
				<path fill="none" stroke="#FFFFFF" d="M726.103,1157.395c0,89.162-72.295,161.414-161.388,161.414
					c-89.2,0-161.496-72.252-161.496-161.414c0-89.218,72.296-161.47,161.496-161.47
					C653.807,995.926,726.103,1068.178,726.103,1157.395z"/>
				<path fill="none" stroke="#FFFFFF" d="M1005.758,1318.85c0,89.16-72.299,161.412-161.39,161.412
					c-89.201,0-161.497-72.252-161.497-161.412c0-89.22,72.296-161.476,161.497-161.476
					C933.465,1157.38,1005.758,1229.632,1005.758,1318.85z"/>
				<path fill="none" stroke="#FFFFFF" d="M1285.469,1157.408c0,89.162-72.295,161.414-161.391,161.414
					c-89.197,0-161.496-72.252-161.496-161.414c0-89.219,72.299-161.471,161.496-161.471
					C1213.174,995.938,1285.469,1068.189,1285.469,1157.408z"/>
				<path fill="none" stroke="#FFFFFF" d="M1285.458,834.523c0,89.161-72.295,161.414-161.387,161.414
					c-89.201,0-161.496-72.253-161.496-161.414c0-89.218,72.295-161.469,161.496-161.469
					C1213.163,673.055,1285.458,745.306,1285.458,834.523z"/>
				<path fill="none" stroke="#FFFFFF" d="M1005.862,350.202c0,89.161-72.295,161.414-161.384,161.414
					c-89.201,0-161.498-72.253-161.498-161.414c0-89.219,72.295-161.47,161.498-161.47
					C933.567,188.732,1005.862,260.983,1005.862,350.202z"/>
				<path fill="none" stroke="#FFFFFF" d="M446.48,673.096c0,89.161-72.294,161.414-161.386,161.414
					c-89.201,0-161.5-72.253-161.5-161.414c0-89.223,72.296-161.474,161.5-161.474C374.185,511.627,446.48,583.878,446.48,673.096z"
					/>
				<path fill="none" stroke="#FFFFFF" d="M446.468,1318.861c0,89.164-72.294,161.416-161.391,161.416
					c-89.199,0-161.497-72.252-161.497-161.416c0-89.217,72.292-161.467,161.497-161.467
					C374.174,1157.395,446.468,1229.645,446.468,1318.861z"/>
				<path fill="none" stroke="#FFFFFF" d="M1565.221,1318.852c0,89.162-72.295,161.414-161.391,161.414
					c-89.195,0-161.496-72.252-161.496-161.414c0-89.22,72.301-161.47,161.496-161.47
					C1492.926,1157.382,1565.221,1229.632,1565.221,1318.852z"/>
				<path fill="none" stroke="#FFFFFF" d="M1565.211,673.106c0,89.162-72.295,161.414-161.387,161.414
					c-89.201,0-161.496-72.252-161.496-161.414c0-89.218,72.295-161.469,161.496-161.469
					C1492.917,511.638,1565.211,583.889,1565.211,673.106z"/>
				<path fill="none" stroke="#FFFFFF" d="M1005.844,1641.742c0,89.162-72.295,161.416-161.39,161.416
					c-89.201,0-161.498-72.254-161.498-161.416c0-89.217,72.297-161.467,161.498-161.467
					C933.549,1480.275,1005.844,1552.525,1005.844,1641.742z"/>
			</g>
		</g>
		<g id="sixtyFour" display="none">
			<g id="_x36_4THG">
				<g id="_x36_4_Grid_2_" display="inline">
					
						<line fill="none" stroke="#FFFFFF" stroke-width="4" stroke-miterlimit="10" x1="845.082" y1="350.098" x2="845.047" y2="1641.704"/>
					
						<line fill="none" stroke="#FFFFFF" stroke-width="4" stroke-miterlimit="10" x1="1404.443" y1="673.031" x2="285.649" y2="1318.825"/>
					
						<line fill="none" stroke="#FFFFFF" stroke-width="4" stroke-miterlimit="10" x1="285.649" y1="672.994" x2="1404.443" y2="1318.808"/>
					
						<line fill="none" stroke="#FFFFFF" stroke-width="4" stroke-miterlimit="10" x1="565.33" y1="511.555" x2="1404.483" y2="995.91"/>
					
						<line fill="none" stroke="#FFFFFF" stroke-width="4" stroke-miterlimit="10" x1="1404.483" y1="995.91" x2="565.292" y2="1480.228"/>
					
						<line fill="none" stroke="#FFFFFF" stroke-width="4" stroke-miterlimit="10" x1="565.292" y1="1480.228" x2="565.33" y2="511.555"/>
					
						<line fill="none" stroke="#FFFFFF" stroke-width="4" stroke-miterlimit="10" x1="1124.765" y1="511.537" x2="1124.765" y2="1480.263"/>
					
						<line fill="none" stroke="#FFFFFF" stroke-width="4" stroke-miterlimit="10" x1="1124.765" y1="1480.263" x2="285.686" y2="995.91"/>
					
						<line fill="none" stroke="#FFFFFF" stroke-width="4" stroke-miterlimit="10" x1="285.686" y1="995.91" x2="1124.765" y2="511.537"/>
					
						<line fill="none" stroke="#FFFFFF" stroke-width="4" stroke-miterlimit="10" x1="425.526" y1="1076.628" x2="1124.726" y2="672.957"/>
					
						<line fill="none" stroke="#FFFFFF" stroke-width="4" stroke-miterlimit="10" x1="565.33" y1="511.555" x2="285.686" y2="995.91"/>
					
						<line fill="none" stroke="#FFFFFF" stroke-width="4" stroke-miterlimit="10" x1="285.686" y1="995.91" x2="565.292" y2="1480.228"/>
					
						<line fill="none" stroke="#FFFFFF" stroke-width="4" stroke-miterlimit="10" x1="565.292" y1="1480.228" x2="1124.765" y2="1480.263"/>
					
						<line fill="none" stroke="#FFFFFF" stroke-width="4" stroke-miterlimit="10" x1="1124.765" y1="1480.263" x2="1404.483" y2="995.91"/>
					
						<line fill="none" stroke="#FFFFFF" stroke-width="4" stroke-miterlimit="10" x1="1404.483" y1="995.91" x2="1124.765" y2="511.537"/>
					
						<line fill="none" stroke="#FFFFFF" stroke-width="4" stroke-miterlimit="10" x1="1124.765" y1="511.537" x2="565.33" y2="511.555"/>
					
						<line fill="none" stroke="#FFFFFF" stroke-width="4" stroke-miterlimit="10" x1="984.885" y1="592.313" x2="984.885" y2="1399.542"/>
					
						<line fill="none" stroke="#FFFFFF" stroke-width="4" stroke-miterlimit="10" x1="705.168" y1="592.238" x2="705.168" y2="1399.507"/>
					
						<line fill="none" stroke="#FFFFFF" stroke-width="4" stroke-miterlimit="10" x1="565.071" y1="673.178" x2="1264.569" y2="1076.61"/>
					
						<line fill="none" stroke="#FFFFFF" stroke-width="4" stroke-miterlimit="10" x1="425.526" y1="915.189" x2="1124.984" y2="1318.603"/>
					
						<line fill="none" stroke="#FFFFFF" stroke-width="4" stroke-miterlimit="10" x1="565.367" y1="1318.861" x2="1264.569" y2="915.152"/>
				</g>
				<g display="inline">
					
						<line fill="none" stroke="#FFFFFF" stroke-width="4" stroke-miterlimit="10" x1="285.649" y1="1318.825" x2="1404.443" y2="1318.808"/>
					
						<line fill="none" stroke="#FFFFFF" stroke-width="4" stroke-miterlimit="10" x1="1404.443" y1="673.031" x2="285.649" y2="672.994"/>
					
						<line fill="none" stroke="#FFFFFF" stroke-width="4" stroke-miterlimit="10" x1="285.686" y1="995.91" x2="1404.483" y2="995.91"/>
					
						<line fill="none" stroke="#FFFFFF" stroke-width="4" stroke-miterlimit="10" x1="705.206" y1="592.313" x2="984.885" y2="592.313"/>
					
						<line fill="none" stroke="#FFFFFF" stroke-width="4" stroke-miterlimit="10" x1="1264.569" y1="753.715" x2="425.526" y2="753.787"/>
					
						<line fill="none" stroke="#FFFFFF" stroke-width="4" stroke-miterlimit="10" x1="1311.23" y1="834.451" x2="378.864" y2="834.471"/>
					
						<line fill="none" stroke="#FFFFFF" stroke-width="4" stroke-miterlimit="10" x1="1264.569" y1="915.152" x2="425.526" y2="915.189"/>
					
						<line fill="none" stroke="#FFFFFF" stroke-width="4" stroke-miterlimit="10" x1="1264.569" y1="1076.61" x2="425.526" y2="1076.628"/>
					
						<line fill="none" stroke="#FFFFFF" stroke-width="4" stroke-miterlimit="10" x1="1311.23" y1="1157.424" x2="378.864" y2="1157.314"/>
					
						<line fill="none" stroke="#FFFFFF" stroke-width="4" stroke-miterlimit="10" x1="1264.569" y1="1238.069" x2="425.526" y2="1238.145"/>
					
						<line fill="none" stroke="#FFFFFF" stroke-width="4" stroke-miterlimit="10" x1="984.885" y1="1399.542" x2="705.134" y2="1399.542"/>
				</g>
				<g display="inline">
					
						<line fill="none" stroke="#FFFFFF" stroke-width="4" stroke-miterlimit="10" x1="425.599" y1="915.227" x2="565.44" y2="672.994"/>
					
						<line fill="none" stroke="#FFFFFF" stroke-width="4" stroke-miterlimit="10" x1="844.531" y1="512.513" x2="425.599" y2="1238.18"/>
					
						<line fill="none" stroke="#FFFFFF" stroke-width="4" stroke-miterlimit="10" x1="938.334" y1="511.463" x2="472.152" y2="1318.879"/>
					
						<line fill="none" stroke="#FFFFFF" stroke-width="4" stroke-miterlimit="10" x1="984.885" y1="592.238" x2="565.367" y2="1318.879"/>
					
						<line fill="none" stroke="#FFFFFF" stroke-width="4" stroke-miterlimit="10" x1="1124.726" y1="672.957" x2="705.168" y2="1399.639"/>
					
						<line fill="none" stroke="#FFFFFF" stroke-width="4" stroke-miterlimit="10" x1="1218.017" y1="672.957" x2="751.795" y2="1480.338"/>
					
						<line fill="none" stroke="#FFFFFF" stroke-width="4" stroke-miterlimit="10" x1="1264.53" y1="753.657" x2="845.047" y2="1480.228"/>
					
						<line fill="none" stroke="#FFFFFF" stroke-width="4" stroke-miterlimit="10" x1="1264.53" y1="1076.646" x2="1124.655" y2="1318.918"/>
					
						<line fill="none" stroke="#FFFFFF" stroke-width="4" stroke-miterlimit="10" x1="285.649" y1="1318.825" x2="845.082" y2="350.098"/>
					
						<line fill="none" stroke="#FFFFFF" stroke-width="4" stroke-miterlimit="10" x1="1404.443" y1="673.031" x2="845.047" y2="1641.704"/>
					
						<line fill="none" stroke="#FFFFFF" stroke-width="4" stroke-miterlimit="10" x1="1124.765" y1="511.537" x2="565.292" y2="1480.228"/>
				</g>
				<g display="inline">
					
						<line fill="none" stroke="#FFFFFF" stroke-width="4" stroke-miterlimit="10" x1="844.973" y1="511.518" x2="1264.604" y2="1238.18"/>
					
						<line fill="none" stroke="#FFFFFF" stroke-width="4" stroke-miterlimit="10" x1="565.44" y1="1318.861" x2="425.599" y2="1076.628"/>
					
						<line fill="none" stroke="#FFFFFF" stroke-width="4" stroke-miterlimit="10" x1="425.526" y1="753.787" x2="845.047" y2="1480.228"/>
					
						<line fill="none" stroke="#FFFFFF" stroke-width="4" stroke-miterlimit="10" x1="472.152" y1="672.919" x2="938.334" y2="1480.372"/>
					
						<line fill="none" stroke="#FFFFFF" stroke-width="4" stroke-miterlimit="10" x1="565.367" y1="672.957" x2="984.885" y2="1399.542"/>
					
						<line fill="none" stroke="#FFFFFF" stroke-width="4" stroke-miterlimit="10" x1="705.168" y1="592.238" x2="1124.765" y2="1318.918"/>
					
						<line fill="none" stroke="#FFFFFF" stroke-width="4" stroke-miterlimit="10" x1="751.833" y1="511.463" x2="1217.903" y2="1318.918"/>
					
						<line fill="none" stroke="#FFFFFF" stroke-width="4" stroke-miterlimit="10" x1="1124.69" y1="672.994" x2="1264.569" y2="915.301"/>
					
						<line fill="none" stroke="#FFFFFF" stroke-width="4" stroke-miterlimit="10" x1="565.33" y1="511.555" x2="1124.765" y2="1480.263"/>
					
						<line fill="none" stroke="#FFFFFF" stroke-width="4" stroke-miterlimit="10" x1="845.082" y1="350.098" x2="1404.443" y2="1318.808"/>
					
						<line fill="none" stroke="#FFFFFF" stroke-width="4" stroke-miterlimit="10" x1="845.047" y1="1641.704" x2="285.649" y2="672.994"/>
				</g>
				<g display="inline">
					
						<line fill="none" stroke="#FFFFFF" stroke-width="4" stroke-miterlimit="10" x1="845.047" y1="1480.228" x2="984.812" y2="1399.542"/>
					
						<line fill="none" stroke="#FFFFFF" stroke-width="4" stroke-miterlimit="10" x1="1123.548" y1="1319.486" x2="1264.569" y2="1238.069"/>
					
						<line fill="none" stroke="#FFFFFF" stroke-width="4" stroke-miterlimit="10" x1="1264.569" y1="915.152" x2="1264.569" y2="753.715"/>
					
						<line fill="none" stroke="#FFFFFF" stroke-width="4" stroke-miterlimit="10" x1="1264.569" y1="1238.069" x2="1264.569" y2="1076.61"/>
					
						<line fill="none" stroke="#FFFFFF" stroke-width="4" stroke-miterlimit="10" x1="845.047" y1="511.537" x2="705.206" y2="592.293"/>
					
						<line fill="none" stroke="#FFFFFF" stroke-width="4" stroke-miterlimit="10" x1="565.071" y1="673.178" x2="425.526" y2="753.787"/>
					
						<line fill="none" stroke="#FFFFFF" stroke-width="4" stroke-miterlimit="10" x1="425.526" y1="1238.145" x2="565.367" y2="1318.843"/>
					
						<line fill="none" stroke="#FFFFFF" stroke-width="4" stroke-miterlimit="10" x1="704.838" y1="1399.323" x2="845.047" y2="1480.228"/>
					
						<line fill="none" stroke="#FFFFFF" stroke-width="4" stroke-miterlimit="10" x1="425.526" y1="1076.628" x2="425.526" y2="1238.145"/>
					
						<line fill="none" stroke="#FFFFFF" stroke-width="4" stroke-miterlimit="10" x1="425.526" y1="753.787" x2="425.526" y2="915.189"/>
					
						<line fill="none" stroke="#FFFFFF" stroke-width="4" stroke-miterlimit="10" x1="984.885" y1="592.238" x2="845.047" y2="511.537"/>
					
						<line fill="none" stroke="#FFFFFF" stroke-width="4" stroke-miterlimit="10" x1="1264.569" y1="753.715" x2="1124.726" y2="672.957"/>
				</g>
			</g>
			<g id="small_cubocta_copy_2_">
				
					<line display="inline" fill="none" stroke="#FFFFFF" stroke-width="4" stroke-miterlimit="10" x1="1123.956" y1="995.945" x2="984.112" y2="753.695"/>
				
					<line display="inline" fill="none" stroke="#FFFFFF" stroke-width="4" stroke-miterlimit="10" x1="704.506" y1="753.732" x2="564.703" y2="995.891"/>
				
					<line display="inline" fill="none" stroke="#FFFFFF" stroke-width="4" stroke-miterlimit="10" x1="564.703" y1="995.891" x2="704.543" y2="1238.104"/>
				
					<line display="inline" fill="none" stroke="#FFFFFF" stroke-width="4" stroke-miterlimit="10" x1="704.543" y1="1238.104" x2="984.185" y2="1238.145"/>
				
					<line display="inline" fill="none" stroke="#FFFFFF" stroke-width="4" stroke-miterlimit="10" x1="984.185" y1="1238.145" x2="1123.956" y2="995.945"/>
				
					<line display="inline" fill="none" stroke="#FFFFFF" stroke-width="4" stroke-miterlimit="10" x1="984.112" y1="753.695" x2="704.506" y2="753.732"/>
				
					<line display="inline" fill="none" stroke="#FFFFFF" stroke-width="4" stroke-miterlimit="10" x1="704.506" y1="753.732" x2="844.345" y2="834.488"/>
				
					<line display="inline" fill="none" stroke="#FFFFFF" stroke-width="4" stroke-miterlimit="10" x1="844.345" y1="834.488" x2="984.112" y2="753.695"/>
				
					<line display="inline" fill="none" stroke="#FFFFFF" stroke-width="4" stroke-miterlimit="10" x1="564.703" y1="995.891" x2="704.506" y2="1076.646"/>
				
					<line display="inline" fill="none" stroke="#FFFFFF" stroke-width="4" stroke-miterlimit="10" x1="704.506" y1="1076.646" x2="704.543" y2="1238.104"/>
				
					<line display="inline" fill="none" stroke="#FFFFFF" stroke-width="4" stroke-miterlimit="10" x1="1123.99" y1="995.945" x2="984.185" y2="1076.703"/>
				
					<line display="inline" fill="none" stroke="#FFFFFF" stroke-width="4" stroke-miterlimit="10" x1="984.185" y1="1076.703" x2="984.185" y2="1238.145"/>
				
					<line display="inline" fill="none" stroke="#FFFFFF" stroke-width="4" stroke-miterlimit="10" x1="844.345" y1="834.488" x2="984.185" y2="1076.703"/>
				
					<line display="inline" fill="none" stroke="#FFFFFF" stroke-width="4" stroke-miterlimit="10" x1="984.185" y1="1076.703" x2="704.506" y2="1076.646"/>
				
					<line display="inline" fill="none" stroke="#FFFFFF" stroke-width="4" stroke-miterlimit="10" x1="704.506" y1="1076.646" x2="844.345" y2="834.488"/>
			</g>
			<g id="big_cubocta_copy_2_">
				
					<line display="inline" fill="none" stroke="#FFFFFF" stroke-width="4" stroke-miterlimit="10" x1="1123.623" y1="511.296" x2="564.372" y2="511.666"/>
				
					<line display="inline" fill="none" stroke="#FFFFFF" stroke-width="4" stroke-miterlimit="10" x1="564.372" y1="511.666" x2="285.132" y2="996.203"/>
				
					<line display="inline" fill="none" stroke="#FFFFFF" stroke-width="4" stroke-miterlimit="10" x1="565.145" y1="1480.486" x2="1124.431" y2="1480.136"/>
				
					<line display="inline" fill="none" stroke="#FFFFFF" stroke-width="4" stroke-miterlimit="10" x1="1124.431" y1="1480.136" x2="1403.708" y2="995.522"/>
				
					<line display="inline" fill="none" stroke="#FFFFFF" stroke-width="4" stroke-miterlimit="10" x1="1404.483" y1="996.832" x2="1124.467" y2="512.587"/>
				
					<line display="inline" fill="none" stroke="#FFFFFF" stroke-width="4" stroke-miterlimit="10" x1="564.372" y1="511.666" x2="844.087" y2="672.919"/>
				
					<line display="inline" fill="none" stroke="#FFFFFF" stroke-width="4" stroke-miterlimit="10" x1="844.087" y1="672.919" x2="1123.623" y2="511.296"/>
				
					<line display="inline" fill="none" stroke="#FFFFFF" stroke-width="4" stroke-miterlimit="10" x1="565.145" y1="1480.486" x2="564.887" y2="1157.498"/>
				
					<line display="inline" fill="none" stroke="#FFFFFF" stroke-width="4" stroke-miterlimit="10" x1="564.887" y1="1157.498" x2="285.132" y2="996.26"/>
				
					<line display="inline" fill="none" stroke="#FFFFFF" stroke-width="4" stroke-miterlimit="10" x1="285.132" y1="996.203" x2="565.145" y2="1480.486"/>
				
					<line display="inline" fill="none" stroke="#FFFFFF" stroke-width="4" stroke-miterlimit="10" x1="1403.708" y1="995.54" x2="1124.174" y2="1157.125"/>
				
					<line display="inline" fill="none" stroke="#FFFFFF" stroke-width="4" stroke-miterlimit="10" x1="1124.174" y1="1157.125" x2="1124.358" y2="1480.022"/>
				
					<line display="inline" fill="none" stroke="#FFFFFF" stroke-width="4" stroke-miterlimit="10" x1="844.087" y1="672.919" x2="1124.174" y2="1157.125"/>
				
					<line display="inline" fill="none" stroke="#FFFFFF" stroke-width="4" stroke-miterlimit="10" x1="1124.174" y1="1157.125" x2="564.887" y2="1157.498"/>
				
					<line display="inline" fill="none" stroke="#FFFFFF" stroke-width="4" stroke-miterlimit="10" x1="564.887" y1="1157.498" x2="844.087" y2="672.919"/>
			</g>
		</g>
		<g id="sixtyFour_1_">
			<g id="geo">
				<path fill="none" stroke="#FFFFFF" stroke-width="2" stroke-miterlimit="10" d="M1167.67,996.008
					c0,178.72-144.766,323.215-323.164,323.215c-178.867,0-323.437-144.495-323.437-323.215
					c0-178.572,144.225-323.215,323.437-323.215C1022.905,672.743,1167.67,817.46,1167.67,996.008z"/>
				<path fill="none" stroke="#FFFFFF" stroke-width="2" stroke-miterlimit="10" d="M1167.67,1642.535
					c0,178.867-144.766,323.214-323.164,323.214c-178.867,0-323.437-144.225-323.437-323.214
					c0-178.572,144.225-323.216,323.437-323.216C1022.905,1319.271,1167.67,1463.963,1167.67,1642.535z"/>
				<path fill="none" stroke="#FFFFFF" stroke-width="2" stroke-miterlimit="10" d="M1167.67,349.505
					c0,178.744-144.766,323.238-323.164,323.238c-178.867,0-323.437-144.494-323.437-323.238
					c0-178.548,144.225-323.215,323.437-323.215C1022.905,26.241,1167.67,170.957,1167.67,349.505z"/>
				<path fill="none" stroke="#FFFFFF" stroke-width="2" stroke-miterlimit="10" d="M1727.751,672.743
					c0,178.721-144.716,323.19-323.165,323.19c-178.866,0-323.633-144.47-323.633-323.19c0-178.571,144.324-323.238,323.633-323.238
					C1582.987,349.456,1727.751,494.172,1727.751,672.743z"/>
				<path fill="none" stroke="#FFFFFF" stroke-width="2" stroke-miterlimit="10" d="M607.737,672.793
					c0,178.743-144.716,323.215-323.141,323.215c-178.818,0-323.411-144.472-323.411-323.215
					c0-178.547,144.225-323.215,323.411-323.215C462.996,349.554,607.737,494.271,607.737,672.793z"/>
				<path fill="none" stroke="#FFFFFF" stroke-width="2" stroke-miterlimit="10" d="M607.737,1319.223
					c0,178.719-144.716,323.189-323.141,323.189c-178.818,0-323.411-144.226-323.411-323.189
					c0-178.549,144.225-323.215,323.411-323.215C462.996,995.958,607.737,1140.674,607.737,1319.223z"/>
				<path fill="none" stroke="#FFFFFF" stroke-width="2" stroke-miterlimit="10" d="M1727.751,1319.223
					c0,178.719-144.716,323.189-323.165,323.189c-178.866,0-323.633-144.226-323.633-323.189
					c0-178.549,144.324-323.215,323.633-323.215C1582.987,995.958,1727.751,1140.674,1727.751,1319.223z"/>
				<path fill="none" stroke="#FFFFFF" stroke-width="2" stroke-miterlimit="10" d="M1814.297,996.008
					c0,536.182-434.198,969.717-969.546,969.717c-536.552,0-970.357-433.535-970.357-969.717
					c0-535.692,433.043-969.742,970.357-969.742C1380,26.191,1814.297,460.315,1814.297,996.008z"/>
			</g>
			<g id="fruit_1_">
				<path fill="none" stroke="#FFFFFF" stroke-width="2" stroke-miterlimit="10" d="M1005.99,996.008
					c0,89.347-72.383,161.582-161.558,161.582c-89.446,0-161.707-72.235-161.707-161.582c0-89.274,71.842-161.583,161.707-161.583
					C933.607,834.4,1005.99,906.733,1005.99,996.008z"/>
				<path fill="none" stroke="#FFFFFF" stroke-width="2" stroke-miterlimit="10" d="M1005.99,672.817
					c0,89.323-72.383,161.607-161.558,161.607c-89.446,0-161.707-72.284-161.707-161.607c0-89.322,71.842-161.607,161.707-161.607
					C933.607,511.161,1005.99,583.495,1005.99,672.817z"/>
				<path fill="none" stroke="#FFFFFF" stroke-width="2" stroke-miterlimit="10" d="M726.048,834.4
					c0,89.298-72.162,161.582-161.558,161.582c-89.373,0-161.682-72.284-161.682-161.582c0-89.323,72.309-161.657,161.682-161.657
					C653.665,672.743,726.048,745.127,726.048,834.4z"/>
				<path fill="none" stroke="#FFFFFF" stroke-width="2" stroke-miterlimit="10" d="M726.048,1157.639
					c0,89.3-72.162,161.608-161.558,161.608c-89.274,0-161.656-72.309-161.656-161.608c0-89.372,72.333-161.631,161.656-161.631
					C653.665,996.008,726.048,1068.267,726.048,1157.639z"/>
				<path fill="none" stroke="#FFFFFF" stroke-width="2" stroke-miterlimit="10" d="M1005.99,1319.271
					c0,89.297-72.334,161.632-161.558,161.632c-89.446,0-161.707-72.384-161.707-161.632c0-89.298,71.842-161.682,161.707-161.682
					C933.656,1157.59,1005.99,1229.974,1005.99,1319.271z"/>
				<path fill="none" stroke="#FFFFFF" stroke-width="2" stroke-miterlimit="10" d="M1286.031,1157.639
					c0,89.3-72.187,161.608-161.584,161.608c-89.297,0-161.681-72.309-161.681-161.608c0-89.322,72.384-161.631,161.681-161.631
					C1213.696,996.008,1286.031,1068.267,1286.031,1157.639z"/>
				<path fill="none" stroke="#FFFFFF" stroke-width="2" stroke-miterlimit="10" d="M1286.031,834.4
					c0,89.298-72.187,161.582-161.584,161.582c-89.297,0-161.681-72.284-161.681-161.582c0-89.323,72.384-161.657,161.681-161.657
					C1213.696,672.743,1286.031,745.127,1286.031,834.4z"/>
				<path fill="none" stroke="#FFFFFF" stroke-width="2" stroke-miterlimit="10" d="M1006.138,349.529
					c0,89.298-72.384,161.607-161.56,161.607c-89.347,0-161.705-72.31-161.705-161.607c0-89.323,72.358-161.657,161.705-161.657
					C933.707,187.872,1006.138,260.256,1006.138,349.529z"/>
				<path fill="none" stroke="#FFFFFF" stroke-width="2" stroke-miterlimit="10" d="M446.105,672.817
					c0,89.323-72.382,161.607-161.583,161.607c-89.323,0-161.681-72.334-161.681-161.607c0-89.322,72.383-161.607,161.681-161.607
					C373.698,511.21,446.105,583.519,446.105,672.817z"/>
				<path fill="none" stroke="#FFFFFF" stroke-width="2" stroke-miterlimit="10" d="M446.105,1319.271
					c0,89.297-72.382,161.632-161.583,161.632c-89.273,0-161.681-72.384-161.681-161.632c0-89.298,72.383-161.633,161.681-161.633
					C373.673,1157.639,446.105,1229.974,446.105,1319.271z"/>
				<path fill="none" stroke="#FFFFFF" stroke-width="2" stroke-miterlimit="10" d="M1566.12,1319.271
					c0,89.297-72.381,161.632-161.581,161.632c-89.3,0-161.682-72.384-161.682-161.632c0-89.298,72.382-161.682,161.682-161.682
					C1493.688,1157.59,1566.12,1229.974,1566.12,1319.271z"/>
				<path fill="none" stroke="#FFFFFF" stroke-width="2" stroke-miterlimit="10" d="M1566.12,672.817
					c0,89.323-72.432,161.607-161.632,161.607c-89.249,0-161.681-72.284-161.681-161.607c0-89.322,72.432-161.607,161.681-161.607
					C1493.688,511.21,1566.12,583.519,1566.12,672.817z"/>
				<path fill="none" stroke="#FFFFFF" stroke-width="2" stroke-miterlimit="10" d="M1006.087,1642.56
					c0,89.2-72.381,161.582-161.558,161.582c-89.421,0-161.754-72.382-161.754-161.582c0-89.396,71.842-161.656,161.754-161.656
					C933.707,1480.903,1006.087,1553.188,1006.087,1642.56z"/>
			</g>
			<g id="fruit_5_">
				<path fill="none" stroke="#FFFFFF" stroke-width="2" stroke-miterlimit="10" d="M925.223,996.008
					c0,44.673-36.216,80.792-80.768,80.792c-44.722,0-80.84-36.119-80.84-80.792c0-44.624,36.068-80.792,80.84-80.792
					C889.032,915.216,925.223,951.384,925.223,996.008z"/>
				<path fill="none" stroke="#FFFFFF" stroke-width="2" stroke-miterlimit="10" d="M925.223,834.425
					c0,44.575-36.216,80.791-80.768,80.791c-44.722,0-80.84-36.216-80.84-80.791c0-44.649,36.068-80.791,80.84-80.791
					C889.032,753.608,925.223,789.775,925.223,834.425z"/>
				<path fill="none" stroke="#FFFFFF" stroke-width="2" stroke-miterlimit="10" d="M785.252,915.216
					c0,44.649-36.069,80.767-80.766,80.767c-44.576,0-80.842-36.117-80.842-80.767c0-44.674,36.216-80.815,80.842-80.815
					C749.085,834.4,785.252,870.567,785.252,915.216z"/>
				<path fill="none" stroke="#FFFFFF" stroke-width="2" stroke-miterlimit="10" d="M785.252,1076.823
					c0,44.648-36.069,80.791-80.766,80.791c-44.576,0-80.816-36.143-80.816-80.791c0-44.698,36.216-80.815,80.816-80.815
					C749.109,996.008,785.252,1032.125,785.252,1076.823z"/>
				<path fill="none" stroke="#FFFFFF" stroke-width="2" stroke-miterlimit="10" d="M925.223,1157.614
					c0,44.65-36.216,80.815-80.768,80.815c-44.722,0-80.84-36.189-80.84-80.815c0-44.574,36.068-80.814,80.84-80.814
					C889.056,1076.8,925.223,1112.965,925.223,1157.614z"/>
				<path fill="none" stroke="#FFFFFF" stroke-width="2" stroke-miterlimit="10" d="M1065.244,1076.823
					c0,44.648-36.094,80.791-80.792,80.791c-44.575,0-80.84-36.143-80.84-80.791c0-44.649,36.216-80.815,80.84-80.815
					C1029.101,996.008,1065.244,1032.125,1065.244,1076.823z"/>
				<path fill="none" stroke="#FFFFFF" stroke-width="2" stroke-miterlimit="10" d="M1065.244,915.216
					c0,44.649-36.094,80.767-80.792,80.767c-44.575,0-80.84-36.117-80.84-80.767c0-44.674,36.216-80.815,80.84-80.815
					C1029.101,834.4,1065.244,870.567,1065.244,915.216z"/>
				<path fill="none" stroke="#FFFFFF" stroke-width="2" stroke-miterlimit="10" d="M925.296,672.793
					c0,44.575-36.216,80.791-80.767,80.791c-44.674,0-80.84-36.216-80.84-80.791c0-44.649,36.166-80.815,80.84-80.815
					C889.081,591.978,925.296,628.168,925.296,672.793z"/>
				<path fill="none" stroke="#FFFFFF" stroke-width="2" stroke-miterlimit="10" d="M645.33,834.425
					c0,44.575-36.216,80.791-80.767,80.791c-44.673,0-80.841-36.216-80.841-80.791c0-44.649,36.192-80.791,80.841-80.791
					C609.114,753.634,645.33,789.775,645.33,834.425z"/>
				<path fill="none" stroke="#FFFFFF" stroke-width="2" stroke-miterlimit="10" d="M645.33,1157.614
					c0,44.65-36.216,80.815-80.767,80.815c-44.649,0-80.841-36.189-80.841-80.815c0-44.574,36.192-80.791,80.841-80.791
					C609.089,1076.823,645.33,1112.965,645.33,1157.614z"/>
				<path fill="none" stroke="#FFFFFF" stroke-width="2" stroke-miterlimit="10" d="M1205.264,1157.614
					c0,44.65-36.216,80.815-80.767,80.815c-44.649,0-80.841-36.189-80.841-80.815c0-44.574,36.191-80.814,80.841-80.814
					C1169.048,1076.8,1205.264,1112.965,1205.264,1157.614z"/>
				<path fill="none" stroke="#FFFFFF" stroke-width="2" stroke-miterlimit="10" d="M1205.264,834.425
					c0,44.575-36.216,80.791-80.791,80.791c-44.625,0-80.841-36.216-80.841-80.791c0-44.649,36.191-80.791,80.841-80.791
					C1169.048,753.634,1205.264,789.775,1205.264,834.425z"/>
				<path fill="none" stroke="#FFFFFF" stroke-width="2" stroke-miterlimit="10" d="M925.272,1319.247
					c0,44.599-36.216,80.79-80.766,80.79c-44.723,0-80.866-36.191-80.866-80.79c0-44.699,36.069-80.817,80.866-80.817
					C889.081,1238.43,925.272,1274.548,925.272,1319.247z"/>
			</g>
			<g id="fruit_11_">
				<path fill="none" stroke="#FFFFFF" stroke-width="2" stroke-miterlimit="10" d="M1485.108,672.817
					c0,44.575-36.191,80.791-80.373,80.791c-44.723,0-81.259-36.216-81.259-80.791c0-44.624,36.216-80.792,81.259-80.792
					C1448.941,592.025,1485.108,628.193,1485.108,672.817z"/>
				<path fill="none" stroke="#FFFFFF" stroke-width="2" stroke-miterlimit="10" d="M1485.108,511.235
					c0,44.574-36.191,80.79-80.373,80.79c-44.723,0-81.259-36.216-81.259-80.79c0-44.65,36.216-80.792,81.259-80.792
					C1448.941,430.419,1485.108,466.585,1485.108,511.235z"/>
				<path fill="none" stroke="#FFFFFF" stroke-width="2" stroke-miterlimit="10" d="M1345.185,592.025
					c0,44.576-36.093,80.768-80.791,80.768c-44.574,0-80.841-36.216-80.841-80.768c0-44.673,36.216-80.815,80.841-80.815
					C1308.994,511.21,1345.185,547.377,1345.185,592.025z"/>
				<path fill="none" stroke="#FFFFFF" stroke-width="2" stroke-miterlimit="10" d="M1345.185,753.634
					c0,44.574-36.093,80.791-80.791,80.791c-44.574,0-80.815-36.217-80.815-80.791c0-44.698,36.217-80.816,80.815-80.816
					C1309.02,672.817,1345.185,708.936,1345.185,753.634z"/>
				<path fill="none" stroke="#FFFFFF" stroke-width="2" stroke-miterlimit="10" d="M1485.108,834.425
					c0,44.575-36.167,80.815-80.373,80.815c-44.723,0-81.259-36.191-81.259-80.815c0-44.625,36.216-80.816,81.259-80.816
					C1448.965,753.608,1485.108,789.8,1485.108,834.425z"/>
				<path fill="none" stroke="#FFFFFF" stroke-width="2" stroke-miterlimit="10" d="M1625.153,753.634
					c0,44.574-36.093,80.791-80.791,80.791c-44.65,0-80.842-36.217-80.842-80.791c0-44.674,36.191-80.816,80.842-80.816
					C1588.96,672.817,1625.153,708.936,1625.153,753.634z"/>
				<path fill="none" stroke="#FFFFFF" stroke-width="2" stroke-miterlimit="10" d="M1625.153,592.025
					c0,44.576-36.093,80.768-80.791,80.768c-44.65,0-80.842-36.216-80.842-80.768c0-44.673,36.191-80.815,80.842-80.815
					C1588.96,511.21,1625.153,547.377,1625.153,592.025z"/>
				<path fill="none" stroke="#FFFFFF" stroke-width="2" stroke-miterlimit="10" d="M1485.206,349.603
					c0,44.576-36.216,80.792-80.767,80.792c-44.674,0-80.864-36.216-80.864-80.792c0-44.648,36.19-80.815,80.864-80.815
					C1448.99,268.787,1485.206,304.979,1485.206,349.603z"/>
				<path fill="none" stroke="#FFFFFF" stroke-width="2" stroke-miterlimit="10" d="M1205.24,511.235
					c0,44.574-36.216,80.79-80.793,80.79c-44.647,0-80.839-36.216-80.839-80.79c0-44.65,36.191-80.792,80.839-80.792
					C1169.024,430.443,1205.24,466.585,1205.24,511.235z"/>
				<path fill="none" stroke="#FFFFFF" stroke-width="2" stroke-miterlimit="10" d="M1765.197,834.425
					c0,44.575-36.191,80.815-80.79,80.815c-44.575,0-80.842-36.191-80.842-80.815c0-44.625,36.216-80.816,80.842-80.816
					C1728.957,753.608,1765.197,789.8,1765.197,834.425z"/>
				<path fill="none" stroke="#FFFFFF" stroke-width="2" stroke-miterlimit="10" d="M1765.197,511.235
					c0,44.574-36.191,80.79-80.79,80.79c-44.575,0-80.866-36.216-80.866-80.79c0-44.65,36.216-80.792,80.866-80.792
					C1728.957,430.443,1765.197,466.585,1765.197,511.235z"/>
				<path fill="none" stroke="#FFFFFF" stroke-width="2" stroke-miterlimit="10" d="M1485.181,996.057
					c0,44.6-36.216,80.791-80.742,80.791c-44.723,0-80.915-36.191-80.915-80.791c0-44.698,36.095-80.816,80.915-80.816
					C1448.99,915.24,1485.181,951.384,1485.181,996.057z"/>
			</g>
			<g id="fruit_10_">
				<path fill="none" stroke="#FFFFFF" stroke-width="2" stroke-miterlimit="10" d="M1485.206,1319.319
					c0,44.675-36.216,80.793-80.767,80.793c-44.698,0-80.864-36.118-80.864-80.793c0-44.574,36.068-80.79,80.864-80.79
					C1449.015,1238.529,1485.206,1274.696,1485.206,1319.319z"/>
				<path fill="none" stroke="#FFFFFF" stroke-width="2" stroke-miterlimit="10" d="M1485.206,1157.738
					c0,44.647-36.216,80.791-80.767,80.791c-44.698,0-80.864-36.144-80.864-80.791c0-44.577,36.068-80.793,80.864-80.793
					C1449.015,1076.921,1485.206,1113.089,1485.206,1157.738z"/>
				<path fill="none" stroke="#FFFFFF" stroke-width="2" stroke-miterlimit="10" d="M1345.236,1238.529
					c0,44.649-36.07,80.766-80.744,80.766c-44.575,0-80.84-36.116-80.84-80.766c0-44.575,36.216-80.815,80.84-80.815
					C1309.044,1157.714,1345.236,1193.879,1345.236,1238.529z"/>
				<path fill="none" stroke="#FFFFFF" stroke-width="2" stroke-miterlimit="10" d="M1345.236,1400.137
					c0,44.647-36.07,80.791-80.744,80.791c-44.575,0-80.84-36.144-80.84-80.791c0-44.576,36.216-80.817,80.84-80.817
					C1309.044,1319.319,1345.236,1355.438,1345.236,1400.137z"/>
				<path fill="none" stroke="#FFFFFF" stroke-width="2" stroke-miterlimit="10" d="M1485.206,1480.928
					c0,44.649-36.216,80.814-80.767,80.814c-44.698,0-80.864-36.189-80.864-80.814c0-44.575,36.068-80.815,80.864-80.815
					C1449.04,1400.112,1485.206,1436.302,1485.206,1480.928z"/>
				<path fill="none" stroke="#FFFFFF" stroke-width="2" stroke-miterlimit="10" d="M1625.225,1400.137
					c0,44.647-36.092,80.791-80.79,80.791c-44.575,0-80.84-36.144-80.84-80.791c0-44.576,36.216-80.817,80.84-80.817
					C1589.084,1319.319,1625.225,1355.438,1625.225,1400.137z"/>
				<path fill="none" stroke="#FFFFFF" stroke-width="2" stroke-miterlimit="10" d="M1625.225,1238.529
					c0,44.649-36.092,80.766-80.79,80.766c-44.575,0-80.84-36.116-80.84-80.766c0-44.575,36.216-80.815,80.84-80.815
					C1589.084,1157.714,1625.225,1193.879,1625.225,1238.529z"/>
				<path fill="none" stroke="#FFFFFF" stroke-width="2" stroke-miterlimit="10" d="M1485.28,996.106
					c0,44.647-36.216,80.79-80.766,80.79c-44.675,0-80.866-36.143-80.866-80.79c0-44.576,36.191-80.816,80.866-80.816
					C1449.064,915.29,1485.28,951.48,1485.28,996.106z"/>
				<path fill="none" stroke="#FFFFFF" stroke-width="2" stroke-miterlimit="10" d="M1205.289,1480.928
					c0,44.649-36.216,80.814-80.767,80.814c-44.625,0-80.842-36.189-80.842-80.814c0-44.575,36.192-80.791,80.842-80.791
					C1169.073,1400.137,1205.289,1436.302,1205.289,1480.928z"/>
				<path fill="none" stroke="#FFFFFF" stroke-width="2" stroke-miterlimit="10" d="M1765.246,1480.928
					c0,44.649-36.216,80.814-80.767,80.814c-44.647,0-80.863-36.189-80.863-80.814c0-44.575,36.189-80.815,80.863-80.815
					C1729.03,1400.112,1765.246,1436.302,1765.246,1480.928z"/>
				<path fill="none" stroke="#FFFFFF" stroke-width="2" stroke-miterlimit="10" d="M1765.246,1157.738
					c0,44.647-36.216,80.791-80.791,80.791c-44.623,0-80.839-36.144-80.839-80.791c0-44.577,36.189-80.793,80.839-80.793
					C1729.03,1076.945,1765.246,1113.089,1765.246,1157.738z"/>
				<path fill="none" stroke="#FFFFFF" stroke-width="2" stroke-miterlimit="10" d="M1485.256,1642.56
					c0,44.6-36.217,80.791-80.769,80.791c-44.697,0-80.864-36.191-80.864-80.791c0-44.575,36.068-80.817,80.864-80.817
					C1449.064,1561.742,1485.256,1597.886,1485.256,1642.56z"/>
			</g>
			<g id="fruit_9_">
				<path fill="none" stroke="#FFFFFF" stroke-width="2" stroke-miterlimit="10" d="M925.223,1642.412
					c0,44.674-36.216,80.79-80.768,80.79c-44.722,0-80.84-36.116-80.84-80.79c0-44.575,36.068-80.791,80.84-80.791
					C889.032,1561.621,925.223,1597.788,925.223,1642.412z"/>
				<path fill="none" stroke="#FFFFFF" stroke-width="2" stroke-miterlimit="10" d="M925.223,1480.828
					c0,44.649-36.216,80.793-80.768,80.793c-44.722,0-80.84-36.144-80.84-80.793c0-44.575,36.068-80.791,80.84-80.791
					C889.032,1400.013,925.223,1436.181,925.223,1480.828z"/>
				<path fill="none" stroke="#FFFFFF" stroke-width="2" stroke-miterlimit="10" d="M785.252,1561.621
					c0,44.647-36.069,80.767-80.766,80.767c-44.576,0-80.842-36.119-80.842-80.767c0-44.577,36.216-80.817,80.842-80.817
					C749.085,1480.804,785.252,1516.971,785.252,1561.621z"/>
				<path fill="none" stroke="#FFFFFF" stroke-width="2" stroke-miterlimit="10" d="M785.252,1723.229
					c0,44.648-36.069,80.791-80.766,80.791c-44.576,0-80.816-36.143-80.816-80.791c0-44.576,36.216-80.816,80.816-80.816
					C749.109,1642.412,785.252,1678.53,785.252,1723.229z"/>
				<path fill="none" stroke="#FFFFFF" stroke-width="2" stroke-miterlimit="10" d="M925.223,1804.02
					c0,44.649-36.216,80.815-80.768,80.815c-44.722,0-80.84-36.192-80.84-80.815c0-44.575,36.068-80.817,80.84-80.817
					C889.056,1723.202,925.223,1759.395,925.223,1804.02z"/>
				<path fill="none" stroke="#FFFFFF" stroke-width="2" stroke-miterlimit="10" d="M1065.244,1723.229
					c0,44.648-36.094,80.791-80.792,80.791c-44.575,0-80.84-36.143-80.84-80.791c0-44.576,36.216-80.816,80.84-80.816
					C1029.101,1642.412,1065.244,1678.53,1065.244,1723.229z"/>
				<path fill="none" stroke="#FFFFFF" stroke-width="2" stroke-miterlimit="10" d="M1065.244,1561.621
					c0,44.647-36.094,80.767-80.792,80.767c-44.575,0-80.84-36.119-80.84-80.767c0-44.577,36.216-80.817,80.84-80.817
					C1029.101,1480.804,1065.244,1516.971,1065.244,1561.621z"/>
				<path fill="none" stroke="#FFFFFF" stroke-width="2" stroke-miterlimit="10" d="M645.33,1480.828
					c0,44.649-36.216,80.793-80.767,80.793c-44.673,0-80.841-36.168-80.841-80.793c0-44.575,36.192-80.791,80.841-80.791
					C609.114,1400.037,645.33,1436.181,645.33,1480.828z"/>
				<path fill="none" stroke="#FFFFFF" stroke-width="2" stroke-miterlimit="10" d="M645.33,1804.02
					c0,44.649-36.216,80.815-80.767,80.815c-44.649,0-80.841-36.192-80.841-80.815c0-44.575,36.192-80.791,80.841-80.791
					C609.089,1723.229,645.33,1759.395,645.33,1804.02z"/>
				<path fill="none" stroke="#FFFFFF" stroke-width="2" stroke-miterlimit="10" d="M1205.264,1804.02
					c0,44.649-36.216,80.815-80.767,80.815c-44.649,0-80.841-36.192-80.841-80.815c0-44.575,36.191-80.817,80.841-80.817
					C1169.048,1723.202,1205.264,1759.395,1205.264,1804.02z"/>
				<path fill="none" stroke="#FFFFFF" stroke-width="2" stroke-miterlimit="10" d="M1205.264,1480.828
					c0,44.649-36.216,80.793-80.791,80.793c-44.625,0-80.841-36.144-80.841-80.793c0-44.575,36.191-80.791,80.841-80.791
					C1169.048,1400.037,1205.264,1436.181,1205.264,1480.828z"/>
				<path fill="none" stroke="#FFFFFF" stroke-width="2" stroke-miterlimit="10" d="M925.272,1965.651
					c0,44.6-36.216,80.791-80.766,80.791c-44.723,0-80.866-36.191-80.866-80.791c0-44.576,36.069-80.816,80.866-80.816
					C889.081,1884.835,925.272,1920.978,925.272,1965.651z"/>
			</g>
			<g id="fruit_8_">
				<path fill="none" stroke="#FFFFFF" stroke-width="2" stroke-miterlimit="10" d="M365.24,1319.198
					c0,44.672-36.216,80.79-80.767,80.79c-44.723,0-80.84-36.118-80.84-80.79c0-44.577,36.068-80.793,80.84-80.793
					C329.024,1238.405,365.24,1274.548,365.24,1319.198z"/>
				<path fill="none" stroke="#FFFFFF" stroke-width="2" stroke-miterlimit="10" d="M365.24,1157.614
					c0,44.65-36.216,80.791-80.767,80.791c-44.723,0-80.84-36.141-80.84-80.791c0-44.649,36.068-80.791,80.84-80.791
					C329.024,1076.8,365.24,1112.965,365.24,1157.614z"/>
				<path fill="none" stroke="#FFFFFF" stroke-width="2" stroke-miterlimit="10" d="M225.269,1238.405
					c0,44.649-36.216,80.769-80.766,80.769c-44.699,0-81.234-36.119-81.234-80.769c0-44.647,36.216-80.815,81.234-80.815
					C189.078,1157.59,225.269,1193.758,225.269,1238.405z"/>
				<path fill="none" stroke="#FFFFFF" stroke-width="2" stroke-miterlimit="10" d="M225.269,1400.013
					c0,44.65-36.216,80.791-80.766,80.791c-44.649,0-81.21-36.141-81.21-80.791c0-44.574,36.216-80.814,81.21-80.814
					C189.078,1319.198,225.269,1355.29,225.269,1400.013z"/>
				<path fill="none" stroke="#FFFFFF" stroke-width="2" stroke-miterlimit="10" d="M365.24,1480.804
					c0,44.649-36.216,80.817-80.767,80.817c-44.723,0-80.84-36.191-80.84-80.817c0-44.623,36.068-80.815,80.84-80.815
					C329.048,1399.988,365.24,1436.181,365.24,1480.804z"/>
				<path fill="none" stroke="#FFFFFF" stroke-width="2" stroke-miterlimit="10" d="M505.236,1400.013
					c0,44.65-36.093,80.791-80.792,80.791c-44.575,0-80.84-36.141-80.84-80.791c0-44.574,36.216-80.814,80.84-80.814
					C469.094,1319.198,505.236,1355.29,505.236,1400.013z"/>
				<path fill="none" stroke="#FFFFFF" stroke-width="2" stroke-miterlimit="10" d="M505.236,1238.405
					c0,44.649-36.093,80.769-80.792,80.769c-44.575,0-80.84-36.119-80.84-80.769c0-44.647,36.216-80.815,80.84-80.815
					C469.094,1157.59,505.236,1193.758,505.236,1238.405z"/>
				<path fill="none" stroke="#FFFFFF" stroke-width="2" stroke-miterlimit="10" d="M365.29,995.982
					c0,44.649-36.191,80.793-80.767,80.793c-44.673,0-80.84-36.144-80.84-80.793c0-44.648,36.167-80.815,80.84-80.815
					C329.098,915.167,365.29,951.358,365.29,995.982z"/>
				<path fill="none" stroke="#FFFFFF" stroke-width="2" stroke-miterlimit="10" d="M85.322,1157.614
					c0,44.65-36.166,80.791-80.766,80.791c-44.576,0-80.841-36.165-80.841-80.791c0-44.649,36.216-80.791,80.841-80.791
					C49.131,1076.823,85.322,1112.965,85.322,1157.614z"/>
				<path fill="none" stroke="#FFFFFF" stroke-width="2" stroke-miterlimit="10" d="M85.322,1480.804
					c0,44.649-36.166,80.817-80.766,80.817c-44.576,0-80.841-36.191-80.841-80.817c0-44.623,36.216-80.791,80.841-80.791
					C49.106,1400.013,85.322,1436.181,85.322,1480.804z"/>
				<path fill="none" stroke="#FFFFFF" stroke-width="2" stroke-miterlimit="10" d="M645.281,1480.804
					c0,44.649-36.216,80.817-80.767,80.817c-44.65,0-80.84-36.191-80.84-80.817c0-44.623,36.19-80.815,80.84-80.815
					C609.04,1399.988,645.281,1436.181,645.281,1480.804z"/>
				<path fill="none" stroke="#FFFFFF" stroke-width="2" stroke-miterlimit="10" d="M645.281,1157.614
					c0,44.65-36.216,80.791-80.791,80.791c-44.625,0-80.841-36.141-80.841-80.791c0-44.649,36.191-80.791,80.841-80.791
					C609.04,1076.823,645.281,1112.965,645.281,1157.614z"/>
				<path fill="none" stroke="#FFFFFF" stroke-width="2" stroke-miterlimit="10" d="M365.265,1642.436
					c0,44.602-36.216,80.793-80.767,80.793c-44.723,0-80.865-36.191-80.865-80.793c0-44.574,36.068-80.814,80.865-80.814
					C329.098,1561.621,365.265,1597.762,365.265,1642.436z"/>
			</g>
			<g id="fruit_7_">
				<path fill="none" stroke="#FFFFFF" stroke-width="2" stroke-miterlimit="10" d="M365.24,672.817
					c0,44.575-36.216,80.791-80.767,80.791c-44.723,0-80.84-36.216-80.84-80.791c0-44.624,36.068-80.792,80.84-80.792
					C329.024,592.025,365.24,628.193,365.24,672.817z"/>
				<path fill="none" stroke="#FFFFFF" stroke-width="2" stroke-miterlimit="10" d="M365.24,511.235
					c0,44.574-36.216,80.79-80.767,80.79c-44.723,0-80.84-36.216-80.84-80.79c0-44.65,36.068-80.792,80.84-80.792
					C329.024,430.419,365.24,466.585,365.24,511.235z"/>
				<path fill="none" stroke="#FFFFFF" stroke-width="2" stroke-miterlimit="10" d="M225.269,592.025
					c0,44.576-36.216,80.768-80.766,80.768c-44.699,0-81.234-36.216-81.234-80.768c0-44.673,36.216-80.815,81.234-80.815
					C189.078,511.21,225.269,547.377,225.269,592.025z"/>
				<path fill="none" stroke="#FFFFFF" stroke-width="2" stroke-miterlimit="10" d="M225.269,753.634
					c0,44.574-36.216,80.791-80.766,80.791c-44.649,0-81.21-36.217-81.21-80.791c0-44.698,36.216-80.816,81.21-80.816
					C189.078,672.817,225.269,708.936,225.269,753.634z"/>
				<path fill="none" stroke="#FFFFFF" stroke-width="2" stroke-miterlimit="10" d="M365.24,834.425
					c0,44.575-36.216,80.815-80.767,80.815c-44.723,0-80.84-36.191-80.84-80.815c0-44.625,36.068-80.816,80.84-80.816
					C329.048,753.608,365.24,789.8,365.24,834.425z"/>
				<path fill="none" stroke="#FFFFFF" stroke-width="2" stroke-miterlimit="10" d="M505.236,753.634
					c0,44.574-36.093,80.791-80.792,80.791c-44.575,0-80.84-36.217-80.84-80.791c0-44.674,36.216-80.816,80.84-80.816
					C469.094,672.817,505.236,708.936,505.236,753.634z"/>
				<path fill="none" stroke="#FFFFFF" stroke-width="2" stroke-miterlimit="10" d="M505.236,592.025
					c0,44.576-36.093,80.768-80.792,80.768c-44.575,0-80.84-36.216-80.84-80.768c0-44.673,36.216-80.815,80.84-80.815
					C469.094,511.21,505.236,547.377,505.236,592.025z"/>
				<path fill="none" stroke="#FFFFFF" stroke-width="2" stroke-miterlimit="10" d="M365.29,349.603
					c0,44.576-36.191,80.792-80.767,80.792c-44.673,0-80.84-36.216-80.84-80.792c0-44.648,36.167-80.815,80.84-80.815
					C329.098,268.787,365.29,304.979,365.29,349.603z"/>
				<path fill="none" stroke="#FFFFFF" stroke-width="2" stroke-miterlimit="10" d="M85.322,511.235
					c0,44.574-36.166,80.79-80.766,80.79c-44.576,0-80.841-36.216-80.841-80.79c0-44.65,36.216-80.792,80.841-80.792
					C49.131,430.443,85.322,466.585,85.322,511.235z"/>
				<path fill="none" stroke="#FFFFFF" stroke-width="2" stroke-miterlimit="10" d="M85.322,834.425
					c0,44.575-36.166,80.815-80.766,80.815c-44.576,0-80.841-36.191-80.841-80.815c0-44.625,36.216-80.791,80.841-80.791
					C49.106,753.634,85.322,789.8,85.322,834.425z"/>
				<path fill="none" stroke="#FFFFFF" stroke-width="2" stroke-miterlimit="10" d="M645.281,511.235
					c0,44.574-36.216,80.79-80.791,80.79c-44.625,0-80.841-36.216-80.841-80.79c0-44.65,36.191-80.792,80.841-80.792
					C609.04,430.443,645.281,466.585,645.281,511.235z"/>
			</g>
			<g id="fruit_6_">
				<path fill="none" stroke="#FFFFFF" stroke-width="2" stroke-miterlimit="10" d="M925.223,349.505
					c0,44.575-36.216,80.791-80.768,80.791c-44.722,0-80.84-36.216-80.84-80.791c0-44.625,36.068-80.792,80.84-80.792
					C889.032,268.713,925.223,304.88,925.223,349.505z"/>
				<path fill="none" stroke="#FFFFFF" stroke-width="2" stroke-miterlimit="10" d="M925.223,187.922
					c0,44.575-36.216,80.791-80.768,80.791c-44.722,0-80.84-36.216-80.84-80.791c0-44.649,36.068-80.792,80.84-80.792
					C889.032,107.106,925.223,143.272,925.223,187.922z"/>
				<path fill="none" stroke="#FFFFFF" stroke-width="2" stroke-miterlimit="10" d="M785.252,268.713
					c0,44.575-36.069,80.768-80.766,80.768c-44.576,0-80.842-36.216-80.842-80.768c0-44.673,36.216-80.815,80.842-80.815
					C749.085,187.897,785.252,224.064,785.252,268.713z"/>
				<path fill="none" stroke="#FFFFFF" stroke-width="2" stroke-miterlimit="10" d="M785.252,430.32
					c0,44.576-36.069,80.792-80.766,80.792c-44.576,0-80.816-36.216-80.816-80.792c0-44.698,36.216-80.815,80.816-80.815
					C749.109,349.505,785.252,385.622,785.252,430.32z"/>
				<path fill="none" stroke="#FFFFFF" stroke-width="2" stroke-miterlimit="10" d="M925.223,511.112
					c0,44.575-36.216,80.815-80.768,80.815c-44.722,0-80.84-36.216-80.84-80.815c0-44.625,36.068-80.816,80.84-80.816
					C889.056,430.296,925.223,466.487,925.223,511.112z"/>
				<path fill="none" stroke="#FFFFFF" stroke-width="2" stroke-miterlimit="10" d="M1065.244,430.32
					c0,44.576-36.094,80.792-80.792,80.792c-44.575,0-80.84-36.216-80.84-80.792c0-44.674,36.216-80.815,80.84-80.815
					C1029.101,349.505,1065.244,385.622,1065.244,430.32z"/>
				<path fill="none" stroke="#FFFFFF" stroke-width="2" stroke-miterlimit="10" d="M1065.244,268.713
					c0,44.575-36.094,80.768-80.792,80.768c-44.575,0-80.84-36.216-80.84-80.768c0-44.673,36.216-80.815,80.84-80.815
					C1029.101,187.897,1065.244,224.064,1065.244,268.713z"/>
				<path fill="none" stroke="#FFFFFF" stroke-width="2" stroke-miterlimit="10" d="M925.296,26.29
					c0,44.575-36.216,80.792-80.767,80.792c-44.674,0-80.84-36.217-80.84-80.792c0-44.649,36.166-80.841,80.84-80.841
					C889.081-54.526,925.296-18.335,925.296,26.29z"/>
				<path fill="none" stroke="#FFFFFF" stroke-width="2" stroke-miterlimit="10" d="M645.33,187.922
					c0,44.575-36.216,80.791-80.767,80.791c-44.673,0-80.841-36.216-80.841-80.791c0-44.649,36.192-80.792,80.841-80.792
					C609.114,107.13,645.33,143.272,645.33,187.922z"/>
				<path fill="none" stroke="#FFFFFF" stroke-width="2" stroke-miterlimit="10" d="M645.33,511.112
					c0,44.575-36.216,80.815-80.767,80.815c-44.649,0-80.841-36.216-80.841-80.815c0-44.625,36.192-80.792,80.841-80.792
					C609.089,430.32,645.33,466.487,645.33,511.112z"/>
				<path fill="none" stroke="#FFFFFF" stroke-width="2" stroke-miterlimit="10" d="M1205.264,511.112
					c0,44.575-36.216,80.815-80.767,80.815c-44.649,0-80.841-36.216-80.841-80.815c0-44.625,36.191-80.816,80.841-80.816
					C1169.048,430.296,1205.264,466.487,1205.264,511.112z"/>
				<path fill="none" stroke="#FFFFFF" stroke-width="2" stroke-miterlimit="10" d="M1205.264,187.922
					c0,44.575-36.216,80.791-80.791,80.791c-44.625,0-80.841-36.216-80.841-80.791c0-44.649,36.191-80.792,80.841-80.792
					C1169.048,107.13,1205.264,143.272,1205.264,187.922z"/>
			</g>
		</g>
		<g id="hexagon">
			<polygon fill="#FFFFFF" fill-opacity="0" stroke="#FFE86D" stroke-miterlimit="10" stroke-opacity="0" points="3.419,510.399 
				844.4,24.854 1685.389,510.399 1685.389,1481.491 844.4,1967.037 3.419,1481.491 			"/>
		</g>
	</g>
</g>
<g id="Layer_2" display="none">
	<g id="sixtyFour_2_" display="inline">
		
			<line fill="none" stroke="#FFFFFF" stroke-width="4" stroke-miterlimit="10" x1="844.347" y1="350.184" x2="844.33" y2="1641.707"/>
		
			<line fill="none" stroke="#FFFFFF" stroke-width="4" stroke-miterlimit="10" x1="1403.694" y1="673.089" x2="284.952" y2="1318.845"/>
		
			<line fill="none" stroke="#FFFFFF" stroke-width="4" stroke-miterlimit="10" x1="284.971" y1="673.059" x2="1403.706" y2="1318.833"/>
		
			<line fill="none" stroke="#FFFFFF" stroke-width="4" stroke-miterlimit="10" x1="564.623" y1="511.635" x2="1403.739" y2="995.962"/>
		
			<line fill="none" stroke="#FFFFFF" stroke-width="4" stroke-miterlimit="10" x1="1403.739" y1="995.962" x2="564.607" y2="1480.25"/>
		
			<line fill="none" stroke="#FFFFFF" stroke-width="4" stroke-miterlimit="10" x1="564.607" y1="1480.25" x2="564.623" y2="511.635"/>
		
			<line fill="none" stroke="#FFFFFF" stroke-width="4" stroke-miterlimit="10" x1="1124.002" y1="511.625" x2="1124.024" y2="1480.285"/>
		
			<line fill="none" stroke="#FFFFFF" stroke-width="4" stroke-miterlimit="10" x1="1124.024" y1="1480.285" x2="284.987" y2="995.962"/>
		
			<line fill="none" stroke="#FFFFFF" stroke-width="4" stroke-miterlimit="10" x1="284.987" y1="995.962" x2="1124.002" y2="511.625"/>
		
			<line fill="none" stroke="#FFFFFF" stroke-width="4" stroke-miterlimit="10" x1="424.804" y1="1076.667" x2="1123.977" y2="673.014"/>
		
			<line fill="none" stroke="#FFFFFF" stroke-width="4" stroke-miterlimit="10" x1="564.623" y1="511.635" x2="284.987" y2="995.962"/>
		
			<line fill="none" stroke="#FFFFFF" stroke-width="4" stroke-miterlimit="10" x1="284.987" y1="995.962" x2="564.607" y2="1480.25"/>
		
			<line fill="none" stroke="#FFFFFF" stroke-width="4" stroke-miterlimit="10" x1="564.607" y1="1480.25" x2="1124.024" y2="1480.285"/>
		
			<line fill="none" stroke="#FFFFFF" stroke-width="4" stroke-miterlimit="10" x1="1124.024" y1="1480.285" x2="1403.739" y2="995.962"/>
		
			<line fill="none" stroke="#FFFFFF" stroke-width="4" stroke-miterlimit="10" x1="1403.739" y1="995.962" x2="1124.002" y2="511.625"/>
		
			<line fill="none" stroke="#FFFFFF" stroke-width="4" stroke-miterlimit="10" x1="1124.002" y1="511.625" x2="564.623" y2="511.635"/>
		
			<line fill="none" stroke="#FFFFFF" stroke-width="4" stroke-miterlimit="10" x1="984.17" y1="592.355" x2="984.167" y2="1399.564"/>
		
			<line fill="none" stroke="#FFFFFF" stroke-width="4" stroke-miterlimit="10" x1="704.474" y1="592.314" x2="704.47" y2="1399.523"/>
		
			<line fill="none" stroke="#FFFFFF" stroke-width="4" stroke-miterlimit="10" x1="564.377" y1="673.246" x2="1263.838" y2="1076.655"/>
		
			<line fill="none" stroke="#FFFFFF" stroke-width="4" stroke-miterlimit="10" x1="424.796" y1="915.236" x2="1124.258" y2="1318.646"/>
		
			<line fill="none" stroke="#FFFFFF" stroke-width="4" stroke-miterlimit="10" x1="564.666" y1="1318.88" x2="1263.838" y2="915.228"/>
		
			<line fill="none" stroke="#FFFFFF" stroke-width="4" stroke-miterlimit="10" x1="284.952" y1="1318.845" x2="1403.706" y2="1318.833"/>
		
			<line fill="none" stroke="#FFFFFF" stroke-width="4" stroke-miterlimit="10" x1="1403.694" y1="673.089" x2="284.971" y2="673.059"/>
		
			<line fill="none" stroke="#FFFFFF" stroke-width="4" stroke-miterlimit="10" x1="284.987" y1="995.962" x2="1403.739" y2="995.962"/>
		
			<line fill="none" stroke="#FFFFFF" stroke-width="4" stroke-miterlimit="10" x1="704.497" y1="592.356" x2="984.17" y2="592.355"/>
		
			<line fill="none" stroke="#FFFFFF" stroke-width="4" stroke-miterlimit="10" x1="1263.838" y1="753.785" x2="424.804" y2="753.831"/>
		
			<line fill="none" stroke="#FFFFFF" stroke-width="4" stroke-miterlimit="10" x1="1124.258" y1="834.497" x2="564.38" y2="834.507"/>
		
			<line fill="none" stroke="#FFFFFF" stroke-width="4" stroke-miterlimit="10" x1="1263.825" y1="915.228" x2="424.824" y2="915.236"/>
		
			<line fill="none" stroke="#FFFFFF" stroke-width="4" stroke-miterlimit="10" x1="1263.84" y1="1076.655" x2="424.799" y2="1076.667"/>
		
			<line fill="none" stroke="#FFFFFF" stroke-width="4" stroke-miterlimit="10" x1="1310.483" y1="1157.433" x2="378.207" y2="1157.364"/>
		
			<line fill="none" stroke="#FFFFFF" stroke-width="4" stroke-miterlimit="10" x1="1263.838" y1="1238.097" x2="424.796" y2="1238.144"/>
		
			<line fill="none" stroke="#FFFFFF" stroke-width="4" stroke-miterlimit="10" x1="984.167" y1="1399.564" x2="704.411" y2="1399.564"/>
		
			<line fill="none" stroke="#FFFFFF" stroke-width="4" stroke-miterlimit="10" x1="424.89" y1="915.272" x2="564.727" y2="673.064"/>
		
			<line fill="none" stroke="#FFFFFF" stroke-width="4" stroke-miterlimit="10" x1="843.8" y1="512.572" x2="424.885" y2="1238.229"/>
		
			<line fill="none" stroke="#FFFFFF" stroke-width="4" stroke-miterlimit="10" x1="984.168" y1="592.314" x2="564.676" y2="1318.915"/>
		
			<line fill="none" stroke="#FFFFFF" stroke-width="4" stroke-miterlimit="10" x1="1123.977" y1="673.014" x2="704.467" y2="1399.652"/>
		
			<line fill="none" stroke="#FFFFFF" stroke-width="4" stroke-miterlimit="10" x1="1124.067" y1="834.385" x2="844.287" y2="1318.896"/>
		
			<line fill="none" stroke="#FFFFFF" stroke-width="4" stroke-miterlimit="10" x1="1263.79" y1="753.737" x2="844.324" y2="1480.25"/>
		
			<line fill="none" stroke="#FFFFFF" stroke-width="4" stroke-miterlimit="10" x1="1263.788" y1="1076.671" x2="1123.909" y2="1318.95"/>
		
			<line fill="none" stroke="#FFFFFF" stroke-width="4" stroke-miterlimit="10" x1="284.952" y1="1318.845" x2="844.347" y2="350.184"/>
		
			<line fill="none" stroke="#FFFFFF" stroke-width="4" stroke-miterlimit="10" x1="1403.694" y1="673.089" x2="844.33" y2="1641.707"/>
		
			<line fill="none" stroke="#FFFFFF" stroke-width="4" stroke-miterlimit="10" x1="1124.002" y1="511.625" x2="564.607" y2="1480.25"/>
		
			<line fill="none" stroke="#FFFFFF" stroke-width="4" stroke-miterlimit="10" x1="844.287" y1="511.595" x2="1263.848" y2="1238.206"/>
		
			<line fill="none" stroke="#FFFFFF" stroke-width="4" stroke-miterlimit="10" x1="564.731" y1="1318.872" x2="424.891" y2="1076.667"/>
		
			<line fill="none" stroke="#FFFFFF" stroke-width="4" stroke-miterlimit="10" x1="424.804" y1="753.831" x2="844.324" y2="1480.25"/>
		
			<line fill="none" stroke="#FFFFFF" stroke-width="4" stroke-miterlimit="10" x1="564.608" y1="834.375" x2="844.335" y2="1318.868"/>
		
			<line fill="none" stroke="#FFFFFF" stroke-width="4" stroke-miterlimit="10" x1="564.681" y1="673.042" x2="984.167" y2="1399.564"/>
		
			<line fill="none" stroke="#FFFFFF" stroke-width="4" stroke-miterlimit="10" x1="704.474" y1="592.314" x2="1124.002" y2="1318.942"/>
		
			<line fill="none" stroke="#FFFFFF" stroke-width="4" stroke-miterlimit="10" x1="1123.954" y1="673.065" x2="1263.834" y2="915.341"/>
		
			<line fill="none" stroke="#FFFFFF" stroke-width="4" stroke-miterlimit="10" x1="564.623" y1="511.635" x2="1124.024" y2="1480.285"/>
		
			<line fill="none" stroke="#FFFFFF" stroke-width="4" stroke-miterlimit="10" x1="844.347" y1="350.184" x2="1403.706" y2="1318.833"/>
		
			<line fill="none" stroke="#FFFFFF" stroke-width="4" stroke-miterlimit="10" x1="844.33" y1="1641.707" x2="284.971" y2="673.059"/>
		
			<line fill="none" stroke="#FFFFFF" stroke-width="4" stroke-miterlimit="10" x1="844.324" y1="1480.25" x2="984.106" y2="1399.564"/>
		
			<line fill="none" stroke="#FFFFFF" stroke-width="4" stroke-miterlimit="10" x1="1122.797" y1="1319.507" x2="1263.838" y2="1238.097"/>
		
			<line fill="none" stroke="#FFFFFF" stroke-width="4" stroke-miterlimit="10" x1="1263.838" y1="915.228" x2="1263.838" y2="753.785"/>
		
			<line fill="none" stroke="#FFFFFF" stroke-width="4" stroke-miterlimit="10" x1="1263.838" y1="1238.097" x2="1263.838" y2="1076.655"/>
		
			<line fill="none" stroke="#FFFFFF" stroke-width="4" stroke-miterlimit="10" x1="844.302" y1="511.625" x2="704.497" y2="592.346"/>
		
			<line fill="none" stroke="#FFFFFF" stroke-width="4" stroke-miterlimit="10" x1="564.377" y1="673.246" x2="424.804" y2="753.831"/>
		
			<line fill="none" stroke="#FFFFFF" stroke-width="4" stroke-miterlimit="10" x1="424.796" y1="1238.144" x2="564.666" y2="1318.86"/>
		
			<line fill="none" stroke="#FFFFFF" stroke-width="4" stroke-miterlimit="10" x1="704.127" y1="1399.342" x2="844.324" y2="1480.25"/>
		
			<line fill="none" stroke="#FFFFFF" stroke-width="4" stroke-miterlimit="10" x1="424.804" y1="1076.667" x2="424.796" y2="1238.144"/>
		
			<line fill="none" stroke="#FFFFFF" stroke-width="4" stroke-miterlimit="10" x1="424.804" y1="753.831" x2="424.796" y2="915.236"/>
		
			<line fill="none" stroke="#FFFFFF" stroke-width="4" stroke-miterlimit="10" x1="984.168" y1="592.314" x2="844.302" y2="511.625"/>
		
			<line fill="none" stroke="#FFFFFF" stroke-width="4" stroke-miterlimit="10" x1="1263.838" y1="753.785" x2="1123.977" y2="673.014"/>
		
			<line fill="none" stroke="#FFFFFF" stroke-width="4" stroke-miterlimit="10" x1="564.731" y1="1157.522" x2="844.621" y2="673.246"/>
		
			<line fill="none" stroke="#FFFFFF" stroke-width="4" stroke-miterlimit="10" x1="844.621" y1="673.246" x2="1124.258" y2="1157.526"/>
		<circle fill="none" stroke="#FFFFFF" stroke-width="4" stroke-miterlimit="10" cx="844.346" cy="995.946" r="726.798"/>
	</g>
</g>
<g id="Layer_3" display="none">
	<g id="sixtyFour_3_" display="inline">
		<g>
			<circle fill="none" stroke="#FFFFFF" stroke-width="8" cx="844.346" cy="995.946" r="726.797"/>
			<line fill="none" stroke="#FFFFFF" stroke-width="8" x1="845.322" y1="349.881" x2="845.303" y2="995.946"/>
			<line fill="none" stroke="#FFFFFF" stroke-width="8" x1="844.346" y1="996.212" x2="285.925" y2="1318.542"/>
			<line fill="none" stroke="#FFFFFF" stroke-width="8" x1="845.84" y1="995.946" x2="1404.68" y2="1318.53"/>
			<line fill="none" stroke="#FFFFFF" stroke-width="8" x1="1125.073" y1="834.253" x2="1404.713" y2="995.657"/>
			<line fill="none" stroke="#FFFFFF" stroke-width="8" x1="844.977" y1="1318.698" x2="565.581" y2="1479.946"/>
			<line fill="none" stroke="#FFFFFF" stroke-width="8" x1="565.586" y1="834.202" x2="565.591" y2="511.331"/>
			<line fill="none" stroke="#FFFFFF" stroke-width="8" x1="1124.985" y1="511.32" x2="1124.991" y2="834.229"/>
			<line fill="none" stroke="#FFFFFF" stroke-width="8" x1="1124.999" y1="1479.981" x2="845.208" y2="1318.476"/>
			<line fill="none" stroke="#FFFFFF" stroke-width="8" x1="285.96" y1="995.657" x2="564.307" y2="834.978"/>
			<line fill="none" stroke="#FFFFFF" stroke-width="8" x1="379.255" y1="834.071" x2="285.96" y2="995.657"/>
			<line fill="none" stroke="#FFFFFF" stroke-width="8" x1="565.596" y1="511.331" x2="472.288" y2="672.941"/>
			<line fill="none" stroke="#FFFFFF" stroke-width="8" x1="285.96" y1="995.657" x2="565.581" y2="1479.946"/>
			<line fill="none" stroke="#FFFFFF" stroke-width="8" x1="938.225" y1="1479.958" x2="1124.999" y2="1479.97"/>
			<line fill="none" stroke="#FFFFFF" stroke-width="8" x1="565.581" y1="1479.958" x2="752.164" y2="1479.97"/>
			<line fill="none" stroke="#FFFFFF" stroke-width="8" x1="1124.999" y1="1479.981" x2="1404.713" y2="995.657"/>
			<line fill="none" stroke="#FFFFFF" stroke-width="8" x1="1404.713" y1="995.657" x2="1311.188" y2="833.726"/>
			<line fill="none" stroke="#FFFFFF" stroke-width="8" x1="1218.819" y1="673.8" x2="1124.977" y2="511.32"/>
			<line fill="none" stroke="#FFFFFF" stroke-width="8" x1="1124.977" y1="511.32" x2="565.596" y2="511.331"/>
			<line fill="none" stroke="#FFFFFF" stroke-width="8" x1="1217.694" y1="1318.536" x2="1404.68" y2="1318.534"/>
			<line fill="none" stroke="#FFFFFF" stroke-width="8" x1="285.925" y1="1318.536" x2="472.928" y2="1318.534"/>
			<line fill="none" stroke="#FFFFFF" stroke-width="8" x1="1404.668" y1="672.785" x2="285.944" y2="672.755"/>
			<line fill="none" stroke="#FFFFFF" stroke-width="8" x1="1218.163" y1="995.657" x2="1404.713" y2="995.657"/>
			<line fill="none" stroke="#FFFFFF" stroke-width="8" x1="285.96" y1="995.657" x2="472.212" y2="995.657"/>
			<line fill="none" stroke="#FFFFFF" stroke-width="8" x1="1125.233" y1="834.192" x2="565.354" y2="834.202"/>
			<line fill="none" stroke="#FFFFFF" stroke-width="8" x1="1264.799" y1="914.927" x2="1079.008" y2="914.929"/>
			<line fill="none" stroke="#FFFFFF" stroke-width="8" x1="612.389" y1="914.927" x2="425.797" y2="914.929"/>
			<line fill="none" stroke="#FFFFFF" stroke-width="8" x1="986.006" y1="1076.353" x2="706" y2="1076.362"/>
			<line fill="none" stroke="#FFFFFF" stroke-width="8" x1="1125.254" y1="1157.132" x2="938.225" y2="1157.06"/>
			<line fill="none" stroke="#FFFFFF" stroke-width="8" x1="752.164" y1="1157.103" x2="565.136" y2="1157.087"/>
			<line fill="none" stroke="#FFFFFF" stroke-width="8" x1="985.141" y1="1399.259" x2="705.383" y2="1399.259"/>
			<line fill="none" stroke="#FFFFFF" stroke-width="8" x1="425.864" y1="914.968" x2="565.701" y2="672.759"/>
			<line fill="none" stroke="#FFFFFF" stroke-width="8" x1="518.578" y1="1077.286" x2="425.847" y2="1237.917"/>
			<line fill="none" stroke="#FFFFFF" stroke-width="8" x1="844.787" y1="512.274" x2="751.542" y2="673.8"/>
			<line fill="none" stroke="#FFFFFF" stroke-width="8" x1="1124.956" y1="672.711" x2="1031.709" y2="834.224"/>
			<line fill="none" stroke="#FFFFFF" stroke-width="8" x1="798.846" y1="1237.55" x2="705.436" y2="1399.347"/>
			<line fill="none" stroke="#FFFFFF" stroke-width="8" x1="1125.042" y1="834.081" x2="845.26" y2="1318.593"/>
			<line fill="none" stroke="#FFFFFF" stroke-width="8" x1="751.543" y1="512.268" x2="845.322" y2="349.881"/>
			<line fill="none" stroke="#FFFFFF" stroke-width="8" x1="285.925" y1="1318.542" x2="379.18" y2="1157.06"/>
			<line fill="none" stroke="#FFFFFF" stroke-width="8" x1="1404.668" y1="672.785" x2="845.303" y2="1641.403"/>
			<line fill="none" stroke="#FFFFFF" stroke-width="8" x1="1124.977" y1="511.32" x2="1031.926" y2="672.443"/>
			<line fill="none" stroke="#FFFFFF" stroke-width="8" x1="658.927" y1="1318.312" x2="565.581" y2="1479.946"/>
			<line fill="none" stroke="#FFFFFF" stroke-width="8" x1="1171.52" y1="1076.353" x2="1264.807" y2="1237.911"/>
			<line fill="none" stroke="#FFFFFF" stroke-width="8" x1="845.277" y1="511.283" x2="938.833" y2="673.307"/>
			<line fill="none" stroke="#FFFFFF" stroke-width="8" x1="565.582" y1="834.071" x2="845.309" y2="1318.563"/>
			<line fill="none" stroke="#FFFFFF" stroke-width="8" x1="892.996" y1="1239.688" x2="985.133" y2="1399.265"/>
			<line fill="none" stroke="#FFFFFF" stroke-width="8" x1="565.664" y1="672.734" x2="658.927" y2="834.261"/>
			<line fill="none" stroke="#FFFFFF" stroke-width="8" x1="1124.928" y1="672.761" x2="1264.809" y2="915.037"/>
			<line fill="none" stroke="#FFFFFF" stroke-width="8" x1="1031.651" y1="1318.343" x2="1124.999" y2="1479.981"/>
			<line fill="none" stroke="#FFFFFF" stroke-width="8" x1="565.596" y1="511.331" x2="659.094" y2="673.229"/>
			<line fill="none" stroke="#FFFFFF" stroke-width="8" x1="1311.438" y1="1157.06" x2="1404.68" y2="1318.53"/>
			<line fill="none" stroke="#FFFFFF" stroke-width="8" x1="845.322" y1="349.881" x2="939.094" y2="512.268"/>
			<line fill="none" stroke="#FFFFFF" stroke-width="8" x1="845.303" y1="1641.403" x2="285.944" y2="672.755"/>
			<line fill="none" stroke="#FFFFFF" stroke-width="8" x1="751.543" y1="835.672" x2="845.594" y2="672.941"/>
			<line fill="none" stroke="#FFFFFF" stroke-width="8" x1="565.705" y1="1157.22" x2="659.094" y2="995.634"/>
			<line fill="none" stroke="#FFFFFF" stroke-width="8" x1="1031.926" y1="995.634" x2="1125.233" y2="1157.224"/>
			<line fill="none" stroke="#FFFFFF" stroke-width="8" x1="845.594" y1="672.941" x2="939.094" y2="834.867"/>
			<line fill="none" stroke="#FFFFFF" stroke-width="8" x1="846.002" y1="834.071" x2="706" y2="1076.362"/>
			<line fill="none" stroke="#FFFFFF" stroke-width="8" x1="846.002" y1="834.071" x2="986.006" y2="1076.353"/>
			<line fill="none" stroke="#FFFFFF" stroke-width="8" x1="425.847" y1="1237.917" x2="612.398" y2="1237.917"/>
		</g>
	</g>
</g>
</svg>
