<?xml version="1.0" encoding="utf-8"?>
<!-- Generator: Adobe Illustrator 16.0.0, SVG Export Plug-In . SVG Version: 6.00 Build 0)  -->
<!DOCTYPE svg PUBLIC "-//W3C//DTD SVG 1.1//EN" "http://www.w3.org/Graphics/SVG/1.1/DTD/svg11.dtd">
<svg version="1.1" xmlns="http://www.w3.org/2000/svg" xmlns:xlink="http://www.w3.org/1999/xlink" x="0px" y="0px"
	 width="1984.252px" height="1984.252px" viewBox="0 0 1984.252 1984.252" enable-background="new 0 0 1984.252 1984.252"
	 xml:space="preserve">

	<style>
		#hexagon, #sixtyFour, #fruit {
			cursor: pointer;
			transition: 0.2s;
		}
	 </style>


<g id="Layer_1">
	<g id="_x36_4Tetra3DFullGroup">
		<g id="back">
			<rect id="image" y="-13.988" fill="#130E22" width="1984.252" height="2012.229"/>
		</g>
		<g id="fol" display="none">
			<g id="folGroup" display="inline">
				<g id="rotation_1_1_">
					<path fill="none" stroke="#FFFFFF" stroke-width="6" stroke-miterlimit="10" d="M1153.493,992.146
						c0,89.16-72.295,161.414-161.386,161.414c-89.201,0-161.497-72.252-161.497-161.414c0-89.219,72.296-161.471,161.497-161.471
						C1081.198,830.677,1153.493,902.929,1153.493,992.146z"/>
					<path fill="none" stroke="#FFFFFF" stroke-width="6" stroke-miterlimit="10" d="M1153.493,1153.589
						c0,89.16-72.295,161.412-161.386,161.412c-89.201,0-161.497-72.252-161.497-161.412c0-89.219,72.296-161.471,161.497-161.471
						C1081.198,992.118,1153.493,1064.37,1153.493,1153.589z"/>
					<path fill="none" stroke="#FFFFFF" stroke-width="6" stroke-miterlimit="10" d="M1293.342,1072.868
						c0,89.16-72.294,161.412-161.386,161.412c-89.201,0-161.496-72.252-161.496-161.412c0-89.219,72.295-161.471,161.496-161.471
						C1221.048,911.396,1293.342,983.649,1293.342,1072.868z"/>
					<path fill="none" stroke="#FFFFFF" stroke-width="6" stroke-miterlimit="10" d="M1293.334,911.426
						c0,89.159-72.294,161.413-161.386,161.413c-89.201,0-161.496-72.254-161.496-161.413c0-89.218,72.295-161.47,161.496-161.47
						C1221.04,749.956,1293.334,822.208,1293.334,911.426z"/>
					<path fill="none" stroke="#FFFFFF" stroke-width="6" stroke-miterlimit="10" d="M1153.493,830.704
						c0,89.161-72.295,161.414-161.386,161.414c-89.202,0-161.496-72.253-161.496-161.414c0-89.216,72.294-161.469,161.496-161.469
						C1081.198,669.235,1153.493,741.488,1153.493,830.704z"/>
					<path fill="none" stroke="#FFFFFF" stroke-width="6" stroke-miterlimit="10" d="M1013.651,911.426
						c0,89.159-72.294,161.413-161.388,161.413c-89.199,0-161.497-72.254-161.497-161.413c0-89.218,72.298-161.47,161.497-161.47
						C941.357,749.956,1013.651,822.208,1013.651,911.426z"/>
					<path fill="none" stroke="#FFFFFF" stroke-width="6" stroke-miterlimit="10" d="M1013.651,1072.868
						c0,89.16-72.295,161.412-161.388,161.412c-89.201,0-161.497-72.252-161.497-161.412c0-89.219,72.296-161.472,161.497-161.472
						C941.356,911.396,1013.651,983.649,1013.651,1072.868z"/>
				</g>
				<g id="rotation_2_1_">
					<path fill="none" stroke="#FFFFFF" stroke-width="6" stroke-miterlimit="10" d="M1013.651,749.984
						c0,89.16-72.294,161.412-161.388,161.412c-89.199,0-161.497-72.254-161.497-161.412c0-89.22,72.298-161.472,161.497-161.472
						C941.357,588.515,1013.651,660.767,1013.651,749.984z"/>
					<path fill="none" stroke="#FFFFFF" stroke-width="6" stroke-miterlimit="10" d="M873.834,992.146
						c0,89.16-72.294,161.414-161.386,161.414c-89.201,0-161.497-72.252-161.497-161.414c0-89.219,72.296-161.472,161.497-161.472
						C801.54,830.676,873.834,902.929,873.834,992.146z"/>
					<path fill="none" stroke="#FFFFFF" stroke-width="6" stroke-miterlimit="10" d="M1013.651,1234.311
						c0,89.159-72.295,161.411-161.388,161.411c-89.201,0-161.497-72.252-161.497-161.411c0-89.22,72.296-161.472,161.497-161.472
						C941.356,1072.839,1013.651,1145.091,1013.651,1234.311z"/>
					<path fill="none" stroke="#FFFFFF" stroke-width="6" stroke-miterlimit="10" d="M1293.342,1234.308
						c0,89.16-72.296,161.414-161.387,161.414c-89.201,0-161.496-72.254-161.496-161.414c0-89.219,72.295-161.471,161.496-161.471
						C1221.046,1072.837,1293.342,1145.089,1293.342,1234.308z"/>
					<path fill="none" stroke="#FFFFFF" stroke-width="6" stroke-miterlimit="10" d="M1433.191,992.146
						c0,89.16-72.294,161.414-161.388,161.414c-89.2,0-161.495-72.252-161.495-161.414c0-89.219,72.296-161.472,161.495-161.472
						C1360.896,830.676,1433.191,902.929,1433.191,992.146z"/>
					<path fill="none" stroke="#FFFFFF" stroke-width="6" stroke-miterlimit="10" d="M1293.334,749.984
						c0,89.16-72.294,161.412-161.386,161.412c-89.201,0-161.496-72.254-161.496-161.412c0-89.22,72.295-161.473,161.496-161.473
						C1221.04,588.514,1293.334,660.767,1293.334,749.984z"/>
				</g>
				<g id="rotation_3_1_">
					<path fill="none" stroke="#FFFFFF" stroke-width="6" stroke-miterlimit="10" d="M1153.493,669.265
						c0,89.16-72.295,161.414-161.386,161.414c-89.201,0-161.497-72.254-161.497-161.414c0-89.218,72.296-161.47,161.497-161.47
						C1081.198,507.795,1153.493,580.047,1153.493,669.265z"/>
					<path fill="none" stroke="#FFFFFF" stroke-width="6" stroke-miterlimit="10" d="M873.834,830.704
						c0,89.16-72.294,161.414-161.386,161.414c-89.201,0-161.497-72.254-161.497-161.414c0-89.218,72.296-161.47,161.497-161.47
						C801.54,669.234,873.834,741.486,873.834,830.704z"/>
					<path fill="none" stroke="#FFFFFF" stroke-width="6" stroke-miterlimit="10" d="M873.837,1153.575
						c0,89.162-72.295,161.414-161.386,161.414c-89.201,0-161.497-72.252-161.497-161.414c0-89.218,72.296-161.47,161.497-161.47
						C801.542,992.106,873.837,1064.358,873.837,1153.575z"/>
					<path fill="none" stroke="#FFFFFF" stroke-width="6" stroke-miterlimit="10" d="M1153.494,1315.03
						c0,89.16-72.295,161.412-161.386,161.412c-89.201,0-161.497-72.252-161.497-161.412c0-89.22,72.296-161.473,161.497-161.473
						C1081.199,1153.561,1153.494,1225.813,1153.494,1315.03z"/>
					<path fill="none" stroke="#FFFFFF" stroke-width="6" stroke-miterlimit="10" d="M1433.204,1153.589
						c0,89.162-72.295,161.414-161.386,161.414c-89.201,0-161.497-72.252-161.497-161.414c0-89.219,72.296-161.471,161.497-161.471
						C1360.909,992.118,1433.204,1064.37,1433.204,1153.589z"/>
					<path fill="none" stroke="#FFFFFF" stroke-width="6" stroke-miterlimit="10" d="M1433.192,830.704
						c0,89.161-72.294,161.414-161.388,161.414c-89.199,0-161.496-72.253-161.496-161.414c0-89.218,72.297-161.469,161.496-161.469
						C1360.898,669.235,1433.192,741.486,1433.192,830.704z"/>
				</g>
				<g id="rotation_4_1_">
					<path fill="none" stroke="#FFFFFF" stroke-width="6" stroke-miterlimit="10" d="M1013.651,588.543
						c0,89.161-72.293,161.413-161.387,161.413c-89.199,0-161.497-72.252-161.497-161.413c0-89.218,72.298-161.47,161.497-161.47
						C941.358,427.073,1013.651,499.325,1013.651,588.543z"/>
					<path fill="none" stroke="#FFFFFF" stroke-width="6" stroke-miterlimit="10" d="M873.813,669.274
						c0,89.159-72.295,161.413-161.386,161.413c-89.201,0-161.497-72.254-161.497-161.413c0-89.221,72.296-161.472,161.497-161.472
						C801.519,507.805,873.813,580.056,873.813,669.274z"/>
					<path fill="none" stroke="#FFFFFF" stroke-width="6" stroke-miterlimit="10" d="M733.996,911.434
						c0,89.161-72.295,161.413-161.386,161.413c-89.202,0-161.497-72.252-161.497-161.413c0-89.218,72.295-161.47,161.497-161.47
						C661.701,749.964,733.996,822.216,733.996,911.434z"/>
					<path fill="none" stroke="#FFFFFF" stroke-width="6" stroke-miterlimit="10" d="M734.008,1072.876
						c0,89.162-72.295,161.414-161.386,161.414c-89.201,0-161.497-72.252-161.497-161.414c0-89.219,72.296-161.47,161.497-161.47
						C661.713,911.406,734.008,983.657,734.008,1072.876z"/>
					<path fill="none" stroke="#FFFFFF" stroke-width="6" stroke-miterlimit="10" d="M873.849,1315.02
						c0,89.159-72.295,161.411-161.386,161.411c-89.201,0-161.497-72.252-161.497-161.411c0-89.22,72.296-161.472,161.497-161.472
						C801.554,1153.548,873.849,1225.8,873.849,1315.02z"/>
					<path fill="none" stroke="#FFFFFF" stroke-width="6" stroke-miterlimit="10" d="M1293.341,1395.761
						c0,89.162-72.294,161.414-161.385,161.414c-89.201,0-161.496-72.252-161.496-161.414c0-89.219,72.295-161.469,161.496-161.469
						C1221.047,1234.292,1293.341,1306.542,1293.341,1395.761z"/>
					<path fill="none" stroke="#FFFFFF" stroke-width="6" stroke-miterlimit="10" d="M1433.216,1315.042
						c0,89.16-72.294,161.414-161.386,161.414c-89.201,0-161.497-72.254-161.497-161.414c0-89.217,72.296-161.469,161.497-161.469
						C1360.922,1153.573,1433.216,1225.825,1433.216,1315.042z"/>
					<path fill="none" stroke="#FFFFFF" stroke-width="6" stroke-miterlimit="10" d="M1573.044,1072.854
						c0,89.161-72.294,161.414-161.384,161.414c-89.202,0-161.498-72.252-161.498-161.414c0-89.218,72.296-161.47,161.498-161.47
						C1500.75,911.384,1573.044,983.636,1573.044,1072.854z"/>
					<path fill="none" stroke="#FFFFFF" stroke-width="6" stroke-miterlimit="10" d="M1573.058,911.424
						c0,89.161-72.295,161.413-161.386,161.413c-89.201,0-161.497-72.252-161.497-161.413c0-89.219,72.296-161.47,161.497-161.47
						C1500.763,749.954,1573.058,822.205,1573.058,911.424z"/>
					<path fill="none" stroke="#FFFFFF" stroke-width="6" stroke-miterlimit="10" d="M1433.193,669.264
						c0,89.161-72.294,161.413-161.388,161.413c-89.2,0-161.495-72.252-161.495-161.413c0-89.218,72.296-161.47,161.495-161.47
						C1360.899,507.794,1433.193,580.046,1433.193,669.264z"/>
					<path fill="none" stroke="#FFFFFF" stroke-width="6" stroke-miterlimit="10" d="M1293.379,588.542
						c0,89.161-72.295,161.414-161.385,161.414c-89.201,0-161.497-72.253-161.497-161.414c0-89.218,72.296-161.469,161.497-161.469
						C1221.084,427.073,1293.379,499.324,1293.379,588.542z"/>
					<path fill="none" stroke="#FFFFFF" stroke-width="6" stroke-miterlimit="10" d="M1013.707,1395.763
						c0,89.16-72.295,161.414-161.385,161.414c-89.202,0-161.497-72.254-161.497-161.414c0-89.219,72.295-161.469,161.497-161.469
						C941.412,1234.294,1013.707,1306.544,1013.707,1395.763z"/>
				</g>
				<g id="rotation_5_1_">
					<path fill="none" stroke="#FFFFFF" stroke-width="6" stroke-miterlimit="10" d="M1153.549,507.823
						c0,89.161-72.295,161.414-161.385,161.414c-89.201,0-161.497-72.253-161.497-161.414c0-89.218,72.296-161.469,161.497-161.469
						C1081.254,346.354,1153.549,418.605,1153.549,507.823z"/>
					<path fill="none" stroke="#FFFFFF" stroke-width="6" stroke-miterlimit="10" d="M873.869,507.833
						c0,89.161-72.294,161.414-161.385,161.414c-89.201,0-161.497-72.253-161.497-161.414c0-89.218,72.296-161.469,161.497-161.469
						C801.575,346.364,873.869,418.615,873.869,507.833z"/>
					<path fill="none" stroke="#FFFFFF" stroke-width="6" stroke-miterlimit="10" d="M733.996,750.004
						c0,89.161-72.294,161.413-161.385,161.413c-89.202,0-161.497-72.252-161.497-161.413c0-89.218,72.295-161.47,161.497-161.47
						C661.702,588.534,733.996,660.786,733.996,750.004z"/>
					<path fill="none" stroke="#FFFFFF" stroke-width="6" stroke-miterlimit="10" d="M594.195,992.146
						c0,89.161-72.295,161.414-161.388,161.414c-89.199,0-161.496-72.252-161.496-161.413c0-89.221,72.295-161.472,161.496-161.472
						C521.9,830.678,594.195,902.929,594.195,992.146z"/>
					<path fill="none" stroke="#FFFFFF" stroke-width="6" stroke-miterlimit="10" d="M734.021,1234.317
						c0,89.161-72.296,161.413-161.387,161.413c-89.201,0-161.497-72.252-161.497-161.414c0-89.22,72.296-161.47,161.497-161.47
						C661.729,1072.849,734.021,1145.099,734.021,1234.317z"/>
					<path fill="none" stroke="#FFFFFF" stroke-width="6" stroke-miterlimit="10" d="M873.854,1476.448
						c0,89.162-72.295,161.414-161.387,161.414c-89.201,0-161.497-72.252-161.497-161.414c0-89.22,72.296-161.473,161.497-161.473
						C801.559,1314.979,873.854,1387.229,873.854,1476.448z"/>
					<path fill="none" stroke="#FFFFFF" stroke-width="6" stroke-miterlimit="10" d="M1153.542,1476.48
						c0,89.161-72.295,161.414-161.386,161.414c-89.201,0-161.496-72.252-161.496-161.414c0-89.22,72.295-161.47,161.496-161.47
						C1081.247,1315.013,1153.542,1387.263,1153.542,1476.48z"/>
					<path fill="none" stroke="#FFFFFF" stroke-width="6" stroke-miterlimit="10" d="M1433.254,1476.483
						c0,89.161-72.295,161.413-161.386,161.413c-89.201,0-161.497-72.252-161.497-161.414c0-89.22,72.296-161.47,161.497-161.47
						C1360.959,1315.015,1433.254,1387.265,1433.254,1476.483z"/>
					<path fill="none" stroke="#FFFFFF" stroke-width="6" stroke-miterlimit="10" d="M1573.071,1234.308
						c0,89.162-72.295,161.414-161.386,161.414c-89.2,0-161.497-72.252-161.497-161.414c0-89.219,72.297-161.471,161.497-161.471
						C1500.776,1072.837,1573.071,1145.089,1573.071,1234.308z"/>
					<path fill="none" stroke="#FFFFFF" stroke-width="6" stroke-miterlimit="10" d="M1712.903,992.157
						c0,89.162-72.294,161.416-161.388,161.416c-89.201,0-161.496-72.254-161.496-161.416c0-89.217,72.296-161.47,161.496-161.47
						C1640.609,830.688,1712.903,902.94,1712.903,992.157z"/>
					<path fill="none" stroke="#FFFFFF" stroke-width="6" stroke-miterlimit="10" d="M1573.063,749.994
						c0,89.161-72.295,161.414-161.387,161.414c-89.202,0-161.496-72.253-161.496-161.414c0-89.219,72.294-161.47,161.496-161.47
						C1500.768,588.524,1573.063,660.775,1573.063,749.994z"/>
					<path fill="none" stroke="#FFFFFF" stroke-width="6" stroke-miterlimit="10" d="M1433.23,507.822
						c0,89.162-72.293,161.415-161.387,161.415c-89.202,0-161.497-72.253-161.497-161.415c0-89.219,72.296-161.469,161.497-161.469
						C1360.938,346.354,1433.23,418.604,1433.23,507.822z"/>
				</g>
				<g id="rotation_6_1_">
					<path fill="none" stroke="#FFFFFF" stroke-width="6" stroke-miterlimit="10" d="M1013.713,427.102
						c0,89.162-72.295,161.415-161.386,161.415c-89.203,0-161.497-72.253-161.497-161.415c0-89.218,72.294-161.469,161.497-161.469
						C941.418,265.633,1013.713,337.884,1013.713,427.102z"/>
					<path fill="none" stroke="#FFFFFF" stroke-width="6" stroke-miterlimit="10" d="M734.011,588.541
						c0,89.161-72.294,161.414-161.385,161.414c-89.201,0-161.497-72.253-161.497-161.414c0-89.219,72.296-161.47,161.497-161.47
						C661.717,427.071,734.011,499.322,734.011,588.541z"/>
					<path fill="none" stroke="#FFFFFF" stroke-width="6" stroke-miterlimit="10" d="M594.178,830.717
						c0,89.162-72.295,161.415-161.386,161.415c-89.201,0-161.497-72.253-161.497-161.415c0-89.218,72.296-161.469,161.497-161.469
						C521.883,669.248,594.178,741.499,594.178,830.717z"/>
					<path fill="none" stroke="#FFFFFF" stroke-width="6" stroke-miterlimit="10" d="M594.199,1153.601
						c0,89.162-72.294,161.414-161.388,161.414c-89.199,0-161.496-72.252-161.496-161.414c0-89.217,72.295-161.469,161.496-161.469
						C521.905,992.132,594.199,1064.384,594.199,1153.601z"/>
					<path fill="none" stroke="#FFFFFF" stroke-width="6" stroke-miterlimit="10" d="M734.038,1395.749
						c0,89.162-72.295,161.414-161.386,161.414c-89.201,0-161.497-72.252-161.497-161.414c0-89.219,72.296-161.469,161.497-161.469
						C661.743,1234.28,734.038,1306.53,734.038,1395.749z"/>
					<path fill="none" stroke="#FFFFFF" stroke-width="6" stroke-miterlimit="10" d="M1013.711,1557.204
						c0,89.162-72.294,161.414-161.385,161.414c-89.202,0-161.497-72.252-161.497-161.414c0-89.22,72.295-161.47,161.497-161.47
						C941.417,1395.735,1013.711,1467.985,1013.711,1557.204z"/>
					<path fill="none" stroke="#FFFFFF" stroke-width="6" stroke-miterlimit="10" d="M1293.401,1557.202
						c0,89.162-72.296,161.416-161.388,161.416c-89.198,0-161.494-72.254-161.494-161.416c0-89.217,72.296-161.467,161.494-161.467
						C1221.105,1395.735,1293.401,1467.985,1293.401,1557.202z"/>
					<path fill="none" stroke="#FFFFFF" stroke-width="6" stroke-miterlimit="10" d="M1573.108,1395.749
						c0,89.162-72.294,161.414-161.388,161.414c-89.199,0-161.496-72.252-161.496-161.414c0-89.219,72.297-161.469,161.496-161.469
						C1500.814,1234.28,1573.108,1306.53,1573.108,1395.749z"/>
					<path fill="none" stroke="#FFFFFF" stroke-width="6" stroke-miterlimit="10" d="M1712.919,1153.591
						c0,89.16-72.294,161.412-161.386,161.412c-89.202,0-161.497-72.252-161.497-161.412c0-89.219,72.295-161.471,161.497-161.471
						C1640.625,992.12,1712.919,1064.372,1712.919,1153.591z"/>
					<path fill="none" stroke="#FFFFFF" stroke-width="6" stroke-miterlimit="10" d="M1712.931,830.717
						c0,89.162-72.295,161.415-161.386,161.415c-89.203,0-161.497-72.253-161.497-161.415c0-89.218,72.294-161.469,161.497-161.469
						C1640.636,669.248,1712.931,741.499,1712.931,830.717z"/>
					<path fill="none" stroke="#FFFFFF" stroke-width="6" stroke-miterlimit="10" d="M1573.1,588.564
						c0,89.159-72.294,161.414-161.386,161.414c-89.201,0-161.497-72.255-161.497-161.414c0-89.221,72.296-161.472,161.497-161.472
						C1500.806,427.095,1573.1,499.346,1573.1,588.564z"/>
					<path fill="none" stroke="#FFFFFF" stroke-width="6" stroke-miterlimit="10" d="M1293.418,427.102
						c0,89.162-72.295,161.414-161.386,161.414c-89.201,0-161.497-72.252-161.497-161.414c0-89.218,72.296-161.47,161.497-161.47
						C1221.123,265.632,1293.418,337.884,1293.418,427.102z"/>
				</g>
				<g id="rotation_7_1_">
					<path fill="none" stroke="#FFFFFF" stroke-width="6" stroke-miterlimit="10" d="M1153.598,346.383
						c0,89.161-72.295,161.414-161.386,161.414c-89.201,0-161.496-72.253-161.496-161.414c0-89.219,72.295-161.47,161.496-161.47
						C1081.303,184.913,1153.598,257.164,1153.598,346.383z"/>
					<path fill="none" stroke="#FFFFFF" stroke-width="6" stroke-miterlimit="10" d="M594.215,669.276
						c0,89.161-72.295,161.414-161.386,161.414c-89.201,0-161.497-72.253-161.497-161.414c0-89.22,72.296-161.471,161.497-161.471
						C521.92,507.808,594.215,580.059,594.215,669.276z"/>
					<path fill="none" stroke="#FFFFFF" stroke-width="6" stroke-miterlimit="10" d="M594.203,1315.042
						c0,89.164-72.294,161.416-161.386,161.416c-89.201,0-161.499-72.252-161.499-161.416c0-89.217,72.296-161.467,161.499-161.467
						C521.909,1153.575,594.203,1225.825,594.203,1315.042z"/>
					<path fill="none" stroke="#FFFFFF" stroke-width="6" stroke-miterlimit="10" d="M1712.957,1315.032
						c0,89.162-72.295,161.414-161.386,161.414c-89.201,0-161.497-72.252-161.497-161.414c0-89.22,72.296-161.47,161.497-161.47
						C1640.662,1153.563,1712.957,1225.813,1712.957,1315.032z"/>
					<path fill="none" stroke="#FFFFFF" stroke-width="6" stroke-miterlimit="10" d="M1712.946,669.287
						c0,89.162-72.295,161.414-161.386,161.414c-89.202,0-161.497-72.252-161.497-161.414c0-89.218,72.295-161.469,161.497-161.469
						C1640.651,507.818,1712.946,580.069,1712.946,669.287z"/>
					<path fill="none" stroke="#FFFFFF" stroke-width="6" stroke-miterlimit="10" d="M1153.58,1637.923
						c0,89.162-72.295,161.416-161.387,161.416c-89.2,0-161.496-72.254-161.496-161.416c0-89.217,72.296-161.467,161.496-161.467
						C1081.285,1476.456,1153.58,1548.706,1153.58,1637.923z"/>
				</g>
			</g>
		</g>
		<g id="FruitOfLife" display="none">
			<g id="FruitGroup" display="inline">
				<path fill="none" stroke="#FFFFFF" stroke-width="6" stroke-miterlimit="10" d="M1153.48,992.146
					c0,89.16-72.297,161.414-161.388,161.414c-89.201,0-161.497-72.252-161.497-161.414c0-89.219,72.296-161.471,161.497-161.471
					C1081.186,830.677,1153.48,902.929,1153.48,992.146z"/>
				<path fill="none" stroke="#FFFFFF" stroke-width="6" stroke-miterlimit="10" d="M1153.48,669.265
					c0,89.16-72.297,161.414-161.388,161.414c-89.201,0-161.497-72.254-161.497-161.414c0-89.218,72.296-161.47,161.497-161.47
					C1081.186,507.795,1153.48,580.047,1153.48,669.265z"/>
				<path fill="none" stroke="#FFFFFF" stroke-width="6" stroke-miterlimit="10" d="M873.821,830.704
					c0,89.16-72.294,161.414-161.388,161.414c-89.199,0-161.497-72.254-161.497-161.414c0-89.218,72.298-161.47,161.497-161.47
					C801.527,669.234,873.821,741.486,873.821,830.704z"/>
				<path fill="none" stroke="#FFFFFF" stroke-width="6" stroke-miterlimit="10" d="M873.824,1153.575
					c0,89.162-72.294,161.414-161.387,161.414c-89.2,0-161.496-72.252-161.496-161.414c0-89.218,72.296-161.47,161.496-161.47
					C801.529,992.106,873.824,1064.358,873.824,1153.575z"/>
				<path fill="none" stroke="#FFFFFF" stroke-width="6" stroke-miterlimit="10" d="M1153.48,1315.03
					c0,89.16-72.296,161.412-161.387,161.412c-89.202,0-161.497-72.252-161.497-161.412c0-89.22,72.295-161.473,161.497-161.473
					C1081.188,1153.561,1153.48,1225.813,1153.48,1315.03z"/>
				<path fill="none" stroke="#FFFFFF" stroke-width="6" stroke-miterlimit="10" d="M1433.191,1153.589
					c0,89.162-72.295,161.414-161.388,161.414c-89.2,0-161.495-72.252-161.495-161.414c0-89.219,72.296-161.471,161.495-161.471
					C1360.896,992.118,1433.191,1064.37,1433.191,1153.589z"/>
				<path fill="none" stroke="#FFFFFF" stroke-width="6" stroke-miterlimit="10" d="M1433.18,830.704
					c0,89.161-72.294,161.414-161.386,161.414c-89.201,0-161.497-72.253-161.497-161.414c0-89.218,72.296-161.469,161.497-161.469
					C1360.886,669.235,1433.18,741.486,1433.18,830.704z"/>
				<path fill="none" stroke="#FFFFFF" stroke-width="6" stroke-miterlimit="10" d="M1153.585,346.383
					c0,89.161-72.295,161.414-161.386,161.414c-89.201,0-161.497-72.253-161.497-161.414c0-89.219,72.295-161.47,161.497-161.47
					C1081.29,184.913,1153.585,257.164,1153.585,346.383z"/>
				<path fill="none" stroke="#FFFFFF" stroke-width="6" stroke-miterlimit="10" d="M594.202,669.276
					c0,89.161-72.294,161.414-161.386,161.414c-89.201,0-161.499-72.253-161.499-161.414c0-89.22,72.296-161.471,161.499-161.471
					C521.907,507.808,594.202,580.059,594.202,669.276z"/>
				<path fill="none" stroke="#FFFFFF" stroke-width="6" stroke-miterlimit="10" d="M594.19,1315.042
					c0,89.164-72.294,161.416-161.388,161.416c-89.199,0-161.497-72.252-161.497-161.416c0-89.217,72.294-161.467,161.497-161.467
					C521.896,1153.575,594.19,1225.825,594.19,1315.042z"/>
				<path fill="none" stroke="#FFFFFF" stroke-width="6" stroke-miterlimit="10" d="M1712.944,1315.032
					c0,89.162-72.296,161.414-161.388,161.414c-89.199,0-161.496-72.252-161.496-161.414c0-89.22,72.297-161.47,161.496-161.47
					C1640.649,1153.563,1712.944,1225.813,1712.944,1315.032z"/>
				<path fill="none" stroke="#FFFFFF" stroke-width="6" stroke-miterlimit="10" d="M1712.934,669.287
					c0,89.162-72.295,161.414-161.386,161.414c-89.202,0-161.497-72.252-161.497-161.414c0-89.218,72.295-161.469,161.497-161.469
					C1640.639,507.818,1712.934,580.069,1712.934,669.287z"/>
				<path fill="none" stroke="#FFFFFF" stroke-width="6" stroke-miterlimit="10" d="M1153.567,1637.923
					c0,89.162-72.296,161.416-161.389,161.416c-89.2,0-161.497-72.254-161.497-161.416c0-89.217,72.297-161.467,161.497-161.467
					C1081.271,1476.456,1153.567,1548.706,1153.567,1637.923z"/>
			</g>
		</g>
		<g id="_x36_4tetra" display="none">
			<g id="_x36_4TetraGroup" display="inline">
				
					<line fill="none" stroke="#FFFFFF" stroke-width="6" stroke-miterlimit="10" x1="993.102" y1="346.06" x2="993.083" y2="992.126"/>
				
					<line fill="none" stroke="#FFFFFF" stroke-width="6" stroke-miterlimit="10" x1="992.126" y1="992.392" x2="433.705" y2="1314.722"/>
				
					<line fill="none" stroke="#FFFFFF" stroke-width="6" stroke-miterlimit="10" x1="993.62" y1="992.126" x2="1552.461" y2="1314.71"/>
				
					<line fill="none" stroke="#FFFFFF" stroke-width="6" stroke-miterlimit="10" x1="1272.854" y1="830.433" x2="1552.494" y2="991.837"/>
				
					<line fill="none" stroke="#FFFFFF" stroke-width="6" stroke-miterlimit="10" x1="992.758" y1="1314.878" x2="713.36" y2="1476.126"/>
				
					<line fill="none" stroke="#FFFFFF" stroke-width="6" stroke-miterlimit="10" x1="713.366" y1="830.382" x2="713.371" y2="507.511"/>
				
					<line fill="none" stroke="#FFFFFF" stroke-width="6" stroke-miterlimit="10" x1="1272.765" y1="507.5" x2="1272.771" y2="830.409"/>
				
					<line fill="none" stroke="#FFFFFF" stroke-width="6" stroke-miterlimit="10" x1="1272.779" y1="1476.161" x2="992.988" y2="1314.655"/>
				
					<line fill="none" stroke="#FFFFFF" stroke-width="6" stroke-miterlimit="10" x1="433.74" y1="991.837" x2="712.087" y2="831.157"/>
				
					<line fill="none" stroke="#FFFFFF" stroke-width="6" stroke-miterlimit="10" x1="527.035" y1="830.251" x2="433.74" y2="991.837"/>
				
					<line fill="none" stroke="#FFFFFF" stroke-width="6" stroke-miterlimit="10" x1="713.376" y1="507.511" x2="620.067" y2="669.121"/>
				
					<line fill="none" stroke="#FFFFFF" stroke-width="6" stroke-miterlimit="10" x1="433.74" y1="991.837" x2="713.36" y2="1476.126"/>
				
					<line fill="none" stroke="#FFFFFF" stroke-width="6" stroke-miterlimit="10" x1="1086.005" y1="1476.138" x2="1272.779" y2="1476.149"/>
				
					<line fill="none" stroke="#FFFFFF" stroke-width="6" stroke-miterlimit="10" x1="713.36" y1="1476.138" x2="899.942" y2="1476.149"/>
				
					<line fill="none" stroke="#FFFFFF" stroke-width="6" stroke-miterlimit="10" x1="1272.779" y1="1476.161" x2="1552.494" y2="991.837"/>
				
					<line fill="none" stroke="#FFFFFF" stroke-width="6" stroke-miterlimit="10" x1="1552.494" y1="991.837" x2="1458.968" y2="829.905"/>
				
					<line fill="none" stroke="#FFFFFF" stroke-width="6" stroke-miterlimit="10" x1="1366.599" y1="669.979" x2="1272.757" y2="507.5"/>
				
					<line fill="none" stroke="#FFFFFF" stroke-width="6" stroke-miterlimit="10" x1="1272.757" y1="507.5" x2="713.376" y2="507.511"/>
				
					<line fill="none" stroke="#FFFFFF" stroke-width="6" stroke-miterlimit="10" x1="1365.475" y1="1314.716" x2="1552.461" y2="1314.714"/>
				
					<line fill="none" stroke="#FFFFFF" stroke-width="6" stroke-miterlimit="10" x1="433.705" y1="1314.716" x2="620.708" y2="1314.714"/>
				
					<line fill="none" stroke="#FFFFFF" stroke-width="6" stroke-miterlimit="10" x1="1552.448" y1="668.965" x2="433.725" y2="668.935"/>
				
					<line fill="none" stroke="#FFFFFF" stroke-width="6" stroke-miterlimit="10" x1="1365.943" y1="991.837" x2="1552.494" y2="991.837"/>
				
					<line fill="none" stroke="#FFFFFF" stroke-width="6" stroke-miterlimit="10" x1="433.74" y1="991.837" x2="619.992" y2="991.837"/>
				
					<line fill="none" stroke="#FFFFFF" stroke-width="6" stroke-miterlimit="10" x1="1273.014" y1="830.372" x2="713.134" y2="830.382"/>
				
					<line fill="none" stroke="#FFFFFF" stroke-width="6" stroke-miterlimit="10" x1="1412.579" y1="911.106" x2="1226.789" y2="911.108"/>
				
					<line fill="none" stroke="#FFFFFF" stroke-width="6" stroke-miterlimit="10" x1="760.169" y1="911.106" x2="573.577" y2="911.108"/>
				
					<line fill="none" stroke="#FFFFFF" stroke-width="6" stroke-miterlimit="10" x1="1133.787" y1="1072.532" x2="853.779" y2="1072.542"/>
				
					<line fill="none" stroke="#FFFFFF" stroke-width="6" stroke-miterlimit="10" x1="1273.034" y1="1153.311" x2="1086.005" y2="1153.239"/>
				
					<line fill="none" stroke="#FFFFFF" stroke-width="6" stroke-miterlimit="10" x1="899.942" y1="1153.282" x2="712.916" y2="1153.267"/>
				
					<line fill="none" stroke="#FFFFFF" stroke-width="6" stroke-miterlimit="10" x1="1132.922" y1="1395.439" x2="853.164" y2="1395.439"/>
				
					<line fill="none" stroke="#FFFFFF" stroke-width="6" stroke-miterlimit="10" x1="573.644" y1="911.146" x2="713.48" y2="668.939"/>
				
					<line fill="none" stroke="#FFFFFF" stroke-width="6" stroke-miterlimit="10" x1="666.357" y1="1073.466" x2="573.627" y2="1234.097"/>
				
					<line fill="none" stroke="#FFFFFF" stroke-width="6" stroke-miterlimit="10" x1="992.566" y1="508.454" x2="899.321" y2="669.979"/>
				
					<line fill="none" stroke="#FFFFFF" stroke-width="6" stroke-miterlimit="10" x1="1272.735" y1="668.891" x2="1179.489" y2="830.403"/>
				
					<line fill="none" stroke="#FFFFFF" stroke-width="6" stroke-miterlimit="10" x1="946.627" y1="1233.729" x2="853.216" y2="1395.526"/>
				
					<line fill="none" stroke="#FFFFFF" stroke-width="6" stroke-miterlimit="10" x1="1272.822" y1="830.261" x2="993.041" y2="1314.771"/>
				
					<line fill="none" stroke="#FFFFFF" stroke-width="6" stroke-miterlimit="10" x1="899.324" y1="508.447" x2="993.102" y2="346.06"/>
				
					<line fill="none" stroke="#FFFFFF" stroke-width="6" stroke-miterlimit="10" x1="433.705" y1="1314.722" x2="526.96" y2="1153.239"/>
				
					<line fill="none" stroke="#FFFFFF" stroke-width="6" stroke-miterlimit="10" x1="1552.448" y1="668.965" x2="993.083" y2="1637.583"/>
				
					<line fill="none" stroke="#FFFFFF" stroke-width="6" stroke-miterlimit="10" x1="1272.757" y1="507.5" x2="1179.706" y2="668.623"/>
				
					<line fill="none" stroke="#FFFFFF" stroke-width="6" stroke-miterlimit="10" x1="806.707" y1="1314.491" x2="713.36" y2="1476.126"/>
				
					<line fill="none" stroke="#FFFFFF" stroke-width="6" stroke-miterlimit="10" x1="1319.3" y1="1072.532" x2="1412.588" y2="1234.091"/>
				
					<line fill="none" stroke="#FFFFFF" stroke-width="6" stroke-miterlimit="10" x1="993.057" y1="507.463" x2="1086.612" y2="669.486"/>
				
					<line fill="none" stroke="#FFFFFF" stroke-width="6" stroke-miterlimit="10" x1="713.361" y1="830.251" x2="993.089" y2="1314.743"/>
				
					<line fill="none" stroke="#FFFFFF" stroke-width="6" stroke-miterlimit="10" x1="1040.774" y1="1235.868" x2="1132.914" y2="1395.444"/>
				
					<line fill="none" stroke="#FFFFFF" stroke-width="6" stroke-miterlimit="10" x1="713.443" y1="668.914" x2="806.707" y2="830.44"/>
				
					<line fill="none" stroke="#FFFFFF" stroke-width="6" stroke-miterlimit="10" x1="1272.709" y1="668.94" x2="1412.589" y2="911.217"/>
				
					<line fill="none" stroke="#FFFFFF" stroke-width="6" stroke-miterlimit="10" x1="1179.431" y1="1314.521" x2="1272.779" y2="1476.161"/>
				
					<line fill="none" stroke="#FFFFFF" stroke-width="6" stroke-miterlimit="10" x1="713.376" y1="507.511" x2="806.874" y2="669.409"/>
				
					<line fill="none" stroke="#FFFFFF" stroke-width="6" stroke-miterlimit="10" x1="1459.218" y1="1153.239" x2="1552.461" y2="1314.71"/>
				
					<line fill="none" stroke="#FFFFFF" stroke-width="6" stroke-miterlimit="10" x1="993.102" y1="346.06" x2="1086.875" y2="508.447"/>
				
					<line fill="none" stroke="#FFFFFF" stroke-width="6" stroke-miterlimit="10" x1="993.083" y1="1637.583" x2="433.725" y2="668.935"/>
				
					<line fill="none" stroke="#FFFFFF" stroke-width="6" stroke-miterlimit="10" x1="899.324" y1="831.852" x2="993.374" y2="669.121"/>
				
					<line fill="none" stroke="#FFFFFF" stroke-width="6" stroke-miterlimit="10" x1="713.484" y1="1153.399" x2="806.874" y2="991.813"/>
				
					<line fill="none" stroke="#FFFFFF" stroke-width="6" stroke-miterlimit="10" x1="1179.706" y1="991.813" x2="1273.014" y2="1153.403"/>
				
					<line fill="none" stroke="#FFFFFF" stroke-width="6" stroke-miterlimit="10" x1="993.374" y1="669.121" x2="1086.875" y2="831.047"/>
				
					<line fill="none" stroke="#FFFFFF" stroke-width="6" stroke-miterlimit="10" x1="993.783" y1="830.251" x2="853.779" y2="1072.542"/>
				
					<line fill="none" stroke="#FFFFFF" stroke-width="6" stroke-miterlimit="10" x1="993.783" y1="830.251" x2="1133.787" y2="1072.532"/>
				
					<line fill="none" stroke="#FFFFFF" stroke-width="6" stroke-miterlimit="10" x1="1412.588" y1="1234.091" x2="1225.069" y2="1234.091"/>
				
					<line fill="none" stroke="#FFFFFF" stroke-width="6" stroke-miterlimit="10" x1="573.627" y1="1234.097" x2="760.179" y2="1234.097"/>
			</g>
		</g>
		
			<circle id="circle" fill="none" stroke="#FFFFFF" stroke-width="6" stroke-miterlimit="10" cx="992.126" cy="992.126" r="726.798"/>
		<g id="hexagon" display="none">
			<polygon display="inline" fill="#FFFFFF" fill-opacity="0" stroke="#ECDB7A" stroke-width="6" stroke-miterlimit="10" points="
				151.141,506.58 992.121,21.034 1833.111,506.58 1833.111,1477.672 992.121,1963.218 151.141,1477.672 			"/>
		</g>
	</g>
</g>
<g id="Layer_2">
	<g id="radiating_circles">
		<g id="fruit">
			<path fill="none" stroke="#FFFFFF" stroke-width="6" d="M1153.458,992.206c0,89.435-72.331,161.333-161.343,161.333
				c-89.193,0-161.344-72.322-161.344-161.333c0-89.253,72.271-161.354,161.344-161.354
				C1081.207,830.731,1153.458,902.952,1153.458,992.206z"/>
			<path fill="none" stroke="#FFFFFF" stroke-width="6" d="M1153.458,669.317c0,89.213-72.331,161.333-161.343,161.333
				c-89.193,0-161.344-72.321-161.344-161.333c0-89.454,72.271-161.354,161.344-161.354
				C1081.207,507.883,1153.458,580.165,1153.458,669.317z"/>
			<path fill="none" stroke="#FFFFFF" stroke-width="6" d="M873.874,830.731c0,89.273-72.331,161.353-161.344,161.353
				c-89.284,0-161.345-72.34-161.345-161.353c0-89.213,72.332-161.333,161.345-161.333
				C801.562,669.277,873.874,741.518,873.874,830.731z"/>
			<path fill="none" stroke="#FFFFFF" stroke-width="6" d="M873.874,1153.598c0,89.354-72.331,161.335-161.344,161.335
				c-89.284,0-161.345-72.341-161.345-161.335c0-89.392,72.332-161.352,161.345-161.352
				C801.562,992.146,873.874,1064.307,873.874,1153.598z"/>
			<path fill="none" stroke="#FFFFFF" stroke-width="6" d="M1153.458,1314.993c0,89.452-72.331,161.354-161.343,161.354
				c-89.193,0-161.344-72.341-161.344-161.354c0-89.415,72.271-161.335,161.344-161.335
				C1081.207,1153.56,1153.458,1225.78,1153.458,1314.993z"/>
			<path fill="none" stroke="#FFFFFF" stroke-width="6" d="M1433.124,1153.598c0,89.354-72.331,161.335-161.344,161.335
				c-89.193,0-161.344-72.341-161.344-161.335c0-89.352,72.332-161.352,161.344-161.352
				C1360.793,992.246,1433.124,1064.345,1433.124,1153.598z"/>
			<path fill="none" stroke="#FFFFFF" stroke-width="6" d="M1433.124,830.731c0,89.273-72.331,161.353-161.344,161.353
				c-89.193,0-161.344-72.34-161.344-161.353c0-89.213,72.332-161.333,161.344-161.333
				C1360.793,669.377,1433.124,741.518,1433.124,830.731z"/>
			<path fill="none" stroke="#FFFFFF" stroke-width="6" d="M1153.559,346.53c0,89.113-72.331,161.334-161.343,161.334
				c-89.424,0-161.345-72.322-161.345-161.334c0-89.453,72.333-161.535,161.345-161.535
				C1081.327,185.056,1153.559,257.256,1153.559,346.53z"/>
			<path fill="none" stroke="#FFFFFF" stroke-width="6" d="M594.278,669.357c0,89.153-72.331,161.334-161.344,161.334
				c-89.214,0-161.345-72.321-161.345-161.334c0-89.232,72.332-161.354,161.345-161.354
				C521.966,507.883,594.278,580.165,594.278,669.357z"/>
			<path fill="none" stroke="#FFFFFF" stroke-width="6" d="M594.278,1314.993c0,89.452-72.331,161.354-161.344,161.354
				c-89.214,0-161.345-72.341-161.345-161.354c0-89.415,72.332-161.335,161.345-161.335
				C521.947,1153.658,594.278,1225.78,594.278,1314.993z"/>
			<path fill="none" stroke="#FFFFFF" stroke-width="6" d="M1712.86,1314.993c0,89.452-72.333,161.354-161.344,161.354
				c-89.444,0-161.443-72.341-161.443-161.354c0-89.415,72.331-161.335,161.443-161.335
				C1640.527,1153.56,1712.86,1225.78,1712.86,1314.993z"/>
			<path fill="none" stroke="#FFFFFF" stroke-width="6" d="M1712.86,669.357c0,89.213-72.333,161.334-161.344,161.334
				c-89.444,0-161.443-72.321-161.443-161.334c0-89.232,72.331-161.354,161.443-161.354
				C1640.527,507.924,1712.86,580.165,1712.86,669.357z"/>
			<path fill="none" stroke="#FFFFFF" stroke-width="6" d="M1153.519,1637.779c0,89.174-72.331,161.354-161.343,161.354
				c-89.445,0-161.344-72.341-161.344-161.354c0-89.435,72.291-161.354,161.344-161.354
				C1081.288,1476.388,1153.519,1548.626,1153.519,1637.779z"/>
		</g>
		<g id="fruit_1_" display="none">
			<path display="inline" fill="none" stroke="#FFFFFF" stroke-width="6" d="M1131.929,911.57
				c44.717,77.453,18.025,175.884-59.061,220.39c-77.244,44.596-175.889,18.039-220.395-59.047
				c-44.627-77.295-18.089-175.872,59.051-220.408C988.62,807.854,1087.302,834.274,1131.929,911.57z"/>
			<path display="inline" fill="none" stroke="#FFFFFF" stroke-width="6" d="M970.484,631.94
				c44.607,77.261,18.026,175.884-59.061,220.39c-77.243,44.596-175.888,18.04-220.394-59.047
				c-44.728-77.469-18.09-175.871,59.051-220.408C827.196,528.26,925.908,554.732,970.484,631.94z"/>
			<path display="inline" fill="none" stroke="#FFFFFF" stroke-width="6" d="M809.063,911.521
				c44.637,77.313,18.036,175.901-59.051,220.407c-77.322,44.643-175.898,18.023-220.405-59.063
				C485,995.604,511.581,896.98,588.668,852.474C665.712,807.854,764.457,834.261,809.063,911.521z"/>
			<path display="inline" fill="none" stroke="#FFFFFF" stroke-width="6" d="M970.497,1191.132
				c44.678,77.384,18.027,175.886-59.061,220.393c-77.322,44.642-175.898,18.022-220.396-59.048
				c-44.696-77.416-18.035-175.901,59.053-220.408C827.147,1087.466,925.851,1113.804,970.497,1191.132z"/>
			<path display="inline" fill="none" stroke="#FFFFFF" stroke-width="6" d="M1293.321,1191.112
				c44.727,77.468,18.037,175.902-59.049,220.408c-77.244,44.596-175.898,18.022-220.404-59.064
				c-44.708-77.436-18.08-175.855,59.059-220.393C1150.034,1087.433,1248.716,1113.852,1293.321,1191.112z"/>
			<path display="inline" fill="none" stroke="#FFFFFF" stroke-width="6" d="M1454.821,911.507
				c44.678,77.383,18.027,175.886-59.059,220.393c-77.244,44.596-175.898,18.021-220.396-59.049
				c-44.676-77.381-18.035-175.901,59.053-220.407C1311.505,807.937,1410.196,834.211,1454.821,911.507z"/>
			<path display="inline" fill="none" stroke="#FFFFFF" stroke-width="6" d="M1293.388,631.896
				c44.637,77.313,18.037,175.901-59.051,220.408c-77.242,44.597-175.898,18.023-220.404-59.064
				c-44.606-77.261-18.025-175.885,59.063-220.391C1150.071,528.325,1248.782,554.635,1293.388,631.896z"/>
			<path display="inline" fill="none" stroke="#FFFFFF" stroke-width="6" d="M809.177,352.348
				c44.556,77.174,18.026,175.885-59.061,220.391c-77.443,44.712-175.89,18.04-220.396-59.047
				c-44.727-77.469-18.125-176.06,58.961-220.565C665.886,248.624,764.541,275.035,809.177,352.348z"/>
			<path display="inline" fill="none" stroke="#FFFFFF" stroke-width="6" d="M486.24,911.565
				c44.577,77.208,18.026,175.885-59.061,220.391c-77.262,44.607-175.89,18.04-220.396-59.047
				c-44.616-77.277-18.036-175.902,59.052-220.409C342.879,807.881,441.644,834.322,486.24,911.565z"/>
			<path display="inline" fill="none" stroke="#FFFFFF" stroke-width="6" d="M809.058,1470.702
				c44.726,77.468,18.036,175.902-59.052,220.408c-77.262,44.607-175.898,18.023-220.404-59.064
				c-44.708-77.436-18.027-175.886,59.061-220.393C665.75,1367.147,764.452,1393.441,809.058,1470.702z"/>
			<path display="inline" fill="none" stroke="#FFFFFF" stroke-width="6" d="M1777.778,911.411
				c44.727,77.468,18.035,175.902-59.051,220.408c-77.461,44.723-175.984,18.072-220.49-59.015
				c-44.709-77.436-18.027-175.886,59.146-220.442C1634.419,807.772,1733.173,834.15,1777.778,911.411z"/>
			<path display="inline" fill="none" stroke="#FFFFFF" stroke-width="6" d="M1454.96,352.274
				c44.607,77.261,18.025,175.886-59.061,220.391c-77.461,44.722-175.975,18.089-220.48-58.998
				c-44.617-77.278-18.037-175.902,59.137-220.458C1311.603,248.635,1410.364,275.031,1454.96,352.274z"/>
			<path display="inline" fill="none" stroke="#FFFFFF" stroke-width="6" d="M1454.767,1470.623
				c44.588,77.227,18.037,175.901-59.049,220.408c-77.463,44.722-175.898,18.022-220.406-59.064
				c-44.717-77.453-18.07-175.882,59.053-220.408C1311.519,1366.969,1410.19,1393.414,1454.767,1470.623z"/>
		</g>
		<path id="inner_circle" display="none" fill="none" stroke="#FFFFFF" stroke-width="6" d="M1476.266,992.246
			c0,267.74-217.073,484.101-484.231,484.101c-267.529,0-484.051-216.942-484.051-484.101
			c0-267.479,216.783-484.061,484.051-484.061C1259.502,507.663,1476.266,724.466,1476.266,992.246z"/>
		<path id="inner_circle_1_" display="none" fill="none" stroke="#FFFFFF" stroke-width="6" d="M1315.136,992.252
			c0,178.632-144.828,322.985-323.071,322.985c-178.491,0-322.951-144.741-322.951-322.985
			c0-178.458,144.634-322.958,322.951-322.958C1170.515,668.946,1315.136,813.594,1315.136,992.252z"/>
		<path id="inner_circle_2_" display="none" fill="none" stroke="#FFFFFF" stroke-width="6" d="M1638.039,992.239
			c0,357.204-289.607,645.863-646.035,645.863c-356.922,0-645.795-289.434-645.795-645.863
			c0-356.856,289.22-645.809,645.795-645.809C1348.846,345.734,1638.039,634.981,1638.039,992.239z"/>
		<path display="none" fill="none" stroke="#FFFFFF" stroke-width="6" d="M1637.82,992.246
			c0,357.353-289.536,645.837-645.825,645.837c-356.933,0-645.645-289.208-645.645-645.837
			c0-357.092,289.084-645.836,645.645-645.836C1348.675,346.028,1637.82,635.153,1637.82,992.246z"/>
		<path display="none" fill="none" stroke="#FFFFFF" stroke-width="6" d="M1799.243,992.246
			c0,446.385-361.775,807.068-807.248,807.068c-446.195,0-807.049-361.527-807.049-807.068c0-446.386,361.475-807.27,807.049-807.27
			C1437.858,184.514,1799.243,545.9,1799.243,992.246z"/>
		<g id="grid" display="none">
			<line display="inline" fill="none" stroke="#FFFFFF" stroke-width="6" x1="1637.82" y1="346.45" x2="346.35" y2="346.45"/>
			<line display="inline" fill="none" stroke="#FFFFFF" stroke-width="6" x1="346.35" y1="346.45" x2="346.35" y2="1637.922"/>
			<line display="inline" fill="none" stroke="#FFFFFF" stroke-width="6" x1="346.35" y1="1637.922" x2="1637.82" y2="1637.922"/>
			<line display="inline" fill="none" stroke="#FFFFFF" stroke-width="6" x1="1637.82" y1="1637.922" x2="1637.82" y2="346.45"/>
		</g>
	</g>
	<g id="grid_2_" display="none">
		<line display="inline" fill="none" stroke="#FFFFFF" stroke-width="6" x1="506.97" y1="1638.541" x2="506.97" y2="345.687"/>
		<line display="inline" fill="none" stroke="#FFFFFF" stroke-width="6" x1="668.917" y1="1638.541" x2="668.917" y2="345.687"/>
		<line display="inline" fill="none" stroke="#FFFFFF" stroke-width="6" x1="829.969" y1="1639.164" x2="829.969" y2="346.329"/>
		<line display="inline" fill="none" stroke="#FFFFFF" stroke-width="6" x1="1153.478" y1="1638.541" x2="1153.478" y2="345.687"/>
		<line display="inline" fill="none" stroke="#FFFFFF" stroke-width="6" x1="1314.962" y1="1638.541" x2="1314.962" y2="345.687"/>
		<line display="inline" fill="none" stroke="#FFFFFF" stroke-width="6" x1="1476.266" y1="1638.541" x2="1476.266" y2="345.687"/>
		<line display="inline" fill="none" stroke="#FFFFFF" stroke-width="6" x1="1638.331" y1="1639.003" x2="345.487" y2="1639.003"/>
		<line display="inline" fill="none" stroke="#FFFFFF" stroke-width="6" x1="345.487" y1="993.431" x2="1638.331" y2="993.431"/>
		<line display="inline" fill="none" stroke="#FFFFFF" stroke-width="6" x1="345.547" y1="831.012" x2="1638.412" y2="831.012"/>
		<line display="inline" fill="none" stroke="#FFFFFF" stroke-width="6" x1="345.547" y1="669.438" x2="1638.412" y2="669.438"/>
		<line display="inline" fill="none" stroke="#FFFFFF" stroke-width="6" x1="345.487" y1="507.502" x2="1638.331" y2="507.502"/>
		<line display="inline" fill="none" stroke="#FFFFFF" stroke-width="6" x1="346.078" y1="1477.188" x2="1638.883" y2="1477.188"/>
		<line display="inline" fill="none" stroke="#FFFFFF" stroke-width="6" x1="346.078" y1="1315.615" x2="1638.883" y2="1315.615"/>
		<line display="inline" fill="none" stroke="#FFFFFF" stroke-width="6" x1="345.958" y1="1153.718" x2="1638.783" y2="1153.718"/>
		<line display="inline" fill="none" stroke="#FFFFFF" stroke-width="6" x1="1638.331" y1="1639.003" x2="1638.331" y2="346.168"/>
		<line display="inline" fill="none" stroke="#FFFFFF" stroke-width="6" x1="345.487" y1="1639.003" x2="345.487" y2="346.168"/>
		<line display="inline" fill="none" stroke="#FFFFFF" stroke-width="6" x1="1638.331" y1="346.168" x2="345.487" y2="346.168"/>
		<line display="inline" fill="none" stroke="#FFFFFF" stroke-width="6" x1="991.995" y1="346.45" x2="991.995" y2="1638.083"/>
	</g>
	<g id="grid_1_" display="none">
		<line display="inline" fill="none" stroke="#FFFFFF" stroke-width="6" x1="668.917" y1="1638.541" x2="668.917" y2="345.687"/>
		<line display="inline" fill="none" stroke="#FFFFFF" stroke-width="6" x1="1314.962" y1="1638.541" x2="1314.962" y2="345.687"/>
		<line display="inline" fill="none" stroke="#FFFFFF" stroke-width="6" x1="1638.331" y1="1639.003" x2="345.487" y2="1639.003"/>
		<line display="inline" fill="none" stroke="#FFFFFF" stroke-width="6" x1="345.487" y1="993.431" x2="1638.331" y2="993.431"/>
		<line display="inline" fill="none" stroke="#FFFFFF" stroke-width="6" x1="345.547" y1="669.438" x2="1638.412" y2="669.438"/>
		<line display="inline" fill="none" stroke="#FFFFFF" stroke-width="6" x1="346.078" y1="1315.615" x2="1638.883" y2="1315.615"/>
		<line display="inline" fill="none" stroke="#FFFFFF" stroke-width="6" x1="1638.331" y1="1639.003" x2="1638.331" y2="346.168"/>
		<line display="inline" fill="none" stroke="#FFFFFF" stroke-width="6" x1="345.487" y1="1639.003" x2="345.487" y2="346.168"/>
		<line display="inline" fill="none" stroke="#FFFFFF" stroke-width="6" x1="1638.331" y1="346.168" x2="345.487" y2="346.168"/>
		<line display="inline" fill="none" stroke="#FFFFFF" stroke-width="6" x1="991.995" y1="346.45" x2="991.995" y2="1638.083"/>
	</g>
	<g id="genesis" display="none">
		<circle display="inline" fill="none" stroke="#FFFFFF" stroke-width="6" cx="991.843" cy="991.88" r="241.434"/>
		<circle display="inline" fill="none" stroke="#FFFFFF" stroke-width="6" cx="782.949" cy="871.275" r="241.435"/>
		<circle display="inline" fill="none" stroke="#FFFFFF" stroke-width="6" cx="782.95" cy="1113.255" r="241.434"/>
		<circle display="inline" fill="none" stroke="#FFFFFF" stroke-width="6" cx="992.509" cy="1234.244" r="241.434"/>
		<circle display="inline" fill="none" stroke="#FFFFFF" stroke-width="6" cx="1202.07" cy="1113.255" r="241.434"/>
		<circle display="inline" fill="none" stroke="#FFFFFF" stroke-width="6" cx="992.982" cy="750.558" r="241.434"/>
		<circle display="inline" fill="none" stroke="#FFFFFF" stroke-width="6" cx="1202.07" cy="871.275" r="241.434"/>
	</g>
</g>
<g id="main_grid">
	<g display="none">
		<g>
			
				<rect x="669.136" y="668.623" transform="matrix(-0.9659 0.2588 -0.2588 -0.9659 2207.1223 1692.6777)" display="inline" fill="none" stroke="#FFFFFF" stroke-width="6" width="646.005" height="646.005"/>
			<line display="inline" fill="none" stroke="#FFFFFF" stroke-width="6" x1="721.942" y1="1231.222" x2="1345.935" y2="1064.024"/>
			<line display="inline" fill="none" stroke="#FFFFFF" stroke-width="6" x1="680.143" y1="1075.224" x2="1304.135" y2="908.026"/>
			<line display="inline" fill="none" stroke="#FFFFFF" stroke-width="6" x1="638.343" y1="919.226" x2="1262.335" y2="752.028"/>
			<line display="inline" fill="none" stroke="#FFFFFF" stroke-width="6" x1="1064.538" y1="637.83" x2="1231.736" y2="1261.823"/>
			<line display="inline" fill="none" stroke="#FFFFFF" stroke-width="6" x1="908.54" y1="679.629" x2="1075.738" y2="1303.622"/>
			<line display="inline" fill="none" stroke="#FFFFFF" stroke-width="6" x1="752.541" y1="721.429" x2="919.739" y2="1345.422"/>
		</g>
		<g display="inline">
			
				<rect x="509.266" y="508.752" transform="matrix(-0.7061 0.7081 -0.7081 -0.7061 2394.8694 989.2985)" fill="none" stroke="#FFFFFF" stroke-width="6" width="965.745" height="965.745"/>
			<line fill="none" stroke="#FFFFFF" stroke-width="6" x1="822.135" y1="1504.028" x2="1504.062" y2="820.186"/>
			<line fill="none" stroke="#FFFFFF" stroke-width="6" x1="651.175" y1="1333.548" x2="1333.104" y2="649.705"/>
			<line fill="none" stroke="#FFFFFF" stroke-width="6" x1="480.214" y1="1163.064" x2="1162.143" y2="479.223"/>
			<line fill="none" stroke="#FFFFFF" stroke-width="6" x1="820.699" y1="479.701" x2="1504.542" y2="1161.63"/>
			<line fill="none" stroke="#FFFFFF" stroke-width="6" x1="650.218" y1="650.661" x2="1334.062" y2="1332.589"/>
			<line fill="none" stroke="#FFFFFF" stroke-width="6" x1="479.736" y1="821.621" x2="1163.577" y2="1503.55"/>
		</g>
		<line display="inline" fill="none" stroke="#FFFFFF" stroke-width="6" x1="1333.104" y1="649.705" x2="650.218" y2="650.661"/>
		<line display="inline" fill="none" stroke="#FFFFFF" stroke-width="6" x1="1675.023" y1="990.669" x2="309.254" y2="992.581"/>
		<line display="inline" fill="none" stroke="#FFFFFF" stroke-width="6" x1="651.175" y1="1333.548" x2="1334.062" y2="1332.589"/>
		<line display="inline" fill="none" stroke="#FFFFFF" stroke-width="6" x1="991.183" y1="308.741" x2="993.095" y2="1674.511"/>
		<line display="inline" fill="none" stroke="#FFFFFF" stroke-width="6" x1="650.218" y1="650.661" x2="651.175" y2="1333.548"/>
		<line display="inline" fill="none" stroke="#FFFFFF" stroke-width="6" x1="1334.062" y1="1332.589" x2="1333.104" y2="649.705"/>
	</g>
	<g display="none">
		<g>
			
				<rect x="669.136" y="668.623" transform="matrix(-0.9659 0.2588 -0.2588 -0.9659 2207.1223 1692.6777)" display="inline" fill="none" stroke="#FFFFFF" stroke-width="6" width="646.005" height="646.005"/>
			<line display="inline" fill="none" stroke="#FFFFFF" stroke-width="6" x1="721.942" y1="1231.222" x2="1345.935" y2="1064.024"/>
			<line display="inline" fill="none" stroke="#FFFFFF" stroke-width="6" x1="680.143" y1="1075.224" x2="1304.135" y2="908.026"/>
			<line display="inline" fill="none" stroke="#FFFFFF" stroke-width="6" x1="638.343" y1="919.226" x2="1262.335" y2="752.028"/>
			<line display="inline" fill="none" stroke="#FFFFFF" stroke-width="6" x1="1064.538" y1="637.83" x2="1231.736" y2="1261.823"/>
			<line display="inline" fill="none" stroke="#FFFFFF" stroke-width="6" x1="908.54" y1="679.629" x2="1075.738" y2="1303.622"/>
			<line display="inline" fill="none" stroke="#FFFFFF" stroke-width="6" x1="752.541" y1="721.429" x2="919.739" y2="1345.422"/>
		</g>
		<g display="inline">
			
				<rect x="509.267" y="508.752" transform="matrix(-1 0.0014 -0.0014 -1 1985.665 1981.8606)" fill="none" stroke="#FFFFFF" stroke-width="6" width="965.745" height="965.745"/>
			<line fill="none" stroke="#FFFFFF" stroke-width="6" x1="509.604" y1="1233.738" x2="1475.349" y2="1232.384"/>
			<line fill="none" stroke="#FFFFFF" stroke-width="6" x1="509.266" y1="992.303" x2="1475.012" y2="990.95"/>
			<line fill="none" stroke="#FFFFFF" stroke-width="6" x1="508.928" y1="750.866" x2="1474.673" y2="749.513"/>
			<line fill="none" stroke="#FFFFFF" stroke-width="6" x1="1232.898" y1="508.414" x2="1234.251" y2="1474.161"/>
			<line fill="none" stroke="#FFFFFF" stroke-width="6" x1="991.463" y1="508.752" x2="992.817" y2="1474.499"/>
			<line fill="none" stroke="#FFFFFF" stroke-width="6" x1="750.027" y1="509.091" x2="751.379" y2="1474.836"/>
		</g>
		<line display="inline" fill="none" stroke="#FFFFFF" stroke-width="6" x1="1475.012" y1="990.95" x2="991.463" y2="508.752"/>
		<line display="inline" fill="none" stroke="#FFFFFF" stroke-width="6" x1="1475.688" y1="1473.821" x2="508.591" y2="509.429"/>
		<line display="inline" fill="none" stroke="#FFFFFF" stroke-width="6" x1="509.266" y1="992.303" x2="992.817" y2="1474.499"/>
		<line display="inline" fill="none" stroke="#FFFFFF" stroke-width="6" x1="1474.335" y1="508.077" x2="509.942" y2="1475.175"/>
		<line display="inline" fill="none" stroke="#FFFFFF" stroke-width="6" x1="991.463" y1="508.752" x2="509.266" y2="992.303"/>
		<line display="inline" fill="none" stroke="#FFFFFF" stroke-width="6" x1="992.817" y1="1474.499" x2="1475.012" y2="990.95"/>
	</g>
</g>
<g id="Layer_4" display="none">
	<g id="_x36_4TetraFull" display="inline">
		<g id="_x36_4TetraFullGroup">
			
				<line fill="none" stroke="#FFFFFF" stroke-width="6" stroke-miterlimit="10" x1="992.127" y1="346.364" x2="992.109" y2="1637.888"/>
			
				<line fill="none" stroke="#FFFFFF" stroke-width="6" stroke-miterlimit="10" x1="1551.475" y1="669.27" x2="432.731" y2="1315.025"/>
			
				<line fill="none" stroke="#FFFFFF" stroke-width="6" stroke-miterlimit="10" x1="432.751" y1="669.239" x2="1551.486" y2="1315.014"/>
			
				<line fill="none" stroke="#FFFFFF" stroke-width="6" stroke-miterlimit="10" x1="712.402" y1="507.815" x2="1551.52" y2="992.142"/>
			
				<line fill="none" stroke="#FFFFFF" stroke-width="6" stroke-miterlimit="10" x1="1551.52" y1="992.142" x2="712.387" y2="1476.43"/>
			
				<line fill="none" stroke="#FFFFFF" stroke-width="6" stroke-miterlimit="10" x1="712.387" y1="1476.43" x2="712.402" y2="507.815"/>
			
				<line fill="none" stroke="#FFFFFF" stroke-width="6" stroke-miterlimit="10" x1="1271.783" y1="507.805" x2="1271.805" y2="1476.466"/>
			
				<line fill="none" stroke="#FFFFFF" stroke-width="6" stroke-miterlimit="10" x1="1271.805" y1="1476.466" x2="432.767" y2="992.142"/>
			
				<line fill="none" stroke="#FFFFFF" stroke-width="6" stroke-miterlimit="10" x1="432.767" y1="992.142" x2="1271.783" y2="507.805"/>
			
				<line fill="none" stroke="#FFFFFF" stroke-width="6" stroke-miterlimit="10" x1="572.584" y1="1072.847" x2="1271.758" y2="669.194"/>
			
				<line fill="none" stroke="#FFFFFF" stroke-width="6" stroke-miterlimit="10" x1="712.402" y1="507.815" x2="432.767" y2="992.142"/>
			
				<line fill="none" stroke="#FFFFFF" stroke-width="6" stroke-miterlimit="10" x1="432.767" y1="992.142" x2="712.387" y2="1476.43"/>
			
				<line fill="none" stroke="#FFFFFF" stroke-width="6" stroke-miterlimit="10" x1="712.387" y1="1476.43" x2="1271.805" y2="1476.466"/>
			
				<line fill="none" stroke="#FFFFFF" stroke-width="6" stroke-miterlimit="10" x1="1271.805" y1="1476.466" x2="1551.52" y2="992.142"/>
			
				<line fill="none" stroke="#FFFFFF" stroke-width="6" stroke-miterlimit="10" x1="1551.52" y1="992.142" x2="1271.783" y2="507.805"/>
			
				<line fill="none" stroke="#FFFFFF" stroke-width="6" stroke-miterlimit="10" x1="1271.783" y1="507.805" x2="712.402" y2="507.815"/>
			
				<line fill="none" stroke="#FFFFFF" stroke-width="6" stroke-miterlimit="10" x1="1131.951" y1="588.535" x2="1131.947" y2="1395.744"/>
			
				<line fill="none" stroke="#FFFFFF" stroke-width="6" stroke-miterlimit="10" x1="852.254" y1="588.494" x2="852.25" y2="1395.703"/>
			
				<line fill="none" stroke="#FFFFFF" stroke-width="6" stroke-miterlimit="10" x1="712.157" y1="669.426" x2="1411.619" y2="1072.836"/>
			
				<line fill="none" stroke="#FFFFFF" stroke-width="6" stroke-miterlimit="10" x1="572.576" y1="911.416" x2="1272.039" y2="1314.826"/>
			
				<line fill="none" stroke="#FFFFFF" stroke-width="6" stroke-miterlimit="10" x1="712.445" y1="1315.061" x2="1411.619" y2="911.408"/>
			
				<line fill="none" stroke="#FFFFFF" stroke-width="6" stroke-miterlimit="10" x1="432.731" y1="1315.025" x2="1551.486" y2="1315.014"/>
			
				<line fill="none" stroke="#FFFFFF" stroke-width="6" stroke-miterlimit="10" x1="1551.475" y1="669.27" x2="432.751" y2="669.239"/>
			
				<line fill="none" stroke="#FFFFFF" stroke-width="6" stroke-miterlimit="10" x1="432.767" y1="992.142" x2="1551.52" y2="992.142"/>
			
				<line fill="none" stroke="#FFFFFF" stroke-width="6" stroke-miterlimit="10" x1="852.276" y1="588.536" x2="1131.951" y2="588.535"/>
			
				<line fill="none" stroke="#FFFFFF" stroke-width="6" stroke-miterlimit="10" x1="1411.619" y1="749.965" x2="572.584" y2="750.011"/>
			
				<line fill="none" stroke="#FFFFFF" stroke-width="6" stroke-miterlimit="10" x1="1272.039" y1="830.677" x2="712.16" y2="830.688"/>
			
				<line fill="none" stroke="#FFFFFF" stroke-width="6" stroke-miterlimit="10" x1="1411.605" y1="911.408" x2="572.604" y2="911.416"/>
			
				<line fill="none" stroke="#FFFFFF" stroke-width="6" stroke-miterlimit="10" x1="1411.621" y1="1072.836" x2="572.579" y2="1072.847"/>
			
				<line fill="none" stroke="#FFFFFF" stroke-width="6" stroke-miterlimit="10" x1="1458.264" y1="1153.613" x2="525.986" y2="1153.544"/>
			
				<line fill="none" stroke="#FFFFFF" stroke-width="6" stroke-miterlimit="10" x1="1411.619" y1="1234.277" x2="572.576" y2="1234.323"/>
			
				<line fill="none" stroke="#FFFFFF" stroke-width="6" stroke-miterlimit="10" x1="1131.947" y1="1395.744" x2="852.19" y2="1395.745"/>
			
				<line fill="none" stroke="#FFFFFF" stroke-width="6" stroke-miterlimit="10" x1="572.67" y1="911.452" x2="712.507" y2="669.244"/>
			
				<line fill="none" stroke="#FFFFFF" stroke-width="6" stroke-miterlimit="10" x1="991.58" y1="508.752" x2="572.665" y2="1234.409"/>
			
				<line fill="none" stroke="#FFFFFF" stroke-width="6" stroke-miterlimit="10" x1="1131.949" y1="588.494" x2="712.456" y2="1315.096"/>
			
				<line fill="none" stroke="#FFFFFF" stroke-width="6" stroke-miterlimit="10" x1="1271.758" y1="669.194" x2="852.247" y2="1395.832"/>
			
				<line fill="none" stroke="#FFFFFF" stroke-width="6" stroke-miterlimit="10" x1="1271.848" y1="830.565" x2="992.066" y2="1315.075"/>
			
				<line fill="none" stroke="#FFFFFF" stroke-width="6" stroke-miterlimit="10" x1="1411.57" y1="749.917" x2="992.104" y2="1476.43"/>
			
				<line fill="none" stroke="#FFFFFF" stroke-width="6" stroke-miterlimit="10" x1="1411.568" y1="1072.852" x2="1271.689" y2="1315.13"/>
			
				<line fill="none" stroke="#FFFFFF" stroke-width="6" stroke-miterlimit="10" x1="432.731" y1="1315.025" x2="992.127" y2="346.364"/>
			
				<line fill="none" stroke="#FFFFFF" stroke-width="6" stroke-miterlimit="10" x1="1551.475" y1="669.27" x2="992.109" y2="1637.888"/>
			
				<line fill="none" stroke="#FFFFFF" stroke-width="6" stroke-miterlimit="10" x1="1271.783" y1="507.805" x2="712.387" y2="1476.43"/>
			
				<line fill="none" stroke="#FFFFFF" stroke-width="6" stroke-miterlimit="10" x1="992.066" y1="507.775" x2="1411.629" y2="1234.386"/>
			
				<line fill="none" stroke="#FFFFFF" stroke-width="6" stroke-miterlimit="10" x1="712.511" y1="1315.052" x2="572.671" y2="1072.847"/>
			
				<line fill="none" stroke="#FFFFFF" stroke-width="6" stroke-miterlimit="10" x1="572.584" y1="750.011" x2="992.104" y2="1476.43"/>
			
				<line fill="none" stroke="#FFFFFF" stroke-width="6" stroke-miterlimit="10" x1="712.388" y1="830.556" x2="992.115" y2="1315.048"/>
			
				<line fill="none" stroke="#FFFFFF" stroke-width="6" stroke-miterlimit="10" x1="712.461" y1="669.223" x2="1131.947" y2="1395.744"/>
			
				<line fill="none" stroke="#FFFFFF" stroke-width="6" stroke-miterlimit="10" x1="852.254" y1="588.494" x2="1271.783" y2="1315.122"/>
			
				<line fill="none" stroke="#FFFFFF" stroke-width="6" stroke-miterlimit="10" x1="1271.734" y1="669.245" x2="1411.615" y2="911.521"/>
			
				<line fill="none" stroke="#FFFFFF" stroke-width="6" stroke-miterlimit="10" x1="712.402" y1="507.815" x2="1271.805" y2="1476.466"/>
			
				<line fill="none" stroke="#FFFFFF" stroke-width="6" stroke-miterlimit="10" x1="992.127" y1="346.364" x2="1551.486" y2="1315.014"/>
			
				<line fill="none" stroke="#FFFFFF" stroke-width="6" stroke-miterlimit="10" x1="992.109" y1="1637.888" x2="432.751" y2="669.239"/>
			
				<line fill="none" stroke="#FFFFFF" stroke-width="6" stroke-miterlimit="10" x1="992.104" y1="1476.43" x2="1131.887" y2="1395.744"/>
			
				<line fill="none" stroke="#FFFFFF" stroke-width="6" stroke-miterlimit="10" x1="1270.578" y1="1315.688" x2="1411.619" y2="1234.277"/>
			
				<line fill="none" stroke="#FFFFFF" stroke-width="6" stroke-miterlimit="10" x1="1411.619" y1="911.408" x2="1411.619" y2="749.965"/>
			
				<line fill="none" stroke="#FFFFFF" stroke-width="6" stroke-miterlimit="10" x1="1411.619" y1="1234.277" x2="1411.619" y2="1072.836"/>
			
				<line fill="none" stroke="#FFFFFF" stroke-width="6" stroke-miterlimit="10" x1="992.082" y1="507.806" x2="852.276" y2="588.526"/>
			
				<line fill="none" stroke="#FFFFFF" stroke-width="6" stroke-miterlimit="10" x1="712.157" y1="669.426" x2="572.584" y2="750.011"/>
			
				<line fill="none" stroke="#FFFFFF" stroke-width="6" stroke-miterlimit="10" x1="572.576" y1="1234.323" x2="712.445" y2="1315.041"/>
			
				<line fill="none" stroke="#FFFFFF" stroke-width="6" stroke-miterlimit="10" x1="851.907" y1="1395.521" x2="992.104" y2="1476.43"/>
			
				<line fill="none" stroke="#FFFFFF" stroke-width="6" stroke-miterlimit="10" x1="572.584" y1="1072.847" x2="572.576" y2="1234.323"/>
			
				<line fill="none" stroke="#FFFFFF" stroke-width="6" stroke-miterlimit="10" x1="572.584" y1="750.011" x2="572.576" y2="911.416"/>
			
				<line fill="none" stroke="#FFFFFF" stroke-width="6" stroke-miterlimit="10" x1="1131.949" y1="588.494" x2="992.082" y2="507.806"/>
			
				<line fill="none" stroke="#FFFFFF" stroke-width="6" stroke-miterlimit="10" x1="1411.619" y1="749.965" x2="1271.758" y2="669.194"/>
			
				<line fill="none" stroke="#FFFFFF" stroke-width="6" stroke-miterlimit="10" x1="712.511" y1="1153.703" x2="992.4" y2="669.426"/>
			
				<line fill="none" stroke="#FFFFFF" stroke-width="6" stroke-miterlimit="10" x1="992.4" y1="669.426" x2="1272.039" y2="1153.707"/>
			<circle fill="none" stroke="#FFFFFF" stroke-width="6" stroke-miterlimit="10" cx="992.126" cy="992.126" r="726.798"/>
		</g>
	</g>
</g>
<g id="Layer_5" display="none">
	
		<rect x="669.008" y="634.03" transform="matrix(0.866 0.5 -0.5 0.866 630.517 -362.4397)" display="inline" fill="none" stroke="#57B947" stroke-width="6" stroke-miterlimit="10" width="645.144" height="722.62"/>
	<polygon display="inline" fill="#D14C9B" points="1021.111,1430.039 974.111,1348.633 1021.111,1267.226 1115.111,1267.226 
		1162.111,1348.633 1115.111,1430.039 	"/>
	<polygon display="inline" fill="#D14C9B" points="1115.111,1268.92 1068.111,1187.514 1115.111,1106.106 1209.111,1106.106 
		1256.111,1187.514 1209.111,1268.92 	"/>
	<polygon display="inline" fill="#D14C9B" points="1205.209,1107.313 1158.209,1025.906 1205.209,944.499 1299.209,944.499 
		1346.209,1025.906 1299.209,1107.313 	"/>
	<polygon display="inline" fill="#D14C9B" points="882.489,1350.082 835.489,1268.676 882.489,1187.269 976.489,1187.269 
		1023.489,1268.676 976.489,1350.082 	"/>
	<polygon display="inline" fill="#D14C9B" points="976.489,1188.963 929.489,1107.557 976.489,1026.149 1070.489,1026.149 
		1117.489,1107.557 1070.489,1188.963 	"/>
	<polygon display="inline" fill="#D14C9B" points="1066.587,1027.355 1019.587,945.949 1066.587,864.542 1160.587,864.542 
		1207.587,945.949 1160.587,1027.355 	"/>
	<polygon display="inline" fill="#D14C9B" points="739.489,1268.226 692.489,1186.819 739.489,1105.412 833.489,1105.412 
		880.489,1186.819 833.489,1268.226 	"/>
	<polygon display="inline" fill="#D14C9B" points="833.489,1107.106 786.489,1025.7 833.489,944.293 927.489,944.293 
		974.489,1025.7 927.489,1107.106 	"/>
	<polygon display="inline" fill="#D14C9B" points="923.587,945.499 876.587,864.093 923.587,782.686 1017.587,782.686 
		1064.587,864.093 1017.587,945.499 	"/>
	<polygon display="inline" fill="#D14C9B" points="597.489,1187.063 550.489,1105.657 597.489,1024.25 691.489,1024.25 
		738.489,1105.657 691.489,1187.063 	"/>
	<polygon display="inline" fill="#D14C9B" points="691.489,1025.944 644.489,944.538 691.489,863.131 785.489,863.131 
		832.489,944.538 785.489,1025.944 	"/>
	<polygon display="inline" fill="#D14C9B" points="781.587,864.337 734.587,782.931 781.587,701.523 875.587,701.523 
		922.587,782.931 875.587,864.337 	"/>
	<polygon display="inline" fill="#D14C9B" points="1300.32,945.769 1253.32,864.362 1300.32,782.956 1394.32,782.956 
		1441.32,864.362 1394.32,945.769 	"/>
	<polygon display="inline" fill="#D14C9B" points="1160.518,865.224 1113.518,783.817 1160.518,702.411 1254.518,702.411 
		1301.518,783.817 1254.518,865.224 	"/>
	<polygon display="inline" fill="#D14C9B" points="1020.211,784.64 973.211,703.233 1020.211,621.825 1114.211,621.825 
		1161.211,703.233 1114.211,784.64 	"/>
	<polygon display="inline" fill="#D14C9B" points="880.538,703.232 833.538,621.826 880.538,540.419 974.538,540.419 
		1021.538,621.826 974.538,703.232 	"/>
	<polygon display="inline" fill="#57B947" points="1664.325,495.626 1664.325,445.626 1707.626,420.626 1750.928,445.626 
		1750.927,495.626 1707.626,520.626 	"/>
	<polygon display="inline" fill="#57B947" points="1750.928,495.626 1750.928,445.626 1794.229,420.626 1837.53,445.626 
		1837.529,495.626 1794.229,520.626 	"/>
	<polygon display="inline" fill="#57B947" points="1837.53,495.626 1837.53,445.626 1880.831,420.626 1924.133,445.626 
		1924.132,495.626 1880.831,520.626 	"/>
	<polygon display="inline" fill="#57B947" points="1924.133,495.626 1924.133,445.626 1967.434,420.626 2010.735,445.626 
		2010.734,495.626 1967.434,520.626 	"/>
	
		<rect x="1676.153" y="439.153" display="inline" fill="#F99E4E" stroke="#57B947" stroke-miterlimit="10" width="62.945" height="62.945"/>
	
		<rect x="1762.757" y="439.153" display="inline" fill="#F99E4E" stroke="#57B947" stroke-miterlimit="10" width="62.945" height="62.945"/>
	
		<rect x="1849.358" y="439.153" display="inline" fill="#F99E4E" stroke="#57B947" stroke-miterlimit="10" width="62.945" height="62.945"/>
	
		<rect x="1935.962" y="439.153" display="inline" fill="#F99E4E" stroke="#57B947" stroke-miterlimit="10" width="62.945" height="62.945"/>
</g>
<g id="Layer_6">
	<g id="radiating_circles_1_">
		<g id="fruit_3_" display="none">
			<path display="inline" fill="none" stroke="#FFFFFF" stroke-width="6" d="M992.152,1153.389
				c-89.435,0-161.333-72.331-161.333-161.343c0-89.193,72.322-161.344,161.333-161.344c89.253,0,161.354,72.271,161.354,161.344
				C1153.627,1081.138,1081.405,1153.389,992.152,1153.389z"/>
			<path display="inline" fill="none" stroke="#FFFFFF" stroke-width="6" d="M1315.04,1153.389
				c-89.213,0-161.333-72.331-161.333-161.343c0-89.193,72.321-161.344,161.333-161.344c89.454,0,161.354,72.271,161.354,161.344
				C1476.475,1081.138,1404.193,1153.389,1315.04,1153.389z"/>
			<path display="inline" fill="none" stroke="#FFFFFF" stroke-width="6" d="M1153.627,873.804
				c-89.273,0-161.353-72.331-161.353-161.344c0-89.284,72.34-161.345,161.353-161.345c89.213,0,161.333,72.332,161.333,161.345
				C1315.08,801.492,1242.84,873.804,1153.627,873.804z"/>
			<path display="inline" fill="none" stroke="#FFFFFF" stroke-width="6" d="M830.76,873.804
				c-89.354,0-161.335-72.331-161.335-161.344c0-89.284,72.341-161.345,161.335-161.345c89.392,0,161.352,72.332,161.352,161.345
				C992.212,801.492,920.051,873.804,830.76,873.804z"/>
			<path display="inline" fill="none" stroke="#FFFFFF" stroke-width="6" d="M669.365,1153.389
				c-89.452,0-161.354-72.331-161.354-161.343c0-89.193,72.341-161.344,161.354-161.344c89.415,0,161.335,72.271,161.335,161.344
				C830.798,1081.138,758.578,1153.389,669.365,1153.389z"/>
			<path display="inline" fill="none" stroke="#FFFFFF" stroke-width="6" d="M830.76,1433.055
				c-89.354,0-161.335-72.331-161.335-161.344c0-89.193,72.341-161.344,161.335-161.344c89.352,0,161.352,72.332,161.352,161.344
				C992.112,1360.724,920.013,1433.055,830.76,1433.055z"/>
			<path display="inline" fill="none" stroke="#FFFFFF" stroke-width="6" d="M1153.627,1433.055
				c-89.273,0-161.353-72.331-161.353-161.344c0-89.193,72.34-161.344,161.353-161.344c89.213,0,161.333,72.332,161.333,161.344
				C1314.98,1360.724,1242.84,1433.055,1153.627,1433.055z"/>
			<path display="inline" fill="none" stroke="#FFFFFF" stroke-width="6" d="M1637.828,1153.489
				c-89.113,0-161.334-72.331-161.334-161.343c0-89.424,72.321-161.344,161.334-161.344c89.453,0,161.534,72.332,161.534,161.345
				C1799.302,1081.258,1727.102,1153.489,1637.828,1153.489z"/>
			<path display="inline" fill="none" stroke="#FFFFFF" stroke-width="6" d="M1315.001,594.209
				c-89.153,0-161.334-72.331-161.334-161.344c0-89.214,72.321-161.345,161.334-161.345c89.232,0,161.354,72.332,161.354,161.345
				C1476.475,521.897,1404.193,594.209,1315.001,594.209z"/>
			<path display="inline" fill="none" stroke="#FFFFFF" stroke-width="6" d="M669.365,594.209
				c-89.452,0-161.354-72.331-161.354-161.344c0-89.214,72.341-161.345,161.354-161.345c89.415,0,161.335,72.332,161.335,161.345
				S758.578,594.209,669.365,594.209z"/>
			<path display="inline" fill="none" stroke="#FFFFFF" stroke-width="6" d="M669.365,1712.791
				c-89.452,0-161.354-72.333-161.354-161.344c0-89.444,72.341-161.443,161.354-161.443c89.415,0,161.335,72.331,161.335,161.443
				C830.798,1640.458,758.578,1712.791,669.365,1712.791z"/>
			<path display="inline" fill="none" stroke="#FFFFFF" stroke-width="6" d="M1315.001,1712.791
				c-89.214,0-161.334-72.333-161.334-161.344c0-89.444,72.321-161.443,161.334-161.443c89.232,0,161.354,72.331,161.354,161.443
				C1476.434,1640.458,1404.193,1712.791,1315.001,1712.791z"/>
			<path display="inline" fill="none" stroke="#FFFFFF" stroke-width="6" d="M346.579,1153.449
				c-89.174,0-161.354-72.331-161.354-161.343c0-89.445,72.341-161.344,161.354-161.344c89.435,0,161.354,72.291,161.354,161.344
				C507.97,1081.219,435.732,1153.449,346.579,1153.449z"/>
		</g>
		<g id="fruit_2_" display="none">
			<path display="inline" fill="none" stroke="#FFFFFF" stroke-width="6" d="M1072.788,1131.859
				c-77.453,44.717-175.884,18.025-220.39-59.061c-44.596-77.244-18.039-175.889,59.047-220.395
				c77.295-44.627,175.872-18.089,220.408,59.051C1176.503,988.55,1150.083,1087.232,1072.788,1131.859z"/>
			<path display="inline" fill="none" stroke="#FFFFFF" stroke-width="6" d="M1352.417,970.415
				c-77.261,44.607-175.884,18.026-220.39-59.061c-44.597-77.243-18.04-175.888,59.047-220.393
				c77.469-44.728,175.871-18.09,220.407,59.051C1456.098,827.127,1429.626,925.838,1352.417,970.415z"/>
			<path display="inline" fill="none" stroke="#FFFFFF" stroke-width="6" d="M1072.836,808.994
				c-77.313,44.637-175.901,18.036-220.407-59.051c-44.643-77.322-18.023-175.898,59.063-220.405
				c77.261-44.606,175.884-18.026,220.391,59.061C1176.504,665.643,1150.097,764.388,1072.836,808.994z"/>
			<path display="inline" fill="none" stroke="#FFFFFF" stroke-width="6" d="M793.226,970.427
				c-77.384,44.678-175.886,18.027-220.393-59.061c-44.642-77.322-18.022-175.898,59.048-220.396
				c77.416-44.696,175.901-18.035,220.408,59.053C896.892,827.078,870.554,925.782,793.226,970.427z"/>
			<path display="inline" fill="none" stroke="#FFFFFF" stroke-width="6" d="M793.246,1293.252
				c-77.468,44.727-175.902,18.037-220.408-59.049c-44.596-77.244-18.022-175.898,59.064-220.404
				c77.436-44.708,175.855-18.08,220.393,59.059C896.925,1149.965,870.506,1248.646,793.246,1293.252z"/>
			<path display="inline" fill="none" stroke="#FFFFFF" stroke-width="6" d="M1072.851,1454.752
				c-77.383,44.678-175.885,18.027-220.392-59.059c-44.596-77.244-18.021-175.898,59.049-220.396
				c77.381-44.676,175.901-18.035,220.407,59.053C1176.421,1311.436,1150.146,1410.127,1072.851,1454.752z"/>
			<path display="inline" fill="none" stroke="#FFFFFF" stroke-width="6" d="M1352.462,1293.318
				c-77.313,44.637-175.901,18.037-220.408-59.051c-44.597-77.242-18.022-175.898,59.064-220.404
				c77.261-44.606,175.885-18.025,220.391,59.063C1456.032,1150.002,1429.723,1248.713,1352.462,1293.318z"/>
			<path display="inline" fill="none" stroke="#FFFFFF" stroke-width="6" d="M1632.01,809.108
				c-77.174,44.556-175.885,18.026-220.392-59.061c-44.712-77.443-18.04-175.89,59.047-220.396
				c77.469-44.727,176.06-18.125,220.565,58.961C1735.734,665.817,1709.322,764.472,1632.01,809.108z"/>
			<path display="inline" fill="none" stroke="#FFFFFF" stroke-width="6" d="M1072.793,486.171
				c-77.209,44.577-175.885,18.026-220.391-59.061c-44.607-77.262-18.04-175.89,59.047-220.396
				c77.277-44.616,175.902-18.036,220.409,59.052C1176.477,342.811,1150.036,441.575,1072.793,486.171z"/>
			<path display="inline" fill="none" stroke="#FFFFFF" stroke-width="6" d="M513.656,808.989
				c-77.468,44.726-175.902,18.036-220.408-59.052c-44.607-77.262-18.023-175.898,59.064-220.404
				c77.436-44.708,175.886-18.027,220.393,59.061C617.21,665.681,590.917,764.382,513.656,808.989z"/>
			<path display="inline" fill="none" stroke="#FFFFFF" stroke-width="6" d="M1072.946,1777.709
				c-77.468,44.727-175.902,18.035-220.408-59.051c-44.723-77.461-18.072-175.984,59.015-220.49
				c77.436-44.709,175.885-18.027,220.442,59.146C1176.586,1634.35,1150.207,1733.104,1072.946,1777.709z"/>
			<path display="inline" fill="none" stroke="#FFFFFF" stroke-width="6" d="M1632.084,1454.891
				c-77.261,44.607-175.886,18.025-220.392-59.061c-44.722-77.461-18.089-175.975,58.998-220.48
				c77.277-44.617,175.901-18.037,220.458,59.137C1735.723,1311.533,1709.327,1410.295,1632.084,1454.891z"/>
			<path display="inline" fill="none" stroke="#FFFFFF" stroke-width="6" d="M513.735,1454.697
				c-77.227,44.588-175.901,18.037-220.408-59.049c-44.722-77.463-18.022-175.898,59.064-220.406
				c77.453-44.717,175.882-18.07,220.408,59.053C617.389,1311.449,590.944,1410.121,513.735,1454.697z"/>
		</g>
		<path display="none" fill="none" stroke="#FFFFFF" stroke-width="6" d="M992.112,1476.196
			c-267.74,0-484.101-217.073-484.101-484.231c0-267.529,216.942-484.051,484.101-484.051
			c267.479,0,484.061,216.783,484.061,484.051C1476.695,1259.433,1259.892,1476.196,992.112,1476.196z"/>
		<path display="none" fill="none" stroke="#FFFFFF" stroke-width="6" d="M992.112,1637.751
			c-357.353,0-645.837-289.536-645.837-645.825c0-356.933,289.208-645.645,645.837-645.645
			c357.092,0,645.836,289.084,645.836,645.645C1638.329,1348.605,1349.204,1637.751,992.112,1637.751z"/>
		<path display="none" fill="none" stroke="#FFFFFF" stroke-width="6" d="M992.112,1799.174
			c-446.385,0-807.068-361.775-807.068-807.248c0-446.195,361.527-807.049,807.068-807.049c446.386,0,807.27,361.475,807.27,807.049
			C1799.844,1437.789,1438.458,1799.174,992.112,1799.174z"/>
		<g id="grid_3_" display="none">
			<line display="inline" fill="none" stroke="#FFFFFF" stroke-width="6" x1="1637.908" y1="1637.751" x2="1637.908" y2="346.281"/>
			<line display="inline" fill="none" stroke="#FFFFFF" stroke-width="6" x1="1637.908" y1="346.281" x2="346.436" y2="346.281"/>
			<line display="inline" fill="none" stroke="#FFFFFF" stroke-width="6" x1="346.436" y1="346.281" x2="346.436" y2="1637.751"/>
			<line display="inline" fill="none" stroke="#FFFFFF" stroke-width="6" x1="346.436" y1="1637.751" x2="1637.908" y2="1637.751"/>
		</g>
	</g>
	<g>
		<g display="none">
			
				<rect x="669.73" y="669.067" transform="matrix(-0.2588 -0.9659 0.9659 -0.2588 291.4049 2207.7417)" display="inline" fill="none" stroke="#FFFFFF" stroke-width="6" width="646.005" height="646.005"/>
			<line display="inline" fill="none" stroke="#FFFFFF" stroke-width="6" x1="753.136" y1="721.873" x2="920.333" y2="1345.865"/>
			<line display="inline" fill="none" stroke="#FFFFFF" stroke-width="6" x1="909.134" y1="680.073" x2="1076.332" y2="1304.065"/>
			<line display="inline" fill="none" stroke="#FFFFFF" stroke-width="6" x1="1065.132" y1="638.273" x2="1232.33" y2="1262.266"/>
			<line display="inline" fill="none" stroke="#FFFFFF" stroke-width="6" x1="1346.528" y1="1064.469" x2="722.535" y2="1231.667"/>
			<line display="inline" fill="none" stroke="#FFFFFF" stroke-width="6" x1="1304.729" y1="908.471" x2="680.736" y2="1075.669"/>
			<line display="inline" fill="none" stroke="#FFFFFF" stroke-width="6" x1="1262.929" y1="752.472" x2="638.936" y2="919.67"/>
		</g>
		<g>
			
				<rect x="509.86" y="509.198" transform="matrix(-0.0014 -1 1 -0.0014 2.0532 1986.1899)" fill="none" stroke="#FFFFFF" stroke-width="6" width="965.745" height="965.745"/>
			<line fill="none" stroke="#FFFFFF" stroke-width="6" x1="750.62" y1="509.535" x2="751.974" y2="1475.279"/>
			<line fill="none" stroke="#FFFFFF" stroke-width="6" x1="992.055" y1="509.196" x2="993.408" y2="1474.942"/>
			<line fill="none" stroke="#FFFFFF" stroke-width="6" x1="1233.492" y1="508.858" x2="1234.845" y2="1474.604"/>
			<line fill="none" stroke="#FFFFFF" stroke-width="6" x1="1475.943" y1="1232.829" x2="510.197" y2="1234.182"/>
			<line fill="none" stroke="#FFFFFF" stroke-width="6" x1="1475.605" y1="991.394" x2="509.859" y2="992.748"/>
			<line fill="none" stroke="#FFFFFF" stroke-width="6" x1="1475.267" y1="749.958" x2="509.522" y2="751.31"/>
		</g>
		<line fill="none" stroke="#FFFFFF" stroke-width="6" x1="993.408" y1="1474.942" x2="1475.605" y2="991.394"/>
		<line fill="none" stroke="#FFFFFF" stroke-width="6" x1="510.537" y1="1475.618" x2="1474.929" y2="508.521"/>
		<line fill="none" stroke="#FFFFFF" stroke-width="6" x1="992.055" y1="509.196" x2="509.859" y2="992.748"/>
		<line fill="none" stroke="#FFFFFF" stroke-width="6" x1="1476.28" y1="1474.266" x2="509.183" y2="509.873"/>
		<line fill="none" stroke="#FFFFFF" stroke-width="6" x1="1475.605" y1="991.394" x2="992.055" y2="509.196"/>
		<line fill="none" stroke="#FFFFFF" stroke-width="6" x1="509.859" y1="992.748" x2="993.408" y2="1474.942"/>
	</g>
</g>
</svg>
