<?xml version="1.0" encoding="utf-8"?>
<!-- Generator: Adobe Illustrator 16.0.0, SVG Export Plug-In . SVG Version: 6.00 Build 0)  -->
<!DOCTYPE svg PUBLIC "-//W3C//DTD SVG 1.1//EN" "http://www.w3.org/Graphics/SVG/1.1/DTD/svg11.dtd">
<svg version="1.1" id="Layer_1" xmlns="http://www.w3.org/2000/svg" xmlns:xlink="http://www.w3.org/1999/xlink" x="0px" y="0px"
	 width="1683.969px" height="1984.252px" viewBox="0 0 1683.969 1984.252" enable-background="new 0 0 1683.969 1984.252"
	 xml:space="preserve">

	 	 <style>
		#hexagon, #sixtyFour, #fruit {
			cursor: pointer;
			transition: 0.2s;
		}
	 </style>
	 
<g id="_x36_4Tetra3DFullGroup">
	<g id="back" display="none">
		<rect id="image" y="-13.988" display="inline" fill="#130E22" width="1683.969" height="2012.229"/>
	</g>
	<g id="sixtyFour" stroke-width="8">
		<g>
			
			<rect x="359.734" y="509.195" transform="matrix(-0.0014 -1 1 -0.0014 -148.2799 1836.0654)" fill="none" stroke="#FFFFFF" width="965.747" height="965.747"/>
			<line fill="none" stroke="#FFFFFF" x1="600.494" y1="509.534" x2="601.848" y2="1475.278"/>
			<line fill="none" stroke="#FFFFFF" x1="841.929" y1="509.195" x2="843.282" y2="1474.941"/>
			<line fill="none" stroke="#FFFFFF" x1="1083.366" y1="508.857" x2="1084.719" y2="1474.603"/>
			<line fill="none" stroke="#FFFFFF" x1="1325.817" y1="1232.828" x2="360.071" y2="1234.181"/>
			<line fill="none" stroke="#FFFFFF" x1="1325.479" y1="991.393" x2="359.733" y2="992.747"/>
			<line fill="none" stroke="#FFFFFF" x1="1325.141" y1="749.957" x2="359.396" y2="751.309"/>
			<line fill="none" stroke="#FFFFFF" x1="843.282" y1="1474.941" x2="1325.479" y2="991.393"/>
			<line fill="none" stroke="#FFFFFF" x1="360.411" y1="1475.617" x2="1324.803" y2="508.521"/>
			<line fill="none" stroke="#FFFFFF" x1="841.929" y1="509.195" x2="359.733" y2="992.747"/>
			<line fill="none" stroke="#FFFFFF" x1="1326.154" y1="1474.265" x2="359.057" y2="509.872"/>
			<line fill="none" stroke="#FFFFFF" x1="1325.479" y1="991.393" x2="841.929" y2="509.195"/>
			<line fill="none" stroke="#FFFFFF" x1="359.733" y1="992.747" x2="843.282" y2="1474.941"/>
			<circle id="circle_5_" fill="none" stroke="#FFFFFF" cx="842" cy="992.125" r="726.798"/>
			<line fill="none" stroke="#FFFFFF" stroke-miterlimit="10" x1="359.396" y1="751.309" x2="600.494" y2="509.534"/>
			<line fill="none" stroke="#FFFFFF" stroke-miterlimit="10" x1="600.494" y1="509.534" x2="1324.796" y2="1232.828"/>
			<line fill="none" stroke="#FFFFFF" stroke-miterlimit="10" x1="360.071" y1="1233.164" x2="1083.366" y2="508.857"/>
			<line fill="none" stroke="#FFFFFF" stroke-miterlimit="10" x1="1083.366" y1="508.857" x2="1325.141" y2="749.957"/>
			<line fill="none" stroke="#FFFFFF" stroke-miterlimit="10" x1="1325.141" y1="749.957" x2="601.848" y2="1475.278"/>
			<line fill="none" stroke="#FFFFFF" stroke-miterlimit="10" x1="1084.719" y1="1474.603" x2="359.396" y2="751.309"/>
			<line fill="none" stroke="#FFFFFF" stroke-miterlimit="10" x1="1325.817" y1="1232.828" x2="1084.719" y2="1474.603"/>
			<line fill="none" stroke="#FFFFFF" stroke-miterlimit="10" x1="601.848" y1="1475.278" x2="360.071" y2="1234.181"/>
		</g>
	</g>
	<g id="fruit" stroke-width="2">
		<g>
			<path fill="none" stroke="#FFFFFF" d="M1003.332,992.205c0,89.435-72.331,161.333-161.343,161.333
				c-89.193,0-161.344-72.322-161.344-161.333c0-89.253,72.271-161.354,161.344-161.354
				C931.081,830.73,1003.332,902.951,1003.332,992.205z"/>
			<path fill="none" stroke="#FFFFFF" d="M1003.332,669.316c0,89.213-72.331,161.333-161.343,161.333
				c-89.193,0-161.344-72.321-161.344-161.333c0-89.454,72.271-161.354,161.344-161.354
				C931.081,507.882,1003.332,580.164,1003.332,669.316z"/>
			<path fill="none" stroke="#FFFFFF" d="M723.748,830.73c0,89.271-72.331,161.353-161.344,161.353
				c-89.284,0-161.345-72.34-161.345-161.354c0-89.214,72.332-161.332,161.345-161.332
				C651.437,669.276,723.748,741.517,723.748,830.73z"/>
			<path fill="none" stroke="#FFFFFF" d="M723.748,1153.597c0,89.354-72.331,161.335-161.344,161.335
				c-89.284,0-161.345-72.341-161.345-161.335c0-89.392,72.332-161.352,161.345-161.352
				C651.437,992.146,723.748,1064.306,723.748,1153.597z"/>
			<path fill="none" stroke="#FFFFFF" d="M1003.332,1314.992c0,89.452-72.331,161.354-161.343,161.354
				c-89.193,0-161.344-72.341-161.344-161.354c0-89.415,72.271-161.335,161.344-161.335
				C931.081,1153.56,1003.332,1225.779,1003.332,1314.992z"/>
			<path fill="none" stroke="#FFFFFF" d="M1282.998,1153.597c0,89.354-72.331,161.335-161.344,161.335
				c-89.193,0-161.345-72.341-161.345-161.335c0-89.352,72.332-161.352,161.345-161.352S1282.998,1064.344,1282.998,1153.597z"/>
			<path fill="none" stroke="#FFFFFF" d="M1282.998,830.73c0,89.271-72.331,161.353-161.344,161.353
				c-89.193,0-161.345-72.34-161.345-161.354c0-89.214,72.332-161.332,161.345-161.332
				C1210.667,669.376,1282.998,741.517,1282.998,830.73z"/>
			<path fill="none" stroke="#FFFFFF" d="M1003.433,346.529c0,89.112-72.331,161.334-161.343,161.334
				c-89.424,0-161.345-72.322-161.345-161.334c0-89.453,72.333-161.535,161.345-161.535
				C931.201,185.056,1003.433,257.255,1003.433,346.529z"/>
			<path fill="none" stroke="#FFFFFF" d="M444.152,669.356c0,89.151-72.331,161.334-161.346,161.334
				c-89.214,0-161.345-72.321-161.345-161.334c0-89.232,72.332-161.354,161.345-161.354
				C371.84,507.882,444.152,580.164,444.152,669.356z"/>
			<path fill="none" stroke="#FFFFFF" d="M444.152,1314.992c0,89.452-72.331,161.354-161.346,161.354
				c-89.214,0-161.345-72.341-161.345-161.354c0-89.415,72.332-161.335,161.345-161.335
				C371.821,1153.657,444.152,1225.779,444.152,1314.992z"/>
			<path fill="none" stroke="#FFFFFF" d="M1562.734,1314.992c0,89.452-72.333,161.354-161.346,161.354
				c-89.442,0-161.441-72.341-161.441-161.354c0-89.415,72.331-161.335,161.441-161.335
				C1490.401,1153.56,1562.734,1225.779,1562.734,1314.992z"/>
			<path fill="none" stroke="#FFFFFF" d="M1562.734,669.356c0,89.213-72.333,161.334-161.346,161.334
				c-89.442,0-161.441-72.321-161.441-161.334c0-89.232,72.331-161.354,161.441-161.354
				C1490.401,507.923,1562.734,580.164,1562.734,669.356z"/>
			<path fill="none" stroke="#FFFFFF" d="M1003.394,1637.778c0,89.174-72.332,161.354-161.344,161.354
				c-89.443,0-161.344-72.341-161.344-161.354c0-89.437,72.291-161.354,161.344-161.354
				C931.162,1476.387,1003.394,1548.625,1003.394,1637.778z"/>
		</g>
	</g>
	<g id="hexagon">
		<polygon fill="#FFFFFF" fill-opacity="0" stroke="#FFE86D" stroke-miterlimit="10" stroke-opacity="0" points="1.015,506.579 
			841.995,21.033 1682.985,506.579 1682.985,1477.671 841.995,1963.217 1.015,1477.671 		"/>
	</g>
</g>
</svg>
