<?xml version="1.0" encoding="utf-8"?>
<!-- Generator: Adobe Illustrator 16.0.0, SVG Export Plug-In . SVG Version: 6.00 Build 0)  -->
<!DOCTYPE svg PUBLIC "-//W3C//DTD SVG 1.1//EN" "http://www.w3.org/Graphics/SVG/1.1/DTD/svg11.dtd">
<svg version="1.1" xmlns="http://www.w3.org/2000/svg" xmlns:xlink="http://www.w3.org/1999/xlink" x="0px" y="0px"
	 width="1684.051px" height="1984.252px" viewBox="0 0 1684.051 1984.252" enable-background="new 0 0 1684.051 1984.252"
	 xml:space="preserve">
<g id="Layer_1">
	<g id="_x36_4Tetra3DFullGroup">
		<g id="back" display="none">
			<rect id="image" y="-13.988" display="inline" fill="#130E22" width="1684.052" height="2012.229"/>
		</g>
		<g id="fruit">
			<g id="fruitoflife">
				<path fill="none" stroke="#FFFFFF" d="M1003.438,992.146c0,89.154-72.301,161.414-161.39,161.414
					c-89.201,0-161.498-72.252-161.498-161.414c0-89.225,72.296-161.477,161.498-161.477
					C931.143,830.676,1003.438,902.928,1003.438,992.146z"/>
				<path fill="none" stroke="#FFFFFF" d="M1003.438,669.264c0,89.16-72.301,161.414-161.39,161.414
					c-89.201,0-161.498-72.254-161.498-161.414c0-89.218,72.296-161.47,161.498-161.47
					C931.143,507.794,1003.438,580.046,1003.438,669.264z"/>
				<path fill="none" stroke="#FFFFFF" d="M723.778,830.703c0,89.16-72.293,161.414-161.393,161.414
					c-89.193,0-161.497-72.254-161.497-161.414c0-89.218,72.304-161.47,161.497-161.47
					C651.485,669.233,723.778,741.485,723.778,830.703z"/>
				<path fill="none" stroke="#FFFFFF" d="M723.782,1153.574c0,89.162-72.294,161.414-161.39,161.414
					c-89.197,0-161.494-72.252-161.494-161.414c0-89.219,72.297-161.473,161.494-161.473
					C651.487,992.105,723.782,1064.357,723.782,1153.574z"/>
				<path fill="none" stroke="#FFFFFF" d="M1003.438,1315.029c0,89.16-72.299,161.412-161.39,161.412
					c-89.201,0-161.497-72.252-161.497-161.412c0-89.221,72.295-161.479,161.497-161.479
					C931.145,1153.561,1003.438,1225.813,1003.438,1315.029z"/>
				<path fill="none" stroke="#FFFFFF" d="M1283.149,1153.588c0,89.162-72.296,161.414-161.394,161.414
					c-89.195,0-161.496-72.252-161.496-161.414c0-89.219,72.301-161.471,161.496-161.471
					C1210.854,992.117,1283.149,1064.369,1283.149,1153.588z"/>
				<path fill="none" stroke="#FFFFFF" d="M1283.137,830.703c0,89.161-72.295,161.414-161.387,161.414
					c-89.201,0-161.496-72.253-161.496-161.414c0-89.218,72.295-161.469,161.496-161.469
					C1210.842,669.234,1283.137,741.485,1283.137,830.703z"/>
				<path fill="none" stroke="#FFFFFF" d="M1003.542,346.382c0,89.161-72.295,161.414-161.384,161.414
					c-89.201,0-161.498-72.253-161.498-161.414c0-89.219,72.294-161.47,161.498-161.47
					C931.247,184.912,1003.542,257.163,1003.542,346.382z"/>
				<path fill="none" stroke="#FFFFFF" d="M444.16,669.275c0,89.16-72.294,161.414-161.386,161.414
					c-89.201,0-161.5-72.254-161.5-161.414c0-89.226,72.296-161.477,161.5-161.477C371.865,507.807,444.16,580.058,444.16,669.275z"
					/>
				<path fill="none" stroke="#FFFFFF" d="M444.148,1315.041c0,89.164-72.295,161.416-161.394,161.416
					c-89.199,0-161.497-72.252-161.497-161.416c0-89.217,72.292-161.467,161.497-161.467
					C371.854,1153.574,444.148,1225.824,444.148,1315.041z"/>
				<path fill="none" stroke="#FFFFFF" d="M1562.901,1315.031c0,89.162-72.296,161.414-161.394,161.414
					c-89.192,0-161.496-72.252-161.496-161.414c0-89.221,72.304-161.471,161.496-161.471
					C1490.605,1153.563,1562.901,1225.813,1562.901,1315.031z"/>
				<path fill="none" stroke="#FFFFFF" d="M1562.891,669.286c0,89.162-72.295,161.414-161.387,161.414
					c-89.201,0-161.496-72.252-161.496-161.414c0-89.218,72.295-161.469,161.496-161.469
					C1490.596,507.817,1562.891,580.068,1562.891,669.286z"/>
				<path fill="none" stroke="#FFFFFF" d="M1003.524,1637.922c0,89.162-72.298,161.416-161.393,161.416
					c-89.201,0-161.498-72.254-161.498-161.416c0-89.217,72.296-161.467,161.498-161.467
					C931.229,1476.455,1003.524,1548.705,1003.524,1637.922z"/>
			</g>
			<g display="none">
				<line display="inline" fill="none" stroke="#FFFFFF" x1="1121.749" y1="507.792" x2="562.37" y2="507.802"/>
				<line display="inline" fill="none" stroke="#FFFFFF" x1="562.37" y1="507.802" x2="282.696" y2="992.116"/>
				<line display="inline" fill="none" stroke="#FFFFFF" x1="422.739" y1="1234.646" x2="562.405" y2="1476.429"/>
				<line display="inline" fill="none" stroke="#FFFFFF" x1="562.405" y1="1476.429" x2="1119.819" y2="1476.417"/>
				<line display="inline" fill="none" stroke="#FFFFFF" x1="1119.819" y1="1476.417" x2="1262.995" y2="1231.927"/>
				<line display="inline" fill="none" stroke="#FFFFFF" x1="1331.554" y1="1113.216" x2="1401.487" y2="992.13"/>
				<line display="inline" fill="none" stroke="#FFFFFF" x1="1401.487" y1="992.13" x2="1121.749" y2="507.792"/>
				<line display="inline" fill="none" stroke="#FFFFFF" x1="282.747" y1="749.952" x2="1401.446" y2="749.952"/>
				<line display="inline" fill="none" stroke="#FFFFFF" x1="842.121" y1="1718.626" x2="842.122" y2="749.952"/>
				<line display="inline" fill="none" stroke="#FFFFFF" x1="282.678" y1="992.179" x2="1401.487" y2="992.179"/>
				<line display="inline" fill="none" stroke="#FFFFFF" x1="282.747" y1="749.952" x2="353.112" y2="871.814"/>
				<line display="inline" fill="none" stroke="#FFFFFF" x1="422.569" y1="749.952" x2="492.475" y2="871.028"/>
				<line display="inline" fill="none" stroke="#FFFFFF" x1="282.788" y1="1234.304" x2="842.054" y2="265.63"/>
				<line display="inline" fill="none" stroke="#FFFFFF" x1="562.37" y1="507.802" x2="632.276" y2="628.855"/>
				<line display="inline" fill="none" stroke="#FFFFFF" x1="702.153" y1="507.898" x2="771.624" y2="628.938"/>
				<line display="inline" fill="none" stroke="#FFFFFF" x1="842.036" y1="507.792" x2="701.745" y2="749.96"/>
				<line display="inline" fill="none" stroke="#FFFFFF" x1="842.036" y1="507.792" x2="981.752" y2="749.952"/>
				<line display="inline" fill="none" stroke="#FFFFFF" x1="701.745" y1="749.96" x2="842.195" y2="992.179"/>
				<line display="inline" fill="none" stroke="#FFFFFF" x1="842.195" y1="992.179" x2="981.752" y2="749.952"/>
				<line display="inline" fill="none" stroke="#FFFFFF" x1="701.745" y1="749.96" x2="562.391" y2="992.116"/>
				<line display="inline" fill="none" stroke="#FFFFFF" x1="562.436" y1="749.847" x2="632.567" y2="871.804"/>
				<line display="inline" fill="none" stroke="#FFFFFF" x1="1121.741" y1="749.964" x2="1051.108" y2="872.209"/>
				<line display="inline" fill="none" stroke="#FFFFFF" x1="981.752" y1="749.952" x2="1122.104" y2="993.026"/>
				<line display="inline" fill="none" stroke="#FFFFFF" x1="1261.655" y1="749.976" x2="1191.444" y2="870.595"/>
				<line display="inline" fill="none" stroke="#FFFFFF" x1="1121.741" y1="749.964" x2="1261.655" y2="992.105"/>
				<line display="inline" fill="none" stroke="#FFFFFF" x1="1331.541" y1="871.026" x2="1401.446" y2="749.952"/>
				<line display="inline" fill="none" stroke="#FFFFFF" x1="981.801" y1="507.867" x2="911.895" y2="628.942"/>
				<line display="inline" fill="none" stroke="#FFFFFF" x1="841.831" y1="265.63" x2="1121.715" y2="750.007"/>
				<line display="inline" fill="none" stroke="#FFFFFF" x1="1121.749" y1="507.792" x2="1051.496" y2="628.484"/>
				<line display="inline" fill="none" stroke="#FFFFFF" x1="282.747" y1="992.128" x2="352.691" y2="1113.229"/>
				<line display="inline" fill="none" stroke="#FFFFFF" x1="1401.487" y1="1234.304" x2="282.788" y2="1234.304"/>
				<line display="inline" fill="none" stroke="#FFFFFF" x1="1401.487" y1="1234.302" x2="1261.657" y2="992.13"/>
				<line display="inline" fill="none" stroke="#FFFFFF" x1="1261.735" y1="992.077" x2="1119.819" y2="1234.296"/>
				<line display="inline" fill="none" stroke="#FFFFFF" x1="981.752" y1="1476.927" x2="842.178" y2="1718.626"/>
				<line display="inline" fill="none" stroke="#FFFFFF" x1="1119.819" y1="1476.417" x2="982.491" y2="1235.105"/>
				<line display="inline" fill="none" stroke="#FFFFFF" x1="842.195" y1="1476.464" x2="982.489" y2="1234.296"/>
				<line display="inline" fill="none" stroke="#FFFFFF" x1="842.195" y1="1476.464" x2="702.145" y2="1234.29"/>
				<line display="inline" fill="none" stroke="#FFFFFF" x1="562.493" y1="1234.29" x2="702.284" y2="992.177"/>
				<line display="inline" fill="none" stroke="#FFFFFF" x1="562.493" y1="1234.292" x2="422.579" y2="992.151"/>
				<line display="inline" fill="none" stroke="#FFFFFF" x1="842.402" y1="1718.626" x2="702.475" y2="1476.464"/>
				<line display="inline" fill="none" stroke="#FFFFFF" x1="562.485" y1="1476.464" x2="702.145" y2="1234.29"/>
				<line display="inline" fill="none" stroke="#FFFFFF" x1="562.493" y1="992.116" x2="562.493" y2="1476.464"/>
				<line display="inline" fill="none" stroke="#FFFFFF" x1="702.284" y1="992.177" x2="842.195" y2="1234.304"/>
				<line display="inline" fill="none" stroke="#FFFFFF" x1="842.195" y1="1234.304" x2="981.752" y2="992.179"/>
				<line display="inline" fill="none" stroke="#FFFFFF" x1="1119.819" y1="1476.417" x2="1121.749" y2="992.396"/>
				<line display="inline" fill="none" stroke="#FFFFFF" x1="981.752" y1="992.179" x2="1119.819" y2="1234.296"/>
			</g>
			<g>
				<line fill="none" stroke="#FFFFFF" x1="562.469" y1="749.847" x2="422.579" y2="992.151"/>
				<line fill="none" stroke="#FFFFFF" x1="632.339" y1="871.374" x2="562.469" y2="749.847"/>
				<line fill="none" stroke="#FFFFFF" x1="422.579" y1="992.151" x2="422.732" y2="1234.659"/>
				<line fill="none" stroke="#FFFFFF" x1="422.732" y1="1234.659" x2="702.145" y2="1234.29"/>
				<path fill="none" stroke="#FFFFFF" d="M702.284,992.177"/>
				<path fill="none" stroke="#FFFFFF" d="M702.145,1234.29"/>
				<line fill="none" stroke="#FFFFFF" x1="282.696" y1="992.177" x2="842.195" y2="992.179"/>
				<path fill="none" stroke="#FFFFFF" d="M702.145,1234.29"/>
				<path fill="none" stroke="#FFFFFF" d="M842.195,992.179"/>
				<line fill="none" stroke="#FFFFFF" x1="842.195" y1="992.179" x2="701.745" y2="749.96"/>
				<line fill="none" stroke="#FFFFFF" x1="701.745" y1="749.96" x2="422.569" y2="749.952"/>
				<line fill="none" stroke="#FFFFFF" x1="422.569" y1="749.952" x2="282.696" y2="992.116"/>
				<line fill="none" stroke="#FFFFFF" x1="282.696" y1="992.116" x2="422.732" y2="1234.659"/>
				<line fill="none" stroke="#FFFFFF" x1="492.524" y1="871.313" x2="422.569" y2="749.952"/>
				<line fill="none" stroke="#FFFFFF" x1="701.745" y1="749.96" x2="631.951" y2="870.274"/>
				<path fill="none" stroke="#FFFFFF" d="M562.469,992.116"/>
				<path fill="none" stroke="#FFFFFF" d="M702.145,1234.29"/>
				<path fill="none" stroke="#FFFFFF" d="M562.469,992.116"/>
				<path fill="none" stroke="#FFFFFF" d="M422.732,1234.659"/>
				<line fill="none" stroke="#FFFFFF" x1="702.284" y1="749.907" x2="562.395" y2="992.212"/>
				<line fill="none" stroke="#FFFFFF" x1="842.1" y1="992.237" x2="702.284" y2="749.907"/>
				<line fill="none" stroke="#FFFFFF" x1="562.395" y1="992.212" x2="562.548" y2="1234.72"/>
				<line fill="none" stroke="#FFFFFF" x1="562.548" y1="1234.72" x2="841.96" y2="1234.351"/>
				<line fill="none" stroke="#FFFFFF" x1="841.96" y1="1234.351" x2="842.1" y2="992.237"/>
				<line fill="none" stroke="#FFFFFF" x1="422.511" y1="992.237" x2="982.011" y2="992.239"/>
				<line fill="none" stroke="#FFFFFF" x1="982.011" y1="992.239" x2="841.96" y2="1234.351"/>
				<path fill="none" stroke="#FFFFFF" d="M841.561,750.021"/>
				<path fill="none" stroke="#FFFFFF" d="M982.011,992.239"/>
				<line fill="none" stroke="#FFFFFF" x1="841.561" y1="750.021" x2="562.385" y2="750.013"/>
				<line fill="none" stroke="#FFFFFF" x1="562.385" y1="750.013" x2="422.511" y2="992.177"/>
				<line fill="none" stroke="#FFFFFF" x1="422.511" y1="992.177" x2="562.548" y2="1234.72"/>
				<line fill="none" stroke="#FFFFFF" x1="632.339" y1="871.374" x2="562.385" y2="750.013"/>
				<line fill="none" stroke="#FFFFFF" x1="841.561" y1="750.021" x2="771.767" y2="870.335"/>
				<line fill="none" stroke="#FFFFFF" x1="841.96" y1="1234.351" x2="702.284" y2="992.177"/>
				<line fill="none" stroke="#FFFFFF" x1="562.548" y1="1234.72" x2="702.284" y2="992.177"/>
				<path fill="none" stroke="#FFFFFF" d="M702.21,992.272"/>
				<path fill="none" stroke="#FFFFFF" d="M842.1,749.968"/>
				<line fill="none" stroke="#FFFFFF" x1="911.971" y1="871.495" x2="842.1" y2="749.968"/>
				<path fill="none" stroke="#FFFFFF" d="M702.363,1234.78"/>
				<path fill="none" stroke="#FFFFFF" d="M702.21,992.272"/>
				<line fill="none" stroke="#FFFFFF" x1="702.363" y1="1234.78" x2="981.775" y2="1234.411"/>
				<path fill="none" stroke="#FFFFFF" d="M981.915,992.298"/>
				<path fill="none" stroke="#FFFFFF" d="M981.775,1234.411"/>
				<line fill="none" stroke="#FFFFFF" x1="562.327" y1="992.298" x2="1121.826" y2="992.3"/>
				<path fill="none" stroke="#FFFFFF" d="M981.775,1234.411"/>
				<path fill="none" stroke="#FFFFFF" d="M1121.826,992.3"/>
				<line fill="none" stroke="#FFFFFF" x1="1121.826" y1="992.3" x2="981.376" y2="750.081"/>
				<line fill="none" stroke="#FFFFFF" x1="981.376" y1="750.081" x2="702.2" y2="750.073"/>
				<line fill="none" stroke="#FFFFFF" x1="702.2" y1="750.073" x2="562.327" y2="992.237"/>
				<path fill="none" stroke="#FFFFFF" d="M702.363,1234.78"/>
				<path fill="none" stroke="#FFFFFF" d="M562.327,992.237"/>
				<line fill="none" stroke="#FFFFFF" x1="772.155" y1="871.434" x2="702.2" y2="750.073"/>
				<line fill="none" stroke="#FFFFFF" x1="981.376" y1="750.081" x2="911.582" y2="870.396"/>
				<path fill="none" stroke="#FFFFFF" d="M842.1,992.237"/>
				<path fill="none" stroke="#FFFFFF" d="M981.775,1234.411"/>
				<path fill="none" stroke="#FFFFFF" d="M842.1,992.237"/>
				<path fill="none" stroke="#FFFFFF" d="M702.363,1234.78"/>
				<line fill="none" stroke="#FFFFFF" x1="981.915" y1="750.028" x2="842.025" y2="992.333"/>
				<line fill="none" stroke="#FFFFFF" x1="1121.73" y1="992.358" x2="981.915" y2="750.028"/>
				<line fill="none" stroke="#FFFFFF" x1="842.025" y1="992.333" x2="842.179" y2="1234.841"/>
				<line fill="none" stroke="#FFFFFF" x1="842.179" y1="1234.841" x2="1121.591" y2="1234.472"/>
				<line fill="none" stroke="#FFFFFF" x1="1121.591" y1="1234.472" x2="1121.73" y2="992.358"/>
				<line fill="none" stroke="#FFFFFF" x1="702.142" y1="992.358" x2="1261.642" y2="992.36"/>
				<line fill="none" stroke="#FFFFFF" x1="1261.642" y1="992.36" x2="1121.591" y2="1234.472"/>
				<line fill="none" stroke="#FFFFFF" x1="1261.642" y1="992.36" x2="1121.191" y2="750.142"/>
				<line fill="none" stroke="#FFFFFF" x1="1121.191" y1="750.142" x2="842.016" y2="750.134"/>
				<line fill="none" stroke="#FFFFFF" x1="842.016" y1="750.134" x2="771.767" y2="870.335"/>
				<line fill="none" stroke="#FFFFFF" x1="702.142" y1="992.298" x2="842.179" y2="1234.841"/>
				<line fill="none" stroke="#FFFFFF" x1="911.971" y1="871.495" x2="842.016" y2="750.134"/>
				<line fill="none" stroke="#FFFFFF" x1="1121.191" y1="750.142" x2="1051.397" y2="870.456"/>
				<line fill="none" stroke="#FFFFFF" x1="1121.591" y1="1234.472" x2="981.915" y2="992.298"/>
				<line fill="none" stroke="#FFFFFF" x1="842.179" y1="1234.841" x2="981.915" y2="992.298"/>
				<line fill="none" stroke="#FFFFFF" x1="1120.808" y1="749.991" x2="1050.863" y2="871.457"/>
				<line fill="none" stroke="#FFFFFF" x1="1260.623" y1="992.321" x2="1120.808" y2="749.991"/>
				<path fill="none" stroke="#FFFFFF" d="M981.071,1234.804"/>
				<path fill="none" stroke="#FFFFFF" d="M980.918,992.295"/>
				<line fill="none" stroke="#FFFFFF" x1="981.071" y1="1234.804" x2="1260.483" y2="1234.435"/>
				<line fill="none" stroke="#FFFFFF" x1="1260.483" y1="1234.435" x2="1260.623" y2="992.321"/>
				<line fill="none" stroke="#FFFFFF" x1="1400.534" y1="992.323" x2="1260.483" y2="1234.435"/>
				<line fill="none" stroke="#FFFFFF" x1="1400.534" y1="992.323" x2="1260.084" y2="750.104"/>
				<line fill="none" stroke="#FFFFFF" x1="1260.084" y1="750.104" x2="980.908" y2="750.096"/>
				<line fill="none" stroke="#FFFFFF" x1="980.908" y1="750.096" x2="841.035" y2="992.26"/>
				<path fill="none" stroke="#FFFFFF" d="M981.071,1234.804"/>
				<path fill="none" stroke="#FFFFFF" d="M841.035,992.26"/>
				<line fill="none" stroke="#FFFFFF" x1="1050.863" y1="871.457" x2="980.908" y2="750.096"/>
				<line fill="none" stroke="#FFFFFF" x1="1260.084" y1="750.104" x2="1190.29" y2="870.418"/>
				<path fill="none" stroke="#FFFFFF" d="M1120.808,992.26"/>
				<path fill="none" stroke="#FFFFFF" d="M1260.483,1234.435"/>
				<path fill="none" stroke="#FFFFFF" d="M1120.808,992.26"/>
				<path fill="none" stroke="#FFFFFF" d="M981.071,1234.804"/>
				<line fill="none" stroke="#FFFFFF" x1="841.035" y1="992.321" x2="1400.534" y2="992.323"/>
			</g>
		</g>
		<g id="sixtyFour">
			<circle id="border" fill="none" stroke="#FFFFFF" cx="842.083" cy="992.128" r="726.798"/>
			<g>
				<circle fill="none" stroke="#FFFFFF" cx="981.915" cy="992.298" r="278.708"/>
				<circle fill="none" stroke="#FFFFFF" cx="841.256" cy="992.36" r="278.708"/>
				<circle fill="none" stroke="#FFFFFF" cx="1120.496" cy="992.298" r="278.708"/>
				<circle fill="none" stroke="#FFFFFF" cx="703.208" cy="992.298" r="278.708"/>
				<circle fill="none" stroke="#FFFFFF" cx="562.548" cy="992.36" r="278.708"/>
			</g>
		</g>
		<g id="hexagon">
			<polygon fill="#FFFFFF" fill-opacity="0" stroke="#FFE86D" stroke-miterlimit="10" stroke-opacity="0" points="1.099,506.579 
				842.079,21.033 1683.069,506.579 1683.069,1477.671 842.079,1963.217 1.099,1477.671 			"/>
		</g>
	</g>
</g>
<g id="Layer_2_1_" display="none">
	<line display="inline" fill="none" stroke="#FFFFFF" x1="562.37" y1="507.802" x2="1121.749" y2="507.802"/>
	<line display="inline" fill="none" stroke="#FFFFFF" x1="1121.749" y1="507.802" x2="562.493" y2="1476.464"/>
	<line display="inline" fill="none" stroke="#FFFFFF" x1="1119.819" y1="1476.417" x2="562.37" y2="507.802"/>
	<line display="inline" fill="none" stroke="#FFFFFF" x1="842.036" y1="507.792" x2="422.732" y2="1234.659"/>
	<line display="inline" fill="none" stroke="#FFFFFF" x1="422.569" y1="749.952" x2="562.37" y2="507.802"/>
	<line display="inline" fill="none" stroke="#FFFFFF" x1="1261.655" y1="749.976" x2="1121.749" y2="507.792"/>
	<line display="inline" fill="none" stroke="#FFFFFF" x1="1261.655" y1="749.976" x2="422.569" y2="749.952"/>
	<line display="inline" fill="none" stroke="#FFFFFF" x1="702.153" y1="507.898" x2="1119.819" y2="1234.296"/>
	<line display="inline" fill="none" stroke="#FFFFFF" x1="842.195" y1="1476.464" x2="1261.655" y2="749.976"/>
	<line display="inline" fill="none" stroke="#FFFFFF" x1="981.752" y1="1476.927" x2="562.436" y2="749.847"/>
	<line display="inline" fill="none" stroke="#FFFFFF" x1="422.569" y1="749.952" x2="842.195" y2="1476.464"/>
	<line display="inline" fill="none" stroke="#FFFFFF" x1="1120.782" y1="992.105" x2="562.334" y2="992.151"/>
	<line display="inline" fill="none" stroke="#FFFFFF" x1="1261.48" y1="1234.517" x2="1119.819" y2="1476.417"/>
	<line display="inline" fill="none" stroke="#FFFFFF" x1="562.493" y1="1476.464" x2="422.732" y2="1234.659"/>
	<line display="inline" fill="none" stroke="#FFFFFF" x1="982.491" y1="507.792" x2="562.493" y2="1234.292"/>
	<line display="inline" fill="none" stroke="#FFFFFF" x1="702.153" y1="507.898" x2="562.469" y2="749.847"/>
	<line display="inline" fill="none" stroke="#FFFFFF" x1="562.493" y1="1234.292" x2="702.475" y2="1476.464"/>
	<line display="inline" fill="none" stroke="#FFFFFF" x1="562.493" y1="1476.464" x2="1119.819" y2="1476.417"/>
	<line display="inline" fill="none" stroke="#FFFFFF" x1="562.37" y1="507.802" x2="562.493" y2="1476.464"/>
	<line display="inline" fill="none" stroke="#FFFFFF" x1="981.801" y1="507.867" x2="981.801" y2="1476.927"/>
	<line display="inline" fill="none" stroke="#FFFFFF" x1="702.475" y1="1476.464" x2="702.153" y2="507.898"/>
	<line display="inline" fill="none" stroke="#FFFFFF" x1="842.036" y1="507.792" x2="842.195" y2="1476.464"/>
	<line display="inline" fill="none" stroke="#FFFFFF" x1="702.475" y1="1476.464" x2="1121.741" y2="749.964"/>
	<line display="inline" fill="none" stroke="#FFFFFF" x1="981.801" y1="507.867" x2="1121.741" y2="749.964"/>
	<line display="inline" fill="none" stroke="#FFFFFF" x1="1119.819" y1="1234.296" x2="981.752" y2="1476.927"/>
	<line display="inline" fill="none" stroke="#FFFFFF" x1="842.036" y1="507.792" x2="1261.48" y2="1234.517"/>
	<line display="inline" fill="none" stroke="#FFFFFF" x1="1261.48" y1="1234.517" x2="422.732" y2="1234.517"/>
	<line display="inline" fill="none" stroke="#FFFFFF" x1="1119.819" y1="1476.417" x2="1121.749" y2="507.792"/>
</g>
<g id="Layer_3" display="none">
	<g display="inline">
		<line fill="none" stroke="#FFFFFF" stroke-width="4" x1="562.469" y1="749.847" x2="422.579" y2="992.151"/>
		<line fill="none" stroke="#FFFFFF" stroke-width="4" x1="702.284" y1="992.177" x2="562.469" y2="749.847"/>
		<line fill="none" stroke="#FFFFFF" stroke-width="4" x1="422.579" y1="992.151" x2="422.732" y2="1234.659"/>
		<line fill="none" stroke="#FFFFFF" stroke-width="4" x1="422.732" y1="1234.659" x2="702.145" y2="1234.29"/>
		<line fill="none" stroke="#FFFFFF" stroke-width="4" x1="702.145" y1="1234.29" x2="702.284" y2="992.177"/>
		<line fill="none" stroke="#FFFFFF" stroke-width="4" x1="282.696" y1="992.177" x2="842.195" y2="992.179"/>
		<line fill="none" stroke="#FFFFFF" stroke-width="4" x1="842.195" y1="992.179" x2="702.145" y2="1234.29"/>
		<line fill="none" stroke="#FFFFFF" stroke-width="4" x1="842.195" y1="992.179" x2="701.745" y2="749.96"/>
		<line fill="none" stroke="#FFFFFF" stroke-width="4" x1="701.745" y1="749.96" x2="422.569" y2="749.952"/>
		<line fill="none" stroke="#FFFFFF" stroke-width="4" x1="422.569" y1="749.952" x2="282.696" y2="992.116"/>
		<line fill="none" stroke="#FFFFFF" stroke-width="4" x1="282.696" y1="992.116" x2="422.732" y2="1234.659"/>
		<line fill="none" stroke="#FFFFFF" stroke-width="4" x1="492.524" y1="871.313" x2="422.569" y2="749.952"/>
		<line fill="none" stroke="#FFFFFF" stroke-width="4" x1="701.745" y1="749.96" x2="631.951" y2="870.274"/>
		<line fill="none" stroke="#FFFFFF" stroke-width="4" x1="702.145" y1="1234.29" x2="562.469" y2="992.116"/>
		<line fill="none" stroke="#FFFFFF" stroke-width="4" x1="422.732" y1="1234.659" x2="562.469" y2="992.116"/>
	</g>
	<g display="inline">
		<line fill="none" stroke="#FFFFFF" stroke-width="4" x1="702.284" y1="749.907" x2="562.395" y2="992.212"/>
		<line fill="none" stroke="#FFFFFF" stroke-width="4" x1="842.1" y1="992.237" x2="702.284" y2="749.907"/>
		<line fill="none" stroke="#FFFFFF" stroke-width="4" x1="562.395" y1="992.212" x2="562.548" y2="1234.72"/>
		<line fill="none" stroke="#FFFFFF" stroke-width="4" x1="562.548" y1="1234.72" x2="841.96" y2="1234.351"/>
		<line fill="none" stroke="#FFFFFF" stroke-width="4" x1="841.96" y1="1234.351" x2="842.1" y2="992.237"/>
		<line fill="none" stroke="#FFFFFF" stroke-width="4" x1="422.511" y1="992.237" x2="982.011" y2="992.239"/>
		<line fill="none" stroke="#FFFFFF" stroke-width="4" x1="982.011" y1="992.239" x2="841.96" y2="1234.351"/>
		<line fill="none" stroke="#FFFFFF" stroke-width="4" x1="982.011" y1="992.239" x2="841.561" y2="750.021"/>
		<line fill="none" stroke="#FFFFFF" stroke-width="4" x1="841.561" y1="750.021" x2="562.385" y2="750.013"/>
		<line fill="none" stroke="#FFFFFF" stroke-width="4" x1="562.385" y1="750.013" x2="422.511" y2="992.177"/>
		<line fill="none" stroke="#FFFFFF" stroke-width="4" x1="422.511" y1="992.177" x2="562.548" y2="1234.72"/>
		<line fill="none" stroke="#FFFFFF" stroke-width="4" x1="632.339" y1="871.374" x2="562.385" y2="750.013"/>
		<line fill="none" stroke="#FFFFFF" stroke-width="4" x1="841.561" y1="750.021" x2="771.767" y2="870.335"/>
		<line fill="none" stroke="#FFFFFF" stroke-width="4" x1="841.96" y1="1234.351" x2="702.284" y2="992.177"/>
		<line fill="none" stroke="#FFFFFF" stroke-width="4" x1="562.548" y1="1234.72" x2="702.284" y2="992.177"/>
	</g>
	<g display="inline">
		<line fill="none" stroke="#FFFFFF" stroke-width="4" x1="842.1" y1="749.968" x2="702.21" y2="992.272"/>
		<line fill="none" stroke="#FFFFFF" stroke-width="4" x1="981.915" y1="992.298" x2="842.1" y2="749.968"/>
		<line fill="none" stroke="#FFFFFF" stroke-width="4" x1="702.21" y1="992.272" x2="702.363" y2="1234.78"/>
		<line fill="none" stroke="#FFFFFF" stroke-width="4" x1="702.363" y1="1234.78" x2="981.775" y2="1234.411"/>
		<line fill="none" stroke="#FFFFFF" stroke-width="4" x1="981.775" y1="1234.411" x2="981.915" y2="992.298"/>
		<line fill="none" stroke="#FFFFFF" stroke-width="4" x1="562.327" y1="992.298" x2="1121.826" y2="992.3"/>
		<line fill="none" stroke="#FFFFFF" stroke-width="4" x1="1121.826" y1="992.3" x2="981.775" y2="1234.411"/>
		<line fill="none" stroke="#FFFFFF" stroke-width="4" x1="1121.826" y1="992.3" x2="981.376" y2="750.081"/>
		<line fill="none" stroke="#FFFFFF" stroke-width="4" x1="981.376" y1="750.081" x2="702.2" y2="750.073"/>
		<line fill="none" stroke="#FFFFFF" stroke-width="4" x1="702.2" y1="750.073" x2="562.327" y2="992.237"/>
		<line fill="none" stroke="#FFFFFF" stroke-width="4" x1="562.327" y1="992.237" x2="702.363" y2="1234.78"/>
		<line fill="none" stroke="#FFFFFF" stroke-width="4" x1="772.155" y1="871.434" x2="702.2" y2="750.073"/>
		<line fill="none" stroke="#FFFFFF" stroke-width="4" x1="981.376" y1="750.081" x2="911.582" y2="870.396"/>
		<line fill="none" stroke="#FFFFFF" stroke-width="4" x1="981.775" y1="1234.411" x2="842.1" y2="992.237"/>
		<line fill="none" stroke="#FFFFFF" stroke-width="4" x1="702.363" y1="1234.78" x2="842.1" y2="992.237"/>
	</g>
	<g display="inline">
		<line fill="none" stroke="#FFFFFF" stroke-width="4" x1="981.915" y1="750.028" x2="842.025" y2="992.333"/>
		<line fill="none" stroke="#FFFFFF" stroke-width="4" x1="1121.73" y1="992.358" x2="981.915" y2="750.028"/>
		<line fill="none" stroke="#FFFFFF" stroke-width="4" x1="842.025" y1="992.333" x2="842.179" y2="1234.841"/>
		<line fill="none" stroke="#FFFFFF" stroke-width="4" x1="842.179" y1="1234.841" x2="1121.591" y2="1234.472"/>
		<line fill="none" stroke="#FFFFFF" stroke-width="4" x1="1121.591" y1="1234.472" x2="1121.73" y2="992.358"/>
		<line fill="none" stroke="#FFFFFF" stroke-width="4" x1="702.142" y1="992.358" x2="1261.642" y2="992.36"/>
		<line fill="none" stroke="#FFFFFF" stroke-width="4" x1="1261.642" y1="992.36" x2="1121.591" y2="1234.472"/>
		<line fill="none" stroke="#FFFFFF" stroke-width="4" x1="1261.642" y1="992.36" x2="1121.191" y2="750.142"/>
		<line fill="none" stroke="#FFFFFF" stroke-width="4" x1="1121.191" y1="750.142" x2="842.016" y2="750.134"/>
		<line fill="none" stroke="#FFFFFF" stroke-width="4" x1="842.016" y1="750.134" x2="702.142" y2="992.298"/>
		<line fill="none" stroke="#FFFFFF" stroke-width="4" x1="702.142" y1="992.298" x2="842.179" y2="1234.841"/>
		<line fill="none" stroke="#FFFFFF" stroke-width="4" x1="911.971" y1="871.495" x2="842.016" y2="750.134"/>
		<line fill="none" stroke="#FFFFFF" stroke-width="4" x1="1121.191" y1="750.142" x2="1051.397" y2="870.456"/>
		<line fill="none" stroke="#FFFFFF" stroke-width="4" x1="1121.591" y1="1234.472" x2="981.915" y2="992.298"/>
		<line fill="none" stroke="#FFFFFF" stroke-width="4" x1="842.179" y1="1234.841" x2="981.915" y2="992.298"/>
	</g>
	<g display="inline">
		<line fill="none" stroke="#FFFFFF" stroke-width="4" x1="1120.808" y1="749.991" x2="980.918" y2="992.295"/>
		<line fill="none" stroke="#FFFFFF" stroke-width="4" x1="1260.623" y1="992.321" x2="1120.808" y2="749.991"/>
		<line fill="none" stroke="#FFFFFF" stroke-width="4" x1="980.918" y1="992.295" x2="981.071" y2="1234.804"/>
		<line fill="none" stroke="#FFFFFF" stroke-width="4" x1="981.071" y1="1234.804" x2="1260.483" y2="1234.435"/>
		<line fill="none" stroke="#FFFFFF" stroke-width="4" x1="1260.483" y1="1234.435" x2="1260.623" y2="992.321"/>
		<line fill="none" stroke="#FFFFFF" stroke-width="4" x1="841.035" y1="992.321" x2="1400.534" y2="992.323"/>
		<line fill="none" stroke="#FFFFFF" stroke-width="4" x1="1400.534" y1="992.323" x2="1260.483" y2="1234.435"/>
		<line fill="none" stroke="#FFFFFF" stroke-width="4" x1="1400.534" y1="992.323" x2="1260.084" y2="750.104"/>
		<line fill="none" stroke="#FFFFFF" stroke-width="4" x1="1260.084" y1="750.104" x2="980.908" y2="750.096"/>
		<line fill="none" stroke="#FFFFFF" stroke-width="4" x1="980.908" y1="750.096" x2="841.035" y2="992.26"/>
		<line fill="none" stroke="#FFFFFF" stroke-width="4" x1="841.035" y1="992.26" x2="981.071" y2="1234.804"/>
		<line fill="none" stroke="#FFFFFF" stroke-width="4" x1="1050.863" y1="871.457" x2="980.908" y2="750.096"/>
		<line fill="none" stroke="#FFFFFF" stroke-width="4" x1="1260.084" y1="750.104" x2="1190.29" y2="870.418"/>
		<line fill="none" stroke="#FFFFFF" stroke-width="4" x1="1260.483" y1="1234.435" x2="1120.808" y2="992.26"/>
		<line fill="none" stroke="#FFFFFF" stroke-width="4" x1="981.071" y1="1234.804" x2="1120.808" y2="992.26"/>
	</g>
</g>
<g id="nestedVE" display="none">
</g>
<g id="final_circles">
</g>
<g id="Layer_4" display="none">
	<circle display="inline" fill="none" stroke="#FFFFFF" stroke-width="4" cx="562.327" cy="992.237" r="279.631"/>
	<circle display="inline" fill="none" stroke="#FFFFFF" stroke-width="4" cx="702.142" cy="992.297" r="279.631"/>
	<circle display="inline" fill="none" stroke="#FFFFFF" stroke-width="4" cx="841.035" cy="992.32" r="279.631"/>
	<circle display="inline" fill="none" stroke="#FFFFFF" stroke-width="4" cx="980.918" cy="992.295" r="279.631"/>
	<circle display="inline" fill="none" stroke="#FFFFFF" stroke-width="4" cx="1120.496" cy="992.716" r="279.631"/>
</g>
</svg>
