<?xml version="1.0" encoding="utf-8"?>
<!-- Generator: Adobe Illustrator 16.0.0, SVG Export Plug-In . SVG Version: 6.00 Build 0)  -->
<!DOCTYPE svg PUBLIC "-//W3C//DTD SVG 1.1//EN" "http://www.w3.org/Graphics/SVG/1.1/DTD/svg11.dtd">
<svg version="1.1" xmlns="http://www.w3.org/2000/svg" xmlns:xlink="http://www.w3.org/1999/xlink" x="0px" y="0px" width="1687px"
	 height="1984px" viewBox="0 0 1687 1984" enable-background="new 0 0 1687 1984" xml:space="preserve">
<g id="Layer_1">
	<g id="Tetra3DFullGroup">
		<g id="back">
			<rect id="image" y="-7.12" fill="#130E22" width="1687" height="1998.24"/>
		</g>
		<g id="fruit">
			<g>
				<path fill="none" stroke="#FFFFFF" d="M1004.856,992.021c0,89.154-72.299,161.414-161.394,161.414
					c-89.198,0-161.497-72.252-161.497-161.414c0-89.225,72.297-161.477,161.497-161.477
					C932.562,830.551,1004.856,902.803,1004.856,992.021z"/>
				<path fill="none" stroke="#FFFFFF" d="M1004.856,669.139c0,89.16-72.299,161.414-161.394,161.414
					c-89.198,0-161.497-72.254-161.497-161.414c0-89.218,72.297-161.47,161.497-161.47
					C932.562,507.669,1004.856,579.921,1004.856,669.139z"/>
				<path fill="none" stroke="#FFFFFF" d="M725.198,830.578c0,89.16-72.294,161.414-161.391,161.414
					c-89.196,0-161.497-72.254-161.497-161.414c0-89.218,72.301-161.47,161.497-161.47
					C652.903,669.108,725.198,741.36,725.198,830.578z"/>
				<path fill="none" stroke="#FFFFFF" d="M725.199,1153.449c0,89.162-72.293,161.414-161.386,161.414
					c-89.2,0-161.496-72.252-161.496-161.414c0-89.219,72.296-161.473,161.496-161.473
					C652.905,991.98,725.199,1064.232,725.199,1153.449z"/>
				<path fill="none" stroke="#FFFFFF" d="M1004.856,1314.904c0,89.16-72.299,161.412-161.392,161.412
					c-89.2,0-161.498-72.252-161.498-161.412c0-89.221,72.296-161.479,161.498-161.479
					C932.563,1153.436,1004.856,1225.688,1004.856,1314.904z"/>
				<path fill="none" stroke="#FFFFFF" d="M1284.567,1153.463c0,89.162-72.295,161.414-161.391,161.414
					c-89.197,0-161.494-72.252-161.494-161.414c0-89.219,72.297-161.471,161.494-161.471
					C1212.272,991.992,1284.567,1064.244,1284.567,1153.463z"/>
				<path fill="none" stroke="#FFFFFF" d="M1284.556,830.578c0,89.161-72.293,161.414-161.388,161.414
					c-89.201,0-161.498-72.253-161.498-161.414c0-89.218,72.3-161.469,161.498-161.469
					C1212.263,669.109,1284.556,741.36,1284.556,830.578z"/>
				<path fill="none" stroke="#FFFFFF" d="M1004.961,346.257c0,89.161-72.295,161.414-161.387,161.414
					c-89.201,0-161.497-72.253-161.497-161.414c0-89.219,72.295-161.47,161.497-161.47
					C932.666,184.787,1004.961,257.038,1004.961,346.257z"/>
				<path fill="none" stroke="#FFFFFF" d="M445.578,669.15c0,89.16-72.294,161.414-161.386,161.414
					c-89.201,0-161.5-72.254-161.5-161.414c0-89.226,72.296-161.477,161.5-161.477C373.283,507.682,445.578,579.933,445.578,669.15z
					"/>
				<path fill="none" stroke="#FFFFFF" d="M445.566,1314.916c0,89.164-72.294,161.416-161.391,161.416
					c-89.199,0-161.497-72.252-161.497-161.416c0-89.217,72.292-161.467,161.497-161.467
					C373.272,1153.449,445.566,1225.699,445.566,1314.916z"/>
				<path fill="none" stroke="#FFFFFF" d="M1564.321,1314.906c0,89.162-72.297,161.414-161.391,161.414
					c-89.197,0-161.496-72.252-161.496-161.414c0-89.221,72.299-161.471,161.496-161.471
					C1492.026,1153.438,1564.321,1225.688,1564.321,1314.906z"/>
				<path fill="none" stroke="#FFFFFF" d="M1564.31,669.161c0,89.162-72.295,161.414-161.388,161.414
					c-89.2,0-161.498-72.252-161.498-161.414c0-89.218,72.298-161.469,161.498-161.469
					C1492.015,507.692,1564.31,579.943,1564.31,669.161z"/>
				<path fill="none" stroke="#FFFFFF" d="M1004.944,1637.797c0,89.162-72.297,161.416-161.396,161.416
					c-89.196,0-161.495-72.254-161.495-161.416c0-89.217,72.298-161.467,161.495-161.467
					C932.647,1476.33,1004.944,1548.58,1004.944,1637.797z"/>
			</g>
		</g>
		<g id="sixtyFour" display="none">
			<g display="inline">
				<circle fill="none" stroke="#FFFFFF" cx="843.5" cy="992" r="726.798"/>
				<line fill="none" stroke="#FFFFFF" x1="842.524" y1="1638.064" x2="842.543" y2="992"/>
				<line fill="none" stroke="#FFFFFF" x1="843.5" y1="991.734" x2="1401.921" y2="669.404"/>
				<line fill="none" stroke="#FFFFFF" x1="842.006" y1="992" x2="283.166" y2="669.416"/>
				<line fill="none" stroke="#FFFFFF" x1="562.772" y1="1153.693" x2="283.134" y2="992.289"/>
				<line fill="none" stroke="#FFFFFF" x1="842.869" y1="669.248" x2="1122.266" y2="508"/>
				<line fill="none" stroke="#FFFFFF" x1="1122.261" y1="1153.744" x2="1122.255" y2="1476.615"/>
				<line fill="none" stroke="#FFFFFF" x1="562.86" y1="1476.626" x2="562.854" y2="1153.717"/>
				<line fill="none" stroke="#FFFFFF" x1="562.847" y1="507.965" x2="842.638" y2="669.471"/>
				<line fill="none" stroke="#FFFFFF" x1="1401.886" y1="992.289" x2="1123.539" y2="1152.969"/>
				<line fill="none" stroke="#FFFFFF" x1="1308.591" y1="1153.875" x2="1401.886" y2="992.289"/>
				<line fill="none" stroke="#FFFFFF" x1="1122.25" y1="1476.615" x2="1215.559" y2="1315.005"/>
				<line fill="none" stroke="#FFFFFF" x1="1401.886" y1="992.289" x2="1122.266" y2="508"/>
				<line fill="none" stroke="#FFFFFF" x1="749.621" y1="507.988" x2="562.847" y2="507.977"/>
				<line fill="none" stroke="#FFFFFF" x1="1122.266" y1="507.988" x2="935.683" y2="507.977"/>
				<line fill="none" stroke="#FFFFFF" x1="562.847" y1="507.965" x2="283.134" y2="992.289"/>
				<line fill="none" stroke="#FFFFFF" x1="283.134" y1="992.289" x2="376.657" y2="1154.221"/>
				<line fill="none" stroke="#FFFFFF" x1="469.026" y1="1314.146" x2="562.869" y2="1476.626"/>
				<line fill="none" stroke="#FFFFFF" x1="562.869" y1="1476.626" x2="1122.25" y2="1476.615"/>
				<line fill="none" stroke="#FFFFFF" x1="470.151" y1="669.41" x2="283.166" y2="669.412"/>
				<line fill="none" stroke="#FFFFFF" x1="1401.921" y1="669.41" x2="1214.918" y2="669.412"/>
				<line fill="none" stroke="#FFFFFF" x1="283.178" y1="1315.161" x2="1401.901" y2="1315.191"/>
				<line fill="none" stroke="#FFFFFF" x1="469.683" y1="992.289" x2="283.134" y2="992.289"/>
				<line fill="none" stroke="#FFFFFF" x1="1401.886" y1="992.289" x2="1215.634" y2="992.289"/>
				<line fill="none" stroke="#FFFFFF" x1="562.612" y1="1153.754" x2="1122.492" y2="1153.744"/>
				<line fill="none" stroke="#FFFFFF" x1="423.047" y1="1073.02" x2="608.838" y2="1073.018"/>
				<line fill="none" stroke="#FFFFFF" x1="1075.457" y1="1073.02" x2="1262.05" y2="1073.018"/>
				<line fill="none" stroke="#FFFFFF" x1="701.84" y1="911.594" x2="981.847" y2="911.584"/>
				<line fill="none" stroke="#FFFFFF" x1="562.593" y1="830.814" x2="749.621" y2="830.887"/>
				<line fill="none" stroke="#FFFFFF" x1="935.683" y1="830.844" x2="1122.71" y2="830.859"/>
				<line fill="none" stroke="#FFFFFF" x1="702.705" y1="588.688" x2="982.463" y2="588.688"/>
				<line fill="none" stroke="#FFFFFF" x1="1261.982" y1="1072.979" x2="1122.146" y2="1315.188"/>
				<line fill="none" stroke="#FFFFFF" x1="1169.269" y1="910.66" x2="1261.999" y2="750.029"/>
				<line fill="none" stroke="#FFFFFF" x1="843.06" y1="1475.672" x2="936.304" y2="1314.146"/>
				<line fill="none" stroke="#FFFFFF" x1="562.89" y1="1315.235" x2="656.136" y2="1153.723"/>
				<line fill="none" stroke="#FFFFFF" x1="889" y1="750.396" x2="982.41" y2="588.6"/>
				<line fill="none" stroke="#FFFFFF" x1="562.804" y1="1153.865" x2="842.586" y2="669.354"/>
				<line fill="none" stroke="#FFFFFF" x1="936.302" y1="1475.679" x2="842.524" y2="1638.064"/>
				<line fill="none" stroke="#FFFFFF" x1="1401.921" y1="669.404" x2="1308.666" y2="830.887"/>
				<line fill="none" stroke="#FFFFFF" x1="283.178" y1="1315.161" x2="842.543" y2="346.543"/>
				<line fill="none" stroke="#FFFFFF" x1="562.869" y1="1476.626" x2="655.92" y2="1315.503"/>
				<line fill="none" stroke="#FFFFFF" x1="1028.919" y1="669.635" x2="1122.266" y2="508"/>
				<line fill="none" stroke="#FFFFFF" x1="516.325" y1="911.594" x2="423.039" y2="750.035"/>
				<line fill="none" stroke="#FFFFFF" x1="842.569" y1="1476.663" x2="749.013" y2="1314.64"/>
				<line fill="none" stroke="#FFFFFF" x1="1122.265" y1="1153.875" x2="842.537" y2="669.383"/>
				<line fill="none" stroke="#FFFFFF" x1="794.851" y1="748.258" x2="702.713" y2="588.682"/>
				<line fill="none" stroke="#FFFFFF" x1="1122.183" y1="1315.212" x2="1028.919" y2="1153.686"/>
				<line fill="none" stroke="#FFFFFF" x1="562.918" y1="1315.186" x2="423.037" y2="1072.909"/>
				<line fill="none" stroke="#FFFFFF" x1="656.194" y1="669.604" x2="562.847" y2="507.965"/>
				<line fill="none" stroke="#FFFFFF" x1="1122.25" y1="1476.615" x2="1028.752" y2="1314.717"/>
				<line fill="none" stroke="#FFFFFF" x1="376.407" y1="830.887" x2="283.166" y2="669.416"/>
				<line fill="none" stroke="#FFFFFF" x1="842.524" y1="1638.064" x2="748.752" y2="1475.679"/>
				<line fill="none" stroke="#FFFFFF" x1="842.543" y1="346.543" x2="1401.901" y2="1315.191"/>
				<line fill="none" stroke="#FFFFFF" x1="936.302" y1="1152.274" x2="842.252" y2="1315.005"/>
				<line fill="none" stroke="#FFFFFF" x1="1122.142" y1="830.727" x2="1028.752" y2="992.313"/>
				<line fill="none" stroke="#FFFFFF" x1="655.92" y1="992.313" x2="562.612" y2="830.723"/>
				<line fill="none" stroke="#FFFFFF" x1="842.252" y1="1315.005" x2="748.752" y2="1153.079"/>
				<line fill="none" stroke="#FFFFFF" x1="841.843" y1="1153.875" x2="981.847" y2="911.584"/>
				<line fill="none" stroke="#FFFFFF" x1="841.843" y1="1153.875" x2="701.84" y2="911.594"/>
				<line fill="none" stroke="#FFFFFF" x1="1261.999" y1="750.029" x2="1075.448" y2="750.029"/>
				<line fill="none" stroke="#FFFFFF" x1="423.039" y1="750.035" x2="609.531" y2="750.035"/>
			</g>
		</g>
		<g id="hexagon" display="none">
			<polygon display="inline" fill="#FFFFFF" fill-opacity="0" stroke="#FFE86D" stroke-miterlimit="10" stroke-opacity="0" points="
				2.5,507 843.5,21 1684.5,507 1684.5,1478 843.5,1963 2.5,1478 			"/>
		</g>
	</g>
</g>
<g id="Layer_2" display="none">
	
		<line display="inline" fill="none" stroke="#FFFFFF" stroke-width="4" stroke-miterlimit="10" x1="832.673" y1="669.508" x2="691.976" y2="911.719"/>
	
		<line display="inline" fill="none" stroke="#FFFFFF" stroke-width="4" stroke-miterlimit="10" x1="971.982" y1="911.709" x2="832.673" y2="669.508"/>
	
		<line display="inline" fill="none" stroke="#FFFFFF" stroke-width="4" stroke-miterlimit="10" x1="691.976" y1="911.719" x2="971.982" y2="911.709"/>
	
		<line display="inline" fill="none" stroke="#FFFFFF" stroke-width="4" stroke-miterlimit="10" x1="833.005" y1="669.373" x2="552.982" y2="508.102"/>
	
		<line display="inline" fill="none" stroke="#FFFFFF" stroke-width="4" stroke-miterlimit="10" x1="552.982" y1="508.102" x2="413.175" y2="750.16"/>
	
		<line display="inline" fill="none" stroke="#FFFFFF" stroke-width="4" stroke-miterlimit="10" x1="413.175" y1="750.16" x2="506.461" y2="911.719"/>
	
		<line display="inline" fill="none" stroke="#FFFFFF" stroke-width="4" stroke-miterlimit="10" x1="692.849" y1="588.807" x2="972.546" y2="588.725"/>
	
		<line display="inline" fill="none" stroke="#FFFFFF" stroke-width="4" stroke-miterlimit="10" x1="972.546" y1="588.725" x2="833.005" y2="669.373"/>
	
		<line display="inline" fill="none" stroke="#FFFFFF" stroke-width="4" stroke-miterlimit="10" x1="972.546" y1="588.725" x2="879.136" y2="750.521"/>
	
		<line display="inline" fill="none" stroke="#FFFFFF" stroke-width="4" stroke-miterlimit="10" x1="784.986" y1="748.383" x2="697.948" y2="591.59"/>
	
		<line display="inline" fill="none" stroke="#FFFFFF" stroke-width="4" stroke-miterlimit="10" x1="697.948" y1="591.59" x2="552.748" y2="830.848"/>
	
		<line display="inline" fill="none" stroke="#FFFFFF" stroke-width="4" stroke-miterlimit="10" x1="552.748" y1="830.848" x2="646.056" y2="992.438"/>
</g>
<g id="Layer_3" display="none">
	<g id="sixtyFour_1_" display="inline">
		<g>
			
				<line fill="none" stroke="#FFFFFF" stroke-width="4" stroke-miterlimit="10" x1="981.209" y1="588.999" x2="702.054" y2="589.188"/>
			
				<line fill="none" stroke="#FFFFFF" stroke-width="4" stroke-miterlimit="10" x1="702.054" y1="589.188" x2="562.668" y2="831.043"/>
			
				<line fill="none" stroke="#FFFFFF" stroke-width="4" stroke-miterlimit="10" x1="702.44" y1="1072.774" x2="981.631" y2="1072.609"/>
			
				<line fill="none" stroke="#FFFFFF" stroke-width="4" stroke-miterlimit="10" x1="981.631" y1="1072.609" x2="1121.018" y2="830.708"/>
			
				<line fill="none" stroke="#FFFFFF" stroke-width="4" stroke-miterlimit="10" x1="1121.018" y1="830.708" x2="981.209" y2="588.999"/>
			
				<line fill="none" stroke="#FFFFFF" stroke-width="4" stroke-miterlimit="10" x1="702.054" y1="589.188" x2="841.689" y2="669.68"/>
			
				<line fill="none" stroke="#FFFFFF" stroke-width="4" stroke-miterlimit="10" x1="841.689" y1="669.68" x2="981.209" y2="588.999"/>
			
				<line fill="none" stroke="#FFFFFF" stroke-width="4" stroke-miterlimit="10" x1="702.44" y1="1072.774" x2="702.312" y2="911.56"/>
			
				<line fill="none" stroke="#FFFFFF" stroke-width="4" stroke-miterlimit="10" x1="702.312" y1="911.56" x2="562.668" y2="831.075"/>
			
				<line fill="none" stroke="#FFFFFF" stroke-width="4" stroke-miterlimit="10" x1="562.668" y1="831.043" x2="702.44" y2="1072.774"/>
			
				<line fill="none" stroke="#FFFFFF" stroke-width="4" stroke-miterlimit="10" x1="1121.018" y1="830.717" x2="981.484" y2="911.385"/>
			
				<line fill="none" stroke="#FFFFFF" stroke-width="4" stroke-miterlimit="10" x1="981.484" y1="911.385" x2="981.575" y2="1072.554"/>
			
				<line fill="none" stroke="#FFFFFF" stroke-width="4" stroke-miterlimit="10" x1="841.689" y1="669.68" x2="981.484" y2="911.385"/>
			
				<line fill="none" stroke="#FFFFFF" stroke-width="4" stroke-miterlimit="10" x1="981.484" y1="911.385" x2="702.312" y2="911.56"/>
			
				<line fill="none" stroke="#FFFFFF" stroke-width="4" stroke-miterlimit="10" x1="702.312" y1="911.56" x2="841.689" y2="669.68"/>
			
				<line fill="none" stroke="#FFFFFF" stroke-width="4" stroke-miterlimit="10" x1="1121.018" y1="830.717" x2="935.284" y2="831.043"/>
			
				<line fill="none" stroke="#FFFFFF" stroke-width="4" stroke-miterlimit="10" x1="749.347" y1="830.717" x2="562.668" y2="831.043"/>
			
				<line fill="none" stroke="#FFFFFF" stroke-width="4" stroke-miterlimit="10" x1="889.36" y1="750.353" x2="981.209" y2="588.999"/>
			
				<line fill="none" stroke="#FFFFFF" stroke-width="4" stroke-miterlimit="10" x1="796.451" y1="750.353" x2="702.245" y2="589.188"/>
			<line fill="none" stroke="#FFFFFF" stroke-width="4" x1="796.451" y1="911.587" x2="702.44" y2="1072.774"/>
			<line fill="none" stroke="#FFFFFF" stroke-width="4" x1="889.36" y1="911.111" x2="981.631" y2="1072.609"/>
		</g>
	</g>
	<g id="sixtyFour_3_" display="inline">
		<g>
			
				<line fill="none" stroke="#FFFFFF" stroke-width="4" stroke-miterlimit="10" x1="1121.934" y1="508.142" x2="842.778" y2="508.331"/>
			
				<line fill="none" stroke="#FFFFFF" stroke-width="4" stroke-miterlimit="10" x1="842.778" y1="508.331" x2="795.653" y2="590.101"/>
			
				<line fill="none" stroke="#FFFFFF" stroke-width="4" stroke-miterlimit="10" x1="1024.514" y1="991.864" x2="1122.355" y2="991.806"/>
			
				<line fill="none" stroke="#FFFFFF" stroke-width="4" stroke-miterlimit="10" x1="1122.355" y1="991.752" x2="1261.742" y2="749.851"/>
			
				<line fill="none" stroke="#FFFFFF" stroke-width="4" stroke-miterlimit="10" x1="1261.742" y1="749.851" x2="1121.934" y2="508.142"/>
			
				<line fill="none" stroke="#FFFFFF" stroke-width="4" stroke-miterlimit="10" x1="842.778" y1="508.331" x2="982.414" y2="588.823"/>
			
				<line fill="none" stroke="#FFFFFF" stroke-width="4" stroke-miterlimit="10" x1="982.414" y1="588.823" x2="1121.934" y2="508.142"/>
			
				<line fill="none" stroke="#FFFFFF" stroke-width="4" stroke-miterlimit="10" x1="1261.742" y1="749.86" x2="1122.209" y2="830.528"/>
			
				<line fill="none" stroke="#FFFFFF" stroke-width="4" stroke-miterlimit="10" x1="1122.209" y1="830.528" x2="1122.3" y2="991.697"/>
			
				<line fill="none" stroke="#FFFFFF" stroke-width="4" stroke-miterlimit="10" x1="982.414" y1="588.823" x2="1122.209" y2="830.528"/>
			
				<line fill="none" stroke="#FFFFFF" stroke-width="4" stroke-miterlimit="10" x1="1122.209" y1="830.557" x2="934.943" y2="830.674"/>
			
				<line fill="none" stroke="#FFFFFF" stroke-width="4" stroke-miterlimit="10" x1="887.473" y1="753.587" x2="982.414" y2="588.823"/>
			
				<line fill="none" stroke="#FFFFFF" stroke-width="4" stroke-miterlimit="10" x1="1261.742" y1="749.86" x2="1076.009" y2="750.186"/>
			
				<line fill="none" stroke="#FFFFFF" stroke-width="4" stroke-miterlimit="10" x1="1030.085" y1="669.496" x2="1121.934" y2="508.142"/>
			
				<line fill="none" stroke="#FFFFFF" stroke-width="4" stroke-miterlimit="10" x1="890.766" y1="590.1" x2="842.969" y2="508.332"/>
			<line fill="none" stroke="#FFFFFF" stroke-width="4" x1="1076.221" y1="911.003" x2="1122.355" y2="991.752"/>
		</g>
	</g>
	<g id="sixtyFour_2_" display="inline">
		<g>
			
				<line fill="none" stroke="#FFFFFF" stroke-width="4" stroke-miterlimit="10" x1="841.206" y1="508.508" x2="562.051" y2="508.698"/>
			
				<line fill="none" stroke="#FFFFFF" stroke-width="4" stroke-miterlimit="10" x1="562.051" y1="508.698" x2="422.665" y2="750.553"/>
			
				<line fill="none" stroke="#FFFFFF" stroke-width="4" stroke-miterlimit="10" x1="562.438" y1="992.229" x2="655.56" y2="992.174"/>
			
				<line fill="none" stroke="#FFFFFF" stroke-width="4" stroke-miterlimit="10" x1="562.051" y1="508.698" x2="701.686" y2="589.19"/>
			
				<line fill="none" stroke="#FFFFFF" stroke-width="4" stroke-miterlimit="10" x1="701.686" y1="589.19" x2="841.206" y2="508.508"/>
			
				<line fill="none" stroke="#FFFFFF" stroke-width="4" stroke-miterlimit="10" x1="562.438" y1="992.284" x2="562.309" y2="831.069"/>
			
				<line fill="none" stroke="#FFFFFF" stroke-width="4" stroke-miterlimit="10" x1="562.309" y1="831.069" x2="422.665" y2="750.585"/>
			
				<line fill="none" stroke="#FFFFFF" stroke-width="4" stroke-miterlimit="10" x1="422.665" y1="750.553" x2="562.438" y2="992.284"/>
			
				<line fill="none" stroke="#FFFFFF" stroke-width="4" stroke-miterlimit="10" x1="746.198" y1="830.895" x2="562.309" y2="831.069"/>
			
				<line fill="none" stroke="#FFFFFF" stroke-width="4" stroke-miterlimit="10" x1="562.309" y1="831.069" x2="701.686" y2="589.19"/>
			
				<line fill="none" stroke="#FFFFFF" stroke-width="4" stroke-miterlimit="10" x1="609.344" y1="750.227" x2="422.665" y2="750.553"/>
			
				<line fill="none" stroke="#FFFFFF" stroke-width="4" stroke-miterlimit="10" x1="794.761" y1="590.101" x2="841.206" y2="508.509"/>
			
				<line fill="none" stroke="#FFFFFF" stroke-width="4" stroke-miterlimit="10" x1="656.448" y1="669.863" x2="562.242" y2="508.698"/>
			<line fill="none" stroke="#FFFFFF" stroke-width="4" x1="609.843" y1="911.003" x2="562.438" y2="992.284"/>
		</g>
	</g>
</g>
<g id="Layer_4" display="none">
	<line display="inline" fill="none" stroke="#FFFFFF" stroke-width="4" x1="702.44" y1="1072.774" x2="842.252" y2="1315.005"/>
	<line display="inline" fill="none" stroke="#FFFFFF" stroke-width="4" x1="563.813" y1="1314.863" x2="702.44" y2="1072.774"/>
	<line display="inline" fill="none" x1="981.631" y1="1072.609" x2="1122.355" y2="991.752"/>
	<line display="inline" fill="none" stroke="#FFFFFF" stroke-width="4" x1="1122.355" y1="991.752" x2="981.631" y2="1072.609"/>
	
		<line display="inline" fill="none" stroke="#FFFFFF" stroke-width="4" stroke-miterlimit="10" x1="657.202" y1="992.093" x2="562.805" y2="992.282"/>
	
		<line display="inline" fill="none" stroke="#FFFFFF" stroke-width="4" stroke-miterlimit="10" x1="562.805" y1="992.282" x2="423.419" y2="1234.137"/>
	
		<line display="inline" fill="none" stroke="#FFFFFF" stroke-width="4" stroke-miterlimit="10" x1="563.192" y1="1475.869" x2="842.382" y2="1475.703"/>
	
		<line display="inline" fill="none" stroke="#FFFFFF" stroke-width="4" stroke-miterlimit="10" x1="842.382" y1="1475.703" x2="933.96" y2="1316.773"/>
	
		<line display="inline" fill="none" stroke="#FFFFFF" stroke-width="4" stroke-miterlimit="10" x1="935.291" y1="1153.447" x2="887.473" y2="1070.776"/>
	
		<line display="inline" fill="none" stroke="#FFFFFF" stroke-width="4" stroke-miterlimit="10" x1="562.805" y1="992.282" x2="702.44" y2="1072.774"/>
	
		<line display="inline" fill="none" stroke="#FFFFFF" stroke-width="4" stroke-miterlimit="10" x1="563.192" y1="1475.869" x2="563.063" y2="1314.654"/>
	
		<line display="inline" fill="none" stroke="#FFFFFF" stroke-width="4" stroke-miterlimit="10" x1="563.063" y1="1314.654" x2="423.419" y2="1234.17"/>
	
		<line display="inline" fill="none" stroke="#FFFFFF" stroke-width="4" stroke-miterlimit="10" x1="423.419" y1="1234.137" x2="563.192" y2="1475.869"/>
	
		<line display="inline" fill="none" stroke="#FFFFFF" stroke-width="4" stroke-miterlimit="10" x1="842.236" y1="1314.479" x2="842.327" y2="1475.648"/>
	
		<line display="inline" fill="none" stroke="#FFFFFF" stroke-width="4" stroke-miterlimit="10" x1="702.44" y1="1072.774" x2="842.236" y2="1314.479"/>
	
		<line display="inline" fill="none" stroke="#FFFFFF" stroke-width="4" stroke-miterlimit="10" x1="842.236" y1="1314.479" x2="563.063" y2="1314.654"/>
	
		<line display="inline" fill="none" stroke="#FFFFFF" stroke-width="4" stroke-miterlimit="10" x1="563.063" y1="1314.654" x2="702.44" y2="1072.774"/>
	
		<line display="inline" fill="none" stroke="#FFFFFF" stroke-width="4" stroke-miterlimit="10" x1="610.099" y1="1233.811" x2="423.419" y2="1234.137"/>
	
		<line display="inline" fill="none" stroke="#FFFFFF" stroke-width="4" stroke-miterlimit="10" x1="750.112" y1="1153.447" x2="795.982" y2="1072.865"/>
	
		<line display="inline" fill="none" stroke="#FFFFFF" stroke-width="4" stroke-miterlimit="10" x1="657.202" y1="1153.447" x2="562.996" y2="992.283"/>
	<line display="inline" fill="none" stroke="#FFFFFF" stroke-width="4" x1="657.202" y1="1314.682" x2="563.192" y2="1475.869"/>
	<line display="inline" fill="none" stroke="#FFFFFF" stroke-width="4" x1="750.112" y1="1314.205" x2="842.382" y2="1475.703"/>
	<line display="inline" fill="none" stroke="#FFFFFF" stroke-width="4" x1="981.631" y1="1072.609" x2="841.819" y2="1314.84"/>
	<line display="inline" fill="none" stroke="#FFFFFF" stroke-width="4" x1="1120.258" y1="1314.698" x2="981.631" y2="1072.609"/>
	
		<line display="inline" fill="none" stroke="#FFFFFF" stroke-width="4" stroke-miterlimit="10" x1="1260.651" y1="1233.972" x2="1121.267" y2="992.117"/>
	
		<line display="inline" fill="none" stroke="#FFFFFF" stroke-width="4" stroke-miterlimit="10" x1="841.688" y1="1475.538" x2="1120.88" y2="1475.704"/>
	
		<line display="inline" fill="none" stroke="#FFFFFF" stroke-width="4" stroke-miterlimit="10" x1="750.112" y1="1314.205" x2="841.688" y2="1475.538"/>
	
		<line display="inline" fill="none" stroke="#FFFFFF" stroke-width="4" stroke-miterlimit="10" x1="981.631" y1="1072.609" x2="1121.267" y2="992.117"/>
	
		<line display="inline" fill="none" stroke="#FFFFFF" stroke-width="4" stroke-miterlimit="10" x1="1121.008" y1="1314.489" x2="1120.88" y2="1475.704"/>
	
		<line display="inline" fill="none" stroke="#FFFFFF" stroke-width="4" stroke-miterlimit="10" x1="1260.651" y1="1234.005" x2="1121.008" y2="1314.489"/>
	
		<line display="inline" fill="none" stroke="#FFFFFF" stroke-width="4" stroke-miterlimit="10" x1="1120.88" y1="1475.704" x2="1260.651" y2="1233.972"/>
	
		<line display="inline" fill="none" stroke="#FFFFFF" stroke-width="4" stroke-miterlimit="10" x1="841.745" y1="1475.483" x2="841.835" y2="1314.313"/>
	
		<line display="inline" fill="none" stroke="#FFFFFF" stroke-width="4" stroke-miterlimit="10" x1="841.835" y1="1314.313" x2="981.631" y2="1072.609"/>
	
		<line display="inline" fill="none" stroke="#FFFFFF" stroke-width="4" stroke-miterlimit="10" x1="1121.008" y1="1314.489" x2="841.835" y2="1314.313"/>
	
		<line display="inline" fill="none" stroke="#FFFFFF" stroke-width="4" stroke-miterlimit="10" x1="981.631" y1="1072.609" x2="1121.008" y2="1314.489"/>
	
		<line display="inline" fill="none" stroke="#FFFFFF" stroke-width="4" stroke-miterlimit="10" x1="888.036" y1="1233.972" x2="796.451" y2="1233.646"/>
	
		<line display="inline" fill="none" stroke="#FFFFFF" stroke-width="4" stroke-miterlimit="10" x1="1260.651" y1="1233.972" x2="1073.973" y2="1233.646"/>
	
		<line display="inline" fill="none" stroke="#FFFFFF" stroke-width="4" stroke-miterlimit="10" x1="888.089" y1="1072.7" x2="933.96" y2="1153.282"/>
	
		<line display="inline" fill="none" stroke="#FFFFFF" stroke-width="4" stroke-miterlimit="10" x1="1121.075" y1="992.117" x2="1026.869" y2="1153.282"/>
	<line display="inline" fill="none" stroke="#FFFFFF" stroke-width="4" x1="1120.88" y1="1475.704" x2="1026.869" y2="1314.517"/>
	<line display="inline" fill="none" stroke="#FFFFFF" stroke-width="4" x1="841.688" y1="1475.538" x2="933.96" y2="1314.04"/>
</g>
<g id="Layer_5">
	<g>
		<line fill="none" stroke="#FFFFFF" stroke-width="3" x1="839.93" y1="507.834" x2="561.081" y2="991.753"/>
		
			<line fill="none" stroke="#FFFFFF" stroke-width="3" stroke-miterlimit="10" x1="981.249" y1="588.386" x2="702.013" y2="588.575"/>
		
			<line fill="none" stroke="#FFFFFF" stroke-width="3" stroke-miterlimit="10" x1="702.399" y1="1072.305" x2="981.672" y2="1072.139"/>
		
			<line fill="none" stroke="#FFFFFF" stroke-width="3" stroke-miterlimit="10" x1="981.672" y1="1072.139" x2="1121.1" y2="830.166"/>
		
			<line fill="none" stroke="#FFFFFF" stroke-width="3" stroke-miterlimit="10" x1="1121.1" y1="830.166" x2="981.249" y2="588.386"/>
		
			<line fill="none" stroke="#FFFFFF" stroke-width="3" stroke-miterlimit="10" x1="562.586" y1="830.501" x2="981.249" y2="588.386"/>
		
			<line fill="none" stroke="#FFFFFF" stroke-width="3" stroke-miterlimit="10" x1="562.586" y1="830.501" x2="702.399" y2="1072.305"/>
		
			<line fill="none" stroke="#FFFFFF" stroke-width="3" stroke-miterlimit="10" x1="841.689" y1="669.09" x2="981.524" y2="910.866"/>
		
			<line fill="none" stroke="#FFFFFF" stroke-width="3" stroke-miterlimit="10" x1="981.524" y1="910.866" x2="702.271" y2="911.041"/>
		
			<line fill="none" stroke="#FFFFFF" stroke-width="3" stroke-miterlimit="10" x1="702.271" y1="911.041" x2="841.689" y2="669.09"/>
		
			<line fill="none" stroke="#FFFFFF" stroke-width="3" stroke-miterlimit="10" x1="421.267" y1="749.949" x2="1256.14" y2="749.787"/>
		
			<line fill="none" stroke="#FFFFFF" stroke-width="3" stroke-miterlimit="10" x1="704.037" y1="1072.305" x2="702.203" y2="588.575"/>
		
			<line fill="none" stroke="#FFFFFF" stroke-width="3" stroke-miterlimit="10" x1="560.694" y1="508.023" x2="1121.1" y2="830.174"/>
		
			<line fill="none" stroke="#FFFFFF" stroke-width="3" stroke-miterlimit="10" x1="1121.1" y1="830.174" x2="562.586" y2="830.501"/>
		
			<line fill="none" stroke="#FFFFFF" stroke-width="3" stroke-miterlimit="10" x1="1259.051" y1="749.614" x2="702.399" y2="1072.305"/>
		
			<line fill="none" stroke="#FFFFFF" stroke-width="3" stroke-miterlimit="10" x1="702.399" y1="1072.305" x2="981.249" y2="588.386"/>
		
			<line fill="none" stroke="#FFFFFF" stroke-width="3" stroke-miterlimit="10" x1="981.672" y1="1072.139" x2="702.203" y2="588.575"/>
		
			<line fill="none" stroke="#FFFFFF" stroke-width="3" stroke-miterlimit="10" x1="981.672" y1="1072.139" x2="981.249" y2="588.386"/>
		
			<line fill="none" stroke="#FFFFFF" stroke-width="3" stroke-miterlimit="10" x1="1119.199" y1="507.834" x2="560.694" y2="508.023"/>
		
			<line fill="none" stroke="#FFFFFF" stroke-width="3" stroke-miterlimit="10" x1="560.694" y1="508.023" x2="421.267" y2="749.949"/>
		
			<line fill="none" stroke="#FFFFFF" stroke-width="3" stroke-miterlimit="10" x1="561.081" y1="991.753" x2="840.353" y2="991.587"/>
		
			<line fill="none" stroke="#FFFFFF" stroke-width="3" stroke-miterlimit="10" x1="1119.623" y1="991.587" x2="839.93" y2="507.834"/>
		
			<line fill="none" stroke="#FFFFFF" stroke-width="3" stroke-miterlimit="10" x1="702.013" y1="588.575" x2="839.93" y2="507.834"/>
		
			<line fill="none" stroke="#FFFFFF" stroke-width="3" stroke-miterlimit="10" x1="981.672" y1="1072.139" x2="421.267" y2="749.981"/>
		
			<line fill="none" stroke="#FFFFFF" stroke-width="3" stroke-miterlimit="10" x1="421.267" y1="749.949" x2="561.081" y2="991.753"/>
		
			<line fill="none" stroke="#FFFFFF" stroke-width="3" stroke-miterlimit="10" x1="840.206" y1="830.314" x2="840.298" y2="991.531"/>
		
			<line fill="none" stroke="#FFFFFF" stroke-width="3" stroke-miterlimit="10" x1="560.884" y1="669.235" x2="841.689" y2="669.09"/>
		
			<line fill="none" stroke="#FFFFFF" stroke-width="3" stroke-miterlimit="10" x1="704.037" y1="911.121" x2="560.884" y2="669.235"/>
		
			<line fill="none" stroke="#FFFFFF" stroke-width="3" stroke-miterlimit="10" x1="560.884" y1="669.235" x2="560.884" y2="508.023"/>
		
			<line fill="none" stroke="#FFFFFF" stroke-width="3" stroke-miterlimit="10" x1="560.884" y1="669.235" x2="421.267" y2="749.949"/>
		
			<line fill="none" stroke="#FFFFFF" stroke-width="3" stroke-miterlimit="10" x1="1119.424" y1="669.235" x2="561.081" y2="991.753"/>
		
			<line fill="none" stroke="#FFFFFF" stroke-width="3" stroke-miterlimit="10" x1="840.353" y1="991.587" x2="560.884" y2="508.023"/>
		<line fill="none" stroke="#FFFFFF" stroke-width="3" stroke-miterlimit="10" x1="841.689" y1="669.09" x2="839.93" y2="507.834"/>
		
			<line fill="none" stroke="#FFFFFF" stroke-width="3" stroke-miterlimit="10" x1="840.35" y1="991.753" x2="1119.623" y2="991.587"/>
		
			<line fill="none" stroke="#FFFFFF" stroke-width="3" stroke-miterlimit="10" x1="1119.623" y1="991.587" x2="1259.051" y2="749.614"/>
		
			<line fill="none" stroke="#FFFFFF" stroke-width="3" stroke-miterlimit="10" x1="1259.051" y1="749.614" x2="1119.199" y2="507.834"/>
		
			<line fill="none" stroke="#FFFFFF" stroke-width="3" stroke-miterlimit="10" x1="839.964" y1="508.023" x2="979.64" y2="588.539"/>
		
			<line fill="none" stroke="#FFFFFF" stroke-width="3" stroke-miterlimit="10" x1="979.64" y1="588.539" x2="1119.199" y2="507.834"/>
		
			<line fill="none" stroke="#FFFFFF" stroke-width="3" stroke-miterlimit="10" x1="1119.475" y1="830.314" x2="1119.568" y2="991.531"/>
		
			<line fill="none" stroke="#FFFFFF" stroke-width="3" stroke-miterlimit="10" x1="841.689" y1="669.09" x2="1119.424" y2="669.235"/>
		
			<line fill="none" stroke="#FFFFFF" stroke-width="3" stroke-miterlimit="10" x1="1119.424" y1="669.235" x2="983.307" y2="911.121"/>
		
			<line fill="none" stroke="#FFFFFF" stroke-width="3" stroke-miterlimit="10" x1="1119.424" y1="669.235" x2="1259.051" y2="749.623"/>
		
			<line fill="none" stroke="#FFFFFF" stroke-width="3" stroke-miterlimit="10" x1="560.884" y1="669.235" x2="1119.623" y2="991.587"/>
		
			<line fill="none" stroke="#FFFFFF" stroke-width="3" stroke-miterlimit="10" x1="840.353" y1="991.587" x2="1119.199" y2="507.834"/>
		
			<line fill="none" stroke="#FFFFFF" stroke-width="3" stroke-miterlimit="10" x1="1119.424" y1="669.235" x2="1119.199" y2="507.834"/>
		
			<line fill="none" stroke="#FFFFFF" stroke-width="3" stroke-miterlimit="10" x1="702.013" y1="588.575" x2="562.586" y2="830.501"/>
		
			<line fill="none" stroke="#FFFFFF" stroke-width="3" stroke-miterlimit="10" x1="561.081" y1="991.753" x2="562.586" y2="830.501"/>
	</g>
</g>
<g id="Layer_5_copy">
	<line fill="none" stroke="#FFFFFF" stroke-width="3" x1="843.749" y1="1475.337" x2="1122.598" y2="991.418"/>
	
		<line fill="none" stroke="#FFFFFF" stroke-width="3" stroke-miterlimit="10" x1="702.429" y1="1394.785" x2="981.664" y2="1394.596"/>
	
		<line fill="none" stroke="#FFFFFF" stroke-width="3" stroke-miterlimit="10" x1="702.006" y1="911.032" x2="562.579" y2="1153.005"/>
	
		<line fill="none" stroke="#FFFFFF" stroke-width="3" stroke-miterlimit="10" x1="562.579" y1="1153.005" x2="702.429" y2="1394.785"/>
	
		<line fill="none" stroke="#FFFFFF" stroke-width="3" stroke-miterlimit="10" x1="1121.092" y1="1152.67" x2="702.429" y2="1394.785"/>
	
		<line fill="none" stroke="#FFFFFF" stroke-width="3" stroke-miterlimit="10" x1="1121.092" y1="1152.67" x2="981.279" y2="910.866"/>
	
		<line fill="none" stroke="#FFFFFF" stroke-width="3" stroke-miterlimit="10" x1="841.989" y1="1314.081" x2="702.154" y2="1072.305"/>
	
		<line fill="none" stroke="#FFFFFF" stroke-width="3" stroke-miterlimit="10" x1="981.406" y1="1072.13" x2="841.989" y2="1314.081"/>
	
		<line fill="none" stroke="#FFFFFF" stroke-width="3" stroke-miterlimit="10" x1="1262.41" y1="1233.222" x2="427.539" y2="1233.384"/>
	
		<line fill="none" stroke="#FFFFFF" stroke-width="3" stroke-miterlimit="10" x1="979.641" y1="910.866" x2="981.475" y2="1394.596"/>
	
		<line fill="none" stroke="#FFFFFF" stroke-width="3" stroke-miterlimit="10" x1="1122.982" y1="1475.147" x2="562.579" y2="1152.997"/>
	
		<line fill="none" stroke="#FFFFFF" stroke-width="3" stroke-miterlimit="10" x1="562.579" y1="1152.997" x2="1121.092" y2="1152.67"/>
	
		<line fill="none" stroke="#FFFFFF" stroke-width="3" stroke-miterlimit="10" x1="424.627" y1="1233.558" x2="981.279" y2="910.866"/>
	
		<line fill="none" stroke="#FFFFFF" stroke-width="3" stroke-miterlimit="10" x1="981.279" y1="910.866" x2="702.429" y2="1394.785"/>
	
		<line fill="none" stroke="#FFFFFF" stroke-width="3" stroke-miterlimit="10" x1="702.006" y1="911.032" x2="981.475" y2="1394.596"/>
	
		<line fill="none" stroke="#FFFFFF" stroke-width="3" stroke-miterlimit="10" x1="702.006" y1="911.032" x2="702.429" y2="1394.785"/>
	
		<line fill="none" stroke="#FFFFFF" stroke-width="3" stroke-miterlimit="10" x1="564.479" y1="1475.337" x2="1122.982" y2="1475.147"/>
	
		<line fill="none" stroke="#FFFFFF" stroke-width="3" stroke-miterlimit="10" x1="1122.982" y1="1475.147" x2="1262.41" y2="1233.222"/>
	
		<line fill="none" stroke="#FFFFFF" stroke-width="3" stroke-miterlimit="10" x1="1122.598" y1="991.418" x2="843.325" y2="991.584"/>
	
		<line fill="none" stroke="#FFFFFF" stroke-width="3" stroke-miterlimit="10" x1="564.055" y1="991.584" x2="843.749" y2="1475.337"/>
	
		<line fill="none" stroke="#FFFFFF" stroke-width="3" stroke-miterlimit="10" x1="981.664" y1="1394.596" x2="843.749" y2="1475.337"/>
	
		<line fill="none" stroke="#FFFFFF" stroke-width="3" stroke-miterlimit="10" x1="702.006" y1="911.032" x2="1262.41" y2="1233.189"/>
	
		<line fill="none" stroke="#FFFFFF" stroke-width="3" stroke-miterlimit="10" x1="1262.41" y1="1233.222" x2="1122.598" y2="991.418"/>
	
		<line fill="none" stroke="#FFFFFF" stroke-width="3" stroke-miterlimit="10" x1="843.473" y1="1152.856" x2="843.379" y2="991.64"/>
	
		<line fill="none" stroke="#FFFFFF" stroke-width="3" stroke-miterlimit="10" x1="1122.793" y1="1313.937" x2="841.989" y2="1314.081"/>
	
		<line fill="none" stroke="#FFFFFF" stroke-width="3" stroke-miterlimit="10" x1="979.641" y1="1072.05" x2="1122.793" y2="1313.937"/>
	
		<line fill="none" stroke="#FFFFFF" stroke-width="3" stroke-miterlimit="10" x1="1122.793" y1="1313.937" x2="1122.793" y2="1475.147"/>
	
		<line fill="none" stroke="#FFFFFF" stroke-width="3" stroke-miterlimit="10" x1="1122.793" y1="1313.937" x2="1262.41" y2="1233.222"/>
	
		<line fill="none" stroke="#FFFFFF" stroke-width="3" stroke-miterlimit="10" x1="564.254" y1="1313.937" x2="1122.598" y2="991.418"/>
	
		<line fill="none" stroke="#FFFFFF" stroke-width="3" stroke-miterlimit="10" x1="843.325" y1="991.584" x2="1122.793" y2="1475.147"/>
	
		<line fill="none" stroke="#FFFFFF" stroke-width="3" stroke-miterlimit="10" x1="841.989" y1="1314.081" x2="843.749" y2="1475.337"/>
	
		<line fill="none" stroke="#FFFFFF" stroke-width="3" stroke-miterlimit="10" x1="843.329" y1="991.418" x2="564.055" y2="991.584"/>
	
		<line fill="none" stroke="#FFFFFF" stroke-width="3" stroke-miterlimit="10" x1="564.055" y1="991.584" x2="424.627" y2="1233.558"/>
	
		<line fill="none" stroke="#FFFFFF" stroke-width="3" stroke-miterlimit="10" x1="424.627" y1="1233.558" x2="564.479" y2="1475.337"/>
	
		<line fill="none" stroke="#FFFFFF" stroke-width="3" stroke-miterlimit="10" x1="843.714" y1="1475.147" x2="704.039" y2="1394.632"/>
	
		<line fill="none" stroke="#FFFFFF" stroke-width="3" stroke-miterlimit="10" x1="704.039" y1="1394.632" x2="564.479" y2="1475.337"/>
	<line fill="none" stroke="#FFFFFF" stroke-width="3" stroke-miterlimit="10" x1="564.204" y1="1152.856" x2="564.11" y2="991.64"/>
	
		<line fill="none" stroke="#FFFFFF" stroke-width="3" stroke-miterlimit="10" x1="841.989" y1="1314.081" x2="564.254" y2="1313.937"/>
	
		<line fill="none" stroke="#FFFFFF" stroke-width="3" stroke-miterlimit="10" x1="564.254" y1="1313.937" x2="700.372" y2="1072.05"/>
	
		<line fill="none" stroke="#FFFFFF" stroke-width="3" stroke-miterlimit="10" x1="564.254" y1="1313.937" x2="424.627" y2="1233.548"/>
	
		<line fill="none" stroke="#FFFFFF" stroke-width="3" stroke-miterlimit="10" x1="1122.793" y1="1313.937" x2="564.055" y2="991.584"/>
	
		<line fill="none" stroke="#FFFFFF" stroke-width="3" stroke-miterlimit="10" x1="843.325" y1="991.584" x2="564.479" y2="1475.337"/>
	
		<line fill="none" stroke="#FFFFFF" stroke-width="3" stroke-miterlimit="10" x1="564.254" y1="1313.937" x2="564.479" y2="1475.337"/>
	
		<line fill="none" stroke="#FFFFFF" stroke-width="3" stroke-miterlimit="10" x1="981.664" y1="1394.596" x2="1121.092" y2="1152.67"/>
	
		<line fill="none" stroke="#FFFFFF" stroke-width="3" stroke-miterlimit="10" x1="1122.598" y1="991.418" x2="1121.092" y2="1152.67"/>
</g>
</svg>
