<?xml version="1.0" encoding="utf-8"?>
<!-- Generator: Adobe Illustrator 16.0.0, SVG Export Plug-In . SVG Version: 6.00 Build 0)  -->
<!DOCTYPE svg PUBLIC "-//W3C//DTD SVG 1.1//EN" "http://www.w3.org/Graphics/SVG/1.1/DTD/svg11.dtd">
<svg version="1.1" xmlns="http://www.w3.org/2000/svg" xmlns:xlink="http://www.w3.org/1999/xlink" x="0px" y="0px"
	 width="1684.051px" height="1984.252px" viewBox="0 0 1684.051 1984.252" enable-background="new 0 0 1684.051 1984.252"
	 xml:space="preserve">
<g id="Layer_1">
	<g id="Layer_1_1_">
		<g id="_x36_4Tetra3DFullGroup">
			<g id="back" display="none">
				<rect id="image" y="-13.988" display="inline" fill="#130E22" width="1684.052" height="2012.229"/>
			</g>
			<g id="fruit">
				<g>
					<path fill="none" stroke="#FFFFFF" d="M1003.438,992.146c0,89.155-72.301,161.414-161.39,161.414
						c-89.201,0-161.498-72.252-161.498-161.414c0-89.224,72.296-161.476,161.498-161.476
						C931.143,830.676,1003.438,902.928,1003.438,992.146z"/>
					<path fill="none" stroke="#FFFFFF" d="M1003.438,669.264c0,89.16-72.301,161.414-161.39,161.414
						c-89.201,0-161.498-72.254-161.498-161.414c0-89.218,72.296-161.47,161.498-161.47
						C931.143,507.794,1003.438,580.046,1003.438,669.264z"/>
					<path fill="none" stroke="#FFFFFF" d="M723.778,830.703c0,89.16-72.293,161.414-161.392,161.414
						c-89.194,0-161.497-72.254-161.497-161.414c0-89.218,72.303-161.47,161.497-161.47
						C651.485,669.233,723.778,741.485,723.778,830.703z"/>
					<path fill="none" stroke="#FFFFFF" d="M723.782,1153.574c0,89.162-72.294,161.414-161.389,161.414
						c-89.198,0-161.494-72.252-161.494-161.414c0-89.219,72.296-161.472,161.494-161.472
						C651.487,992.105,723.782,1064.357,723.782,1153.574z"/>
					<path fill="none" stroke="#FFFFFF" d="M1003.438,1315.029c0,89.16-72.299,161.412-161.39,161.412
						c-89.201,0-161.497-72.252-161.497-161.412c0-89.221,72.295-161.478,161.497-161.478
						C931.145,1153.561,1003.438,1225.813,1003.438,1315.029z"/>
					<path fill="none" stroke="#FFFFFF" d="M1283.149,1153.588c0,89.162-72.296,161.414-161.393,161.414
						c-89.196,0-161.496-72.252-161.496-161.414c0-89.219,72.3-161.471,161.496-161.471
						C1210.854,992.117,1283.149,1064.369,1283.149,1153.588z"/>
					<path fill="none" stroke="#FFFFFF" d="M1283.137,830.703c0,89.161-72.295,161.414-161.387,161.414
						c-89.201,0-161.496-72.253-161.496-161.414c0-89.218,72.295-161.469,161.496-161.469
						C1210.842,669.234,1283.137,741.485,1283.137,830.703z"/>
					<path fill="none" stroke="#FFFFFF" d="M1003.542,346.382c0,89.161-72.295,161.414-161.384,161.414
						c-89.201,0-161.498-72.253-161.498-161.414c0-89.219,72.294-161.47,161.498-161.47
						C931.247,184.912,1003.542,257.163,1003.542,346.382z"/>
					<path fill="none" stroke="#FFFFFF" d="M444.16,669.275c0,89.16-72.294,161.414-161.386,161.414
						c-89.201,0-161.5-72.254-161.5-161.414c0-89.225,72.296-161.476,161.5-161.476C371.865,507.807,444.16,580.058,444.16,669.275z
						"/>
					<path fill="none" stroke="#FFFFFF" d="M444.148,1315.041c0,89.164-72.295,161.416-161.393,161.416
						c-89.199,0-161.497-72.252-161.497-161.416c0-89.217,72.292-161.467,161.497-161.467
						C371.854,1153.574,444.148,1225.824,444.148,1315.041z"/>
					<path fill="none" stroke="#FFFFFF" d="M1562.901,1315.031c0,89.162-72.296,161.414-161.393,161.414
						c-89.193,0-161.496-72.252-161.496-161.414c0-89.221,72.303-161.471,161.496-161.471
						C1490.605,1153.563,1562.901,1225.813,1562.901,1315.031z"/>
					<path fill="none" stroke="#FFFFFF" d="M1562.891,669.286c0,89.162-72.295,161.414-161.387,161.414
						c-89.201,0-161.496-72.252-161.496-161.414c0-89.218,72.295-161.469,161.496-161.469
						C1490.596,507.817,1562.891,580.068,1562.891,669.286z"/>
					<path fill="none" stroke="#FFFFFF" d="M1003.524,1637.922c0,89.162-72.297,161.416-161.392,161.416
						c-89.201,0-161.498-72.254-161.498-161.416c0-89.217,72.296-161.467,161.498-161.467
						C931.229,1476.455,1003.524,1548.705,1003.524,1637.922z"/>
				</g>
				<g>
					<line fill="none" stroke="#FFFFFF" x1="1121.749" y1="507.792" x2="562.37" y2="507.802"/>
					<line fill="none" stroke="#FFFFFF" x1="562.37" y1="507.802" x2="282.696" y2="992.116"/>
					<line fill="none" stroke="#FFFFFF" x1="422.739" y1="1234.646" x2="562.405" y2="1476.429"/>
					<line fill="none" stroke="#FFFFFF" x1="562.405" y1="1476.429" x2="1119.819" y2="1476.417"/>
					<line fill="none" stroke="#FFFFFF" x1="1119.819" y1="1476.417" x2="1262.995" y2="1231.927"/>
					<line fill="none" stroke="#FFFFFF" x1="1331.554" y1="1113.216" x2="1401.487" y2="992.13"/>
					<line fill="none" stroke="#FFFFFF" x1="1401.487" y1="992.13" x2="1121.749" y2="507.792"/>
					<line fill="none" stroke="#FFFFFF" x1="282.747" y1="749.952" x2="1401.446" y2="749.952"/>
					<line fill="none" stroke="#FFFFFF" x1="842.121" y1="1718.626" x2="842.122" y2="749.952"/>
					<line fill="none" stroke="#FFFFFF" x1="282.678" y1="992.179" x2="1401.487" y2="992.179"/>
					<line fill="none" stroke="#FFFFFF" x1="282.747" y1="749.952" x2="353.112" y2="871.814"/>
					<line fill="none" stroke="#FFFFFF" x1="422.569" y1="749.952" x2="492.475" y2="871.028"/>
					<line fill="none" stroke="#FFFFFF" x1="282.788" y1="1234.304" x2="842.054" y2="265.63"/>
					<line fill="none" stroke="#FFFFFF" x1="562.37" y1="507.802" x2="632.276" y2="628.855"/>
					<line fill="none" stroke="#FFFFFF" x1="702.153" y1="507.898" x2="771.624" y2="628.938"/>
					<line fill="none" stroke="#FFFFFF" x1="842.036" y1="507.792" x2="701.745" y2="749.96"/>
					<line fill="none" stroke="#FFFFFF" x1="842.036" y1="507.792" x2="981.752" y2="749.952"/>
					<line fill="none" stroke="#FFFFFF" x1="701.745" y1="749.96" x2="842.195" y2="992.179"/>
					<line fill="none" stroke="#FFFFFF" x1="842.195" y1="992.179" x2="981.752" y2="749.952"/>
					<line fill="none" stroke="#FFFFFF" x1="701.745" y1="749.96" x2="562.391" y2="992.116"/>
					<line fill="none" stroke="#FFFFFF" x1="562.436" y1="749.847" x2="632.567" y2="871.804"/>
					<line fill="none" stroke="#FFFFFF" x1="1121.741" y1="749.964" x2="1051.108" y2="872.209"/>
					<line fill="none" stroke="#FFFFFF" x1="981.752" y1="749.952" x2="1122.104" y2="993.026"/>
					<line fill="none" stroke="#FFFFFF" x1="1261.655" y1="749.976" x2="1191.444" y2="870.595"/>
					<line fill="none" stroke="#FFFFFF" x1="1121.741" y1="749.964" x2="1261.655" y2="992.105"/>
					<line fill="none" stroke="#FFFFFF" x1="1331.541" y1="871.026" x2="1401.446" y2="749.952"/>
					<line fill="none" stroke="#FFFFFF" x1="981.801" y1="507.867" x2="911.895" y2="628.942"/>
					<line fill="none" stroke="#FFFFFF" x1="841.831" y1="265.63" x2="1121.715" y2="750.007"/>
					<line fill="none" stroke="#FFFFFF" x1="1121.749" y1="507.792" x2="1051.496" y2="628.484"/>
					<line fill="none" stroke="#FFFFFF" x1="282.747" y1="992.128" x2="352.691" y2="1113.229"/>
					<line fill="none" stroke="#FFFFFF" x1="1401.487" y1="1234.304" x2="282.788" y2="1234.304"/>
					<line fill="none" stroke="#FFFFFF" x1="1401.487" y1="1234.302" x2="1261.657" y2="992.13"/>
					<line fill="none" stroke="#FFFFFF" x1="1261.735" y1="992.077" x2="1119.819" y2="1234.296"/>
					<line fill="none" stroke="#FFFFFF" x1="981.752" y1="1476.927" x2="842.178" y2="1718.626"/>
					<line fill="none" stroke="#FFFFFF" x1="1119.819" y1="1476.417" x2="982.491" y2="1235.105"/>
					<line fill="none" stroke="#FFFFFF" x1="842.195" y1="1476.464" x2="982.489" y2="1234.296"/>
					<line fill="none" stroke="#FFFFFF" x1="842.195" y1="1476.464" x2="702.145" y2="1234.29"/>
					<line fill="none" stroke="#FFFFFF" x1="562.493" y1="1234.29" x2="702.284" y2="992.177"/>
					<line fill="none" stroke="#FFFFFF" x1="562.493" y1="1234.292" x2="422.579" y2="992.151"/>
					<line fill="none" stroke="#FFFFFF" x1="842.402" y1="1718.626" x2="702.475" y2="1476.464"/>
					<line fill="none" stroke="#FFFFFF" x1="562.485" y1="1476.464" x2="702.145" y2="1234.29"/>
					<line fill="none" stroke="#FFFFFF" x1="562.493" y1="992.116" x2="562.493" y2="1476.464"/>
					<line fill="none" stroke="#FFFFFF" x1="702.284" y1="992.177" x2="842.195" y2="1234.304"/>
					<line fill="none" stroke="#FFFFFF" x1="842.195" y1="1234.304" x2="981.752" y2="992.179"/>
					<line fill="none" stroke="#FFFFFF" x1="1119.819" y1="1476.417" x2="1121.749" y2="992.396"/>
					<circle fill="none" stroke="#FFFFFF" cx="842.083" cy="992.128" r="726.798"/>
					<line fill="none" stroke="#FFFFFF" x1="981.752" y1="992.179" x2="1119.819" y2="1234.296"/>
				</g>
				<g id="Layer_2">
					<line fill="none" stroke="#FFFFFF" x1="562.37" y1="507.802" x2="1121.749" y2="507.802"/>
					<line fill="none" stroke="#FFFFFF" x1="1121.749" y1="507.802" x2="842.123" y2="992.13"/>
					<line fill="none" stroke="#FFFFFF" x1="841.623" y1="993.026" x2="562.37" y2="507.802"/>
					<line fill="none" stroke="#FFFFFF" x1="842.036" y1="507.792" x2="562.334" y2="992.657"/>
					<line fill="none" stroke="#FFFFFF" x1="422.569" y1="749.952" x2="562.37" y2="507.802"/>
					<line fill="none" stroke="#FFFFFF" x1="1261.655" y1="749.976" x2="1121.749" y2="507.792"/>
					<line fill="none" stroke="#FFFFFF" x1="1261.655" y1="749.976" x2="422.569" y2="749.952"/>
					<line fill="none" stroke="#FFFFFF" x1="702.153" y1="507.898" x2="980.838" y2="992.583"/>
					<line fill="none" stroke="#FFFFFF" x1="1121.27" y1="993.118" x2="1261.655" y2="749.976"/>
					<line fill="none" stroke="#FFFFFF" x1="702.733" y1="993.118" x2="562.436" y2="749.847"/>
					<line fill="none" stroke="#FFFFFF" x1="422.569" y1="749.952" x2="562.567" y2="992.335"/>
					<line fill="none" stroke="#FFFFFF" x1="1120.782" y1="992.105" x2="562.334" y2="992.151"/>
					<line fill="none" stroke="#FFFFFF" x1="982.491" y1="507.792" x2="701.918" y2="993.118"/>
					<line fill="none" stroke="#FFFFFF" x1="702.153" y1="507.898" x2="562.469" y2="749.847"/>
					<line fill="none" stroke="#FFFFFF" x1="562.401" y1="507.802" x2="562.462" y2="992.151"/>
					<line fill="none" stroke="#FFFFFF" x1="981.801" y1="507.83" x2="981.801" y2="992.583"/>
					<line fill="none" stroke="#FFFFFF" x1="702.792" y1="992.351" x2="702.471" y2="507.845"/>
					<line fill="none" stroke="#FFFFFF" x1="842.354" y1="507.792" x2="842.513" y2="992.351"/>
					<line fill="none" stroke="#FFFFFF" x1="981.801" y1="992.451" x2="1121.741" y2="749.964"/>
					<line fill="none" stroke="#FFFFFF" x1="981.801" y1="507.867" x2="1121.741" y2="749.964"/>
					<line fill="none" stroke="#FFFFFF" x1="842.036" y1="507.792" x2="1120.782" y2="990.743"/>
					<line fill="none" stroke="#FFFFFF" x1="1119.819" y1="992.328" x2="1121.749" y2="507.792"/>
				</g>
				<g id="Layer_2_2_">
					<line fill="none" stroke="#FFFFFF" x1="562.37" y1="993.128" x2="1121.749" y2="993.128"/>
					<line fill="none" stroke="#FFFFFF" x1="1121.749" y1="993.128" x2="842.123" y2="1477.456"/>
					<line fill="none" stroke="#FFFFFF" x1="841.623" y1="1478.353" x2="562.37" y2="993.128"/>
					<line fill="none" stroke="#FFFFFF" x1="842.036" y1="993.118" x2="562.334" y2="1477.983"/>
					<line fill="none" stroke="#FFFFFF" x1="422.569" y1="1235.278" x2="562.37" y2="993.128"/>
					<line fill="none" stroke="#FFFFFF" x1="1261.655" y1="1235.302" x2="1121.749" y2="993.118"/>
					<line fill="none" stroke="#FFFFFF" x1="1261.655" y1="1235.302" x2="422.569" y2="1235.278"/>
					<line fill="none" stroke="#FFFFFF" x1="702.153" y1="993.225" x2="980.838" y2="1477.909"/>
					<line fill="none" stroke="#FFFFFF" x1="1121.27" y1="1478.444" x2="1261.655" y2="1235.302"/>
					<line fill="none" stroke="#FFFFFF" x1="702.733" y1="1478.444" x2="562.436" y2="1235.173"/>
					<line fill="none" stroke="#FFFFFF" x1="422.569" y1="1235.278" x2="562.567" y2="1477.661"/>
					<line fill="none" stroke="#FFFFFF" x1="1120.782" y1="1477.432" x2="562.334" y2="1477.478"/>
					<line fill="none" stroke="#FFFFFF" x1="982.491" y1="993.118" x2="701.918" y2="1478.444"/>
					<line fill="none" stroke="#FFFFFF" x1="702.153" y1="993.225" x2="562.469" y2="1235.173"/>
					<line fill="none" stroke="#FFFFFF" x1="562.401" y1="993.128" x2="562.462" y2="1477.478"/>
					<line fill="none" stroke="#FFFFFF" x1="981.801" y1="993.156" x2="981.801" y2="1477.909"/>
					<line fill="none" stroke="#FFFFFF" x1="702.792" y1="1477.677" x2="702.471" y2="993.171"/>
					<line fill="none" stroke="#FFFFFF" x1="842.354" y1="993.118" x2="842.513" y2="1477.677"/>
					<line fill="none" stroke="#FFFFFF" x1="981.801" y1="1477.777" x2="1121.741" y2="1235.29"/>
					<line fill="none" stroke="#FFFFFF" x1="981.801" y1="993.193" x2="1121.741" y2="1235.29"/>
					<line fill="none" stroke="#FFFFFF" x1="842.036" y1="993.118" x2="1120.782" y2="1476.069"/>
					<line fill="none" stroke="#FFFFFF" x1="1119.819" y1="1477.654" x2="1121.749" y2="993.118"/>
				</g>
			</g>
			<g id="sixtyFour">
				<g>
					<line fill="none" stroke="#FFFFFF" stroke-width="6" x1="562.469" y1="470.193" x2="1121.715" y2="470.354"/>
					<line fill="none" stroke="#FFFFFF" stroke-width="6" x1="422.533" y1="991.958" x2="1259.007" y2="992.197"/>
					<path fill="none" stroke="#FFFFFF" stroke-width="6" d="M1261.646,992.123c83.531,48.369,139.723,138.712,139.723,242.181
						c0,154.449-125.205,279.653-279.653,279.653c-154.449,0-279.653-125.204-279.653-279.653
						c0-103.449,56.17-193.779,139.677-242.154"/>
					<path fill="none" stroke="#FFFFFF" stroke-width="6" d="M981.755,992.171c-83.516-48.372-139.693-138.707-139.693-242.164
						c0-154.449,125.204-279.653,279.653-279.653c154.448,0,279.653,125.205,279.653,279.653
						c0,103.451-56.173,193.782-139.68,242.155"/>
					<path fill="none" stroke="#FFFFFF" stroke-width="6" d="M1121.671,992.274c83.343,48.416,139.381,138.655,139.381,241.982
						c0,154.449-125.205,279.653-279.653,279.653c-154.449,0-279.653-125.204-279.653-279.653
						c0-103.675,56.416-194.172,140.223-242.469"/>
					<path fill="none" stroke="#FFFFFF" stroke-width="6" d="M841.954,992.421c-83.8-48.299-140.209-138.792-140.209-242.461
						c0-154.449,125.205-279.653,279.653-279.653c154.448,0,279.653,125.205,279.653,279.653
						c0,103.332-56.043,193.574-139.392,241.989"/>
					<path fill="none" stroke="#FFFFFF" stroke-width="6" d="M981.875,991.966c83.63,48.343,139.9,138.741,139.9,242.283
						c0,154.449-125.205,279.653-279.653,279.653c-154.449,0-279.653-125.204-279.653-279.653
						c0-103.48,56.204-193.832,139.75-242.196"/>
					<path fill="none" stroke="#FFFFFF" stroke-width="6" d="M702.176,992.123c-83.522-48.37-139.707-138.709-139.707-242.171
						c0-154.449,125.205-279.653,279.653-279.653c154.448,0,279.653,125.205,279.653,279.653
						c0,103.923-56.687,194.606-140.826,242.815"/>
					<path fill="none" stroke="#FFFFFF" stroke-width="6" d="M841.772,992.131c83.478,48.382,139.626,138.696,139.626,242.126
						c0,154.449-125.205,279.653-279.653,279.653c-154.449,0-279.653-125.204-279.653-279.653
						c0-103.736,56.481-194.279,140.37-242.554"/>
					<path fill="none" stroke="#FFFFFF" stroke-width="6" d="M422.504,992.007c-83.513-48.373-139.688-138.706-139.688-242.16
						c0-154.449,125.205-279.653,279.653-279.653c154.448,0,279.653,125.205,279.653,279.653
						c0,103.531-56.26,193.922-139.875,242.269"/>
					<path fill="none" stroke="#FFFFFF" stroke-width="6" d="M702.306,991.908c83.583,48.354,139.816,138.728,139.816,242.235
						c0,154.449-125.205,279.653-279.653,279.653c-154.449,0-279.653-125.204-279.653-279.653
						c0-103.468,56.19-193.812,139.721-242.18"/>
					<path fill="none" stroke="#FFFFFF" stroke-width="6" d="M562.111,992.313c-83.695-48.325-140.02-138.761-140.02-242.353
						c0-154.449,125.205-279.653,279.653-279.653c154.448,0,279.653,125.205,279.653,279.653
						c0,103.313-56.022,193.541-139.346,241.962"/>
				</g>
			</g>
			<g id="hexagon">
				<polygon fill="#FFFFFF" fill-opacity="0" stroke="#FFE86D" stroke-miterlimit="10" stroke-opacity="0" points="1.099,506.579 
					842.079,21.033 1683.069,506.579 1683.069,1477.671 842.079,1963.217 1.099,1477.671 				"/>
			</g>
		</g>
	</g>
</g>
<g id="Layer_2_1_" display="none">
	<g display="inline">
		<circle fill="none" stroke="#FFFFFF" stroke-width="6" cx="842.122" cy="749.952" r="279.653"/>
		<circle fill="none" stroke="#FFFFFF" stroke-width="6" cx="701.745" cy="749.96" r="279.653"/>
		<circle fill="none" stroke="#FFFFFF" stroke-width="6" cx="562.469" cy="749.847" r="279.653"/>
		<circle fill="none" stroke="#FFFFFF" stroke-width="6" cx="981.398" cy="749.96" r="279.653"/>
		<circle fill="none" stroke="#FFFFFF" stroke-width="6" cx="1121.715" cy="750.007" r="279.653"/>
		<line fill="none" stroke="#FFFFFF" stroke-width="6" x1="562.469" y1="470.193" x2="1121.715" y2="470.354"/>
	</g>
	<g display="inline">
		<circle fill="none" stroke="#FFFFFF" stroke-width="6" cx="842.122" cy="1234.249" r="279.653"/>
		<circle fill="none" stroke="#FFFFFF" stroke-width="6" cx="701.745" cy="1234.257" r="279.653"/>
		<circle fill="none" stroke="#FFFFFF" stroke-width="6" cx="562.469" cy="1234.144" r="279.653"/>
		<circle fill="none" stroke="#FFFFFF" stroke-width="6" cx="981.398" cy="1234.257" r="279.653"/>
		<circle fill="none" stroke="#FFFFFF" stroke-width="6" cx="1121.715" cy="1234.304" r="279.653"/>
		<line fill="none" stroke="#FFFFFF" stroke-width="6" x1="422.533" y1="991.958" x2="1259.007" y2="992.197"/>
	</g>
</g>
</svg>
