<?xml version="1.0" encoding="utf-8"?>
<!-- Generator: Adobe Illustrator 16.0.0, SVG Export Plug-In . SVG Version: 6.00 Build 0)  -->
<!DOCTYPE svg PUBLIC "-//W3C//DTD SVG 1.1//EN" "http://www.w3.org/Graphics/SVG/1.1/DTD/svg11.dtd">
<svg version="1.1" id="Layer_1" xmlns="http://www.w3.org/2000/svg" xmlns:xlink="http://www.w3.org/1999/xlink" x="0px" y="0px"
	 width="1687px" height="1984px" viewBox="0 0 1687 1984" enable-background="new 0 0 1687 1984" xml:space="preserve">
<g id="_x36_4Tetra3DFullGroup">
	<g id="back" display="none">
		<rect id="image" x="-1.475" display="inline" fill="#130E22" width="1687" height="1984.252"/>
	</g>
	<g id="fruit">
		<g>
			<path fill="none" stroke="#FFFFFF" d="M1004.842,992c0,89.117-72.345,161.362-161.382,161.362
				c-89.198,0-161.342-72.325-161.342-161.362c0-89.218,72.285-161.442,161.342-161.442
				C932.518,830.558,1004.842,902.782,1004.842,992z"/>
			<path fill="none" stroke="#FFFFFF" d="M1004.842,669.135c0,89.178-72.345,161.383-161.382,161.383
				c-89.198,0-161.342-72.225-161.342-161.383c0-89.197,72.285-161.342,161.342-161.342
				C932.518,507.793,1004.842,579.978,1004.842,669.135z"/>
			<path fill="none" stroke="#FFFFFF" d="M725.232,830.578c0,89.198-72.345,161.382-161.362,161.382
				c-89.258,0-161.342-72.325-161.342-161.382c0-89.198,72.325-161.443,161.342-161.443
				C652.907,669.095,725.232,741.4,725.232,830.578z"/>
			<path fill="none" stroke="#FFFFFF" d="M725.232,1153.463c0,89.157-72.345,161.342-161.362,161.342
				c-89.258,0-161.342-72.225-161.342-161.342c0-89.278,72.325-161.463,161.342-161.463
				C652.907,991.96,725.232,1064.185,725.232,1153.463z"/>
			<path fill="none" stroke="#FFFFFF" d="M1004.842,1314.845c0,89.198-72.345,161.402-161.382,161.402
				c-89.198,0-161.342-72.244-161.342-161.402c0-89.197,72.285-161.442,161.342-161.442
				C932.518,1153.402,1004.842,1225.647,1004.842,1314.845z"/>
			<path fill="none" stroke="#FFFFFF" d="M1284.513,1153.463c0,89.157-72.325,161.342-161.342,161.342
				c-89.178,0-161.463-72.225-161.463-161.342c0-89.238,72.345-161.463,161.463-161.463
				C1212.228,991.96,1284.513,1064.225,1284.513,1153.463z"/>
			<path fill="none" stroke="#FFFFFF" d="M1284.513,830.578c0,89.198-72.325,161.382-161.342,161.382
				c-89.238,0-161.463-72.325-161.463-161.382c0-89.198,72.345-161.443,161.463-161.443
				C1212.208,669.095,1284.513,741.4,1284.513,830.578z"/>
			<path fill="none" stroke="#FFFFFF" d="M1004.963,346.35c0,89.138-72.346,161.362-161.362,161.362
				c-89.318,0-161.342-72.345-161.342-161.362c0-89.258,72.265-161.502,161.342-161.502
				C932.678,184.848,1004.963,257.133,1004.963,346.35z"/>
			<path fill="none" stroke="#FFFFFF" d="M445.622,669.135c0,89.178-72.325,161.383-161.342,161.383
				c-89.458,0-161.503-72.225-161.503-161.383c0-89.197,72.345-161.342,161.503-161.342
				C373.316,507.692,445.622,579.978,445.622,669.135z"/>
			<path fill="none" stroke="#FFFFFF" d="M445.622,1314.845c0,89.198-72.325,161.402-161.342,161.402
				c-89.458,0-161.523-72.244-161.523-161.402c0-89.197,72.345-161.382,161.523-161.382
				C373.316,1153.463,445.622,1225.647,445.622,1314.845z"/>
			<path fill="none" stroke="#FFFFFF" d="M1564.243,1314.845c0,89.198-72.325,161.402-161.362,161.402
				c-89.378,0-161.342-72.244-161.342-161.402c0-89.197,72.345-161.442,161.342-161.442
				C1491.918,1153.402,1564.243,1225.647,1564.243,1314.845z"/>
			<path fill="none" stroke="#FFFFFF" d="M1564.243,669.195c0,89.157-72.325,161.342-161.362,161.342
				c-89.378,0-161.342-72.185-161.342-161.342c0-89.258,72.345-161.463,161.342-161.463
				C1491.918,507.732,1564.243,579.978,1564.243,669.195z"/>
			<path fill="none" stroke="#FFFFFF" d="M1004.923,1637.71c0,89.157-72.346,161.442-161.363,161.442
				c-89.338,0-161.502-72.305-161.502-161.442c0-89.258,72.345-161.442,161.502-161.442
				C932.678,1476.268,1004.923,1548.492,1004.923,1637.71z"/>
		</g>
		<g id="metatrons_cube_13_">
			<line fill="none" stroke="#FFFFFF" x1="564.327" y1="1153.736" x2="285.119" y2="1314.331"/>
			<line fill="none" stroke="#FFFFFF" x1="285.119" y1="669.669" x2="1401.881" y2="669.669"/>
			<line fill="none" stroke="#FFFFFF" x1="285.119" y1="1314.331" x2="1401.881" y2="1314.291"/>
			<line fill="none" stroke="#FFFFFF" x1="843.535" y1="347.398" x2="285.119" y2="1314.331"/>
			<line fill="none" stroke="#FFFFFF" x1="843.535" y1="347.398" x2="1401.881" y2="1314.291"/>
			<line fill="none" stroke="#FFFFFF" x1="1401.881" y1="669.669" x2="843.495" y2="1636.602"/>
			<line fill="none" stroke="#FFFFFF" x1="285.119" y1="669.669" x2="843.495" y2="1636.602"/>
			<line fill="none" stroke="#FFFFFF" x1="285.119" y1="669.669" x2="619.888" y2="734.644"/>
			<line fill="none" stroke="#FFFFFF" x1="285.119" y1="669.669" x2="508.505" y2="927.606"/>
			<line fill="none" stroke="#FFFFFF" x1="1401.881" y1="669.669" x2="1066.871" y2="734.143"/>
			<line fill="none" stroke="#FFFFFF" x1="843.535" y1="347.398" x2="954.867" y2="670.51"/>
			<line fill="none" stroke="#FFFFFF" x1="843.535" y1="347.398" x2="731.551" y2="670.51"/>
			<line fill="none" stroke="#FFFFFF" x1="285.119" y1="1314.331" x2="619.647" y2="1249.957"/>
			<line fill="none" stroke="#FFFFFF" x1="285.119" y1="1314.331" x2="508.505" y2="1057.075"/>
			<line fill="none" stroke="#FFFFFF" x1="843.495" y1="1636.602" x2="954.867" y2="1315.132"/>
			<line fill="none" stroke="#FFFFFF" x1="285.119" y1="669.669" x2="564.287" y2="830.824"/>
			<line fill="none" stroke="#FFFFFF" x1="1122.633" y1="1153.136" x2="1401.881" y2="1314.291"/>
			<line fill="none" stroke="#FFFFFF" x1="1401.881" y1="1314.291" x2="1066.511" y2="1250.438"/>
			<line fill="none" stroke="#FFFFFF" x1="1401.881" y1="1314.291" x2="1178.234" y2="1056.955"/>
			<line fill="none" stroke="#FFFFFF" x1="1401.881" y1="669.669" x2="1178.595" y2="927.606"/>
			<line fill="none" stroke="#FFFFFF" x1="843.535" y1="1315.132" x2="843.495" y2="1636.602"/>
			<line fill="none" stroke="#FFFFFF" x1="843.535" y1="347.398" x2="843.535" y2="669.669"/>
			<line fill="none" stroke="#FFFFFF" x1="843.495" y1="1636.602" x2="731.551" y2="1315.132"/>
			<line fill="none" stroke="#FFFFFF" x1="1401.881" y1="669.669" x2="1122.713" y2="831.465"/>
		</g>
		<g id="metatrons_cube_14_">
			<line fill="none" stroke="#FFFFFF" x1="703.55" y1="1073.059" x2="563.605" y2="1153.576"/>
			<line fill="none" stroke="#FFFFFF" x1="563.605" y1="830.444" x2="1123.394" y2="830.444"/>
			<line fill="none" stroke="#FFFFFF" x1="563.605" y1="1153.576" x2="1123.394" y2="1153.556"/>
			<line fill="none" stroke="#FFFFFF" x1="843.515" y1="668.868" x2="563.605" y2="1153.576"/>
			<line fill="none" stroke="#FFFFFF" x1="843.515" y1="668.868" x2="1123.394" y2="1153.556"/>
			<line fill="none" stroke="#FFFFFF" x1="1123.394" y1="830.444" x2="843.495" y2="1315.132"/>
			<line fill="none" stroke="#FFFFFF" x1="563.605" y1="830.444" x2="843.495" y2="1315.132"/>
			<line fill="none" stroke="#FFFFFF" x1="563.605" y1="830.444" x2="731.431" y2="863.012"/>
			<line fill="none" stroke="#FFFFFF" x1="563.605" y1="830.444" x2="675.569" y2="959.733"/>
			<line fill="none" stroke="#FFFFFF" x1="1123.394" y1="830.444" x2="955.469" y2="862.731"/>
			<line fill="none" stroke="#FFFFFF" x1="843.515" y1="668.868" x2="899.307" y2="830.845"/>
			<line fill="none" stroke="#FFFFFF" x1="843.515" y1="668.868" x2="787.373" y2="830.845"/>
			<line fill="none" stroke="#FFFFFF" x1="563.605" y1="1153.576" x2="731.291" y2="1121.309"/>
			<line fill="none" stroke="#FFFFFF" x1="563.605" y1="1153.576" x2="675.569" y2="1024.628"/>
			<line fill="none" stroke="#FFFFFF" x1="843.495" y1="1315.132" x2="899.307" y2="1153.977"/>
			<line fill="none" stroke="#FFFFFF" x1="563.605" y1="830.444" x2="703.55" y2="911.202"/>
			<line fill="none" stroke="#FFFFFF" x1="983.43" y1="1072.778" x2="1123.394" y2="1153.556"/>
			<line fill="none" stroke="#FFFFFF" x1="1123.394" y1="1153.556" x2="955.269" y2="1121.569"/>
			<line fill="none" stroke="#FFFFFF" x1="1123.394" y1="1153.556" x2="1011.31" y2="1024.567"/>
			<line fill="none" stroke="#FFFFFF" x1="1123.394" y1="830.444" x2="1011.47" y2="959.733"/>
			<line fill="none" stroke="#FFFFFF" x1="843.515" y1="1153.977" x2="843.495" y2="1315.132"/>
			<line fill="none" stroke="#FFFFFF" x1="843.515" y1="668.868" x2="843.515" y2="830.444"/>
			<line fill="none" stroke="#FFFFFF" x1="843.495" y1="1315.132" x2="787.373" y2="1153.977"/>
			<line fill="none" stroke="#FFFFFF" x1="1123.394" y1="830.444" x2="983.47" y2="911.522"/>
		</g>
	</g>
	<g id="sixtyFour">
		<g>
			<g id="small_2_">
				<g id="dodecahedron_2_">
					<line fill="none" stroke="#FFFFFF" x1="843.395" y1="884.283" x2="843.395" y2="992.06"/>
					<line fill="none" stroke="#FFFFFF" x1="843.395" y1="992.06" x2="936.641" y2="1045.858"/>
					<line fill="none" stroke="#FFFFFF" x1="843.395" y1="992.06" x2="750.198" y2="1045.898"/>
					<line fill="none" stroke="#FFFFFF" x1="787.072" y1="830.464" x2="899.627" y2="830.464"/>
					<line fill="none" stroke="#FFFFFF" x1="787.373" y1="1153.637" x2="899.627" y2="1153.637"/>
					<path fill="none" stroke="#FFFFFF" d="M703.39,1072.818"/>
					<path fill="none" stroke="#FFFFFF" d="M703.39,911.222"/>
					<line fill="none" stroke="#FFFFFF" x1="731.431" y1="862.751" x2="675.429" y2="959.733"/>
					<line fill="none" stroke="#FFFFFF" x1="955.309" y1="862.751" x2="1011.31" y2="959.733"/>
					<line fill="none" stroke="#FFFFFF" x1="1011.31" y1="1024.308" x2="955.269" y2="1121.309"/>
					<line fill="none" stroke="#FFFFFF" x1="675.429" y1="1024.348" x2="731.431" y2="1121.309"/>
					<line fill="none" stroke="#FFFFFF" x1="675.429" y1="959.733" x2="750.198" y2="1045.898"/>
					<line fill="none" stroke="#FFFFFF" x1="955.309" y1="862.751" x2="843.395" y2="884.283"/>
					<line fill="none" stroke="#FFFFFF" x1="1011.31" y1="959.733" x2="936.641" y2="1045.858"/>
					<line fill="none" stroke="#FFFFFF" x1="787.373" y1="1153.637" x2="750.198" y2="1045.898"/>
					<line fill="none" stroke="#FFFFFF" x1="787.373" y1="830.444" x2="731.431" y2="862.751"/>
					<line fill="none" stroke="#FFFFFF" x1="899.307" y1="830.464" x2="955.309" y2="862.751"/>
					<path fill="none" stroke="#FFFFFF" d="M843.395,668.888"/>
					<line fill="none" stroke="#FFFFFF" x1="675.429" y1="959.733" x2="675.429" y2="1024.348"/>
					<line fill="none" stroke="#FFFFFF" x1="731.431" y1="1121.309" x2="787.373" y2="1153.637"/>
					<line fill="none" stroke="#FFFFFF" x1="899.627" y1="1153.637" x2="955.269" y2="1121.309"/>
					<line fill="none" stroke="#FFFFFF" x1="1011.31" y1="959.733" x2="1011.31" y2="1024.308"/>
					<line fill="none" stroke="#FFFFFF" x1="731.431" y1="862.751" x2="843.395" y2="884.283"/>
					<line fill="none" stroke="#FFFFFF" x1="899.627" y1="1153.637" x2="936.641" y2="1045.858"/>
				</g>
			</g>
			<g id="big_2_">
				<g id="dodecahedron_3_">
					<line fill="none" stroke="#FFFFFF" x1="843.314" y1="777.126" x2="843.314" y2="992.1"/>
					<line fill="none" stroke="#FFFFFF" x1="843.314" y1="992.1" x2="1029.296" y2="1099.457"/>
					<line fill="none" stroke="#FFFFFF" x1="843.314" y1="992.1" x2="657.383" y2="1099.497"/>
					<line fill="none" stroke="#FFFFFF" x1="730.93" y1="669.709" x2="955.469" y2="669.709"/>
					<line fill="none" stroke="#FFFFFF" x1="731.551" y1="1314.451" x2="955.469" y2="1314.451"/>
					<path fill="none" stroke="#FFFFFF" d="M563.986,1153.176"/>
					<path fill="none" stroke="#FFFFFF" d="M563.986,830.864"/>
					<line fill="none" stroke="#FFFFFF" x1="619.888" y1="734.183" x2="508.185" y2="927.606"/>
					<line fill="none" stroke="#FFFFFF" x1="1066.511" y1="734.183" x2="1178.234" y2="927.606"/>
					<line fill="none" stroke="#FFFFFF" x1="1178.234" y1="1056.454" x2="1066.511" y2="1249.957"/>
					<line fill="none" stroke="#FFFFFF" x1="508.185" y1="1056.515" x2="619.888" y2="1249.957"/>
					<line fill="none" stroke="#FFFFFF" x1="508.185" y1="927.606" x2="657.383" y2="1099.497"/>
					<line fill="none" stroke="#FFFFFF" x1="1066.511" y1="734.183" x2="843.314" y2="777.126"/>
					<line fill="none" stroke="#FFFFFF" x1="1178.234" y1="927.606" x2="1029.296" y2="1099.457"/>
					<line fill="none" stroke="#FFFFFF" x1="731.551" y1="1314.451" x2="657.383" y2="1099.497"/>
					<line fill="none" stroke="#FFFFFF" x1="731.551" y1="669.669" x2="619.888" y2="734.183"/>
					<line fill="none" stroke="#FFFFFF" x1="954.867" y1="669.709" x2="1066.511" y2="734.183"/>
					<path fill="none" stroke="#FFFFFF" d="M843.234,347.438"/>
					<line fill="none" stroke="#FFFFFF" x1="508.185" y1="927.606" x2="508.185" y2="1056.515"/>
					<line fill="none" stroke="#FFFFFF" x1="619.888" y1="1249.957" x2="731.551" y2="1314.451"/>
					<line fill="none" stroke="#FFFFFF" x1="955.469" y1="1314.451" x2="1066.511" y2="1249.957"/>
					<line fill="none" stroke="#FFFFFF" x1="1178.234" y1="927.606" x2="1178.234" y2="1056.454"/>
					<line fill="none" stroke="#FFFFFF" x1="619.888" y1="734.183" x2="843.314" y2="777.126"/>
					<line fill="none" stroke="#FFFFFF" x1="955.469" y1="1314.451" x2="1029.296" y2="1099.457"/>
				</g>
			</g>
		</g>
	</g>
	<g id="hexagon">
		<polygon display="none" fill="#FFFFFF" fill-opacity="0" stroke="#FFE86D" stroke-miterlimit="10" stroke-opacity="0" points="
			-7,507 834,21 1675,507 1675,1478 834,1963 -7,1478 		"/>
	</g>
</g>
</svg>
