<?xml version="1.0" encoding="utf-8"?>
<!-- Generator: Adobe Illustrator 16.0.0, SVG Export Plug-In . SVG Version: 6.00 Build 0)  -->
<!DOCTYPE svg PUBLIC "-//W3C//DTD SVG 1.1//EN" "http://www.w3.org/Graphics/SVG/1.1/DTD/svg11.dtd">
<svg version="1.1" id="Layer_1" xmlns="http://www.w3.org/2000/svg" xmlns:xlink="http://www.w3.org/1999/xlink" x="0px" y="0px"
	 width="1684.051px" height="1984.252px" viewBox="0 0 1684.051 1984.252" enable-background="new 0 0 1684.051 1984.252"
	 xml:space="preserve">
<g id="_x36_4Tetra3DFullGroup">
	<g id="back" display="none">
		<rect id="image" y="-13.988" display="inline" fill="#130E22" width="1684.052" height="2012.229"/>
	</g>
	<g id="fruit">
		<g>
			<line fill="none" stroke="#FFFFFF" x1="1121.749" y1="507.792" x2="562.37" y2="507.802"/>
			<line fill="none" stroke="#FFFFFF" x1="562.37" y1="507.802" x2="282.696" y2="992.116"/>
			<line fill="none" stroke="#FFFFFF" x1="422.739" y1="1234.646" x2="562.405" y2="1476.429"/>
			<line fill="none" stroke="#FFFFFF" x1="562.405" y1="1476.429" x2="1119.819" y2="1476.417"/>
			<line fill="none" stroke="#FFFFFF" x1="1119.819" y1="1476.417" x2="1262.995" y2="1231.927"/>
			<line fill="none" stroke="#FFFFFF" x1="1331.554" y1="1113.216" x2="1401.487" y2="992.13"/>
			<line fill="none" stroke="#FFFFFF" x1="1401.487" y1="992.13" x2="1121.749" y2="507.792"/>
			<line fill="none" stroke="#FFFFFF" x1="282.747" y1="749.952" x2="1401.446" y2="749.952"/>
			<line fill="none" stroke="#FFFFFF" x1="842.121" y1="1718.626" x2="842.122" y2="749.952"/>
			<line fill="none" stroke="#FFFFFF" x1="282.678" y1="992.179" x2="1401.487" y2="992.179"/>
			<line fill="none" stroke="#FFFFFF" x1="282.747" y1="749.952" x2="353.112" y2="871.814"/>
			<line fill="none" stroke="#FFFFFF" x1="422.569" y1="749.952" x2="492.475" y2="871.028"/>
			<line fill="none" stroke="#FFFFFF" x1="282.788" y1="1234.304" x2="842.054" y2="265.63"/>
			<line fill="none" stroke="#FFFFFF" x1="562.37" y1="507.802" x2="632.276" y2="628.855"/>
			<line fill="none" stroke="#FFFFFF" x1="702.153" y1="507.898" x2="771.624" y2="628.938"/>
			<line fill="none" stroke="#FFFFFF" x1="842.036" y1="507.792" x2="701.745" y2="749.96"/>
			<line fill="none" stroke="#FFFFFF" x1="842.036" y1="507.792" x2="981.752" y2="749.952"/>
			<line fill="none" stroke="#FFFFFF" x1="701.745" y1="749.96" x2="842.195" y2="992.179"/>
			<line fill="none" stroke="#FFFFFF" x1="842.195" y1="992.179" x2="981.752" y2="749.952"/>
			<line fill="none" stroke="#FFFFFF" x1="701.745" y1="749.96" x2="562.391" y2="992.116"/>
			<line fill="none" stroke="#FFFFFF" x1="562.436" y1="749.847" x2="632.567" y2="871.804"/>
			<line fill="none" stroke="#FFFFFF" x1="1121.741" y1="749.964" x2="1051.108" y2="872.209"/>
			<line fill="none" stroke="#FFFFFF" x1="981.752" y1="749.952" x2="1122.104" y2="993.026"/>
			<line fill="none" stroke="#FFFFFF" x1="1261.655" y1="749.976" x2="1191.444" y2="870.595"/>
			<line fill="none" stroke="#FFFFFF" x1="1121.741" y1="749.964" x2="1261.655" y2="992.105"/>
			<line fill="none" stroke="#FFFFFF" x1="1331.541" y1="871.026" x2="1401.446" y2="749.952"/>
			<line fill="none" stroke="#FFFFFF" x1="981.801" y1="507.867" x2="911.895" y2="628.942"/>
			<line fill="none" stroke="#FFFFFF" x1="841.831" y1="265.63" x2="1121.715" y2="750.007"/>
			<line fill="none" stroke="#FFFFFF" x1="1121.749" y1="507.792" x2="1051.496" y2="628.484"/>
			<line fill="none" stroke="#FFFFFF" x1="282.747" y1="992.128" x2="352.691" y2="1113.229"/>
			<line fill="none" stroke="#FFFFFF" x1="1401.487" y1="1234.304" x2="282.788" y2="1234.304"/>
			<line fill="none" stroke="#FFFFFF" x1="1401.487" y1="1234.302" x2="1261.657" y2="992.13"/>
			<line fill="none" stroke="#FFFFFF" x1="1261.735" y1="992.077" x2="1119.819" y2="1234.296"/>
			<line fill="none" stroke="#FFFFFF" x1="981.752" y1="1476.927" x2="842.178" y2="1718.626"/>
			<line fill="none" stroke="#FFFFFF" x1="1119.819" y1="1476.417" x2="982.491" y2="1235.105"/>
			<line fill="none" stroke="#FFFFFF" x1="842.195" y1="1476.464" x2="982.489" y2="1234.296"/>
			<line fill="none" stroke="#FFFFFF" x1="842.195" y1="1476.464" x2="702.145" y2="1234.29"/>
			<line fill="none" stroke="#FFFFFF" x1="562.493" y1="1234.29" x2="702.284" y2="992.177"/>
			<line fill="none" stroke="#FFFFFF" x1="562.493" y1="1234.292" x2="422.579" y2="992.151"/>
			<line fill="none" stroke="#FFFFFF" x1="842.402" y1="1718.626" x2="702.475" y2="1476.464"/>
			<line fill="none" stroke="#FFFFFF" x1="562.485" y1="1476.464" x2="702.145" y2="1234.29"/>
			<line fill="none" stroke="#FFFFFF" x1="562.493" y1="992.116" x2="562.493" y2="1476.464"/>
			<line fill="none" stroke="#FFFFFF" x1="702.284" y1="992.177" x2="842.195" y2="1234.304"/>
			<line fill="none" stroke="#FFFFFF" x1="842.195" y1="1234.304" x2="981.752" y2="992.179"/>
			<line fill="none" stroke="#FFFFFF" x1="1119.819" y1="1476.417" x2="1121.749" y2="992.396"/>
			<line fill="none" stroke="#FFFFFF" x1="981.752" y1="992.179" x2="1119.819" y2="1234.296"/>
		</g>
		<g>
			<path fill="none" stroke="#FFFFFF" d="M1003.26,992.268c0,89.435-72.331,161.333-161.345,161.333
				c-89.191,0-161.347-72.322-161.347-161.333c0-89.253,72.271-161.354,161.347-161.354
				C931.009,830.793,1003.26,903.014,1003.26,992.268z"/>
			<path fill="none" stroke="#FFFFFF" d="M1003.26,669.379c0,89.215-72.331,161.333-161.345,161.333
				c-89.191,0-161.347-72.319-161.347-161.333c0-89.452,72.271-161.354,161.347-161.354
				C931.009,507.944,1003.26,580.227,1003.26,669.379z"/>
			<path fill="none" stroke="#FFFFFF" d="M723.676,830.793c0,89.271-72.331,161.354-161.346,161.354
				c-89.283,0-161.348-72.34-161.348-161.354c0-89.214,72.332-161.332,161.348-161.332
				C651.365,669.339,723.676,741.579,723.676,830.793z"/>
			<path fill="none" stroke="#FFFFFF" d="M723.676,1153.659c0,89.354-72.331,161.335-161.346,161.335
				c-89.283,0-161.348-72.341-161.348-161.335c0-89.392,72.332-161.352,161.348-161.352
				C651.365,992.209,723.676,1064.368,723.676,1153.659z"/>
			<path fill="none" stroke="#FFFFFF" d="M1003.26,1315.055c0,89.451-72.331,161.354-161.345,161.354
				c-89.191,0-161.347-72.341-161.347-161.354c0-89.415,72.271-161.335,161.347-161.335
				C931.009,1153.623,1003.26,1225.842,1003.26,1315.055z"/>
			<path fill="none" stroke="#FFFFFF" d="M1282.925,1153.659c0,89.354-72.33,161.335-161.345,161.335
				c-89.191,0-161.348-72.341-161.348-161.335c0-89.352,72.332-161.352,161.348-161.352
				C1210.595,992.308,1282.925,1064.406,1282.925,1153.659z"/>
			<path fill="none" stroke="#FFFFFF" d="M1282.925,830.793c0,89.271-72.33,161.354-161.345,161.354
				c-89.191,0-161.348-72.34-161.348-161.354c0-89.214,72.332-161.332,161.348-161.332
				C1210.595,669.438,1282.925,741.579,1282.925,830.793z"/>
			<path fill="none" stroke="#FFFFFF" d="M1003.36,346.592c0,89.11-72.331,161.334-161.343,161.334
				c-89.424,0-161.345-72.322-161.345-161.334c0-89.453,72.332-161.535,161.345-161.535
				C931.129,185.119,1003.36,257.317,1003.36,346.592z"/>
			<path fill="none" stroke="#FFFFFF" d="M444.08,669.419c0,89.148-72.331,161.334-161.346,161.334
				c-89.214,0-161.346-72.319-161.346-161.334c0-89.23,72.332-161.354,161.346-161.354
				C371.768,507.944,444.08,580.227,444.08,669.419z"/>
			<path fill="none" stroke="#FFFFFF" d="M444.08,1315.055c0,89.451-72.331,161.354-161.346,161.354
				c-89.214,0-161.346-72.341-161.346-161.354c0-89.415,72.332-161.335,161.346-161.335
				C371.749,1153.72,444.08,1225.842,444.08,1315.055z"/>
			<path fill="none" stroke="#FFFFFF" d="M1562.662,1315.055c0,89.451-72.333,161.354-161.349,161.354
				c-89.439,0-161.438-72.341-161.438-161.354c0-89.415,72.331-161.335,161.438-161.335
				C1490.329,1153.623,1562.662,1225.842,1562.662,1315.055z"/>
			<path fill="none" stroke="#FFFFFF" d="M1562.662,669.419c0,89.214-72.333,161.334-161.349,161.334
				c-89.439,0-161.438-72.319-161.438-161.334c0-89.23,72.331-161.354,161.438-161.354
				C1490.329,507.985,1562.662,580.227,1562.662,669.419z"/>
			<path fill="none" stroke="#FFFFFF" d="M1003.321,1637.842c0,89.174-72.331,161.354-161.344,161.354
				c-89.44,0-161.344-72.341-161.344-161.354c0-89.438,72.291-161.354,161.344-161.354
				C931.091,1476.449,1003.321,1548.688,1003.321,1637.842z"/>
		</g>
	</g>
	<g id="sixtyFour">
		<circle id="border" fill="none" stroke="#FFFFFF" cx="842.083" cy="992.128" r="726.798"/>
		<g id="final_circles">
			<g>
				<circle fill="none" stroke="#FFFFFF" cx="981.915" cy="992.298" r="278.708"/>
				<circle fill="none" stroke="#FFFFFF" cx="841.256" cy="992.36" r="278.708"/>
				<circle fill="none" stroke="#FFFFFF" cx="1120.496" cy="992.298" r="278.708"/>
				<circle fill="none" stroke="#FFFFFF" cx="703.208" cy="992.298" r="278.708"/>
				<circle fill="none" stroke="#FFFFFF" cx="562.548" cy="992.36" r="278.708"/>
			</g>
			<g>
				<circle fill="none" stroke="#FFFFFF" cx="702.2" cy="750.073" r="278.708"/>
				<circle fill="none" stroke="#FFFFFF" cx="979.729" cy="748.894" r="278.708"/>
				<circle fill="none" stroke="#FFFFFF" cx="841.96" cy="1234.351" r="278.708"/>
				<circle fill="none" stroke="#FFFFFF" cx="703.779" cy="1235.582" r="278.708"/>
				<circle fill="none" stroke="#FFFFFF" cx="981.307" cy="1234.402" r="278.708"/>
				<circle fill="none" stroke="#FFFFFF" cx="840.381" cy="748.842" r="278.708"/>
			</g>
		</g>
	</g>
	<g id="hexagon">
		<polygon fill="#FFFFFF" fill-opacity="0" stroke="#FFE86D" stroke-miterlimit="10" stroke-opacity="0" points="1.099,506.579 
			842.079,21.033 1683.069,506.579 1683.069,1477.671 842.079,1963.217 1.099,1477.671 		"/>
	</g>
</g>
</svg>
