<?xml version="1.0" encoding="utf-8"?>
<!-- Generator: Adobe Illustrator 16.0.0, SVG Export Plug-In . SVG Version: 6.00 Build 0)  -->
<!DOCTYPE svg PUBLIC "-//W3C//DTD SVG 1.1//EN" "http://www.w3.org/Graphics/SVG/1.1/DTD/svg11.dtd">
<svg version="1.1" id="Layer_1" xmlns="http://www.w3.org/2000/svg" xmlns:xlink="http://www.w3.org/1999/xlink" x="0px" y="0px"
	 width="1687px" height="1984px" viewBox="0 0 1687 1984" enable-background="new 0 0 1687 1984" xml:space="preserve">
<g id="Tetra3DFullGroup">
	<g id="back" display="none">
		<rect id="image" y="-7.12" display="inline" fill="#130E22" width="1687" height="1998.24"/>
	</g>
	<g id="fruit">
		<g>
			<path fill="none" stroke="#FFFFFF" d="M1004.856,992.021c0,89.153-72.3,161.414-161.395,161.414
				c-89.198,0-161.497-72.252-161.497-161.414c0-89.226,72.297-161.478,161.497-161.478
				C932.563,830.551,1004.856,902.803,1004.856,992.021z"/>
			<path fill="none" stroke="#FFFFFF" d="M1004.856,669.139c0,89.16-72.3,161.414-161.395,161.414
				c-89.198,0-161.497-72.254-161.497-161.414c0-89.218,72.297-161.47,161.497-161.47
				C932.563,507.669,1004.856,579.921,1004.856,669.139z"/>
			<path fill="none" stroke="#FFFFFF" d="M725.198,830.578c0,89.16-72.294,161.414-161.392,161.414
				c-89.195,0-161.497-72.254-161.497-161.414c0-89.218,72.302-161.47,161.497-161.47
				C652.903,669.108,725.198,741.36,725.198,830.578z"/>
			<path fill="none" stroke="#FFFFFF" d="M725.199,1153.449c0,89.162-72.293,161.414-161.387,161.414
				c-89.199,0-161.495-72.252-161.495-161.414c0-89.219,72.296-161.474,161.495-161.474
				C652.905,991.98,725.199,1064.232,725.199,1153.449z"/>
			<path fill="none" stroke="#FFFFFF" d="M1004.856,1314.904c0,89.16-72.3,161.412-161.393,161.412
				c-89.2,0-161.498-72.252-161.498-161.412c0-89.221,72.296-161.479,161.498-161.479
				C932.563,1153.436,1004.856,1225.688,1004.856,1314.904z"/>
			<path fill="none" stroke="#FFFFFF" d="M1284.567,1153.463c0,89.162-72.296,161.414-161.392,161.414
				c-89.197,0-161.494-72.252-161.494-161.414c0-89.219,72.297-161.471,161.494-161.471
				C1212.271,991.992,1284.567,1064.244,1284.567,1153.463z"/>
			<path fill="none" stroke="#FFFFFF" d="M1284.556,830.578c0,89.161-72.293,161.414-161.388,161.414
				c-89.201,0-161.498-72.253-161.498-161.414c0-89.218,72.3-161.469,161.498-161.469
				C1212.263,669.109,1284.556,741.36,1284.556,830.578z"/>
			<path fill="none" stroke="#FFFFFF" d="M1004.961,346.257c0,89.161-72.295,161.414-161.387,161.414
				c-89.201,0-161.497-72.253-161.497-161.414c0-89.219,72.295-161.47,161.497-161.47
				C932.666,184.787,1004.961,257.038,1004.961,346.257z"/>
			<path fill="none" stroke="#FFFFFF" d="M445.578,669.15c0,89.16-72.294,161.414-161.386,161.414
				c-89.201,0-161.5-72.254-161.5-161.414c0-89.227,72.296-161.478,161.5-161.478C373.283,507.682,445.578,579.933,445.578,669.15z"
				/>
			<path fill="none" stroke="#FFFFFF" d="M445.566,1314.916c0,89.164-72.294,161.416-161.392,161.416
				c-89.198,0-161.496-72.252-161.496-161.416c0-89.217,72.292-161.467,161.496-161.467
				C373.272,1153.449,445.566,1225.699,445.566,1314.916z"/>
			<path fill="none" stroke="#FFFFFF" d="M1564.321,1314.906c0,89.162-72.297,161.414-161.392,161.414
				c-89.196,0-161.496-72.252-161.496-161.414c0-89.221,72.3-161.471,161.496-161.471
				C1492.026,1153.438,1564.321,1225.688,1564.321,1314.906z"/>
			<path fill="none" stroke="#FFFFFF" d="M1564.311,669.161c0,89.162-72.296,161.414-161.389,161.414
				c-89.199,0-161.498-72.252-161.498-161.414c0-89.218,72.298-161.469,161.498-161.469
				C1492.015,507.692,1564.311,579.943,1564.311,669.161z"/>
			<path fill="none" stroke="#FFFFFF" d="M1004.944,1637.797c0,89.162-72.298,161.416-161.396,161.416
				c-89.196,0-161.495-72.254-161.495-161.416c0-89.217,72.298-161.467,161.495-161.467
				C932.646,1476.33,1004.944,1548.58,1004.944,1637.797z"/>
		</g>
		<g display="none">
			<line display="inline" fill="none" stroke="#FFFFFF" x1="842.524" y1="1638.064" x2="842.543" y2="992"/>
			<line display="inline" fill="none" stroke="#FFFFFF" x1="843.5" y1="991.734" x2="1401.921" y2="669.404"/>
			<line display="inline" fill="none" stroke="#FFFFFF" x1="842.006" y1="992" x2="283.166" y2="669.416"/>
			<line display="inline" fill="none" stroke="#FFFFFF" x1="562.771" y1="1153.693" x2="283.134" y2="992.289"/>
			<line display="inline" fill="none" stroke="#FFFFFF" x1="842.869" y1="669.248" x2="1122.266" y2="508"/>
			<line display="inline" fill="none" stroke="#FFFFFF" x1="1122.261" y1="1153.744" x2="1122.255" y2="1476.615"/>
			<line display="inline" fill="none" stroke="#FFFFFF" x1="562.86" y1="1476.626" x2="562.854" y2="1153.717"/>
			<line display="inline" fill="none" stroke="#FFFFFF" x1="562.847" y1="507.965" x2="842.638" y2="669.471"/>
			<line display="inline" fill="none" stroke="#FFFFFF" x1="1401.886" y1="992.289" x2="1123.539" y2="1152.969"/>
			<line display="inline" fill="none" stroke="#FFFFFF" x1="1308.591" y1="1153.875" x2="1401.886" y2="992.289"/>
			<line display="inline" fill="none" stroke="#FFFFFF" x1="1122.25" y1="1476.615" x2="1215.559" y2="1315.005"/>
			<line display="inline" fill="none" stroke="#FFFFFF" x1="1401.886" y1="992.289" x2="1122.266" y2="508"/>
			<line display="inline" fill="none" stroke="#FFFFFF" x1="749.621" y1="507.988" x2="562.847" y2="507.977"/>
			<line display="inline" fill="none" stroke="#FFFFFF" x1="1122.266" y1="507.988" x2="935.683" y2="507.977"/>
			<line display="inline" fill="none" stroke="#FFFFFF" x1="562.847" y1="507.965" x2="283.134" y2="992.289"/>
			<line display="inline" fill="none" stroke="#FFFFFF" x1="283.134" y1="992.289" x2="376.657" y2="1154.221"/>
			<line display="inline" fill="none" stroke="#FFFFFF" x1="469.026" y1="1314.146" x2="562.869" y2="1476.626"/>
			<line display="inline" fill="none" stroke="#FFFFFF" x1="562.869" y1="1476.626" x2="1122.25" y2="1476.615"/>
			<line display="inline" fill="none" stroke="#FFFFFF" x1="470.151" y1="669.41" x2="283.166" y2="669.412"/>
			<line display="inline" fill="none" stroke="#FFFFFF" x1="1401.921" y1="669.41" x2="1214.918" y2="669.412"/>
			<line display="inline" fill="none" stroke="#FFFFFF" x1="283.178" y1="1315.161" x2="1401.901" y2="1315.191"/>
			<line display="inline" fill="none" stroke="#FFFFFF" x1="469.683" y1="992.289" x2="283.134" y2="992.289"/>
			<line display="inline" fill="none" stroke="#FFFFFF" x1="1401.886" y1="992.289" x2="1215.634" y2="992.289"/>
			<line display="inline" fill="none" stroke="#FFFFFF" x1="562.612" y1="1153.754" x2="1122.492" y2="1153.744"/>
			<line display="inline" fill="none" stroke="#FFFFFF" x1="423.047" y1="1073.02" x2="608.838" y2="1073.018"/>
			<line display="inline" fill="none" stroke="#FFFFFF" x1="1075.457" y1="1073.02" x2="1262.05" y2="1073.018"/>
			<line display="inline" fill="none" stroke="#FFFFFF" x1="701.84" y1="911.594" x2="981.847" y2="911.584"/>
			<line display="inline" fill="none" stroke="#FFFFFF" x1="562.593" y1="830.814" x2="749.621" y2="830.887"/>
			<line display="inline" fill="none" stroke="#FFFFFF" x1="935.683" y1="830.844" x2="1122.71" y2="830.859"/>
			<line display="inline" fill="none" stroke="#FFFFFF" x1="702.705" y1="588.688" x2="982.463" y2="588.688"/>
			<line display="inline" fill="none" stroke="#FFFFFF" x1="1261.982" y1="1072.979" x2="1122.146" y2="1315.188"/>
			<line display="inline" fill="none" stroke="#FFFFFF" x1="1169.27" y1="910.66" x2="1261.999" y2="750.029"/>
			<line display="inline" fill="none" stroke="#FFFFFF" x1="843.06" y1="1475.672" x2="936.304" y2="1314.146"/>
			<line display="inline" fill="none" stroke="#FFFFFF" x1="562.89" y1="1315.235" x2="656.136" y2="1153.723"/>
			<line display="inline" fill="none" stroke="#FFFFFF" x1="889" y1="750.396" x2="982.41" y2="588.6"/>
			<line display="inline" fill="none" stroke="#FFFFFF" x1="562.804" y1="1153.865" x2="842.586" y2="669.354"/>
			<line display="inline" fill="none" stroke="#FFFFFF" x1="936.302" y1="1475.679" x2="842.524" y2="1638.064"/>
			<line display="inline" fill="none" stroke="#FFFFFF" x1="1401.921" y1="669.404" x2="1308.666" y2="830.887"/>
			<line display="inline" fill="none" stroke="#FFFFFF" x1="283.178" y1="1315.161" x2="842.543" y2="346.543"/>
			<line display="inline" fill="none" stroke="#FFFFFF" x1="562.869" y1="1476.626" x2="655.92" y2="1315.503"/>
			<line display="inline" fill="none" stroke="#FFFFFF" x1="1028.919" y1="669.635" x2="1122.266" y2="508"/>
			<line display="inline" fill="none" stroke="#FFFFFF" x1="516.325" y1="911.594" x2="423.039" y2="750.035"/>
			<line display="inline" fill="none" stroke="#FFFFFF" x1="842.569" y1="1476.663" x2="749.013" y2="1314.64"/>
			<line display="inline" fill="none" stroke="#FFFFFF" x1="1122.265" y1="1153.875" x2="842.537" y2="669.383"/>
			<line display="inline" fill="none" stroke="#FFFFFF" x1="794.851" y1="748.258" x2="702.713" y2="588.682"/>
			<line display="inline" fill="none" stroke="#FFFFFF" x1="1122.183" y1="1315.212" x2="1028.919" y2="1153.686"/>
			<line display="inline" fill="none" stroke="#FFFFFF" x1="562.918" y1="1315.186" x2="423.037" y2="1072.909"/>
			<line display="inline" fill="none" stroke="#FFFFFF" x1="656.194" y1="669.604" x2="562.847" y2="507.965"/>
			<line display="inline" fill="none" stroke="#FFFFFF" x1="1122.25" y1="1476.615" x2="1028.752" y2="1314.717"/>
			<line display="inline" fill="none" stroke="#FFFFFF" x1="376.407" y1="830.887" x2="283.166" y2="669.416"/>
			<line display="inline" fill="none" stroke="#FFFFFF" x1="842.524" y1="1638.064" x2="748.752" y2="1475.679"/>
			<line display="inline" fill="none" stroke="#FFFFFF" x1="842.543" y1="346.543" x2="1401.901" y2="1315.191"/>
			<line display="inline" fill="none" stroke="#FFFFFF" x1="936.302" y1="1152.274" x2="842.252" y2="1315.005"/>
			<line display="inline" fill="none" stroke="#FFFFFF" x1="1122.142" y1="830.727" x2="1028.752" y2="992.313"/>
			<line display="inline" fill="none" stroke="#FFFFFF" x1="655.92" y1="992.313" x2="562.612" y2="830.723"/>
			<line display="inline" fill="none" stroke="#FFFFFF" x1="842.252" y1="1315.005" x2="748.752" y2="1153.079"/>
			<line display="inline" fill="none" stroke="#FFFFFF" x1="841.843" y1="1153.875" x2="981.847" y2="911.584"/>
			<line display="inline" fill="none" stroke="#FFFFFF" x1="841.843" y1="1153.875" x2="701.84" y2="911.594"/>
			<line display="inline" fill="none" stroke="#FFFFFF" x1="1261.999" y1="750.029" x2="1075.448" y2="750.029"/>
			<line display="inline" fill="none" stroke="#FFFFFF" x1="423.039" y1="750.035" x2="609.531" y2="750.035"/>
		</g>
		<g id="nestedVE">
			<g id="Layer_3">
				<g id="_x33_">
					<g>
						<line fill="none" stroke="#FFFFFF" stroke-miterlimit="10" x1="982.506" y1="588.994" x2="703.35" y2="589.182"/>
						<line fill="none" stroke="#FFFFFF" stroke-miterlimit="10" x1="703.35" y1="589.182" x2="563.964" y2="831.038"/>
						<line fill="none" stroke="#FFFFFF" stroke-miterlimit="10" x1="703.737" y1="1072.77" x2="982.928" y2="1072.604"/>
						<line fill="none" stroke="#FFFFFF" stroke-miterlimit="10" x1="982.928" y1="1072.604" x2="1122.314" y2="830.703"/>
						<line fill="none" stroke="#FFFFFF" stroke-miterlimit="10" x1="1122.314" y1="830.703" x2="982.506" y2="588.994"/>
						<line fill="none" stroke="#FFFFFF" stroke-miterlimit="10" x1="703.35" y1="589.182" x2="842.986" y2="669.674"/>
						<line fill="none" stroke="#FFFFFF" stroke-miterlimit="10" x1="842.986" y1="669.674" x2="982.506" y2="588.994"/>
						<line fill="none" stroke="#FFFFFF" stroke-miterlimit="10" x1="703.737" y1="1072.77" x2="703.609" y2="911.554"/>
						<line fill="none" stroke="#FFFFFF" stroke-miterlimit="10" x1="703.609" y1="911.554" x2="563.964" y2="831.07"/>
						<line fill="none" stroke="#FFFFFF" stroke-miterlimit="10" x1="563.964" y1="831.038" x2="703.737" y2="1072.77"/>
						<line fill="none" stroke="#FFFFFF" stroke-miterlimit="10" x1="1122.314" y1="830.711" x2="982.781" y2="911.379"/>
						<line fill="none" stroke="#FFFFFF" stroke-miterlimit="10" x1="982.781" y1="911.379" x2="982.871" y2="1072.549"/>
						<line fill="none" stroke="#FFFFFF" stroke-miterlimit="10" x1="842.986" y1="669.674" x2="982.781" y2="911.379"/>
						<line fill="none" stroke="#FFFFFF" stroke-miterlimit="10" x1="982.781" y1="911.379" x2="703.609" y2="911.554"/>
						<line fill="none" stroke="#FFFFFF" stroke-miterlimit="10" x1="703.609" y1="911.554" x2="842.986" y2="669.674"/>
						<line fill="none" stroke="#FFFFFF" stroke-miterlimit="10" x1="1122.314" y1="830.711" x2="936.58" y2="831.038"/>
						<line fill="none" stroke="#FFFFFF" stroke-miterlimit="10" x1="750.643" y1="830.711" x2="563.964" y2="831.038"/>
						<line fill="none" stroke="#FFFFFF" stroke-miterlimit="10" x1="890.656" y1="750.348" x2="982.506" y2="588.994"/>
						<line fill="none" stroke="#FFFFFF" stroke-miterlimit="10" x1="797.748" y1="750.348" x2="703.542" y2="589.182"/>
						<line fill="none" stroke="#FFFFFF" x1="797.748" y1="911.582" x2="703.737" y2="1072.77"/>
						<line fill="none" stroke="#FFFFFF" x1="890.656" y1="911.106" x2="982.928" y2="1072.604"/>
					</g>
				</g>
				<g id="_x32_">
					<g>
						<line fill="none" stroke="#FFFFFF" stroke-miterlimit="10" x1="1123.23" y1="508.136" x2="844.074" y2="508.326"/>
						<line fill="none" stroke="#FFFFFF" stroke-miterlimit="10" x1="844.074" y1="508.326" x2="796.95" y2="590.095"/>
						<line fill="none" stroke="#FFFFFF" stroke-miterlimit="10" x1="1025.811" y1="991.859" x2="1123.652" y2="991.8"/>
						<line fill="none" stroke="#FFFFFF" stroke-miterlimit="10" x1="1123.652" y1="991.747" x2="1263.039" y2="749.845"/>
						<line fill="none" stroke="#FFFFFF" stroke-miterlimit="10" x1="1263.039" y1="749.845" x2="1123.23" y2="508.136"/>
						<line fill="none" stroke="#FFFFFF" stroke-miterlimit="10" x1="844.074" y1="508.326" x2="983.711" y2="588.818"/>
						<line fill="none" stroke="#FFFFFF" stroke-miterlimit="10" x1="983.711" y1="588.818" x2="1123.23" y2="508.136"/>
						<line fill="none" stroke="#FFFFFF" stroke-miterlimit="10" x1="1263.039" y1="749.855" x2="1123.506" y2="830.523"/>
						<line fill="none" stroke="#FFFFFF" stroke-miterlimit="10" x1="1123.506" y1="830.523" x2="1123.596" y2="991.692"/>
						<line fill="none" stroke="#FFFFFF" stroke-miterlimit="10" x1="983.711" y1="588.818" x2="1123.506" y2="830.523"/>
						<line fill="none" stroke="#FFFFFF" stroke-miterlimit="10" x1="1123.506" y1="830.551" x2="936.24" y2="830.668"/>
						<line fill="none" stroke="#FFFFFF" stroke-miterlimit="10" x1="888.77" y1="753.582" x2="983.711" y2="588.818"/>
						<line fill="none" stroke="#FFFFFF" stroke-miterlimit="10" x1="1263.039" y1="749.855" x2="1077.305" y2="750.18"/>
						<line fill="none" stroke="#FFFFFF" stroke-miterlimit="10" x1="1031.381" y1="669.491" x2="1123.23" y2="508.136"/>
						<line fill="none" stroke="#FFFFFF" stroke-miterlimit="10" x1="892.063" y1="590.094" x2="844.266" y2="508.327"/>
						<line fill="none" stroke="#FFFFFF" x1="1077.518" y1="910.998" x2="1123.652" y2="991.747"/>
					</g>
				</g>
				<g id="_x31_">
					<g>
						<line fill="none" stroke="#FFFFFF" stroke-miterlimit="10" x1="842.502" y1="508.502" x2="563.347" y2="508.693"/>
						<line fill="none" stroke="#FFFFFF" stroke-miterlimit="10" x1="563.347" y1="508.693" x2="423.961" y2="750.547"/>
						<line fill="none" stroke="#FFFFFF" stroke-miterlimit="10" x1="563.734" y1="992.223" x2="656.856" y2="992.168"/>
						<line fill="none" stroke="#FFFFFF" stroke-miterlimit="10" x1="563.347" y1="508.693" x2="702.982" y2="589.185"/>
						<line fill="none" stroke="#FFFFFF" stroke-miterlimit="10" x1="702.982" y1="589.185" x2="842.502" y2="508.502"/>
						<line fill="none" stroke="#FFFFFF" stroke-miterlimit="10" x1="563.734" y1="992.279" x2="563.605" y2="831.064"/>
						<line fill="none" stroke="#FFFFFF" stroke-miterlimit="10" x1="563.605" y1="831.064" x2="423.961" y2="750.58"/>
						<line fill="none" stroke="#FFFFFF" stroke-miterlimit="10" x1="423.961" y1="750.547" x2="563.734" y2="992.279"/>
						<line fill="none" stroke="#FFFFFF" stroke-miterlimit="10" x1="747.495" y1="830.889" x2="563.605" y2="831.064"/>
						<line fill="none" stroke="#FFFFFF" stroke-miterlimit="10" x1="563.605" y1="831.064" x2="702.982" y2="589.185"/>
						<line fill="none" stroke="#FFFFFF" stroke-miterlimit="10" x1="610.64" y1="750.221" x2="423.961" y2="750.547"/>
						<line fill="none" stroke="#FFFFFF" stroke-miterlimit="10" x1="796.057" y1="590.095" x2="842.502" y2="508.503"/>
						<line fill="none" stroke="#FFFFFF" stroke-miterlimit="10" x1="657.745" y1="669.858" x2="563.539" y2="508.693"/>
						<line fill="none" stroke="#FFFFFF" x1="611.139" y1="910.998" x2="563.734" y2="992.279"/>
					</g>
				</g>
			</g>
			<g id="Layer_4">
				<line fill="none" stroke="#FFFFFF" x1="703.737" y1="1072.77" x2="843.548" y2="1315"/>
				<line fill="none" stroke="#FFFFFF" x1="565.109" y1="1314.857" x2="703.737" y2="1072.77"/>
				<line fill="none" x1="982.928" y1="1072.604" x2="1123.652" y2="991.747"/>
				<line fill="none" stroke="#FFFFFF" x1="1123.652" y1="991.747" x2="982.928" y2="1072.604"/>
				<line fill="none" stroke="#FFFFFF" stroke-miterlimit="10" x1="658.499" y1="992.087" x2="564.101" y2="992.277"/>
				<line fill="none" stroke="#FFFFFF" stroke-miterlimit="10" x1="564.101" y1="992.277" x2="424.715" y2="1234.131"/>
				<line fill="none" stroke="#FFFFFF" stroke-miterlimit="10" x1="564.489" y1="1475.863" x2="843.678" y2="1475.697"/>
				<line fill="none" stroke="#FFFFFF" stroke-miterlimit="10" x1="843.678" y1="1475.697" x2="935.256" y2="1316.768"/>
				<line fill="none" stroke="#FFFFFF" stroke-miterlimit="10" x1="936.588" y1="1153.441" x2="888.77" y2="1070.771"/>
				<line fill="none" stroke="#FFFFFF" stroke-miterlimit="10" x1="564.101" y1="992.277" x2="703.737" y2="1072.77"/>
				<line fill="none" stroke="#FFFFFF" stroke-miterlimit="10" x1="564.489" y1="1475.863" x2="564.359" y2="1314.648"/>
				<line fill="none" stroke="#FFFFFF" stroke-miterlimit="10" x1="564.359" y1="1314.648" x2="424.715" y2="1234.164"/>
				<line fill="none" stroke="#FFFFFF" stroke-miterlimit="10" x1="424.715" y1="1234.131" x2="564.489" y2="1475.863"/>
				<line fill="none" stroke="#FFFFFF" stroke-miterlimit="10" x1="843.533" y1="1314.473" x2="843.624" y2="1475.643"/>
				<line fill="none" stroke="#FFFFFF" stroke-miterlimit="10" x1="703.737" y1="1072.77" x2="843.533" y2="1314.473"/>
				<line fill="none" stroke="#FFFFFF" stroke-miterlimit="10" x1="843.533" y1="1314.473" x2="564.359" y2="1314.648"/>
				<line fill="none" stroke="#FFFFFF" stroke-miterlimit="10" x1="564.359" y1="1314.648" x2="703.737" y2="1072.77"/>
				<line fill="none" stroke="#FFFFFF" stroke-miterlimit="10" x1="611.395" y1="1233.805" x2="424.715" y2="1234.131"/>
				<line fill="none" stroke="#FFFFFF" stroke-miterlimit="10" x1="751.409" y1="1153.441" x2="797.279" y2="1072.859"/>
				<line fill="none" stroke="#FFFFFF" stroke-miterlimit="10" x1="658.499" y1="1153.441" x2="564.292" y2="992.278"/>
				<line fill="none" stroke="#FFFFFF" x1="658.499" y1="1314.676" x2="564.489" y2="1475.863"/>
				<line fill="none" stroke="#FFFFFF" x1="751.409" y1="1314.199" x2="843.678" y2="1475.697"/>
				<line fill="none" stroke="#FFFFFF" x1="982.928" y1="1072.604" x2="843.116" y2="1314.834"/>
				<line fill="none" stroke="#FFFFFF" x1="1121.555" y1="1314.693" x2="982.928" y2="1072.604"/>
				<line fill="none" stroke="#FFFFFF" stroke-miterlimit="10" x1="1261.947" y1="1233.967" x2="1122.563" y2="992.112"/>
				<line fill="none" stroke="#FFFFFF" stroke-miterlimit="10" x1="842.984" y1="1475.533" x2="1122.176" y2="1475.699"/>
				<line fill="none" stroke="#FFFFFF" stroke-miterlimit="10" x1="751.409" y1="1314.199" x2="842.984" y2="1475.533"/>
				<line fill="none" stroke="#FFFFFF" stroke-miterlimit="10" x1="982.928" y1="1072.604" x2="1122.563" y2="992.112"/>
				<line fill="none" stroke="#FFFFFF" stroke-miterlimit="10" x1="1122.305" y1="1314.484" x2="1122.176" y2="1475.699"/>
				<line fill="none" stroke="#FFFFFF" stroke-miterlimit="10" x1="1261.947" y1="1234" x2="1122.305" y2="1314.484"/>
				<line fill="none" stroke="#FFFFFF" stroke-miterlimit="10" x1="1122.176" y1="1475.699" x2="1261.947" y2="1233.967"/>
				<line fill="none" stroke="#FFFFFF" stroke-miterlimit="10" x1="843.042" y1="1475.479" x2="843.131" y2="1314.307"/>
				<line fill="none" stroke="#FFFFFF" stroke-miterlimit="10" x1="843.131" y1="1314.307" x2="982.928" y2="1072.604"/>
				<line fill="none" stroke="#FFFFFF" stroke-miterlimit="10" x1="1122.305" y1="1314.484" x2="843.131" y2="1314.307"/>
				<line fill="none" stroke="#FFFFFF" stroke-miterlimit="10" x1="982.928" y1="1072.604" x2="1122.305" y2="1314.484"/>
				<line fill="none" stroke="#FFFFFF" stroke-miterlimit="10" x1="889.332" y1="1233.967" x2="797.748" y2="1233.641"/>
				<line fill="none" stroke="#FFFFFF" stroke-miterlimit="10" x1="1261.947" y1="1233.967" x2="1075.27" y2="1233.641"/>
				<line fill="none" stroke="#FFFFFF" stroke-miterlimit="10" x1="889.385" y1="1072.695" x2="935.256" y2="1153.277"/>
				<line fill="none" stroke="#FFFFFF" stroke-miterlimit="10" x1="1122.371" y1="992.112" x2="1028.166" y2="1153.277"/>
				<line fill="none" stroke="#FFFFFF" x1="1122.176" y1="1475.699" x2="1028.166" y2="1314.512"/>
				<line fill="none" stroke="#FFFFFF" x1="842.984" y1="1475.533" x2="935.256" y2="1314.035"/>
			</g>
		</g>
	</g>
	<g id="sixtyFour">
		<circle id="circle_6_" fill="none" stroke="#FFFFFF" cx="843.5" cy="992" r="726.798"/>
		<g>
			<circle fill="none" stroke="#FFFFFF" cx="843.462" cy="830.553" r="279.857"/>
			<circle fill="none" stroke="#FFFFFF" cx="703.608" cy="750.035" r="279.857"/>
			<circle fill="none" stroke="#FFFFFF" cx="983.465" cy="750.035" r="279.857"/>
		</g>
		<g>
			<circle fill="none" stroke="#FFFFFF" cx="705" cy="1232.5" r="280.285"/>
			<circle fill="none" stroke="#FFFFFF" cx="985.285" cy="1232.5" r="280.285"/>
			<circle fill="none" stroke="#FFFFFF" cx="843.462" cy="1153.436" r="280.285"/>
		</g>
	</g>
	<g id="hexagon">
		<polygon fill="#FFFFFF" fill-opacity="0" stroke="#FFE86D" stroke-miterlimit="10" stroke-opacity="0" points="2.5,507 843.5,21 
			1684.5,507 1684.5,1478 843.5,1963 2.5,1478 		"/>
	</g>
</g>
</svg>
