<?xml version="1.0" encoding="utf-8"?>
<!-- Generator: Adobe Illustrator 16.0.0, SVG Export Plug-In . SVG Version: 6.00 Build 0)  -->
<!DOCTYPE svg PUBLIC "-//W3C//DTD SVG 1.1//EN" "http://www.w3.org/Graphics/SVG/1.1/DTD/svg11.dtd">
<svg version="1.1" xmlns="http://www.w3.org/2000/svg" xmlns:xlink="http://www.w3.org/1999/xlink" x="0px" y="0px"
	 width="1684.051px" height="1984.252px" viewBox="0 0 1684.051 1984.252" enable-background="new 0 0 1684.051 1984.252"
	 xml:space="preserve">
<g id="Layer_1">
	<g id="_x36_4Tetra3DFullGroup">
		<g id="back">
			<rect id="image" y="-13.988" fill="#130E22" width="1684.052" height="2012.229"/>
		</g>
		<g id="fruit">
			<g>
				<path fill="none" stroke="#FFFFFF" d="M1003.438,992.146c0,89.156-72.301,161.414-161.39,161.414
					c-89.201,0-161.498-72.252-161.498-161.414c0-89.223,72.296-161.475,161.498-161.475
					C931.143,830.676,1003.438,902.928,1003.438,992.146z"/>
				<path fill="none" stroke="#FFFFFF" d="M1003.438,669.264c0,89.16-72.301,161.414-161.39,161.414
					c-89.201,0-161.498-72.254-161.498-161.414c0-89.218,72.296-161.47,161.498-161.47
					C931.143,507.794,1003.438,580.046,1003.438,669.264z"/>
				<path fill="none" stroke="#FFFFFF" d="M723.778,830.703c0,89.16-72.293,161.414-161.391,161.414
					c-89.195,0-161.497-72.254-161.497-161.414c0-89.218,72.302-161.47,161.497-161.47
					C651.485,669.233,723.778,741.485,723.778,830.703z"/>
				<path fill="none" stroke="#FFFFFF" d="M723.782,1153.574c0,89.162-72.294,161.414-161.388,161.414
					c-89.199,0-161.495-72.252-161.495-161.414c0-89.219,72.296-161.471,161.495-161.471
					C651.487,992.105,723.782,1064.357,723.782,1153.574z"/>
				<path fill="none" stroke="#FFFFFF" d="M1003.438,1315.029c0,89.16-72.299,161.412-161.39,161.412
					c-89.201,0-161.497-72.252-161.497-161.412c0-89.221,72.295-161.477,161.497-161.477
					C931.145,1153.561,1003.438,1225.813,1003.438,1315.029z"/>
				<path fill="none" stroke="#FFFFFF" d="M1283.149,1153.588c0,89.162-72.296,161.414-161.392,161.414
					c-89.197,0-161.496-72.252-161.496-161.414c0-89.219,72.299-161.471,161.496-161.471
					C1210.854,992.117,1283.149,1064.369,1283.149,1153.588z"/>
				<path fill="none" stroke="#FFFFFF" d="M1283.137,830.703c0,89.161-72.295,161.414-161.387,161.414
					c-89.201,0-161.496-72.253-161.496-161.414c0-89.218,72.295-161.469,161.496-161.469
					C1210.842,669.234,1283.137,741.485,1283.137,830.703z"/>
				<path fill="none" stroke="#FFFFFF" d="M1003.542,346.382c0,89.161-72.295,161.414-161.384,161.414
					c-89.201,0-161.498-72.253-161.498-161.414c0-89.219,72.294-161.47,161.498-161.47
					C931.247,184.912,1003.542,257.163,1003.542,346.382z"/>
				<path fill="none" stroke="#FFFFFF" d="M444.16,669.275c0,89.16-72.294,161.414-161.386,161.414
					c-89.201,0-161.5-72.254-161.5-161.414c0-89.224,72.296-161.475,161.5-161.475C371.865,507.807,444.16,580.058,444.16,669.275z"
					/>
				<path fill="none" stroke="#FFFFFF" d="M444.148,1315.041c0,89.164-72.295,161.416-161.392,161.416
					c-89.199,0-161.497-72.252-161.497-161.416c0-89.217,72.292-161.467,161.497-161.467
					C371.854,1153.574,444.148,1225.824,444.148,1315.041z"/>
				<path fill="none" stroke="#FFFFFF" d="M1562.901,1315.031c0,89.162-72.296,161.414-161.392,161.414
					c-89.194,0-161.496-72.252-161.496-161.414c0-89.221,72.302-161.471,161.496-161.471
					C1490.605,1153.563,1562.901,1225.813,1562.901,1315.031z"/>
				<path fill="none" stroke="#FFFFFF" d="M1562.891,669.286c0,89.162-72.295,161.414-161.387,161.414
					c-89.201,0-161.496-72.252-161.496-161.414c0-89.218,72.295-161.469,161.496-161.469
					C1490.596,507.817,1562.891,580.068,1562.891,669.286z"/>
				<path fill="none" stroke="#FFFFFF" d="M1003.524,1637.922c0,89.162-72.296,161.416-161.391,161.416
					c-89.201,0-161.498-72.254-161.498-161.416c0-89.217,72.296-161.467,161.498-161.467
					C931.229,1476.455,1003.524,1548.705,1003.524,1637.922z"/>
			</g>
		</g>
		<g id="sixtyFour" display="none">
			<g display="inline">
				<line fill="none" stroke="#FFFFFF" stroke-width="0.5" x1="1121.749" y1="507.792" x2="562.37" y2="507.802"/>
				<line fill="none" stroke="#FFFFFF" stroke-width="0.5" x1="562.37" y1="507.802" x2="282.696" y2="992.116"/>
				<line fill="none" stroke="#FFFFFF" stroke-width="0.5" x1="422.739" y1="1234.646" x2="562.405" y2="1476.429"/>
				<line fill="none" stroke="#FFFFFF" stroke-width="0.5" x1="562.405" y1="1476.429" x2="1119.819" y2="1476.417"/>
				<line fill="none" stroke="#FFFFFF" stroke-width="0.5" x1="1119.819" y1="1476.417" x2="1262.995" y2="1231.927"/>
				<line fill="none" stroke="#FFFFFF" stroke-width="0.5" x1="1331.554" y1="1113.216" x2="1401.487" y2="992.13"/>
				<line fill="none" stroke="#FFFFFF" stroke-width="0.5" x1="1401.487" y1="992.13" x2="1121.749" y2="507.792"/>
				<line fill="none" stroke="#FFFFFF" stroke-width="0.5" x1="282.747" y1="749.952" x2="1401.446" y2="749.952"/>
				<line fill="none" stroke="#FFFFFF" stroke-width="0.5" x1="842.121" y1="1718.626" x2="842.122" y2="749.952"/>
				<line fill="none" stroke="#FFFFFF" stroke-width="0.5" x1="282.678" y1="992.179" x2="1401.487" y2="992.179"/>
				<line fill="none" stroke="#FFFFFF" stroke-width="0.5" x1="282.747" y1="749.952" x2="353.112" y2="871.814"/>
				<line fill="none" stroke="#FFFFFF" stroke-width="0.5" x1="422.569" y1="749.952" x2="492.475" y2="871.028"/>
				<line fill="none" stroke="#FFFFFF" stroke-width="0.5" x1="282.788" y1="1234.304" x2="842.054" y2="265.63"/>
				<line fill="none" stroke="#FFFFFF" stroke-width="0.5" x1="562.37" y1="507.802" x2="632.276" y2="628.855"/>
				<line fill="none" stroke="#FFFFFF" stroke-width="0.5" x1="702.153" y1="507.898" x2="771.624" y2="628.938"/>
				<line fill="none" stroke="#FFFFFF" stroke-width="0.5" x1="842.036" y1="507.792" x2="701.745" y2="749.96"/>
				<line fill="none" stroke="#FFFFFF" stroke-width="0.5" x1="842.036" y1="507.792" x2="981.752" y2="749.952"/>
				<line fill="none" stroke="#FFFFFF" stroke-width="0.5" x1="701.745" y1="749.96" x2="842.195" y2="992.179"/>
				<line fill="none" stroke="#FFFFFF" stroke-width="0.5" x1="842.195" y1="992.179" x2="981.752" y2="749.952"/>
				<line fill="none" stroke="#FFFFFF" stroke-width="0.5" x1="701.745" y1="749.96" x2="562.391" y2="992.116"/>
				<line fill="none" stroke="#FFFFFF" stroke-width="0.5" x1="562.436" y1="749.847" x2="632.567" y2="871.804"/>
				<line fill="none" stroke="#FFFFFF" stroke-width="0.5" x1="1121.741" y1="749.964" x2="1051.108" y2="872.209"/>
				<line fill="none" stroke="#FFFFFF" stroke-width="0.5" x1="981.752" y1="749.952" x2="1122.104" y2="993.026"/>
				<line fill="none" stroke="#FFFFFF" stroke-width="0.5" x1="1261.655" y1="749.976" x2="1191.444" y2="870.595"/>
				<line fill="none" stroke="#FFFFFF" stroke-width="0.5" x1="1121.741" y1="749.964" x2="1261.655" y2="992.105"/>
				<line fill="none" stroke="#FFFFFF" stroke-width="0.5" x1="1331.541" y1="871.026" x2="1401.446" y2="749.952"/>
				<line fill="none" stroke="#FFFFFF" stroke-width="0.5" x1="981.801" y1="507.867" x2="911.895" y2="628.942"/>
				<line fill="none" stroke="#FFFFFF" stroke-width="0.5" x1="841.831" y1="265.63" x2="1121.715" y2="750.007"/>
				<line fill="none" stroke="#FFFFFF" stroke-width="0.5" x1="1121.749" y1="507.792" x2="1051.496" y2="628.484"/>
				<line fill="none" stroke="#FFFFFF" stroke-width="0.5" x1="282.747" y1="992.128" x2="352.691" y2="1113.228"/>
				<line fill="none" stroke="#FFFFFF" stroke-width="0.5" x1="1401.487" y1="1234.304" x2="282.788" y2="1234.304"/>
				<line fill="none" stroke="#FFFFFF" stroke-width="0.5" x1="1401.487" y1="1234.302" x2="1261.657" y2="992.13"/>
				<line fill="none" stroke="#FFFFFF" stroke-width="0.5" x1="1261.735" y1="992.077" x2="1119.819" y2="1234.296"/>
				<line fill="none" stroke="#FFFFFF" stroke-width="0.5" x1="981.752" y1="1476.927" x2="842.178" y2="1718.626"/>
				<line fill="none" stroke="#FFFFFF" stroke-width="0.5" x1="1119.819" y1="1476.417" x2="982.491" y2="1235.105"/>
				<line fill="none" stroke="#FFFFFF" stroke-width="0.5" x1="842.195" y1="1476.464" x2="982.489" y2="1234.296"/>
				<line fill="none" stroke="#FFFFFF" stroke-width="0.5" x1="842.195" y1="1476.464" x2="702.145" y2="1234.29"/>
				<line fill="none" stroke="#FFFFFF" stroke-width="0.5" x1="562.493" y1="1234.29" x2="702.284" y2="992.177"/>
				<line fill="none" stroke="#FFFFFF" stroke-width="0.5" x1="562.493" y1="1234.292" x2="422.579" y2="992.151"/>
				<line fill="none" stroke="#FFFFFF" stroke-width="0.5" x1="842.402" y1="1718.626" x2="702.475" y2="1476.464"/>
				<line fill="none" stroke="#FFFFFF" stroke-width="0.5" x1="562.485" y1="1476.464" x2="702.145" y2="1234.29"/>
				<line fill="none" stroke="#FFFFFF" stroke-width="0.5" x1="562.493" y1="992.116" x2="562.493" y2="1476.464"/>
				<line fill="none" stroke="#FFFFFF" stroke-width="0.5" x1="702.284" y1="992.177" x2="842.195" y2="1234.304"/>
				<line fill="none" stroke="#FFFFFF" stroke-width="0.5" x1="842.195" y1="1234.304" x2="981.752" y2="992.179"/>
				<line fill="none" stroke="#FFFFFF" stroke-width="0.5" x1="1119.819" y1="1476.417" x2="1121.749" y2="992.397"/>
				<circle fill="none" stroke="#FFFFFF" stroke-width="0.5" cx="842.083" cy="992.128" r="726.798"/>
				<line fill="none" stroke="#FFFFFF" stroke-width="0.5" x1="981.752" y1="992.179" x2="1119.819" y2="1234.296"/>
			</g>
		</g>
		<g id="hexagon">
			<polygon fill="#FFFFFF" fill-opacity="0" stroke="#FFE86D" stroke-miterlimit="10" stroke-opacity="0" points="1.099,506.579 
				842.079,21.033 1683.069,506.579 1683.069,1477.671 842.079,1963.217 1.099,1477.671 			"/>
		</g>
	</g>
</g>
<g id="Layer_2_copy">
	<g>
		<line fill="none" stroke="#FFFFFF" stroke-width="4" x1="562.37" y1="992.594" x2="1121.749" y2="992.594"/>
		<line fill="none" stroke="#FFFFFF" stroke-width="4" x1="1121.749" y1="992.594" x2="842.123" y2="1476.922"/>
		<line fill="none" stroke="#FFFFFF" stroke-width="4" x1="841.623" y1="1477.818" x2="562.37" y2="992.594"/>
		<line fill="none" stroke="#FFFFFF" stroke-width="4" x1="842.036" y1="992.584" x2="562.334" y2="1477.449"/>
		<line fill="none" stroke="#FFFFFF" stroke-width="4" x1="422.569" y1="1234.744" x2="562.37" y2="992.594"/>
		<line fill="none" stroke="#FFFFFF" stroke-width="4" x1="1261.655" y1="1234.768" x2="1121.749" y2="992.584"/>
		<line fill="none" stroke="#FFFFFF" stroke-width="4" x1="1261.655" y1="1234.768" x2="422.569" y2="1234.744"/>
		<line fill="none" stroke="#FFFFFF" stroke-width="4" x1="702.153" y1="992.69" x2="980.838" y2="1477.374"/>
		<line fill="none" stroke="#FFFFFF" stroke-width="4" x1="1121.27" y1="1477.91" x2="1261.655" y2="1234.768"/>
		<line fill="none" stroke="#FFFFFF" stroke-width="4" x1="702.733" y1="1477.91" x2="562.436" y2="1234.639"/>
		<line fill="none" stroke="#FFFFFF" stroke-width="4" x1="422.569" y1="1234.744" x2="562.567" y2="1477.127"/>
		<line fill="none" stroke="#FFFFFF" stroke-width="4" x1="1120.782" y1="1476.897" x2="562.334" y2="1476.943"/>
		<line fill="none" stroke="#FFFFFF" stroke-width="4" x1="982.491" y1="992.584" x2="701.918" y2="1477.91"/>
		<line fill="none" stroke="#FFFFFF" stroke-width="4" x1="702.153" y1="992.69" x2="562.469" y2="1234.639"/>
		<line fill="none" stroke="#FFFFFF" stroke-width="4" x1="562.401" y1="992.594" x2="562.462" y2="1476.943"/>
		<line fill="none" stroke="#FFFFFF" stroke-width="4" x1="981.801" y1="992.621" x2="981.801" y2="1477.374"/>
		<line fill="none" stroke="#FFFFFF" stroke-width="4" x1="702.792" y1="1477.144" x2="702.471" y2="992.637"/>
		<line fill="none" stroke="#FFFFFF" stroke-width="4" x1="842.354" y1="992.584" x2="842.513" y2="1477.144"/>
		<line fill="none" stroke="#FFFFFF" stroke-width="4" x1="981.801" y1="1477.243" x2="1121.741" y2="1234.756"/>
		<line fill="none" stroke="#FFFFFF" stroke-width="4" x1="981.801" y1="992.659" x2="1121.741" y2="1234.756"/>
		<line fill="none" stroke="#FFFFFF" stroke-width="4" x1="842.036" y1="992.584" x2="1120.782" y2="1475.535"/>
		<line fill="none" stroke="#FFFFFF" stroke-width="4" x1="1119.819" y1="1477.12" x2="1121.749" y2="992.584"/>
	</g>
	<g>
		<line fill="none" stroke="#FFFFFF" stroke-width="4" x1="562.37" y1="507.804" x2="1121.749" y2="507.804"/>
		<line fill="none" stroke="#FFFFFF" stroke-width="4" x1="1121.749" y1="507.804" x2="842.123" y2="992.132"/>
		<line fill="none" stroke="#FFFFFF" stroke-width="4" x1="841.623" y1="993.028" x2="562.37" y2="507.804"/>
		<line fill="none" stroke="#FFFFFF" stroke-width="4" x1="842.036" y1="507.794" x2="562.334" y2="992.659"/>
		<line fill="none" stroke="#FFFFFF" stroke-width="4" x1="422.569" y1="749.954" x2="562.37" y2="507.804"/>
		<line fill="none" stroke="#FFFFFF" stroke-width="4" x1="1261.655" y1="749.978" x2="1121.749" y2="507.794"/>
		<line fill="none" stroke="#FFFFFF" stroke-width="4" x1="1261.655" y1="749.978" x2="422.569" y2="749.954"/>
		<line fill="none" stroke="#FFFFFF" stroke-width="4" x1="702.153" y1="507.9" x2="980.838" y2="992.584"/>
		<line fill="none" stroke="#FFFFFF" stroke-width="4" x1="1121.27" y1="993.12" x2="1261.655" y2="749.978"/>
		<line fill="none" stroke="#FFFFFF" stroke-width="4" x1="702.733" y1="993.12" x2="562.436" y2="749.849"/>
		<line fill="none" stroke="#FFFFFF" stroke-width="4" x1="422.569" y1="749.954" x2="562.567" y2="992.337"/>
		<line fill="none" stroke="#FFFFFF" stroke-width="4" x1="1120.782" y1="992.107" x2="562.334" y2="992.153"/>
		<line fill="none" stroke="#FFFFFF" stroke-width="4" x1="982.491" y1="507.794" x2="701.918" y2="993.12"/>
		<line fill="none" stroke="#FFFFFF" stroke-width="4" x1="702.153" y1="507.9" x2="562.469" y2="749.849"/>
		<line fill="none" stroke="#FFFFFF" stroke-width="4" x1="562.401" y1="507.804" x2="562.462" y2="992.153"/>
		<line fill="none" stroke="#FFFFFF" stroke-width="4" x1="981.801" y1="507.831" x2="981.801" y2="992.584"/>
		<line fill="none" stroke="#FFFFFF" stroke-width="4" x1="702.792" y1="992.354" x2="702.471" y2="507.847"/>
		<line fill="none" stroke="#FFFFFF" stroke-width="4" x1="842.354" y1="507.794" x2="842.513" y2="992.354"/>
		<line fill="none" stroke="#FFFFFF" stroke-width="4" x1="981.801" y1="992.453" x2="1121.741" y2="749.966"/>
		<line fill="none" stroke="#FFFFFF" stroke-width="4" x1="981.801" y1="507.869" x2="1121.741" y2="749.966"/>
		<line fill="none" stroke="#FFFFFF" stroke-width="4" x1="842.036" y1="507.794" x2="1120.782" y2="990.745"/>
		<line fill="none" stroke="#FFFFFF" stroke-width="4" x1="1119.819" y1="992.33" x2="1121.749" y2="507.794"/>
	</g>
</g>
<g id="Layer_3_copy_2" display="none">
	<g display="inline">
		<circle fill="none" stroke="#FFFFFF" stroke-width="4" cx="841.496" cy="1233.441" r="279.06"/>
		<circle fill="none" stroke="#FFFFFF" stroke-width="4" cx="702.792" cy="1233.441" r="279.06"/>
		<circle display="none" fill="none" stroke="#FFFFFF" stroke-width="4" cx="562.567" cy="1233.441" r="279.06"/>
		<circle display="none" fill="none" stroke="#FFFFFF" stroke-width="4" cx="1121.75" cy="1234.679" r="279.06"/>
		<circle fill="none" stroke="#FFFFFF" stroke-width="4" cx="981.851" cy="1233.441" r="279.06"/>
	</g>
	<g display="inline">
		<circle fill="none" stroke="#FFFFFF" stroke-width="4" cx="841.496" cy="748.796" r="279.06"/>
		<circle fill="none" stroke="#FFFFFF" stroke-width="4" cx="702.792" cy="748.796" r="279.06"/>
		<circle display="none" fill="none" stroke="#FFFFFF" stroke-width="4" cx="562.567" cy="748.796" r="279.06"/>
		<circle display="none" fill="none" stroke="#FFFFFF" stroke-width="4" cx="1121.75" cy="750.033" r="279.06"/>
		<circle fill="none" stroke="#FFFFFF" stroke-width="4" cx="981.851" cy="748.796" r="279.06"/>
	</g>
</g>
</svg>
