<?xml version="1.0" encoding="utf-8"?>
<!-- Generator: Adobe Illustrator 16.0.0, SVG Export Plug-In . SVG Version: 6.00 Build 0)  -->
<!DOCTYPE svg PUBLIC "-//W3C//DTD SVG 1.1//EN" "http://www.w3.org/Graphics/SVG/1.1/DTD/svg11.dtd">
<svg version="1.1" id="Layer_1" xmlns="http://www.w3.org/2000/svg" xmlns:xlink="http://www.w3.org/1999/xlink" x="0px" y="0px"
	 width="1687.334px" height="2012.229px" viewBox="0 0 1687.334 2012.229" enable-background="new 0 0 1687.334 2012.229"
	 xml:space="preserve">
<g id="sixtyFourTetraGroup">
	<g id="back" display="none">
		<rect id="image" x="0.508" display="inline" fill="#130E22" width="1686.318" height="2012.229"/>
	</g>
	<g id="fruit">
		<g>
			<path fill="none" stroke="#FFFFFF" d="M1002.847,1006.134c0,89.158-72.299,161.414-161.39,161.414
				c-89.201,0-161.497-72.252-161.497-161.414c0-89.221,72.296-161.473,161.497-161.473
				C930.552,844.664,1002.847,916.916,1002.847,1006.134z"/>
			<path fill="none" stroke="#FFFFFF" d="M1002.847,683.252c0,89.16-72.299,161.414-161.39,161.414
				c-89.201,0-161.497-72.254-161.497-161.414c0-89.218,72.296-161.47,161.497-161.47
				C930.552,521.782,1002.847,594.034,1002.847,683.252z"/>
			<path fill="none" stroke="#FFFFFF" d="M723.188,844.691c0,89.159-72.294,161.414-161.39,161.414
				c-89.197,0-161.497-72.255-161.497-161.414c0-89.219,72.3-161.471,161.497-161.471
				C650.894,683.222,723.188,755.474,723.188,844.691z"/>
			<path fill="none" stroke="#FFFFFF" d="M723.19,1167.563c0,89.162-72.294,161.414-161.388,161.414
				c-89.2,0-161.496-72.252-161.496-161.414c0-89.218,72.296-161.47,161.496-161.47
				C650.896,1006.094,723.19,1078.346,723.19,1167.563z"/>
			<path fill="none" stroke="#FFFFFF" d="M1002.847,1329.018c0,89.16-72.298,161.412-161.389,161.412
				c-89.202,0-161.497-72.252-161.497-161.412c0-89.22,72.295-161.475,161.497-161.475
				C930.554,1167.548,1002.847,1239.8,1002.847,1329.018z"/>
			<path fill="none" stroke="#FFFFFF" d="M1282.558,1167.576c0,89.162-72.295,161.414-161.39,161.414
				c-89.198,0-161.495-72.252-161.495-161.414c0-89.219,72.297-161.472,161.495-161.472
				C1210.263,1006.105,1282.558,1078.357,1282.558,1167.576z"/>
			<path fill="none" stroke="#FFFFFF" d="M1282.546,844.691c0,89.16-72.294,161.414-161.386,161.414
				c-89.201,0-161.497-72.254-161.497-161.414c0-89.219,72.296-161.47,161.497-161.47
				C1210.252,683.223,1282.546,755.474,1282.546,844.691z"/>
			<path fill="none" stroke="#FFFFFF" d="M1002.951,360.37c0,89.161-72.295,161.414-161.386,161.414
				c-89.201,0-161.497-72.253-161.497-161.414c0-89.219,72.295-161.47,161.497-161.47
				C930.656,198.9,1002.951,271.151,1002.951,360.37z"/>
			<path fill="none" stroke="#FFFFFF" d="M443.568,683.264c0,89.161-72.294,161.414-161.386,161.414
				c-89.201,0-161.5-72.253-161.5-161.414c0-89.222,72.296-161.473,161.5-161.473C371.273,521.795,443.568,594.046,443.568,683.264z
				"/>
			<path fill="none" stroke="#FFFFFF" d="M443.557,1329.029c0,89.164-72.294,161.416-161.39,161.416
				c-89.199,0-161.496-72.252-161.496-161.416c0-89.217,72.292-161.467,161.496-161.467
				C371.263,1167.563,443.557,1239.813,443.557,1329.029z"/>
			<path fill="none" stroke="#FFFFFF" d="M1562.311,1329.02c0,89.162-72.296,161.414-161.39,161.414
				c-89.197,0-161.496-72.252-161.496-161.414c0-89.22,72.299-161.47,161.496-161.47
				C1490.016,1167.55,1562.311,1239.8,1562.311,1329.02z"/>
			<path fill="none" stroke="#FFFFFF" d="M1562.3,683.274c0,89.161-72.295,161.413-161.386,161.413
				c-89.202,0-161.497-72.252-161.497-161.413c0-89.219,72.295-161.47,161.497-161.47
				C1490.005,521.806,1562.3,594.057,1562.3,683.274z"/>
			<path fill="none" stroke="#FFFFFF" d="M1002.934,1651.91c0,89.162-72.296,161.416-161.391,161.416
				c-89.2,0-161.497-72.254-161.497-161.416c0-89.217,72.297-161.467,161.497-161.467
				C930.638,1490.443,1002.934,1562.693,1002.934,1651.91z"/>
		</g>
		<g>
			<line fill="none" stroke="#FFFFFF" x1="433.449" y1="1235.51" x2="349.868" y2="1005.392"/>
			<line fill="none" stroke="#FFFFFF" x1="349.868" y1="1005.392" x2="594.558" y2="1005.924"/>
			<line fill="none" stroke="#FFFFFF" x1="1490.891" y1="774.859" x2="1173.837" y2="1236.065"/>
			<line fill="none" stroke="#FFFFFF" x1="827.356" y1="315.568" x2="912.903" y2="542.844"/>
			<line fill="none" stroke="#FFFFFF" x1="433.449" y1="1235.51" x2="190.489" y2="1235.328"/>
			<line fill="none" stroke="#FFFFFF" x1="508.956" y1="775.449" x2="190.489" y2="1235.328"/>
			<circle id="circle_1_" fill="none" stroke="#FFFFFF" cx="840.667" cy="1005.115" r="726.798"/>
			<line fill="none" stroke="#FFFFFF" x1="1245.151" y1="774.814" x2="1490.891" y2="774.859"/>
			<line fill="none" stroke="#FFFFFF" x1="1245.283" y1="774.678" x2="1331.53" y2="1005.085"/>
			<line fill="none" stroke="#FFFFFF" x1="1331.53" y1="1005.085" x2="1086.841" y2="1004.554"/>
			<path fill="none" stroke="#FFFFFF" d="M349.868,1005.392"/>
			<path fill="none" stroke="#FFFFFF" d="M594.558,1005.924"/>
			<line fill="none" stroke="#FFFFFF" x1="1014.035" y1="1463.769" x2="854.171" y2="1694.722"/>
			<line fill="none" stroke="#FFFFFF" x1="854.171" y1="1694.722" x2="767.077" y2="1464.417"/>
			<line fill="none" stroke="#FFFFFF" x1="827.356" y1="315.568" x2="668.179" y2="545.646"/>
		</g>
	</g>
	<g id="sixtyFour">
		<circle id="circle_6_" fill="none" stroke="#FFFFFF" cx="841.492" cy="1006.113" r="726.798"/>
		<g>
			<line fill="none" stroke="#FFFFFF" x1="1014.012" y1="1463.579" x2="522.258" y2="1464.763"/>
			<line fill="none" stroke="#FFFFFF" x1="522.258" y1="1464.763" x2="433.477" y2="1235.189"/>
			<line fill="none" stroke="#FFFFFF" x1="1014.012" y1="1463.579" x2="668.179" y2="545.529"/>
			<line fill="none" stroke="#FFFFFF" x1="668.179" y1="545.529" x2="1159.194" y2="545.023"/>
			<line fill="none" stroke="#FFFFFF" x1="508.956" y1="775.449" x2="1245.283" y2="774.678"/>
			<line fill="none" stroke="#FFFFFF" x1="1173.866" y1="1235.913" x2="1014.012" y2="1463.579"/>
			<line fill="none" stroke="#FFFFFF" x1="767.053" y1="1464.175" x2="508.956" y2="775.449"/>
			<line fill="none" stroke="#FFFFFF" x1="522.258" y1="1464.763" x2="1159.194" y2="545.023"/>
			<line fill="none" stroke="#FFFFFF" x1="1173.866" y1="1235.913" x2="433.477" y2="1235.189"/>
			<line fill="none" stroke="#FFFFFF" x1="668.179" y1="545.529" x2="508.956" y2="775.449"/>
			<line fill="none" stroke="#FFFFFF" x1="1245.283" y1="774.678" x2="767.053" y2="1464.175"/>
			<line fill="none" stroke="#FFFFFF" x1="1086.841" y1="1004.554" x2="595.572" y2="1006.093"/>
			<line fill="none" stroke="#FFFFFF" x1="433.477" y1="1235.189" x2="914.222" y2="545.646"/>
			<line fill="none" stroke="#FFFFFF" x1="914.222" y1="545.646" x2="1173.866" y2="1235.913"/>
			<line fill="none" stroke="#FFFFFF" x1="1159.194" y1="545.023" x2="1245.283" y2="774.678"/>
		</g>
	</g>
	<g id="hexagon">
		<polygon fill="#FFFFFF" fill-opacity="0" stroke="#FFE86D" stroke-miterlimit="10" stroke-opacity="0" points="0.508,520.567 
			841.487,35.021 1682.479,520.567 1682.479,1491.659 841.487,1977.205 0.508,1491.659 		"/>
	</g>
</g>
</svg>
