<?xml version="1.0" encoding="utf-8"?>
<!-- Generator: Adobe Illustrator 16.0.0, SVG Export Plug-In . SVG Version: 6.00 Build 0)  -->
<!DOCTYPE svg PUBLIC "-//W3C//DTD SVG 1.1//EN" "http://www.w3.org/Graphics/SVG/1.1/DTD/svg11.dtd">
<svg version="1.1" id="Layer_1" xmlns="http://www.w3.org/2000/svg" xmlns:xlink="http://www.w3.org/1999/xlink" x="0px" y="0px"
	 width="1687px" height="1984px" viewBox="0 0 1687 1984" enable-background="new 0 0 1687 1984" xml:space="preserve">
<g id="_x36_4Tetra3DFullGroup">
	<g id="back">
		<rect id="image" x="-1.475" fill="#130E22" width="1687" height="1984.252"/>
	</g>
	<g id="fruit">
		<g>
			<path fill="none" stroke="#FFFFFF" d="M1004.842,992c0,89.117-72.345,161.362-161.382,161.362
				c-89.198,0-161.342-72.325-161.342-161.362c0-89.218,72.285-161.442,161.342-161.442
				C932.518,830.558,1004.842,902.782,1004.842,992z"/>
			<path fill="none" stroke="#FFFFFF" d="M1004.842,669.135c0,89.178-72.345,161.383-161.382,161.383
				c-89.198,0-161.342-72.225-161.342-161.383c0-89.197,72.285-161.342,161.342-161.342
				C932.518,507.793,1004.842,579.979,1004.842,669.135z"/>
			<path fill="none" stroke="#FFFFFF" d="M725.232,830.578c0,89.198-72.349,161.382-161.362,161.382
				c-89.258,0-161.342-72.325-161.342-161.382c0-89.198,72.325-161.443,161.342-161.443
				C652.907,669.095,725.232,741.4,725.232,830.578z"/>
			<path fill="none" stroke="#FFFFFF" d="M725.232,1153.463c0,89.157-72.349,161.342-161.362,161.342
				c-89.258,0-161.342-72.225-161.342-161.342c0-89.277,72.325-161.463,161.342-161.463
				C652.907,991.96,725.232,1064.186,725.232,1153.463z"/>
			<path fill="none" stroke="#FFFFFF" d="M1004.842,1314.845c0,89.198-72.345,161.402-161.382,161.402
				c-89.198,0-161.342-72.244-161.342-161.402c0-89.196,72.285-161.438,161.342-161.438
				C932.518,1153.402,1004.842,1225.646,1004.842,1314.845z"/>
			<path fill="none" stroke="#FFFFFF" d="M1284.513,1153.463c0,89.157-72.325,161.342-161.342,161.342
				c-89.178,0-161.463-72.225-161.463-161.342c0-89.238,72.345-161.463,161.463-161.463
				C1212.229,991.96,1284.513,1064.225,1284.513,1153.463z"/>
			<path fill="none" stroke="#FFFFFF" d="M1284.513,830.578c0,89.198-72.325,161.382-161.342,161.382
				c-89.238,0-161.463-72.325-161.463-161.382c0-89.198,72.345-161.443,161.463-161.443
				C1212.208,669.095,1284.513,741.4,1284.513,830.578z"/>
			<path fill="none" stroke="#FFFFFF" d="M1004.963,346.35c0,89.138-72.346,161.362-161.362,161.362
				c-89.314,0-161.342-72.345-161.342-161.362c0-89.258,72.269-161.502,161.342-161.502
				C932.678,184.848,1004.963,257.133,1004.963,346.35z"/>
			<path fill="none" stroke="#FFFFFF" d="M445.622,669.135c0,89.178-72.325,161.383-161.342,161.383
				c-89.458,0-161.503-72.225-161.503-161.383c0-89.197,72.345-161.342,161.503-161.342
				C373.316,507.692,445.622,579.979,445.622,669.135z"/>
			<path fill="none" stroke="#FFFFFF" d="M445.622,1314.845c0,89.198-72.325,161.402-161.342,161.402
				c-89.458,0-161.523-72.244-161.523-161.402c0-89.196,72.345-161.382,161.523-161.382
				C373.316,1153.463,445.622,1225.646,445.622,1314.845z"/>
			<path fill="none" stroke="#FFFFFF" d="M1564.243,1314.845c0,89.198-72.325,161.402-161.362,161.402
				c-89.378,0-161.342-72.244-161.342-161.402c0-89.196,72.345-161.438,161.342-161.438
				C1491.918,1153.402,1564.243,1225.646,1564.243,1314.845z"/>
			<path fill="none" stroke="#FFFFFF" d="M1564.243,669.195c0,89.153-72.325,161.342-161.362,161.342
				c-89.378,0-161.342-72.188-161.342-161.342c0-89.258,72.345-161.463,161.342-161.463
				C1491.918,507.732,1564.243,579.979,1564.243,669.195z"/>
			<path fill="none" stroke="#FFFFFF" d="M1004.923,1637.71c0,89.157-72.346,161.442-161.363,161.442
				c-89.338,0-161.502-72.309-161.502-161.442c0-89.258,72.349-161.442,161.502-161.442
				C932.678,1476.268,1004.923,1548.492,1004.923,1637.71z"/>
		</g>
		<g id="_x36_4THG_3_">
			<g id="_x36_4_Grid_5_">
				<line fill="none" stroke="#FFFFFF" stroke-miterlimit="10" x1="844.236" y1="348.789" x2="844.217" y2="1637.722"/>
				<line fill="none" stroke="#FFFFFF" stroke-miterlimit="10" x1="1402.439" y1="671.038" x2="285.977" y2="1315.508"/>
				<line fill="none" stroke="#FFFFFF" stroke-miterlimit="10" x1="285.977" y1="671.001" x2="1402.439" y2="1315.508"/>
				<line fill="none" stroke="#FFFFFF" stroke-miterlimit="10" x1="565.07" y1="509.896" x2="1402.494" y2="993.251"/>
				<line fill="none" stroke="#FFFFFF" stroke-miterlimit="10" x1="1402.494" y1="993.251" x2="565.052" y2="1476.579"/>
				<line fill="none" stroke="#FFFFFF" stroke-miterlimit="10" x1="565.052" y1="1476.579" x2="565.07" y2="509.896"/>
				<line fill="none" stroke="#FFFFFF" stroke-miterlimit="10" x1="1123.329" y1="509.877" x2="1123.364" y2="1476.615"/>
				<line fill="none" stroke="#FFFFFF" stroke-miterlimit="10" x1="1123.364" y1="1476.615" x2="286.012" y2="993.251"/>
				<line fill="none" stroke="#FFFFFF" stroke-miterlimit="10" x1="286.012" y1="993.251" x2="1123.329" y2="509.877"/>
				<line fill="none" stroke="#FFFFFF" stroke-miterlimit="10" x1="425.523" y1="1073.795" x2="1123.313" y2="670.966"/>
				<line fill="none" stroke="#FFFFFF" stroke-miterlimit="10" x1="565.07" y1="509.896" x2="286.012" y2="993.251"/>
				<line fill="none" stroke="#FFFFFF" stroke-miterlimit="10" x1="286.012" y1="993.251" x2="565.052" y2="1476.579"/>
				<line fill="none" stroke="#FFFFFF" stroke-miterlimit="10" x1="565.052" y1="1476.579" x2="1123.364" y2="1476.615"/>
				<line fill="none" stroke="#FFFFFF" stroke-miterlimit="10" x1="1123.364" y1="1476.615" x2="1402.494" y2="993.251"/>
				<line fill="none" stroke="#FFFFFF" stroke-miterlimit="10" x1="1402.494" y1="993.251" x2="1123.329" y2="509.877"/>
				<line fill="none" stroke="#FFFFFF" stroke-miterlimit="10" x1="1123.329" y1="509.877" x2="565.07" y2="509.896"/>
				<line fill="none" stroke="#FFFFFF" stroke-miterlimit="10" x1="983.764" y1="590.502" x2="983.764" y2="1396.044"/>
				<line fill="none" stroke="#FFFFFF" stroke-miterlimit="10" x1="704.635" y1="590.43" x2="704.635" y2="1396.009"/>
				<line fill="none" stroke="#FFFFFF" stroke-miterlimit="10" x1="564.819" y1="671.199" x2="1262.876" y2="1073.795"/>
				<line fill="none" stroke="#FFFFFF" stroke-miterlimit="10" x1="425.523" y1="912.716" x2="1123.58" y2="1315.294"/>
				<line fill="none" stroke="#FFFFFF" stroke-miterlimit="10" x1="565.106" y1="1315.545" x2="1262.876" y2="912.68"/>
			</g>
			<g>
				<line fill="none" stroke="#FFFFFF" stroke-miterlimit="10" x1="285.977" y1="1315.508" x2="1402.439" y2="1315.508"/>
				<line fill="none" stroke="#FFFFFF" stroke-miterlimit="10" x1="1402.439" y1="671.038" x2="285.977" y2="671.001"/>
				<line fill="none" stroke="#FFFFFF" stroke-miterlimit="10" x1="286.012" y1="993.251" x2="1402.494" y2="993.251"/>
				<line fill="none" stroke="#FFFFFF" stroke-miterlimit="10" x1="704.67" y1="590.502" x2="983.764" y2="590.502"/>
				<line fill="none" stroke="#FFFFFF" stroke-miterlimit="10" x1="1262.876" y1="751.573" x2="425.523" y2="751.626"/>
				<line fill="none" stroke="#FFFFFF" stroke-miterlimit="10" x1="1309.439" y1="832.126" x2="378.996" y2="832.145"/>
				<line fill="none" stroke="#FFFFFF" stroke-miterlimit="10" x1="1262.858" y1="912.68" x2="425.56" y2="912.716"/>
				<line fill="none" stroke="#FFFFFF" stroke-miterlimit="10" x1="1262.876" y1="1073.795" x2="425.523" y2="1073.795"/>
				<line fill="none" stroke="#FFFFFF" stroke-miterlimit="10" x1="1309.439" y1="1154.438" x2="378.996" y2="1154.33"/>
				<line fill="none" stroke="#FFFFFF" stroke-miterlimit="10" x1="1262.876" y1="1234.938" x2="425.523" y2="1234.973"/>
				<line fill="none" stroke="#FFFFFF" stroke-miterlimit="10" x1="983.764" y1="1396.044" x2="704.581" y2="1396.044"/>
			</g>
			<g>
				<line fill="none" stroke="#FFFFFF" stroke-miterlimit="10" x1="425.631" y1="912.751" x2="565.196" y2="671.001"/>
				<line fill="none" stroke="#FFFFFF" stroke-miterlimit="10" x1="843.697" y1="510.828" x2="425.631" y2="1235.045"/>
				<line fill="none" stroke="#FFFFFF" stroke-miterlimit="10" x1="937.291" y1="509.805" x2="472.087" y2="1315.58"/>
				<line fill="none" stroke="#FFFFFF" stroke-miterlimit="10" x1="983.764" y1="590.43" x2="565.124" y2="1315.58"/>
				<line fill="none" stroke="#FFFFFF" stroke-miterlimit="10" x1="1123.313" y1="670.966" x2="704.635" y2="1396.152"/>
				<line fill="none" stroke="#FFFFFF" stroke-miterlimit="10" x1="1216.402" y1="670.966" x2="751.127" y2="1476.688"/>
				<line fill="none" stroke="#FFFFFF" stroke-miterlimit="10" x1="1262.821" y1="751.52" x2="844.199" y2="1476.579"/>
				<line fill="none" stroke="#FFFFFF" stroke-miterlimit="10" x1="1262.821" y1="1073.831" x2="1123.221" y2="1315.616"/>
				<line fill="none" stroke="#FFFFFF" stroke-miterlimit="10" x1="285.977" y1="1315.508" x2="844.236" y2="348.789"/>
				<line fill="none" stroke="#FFFFFF" stroke-miterlimit="10" x1="1402.439" y1="671.038" x2="844.217" y2="1637.722"/>
				<line fill="none" stroke="#FFFFFF" stroke-miterlimit="10" x1="1123.329" y1="509.877" x2="565.052" y2="1476.579"/>
			</g>
			<g>
				<line fill="none" stroke="#FFFFFF" stroke-miterlimit="10" x1="844.146" y1="509.859" x2="1262.895" y2="1235.045"/>
				<line fill="none" stroke="#FFFFFF" stroke-miterlimit="10" x1="565.196" y1="1315.545" x2="425.631" y2="1073.795"/>
				<line fill="none" stroke="#FFFFFF" stroke-miterlimit="10" x1="425.523" y1="751.626" x2="844.199" y2="1476.579"/>
				<line fill="none" stroke="#FFFFFF" stroke-miterlimit="10" x1="472.069" y1="670.93" x2="937.291" y2="1476.723"/>
				<line fill="none" stroke="#FFFFFF" stroke-miterlimit="10" x1="565.124" y1="670.966" x2="983.764" y2="1396.044"/>
				<line fill="none" stroke="#FFFFFF" stroke-miterlimit="10" x1="704.635" y1="590.43" x2="1123.329" y2="1315.616"/>
				<line fill="none" stroke="#FFFFFF" stroke-miterlimit="10" x1="751.162" y1="509.805" x2="1216.313" y2="1315.616"/>
				<line fill="none" stroke="#FFFFFF" stroke-miterlimit="10" x1="1123.275" y1="671.001" x2="1262.858" y2="912.787"/>
				<line fill="none" stroke="#FFFFFF" stroke-miterlimit="10" x1="565.07" y1="509.896" x2="1123.364" y2="1476.615"/>
				<line fill="none" stroke="#FFFFFF" stroke-miterlimit="10" x1="844.236" y1="348.789" x2="1402.439" y2="1315.508"/>
				<line fill="none" stroke="#FFFFFF" stroke-miterlimit="10" x1="844.217" y1="1637.722" x2="285.977" y2="671.001"/>
			</g>
			<g>
				<line fill="none" stroke="#FFFFFF" stroke-miterlimit="10" x1="844.199" y1="1476.579" x2="983.693" y2="1396.044"/>
				<line fill="none" stroke="#FFFFFF" stroke-miterlimit="10" x1="1122.127" y1="1316.189" x2="1262.876" y2="1234.938"/>
				<line fill="none" stroke="#FFFFFF" stroke-miterlimit="10" x1="1262.876" y1="912.68" x2="1262.876" y2="751.573"/>
				<line fill="none" stroke="#FFFFFF" stroke-miterlimit="10" x1="1262.876" y1="1234.938" x2="1262.876" y2="1073.795"/>
				<line fill="none" stroke="#FFFFFF" stroke-miterlimit="10" x1="844.199" y1="509.877" x2="704.67" y2="590.466"/>
				<line fill="none" stroke="#FFFFFF" stroke-miterlimit="10" x1="564.819" y1="671.199" x2="425.523" y2="751.626"/>
				<line fill="none" stroke="#FFFFFF" stroke-miterlimit="10" x1="425.523" y1="1234.973" x2="565.106" y2="1315.545"/>
				<line fill="none" stroke="#FFFFFF" stroke-miterlimit="10" x1="704.276" y1="1395.864" x2="844.199" y2="1476.579"/>
				<line fill="none" stroke="#FFFFFF" stroke-miterlimit="10" x1="425.523" y1="1073.795" x2="425.523" y2="1234.973"/>
				<line fill="none" stroke="#FFFFFF" stroke-miterlimit="10" x1="425.523" y1="751.626" x2="425.523" y2="912.716"/>
				<line fill="none" stroke="#FFFFFF" stroke-miterlimit="10" x1="983.764" y1="590.43" x2="844.199" y2="509.877"/>
				<line fill="none" stroke="#FFFFFF" stroke-miterlimit="10" x1="1262.876" y1="751.573" x2="1123.313" y2="670.966"/>
			</g>
		</g>
	</g>
	<g id="sixtyFour">
		<g>
			<g>
				<line fill="none" stroke="#FFFFFF" stroke-miterlimit="10" x1="703.666" y1="750.533" x2="983.389" y2="589.104"/>
				<line fill="none" stroke="#FFFFFF" stroke-miterlimit="10" x1="983.389" y1="750.533" x2="703.666" y2="589.104"/>
				<line fill="none" stroke="#FFFFFF" stroke-miterlimit="10" x1="843.482" y1="992.694" x2="843.482" y2="346.959"/>
				<line fill="none" stroke="#FFFFFF" stroke-miterlimit="10" x1="703.666" y1="750.533" x2="703.666" y2="427.674"/>
				<line fill="none" stroke="#FFFFFF" stroke-miterlimit="10" x1="983.389" y1="750.533" x2="983.389" y2="427.674"/>
				<line fill="none" stroke="#FFFFFF" stroke-miterlimit="10" x1="983.389" y1="427.674" x2="843.482" y2="346.959"/>
				<line fill="none" stroke="#FFFFFF" stroke-miterlimit="10" x1="843.482" y1="346.959" x2="703.666" y2="427.674"/>
				<line fill="none" stroke="#FFFFFF" stroke-miterlimit="10" x1="703.666" y1="427.674" x2="983.389" y2="427.674"/>
				<line fill="none" stroke="#FFFFFF" stroke-miterlimit="10" x1="983.389" y1="427.674" x2="843.482" y2="669.818"/>
				<line fill="none" stroke="#FFFFFF" stroke-miterlimit="10" x1="843.482" y1="669.818" x2="703.666" y2="427.674"/>
				<line fill="none" stroke="#FFFFFF" stroke-miterlimit="10" x1="703.666" y1="589.104" x2="843.482" y2="346.959"/>
				<line fill="none" stroke="#FFFFFF" stroke-miterlimit="10" x1="843.482" y1="346.959" x2="983.389" y2="589.104"/>
				<line fill="none" stroke="#FFFFFF" stroke-miterlimit="10" x1="983.389" y1="589.104" x2="703.666" y2="589.104"/>
				<line fill="none" stroke="#FFFFFF" stroke-miterlimit="10" x1="703.666" y1="750.533" x2="843.482" y2="992.694"/>
				<line fill="none" stroke="#FFFFFF" stroke-miterlimit="10" x1="843.482" y1="992.694" x2="983.389" y2="750.533"/>
				<line fill="none" stroke="#FFFFFF" stroke-miterlimit="10" x1="983.389" y1="750.533" x2="703.666" y2="750.533"/>
				<line fill="none" stroke="#FFFFFF" stroke-miterlimit="10" x1="703.666" y1="750.533" x2="843.482" y2="831.265"/>
				<line fill="none" stroke="#FFFFFF" stroke-miterlimit="10" x1="843.482" y1="831.265" x2="983.389" y2="750.533"/>
			</g>
			<g>
				<line fill="none" stroke="#FFFFFF" stroke-miterlimit="10" x1="983.369" y1="1234.184" x2="703.666" y2="1395.649"/>
				<line fill="none" stroke="#FFFFFF" stroke-miterlimit="10" x1="703.666" y1="1234.184" x2="983.369" y2="1395.649"/>
				<line fill="none" stroke="#FFFFFF" stroke-miterlimit="10" x1="843.572" y1="992.031" x2="843.572" y2="1637.759"/>
				<line fill="none" stroke="#FFFFFF" stroke-miterlimit="10" x1="983.369" y1="1234.184" x2="983.369" y2="1557.079"/>
				<line fill="none" stroke="#FFFFFF" stroke-miterlimit="10" x1="703.666" y1="1234.184" x2="703.666" y2="1557.079"/>
				<line fill="none" stroke="#FFFFFF" stroke-miterlimit="10" x1="703.666" y1="1557.079" x2="843.572" y2="1637.759"/>
				<line fill="none" stroke="#FFFFFF" stroke-miterlimit="10" x1="843.572" y1="1637.759" x2="983.369" y2="1557.079"/>
				<line fill="none" stroke="#FFFFFF" stroke-miterlimit="10" x1="983.369" y1="1557.079" x2="703.666" y2="1557.079"/>
				<line fill="none" stroke="#FFFFFF" stroke-miterlimit="10" x1="703.666" y1="1557.079" x2="843.572" y2="1314.898"/>
				<line fill="none" stroke="#FFFFFF" stroke-miterlimit="10" x1="843.572" y1="1314.898" x2="983.369" y2="1557.079"/>
				<line fill="none" stroke="#FFFFFF" stroke-miterlimit="10" x1="983.369" y1="1395.649" x2="843.572" y2="1637.759"/>
				<line fill="none" stroke="#FFFFFF" stroke-miterlimit="10" x1="843.572" y1="1637.759" x2="703.666" y2="1395.649"/>
				<line fill="none" stroke="#FFFFFF" stroke-miterlimit="10" x1="703.666" y1="1395.649" x2="983.369" y2="1395.649"/>
				<line fill="none" stroke="#FFFFFF" stroke-miterlimit="10" x1="983.369" y1="1234.184" x2="843.572" y2="992.031"/>
				<line fill="none" stroke="#FFFFFF" stroke-miterlimit="10" x1="843.572" y1="992.031" x2="703.666" y2="1234.184"/>
				<line fill="none" stroke="#FFFFFF" stroke-miterlimit="10" x1="703.666" y1="1234.184" x2="983.369" y2="1234.184"/>
				<line fill="none" stroke="#FFFFFF" stroke-miterlimit="10" x1="983.369" y1="1234.184" x2="843.572" y2="1153.47"/>
				<line fill="none" stroke="#FFFFFF" stroke-miterlimit="10" x1="843.572" y1="1153.47" x2="703.666" y2="1234.184"/>
			</g>
			<g>
				<line fill="none" stroke="#FFFFFF" stroke-miterlimit="10" x1="1123.168" y1="992.677" x2="1123.131" y2="1315.651"/>
				<line fill="none" stroke="#FFFFFF" stroke-miterlimit="10" x1="983.298" y1="1234.938" x2="1262.965" y2="1073.4"/>
				<line fill="none" stroke="#FFFFFF" stroke-miterlimit="10" x1="843.572" y1="992.677" x2="1402.763" y2="1315.545"/>
				<line fill="none" stroke="#FFFFFF" stroke-miterlimit="10" x1="1123.168" y1="992.677" x2="1402.799" y2="1154.114"/>
				<line fill="none" stroke="#FFFFFF" stroke-miterlimit="10" x1="983.298" y1="1234.938" x2="1262.93" y2="1396.367"/>
				<line fill="none" stroke="#FFFFFF" stroke-miterlimit="10" x1="1262.93" y1="1396.367" x2="1402.763" y2="1315.545"/>
				<line fill="none" stroke="#FFFFFF" stroke-miterlimit="10" x1="1402.763" y1="1315.545" x2="1402.799" y2="1154.114"/>
				<line fill="none" stroke="#FFFFFF" stroke-miterlimit="10" x1="1402.799" y1="1154.114" x2="1262.93" y2="1396.367"/>
				<line fill="none" stroke="#FFFFFF" stroke-miterlimit="10" x1="1262.93" y1="1396.367" x2="1123.168" y2="1154.114"/>
				<line fill="none" stroke="#FFFFFF" stroke-miterlimit="10" x1="1123.168" y1="1154.114" x2="1402.799" y2="1154.114"/>
				<line fill="none" stroke="#FFFFFF" stroke-miterlimit="10" x1="1262.965" y1="1073.4" x2="1402.763" y2="1315.545"/>
				<line fill="none" stroke="#FFFFFF" stroke-miterlimit="10" x1="1402.763" y1="1315.545" x2="1123.131" y2="1315.651"/>
				<line fill="none" stroke="#FFFFFF" stroke-miterlimit="10" x1="1123.131" y1="1315.651" x2="1262.965" y2="1073.4"/>
				<line fill="none" stroke="#FFFFFF" stroke-miterlimit="10" x1="1123.168" y1="992.677" x2="843.572" y2="992.677"/>
				<line fill="none" stroke="#FFFFFF" stroke-miterlimit="10" x1="843.572" y1="992.677" x2="983.298" y2="1234.938"/>
				<line fill="none" stroke="#FFFFFF" stroke-miterlimit="10" x1="983.298" y1="1234.938" x2="1123.168" y2="992.677"/>
				<line fill="none" stroke="#FFFFFF" stroke-miterlimit="10" x1="1123.168" y1="992.677" x2="983.369" y2="1073.4"/>
				<line fill="none" stroke="#FFFFFF" stroke-miterlimit="10" x1="983.369" y1="1073.4" x2="983.298" y2="1234.938"/>
			</g>
			<g>
				<line fill="none" stroke="#FFFFFF" stroke-miterlimit="10" x1="563.922" y1="992.73" x2="563.958" y2="669.782"/>
				<line fill="none" stroke="#FFFFFF" stroke-miterlimit="10" x1="703.774" y1="750.497" x2="424.124" y2="911.998"/>
				<line fill="none" stroke="#FFFFFF" stroke-miterlimit="10" x1="843.518" y1="992.73" x2="284.309" y2="669.872"/>
				<line fill="none" stroke="#FFFFFF" stroke-miterlimit="10" x1="563.922" y1="992.73" x2="284.309" y2="831.301"/>
				<line fill="none" stroke="#FFFFFF" stroke-miterlimit="10" x1="703.774" y1="750.497" x2="424.16" y2="589.067"/>
				<line fill="none" stroke="#FFFFFF" stroke-miterlimit="10" x1="424.16" y1="589.067" x2="284.309" y2="669.872"/>
				<line fill="none" stroke="#FFFFFF" stroke-miterlimit="10" x1="284.309" y1="669.872" x2="284.309" y2="831.301"/>
				<line fill="none" stroke="#FFFFFF" stroke-miterlimit="10" x1="284.309" y1="831.301" x2="424.16" y2="589.067"/>
				<line fill="none" stroke="#FFFFFF" stroke-miterlimit="10" x1="424.16" y1="589.067" x2="563.922" y2="831.301"/>
				<line fill="none" stroke="#FFFFFF" stroke-miterlimit="10" x1="563.922" y1="831.301" x2="284.309" y2="831.301"/>
				<line fill="none" stroke="#FFFFFF" stroke-miterlimit="10" x1="424.124" y1="911.998" x2="284.309" y2="669.872"/>
				<line fill="none" stroke="#FFFFFF" stroke-miterlimit="10" x1="284.309" y1="669.872" x2="563.958" y2="669.782"/>
				<line fill="none" stroke="#FFFFFF" stroke-miterlimit="10" x1="563.958" y1="669.782" x2="424.124" y2="911.998"/>
				<line fill="none" stroke="#FFFFFF" stroke-miterlimit="10" x1="563.922" y1="992.73" x2="843.518" y2="992.73"/>
				<line fill="none" stroke="#FFFFFF" stroke-miterlimit="10" x1="843.518" y1="992.73" x2="703.774" y2="750.497"/>
				<line fill="none" stroke="#FFFFFF" stroke-miterlimit="10" x1="703.774" y1="750.497" x2="563.922" y2="992.73"/>
				<line fill="none" stroke="#FFFFFF" stroke-miterlimit="10" x1="563.922" y1="992.73" x2="703.702" y2="912.034"/>
				<line fill="none" stroke="#FFFFFF" stroke-miterlimit="10" x1="703.702" y1="912.034" x2="703.774" y2="750.497"/>
			</g>
			<g>
				<line fill="none" stroke="#FFFFFF" stroke-miterlimit="10" x1="703.774" y1="1234.221" x2="424.106" y2="1072.719"/>
				<line fill="none" stroke="#FFFFFF" stroke-miterlimit="10" x1="563.905" y1="991.977" x2="563.94" y2="1314.898"/>
				<line fill="none" stroke="#FFFFFF" stroke-miterlimit="10" x1="843.572" y1="992.067" x2="284.344" y2="1314.936"/>
				<line fill="none" stroke="#FFFFFF" stroke-miterlimit="10" x1="703.774" y1="1234.221" x2="424.143" y2="1395.686"/>
				<line fill="none" stroke="#FFFFFF" stroke-miterlimit="10" x1="563.905" y1="991.977" x2="284.272" y2="1153.436"/>
				<line fill="none" stroke="#FFFFFF" stroke-miterlimit="10" x1="284.272" y1="1153.436" x2="284.344" y2="1314.936"/>
				<line fill="none" stroke="#FFFFFF" stroke-miterlimit="10" x1="284.344" y1="1314.936" x2="424.143" y2="1395.686"/>
				<line fill="none" stroke="#FFFFFF" stroke-miterlimit="10" x1="424.143" y1="1395.686" x2="284.272" y2="1153.436"/>
				<line fill="none" stroke="#FFFFFF" stroke-miterlimit="10" x1="284.272" y1="1153.436" x2="563.94" y2="1153.505"/>
				<line fill="none" stroke="#FFFFFF" stroke-miterlimit="10" x1="563.94" y1="1153.505" x2="424.143" y2="1395.686"/>
				<line fill="none" stroke="#FFFFFF" stroke-miterlimit="10" x1="563.94" y1="1314.898" x2="284.344" y2="1314.936"/>
				<line fill="none" stroke="#FFFFFF" stroke-miterlimit="10" x1="284.344" y1="1314.936" x2="424.106" y2="1072.719"/>
				<line fill="none" stroke="#FFFFFF" stroke-miterlimit="10" x1="424.106" y1="1072.719" x2="563.94" y2="1314.898"/>
				<line fill="none" stroke="#FFFFFF" stroke-miterlimit="10" x1="703.774" y1="1234.221" x2="843.572" y2="992.067"/>
				<line fill="none" stroke="#FFFFFF" stroke-miterlimit="10" x1="843.572" y1="992.067" x2="563.905" y2="991.977"/>
				<line fill="none" stroke="#FFFFFF" stroke-miterlimit="10" x1="563.905" y1="991.977" x2="703.774" y2="1234.221"/>
				<line fill="none" stroke="#FFFFFF" stroke-miterlimit="10" x1="703.774" y1="1234.221" x2="703.774" y2="1072.79"/>
				<line fill="none" stroke="#FFFFFF" stroke-miterlimit="10" x1="703.774" y1="1072.79" x2="563.905" y2="991.977"/>
			</g>
			<g>
				<line fill="none" stroke="#FFFFFF" stroke-miterlimit="10" x1="983.729" y1="751.25" x2="1263.396" y2="912.751"/>
				<line fill="none" stroke="#FFFFFF" stroke-miterlimit="10" x1="1123.598" y1="993.467" x2="1123.525" y2="670.518"/>
				<line fill="none" stroke="#FFFFFF" stroke-miterlimit="10" x1="843.93" y1="993.376" x2="1403.158" y2="670.518"/>
				<line fill="none" stroke="#FFFFFF" stroke-miterlimit="10" x1="983.729" y1="751.25" x2="1263.359" y2="589.785"/>
				<line fill="none" stroke="#FFFFFF" stroke-miterlimit="10" x1="1123.598" y1="993.467" x2="1403.193" y2="832.019"/>
				<line fill="none" stroke="#FFFFFF" stroke-miterlimit="10" x1="1403.193" y1="832.019" x2="1403.158" y2="670.518"/>
				<line fill="none" stroke="#FFFFFF" stroke-miterlimit="10" x1="1403.158" y1="670.518" x2="1263.359" y2="589.785"/>
				<line fill="none" stroke="#FFFFFF" stroke-miterlimit="10" x1="1263.359" y1="589.785" x2="1403.193" y2="832.019"/>
				<line fill="none" stroke="#FFFFFF" stroke-miterlimit="10" x1="1403.193" y1="832.019" x2="1123.525" y2="831.947"/>
				<line fill="none" stroke="#FFFFFF" stroke-miterlimit="10" x1="1123.525" y1="831.947" x2="1263.359" y2="589.785"/>
				<line fill="none" stroke="#FFFFFF" stroke-miterlimit="10" x1="1123.525" y1="670.518" x2="1403.158" y2="670.518"/>
				<line fill="none" stroke="#FFFFFF" stroke-miterlimit="10" x1="1403.158" y1="670.518" x2="1263.396" y2="912.751"/>
				<line fill="none" stroke="#FFFFFF" stroke-miterlimit="10" x1="1263.396" y1="912.751" x2="1123.525" y2="670.518"/>
				<line fill="none" stroke="#FFFFFF" stroke-miterlimit="10" x1="983.729" y1="751.25" x2="843.93" y2="993.376"/>
				<line fill="none" stroke="#FFFFFF" stroke-miterlimit="10" x1="843.93" y1="993.376" x2="1123.598" y2="993.467"/>
				<line fill="none" stroke="#FFFFFF" stroke-miterlimit="10" x1="1123.598" y1="993.467" x2="983.729" y2="751.25"/>
				<line fill="none" stroke="#FFFFFF" stroke-miterlimit="10" x1="983.729" y1="751.25" x2="983.729" y2="912.644"/>
				<line fill="none" stroke="#FFFFFF" stroke-miterlimit="10" x1="983.729" y1="912.644" x2="1123.598" y2="993.467"/>
			</g>
		</g>
		<g>
			<line fill="none" stroke="#FFFFFF" stroke-miterlimit="10" x1="703.702" y1="912.034" x2="843.482" y2="831.265"/>
			<line fill="none" stroke="#FFFFFF" stroke-miterlimit="10" x1="843.482" y1="831.265" x2="983.729" y2="912.644"/>
			<line fill="none" stroke="#FFFFFF" stroke-miterlimit="10" x1="983.729" y1="912.644" x2="983.369" y2="1073.4"/>
			<line fill="none" stroke="#FFFFFF" stroke-miterlimit="10" x1="983.369" y1="1073.4" x2="843.46" y2="1153.362"/>
			<line fill="none" stroke="#FFFFFF" stroke-miterlimit="10" x1="843.46" y1="1153.362" x2="703.774" y2="1072.79"/>
			<line fill="none" stroke="#FFFFFF" stroke-miterlimit="10" x1="703.774" y1="1072.79" x2="703.702" y2="912.034"/>
			<line fill="none" stroke="#FFFFFF" stroke-miterlimit="10" x1="843.482" y1="831.265" x2="983.369" y2="1073.4"/>
			<line fill="none" stroke="#FFFFFF" stroke-miterlimit="10" x1="983.369" y1="1073.4" x2="703.774" y2="1072.79"/>
			<line fill="none" stroke="#FFFFFF" stroke-miterlimit="10" x1="703.774" y1="1072.79" x2="843.482" y2="831.265"/>
			<line fill="none" stroke="#FFFFFF" stroke-miterlimit="10" x1="703.702" y1="912.034" x2="983.729" y2="912.644"/>
			<line fill="none" stroke="#FFFFFF" stroke-miterlimit="10" x1="983.729" y1="912.644" x2="843.572" y2="1153.47"/>
			<line fill="none" stroke="#FFFFFF" stroke-miterlimit="10" x1="843.572" y1="1153.47" x2="703.702" y2="912.034"/>
		</g>
	</g>
	<g id="hexagon">
		<polygon display="none" fill="#FFFFFF" fill-opacity="0" stroke="#FFE86D" stroke-miterlimit="10" stroke-opacity="0" points="
			-7,507 834,21 1675,507 1675,1478 834,1963 -7,1478 		"/>
	</g>
</g>
</svg>
