<?xml version="1.0" encoding="utf-8"?>
<!-- Generator: Adobe Illustrator 16.0.0, SVG Export Plug-In . SVG Version: 6.00 Build 0)  -->
<!DOCTYPE svg PUBLIC "-//W3C//DTD SVG 1.1//EN" "http://www.w3.org/Graphics/SVG/1.1/DTD/svg11.dtd">
<svg version="1.1" id="Layer_1" xmlns="http://www.w3.org/2000/svg" xmlns:xlink="http://www.w3.org/1999/xlink" x="0px" y="0px"
	 width="1687px" height="1984px" viewBox="0 0 1687 1984" enable-background="new 0 0 1687 1984" xml:space="preserve">
<g id="_x36_4Tetra3DFullGroup">
	<g id="back">
		<rect id="image" x="-1.475" fill="#130E22" width="1687" height="1984.252"/>
	</g>
	<g id="fruit">
		<g>
			<path fill="none" stroke="#FFFFFF" d="M1004.842,992c0,89.117-72.345,161.362-161.382,161.362
				c-89.198,0-161.342-72.325-161.342-161.362c0-89.218,72.285-161.442,161.342-161.442
				C932.518,830.558,1004.842,902.782,1004.842,992z"/>
			<path fill="none" stroke="#FFFFFF" d="M1004.842,669.135c0,89.178-72.345,161.383-161.382,161.383
				c-89.198,0-161.342-72.225-161.342-161.383c0-89.197,72.285-161.342,161.342-161.342
				C932.518,507.793,1004.842,579.979,1004.842,669.135z"/>
			<path fill="none" stroke="#FFFFFF" d="M725.232,830.578c0,89.198-72.35,161.382-161.362,161.382
				c-89.258,0-161.342-72.325-161.342-161.382c0-89.198,72.325-161.443,161.342-161.443
				C652.907,669.095,725.232,741.4,725.232,830.578z"/>
			<path fill="none" stroke="#FFFFFF" d="M725.232,1153.463c0,89.157-72.35,161.342-161.362,161.342
				c-89.258,0-161.342-72.225-161.342-161.342c0-89.277,72.325-161.463,161.342-161.463
				C652.907,991.96,725.232,1064.186,725.232,1153.463z"/>
			<path fill="none" stroke="#FFFFFF" d="M1004.842,1314.845c0,89.198-72.345,161.402-161.382,161.402
				c-89.198,0-161.342-72.244-161.342-161.402c0-89.196,72.285-161.438,161.342-161.438
				C932.518,1153.402,1004.842,1225.646,1004.842,1314.845z"/>
			<path fill="none" stroke="#FFFFFF" d="M1284.513,1153.463c0,89.157-72.325,161.342-161.342,161.342
				c-89.178,0-161.463-72.225-161.463-161.342c0-89.238,72.345-161.463,161.463-161.463
				C1212.229,991.96,1284.513,1064.225,1284.513,1153.463z"/>
			<path fill="none" stroke="#FFFFFF" d="M1284.513,830.578c0,89.198-72.325,161.382-161.342,161.382
				c-89.238,0-161.463-72.325-161.463-161.382c0-89.198,72.345-161.443,161.463-161.443
				C1212.208,669.095,1284.513,741.4,1284.513,830.578z"/>
			<path fill="none" stroke="#FFFFFF" d="M1004.963,346.35c0,89.138-72.346,161.362-161.362,161.362
				c-89.313,0-161.342-72.345-161.342-161.362c0-89.258,72.27-161.502,161.342-161.502
				C932.678,184.848,1004.963,257.133,1004.963,346.35z"/>
			<path fill="none" stroke="#FFFFFF" d="M445.622,669.135c0,89.178-72.325,161.383-161.342,161.383
				c-89.458,0-161.503-72.225-161.503-161.383c0-89.197,72.345-161.342,161.503-161.342
				C373.316,507.692,445.622,579.979,445.622,669.135z"/>
			<path fill="none" stroke="#FFFFFF" d="M445.622,1314.845c0,89.198-72.325,161.402-161.342,161.402
				c-89.458,0-161.523-72.244-161.523-161.402c0-89.196,72.345-161.382,161.523-161.382
				C373.316,1153.463,445.622,1225.646,445.622,1314.845z"/>
			<path fill="none" stroke="#FFFFFF" d="M1564.243,1314.845c0,89.198-72.325,161.402-161.362,161.402
				c-89.378,0-161.342-72.244-161.342-161.402c0-89.196,72.345-161.438,161.342-161.438
				C1491.918,1153.402,1564.243,1225.646,1564.243,1314.845z"/>
			<path fill="none" stroke="#FFFFFF" d="M1564.243,669.195c0,89.152-72.325,161.342-161.362,161.342
				c-89.378,0-161.342-72.188-161.342-161.342c0-89.258,72.345-161.463,161.342-161.463
				C1491.918,507.732,1564.243,579.979,1564.243,669.195z"/>
			<path fill="none" stroke="#FFFFFF" d="M1004.923,1637.71c0,89.157-72.346,161.442-161.363,161.442
				c-89.338,0-161.502-72.31-161.502-161.442c0-89.258,72.35-161.442,161.502-161.442
				C932.678,1476.268,1004.923,1548.492,1004.923,1637.71z"/>
		</g>
		<g id="_x36_4THG_3_" display="none">
			<g id="_x36_4_Grid_5_" display="inline">
				<line fill="none" stroke="#FFFFFF" stroke-miterlimit="10" x1="844.236" y1="348.789" x2="844.217" y2="1637.722"/>
				<line fill="none" stroke="#FFFFFF" stroke-miterlimit="10" x1="1402.439" y1="671.038" x2="285.977" y2="1315.508"/>
				<line fill="none" stroke="#FFFFFF" stroke-miterlimit="10" x1="285.977" y1="671.001" x2="1402.439" y2="1315.508"/>
				<line fill="none" stroke="#FFFFFF" stroke-miterlimit="10" x1="565.07" y1="509.896" x2="1402.494" y2="993.251"/>
				<line fill="none" stroke="#FFFFFF" stroke-miterlimit="10" x1="1402.494" y1="993.251" x2="565.052" y2="1476.579"/>
				<line fill="none" stroke="#FFFFFF" stroke-miterlimit="10" x1="565.052" y1="1476.579" x2="565.07" y2="509.896"/>
				<line fill="none" stroke="#FFFFFF" stroke-miterlimit="10" x1="1123.329" y1="509.877" x2="1123.364" y2="1476.615"/>
				<line fill="none" stroke="#FFFFFF" stroke-miterlimit="10" x1="1123.364" y1="1476.615" x2="286.012" y2="993.251"/>
				<line fill="none" stroke="#FFFFFF" stroke-miterlimit="10" x1="286.012" y1="993.251" x2="1123.329" y2="509.877"/>
				<line fill="none" stroke="#FFFFFF" stroke-miterlimit="10" x1="425.523" y1="1073.795" x2="1123.313" y2="670.966"/>
				<line fill="none" stroke="#FFFFFF" stroke-miterlimit="10" x1="565.07" y1="509.896" x2="286.012" y2="993.251"/>
				<line fill="none" stroke="#FFFFFF" stroke-miterlimit="10" x1="286.012" y1="993.251" x2="565.052" y2="1476.579"/>
				<line fill="none" stroke="#FFFFFF" stroke-miterlimit="10" x1="565.052" y1="1476.579" x2="1123.364" y2="1476.615"/>
				<line fill="none" stroke="#FFFFFF" stroke-miterlimit="10" x1="1123.364" y1="1476.615" x2="1402.494" y2="993.251"/>
				<line fill="none" stroke="#FFFFFF" stroke-miterlimit="10" x1="1402.494" y1="993.251" x2="1123.329" y2="509.877"/>
				<line fill="none" stroke="#FFFFFF" stroke-miterlimit="10" x1="1123.329" y1="509.877" x2="565.07" y2="509.896"/>
				<line fill="none" stroke="#FFFFFF" stroke-miterlimit="10" x1="983.764" y1="590.502" x2="983.764" y2="1396.044"/>
				<line fill="none" stroke="#FFFFFF" stroke-miterlimit="10" x1="704.635" y1="590.43" x2="704.635" y2="1396.009"/>
				<line fill="none" stroke="#FFFFFF" stroke-miterlimit="10" x1="564.819" y1="671.199" x2="1262.876" y2="1073.795"/>
				<line fill="none" stroke="#FFFFFF" stroke-miterlimit="10" x1="425.523" y1="912.716" x2="1123.58" y2="1315.294"/>
				<line fill="none" stroke="#FFFFFF" stroke-miterlimit="10" x1="565.106" y1="1315.545" x2="1262.876" y2="912.68"/>
			</g>
			<g display="inline">
				<line fill="none" stroke="#FFFFFF" stroke-miterlimit="10" x1="285.977" y1="1315.508" x2="1402.439" y2="1315.508"/>
				<line fill="none" stroke="#FFFFFF" stroke-miterlimit="10" x1="1402.439" y1="671.038" x2="285.977" y2="671.001"/>
				<line fill="none" stroke="#FFFFFF" stroke-miterlimit="10" x1="286.012" y1="993.251" x2="1402.494" y2="993.251"/>
				<line fill="none" stroke="#FFFFFF" stroke-miterlimit="10" x1="704.67" y1="590.502" x2="983.764" y2="590.502"/>
				<line fill="none" stroke="#FFFFFF" stroke-miterlimit="10" x1="1262.876" y1="751.573" x2="425.523" y2="751.626"/>
				<line fill="none" stroke="#FFFFFF" stroke-miterlimit="10" x1="1309.439" y1="832.126" x2="378.996" y2="832.145"/>
				<line fill="none" stroke="#FFFFFF" stroke-miterlimit="10" x1="1262.858" y1="912.68" x2="425.56" y2="912.716"/>
				<line fill="none" stroke="#FFFFFF" stroke-miterlimit="10" x1="1262.876" y1="1073.795" x2="425.523" y2="1073.795"/>
				<line fill="none" stroke="#FFFFFF" stroke-miterlimit="10" x1="1309.439" y1="1154.438" x2="378.996" y2="1154.33"/>
				<line fill="none" stroke="#FFFFFF" stroke-miterlimit="10" x1="1262.876" y1="1234.938" x2="425.523" y2="1234.973"/>
				<line fill="none" stroke="#FFFFFF" stroke-miterlimit="10" x1="983.764" y1="1396.044" x2="704.581" y2="1396.044"/>
			</g>
			<g display="inline">
				<line fill="none" stroke="#FFFFFF" stroke-miterlimit="10" x1="425.631" y1="912.751" x2="565.196" y2="671.001"/>
				<line fill="none" stroke="#FFFFFF" stroke-miterlimit="10" x1="843.697" y1="510.828" x2="425.631" y2="1235.045"/>
				<line fill="none" stroke="#FFFFFF" stroke-miterlimit="10" x1="937.291" y1="509.805" x2="472.087" y2="1315.58"/>
				<line fill="none" stroke="#FFFFFF" stroke-miterlimit="10" x1="983.764" y1="590.43" x2="565.124" y2="1315.58"/>
				<line fill="none" stroke="#FFFFFF" stroke-miterlimit="10" x1="1123.313" y1="670.966" x2="704.635" y2="1396.152"/>
				<line fill="none" stroke="#FFFFFF" stroke-miterlimit="10" x1="1216.402" y1="670.966" x2="751.127" y2="1476.688"/>
				<line fill="none" stroke="#FFFFFF" stroke-miterlimit="10" x1="1262.821" y1="751.52" x2="844.199" y2="1476.579"/>
				<line fill="none" stroke="#FFFFFF" stroke-miterlimit="10" x1="1262.821" y1="1073.831" x2="1123.221" y2="1315.616"/>
				<line fill="none" stroke="#FFFFFF" stroke-miterlimit="10" x1="285.977" y1="1315.508" x2="844.236" y2="348.789"/>
				<line fill="none" stroke="#FFFFFF" stroke-miterlimit="10" x1="1402.439" y1="671.038" x2="844.217" y2="1637.722"/>
				<line fill="none" stroke="#FFFFFF" stroke-miterlimit="10" x1="1123.329" y1="509.877" x2="565.052" y2="1476.579"/>
			</g>
			<g display="inline">
				<line fill="none" stroke="#FFFFFF" stroke-miterlimit="10" x1="844.146" y1="509.859" x2="1262.895" y2="1235.045"/>
				<line fill="none" stroke="#FFFFFF" stroke-miterlimit="10" x1="565.196" y1="1315.545" x2="425.631" y2="1073.795"/>
				<line fill="none" stroke="#FFFFFF" stroke-miterlimit="10" x1="425.523" y1="751.626" x2="844.199" y2="1476.579"/>
				<line fill="none" stroke="#FFFFFF" stroke-miterlimit="10" x1="472.069" y1="670.93" x2="937.291" y2="1476.723"/>
				<line fill="none" stroke="#FFFFFF" stroke-miterlimit="10" x1="565.124" y1="670.966" x2="983.764" y2="1396.044"/>
				<line fill="none" stroke="#FFFFFF" stroke-miterlimit="10" x1="704.635" y1="590.43" x2="1123.329" y2="1315.616"/>
				<line fill="none" stroke="#FFFFFF" stroke-miterlimit="10" x1="751.162" y1="509.805" x2="1216.313" y2="1315.616"/>
				<line fill="none" stroke="#FFFFFF" stroke-miterlimit="10" x1="1123.275" y1="671.001" x2="1262.858" y2="912.787"/>
				<line fill="none" stroke="#FFFFFF" stroke-miterlimit="10" x1="565.07" y1="509.896" x2="1123.364" y2="1476.615"/>
				<line fill="none" stroke="#FFFFFF" stroke-miterlimit="10" x1="844.236" y1="348.789" x2="1402.439" y2="1315.508"/>
				<line fill="none" stroke="#FFFFFF" stroke-miterlimit="10" x1="844.217" y1="1637.722" x2="285.977" y2="671.001"/>
			</g>
			<g display="inline">
				<line fill="none" stroke="#FFFFFF" stroke-miterlimit="10" x1="844.199" y1="1476.579" x2="983.693" y2="1396.044"/>
				<line fill="none" stroke="#FFFFFF" stroke-miterlimit="10" x1="1122.127" y1="1316.189" x2="1262.876" y2="1234.938"/>
				<line fill="none" stroke="#FFFFFF" stroke-miterlimit="10" x1="1262.876" y1="912.68" x2="1262.876" y2="751.573"/>
				<line fill="none" stroke="#FFFFFF" stroke-miterlimit="10" x1="1262.876" y1="1234.938" x2="1262.876" y2="1073.795"/>
				<line fill="none" stroke="#FFFFFF" stroke-miterlimit="10" x1="844.199" y1="509.877" x2="704.67" y2="590.466"/>
				<line fill="none" stroke="#FFFFFF" stroke-miterlimit="10" x1="564.819" y1="671.199" x2="425.523" y2="751.626"/>
				<line fill="none" stroke="#FFFFFF" stroke-miterlimit="10" x1="425.523" y1="1234.973" x2="565.106" y2="1315.545"/>
				<line fill="none" stroke="#FFFFFF" stroke-miterlimit="10" x1="704.276" y1="1395.864" x2="844.199" y2="1476.579"/>
				<line fill="none" stroke="#FFFFFF" stroke-miterlimit="10" x1="425.523" y1="1073.795" x2="425.523" y2="1234.973"/>
				<line fill="none" stroke="#FFFFFF" stroke-miterlimit="10" x1="425.523" y1="751.626" x2="425.523" y2="912.716"/>
				<line fill="none" stroke="#FFFFFF" stroke-miterlimit="10" x1="983.764" y1="590.43" x2="844.199" y2="509.877"/>
				<line fill="none" stroke="#FFFFFF" stroke-miterlimit="10" x1="1262.876" y1="751.573" x2="1123.313" y2="670.966"/>
			</g>
		</g>
	</g>
	<g id="sixtyFour">
		<g id="central_tree">
			<line fill="none" stroke="#FFFFFF" stroke-miterlimit="10" x1="703.702" y1="912.034" x2="843.46" y2="830.558"/>
			<line fill="none" stroke="#FFFFFF" stroke-miterlimit="10" x1="843.46" y1="830.558" x2="983.729" y2="912.644"/>
			<line fill="none" stroke="#FFFFFF" stroke-miterlimit="10" x1="983.729" y1="912.644" x2="982.984" y2="1073.4"/>
			<line fill="none" stroke="#FFFFFF" stroke-miterlimit="10" x1="982.984" y1="1073.4" x2="843.46" y2="1153.362"/>
			<line fill="none" stroke="#FFFFFF" stroke-miterlimit="10" x1="843.46" y1="1153.362" x2="703.774" y2="1072.79"/>
			<line fill="none" stroke="#FFFFFF" stroke-miterlimit="10" x1="703.774" y1="1072.79" x2="703.702" y2="912.034"/>
			<line fill="none" stroke="#FFFFFF" stroke-miterlimit="10" x1="843.46" y1="830.558" x2="982.984" y2="1073.4"/>
			<line fill="none" stroke="#FFFFFF" stroke-miterlimit="10" x1="982.984" y1="1073.4" x2="703.774" y2="1072.79"/>
			<line fill="none" stroke="#FFFFFF" stroke-miterlimit="10" x1="703.774" y1="1072.79" x2="843.46" y2="830.558"/>
			<line fill="none" stroke="#FFFFFF" stroke-miterlimit="10" x1="703.702" y1="912.034" x2="983.729" y2="912.644"/>
			<line fill="none" stroke="#FFFFFF" stroke-miterlimit="10" x1="983.729" y1="912.644" x2="843.572" y2="1153.47"/>
			<line fill="none" stroke="#FFFFFF" stroke-miterlimit="10" x1="843.572" y1="1153.47" x2="703.702" y2="912.034"/>
			<line fill="none" stroke="#FFFFFF" stroke-miterlimit="10" x1="703.702" y1="912.034" x2="982.984" y2="1073.4"/>
			<line fill="none" stroke="#FFFFFF" stroke-miterlimit="10" x1="703.774" y1="1072.79" x2="983.729" y2="912.644"/>
		</g>
		<g display="none">
			<g id="tree1_3_" display="inline">
				<line fill="none" stroke="#FFFFFF" stroke-miterlimit="10" x1="843.482" y1="992.694" x2="843.491" y2="1638.431"/>
				<line fill="none" stroke="#FFFFFF" stroke-miterlimit="10" x1="983.303" y1="1234.853" x2="983.305" y2="1396.283"/>
				<line fill="none" stroke="#FFFFFF" stroke-miterlimit="10" x1="703.579" y1="1234.858" x2="703.582" y2="1396.287"/>
				<line fill="none" stroke="#FFFFFF" stroke-miterlimit="10" x1="983.305" y1="1396.283" x2="843.491" y2="1638.431"/>
				<line fill="none" stroke="#FFFFFF" stroke-miterlimit="10" x1="843.491" y1="1638.431" x2="703.582" y2="1396.287"/>
				<line fill="none" stroke="#FFFFFF" stroke-miterlimit="10" x1="703.582" y1="1396.287" x2="983.305" y2="1396.283"/>
				<line fill="none" stroke="#FFFFFF" stroke-miterlimit="10" x1="983.303" y1="1234.853" x2="843.482" y2="992.694"/>
				<line fill="none" stroke="#FFFFFF" stroke-miterlimit="10" x1="843.482" y1="992.694" x2="703.579" y2="1234.858"/>
				<line fill="none" stroke="#FFFFFF" stroke-miterlimit="10" x1="703.579" y1="1234.858" x2="983.303" y2="1234.853"/>
				<line fill="none" stroke="#FFFFFF" stroke-miterlimit="10" x1="983.305" y1="1396.283" x2="843.722" y2="1477.676"/>
				<line fill="none" stroke="#FFFFFF" stroke-miterlimit="10" x1="843.722" y1="1477.676" x2="703.582" y2="1396.287"/>
				<line fill="none" stroke="#FFFFFF" stroke-miterlimit="10" x1="843.722" y1="1477.676" x2="983.303" y2="1234.853"/>
				<line fill="none" stroke="#FFFFFF" stroke-miterlimit="10" x1="843.722" y1="1477.676" x2="703.579" y2="1234.858"/>
				<line fill="none" stroke="#FFFFFF" stroke-miterlimit="10" x1="843.506" y1="1154.832" x2="703.582" y2="1396.287"/>
				<line fill="none" stroke="#FFFFFF" stroke-miterlimit="10" x1="843.506" y1="1154.832" x2="983.305" y2="1396.283"/>
				<line fill="none" stroke="#FFFFFF" stroke-miterlimit="10" x1="843.506" y1="1154.832" x2="703.579" y2="1234.858"/>
				<line fill="none" stroke="#FFFFFF" stroke-miterlimit="10" x1="983.303" y1="1234.853" x2="843.506" y2="1154.832"/>
			</g>
			<g id="tree1_1_" display="inline">
				<line fill="none" stroke="#FFFFFF" stroke-miterlimit="10" x1="843.482" y1="992.694" x2="1402.453" y2="669.389"/>
				<line fill="none" stroke="#FFFFFF" stroke-miterlimit="10" x1="983.102" y1="750.419" x2="1122.841" y2="669.595"/>
				<line fill="none" stroke="#FFFFFF" stroke-miterlimit="10" x1="1123.153" y1="992.557" x2="1262.892" y2="911.732"/>
				<line fill="none" stroke="#FFFFFF" stroke-miterlimit="10" x1="1122.841" y1="669.595" x2="1402.453" y2="669.389"/>
				<line fill="none" stroke="#FFFFFF" stroke-miterlimit="10" x1="1402.453" y1="669.389" x2="1262.892" y2="911.732"/>
				<line fill="none" stroke="#FFFFFF" stroke-miterlimit="10" x1="1262.892" y1="911.732" x2="1122.841" y2="669.595"/>
				<line fill="none" stroke="#FFFFFF" stroke-miterlimit="10" x1="983.102" y1="750.419" x2="843.482" y2="992.694"/>
				<line fill="none" stroke="#FFFFFF" stroke-miterlimit="10" x1="843.482" y1="992.694" x2="1123.153" y2="992.557"/>
				<line fill="none" stroke="#FFFFFF" stroke-miterlimit="10" x1="1123.153" y1="992.557" x2="983.102" y2="750.419"/>
				<line fill="none" stroke="#FFFFFF" stroke-miterlimit="10" x1="1122.841" y1="669.595" x2="1263.182" y2="749.673"/>
				<line fill="none" stroke="#FFFFFF" stroke-miterlimit="10" x1="1263.182" y1="749.673" x2="1262.892" y2="911.732"/>
				<line fill="none" stroke="#FFFFFF" stroke-miterlimit="10" x1="1263.182" y1="749.673" x2="983.102" y2="750.419"/>
				<line fill="none" stroke="#FFFFFF" stroke-miterlimit="10" x1="1263.182" y1="749.673" x2="1123.153" y2="992.557"/>
				<line fill="none" stroke="#FFFFFF" stroke-miterlimit="10" x1="983.822" y1="911.497" x2="1262.892" y2="911.732"/>
				<line fill="none" stroke="#FFFFFF" stroke-miterlimit="10" x1="983.822" y1="911.497" x2="1122.841" y2="669.595"/>
				<line fill="none" stroke="#FFFFFF" stroke-miterlimit="10" x1="983.822" y1="911.497" x2="1123.153" y2="992.557"/>
				<line fill="none" stroke="#FFFFFF" stroke-miterlimit="10" x1="983.102" y1="750.419" x2="983.822" y2="911.497"/>
			</g>
			<g id="tree1_5_" display="inline">
				<line fill="none" stroke="#FFFFFF" stroke-miterlimit="10" x1="843.481" y1="992.694" x2="284.533" y2="669.349"/>
				<line fill="none" stroke="#FFFFFF" stroke-miterlimit="10" x1="563.855" y1="992.462" x2="424.122" y2="911.626"/>
				<line fill="none" stroke="#FFFFFF" stroke-miterlimit="10" x1="703.923" y1="750.332" x2="564.19" y2="669.499"/>
				<line fill="none" stroke="#FFFFFF" stroke-miterlimit="10" x1="424.122" y1="911.626" x2="284.533" y2="669.349"/>
				<line fill="none" stroke="#FFFFFF" stroke-miterlimit="10" x1="284.533" y1="669.349" x2="564.19" y2="669.499"/>
				<line fill="none" stroke="#FFFFFF" stroke-miterlimit="10" x1="564.19" y1="669.499" x2="424.122" y2="911.626"/>
				<line fill="none" stroke="#FFFFFF" stroke-miterlimit="10" x1="563.855" y1="992.462" x2="843.481" y2="992.694"/>
				<line fill="none" stroke="#FFFFFF" stroke-miterlimit="10" x1="843.481" y1="992.694" x2="703.923" y2="750.332"/>
				<line fill="none" stroke="#FFFFFF" stroke-miterlimit="10" x1="703.923" y1="750.332" x2="563.855" y2="992.462"/>
				<line fill="none" stroke="#FFFFFF" stroke-miterlimit="10" x1="424.122" y1="911.626" x2="423.565" y2="750.048"/>
				<line fill="none" stroke="#FFFFFF" stroke-miterlimit="10" x1="423.565" y1="750.048" x2="564.19" y2="669.499"/>
				<line fill="none" stroke="#FFFFFF" stroke-miterlimit="10" x1="423.565" y1="750.048" x2="563.855" y2="992.462"/>
				<line fill="none" stroke="#FFFFFF" stroke-miterlimit="10" x1="423.565" y1="750.048" x2="703.923" y2="750.332"/>
				<line fill="none" stroke="#FFFFFF" stroke-miterlimit="10" x1="703.125" y1="911.524" x2="564.19" y2="669.499"/>
				<line fill="none" stroke="#FFFFFF" stroke-miterlimit="10" x1="703.125" y1="911.524" x2="424.122" y2="911.626"/>
				<line fill="none" stroke="#FFFFFF" stroke-miterlimit="10" x1="703.125" y1="911.524" x2="703.923" y2="750.332"/>
				<line fill="none" stroke="#FFFFFF" stroke-miterlimit="10" x1="563.855" y1="992.462" x2="703.125" y2="911.524"/>
			</g>
		</g>
		<g>
			<g id="tree1_2_">
				<line fill="none" stroke="#FFFFFF" stroke-miterlimit="10" x1="843.482" y1="992.694" x2="1403.07" y2="1314.932"/>
				<line fill="none" stroke="#FFFFFF" stroke-miterlimit="10" x1="1123.107" y1="992.374" x2="1263.002" y2="1072.932"/>
				<line fill="none" stroke="#FFFFFF" stroke-miterlimit="10" x1="983.521" y1="1234.78" x2="1123.413" y2="1315.336"/>
				<line fill="none" stroke="#FFFFFF" stroke-miterlimit="10" x1="1263.002" y1="1072.932" x2="1403.07" y2="1314.932"/>
				<line fill="none" stroke="#FFFFFF" stroke-miterlimit="10" x1="1403.07" y1="1314.932" x2="1123.413" y2="1315.336"/>
				<line fill="none" stroke="#FFFFFF" stroke-miterlimit="10" x1="1123.413" y1="1315.336" x2="1263.002" y2="1072.932"/>
				<line fill="none" stroke="#FFFFFF" stroke-miterlimit="10" x1="1123.107" y1="992.374" x2="843.482" y2="992.694"/>
				<line fill="none" stroke="#FFFFFF" stroke-miterlimit="10" x1="843.482" y1="992.694" x2="983.521" y2="1234.78"/>
				<line fill="none" stroke="#FFFFFF" stroke-miterlimit="10" x1="983.521" y1="1234.78" x2="1123.107" y2="992.374"/>
				<line fill="none" stroke="#FFFFFF" stroke-miterlimit="10" x1="1263.002" y1="1072.932" x2="1263.878" y2="1234.509"/>
				<line fill="none" stroke="#FFFFFF" stroke-miterlimit="10" x1="1263.878" y1="1234.509" x2="1123.413" y2="1315.336"/>
				<line fill="none" stroke="#FFFFFF" stroke-miterlimit="10" x1="1263.878" y1="1234.509" x2="1123.107" y2="992.374"/>
				<line fill="none" stroke="#FFFFFF" stroke-miterlimit="10" x1="1263.878" y1="1234.509" x2="983.521" y2="1234.78"/>
				<line fill="none" stroke="#FFFFFF" stroke-miterlimit="10" x1="983.999" y1="1073.586" x2="1123.413" y2="1315.336"/>
				<line fill="none" stroke="#FFFFFF" stroke-miterlimit="10" x1="983.999" y1="1073.586" x2="1263.002" y2="1072.932"/>
				<line fill="none" stroke="#FFFFFF" stroke-miterlimit="10" x1="983.999" y1="1073.586" x2="983.521" y2="1234.78"/>
				<line fill="none" stroke="#FFFFFF" stroke-miterlimit="10" x1="1123.107" y1="992.374" x2="983.999" y2="1073.586"/>
			</g>
			<g id="tree1_4_">
				<line fill="none" stroke="#FFFFFF" stroke-miterlimit="10" x1="843.482" y1="992.694" x2="283.935" y2="1315.002"/>
				<line fill="none" stroke="#FFFFFF" stroke-miterlimit="10" x1="703.431" y1="1234.721" x2="563.547" y2="1315.295"/>
				<line fill="none" stroke="#FFFFFF" stroke-miterlimit="10" x1="563.811" y1="992.333" x2="423.929" y2="1072.908"/>
				<line fill="none" stroke="#FFFFFF" stroke-miterlimit="10" x1="563.547" y1="1315.295" x2="283.935" y2="1315.002"/>
				<line fill="none" stroke="#FFFFFF" stroke-miterlimit="10" x1="283.935" y1="1315.002" x2="423.929" y2="1072.908"/>
				<line fill="none" stroke="#FFFFFF" stroke-miterlimit="10" x1="423.929" y1="1072.908" x2="563.547" y2="1315.295"/>
				<line fill="none" stroke="#FFFFFF" stroke-miterlimit="10" x1="703.431" y1="1234.721" x2="843.482" y2="992.694"/>
				<line fill="none" stroke="#FFFFFF" stroke-miterlimit="10" x1="843.482" y1="992.694" x2="563.811" y2="992.333"/>
				<line fill="none" stroke="#FFFFFF" stroke-miterlimit="10" x1="563.811" y1="992.333" x2="703.431" y2="1234.721"/>
				<line fill="none" stroke="#FFFFFF" stroke-miterlimit="10" x1="563.547" y1="1315.295" x2="423.35" y2="1234.967"/>
				<line fill="none" stroke="#FFFFFF" stroke-miterlimit="10" x1="423.35" y1="1234.967" x2="423.929" y2="1072.908"/>
				<line fill="none" stroke="#FFFFFF" stroke-miterlimit="10" x1="423.35" y1="1234.967" x2="703.431" y2="1234.721"/>
				<line fill="none" stroke="#FFFFFF" stroke-miterlimit="10" x1="423.35" y1="1234.967" x2="563.811" y2="992.333"/>
				<line fill="none" stroke="#FFFFFF" stroke-miterlimit="10" x1="702.996" y1="1073.642" x2="423.929" y2="1072.908"/>
				<line fill="none" stroke="#FFFFFF" stroke-miterlimit="10" x1="702.996" y1="1073.642" x2="563.547" y2="1315.295"/>
				<line fill="none" stroke="#FFFFFF" stroke-miterlimit="10" x1="702.996" y1="1073.642" x2="563.811" y2="992.333"/>
				<line fill="none" stroke="#FFFFFF" stroke-miterlimit="10" x1="703.431" y1="1234.721" x2="702.996" y2="1073.642"/>
			</g>
			<g id="tree1">
				<line fill="none" stroke="#FFFFFF" stroke-miterlimit="10" x1="843.482" y1="992.694" x2="843.482" y2="346.959"/>
				<line fill="none" stroke="#FFFFFF" stroke-miterlimit="10" x1="703.666" y1="750.533" x2="703.666" y2="589.104"/>
				<line fill="none" stroke="#FFFFFF" stroke-miterlimit="10" x1="983.389" y1="750.533" x2="983.389" y2="589.104"/>
				<line fill="none" stroke="#FFFFFF" stroke-miterlimit="10" x1="703.666" y1="589.104" x2="843.482" y2="346.959"/>
				<line fill="none" stroke="#FFFFFF" stroke-miterlimit="10" x1="843.482" y1="346.959" x2="983.389" y2="589.104"/>
				<line fill="none" stroke="#FFFFFF" stroke-miterlimit="10" x1="983.389" y1="589.104" x2="703.666" y2="589.104"/>
				<line fill="none" stroke="#FFFFFF" stroke-miterlimit="10" x1="703.666" y1="750.533" x2="843.482" y2="992.694"/>
				<line fill="none" stroke="#FFFFFF" stroke-miterlimit="10" x1="843.482" y1="992.694" x2="983.389" y2="750.533"/>
				<line fill="none" stroke="#FFFFFF" stroke-miterlimit="10" x1="983.389" y1="750.533" x2="703.666" y2="750.533"/>
				<line fill="none" stroke="#FFFFFF" stroke-miterlimit="10" x1="703.666" y1="589.104" x2="843.25" y2="507.712"/>
				<line fill="none" stroke="#FFFFFF" stroke-miterlimit="10" x1="843.25" y1="507.712" x2="983.389" y2="589.104"/>
				<line fill="none" stroke="#FFFFFF" stroke-miterlimit="10" x1="843.25" y1="507.712" x2="703.666" y2="750.533"/>
				<line fill="none" stroke="#FFFFFF" stroke-miterlimit="10" x1="843.25" y1="507.712" x2="983.389" y2="750.533"/>
				<line fill="none" stroke="#FFFFFF" stroke-miterlimit="10" x1="843.46" y1="830.558" x2="983.389" y2="589.104"/>
				<line fill="none" stroke="#FFFFFF" stroke-miterlimit="10" x1="843.46" y1="830.558" x2="703.666" y2="589.104"/>
				<line fill="none" stroke="#FFFFFF" stroke-miterlimit="10" x1="843.46" y1="830.558" x2="983.389" y2="750.533"/>
				<line fill="none" stroke="#FFFFFF" stroke-miterlimit="10" x1="703.666" y1="750.533" x2="843.46" y2="830.558"/>
			</g>
		</g>
	</g>
	<g id="hexagon" display="none">
		<polygon fill="#FFFFFF" fill-opacity="0" stroke="#FFE86D" stroke-miterlimit="10" stroke-opacity="0" points="-7,507 834,21 
			1675,507 1675,1478 834,1963 -7,1478 		"/>
	</g>
</g>
</svg>
