<?xml version="1.0" encoding="UTF-8"?>
<!DOCTYPE svg  PUBLIC '-//W3C//DTD SVG 1.1//EN'  'http://www.w3.org/Graphics/SVG/1.1/DTD/svg11.dtd'>
<svg width="1687.4px" height="1984.3px" enable-background="new -10.229 0 1687.375 1984.252" version="1.1" viewBox="-10.229 0 1687.4 1984.3" xml:space="preserve" xmlns="http://www.w3.org/2000/svg">

	
		<rect x="-211.48" y="-13.988" width="1984" height="1998.2" display="none" fill="#130E22"/>
	
	<g stroke-width="2">
		<g fill="none" stroke="#fff">
			<path d="m994.99 992.15c0 89.157-72.299 161.41-161.39 161.41-89.201 0-161.5-72.252-161.5-161.41 0-89.222 72.295-161.47 161.5-161.47 89.096 4e-3 161.39 72.256 161.39 161.47z"/>
			<path d="m994.99 669.26c0 89.16-72.299 161.41-161.39 161.41-89.201 0-161.5-72.254-161.5-161.41 0-89.218 72.295-161.47 161.5-161.47 89.096 0 161.39 72.252 161.39 161.47z"/>
			<path d="m715.33 830.7c0 89.16-72.294 161.41-161.39 161.41-89.196 0-161.5-72.254-161.5-161.41 0-89.218 72.301-161.47 161.5-161.47 89.096 0 161.39 72.252 161.39 161.47z"/>
			<path d="m715.33 1153.6c0 89.162-72.293 161.41-161.39 161.41-89.2 0-161.5-72.252-161.5-161.41 0-89.218 72.296-161.47 161.5-161.47 89.092 1e-3 161.39 72.253 161.39 161.47z"/>
			<path d="m994.99 1315c0 89.16-72.299 161.41-161.39 161.41-89.203 0-161.5-72.252-161.5-161.41 0-89.22 72.294-161.48 161.5-161.48 89.096 7e-3 161.39 72.259 161.39 161.48z"/>
			<path d="m1274.7 1153.6c0 89.162-72.295 161.41-161.39 161.41-89.197 0-161.49-72.252-161.49-161.41 0-89.219 72.297-161.47 161.49-161.47 89.096 0 161.39 72.252 161.39 161.47z"/>
			<path d="m1274.7 830.7c0 89.161-72.293 161.41-161.38 161.41-89.201 0-161.5-72.253-161.5-161.41 0-89.218 72.297-161.47 161.5-161.47 89.092 0 161.38 72.251 161.38 161.47z"/>
			<path d="m995.1 346.38c0 89.161-72.295 161.41-161.39 161.41-89.201 0-161.5-72.253-161.5-161.41 0-89.219 72.295-161.47 161.5-161.47 89.092 0 161.39 72.251 161.39 161.47z"/>
			<path d="m435.71 669.28c0 89.161-72.294 161.41-161.39 161.41-89.201 0-161.5-72.253-161.5-161.41 0-89.223 72.296-161.47 161.5-161.47 89.091 6e-3 161.39 72.257 161.39 161.47z"/>
			<path d="m435.7 1315c0 89.164-72.294 161.42-161.39 161.42-89.199 0-161.5-72.252-161.5-161.42 0-89.217 72.292-161.47 161.5-161.47 89.097 0 161.39 72.25 161.39 161.47z"/>
			<path d="m1554.5 1315c0 89.162-72.297 161.41-161.39 161.41-89.197 0-161.5-72.252-161.5-161.41 0-89.22 72.299-161.47 161.5-161.47 89.096 1e-3 161.39 72.251 161.39 161.47z"/>
			<path d="m1554.4 669.29c0 89.162-72.295 161.41-161.38 161.41-89.203 0-161.5-72.252-161.5-161.41 0-89.218 72.295-161.47 161.5-161.47 89.09 0 161.38 72.251 161.38 161.47z"/>
			<path d="m995.08 1637.9c0 89.162-72.297 161.42-161.39 161.42-89.199 0-161.5-72.254-161.5-161.42 0-89.217 72.297-161.47 161.5-161.47 89.096 0 161.39 72.25 161.39 161.47z"/>
		</g>
	</g>
	<g stroke-width="8">
		<g fill="none" stroke="#fff">
			<line x1="834.61" x2="834.59" y1="346.06" y2="992.12"/>
			<line x1="833.64" x2="275.22" y1="992.39" y2="1314.7"/>
			<line x1="835.13" x2="1394" y1="992.12" y2="1314.7"/>
			<line x1="1114.4" x2="1394" y1="830.43" y2="991.84"/>
			<line x1="834.27" x2="554.87" y1="1314.9" y2="1476.1"/>
			<line x1="554.88" x2="554.88" y1="830.38" y2="507.51"/>
			<line x1="1114.3" x2="1114.3" y1="507.5" y2="830.41"/>
			<line x1="1114.3" x2="834.5" y1="1476.2" y2="1314.7"/>
			<line x1="275.25" x2="553.6" y1="991.84" y2="831.16"/>
			<line x1="368.54" x2="275.25" y1="830.25" y2="991.84"/>
			<line x1="554.89" x2="461.58" y1="507.51" y2="669.12"/>
			<line x1="275.25" x2="554.87" y1="991.84" y2="1476.1"/>
			<line x1="927.52" x2="1114.3" y1="1476.1" y2="1476.1"/>
			<line x1="554.87" x2="741.45" y1="1476.1" y2="1476.1"/>
			<line x1="1114.3" x2="1394" y1="1476.2" y2="991.84"/>
			<line x1="1394" x2="1300.5" y1="991.84" y2="829.9"/>
			<line x1="1208.1" x2="1114.3" y1="669.98" y2="507.5"/>
			<line x1="1114.3" x2="554.89" y1="507.5" y2="507.51"/>
			<line x1="1207" x2="1394" y1="1314.7" y2="1314.7"/>
			<line x1="275.22" x2="462.22" y1="1314.7" y2="1314.7"/>
			<line x1="1394" x2="275.23" y1="668.96" y2="668.93"/>
			<line x1="1207.5" x2="1394" y1="991.84" y2="991.84"/>
			<line x1="275.25" x2="461.5" y1="991.84" y2="991.84"/>
			<line x1="1114.5" x2="554.64" y1="830.37" y2="830.38"/>
			<line x1="1254.1" x2="1068.3" y1="911.1" y2="911.11"/>
			<line x1="601.68" x2="415.09" y1="911.1" y2="911.11"/>
			<line x1="975.3" x2="695.29" y1="1072.5" y2="1072.5"/>
			<line x1="1114.5" x2="927.52" y1="1153.3" y2="1153.2"/>
			<line x1="741.45" x2="554.43" y1="1153.3" y2="1153.3"/>
			<line x1="974.43" x2="694.67" y1="1395.4" y2="1395.4"/>
			<line x1="415.15" x2="554.99" y1="911.15" y2="668.94"/>
			<line x1="507.87" x2="415.14" y1="1073.5" y2="1234.1"/>
			<line x1="834.08" x2="740.83" y1="508.45" y2="669.98"/>
			<line x1="1114.2" x2="1021" y1="668.89" y2="830.4"/>
			<line x1="788.14" x2="694.73" y1="1233.7" y2="1395.5"/>
			<line x1="1114.3" x2="834.55" y1="830.26" y2="1314.8"/>
			<line x1="740.83" x2="834.61" y1="508.45" y2="346.06"/>
			<line x1="275.22" x2="368.47" y1="1314.7" y2="1153.2"/>
			<line x1="1394" x2="834.59" y1="668.96" y2="1637.6"/>
			<line x1="1114.3" x2="1021.2" y1="507.5" y2="668.62"/>
			<line x1="648.22" x2="554.87" y1="1314.5" y2="1476.1"/>
			<line x1="1160.8" x2="1254.1" y1="1072.5" y2="1234.1"/>
			<line x1="834.57" x2="928.12" y1="507.46" y2="669.48"/>
			<line x1="554.87" x2="834.6" y1="830.25" y2="1314.7"/>
			<line x1="882.28" x2="974.42" y1="1235.9" y2="1395.4"/>
			<line x1="554.95" x2="648.22" y1="668.91" y2="830.44"/>
			<line x1="1114.2" x2="1254.1" y1="668.94" y2="911.22"/>
			<line x1="1020.9" x2="1114.3" y1="1314.5" y2="1476.2"/>
			<line x1="554.89" x2="648.38" y1="507.51" y2="669.41"/>
			<line x1="1300.7" x2="1394" y1="1153.2" y2="1314.7"/>
			<line x1="834.61" x2="928.38" y1="346.06" y2="508.45"/>
			<line x1="834.59" x2="275.23" y1="1637.6" y2="668.93"/>
			<line x1="740.83" x2="834.88" y1="831.85" y2="669.12"/>
			<line x1="554.99" x2="648.38" y1="1153.4" y2="991.81"/>
			<line x1="1021.2" x2="1114.5" y1="991.81" y2="1153.4"/>
			<line x1="834.88" x2="928.38" y1="669.12" y2="831.05"/>
			<line x1="835.29" x2="695.29" y1="830.25" y2="1072.5"/>
			<line x1="835.29" x2="975.3" y1="830.25" y2="1072.5"/>
			<line x1="415.14" x2="601.69" y1="1234.1" y2="1234.1"/>
			<circle cx="833.64" cy="992.12" r="726.8"/>
		</g>
	</g>
	<g stroke-width="8">
		<polygon points="-7.349 506.58 833.63 21.033 1674.6 506.58 1674.6 1477.7 833.63 1963.2 -7.349 1477.7" fill="#fff" fill-opacity="0" stroke="#FFE86D" stroke-miterlimit="10"/>
	</g>

</svg>
