<?xml version="1.0" encoding="utf-8"?>
<!-- Generator: Adobe Illustrator 16.0.0, SVG Export Plug-In . SVG Version: 6.00 Build 0)  -->
<!DOCTYPE svg PUBLIC "-//W3C//DTD SVG 1.1//EN" "http://www.w3.org/Graphics/SVG/1.1/DTD/svg11.dtd">
<svg version="1.1" xmlns="http://www.w3.org/2000/svg" xmlns:xlink="http://www.w3.org/1999/xlink" x="0px" y="0px"
	width="966.594px" height="791.064px" viewBox="0 0 966.594 791.064" enable-background="new 0 0 966.594 791.064"
	xml:space="preserve">


	<g id="Layer_2" display="none">
		<rect display="inline" width="966.594" height="791.064" />
	</g>

	<g id="A_vesicaLarge">
		<g>
			<circle fill="none" stroke="#FFFFFF" stroke-width="2" stroke-miterlimit="10" cx="402.094" cy="395.532"
				r="361.063" />
			<text transform="matrix(1 0 0 1 411.0938 386.124)" fill="#FFFFFF" font-family="'Verdana'"
				font-size="35">A</text>
			<path fill="#FFFFFF" d="M408.094,395.532c0,3.313-2.688,6-6,6l0,0c-3.313,0-6-2.688-6-6l0,0c0-3.314,2.688-6,6-6l0,0
			C405.406,389.532,408.094,392.218,408.094,395.532L408.094,395.532z" />
			<path fill="#FFFFFF" d="M769.156,395.532c0,3.313-2.688,6-6,6l0,0c-3.313,0-6-2.688-6-6l0,0c0-3.314,2.688-6,6-6l0,0
			C766.469,389.532,769.156,392.218,769.156,395.532L769.156,395.532z" />
			<text transform="matrix(1 0 0 1 726.0938 386.124)" fill="#FFFFFF" font-family="'Verdana'"
				font-size="35">B</text>

			<line fill="#FFFFFF" stroke="#FFFFFF" stroke-width="2" stroke-miterlimit="10" x1="402.094" y1="395.532"
				x2="763.156" y2="395.532" />
			<text transform="matrix(1 0 0 1 811.0723 327.6245)" fill="#FFFFFF" font-family="'Verdana'"
				font-size="35">AB=1</text>
		</g>
	</g>
	
</svg>