<?xml version="1.0" encoding="utf-8"?>
<!-- Generator: Adobe Illustrator 16.0.0, SVG Export Plug-In . SVG Version: 6.00 Build 0)  -->
<!DOCTYPE svg PUBLIC "-//W3C//DTD SVG 1.1//EN" "http://www.w3.org/Graphics/SVG/1.1/DTD/svg11.dtd">
<svg version="1.1" id="A-detailEgg" xmlns="http://www.w3.org/2000/svg" xmlns:xlink="http://www.w3.org/1999/xlink" x="0px"
	 y="0px" width="1896px" height="1264.438px" viewBox="0 0 1896 1264.438" enable-background="new 0 0 1896 1264.438"
	 xml:space="preserve">
<rect x="0" display="none" width="1896" height="1264.438"/>
<g id="A-SVGGroupSteps">
	<g id="A-background">
		<circle fill="none" stroke="#FFFFFF" stroke-width="2" stroke-miterlimit="10" cx="1155.862" cy="512.236" r="239.958"/>
		<path fill="#FFFFFF" d="M1200.201,503.747c-1.354,0.623-2.831,1.163-4.438,1.624c-1.604,0.461-3.157,0.691-4.655,0.691
			c-1.931,0-3.705-0.268-5.313-0.802c-1.611-0.53-2.985-1.333-4.118-2.396c-1.146-1.077-2.028-2.424-2.648-4.041
			c-0.623-1.616-0.934-3.507-0.934-5.672c0-3.968,1.158-7.097,3.474-9.391c2.314-2.294,5.494-3.438,9.535-3.438
			c1.41,0,2.854,0.17,4.326,0.508c1.472,0.339,3.058,0.915,4.756,1.725v3.917h-0.299c-0.347-0.266-0.846-0.614-1.501-1.05
			c-0.654-0.433-1.298-0.794-1.933-1.083c-0.768-0.345-1.638-0.63-2.606-0.855c-0.973-0.229-2.075-0.344-3.307-0.344
			c-2.78,0-4.979,0.894-6.594,2.676c-1.615,1.78-2.423,4.194-2.423,7.236c0,3.21,0.844,5.707,2.532,7.489
			c1.688,1.783,3.986,2.674,6.898,2.674c1.063,0,2.128-0.104,3.187-0.314c1.063-0.21,1.992-0.483,2.792-0.816v-6.081h-6.646v-2.897
			h9.913V503.747L1200.201,503.747z"/>
		<path fill="#FFFFFF" d="M959.187,599.224h-3.518l-2.434-6.914h-10.729l-2.435,6.914h-3.349l9.03-24.808h4.396L959.187,599.224z
			 M952.218,589.477l-4.351-12.178l-4.362,12.178H952.218z"/>
		<path fill="#FFFFFF" d="M953.84,632.212c0,3.242-2.62,5.859-5.853,5.859l0,0c-3.229,0-5.85-2.619-5.85-5.859l0,0
			c0-3.229,2.621-5.849,5.85-5.849l0,0C951.224,626.363,953.84,628.981,953.84,632.212L953.84,632.212z"/>
		<path fill="#FFFFFF" d="M1161.711,512.236c0,3.229-2.622,5.849-5.853,5.849l0,0c-3.229,0-5.849-2.621-5.849-5.849l0,0
			c0-3.23,2.619-5.852,5.849-5.852l0,0C1159.087,506.387,1161.711,509.004,1161.711,512.236L1161.711,512.236z"/>
		<path fill="#FFFFFF" d="M1161.711,512.236c0,3.229-2.622,5.849-5.853,5.849l0,0c-3.229,0-5.849-2.621-5.849-5.849l0,0
			c0-3.23,2.619-5.852,5.849-5.852l0,0C1159.087,506.387,1161.711,509.004,1161.711,512.236L1161.711,512.236z"/>
		<path fill="#FFFFFF" d="M1200.201,503.747c-1.354,0.623-2.831,1.163-4.438,1.624c-1.604,0.461-3.157,0.691-4.655,0.691
			c-1.931,0-3.705-0.268-5.313-0.802c-1.611-0.53-2.985-1.333-4.118-2.396c-1.146-1.077-2.028-2.424-2.648-4.041
			c-0.623-1.616-0.934-3.507-0.934-5.672c0-3.968,1.158-7.097,3.474-9.391c2.314-2.294,5.494-3.438,9.535-3.438
			c1.41,0,2.854,0.17,4.326,0.508c1.472,0.339,3.058,0.915,4.756,1.725v3.917h-0.299c-0.347-0.266-0.846-0.614-1.501-1.05
			c-0.654-0.433-1.298-0.794-1.933-1.083c-0.768-0.345-1.638-0.63-2.606-0.855c-0.973-0.229-2.075-0.344-3.307-0.344
			c-2.78,0-4.979,0.894-6.594,2.676c-1.615,1.78-2.423,4.194-2.423,7.236c0,3.21,0.844,5.707,2.532,7.489
			c1.688,1.783,3.986,2.674,6.898,2.674c1.063,0,2.128-0.104,3.187-0.314c1.063-0.21,1.992-0.483,2.792-0.816v-6.081h-6.646v-2.897
			h9.913V503.747L1200.201,503.747z"/>
		<circle fill="none" stroke="#FFFFFF" stroke-width="2" stroke-miterlimit="10" cx="1155.862" cy="752.195" r="239.959"/>
		<path fill="#FFFFFF" d="M1195.229,758.813h-12.545v6.996h10.782v2.935h-10.782v11.944h-3.3v-24.805h15.845V758.813
			L1195.229,758.813z"/>
		<path fill="#FFFFFF" d="M959.187,599.224h-3.518l-2.434-6.914h-10.729l-2.435,6.914h-3.349l9.03-24.808h4.396L959.187,599.224z
			 M952.218,589.477l-4.351-12.178l-4.362,12.178H952.218z"/>
		<path fill="#FFFFFF" d="M953.84,632.212c0,3.242-2.62,5.859-5.853,5.859l0,0c-3.229,0-5.85-2.619-5.85-5.859l0,0
			c0-3.229,2.621-5.849,5.85-5.849l0,0C951.224,626.363,953.84,628.981,953.84,632.212L953.84,632.212z"/>
		<path fill="#FFFFFF" d="M1161.711,752.2c0,3.229-2.622,5.85-5.853,5.85l0,0c-3.229,0-5.849-2.62-5.849-5.85l0,0
			c0-3.229,2.619-5.852,5.849-5.852l0,0C1159.087,746.352,1161.711,748.969,1161.711,752.2L1161.711,752.2z"/>
		<path fill="#FFFFFF" d="M1161.711,752.2c0,3.229-2.622,5.85-5.853,5.85l0,0c-3.229,0-5.849-2.62-5.849-5.85l0,0
			c0-3.229,2.619-5.852,5.849-5.852l0,0C1159.087,746.352,1161.711,748.969,1161.711,752.2L1161.711,752.2z"/>
		<path fill="#FFFFFF" d="M1195.229,758.813h-12.545v6.996h10.782v2.935h-10.782v11.944h-3.3v-24.805h15.845V758.813
			L1195.229,758.813z"/>
		<path fill="#FFFFFF" d="M955.818,922.221h-16.346v-24.807h16.346v2.936h-13.044v6.797h13.044v2.936h-13.044v9.214h13.044V922.221z
			"/>
		<path fill="#FFFFFF" d="M959.187,599.224h-3.518l-2.434-6.914h-10.729l-2.435,6.914h-3.349l9.03-24.808h4.396L959.187,599.224z
			 M952.218,589.477l-4.351-12.178l-4.362,12.178H952.218z"/>
		<circle fill="none" stroke="#FFFFFF" stroke-width="2" stroke-miterlimit="10" cx="947.99" cy="872.176" r="239.96"/>
		<path fill="#FFFFFF" d="M953.84,872.176c0,3.229-2.62,5.853-5.852,5.853l0,0c-3.229,0-5.851-2.62-5.851-5.853l0,0
			c0-3.229,2.622-5.849,5.851-5.849l0,0C951.224,866.327,953.84,868.945,953.84,872.176L953.84,872.176z"/>
		<path fill="#FFFFFF" d="M953.84,632.212c0,3.242-2.62,5.859-5.853,5.859l0,0c-3.229,0-5.85-2.619-5.85-5.859l0,0
			c0-3.229,2.621-5.849,5.85-5.849l0,0C951.224,626.363,953.84,628.981,953.84,632.212L953.84,632.212z"/>
		<path fill="#FFFFFF" d="M953.84,872.176c0,3.229-2.62,5.853-5.852,5.853l0,0c-3.229,0-5.851-2.62-5.851-5.853l0,0
			c0-3.229,2.622-5.849,5.851-5.849l0,0C951.224,866.327,953.84,868.945,953.84,872.176L953.84,872.176z"/>
		<path fill="#FFFFFF" d="M955.818,922.221h-16.347v-24.807h16.347v2.936h-13.045v6.797h13.045v2.936h-13.045v9.214h13.045V922.221z
			"/>
		<circle fill="none" stroke="#FFFFFF" stroke-width="2" stroke-miterlimit="10" cx="740.138" cy="752.195" r="239.959"/>
		<path fill="#FFFFFF" d="M959.187,599.224h-3.518l-2.434-6.914h-10.729l-2.435,6.914h-3.349l9.03-24.808h4.396L959.187,599.224z
			 M952.218,589.477l-4.351-12.178l-4.362,12.178H952.218z"/>
		<path fill="#FFFFFF" d="M716.232,774.329c0,2.254-0.491,4.297-1.475,6.131c-0.982,1.831-2.291,3.254-3.923,4.265
			c-1.133,0.699-2.396,1.203-3.79,1.519c-1.396,0.313-3.229,0.467-5.505,0.467h-6.269v-24.804h6.198
			c2.419,0,4.346,0.175,5.771,0.522c1.429,0.35,2.638,0.83,3.624,1.441c1.688,1.055,3.004,2.46,3.948,4.214
			C715.763,769.837,716.232,771.918,716.232,774.329z M712.781,774.279c0-1.94-0.339-3.583-1.016-4.916
			c-0.675-1.329-1.688-2.378-3.029-3.147c-0.978-0.554-2.016-0.938-3.116-1.157c-1.1-0.22-2.416-0.323-3.945-0.323h-3.102v19.146
			h3.102c1.588,0,2.974-0.118,4.154-0.351c1.186-0.234,2.271-0.667,3.26-1.304c1.232-0.785,2.157-1.823,2.773-3.108
			C712.479,777.822,712.781,776.212,712.781,774.279z"/>
		<path fill="#FFFFFF" d="M745.987,752.2c0,3.229-2.62,5.85-5.849,5.85l0,0c-3.229,0-5.851-2.62-5.851-5.85l0,0
			c0-3.229,2.621-5.852,5.851-5.852l0,0C743.365,746.352,745.987,748.969,745.987,752.2L745.987,752.2z"/>
		<path fill="#FFFFFF" d="M953.84,632.212c0,3.242-2.62,5.859-5.853,5.859l0,0c-3.229,0-5.85-2.619-5.85-5.859l0,0
			c0-3.229,2.621-5.849,5.85-5.849l0,0C951.224,626.363,953.84,628.981,953.84,632.212L953.84,632.212z"/>
		<path fill="#FFFFFF" d="M745.987,752.2c0,3.229-2.62,5.85-5.849,5.85l0,0c-3.229,0-5.851-2.62-5.851-5.85l0,0
			c0-3.229,2.621-5.852,5.851-5.852l0,0C743.365,746.352,745.987,748.969,745.987,752.2L745.987,752.2z"/>
		<path fill="#FFFFFF" d="M716.232,774.329c0,2.254-0.491,4.297-1.475,6.131c-0.982,1.831-2.291,3.254-3.923,4.265
			c-1.133,0.699-2.396,1.203-3.79,1.519c-1.396,0.313-3.229,0.467-5.505,0.467h-6.269v-24.804h6.198
			c2.419,0,4.346,0.175,5.771,0.522c1.429,0.35,2.638,0.83,3.624,1.441c1.688,1.055,3.004,2.46,3.948,4.214
			C715.763,769.837,716.232,771.918,716.232,774.329z M712.781,774.279c0-1.94-0.339-3.583-1.016-4.916
			c-0.675-1.329-1.688-2.378-3.029-3.147c-0.978-0.554-2.016-0.938-3.116-1.157c-1.1-0.22-2.416-0.323-3.945-0.323h-3.102v19.146
			h3.102c1.588,0,2.974-0.118,4.154-0.351c1.186-0.234,2.271-0.667,3.26-1.304c1.232-0.785,2.157-1.823,2.773-3.108
			C712.479,777.822,712.781,776.212,712.781,774.279z"/>
		<path fill="#FFFFFF" d="M959.187,599.224h-3.518l-2.434-6.914h-10.729l-2.435,6.914h-3.349l9.03-24.808h4.396L959.187,599.224z
			 M952.218,589.477l-4.351-12.178l-4.362,12.178H952.218z"/>
		<path fill="#FFFFFF" d="M715.872,503.537c-0.608,0.266-1.161,0.516-1.654,0.751c-0.494,0.229-1.145,0.477-1.941,0.733
			c-0.675,0.211-1.411,0.391-2.208,0.538c-0.792,0.15-1.669,0.228-2.624,0.228c-1.799,0-3.432-0.252-4.901-0.757
			c-1.477-0.505-2.754-1.297-3.843-2.375c-1.063-1.058-1.896-2.396-2.498-4.023c-0.6-1.627-0.896-3.517-0.896-5.672
			c0-2.044,0.289-3.871,0.866-5.479c0.576-1.609,1.41-2.974,2.498-4.082c1.055-1.076,2.333-1.898,3.822-2.468
			c1.492-0.563,3.149-0.85,4.976-0.85c1.333,0,2.659,0.161,3.989,0.484c1.325,0.319,2.803,0.888,4.424,1.695v3.916h-0.25
			c-1.366-1.144-2.725-1.976-4.065-2.499c-1.344-0.521-2.783-0.781-4.314-0.781c-1.256,0-2.386,0.201-3.392,0.605
			c-1.006,0.405-1.903,1.036-2.69,1.89c-0.766,0.833-1.361,1.889-1.791,3.158c-0.428,1.271-0.642,2.741-0.642,4.407
			c0,1.743,0.236,3.242,0.707,4.497c0.472,1.255,1.081,2.277,1.825,3.065c0.78,0.82,1.686,1.432,2.724,1.823
			c1.039,0.396,2.135,0.593,3.29,0.593c1.591,0,3.077-0.271,4.465-0.816c1.394-0.544,2.69-1.36,3.898-2.449h0.23L715.872,503.537
			L715.872,503.537z"/>
		<circle fill="none" stroke="#FFFFFF" stroke-width="2" stroke-miterlimit="10" cx="740.139" cy="512.24" r="239.958"/>
		<path fill="#FFFFFF" d="M745.988,512.235c0,3.229-2.62,5.849-5.849,5.849l0,0c-3.229,0-5.852-2.621-5.852-5.849l0,0
			c0-3.23,2.621-5.852,5.852-5.852l0,0C743.366,506.386,745.988,509.004,745.988,512.235L745.988,512.235z"/>
		<path fill="#FFFFFF" d="M953.84,632.212c0,3.242-2.62,5.859-5.853,5.859l0,0c-3.229,0-5.85-2.619-5.85-5.859l0,0
			c0-3.229,2.621-5.849,5.85-5.849l0,0C951.224,626.363,953.84,628.981,953.84,632.212L953.84,632.212z"/>
		<path fill="#FFFFFF" d="M745.988,512.235c0,3.229-2.62,5.849-5.849,5.849l0,0c-3.229,0-5.852-2.621-5.852-5.849l0,0
			c0-3.23,2.621-5.852,5.852-5.852l0,0C743.366,506.386,745.988,509.004,745.988,512.235L745.988,512.235z"/>
		<path fill="#FFFFFF" d="M715.872,503.537c-0.608,0.266-1.161,0.516-1.654,0.751c-0.494,0.229-1.145,0.477-1.941,0.733
			c-0.675,0.211-1.411,0.391-2.208,0.538c-0.792,0.15-1.669,0.228-2.624,0.228c-1.799,0-3.432-0.252-4.901-0.757
			c-1.477-0.505-2.754-1.297-3.843-2.375c-1.063-1.058-1.896-2.396-2.498-4.023c-0.6-1.627-0.896-3.517-0.896-5.672
			c0-2.044,0.289-3.871,0.866-5.479c0.576-1.609,1.41-2.974,2.498-4.082c1.055-1.076,2.333-1.898,3.822-2.468
			c1.492-0.563,3.149-0.85,4.976-0.85c1.333,0,2.659,0.161,3.989,0.484c1.325,0.319,2.803,0.888,4.424,1.695v3.916h-0.25
			c-1.366-1.144-2.725-1.976-4.065-2.499c-1.344-0.521-2.783-0.781-4.314-0.781c-1.256,0-2.386,0.201-3.392,0.605
			c-1.006,0.405-1.903,1.036-2.69,1.89c-0.766,0.833-1.361,1.889-1.791,3.158c-0.428,1.271-0.642,2.741-0.642,4.407
			c0,1.743,0.236,3.242,0.707,4.497c0.472,1.255,1.081,2.277,1.825,3.065c0.78,0.82,1.686,1.432,2.724,1.823
			c1.039,0.396,2.135,0.593,3.29,0.593c1.591,0,3.077-0.271,4.465-0.816c1.394-0.544,2.69-1.36,3.898-2.449h0.23L715.872,503.537
			L715.872,503.537z"/>
		<circle fill="none" stroke="#FFFFFF" stroke-width="2" stroke-miterlimit="10" cx="947.99" cy="392.259" r="239.958"/>
		<path fill="#FFFFFF" d="M953.84,392.26c0,3.229-2.62,5.852-5.852,5.852l0,0c-3.229,0-5.85-2.623-5.85-5.852l0,0
			c0-3.23,2.621-5.849,5.85-5.849l0,0C951.226,386.411,953.84,389.028,953.84,392.26L953.84,392.26z"/>
		<path fill="#FFFFFF" d="M953.84,632.212c0,3.242-2.62,5.859-5.853,5.859l0,0c-3.229,0-5.85-2.619-5.85-5.859l0,0
			c0-3.229,2.621-5.849,5.85-5.849l0,0C951.224,626.363,953.84,628.981,953.84,632.212L953.84,632.212z"/>
		<path fill="#FFFFFF" d="M958.112,360.21c0,1.233-0.229,2.322-0.698,3.266s-1.095,1.723-1.887,2.333
			c-0.934,0.733-1.958,1.255-3.069,1.566c-1.115,0.311-2.537,0.467-4.258,0.467h-8.797v-24.809h7.351c1.812,0,3.163,0.066,4.063,0.2
			c0.898,0.133,1.763,0.411,2.582,0.833c0.91,0.477,1.57,1.091,1.981,1.84c0.411,0.75,0.614,1.647,0.614,2.691
			c0,1.177-0.301,2.179-0.896,3.007c-0.601,0.829-1.403,1.491-2.399,1.991v0.134c1.679,0.344,2.997,1.079,3.961,2.208
			C957.628,357.065,958.112,358.488,958.112,360.21z M952.562,349.03c0-0.6-0.101-1.104-0.301-1.516c-0.2-0.412-0.521-0.744-0.966-1
			c-0.521-0.3-1.155-0.485-1.899-0.558c-0.743-0.072-1.666-0.108-2.765-0.108h-3.932v7.164h4.268c1.029,0,1.854-0.053,2.465-0.158
			c0.605-0.106,1.177-0.325,1.698-0.659c0.521-0.333,0.891-0.763,1.104-1.292C952.454,350.377,952.562,349.753,952.562,349.03z
			 M954.677,360.343c0-0.999-0.146-1.793-0.449-2.382c-0.301-0.589-0.842-1.088-1.634-1.499c-0.533-0.277-1.184-0.459-1.94-0.542
			c-0.758-0.084-1.685-0.125-2.771-0.125h-5.184v9.229h4.366c1.444,0,2.628-0.074,3.547-0.225c0.922-0.149,1.685-0.425,2.27-0.825
			c0.622-0.433,1.077-0.927,1.364-1.483C954.533,361.938,954.677,361.221,954.677,360.343z"/>
		<path fill="#FFFFFF" d="M959.187,599.224h-3.518l-2.434-6.914h-10.729l-2.435,6.914h-3.349l9.03-24.808h4.396L959.187,599.224z
			 M952.218,589.477l-4.351-12.178l-4.362,12.178H952.218z"/>
		<circle fill="none" stroke="#FFFFFF" stroke-width="2" stroke-miterlimit="10" cx="947.99" cy="632.217" r="239.958"/>
		<path fill="#FFFFFF" d="M959.187,599.224h-3.518l-2.434-6.914h-10.729l-2.435,6.914h-3.349l9.03-24.808h4.396L959.187,599.224z
			 M952.218,589.477l-4.351-12.178l-4.362,12.178H952.218z"/>
		<path fill="#FFFFFF" d="M953.84,632.212c0,3.242-2.62,5.859-5.853,5.859l0,0c-3.229,0-5.85-2.619-5.85-5.859l0,0
			c0-3.229,2.621-5.849,5.85-5.849l0,0C951.224,626.363,953.84,628.981,953.84,632.212L953.84,632.212z"/>
	</g>
	<g id="A-SVGStep12">
		<path id="A-text_34_" fill="#FFFFFF" d="M1186.159,264.135h-3.301v-21.377l-6.896,14.546h-1.97l-6.848-14.546v21.377h-3.082
			v-24.81h4.498l6.615,13.813l6.395-13.813h4.582v24.81H1186.159z"/>
		<path id="A-text_35_" fill="#FFFFFF" d="M958.112,360.211c0,1.23-0.229,2.321-0.699,3.266c-0.467,0.945-1.094,1.723-1.883,2.332
			c-0.934,0.733-1.957,1.256-3.074,1.566c-1.11,0.312-2.53,0.467-4.256,0.467h-8.797v-24.81h7.352c1.81,0,3.166,0.064,4.063,0.198
			c0.9,0.135,1.761,0.411,2.582,0.833c0.912,0.479,1.572,1.093,1.982,1.843c0.409,0.75,0.612,1.646,0.612,2.689
			c0,1.177-0.301,2.18-0.896,3.007c-0.604,0.828-1.398,1.491-2.398,1.991v0.134c1.681,0.346,3,1.08,3.968,2.207
			C957.629,357.063,958.112,358.487,958.112,360.211z M952.563,349.028c0-0.6-0.1-1.104-0.299-1.516
			c-0.199-0.411-0.521-0.744-0.967-1c-0.521-0.3-1.154-0.486-1.898-0.559c-0.744-0.073-1.667-0.108-2.766-0.108h-3.936v7.165h4.271
			c1.028,0,1.853-0.053,2.464-0.158c0.607-0.104,1.178-0.325,1.699-0.658c0.521-0.332,0.891-0.764,1.104-1.289
			C952.45,350.378,952.563,349.753,952.563,349.028z M954.68,360.344c0-1-0.15-1.794-0.449-2.383
			c-0.301-0.588-0.844-1.088-1.633-1.499c-0.533-0.277-1.182-0.458-1.941-0.542c-0.762-0.083-1.686-0.125-2.771-0.125h-5.188v9.229
			h4.366c1.444,0,2.625-0.073,3.549-0.226c0.923-0.149,1.681-0.425,2.271-0.824c0.621-0.434,1.076-0.928,1.362-1.481
			C954.532,361.938,954.68,361.222,954.68,360.344z"/>
		<path id="A-point_32_" fill="#FFFFFF" d="M1161.735,272.251c0,3.229-2.623,5.85-5.852,5.85l0,0c-3.23,0-5.854-2.621-5.854-5.85
			l0,0c0-3.229,2.621-5.852,5.854-5.852l0,0C1159.114,266.399,1161.735,269.02,1161.735,272.251L1161.735,272.251z"/>
		<path id="A-point_33_" fill="#FFFFFF" d="M953.84,392.26c0,3.229-2.62,5.852-5.852,5.852l0,0c-3.229,0-5.85-2.623-5.85-5.852l0,0
			c0-3.23,2.621-5.849,5.85-5.849l0,0C951.226,386.411,953.84,389.028,953.84,392.26L953.84,392.26z"/>
		
			<circle id="geo_12_" fill="none" stroke="#FFFFFF" stroke-width="2" stroke-miterlimit="10" cx="1155.884" cy="272.25" r="239.958"/>
	</g>
	<g id="A-SVGStep11">
		<path id="A-text_33_" fill="#FFFFFF" d="M1396.823,643.082h-15.692v-24.811h3.299v21.878h12.396L1396.823,643.082
			L1396.823,643.082z"/>
		<path id="A-text_32_" fill="#FFFFFF" d="M1200.202,503.748c-1.354,0.622-2.836,1.164-4.438,1.625
			c-1.605,0.461-3.158,0.691-4.658,0.691c-1.932,0-3.703-0.271-5.313-0.805c-1.611-0.528-2.982-1.333-4.115-2.396
			c-1.146-1.077-2.027-2.425-2.65-4.041c-0.621-1.616-0.934-3.507-0.934-5.673c0-3.971,1.158-7.1,3.475-9.394
			c2.318-2.294,5.496-3.438,9.539-3.438c1.41,0,2.854,0.17,4.324,0.509s3.057,0.913,4.756,1.725v3.915h-0.299
			c-0.346-0.267-0.846-0.611-1.5-1.05c-0.656-0.433-1.299-0.794-1.935-1.083c-0.77-0.344-1.639-0.63-2.606-0.854
			c-0.971-0.229-2.074-0.347-3.31-0.347c-2.774,0-4.975,0.896-6.592,2.679c-1.613,1.778-2.424,4.191-2.424,7.235
			c0,3.21,0.846,5.706,2.533,7.489c1.688,1.782,3.986,2.674,6.896,2.674c1.064,0,2.134-0.104,3.189-0.313s1.99-0.483,2.791-0.816
			v-6.082h-6.646v-2.896h9.912v10.644h0.001L1200.202,503.748L1200.202,503.748z"/>
		<path id="A-point_31_" fill="#FFFFFF" d="M1161.711,512.236c0,3.229-2.622,5.849-5.853,5.849l0,0
			c-3.229,0-5.849-2.621-5.849-5.849l0,0c0-3.23,2.619-5.852,5.849-5.852l0,0C1159.087,506.387,1161.711,509.004,1161.711,512.236
			L1161.711,512.236z"/>
		<path id="A-point_30_" fill="#FFFFFF" d="M1369.602,632.198c0,3.229-2.623,5.85-5.852,5.85l0,0c-3.23,0-5.854-2.621-5.854-5.85
			l0,0c0-3.229,2.621-5.854,5.854-5.854l0,0C1366.981,626.349,1369.602,628.966,1369.602,632.198L1369.602,632.198z"/>
		
			<circle id="geo_11_" fill="none" stroke="#FFFFFF" stroke-width="2" stroke-miterlimit="10" cx="1363.75" cy="632.197" r="239.958"/>
	</g>
	<g id="A-SVGStep10">
		<path id="A-text_31_" fill="#FFFFFF" d="M1183.702,1025.573h-4.278l-9.814-11.047l-2.465,2.633v8.414h-3.301v-24.813h3.301v12.946
			l12.045-12.946h4l-11.08,11.663L1183.702,1025.573z"/>
		<path id="A-text_30_" fill="#FFFFFF" d="M955.817,922.223h-16.344v-24.81h16.344v2.933H942.77v6.798h13.046v2.938H942.77v9.214
			h13.046L955.817,922.223L955.817,922.223z"/>
		<path id="A-point_28_" fill="#FFFFFF" d="M1161.735,992.188c0,3.23-2.623,5.854-5.852,5.854l0,0c-3.23,0-5.854-2.621-5.854-5.854
			l0,0c0-3.229,2.621-5.848,5.854-5.848l0,0C1159.114,986.341,1161.735,988.958,1161.735,992.188L1161.735,992.188z"/>
		<path id="A-point_29_" fill="#FFFFFF" d="M953.84,872.176c0,3.229-2.62,5.853-5.852,5.853l0,0c-3.229,0-5.851-2.62-5.851-5.853
			l0,0c0-3.229,2.622-5.849,5.851-5.849l0,0C951.224,866.327,953.84,868.945,953.84,872.176L953.84,872.176z"/>
		
			<circle id="geo_10_" fill="none" stroke="#FFFFFF" stroke-width="2" stroke-miterlimit="10" cx="1155.885" cy="992.189" r="239.958"/>
	</g>
	<g id="A-SVGStep9">
		<path id="A-point_26_" fill="#FFFFFF" d="M745.969,992.188c0,3.23-2.622,5.854-5.854,5.854l0,0c-3.229,0-5.851-2.621-5.851-5.854
			l0,0c0-3.229,2.619-5.848,5.851-5.848l0,0C743.346,986.341,745.969,988.958,745.969,992.188L745.969,992.188z"/>
		<path id="A-text_29_" fill="#FFFFFF" d="M730.844,1022.625c0,2.178-0.664,3.854-1.991,5.032c-1.327,1.178-3.107,1.766-5.34,1.766
			c-0.533,0-1.244-0.047-2.134-0.142c-0.893-0.096-1.637-0.208-2.232-0.342v-3.082h0.184c0.455,0.15,1.021,0.313,1.688,0.479
			s1.35,0.25,2.049,0.25c1.021,0,1.835-0.117,2.441-0.351c0.604-0.232,1.052-0.566,1.341-0.999c0.3-0.444,0.491-0.988,0.575-1.638
			c0.082-0.645,0.125-1.389,0.125-2.229v-14.479h-5.25v-2.633h8.548L730.844,1022.625L730.844,1022.625z"/>
		<path id="A-text_28_" fill="#FFFFFF" d="M716.234,774.328c0,2.255-0.491,4.299-1.475,6.132c-0.984,1.833-2.291,3.255-3.924,4.266
			c-1.138,0.699-2.396,1.205-3.791,1.521c-1.396,0.312-3.23,0.467-5.512,0.467h-6.265V761.9h6.198c2.421,0,4.346,0.175,5.771,0.521
			c1.428,0.354,2.639,0.831,3.624,1.441c1.688,1.056,3.005,2.461,3.949,4.216C715.762,769.835,716.234,771.918,716.234,774.328z
			 M712.782,774.278c0-1.943-0.339-3.582-1.017-4.915s-1.688-2.384-3.032-3.149c-0.978-0.556-2.016-0.938-3.116-1.158
			c-1.1-0.217-2.416-0.32-3.944-0.32h-3.104v19.145h3.104c1.588,0,2.974-0.116,4.152-0.35c1.188-0.234,2.271-0.666,3.259-1.303
			c1.231-0.785,2.156-1.824,2.772-3.112C712.477,777.821,712.782,776.211,712.782,774.278z"/>
		<path id="A-point_27_" fill="#FFFFFF" d="M745.987,752.2c0,3.229-2.62,5.85-5.849,5.85l0,0c-3.229,0-5.851-2.62-5.851-5.85l0,0
			c0-3.229,2.621-5.852,5.851-5.852l0,0C743.365,746.352,745.987,748.969,745.987,752.2L745.987,752.2z"/>
		
			<circle id="geo_9_" fill="none" stroke="#FFFFFF" stroke-width="2" stroke-miterlimit="10" cx="740.117" cy="992.19" r="239.958"/>
	</g>
	<g id="A-SVGStep8">
		
			<circle id="geo_8_" fill="none" stroke="#FFFFFF" stroke-width="2" stroke-miterlimit="10" cx="532.252" cy="632.199" r="239.958"/>
		<path id="A-point_24_" fill="#FFFFFF" d="M538.102,632.198c0,3.229-2.622,5.85-5.852,5.85l0,0c-3.229,0-5.854-2.621-5.854-5.85
			l0,0c0-3.229,2.621-5.854,5.854-5.854l0,0C535.481,626.349,538.102,628.966,538.102,632.198L538.102,632.198z"/>
		<path id="A-text_26_" fill="#FFFFFF" d="M515.625,643.082h-9.8v-2.532h3.249v-19.745h-3.249v-2.527h9.8v2.527h-3.25v19.745h3.25
			V643.082z"/>
		<path id="A-point_25_" fill="#FFFFFF" d="M745.988,512.235c0,3.229-2.62,5.849-5.849,5.849l0,0c-3.229,0-5.852-2.621-5.852-5.849
			l0,0c0-3.23,2.621-5.852,5.852-5.852l0,0C743.366,506.386,745.988,509.004,745.988,512.235L745.988,512.235z"/>
		<path id="A-text_27_" fill="#FFFFFF" d="M715.872,503.537c-0.608,0.266-1.161,0.516-1.654,0.751
			c-0.494,0.229-1.145,0.477-1.941,0.733c-0.675,0.211-1.411,0.391-2.208,0.538c-0.792,0.15-1.669,0.228-2.624,0.228
			c-1.799,0-3.432-0.252-4.901-0.757c-1.477-0.505-2.754-1.297-3.843-2.375c-1.063-1.058-1.896-2.396-2.498-4.023
			c-0.6-1.627-0.896-3.517-0.896-5.672c0-2.044,0.289-3.871,0.866-5.479c0.576-1.609,1.41-2.974,2.498-4.082
			c1.055-1.076,2.333-1.898,3.822-2.468c1.492-0.563,3.149-0.85,4.976-0.85c1.333,0,2.659,0.161,3.989,0.484
			c1.325,0.319,2.803,0.888,4.424,1.695v3.916h-0.25c-1.366-1.144-2.725-1.976-4.065-2.499c-1.344-0.521-2.783-0.781-4.314-0.781
			c-1.256,0-2.386,0.201-3.392,0.605c-1.006,0.405-1.903,1.036-2.69,1.89c-0.766,0.833-1.361,1.889-1.791,3.158
			c-0.428,1.271-0.642,2.741-0.642,4.407c0,1.743,0.236,3.242,0.707,4.497c0.472,1.255,1.081,2.277,1.825,3.065
			c0.78,0.82,1.686,1.432,2.724,1.823c1.039,0.396,2.135,0.593,3.29,0.593c1.591,0,3.077-0.271,4.465-0.816
			c1.394-0.544,2.69-1.36,3.898-2.449h0.23L715.872,503.537L715.872,503.537z"/>
	</g>
	<g id="A-SVGStep7">
		
			<circle id="geo_7_" fill="none" stroke="#FFFFFF" stroke-width="2" stroke-miterlimit="10" cx="740.115" cy="272.249" r="239.958"/>
		<path id="A-text_25_" fill="#FFFFFF" d="M733.724,264.6h-3.299v-12.146h-12.38V264.6h-3.304v-24.81h3.304v9.729h12.38v-9.729
			h3.299V264.6z"/>
		<path id="A-point_34_" fill="#FFFFFF" d="M953.84,392.26c0,3.229-2.62,5.852-5.852,5.852l0,0c-3.229,0-5.85-2.623-5.85-5.852l0,0
			c0-3.23,2.621-5.849,5.85-5.849l0,0C951.226,386.411,953.84,389.028,953.84,392.26L953.84,392.26z"/>
		<path id="A-point_35_" fill="#FFFFFF" d="M745.969,272.25c0,3.229-2.621,5.85-5.854,5.85l0,0c-3.229,0-5.851-2.621-5.851-5.85l0,0
			c0-3.23,2.621-5.853,5.851-5.853l0,0C743.349,266.398,745.969,269.018,745.969,272.25L745.969,272.25z"/>
		<path id="A-text_24_" fill="#FFFFFF" d="M958.112,360.211c0,1.23-0.229,2.321-0.699,3.266c-0.467,0.945-1.094,1.723-1.883,2.332
			c-0.934,0.733-1.957,1.256-3.074,1.566c-1.11,0.312-2.53,0.467-4.256,0.467h-8.797v-24.81h7.352c1.81,0,3.166,0.064,4.063,0.198
			c0.9,0.135,1.761,0.411,2.582,0.833c0.912,0.479,1.572,1.093,1.982,1.843c0.409,0.75,0.612,1.646,0.612,2.689
			c0,1.177-0.301,2.18-0.896,3.007c-0.604,0.828-1.398,1.491-2.398,1.991v0.134c1.681,0.346,3,1.08,3.968,2.207
			C957.629,357.063,958.112,358.487,958.112,360.211z M952.563,349.028c0-0.6-0.1-1.104-0.299-1.516
			c-0.199-0.411-0.521-0.744-0.967-1c-0.521-0.3-1.154-0.486-1.898-0.559c-0.744-0.073-1.667-0.108-2.766-0.108h-3.936v7.165h4.271
			c1.028,0,1.853-0.053,2.464-0.158c0.607-0.104,1.178-0.325,1.699-0.658c0.521-0.332,0.891-0.764,1.104-1.289
			C952.45,350.378,952.563,349.753,952.563,349.028z M954.68,360.344c0-1-0.15-1.794-0.449-2.383
			c-0.301-0.588-0.844-1.088-1.633-1.499c-0.533-0.277-1.182-0.458-1.941-0.542c-0.762-0.083-1.686-0.125-2.771-0.125h-5.188v9.229
			h4.366c1.444,0,2.625-0.073,3.549-0.226c0.923-0.149,1.681-0.425,2.271-0.824c0.621-0.434,1.076-0.928,1.362-1.481
			C954.532,361.938,954.68,361.222,954.68,360.344z"/>
	</g>
	<g id="A-SVGStep6">
		<path id="A-point_23_" fill="#FFFFFF" d="M1161.735,272.251c0,3.229-2.623,5.85-5.852,5.85l0,0c-3.23,0-5.854-2.621-5.854-5.85
			l0,0c0-3.229,2.621-5.852,5.854-5.852l0,0C1159.114,266.399,1161.735,269.02,1161.735,272.251L1161.735,272.251z"/>
		<g id="A-text_23_" enable-background="new    ">
			<path fill="#FFFFFF" d="M1186.159,264.135h-3.301v-21.377l-6.896,14.546h-1.97l-6.848-14.546v21.377h-3.082v-24.81h4.498
				l6.615,13.813l6.395-13.813h4.582v24.81H1186.159z"/>
		</g>
	</g>
	<g id="A-SVGStep5">
		<path id="A-point_21_" fill="#FFFFFF" d="M1369.602,632.198c0,3.229-2.623,5.85-5.852,5.85l0,0c-3.23,0-5.854-2.621-5.854-5.85
			l0,0c0-3.229,2.621-5.854,5.854-5.854l0,0C1366.981,626.349,1369.602,628.966,1369.602,632.198L1369.602,632.198z"/>
		<g id="A-text_22_" enable-background="new    ">
			<path fill="#FFFFFF" d="M1396.823,643.082h-15.692v-24.811h3.299v21.878h12.396L1396.823,643.082L1396.823,643.082z"/>
		</g>
	</g>
	<g id="A-SVGStep4">
		<path id="A-point_22_" fill="#FFFFFF" d="M1161.735,992.188c0,3.23-2.623,5.854-5.852,5.854l0,0c-3.23,0-5.854-2.621-5.854-5.854
			l0,0c0-3.229,2.621-5.848,5.854-5.848l0,0C1159.114,986.341,1161.735,988.958,1161.735,992.188L1161.735,992.188z"/>
		<g id="A-text_21_" enable-background="new    ">
			<path fill="#FFFFFF" d="M1183.702,1025.573h-4.278l-9.814-11.047l-2.465,2.633v8.414h-3.301v-24.813h3.301v12.946l12.045-12.946
				h4l-11.08,11.663L1183.702,1025.573z"/>
		</g>
	</g>
	<g id="A-SVGStep3">
		<path id="A-point_20_" fill="#FFFFFF" d="M745.969,992.188c0,3.23-2.622,5.854-5.854,5.854l0,0c-3.229,0-5.851-2.621-5.851-5.854
			l0,0c0-3.229,2.619-5.848,5.851-5.848l0,0C743.346,986.341,745.969,988.958,745.969,992.188L745.969,992.188z"/>
		<g id="A-text_20_" enable-background="new    ">
			<path fill="#FFFFFF" d="M730.844,1022.625c0,2.178-0.664,3.854-1.991,5.032c-1.327,1.178-3.107,1.766-5.34,1.766
				c-0.533,0-1.244-0.047-2.134-0.142c-0.893-0.096-1.637-0.208-2.232-0.342v-3.082h0.184c0.455,0.15,1.021,0.313,1.688,0.479
				s1.35,0.25,2.049,0.25c1.021,0,1.835-0.117,2.441-0.351c0.604-0.232,1.052-0.566,1.341-0.999c0.3-0.444,0.491-0.988,0.575-1.638
				c0.082-0.645,0.125-1.389,0.125-2.229v-14.479h-5.25v-2.633h8.548L730.844,1022.625L730.844,1022.625z"/>
		</g>
	</g>
	<g id="A-SVGStep2">
		<path id="A-point_18_" fill="#FFFFFF" d="M538.102,632.198c0,3.229-2.622,5.85-5.852,5.85l0,0c-3.229,0-5.854-2.621-5.854-5.85
			l0,0c0-3.229,2.621-5.854,5.854-5.854l0,0C535.481,626.349,538.102,628.966,538.102,632.198L538.102,632.198z"/>
		<path id="A-text_19_" fill="#FFFFFF" d="M515.625,643.082h-9.8v-2.532h3.249v-19.745h-3.249v-2.527h9.8v2.527h-3.25v19.745h3.25
			V643.082z"/>
	</g>
	<g id="A-SVGStep1">
		<path id="A-point_19_" fill="#FFFFFF" d="M745.969,272.25c0,3.229-2.621,5.85-5.854,5.85l0,0c-3.229,0-5.851-2.621-5.851-5.85l0,0
			c0-3.23,2.621-5.853,5.851-5.853l0,0C743.349,266.398,745.969,269.018,745.969,272.25L745.969,272.25z"/>
		<path id="A-text_18_" fill="#FFFFFF" d="M733.724,264.6h-3.299v-12.146h-12.38V264.6h-3.304v-24.81h3.304v9.729h12.38v-9.729
			h3.299V264.6z"/>
	</g>
</g>
</svg>
