<?xml version="1.0" encoding="utf-8"?>
<!-- Generator: Adobe Illustrator 16.0.0, SVG Export Plug-In . SVG Version: 6.00 Build 0)  -->
<!DOCTYPE svg PUBLIC "-//W3C//DTD SVG 1.1//EN" "http://www.w3.org/Graphics/SVG/1.1/DTD/svg11.dtd">
<svg version="1.1" id="A_detailEgg" xmlns="http://www.w3.org/2000/svg" xmlns:xlink="http://www.w3.org/1999/xlink" x="0px"
	 y="0px" width="1896px" height="1264.438px" viewBox="0 0 1896 1264.438" enable-background="new 0 0 1896 1264.438"
	 xml:space="preserve">
<g id="A_SVGGroupSteps">
	<g id="A_SVGStep1">
		<path d="M947.993,868.199c-64.368,0-124.883-25.066-170.398-70.582c-45.515-45.515-70.581-106.03-70.581-170.398
			s25.066-124.883,70.581-170.398c45.515-45.515,106.03-70.581,170.398-70.581s124.884,25.066,170.398,70.581
			c45.516,45.515,70.582,106.03,70.582,170.398s-25.066,124.884-70.582,170.398C1072.877,843.133,1012.361,868.199,947.993,868.199z
			 M947.993,388.239c-131.774,0-238.979,107.206-238.979,238.979c0,131.774,107.206,238.98,238.979,238.98
			c131.774,0,238.98-107.206,238.98-238.98C1186.974,495.445,1079.768,388.239,947.993,388.239z"/>
		<g id="A_text" enable-background="new    ">
			<path d="M959.188,594.225h-3.516l-2.434-6.915h-10.73l-2.433,6.915h-3.349l9.031-24.81h4.399L959.188,594.225z
				 M952.223,584.478l-4.349-12.18l-4.365,12.18H952.223z"/>
		</g>
		<path d="M953.846,627.218c0,3.229-2.619,5.851-5.852,5.851l0,0c-3.229,0-5.85-2.621-5.85-5.851l0,0
			c0-3.229,2.62-5.851,5.85-5.851l0,0C951.225,621.369,953.846,623.987,953.846,627.218L953.846,627.218z"/>
	</g>
	<g id="A_SVGStep2">
		<path d="M947.993,628.219c-64.368,0-124.883-25.066-170.398-70.581c-45.515-45.515-70.581-106.03-70.581-170.398
			c0-64.369,25.066-124.884,70.581-170.399c45.515-45.515,106.03-70.582,170.398-70.582s124.884,25.066,170.398,70.582
			c45.516,45.515,70.582,106.031,70.582,170.399s-25.066,124.883-70.582,170.398C1072.877,603.152,1012.361,628.219,947.993,628.219
			z M947.993,148.259c-131.774,0-238.979,107.206-238.979,238.98c0,131.774,107.206,238.979,238.979,238.979
			c131.774,0,238.98-107.206,238.98-238.979C1186.974,255.465,1079.768,148.259,947.993,148.259z"/>
		<path d="M953.843,387.239c0,3.229-2.618,5.851-5.85,5.851l0,0c-3.229,0-5.85-2.621-5.85-5.851l0,0
			c0-3.23,2.621-5.851,5.85-5.851l0,0C951.221,381.389,953.843,384.008,953.843,387.239L953.843,387.239z"/>
		<g id="A_text" enable-background="new    ">
			<path d="M958.112,355.21c0,1.232-0.233,2.321-0.7,3.266s-1.094,1.722-1.883,2.332
				c-0.934,0.733-1.957,1.256-3.074,1.566c-1.116,0.312-2.535,0.467-4.257,0.467h-8.797v-24.81h7.348c1.81,0,3.166,0.066,4.066,0.2
				c0.899,0.133,1.76,0.411,2.582,0.833c0.911,0.478,1.572,1.091,1.982,1.841c0.412,0.75,0.617,1.647,0.617,2.691
				c0,1.177-0.3,2.18-0.9,3.007c-0.6,0.828-1.398,1.491-2.398,1.991v0.134c1.677,0.344,2.999,1.08,3.965,2.207
				C957.629,352.063,958.112,353.488,958.112,355.21z M952.563,344.029c0-0.6-0.1-1.104-0.3-1.516c-0.199-0.411-0.521-0.744-0.967-1
				c-0.521-0.3-1.154-0.486-1.898-0.559s-1.667-0.108-2.767-0.108H942.7v7.165h4.266c1.033,0,1.855-0.053,2.466-0.158
				c0.61-0.105,1.177-0.325,1.699-0.658c0.521-0.333,0.891-0.764,1.107-1.291S952.563,344.752,952.563,344.029z M954.68,355.343
				c0-1-0.15-1.794-0.449-2.383c-0.301-0.588-0.845-1.088-1.633-1.499c-0.533-0.277-1.182-0.458-1.941-0.542
				c-0.762-0.083-1.686-0.125-2.774-0.125H942.7v9.231h4.366c1.444,0,2.626-0.075,3.549-0.226c0.922-0.149,1.677-0.425,2.267-0.824
				c0.621-0.434,1.076-0.928,1.365-1.483C954.535,356.938,954.68,356.221,954.68,355.343z"/>
		</g>
	</g>
	<g id="A_SVGStep3">
		<path d="M745.968,507.229c0,3.229-2.618,5.852-5.85,5.852l0,0c-3.229,0-5.85-2.622-5.85-5.852l0,0
			c0-3.229,2.622-5.851,5.85-5.851l0,0C743.349,501.378,745.968,503.997,745.968,507.229L745.968,507.229z"/>
		<g id="A_text" enable-background="new    ">
			<path d="M719.435,500.778c-0.611,0.267-1.164,0.517-1.658,0.75c-0.495,0.233-1.142,0.478-1.941,0.733
				c-0.678,0.211-1.414,0.392-2.208,0.541c-0.794,0.15-1.669,0.226-2.625,0.226c-1.799,0-3.435-0.253-4.907-0.759
				c-1.472-0.505-2.752-1.297-3.841-2.374c-1.066-1.055-1.899-2.396-2.499-4.023c-0.6-1.628-0.9-3.519-0.9-5.674
				c0-2.044,0.289-3.871,0.867-5.481c0.577-1.61,1.41-2.972,2.499-4.082c1.055-1.078,2.33-1.899,3.824-2.467
				c1.494-0.566,3.151-0.85,4.973-0.85c1.333,0,2.663,0.161,3.991,0.483c1.327,0.322,2.802,0.889,4.424,1.699v3.916h-0.25
				c-1.366-1.144-2.722-1.978-4.065-2.499c-1.344-0.522-2.783-0.783-4.315-0.783c-1.255,0-2.386,0.202-3.391,0.608
				c-1.005,0.405-1.902,1.035-2.691,1.891c-0.767,0.833-1.364,1.886-1.792,3.157c-0.428,1.272-0.641,2.741-0.641,4.407
				c0,1.744,0.236,3.244,0.708,4.499s1.08,2.277,1.824,3.065c0.778,0.822,1.686,1.431,2.725,1.824
				c1.039,0.395,2.135,0.592,3.291,0.592c1.588,0,3.077-0.271,4.465-0.816c1.389-0.544,2.688-1.36,3.899-2.449h0.233V500.778z"/>
		</g>
	</g>
	<g id="A_SVGStep4">
		<path d="M740.118,748.209c-64.368,0-124.883-25.066-170.398-70.581c-45.515-45.516-70.581-106.031-70.581-170.399
			c0-64.368,25.066-124.883,70.581-170.398c45.515-45.515,106.03-70.581,170.398-70.581s124.883,25.066,170.399,70.581
			c45.515,45.515,70.582,106.03,70.582,170.398s-25.066,124.884-70.582,170.399C865.002,723.143,804.486,748.209,740.118,748.209z
			 M740.118,268.249c-131.774,0-238.979,107.206-238.979,238.979c0,131.774,107.206,238.98,238.979,238.98
			c131.774,0,238.98-107.206,238.98-238.98C979.099,375.455,871.893,268.249,740.118,268.249z"/>
	</g>
	<g id="A_SVGStep5">
		<path d="M745.967,747.209c0,3.229-2.618,5.85-5.85,5.85l0,0c-3.229,0-5.849-2.621-5.849-5.85l0,0
			c0-3.23,2.622-5.852,5.849-5.852l0,0C743.346,741.357,745.967,743.977,745.967,747.209L745.967,747.209z"/>
		<g id="A_text" enable-background="new    ">
			<path d="M716.234,769.327c0,2.255-0.491,4.299-1.475,6.132c-0.983,1.833-2.291,3.255-3.924,4.266
				c-1.133,0.699-2.396,1.205-3.791,1.516c-1.394,0.312-3.23,0.467-5.507,0.467h-6.265v-24.81h6.198
				c2.421,0,4.346,0.175,5.773,0.524c1.427,0.351,2.635,0.831,3.624,1.441c1.688,1.056,3.005,2.461,3.949,4.216
				C715.762,764.834,716.234,766.917,716.234,769.327z M712.785,769.277c0-1.943-0.339-3.582-1.017-4.915
				c-0.678-1.333-1.688-2.383-3.032-3.149c-0.978-0.556-2.016-0.941-3.116-1.158c-1.1-0.217-2.416-0.325-3.949-0.325h-3.099v19.145
				h3.099c1.588,0,2.974-0.116,4.157-0.35s2.269-0.666,3.257-1.3c1.233-0.788,2.158-1.827,2.774-3.115
				C712.477,772.82,712.785,771.21,712.785,769.277z"/>
		</g>
	</g>
	<g id="A_SVGStep6">
		<path d="M740.117,988.188c-64.368,0-124.883-25.066-170.398-70.581s-70.581-106.029-70.581-170.397
			s25.066-124.883,70.581-170.398s106.03-70.581,170.398-70.581S865,531.296,910.515,576.811
			c45.514,45.515,70.581,106.03,70.581,170.398s-25.066,124.883-70.581,170.397C865,963.121,804.485,988.188,740.117,988.188z
			 M740.117,508.23c-131.773,0-238.979,107.206-238.979,238.979c0,131.773,107.206,238.979,238.979,238.979
			s238.979-107.205,238.979-238.979C979.096,615.436,871.89,508.23,740.117,508.23z"/>
	</g>
	<g id="A_SVGStep7">
		<path d="M953.843,867.199c0,3.229-2.618,5.85-5.85,5.85l0,0c-3.229,0-5.85-2.621-5.85-5.85l0,0
			c0-3.23,2.622-5.851,5.85-5.851l0,0C951.221,861.35,953.843,863.967,953.843,867.199L953.843,867.199z"/>
		<g id="A_text" enable-background="new    ">
			<path d="M955.816,917.222h-16.345v-24.81h16.345v2.933h-13.046v6.798h13.046v2.933h-13.046v9.214h13.046V917.222z
				"/>
		</g>
	</g>
	<g id="A_SVGStep8">
		<path d="M947.992,1108.178c-64.368,0-124.883-25.066-170.398-70.581c-45.515-45.515-70.581-106.03-70.581-170.397
			c0-64.368,25.066-124.884,70.581-170.398s106.03-70.581,170.398-70.581s124.883,25.066,170.397,70.581
			s70.581,106.03,70.581,170.398c0,64.367-25.066,124.883-70.581,170.397S1012.36,1108.178,947.992,1108.178z M947.992,628.22
			c-131.773,0-238.979,107.206-238.979,238.979s107.206,238.979,238.979,238.979c131.773,0,238.979-107.205,238.979-238.979
			S1079.766,628.22,947.992,628.22z"/>
	</g>
	<g id="A_SVGStep9">
		<path d="M1161.734,747.209c0,3.229-2.622,5.85-5.852,5.85l0,0c-3.229,0-5.851-2.621-5.851-5.85l0,0
			c0-3.23,2.621-5.852,5.851-5.852l0,0C1159.114,741.357,1161.734,743.977,1161.734,747.209L1161.734,747.209z"/>
		<g id="A_text" enable-background="new    ">
			<path d="M1198.256,757.83h-12.547v6.998h10.781v2.933h-10.781v11.946h-3.299v-24.81h15.846V757.83z"/>
		</g>
	</g>
	<g id="A_SVGStep10">
		<path d="M1155.885,988.188c-64.367,0-124.883-25.066-170.397-70.581s-70.581-106.029-70.581-170.397
			s25.066-124.883,70.581-170.398c45.515-45.515,106.03-70.581,170.397-70.581c64.368,0,124.884,25.066,170.398,70.581
			s70.581,106.03,70.581,170.398s-25.066,124.883-70.581,170.397S1220.253,988.188,1155.885,988.188z M1155.885,508.23
			c-131.773,0-238.979,107.206-238.979,238.979c0,131.773,107.205,238.979,238.979,238.979s238.979-107.205,238.979-238.979
			C1394.864,615.436,1287.658,508.23,1155.885,508.23z"/>
	</g>
	<g id="A_SVGStep11">
		<path d="M1161.734,507.23c0,3.229-2.622,5.85-5.852,5.85l0,0c-3.229,0-5.851-2.621-5.851-5.85l0,0
			c0-3.23,2.621-5.851,5.851-5.851l0,0C1159.114,501.38,1161.734,503.998,1161.734,507.23L1161.734,507.23z"/>
		<g id="A_text" enable-background="new    ">
			<path d="M1200.205,498.747c-1.355,0.622-2.836,1.164-4.44,1.625s-3.157,0.691-4.657,0.691
				c-1.933,0-3.704-0.267-5.314-0.8c-1.611-0.533-2.982-1.333-4.115-2.399c-1.145-1.077-2.027-2.425-2.65-4.041
				c-0.621-1.616-0.933-3.507-0.933-5.673c0-3.966,1.158-7.095,3.474-9.389c2.316-2.294,5.496-3.441,9.539-3.441
				c1.411,0,2.852,0.17,4.324,0.509c1.472,0.339,3.058,0.913,4.757,1.725v3.915h-0.3c-0.345-0.267-0.844-0.616-1.5-1.05
				c-0.655-0.433-1.299-0.794-1.933-1.083c-0.767-0.344-1.636-0.63-2.607-0.857s-2.074-0.342-3.308-0.342
				c-2.777,0-4.973,0.892-6.59,2.674c-1.615,1.783-2.424,4.196-2.424,7.24c0,3.21,0.844,5.706,2.532,7.489
				c1.688,1.782,3.987,2.674,6.898,2.674c1.066,0,2.13-0.105,3.19-0.316s1.991-0.483,2.791-0.816v-6.082h-6.648v-2.898h9.914
				V498.747z"/>
		</g>
	</g>
	<g id="A_SVGStep12">
		<path d="M1155.885,748.208c-64.367,0-124.883-25.066-170.397-70.581c-45.515-45.515-70.581-106.03-70.581-170.398
			c0-64.368,25.066-124.882,70.581-170.397c45.515-45.515,106.03-70.581,170.397-70.581c64.368,0,124.883,25.066,170.398,70.581
			c45.515,45.515,70.581,106.03,70.581,170.397c0,64.368-25.066,124.883-70.581,170.398
			C1280.769,723.142,1220.253,748.208,1155.885,748.208z M1155.885,268.25c-131.773,0-238.979,107.205-238.979,238.979
			s107.205,238.979,238.979,238.979s238.979-107.206,238.979-238.979S1287.658,268.25,1155.885,268.25z"/>
	</g>
	<g id="A_SVGStep13">
		<path d="M745.969,267.249c0,3.229-2.621,5.85-5.85,5.85l0,0c-3.23,0-5.851-2.621-5.851-5.85l0,0
			c0-3.23,2.621-5.851,5.851-5.851l0,0C743.349,261.399,745.969,264.017,745.969,267.249L745.969,267.249z"/>
		<g id="A_text" enable-background="new    ">
			<path d="M733.724,251.599h-3.299v-12.146h-12.38v12.146h-3.299v-24.81h3.299v9.73h12.38v-9.73h3.299V251.599z"/>
		</g>
	</g>
	<g id="A_SVGStep14">
		<path d="M538.102,627.197c0,3.23-2.622,5.85-5.852,5.85l0,0c-3.229,0-5.851-2.621-5.851-5.85l0,0
			c0-3.229,2.621-5.85,5.851-5.85l0,0C535.481,621.348,538.102,623.965,538.102,627.197L538.102,627.197z"/>
		<g id="A_text" enable-background="new    ">
			<path d="M515.625,638.081h-9.797v-2.532h3.249v-19.745h-3.249v-2.532h9.797v2.532h-3.249v19.745h3.249V638.081z"
				/>
		</g>
	</g>
	<g id="A_SVGStep15">
		<path d="M745.968,987.188c0,3.23-2.622,5.851-5.85,5.851l0,0c-3.231,0-5.851-2.621-5.851-5.851l0,0
			c0-3.229,2.619-5.848,5.851-5.848l0,0C743.346,981.34,745.968,983.957,745.968,987.188L745.968,987.188z"/>
		<g id="A_text" enable-background="new    ">
			<path d="M730.842,1017.624c0,2.178-0.664,3.854-1.991,5.032c-1.327,1.178-3.107,1.766-5.34,1.766
				c-0.533,0-1.244-0.047-2.133-0.142c-0.889-0.094-1.633-0.208-2.233-0.341v-3.083h0.184c0.455,0.155,1.016,0.316,1.683,0.483
				c0.667,0.166,1.35,0.25,2.049,0.25c1.022,0,1.835-0.117,2.441-0.351c0.605-0.232,1.052-0.566,1.341-0.999
				c0.3-0.444,0.491-0.988,0.575-1.633c0.083-0.645,0.125-1.389,0.125-2.233v-14.479h-5.249v-2.633h8.547V1017.624z"/>
		</g>
	</g>
	<g id="A_SVGStep16">
		<path d="M1161.735,987.188c0,3.23-2.623,5.851-5.852,5.851l0,0c-3.23,0-5.852-2.621-5.852-5.851l0,0
			c0-3.229,2.621-5.848,5.852-5.848l0,0C1159.114,981.34,1161.735,983.957,1161.735,987.188L1161.735,987.188z"/>
		<g id="A_text" enable-background="new    ">
			<path d="M1183.705,1020.572h-4.281l-9.814-11.047l-2.466,2.633v8.414h-3.3v-24.81h3.3v12.946l12.046-12.946h4
				l-11.08,11.663L1183.705,1020.572z"/>
		</g>
	</g>
	<g id="A_SVGStep17">
		<path d="M1369.602,627.197c0,3.23-2.623,5.85-5.852,5.85l0,0c-3.23,0-5.852-2.621-5.852-5.85l0,0
			c0-3.229,2.621-5.85,5.852-5.85l0,0C1366.98,621.348,1369.602,623.965,1369.602,627.197L1369.602,627.197z"/>
		<g id="A_text" enable-background="new    ">
			<path d="M1396.824,638.081h-15.695v-24.81h3.299v21.877h12.396V638.081z"/>
		</g>
	</g>
	<g id="A_SVGStep18">
		<path d="M1161.735,267.25c0,3.229-2.623,5.85-5.852,5.85l0,0c-3.23,0-5.852-2.621-5.852-5.85l0,0
			c0-3.229,2.621-5.85,5.852-5.85l0,0C1159.114,261.4,1161.735,264.019,1161.735,267.25L1161.735,267.25z"/>
		<g id="A_text" enable-background="new    ">
			<path d="M1186.162,259.134h-3.3v-21.377l-6.897,14.546h-1.967l-6.848-14.546v21.377h-3.082v-24.81h4.498
				l6.615,13.813l6.398-13.813h4.582V259.134z"/>
		</g>
	</g>
	<g id="A_SVGStep19">
		<path d="M740.117,508.23c-64.368,0-124.883-25.066-170.398-70.582c-45.515-45.516-70.581-106.031-70.581-170.399
			s25.066-124.883,70.581-170.399c45.515-45.515,106.03-70.582,170.398-70.582S865,51.336,910.516,96.851
			c45.515,45.516,70.582,106.031,70.582,170.399s-25.066,124.883-70.582,170.399C865,483.164,804.485,508.23,740.117,508.23z
			 M740.117,28.27c-131.774,0-238.979,107.206-238.979,238.98s107.206,238.98,238.979,238.98
			c131.774,0,238.98-107.206,238.98-238.98S871.892,28.27,740.117,28.27z"/>
	</g>
	<g id="A_SVGStep20">
		<path d="M532.25,868.177c-64.368,0-124.883-25.066-170.398-70.581c-45.515-45.515-70.581-106.03-70.581-170.398
			s25.066-124.883,70.581-170.399c45.515-45.515,106.03-70.582,170.398-70.582s124.883,25.066,170.399,70.582
			c45.515,45.516,70.582,106.031,70.582,170.399s-25.066,124.883-70.582,170.398C657.133,843.11,596.618,868.177,532.25,868.177z
			 M532.25,388.217c-131.774,0-238.979,107.206-238.979,238.98c0,131.773,107.206,238.979,238.979,238.979
			c131.774,0,238.98-107.206,238.98-238.979C771.23,495.423,664.024,388.217,532.25,388.217z"/>
	</g>
	<g id="A_SVGStep21">
		<path d="M740.117,1228.168c-64.368,0-124.883-25.066-170.398-70.581c-45.515-45.516-70.581-106.031-70.581-170.399
			s25.066-124.884,70.581-170.398c45.515-45.515,106.03-70.581,170.398-70.581S865,771.274,910.516,816.789
			c45.515,45.516,70.582,106.03,70.582,170.398s-25.066,124.884-70.582,170.399C865.001,1203.102,804.485,1228.168,740.117,1228.168
			z M740.117,748.208c-131.774,0-238.979,107.206-238.979,238.979c0,131.774,107.206,238.98,238.979,238.98
			c131.774,0,238.98-107.206,238.98-238.98C979.098,855.414,871.892,748.208,740.117,748.208z"/>
	</g>
	<g id="A_SVGStep22">
		<path d="M1155.884,1228.166c-64.367,0-124.883-25.066-170.397-70.581s-70.581-106.03-70.581-170.397
			c0-64.368,25.066-124.883,70.581-170.398c45.515-45.515,106.03-70.581,170.397-70.581c64.368,0,124.883,25.066,170.398,70.581
			c45.515,45.515,70.581,106.03,70.581,170.398c0,64.367-25.066,124.883-70.581,170.397
			C1280.767,1203.1,1220.252,1228.166,1155.884,1228.166z M1155.884,748.208c-131.773,0-238.979,107.206-238.979,238.979
			s107.205,238.979,238.979,238.979s238.979-107.205,238.979-238.979S1287.657,748.208,1155.884,748.208z"/>
	</g>
	<g id="A_SVGStep23">
		<path d="M1363.749,868.199c-64.368,0-124.883-25.066-170.398-70.582c-45.515-45.515-70.581-106.03-70.581-170.398
			s25.066-124.883,70.581-170.398c45.516-45.515,106.03-70.581,170.398-70.581s124.884,25.066,170.398,70.581
			c45.516,45.515,70.582,106.03,70.582,170.398s-25.066,124.884-70.582,170.398C1488.633,843.133,1428.117,868.199,1363.749,868.199
			z M1363.749,388.239c-131.773,0-238.979,107.206-238.979,238.979c0,131.774,107.206,238.98,238.979,238.98
			c131.774,0,238.98-107.206,238.98-238.98C1602.729,495.445,1495.523,388.239,1363.749,388.239z"/>
	</g>
	<g id="A_SVGStep24">
		<path d="M1155.884,508.23c-64.368,0-124.883-25.066-170.398-70.582c-45.515-45.516-70.581-106.031-70.581-170.399
			s25.066-124.883,70.581-170.399c45.516-45.515,106.03-70.582,170.398-70.582s124.884,25.066,170.399,70.582
			c45.515,45.515,70.581,106.031,70.581,170.399s-25.066,124.884-70.581,170.399C1280.768,483.164,1220.252,508.23,1155.884,508.23z
			 M1155.884,28.27c-131.773,0-238.979,107.206-238.979,238.98s107.206,238.98,238.979,238.98
			c131.774,0,238.98-107.206,238.98-238.98S1287.658,28.27,1155.884,28.27z"/>
	</g>
</g>
</svg>
