<?xml version="1.0" encoding="utf-8"?>
<!-- Generator: Adobe Illustrator 16.0.0, SVG Export Plug-In . SVG Version: 6.00 Build 0)  -->
<!DOCTYPE svg PUBLIC "-//W3C//DTD SVG 1.1//EN" "http://www.w3.org/Graphics/SVG/1.1/DTD/svg11.dtd">
<svg version="1.1" id="A_detailGenesis" xmlns="http://www.w3.org/2000/svg" xmlns:xlink="http://www.w3.org/1999/xlink"
	 x="0px" y="0px" width="960.96px" height="1014.592px" viewBox="0 0 960.96 1014.592" enable-background="new 0 0 960.96 1014.592"
	 xml:space="preserve">
<g id="A_SVGSteps">
	<g id="A_SVGStep1">
		<circle fill="none" stroke="#FFFFFF" stroke-width="2" stroke-miterlimit="10" cx="480.473" cy="483.994" r="239.492"/>
		<text class="A_verbose" transform="matrix(1 0 0 1 468.7979 451.0654)" fill="#FFFFFF" font-family="'Verdana'" font-size="34.0542">A</text>
		<path fill="#FFFFFF" d="M486.312,483.993c0,3.225-2.614,5.838-5.838,5.838l0,0c-3.223,0-5.838-2.614-5.838-5.838l0,0
			c0-3.224,2.616-5.838,5.838-5.838l0,0C483.697,478.155,486.312,480.769,486.312,483.993L486.312,483.993z"/>
	</g>
	<g id="A_SVGStep2">
		<circle fill="none" stroke="#FFFFFF" stroke-width="2" stroke-miterlimit="10" cx="480.473" cy="244.501" r="239.493"/>
		<path fill="#FFFFFF" d="M486.311,244.502c0,3.224-2.614,5.838-5.838,5.838l0,0c-3.223,0-5.838-2.615-5.838-5.838l0,0
			c0-3.224,2.616-5.838,5.838-5.838l0,0C483.696,238.664,486.311,241.277,486.311,244.502L486.311,244.502z"/>
		<text class="A_verbose" transform="matrix(1 0 0 1 469.7705 221.1504)" fill="#FFFFFF" font-family="'Verdana'" font-size="34.0542">B</text>
	</g>
	<g id="A_SVGStep3">
		<circle fill="none" stroke="#FFFFFF" stroke-width="2" stroke-miterlimit="10" cx="273.021" cy="364.247" r="239.492"/>
		<path fill="#FFFFFF" d="M278.858,364.247c0,3.224-2.615,5.837-5.838,5.837l0,0c-3.223,0-5.838-2.615-5.838-5.837l0,0
			c0-3.224,2.616-5.838,5.838-5.838l0,0C276.243,358.409,278.858,361.022,278.858,364.247L278.858,364.247z"/>
		<text class="A_verbose" transform="matrix(1 0 0 1 229.9316 359.606)" fill="#FFFFFF" font-family="'Verdana'" font-size="34.0542">C</text>
	</g>
	<g id="A_SVGStep4">
		<circle fill="none" stroke="#FFFFFF" stroke-width="2" stroke-miterlimit="10" cx="273.02" cy="603.74" r="239.492"/>
		<path fill="#FFFFFF" d="M278.857,603.739c0,3.224-2.615,5.838-5.838,5.838l0,0c-3.223,0-5.837-2.615-5.837-5.838l0,0
			c0-3.224,2.616-5.838,5.837-5.838l0,0C276.242,597.901,278.857,600.515,278.857,603.739L278.857,603.739z"/>
		<text class="A_verbose" transform="matrix(1 0 0 1 229.9312 632.1797)" fill="#FFFFFF" font-family="'Verdana'" font-size="34.0542">D</text>
	</g>
	<g id="A_SVGStep5">
		<circle fill="none" stroke="#FFFFFF" stroke-width="2" stroke-miterlimit="10" cx="481.446" cy="721.541" r="239.492"/>
		<path fill="#FFFFFF" d="M487.284,721.54c0,3.224-2.615,5.838-5.838,5.838l0,0c-3.224,0-5.838-2.615-5.838-5.838l0,0
			c0-3.224,2.616-5.838,5.838-5.838l0,0C484.669,715.702,487.284,718.315,487.284,721.54L487.284,721.54z"/>
		<text class="A_verbose" transform="matrix(1 0 0 1 468.5186 768.4668)" fill="#FFFFFF" font-family="'Verdana'" font-size="34.0542">E</text>
	</g>
	<g id="A_SVGStep6">
		<circle fill="none" stroke="#FFFFFF" stroke-width="2" stroke-miterlimit="10" cx="687.94" cy="603.74" r="239.492"/>
		<path fill="#FFFFFF" d="M693.778,603.739c0,3.224-2.615,5.838-5.838,5.838l0,0c-3.223,0-5.838-2.615-5.838-5.838l0,0
			c0-3.224,2.617-5.838,5.838-5.838l0,0C691.163,597.901,693.778,600.515,693.778,603.739L693.778,603.739z"/>
		<text class="A_verbose" transform="matrix(1 0 0 1 708.0947 632.1797)" fill="#FFFFFF" font-family="'Verdana'" font-size="34.0542">F</text>
	</g>
	<g id="A_SVGStep7">
		<circle fill="none" stroke="#FFFFFF" stroke-width="2" stroke-miterlimit="10" cx="687.94" cy="364.248" r="239.492"/>
		<path fill="#FFFFFF" d="M693.778,364.248c0,3.224-2.615,5.838-5.838,5.838l0,0c-3.223,0-5.838-2.615-5.838-5.838l0,0
			c0-3.224,2.617-5.837,5.838-5.837l0,0C691.163,358.41,693.778,361.023,693.778,364.248L693.778,364.248z"/>
		<text class="A_verbose" transform="matrix(1 0 0 1 704.2031 359.6069)" fill="#FFFFFF" font-family="'Verdana'" font-size="34.0542">G</text>
	</g>
</g>
</svg>
