<?xml version="1.0" encoding="utf-8"?>
<!-- Generator: Adobe Illustrator 16.0.0, SVG Export Plug-In . SVG Version: 6.00 Build 0)  -->
<!DOCTYPE svg PUBLIC "-//W3C//DTD SVG 1.1//EN" "http://www.w3.org/Graphics/SVG/1.1/DTD/svg11.dtd">
<svg version="1.1" id="A_detailCircle" xmlns="http://www.w3.org/2000/svg" xmlns:xlink="http://www.w3.org/1999/xlink" x="0px"
	 y="0px" width="1186px" height="791.064px" viewBox="0 0 1186 791.064" enable-background="new 0 0 1186 791.064"
	 xml:space="preserve">
<g id="A_SVGGroupSteps">
	<g id="A_SVGStep3">
		<g id="A_text">
			<path d="M1036.948,317.625h-3.606l-2.494-7.092h-11.006l-2.496,7.092h-3.435l9.263-25.447h4.512L1036.948,317.625
				z M1029.805,307.627l-4.461-12.493l-4.477,12.493H1029.805z"/>
			<path d="M1060.002,309.798c0,1.265-0.238,2.381-0.717,3.35c-0.479,0.969-1.123,1.766-1.932,2.393
				c-0.957,0.752-2.008,1.288-3.153,1.606c-1.145,0.319-2.601,0.479-4.366,0.479h-9.023v-25.447h7.537
				c1.856,0,3.246,0.068,4.17,0.205c0.922,0.137,1.805,0.422,2.648,0.854c0.934,0.49,1.612,1.12,2.033,1.888
				c0.422,0.77,0.633,1.689,0.633,2.76c0,1.208-0.308,2.236-0.923,3.084c-0.615,0.849-1.436,1.53-2.461,2.042v0.137
				c1.72,0.354,3.076,1.108,4.067,2.264C1059.507,306.571,1060.002,308.032,1060.002,309.798z M1054.312,298.331
				c0-0.615-0.103-1.133-0.308-1.555c-0.205-0.421-0.536-0.763-0.991-1.025c-0.536-0.308-1.186-0.498-1.948-0.572
				c-0.764-0.074-1.709-0.111-2.837-0.111h-4.033v7.349h4.375c1.06,0,1.902-0.054,2.529-0.162c0.626-0.108,1.207-0.333,1.743-0.675
				c0.535-0.342,0.914-0.783,1.137-1.325C1054.2,299.712,1054.312,299.071,1054.312,298.331z M1056.483,309.935
				c0-1.025-0.154-1.84-0.462-2.444c-0.308-0.604-0.866-1.116-1.675-1.538c-0.547-0.285-1.211-0.47-1.991-0.555
				c-0.78-0.086-1.729-0.128-2.845-0.128h-5.315v9.468h4.478c1.48,0,2.694-0.077,3.641-0.231c0.945-0.153,1.72-0.436,2.324-0.846
				c0.638-0.444,1.104-0.951,1.4-1.521C1056.334,311.57,1056.483,310.835,1056.483,309.935z"/>
			<path d="M1085.842,304.261h-20.268v-2.734h20.268V304.261z M1085.842,311.438h-20.268v-2.734h20.268V311.438z"/>
			<path d="M1108.555,317.625h-13.774v-2.598h5.298v-17.056h-5.298v-2.324c0.718,0,1.487-0.06,2.308-0.18
				c0.82-0.119,1.44-0.293,1.862-0.521c0.523-0.285,0.937-0.646,1.239-1.085c0.302-0.438,0.476-1.028,0.521-1.769h2.648v22.935
				h5.195V317.625z"/>
		</g>
	</g>
	<g id="A_SVGStep2">
		<path d="M971.697,385.532c0,3.313-2.688,6-6,6l0,0c-3.313,0-6-2.688-6-6l0,0c0-3.314,2.688-6,6-6l0,0
			C969.01,379.532,971.697,382.218,971.697,385.532L971.697,385.532z"/>
		<rect x="604.635" y="384.532" width="361.063" height="2"/>
		<g id="A_text">
			<g>
				<path d="M951.251,368.297c0,1.265-0.238,2.381-0.717,3.35c-0.479,0.969-1.123,1.766-1.932,2.393
					c-0.957,0.752-2.008,1.288-3.153,1.606c-1.145,0.319-2.601,0.479-4.366,0.479h-9.023v-25.447h7.537
					c1.856,0,3.246,0.068,4.17,0.205c0.922,0.137,1.805,0.422,2.648,0.854c0.934,0.49,1.612,1.12,2.033,1.888
					c0.422,0.77,0.633,1.689,0.633,2.76c0,1.208-0.308,2.236-0.923,3.084c-0.615,0.849-1.436,1.53-2.461,2.042v0.137
					c1.72,0.354,3.076,1.108,4.067,2.264C950.756,365.07,951.251,366.531,951.251,368.297z M945.561,356.83
					c0-0.615-0.103-1.133-0.308-1.555c-0.205-0.421-0.536-0.763-0.991-1.025c-0.536-0.308-1.186-0.498-1.948-0.572
					c-0.764-0.074-1.709-0.111-2.837-0.111h-4.033v7.349h4.375c1.06,0,1.902-0.054,2.529-0.162c0.626-0.108,1.207-0.333,1.743-0.675
					c0.535-0.342,0.914-0.783,1.137-1.325C945.449,358.211,945.561,357.57,945.561,356.83z M947.732,368.434
					c0-1.025-0.154-1.84-0.462-2.444c-0.308-0.604-0.866-1.116-1.675-1.538c-0.547-0.285-1.211-0.47-1.991-0.555
					c-0.78-0.086-1.729-0.128-2.845-0.128h-5.315v9.468h4.478c1.48,0,2.694-0.077,3.641-0.231c0.945-0.153,1.72-0.436,2.324-0.846
					c0.638-0.444,1.104-0.951,1.4-1.521C947.583,370.069,947.732,369.334,947.732,368.434z"/>
			</g>
			<g>
				<path d="M637.061,376.124h-3.606l-2.494-7.092h-11.006l-2.496,7.092h-3.435l9.263-25.447h4.512L637.061,376.124z
					 M629.917,366.126l-4.461-12.493l-4.477,12.493H629.917z"/>
			</g>
		</g>
	</g>
	<g id="A_SVGStep1">
		<path d="M610.635,385.532c0,3.313-2.688,6-6,6l0,0c-3.313,0-6-2.688-6-6l0,0c0-3.314,2.688-6,6-6l0,0
			C607.948,379.532,610.635,382.218,610.635,385.532L610.635,385.532z"/>
		<path d="M604.635,747.595c-48.877,0-96.294-9.573-140.932-28.453c-43.113-18.233-81.835-44.342-115.085-77.593
			c-33.251-33.251-59.356-71.971-77.593-115.085c-18.88-44.638-28.453-92.054-28.453-140.932c0-48.878,9.573-96.294,28.453-140.932
			c18.236-43.114,44.342-81.834,77.593-115.085c33.25-33.251,71.972-59.356,115.085-77.593
			c44.638-18.88,92.055-28.453,140.932-28.453c48.878,0,96.294,9.573,140.933,28.453c43.113,18.236,81.835,44.342,115.086,77.593
			c33.251,33.25,59.356,71.971,77.593,115.085c18.881,44.638,28.453,92.054,28.453,140.932c0,48.878-9.572,96.294-28.453,140.932
			c-18.234,43.114-44.342,81.834-77.593,115.085s-71.973,59.357-115.086,77.593C700.929,738.021,653.513,747.595,604.635,747.595z
			 M604.635,25.469c-198.539,0-360.063,161.523-360.063,360.063c0,198.539,161.522,360.063,360.063,360.063
			s360.063-161.521,360.063-360.063C964.698,186.993,803.175,25.469,604.635,25.469z"/>
		<g id="A_text">
			<path d="M637.061,376.124h-3.606l-2.494-7.092h-11.006l-2.496,7.092h-3.435l9.263-25.447h4.512L637.061,376.124z
				 M629.917,366.126l-4.461-12.493l-4.477,12.493H629.917z"/>
		</g>
	</g>
</g>
</svg>
