<?xml version="1.0" encoding="utf-8"?>
<!-- Generator: Adobe Illustrator 16.0.0, SVG Export Plug-In . SVG Version: 6.00 Build 0)  -->
<!DOCTYPE svg PUBLIC "-//W3C//DTD SVG 1.1//EN" "http://www.w3.org/Graphics/SVG/1.1/DTD/svg11.dtd">
<svg version="1.1" id="A-detailVesicaPiscis" xmlns="http://www.w3.org/2000/svg" xmlns:xlink="http://www.w3.org/1999/xlink"
	 x="0px" y="0px" width="1739px" height="1159.945px" viewBox="0 0 1739 1159.945" enable-background="new 0 0 1739 1159.945"
	 xml:space="preserve">
<rect x="0" y="0" width="1739" height="1159.945"/>
<g id="A-SVGGroupSteps">
	<g id="A-SVGStep12" enable-background="new    ">
		<g id="A-text14">
			<path fill="#FFFFFF" d="M1120.352,516.6c-0.572,0.25-1.092,0.483-1.555,0.703c-0.463,0.219-1.07,0.448-1.82,0.688
				c-0.635,0.198-1.326,0.367-2.07,0.508c-0.743,0.142-1.563,0.212-2.461,0.212c-1.688,0-3.221-0.237-4.602-0.712
				c-1.381-0.474-2.58-1.216-3.603-2.227c-1-0.989-1.78-2.247-2.344-3.773c-0.563-1.525-0.844-3.299-0.844-5.319
				c0-1.917,0.271-3.63,0.813-5.142c0.541-1.51,1.322-2.786,2.345-3.827c0.989-1.011,2.186-1.781,3.586-2.313
				c1.399-0.532,2.955-0.797,4.664-0.797c1.25,0,2.498,0.151,3.741,0.453c1.244,0.302,2.627,0.833,4.148,1.594v3.672h-0.234
				c-1.281-1.073-2.553-1.854-3.813-2.344c-1.261-0.489-2.609-0.734-4.048-0.734c-1.178,0-2.235,0.19-3.18,0.57
				c-0.943,0.38-1.783,0.972-2.522,1.772c-0.72,0.781-1.279,1.77-1.681,2.962c-0.399,1.192-0.602,2.569-0.602,4.133
				c0,1.636,0.221,3.042,0.664,4.219c0.442,1.177,1.014,2.136,1.711,2.875c0.729,0.771,1.58,1.341,2.555,1.711
				s2.002,0.555,3.086,0.555c1.49,0,2.885-0.255,4.188-0.766c1.303-0.51,2.521-1.276,3.655-2.297h0.22L1120.352,516.6
				L1120.352,516.6z"/>
			<path fill="#FFFFFF" d="M1144.383,506.678c0,2.115-0.461,4.031-1.383,5.75c-0.923,1.719-2.148,3.052-3.681,4
				c-1.063,0.655-2.248,1.13-3.555,1.422c-1.308,0.292-3.029,0.438-5.164,0.438h-5.875v-23.266h5.813
				c2.271,0,4.076,0.164,5.414,0.492s2.472,0.778,3.398,1.352c1.584,0.99,2.817,2.309,3.703,3.953
				C1143.94,502.466,1144.383,504.419,1144.383,506.678z M1141.149,506.632c0-1.823-0.318-3.359-0.953-4.609
				s-1.584-2.234-2.844-2.953c-0.916-0.521-1.891-0.883-2.922-1.086s-2.266-0.305-3.703-0.305h-2.906v17.953h2.906
				c1.49,0,2.789-0.109,3.898-0.328c1.108-0.22,2.127-0.625,3.055-1.22c1.156-0.738,2.022-1.713,2.602-2.922
				C1140.86,509.955,1141.149,508.444,1141.149,506.632z"/>
			<path fill="#FFFFFF" d="M1168.616,506.069h-18.53v-2.5h18.53V506.069z M1168.616,512.632h-18.53v-2.5h18.53V512.632z"/>
			<path fill="#FFFFFF" d="M1189.383,518.288h-12.594v-2.375h4.844v-15.594h-4.844v-2.125c0.655,0,1.358-0.055,2.108-0.164
				c0.75-0.108,1.318-0.268,1.703-0.477c0.479-0.26,0.857-0.591,1.133-0.992s0.437-0.94,0.478-1.617h2.422v20.969h4.75V518.288
				L1189.383,518.288z"/>
			<path fill="#FFFFFF" d="M1200.477,518.288h-3.734v-4.452h3.734V518.288z"/>
			<path fill="#FFFFFF" d="M1222.758,498.507l-10.531,19.78h-3.344l11.203-20.53h-13.25v-2.734h15.922V498.507z"/>
			<path fill="#FFFFFF" d="M1240.991,507.085c0.5,0.447,0.912,1.011,1.234,1.688s0.483,1.552,0.483,2.625
				c0,1.063-0.192,2.037-0.577,2.922c-0.386,0.886-0.929,1.656-1.625,2.313c-0.781,0.729-1.701,1.269-2.759,1.617
				c-1.057,0.348-2.217,0.522-3.477,0.522c-1.291,0-2.563-0.154-3.813-0.461s-2.274-0.643-3.077-1.008v-3.267h0.233
				c0.885,0.583,1.928,1.068,3.125,1.453c1.197,0.387,2.354,0.578,3.469,0.578c0.656,0,1.354-0.108,2.095-0.328
				c0.739-0.219,1.338-0.542,1.797-0.969c0.479-0.458,0.836-0.963,1.069-1.516c0.234-0.553,0.353-1.25,0.353-2.095
				c0-0.833-0.133-1.522-0.398-2.069c-0.265-0.547-0.633-0.978-1.102-1.289c-0.469-0.323-1.037-0.544-1.703-0.664
				s-1.385-0.18-2.156-0.18h-1.406v-2.595h1.095c1.584,0,2.846-0.331,3.789-0.991c0.942-0.661,1.413-1.628,1.413-2.898
				c0-0.563-0.118-1.055-0.358-1.477c-0.24-0.423-0.572-0.769-1-1.039c-0.447-0.271-0.928-0.458-1.438-0.563
				c-0.51-0.104-1.088-0.156-1.733-0.156c-0.99,0-2.041,0.178-3.156,0.531c-1.115,0.354-2.166,0.854-3.156,1.5h-0.155v-3.266
				c0.739-0.364,1.727-0.7,2.961-1.009c1.233-0.307,2.43-0.461,3.586-0.461c1.135,0,2.135,0.104,3,0.313
				c0.865,0.208,1.646,0.542,2.344,1c0.75,0.5,1.318,1.104,1.703,1.813c0.385,0.708,0.578,1.537,0.578,2.484
				c0,1.292-0.455,2.419-1.367,3.383s-1.986,1.57-3.227,1.82v0.219c0.5,0.083,1.071,0.258,1.719,0.523
				C1239.998,506.355,1240.545,506.689,1240.991,507.085z"/>
			<path fill="#FFFFFF" d="M1263.383,518.288h-15.75v-3.266c1.094-0.938,2.188-1.875,3.289-2.813c1.1-0.938,2.123-1.87,3.069-2.798
				c2-1.938,3.369-3.477,4.109-4.616c0.74-1.141,1.108-2.372,1.108-3.695c0-1.208-0.397-2.153-1.194-2.836s-1.908-1.023-3.336-1.023
				c-0.947,0-1.976,0.167-3.078,0.5c-1.104,0.333-2.183,0.845-3.234,1.531h-0.155v-3.281c0.739-0.363,1.727-0.697,2.961-1
				c1.233-0.302,2.43-0.453,3.586-0.453c2.385,0,4.256,0.576,5.608,1.728c1.354,1.15,2.031,2.711,2.031,4.68
				c0,0.886-0.11,1.711-0.336,2.478c-0.226,0.766-0.555,1.491-0.992,2.18c-0.405,0.646-0.883,1.281-1.43,1.906
				s-1.211,1.317-1.992,2.078c-1.115,1.094-2.266,2.153-3.453,3.18s-2.297,1.977-3.328,2.852h12.517V518.288z"/>
		</g>
	</g>
	<g id="A-SVGStep11">
		<g id="A-text13">
			<path fill="#FFFFFF" d="M1117.712,472.971h-15.328v-23.267h15.328v2.75h-12.234v6.375h12.234v2.75h-12.234v8.642h12.234V472.971z
				"/>
			<path fill="#FFFFFF" d="M1142.275,461.362c0,2.115-0.461,4.031-1.383,5.75s-2.148,3.052-3.681,4
				c-1.063,0.656-2.248,1.13-3.555,1.422c-1.308,0.292-3.029,0.438-5.164,0.438h-5.875v-23.267h5.813
				c2.271,0,4.075,0.164,5.414,0.492c1.338,0.328,2.471,0.779,3.397,1.353c1.583,0.989,2.817,2.308,3.703,3.953
				C1141.83,457.148,1142.275,459.102,1142.275,461.362z M1139.039,461.315c0-1.823-0.317-3.359-0.952-4.609
				c-0.637-1.25-1.584-2.233-2.845-2.952c-0.917-0.521-1.891-0.884-2.922-1.086c-1.031-0.203-2.266-0.306-3.703-0.306h-2.905v17.953
				h2.905c1.489,0,2.789-0.109,3.898-0.328s2.127-0.625,3.055-1.219c1.156-0.739,2.023-1.713,2.603-2.922
				C1138.75,464.638,1139.039,463.128,1139.039,461.315z"/>
			<path fill="#FFFFFF" d="M1166.509,460.753h-18.531v-2.5h18.531V460.753z M1166.509,467.315h-18.531v-2.5h18.531V467.315z"/>
			<path fill="#FFFFFF" d="M1188.572,461.331c0,4.178-0.653,7.242-1.961,9.195s-3.336,2.93-6.086,2.93
				c-2.792,0-4.831-0.988-6.117-2.969c-1.287-1.979-1.93-5.021-1.93-9.125c0-4.135,0.649-7.189,1.953-9.164
				c1.302-1.974,3.333-2.961,6.094-2.961c2.791,0,4.83,1.003,6.117,3.008C1187.928,454.25,1188.572,457.279,1188.572,461.331z
				 M1184.462,468.425c0.363-0.845,0.61-1.836,0.741-2.978c0.131-1.141,0.195-2.513,0.195-4.117c0-1.583-0.064-2.958-0.195-4.125
				s-0.383-2.155-0.758-2.969c-0.365-0.802-0.862-1.406-1.492-1.813c-0.631-0.406-1.439-0.609-2.43-0.609
				c-0.979,0-1.789,0.203-2.43,0.609c-0.642,0.405-1.148,1.021-1.523,1.844c-0.354,0.771-0.597,1.776-0.727,3.016
				c-0.131,1.24-0.195,2.6-0.195,4.078c0,1.625,0.057,2.984,0.172,4.078c0.114,1.094,0.359,2.073,0.734,2.938
				c0.344,0.813,0.83,1.433,1.461,1.858c0.63,0.427,1.466,0.642,2.508,0.642c0.979,0,1.791-0.203,2.438-0.609
				C1183.608,469.862,1184.108,469.248,1184.462,468.425z"/>
			<path fill="#FFFFFF" d="M1198.367,472.971h-3.733v-4.453h3.733V472.971z"/>
			<path fill="#FFFFFF" d="M1220.759,466.487c0,2.011-0.784,3.684-2.353,5.017c-1.567,1.333-3.539,2-5.914,2
				c-2.521,0-4.528-0.651-6.022-1.953c-1.495-1.303-2.242-2.97-2.242-5c0-1.292,0.375-2.461,1.125-3.508
				c0.75-1.048,1.808-1.878,3.172-2.492v-0.095c-1.25-0.667-2.175-1.396-2.772-2.188c-0.601-0.792-0.898-1.781-0.898-2.969
				c0-1.75,0.719-3.208,2.156-4.375s3.266-1.75,5.484-1.75c2.321,0,4.177,0.558,5.563,1.672c1.385,1.115,2.078,2.531,2.078,4.25
				c0,1.052-0.328,2.086-0.984,3.102c-0.655,1.017-1.619,1.811-2.891,2.383v0.095c1.458,0.625,2.572,1.396,3.344,2.313
				C1220.373,463.904,1220.759,465.07,1220.759,466.487z M1217.539,466.784c0-0.958-0.211-1.727-0.633-2.305
				s-1.248-1.159-2.477-1.742c-0.49-0.229-1.026-0.441-1.609-0.641c-0.584-0.198-1.359-0.475-2.328-0.828
				c-0.938,0.511-1.689,1.203-2.258,2.078s-0.852,1.865-0.852,2.969c0,1.406,0.483,2.568,1.452,3.484
				c0.97,0.917,2.197,1.375,3.688,1.375c1.521,0,2.736-0.392,3.647-1.172C1217.084,469.221,1217.539,468.148,1217.539,466.784z
				 M1217.056,455.128c0-1.114-0.431-2.003-1.289-2.664c-0.859-0.661-1.956-0.992-3.289-0.992c-1.313,0-2.389,0.313-3.227,0.938
				c-0.839,0.625-1.259,1.47-1.259,2.531c0,0.75,0.211,1.398,0.634,1.945c0.422,0.547,1.06,1.034,1.913,1.461
				c0.386,0.188,0.939,0.433,1.664,0.733c0.725,0.303,1.431,0.553,2.117,0.75c1.031-0.688,1.744-1.4,2.141-2.141
				C1216.858,456.951,1217.056,456.096,1217.056,455.128z"/>
			<path fill="#FFFFFF" d="M1241.275,465.425c0,2.364-0.779,4.294-2.336,5.789c-1.558,1.495-3.467,2.241-5.728,2.241
				c-1.146,0-2.188-0.177-3.125-0.53c-0.937-0.354-1.766-0.88-2.483-1.578c-0.896-0.864-1.586-2.01-2.07-3.438
				c-0.483-1.427-0.727-3.146-0.727-5.155c0-2.063,0.221-3.892,0.664-5.484c0.441-1.594,1.147-3.01,2.116-4.25
				c0.916-1.177,2.1-2.096,3.547-2.758c1.447-0.661,3.136-0.992,5.063-0.992c0.614,0,1.13,0.026,1.547,0.078
				c0.416,0.052,0.838,0.146,1.267,0.281v2.983h-0.156c-0.292-0.156-0.732-0.305-1.32-0.445c-0.589-0.141-1.189-0.211-1.805-0.211
				c-2.24,0-4.026,0.701-5.359,2.103c-1.334,1.401-2.109,3.294-2.328,5.68c0.875-0.531,1.736-0.935,2.586-1.211
				s1.83-0.414,2.945-0.414c0.989,0,1.861,0.091,2.617,0.273c0.755,0.183,1.527,0.55,2.319,1.102
				c0.916,0.636,1.606,1.438,2.07,2.406C1241.041,462.862,1241.275,464.039,1241.275,465.425z M1238.103,465.55
				c0-0.97-0.144-1.771-0.43-2.406c-0.287-0.635-0.759-1.188-1.414-1.656c-0.479-0.333-1.011-0.552-1.595-0.656
				c-0.584-0.104-1.192-0.155-1.827-0.155c-0.887,0-1.709,0.104-2.47,0.313c-0.761,0.208-1.542,0.531-2.344,0.969
				c-0.021,0.229-0.037,0.451-0.047,0.664c-0.011,0.215-0.016,0.482-0.016,0.806c0,1.646,0.169,2.944,0.508,3.897
				c0.338,0.953,0.805,1.706,1.397,2.258c0.479,0.458,0.997,0.795,1.556,1.009c0.557,0.214,1.164,0.319,1.819,0.319
				c1.511,0,2.697-0.461,3.563-1.383C1237.67,468.604,1238.103,467.279,1238.103,465.55z"/>
			<path fill="#FFFFFF" d="M1261.617,465.425c0,2.364-0.778,4.294-2.336,5.789s-3.467,2.241-5.727,2.241
				c-1.146,0-2.188-0.177-3.125-0.53c-0.938-0.354-1.767-0.88-2.484-1.578c-0.896-0.864-1.586-2.01-2.07-3.438
				c-0.483-1.427-0.727-3.146-0.727-5.155c0-2.063,0.221-3.892,0.664-5.484c0.441-1.594,1.147-3.01,2.117-4.25
				c0.916-1.177,2.099-2.096,3.547-2.758c1.447-0.661,3.135-0.992,5.063-0.992c0.614,0,1.13,0.026,1.547,0.078
				c0.416,0.052,0.838,0.146,1.267,0.281v2.983h-0.156c-0.292-0.156-0.732-0.305-1.32-0.445c-0.589-0.141-1.189-0.211-1.805-0.211
				c-2.24,0-4.026,0.701-5.359,2.103c-1.334,1.401-2.108,3.294-2.327,5.68c0.875-0.531,1.735-0.935,2.586-1.211
				c0.849-0.276,1.83-0.414,2.944-0.414c0.989,0,1.861,0.091,2.617,0.273c0.755,0.183,1.528,0.55,2.32,1.102
				c0.916,0.636,1.605,1.438,2.069,2.406C1261.386,462.862,1261.617,464.039,1261.617,465.425z M1258.447,465.55
				c0-0.97-0.144-1.771-0.43-2.406c-0.287-0.635-0.758-1.188-1.414-1.656c-0.479-0.333-1.011-0.552-1.594-0.656
				c-0.584-0.104-1.193-0.155-1.828-0.155c-0.886,0-1.709,0.104-2.469,0.313c-0.762,0.208-1.542,0.531-2.345,0.969
				c-0.021,0.229-0.037,0.451-0.047,0.664c-0.011,0.215-0.016,0.482-0.016,0.806c0,1.646,0.169,2.944,0.508,3.897
				c0.338,0.953,0.805,1.706,1.398,2.258c0.479,0.458,0.996,0.795,1.555,1.009c0.557,0.214,1.164,0.319,1.82,0.319
				c1.51,0,2.696-0.461,3.563-1.383C1258.014,468.604,1258.447,467.279,1258.447,465.55z"/>
		</g>
	</g>
	<g id="A-SVGStep10" enable-background="new    ">
		<g id="A-text12">
			<path fill="#FFFFFF" d="M1119.931,418.095c0,1.155-0.219,2.177-0.656,3.063c-0.438,0.887-1.026,1.615-1.766,2.188
				c-0.875,0.688-1.836,1.177-2.884,1.469c-1.047,0.292-2.378,0.438-3.991,0.438h-8.25v-23.267h6.891
				c1.697,0,2.969,0.063,3.813,0.188c0.844,0.125,1.649,0.387,2.422,0.781c0.854,0.448,1.474,1.023,1.858,1.728
				c0.386,0.702,0.578,1.544,0.578,2.522c0,1.104-0.28,2.044-0.844,2.82c-0.563,0.775-1.313,1.397-2.25,1.867v0.125
				c1.572,0.322,2.813,1.013,3.719,2.069C1119.478,415.145,1119.931,416.481,1119.931,418.095z M1114.728,407.611
				c0-0.563-0.094-1.036-0.281-1.422c-0.188-0.385-0.489-0.698-0.905-0.938c-0.49-0.28-1.084-0.456-1.781-0.522
				c-0.698-0.067-1.563-0.103-2.594-0.103h-3.688v6.72h4c0.969,0,1.739-0.05,2.313-0.148c0.571-0.099,1.104-0.305,1.594-0.617
				c0.488-0.313,0.836-0.716,1.039-1.211C1114.625,408.874,1114.728,408.288,1114.728,407.611z M1116.712,418.22
				c0-0.938-0.142-1.683-0.423-2.234c-0.28-0.552-0.791-1.021-1.53-1.406c-0.5-0.26-1.107-0.43-1.82-0.508
				c-0.714-0.078-1.581-0.117-2.602-0.117h-4.859v8.656h4.094c1.354,0,2.463-0.07,3.328-0.211c0.864-0.141,1.572-0.397,2.125-0.772
				c0.583-0.406,1.01-0.871,1.281-1.392C1116.575,419.715,1116.712,419.043,1116.712,418.22z"/>
			<path fill="#FFFFFF" d="M1139.65,425.252h-15.328v-23.267h15.328v2.75h-12.233v6.375h12.233v2.75h-12.233v8.642h12.233V425.252z"
				/>
			<path fill="#FFFFFF" d="M1163.789,413.033h-18.53v-2.5h18.53V413.033z M1163.789,419.595h-18.53v-2.5h18.53V419.595z"/>
			<path fill="#FFFFFF" d="M1185.853,413.611c0,4.177-0.654,7.242-1.961,9.195c-1.308,1.953-3.336,2.93-6.086,2.93
				c-2.792,0-4.831-0.989-6.117-2.969c-1.287-1.979-1.93-5.021-1.93-9.125c0-4.136,0.649-7.19,1.952-9.164
				c1.303-1.975,3.334-2.961,6.095-2.961c2.791,0,4.83,1.003,6.116,3.008C1185.209,406.53,1185.853,409.559,1185.853,413.611z
				 M1181.742,420.705c0.364-0.844,0.611-1.836,0.742-2.977c0.13-1.142,0.195-2.514,0.195-4.117c0-1.583-0.065-2.958-0.195-4.125
				c-0.131-1.167-0.383-2.156-0.758-2.969c-0.365-0.803-0.862-1.406-1.492-1.813c-0.631-0.406-1.439-0.608-2.43-0.608
				c-0.979,0-1.789,0.202-2.431,0.608c-0.641,0.406-1.147,1.021-1.522,1.844c-0.354,0.771-0.598,1.776-0.728,3.017
				c-0.131,1.24-0.194,2.599-0.194,4.078c0,1.625,0.057,2.983,0.172,4.078c0.114,1.094,0.359,2.072,0.734,2.938
				c0.344,0.813,0.829,1.434,1.461,1.859c0.63,0.427,1.466,0.641,2.508,0.641c0.979,0,1.791-0.203,2.438-0.608
				C1180.889,422.142,1181.389,421.528,1181.742,420.705z"/>
			<path fill="#FFFFFF" d="M1195.65,425.252h-3.733v-4.454h3.733V425.252z"/>
			<path fill="#FFFFFF" d="M1217.681,417.861c0,1.083-0.198,2.12-0.594,3.109c-0.396,0.99-0.938,1.823-1.625,2.5
				c-0.75,0.729-1.645,1.289-2.681,1.68c-1.037,0.391-2.236,0.586-3.602,0.586c-1.271,0-2.495-0.133-3.672-0.397
				c-1.179-0.267-2.172-0.586-2.984-0.961v-3.298h0.219c0.854,0.542,1.854,1.003,3,1.384c1.146,0.38,2.271,0.569,3.375,0.569
				c0.739,0,1.455-0.104,2.148-0.313c0.691-0.208,1.31-0.573,1.852-1.094c0.458-0.448,0.806-0.984,1.039-1.609
				c0.234-0.625,0.353-1.35,0.353-2.172c0-0.803-0.14-1.479-0.414-2.031c-0.276-0.552-0.659-0.995-1.148-1.328
				c-0.542-0.396-1.201-0.674-1.977-0.836c-0.776-0.161-1.645-0.242-2.603-0.242c-0.917,0-1.8,0.063-2.647,0.188
				c-0.851,0.125-1.581,0.25-2.195,0.375v-11.984h14v2.734h-10.983v6.188c0.446-0.042,0.905-0.073,1.375-0.094
				c0.469-0.021,0.875-0.031,1.219-0.031c1.26,0,2.363,0.107,3.313,0.32c0.947,0.214,1.817,0.591,2.609,1.133
				c0.833,0.573,1.479,1.313,1.938,2.219C1217.45,415.361,1217.681,416.497,1217.681,417.861z"/>
		</g>
	</g>
	<g id="A-SVGStep9" enable-background="new    ">
		<g id="A-text11">
			<path fill="#FFFFFF" d="M1119.931,373.285c0,1.156-0.219,2.177-0.656,3.063c-0.438,0.886-1.026,1.614-1.766,2.188
				c-0.875,0.688-1.836,1.177-2.884,1.469c-1.047,0.292-2.378,0.438-3.991,0.438h-8.25v-23.267h6.891
				c1.697,0,2.969,0.063,3.813,0.188c0.844,0.125,1.649,0.386,2.422,0.781c0.854,0.447,1.474,1.022,1.858,1.727
				c0.386,0.703,0.578,1.544,0.578,2.523c0,1.104-0.28,2.044-0.844,2.819c-0.563,0.776-1.313,1.398-2.25,1.867v0.125
				c1.572,0.323,2.813,1.014,3.719,2.07C1119.478,370.334,1119.931,371.67,1119.931,373.285z M1114.728,362.8
				c0-0.563-0.094-1.035-0.281-1.422c-0.188-0.385-0.489-0.697-0.905-0.938c-0.49-0.281-1.084-0.456-1.781-0.523
				c-0.698-0.066-1.563-0.102-2.594-0.102h-3.688v6.719h4c0.969,0,1.739-0.049,2.313-0.147c0.571-0.1,1.104-0.306,1.594-0.617
				c0.488-0.313,0.836-0.716,1.039-1.211C1114.625,364.063,1114.728,363.478,1114.728,362.8z M1116.712,373.41
				c0-0.938-0.142-1.682-0.423-2.234c-0.28-0.552-0.791-1.021-1.53-1.405c-0.5-0.261-1.107-0.431-1.82-0.508
				c-0.714-0.078-1.581-0.117-2.602-0.117h-4.859v8.655h4.094c1.354,0,2.463-0.069,3.328-0.211c0.864-0.141,1.572-0.397,2.125-0.772
				c0.583-0.406,1.01-0.87,1.281-1.392C1116.575,374.905,1116.712,374.233,1116.712,373.41z"/>
			<path fill="#FFFFFF" d="M1143.978,368.832c0,2.115-0.461,4.031-1.383,5.75s-2.148,3.052-3.681,4
				c-1.063,0.656-2.248,1.13-3.555,1.422c-1.308,0.292-3.029,0.438-5.164,0.438h-5.875v-23.267h5.813
				c2.271,0,4.074,0.164,5.413,0.492s2.472,0.779,3.398,1.353c1.583,0.989,2.817,2.308,3.703,3.953
				C1143.533,364.618,1143.978,366.571,1143.978,368.832z M1140.742,368.785c0-1.823-0.317-3.359-0.953-4.609
				s-1.584-2.233-2.844-2.952c-0.917-0.521-1.891-0.884-2.922-1.086c-1.031-0.203-2.266-0.306-3.703-0.306h-2.906v17.953h2.906
				c1.489,0,2.789-0.109,3.898-0.328c1.108-0.219,2.127-0.625,3.055-1.219c1.156-0.739,2.023-1.713,2.603-2.922
				C1140.453,372.108,1140.742,370.597,1140.742,368.785z"/>
			<path fill="#FFFFFF" d="M1168.212,368.222h-18.531v-2.5h18.531V368.222z M1168.212,374.785h-18.531v-2.5h18.531V374.785z"/>
			<path fill="#FFFFFF" d="M1188.978,380.441h-12.594v-2.375h4.844v-15.594h-4.844v-2.125c0.655,0,1.358-0.056,2.108-0.164
				c0.75-0.109,1.317-0.269,1.703-0.478c0.479-0.26,0.856-0.591,1.133-0.992c0.275-0.4,0.436-0.939,0.478-1.616h2.422v20.969h4.75
				V380.441L1188.978,380.441z"/>
		</g>
	</g>
	<g id="A-SVGStep8">
		
			<line id="geo_15_" fill="none" stroke="#FFFFFF" stroke-width="2" stroke-miterlimit="10" x1="680.933" y1="391.441" x2="993.688" y2="571.97"/>
		<g id="A-text_10_" enable-background="new    ">
			<path fill="#FFFFFF" d="M1039.725,565.275c0,2.313-0.504,4.401-1.512,6.289c-1.013,1.879-2.354,3.338-4.025,4.375
				c-1.159,0.717-2.457,1.229-3.887,1.555c-1.436,0.318-3.313,0.479-5.646,0.479h-6.429V552.53h6.356
				c2.479,0,4.457,0.181,5.923,0.539c1.463,0.354,2.702,0.853,3.717,1.479c1.729,1.082,3.082,2.522,4.053,4.322
				C1039.24,560.668,1039.725,562.802,1039.725,565.275z M1036.188,565.223c0-1.986-0.348-3.675-1.043-5.042
				c-0.692-1.36-1.729-2.438-3.105-3.229c-1.005-0.568-2.064-0.966-3.192-1.188s-2.479-0.333-4.051-0.333h-3.184v19.643h3.184
				c1.63,0,3.052-0.12,4.265-0.357c1.213-0.24,2.326-0.685,3.341-1.334c1.271-0.81,2.217-1.873,2.851-3.193
				C1035.866,568.858,1036.188,567.206,1036.188,565.223z"/>
		</g>
		<g id="A-text_9_" enable-background="new    ">
			<path fill="#FFFFFF" d="M697.943,368.992c0,1.265-0.239,2.382-0.721,3.35c-0.479,0.97-1.123,1.768-1.936,2.394
				c-0.952,0.752-2.008,1.288-3.148,1.605c-1.146,0.319-2.604,0.479-4.363,0.479h-9.021v-25.447h7.533
				c1.854,0,3.246,0.068,4.172,0.205c0.925,0.137,1.808,0.422,2.646,0.855c0.938,0.488,1.61,1.119,2.032,1.888
				c0.421,0.77,0.634,1.689,0.634,2.761c0,1.207-0.311,2.235-0.925,3.084c-0.612,0.851-1.438,1.529-2.461,2.043v0.138
				c1.722,0.353,3.075,1.106,4.063,2.264C697.447,365.766,697.943,367.227,697.943,368.992z M692.252,357.524
				c0-0.615-0.104-1.133-0.313-1.555c-0.205-0.422-0.536-0.764-0.991-1.025c-0.536-0.308-1.188-0.498-1.943-0.572
				c-0.769-0.074-1.709-0.11-2.837-0.11h-4.033v7.349h4.375c1.063,0,1.897-0.054,2.524-0.162c0.626-0.108,1.208-0.333,1.743-0.675
				s0.914-0.783,1.141-1.325C692.141,358.906,692.252,358.266,692.252,357.524z M694.422,369.129c0-1.024-0.154-1.84-0.461-2.443
				c-0.313-0.604-0.866-1.116-1.68-1.537c-0.547-0.285-1.211-0.471-1.986-0.557c-0.78-0.086-1.729-0.128-2.85-0.128h-5.313v9.468
				h4.479c1.479,0,2.691-0.076,3.645-0.23c0.94-0.153,1.72-0.436,2.319-0.846c0.643-0.444,1.104-0.951,1.4-1.521
				C694.272,370.764,694.422,370.029,694.422,369.129z"/>
		</g>
		<path id="A-point_10_" fill="#FFFFFF" d="M686.933,391.441c0,3.313-2.688,6-6,6l0,0c-3.313,0-6-2.688-6-6l0,0c0-3.313,2.688-6,6-6
			l0,0C684.242,385.441,686.933,388.128,686.933,391.441L686.933,391.441z"/>
		<path id="A-point_11_" fill="#FFFFFF" d="M686.933,752.505c0,3.313-2.688,6-6,6l0,0c-3.313,0-6-2.688-6-6l0,0c0-3.313,2.688-6,6-6
			l0,0C684.242,746.505,686.933,749.189,686.933,752.505L686.933,752.505z"/>
	</g>
	<g id="A-SVGStep7">
		<path id="A-point_7_" fill="#FFFFFF" d="M687.031,572.074c0,3.313-2.688,6-6,6l0,0c-3.313,0-6-2.688-6-6l0,0c0-3.313,2.688-6,6-6
			l0,0C684.346,566.074,687.031,568.76,687.031,572.074L687.031,572.074z"/>
		<g id="A-text_11_" enable-background="new    ">
			<path fill="#FFFFFF" d="M712.115,558.973H695.35V533.53h16.768v3.008h-13.381v6.974h13.381v3.009h-13.381v9.45h13.381
				L712.115,558.973L712.115,558.973z"/>
		</g>
	</g>
	<g id="A-SVGStep6">
		<g id="A-text_5_" enable-background="new    ">
			<path fill="#FFFFFF" d="M1039.725,565.275c0,2.313-0.504,4.401-1.512,6.289c-1.013,1.879-2.354,3.338-4.025,4.375
				c-1.159,0.717-2.457,1.229-3.887,1.555c-1.436,0.318-3.313,0.479-5.646,0.479h-6.429V552.53h6.356
				c2.479,0,4.457,0.181,5.923,0.539c1.463,0.354,2.702,0.853,3.717,1.479c1.729,1.082,3.082,2.522,4.053,4.322
				C1039.24,560.668,1039.725,562.802,1039.725,565.275z M1036.188,565.223c0-1.986-0.348-3.675-1.043-5.042
				c-0.692-1.36-1.729-2.438-3.105-3.229c-1.005-0.568-2.064-0.966-3.192-1.188s-2.479-0.333-4.051-0.333h-3.184v19.643h3.184
				c1.63,0,3.052-0.12,4.265-0.357c1.213-0.24,2.326-0.685,3.341-1.334c1.271-0.81,2.217-1.873,2.851-3.193
				C1035.866,568.858,1036.188,567.206,1036.188,565.223z"/>
		</g>
		<g id="A-text_6_" enable-background="new    ">
			<path fill="#FFFFFF" d="M341.879,577.127c-0.627,0.272-1.194,0.528-1.7,0.771c-0.507,0.237-1.171,0.488-1.991,0.758
				c-0.692,0.216-1.447,0.396-2.265,0.556c-0.813,0.153-1.712,0.229-2.688,0.229c-1.849,0-3.521-0.259-5.033-0.771
				c-1.51-0.521-2.818-1.329-3.938-2.438c-1.094-1.081-1.947-2.456-2.563-4.127c-0.61-1.669-0.923-3.604-0.923-5.813
				c0-2.104,0.296-3.977,0.894-5.622c0.592-1.651,1.442-3.049,2.563-4.188c1.082-1.104,2.396-1.944,3.925-2.524
				c1.529-0.578,3.229-0.869,5.104-0.869c1.364,0,2.729,0.164,4.093,0.494c1.361,0.328,2.874,0.908,4.537,1.738v4.021h-0.256
				c-1.401-1.174-2.792-2.027-4.171-2.563c-1.382-0.532-2.854-0.804-4.43-0.804c-1.288,0-2.442,0.208-3.479,0.623
				c-1.032,0.416-1.952,1.063-2.761,1.938c-0.785,0.854-1.398,1.938-1.841,3.234c-0.438,1.309-0.653,2.813-0.653,4.521
				c0,1.788,0.238,3.324,0.727,4.607c0.483,1.287,1.107,2.338,1.871,3.146c0.8,0.845,1.729,1.469,2.795,1.872
				c1.064,0.401,2.189,0.604,3.375,0.604c1.631,0,3.155-0.272,4.579-0.838c1.427-0.559,2.76-1.396,3.999-2.513h0.239
				L341.879,577.127L341.879,577.127z"/>
		</g>
		<path id="A-point_5_" fill="#FFFFFF" d="M999.688,571.974c0,3.313-2.689,6-6,6l0,0c-3.314,0-6-2.688-6-6l0,0c0-3.313,2.688-6,6-6
			l0,0C997,565.974,999.688,568.659,999.688,571.974L999.688,571.974z"/>
		<path id="A-point_6_" fill="#FFFFFF" d="M374.164,571.974c0,3.313-2.688,6-6,6l0,0c-3.313,0-6-2.687-6-6l0,0c0-3.313,2.688-6,6-6
			l0,0C371.479,565.974,374.164,568.66,374.164,571.974L374.164,571.974z"/>
		
			<line id="geo_3_" fill="none" stroke="#FFFFFF" stroke-width="2" stroke-miterlimit="10" x1="368.178" y1="571.974" x2="993.689" y2="571.974"/>
	</g>
	<g id="A-SVGStep5">
		<path id="A-point_4_" fill="#FFFFFF" d="M999.688,571.974c0,3.313-2.689,6-6,6l0,0c-3.314,0-6-2.688-6-6l0,0c0-3.313,2.688-6,6-6
			l0,0C997,565.974,999.688,568.659,999.688,571.974L999.688,571.974z"/>
		<g id="A-text_4_" enable-background="new    ">
			<path fill="#FFFFFF" d="M1039.725,565.275c0,2.313-0.504,4.401-1.512,6.289c-1.013,1.879-2.354,3.338-4.025,4.375
				c-1.159,0.717-2.457,1.229-3.887,1.555c-1.436,0.318-3.313,0.479-5.646,0.479h-6.429V552.53h6.356
				c2.479,0,4.457,0.181,5.923,0.539c1.463,0.354,2.702,0.853,3.717,1.479c1.729,1.082,3.082,2.522,4.053,4.322
				C1039.24,560.668,1039.725,562.802,1039.725,565.275z M1036.188,565.223c0-1.986-0.348-3.675-1.043-5.042
				c-0.692-1.36-1.729-2.438-3.105-3.229c-1.005-0.568-2.064-0.966-3.192-1.188s-2.479-0.333-4.051-0.333h-3.184v19.643h3.184
				c1.63,0,3.052-0.12,4.265-0.357c1.213-0.24,2.326-0.685,3.341-1.334c1.271-0.81,2.217-1.873,2.851-3.193
				C1035.866,568.858,1036.188,567.206,1036.188,565.223z"/>
		</g>
	</g>
	<g id="A-SVGStep4">
		<path id="A-point_3_" fill="#FFFFFF" d="M374.164,571.974c0,3.313-2.688,6-6,6l0,0c-3.313,0-6-2.687-6-6l0,0c0-3.313,2.688-6,6-6
			l0,0C371.479,565.974,374.164,568.66,374.164,571.974L374.164,571.974z"/>
		<g id="A-text_3_" enable-background="new    ">
			<path fill="#FFFFFF" d="M341.879,577.127c-0.627,0.272-1.194,0.528-1.7,0.771c-0.507,0.237-1.171,0.488-1.991,0.758
				c-0.692,0.216-1.447,0.396-2.265,0.556c-0.813,0.153-1.712,0.229-2.688,0.229c-1.849,0-3.521-0.259-5.033-0.771
				c-1.51-0.521-2.818-1.329-3.938-2.438c-1.094-1.081-1.947-2.456-2.563-4.127c-0.61-1.669-0.923-3.604-0.923-5.813
				c0-2.104,0.296-3.977,0.894-5.622c0.592-1.651,1.442-3.049,2.563-4.188c1.082-1.104,2.396-1.944,3.925-2.524
				c1.529-0.578,3.229-0.869,5.104-0.869c1.364,0,2.729,0.164,4.093,0.494c1.361,0.328,2.874,0.908,4.537,1.738v4.021h-0.256
				c-1.401-1.174-2.792-2.027-4.171-2.563c-1.382-0.532-2.854-0.804-4.43-0.804c-1.288,0-2.442,0.208-3.479,0.623
				c-1.032,0.416-1.952,1.063-2.761,1.938c-0.785,0.854-1.398,1.938-1.841,3.234c-0.438,1.309-0.653,2.813-0.653,4.521
				c0,1.788,0.238,3.324,0.727,4.607c0.483,1.287,1.107,2.338,1.871,3.146c0.8,0.845,1.729,1.469,2.795,1.872
				c1.064,0.401,2.189,0.604,3.375,0.604c1.631,0,3.155-0.272,4.579-0.838c1.427-0.559,2.76-1.396,3.999-2.513h0.239
				L341.879,577.127L341.879,577.127z"/>
		</g>
	</g>
	<g id="A-SVGStep3">
		
			<circle id="geo_2_" fill="none" stroke="#FFFFFF" stroke-width="2" stroke-miterlimit="10" cx="680.933" cy="391.441" r="361.063"/>
		<g id="A-text_2_" enable-background="new    ">
			<path fill="#FFFFFF" d="M711.814,740.628h-3.606l-2.49-7.093h-11.01l-2.491,7.093h-3.438l9.264-25.447h4.516L711.814,740.628z
				 M704.671,730.63l-4.46-12.492l-4.479,12.492H704.671z"/>
		</g>
		<g id="A-text_7_" enable-background="new    ">
			<path fill="#FFFFFF" d="M697.943,368.992c0,1.265-0.239,2.382-0.721,3.35c-0.479,0.97-1.123,1.768-1.936,2.394
				c-0.952,0.752-2.008,1.288-3.148,1.605c-1.146,0.319-2.604,0.479-4.363,0.479h-9.021v-25.447h7.533
				c1.854,0,3.246,0.068,4.172,0.205c0.925,0.137,1.808,0.422,2.646,0.855c0.938,0.488,1.61,1.119,2.032,1.888
				c0.421,0.77,0.634,1.689,0.634,2.761c0,1.207-0.311,2.235-0.925,3.084c-0.612,0.851-1.438,1.529-2.461,2.043v0.138
				c1.722,0.353,3.075,1.106,4.063,2.264C697.447,365.766,697.943,367.227,697.943,368.992z M692.252,357.524
				c0-0.615-0.104-1.133-0.313-1.555c-0.205-0.422-0.536-0.764-0.991-1.025c-0.536-0.308-1.188-0.498-1.943-0.572
				c-0.769-0.074-1.709-0.11-2.837-0.11h-4.033v7.349h4.375c1.063,0,1.897-0.054,2.524-0.162c0.626-0.108,1.208-0.333,1.743-0.675
				s0.914-0.783,1.141-1.325C692.141,358.906,692.252,358.266,692.252,357.524z M694.422,369.129c0-1.024-0.154-1.84-0.461-2.443
				c-0.313-0.604-0.866-1.116-1.68-1.537c-0.547-0.285-1.211-0.471-1.986-0.557c-0.78-0.086-1.729-0.128-2.85-0.128h-5.313v9.468
				h4.479c1.479,0,2.691-0.076,3.645-0.23c0.94-0.153,1.72-0.436,2.319-0.846c0.643-0.444,1.104-0.951,1.4-1.521
				C694.272,370.764,694.422,370.029,694.422,369.129z"/>
		</g>
		<path id="A-point_2_" fill="#FFFFFF" d="M686.933,391.441c0,3.313-2.688,6-6,6l0,0c-3.313,0-6-2.688-6-6l0,0c0-3.313,2.688-6,6-6
			l0,0C684.242,385.441,686.933,388.128,686.933,391.441L686.933,391.441z"/>
		<path id="A-point_9_" fill="#FFFFFF" d="M686.933,752.505c0,3.313-2.688,6-6,6l0,0c-3.313,0-6-2.688-6-6l0,0c0-3.313,2.688-6,6-6
			l0,0C684.242,746.505,686.933,749.189,686.933,752.505L686.933,752.505z"/>
	</g>
	<g id="A-SVGStep2">
		<g id="A-text_1_" enable-background="new    ">
			<path fill="#FFFFFF" d="M697.943,368.992c0,1.265-0.239,2.382-0.721,3.35c-0.479,0.97-1.123,1.768-1.936,2.394
				c-0.952,0.752-2.008,1.288-3.148,1.605c-1.146,0.319-2.604,0.479-4.363,0.479h-9.021v-25.447h7.533
				c1.854,0,3.246,0.068,4.172,0.205c0.925,0.137,1.808,0.422,2.646,0.855c0.938,0.488,1.61,1.119,2.032,1.888
				c0.421,0.77,0.634,1.689,0.634,2.761c0,1.207-0.311,2.235-0.925,3.084c-0.612,0.851-1.438,1.529-2.461,2.043v0.138
				c1.722,0.353,3.075,1.106,4.063,2.264C697.447,365.766,697.943,367.227,697.943,368.992z M692.252,357.524
				c0-0.615-0.104-1.133-0.313-1.555c-0.205-0.422-0.536-0.764-0.991-1.025c-0.536-0.308-1.188-0.498-1.943-0.572
				c-0.769-0.074-1.709-0.11-2.837-0.11h-4.033v7.349h4.375c1.063,0,1.897-0.054,2.524-0.162c0.626-0.108,1.208-0.333,1.743-0.675
				s0.914-0.783,1.141-1.325C692.141,358.906,692.252,358.266,692.252,357.524z M694.422,369.129c0-1.024-0.154-1.84-0.461-2.443
				c-0.313-0.604-0.866-1.116-1.68-1.537c-0.547-0.285-1.211-0.471-1.986-0.557c-0.78-0.086-1.729-0.128-2.85-0.128h-5.313v9.468
				h4.479c1.479,0,2.691-0.076,3.645-0.23c0.94-0.153,1.72-0.436,2.319-0.846c0.643-0.444,1.104-0.951,1.4-1.521
				C694.272,370.764,694.422,370.029,694.422,369.129z"/>
		</g>
		<g id="A-text_8_" enable-background="new    ">
			<path fill="#FFFFFF" d="M711.814,740.628h-3.606l-2.49-7.093h-11.01l-2.491,7.093h-3.438l9.264-25.447h4.516L711.814,740.628z
				 M704.671,730.63l-4.46-12.492l-4.479,12.492H704.671z"/>
		</g>
		
			<line id="geo_1_" fill="none" stroke="#FFFFFF" stroke-width="2" stroke-miterlimit="10" x1="680.933" y1="752.505" x2="680.933" y2="391.441"/>
		<path id="A-point_1_" fill="#FFFFFF" d="M686.933,391.441c0,3.313-2.688,6-6,6l0,0c-3.313,0-6-2.688-6-6l0,0c0-3.313,2.688-6,6-6
			l0,0C684.242,385.441,686.933,388.128,686.933,391.441L686.933,391.441z"/>
		<path id="A-point_8_" fill="#FFFFFF" d="M686.933,752.505c0,3.313-2.688,6-6,6l0,0c-3.313,0-6-2.688-6-6l0,0c0-3.313,2.688-6,6-6
			l0,0C684.242,746.505,686.933,749.189,686.933,752.505L686.933,752.505z"/>
	</g>
	<g id="A-SVGStep1">
		<g id="A-text" enable-background="new    ">
			<path fill="#FFFFFF" d="M711.814,740.628h-3.606l-2.49-7.093h-11.01l-2.491,7.093h-3.438l9.264-25.447h4.516L711.814,740.628z
				 M704.671,730.63l-4.46-12.492l-4.479,12.492H704.671z"/>
		</g>
		<circle id="geo" fill="none" stroke="#FFFFFF" stroke-width="2" stroke-miterlimit="10" cx="680.933" cy="752.504" r="361.063"/>
		<path id="A-point" fill="#FFFFFF" d="M686.933,752.505c0,3.313-2.688,6-6,6l0,0c-3.313,0-6-2.688-6-6l0,0c0-3.313,2.688-6,6-6l0,0
			C684.242,746.505,686.933,749.189,686.933,752.505L686.933,752.505z"/>
	</g>
</g>
</svg>
