<?xml version="1.0" encoding="utf-8"?>
<!-- Generator: Adobe Illustrator 16.0.0, SVG Export Plug-In . SVG Version: 6.00 Build 0)  -->
<!DOCTYPE svg PUBLIC "-//W3C//DTD SVG 1.1//EN" "http://www.w3.org/Graphics/SVG/1.1/DTD/svg11.dtd">
<svg version="1.1" id="A_detailUnsealedFOL" xmlns="http://www.w3.org/2000/svg" xmlns:xlink="http://www.w3.org/1999/xlink"
	 x="0px" y="0px" width="3717px" height="2478px" viewBox="0 0 3717 2478" enable-background="new 0 0 3717 2478"
	 xml:space="preserve">
<g id="A_SVGGroupSteps">
	<g id="completedFOL" fill-opacity="0.2">
		<g id="rotation10_">
			<path fill="none" stroke="#FFFFFF" stroke-miterlimit="10" d="M1858.428,1705.626c-64.402,0-124.906-25.023-170.365-70.462
				c-45.451-45.431-70.482-105.886-70.482-170.227c0-64.366,25.006-124.83,70.411-170.252
				c45.437-45.454,105.965-70.487,170.436-70.487c64.273,0,124.701,25.029,170.152,70.474
				c45.467,45.464,70.506,105.931,70.506,170.265c0,64.322-25.035,124.775-70.494,170.227
				C1983.145,1680.603,1922.713,1705.626,1858.428,1705.626z M1858.428,1225.187c-132.258,0-239.858,107.552-239.858,239.75
				c0,132.171,107.6,239.7,239.858,239.7c132.154,0,239.669-107.529,239.669-239.7
				C2098.098,1332.739,1990.582,1225.187,1858.428,1225.187z"/>
			<path fill="none" stroke="#FFFFFF" stroke-miterlimit="10" d="M2066.592,1585.528c-64.324,0-124.803-25.032-170.293-70.486
				c-45.498-45.461-70.554-105.906-70.554-170.203c0-64.324,25.057-124.787,70.554-170.251
				c45.486-45.454,105.963-70.486,170.293-70.486c64.26,0,124.689,25.033,170.156,70.486
				c45.484,45.472,70.533,105.935,70.533,170.251C2307.281,1477.556,2199.309,1585.528,2066.592,1585.528z M2066.592,1105.09
				c-132.258,0-239.859,107.551-239.859,239.749c0,132.172,107.601,239.702,239.859,239.702
				c132.172,0,239.701-107.53,239.701-239.702C2306.293,1212.641,2198.764,1105.09,2066.592,1105.09z"/>
			<path fill="none" stroke="#FFFFFF" stroke-miterlimit="10" d="M2066.559,1345.333c-64.328,0-124.813-25.028-170.309-70.473
				c-45.507-45.456-70.569-105.901-70.569-170.201c0-64.356,25.062-124.844,70.569-170.321
				c45.49-45.46,105.975-70.496,170.309-70.496c64.275,0,124.703,25.036,170.152,70.497c45.467,45.477,70.508,105.964,70.508,170.32
				c0,64.288-25.041,124.729-70.508,170.189C2191.254,1320.301,2130.826,1345.333,2066.559,1345.333z M2066.559,864.831
				c-132.275,0-239.89,107.587-239.89,239.829c0,132.163,107.614,239.685,239.89,239.685c132.156,0,239.672-107.522,239.672-239.685
				C2306.23,972.418,2198.715,864.831,2066.559,864.831z"/>
			<path fill="none" stroke="#FFFFFF" stroke-miterlimit="10" d="M1858.428,1225.156c-64.401,0-124.904-25.026-170.365-70.469
				c-45.451-45.433-70.482-105.885-70.482-170.221c0-64.349,25.006-124.809,70.411-170.241
				c45.443-45.471,105.972-70.512,170.436-70.512c64.271,0.015,124.699,25.057,170.152,70.512
				c45.467,45.468,70.506,105.928,70.506,170.241c0,64.316-25.035,124.768-70.494,170.221
				C1983.143,1200.13,1922.711,1225.156,1858.428,1225.156z M1858.428,744.702c-132.258,0-239.858,107.558-239.858,239.765
				c0,132.172,107.6,239.701,239.858,239.701c132.154,0,239.669-107.529,239.669-239.701
				C2098.098,852.291,1990.582,744.733,1858.428,744.702z"/>
			<path fill="none" stroke="#FFFFFF" stroke-miterlimit="10" d="M1650.361,1345.333c-133.083,0-241.354-107.965-241.354-240.673
				c0-64.391,25.07-124.878,70.593-170.321c45.541-45.46,106.185-70.496,170.761-70.496c64.265,0,124.693,25.036,170.155,70.497
				c45.485,45.482,70.534,105.97,70.534,170.32C1891.051,1237.368,1783.078,1345.333,1650.361,1345.333z M1650.361,864.831
				c-132.538,0-240.366,107.587-240.366,239.829c0,132.163,107.828,239.685,240.366,239.685
				c132.171,0,239.701-107.522,239.701-239.685C1890.063,972.418,1782.533,864.831,1650.361,864.831z"/>
			<path fill="none" stroke="#FFFFFF" stroke-miterlimit="10" d="M1650.361,1585.528c-133.083,0-241.354-107.973-241.354-240.689
				c0-64.356,25.07-124.82,70.593-170.251c45.545-45.453,106.189-70.486,170.761-70.486c64.26,0,124.689,25.033,170.155,70.486
				c45.485,45.472,70.534,105.935,70.534,170.251C1891.051,1477.556,1783.078,1585.528,1650.361,1585.528z M1650.361,1105.09
				c-132.538,0-240.366,107.551-240.366,239.749c0,132.172,107.828,239.702,240.366,239.702
				c132.171,0,239.701-107.53,239.701-239.702C1890.063,1212.641,1782.533,1105.09,1650.361,1105.09z"/>
		</g>
		<g id="rotation_2_8_">
			<path fill="none" stroke="#FFFFFF" stroke-miterlimit="10" d="M1650.361,1105.09c-64.435,0-125.028-25.029-170.618-70.476
				c-45.615-45.473-70.736-105.945-70.736-170.277c0-64.335,25.07-124.784,70.593-170.209c45.547-45.45,106.191-70.48,170.761-70.48
				c64.311,0,124.726,25.024,170.177,70.463c45.47,45.458,70.513,105.913,70.513,170.227c0,64.334-25.049,124.807-70.534,170.277
				C1775.055,1080.061,1714.626,1105.09,1650.361,1105.09z M1650.42,624.636c-132.597,0-240.425,107.529-240.425,239.701
				c0,132.207,107.828,239.765,240.366,239.765c132.171,0,239.701-107.558,239.701-239.765
				C1890.063,732.165,1782.559,624.636,1650.42,624.636z"/>
			<path fill="none" stroke="#FFFFFF" stroke-miterlimit="10" d="M1442.292,1465.368c-64.397,0-124.896-25.016-170.353-70.438
				c-45.459-45.424-70.494-105.883-70.494-170.238c0-64.32,25.035-124.768,70.494-170.208c45.468-45.45,105.967-70.48,170.353-70.48
				c64.313,0,124.728,25.032,170.173,70.486c45.453,45.461,70.485,105.907,70.485,170.202c0,64.371-24.998,124.83-70.388,170.238
				C1567.16,1440.353,1506.689,1465.368,1442.292,1465.368z M1442.351,984.993c-132.317,0-239.917,107.529-239.917,239.7
				c0,132.164,107.6,239.687,239.858,239.687c132.154,0,239.67-107.523,239.67-239.687
				C1681.962,1092.522,1574.473,984.993,1442.351,984.993z"/>
			<path fill="none" stroke="#FFFFFF" stroke-miterlimit="10" d="M1650.361,1825.723c-133.083,0-241.354-107.943-241.354-240.625
				c0-64.357,25.07-124.822,70.593-170.259c45.546-45.459,106.19-70.494,170.761-70.494h0.116
				c132.652,0,240.573,108.001,240.573,240.753C1891.051,1717.779,1783.078,1825.723,1650.361,1825.723z M1650.362,1345.333
				c-132.539,0-240.366,107.558-240.366,239.765c0,132.137,107.828,239.637,240.366,239.637
				c132.171,0,239.701-107.5,239.701-239.637c0-132.207-107.478-239.765-239.585-239.765H1650.362z"/>
			<path fill="none" stroke="#FFFFFF" stroke-miterlimit="10" d="M2066.592,1825.723c-64.33,0-124.807-25.021-170.293-70.454
				c-45.498-45.443-70.554-105.878-70.554-170.171c0-64.325,25.057-124.791,70.554-170.259
				c45.486-45.459,105.965-70.494,170.293-70.494h0.115c132.652,0,240.574,108.001,240.574,240.753
				C2307.281,1717.779,2199.309,1825.723,2066.592,1825.723z M2066.592,1345.333c-132.258,0-239.859,107.558-239.859,239.765
				c0,132.137,107.601,239.637,239.859,239.637c132.172,0,239.701-107.5,239.701-239.637c0-132.207-107.477-239.765-239.586-239.765
				H2066.592z"/>
			<path fill="none" stroke="#FFFFFF" stroke-miterlimit="10" d="M2274.691,1465.368c-64.348,0-124.824-25.016-170.291-70.438
				c-45.479-45.437-70.525-105.895-70.525-170.238c0-64.308,25.047-124.756,70.525-170.208
				c45.479-45.449,105.955-70.479,170.291-70.479c64.324,0,124.744,25.032,170.186,70.486
				c45.445,45.458,70.473,105.903,70.473,170.202c0,64.371-24.998,124.829-70.387,170.238
				C2399.559,1440.353,2339.088,1465.368,2274.691,1465.368z M2274.75,984.993c-132.301,0-239.887,107.529-239.887,239.7
				c0,132.164,107.586,239.687,239.828,239.687c132.154,0,239.67-107.523,239.67-239.687
				C2514.361,1092.522,2406.873,984.993,2274.75,984.993z"/>
			<path fill="none" stroke="#FFFFFF" stroke-miterlimit="10" d="M2066.559,1105.09c-64.334,0-124.818-25.029-170.309-70.476
				c-45.507-45.464-70.569-105.937-70.569-170.277c0-64.301,25.063-124.749,70.569-170.209
				c45.498-45.45,105.982-70.48,170.309-70.48c64.322,0,124.736,25.024,170.174,70.463c45.453,45.453,70.486,105.907,70.486,170.227
				c0,64.34-25.041,124.812-70.508,170.277C2191.264,1080.061,2130.834,1105.09,2066.559,1105.09z M2066.619,624.636
				c-132.336,0-239.95,107.529-239.95,239.701c0,132.207,107.614,239.765,239.89,239.765c132.156,0,239.672-107.558,239.672-239.765
				C2306.23,732.165,2198.74,624.636,2066.619,624.636z"/>
		</g>
		<g id="rotation_4_8_">
			<path fill="none" stroke="#FFFFFF" stroke-miterlimit="10" d="M1650.361,864.8c-64.432,0-125.025-25.026-170.618-70.468
				c-45.615-45.464-70.736-105.917-70.736-170.222c0-64.362,25.07-124.83,70.593-170.264
				c45.544-45.455,106.188-70.488,170.761-70.488c132.716,0,240.689,108,240.689,240.752c0,64.308-25.049,124.76-70.534,170.222
				C1775.052,839.774,1714.623,864.8,1650.361,864.8z M1650.361,384.346c-132.538,0-240.366,107.558-240.366,239.764
				c0,132.172,107.828,239.702,240.366,239.702c132.171,0,239.701-107.53,239.701-239.702
				C1890.063,491.904,1782.533,384.346,1650.361,384.346z"/>
			<path fill="none" stroke="#FFFFFF" stroke-miterlimit="10" d="M1442.229,984.993c-64.369,0-124.858-25.035-170.326-70.493
				c-45.457-45.446-70.49-105.89-70.49-170.197c0-64.347,25.034-124.814,70.49-170.264c45.461-45.455,105.95-70.488,170.326-70.488
				c64.294,0,124.73,25.033,170.175,70.488c45.451,45.461,70.482,105.929,70.482,170.264c0,64.324-24.997,124.768-70.387,170.197
				C1567.081,959.958,1506.611,984.993,1442.229,984.993z M1442.229,504.539c-132.242,0-239.828,107.558-239.828,239.764
				c0,132.172,107.586,239.702,239.828,239.702c132.154,0,239.669-107.53,239.669-239.702
				C1681.898,612.097,1574.383,504.539,1442.229,504.539z"/>
			<path fill="none" stroke="#FFFFFF" stroke-miterlimit="10" d="M1234.162,1345.333c-64.313,0-124.782-25.028-170.266-70.473
				c-45.495-45.455-70.549-105.9-70.549-170.201c0-64.363,25.046-124.851,70.525-170.32c45.47-45.46,105.947-70.497,170.29-70.497
				c64.313,0,124.765,25.036,170.218,70.497c45.464,45.47,70.502,105.958,70.502,170.32c0,64.318-25.038,124.767-70.502,170.213
				C1358.925,1320.309,1298.473,1345.333,1234.162,1345.333z M1234.162,864.831c-132.241,0-239.827,107.587-239.827,239.829
				c0,132.163,107.586,239.685,239.827,239.685c132.189,0,239.732-107.522,239.732-239.685
				C1473.894,972.418,1366.351,864.831,1234.162,864.831z"/>
			<path fill="none" stroke="#FFFFFF" stroke-miterlimit="10" d="M1234.225,1585.528c-64.338,0-124.826-25.032-170.321-70.486
				c-45.5-45.459-70.557-105.904-70.557-170.203c0-64.326,25.058-124.789,70.557-170.251
				c45.491-45.454,105.979-70.486,170.321-70.486c64.294,0,124.73,25.033,170.175,70.486
				c45.451,45.459,70.482,105.922,70.482,170.251c0,64.321-25.035,124.776-70.494,170.228
				C1358.941,1560.504,1298.509,1585.528,1234.225,1585.528z M1234.225,1105.09c-132.276,0-239.89,107.551-239.89,239.749
				c0,132.172,107.614,239.702,239.89,239.702c132.154,0,239.669-107.53,239.669-239.702
				C1473.894,1212.641,1366.378,1105.09,1234.225,1105.09z"/>
			<path fill="none" stroke="#FFFFFF" stroke-miterlimit="10" d="M1442.292,1945.821c-64.372,0-124.861-25.02-170.325-70.45
				c-45.456-45.424-70.49-105.849-70.49-170.145c0-64.378,25.038-124.873,70.501-170.341
				c45.462-45.467,105.948-70.506,170.313-70.506c64.286,0,124.718,25.039,170.165,70.506
				c45.458,45.479,70.494,105.975,70.494,170.341c0,64.335-24.998,124.769-70.388,170.168
				C1567.156,1920.81,1506.686,1945.821,1442.292,1945.821z M1442.292,1465.368c-132.241,0-239.827,107.6-239.827,239.858
				c0,132.119,107.586,239.606,239.827,239.606c132.154,0,239.67-107.487,239.67-239.606
				C1681.962,1572.968,1574.446,1465.368,1442.292,1465.368z"/>
			<path fill="none" stroke="#FFFFFF" stroke-miterlimit="10" d="M2066.592,2066.015c-64.326,0-124.805-25.034-170.293-70.49
				c-45.498-45.465-70.554-105.921-70.554-170.231c0-64.301,25.057-124.759,70.554-170.234
				c45.494-45.474,105.971-70.518,170.293-70.518c132.717,0,240.689,108,240.689,240.752
				C2307.281,1958.027,2199.309,2066.015,2066.592,2066.015z M2066.592,1585.528c-132.258,0-239.859,107.559-239.859,239.765
				c0,132.189,107.601,239.733,239.859,239.733c132.172,0,239.701-107.544,239.701-239.733
				C2306.293,1693.087,2198.764,1585.528,2066.592,1585.528z"/>
			<path fill="none" stroke="#FFFFFF" stroke-miterlimit="10" d="M2274.723,1945.947c-64.342,0-124.83-25.042-170.318-70.514
				c-45.482-45.465-70.529-105.912-70.529-170.207c0-64.346,25.047-124.82,70.529-170.285
				c45.479-45.462,105.965-70.498,170.318-70.498c64.27,0,124.691,25.036,170.137,70.498c45.457,45.473,70.49,105.947,70.49,170.285
				c0,64.342-24.996,124.798-70.383,170.23C2399.555,1920.913,2339.094,1945.947,2274.723,1945.947z M2274.723,1465.432
				c-132.258,0-239.859,107.571-239.859,239.795c0,132.189,107.602,239.732,239.859,239.732
				c132.139,0,239.639-107.543,239.639-239.732C2514.361,1573.003,2406.861,1465.432,2274.723,1465.432z"/>
			<path fill="none" stroke="#FFFFFF" stroke-miterlimit="10" d="M2482.822,1585.465c-64.434,0-125.025-25.023-170.617-70.462
				c-45.615-45.462-70.736-105.916-70.736-170.228c0-64.336,25.066-124.791,70.582-170.227
				c45.547-45.469,106.195-70.509,170.771-70.509c64.27,0.03,124.699,25.08,170.152,70.533
				c45.467,45.466,70.506,105.912,70.506,170.203c0,64.318-25.039,124.772-70.506,170.227
				C2607.523,1560.441,2547.096,1585.465,2482.822,1585.465z M2482.822,1105.027c-132.537,0-240.365,107.55-240.365,239.748
				c0,132.172,107.828,239.701,240.365,239.701c132.154,0,239.67-107.529,239.67-239.701
				C2722.492,1212.641,2614.977,1105.09,2482.822,1105.027z"/>
			<path fill="none" stroke="#FFFFFF" stroke-miterlimit="10" d="M2482.822,1345.333c-133.082,0-241.354-107.965-241.354-240.673
				c0-64.387,25.076-124.875,70.605-170.321c45.545-45.46,106.184-70.496,170.748-70.496c64.273,0,124.701,25.036,170.152,70.497
				c45.467,45.477,70.506,105.964,70.506,170.32c0,64.288-25.039,124.729-70.506,170.189
				C2607.516,1320.301,2547.088,1345.333,2482.822,1345.333z M2482.822,864.831c-132.537,0-240.365,107.587-240.365,239.829
				c0,132.163,107.828,239.685,240.365,239.685c132.154,0,239.67-107.522,239.67-239.685
				C2722.492,972.418,2614.977,864.831,2482.822,864.831z"/>
			<path fill="none" stroke="#FFFFFF" stroke-miterlimit="10" d="M2274.691,984.993c-64.34,0-124.816-25.026-170.291-70.469
				c-45.479-45.448-70.525-105.901-70.525-170.222c0-64.336,25.047-124.804,70.525-170.264
				c45.475-45.455,105.951-70.488,170.291-70.488h0.117c64.264,0,124.668,25.029,170.09,70.477
				c45.432,45.459,70.451,105.93,70.451,170.275c0,64.348-24.998,124.8-70.387,170.222
				C2399.551,959.967,2339.082,984.993,2274.691,984.993z M2274.691,504.539c-132.242,0-239.828,107.558-239.828,239.764
				c0,132.172,107.586,239.702,239.828,239.702c132.154,0,239.67-107.53,239.67-239.702c0-132.206-107.463-239.764-239.553-239.764
				H2274.691z"/>
			<path fill="none" stroke="#FFFFFF" stroke-miterlimit="10" d="M2066.592,864.769c-64.32,0-124.783-25.017-170.25-70.441
				c-45.485-45.441-70.535-105.893-70.535-170.217c0-64.331,25.049-124.798,70.535-170.264
				c45.473-45.455,105.936-70.488,170.25-70.488c64.293,0,124.734,25.037,170.191,70.5c45.461,45.467,70.498,105.931,70.498,170.252
				c0,64.313-25.041,124.759-70.51,170.206C2191.316,839.748,2130.879,864.769,2066.592,864.769z M2066.592,384.346
				c-132.225,0-239.796,107.558-239.796,239.764c0,132.154,107.572,239.67,239.796,239.67c132.172,0,239.701-107.516,239.701-239.67
				C2306.293,491.904,2198.764,384.346,2066.592,384.346z"/>
			<path fill="none" stroke="#FFFFFF" stroke-miterlimit="10" d="M1650.424,2066.015c-64.402,0-124.9-25.025-170.35-70.468
				c-45.441-45.432-70.467-105.896-70.467-170.254c0-64.342,25.004-124.8,70.408-170.234
				c45.441-45.474,105.961-70.518,170.409-70.518c132.716,0,240.689,108,240.689,240.752c0,64.329-25.045,124.794-70.521,170.255
				C1775.134,2040.989,1714.701,2066.015,1650.424,2066.015z M1650.424,1585.528c-132.242,0-239.829,107.559-239.829,239.765
				c0,132.189,107.587,239.733,239.829,239.733c132.172,0,239.701-107.544,239.701-239.733
				C1890.125,1693.087,1782.596,1585.528,1650.424,1585.528z"/>
		</g>
		<g id="rotation_5_8_">
			<path fill="none" stroke="#FFFFFF" stroke-miterlimit="10" d="M1858.523,744.67c-64.394,0-124.902-25.03-170.38-70.479
				c-45.461-45.432-70.498-105.858-70.498-170.147c0-64.402,25.007-124.889,70.415-170.319
				c45.438-45.46,105.976-70.496,170.464-70.496c64.277,0.015,124.705,25.055,170.152,70.507
				c45.467,45.473,70.506,105.956,70.506,170.308c0,64.273-25.039,124.702-70.506,170.154
				C1983.217,719.643,1922.789,744.67,1858.523,744.67z M1858.523,264.217c-132.276,0-239.89,107.586-239.89,239.828
				c0,132.137,107.614,239.638,239.89,239.638c132.154,0,239.67-107.501,239.67-239.638
				C2098.193,371.834,1990.678,264.248,1858.523,264.217z"/>
			<path fill="none" stroke="#FFFFFF" stroke-miterlimit="10" d="M1442.292,744.733c-64.375,0-124.864-25.026-170.325-70.468
				c-45.456-45.438-70.49-105.889-70.49-170.22c0-64.343,25.038-124.811,70.502-170.265c45.465-45.455,105.95-70.488,170.313-70.488
				c64.328,0,124.747,25.036,170.185,70.495c45.445,45.466,70.474,105.932,70.474,170.258c0,64.348-24.998,124.8-70.388,170.22
				C1567.151,719.707,1506.682,744.733,1442.292,744.733z M1442.351,264.28c-132.3,0-239.886,107.558-239.886,239.765
				c0,132.171,107.586,239.7,239.827,239.7c132.154,0,239.67-107.529,239.67-239.7
				C1681.962,371.838,1574.473,264.28,1442.351,264.28z"/>
			<path fill="none" stroke="#FFFFFF" stroke-miterlimit="10" d="M1234.162,1105.09c-64.316,0-124.784-25.026-170.266-70.468
				c-45.495-45.455-70.549-105.908-70.549-170.221c0-64.336,25.046-124.804,70.525-170.265
				c45.474-45.455,105.95-70.488,170.29-70.488c64.355,0,124.793,25.036,170.24,70.495c45.45,45.463,70.48,105.929,70.48,170.259
				c0,64.319-25.038,124.771-70.502,170.221C1358.924,1080.064,1298.472,1105.09,1234.162,1105.09z M1234.221,624.636
				c-132.3,0-239.886,107.559-239.886,239.765c0,132.171,107.586,239.701,239.827,239.701
				c132.189,0,239.732-107.529,239.732-239.701C1473.894,732.194,1366.377,624.636,1234.221,624.636z"/>
			<path fill="none" stroke="#FFFFFF" stroke-miterlimit="10" d="M1026.189,1465.368c-64.336,0-124.81-25.016-170.279-70.438
				c-45.487-45.439-70.538-105.898-70.538-170.238c0-64.305,25.051-124.752,70.538-170.208
				c45.481-45.449,105.954-70.479,170.279-70.479c132.743,0,240.689,107.972,240.689,240.688c0,64.33-25.049,124.789-70.534,170.238
				C1150.887,1440.353,1090.458,1465.368,1026.189,1465.368z M1026.248,984.993c-132.301,0-239.887,107.529-239.887,239.7
				c0,132.164,107.586,239.687,239.829,239.687c132.172,0,239.701-107.523,239.701-239.687
				C1265.89,1092.522,1158.387,984.993,1026.248,984.993z"/>
			<path fill="none" stroke="#FFFFFF" stroke-miterlimit="10" d="M1234.225,1825.787c-64.338,0-124.814-25.029-170.29-70.475
				c-45.479-45.451-70.526-105.9-70.526-170.215c0-64.33,25.047-124.796,70.526-170.259c45.476-45.459,105.953-70.494,170.29-70.494
				h0.116c64.266,0,124.675,25.04,170.101,70.507c45.424,45.465,70.44,105.927,70.44,170.246
				c0,64.313-25.031,124.764-70.482,170.215C1358.954,1800.758,1298.518,1825.787,1234.225,1825.787z M1234.225,1345.333
				c-132.241,0-239.828,107.558-239.828,239.765c0,132.171,107.586,239.701,239.828,239.701
				c132.154,0,239.669-107.53,239.669-239.701c0-132.207-107.463-239.765-239.553-239.765H1234.225z"/>
			<path fill="none" stroke="#FFFFFF" stroke-miterlimit="10" d="M1442.292,2186.144c-64.362,0-124.852-25.041-170.325-70.511
				c-45.456-45.452-70.49-105.891-70.49-170.18c0-64.364,25.038-124.85,70.501-170.313c45.464-45.464,105.949-70.502,170.313-70.502
				c64.292,0,124.724,25.029,170.165,70.479c45.458,45.467,70.494,105.96,70.494,170.337c0,64.307-24.998,124.744-70.388,170.18
				C1567.139,2161.103,1506.669,2186.144,1442.292,2186.144z M1442.292,1705.626c-132.241,0-239.827,107.586-239.827,239.827
				c0,132.173,107.586,239.702,239.827,239.702c132.154,0,239.67-107.529,239.67-239.702
				C1681.962,1813.212,1574.446,1705.626,1442.292,1705.626z"/>
			<path fill="none" stroke="#FFFFFF" stroke-miterlimit="10" d="M1858.523,2186.207c-64.39,0-124.899-25.042-170.38-70.511
				c-45.461-45.449-70.498-105.887-70.498-170.18c0-64.395,25.007-124.874,70.415-170.299
				c45.438-45.453,105.976-70.485,170.464-70.485c64.275,0,124.703,25.032,170.152,70.485
				c45.467,45.472,70.506,105.95,70.506,170.299C2099.182,2078.233,1991.223,2186.207,1858.523,2186.207z M1858.523,1705.721
				c-132.276,0-239.89,107.572-239.89,239.796c0,132.172,107.614,239.702,239.89,239.702c132.154,0,239.67-107.53,239.67-239.702
				C2098.193,1813.293,1990.678,1705.721,1858.523,1705.721z"/>
			<path fill="none" stroke="#FFFFFF" stroke-miterlimit="10" d="M2274.818,2186.207c-64.359,0-124.867-25.042-170.377-70.511
				c-45.506-45.464-70.566-105.901-70.566-170.18c0-64.355,25.061-124.835,70.566-170.299
				c45.494-45.453,106.002-70.485,170.377-70.485c64.25,0,124.67,25.032,170.127,70.485
				c45.482,45.479,70.531,105.958,70.531,170.299c0,64.306-24.998,124.743-70.387,170.18
				C2399.664,2161.165,2339.195,2186.207,2274.818,2186.207z M2274.818,1705.721c-132.313,0-239.955,107.572-239.955,239.796
				c0,132.172,107.643,239.702,239.955,239.702c132.154,0,239.67-107.53,239.67-239.702
				C2514.488,1813.293,2406.973,1705.721,2274.818,1705.721z"/>
			<path fill="none" stroke="#FFFFFF" stroke-miterlimit="10" d="M2482.855,1825.723c-64.396,0-124.889-25.021-170.334-70.454
				c-45.432-45.419-70.451-105.854-70.451-170.171c0-64.363,25.002-124.829,70.402-170.259
				c45.43-45.459,105.939-70.494,170.383-70.494h0.115c132.652,0,240.574,108.001,240.574,240.753
				c0,64.28-25.041,124.711-70.512,170.16C2607.572,1800.697,2547.135,1825.723,2482.855,1825.723z M2482.855,1345.333
				c-132.225,0-239.797,107.558-239.797,239.765c0,132.137,107.572,239.637,239.797,239.637c132.17,0,239.701-107.5,239.701-239.637
				c0-132.207-107.479-239.765-239.586-239.765H2482.855z"/>
			<path fill="none" stroke="#FFFFFF" stroke-miterlimit="10" d="M2690.891,1465.432c-64.4,0-124.896-25.023-170.348-70.461
				c-45.441-45.428-70.467-105.877-70.467-170.214c0-64.371,25.004-124.839,70.406-170.264
				c45.432-45.455,105.951-70.488,170.408-70.488c132.744,0,240.689,108,240.689,240.752c0,64.31-25.045,124.76-70.521,170.214
				C2815.598,1440.408,2755.166,1465.432,2690.891,1465.432z M2690.951,984.993c-132.301,0-239.887,107.558-239.887,239.764
				c0,132.163,107.586,239.687,239.826,239.687c132.172,0,239.701-107.523,239.701-239.687
				C2930.592,1092.551,2823.088,984.993,2690.951,984.993z"/>
			<path fill="none" stroke="#FFFFFF" stroke-miterlimit="10" d="M2482.822,1105.09c-64.432,0-125.023-25.026-170.617-70.468
				c-45.615-45.464-70.736-105.917-70.736-170.221c0-64.363,25.07-124.831,70.594-170.265
				c45.543-45.455,106.188-70.488,170.76-70.488c64.32,0,124.746,25.036,170.205,70.495
				c45.475,45.474,70.518,105.939,70.518,170.259c0,64.308-25.051,124.761-70.539,170.221
				C2607.537,1080.064,2547.098,1105.09,2482.822,1105.09z M2482.881,624.636c-132.596,0-240.424,107.559-240.424,239.765
				c0,132.171,107.828,239.701,240.365,239.701c132.189,0,239.734-107.529,239.734-239.701
				C2722.557,732.194,2615.039,624.636,2482.881,624.636z"/>
			<path fill="none" stroke="#FFFFFF" stroke-miterlimit="10" d="M2274.818,744.67c-64.375,0-124.887-25.03-170.389-70.479
				c-45.498-45.443-70.555-105.869-70.555-170.147c0-64.37,25.053-124.857,70.541-170.32
				c45.488-45.46,106.004-70.496,170.402-70.496c64.252,0.015,124.666,25.055,170.113,70.507
				c45.471,45.478,70.514,105.961,70.514,170.308c0,64.307-24.996,124.735-70.385,170.153
				C2399.646,719.643,2339.186,744.67,2274.818,744.67z M2274.818,264.217c-132.313,0-239.955,107.586-239.955,239.828
				c0,132.137,107.643,239.638,239.955,239.638c132.137,0,239.639-107.501,239.639-239.638
				C2514.457,371.834,2406.955,264.248,2274.818,264.217z"/>
		</g>
		<g id="rotation_6_8_">
			<path fill="none" stroke="#FFFFFF" stroke-miterlimit="10" d="M1650.424,624.604c-64.383,0-124.87-25.041-170.318-70.51
				c-45.421-45.441-70.435-105.878-70.435-170.179c0-64.368,25.001-124.836,70.399-170.265
				c45.424-45.455,105.924-70.488,170.354-70.488c64.276,0.015,124.709,25.052,170.167,70.5
				c45.477,45.467,70.521,105.931,70.521,170.253C1891.113,516.632,1783.141,624.604,1650.424,624.604z M1650.424,144.151
				c-132.207,0-239.765,107.558-239.765,239.765c0,132.171,107.558,239.7,239.765,239.7c132.172,0,239.701-107.529,239.701-239.7
				C1890.125,251.739,1782.596,144.182,1650.424,144.151z"/>
			<path fill="none" stroke="#FFFFFF" stroke-miterlimit="10" d="M1234.225,864.769c-64.349,0-124.837-25.017-170.321-70.441
				c-45.5-45.44-70.557-105.891-70.557-170.217c0-64.332,25.058-124.799,70.557-170.264c45.49-45.455,105.978-70.488,170.321-70.488
				c64.292,0,124.728,25.037,170.175,70.5c45.451,45.465,70.482,105.929,70.482,170.252c0,64.314-25.035,124.761-70.494,170.206
				C1358.941,839.748,1298.51,864.769,1234.225,864.769z M1234.225,384.346c-132.276,0-239.89,107.558-239.89,239.764
				c0,132.154,107.614,239.67,239.89,239.67c132.154,0,239.669-107.516,239.669-239.67
				C1473.894,491.904,1366.378,384.346,1234.225,384.346z"/>
			<path fill="none" stroke="#FFFFFF" stroke-miterlimit="10" d="M1026.157,1225.187c-64.34,0-124.823-25.024-170.306-70.463
				c-45.489-45.446-70.542-105.888-70.542-170.193c0-64.338,25.052-124.818,70.542-170.297
				c45.486-45.475,105.968-70.52,170.306-70.52c64.263,0.015,124.687,25.06,170.14,70.52
				c45.475,45.481,70.518,105.96,70.518,170.297c0,64.31-25.04,124.757-70.506,170.204
				C1150.858,1200.167,1090.43,1225.187,1026.157,1225.187z M1026.157,744.702c-132.259,0-239.859,107.587-239.859,239.829
				c0,132.153,107.601,239.668,239.859,239.668c132.154,0,239.669-107.515,239.669-239.668
				C1265.826,852.32,1158.311,744.733,1026.157,744.702z"/>
			<path fill="none" stroke="#FFFFFF" stroke-miterlimit="10" d="M1026.189,1705.721c-64.322,0-124.794-25.038-170.279-70.502
				c-45.487-45.466-70.538-105.918-70.538-170.219c0-64.354,25.051-124.836,70.538-170.307
				c45.476-45.459,105.948-70.495,170.279-70.495c132.716,0,240.689,108.023,240.689,240.801
				C1266.878,1597.734,1158.905,1705.721,1026.189,1705.721z M1026.189,1225.187c-132.242,0-239.829,107.581-239.829,239.813
				c0,132.188,107.586,239.732,239.829,239.732c132.172,0,239.701-107.544,239.701-239.732
				C1265.89,1332.768,1158.361,1225.187,1026.189,1225.187z"/>
			<path fill="none" stroke="#FFFFFF" stroke-miterlimit="10" d="M1234.225,2066.015c-64.313,0-124.781-25.034-170.266-70.49
				c-45.495-45.467-70.55-105.923-70.55-170.231c0-64.323,25.055-124.789,70.55-170.259
				c45.483-45.458,105.952-70.493,170.266-70.493c64.293,0,124.729,25.035,170.175,70.494
				c45.451,45.463,70.482,105.929,70.482,170.258c0,64.318-25.027,124.774-70.47,170.231
				C1358.967,2040.98,1298.528,2066.015,1234.225,2066.015z M1234.225,1585.528c-132.241,0-239.828,107.559-239.828,239.765
				c0,132.189,107.586,239.733,239.828,239.733c132.154,0,239.669-107.544,239.669-239.733
				C1473.894,1693.087,1366.378,1585.528,1234.225,1585.528z"/>
			<path fill="none" stroke="#FFFFFF" stroke-miterlimit="10" d="M1650.424,2306.272c-64.39,0-124.877-25.032-170.318-70.485
				c-45.421-45.434-70.435-105.88-70.435-170.204c0-64.376,25.001-124.852,70.399-170.286
				c45.425-45.461,105.924-70.498,170.354-70.498c64.272,0,124.707,25.037,170.167,70.498
				c45.477,45.477,70.521,105.952,70.521,170.286c0,64.293-25.045,124.739-70.521,170.204
				C1775.126,2281.24,1714.692,2306.272,1650.424,2306.272z M1650.424,1825.787c-132.207,0-239.765,107.572-239.765,239.796
				c0,132.172,107.558,239.701,239.765,239.701c132.172,0,239.701-107.529,239.701-239.701
				C1890.125,1933.359,1782.596,1825.787,1650.424,1825.787z"/>
			<path fill="none" stroke="#FFFFFF" stroke-miterlimit="10" d="M2066.623,2306.272c-64.336,0-124.818-25.032-170.307-70.485
				c-45.489-45.457-70.541-105.903-70.541-170.204c0-64.342,25.052-124.817,70.541-170.286
				c45.484-45.461,105.965-70.498,170.307-70.498c64.283,0,124.715,25.037,170.164,70.498
				c45.459,45.471,70.494,105.947,70.494,170.286c0,64.295-25.039,124.741-70.506,170.204
				C2191.316,2281.24,2130.889,2306.272,2066.623,2306.272z M2066.623,1825.787c-132.26,0-239.859,107.572-239.859,239.796
				c0,132.172,107.6,239.701,239.859,239.701c132.154,0,239.67-107.529,239.67-239.701
				C2306.293,1933.359,2198.777,1825.787,2066.623,1825.787z"/>
			<path fill="none" stroke="#FFFFFF" stroke-miterlimit="10" d="M2482.822,2066.015c-133.082,0-241.354-107.987-241.354-240.722
				c0-64.361,25.066-124.826,70.582-170.259c45.541-45.458,106.189-70.493,170.771-70.493c64.297,0,124.744,25.035,170.207,70.493
				c45.473,45.468,70.516,105.934,70.516,170.259c0,64.305-25.051,124.76-70.539,170.231
				C2607.533,2040.98,2547.094,2066.015,2482.822,2066.015z M2482.822,1585.528c-132.537,0-240.365,107.559-240.365,239.765
				c0,132.189,107.828,239.733,240.365,239.733c132.189,0,239.734-107.544,239.734-239.733
				C2722.557,1693.087,2615.012,1585.528,2482.822,1585.528z"/>
			<path fill="none" stroke="#FFFFFF" stroke-miterlimit="10" d="M2690.922,1705.626c-64.4,0-124.898-25.023-170.35-70.462
				c-45.439-45.429-70.465-105.884-70.465-170.227c0-64.365,25.004-124.828,70.406-170.252
				c45.434-45.454,105.953-70.487,170.408-70.487c64.25,0,124.67,25.029,170.129,70.474c45.48,45.471,70.529,105.938,70.529,170.265
				c0,64.314-25.045,124.77-70.518,170.227C2815.607,1680.603,2755.184,1705.626,2690.922,1705.626z M2690.922,1225.187
				c-132.24,0-239.826,107.552-239.826,239.75c0,132.171,107.586,239.7,239.826,239.7c132.154,0,239.67-107.529,239.67-239.7
				C2930.592,1332.739,2823.076,1225.187,2690.922,1225.187z"/>
			<path fill="none" stroke="#FFFFFF" stroke-miterlimit="10" d="M2690.953,1225.187c-64.314,0-124.783-25.024-170.266-70.463
				c-45.494-45.451-70.549-105.894-70.549-170.193c0-64.333,25.055-124.813,70.549-170.297
				c45.486-45.475,105.955-70.52,170.266-70.52c64.24,0.015,124.656,25.06,170.117,70.52
				c45.49,45.488,70.541,105.967,70.541,170.297c0,64.31-25.039,124.757-70.506,170.204
				C2815.656,1200.167,2755.229,1225.187,2690.953,1225.187z M2690.953,744.702c-132.24,0-239.826,107.587-239.826,239.829
				c0,132.153,107.586,239.668,239.826,239.668c132.154,0,239.67-107.515,239.67-239.668
				C2930.623,852.32,2823.107,744.733,2690.953,744.702z"/>
			<path fill="none" stroke="#FFFFFF" stroke-miterlimit="10" d="M2482.887,864.831c-64.404,0-124.902-25.017-170.35-70.44
				c-45.441-45.418-70.467-105.87-70.467-170.217c0-64.375,25.004-124.854,70.406-170.296c45.438-45.475,105.955-70.52,170.41-70.52
				c64.264,0,124.691,25.049,170.15,70.532c45.469,45.489,70.508,105.964,70.508,170.284c0,64.31-25.039,124.757-70.508,170.205
				C2607.588,839.811,2547.16,864.831,2482.887,864.831z M2482.887,384.346c-132.242,0-239.828,107.586-239.828,239.828
				c0,132.154,107.586,239.669,239.828,239.669c132.154,0,239.67-107.515,239.67-239.669
				C2722.557,491.932,2615.041,384.346,2482.887,384.346z"/>
			<path fill="none" stroke="#FFFFFF" stroke-miterlimit="10" d="M2066.623,624.604c-64.314,0-124.789-25.041-170.277-70.51
				c-45.488-45.466-70.539-105.903-70.539-170.179c0-64.333,25.051-124.801,70.539-170.265
				c45.477-45.455,105.949-70.488,170.277-70.488c64.311,0.015,124.75,25.052,170.188,70.5
				c45.445,45.454,70.471,105.918,70.471,170.253c0,64.282-25.025,124.719-70.471,170.179
				C2191.357,599.563,2130.918,624.604,2066.623,624.604z M2066.623,144.151c-132.242,0-239.828,107.558-239.828,239.765
				c0,132.171,107.585,239.7,239.828,239.7c132.154,0,239.67-107.529,239.67-239.7
				C2306.293,251.739,2198.777,144.182,2066.623,144.151z"/>
			<path fill="none" stroke="#FFFFFF" stroke-miterlimit="10" d="M1858.196,504.506c-64.315,0-124.788-25.041-170.277-70.509
				c-45.487-45.466-70.538-105.904-70.538-170.179c0-64.333,25.051-124.801,70.538-170.265
				c45.478-45.455,105.95-70.488,170.277-70.488c64.312,0.015,124.751,25.052,170.189,70.5
				c45.443,45.454,70.469,105.917,70.469,170.253c0,64.282-25.025,124.719-70.469,170.179
				C1982.932,479.466,1922.492,504.506,1858.196,504.506z M1858.196,24.053c-132.241,0-239.827,107.558-239.827,239.765
				c0,132.171,107.586,239.7,239.827,239.7c132.154,0,239.669-107.529,239.669-239.7
				C2097.865,131.642,1990.35,24.084,1858.196,24.053z"/>
			<path fill="none" stroke="#FFFFFF" stroke-miterlimit="10" d="M1026.236,984.929c-64.316,0-124.788-25.041-170.278-70.51
				c-45.487-45.466-70.538-105.903-70.538-170.179c0-64.333,25.051-124.801,70.538-170.265
				c45.478-45.455,105.95-70.488,170.278-70.488c64.31,0.015,124.751,25.052,170.188,70.5
				c45.444,45.454,70.47,105.917,70.47,170.253c0,64.282-25.026,124.719-70.47,170.179
				C1150.971,959.888,1090.531,984.929,1026.236,984.929z M1026.236,504.476c-132.242,0-239.828,107.558-239.828,239.765
				c0,132.171,107.586,239.7,239.828,239.7c132.154,0,239.669-107.529,239.669-239.7
				C1265.905,612.064,1158.39,504.506,1026.236,504.476z"/>
			<path fill="none" stroke="#FFFFFF" stroke-miterlimit="10" d="M1026.268,1945.946c-64.316,0-124.788-25.041-170.278-70.509
				c-45.487-45.466-70.538-105.903-70.538-170.18c0-64.332,25.051-124.801,70.538-170.264
				c45.478-45.455,105.95-70.488,170.278-70.488c64.31,0.015,124.751,25.052,170.188,70.5
				c45.443,45.453,70.47,105.917,70.47,170.252c0,64.283-25.026,124.721-70.47,170.18
				C1151.003,1920.905,1090.563,1945.946,1026.268,1945.946z M1026.268,1465.494c-132.242,0-239.828,107.558-239.828,239.764
				c0,132.172,107.586,239.7,239.828,239.7c132.154,0,239.669-107.528,239.669-239.7
				C1265.937,1573.083,1158.422,1465.525,1026.268,1465.494z"/>
			<path fill="none" stroke="#FFFFFF" stroke-miterlimit="10" d="M2691.002,1945.852c-64.316,0-124.789-25.041-170.277-70.509
				c-45.488-45.466-70.539-105.903-70.539-170.179c0-64.333,25.051-124.802,70.539-170.265
				c45.477-45.454,105.949-70.488,170.277-70.488c64.311,0.015,124.75,25.052,170.188,70.5
				c45.443,45.453,70.469,105.917,70.469,170.253c0,64.282-25.025,124.719-70.469,170.179
				C2815.736,1920.811,2755.297,1945.852,2691.002,1945.852z M2691.002,1465.399c-132.242,0-239.828,107.559-239.828,239.765
				c0,132.171,107.586,239.699,239.828,239.699c132.154,0,239.668-107.528,239.668-239.699
				C2930.67,1572.988,2823.156,1465.431,2691.002,1465.399z"/>
			<path fill="none" stroke="#FFFFFF" stroke-miterlimit="10" d="M2691.033,984.928c-64.316,0-124.789-25.041-170.277-70.509
				c-45.488-45.466-70.539-105.903-70.539-170.179c0-64.333,25.051-124.8,70.539-170.265
				c45.477-45.455,105.949-70.487,170.277-70.487c64.311,0.015,124.75,25.052,170.188,70.499
				c45.443,45.454,70.471,105.917,70.471,170.253c0,64.282-25.027,124.72-70.471,170.179
				C2815.77,959.888,2755.328,984.928,2691.033,984.928z M2691.033,504.476c-132.242,0-239.828,107.558-239.828,239.764
				c0,132.171,107.586,239.7,239.828,239.7c132.154,0,239.67-107.529,239.67-239.7
				C2930.703,612.064,2823.188,504.507,2691.033,504.476z"/>
			<path fill="none" stroke="#FFFFFF" stroke-miterlimit="10" d="M1858.493,2426.434c-64.315,0-124.788-25.041-170.278-70.509
				c-45.487-45.468-70.538-105.904-70.538-170.18c0-64.333,25.051-124.801,70.538-170.265
				c45.478-45.455,105.951-70.488,170.278-70.488c64.31,0.015,124.751,25.053,170.189,70.499
				c45.441,45.455,70.469,105.919,70.469,170.254c0,64.281-25.027,124.719-70.469,170.179
				C1983.229,2401.393,1922.787,2426.434,1858.493,2426.434z M1858.493,1945.98c-132.242,0-239.828,107.558-239.828,239.765
				c0,132.171,107.586,239.7,239.828,239.7c132.154,0,239.669-107.529,239.669-239.7
				C2098.162,2053.569,1990.646,1946.012,1858.493,1945.98z"/>
		</g>
	</g>
	<g id="UnsealedFOL">
		<g id="A_SVGStep1">
			<path d="M1859.023,1946.122c-97.374,0-191.834-19.071-280.761-56.683c-85.892-36.33-163.03-88.338-229.272-154.579
				c-66.242-66.242-118.25-143.38-154.579-229.271c-37.612-88.926-56.684-183.388-56.684-280.761
				c0-97.374,19.071-191.835,56.684-280.761c36.33-85.892,88.337-163.03,154.579-229.272
				c66.242-66.242,143.38-118.25,229.272-154.579c88.926-37.613,183.387-56.684,280.761-56.684
				c97.369,0,191.826,19.071,280.75,56.684c85.887,36.33,163.023,88.337,229.264,154.579
				c66.24,66.243,118.248,143.38,154.576,229.272c37.611,88.926,56.684,183.388,56.684,280.761s-19.072,191.835-56.684,280.761
				c-36.328,85.891-88.336,163.029-154.576,229.271c-66.24,66.241-143.377,118.249-229.264,154.579
				C2050.85,1927.051,1956.393,1946.122,1859.023,1946.122z M1859.023,506.498c-396.089,0-718.331,322.242-718.331,718.331
				s322.242,718.329,718.331,718.329c396.076,0,718.309-322.24,718.309-718.329S2255.1,506.498,1859.023,506.498z"/>
		</g>
		<g id="A_SVGStep2">
			<path d="M1858.492,985.958c-64.567,0-125.272-25.126-170.933-70.749c-45.671-45.635-70.824-106.324-70.824-170.888
				c0-64.588,25.147-125.299,70.81-170.951c45.657-45.646,106.367-70.784,170.947-70.784c64.51,0,125.167,25.139,170.797,70.785
				c45.641,45.658,70.777,106.37,70.777,170.951c0,64.548-25.133,125.232-70.771,170.873
				C1983.666,960.827,1923.006,985.958,1858.492,985.958z M1858.492,505.551c-131.67,0-238.792,107.112-238.792,238.771
				c0,131.604,107.122,238.672,238.792,238.672c131.571,0,238.61-107.067,238.61-238.672
				C2097.102,612.663,1990.063,505.551,1858.492,505.551z"/>
			<path d="M1442.418,1226.192c-64.587,0-125.304-25.132-170.964-70.767c-45.664-45.638-70.812-106.328-70.812-170.89
				c0-64.593,25.143-125.305,70.797-170.952c45.654-45.646,106.375-70.784,170.979-70.784c64.496,0,125.148,25.139,170.784,70.784
				c45.653,45.663,70.795,106.375,70.795,170.952C1683.998,1117.785,1575.626,1226.192,1442.418,1226.192z M1442.418,745.765
				c-131.681,0-238.812,107.112-238.812,238.771c0,131.615,107.13,238.691,238.812,238.691
				c131.572,0,238.614-107.077,238.614-238.691C1681.033,852.876,1573.991,745.765,1442.418,745.765z"/>
			<path d="M1442.458,1706.563c-64.601,0-125.322-25.132-170.979-70.767c-45.654-45.631-70.796-106.315-70.796-170.874
				c0-64.604,25.137-125.319,70.782-170.958c45.646-45.641,106.373-70.776,170.993-70.776
				c64.493,0.019,125.136,25.16,170.758,70.791c45.645,45.654,70.782,106.363,70.782,170.943
				C1683.998,1598.164,1575.643,1706.563,1442.458,1706.563z M1442.457,1226.153c-131.68,0-238.81,107.112-238.81,238.77
				c0,131.606,107.13,238.676,238.811,238.676c131.551,0,238.575-107.069,238.575-238.676
				C1681.033,1333.304,1574.008,1226.192,1442.457,1226.153z"/>
			<path d="M1858.492,1946.734c-64.566,0-125.271-25.125-170.932-70.747c-45.671-45.632-70.824-106.314-70.824-170.868
				c0-64.595,25.147-125.307,70.81-170.95c45.652-45.635,106.362-70.767,170.946-70.767c64.51,0,125.17,25.138,170.807,70.781
				c45.648,45.657,70.787,106.362,70.787,170.936c0,64.552-25.137,125.234-70.781,170.868
				C1983.672,1921.609,1923.01,1946.734,1858.492,1946.734z M1858.492,1466.367c-131.67,0-238.792,107.104-238.792,238.752
				c0,131.593,107.122,238.65,238.792,238.65c131.581,0,238.629-107.058,238.629-238.65
				C2097.121,1573.471,1990.072,1466.367,1858.492,1466.367z"/>
			<path d="M2274.66,1706.563c-64.568,0-125.271-25.132-170.928-70.767c-45.662-45.638-70.809-106.322-70.809-170.874
				c0-64.599,25.141-125.313,70.791-170.958c45.646-45.641,106.357-70.776,170.945-70.776
				c64.525,0.019,125.186,25.16,170.807,70.791c45.637,45.648,70.771,106.357,70.771,170.943c0,64.536-25.131,125.215-70.764,170.86
				C2399.844,1681.427,2339.18,1706.563,2274.66,1706.563z M2274.66,1226.153c-131.658,0-238.771,107.112-238.771,238.77
				c0,131.606,107.113,238.676,238.771,238.676c131.572,0,238.613-107.069,238.613-238.676
				C2513.273,1333.304,2406.232,1226.192,2274.66,1226.153z"/>
			<path d="M2274.68,1226.192c-64.572,0-125.279-25.132-170.939-70.767c-45.666-45.641-70.816-106.331-70.816-170.89
				c0-64.59,25.146-125.302,70.803-170.952c45.654-45.646,106.365-70.784,170.953-70.784c64.508,0,125.158,25.139,170.779,70.785
				c45.631,45.656,70.76,106.368,70.76,170.951c0,64.553-25.123,125.24-70.744,170.882
				C2399.855,1201.057,2339.199,1226.192,2274.68,1226.192z M2274.68,745.765c-131.67,0-238.791,107.112-238.791,238.771
				c0,131.615,107.121,238.691,238.791,238.691c131.551,0,238.574-107.077,238.574-238.691
				C2513.254,852.876,2406.23,745.765,2274.68,745.765z"/>
			<path d="M1650.445,1106.085c-64.584,0-125.294-25.132-170.944-70.767c-45.651-45.636-70.792-106.326-70.792-170.891
				c0-64.593,25.139-125.304,70.785-170.95s106.358-70.784,170.952-70.784c64.5,0,125.155,25.135,170.793,70.776
				c45.657,45.661,70.803,106.375,70.803,170.958C1892.041,997.679,1783.661,1106.085,1650.445,1106.085z M1650.445,625.658
				c-131.659,0-238.772,107.112-238.772,238.77c0,131.616,107.113,238.693,238.772,238.693
				c131.582,0,238.631-107.077,238.631-238.693C1889.076,732.77,1782.026,625.658,1650.445,625.658z"/>
			<path d="M1442.418,1466.386c-64.586,0-125.303-25.131-170.964-70.764c-45.664-45.635-70.812-106.318-70.812-170.873
				c0-64.595,25.143-125.31,70.797-170.961c45.655-45.653,106.376-70.795,170.979-70.795c64.497,0,125.149,25.14,170.784,70.787
				c45.653,45.666,70.795,106.383,70.795,170.969C1683.998,1357.988,1575.626,1466.386,1442.418,1466.386z M1442.418,985.958
				c-131.681,0-238.812,107.122-238.812,238.792c0,131.604,107.13,238.671,238.812,238.671
				c131.572,0,238.614-107.067,238.614-238.671C1681.033,1093.08,1573.991,985.958,1442.418,985.958z"/>
			<path d="M1650.445,1826.688c-64.585,0-125.294-25.128-170.944-70.755c-45.651-45.627-70.793-106.308-70.793-170.862
				c0-64.602,25.139-125.32,70.785-170.968c45.645-45.647,106.357-70.786,170.952-70.786c64.538,0,125.184,25.135,170.81,70.774
				c45.647,45.66,70.786,106.383,70.786,170.979C1892.041,1718.299,1783.661,1826.688,1650.445,1826.688z M1650.488,1346.281
				c-131.702,0-238.815,107.121-238.815,238.789c0,131.594,107.113,238.652,238.772,238.652
				c131.582,0,238.631-107.059,238.631-238.652C1889.076,1453.402,1782.045,1346.281,1650.488,1346.281z"/>
			<path d="M2066.555,1826.688c-64.58,0-125.293-25.128-170.955-70.755c-45.667-45.631-70.817-106.312-70.817-170.862
				c0-64.598,25.148-125.315,70.81-170.968c45.658-45.647,106.373-70.786,170.963-70.786c64.547,0,125.195,25.135,170.82,70.774
				c45.641,45.658,70.777,106.381,70.777,170.979C2308.152,1718.299,2199.773,1826.688,2066.555,1826.688z M2066.598,1346.281
				c-131.721,0-238.851,107.121-238.851,238.789c0,131.594,107.13,238.652,238.808,238.652
				c131.584,0,238.633-107.059,238.633-238.652C2305.188,1453.402,2198.158,1346.281,2066.598,1346.281z"/>
			<path d="M2274.68,1466.386c-64.57,0-125.277-25.131-170.939-70.764c-45.666-45.638-70.816-106.321-70.816-170.873
				c0-64.591,25.145-125.306,70.803-170.961c45.656-45.653,106.367-70.795,170.953-70.795c64.508,0,125.16,25.14,170.779,70.787
				c45.631,45.659,70.76,106.376,70.76,170.969c0,64.545-25.123,125.227-70.744,170.865S2339.197,1466.386,2274.68,1466.386z
				 M2274.68,985.958c-131.67,0-238.791,107.122-238.791,238.792c0,131.604,107.121,238.671,238.791,238.671
				c131.551,0,238.574-107.067,238.574-238.671C2513.254,1093.08,2406.23,985.958,2274.68,985.958z"/>
			<path d="M2066.574,1106.085c-64.576,0-125.281-25.132-170.934-70.767c-45.657-45.638-70.8-106.329-70.8-170.891
				c0-64.591,25.141-125.302,70.791-170.95c45.648-45.646,106.357-70.784,170.943-70.784c64.5,0,125.152,25.135,170.785,70.776
				c45.652,45.66,70.793,106.374,70.793,170.958C2308.152,997.679,2199.781,1106.085,2066.574,1106.085z M2066.574,625.658
				c-131.658,0-238.769,107.112-238.769,238.77c0,131.616,107.111,238.693,238.769,238.693
				c131.572,0,238.613-107.077,238.613-238.693C2305.188,732.77,2198.146,625.658,2066.574,625.658z"/>
			<path d="M1858.492,1466.386c-64.563,0-125.269-25.131-170.933-70.764c-45.671-45.64-70.824-106.323-70.824-170.873
				c0-64.589,25.147-125.304,70.81-170.961c45.658-45.653,106.368-70.795,170.947-70.795c64.512,0,125.168,25.14,170.797,70.787
				c45.641,45.661,70.777,106.379,70.777,170.969c0,64.541-25.133,125.222-70.771,170.865
				C1983.662,1441.252,1923.004,1466.386,1858.492,1466.386z M1858.492,985.958c-131.67,0-238.792,107.122-238.792,238.792
				c0,131.604,107.122,238.671,238.792,238.671c131.571,0,238.61-107.067,238.61-238.671
				C2097.102,1093.08,1990.063,985.958,1858.492,985.958z"/>
			<path d="M1858.492,1706.563c-64.563,0-125.268-25.132-170.933-70.767c-45.671-45.641-70.824-106.325-70.824-170.874
				c0-64.595,25.147-125.31,70.81-170.958c45.654-45.641,106.364-70.776,170.947-70.776c64.516,0.019,125.174,25.16,170.797,70.791
				c45.641,45.65,70.777,106.359,70.777,170.943C2100.066,1598.164,1991.697,1706.563,1858.492,1706.563z M1858.491,1226.153
				c-131.669,0-238.791,107.112-238.791,238.77c0,131.606,107.122,238.676,238.792,238.676c131.571,0,238.61-107.069,238.61-238.676
				C2097.102,1333.304,1990.063,1226.192,1858.491,1226.153z"/>
			<path d="M2066.555,1586.474c-64.574,0-125.281-25.135-170.936-70.774c-45.655-45.64-70.798-106.326-70.798-170.881
				c0-64.592,25.141-125.3,70.791-170.943c45.646-45.64,106.357-70.775,170.943-70.775c133.219,0,241.598,108.435,241.598,241.718
				C2308.152,1478.067,2199.773,1586.474,2066.555,1586.474z M2066.555,1106.065c-131.656,0-238.769,107.104-238.769,238.753
				c0,131.614,107.113,238.69,238.769,238.69c131.584,0,238.633-107.076,238.633-238.69
				C2305.188,1213.169,2198.139,1106.065,2066.555,1106.065z"/>
			<path d="M2066.574,1346.258c-64.576,0-125.283-25.129-170.934-70.756c-45.657-45.632-70.8-106.319-70.8-170.879
				c0-64.598,25.141-125.309,70.791-170.949c45.645-45.634,106.354-70.767,170.943-70.767c64.5,0,125.152,25.132,170.785,70.767
				c45.652,45.655,70.793,106.366,70.793,170.949c0,64.551-25.139,125.236-70.787,170.879
				C2191.732,1321.129,2131.078,1346.258,2066.574,1346.258z M2066.574,865.872c-131.658,0-238.769,107.103-238.769,238.751
				c0,131.603,107.111,238.67,238.769,238.67c131.572,0,238.613-107.067,238.613-238.67
				C2305.188,972.975,2198.146,865.872,2066.574,865.872z"/>
			<path d="M1858.492,1226.192c-64.564,0-125.27-25.132-170.933-70.767c-45.671-45.643-70.824-106.333-70.824-170.89
				c0-64.588,25.147-125.3,70.81-170.952c45.657-45.646,106.367-70.784,170.947-70.784c64.51,0,125.167,25.139,170.797,70.785
				c45.641,45.658,70.777,106.37,70.777,170.951c0,64.548-25.133,125.235-70.771,170.882
				C1983.664,1201.057,1923.004,1226.192,1858.492,1226.192z M1858.492,745.765c-131.67,0-238.792,107.112-238.792,238.771
				c0,131.615,107.122,238.691,238.792,238.691c131.571,0,238.61-107.077,238.61-238.691
				C2097.102,852.876,1990.063,745.765,1858.492,745.765z"/>
			<path d="M1650.445,1346.258c-64.586,0-125.295-25.129-170.944-70.756c-45.651-45.63-70.793-106.316-70.793-170.879
				c0-64.6,25.139-125.311,70.785-170.949c45.643-45.634,106.355-70.767,170.952-70.767c64.5,0,125.156,25.132,170.793,70.767
				c45.657,45.656,70.803,106.367,70.803,170.949c0,64.552-25.141,125.237-70.79,170.879
				C1775.616,1321.129,1714.956,1346.258,1650.445,1346.258z M1650.445,865.872c-131.659,0-238.772,107.103-238.772,238.751
				c0,131.603,107.113,238.67,238.772,238.67c131.582,0,238.631-107.067,238.631-238.67
				C1889.076,972.975,1782.026,865.872,1650.445,865.872z"/>
			<path d="M1650.445,1586.474c-64.582,0-125.292-25.135-170.944-70.774c-45.651-45.638-70.792-106.324-70.792-170.881
				c0-64.594,25.139-125.302,70.785-170.943c45.645-45.64,106.357-70.775,170.952-70.775c133.216,0,241.596,108.435,241.596,241.718
				C1892.041,1478.067,1783.661,1586.474,1650.445,1586.474z M1650.445,1106.065c-131.659,0-238.772,107.104-238.772,238.753
				c0,131.614,107.113,238.69,238.772,238.69c131.582,0,238.631-107.076,238.631-238.69
				C1889.076,1213.169,1782.026,1106.065,1650.445,1106.065z"/>
		</g>
		<g id="A_SVGStep3">
			<path d="M1650.445,865.872c-43.188,0-85.573-11.518-122.576-33.309c-35.918-21.152-65.945-51.388-86.832-87.44
				l2.565-1.486c42.624,73.569,121.881,119.271,206.843,119.271c131.571,0,238.612-107.078,238.612-238.693
				c0-41.979-11.021-83.234-31.869-119.307l2.566-1.483c21.109,36.522,32.268,78.291,32.268,120.79
				C1892.021,757.464,1783.65,865.872,1650.445,865.872z"/>
		</g>
		<g id="A_SVGStep4">
			<path d="M1442.379,985.979c-43.206,0-85.6-11.519-122.598-33.311c-35.913-21.153-65.931-51.395-86.81-87.458
				l2.566-1.485c42.598,73.58,121.856,119.289,206.842,119.289c131.55,0,238.573-107.069,238.573-238.673
				c0-41.971-11.013-83.24-31.851-119.347l2.568-1.481c21.097,36.555,32.248,78.337,32.248,120.828
				c0,64.539-25.132,125.221-70.767,170.866C1567.522,960.845,1506.875,985.979,1442.379,985.979z"/>
		</g>
		<g id="A_SVGStep5">
			<path d="M1234.293,1346.301v-2.965c131.593,0,238.652-107.069,238.652-238.675
				c0-131.648-107.059-238.751-238.652-238.751v-2.965c64.525,0,125.192,25.13,170.825,70.76
				c45.651,45.648,70.792,106.361,70.792,170.956c0,64.555-25.141,125.242-70.792,170.882
				C1359.479,1321.172,1298.813,1346.301,1234.293,1346.301z"/>
		</g>
		<g id="A_SVGStep6">
			<path d="M1234.333,1586.474v-2.965c131.572,0,238.613-107.076,238.613-238.69
				c0-131.638-107.042-238.733-238.613-238.733v-2.965c64.521,0,125.181,25.131,170.806,70.765
				c45.638,45.646,70.771,106.351,70.771,170.933c0,64.549-25.134,125.235-70.771,170.881
				C1359.506,1561.339,1298.847,1586.474,1234.333,1586.474z"/>
		</g>
		<g id="A_SVGStep7">
			<path d="M1651.711,1825.905l-2.57-1.479c20.85-36.237,31.871-77.492,31.871-119.308
				c0-131.668-107.032-238.789-238.593-238.789c-84.668,0-163.805,45.528-206.528,118.817l-2.561-1.494
				c20.946-35.933,50.966-66.058,86.813-87.12c36.932-21.699,79.215-33.168,122.276-33.168c64.508,0,125.159,25.134,170.781,70.771
				c45.641,45.656,70.777,106.38,70.777,170.983C1683.977,1747.453,1672.819,1789.22,1651.711,1825.905z"/>
		</g>
		<g id="A_SVGStep8">
			<path d="M1860.33,1945.121l-2.573-1.473c20.528-35.877,31.379-76.806,31.379-118.364
				c0-131.681-107.05-238.811-238.632-238.811c-84.724,0-163.89,45.604-206.607,119.015l-2.563-1.49
				c20.939-35.986,50.962-66.159,86.824-87.258c36.951-21.74,79.258-33.231,122.346-33.231c64.528,0,125.194,25.141,170.822,70.79
				c45.64,45.661,70.775,106.384,70.775,170.985C1892.102,1867.357,1881.115,1908.797,1860.33,1945.121z"/>
		</g>
		<g id="A_SVGStep9">
			<path d="M1857.09,1946.018c-21.098-36.446-32.25-78.195-32.25-120.733c0-64.602,25.141-125.322,70.791-170.978
				c45.648-45.654,106.357-70.798,170.943-70.798c43.158,0,85.525,11.537,122.523,33.364c35.926,21.194,65.943,51.48,86.807,87.583
				l-2.566,1.484c-42.584-73.69-121.811-119.467-206.764-119.467c-131.658,0-238.769,107.13-238.769,238.811
				c0,42.017,11.014,83.253,31.851,119.248L1857.09,1946.018z"/>
		</g>
		<g id="A_SVGStep10">
			<path d="M2064.953,1825.432c-20.979-36.534-32.066-78.125-32.066-120.273c0-64.585,25.146-125.295,70.805-170.944
				c45.66-45.651,106.387-70.793,170.988-70.793c43.141,0,85.488,11.524,122.461,33.326c35.891,21.164,65.902,51.421,86.791,87.501
				l-2.564,1.486c-42.621-73.617-121.818-119.349-206.688-119.349c-131.689,0-238.828,107.113-238.828,238.772
				c0,41.632,10.951,82.711,31.672,118.797L2064.953,1825.432z"/>
		</g>
		<g id="A_SVGStep11">
			<path d="M2482.707,1586.474c-64.566,0-125.27-25.135-170.928-70.774c-45.662-45.642-70.809-106.329-70.809-170.881
				c0-64.588,25.145-125.292,70.799-170.933c45.65-45.634,106.357-70.765,170.938-70.765v2.965
				c-131.658,0-238.771,107.095-238.771,238.733c0,131.614,107.113,238.69,238.771,238.69V1586.474z"/>
		</g>
		<g id="A_SVGStep12">
			<path d="M2482.746,1346.258c-64.588,0-125.303-25.128-170.963-70.756c-45.664-45.633-70.813-106.319-70.813-170.879
				c0-64.598,25.145-125.308,70.805-170.949c45.652-45.634,106.371-70.767,170.971-70.767v2.965
				c-131.68,0-238.811,107.103-238.811,238.751c0,131.603,107.131,238.67,238.811,238.67V1346.258z"/>
		</g>
		<g id="A_SVGStep13">
			<path d="M2274.66,985.958c-64.592,0-125.313-25.126-170.975-70.749c-45.67-45.631-70.822-106.32-70.822-170.888
				c0-42.266,11.131-83.945,32.191-120.53l2.568,1.479c-20.801,36.136-31.795,77.303-31.795,119.051
				c0,131.604,107.141,238.672,238.832,238.672c85.018,0,164.244-45.791,206.764-119.502l2.568,1.481
				c-20.84,36.128-50.846,66.429-86.771,87.626C2360.232,974.422,2317.852,985.958,2274.66,985.958z"/>
		</g>
		<g id="A_SVGStep14">
			<path d="M2066.594,865.872c-64.578,0-125.283-25.134-170.936-70.772c-45.654-45.643-70.798-106.345-70.798-170.924
				c0-42.287,11.11-83.913,32.129-120.375l2.569,1.48c-20.76,36.013-31.733,77.126-31.733,118.895
				c0,131.637,107.11,238.731,238.769,238.731c84.914,0,164.117-45.731,206.703-119.348l2.566,1.484
				c-20.865,36.069-50.871,66.324-86.775,87.495C2152.104,854.346,2109.744,865.872,2066.594,865.872z"/>
		</g>
		<g id="A_SVGStep15">
			<path d="M1858.57,745.765c-43.227,0-85.646-11.539-122.674-33.368c-35.958-21.199-65.993-51.498-86.854-87.62
				l2.567-1.482c42.571,73.714,121.875,119.505,206.96,119.505c84.932,0,164.141-45.739,206.721-119.366l2.566,1.484
				c-20.873,36.095-50.881,66.361-86.779,87.527C1944.107,734.243,1901.744,745.765,1858.57,745.765z"/>
		</g>
		<g id="A_SVGStep16">
			<path d="M1234.333,1106.105v-2.965c131.593,0,238.652-107.068,238.652-238.673
				c0-41.924-10.993-83.139-31.791-119.188l2.568-1.481c21.058,36.499,32.188,78.226,32.188,120.669
				c0,64.546-25.141,125.229-70.791,170.873C1359.517,1080.974,1298.851,1106.105,1234.333,1106.105z"/>
		</g>
		<g id="A_SVGStep17">
			<path d="M1443.592,1705.882l-2.567-1.482c20.856-36.096,31.88-77.349,31.88-119.302
				c0-63.809-24.825-123.786-69.903-168.886c-45.053-45.072-104.947-69.891-168.661-69.891c-0.039,0-0.077,0-0.116,0l-0.001-2.965
				c0.035,0,0.082,0,0.117,0c64.511,0,125.143,25.125,170.758,70.761c45.637,45.658,70.771,106.38,70.771,170.98
				C1475.87,1627.57,1464.708,1669.337,1443.592,1705.882z"/>
		</g>
		<g id="A_SVGStep18">
			<path d="M1651.669,1826.026l-2.567-1.484c20.869-36.104,50.884-66.38,86.799-87.556
				c37.005-21.817,79.417-33.35,122.65-33.35c0.016,0,0.037,0,0.052,0c43.129,0,85.449,11.512,122.4,33.294
				c35.877,21.148,65.875,51.391,86.754,87.454l-2.564,1.486c-42.592-73.568-121.754-119.27-206.59-119.27c-0.021,0-0.031,0-0.051,0
				C1773.521,1706.602,1694.248,1752.362,1651.669,1826.026z"/>
		</g>
		<g id="A_SVGStep19">
			<path d="M2273.42,1706.039c-21.229-36.578-32.449-78.436-32.449-121.048c0-64.583,25.145-125.288,70.805-170.936
				c45.658-45.645,106.377-70.783,170.971-70.783v2.965c-131.68,0-238.811,107.104-238.811,238.754
				c0,42.09,11.082,83.434,32.049,119.56L2273.42,1706.039z"/>
		</g>
		<g id="A_SVGStep20">
			<path d="M2482.746,1106.085c-64.572,0-125.283-25.132-170.949-70.767c-45.674-45.643-70.826-106.333-70.826-170.891
				c0-42.384,11.178-84.159,32.326-120.808l2.566,1.481c-20.887,36.2-31.928,77.462-31.928,119.327
				c0,131.616,107.131,238.693,238.811,238.693V1106.085z"/>
		</g>
		<g id="A_SVGStep21">
			<path d="M1650.523,625.658v-2.964c84.885,0,164.074-45.702,206.665-119.271l2.566,1.485
				c-20.873,36.056-50.881,66.295-86.779,87.448C1736.003,614.143,1693.661,625.658,1650.523,625.658z"/>
		</g>
		<g id="A_SVGStep22">
			<path d="M1442.438,745.804v-2.965c84.818,0,163.992-45.678,206.625-119.21l2.565,1.487
				c-20.895,36.037-50.908,66.26-86.796,87.402C1527.868,734.294,1485.545,745.804,1442.438,745.804z"/>
		</g>
		<g id="A_SVGStep23">
			<path d="M1234.333,865.872v-2.965c84.908,0,164.119-45.754,206.723-119.407l2.566,1.484
				c-20.875,36.089-50.888,66.36-86.792,87.539C1319.842,854.34,1277.484,865.872,1234.333,865.872z"/>
		</g>
		<g id="A_SVGStep24">
			<path d="M1235.657,1105.068l-2.568-1.481c20.799-36.069,31.792-77.244,31.792-119.07
				c0-42.054-11.007-83.288-31.831-119.247l2.565-1.485c21.085,36.409,32.23,78.157,32.23,120.732
				C1267.845,1026.862,1256.715,1068.548,1235.657,1105.068z"/>
		</g>
		<g id="A_SVGStep25">
			<path d="M1235.497,1345.717l-2.567-1.484c20.928-36.197,31.99-77.5,31.99-119.443
				c0-42.085-11.007-83.326-31.83-119.266l2.565-1.486c21.084,36.391,32.229,78.146,32.229,120.752
				C1267.885,1267.252,1256.685,1309.068,1235.497,1345.717z"/>
		</g>
		<g id="A_SVGStep26">
			<path d="M1235.637,1585.931l-2.566-1.484c20.913-36.172,31.968-77.48,31.968-119.462
				c0-41.861-10.993-83.035-31.792-119.07l2.568-1.481c21.058,36.484,32.188,78.172,32.188,120.552
				C1268.003,1507.486,1256.812,1549.309,1235.637,1585.931z"/>
		</g>
		<g id="A_SVGStep27">
			<path d="M1440.743,1705.194c-42.723-73.212-121.75-118.681-206.262-118.681c-0.036,0-0.072,0-0.108,0l-0.001-2.964
				c0.037,0,0.074,0,0.111,0c43.004,0,85.213,11.444,122.072,33.099c35.789,21.026,65.786,51.129,86.748,87.052L1440.743,1705.194z"
				/>
		</g>
		<g id="A_SVGStep28">
			<path d="M1649.103,1825.908c-42.605-73.641-121.817-119.388-206.724-119.388v-2.965
				c43.156,0,85.512,11.525,122.489,33.33c35.902,21.172,65.917,51.442,86.801,87.538L1649.103,1825.908z"/>
		</g>
		<g id="A_SVGStep29">
			<path d="M1856.837,1945.313c-42.755-73.171-121.81-118.625-206.314-118.625v-2.965
				c43.009,0,85.235,11.448,122.116,33.109c35.787,21.017,65.787,51.096,86.757,86.984L1856.837,1945.313z"/>
		</g>
		<g id="A_SVGStep30">
			<path d="M1859.912,1945.838l-2.564-1.488c20.928-36.032,50.953-66.242,86.828-87.362
				c36.963-21.762,79.303-33.265,122.439-33.265v2.965C1981.803,1826.688,1902.598,1872.344,1859.912,1945.838z"/>
		</g>
		<g id="A_SVGStep31">
			<path d="M2067.857,1826.026l-2.566-1.484c20.877-36.103,50.9-66.378,86.822-87.556
				c37.008-21.817,79.41-33.35,122.627-33.35v2.965C2189.73,1706.602,2110.459,1752.362,2067.857,1826.026z"/>
		</g>
		<g id="A_SVGStep32">
			<path d="M2275.863,1705.979l-2.566-1.482c20.863-36.12,50.895-66.418,86.85-87.618
				c37.023-21.83,79.432-33.369,122.641-33.369v2.965C2397.727,1586.474,2318.439,1632.265,2275.863,1705.979z"/>
		</g>
		<g id="A_SVGStep33">
			<path d="M2480.709,1584.58c-20.707-36.339-31.652-77.717-31.652-119.657c0-42.637,11.248-84.548,32.525-121.204
				l2.564,1.488c-21.016,36.204-32.125,77.602-32.125,119.716c0,41.428,10.811,82.296,31.264,118.19L2480.709,1584.58z"/>
		</g>
		<g id="A_SVGStep34">
			<path d="M2480.789,1344.564c-20.785-36.442-31.773-77.874-31.773-119.815c0-42.9,11.365-84.965,32.869-121.646
				l2.557,1.499c-21.236,36.228-32.461,77.774-32.461,120.147c0,41.427,10.854,82.35,31.383,118.346L2480.789,1344.564z"/>
		</g>
		<g id="A_SVGStep35">
			<path d="M2481.387,1105.287c-21.125-36.496-32.291-78.251-32.291-120.751c0-42.477,11.191-84.306,32.367-120.968
				l2.566,1.482c-20.914,36.212-31.969,77.529-31.969,119.485c0,41.98,11.027,83.222,31.891,119.266L2481.387,1105.287z"/>
		</g>
		<g id="A_SVGStep36">
			<path d="M2482.787,865.91c-43.215,0-85.625-11.532-122.646-33.35c-35.949-21.185-65.979-51.462-86.844-87.558
				l2.566-1.483c42.58,73.665,121.869,119.426,206.924,119.426V865.91z"/>
		</g>
		<g id="A_SVGStep37">
			<path d="M2274.66,745.765c-43.176,0-85.559-11.52-122.566-33.315c-35.934-21.163-65.977-51.417-86.881-87.492
				l2.564-1.486C2110.43,697.076,2189.701,742.8,2274.66,742.8V745.765z"/>
		</g>
		<g id="A_SVGStep38">
			<path d="M2066.656,625.658c-43.146,0-85.498-11.504-122.473-33.268c-35.898-21.131-65.934-51.354-86.855-87.4
				l2.564-1.488c42.672,73.52,121.9,119.191,206.764,119.191V625.658z"/>
		</g>
	</g>
</g>
</svg>
