<?xml version="1.0" encoding="utf-8"?>
<!-- Generator: Adobe Illustrator 16.0.0, SVG Export Plug-In . SVG Version: 6.00 Build 0)  -->
<!DOCTYPE svg PUBLIC "-//W3C//DTD SVG 1.1//EN" "http://www.w3.org/Graphics/SVG/1.1/DTD/svg11.dtd">
<svg version="1.1" id="A_detailVesicaPiscis" xmlns="http://www.w3.org/2000/svg" xmlns:xlink="http://www.w3.org/1999/xlink"
	 x="0px" y="0px" width="1739px" height="1159.945px" viewBox="0 0 1739 1159.945" enable-background="new 0 0 1739 1159.945"
	 xml:space="preserve">
<g id="A_SVGGroupSteps">
	<g id="A_SVGStep1">
		<g id="A_text" enable-background="new    ">
			<path d="M711.814,740.627h-3.606l-2.495-7.092h-11.006l-2.495,7.092h-3.435l9.263-25.447h4.512L711.814,740.627z
				 M704.671,730.629l-4.46-12.492l-4.478,12.492H704.671z"/>
		</g>
		<path d="M679.933,1114.567c-48.878,0-96.294-9.573-140.932-28.453c-43.115-18.235-81.835-44.343-115.086-77.593
			c-33.251-33.252-59.357-71.973-77.593-115.087c-18.88-44.638-28.453-92.054-28.453-140.932s9.573-96.294,28.453-140.932
			c18.235-43.114,44.342-81.834,77.593-115.085s71.971-59.357,115.086-77.594c44.637-18.88,92.054-28.453,140.932-28.453
			c48.877,0,96.293,9.573,140.932,28.453c43.114,18.236,81.835,44.343,115.086,77.594s59.355,71.971,77.593,115.085
			c18.88,44.638,28.453,92.054,28.453,140.932s-9.573,96.294-28.453,140.933c-18.236,43.113-44.342,81.835-77.593,115.086
			c-33.251,33.25-71.973,59.356-115.086,77.593C776.227,1104.994,728.811,1114.567,679.933,1114.567z M679.933,392.441
			c-198.54,0-360.063,161.523-360.063,360.063s161.523,360.063,360.063,360.063s360.063-161.523,360.063-360.063
			S878.473,392.441,679.933,392.441z"/>
		<path d="M685.933,752.504c0,3.313-2.688,6-6,6l0,0c-3.313,0-6-2.688-6-6l0,0c0-3.313,2.688-6,6-6l0,0
			C683.247,746.504,685.933,749.189,685.933,752.504L685.933,752.504z"/>
	</g>
	<g id="A_SVGStep2">
		<g id="A_text" enable-background="new    ">
			<path d="M697.943,368.992c0,1.265-0.239,2.382-0.719,3.35c-0.479,0.969-1.123,1.767-1.931,2.393
				c-0.957,0.752-2.008,1.288-3.153,1.606c-1.145,0.319-2.601,0.479-4.365,0.479h-9.023v-25.447h7.537
				c1.856,0,3.247,0.068,4.17,0.205c0.923,0.137,1.806,0.422,2.648,0.855c0.935,0.489,1.612,1.119,2.034,1.888
				c0.421,0.77,0.632,1.689,0.632,2.761c0,1.207-0.308,2.235-0.923,3.084c-0.614,0.85-1.436,1.529-2.461,2.043v0.137
				c1.72,0.353,3.076,1.107,4.067,2.264C697.447,365.766,697.943,367.227,697.943,368.992z M692.252,357.524
				c0-0.615-0.103-1.133-0.308-1.555c-0.205-0.421-0.536-0.763-0.991-1.025c-0.536-0.308-1.186-0.498-1.948-0.572
				c-0.764-0.074-1.709-0.111-2.837-0.111h-4.033v7.349h4.375c1.061,0,1.902-0.054,2.529-0.162c0.626-0.108,1.208-0.333,1.743-0.675
				c0.535-0.342,0.914-0.783,1.137-1.325C692.141,358.906,692.252,358.266,692.252,357.524z M694.422,369.129
				c0-1.025-0.154-1.84-0.461-2.444c-0.308-0.604-0.866-1.116-1.675-1.537c-0.547-0.285-1.211-0.471-1.991-0.556
				c-0.78-0.086-1.729-0.128-2.845-0.128h-5.315v9.467h4.479c1.48,0,2.693-0.076,3.64-0.23c0.945-0.153,1.72-0.436,2.324-0.846
				c0.638-0.444,1.104-0.951,1.401-1.521C694.274,370.764,694.422,370.029,694.422,369.129z"/>
		</g>
		<rect x="678.933" y="391.441" width="2" height="361.063"/>
		<path d="M685.933,391.441c0,3.314-2.688,6-6,6l0,0c-3.313,0-6-2.687-6-6l0,0c0-3.313,2.688-6,6-6l0,0
			C683.247,385.441,685.933,388.128,685.933,391.441L685.933,391.441z"/>
	</g>
	<g id="A_SVGStep3">
		<path d="M679.933,753.504c-48.878,0-96.294-9.573-140.932-28.453c-43.115-18.234-81.835-44.342-115.086-77.593
			s-59.357-71.971-77.593-115.085c-18.88-44.638-28.453-92.054-28.453-140.932c0-48.878,9.573-96.294,28.453-140.932
			c18.235-43.114,44.342-81.834,77.593-115.085s71.971-59.357,115.086-77.593c44.637-18.88,92.054-28.453,140.932-28.453
			c48.877,0,96.293,9.573,140.932,28.453c43.114,18.236,81.835,44.342,115.086,77.593s59.355,71.971,77.593,115.085
			c18.88,44.638,28.453,92.054,28.453,140.932c0,48.878-9.573,96.294-28.453,140.932c-18.236,43.114-44.342,81.834-77.593,115.085
			s-71.973,59.357-115.086,77.593C776.227,743.931,728.811,753.504,679.933,753.504z M679.933,31.378
			c-198.54,0-360.063,161.523-360.063,360.063c0,198.54,161.523,360.063,360.063,360.063s360.063-161.523,360.063-360.063
			C1039.996,192.901,878.473,31.378,679.933,31.378z"/>
	</g>
	<g id="A_SVGStep4">
		<path d="M373.178,571.974c0,3.314-2.687,6-6,6l0,0c-3.313,0-6-2.686-6-6l0,0c0-3.313,2.688-6,6-6l0,0
			C370.491,565.974,373.178,568.66,373.178,571.974L373.178,571.974z"/>
		<g id="A_text" enable-background="new    ">
			<path d="M341.879,577.126c-0.627,0.273-1.194,0.529-1.7,0.771c-0.507,0.237-1.171,0.488-1.991,0.752
				c-0.694,0.216-1.449,0.4-2.265,0.555c-0.813,0.154-1.712,0.229-2.69,0.229c-1.847,0-3.523-0.259-5.033-0.776
				c-1.51-0.519-2.823-1.33-3.939-2.437c-1.094-1.082-1.948-2.457-2.563-4.127c-0.615-1.669-0.923-3.607-0.923-5.817
				c0-2.098,0.296-3.972,0.889-5.623c0.592-1.651,1.447-3.048,2.563-4.188c1.082-1.104,2.391-1.947,3.923-2.528
				c1.531-0.58,3.231-0.871,5.101-0.871c1.367,0,2.731,0.165,4.093,0.496c1.361,0.329,2.874,0.91,4.537,1.741v4.018h-0.256
				c-1.401-1.173-2.792-2.027-4.17-2.563c-1.379-0.535-2.854-0.803-4.426-0.803c-1.288,0-2.447,0.208-3.479,0.623
				c-1.032,0.416-1.952,1.063-2.76,1.939c-0.786,0.854-1.399,1.935-1.837,3.238c-0.438,1.305-0.658,2.813-0.658,4.521
				c0,1.788,0.242,3.326,0.726,4.612c0.484,1.288,1.108,2.337,1.872,3.146c0.798,0.844,1.729,1.468,2.794,1.872
				c1.065,0.404,2.19,0.605,3.375,0.605c1.63,0,3.156-0.278,4.58-0.838c1.425-0.558,2.758-1.395,3.999-2.512h0.239V577.126
				L341.879,577.126z"/>
		</g>
	</g>
	<g id="A_SVGStep5">
		<path d="M998.69,571.974c0,3.313-2.689,6-6,6l0,0c-3.314,0-6-2.687-6-6l0,0c0-3.313,2.688-6,6-6l0,0
			C996.003,565.974,998.69,568.659,998.69,571.974L998.69,571.974z"/>
		<g id="A_text" enable-background="new    ">
			<path d="M1039.725,565.275c0,2.313-0.504,4.407-1.512,6.289c-1.008,1.879-2.35,3.338-4.025,4.375
				c-1.161,0.717-2.457,1.235-3.887,1.555c-1.431,0.318-3.313,0.479-5.647,0.479h-6.427v-25.446h6.357
				c2.482,0,4.457,0.18,5.922,0.539c1.463,0.357,2.702,0.852,3.717,1.479c1.73,1.082,3.082,2.523,4.051,4.323
				C1039.24,560.667,1039.725,562.802,1039.725,565.275z M1036.188,565.223c0-1.992-0.348-3.675-1.043-5.042
				c-0.694-1.366-1.73-2.442-3.108-3.229c-1.004-0.569-2.068-0.966-3.196-1.188s-2.478-0.333-4.05-0.333h-3.18v19.637h3.18
				c1.629,0,3.051-0.12,4.264-0.358c1.213-0.24,2.326-0.684,3.341-1.334c1.266-0.809,2.215-1.873,2.846-3.195
				C1035.871,568.858,1036.188,567.206,1036.188,565.223z"/>
		</g>
	</g>
	<g id="A_SVGStep6">
		<rect x="367.178" y="570.974" width="625.513" height="2"/>
	</g>
	<g id="A_SVGStep7">
		<path d="M685.933,571.974c0,3.313-2.688,6-6,6l0,0c-3.313,0-6-2.688-6-6l0,0c0-3.313,2.688-6,6-6l0,0
			C683.247,565.974,685.933,568.659,685.933,571.974L685.933,571.974z"/>
		<g id="A_text" enable-background="new    ">
			<path d="M712.116,558.973h-16.766v-25.446h16.766v3.008h-13.381v6.973h13.381v3.008h-13.381v9.451h13.381V558.973z"
				/>
		</g>
	</g>
	<g id="A_SVGStep8">
		
			<rect x="655.785" y="480.703" transform="matrix(-0.8661 -0.4999 0.4999 -0.8661 1319.8978 1316.9835)" width="361.126" height="2"/>
	</g>
	<g id="A_SVGStep9">
		<g id="A_text" enable-background="new    ">
			<path d="M1104.77,510.973h-3.604l-2.495-7.092h-11.006l-2.495,7.092h-3.436l9.264-25.446h4.512L1104.77,510.973z
				 M1097.627,500.975l-4.461-12.491l-4.479,12.491H1097.627z"/>
			<path d="M1127.824,503.146c0,1.265-0.239,2.382-0.719,3.35c-0.479,0.969-1.121,1.767-1.931,2.393
				c-0.957,0.752-2.008,1.288-3.154,1.606c-1.145,0.319-2.6,0.479-4.364,0.479h-9.023v-25.446h7.536c1.856,0,3.247,0.067,4.17,0.205
				c0.923,0.137,1.806,0.422,2.649,0.854c0.934,0.489,1.61,1.119,2.033,1.888c0.422,0.771,0.633,1.689,0.633,2.762
				c0,1.207-0.31,2.234-0.924,3.084c-0.615,0.85-1.437,1.528-2.461,2.043v0.137c1.721,0.353,3.075,1.107,4.067,2.264
				C1127.328,499.919,1127.824,501.38,1127.824,503.146z M1122.133,491.678c0-0.614-0.102-1.133-0.307-1.555
				c-0.205-0.421-0.536-0.763-0.992-1.025c-0.535-0.308-1.185-0.498-1.947-0.571c-0.764-0.074-1.709-0.111-2.838-0.111h-4.033v7.349
				h4.375c1.062,0,1.902-0.054,2.529-0.162c0.627-0.107,1.208-0.332,1.744-0.675c0.535-0.342,0.914-0.782,1.137-1.325
				C1122.021,493.06,1122.133,492.419,1122.133,491.678z M1124.304,503.282c0-1.025-0.152-1.84-0.462-2.444
				c-0.307-0.604-0.865-1.116-1.674-1.537c-0.547-0.285-1.211-0.471-1.992-0.556c-0.779-0.086-1.729-0.128-2.845-0.128h-5.315v9.467
				h4.479c1.479,0,2.693-0.076,3.64-0.229c0.945-0.153,1.721-0.437,2.324-0.847c0.638-0.443,1.104-0.951,1.401-1.521
				C1124.155,504.917,1124.304,504.183,1124.304,503.282z"/>
			<path d="M1153.664,497.608h-20.27v-2.734h20.27V497.608z M1153.664,504.786h-20.27v-2.734h20.27V504.786z"/>
			<path d="M1180.461,503.146c0,1.265-0.238,2.382-0.717,3.35c-0.479,0.969-1.123,1.767-1.932,2.393
				c-0.957,0.752-2.009,1.288-3.154,1.606c-1.146,0.319-2.601,0.479-4.365,0.479h-9.023v-25.446h7.537
				c1.855,0,3.246,0.067,4.17,0.205c0.923,0.137,1.806,0.422,2.648,0.854c0.934,0.489,1.611,1.119,2.033,1.888
				c0.422,0.771,0.633,1.689,0.633,2.762c0,1.207-0.309,2.234-0.924,3.084s-1.437,1.528-2.461,2.043v0.137
				c1.721,0.353,3.076,1.107,4.067,2.264C1179.965,499.919,1180.461,501.38,1180.461,503.146z M1174.77,491.678
				c0-0.614-0.102-1.133-0.307-1.555c-0.205-0.421-0.537-0.763-0.992-1.025c-0.535-0.308-1.186-0.498-1.946-0.571
				c-0.765-0.074-1.709-0.111-2.839-0.111h-4.032v7.349h4.375c1.061,0,1.901-0.054,2.528-0.162c0.628-0.107,1.207-0.332,1.744-0.675
				c0.535-0.342,0.914-0.782,1.138-1.325C1174.658,493.06,1174.77,492.419,1174.77,491.678z M1176.941,503.282
				c0-1.025-0.154-1.84-0.463-2.444c-0.308-0.604-0.865-1.116-1.675-1.537c-0.547-0.285-1.211-0.471-1.991-0.556
				c-0.779-0.086-1.729-0.128-2.845-0.128h-5.315v9.467h4.479c1.48,0,2.693-0.076,3.642-0.229c0.944-0.153,1.719-0.437,2.323-0.847
				c0.638-0.443,1.104-0.951,1.4-1.521C1176.793,504.917,1176.941,504.183,1176.941,503.282z"/>
			<path d="M1206.762,498.275c0,2.313-0.504,4.407-1.512,6.289c-1.008,1.879-2.35,3.338-4.025,4.375
				c-1.162,0.717-2.457,1.235-3.887,1.555c-1.432,0.318-3.313,0.479-5.647,0.479h-6.427v-25.446h6.357
				c2.482,0,4.457,0.18,5.922,0.539c1.463,0.357,2.701,0.852,3.717,1.479c1.73,1.082,3.082,2.523,4.052,4.323
				C1206.277,493.667,1206.762,495.803,1206.762,498.275z M1203.225,498.224c0-1.992-0.348-3.675-1.043-5.042
				c-0.694-1.366-1.731-2.442-3.108-3.229c-1.004-0.569-2.068-0.966-3.195-1.188c-1.129-0.223-2.479-0.333-4.051-0.333h-3.181
				v19.637h3.181c1.629,0,3.051-0.12,4.264-0.358c1.213-0.24,2.326-0.684,3.343-1.334c1.264-0.809,2.213-1.873,2.844-3.195
				S1203.225,500.206,1203.225,498.224z"/>
			<path d="M1233.268,497.608H1213v-2.734h20.268V497.608z M1233.268,504.786H1213v-2.734h20.268V504.786z"/>
			<path d="M1255.98,510.973h-13.773v-2.598h5.297v-17.056h-5.297v-2.324c0.717,0,1.486-0.061,2.307-0.18
				s1.441-0.293,1.863-0.521c0.523-0.285,0.937-0.646,1.238-1.086c0.303-0.438,0.477-1.027,0.521-1.769h2.648v22.935h5.194v2.599
				H1255.98z"/>
		</g>
	</g>
	<g id="A_SVGStep10">
		<g id="A_text" enable-background="new    ">
			<path d="M1103.898,557.145c0,1.266-0.239,2.383-0.719,3.351c-0.479,0.969-1.122,1.767-1.931,2.393
				c-0.957,0.752-2.008,1.288-3.154,1.606c-1.145,0.318-2.6,0.479-4.365,0.479h-9.022v-25.446h7.536c1.855,0,3.247,0.067,4.17,0.205
				c0.923,0.137,1.806,0.422,2.649,0.854c0.934,0.489,1.61,1.119,2.032,1.888c0.422,0.771,0.634,1.689,0.634,2.762
				c0,1.207-0.31,2.234-0.925,3.084c-0.614,0.85-1.436,1.528-2.461,2.043v0.137c1.722,0.353,3.076,1.107,4.068,2.264
				C1103.402,553.918,1103.898,555.379,1103.898,557.145z M1098.207,545.677c0-0.614-0.102-1.133-0.307-1.555
				c-0.205-0.421-0.536-0.763-0.992-1.025c-0.535-0.308-1.186-0.498-1.947-0.571c-0.764-0.074-1.709-0.111-2.838-0.111h-4.033v7.349
				h4.375c1.062,0,1.902-0.054,2.529-0.162c0.627-0.107,1.208-0.333,1.744-0.675c0.535-0.342,0.914-0.783,1.137-1.325
				C1098.096,547.059,1098.207,546.418,1098.207,545.677z M1100.378,557.282c0-1.025-0.153-1.84-0.462-2.444
				c-0.307-0.604-0.865-1.116-1.674-1.537c-0.547-0.285-1.211-0.471-1.992-0.556c-0.779-0.086-1.729-0.128-2.845-0.128h-5.315v9.467
				h4.479c1.479,0,2.692-0.076,3.64-0.23c0.945-0.152,1.721-0.436,2.324-0.846c0.638-0.443,1.104-0.951,1.401-1.521
				C1100.229,558.917,1100.378,558.182,1100.378,557.282z"/>
			<path d="M1125.466,564.972h-16.765v-25.446h16.765v3.008h-13.382v6.973h13.382v3.008h-13.382v9.451h13.382V564.972z"
				/>
			<path d="M1151.869,551.608h-20.268v-2.734h20.268V551.608z M1151.869,558.786h-20.268v-2.734h20.268V558.786z"/>
			<path d="M1165.371,555.316h-2.82v-11.639h-3.572v-1.999c1.162,0,2.104-0.126,2.82-0.377
				c0.719-0.25,1.129-0.865,1.23-1.846h2.342V555.316z M1180.154,539.525l-13.33,25.446h-2.82l13.33-25.446H1180.154z
				 M1189.467,564.972h-11.758v-2.528c1.037-0.786,1.938-1.477,2.701-2.068s1.367-1.099,1.811-1.521
				c1.242-1.173,2.045-2.069,2.41-2.69s0.547-1.398,0.547-2.333c0-0.797-0.25-1.407-0.752-1.828
				c-0.502-0.422-1.186-0.633-2.051-0.633c-0.797,0-1.604,0.171-2.418,0.513c-0.813,0.342-1.455,0.695-1.922,1.061h-0.258v-3.06
				c0.742-0.309,1.541-0.559,2.401-0.752c0.859-0.193,1.729-0.291,2.605-0.291c1.789,0,3.164,0.45,4.127,1.35
				c0.963,0.9,1.444,2.047,1.444,3.437c0,1.06-0.233,2.011-0.7,2.854c-0.468,0.845-1.306,1.802-2.513,2.871
				c-0.559,0.49-1.239,1.037-2.043,1.642c-0.803,0.604-1.518,1.14-2.145,1.606h8.51v2.373H1189.467z"/>
		</g>
	</g>
	<g id="A_SVGStep11">
		<g id="A_text">
			<g enable-background="new    ">
				<path d="M1187.352,587.543l-15.469,34.084h-1.793l-6.75-17.455h-4.166v-2.443h6.908l5.502,14.433l12.832-28.617
					L1187.352,587.543L1187.352,587.543z"/>
				<path d="M1209.166,589.635h-23.73v-2.108h23.73V589.635z"/>
				<path d="M1232.053,589.635h-23.729v-2.108h23.729V589.635z"/>
				<path d="M1254.939,589.635h-23.73v-2.108h23.73V589.635z"/>
				<path d="M1277.826,589.635h-23.73v-2.108h23.73V589.635z"/>
				<path d="M1300.713,589.635h-23.729v-2.108h23.729V589.635z"/>
			</g>
			<g enable-background="new    ">
				<path d="M1207.898,611.145c0,1.266-0.239,2.383-0.719,3.351c-0.479,0.969-1.122,1.767-1.931,2.393
					c-0.957,0.752-2.008,1.288-3.154,1.606c-1.145,0.318-2.6,0.479-4.365,0.479h-9.022v-25.446h7.536
					c1.855,0,3.247,0.067,4.17,0.205c0.923,0.137,1.806,0.422,2.649,0.854c0.934,0.489,1.61,1.119,2.032,1.888
					c0.422,0.771,0.634,1.689,0.634,2.762c0,1.207-0.31,2.234-0.925,3.084c-0.614,0.85-1.436,1.528-2.461,2.043v0.137
					c1.722,0.353,3.076,1.107,4.068,2.264C1207.402,607.918,1207.898,609.379,1207.898,611.145z M1202.207,599.677
					c0-0.614-0.102-1.133-0.307-1.555c-0.205-0.421-0.536-0.763-0.992-1.025c-0.535-0.308-1.186-0.498-1.947-0.571
					c-0.764-0.074-1.709-0.111-2.838-0.111h-4.033v7.349h4.375c1.062,0,1.902-0.054,2.529-0.162
					c0.627-0.107,1.208-0.333,1.744-0.675c0.535-0.342,0.914-0.783,1.137-1.325C1202.096,601.059,1202.207,600.418,1202.207,599.677
					z M1204.378,611.281c0-1.025-0.153-1.84-0.462-2.444c-0.307-0.604-0.865-1.116-1.674-1.537
					c-0.547-0.285-1.211-0.471-1.992-0.556c-0.779-0.086-1.729-0.128-2.845-0.128h-5.315v9.467h4.479
					c1.479,0,2.692-0.076,3.64-0.229c0.945-0.153,1.721-0.437,2.324-0.847c0.638-0.443,1.104-0.951,1.401-1.521
					C1204.229,612.916,1204.378,612.182,1204.378,611.281z"/>
				<path d="M1234.199,606.274c0,2.313-0.504,4.407-1.512,6.288c-1.009,1.88-2.351,3.339-4.025,4.375
					c-1.162,0.718-2.458,1.236-3.887,1.556c-1.432,0.318-3.313,0.479-5.648,0.479h-6.426v-25.446h6.357
					c2.481,0,4.457,0.18,5.922,0.539c1.463,0.357,2.701,0.852,3.717,1.479c1.729,1.082,3.081,2.523,4.05,4.323
					C1233.715,601.666,1234.199,603.802,1234.199,606.274z M1230.662,606.223c0-1.992-0.348-3.675-1.043-5.042
					c-0.695-1.366-1.731-2.442-3.109-3.229c-1.004-0.569-2.067-0.966-3.195-1.188c-1.129-0.223-2.479-0.333-4.051-0.333h-3.18
					v19.637h3.18c1.629,0,3.051-0.12,4.265-0.358c1.213-0.24,2.325-0.684,3.341-1.334c1.265-0.809,2.214-1.873,2.845-3.195
					C1230.346,609.857,1230.662,608.205,1230.662,606.223z"/>
			</g>
			<g enable-background="new    ">
				<path d="M1248.336,610.646h-10.043v-2.082c0.697-0.599,1.396-1.196,2.098-1.795
					c0.702-0.598,1.354-1.191,1.957-1.782c1.275-1.235,2.149-2.218,2.621-2.944c0.472-0.728,0.707-1.513,0.707-2.355
					c0-0.771-0.254-1.373-0.762-1.81c-0.508-0.435-1.218-0.652-2.127-0.652c-0.604,0-1.26,0.106-1.963,0.319
					c-0.705,0.212-1.393,0.538-2.063,0.977h-0.101v-2.093c0.471-0.231,1.101-0.444,1.888-0.638s1.551-0.289,2.286-0.289
					c1.521,0,2.714,0.367,3.577,1.102c0.864,0.733,1.296,1.729,1.296,2.983c0,0.564-0.071,1.091-0.215,1.579
					c-0.143,0.488-0.354,0.952-0.633,1.391c-0.259,0.411-0.563,0.816-0.912,1.215c-0.348,0.398-0.771,0.842-1.271,1.325
					c-0.711,0.697-1.444,1.374-2.201,2.027c-0.758,0.654-1.465,1.261-2.122,1.817h7.979v1.705H1248.336z"/>
			</g>
			<g enable-background="new    ">
				<path d="M1264.358,609.384h-10.664v-3.093h10.664V609.384z"/>
				<path d="M1289.583,611.145c0,1.266-0.239,2.383-0.718,3.351c-0.479,0.969-1.123,1.767-1.933,2.393
					c-0.957,0.752-2.008,1.288-3.151,1.606c-1.146,0.318-2.603,0.479-4.367,0.479h-9.023v-25.446h7.537
					c1.857,0,3.247,0.067,4.17,0.205c0.924,0.137,1.807,0.422,2.648,0.854c0.936,0.489,1.612,1.119,2.034,1.888
					c0.421,0.771,0.632,1.689,0.632,2.762c0,1.207-0.307,2.234-0.922,3.084s-1.437,1.528-2.461,2.043v0.137
					c1.72,0.353,3.076,1.107,4.065,2.264C1289.088,607.918,1289.583,609.379,1289.583,611.145z M1283.893,599.677
					c0-0.614-0.104-1.133-0.309-1.555c-0.205-0.421-0.535-0.763-0.99-1.025c-0.536-0.308-1.186-0.498-1.949-0.571
					c-0.763-0.074-1.709-0.111-2.836-0.111h-4.032v7.349h4.375c1.059,0,1.901-0.054,2.528-0.162
					c0.626-0.107,1.207-0.333,1.742-0.675s0.914-0.783,1.137-1.325S1283.893,600.418,1283.893,599.677z M1286.063,611.281
					c0-1.025-0.153-1.84-0.461-2.444c-0.309-0.604-0.866-1.116-1.676-1.537c-0.547-0.285-1.211-0.471-1.99-0.556
					c-0.78-0.086-1.729-0.128-2.846-0.128h-5.313v9.467h4.477c1.481,0,2.695-0.076,3.642-0.229c0.944-0.153,1.721-0.437,2.323-0.847
					c0.638-0.443,1.105-0.951,1.401-1.521C1285.914,612.916,1286.063,612.182,1286.063,611.281z"/>
				<path d="M1311.15,618.972h-16.767v-25.446h16.767v3.008h-13.381v6.973h13.381v3.008h-13.381v9.451h13.381V618.972z"
					/>
			</g>
			<g enable-background="new    ">
				<path d="M1325.814,610.646h-10.043v-2.082c0.698-0.599,1.396-1.196,2.098-1.795
					c0.701-0.598,1.354-1.191,1.959-1.782c1.275-1.235,2.147-2.218,2.62-2.944c0.472-0.727,0.707-1.513,0.707-2.355
					c0-0.771-0.254-1.373-0.763-1.81c-0.509-0.435-1.218-0.652-2.127-0.652c-0.604,0-1.259,0.106-1.964,0.319
					c-0.702,0.212-1.391,0.538-2.063,0.977h-0.101v-2.093c0.474-0.231,1.103-0.444,1.89-0.638s1.549-0.289,2.287-0.289
					c1.521,0,2.713,0.367,3.576,1.102c0.862,0.733,1.295,1.729,1.295,2.983c0,0.564-0.07,1.091-0.214,1.579
					s-0.354,0.952-0.633,1.391c-0.26,0.411-0.563,0.816-0.911,1.215c-0.351,0.398-0.772,0.842-1.271,1.325
					c-0.711,0.697-1.444,1.374-2.202,2.027c-0.757,0.654-1.465,1.261-2.122,1.817h7.98L1325.814,610.646L1325.814,610.646z"/>
			</g>
			<g enable-background="new    ">
				<path d="M1353.014,605.607h-20.269v-2.734h20.269V605.607z M1353.014,612.785h-20.269v-2.734h20.269V612.785z"/>
			</g>
			<g>
				<g enable-background="new    ">
					<path d="M1386.493,569.916l-15.039,33.137h-1.743l-6.563-16.971h-4.052v-2.375h6.718l5.35,14.031l12.475-27.823
						L1386.493,569.916L1386.493,569.916z"/>
					<path d="M1403.189,588.219c0.547,0.49,0.996,1.105,1.351,1.847c0.353,0.739,0.53,1.696,0.53,2.87
						c0,1.162-0.211,2.229-0.634,3.195c-0.422,0.969-1.014,1.813-1.776,2.529c-0.854,0.799-1.86,1.389-3.017,1.77
						s-2.425,0.572-3.803,0.572c-1.414,0-2.803-0.168-4.17-0.504s-2.49-0.703-3.367-1.102v-3.572h0.256
						c0.97,0.639,2.107,1.168,3.418,1.59c1.312,0.42,2.575,0.631,3.796,0.631c0.717,0,1.479-0.119,2.288-0.357
						c0.81-0.239,1.466-0.594,1.966-1.061c0.524-0.502,0.916-1.053,1.172-1.658c0.256-0.604,0.385-1.367,0.385-2.289
						c0-0.912-0.146-1.666-0.437-2.266c-0.291-0.598-0.692-1.066-1.204-1.408c-0.515-0.354-1.136-0.596-1.863-0.727
						c-0.729-0.131-1.517-0.197-2.358-0.197h-1.538v-2.836h1.196c1.731,0,3.112-0.363,4.144-1.086
						c1.032-0.724,1.548-1.779,1.548-3.17c0-0.616-0.132-1.154-0.394-1.616c-0.262-0.461-0.627-0.84-1.094-1.137
						c-0.49-0.296-1.014-0.501-1.572-0.615c-0.559-0.113-1.19-0.17-1.896-0.17c-1.083,0-2.234,0.192-3.453,0.58
						s-2.369,0.935-3.451,1.641h-0.172v-3.571c0.809-0.397,1.889-0.766,3.238-1.103c1.352-0.336,2.657-0.504,3.923-0.504
						c1.24,0,2.335,0.114,3.281,0.342c0.944,0.229,1.8,0.593,2.563,1.094c0.82,0.547,1.441,1.208,1.863,1.982
						c0.421,0.774,0.632,1.681,0.632,2.717c0,1.412-0.499,2.646-1.495,3.699c-0.998,1.055-2.174,1.719-3.529,1.992v0.237
						c0.547,0.092,1.174,0.283,1.88,0.572C1402.102,587.424,1402.699,587.785,1403.189,588.219z"/>
				</g>
				<g enable-background="new    ">
					<path d="M1389.193,608.697h-29.771v-2.734h29.771V608.697z"/>
					<path d="M1420.203,608.697h-29.771v-2.734h29.771V608.697z"/>
				</g>
				<g enable-background="new    ">
					<path d="M1389.786,639.473h-17.228V635.9c1.196-1.025,2.396-2.052,3.598-3.076c1.203-1.025,2.322-2.044,3.358-3.06
						c2.188-2.118,3.687-3.803,4.494-5.05c0.81-1.248,1.213-2.595,1.213-4.042c0-1.321-0.436-2.354-1.307-3.102
						s-2.088-1.119-3.647-1.119c-1.037,0-2.16,0.182-3.367,0.547c-1.208,0.364-2.387,0.922-3.537,1.674h-0.172v-3.588
						c0.809-0.399,1.889-0.764,3.238-1.094c1.352-0.331,2.657-0.496,3.923-0.496c2.607,0,4.652,0.63,6.136,1.889
						c1.479,1.259,2.221,2.965,2.221,5.118c0,0.969-0.122,1.871-0.367,2.709c-0.244,0.837-0.605,1.632-1.085,2.384
						c-0.443,0.707-0.966,1.401-1.563,2.085c-0.597,0.685-1.324,1.441-2.181,2.272c-1.219,1.197-2.478,2.355-3.775,3.479
						s-2.513,2.162-3.641,3.119h13.688V639.473L1389.786,639.473z"/>
				</g>
			</g>
			<g enable-background="new    ">
				<path d="M1101.472,618.973h-16.765v-25.446h16.765v3.008h-13.382v6.973h13.382v3.008h-13.382v9.451h13.382V618.973z
					"/>
				<path d="M1128.337,606.275c0,2.313-0.504,4.407-1.513,6.289c-1.008,1.879-2.35,3.338-4.024,4.375
					c-1.162,0.717-2.458,1.235-3.888,1.555c-1.43,0.318-3.313,0.479-5.648,0.479h-6.426v-25.446h6.357
					c2.482,0,4.457,0.18,5.922,0.539c1.463,0.356,2.703,0.852,3.717,1.479c1.731,1.082,3.082,2.523,4.051,4.322
					C1127.854,601.666,1128.337,603.803,1128.337,606.275z M1124.799,606.223c0-1.991-0.348-3.674-1.042-5.041
					c-0.694-1.366-1.73-2.442-3.11-3.229c-1.003-0.568-2.067-0.965-3.194-1.188c-1.129-0.223-2.479-0.332-4.051-0.332h-3.18v19.636
					h3.18c1.629,0,3.051-0.119,4.264-0.357c1.214-0.24,2.327-0.684,3.342-1.334c1.265-0.809,2.213-1.873,2.845-3.195
					C1124.483,609.857,1124.799,608.205,1124.799,606.223z"/>
				<path d="M1154.844,605.607h-20.27v-2.734h20.27V605.607z M1154.844,612.785h-20.27v-2.734h20.27V612.785z"/>
			</g>
		</g>
	</g>
	<g id="A_SVGStep12">
		<g id="A_text" enable-background="new    ">
			<path d="M1104.359,673.629c-0.627,0.273-1.193,0.529-1.699,0.771c-0.508,0.237-1.172,0.488-1.992,0.752
				c-0.695,0.216-1.449,0.4-2.264,0.555s-1.713,0.229-2.691,0.229c-1.846,0-3.522-0.259-5.033-0.776
				c-1.51-0.519-2.822-1.33-3.938-2.437c-1.094-1.082-1.948-2.457-2.563-4.127c-0.614-1.669-0.923-3.607-0.923-5.817
				c0-2.098,0.296-3.972,0.89-5.623c0.592-1.651,1.446-3.048,2.563-4.188c1.082-1.104,2.391-1.946,3.923-2.528
				c1.531-0.58,3.232-0.871,5.102-0.871c1.366,0,2.73,0.165,4.093,0.496c1.361,0.33,2.874,0.911,4.537,1.741v4.018h-0.256
				c-1.401-1.173-2.791-2.027-4.17-2.563c-1.38-0.534-2.854-0.803-4.427-0.803c-1.288,0-2.446,0.208-3.479,0.623
				c-1.031,0.416-1.951,1.063-2.761,1.939c-0.785,0.854-1.397,1.935-1.838,3.238c-0.438,1.306-0.656,2.813-0.656,4.521
				c0,1.788,0.24,3.326,0.726,4.613c0.484,1.288,1.108,2.336,1.872,3.145c0.798,0.844,1.729,1.468,2.794,1.872
				c1.064,0.404,2.189,0.606,3.375,0.606c1.629,0,3.156-0.279,4.58-0.839c1.424-0.558,2.758-1.395,4-2.512h0.237V673.629
				L1104.359,673.629z"/>
			<path d="M1130.645,662.777c0,2.313-0.504,4.407-1.514,6.289c-1.008,1.879-2.35,3.338-4.022,4.375
				c-1.162,0.717-2.459,1.235-3.89,1.555c-1.43,0.318-3.313,0.479-5.647,0.479h-6.427v-25.446h6.357c2.484,0,4.458,0.18,5.922,0.539
				c1.464,0.357,2.703,0.852,3.717,1.479c1.732,1.082,3.082,2.523,4.052,4.323C1130.16,658.169,1130.645,660.305,1130.645,662.777z
				 M1127.105,662.726c0-1.992-0.348-3.675-1.041-5.042c-0.695-1.366-1.732-2.442-3.111-3.229c-1.002-0.569-2.067-0.966-3.195-1.188
				s-2.479-0.333-4.051-0.333h-3.178v19.637h3.178c1.629,0,3.051-0.12,4.264-0.358c1.215-0.24,2.328-0.684,3.343-1.334
				c1.265-0.809,2.213-1.873,2.846-3.195C1126.791,666.36,1127.105,664.708,1127.105,662.726z"/>
			<path d="M1157.15,662.11h-20.27v-2.734h20.27V662.11z M1157.15,669.288h-20.27v-2.734h20.27V669.288z"/>
			<path d="M1181.316,675.475h-17.228v-3.571c1.195-1.025,2.396-2.052,3.596-3.076c1.203-1.025,2.322-2.044,3.359-3.06
				c2.188-2.119,3.687-3.803,4.494-5.05c0.809-1.248,1.213-2.595,1.213-4.042c0-1.32-0.437-2.354-1.307-3.102
				c-0.871-0.747-2.089-1.119-3.648-1.119c-1.037,0-2.16,0.182-3.367,0.547c-1.207,0.364-2.387,0.922-3.536,1.674h-0.173v-3.588
				c0.81-0.398,1.89-0.764,3.238-1.094c1.353-0.331,2.658-0.496,3.924-0.496c2.607,0,4.652,0.63,6.136,1.889
				c1.479,1.259,2.221,2.965,2.221,5.118c0,0.969-0.123,1.871-0.367,2.709c-0.244,0.837-0.605,1.632-1.084,2.384
				c-0.445,0.707-0.967,1.401-1.564,2.085c-0.597,0.685-1.323,1.441-2.18,2.272c-1.219,1.197-2.477,2.355-3.775,3.479
				c-1.298,1.123-2.514,2.162-3.641,3.119h13.689V675.475z"/>
			<path d="M1207.258,671.783l-1.896,1.896l-7.451-7.52l-7.451,7.52l-1.897-1.896l7.52-7.451l-7.52-7.451l1.897-1.896
				l7.451,7.52l7.451-7.52l1.896,1.896l-7.52,7.451L1207.258,671.783z"/>
			<path d="M1232.414,675.475h-16.766v-25.446h16.766v3.008h-13.381v6.973h13.381v3.008h-13.381v9.451h13.381V675.475z"
				/>
			<path d="M1259.279,662.777c0,2.313-0.504,4.407-1.512,6.289c-1.009,1.879-2.351,3.338-4.025,4.375
				c-1.162,0.717-2.457,1.235-3.887,1.555c-1.433,0.318-3.314,0.479-5.648,0.479h-6.426v-25.446h6.357
				c2.481,0,4.457,0.18,5.922,0.539c1.463,0.357,2.701,0.852,3.717,1.479c1.729,1.082,3.082,2.523,4.051,4.323
				C1258.795,658.169,1259.279,660.305,1259.279,662.777z M1255.742,662.726c0-1.992-0.349-3.675-1.043-5.042
				c-0.695-1.366-1.732-2.442-3.109-3.229c-1.004-0.569-2.068-0.966-3.195-1.188c-1.129-0.223-2.479-0.333-4.051-0.333h-3.18v19.637
				h3.18c1.629,0,3.051-0.12,4.265-0.358c1.213-0.24,2.325-0.684,3.342-1.334c1.264-0.809,2.213-1.873,2.844-3.195
				C1255.426,666.36,1255.742,664.708,1255.742,662.726z"/>
			<path d="M1285.785,662.11h-20.268v-2.734h20.268V662.11z M1285.785,669.288h-20.268v-2.734h20.268V669.288z"/>
			<path d="M1319.658,644.918l-15.039,33.137h-1.744l-6.563-16.97h-4.052v-2.376h6.718l5.35,14.031l12.475-27.822
				H1319.658L1319.658,644.918z"/>
			<path d="M1336.354,663.221c0.548,0.49,0.998,1.105,1.353,1.847c0.353,0.74,0.529,1.697,0.529,2.87
				c0,1.162-0.211,2.229-0.634,3.196c-0.422,0.969-1.014,1.813-1.776,2.529c-0.854,0.798-1.859,1.388-3.017,1.769
				c-1.157,0.383-2.426,0.572-3.803,0.572c-1.414,0-2.803-0.168-4.17-0.504s-2.49-0.703-3.367-1.102v-3.572h0.256
				c0.97,0.639,2.107,1.168,3.418,1.59c1.312,0.421,2.574,0.632,3.796,0.632c0.717,0,1.479-0.12,2.288-0.357
				c0.81-0.24,1.466-0.594,1.968-1.062c0.522-0.501,0.914-1.053,1.17-1.657c0.256-0.604,0.385-1.366,0.385-2.29
				c0-0.91-0.146-1.666-0.436-2.265c-0.291-0.598-0.693-1.067-1.205-1.409c-0.515-0.354-1.136-0.596-1.863-0.727
				s-1.516-0.197-2.357-0.197h-1.538v-2.836h1.196c1.73,0,3.111-0.362,4.144-1.086c1.03-0.723,1.547-1.779,1.547-3.17
				c0-0.615-0.131-1.153-0.394-1.615c-0.262-0.461-0.627-0.84-1.094-1.137c-0.49-0.296-1.014-0.501-1.572-0.615
				c-0.559-0.113-1.19-0.17-1.896-0.17c-1.084,0-2.234,0.193-3.453,0.58c-1.219,0.388-2.369,0.935-3.451,1.641h-0.172v-3.57
				c0.809-0.398,1.889-0.767,3.238-1.104c1.352-0.336,2.658-0.504,3.924-0.504c1.24,0,2.334,0.114,3.281,0.342
				c0.944,0.229,1.799,0.593,2.563,1.094c0.82,0.548,1.441,1.208,1.863,1.982c0.42,0.775,0.633,1.681,0.633,2.717
				c0,1.413-0.5,2.646-1.496,3.7c-0.998,1.055-2.174,1.718-3.529,1.991v0.239c0.548,0.092,1.175,0.281,1.882,0.571
				C1335.266,662.427,1335.863,662.788,1336.354,663.221z"/>
		</g>
	</g>
</g>
</svg>
