<?xml version="1.0" encoding="utf-8"?>
<!-- Generator: Adobe Illustrator 16.0.0, SVG Export Plug-In . SVG Version: 6.00 Build 0)  -->
<!DOCTYPE svg PUBLIC "-//W3C//DTD SVG 1.1//EN" "http://www.w3.org/Graphics/SVG/1.1/DTD/svg11.dtd">
<svg version="1.1" id="A_detailCompletedFOL" xmlns="http://www.w3.org/2000/svg" xmlns:xlink="http://www.w3.org/1999/xlink"
	 x="0px" y="0px" width="2138.586px" height="2420.211px" viewBox="-593.121 -713.478 2138.586 2420.211"
	 enable-background="new -593.121 -713.478 2138.586 2420.211" xml:space="preserve">
<g id="A_SVGSteps">
	<g id="A_SVGStep1">
		<circle fill="none" stroke="#FFFFFF" stroke-width="2" stroke-miterlimit="10" cx="476.13" cy="483.994" r="239.492"/>
		<text class="A_verbose" transform="matrix(1 0 0 1 499.2651 474.6421)" fill="#FFFFFF" font-family="'Verdana'" font-size="34.0542">A</text>
		<path fill="#FFFFFF" d="M481.969,483.993c0,3.225-2.613,5.838-5.838,5.838l0,0c-3.223,0-5.838-2.614-5.838-5.838l0,0
			c0-3.225,2.616-5.838,5.838-5.838l0,0C479.354,478.155,481.969,480.769,481.969,483.993L481.969,483.993z"/>
	</g>
	<g id="A_SVGStep2">
		<circle fill="none" stroke="#FFFFFF" stroke-width="2" stroke-miterlimit="10" cx="476.13" cy="244.501" r="239.493"/>
		<path fill="#FFFFFF" d="M481.967,244.502c0,3.224-2.613,5.838-5.837,5.838l0,0c-3.223,0-5.838-2.615-5.838-5.838l0,0
			c0-3.224,2.616-5.838,5.838-5.838l0,0C479.354,238.664,481.967,241.277,481.967,244.502L481.967,244.502z"/>
		<text class="A_verbose" transform="matrix(1 0 0 1 506.2651 233.6665)" fill="#FFFFFF" font-family="'Verdana'" font-size="34.0542">B</text>
	</g>
	<g id="A_SVGStep3">
		<circle fill="none" stroke="#FFFFFF" stroke-width="2" stroke-miterlimit="10" cx="268.679" cy="364.247" r="239.492"/>
		<path fill="#FFFFFF" d="M274.516,364.247c0,3.224-2.615,5.837-5.838,5.837l0,0c-3.223,0-5.838-2.615-5.838-5.837l0,0
			c0-3.224,2.616-5.838,5.838-5.838l0,0C271.901,358.409,274.516,361.022,274.516,364.247L274.516,364.247z"/>
		<text class="A_verbose" transform="matrix(1 0 0 1 299.7554 352.6064)" fill="#FFFFFF" font-family="'Verdana'" font-size="34.0542">C</text>
	</g>
	<g id="A_SVGStep4">
		<circle fill="none" stroke="#FFFFFF" stroke-width="2" stroke-miterlimit="10" cx="268.678" cy="603.74" r="239.492"/>
		<path fill="#FFFFFF" d="M274.515,603.739c0,3.224-2.615,5.838-5.838,5.838l0,0c-3.223,0-5.837-2.615-5.837-5.838l0,0
			c0-3.225,2.616-5.838,5.837-5.838l0,0C271.9,597.901,274.515,600.515,274.515,603.739L274.515,603.739z"/>
		<text class="A_verbose" transform="matrix(1 0 0 1 299.7471 594.4893)" fill="#FFFFFF" font-family="'Verdana'" font-size="34.0542">D</text>
	</g>
	<g id="A_SVGStep5">
		<path fill="none" stroke="#FFFFFF" stroke-width="2" stroke-miterlimit="10" d="M476.206,483.951
			c132.27,0,239.492,107.215,239.492,239.483S608.475,962.926,476.206,962.926c-132.271,0-239.495-107.225-239.495-239.492
			S343.935,483.951,476.206,483.951z"/>
		<path fill="#FFFFFF" d="M482.045,723.433c0,3.224-2.615,5.838-5.84,5.838l0,0c-3.227,0-5.84-2.615-5.84-5.838l0,0
			c0-3.224,2.615-5.838,5.84-5.838l0,0C479.431,717.595,482.045,720.208,482.045,723.433L482.045,723.433z"/>
		<text class="A_verbose" transform="matrix(1 0 0 1 506.1655 713.1367)" fill="#FFFFFF" font-family="'Verdana'" font-size="34.0542">E</text>
	</g>
	<g id="A_SVGStep6">
		<circle fill="none" stroke="#FFFFFF" stroke-width="2" stroke-miterlimit="10" cx="683.598" cy="603.74" r="239.492"/>
		<path fill="#FFFFFF" d="M689.436,603.739c0,3.224-2.615,5.838-5.838,5.838l0,0c-3.225,0-5.84-2.615-5.84-5.838l0,0
			c0-3.225,2.617-5.838,5.84-5.838l0,0C686.821,597.901,689.436,600.515,689.436,603.739L689.436,603.739z"/>
		<text class="A_verbose" transform="matrix(1 0 0 1 715.6987 592.7891)" fill="#FFFFFF" font-family="'Verdana'" font-size="34.0542">F</text>
	</g>
	<g id="A_SVGStep7">
		<circle fill="none" stroke="#FFFFFF" stroke-width="2" stroke-miterlimit="10" cx="683.598" cy="364.248" r="239.492"/>
		<path fill="#FFFFFF" d="M689.436,364.248c0,3.224-2.615,5.838-5.838,5.838l0,0c-3.225,0-5.84-2.615-5.84-5.838l0,0
			c0-3.224,2.617-5.837,5.84-5.837l0,0C686.821,358.41,689.436,361.023,689.436,364.248L689.436,364.248z"/>
		<text class="A_verbose" transform="matrix(1 0 0 1 711.8608 352.6064)" fill="#FFFFFF" font-family="'Verdana'" font-size="34.0542">G</text>
	</g>
	<g id="A_SVGStep8">
		<circle fill="none" stroke="#FFFFFF" stroke-width="2" stroke-miterlimit="10" cx="268.679" cy="124.754" r="239.493"/>
		<path fill="#FFFFFF" d="M274.517,124.755c0,3.224-2.613,5.838-5.838,5.838l0,0c-3.223,0-5.838-2.615-5.838-5.838l0,0
			c0-3.224,2.617-5.838,5.838-5.838l0,0C271.903,118.917,274.517,121.53,274.517,124.755L274.517,124.755z"/>
		<text class="A_verbose" transform="matrix(1 0 0 1 300.7471 112.9131)" fill="#FFFFFF" font-family="'Verdana'" font-size="34.0542">H</text>
	</g>
	<g id="A_SVGStep9">
		<circle fill="none" stroke="#FFFFFF" stroke-width="2" stroke-miterlimit="10" cx="61.262" cy="483.993" r="239.493"/>
		<path fill="#FFFFFF" d="M67.099,483.994c0,3.224-2.613,5.838-5.837,5.838l0,0c-3.223,0-5.838-2.615-5.838-5.838l0,0
			c0-3.225,2.616-5.838,5.838-5.838l0,0C64.486,478.156,67.099,480.769,67.099,483.994L67.099,483.994z"/>
		<text class="A_verbose" transform="matrix(1 0 0 1 95.0557 472.6421)" fill="#FFFFFF" font-family="'Verdana'" font-size="34.0542">I</text>
	</g>
	<g id="A_SVGStep10">
		<path fill="none" stroke="#FFFFFF" stroke-width="2" stroke-miterlimit="10" d="M268.78,603.738
			c132.269,0,239.483,107.225,239.483,239.493c0,132.27-107.214,239.494-239.483,239.494
			c-132.268,0-239.493-107.225-239.493-239.494C29.288,710.963,136.513,603.738,268.78,603.738z"/>
		<path fill="#FFFFFF" d="M274.618,843.233c0,3.223-2.613,5.838-5.837,5.838l0,0c-3.223,0-5.838-2.615-5.838-5.838l0,0
			c0-3.225,2.616-5.838,5.838-5.838l0,0C272.004,837.396,274.618,840.007,274.618,843.233L274.618,843.233z"/>
		<text class="A_verbose" transform="matrix(1 0 0 1 300.7554 832.7813)" fill="#FFFFFF" font-family="'Verdana'" font-size="34.0542">J</text>
	</g>
	<g id="A_SVGStep11">
		<path fill="none" stroke="#FFFFFF" stroke-width="2" stroke-miterlimit="10" d="M683.6,603.738
			c132.27,0,239.485,107.225,239.485,239.493c0,132.27-107.216,239.494-239.485,239.494c-132.268,0-239.492-107.225-239.492-239.494
			C444.108,710.963,551.333,603.738,683.6,603.738z"/>
		<path fill="#FFFFFF" d="M689.438,843.233c0,3.223-2.613,5.838-5.838,5.838l0,0c-3.223,0-5.838-2.615-5.838-5.838l0,0
			c0-3.225,2.617-5.838,5.838-5.838l0,0C686.825,837.396,689.438,840.007,689.438,843.233L689.438,843.233z"/>
		<text class="A_verbose" transform="matrix(1 0 0 1 713.6978 832.7813)" fill="#FFFFFF" font-family="'Verdana'" font-size="34.0542">K</text>
	</g>
	<g id="A_SVGStep12">
		<path fill="none" stroke="#FFFFFF" stroke-width="2" stroke-miterlimit="10" d="M891.09,244.5
			c132.271,0,239.485,107.225,239.485,239.493c0,132.269-107.215,239.494-239.485,239.494
			c-132.268,0-239.492-107.225-239.492-239.494C651.598,351.725,758.823,244.5,891.09,244.5z"/>
		<path fill="#FFFFFF" d="M896.928,483.996c0,3.223-2.613,5.838-5.838,5.838l0,0c-3.223,0-5.838-2.615-5.838-5.838l0,0
			c0-3.225,2.617-5.838,5.838-5.838l0,0C894.315,478.158,896.928,480.769,896.928,483.996L896.928,483.996z"/>
		<text class="A_verbose" transform="matrix(1 0 0 1 918.1851 475.6421)" fill="#FFFFFF" font-family="'Verdana'" font-size="34.0542">L</text>
	</g>
	<g id="A_SVGStep13">
		<path fill="none" stroke="#FFFFFF" stroke-width="2" stroke-miterlimit="10" d="M683.6-114.738
			c132.27,0,239.485,107.225,239.485,239.493c0,132.269-107.216,239.494-239.485,239.494
			c-132.268,0-239.492-107.225-239.492-239.494C444.108-7.514,551.333-114.738,683.6-114.738z"/>
		<path fill="#FFFFFF" d="M689.438,124.757c0,3.223-2.613,5.838-5.838,5.838l0,0c-3.223,0-5.838-2.615-5.838-5.838l0,0
			c0-3.225,2.617-5.838,5.838-5.838l0,0C686.825,118.919,689.438,121.53,689.438,124.757L689.438,124.757z"/>
		<text class="A_verbose" transform="matrix(1 0 0 1 713.7515 112.9131)" fill="#FFFFFF" font-family="'Verdana'" font-size="34.0542">M</text>
	</g>
	<g id="A_SVGStep14">
		<path fill="none" stroke="#FFFFFF" stroke-width="2" stroke-miterlimit="10" d="M476.13-234.487
			c132.27,0,239.485,107.225,239.485,239.493C715.616,137.275,608.4,244.5,476.13,244.5c-132.268,0-239.492-107.225-239.492-239.494
			C236.639-127.263,343.863-234.487,476.13-234.487z"/>
		<path fill="#FFFFFF" d="M481.968,5.008c0,3.223-2.613,5.838-5.838,5.838l0,0c-3.223,0-5.838-2.615-5.838-5.838l0,0
			c0-3.225,2.617-5.838,5.838-5.838l0,0C479.355-0.83,481.968,1.781,481.968,5.008L481.968,5.008z"/>
		<text class="A_verbose" transform="matrix(1 0 0 1 506.2661 -5.4458)" fill="#FFFFFF" font-family="'Verdana'" font-size="34.0542">N</text>
	</g>
	<g id="A_SVGStep15">
		<path fill="none" stroke="#FFFFFF" stroke-width="2" stroke-miterlimit="10" d="M61.262,5.004
			c132.27,0,239.485,107.225,239.485,239.493c0,132.269-107.216,239.494-239.485,239.494
			c-132.268,0-239.492-107.225-239.492-239.494C-178.23,112.229-71.006,5.004,61.262,5.004z"/>
		<path fill="#FFFFFF" d="M67.1,244.5c0,3.223-2.613,5.838-5.838,5.838l0,0c-3.223,0-5.838-2.615-5.838-5.838l0,0
			c0-3.225,2.617-5.838,5.838-5.838l0,0C64.486,238.662,67.1,241.273,67.1,244.5L67.1,244.5z"/>
		<text class="A_verbose" transform="matrix(1 0 0 1 89.2935 233.665)" fill="#FFFFFF" font-family="'Verdana'" font-size="34.0542">O</text>
	</g>
	<g id="A_SVGStep16">
		<path fill="none" stroke="#FFFFFF" stroke-width="2" stroke-miterlimit="10" d="M61.262,483.991
			c132.27,0,239.485,107.225,239.485,239.493S193.531,962.978,61.262,962.978c-132.268,0-239.492-107.225-239.492-239.493
			S-71.006,483.991,61.262,483.991z"/>
		<path fill="#FFFFFF" d="M67.1,723.486c0,3.223-2.613,5.838-5.838,5.838l0,0c-3.223,0-5.838-2.615-5.838-5.838l0,0
			c0-3.225,2.617-5.838,5.838-5.838l0,0C64.486,717.648,67.1,720.26,67.1,723.486L67.1,723.486z"/>
		<text class="A_verbose" transform="matrix(1 0 0 1 99.0557 711.0371)" fill="#FFFFFF" font-family="'Verdana'" font-size="34.0542">P</text>
	</g>
	<g id="A_SVGStep17">
		<path fill="none" stroke="#FFFFFF" stroke-width="2" stroke-miterlimit="10" d="M476.206,723.431
			c132.27,0,239.485,107.225,239.485,239.493s-107.216,239.493-239.485,239.493c-132.268,0-239.492-107.225-239.492-239.493
			S343.938,723.431,476.206,723.431z"/>
		<path fill="#FFFFFF" d="M482.043,962.926c0,3.223-2.613,5.838-5.838,5.838l0,0c-3.223,0-5.838-2.615-5.838-5.838l0,0
			c0-3.225,2.617-5.838,5.838-5.838l0,0C479.43,957.088,482.043,959.699,482.043,962.926L482.043,962.926z"/>
		<text class="A_verbose" transform="matrix(1 0 0 1 506.6001 947.5879)" fill="#FFFFFF" font-family="'Verdana'" font-size="34.0542">Q</text>
	</g>
	<g id="A_SVGStep18">
		<path fill="none" stroke="#FFFFFF" stroke-width="2" stroke-miterlimit="10" d="M891.09,483.992
			c132.27,0,239.485,107.225,239.485,239.493S1023.36,962.979,891.09,962.979c-132.268,0-239.491-107.225-239.491-239.493
			S758.823,483.992,891.09,483.992z"/>
		<path fill="#FFFFFF" d="M896.928,723.487c0,3.223-2.613,5.838-5.838,5.838l0,0c-3.223,0-5.838-2.615-5.838-5.838l0,0
			c0-3.225,2.617-5.838,5.838-5.838l0,0C894.315,717.649,896.928,720.261,896.928,723.487L896.928,723.487z"/>
		<text class="A_verbose" transform="matrix(1 0 0 1 917.1851 714.0371)" fill="#FFFFFF" font-family="'Verdana'" font-size="34.0542">R</text>
	</g>
	<g id="A_SVGStep19">
		<path fill="none" stroke="#FFFFFF" stroke-width="2" stroke-miterlimit="10" d="M891.046,5.007
			c132.27,0,239.485,107.225,239.485,239.493s-107.216,239.493-239.485,239.493c-132.268,0-239.491-107.225-239.491-239.493
			S758.779,5.007,891.046,5.007z"/>
		<path fill="#FFFFFF" d="M896.884,244.502c0,3.223-2.613,5.838-5.838,5.838l0,0c-3.223,0-5.838-2.615-5.838-5.838l0,0
			c0-3.225,2.617-5.838,5.838-5.838l0,0C894.271,238.665,896.884,241.276,896.884,244.502L896.884,244.502z"/>
		<text class="A_verbose" transform="matrix(1 0 0 1 918.3394 234.6665)" fill="#FFFFFF" font-family="'Verdana'" font-size="34.0542">S</text>
	</g>
	<g id="A_SVGStep20">
		<path fill="none" stroke="#FFFFFF" stroke-width="2" stroke-miterlimit="10" d="M268.679-354.234
			c132.27,0,239.485,107.225,239.485,239.493c0,132.269-107.215,239.494-239.485,239.494
			c-132.268,0-239.492-107.225-239.492-239.494C29.187-247.01,136.411-354.234,268.679-354.234z"/>
		<path fill="#FFFFFF" d="M274.517-114.739c0,3.223-2.613,5.838-5.838,5.838l0,0c-3.223,0-5.838-2.615-5.838-5.838l0,0
			c0-3.225,2.617-5.838,5.838-5.838l0,0C271.903-120.577,274.517-117.966,274.517-114.739L274.517-114.739z"/>
		<text class="A_verbose" transform="matrix(1 0 0 1 301.7554 -125.1909)" fill="#FFFFFF" font-family="'Verdana'" font-size="34.0542">T</text>
	</g>
	<g id="A_SVGStep21">
		<path fill="none" stroke="#FFFFFF" stroke-width="2" stroke-miterlimit="10" d="M61.262-234.491
			c132.27,0,239.485,107.225,239.485,239.493c0,132.269-107.215,239.494-239.485,239.494
			c-132.268,0-239.492-107.225-239.492-239.494C-178.23-127.266-71.006-234.491,61.262-234.491z"/>
		<path fill="#FFFFFF" d="M67.1,5.004c0,3.223-2.613,5.838-5.838,5.838l0,0c-3.223,0-5.838-2.615-5.838-5.838l0,0
			c0-3.225,2.617-5.838,5.838-5.838l0,0C64.486-0.833,67.1,1.778,67.1,5.004L67.1,5.004z"/>
		<text class="A_verbose" transform="matrix(1 0 0 1 96.0557 -7.4458)" fill="#FFFFFF" font-family="'Verdana'" font-size="34.0542">U</text>
	</g>
	<g id="A_SVGStep22">
		<path fill="none" stroke="#FFFFFF" stroke-width="2" stroke-miterlimit="10" d="M-146.192,124.754
			c132.27,0,239.485,107.225,239.485,239.493c0,132.269-107.215,239.494-239.485,239.494
			c-132.268,0-239.492-107.225-239.492-239.494C-385.684,231.979-278.459,124.754-146.192,124.754z"/>
		<path fill="#FFFFFF" d="M-140.354,364.249c0,3.223-2.613,5.838-5.838,5.838l0,0c-3.223,0-5.838-2.615-5.838-5.838l0,0
			c0-3.225,2.617-5.838,5.838-5.838l0,0C-142.967,358.411-140.354,361.022-140.354,364.249L-140.354,364.249z"/>
		<text class="A_verbose" transform="matrix(1 0 0 1 -111.7441 353.6064)" fill="#FFFFFF" font-family="'Verdana'" font-size="34.0542">V</text>
	</g>
	<g id="A_SVGStep23">
		<path fill="none" stroke="#FFFFFF" stroke-width="2" stroke-miterlimit="10" d="M-146.192,364.246
			c132.27,0,239.485,107.225,239.485,239.493c0,132.27-107.215,239.494-239.485,239.494c-132.268,0-239.492-107.225-239.492-239.494
			C-385.684,471.471-278.459,364.246-146.192,364.246z"/>
		<path fill="#FFFFFF" d="M-140.354,603.741c0,3.223-2.613,5.838-5.838,5.838l0,0c-3.223,0-5.838-2.615-5.838-5.838l0,0
			c0-3.225,2.617-5.838,5.838-5.838l0,0C-142.967,597.903-140.354,600.515-140.354,603.741L-140.354,603.741z"/>
		<text class="A_verbose" transform="matrix(1 0 0 1 -106.8984 587.7891)" fill="#FFFFFF" font-family="'Verdana'" font-size="34.0542">W</text>
	</g>
	<g id="A_SVGStep24">
		<path fill="none" stroke="#FFFFFF" stroke-width="2" stroke-miterlimit="10" d="M61.262,723.482
			c132.27,0,239.485,107.225,239.485,239.493c0,132.27-107.215,239.494-239.485,239.494c-132.268,0-239.492-107.225-239.492-239.494
			C-178.23,830.707-71.006,723.482,61.262,723.482z"/>
		<path fill="#FFFFFF" d="M67.1,962.978c0,3.223-2.613,5.838-5.838,5.838l0,0c-3.223,0-5.838-2.615-5.838-5.838l0,0
			c0-3.225,2.617-5.838,5.838-5.838l0,0C64.486,957.14,67.1,959.751,67.1,962.978L67.1,962.978z"/>
		<text class="A_verbose" transform="matrix(1 0 0 1 99.0557 948.5879)" fill="#FFFFFF" font-family="'Verdana'" font-size="34.0542">X</text>
	</g>
	<g id="A_SVGStep25">
		<path fill="none" stroke="#FFFFFF" stroke-width="2" stroke-miterlimit="10" d="M268.78,843.23
			c132.27,0,239.485,107.225,239.485,239.493c0,132.27-107.215,239.494-239.485,239.494c-132.268,0-239.492-107.225-239.492-239.494
			C29.289,950.455,136.513,843.23,268.78,843.23z"/>
		<path fill="#FFFFFF" d="M274.618,1082.726c0,3.223-2.613,5.838-5.838,5.838l0,0c-3.223,0-5.838-2.615-5.838-5.838l0,0
			c0-3.225,2.617-5.838,5.838-5.838l0,0C272.005,1076.888,274.618,1079.499,274.618,1082.726L274.618,1082.726z"/>
		<text class="A_verbose" transform="matrix(1 0 0 1 300.7554 1071.8877)" fill="#FFFFFF" font-family="'Verdana'" font-size="34.0542">Y</text>
	</g>
	<g id="A_SVGStep26">
		<path fill="none" stroke="#FFFFFF" stroke-width="2" stroke-miterlimit="10" d="M683.6,843.23
			c132.27,0,239.485,107.225,239.485,239.493c0,132.27-107.216,239.494-239.485,239.494c-132.268,0-239.492-107.225-239.492-239.494
			C444.108,950.455,551.333,843.23,683.6,843.23z"/>
		<path fill="#FFFFFF" d="M689.438,1082.726c0,3.223-2.613,5.838-5.838,5.838l0,0c-3.223,0-5.838-2.615-5.838-5.838l0,0
			c0-3.225,2.617-5.838,5.838-5.838l0,0C686.825,1076.888,689.438,1079.499,689.438,1082.726L689.438,1082.726z"/>
		<text class="A_verbose" transform="matrix(1 0 0 1 712.7515 1071.8877)" fill="#FFFFFF" font-family="'Verdana'" font-size="34.0542">Z</text>
	</g>
	<g id="A_SVGStep27">
		<path fill="none" stroke="#FFFFFF" stroke-width="2" stroke-miterlimit="10" d="M891.09,723.483
			c132.27,0,239.485,107.225,239.485,239.493c0,132.27-107.216,239.494-239.485,239.494c-132.268,0-239.491-107.225-239.491-239.494
			C651.599,830.708,758.823,723.483,891.09,723.483z"/>
		<path fill="#FFFFFF" d="M896.928,962.979c0,3.223-2.613,5.838-5.838,5.838l0,0c-3.223,0-5.838-2.615-5.838-5.838l0,0
			c0-3.225,2.617-5.838,5.838-5.838l0,0C894.315,957.141,896.928,959.752,896.928,962.979L896.928,962.979z"/>
		<text class="A_verbose" transform="matrix(1 0 0 1 912.8853 955.0879)" fill="#FFFFFF" font-family="'Verdana'" font-size="34.0542">A’</text>
	</g>
	<g id="A_SVGStep28">
		<path fill="none" stroke="#FFFFFF" stroke-width="2" stroke-miterlimit="10" d="M1098.527,364.246
			c132.27,0,239.485,107.225,239.485,239.493c0,132.27-107.216,239.494-239.485,239.494c-132.268,0-239.491-107.225-239.491-239.494
			C859.036,471.471,966.259,364.246,1098.527,364.246z"/>
		<path fill="#FFFFFF" d="M1104.365,603.741c0,3.223-2.613,5.838-5.838,5.838l0,0c-3.223,0-5.838-2.615-5.838-5.838l0,0
			c0-3.225,2.617-5.838,5.838-5.838l0,0C1101.751,597.903,1104.365,600.515,1104.365,603.741L1104.365,603.741z"/>
		<text class="A_verbose" transform="matrix(1 0 0 1 1123.9272 595.7891)" fill="#FFFFFF" font-family="'Verdana'" font-size="34.0542">B’</text>
	</g>
	<g id="A_SVGStep29">
		<path fill="none" stroke="#FFFFFF" stroke-width="2" stroke-miterlimit="10" d="M1098.527,124.751
			c132.27,0,239.485,107.225,239.485,239.493c0,132.27-107.216,239.494-239.485,239.494c-132.268,0-239.491-107.225-239.491-239.494
			C859.036,231.976,966.259,124.751,1098.527,124.751z"/>
		<path fill="#FFFFFF" d="M1104.365,364.246c0,3.223-2.613,5.838-5.838,5.838l0,0c-3.223,0-5.838-2.615-5.838-5.838l0,0
			c0-3.225,2.617-5.838,5.838-5.838l0,0C1101.751,358.408,1104.365,361.02,1104.365,364.246L1104.365,364.246z"/>
		<text class="A_verbose" transform="matrix(1 0 0 1 1120.5278 355.6064)" fill="#FFFFFF" font-family="'Verdana'" font-size="34.0542">C’</text>
	</g>
	<g id="A_SVGStep30">
		<path fill="none" stroke="#FFFFFF" stroke-width="2" stroke-miterlimit="10" d="M891.046-234.488
			c132.27,0,239.485,107.225,239.485,239.493c0,132.27-107.216,239.494-239.485,239.494c-132.268,0-239.491-107.225-239.491-239.494
			C651.555-127.263,758.779-234.488,891.046-234.488z"/>
		<path fill="#FFFFFF" d="M896.884,5.007c0,3.223-2.613,5.838-5.838,5.838l0,0c-3.223,0-5.838-2.615-5.838-5.838l0,0
			c0-3.225,2.617-5.838,5.838-5.838l0,0C894.271-0.831,896.884,1.781,896.884,5.007L896.884,5.007z"/>
		<text class="A_verbose" transform="matrix(1 0 0 1 921.0854 -5.4458)" fill="#FFFFFF" font-family="'Verdana'" font-size="34.0542">D’</text>
	</g>
	<g id="A_SVGStep31">
		<path fill="none" stroke="#FFFFFF" stroke-width="2" stroke-miterlimit="10" d="M683.6-354.233
			c132.27,0,239.485,107.225,239.485,239.493c0,132.27-107.216,239.494-239.485,239.494c-132.268,0-239.491-107.225-239.491-239.494
			C444.109-247.009,551.333-354.233,683.6-354.233z"/>
		<path fill="#FFFFFF" d="M689.438-114.738c0,3.223-2.613,5.838-5.838,5.838l0,0c-3.223,0-5.838-2.615-5.838-5.838l0,0
			c0-3.225,2.617-5.838,5.838-5.838l0,0C686.825-120.576,689.438-117.965,689.438-114.738L689.438-114.738z"/>
		<text class="A_verbose" transform="matrix(1 0 0 1 716.894 -127.1909)" fill="#FFFFFF" font-family="'Verdana'" font-size="34.0542">E’</text>
	</g>
	<g id="A_SVGStep32">
		<path fill="none" stroke="#FFFFFF" stroke-width="2" stroke-miterlimit="10" d="M476.13-473.982
			c132.27,0,239.485,107.225,239.485,239.493C715.616-102.22,608.4,5.005,476.13,5.005c-132.268,0-239.491-107.225-239.491-239.494
			C236.639-366.758,343.863-473.982,476.13-473.982z"/>
		<path fill="#FFFFFF" d="M481.968-234.487c0,3.223-2.613,5.838-5.838,5.838l0,0c-3.223,0-5.838-2.615-5.838-5.838l0,0
			c0-3.225,2.617-5.838,5.838-5.838l0,0C479.355-240.325,481.968-237.714,481.968-234.487L481.968-234.487z"/>
		<text class="A_verbose" transform="matrix(1 0 0 1 507.1636 -244.4404)" fill="#FFFFFF" font-family="'Verdana'" font-size="34.0542">F’</text>
	</g>
	<g id="A_SVGStep33">
		<path fill="none" stroke="#FFFFFF" stroke-width="2" stroke-miterlimit="10" d="M61.262-473.986
			c132.27,0,239.485,107.225,239.485,239.493c0,132.27-107.216,239.494-239.485,239.494c-132.268,0-239.491-107.225-239.491-239.494
			C-178.229-366.761-71.006-473.986,61.262-473.986z"/>
		<path fill="#FFFFFF" d="M67.1-234.491c0,3.223-2.613,5.838-5.838,5.838l0,0c-3.223,0-5.838-2.615-5.838-5.838l0,0
			c0-3.225,2.617-5.838,5.838-5.838l0,0C64.486-240.329,67.1-237.717,67.1-234.491L67.1-234.491z"/>
		<text class="A_verbose" transform="matrix(1 0 0 1 89.2935 -241.4404)" fill="#FFFFFF" font-family="'Verdana'" font-size="34.0542">G’</text>
	</g>
	<g id="A_SVGStep34">
		<path fill="none" stroke="#FFFFFF" stroke-width="2" stroke-miterlimit="10" d="M-146.192-114.741
			c132.27,0,239.485,107.225,239.485,239.493c0,132.27-107.216,239.494-239.485,239.494c-132.268,0-239.491-107.225-239.491-239.494
			C-385.683-7.517-278.459-114.741-146.192-114.741z"/>
		<path fill="#FFFFFF" d="M-140.354,124.754c0,3.223-2.613,5.838-5.838,5.838l0,0c-3.223,0-5.838-2.615-5.838-5.838l0,0
			c0-3.225,2.617-5.838,5.838-5.838l0,0C-142.967,118.916-140.354,121.527-140.354,124.754L-140.354,124.754z"/>
		<text class="A_verbose" transform="matrix(1 0 0 1 -112.7441 112.6133)" fill="#FFFFFF" font-family="'Verdana'" font-size="34.0542">H’</text>
	</g>
	<g id="A_SVGStep35">
		<path fill="none" stroke="#FFFFFF" stroke-width="2" stroke-miterlimit="10" d="M-353.629,244.502
			c132.27,0,239.485,107.225,239.485,239.493c0,132.27-107.216,239.494-239.485,239.494c-132.268,0-239.491-107.225-239.491-239.494
			C-593.121,351.727-485.897,244.502-353.629,244.502z"/>
		<path fill="#FFFFFF" d="M-347.792,483.997c0,3.223-2.613,5.838-5.838,5.838l0,0c-3.223,0-5.838-2.615-5.838-5.838l0,0
			c0-3.225,2.617-5.838,5.838-5.838l0,0C-350.405,478.159-347.792,480.771-347.792,483.997L-347.792,483.997z"/>
		<text class="A_verbose" transform="matrix(1 0 0 1 -320.3359 472.6421)" fill="#FFFFFF" font-family="'Verdana'" font-size="34.0542">I’</text>
	</g>
	<g id="A_SVGStep36">
		<path fill="none" stroke="#FFFFFF" stroke-width="2" stroke-miterlimit="10" d="M-146.192,603.738
			c132.27,0,239.485,107.225,239.485,239.493c0,132.27-107.216,239.494-239.485,239.494c-132.268,0-239.491-107.225-239.491-239.494
			C-385.683,710.963-278.459,603.738-146.192,603.738z"/>
		<path fill="#FFFFFF" d="M-140.354,843.233c0,3.223-2.613,5.838-5.838,5.838l0,0c-3.223,0-5.838-2.615-5.838-5.838l0,0
			c0-3.225,2.617-5.838,5.838-5.838l0,0C-142.967,837.396-140.354,840.007-140.354,843.233L-140.354,843.233z"/>
		<text class="A_verbose" transform="matrix(1 0 0 1 -114.144 832.7813)" fill="#FFFFFF" font-family="'Verdana'" font-size="34.0542">J’</text>
	</g>
	<g id="A_SVGStep37">
		<path fill="none" stroke="#FFFFFF" stroke-width="2" stroke-miterlimit="10" d="M61.262,962.975
			c132.27,0,239.485,107.225,239.485,239.493c0,132.27-107.216,239.494-239.485,239.494c-132.268,0-239.491-107.225-239.491-239.494
			C-178.229,1070.199-71.006,962.975,61.262,962.975z"/>
		<path fill="#FFFFFF" d="M67.1,1202.47c0,3.223-2.613,5.838-5.838,5.838l0,0c-3.223,0-5.838-2.615-5.838-5.838l0,0
			c0-3.225,2.617-5.838,5.838-5.838l0,0C64.486,1196.632,67.1,1199.243,67.1,1202.47L67.1,1202.47z"/>
		<text class="A_verbose" transform="matrix(1 0 0 1 99.0557 1188.0176)" fill="#FFFFFF" font-family="'Verdana'" font-size="34.0542">J’</text>
	</g>
	<g id="A_SVGStep38">
		<path fill="none" stroke="#FFFFFF" stroke-width="2" stroke-miterlimit="10" d="M476.206,962.922
			c132.27,0,239.485,107.225,239.485,239.493c0,132.27-107.216,239.494-239.485,239.494c-132.268,0-239.491-107.225-239.491-239.494
			C236.714,1070.146,343.938,962.922,476.206,962.922z"/>
		<path fill="#FFFFFF" d="M482.043,1202.417c0,3.223-2.613,5.838-5.838,5.838l0,0c-3.223,0-5.838-2.615-5.838-5.838l0,0
			c0-3.225,2.617-5.838,5.838-5.838l0,0C479.43,1196.579,482.043,1199.19,482.043,1202.417L482.043,1202.417z"/>
		<text class="A_verbose" transform="matrix(1 0 0 1 510.2671 1188.0176)" fill="#FFFFFF" font-family="'Verdana'" font-size="34.0542">K’</text>
	</g>
	<g id="A_SVGStep39">
		<path fill="none" stroke="#FFFFFF" stroke-width="2" stroke-miterlimit="10" d="M891.09,962.976
			c132.27,0,239.485,107.225,239.485,239.493c0,132.27-107.216,239.494-239.485,239.494c-132.268,0-239.491-107.225-239.491-239.494
			C651.599,1070.2,758.823,962.976,891.09,962.976z"/>
		<path fill="#FFFFFF" d="M896.928,1202.471c0,3.223-2.613,5.838-5.838,5.838l0,0c-3.223,0-5.838-2.615-5.838-5.838l0,0
			c0-3.225,2.617-5.838,5.838-5.838l0,0C894.315,1196.633,896.928,1199.244,896.928,1202.471L896.928,1202.471z"/>
		<text class="A_verbose" transform="matrix(1 0 0 1 910.8853 1195.5791)" fill="#FFFFFF" font-family="'Verdana'" font-size="34.0542">L’</text>
	</g>
	<g id="A_SVGStep40">
		<path fill="none" stroke="#FFFFFF" stroke-width="2" stroke-miterlimit="10" d="M1098.527,603.738
			c132.27,0,239.485,107.225,239.485,239.493c0,132.27-107.216,239.494-239.485,239.494c-132.268,0-239.491-107.225-239.491-239.494
			C859.036,710.963,966.259,603.738,1098.527,603.738z"/>
		<path fill="#FFFFFF" d="M1104.365,843.233c0,3.223-2.613,5.838-5.838,5.838l0,0c-3.223,0-5.838-2.615-5.838-5.838l0,0
			c0-3.225,2.617-5.838,5.838-5.838l0,0C1101.751,837.396,1104.365,840.007,1104.365,843.233L1104.365,843.233z"/>
		<text class="A_verbose" transform="matrix(1 0 0 1 1125.6274 833.3955)" fill="#FFFFFF" font-family="'Verdana'" font-size="34.0542">M’</text>
	</g>
	<g id="A_SVGStep41">
		<path fill="none" stroke="#FFFFFF" stroke-width="2" stroke-miterlimit="10" d="M1305.98,244.502
			c132.27,0,239.485,107.225,239.485,239.493c0,132.27-107.216,239.494-239.485,239.494c-132.268,0-239.491-107.225-239.491-239.494
			C1066.489,351.727,1173.712,244.502,1305.98,244.502z"/>
		<path fill="#FFFFFF" d="M1311.818,483.997c0,3.223-2.613,5.838-5.838,5.838l0,0c-3.223,0-5.838-2.615-5.838-5.838l0,0
			c0-3.225,2.617-5.838,5.838-5.838l0,0C1309.205,478.159,1311.818,480.771,1311.818,483.997L1311.818,483.997z"/>
		<text class="A_verbose" transform="matrix(1 0 0 1 1326.2769 474.2422)" fill="#FFFFFF" font-family="'Verdana'" font-size="34.0542">N’</text>
	</g>
	<g id="A_SVGStep42">
		<path fill="none" stroke="#FFFFFF" stroke-width="2" stroke-miterlimit="10" d="M1098.527-114.744
			c132.27,0,239.485,107.225,239.485,239.493c0,132.27-107.216,239.494-239.485,239.494c-132.268,0-239.491-107.225-239.491-239.494
			C859.036-7.52,966.259-114.744,1098.527-114.744z"/>
		<path fill="#FFFFFF" d="M1104.365,124.751c0,3.223-2.613,5.838-5.838,5.838l0,0c-3.223,0-5.838-2.615-5.838-5.838l0,0
			c0-3.225,2.617-5.838,5.838-5.838l0,0C1101.751,118.913,1104.365,121.524,1104.365,124.751L1104.365,124.751z"/>
		<text class="A_verbose" transform="matrix(1 0 0 1 1122.6274 116.9131)" fill="#FFFFFF" font-family="'Verdana'" font-size="34.0542">O’</text>
	</g>
	<g id="A_SVGStep43">
		<path fill="none" stroke="#FFFFFF" stroke-width="2" stroke-miterlimit="10" d="M891.046-473.983
			c132.27,0,239.485,107.225,239.485,239.493c0,132.27-107.216,239.494-239.485,239.494c-132.268,0-239.491-107.225-239.491-239.494
			C651.555-366.758,758.779-473.983,891.046-473.983z"/>
		<path fill="#FFFFFF" d="M896.884-234.488c0,3.223-2.613,5.838-5.838,5.838l0,0c-3.223,0-5.838-2.615-5.838-5.838l0,0
			c0-3.225,2.617-5.838,5.838-5.838l0,0C894.271-240.326,896.884-237.714,896.884-234.488L896.884-234.488z"/>
		<text class="A_verbose" transform="matrix(1 0 0 1 919.0854 -239.3286)" fill="#FFFFFF" font-family="'Verdana'" font-size="34.0542">P’</text>
	</g>
	<g id="A_SVGStep44">
		<path fill="none" stroke="#FFFFFF" stroke-width="2" stroke-miterlimit="10" d="M268.679-593.729
			c132.27,0,239.485,107.225,239.485,239.493c0,132.27-107.215,239.494-239.485,239.494c-132.268,0-239.491-107.225-239.491-239.494
			C29.188-486.505,136.411-593.729,268.679-593.729z"/>
		<path fill="#FFFFFF" d="M274.517-354.234c0,3.223-2.613,5.838-5.838,5.838l0,0c-3.223,0-5.838-2.615-5.838-5.838l0,0
			c0-3.225,2.617-5.838,5.838-5.838l0,0C271.903-360.072,274.517-357.461,274.517-354.234L274.517-354.234z"/>
		<text class="A_verbose" transform="matrix(1 0 0 1 299.7471 -361.0723)" fill="#FFFFFF" font-family="'Verdana'" font-size="34.0542">Q’</text>
	</g>
	<g id="A_SVGStep45">
		<path fill="none" stroke="#FFFFFF" stroke-width="2" stroke-miterlimit="10" d="M-146.192-354.236
			c132.27,0,239.485,107.225,239.485,239.493c0,132.27-107.215,239.494-239.485,239.494c-132.268,0-239.491-107.225-239.491-239.494
			C-385.683-247.012-278.459-354.236-146.192-354.236z"/>
		<path fill="#FFFFFF" d="M-140.354-114.741c0,3.223-2.613,5.838-5.838,5.838l0,0c-3.223,0-5.838-2.615-5.838-5.838l0,0
			c0-3.225,2.617-5.838,5.838-5.838l0,0C-142.967-120.579-140.354-117.968-140.354-114.741L-140.354-114.741z"/>
		<text class="A_verbose" transform="matrix(1 0 0 1 -116.7441 -121.1909)" fill="#FFFFFF" font-family="'Verdana'" font-size="34.0542">R’</text>
	</g>
	<g id="A_SVGStep46">
		<path fill="none" stroke="#FFFFFF" stroke-width="2" stroke-miterlimit="10" d="M-353.629,5.007
			c132.27,0,239.485,107.225,239.485,239.493c0,132.27-107.215,239.494-239.485,239.494c-132.268,0-239.491-107.225-239.491-239.494
			C-593.121,112.231-485.897,5.007-353.629,5.007z"/>
		<path fill="#FFFFFF" d="M-347.792,244.502c0,3.223-2.613,5.838-5.838,5.838l0,0c-3.223,0-5.838-2.615-5.838-5.838l0,0
			c0-3.225,2.617-5.838,5.838-5.838l0,0C-350.405,238.664-347.792,241.275-347.792,244.502L-347.792,244.502z"/>
		<text class="A_verbose" transform="matrix(1 0 0 1 -322.8354 233.0493)" fill="#FFFFFF" font-family="'Verdana'" font-size="34.0542">S’</text>
	</g>
	<g id="A_SVGStep47">
		<path fill="none" stroke="#FFFFFF" stroke-width="2" stroke-miterlimit="10" d="M-353.629,483.994
			c132.27,0,239.485,107.225,239.485,239.493c0,132.27-107.215,239.494-239.485,239.494c-132.268,0-239.491-107.225-239.491-239.494
			C-593.121,591.219-485.897,483.994-353.629,483.994z"/>
		<path fill="#FFFFFF" d="M-347.792,723.489c0,3.223-2.613,5.838-5.838,5.838l0,0c-3.223,0-5.838-2.615-5.838-5.838l0,0
			c0-3.225,2.617-5.838,5.838-5.838l0,0C-350.405,717.651-347.792,720.263-347.792,723.489L-347.792,723.489z"/>
		<text class="A_verbose" transform="matrix(1 0 0 1 -317.3359 711.1367)" fill="#FFFFFF" font-family="'Verdana'" font-size="34.0542">T’</text>
	</g>
	<g id="A_SVGStep48">
		<path fill="none" stroke="#FFFFFF" stroke-width="2" stroke-miterlimit="10" d="M-146.192,843.23
			c132.27,0,239.485,107.225,239.485,239.493c0,132.27-107.215,239.494-239.485,239.494c-132.268,0-239.491-107.225-239.491-239.494
			C-385.683,950.455-278.459,843.23-146.192,843.23z"/>
		<path fill="#FFFFFF" d="M-140.354,1082.726c0,3.223-2.613,5.838-5.838,5.838l0,0c-3.223,0-5.838-2.615-5.838-5.838l0,0
			c0-3.225,2.617-5.838,5.838-5.838l0,0C-142.967,1076.888-140.354,1079.499-140.354,1082.726L-140.354,1082.726z"/>
		<text class="A_verbose" transform="matrix(1 0 0 1 -114.144 1071.8877)" fill="#FFFFFF" font-family="'Verdana'" font-size="34.0542">U’</text>
	</g>
	<g id="A_SVGStep49">
		<path fill="none" stroke="#FFFFFF" stroke-width="2" stroke-miterlimit="10" d="M268.78,1082.723
			c132.27,0,239.485,107.225,239.485,239.493c0,132.27-107.215,239.494-239.485,239.494c-132.268,0-239.491-107.225-239.491-239.494
			C29.289,1189.947,136.513,1082.723,268.78,1082.723z"/>
		<path fill="#FFFFFF" d="M274.618,1322.218c0,3.223-2.613,5.838-5.838,5.838l0,0c-3.223,0-5.838-2.615-5.838-5.838l0,0
			c0-3.225,2.617-5.838,5.838-5.838l0,0C272.005,1316.38,274.618,1318.991,274.618,1322.218L274.618,1322.218z"/>
		<text class="A_verbose" transform="matrix(1 0 0 1 300.7471 1311.2656)" fill="#FFFFFF" font-family="'Verdana'" font-size="34.0542">V’</text>
	</g>
	<g id="A_SVGStep50">
		<path fill="none" stroke="#FFFFFF" stroke-width="2" stroke-miterlimit="10" d="M683.6,1082.723
			c132.27,0,239.485,107.225,239.485,239.493c0,132.27-107.216,239.494-239.485,239.494c-132.268,0-239.491-107.225-239.491-239.494
			C444.109,1189.947,551.333,1082.723,683.6,1082.723z"/>
		<path fill="#FFFFFF" d="M689.438,1322.218c0,3.223-2.613,5.838-5.838,5.838l0,0c-3.223,0-5.838-2.615-5.838-5.838l0,0
			c0-3.225,2.617-5.838,5.838-5.838l0,0C686.825,1316.38,689.438,1318.991,689.438,1322.218L689.438,1322.218z"/>
		<text class="A_verbose" transform="matrix(1 0 0 1 705.6157 1311.2656)" fill="#FFFFFF" font-family="'Verdana'" font-size="34.0542">W’</text>
	</g>
	<g id="A_SVGStep51">
		<path fill="none" stroke="#FFFFFF" stroke-width="2" stroke-miterlimit="10" d="M1098.527,843.23
			c132.27,0,239.485,107.225,239.485,239.493c0,132.27-107.216,239.494-239.485,239.494c-132.268,0-239.491-107.225-239.491-239.494
			C859.036,950.455,966.259,843.23,1098.527,843.23z"/>
		<path fill="#FFFFFF" d="M1104.365,1082.726c0,3.223-2.613,5.838-5.838,5.838l0,0c-3.223,0-5.838-2.615-5.838-5.838l0,0
			c0-3.225,2.617-5.838,5.838-5.838l0,0C1101.751,1076.888,1104.365,1079.499,1104.365,1082.726L1104.365,1082.726z"/>
		<text class="A_verbose" transform="matrix(1 0 0 1 1120.5278 1071.8877)" fill="#FFFFFF" font-family="'Verdana'" font-size="34.0542">X’</text>
	</g>
	<g id="A_SVGStep52">
		<path fill="none" stroke="#FFFFFF" stroke-width="2" stroke-miterlimit="10" d="M1305.98,483.994
			c132.27,0,239.485,107.225,239.485,239.493c0,132.27-107.216,239.494-239.485,239.494c-132.268,0-239.491-107.225-239.491-239.494
			C1066.489,591.219,1173.712,483.994,1305.98,483.994z"/>
		<path fill="#FFFFFF" d="M1311.818,723.489c0,3.223-2.613,5.838-5.838,5.838l0,0c-3.223,0-5.838-2.615-5.838-5.838l0,0
			c0-3.225,2.617-5.838,5.838-5.838l0,0C1309.205,717.651,1311.818,720.263,1311.818,723.489L1311.818,723.489z"/>
		<text class="A_verbose" transform="matrix(1 0 0 1 1328.2769 714.0371)" fill="#FFFFFF" font-family="'Verdana'" font-size="34.0542">Y’</text>
	</g>
	<g id="A_SVGStep53">
		<path fill="none" stroke="#FFFFFF" stroke-width="2" stroke-miterlimit="10" d="M1305.98,5.007
			c132.27,0,239.485,107.225,239.485,239.493c0,132.27-107.216,239.494-239.485,239.494c-132.268,0-239.491-107.225-239.491-239.494
			C1066.489,112.231,1173.712,5.007,1305.98,5.007z"/>
		<path fill="#FFFFFF" d="M1311.818,244.502c0,3.223-2.613,5.838-5.838,5.838l0,0c-3.223,0-5.838-2.615-5.838-5.838l0,0
			c0-3.225,2.617-5.838,5.838-5.838l0,0C1309.205,238.664,1311.818,241.275,1311.818,244.502L1311.818,244.502z"/>
		<text class="A_verbose" transform="matrix(1 0 0 1 1328.2769 232.0493)" fill="#FFFFFF" font-family="'Verdana'" font-size="34.0542">Z’</text>
	</g>
	<g id="A_SVGStep54">
		<path fill="none" stroke="#FFFFFF" stroke-width="2" stroke-miterlimit="10" d="M1098.527-354.239
			c132.27,0,239.485,107.225,239.485,239.493c0,132.27-107.216,239.494-239.485,239.494c-132.268,0-239.491-107.225-239.491-239.494
			C859.036-247.015,966.259-354.239,1098.527-354.239z"/>
		<path fill="#FFFFFF" d="M1104.365-114.744c0,3.223-2.613,5.838-5.838,5.838l0,0c-3.223,0-5.838-2.615-5.838-5.838l0,0
			c0-3.225,2.617-5.838,5.838-5.838l0,0C1101.751-120.582,1104.365-117.971,1104.365-114.744L1104.365-114.744z"/>
		<text class="A_verbose" transform="matrix(1 0 0 1 1119.5278 -119.6816)" fill="#FFFFFF" font-family="'Verdana'" font-size="34.0542">A’’</text>
	</g>
	<g id="A_SVGStep55">
		<path fill="none" stroke="#FFFFFF" stroke-width="2" stroke-miterlimit="10" d="M683.6-593.729
			c132.27,0,239.485,107.225,239.485,239.493c0,132.27-107.216,239.494-239.485,239.494c-132.268,0-239.491-107.225-239.491-239.494
			C444.109-486.504,551.333-593.729,683.6-593.729z"/>
		<path fill="#FFFFFF" d="M689.438-354.233c0,3.223-2.613,5.838-5.838,5.838l0,0c-3.223,0-5.838-2.615-5.838-5.838l0,0
			c0-3.225,2.617-5.838,5.838-5.838l0,0C686.825-360.071,689.438-357.46,689.438-354.233L689.438-354.233z"/>
		<text class="A_verbose" transform="matrix(1 0 0 1 712.6987 -361.0723)" fill="#FFFFFF" font-family="'Verdana'" font-size="34.0542">B’’</text>
	</g>
	<g id="A_SVGStep56">
		<path fill="none" stroke="#FFFFFF" stroke-width="2" stroke-miterlimit="10" d="M476.13-713.478
			c132.27,0,239.485,107.225,239.485,239.493c0,132.27-107.216,239.494-239.485,239.494c-132.268,0-239.491-107.225-239.491-239.494
			C236.639-606.253,343.863-713.478,476.13-713.478z"/>
		<path fill="#FFFFFF" d="M481.968-473.982c0,3.223-2.613,5.838-5.838,5.838l0,0c-3.223,0-5.838-2.615-5.838-5.838l0,0
			c0-3.225,2.617-5.838,5.838-5.838l0,0C479.355-479.82,481.968-477.209,481.968-473.982L481.968-473.982z"/>
		<text class="A_verbose" transform="matrix(1 0 0 1 498.1646 -478.8203)" fill="#FFFFFF" font-family="'Verdana'" font-size="34.0542">C’’</text>
	</g>
	<g id="A_SVGStep57">
		<path fill="none" stroke="#FFFFFF" stroke-width="2" stroke-miterlimit="10" d="M-353.629-234.488
			c132.27,0,239.485,107.225,239.485,239.493c0,132.27-107.215,239.494-239.485,239.494c-132.268,0-239.491-107.225-239.491-239.494
			C-593.121-127.264-485.897-234.488-353.629-234.488z"/>
		<path fill="#FFFFFF" d="M-347.792,5.007c0,3.223-2.613,5.838-5.838,5.838l0,0c-3.223,0-5.838-2.615-5.838-5.838l0,0
			c0-3.225,2.617-5.838,5.838-5.838l0,0C-350.405-0.831-347.792,1.78-347.792,5.007L-347.792,5.007z"/>
		<text class="A_verbose" transform="matrix(1 0 0 1 -323.8354 -0.8301)" fill="#FFFFFF" font-family="'Verdana'" font-size="34.0542">D’’</text>
	</g>
	<g id="A_SVGStep58">
		<path fill="none" stroke="#FFFFFF" stroke-width="2" stroke-miterlimit="10" d="M-353.629,723.486
			c132.27,0,239.485,107.225,239.485,239.493c0,132.27-107.215,239.494-239.485,239.494c-132.268,0-239.491-107.225-239.491-239.494
			C-593.121,830.711-485.897,723.486-353.629,723.486z"/>
		<path fill="#FFFFFF" d="M-347.792,962.981c0,3.223-2.613,5.838-5.838,5.838l0,0c-3.223,0-5.838-2.615-5.838-5.838l0,0
			c0-3.225,2.617-5.838,5.838-5.838l0,0C-350.405,957.144-347.792,959.755-347.792,962.981L-347.792,962.981z"/>
		<text class="A_verbose" transform="matrix(1 0 0 1 -320.3359 948.6875)" fill="#FFFFFF" font-family="'Verdana'" font-size="34.0542">E’’</text>
	</g>
	<g id="A_SVGStep59">
		<path fill="none" stroke="#FFFFFF" stroke-width="2" stroke-miterlimit="10" d="M476.206,1202.414
			c132.27,0,239.485,107.225,239.485,239.493c0,132.27-107.216,239.494-239.485,239.494c-132.268,0-239.491-107.225-239.491-239.494
			C236.714,1309.639,343.938,1202.414,476.206,1202.414z"/>
		<path fill="#FFFFFF" d="M482.043,1441.909c0,3.223-2.613,5.838-5.838,5.838l0,0c-3.223,0-5.838-2.615-5.838-5.838l0,0
			c0-3.225,2.617-5.838,5.838-5.838l0,0C479.43,1436.071,482.043,1438.683,482.043,1441.909L482.043,1441.909z"/>
		<text class="A_verbose" transform="matrix(1 0 0 1 499.5005 1430.457)" fill="#FFFFFF" font-family="'Verdana'" font-size="34.0542">F’’</text>
	</g>
	<g id="A_SVGStep60">
		<path fill="none" stroke="#FFFFFF" stroke-width="2" stroke-miterlimit="10" d="M1305.98,723.486
			c132.27,0,239.485,107.225,239.485,239.493c0,132.27-107.216,239.494-239.485,239.494c-132.268,0-239.491-107.225-239.491-239.494
			C1066.489,830.711,1173.712,723.486,1305.98,723.486z"/>
		<path fill="#FFFFFF" d="M1311.818,962.981c0,3.223-2.613,5.838-5.838,5.838l0,0c-3.223,0-5.838-2.615-5.838-5.838l0,0
			c0-3.225,2.617-5.838,5.838-5.838l0,0C1309.205,957.144,1311.818,959.755,1311.818,962.981L1311.818,962.981z"/>
		<text class="A_verbose" transform="matrix(1 0 0 1 1326.0767 993.8291)" fill="#FFFFFF" font-family="'Verdana'" font-size="34.0542">G’’</text>
	</g>
	<g id="A_SVGStep61">
		<path fill="none" stroke="#FFFFFF" stroke-width="2" stroke-miterlimit="10" d="M1305.98-234.488
			c132.27,0,239.485,107.225,239.485,239.493c0,132.27-107.216,239.494-239.485,239.494c-132.268,0-239.491-107.225-239.491-239.494
			C1066.489-127.264,1173.712-234.488,1305.98-234.488z"/>
		<path fill="#FFFFFF" d="M1311.818,5.007c0,3.223-2.613,5.838-5.838,5.838l0,0c-3.223,0-5.838-2.615-5.838-5.838l0,0
			c0-3.225,2.617-5.838,5.838-5.838l0,0C1309.205-0.831,1311.818,1.78,1311.818,5.007L1311.818,5.007z"/>
		<text class="A_verbose" transform="matrix(1 0 0 1 1322.2769 -1.4458)" fill="#FFFFFF" font-family="'Verdana'" font-size="34.0542">G’’</text>
	</g>
</g>
</svg>
