<?xml version="1.0" encoding="utf-8"?>
<!-- Generator: Adobe Illustrator 16.0.0, SVG Export Plug-In . SVG Version: 6.00 Build 0)  -->
<!DOCTYPE svg PUBLIC "-//W3C//DTD SVG 1.1//EN" "http://www.w3.org/Graphics/SVG/1.1/DTD/svg11.dtd">
<svg version="1.1" id="A_detailTriquetra" xmlns="http://www.w3.org/2000/svg" xmlns:xlink="http://www.w3.org/1999/xlink"
	 x="0px" y="0px" width="1186px" height="791.064px" viewBox="0 0 1186 791.064" enable-background="new 0 0 1186 791.064"
	 xml:space="preserve">
<g id="A_SVGGroupSteps">
	<g id="A_SVGStep1">
		<path d="M692.114,753.776c-66.015,0-128.077-25.707-174.756-72.387c-46.679-46.68-72.387-108.742-72.387-174.757
			s25.708-128.077,72.387-174.756c46.679-46.679,108.741-72.386,174.756-72.386s128.078,25.708,174.757,72.386
			c46.68,46.679,72.387,108.742,72.387,174.756s-25.707,128.078-72.387,174.757C820.192,728.069,758.129,753.776,692.114,753.776z
			 M692.114,261.49c-135.172,0-245.143,109.971-245.143,245.143c0,135.173,109.971,245.144,245.143,245.144
			c135.173,0,245.144-109.971,245.144-245.144C937.258,371.461,827.287,261.49,692.114,261.49z"/>
		<g id="A_text" enable-background="new    ">
			<path d="M715.597,540.791h-3.606l-2.494-7.092H698.49l-2.496,7.092h-3.435l9.263-25.447h4.512L715.597,540.791z
				 M708.453,530.793l-4.461-12.492l-4.477,12.492H708.453z"/>
		</g>
		<path d="M698.115,506.633c0,3.313-2.688,6-6,6l0,0c-3.313,0-6-2.688-6-6l0,0c0-3.313,2.688-6,6-6l0,0
			C695.428,500.633,698.115,503.318,698.115,506.633L698.115,506.633z"/>
	</g>
	<g id="A_SVGStep2">
		<path d="M698.116,260.49c0,3.313-2.688,6-6,6l0,0c-3.313,0-6-2.688-6-6l0,0c0-3.314,2.688-6,6-6l0,0
			C695.429,254.49,698.116,257.176,698.116,260.49L698.116,260.49z"/>
		<g id="A_text" enable-background="new    ">
			<path d="M714.758,240.63c0,1.265-0.238,2.382-0.717,3.35c-0.479,0.969-1.123,1.767-1.932,2.393
				c-0.957,0.752-2.008,1.288-3.153,1.606c-1.145,0.319-2.601,0.479-4.366,0.479h-9.023V223.01h7.537
				c1.856,0,3.246,0.068,4.17,0.205c0.922,0.137,1.805,0.422,2.648,0.855c0.934,0.489,1.611,1.119,2.033,1.888
				c0.422,0.77,0.633,1.689,0.633,2.761c0,1.207-0.308,2.235-0.923,3.084c-0.615,0.85-1.436,1.529-2.461,2.043v0.137
				c1.72,0.353,3.076,1.107,4.067,2.264C714.263,237.403,714.758,238.864,714.758,240.63z M709.067,229.162
				c0-0.615-0.103-1.133-0.308-1.555c-0.205-0.421-0.535-0.763-0.991-1.025c-0.536-0.308-1.185-0.498-1.948-0.572
				s-1.709-0.111-2.837-0.111h-4.033v7.349h4.375c1.06,0,1.902-0.054,2.529-0.162c0.626-0.108,1.208-0.333,1.743-0.675
				s0.914-0.783,1.137-1.325C708.956,230.544,709.067,229.903,709.067,229.162z M711.238,240.767c0-1.025-0.154-1.84-0.462-2.444
				c-0.308-0.604-0.866-1.116-1.675-1.537c-0.547-0.285-1.211-0.471-1.991-0.556c-0.78-0.086-1.729-0.128-2.845-0.128h-5.315v9.467
				h4.478c1.48,0,2.694-0.076,3.641-0.23c0.945-0.153,1.72-0.436,2.324-0.846c0.637-0.444,1.104-0.951,1.4-1.521
				C711.09,242.401,711.238,241.667,711.238,240.767z"/>
		</g>
		<rect x="691.114" y="260.49" width="2" height="246.143"/>
	</g>
	<g id="A_SVGStep3">
		<path d="M692.114,507.634c-66.015,0-128.078-25.707-174.757-72.387c-46.679-46.679-72.387-108.742-72.387-174.757
			s25.708-128.078,72.387-174.757S626.1,13.346,692.114,13.346s128.078,25.708,174.758,72.387s72.387,108.743,72.387,174.757
			s-25.707,128.078-72.387,174.757C820.192,481.927,758.129,507.634,692.114,507.634z M692.114,15.346
			c-135.173,0-245.144,109.971-245.144,245.144s109.971,245.144,245.144,245.144S937.259,395.663,937.259,260.49
			S827.287,15.346,692.114,15.346z"/>
	</g>
	<g id="A_SVGStep4">
		<g id="A_text" enable-background="new    ">
			<path d="M462.267,394.278c-0.627,0.273-1.194,0.529-1.7,0.77c-0.507,0.238-1.171,0.489-1.991,0.752
				c-0.695,0.216-1.45,0.401-2.265,0.555c-0.814,0.154-1.712,0.23-2.691,0.23c-1.846,0-3.523-0.259-5.033-0.777
				c-1.51-0.518-2.823-1.33-3.939-2.436c-1.094-1.082-1.948-2.457-2.563-4.127c-0.615-1.669-0.923-3.608-0.923-5.818
				c0-2.097,0.296-3.971,0.889-5.623c0.592-1.651,1.447-3.048,2.563-4.188c1.082-1.104,2.39-1.947,3.922-2.529
				c1.532-0.58,3.232-0.871,5.101-0.871c1.367,0,2.731,0.165,4.093,0.496c1.361,0.33,2.874,0.911,4.537,1.742v4.017h-0.256
				c-1.401-1.173-2.792-2.027-4.17-2.563c-1.379-0.535-2.854-0.803-4.426-0.803c-1.288,0-2.447,0.208-3.478,0.623
				c-1.032,0.416-1.952,1.063-2.76,1.939c-0.786,0.855-1.399,1.935-1.837,3.239s-0.658,2.812-0.658,4.521
				c0,1.788,0.242,3.326,0.726,4.613c0.484,1.288,1.108,2.336,1.872,3.145c0.797,0.844,1.729,1.468,2.794,1.872
				c1.065,0.404,2.19,0.606,3.375,0.606c1.629,0,3.156-0.279,4.58-0.838c1.424-0.558,2.757-1.395,3.999-2.512h0.239V394.278z"/>
		</g>
		<path d="M484.901,383.561c0,3.313-2.688,6-6,6l0,0c-3.313,0-6-2.689-6-6l0,0c0-3.314,2.688-6,6-6l0,0
			C482.213,377.561,484.901,380.247,484.901,383.561L484.901,383.561z"/>
	</g>
	<g id="A_SVGStep5">
		<path d="M911.398,383.532c0,3.313-2.688,6-6,6l0,0c-3.313,0-6-2.688-6-6l0,0c0-3.314,2.688-6,6-6l0,0
			C908.711,377.532,911.398,380.218,911.398,383.532L911.398,383.532z"/>
		<g id="A_text" enable-background="new    ">
			<path d="M943.778,383.427c0,2.313-0.504,4.408-1.513,6.289c-1.008,1.879-2.35,3.338-4.024,4.375
				c-1.162,0.717-2.458,1.236-3.888,1.555c-1.43,0.319-3.313,0.479-5.648,0.479h-6.426v-25.447h6.357
				c2.483,0,4.457,0.18,5.922,0.539c1.463,0.358,2.703,0.852,3.717,1.479c1.731,1.082,3.082,2.523,4.051,4.323
				C943.294,378.818,943.778,380.954,943.778,383.427z M940.24,383.375c0-1.993-0.348-3.675-1.042-5.042
				c-0.695-1.367-1.731-2.443-3.11-3.229c-1.003-0.569-2.068-0.966-3.195-1.188c-1.129-0.223-2.479-0.333-4.051-0.333h-3.179v19.636
				h3.179c1.629,0,3.051-0.12,4.264-0.358c1.214-0.24,2.327-0.684,3.342-1.334c1.264-0.809,2.213-1.873,2.845-3.195
				C939.925,387.01,940.24,385.357,940.24,383.375z"/>
		</g>
	</g>
	<g id="A_SVGStep6">
		
			<rect x="584.508" y="198.935" transform="matrix(0.4999 0.8661 -0.8661 0.4999 571.6996 -346.0524)" width="2" height="246.185"/>
	</g>
	<g id="A_SVGStep7">
		
			<rect x="462.417" y="444.098" transform="matrix(0.8661 0.4999 -0.4999 0.8661 300.9216 -233.0923)" width="246.182" height="2"/>
	</g>
	<g id="A_SVGStep8">
		<path d="M478.9,630.704c-66.014,0-128.077-25.707-174.756-72.387c-46.679-46.679-72.386-108.742-72.386-174.756
			s25.708-128.077,72.386-174.756c46.679-46.679,108.742-72.387,174.756-72.387c66.015,0,128.078,25.708,174.757,72.387
			s72.387,108.742,72.387,174.756s-25.708,128.078-72.387,174.756C606.979,604.997,544.915,630.704,478.9,630.704z M478.9,138.418
			c-135.172,0-245.143,109.971-245.143,245.143S343.729,628.704,478.9,628.704c135.173,0,245.144-109.971,245.144-245.143
			S614.073,138.418,478.9,138.418z"/>
	</g>
	<g id="A_SVGStep9">
		<path d="M484.9,137.418c0,3.313-2.688,6-6,6l0,0c-3.313,0-6-2.688-6-6l0,0c0-3.314,2.688-6,6-6l0,0
			C482.212,131.418,484.9,134.104,484.9,137.418L484.9,137.418z"/>
		<g id="A_text" enable-background="new    ">
			<path d="M475.711,126.79h-16.765v-25.447h16.765v3.008H462.33v6.973h13.381v3.008H462.33v9.451h13.381V126.79z"/>
		</g>
	</g>
	<g id="A_SVGStep10">
		<path d="M484.9,629.704c0,3.313-2.688,6-6,6l0,0c-3.313,0-6-2.688-6-6l0,0c0-3.314,2.688-6,6-6l0,0
			C482.212,623.704,484.9,626.39,484.9,629.704L484.9,629.704z"/>
		<g id="A_text_5_" enable-background="new    ">
			<path d="M475.199,643.685H462.33v7.178h11.057v3.008H462.33v12.254h-3.384v-25.447h16.252V643.685z"/>
		</g>
	</g>
	<g id="A_SVGStep11">
		
			<rect x="445.942" y="259.475" transform="matrix(0.8661 0.4998 -0.4998 0.8661 222.8428 -311.0749)" width="492.415" height="2"/>
	</g>
	<g id="A_SVGStep12">
		
			<rect x="691.149" y="260.396" transform="matrix(0.4999 0.8661 -0.8661 0.4999 784.898 -346.1013)" width="2" height="492.444"/>
	</g>
	<g id="A_SVGStep13">
		<rect x="477.9" y="137.418" width="2" height="492.286"/>
	</g>
</g>
</svg>
