<?xml version="1.0" encoding="utf-8"?>
<!-- Generator: Adobe Illustrator 16.0.0, SVG Export Plug-In . SVG Version: 6.00 Build 0)  -->
<!DOCTYPE svg PUBLIC "-//W3C//DTD SVG 1.1//EN" "http://www.w3.org/Graphics/SVG/1.1/DTD/svg11.dtd">
<svg version="1.1" id="A_detailEgg" xmlns="http://www.w3.org/2000/svg" xmlns:xlink="http://www.w3.org/1999/xlink" x="0px"
	 y="0px" width="1339.434px" height="1264.437px" viewBox="-193.391 -132.082 1339.434 1264.437"
	 enable-background="new -193.391 -132.082 1339.434 1264.437" xml:space="preserve">
<g id="A_SVGSteps">
	<g id="A_SVGStep1">
		<circle fill="none" stroke="#FFFFFF" stroke-width="2" stroke-miterlimit="10" cx="476.13" cy="483.994" r="239.492"/>
		<text class="A_verbose" transform="matrix(1 0 0 1 463.4551 451.0654)" fill="#FFFFFF" font-family="'Verdana'" font-size="34.0542">A</text>
		<path fill="#FFFFFF" d="M481.969,483.993c0,3.225-2.613,5.838-5.838,5.838l0,0c-3.223,0-5.838-2.614-5.838-5.838l0,0
			c0-3.225,2.616-5.838,5.838-5.838l0,0C479.354,478.155,481.969,480.769,481.969,483.993L481.969,483.993z"/>
	</g>
	<g id="A_SVGStep2">
		<circle fill="none" stroke="#FFFFFF" stroke-width="2" stroke-miterlimit="10" cx="476.13" cy="244.501" r="239.493"/>
		<path fill="#FFFFFF" d="M481.967,244.502c0,3.224-2.613,5.838-5.837,5.838l0,0c-3.223,0-5.838-2.615-5.838-5.838l0,0
			c0-3.224,2.616-5.838,5.838-5.838l0,0C479.354,238.664,481.967,241.277,481.967,244.502L481.967,244.502z"/>
		<text class="A_verbose" transform="matrix(1 0 0 1 464.1279 220.1504)" fill="#FFFFFF" font-family="'Verdana'" font-size="34.0542">B</text>
	</g>
	<g id="A_SVGStep3">
		<circle fill="none" stroke="#FFFFFF" stroke-width="2" stroke-miterlimit="10" cx="268.679" cy="364.247" r="239.492"/>
		<path fill="#FFFFFF" d="M274.516,364.247c0,3.224-2.615,5.837-5.838,5.837l0,0c-3.223,0-5.838-2.615-5.838-5.837l0,0
			c0-3.224,2.616-5.838,5.838-5.838l0,0C271.901,358.409,274.516,361.022,274.516,364.247L274.516,364.247z"/>
		<text class="A_verbose" transform="matrix(1 0 0 1 215.5889 355.6064)" fill="#FFFFFF" font-family="'Verdana'" font-size="34.0542">C</text>
	</g>
	<g id="A_SVGStep4">
		<circle fill="none" stroke="#FFFFFF" stroke-width="2" stroke-miterlimit="10" cx="268.678" cy="603.74" r="239.492"/>
		<path fill="#FFFFFF" d="M274.515,603.739c0,3.224-2.615,5.838-5.838,5.838l0,0c-3.223,0-5.837-2.615-5.837-5.838l0,0
			c0-3.225,2.616-5.838,5.837-5.838l0,0C271.9,597.901,274.515,600.515,274.515,603.739L274.515,603.739z"/>
		<text class="A_verbose" transform="matrix(1 0 0 1 217.5884 638.1797)" fill="#FFFFFF" font-family="'Verdana'" font-size="34.0542">D</text>
	</g>
	<g id="A_SVGStep5">
		<path fill="none" stroke="#FFFFFF" stroke-width="2" stroke-miterlimit="10" d="M476.206,483.951
			c132.27,0,239.492,107.215,239.492,239.483S608.475,962.926,476.206,962.926c-132.271,0-239.495-107.225-239.495-239.492
			S343.935,483.951,476.206,483.951z"/>
		<path fill="#FFFFFF" d="M482.045,723.433c0,3.224-2.615,5.838-5.84,5.838l0,0c-3.227,0-5.84-2.615-5.84-5.838l0,0
			c0-3.224,2.615-5.838,5.84-5.838l0,0C479.431,717.595,482.045,720.208,482.045,723.433L482.045,723.433z"/>
		<text class="A_verbose" transform="matrix(1 0 0 1 464.5757 771.4668)" fill="#FFFFFF" font-family="'Verdana'" font-size="34.0542">E</text>
	</g>
	<g id="A_SVGStep6">
		<circle fill="none" stroke="#FFFFFF" stroke-width="2" stroke-miterlimit="10" cx="683.598" cy="603.74" r="239.492"/>
		<path fill="#FFFFFF" d="M689.436,603.739c0,3.224-2.615,5.838-5.838,5.838l0,0c-3.225,0-5.84-2.615-5.84-5.838l0,0
			c0-3.225,2.617-5.838,5.84-5.838l0,0C686.821,597.901,689.436,600.515,689.436,603.739L689.436,603.739z"/>
		<text class="A_verbose" transform="matrix(1 0 0 1 708.7515 637.6797)" fill="#FFFFFF" font-family="'Verdana'" font-size="34.0542">F</text>
	</g>
	<g id="A_SVGStep7">
		<circle fill="none" stroke="#FFFFFF" stroke-width="2" stroke-miterlimit="10" cx="683.598" cy="364.248" r="239.492"/>
		<path fill="#FFFFFF" d="M689.436,364.248c0,3.224-2.615,5.838-5.838,5.838l0,0c-3.225,0-5.84-2.615-5.84-5.838l0,0
			c0-3.224,2.617-5.837,5.84-5.837l0,0C686.821,358.41,689.436,361.023,689.436,364.248L689.436,364.248z"/>
		<text class="A_verbose" transform="matrix(1 0 0 1 702.8608 357.6064)" fill="#FFFFFF" font-family="'Verdana'" font-size="34.0542">G</text>
	</g>
	<g id="A_SVGStep8">
		<circle fill="none" stroke="#FFFFFF" stroke-width="2" stroke-miterlimit="10" cx="268.679" cy="124.754" r="239.493"/>
		<path fill="#FFFFFF" d="M274.517,124.755c0,3.224-2.613,5.838-5.838,5.838l0,0c-3.223,0-5.838-2.615-5.838-5.838l0,0
			c0-3.224,2.617-5.838,5.838-5.838l0,0C271.903,118.917,274.517,121.53,274.517,124.755L274.517,124.755z"/>
		<text class="A_verbose" transform="matrix(1 0 0 1 241.9766 113.4033)" fill="#FFFFFF" font-family="'Verdana'" font-size="34.0542">H</text>
	</g>
	<g id="A_SVGStep9">
		<circle fill="none" stroke="#FFFFFF" stroke-width="2" stroke-miterlimit="10" cx="61.262" cy="483.993" r="239.493"/>
		<path fill="#FFFFFF" d="M67.099,483.994c0,3.224-2.613,5.838-5.837,5.838l0,0c-3.223,0-5.838-2.615-5.838-5.838l0,0
			c0-3.225,2.616-5.838,5.838-5.838l0,0C64.486,478.156,67.099,480.769,67.099,483.994L67.099,483.994z"/>
		<text class="A_verbose" transform="matrix(1 0 0 1 31.5596 495.6421)" fill="#FFFFFF" font-family="'Verdana'" font-size="34.0542">I</text>
	</g>
	<g id="A_SVGStep10">
		<path fill="none" stroke="#FFFFFF" stroke-width="2" stroke-miterlimit="10" d="M268.78,603.738
			c132.269,0,239.483,107.225,239.483,239.493c0,132.27-107.214,239.494-239.483,239.494
			c-132.268,0-239.493-107.225-239.493-239.494C29.288,710.963,136.513,603.738,268.78,603.738z"/>
		<path fill="#FFFFFF" d="M274.618,843.233c0,3.223-2.613,5.838-5.837,5.838l0,0c-3.223,0-5.838-2.615-5.838-5.838l0,0
			c0-3.225,2.616-5.838,5.838-5.838l0,0C272.004,837.396,274.618,840.007,274.618,843.233L274.618,843.233z"/>
		<text class="A_verbose" transform="matrix(1 0 0 1 253.0757 879.8809)" fill="#FFFFFF" font-family="'Verdana'" font-size="34.0542">J</text>
	</g>
	<g id="A_SVGStep11">
		<path fill="none" stroke="#FFFFFF" stroke-width="2" stroke-miterlimit="10" d="M683.6,603.738
			c132.27,0,239.485,107.225,239.485,239.493c0,132.27-107.216,239.494-239.485,239.494c-132.268,0-239.492-107.225-239.492-239.494
			C444.108,710.963,551.333,603.738,683.6,603.738z"/>
		<path fill="#FFFFFF" d="M689.438,843.233c0,3.223-2.613,5.838-5.838,5.838l0,0c-3.223,0-5.838-2.615-5.838-5.838l0,0
			c0-3.225,2.617-5.838,5.838-5.838l0,0C686.825,837.396,689.438,840.007,689.438,843.233L689.438,843.233z"/>
		<text class="A_verbose" transform="matrix(1 0 0 1 687.437 878.8809)" fill="#FFFFFF" font-family="'Verdana'" font-size="34.0542">K</text>
	</g>
	<g id="A_SVGStep12">
		<path fill="none" stroke="#FFFFFF" stroke-width="2" stroke-miterlimit="10" d="M891.389,244.5
			c132.271,0,239.485,107.225,239.485,239.493c0,132.269-107.215,239.494-239.485,239.494
			c-132.268,0-239.492-107.225-239.492-239.494C651.897,351.725,759.122,244.5,891.389,244.5z"/>
		<path fill="#FFFFFF" d="M897.227,483.996c0,3.223-2.613,5.838-5.838,5.838l0,0c-3.223,0-5.838-2.615-5.838-5.838l0,0
			c0-3.225,2.617-5.838,5.838-5.838l0,0C894.614,478.158,897.227,480.769,897.227,483.996L897.227,483.996z"/>
		<text class="A_verbose" transform="matrix(1 0 0 1 902.4858 495.6421)" fill="#FFFFFF" font-family="'Verdana'" font-size="34.0542">L</text>
	</g>
	<g id="A_SVGStep13">
		<path fill="none" stroke="#FFFFFF" stroke-width="2" stroke-miterlimit="10" d="M683.6-114.738
			c132.27,0,239.485,107.225,239.485,239.493c0,132.269-107.216,239.494-239.485,239.494
			c-132.268,0-239.492-107.225-239.492-239.494C444.108-7.514,551.333-114.738,683.6-114.738z"/>
		<path fill="#FFFFFF" d="M689.438,124.757c0,3.223-2.613,5.838-5.838,5.838l0,0c-3.223,0-5.838-2.615-5.838-5.838l0,0
			c0-3.225,2.617-5.838,5.838-5.838l0,0C686.825,118.919,689.438,121.53,689.438,124.757L689.438,124.757z"/>
		<text class="A_verbose" transform="matrix(1 0 0 1 682.0962 112.4043)" fill="#FFFFFF" font-family="'Verdana'" font-size="34.0542">M</text>
	</g>
</g>
</svg>
