<?xml version="1.0" encoding="utf-8"?>
<!-- Generator: Adobe Illustrator 16.0.0, SVG Export Plug-In . SVG Version: 6.00 Build 0)  -->
<!DOCTYPE svg PUBLIC "-//W3C//DTD SVG 1.1//EN" "http://www.w3.org/Graphics/SVG/1.1/DTD/svg11.dtd">
<svg version="1.1" id="A-detailFruitOfLife" xmlns="http://www.w3.org/2000/svg"
	xmlns:xlink="http://www.w3.org/1999/xlink" x="0px" y="0px" width="3717px" height="2478px" viewBox="0 0 3717 2478"
	enable-background="new 0 0 3717 2478" xml:space="preserve">
	<rect x="0" display="none" width="3717" height="2478" />
	<g id="A-SVGGroupSteps">
		<g id="rotations_1_">
			<g id="rotation_1_10_">
				<path fill="none" stroke="#FFFFFF" stroke-miterlimit="10" d="M2098.491,1463.89c0,132.688-107.496,240.087-240.057,240.087
				c-132.844,0-240.245-107.398-240.245-240.087c0-132.688,107.212-240.137,240.245-240.137
				C1990.966,1223.753,2098.491,1331.17,2098.491,1463.89z" />
				<path fill="none" stroke="#FFFFFF" stroke-miterlimit="10" d="M2306.596,1343.845c0,132.623-107.592,240.088-240.09,240.088
				c-132.653,0-240.244-107.465-240.244-240.088c0-132.687,107.591-240.135,240.244-240.135
				C2199.004,1103.709,2306.596,1211.158,2306.596,1343.845z" />
				<path fill="none" stroke="#FFFFFF" stroke-miterlimit="10" d="M2306.531,1103.773c0,132.605-107.526,240.07-240.058,240.07
				c-132.654,0-240.276-107.433-240.276-240.07c0-132.768,107.622-240.217,240.276-240.217
				C2199.004,863.558,2306.531,971.007,2306.531,1103.773z" />
				<path fill="none" stroke="#FFFFFF" stroke-miterlimit="10" d="M2098.491,983.634c0,132.671-107.496,240.088-240.057,240.088
				c-132.844,0-240.245-107.417-240.245-240.088c0-132.64,107.212-240.151,240.245-240.151
				C1990.966,743.514,2098.491,850.963,2098.491,983.634z" />
				<path fill="none" stroke="#FFFFFF" stroke-miterlimit="10" d="M1890.55,1103.773c0,132.605-107.589,240.07-240.086,240.07
				c-132.848,0-240.752-107.433-240.752-240.07c0-132.768,107.526-240.217,240.752-240.217
				C1782.959,863.558,1890.55,971.007,1890.55,1103.773z" />
				<path fill="none" stroke="#FFFFFF" stroke-miterlimit="10" d="M1890.55,1343.845c0,132.623-107.589,240.088-240.086,240.088
				c-132.848,0-240.752-107.465-240.752-240.088c0-132.687,107.526-240.135,240.752-240.135
				C1782.959,1103.709,1890.55,1211.158,1890.55,1343.845z" />
			</g>
			<g id="rotation_2_8_">
				<path fill="none" stroke="#FFFFFF" stroke-miterlimit="10" d="M1890.55,863.558c0,132.734-107.589,240.151-240.086,240.151
				c-132.848,0-240.752-107.417-240.752-240.151c0-132.639,107.526-240.088,240.752-240.088
				C1782.959,623.438,1890.55,730.855,1890.55,863.558z" />
				<path fill="none" stroke="#FFFFFF" stroke-miterlimit="10" d="M1682.543,1223.753c0,132.734-107.213,240.073-240.058,240.073
				c-132.813,0-240.245-107.339-240.245-240.073c0-132.639,107.435-240.087,240.245-240.087
				C1575.016,983.634,1682.543,1091.114,1682.543,1223.753z" />
				<path fill="none" stroke="#FFFFFF" stroke-miterlimit="10" d="M1890.55,1583.996c0,132.592-107.589,240.021-240.086,240.021
				c-132.848,0-240.752-107.398-240.752-240.021c0-132.688,107.526-240.151,240.752-240.151
				C1782.959,1343.781,1890.55,1451.311,1890.55,1583.996z" />
				<path fill="none" stroke="#FFFFFF" stroke-miterlimit="10" d="M2306.596,1583.996c0,132.592-107.592,240.021-240.09,240.021
				c-132.653,0-240.244-107.398-240.244-240.021c0-132.688,107.591-240.151,240.244-240.151
				C2199.004,1343.781,2306.596,1451.311,2306.596,1583.996z" />
				<path fill="none" stroke="#FFFFFF" stroke-miterlimit="10" d="M2514.571,1223.753c0,132.734-107.213,240.073-240.058,240.073
				c-132.688,0-240.215-107.339-240.215-240.073c0-132.639,107.526-240.087,240.215-240.087
				C2407.073,983.634,2514.571,1091.114,2514.571,1223.753z" />
				<path fill="none" stroke="#FFFFFF" stroke-miterlimit="10" d="M2306.531,863.558c0,132.734-107.526,240.151-240.058,240.151
				c-132.654,0-240.276-107.417-240.276-240.151c0-132.639,107.622-240.088,240.276-240.088
				C2199.004,623.438,2306.531,730.855,2306.531,863.558z" />
			</g>
			<g id="rotation_4_8_">
				<path fill="none" stroke="#FFFFFF" stroke-miterlimit="10" d="M1890.55,623.438c0,132.673-107.589,240.09-240.086,240.09
				c-132.848,0-240.752-107.417-240.752-240.09c0-132.7,107.526-240.148,240.752-240.148
				C1782.959,383.288,1890.55,490.768,1890.55,623.438z" />
				<path fill="none" stroke="#FFFFFF" stroke-miterlimit="10" d="M1682.48,743.577c0,132.608-107.211,240.088-240.056,240.088
				c-132.781,0-240.215-107.479-240.215-240.088c0-132.703,107.434-240.151,240.215-240.151
				C1575.016,503.426,1682.48,610.875,1682.48,743.577z" />
				<path fill="none" stroke="#FFFFFF" stroke-miterlimit="10" d="M1474.568,1103.773c0,132.67-107.495,240.07-240.119,240.07
				s-240.214-107.433-240.214-240.07c0-132.768,107.527-240.217,240.214-240.217
				C1367.073,863.558,1474.568,971.007,1474.568,1103.773z" />
				<path fill="none" stroke="#FFFFFF" stroke-miterlimit="10" d="M1474.568,1343.845c0,132.688-107.495,240.088-240.056,240.088
				c-132.688,0-240.277-107.465-240.277-240.088c0-132.687,107.591-240.135,240.277-240.135
				C1367.105,1103.709,1474.568,1211.158,1474.568,1343.845z" />
				<path fill="none" stroke="#FFFFFF" stroke-miterlimit="10" d="M1682.543,1704.071c0,132.655-107.213,239.993-240.058,239.993
				c-132.781,0-240.213-107.4-240.213-239.993c0-132.781,107.463-240.245,240.213-240.245
				C1575.047,1463.826,1682.543,1571.29,1682.543,1704.071z" />
				<path fill="none" stroke="#FFFFFF" stroke-miterlimit="10" d="M2306.596,1824.084c0,132.655-107.592,240.12-240.09,240.12
				c-132.653,0-240.244-107.465-240.244-240.12c0-132.624,107.591-240.15,240.244-240.15
				C2199.004,1583.933,2306.596,1691.46,2306.596,1824.084z" />
				<path fill="none" stroke="#FFFFFF" stroke-miterlimit="10" d="M2514.571,1704.071c0,132.655-107.213,240.119-240.023,240.119
				c-132.721,0-240.247-107.526-240.247-240.119c0-132.718,107.526-240.184,240.247-240.184
				C2407.073,1463.89,2514.571,1571.354,2514.571,1704.071z" />
				<path fill="none" stroke="#FFFFFF" stroke-miterlimit="10" d="M2722.608,1343.781c0,132.687-107.528,240.088-240.057,240.088
				c-132.847,0-240.752-107.401-240.752-240.088c0-132.624,107.496-240.135,240.752-240.135
				C2615.08,1103.709,2722.608,1211.158,2722.608,1343.781z" />
				<path fill="none" stroke="#FFFFFF" stroke-miterlimit="10" d="M2722.608,1103.773c0,132.605-107.528,240.07-240.057,240.07
				c-132.847,0-240.752-107.433-240.752-240.07c0-132.768,107.56-240.217,240.752-240.217
				C2615.08,863.558,2722.608,971.007,2722.608,1103.773z" />
				<path fill="none" stroke="#FFFFFF" stroke-miterlimit="10" d="M2514.571,743.577c0,132.671-107.213,240.088-240.058,240.088
				c-132.688,0-240.215-107.417-240.215-240.088c0-132.703,107.526-240.151,240.215-240.151
				C2407.073,503.363,2514.571,610.813,2514.571,743.577z" />
				<path fill="none" stroke="#FFFFFF" stroke-miterlimit="10" d="M2306.596,623.438c0,132.673-107.528,240.059-240.09,240.059
				c-132.623,0-240.184-107.354-240.184-240.059c0-132.7,107.561-240.148,240.184-240.148
				C2199.1,383.288,2306.596,490.768,2306.596,623.438z" />
				<path fill="none" stroke="#FFFFFF" stroke-miterlimit="10" d="M1890.613,1824.084c0,132.718-107.559,240.12-240.087,240.12
				c-132.845,0-240.215-107.402-240.215-240.12c0-132.624,107.213-240.15,240.215-240.15
				C1783.055,1583.933,1890.613,1691.46,1890.613,1824.084z" />
			</g>
			<g id="rotation_5_8_">
				<path fill="none" stroke="#FFFFFF" stroke-miterlimit="10" d="M2098.588,503.426c0,132.576-107.526,240.024-240.058,240.024
				c-132.844,0-240.276-107.464-240.276-240.024c0-132.766,107.211-240.214,240.276-240.214
				C1991.062,263.244,2098.588,370.661,2098.588,503.426z" />
				<path fill="none" stroke="#FFFFFF" stroke-miterlimit="10" d="M1682.543,503.426c0,132.671-107.213,240.087-240.058,240.087
				c-132.781,0-240.213-107.417-240.213-240.087c0-132.703,107.463-240.151,240.213-240.151
				C1575.047,263.244,1682.543,370.724,1682.543,503.426z" />
				<path fill="none" stroke="#FFFFFF" stroke-miterlimit="10" d="M1474.568,863.621c0,132.671-107.495,240.088-240.119,240.088
				S994.235,996.292,994.235,863.621c0-132.702,107.527-240.151,240.214-240.151
				C1367.073,623.438,1474.568,730.919,1474.568,863.621z" />
				<path fill="none" stroke="#FFFFFF" stroke-miterlimit="10" d="M1266.656,1223.753c0,132.734-107.591,240.073-240.088,240.073
				c-132.656,0-240.215-107.339-240.215-240.073c0-132.639,107.559-240.087,240.215-240.087
				C1159.033,983.634,1266.656,1091.114,1266.656,1223.753z" />
				<path fill="none" stroke="#FFFFFF" stroke-miterlimit="10" d="M1474.568,1583.996c0,132.655-107.463,240.088-240.056,240.088
				c-132.688,0-240.214-107.433-240.214-240.088c0-132.688,107.526-240.151,240.214-240.151
				C1367.105,1343.781,1474.568,1451.311,1474.568,1583.996z" />
				<path fill="none" stroke="#FFFFFF" stroke-miterlimit="10" d="M1682.543,1944.189c0,132.561-107.213,240.09-240.058,240.09
				c-132.781,0-240.213-107.529-240.213-240.089c0-132.75,107.463-240.214,240.213-240.214
				C1575.047,1703.977,1682.543,1811.377,1682.543,1944.189z" />
				<path fill="none" stroke="#FFFFFF" stroke-miterlimit="10" d="M2098.588,1944.254c0,132.561-107.526,240.088-240.058,240.088
				c-132.844,0-240.276-107.527-240.276-240.088c0-132.75,107.211-240.183,240.276-240.183
				C1991.062,1704.071,2098.588,1811.504,2098.588,1944.254z" />
				<path fill="none" stroke="#FFFFFF" stroke-miterlimit="10" d="M2514.697,1944.254c0,132.561-107.213,240.088-240.057,240.088
				c-132.75,0-240.342-107.527-240.342-240.088c0-132.75,107.592-240.183,240.342-240.183
				C2407.105,1704.071,2514.697,1811.504,2514.697,1944.254z" />
				<path fill="none" stroke="#FFFFFF" stroke-miterlimit="10" d="M2722.672,1583.996c0,132.592-107.528,240.021-240.088,240.021
				c-132.846,0-240.186-107.398-240.186-240.021c0-132.688,107.212-240.151,240.186-240.151
				C2615.08,1343.781,2722.672,1451.311,2722.672,1583.996z" />
				<path fill="none" stroke="#FFFFFF" stroke-miterlimit="10" d="M2930.614,1223.816c0,132.671-107.559,240.071-240.087,240.071
				c-132.845,0-240.214-107.4-240.214-240.071c0-132.703,107.212-240.151,240.214-240.151
				C2823.025,983.634,2930.614,1091.193,2930.614,1223.816z" />
				<path fill="none" stroke="#FFFFFF" stroke-miterlimit="10" d="M2722.672,863.621c0,132.671-107.592,240.088-240.12,240.088
				c-132.845,0-240.751-107.417-240.751-240.088c0-132.702,107.527-240.151,240.751-240.151
				C2615.08,623.438,2722.672,730.919,2722.672,863.621z" />
				<path fill="none" stroke="#FFFFFF" stroke-miterlimit="10" d="M2514.666,503.426c0,132.576-107.213,240.024-240.025,240.024
				c-132.782,0-240.342-107.464-240.342-240.024c0-132.766,107.527-240.214,240.342-240.214
				C2407.105,263.244,2514.666,370.661,2514.666,503.426z" />
			</g>
			<g id="rotation_6_8_">
				<path fill="none" stroke="#FFFFFF" stroke-miterlimit="10" d="M1890.613,383.351c0,132.561-107.559,240.086-240.087,240.086
				c-132.845,0-240.15-107.526-240.15-240.086c0-132.703,107.211-240.151,240.15-240.151
				C1783.055,143.231,1890.613,250.648,1890.613,383.351z" />
				<path fill="none" stroke="#FFFFFF" stroke-miterlimit="10" d="M1474.568,623.438c0,132.673-107.495,240.059-240.056,240.059
				c-132.688,0-240.277-107.354-240.277-240.059c0-132.7,107.591-240.148,240.277-240.148
				C1367.105,383.288,1474.568,490.768,1474.568,623.438z" />
				<path fill="none" stroke="#FFFFFF" stroke-miterlimit="10" d="M1266.594,983.698c0,132.67-107.527,240.055-240.058,240.055
				c-132.687,0-240.245-107.417-240.245-240.055c0-132.704,107.56-240.216,240.245-240.216
				C1159.033,743.514,1266.594,850.963,1266.594,983.698z" />
				<path fill="none" stroke="#FFFFFF" stroke-miterlimit="10" d="M1266.656,1463.952c0,132.624-107.591,240.119-240.088,240.119
				c-132.656,0-240.215-107.495-240.215-240.119c0-132.751,107.559-240.199,240.215-240.199
				C1159.033,1223.753,1266.656,1331.265,1266.656,1463.952z" />
				<path fill="none" stroke="#FFFFFF" stroke-miterlimit="10" d="M1474.568,1824.084c0,132.655-107.433,240.12-240.056,240.12
				s-240.214-107.465-240.214-240.12c0-132.687,107.591-240.15,240.214-240.15
				C1367.105,1583.933,1474.568,1691.396,1474.568,1824.084z" />
				<path fill="none" stroke="#FFFFFF" stroke-miterlimit="10" d="M1890.613,2064.268c0,132.623-107.559,240.088-240.087,240.088
				c-132.845,0-240.15-107.465-240.15-240.088c0-132.72,107.211-240.184,240.15-240.184
				C1783.055,1824.084,1890.613,1931.548,1890.613,2064.268z" />
				<path fill="none" stroke="#FFFFFF" stroke-miterlimit="10" d="M2306.596,2064.268c0,132.623-107.528,240.088-240.057,240.088
				c-132.688,0-240.247-107.465-240.247-240.088c0-132.72,107.56-240.184,240.247-240.184
				C2199.1,1824.084,2306.596,1931.548,2306.596,2064.268z" />
				<path fill="none" stroke="#FFFFFF" stroke-miterlimit="10" d="M2722.672,1824.084c0,132.655-107.592,240.12-240.12,240.12
				c-132.845,0-240.751-107.465-240.751-240.12c0-132.687,107.495-240.15,240.751-240.15
				C2615.144,1583.933,2722.672,1691.396,2722.672,1824.084z" />
				<path fill="none" stroke="#FFFFFF" stroke-miterlimit="10" d="M2930.614,1463.89c0,132.688-107.559,240.087-240.056,240.087
				c-132.845,0-240.213-107.398-240.213-240.087c0-132.688,107.21-240.137,240.213-240.137
				C2823.025,1223.753,2930.614,1331.17,2930.614,1463.89z" />
				<path fill="none" stroke="#FFFFFF" stroke-miterlimit="10" d="M2930.646,983.698c0,132.67-107.527,240.055-240.056,240.055
				c-132.624,0-240.215-107.417-240.215-240.055c0-132.704,107.591-240.216,240.215-240.216
				C2823.025,743.514,2930.646,850.963,2930.646,983.698z" />
				<path fill="none" stroke="#FFFFFF" stroke-miterlimit="10" d="M2722.672,623.501c0,132.671-107.528,240.057-240.057,240.057
				c-132.847,0-240.217-107.354-240.217-240.057s107.212-240.213,240.217-240.213
				C2615.144,383.288,2722.672,490.831,2722.672,623.501z" />
				<path fill="none" stroke="#FFFFFF" stroke-miterlimit="10" d="M2306.596,383.351c0,132.561-107.435,240.086-240.057,240.086
				c-132.655,0-240.217-107.526-240.217-240.086c0-132.703,107.562-240.151,240.217-240.151
				C2199.162,143.231,2306.596,250.648,2306.596,383.351z" />
			</g>
		</g>
		<g id="A-SVGStep1">

			<circle id="geo_60_" fill="none" stroke="#FFFFFF" stroke-width="4" stroke-miterlimit="10" cx="2690.59"
				cy="743.482" r="240.15" />
			<g id="A-text_12_">
				<path fill="#FFFFFF" d="M2744.315,732.592h-3.725v-24.134l-7.787,16.422h-2.222l-7.729-16.422v24.134h-3.48v-28.009h5.079
				l7.468,15.594l7.226-15.594h5.173L2744.315,732.592L2744.315,732.592z" />
				<path fill="#FFFFFF"
					d="M2760.898,745.421h-11.055v-2.292c0.768-0.658,1.537-1.314,2.309-1.974
				c0.772-0.659,1.489-1.313,2.155-1.963c1.403-1.36,2.364-2.44,2.884-3.241c0.521-0.801,0.778-1.665,0.778-2.594
				c0-0.85-0.279-1.513-0.839-1.99c-0.561-0.479-1.341-0.718-2.341-0.718c-0.666,0-1.388,0.115-2.161,0.351
				c-0.774,0.235-1.531,0.592-2.271,1.075h-0.107v-2.303c0.519-0.258,1.211-0.49,2.077-0.702c0.865-0.212,1.705-0.318,2.518-0.318
				c1.674,0,2.986,0.404,3.938,1.212c0.949,0.808,1.427,1.903,1.427,3.285c0,0.622-0.078,1.201-0.235,1.738
				c-0.157,0.536-0.39,1.047-0.696,1.528c-0.284,0.453-0.62,0.899-1.004,1.339c-0.384,0.438-0.85,0.926-1.396,1.457
				c-0.782,0.77-1.591,1.514-2.423,2.231c-0.834,0.72-1.612,1.388-2.336,2.001h8.782L2760.898,745.421L2760.898,745.421z" />
			</g>

			<circle id="geo_59_" fill="none" stroke="#FFFFFF" stroke-width="4" stroke-miterlimit="10" cx="2690.558"
				cy="1703.977" r="240.15" />
			<g id="A-text_11_">
				<path fill="#FFFFFF"
					d="M2742.077,1742.154h-17.72v-28.01h3.727v24.697h13.994L2742.077,1742.154L2742.077,1742.154z" />
				<path fill="#FFFFFF"
					d="M2754.862,1754.983h-11.055v-2.292c0.768-0.658,1.537-1.316,2.309-1.976
				c0.772-0.659,1.489-1.313,2.155-1.964c1.403-1.357,2.364-2.438,2.884-3.24c0.521-0.801,0.778-1.665,0.778-2.594
				c0-0.848-0.278-1.512-0.839-1.99c-0.559-0.479-1.34-0.719-2.341-0.719c-0.666,0-1.386,0.117-2.161,0.354
				c-0.773,0.231-1.531,0.592-2.27,1.072h-0.109v-2.303c0.52-0.256,1.211-0.49,2.078-0.702c0.865-0.212,1.705-0.315,2.517-0.315
				c1.675,0,2.986,0.401,3.938,1.212c0.949,0.808,1.426,1.9,1.426,3.284c0,0.621-0.078,1.201-0.235,1.736
				c-0.157,0.537-0.39,1.049-0.694,1.529c-0.285,0.454-0.621,0.899-1.004,1.338c-0.386,0.439-0.852,0.928-1.398,1.459
				c-0.782,0.77-1.59,1.514-2.423,2.231c-0.834,0.721-1.612,1.388-2.336,2.002h8.784v1.876L2754.862,1754.983L2754.862,1754.983z" />
			</g>

			<circle id="geo_58_" fill="none" stroke="#FFFFFF" stroke-width="4" stroke-miterlimit="10" cx="1858.531"
				cy="2184.342" r="240.151" />
			<g id="A-text_10_">
				<path fill="#FFFFFF" d="M1871.779,2245.046h-4.834l-11.08-12.472l-2.784,2.973v9.499h-3.724v-28.009h3.724v14.615l13.602-14.615
				h4.515l-12.509,13.167L1871.779,2245.046z" />
				<path fill="#FFFFFF"
					d="M1885.014,2257.875h-11.055v-2.292c0.768-0.658,1.535-1.315,2.309-1.974
				c0.771-0.658,1.489-1.313,2.155-1.966c1.401-1.357,2.362-2.438,2.884-3.239c0.52-0.802,0.777-1.664,0.777-2.595
				c0-0.848-0.278-1.512-0.84-1.989c-0.559-0.479-1.34-0.72-2.341-0.72c-0.666,0-1.386,0.117-2.161,0.354
				c-0.772,0.231-1.529,0.592-2.27,1.073h-0.109v-2.304c0.521-0.256,1.211-0.489,2.078-0.7c0.866-0.213,1.705-0.317,2.518-0.317
				c1.675,0,2.985,0.403,3.938,1.212c0.95,0.809,1.426,1.902,1.426,3.284c0,0.621-0.078,1.2-0.233,1.737
				c-0.157,0.537-0.392,1.048-0.696,1.528c-0.285,0.454-0.62,0.899-1.004,1.338c-0.385,0.439-0.852,0.927-1.398,1.459
				c-0.781,0.77-1.59,1.513-2.423,2.231c-0.834,0.721-1.612,1.388-2.336,2.002h8.784L1885.014,2257.875L1885.014,2257.875z" />
			</g>

			<circle id="geo_57_" fill="none" stroke="#FFFFFF" stroke-width="4" stroke-miterlimit="10" cx="1026.568"
				cy="1704.071" r="240.151" />
			<g id="A-text_9_">
				<path fill="#FFFFFF" d="M981.99,1729.974c0,2.458-0.75,4.354-2.248,5.683c-1.499,1.329-3.508,1.994-6.027,1.994
				c-0.604,0-1.404-0.056-2.408-0.16c-1.004-0.106-1.843-0.235-2.521-0.387v-3.479h0.207c0.516,0.176,1.147,0.357,1.9,0.546
				c0.753,0.189,1.521,0.282,2.313,0.282c1.154,0,2.072-0.132,2.757-0.396c0.685-0.263,1.188-0.639,1.515-1.128
				c0.339-0.502,0.555-1.115,0.647-1.844c0.096-0.729,0.143-1.567,0.143-2.521v-16.348h-5.925v-2.972h9.648V1729.974
				L981.99,1729.974z" />
				<path fill="#FFFFFF" d="M998.288,1750.082h-11.054v-2.292c0.77-0.658,1.537-1.316,2.311-1.974
				c0.771-0.658,1.487-1.313,2.153-1.965c1.404-1.358,2.365-2.438,2.886-3.239c0.519-0.802,0.777-1.665,0.777-2.595
				c0-0.849-0.28-1.513-0.839-1.989c-0.56-0.479-1.34-0.72-2.342-0.72c-0.665,0-1.385,0.116-2.16,0.353
				c-0.775,0.233-1.532,0.592-2.27,1.074h-0.11v-2.304c0.519-0.257,1.212-0.489,2.078-0.701c0.866-0.213,1.706-0.317,2.517-0.317
				c1.674,0,2.986,0.403,3.938,1.212c0.95,0.809,1.425,1.902,1.425,3.284c0,0.621-0.079,1.201-0.235,1.738
				c-0.158,0.537-0.39,1.047-0.695,1.527c-0.285,0.454-0.62,0.899-1.003,1.339c-0.386,0.438-0.852,0.927-1.398,1.459
				c-0.783,0.769-1.59,1.513-2.424,2.23c-0.833,0.721-1.612,1.388-2.336,2.002h8.783v1.877H998.288z" />
			</g>

			<circle id="geo_56_" fill="none" stroke="#FFFFFF" stroke-width="4" stroke-miterlimit="10" cx="1026.506"
				cy="743.546" r="240.151" />
			<g id="A-text_8_">
				<path fill="#FFFFFF" d="M987.546,724.715h-11.063v-2.857h3.668v-22.291h-3.668v-2.859h11.063v2.859h-3.668v22.291h3.668V724.715z
				" />
				<path fill="#FFFFFF"
					d="M1002.943,737.544h-11.054v-2.292c0.768-0.658,1.537-1.316,2.309-1.974
				c0.771-0.658,1.489-1.313,2.155-1.963c1.404-1.36,2.365-2.44,2.884-3.241c0.521-0.801,0.779-1.665,0.779-2.594
				c0-0.85-0.28-1.513-0.839-1.99c-0.562-0.479-1.34-0.719-2.342-0.719c-0.665,0-1.387,0.116-2.16,0.352
				c-0.775,0.234-1.532,0.592-2.271,1.075h-0.108v-2.305c0.519-0.256,1.212-0.488,2.078-0.7c0.864-0.212,1.704-0.318,2.517-0.318
				c1.674,0,2.986,0.404,3.937,1.212c0.951,0.808,1.427,1.903,1.427,3.285c0,0.622-0.079,1.201-0.235,1.738
				c-0.158,0.535-0.39,1.047-0.697,1.528c-0.285,0.453-0.62,0.899-1.003,1.338c-0.384,0.438-0.85,0.927-1.396,1.458
				c-0.783,0.77-1.591,1.514-2.425,2.231c-0.833,0.72-1.611,1.388-2.336,2.001h8.783L1002.943,737.544L1002.943,737.544z" />
			</g>

			<circle id="geo_55_" fill="none" stroke="#FFFFFF" stroke-width="4" stroke-miterlimit="10" cx="1858.531"
				cy="263.212" r="240.151" />
			<g id="A-text_7_">
				<path fill="#FFFFFF" d="M1864.377,206.292h-3.727v-13.713h-13.976v13.713h-3.727v-28.009h3.727v10.985h13.976v-10.985h3.727
				V206.292z" />
				<path fill="#FFFFFF" d="M1880.959,219.121h-11.056v-2.292c0.769-0.658,1.537-1.316,2.31-1.974
				c0.771-0.658,1.488-1.312,2.154-1.963c1.403-1.36,2.364-2.44,2.885-3.241c0.521-0.801,0.777-1.665,0.777-2.594
				c0-0.848-0.279-1.511-0.839-1.99c-0.559-0.479-1.34-0.718-2.341-0.718c-0.666,0-1.386,0.117-2.161,0.351
				c-0.774,0.234-1.531,0.592-2.271,1.075h-0.108v-2.303c0.519-0.256,1.211-0.49,2.078-0.702c0.864-0.212,1.705-0.318,2.517-0.318
				c1.674,0,2.986,0.404,3.938,1.212c0.948,0.808,1.426,1.903,1.426,3.285c0,0.622-0.078,1.201-0.235,1.738
				c-0.156,0.537-0.39,1.047-0.694,1.53c-0.285,0.453-0.62,0.899-1.005,1.338c-0.385,0.438-0.851,0.925-1.397,1.458
				c-0.782,0.768-1.59,1.512-2.423,2.231c-0.834,0.72-1.612,1.388-2.336,2.001h8.784v1.876H1880.959L1880.959,219.121z" />
			</g>

			<circle id="geo_54_" fill="none" stroke="#FFFFFF" stroke-width="4" stroke-miterlimit="10" cx="2274.435"
				cy="983.602" r="240.15" />
			<path id="A-text_6_" fill="#FFFFFF"
				d="M2286.181,945c-1.53,0.703-3.201,1.314-5.013,1.834c-1.813,0.521-3.564,0.781-5.26,0.781
			c-2.182,0-4.183-0.301-6.001-0.903c-1.816-0.602-3.366-1.505-4.646-2.708c-1.292-1.216-2.289-2.737-2.991-4.562
			c-0.702-1.825-1.054-3.959-1.054-6.405c0-4.479,1.308-8.01,3.922-10.602c2.615-2.589,6.205-3.884,10.771-3.884
			c1.593,0,3.22,0.191,4.881,0.574c1.662,0.383,3.451,1.032,5.371,1.947v4.42h-0.34c-0.39-0.302-0.952-0.696-1.691-1.187
			c-0.74-0.487-1.468-0.896-2.184-1.223c-0.864-0.388-1.848-0.711-2.942-0.969c-1.099-0.258-2.343-0.386-3.733-0.386
			c-3.136,0-5.614,1.007-7.438,3.02c-1.825,2.013-2.737,4.737-2.737,8.173c0,3.624,0.953,6.442,2.858,8.455s4.502,3.02,7.789,3.02
			c1.202,0,2.403-0.117,3.602-0.355c1.199-0.238,2.248-0.546,3.15-0.922v-6.866h-7.507v-3.273h11.192V945L2286.181,945z" />

			<circle id="geo_53_" fill="none" stroke="#FFFFFF" stroke-width="4" stroke-miterlimit="10" cx="2274.435"
				cy="1463.865" r="240.15" />
			<path id="A-text_5_" fill="#FFFFFF" d="M2283.67,1405.407h-14.164v7.898h12.17v3.313h-12.17v13.487h-3.727v-28.011h17.89
			L2283.67,1405.407L2283.67,1405.407z" />

			<circle id="geo_52_" fill="none" stroke="#FFFFFF" stroke-width="4" stroke-miterlimit="10" cx="1858.342"
				cy="1704.008" r="240.15" />
			<path id="A-text_4_" fill="#FFFFFF" d="M1867.381,1671.131h-18.454v-28.009h18.454v3.311h-14.729v7.677h14.729v3.311h-14.729
			v10.402h14.729V1671.131z" />

			<circle id="geo_51_" fill="none" stroke="#FFFFFF" stroke-width="4" stroke-miterlimit="10" cx="1442.486"
				cy="1463.826" r="240.151" />
			<path id="A-text_3_" fill="#FFFFFF" d="M1454.75,1406.251c0,2.546-0.557,4.854-1.666,6.923c-1.109,2.069-2.587,3.674-4.431,4.815
			c-1.279,0.79-2.706,1.358-4.28,1.712c-1.572,0.351-3.646,0.524-6.217,0.524h-7.073v-28.009h6.998c2.734,0,4.906,0.197,6.52,0.592
			c1.61,0.396,2.975,0.938,4.091,1.629c1.906,1.19,3.392,2.776,4.458,4.76C1454.215,1401.179,1454.75,1403.53,1454.75,1406.251z
			 M1450.856,1406.194c0-2.194-0.383-4.044-1.146-5.551c-0.766-1.505-1.905-2.688-3.424-3.556c-1.104-0.626-2.274-1.063-3.518-1.307
			c-1.242-0.245-2.729-0.367-4.458-0.367h-3.499v21.613h3.499c1.793,0,3.358-0.131,4.693-0.396c1.335-0.264,2.561-0.753,3.678-1.468
			c1.392-0.89,2.436-2.063,3.132-3.519C1450.508,1410.195,1450.856,1408.377,1450.856,1406.194z" />

			<circle id="geo_50_" fill="none" stroke="#FFFFFF" stroke-width="4" stroke-miterlimit="10" cx="1442.486"
				cy="983.666" r="240.151" />
			<path id="A-text_2_" fill="#FFFFFF" d="M1453.704,949.977c-0.688,0.303-1.313,0.583-1.87,0.849
			c-0.56,0.263-1.289,0.54-2.191,0.828c-0.766,0.236-1.596,0.44-2.493,0.609s-1.884,0.254-2.962,0.254
			c-2.032,0-3.878-0.283-5.54-0.854c-1.662-0.57-3.107-1.464-4.336-2.68c-1.204-1.191-2.146-2.706-2.821-4.544
			c-0.677-1.837-1.016-3.973-1.016-6.404c0-2.308,0.326-4.37,0.979-6.188c0.652-1.816,1.592-3.354,2.821-4.607
			c1.19-1.217,2.63-2.146,4.317-2.784c1.687-0.641,3.558-0.959,5.613-0.959c1.505,0,3.007,0.182,4.505,0.545
			c1.498,0.364,3.163,1.003,4.994,1.919v4.42h-0.28c-1.543-1.292-3.073-2.231-4.591-2.822c-1.519-0.589-3.142-0.884-4.872-0.884
			c-1.416,0-2.692,0.229-3.827,0.688c-1.137,0.458-2.148,1.169-3.038,2.135c-0.865,0.939-1.54,2.129-2.022,3.564
			c-0.481,1.437-0.725,3.095-0.725,4.976c0,1.969,0.267,3.662,0.8,5.079s1.219,2.57,2.062,3.461c0.877,0.928,1.901,1.614,3.075,2.06
			c1.173,0.445,2.41,0.667,3.716,0.667c1.793,0,3.474-0.307,5.042-0.921c1.565-0.614,3.035-1.536,4.4-2.765h0.265v4.362h-0.004
			V949.977z" />
			<path id="A-text_1_" fill="#FFFFFF" d="M1870.052,684.588c0,1.394-0.266,2.621-0.79,3.688c-0.526,1.064-1.235,1.942-2.126,2.633
			c-1.054,0.828-2.21,1.417-3.473,1.768c-1.26,0.354-2.86,0.527-4.806,0.527h-9.932v-28.009h8.295c2.044,0,3.574,0.074,4.59,0.226
			s1.987,0.464,2.916,0.941c1.027,0.539,1.773,1.23,2.238,2.079c0.464,0.846,0.695,1.857,0.695,3.037
			c0,1.329-0.34,2.462-1.018,3.396c-0.677,0.935-1.58,1.684-2.708,2.248v0.15c1.896,0.389,3.386,1.22,4.478,2.49
			C1869.506,681.036,1870.052,682.644,1870.052,684.588z M1863.786,671.966c0-0.677-0.111-1.248-0.339-1.712
			c-0.226-0.464-0.59-0.84-1.091-1.128c-0.59-0.339-1.305-0.548-2.145-0.63c-0.843-0.082-1.882-0.122-3.123-0.122h-4.439v8.088
			h4.815c1.166,0,2.094-0.059,2.783-0.179c0.688-0.119,1.328-0.367,1.918-0.743c0.591-0.376,1.009-0.862,1.252-1.458
			C1863.662,673.486,1863.786,672.781,1863.786,671.966z M1866.177,684.738c0-1.128-0.169-2.025-0.509-2.69
			s-0.952-1.229-1.845-1.692c-0.602-0.313-1.332-0.519-2.189-0.61c-0.859-0.094-1.903-0.143-3.132-0.143h-5.852v10.423h4.928
			c1.631,0,2.967-0.084,4.008-0.256c1.041-0.169,1.895-0.479,2.56-0.931c0.702-0.489,1.216-1.047,1.542-1.674
			S1866.177,685.729,1866.177,684.738z" />

			<circle id="geo_49_" fill="none" stroke="#FFFFFF" stroke-width="4" stroke-miterlimit="10" cx="1858.342"
				cy="743.547" r="240.151" />
			<path id="A-text" fill="#FFFFFF" d="M1871.011,1177.229h-3.97l-2.745-7.808h-12.114l-2.747,7.808h-3.781l10.195-28.01h4.966
			L1871.011,1177.229z M1863.148,1166.223l-4.91-13.75l-4.928,13.75H1863.148z" />
			<path display="none" d="M1858.437,1465.802c-64.775,0-125.623-25.157-171.335-70.84c-45.711-45.68-70.885-106.483-70.885-171.209
			c0-64.712,25.147-125.505,70.813-171.18c45.699-45.709,106.573-70.883,171.407-70.883c64.681,0,125.438,25.176,171.146,70.889
			c45.713,45.721,70.889,106.512,70.889,171.174c0,64.706-25.18,125.509-70.896,171.209
			C1983.87,1440.645,1923.095,1465.802,1858.437,1465.802z M1858.494,985.642c-131.439,0-238.326,106.816-238.326,238.111
			c0,131.287,106.887,238.099,238.269,238.099c131.278,0,238.081-106.812,238.081-238.099
			C2096.518,1092.458,1989.74,985.642,1858.494,985.642z" />

			<circle id="geo_48_" fill="none" stroke="#FFFFFF" stroke-width="4" stroke-miterlimit="10" cx="1858.436"
				cy="1223.753" r="240.151" />
		</g>
	</g>
</svg>