<?xml version="1.0" encoding="utf-8"?>
<!-- Generator: Adobe Illustrator 16.0.0, SVG Export Plug-In . SVG Version: 6.00 Build 0)  -->
<!DOCTYPE svg PUBLIC "-//W3C//DTD SVG 1.1//EN" "http://www.w3.org/Graphics/SVG/1.1/DTD/svg11.dtd">
<svg version="1.1" id="A-detailSealedFOL" xmlns="http://www.w3.org/2000/svg" xmlns:xlink="http://www.w3.org/1999/xlink" x="0px"
	 y="0px" width="1163.332px" height="1026px" viewBox="0 0 1163.332 1026" enable-background="new 0 0 1163.332 1026"
	 xml:space="preserve">
<rect x="0" display="none" width="1163.332" height="1026"/>
<g id="A-SVGGroupSteps">
	<g id="unsealedFOL">
		<path fill="none" stroke="#FFFFFF" stroke-width="0.25" stroke-miterlimit="10" d="M721.229,356.821
			c-29.811,0-55.859-16.189-69.813-40.264 M581.7,276.326c13.966,24.056,39.979,40.217,69.771,40.217 M581.66,276.266
			c-44.5,0.001-80.571,36.056-80.571,80.569c0,44.5,36.087,80.536,80.572,80.537c44.452,0,80.518-36.049,80.518-80.537
			C662.178,312.322,626.111,276.266,581.66,276.266z M442.134,356.821c-44.521,0-80.583,36.056-80.583,80.568
			c0,44.495,36.076,80.543,80.583,80.543c44.438,0,80.517-36.056,80.517-80.543C522.65,392.877,486.567,356.821,442.134,356.821z
			 M442.147,517.921c-44.533-0.001-80.582,36.046-80.582,80.566c0,44.482,36.063,80.538,80.582,80.538
			c44.434,0,80.503-36.064,80.503-80.538C522.65,553.967,486.573,517.933,442.147,517.921z M581.661,598.476
			c-44.5,0-80.572,36.042-80.572,80.563c0,44.494,36.087,80.529,80.572,80.529c44.452,0,80.521-36.035,80.521-80.528
			C662.186,634.53,626.112,598.476,581.661,598.476z M721.229,517.92c-44.51-0.001-80.57,36.046-80.57,80.567
			c0,44.482,36.074,80.538,80.57,80.538c44.459,0.001,80.514-36.063,80.514-80.538C801.74,553.967,765.678,517.933,721.229,517.92z
			 M721.233,356.821c-44.506,0-80.574,36.056-80.574,80.568c0,44.495,36.08,80.543,80.574,80.543
			c44.463,0,80.504-36.056,80.504-80.544C801.737,392.877,765.678,356.821,721.233,356.821z M511.896,316.543
			c-44.515,0-80.569,36.056-80.569,80.569c0,44.494,36.063,80.542,80.569,80.542c44.446,0,80.522-36.058,80.521-80.542
			C592.416,352.592,556.326,316.543,511.896,316.543z M442.134,437.37c-44.521,0-80.583,36.063-80.583,80.577
			c0,44.483,36.075,80.534,80.583,80.534c44.438,0,80.517-36.059,80.516-80.534C522.65,473.425,486.567,437.37,442.134,437.37z
			 M511.896,558.205c-44.514,0-80.569,36.054-80.569,80.573c0,44.485,36.063,80.524,80.569,80.524
			c44.447,0,80.521-36.046,80.521-80.523C592.418,594.246,556.326,558.196,511.896,558.205z M651.44,558.205
			c-44.509,0-80.582,36.054-80.583,80.573c0,44.485,36.08,80.524,80.583,80.524c44.439,0,80.521-36.047,80.521-80.524
			C731.961,594.246,695.879,558.196,651.44,558.205z M721.233,437.371c-44.506-0.001-80.574,36.063-80.574,80.575
			c0,44.483,36.08,80.534,80.574,80.534c44.464,0,80.504-36.058,80.504-80.534C801.737,473.425,765.678,437.37,721.233,437.371z
			 M651.446,316.543c-44.509,0-80.57,36.056-80.565,80.569c0,44.493,36.064,80.542,80.565,80.542
			c44.439,0,80.519-36.058,80.519-80.542C731.961,352.592,695.879,316.543,651.446,316.543z M581.661,437.371
			c-44.5,0-80.572,36.062-80.572,80.575c0,44.482,36.088,80.534,80.571,80.534c44.452,0,80.518-36.059,80.518-80.535
			C662.178,473.426,626.111,437.37,581.661,437.371z M581.66,517.92c-44.5,0-80.571,36.047-80.571,80.567
			c0,44.482,36.087,80.538,80.572,80.538c44.452,0,80.518-36.064,80.518-80.538C662.178,553.967,626.111,517.932,581.66,517.92z
			 M651.44,477.647c-44.509,0-80.57,36.05-80.57,80.563c0,44.486,36.067,80.541,80.57,80.54c44.439,0,80.521-36.066,80.521-80.54
			C731.961,513.711,695.878,477.647,651.44,477.647z M651.446,397.1c-44.509-0.001-80.565,36.042-80.565,80.563
			c0,44.492,36.065,80.534,80.565,80.534c44.439,0,80.519-36.042,80.519-80.534C731.961,433.142,695.879,397.099,651.446,397.1z
			 M581.66,356.822c-44.5,0-80.571,36.055-80.571,80.568c0,44.494,36.087,80.543,80.572,80.542
			c44.452,0,80.518-36.056,80.518-80.542C662.178,392.876,626.112,356.821,581.66,356.822z M511.896,397.099
			c-44.515,0-80.569,36.042-80.569,80.563c0,44.493,36.063,80.535,80.569,80.535c44.447,0,80.522-36.042,80.521-80.535
			C592.416,433.142,556.326,397.099,511.896,397.099z M511.896,477.647c-44.514,0-80.569,36.051-80.569,80.563
			c0,44.485,36.063,80.54,80.569,80.54c44.447,0,80.523-36.066,80.522-80.54C592.418,513.711,556.326,477.647,511.896,477.647z
			 M442.1,356.854c13.938,24.058,39.975,40.246,69.796,40.246c44.44,0,80.516-36.056,80.516-80.542
			c0-14.666-3.911-28.419-10.754-40.259 M372.323,397.126c13.936,24.063,39.959,40.25,69.795,40.25
			c44.441,0,80.503-36.054,80.503-80.537c0-14.679-3.906-28.423-10.746-40.271 M372.34,558.212
			c44.453,0,80.525-36.043,80.525-80.538c0-44.522-36.072-80.562-80.525-80.562 M372.353,638.752
			c44.454,0,80.516-36.055,80.516-80.54c0-44.514-36.063-80.557-80.516-80.558 M511.889,719.295
			c6.813-11.847,10.754-25.591,10.754-40.258c0-44.532-36.069-80.574-80.509-80.575c-29.736,0-55.712,16.115-69.689,40.093
			 M581.851,759.276c6.735-11.771,10.588-25.408,10.587-39.94c0-44.527-36.063-80.584-80.521-80.584
			c-29.757,0-55.741,16.15-69.717,40.16 M721.213,679.064c-13.928-24.101-39.977-40.313-69.771-40.313
			c-44.509,0.001-80.566,36.064-80.566,80.584c0,14.665,3.896,28.405,10.745,40.238 M790.975,638.752
			c-13.939-24.076-39.953-40.271-69.742-40.271c-44.52,0-80.588,36.063-80.587,80.565c-0.001,14.593,3.903,28.274,10.687,40.086
			 M790.991,477.654c-44.5,0.001-80.564,36.044-80.563,80.558c-0.001,44.485,36.075,80.54,80.563,80.541 M791.008,397.1
			c-44.518,0-80.581,36.042-80.582,80.563c0,44.492,36.076,80.534,80.582,80.534 M651.365,316.663
			c-6.805,11.82-10.729,25.54-10.729,40.172c0,44.501,36.082,80.536,80.593,80.536c29.813,0,55.854-16.208,69.765-40.324
			 M581.591,276.424c-6.813,11.813-10.708,25.52-10.708,40.119c0,44.508,36.064,80.557,80.564,80.556
			c29.795,0.001,55.824-16.202,69.748-40.271 M511.855,316.496c13.925,24.112,39.994,40.325,69.835,40.326
			c29.809-0.001,55.823-16.189,69.755-40.279 M372.353,477.662c44.453,0,80.528-36.049,80.528-80.535
			c0-14.66-3.904-28.393-10.729-40.219 M442.097,679.044c6.842-11.839,10.758-25.589,10.758-40.255
			c0-44.518-36.054-80.593-80.539-80.572 M651.407,719.282c-13.931-24.063-39.933-40.25-69.726-40.245
			c-29.855,0-55.885,16.207-69.811,40.299 M791.008,558.189c-44.518,0.001-80.582,36.057-80.582,80.563
			c0,14.721,3.933,28.485,10.813,40.344 M721.198,356.847c-6.836,11.847-10.771,25.599-10.771,40.265
			c-0.001,44.493,36.087,80.542,80.581,80.542 M511.923,316.543c29.777,0,55.803-16.181,69.73-40.245 M442.14,356.834
			c29.762,0,55.778-16.174,69.722-40.225 M372.353,397.099c29.795,0,55.824-16.208,69.754-40.292 M372.365,477.563
			c6.824-11.829,10.729-25.553,10.729-40.179c0-14.66-3.884-28.396-10.741-40.237 M372.313,558.264
			c6.856-11.855,10.795-25.627,10.795-40.305c0-14.679-3.886-28.411-10.741-40.244 M372.36,638.819
			c6.854-11.851,10.787-25.626,10.788-40.313c0-14.632-3.899-28.347-10.729-40.18 M442,678.814
			c-13.983-23.969-39.906-40.063-69.638-40.053 M511.875,719.295c-13.938-24.09-39.964-40.285-69.759-40.285 M581.535,759.337
			c-13.987-23.945-39.91-40.03-69.612-40.03 M651.454,719.308c-29.784-0.001-55.78,16.163-69.743,40.206 M721.252,679.037
			c-29.844,0-55.877,16.207-69.811,40.299 M791.022,638.752c-29.828,0-55.896,16.216-69.822,40.325 M791.047,558.093
			c-6.896,11.878-10.844,25.663-10.844,40.396c0.001,14.509,3.854,28.129,10.553,39.881 M791.149,477.403
			c-6.977,11.896-10.955,25.744-10.955,40.542c0,14.533,3.879,28.169,10.59,39.934 M791.008,397.072
			c-6.854,11.856-10.787,25.632-10.787,40.313c0,14.667,3.912,28.413,10.762,40.247 M721.198,356.813
			c13.928,24.091,39.988,40.299,69.822,40.299"/>
		<circle fill="none" stroke="#FFFFFF" stroke-width="3" stroke-miterlimit="10" cx="581.661" cy="517.92" r="241.654"/>
		<path fill="#FFFFFF" d="M584.892,759.565c0,1.777-1.445,3.229-3.229,3.229l0,0c-1.778,0-3.227-1.447-3.227-3.229l0,0
			c0-1.783,1.445-3.229,3.227-3.229l0,0C583.447,756.339,584.892,757.782,584.892,759.565L584.892,759.565z"/>
		<path fill="#FFFFFF" d="M584.891,276.326c0,1.781-1.445,3.229-3.229,3.229l0,0c-1.778,0-3.227-1.447-3.227-3.229l0,0
			c0-1.783,1.445-3.228,3.227-3.228l0,0C583.446,273.098,584.891,274.542,584.891,276.326L584.891,276.326z"/>
		<g>
			<path fill="#FFFFFF" d="M602.722,289.5h-1.16v-4.271h-4.354v4.271h-1.156v-8.725h1.156v3.422h4.354v-3.422h1.16V289.5z"/>
			<path fill="#FFFFFF" d="M607.597,293.496h-2.753v-0.519h1.059v-3.409h-1.059v-0.465c0.144,0,0.297-0.012,0.461-0.036
				s0.288-0.059,0.373-0.104c0.104-0.057,0.187-0.129,0.248-0.217c0.061-0.087,0.095-0.206,0.104-0.354h0.53v4.584h1.039v0.52
				H607.597z"/>
		</g>
		<g>
			<path fill="#FFFFFF" d="M604.2,750.208h-1.436l-4.137-7.805v7.805h-1.084v-8.725h1.799l3.771,7.125v-7.125h1.084L604.2,750.208
				L604.2,750.208z"/>
			<path fill="#FFFFFF" d="M609.055,754.204h-2.753v-0.521h1.059v-3.406h-1.059v-0.469c0.144,0,0.297-0.012,0.461-0.031
				c0.164-0.023,0.288-0.063,0.373-0.104c0.104-0.057,0.187-0.129,0.248-0.217c0.061-0.087,0.095-0.206,0.104-0.354h0.53v4.587
				h1.039v0.521L609.055,754.204L609.055,754.204z"/>
		</g>
		<path fill="#FFFFFF" d="M724.452,517.92c0,1.781-1.44,3.229-3.227,3.229l0,0c-1.782,0-3.228-1.447-3.228-3.229l0,0
			c0-1.783,1.441-3.228,3.228-3.228l0,0C723.011,514.692,724.452,516.137,724.452,517.92L724.452,517.92z"/>
		<path fill="#FFFFFF" d="M445.361,517.932c0,1.781-1.445,3.229-3.227,3.229l0,0c-1.782,0-3.229-1.447-3.229-3.229l0,0
			c0-1.779,1.445-3.228,3.229-3.228l0,0C443.912,514.705,445.361,516.149,445.361,517.932L445.361,517.932z"/>
		<g>
			<path fill="#FFFFFF" d="M738.772,530.675h-5.52v-8.725h1.156v7.689h4.359L738.772,530.675L738.772,530.675z"/>
		</g>
		<g>
			<path fill="#FFFFFF" d="M455.912,529.733h-3.441v-0.895h1.143v-6.94h-1.143v-0.894h3.441v0.894h-1.143v6.94h1.143V529.733z"/>
		</g>
		<path fill="#FFFFFF" d="M584.891,517.92c0,1.781-1.444,3.229-3.229,3.229l0,0c-1.778,0-3.227-1.447-3.227-3.229l0,0
			c0-1.783,1.444-3.229,3.227-3.229l0,0C583.447,514.691,584.891,516.137,584.891,517.92L584.891,517.92z"/>
		<g>
			<path fill="#FFFFFF" d="M603.631,530.675h-1.236l-0.855-2.432h-3.771l-0.855,2.432h-1.178l3.176-8.725h1.551L603.631,530.675z
				 M601.182,527.247l-1.529-4.283l-1.535,4.283H601.182z"/>
		</g>
	</g>
	<g id="sealedFOL">
		<g id="A-SVGStep41">
			<path id="A-point21" fill="#FFFFFF" d="M485.228,618c0,1.78-1.445,3.229-3.227,3.229l0,0c-1.783,0-3.23-1.447-3.23-3.229l0,0
				c0-1.781,1.445-3.229,3.23-3.229l0,0C483.779,614.773,485.228,616.217,485.228,618L485.228,618z"/>
			<g id="A-text21">
				<path fill="#FFFFFF" d="M487.243,632.5h-1.16v-7.518l-2.426,5.115h-0.691l-2.408-5.115v7.518h-1.084v-8.725h1.582l2.326,4.857
					l2.25-4.857h1.611V632.5z"/>
				<path fill="#FFFFFF" d="M491.961,634.047c0.109,0.098,0.199,0.221,0.271,0.369c0.07,0.148,0.105,0.339,0.105,0.574
					c0,0.231-0.042,0.445-0.126,0.639c-0.085,0.193-0.203,0.361-0.355,0.505c-0.171,0.159-0.372,0.277-0.604,0.354
					c-0.23,0.076-0.484,0.113-0.76,0.113c-0.282,0-0.561-0.033-0.833-0.101c-0.273-0.067-0.498-0.14-0.674-0.22v-0.715h0.052
					c0.193,0.128,0.421,0.234,0.683,0.318c0.263,0.084,0.515,0.127,0.759,0.127c0.144,0,0.296-0.024,0.458-0.072
					c0.161-0.048,0.292-0.119,0.393-0.212c0.104-0.101,0.183-0.21,0.234-0.331c0.051-0.121,0.076-0.273,0.076-0.458
					c0-0.183-0.028-0.333-0.087-0.452c-0.058-0.12-0.139-0.214-0.24-0.282c-0.103-0.071-0.228-0.119-0.373-0.146
					c-0.146-0.025-0.303-0.039-0.471-0.039h-0.308v-0.566h0.239c0.346,0,0.622-0.072,0.828-0.218
					c0.206-0.145,0.309-0.355,0.309-0.634c0-0.123-0.025-0.23-0.078-0.322s-0.125-0.168-0.219-0.228
					c-0.098-0.06-0.202-0.101-0.314-0.123c-0.111-0.022-0.237-0.034-0.379-0.034c-0.217,0-0.446,0.039-0.69,0.116
					c-0.243,0.077-0.474,0.187-0.689,0.328h-0.034v-0.714c0.161-0.08,0.377-0.153,0.647-0.221c0.27-0.066,0.531-0.101,0.783-0.101
					c0.249,0,0.468,0.022,0.656,0.068c0.189,0.046,0.36,0.118,0.513,0.219c0.164,0.109,0.288,0.241,0.372,0.396
					c0.084,0.156,0.127,0.336,0.127,0.544c0,0.282-0.101,0.528-0.3,0.739s-0.434,0.344-0.705,0.398v0.047
					c0.109,0.02,0.234,0.057,0.376,0.115C491.743,633.889,491.864,633.961,491.961,634.047z"/>
			</g>
		</g>
		<g id="A-SVGStep40">
			<path id="A-point20" fill="#FFFFFF" d="M685.031,618c0,1.78-1.445,3.229-3.227,3.229l0,0c-1.783,0-3.23-1.447-3.23-3.229l0,0
				c0-1.781,1.445-3.229,3.23-3.229l0,0C683.581,614.773,685.031,616.217,685.031,618L685.031,618z"/>
			<g id="A-text20">
				<path fill="#FFFFFF" d="M680.993,632.5h-5.52v-8.725h1.16v7.693h4.359V632.5z"/>
				<path fill="#FFFFFF" d="M684.528,634.047c0.109,0.098,0.199,0.221,0.271,0.369c0.07,0.148,0.105,0.339,0.105,0.574
					c0,0.231-0.042,0.445-0.126,0.639c-0.085,0.193-0.203,0.361-0.355,0.505c-0.171,0.159-0.372,0.277-0.604,0.354
					c-0.23,0.076-0.484,0.113-0.76,0.113c-0.282,0-0.561-0.033-0.833-0.101c-0.273-0.067-0.498-0.14-0.674-0.22v-0.715h0.052
					c0.193,0.128,0.421,0.234,0.683,0.318c0.263,0.084,0.515,0.127,0.759,0.127c0.144,0,0.296-0.024,0.458-0.072
					c0.161-0.048,0.292-0.119,0.393-0.212c0.104-0.101,0.183-0.21,0.234-0.331c0.051-0.121,0.076-0.273,0.076-0.458
					c0-0.183-0.028-0.333-0.087-0.452c-0.058-0.12-0.139-0.214-0.24-0.282c-0.103-0.071-0.228-0.119-0.373-0.146
					c-0.146-0.025-0.303-0.039-0.471-0.039h-0.308v-0.566h0.239c0.346,0,0.622-0.072,0.828-0.218
					c0.206-0.145,0.309-0.355,0.309-0.634c0-0.123-0.025-0.23-0.078-0.322s-0.125-0.168-0.219-0.228
					c-0.098-0.06-0.202-0.101-0.314-0.123c-0.111-0.022-0.237-0.034-0.379-0.034c-0.217,0-0.446,0.039-0.69,0.116
					c-0.243,0.077-0.474,0.187-0.689,0.328h-0.034v-0.714c0.161-0.08,0.377-0.153,0.647-0.221c0.27-0.066,0.531-0.101,0.783-0.101
					c0.249,0,0.468,0.022,0.656,0.068c0.189,0.046,0.36,0.118,0.513,0.219c0.164,0.109,0.288,0.241,0.372,0.396
					c0.084,0.156,0.127,0.336,0.127,0.544c0,0.282-0.101,0.528-0.3,0.739s-0.434,0.344-0.705,0.398v0.047
					c0.109,0.02,0.234,0.057,0.376,0.115C684.31,633.889,684.43,633.961,684.528,634.047z"/>
			</g>
		</g>
		<g id="A-SVGStep39">
			<path id="A-point19" fill="#FFFFFF" d="M684.895,418c0,1.781-1.445,3.229-3.227,3.229l0,0c-1.783,0-3.23-1.447-3.23-3.229l0,0
				c0-1.781,1.445-3.228,3.23-3.228l0,0C683.446,414.773,684.895,416.217,684.895,418L684.895,418z"/>
			<g id="A-text19">
				<path fill="#FFFFFF" d="M687.136,432.5h-1.506l-3.451-3.885l-0.867,0.926v2.959h-1.16v-8.725h1.16v4.553l4.236-4.553h1.406
					l-3.896,4.102L687.136,432.5z"/>
				<path fill="#FFFFFF" d="M690.811,434.047c0.109,0.098,0.199,0.221,0.271,0.369c0.07,0.148,0.105,0.339,0.105,0.574
					c0,0.232-0.042,0.445-0.126,0.639c-0.085,0.193-0.203,0.362-0.355,0.505c-0.171,0.16-0.372,0.277-0.604,0.354
					c-0.23,0.076-0.484,0.114-0.76,0.114c-0.282,0-0.561-0.034-0.833-0.101c-0.273-0.067-0.498-0.14-0.674-0.22v-0.714h0.052
					c0.193,0.127,0.421,0.233,0.683,0.318c0.263,0.084,0.515,0.126,0.759,0.126c0.144,0,0.296-0.024,0.458-0.072
					c0.161-0.048,0.292-0.119,0.393-0.212c0.104-0.1,0.183-0.21,0.234-0.332c0.051-0.121,0.076-0.273,0.076-0.458
					c0-0.182-0.028-0.333-0.087-0.453c-0.058-0.12-0.139-0.213-0.24-0.282c-0.103-0.071-0.228-0.119-0.373-0.146
					c-0.146-0.026-0.303-0.039-0.471-0.039h-0.308v-0.567h0.239c0.346,0,0.622-0.072,0.828-0.217
					c0.206-0.145,0.309-0.355,0.309-0.633c0-0.123-0.025-0.231-0.078-0.323c-0.053-0.092-0.125-0.167-0.219-0.227
					c-0.098-0.059-0.202-0.1-0.314-0.123c-0.111-0.022-0.237-0.034-0.379-0.034c-0.217,0-0.446,0.039-0.69,0.116
					c-0.243,0.078-0.474,0.187-0.689,0.328h-0.034v-0.714c0.161-0.08,0.377-0.153,0.647-0.221c0.27-0.067,0.531-0.101,0.783-0.101
					c0.249,0,0.468,0.023,0.656,0.068c0.189,0.045,0.36,0.119,0.513,0.219c0.164,0.109,0.288,0.241,0.372,0.396
					c0.084,0.155,0.127,0.336,0.127,0.543c0,0.282-0.101,0.529-0.3,0.739c-0.199,0.211-0.434,0.343-0.705,0.398v0.048
					c0.109,0.019,0.234,0.057,0.376,0.115C690.593,433.888,690.713,433.96,690.811,434.047z"/>
			</g>
		</g>
		<g id="A-SVGStep38">
			<path id="A-point18" fill="#FFFFFF" d="M484.644,418c0,1.781-1.445,3.229-3.227,3.229l0,0c-1.782,0-3.229-1.447-3.229-3.229l0,0
				c0-1.781,1.445-3.228,3.229-3.228l0,0C483.196,414.773,484.644,416.217,484.644,418L484.644,418z"/>
			<g id="A-text18">
				<path fill="#FFFFFF" d="M479.288,430.232c0,0.766-0.233,1.355-0.7,1.77s-1.093,0.621-1.878,0.621
					c-0.188,0-0.438-0.017-0.75-0.05s-0.574-0.073-0.785-0.12v-1.084h0.064c0.16,0.055,0.357,0.111,0.592,0.17
					s0.475,0.088,0.721,0.088c0.359,0,0.646-0.041,0.858-0.123s0.37-0.199,0.472-0.352c0.105-0.156,0.173-0.348,0.202-0.574
					s0.044-0.488,0.044-0.785v-5.092h-1.846v-0.926h3.006V430.232z"/>
				<path fill="#FFFFFF" d="M483.918,434.047c0.109,0.098,0.199,0.221,0.27,0.369c0.07,0.148,0.105,0.339,0.105,0.574
					c0,0.232-0.042,0.445-0.126,0.639c-0.084,0.193-0.203,0.362-0.355,0.505c-0.171,0.16-0.372,0.277-0.603,0.354
					c-0.231,0.076-0.484,0.114-0.76,0.114c-0.283,0-0.561-0.034-0.833-0.101c-0.273-0.067-0.498-0.14-0.673-0.22v-0.714h0.051
					c0.194,0.127,0.421,0.233,0.683,0.318c0.262,0.084,0.515,0.126,0.759,0.126c0.143,0,0.296-0.024,0.458-0.072
					s0.292-0.119,0.393-0.212c0.104-0.1,0.183-0.21,0.234-0.332c0.051-0.121,0.077-0.273,0.077-0.458
					c0-0.182-0.029-0.333-0.087-0.453s-0.139-0.213-0.241-0.282c-0.103-0.071-0.227-0.119-0.373-0.146
					c-0.146-0.026-0.303-0.039-0.471-0.039h-0.308v-0.567h0.239c0.346,0,0.622-0.072,0.828-0.217
					c0.206-0.145,0.309-0.355,0.309-0.633c0-0.123-0.026-0.231-0.079-0.323c-0.052-0.092-0.125-0.167-0.218-0.227
					c-0.098-0.059-0.203-0.1-0.314-0.123c-0.112-0.022-0.238-0.034-0.379-0.034c-0.217,0-0.447,0.039-0.69,0.116
					c-0.244,0.078-0.474,0.187-0.69,0.328h-0.034v-0.714c0.162-0.08,0.377-0.153,0.647-0.221c0.27-0.067,0.531-0.101,0.784-0.101
					c0.249,0,0.467,0.023,0.656,0.068s0.36,0.119,0.512,0.219c0.164,0.109,0.288,0.241,0.373,0.396
					c0.084,0.155,0.126,0.336,0.126,0.543c0,0.282-0.1,0.529-0.299,0.739c-0.199,0.211-0.434,0.343-0.705,0.398v0.048
					c0.109,0.019,0.234,0.057,0.375,0.115S483.82,433.96,483.918,434.047z"/>
			</g>
		</g>
		<g id="A-SVGStep37">
			<line id="geo16" fill="none" stroke="#FFFFFF" stroke-miterlimit="10" x1="923.41" y1="517.919" x2="340.007" y2="759.568"/>
		</g>
		<g id="A-SVGStep36">
			<line id="geo15" fill="none" stroke="#FFFFFF" stroke-miterlimit="10" x1="239.914" y1="517.919" x2="823.317" y2="759.568"/>
		</g>
		<g id="A-SVGStep35">
			<line id="geo14" fill="none" stroke="#FFFFFF" stroke-miterlimit="10" x1="923.41" y1="517.919" x2="340.006" y2="276.265"/>
		</g>
		<g id="A-SVGStep34">
			<line id="geo13" fill="none" stroke="#FFFFFF" stroke-miterlimit="10" x1="239.914" y1="517.919" x2="823.316" y2="276.265"/>
		</g>
		<g id="A-SVGStep33">
			<path id="A-point25" fill="#FFFFFF" d="M414.019,688.781c0,1.78-1.445,3.229-3.227,3.229l0,0c-1.783,0-3.23-1.447-3.23-3.229l0,0
				c0-1.781,1.445-3.229,3.23-3.229l0,0C412.57,685.555,414.019,686.998,414.019,688.781L414.019,688.781z"/>
			<g id="A-text25">
				<path fill="#FFFFFF" d="M423.205,692.01h-3.445v-0.891h1.143v-6.943h-1.143v-0.891h3.445v0.891h-1.143v6.943h1.143V692.01z"/>
				<path fill="#FFFFFF" d="M427.553,693.557c0.109,0.098,0.199,0.221,0.27,0.369c0.07,0.148,0.105,0.339,0.105,0.574
					c0,0.231-0.042,0.445-0.126,0.639c-0.084,0.193-0.203,0.361-0.355,0.505c-0.171,0.159-0.372,0.277-0.603,0.354
					c-0.231,0.076-0.484,0.113-0.76,0.113c-0.283,0-0.561-0.033-0.833-0.101c-0.273-0.067-0.498-0.14-0.673-0.22v-0.715h0.051
					c0.194,0.128,0.421,0.234,0.683,0.318c0.262,0.084,0.515,0.127,0.759,0.127c0.143,0,0.296-0.024,0.458-0.072
					s0.292-0.119,0.393-0.212c0.104-0.101,0.183-0.21,0.234-0.331s0.077-0.273,0.077-0.458c0-0.183-0.029-0.333-0.087-0.452
					c-0.058-0.12-0.139-0.214-0.241-0.282c-0.103-0.071-0.227-0.119-0.373-0.146c-0.146-0.025-0.303-0.039-0.471-0.039h-0.308
					v-0.566h0.239c0.346,0,0.622-0.072,0.828-0.218c0.206-0.145,0.309-0.355,0.309-0.634c0-0.123-0.026-0.23-0.079-0.322
					c-0.052-0.092-0.125-0.168-0.218-0.228c-0.098-0.06-0.203-0.101-0.314-0.123s-0.238-0.034-0.379-0.034
					c-0.217,0-0.447,0.039-0.69,0.116s-0.474,0.187-0.69,0.328h-0.034v-0.714c0.162-0.08,0.377-0.153,0.647-0.221
					c0.27-0.066,0.531-0.101,0.784-0.101c0.249,0,0.467,0.022,0.656,0.068s0.36,0.118,0.512,0.219
					c0.164,0.109,0.288,0.241,0.373,0.396c0.084,0.156,0.126,0.336,0.126,0.544c0,0.282-0.1,0.528-0.299,0.739
					s-0.434,0.344-0.705,0.398v0.047c0.109,0.02,0.234,0.057,0.375,0.115S427.455,693.471,427.553,693.557z"/>
			</g>
		</g>
		<g id="A-SVGStep32">
			<path id="A-point24" fill="#FFFFFF" d="M755.739,688.781c0,1.78-1.445,3.229-3.227,3.229l0,0c-1.783,0-3.23-1.447-3.23-3.229l0,0
				c0-1.781,1.445-3.229,3.23-3.229l0,0C754.289,685.555,755.739,686.998,755.739,688.781L755.739,688.781z"/>
			<g id="A-text24">
				<path fill="#FFFFFF" d="M768.19,694.315h-1.16v-4.271h-4.354v4.271h-1.16v-8.725h1.16v3.422h4.354v-3.422h1.16V694.315z"/>
				<path fill="#FFFFFF" d="M772.907,695.862c0.109,0.098,0.199,0.221,0.271,0.368c0.07,0.148,0.105,0.34,0.105,0.574
					c0,0.232-0.043,0.445-0.127,0.639s-0.203,0.362-0.355,0.506c-0.17,0.159-0.371,0.277-0.603,0.354s-0.484,0.114-0.76,0.114
					c-0.282,0-0.561-0.033-0.833-0.101c-0.273-0.067-0.498-0.141-0.674-0.221v-0.714h0.051c0.194,0.128,0.422,0.233,0.684,0.318
					c0.262,0.084,0.515,0.126,0.759,0.126c0.144,0,0.296-0.023,0.458-0.071c0.161-0.048,0.292-0.119,0.393-0.212
					c0.104-0.101,0.183-0.211,0.234-0.332c0.051-0.12,0.076-0.272,0.076-0.457c0-0.183-0.029-0.333-0.087-0.453
					c-0.058-0.119-0.139-0.213-0.241-0.281c-0.102-0.071-0.227-0.119-0.372-0.146s-0.303-0.039-0.472-0.039h-0.307v-0.567h0.238
					c0.347,0,0.623-0.072,0.828-0.217c0.207-0.145,0.31-0.355,0.31-0.634c0-0.123-0.026-0.23-0.079-0.323
					c-0.052-0.092-0.125-0.167-0.218-0.227c-0.099-0.06-0.202-0.101-0.314-0.123s-0.237-0.034-0.379-0.034
					c-0.217,0-0.446,0.039-0.69,0.116s-0.474,0.187-0.689,0.328h-0.035v-0.714c0.162-0.08,0.378-0.153,0.648-0.221
					c0.27-0.067,0.531-0.101,0.783-0.101c0.248,0,0.467,0.022,0.656,0.068c0.189,0.045,0.359,0.118,0.512,0.219
					c0.164,0.109,0.289,0.241,0.373,0.396c0.084,0.155,0.127,0.336,0.127,0.544c0,0.282-0.101,0.528-0.3,0.739
					s-0.435,0.343-0.705,0.397v0.048c0.109,0.019,0.234,0.057,0.376,0.115C772.69,695.703,772.809,695.775,772.907,695.862z"/>
			</g>
		</g>
		<g id="A-SVGStep31">
			<path id="A-point23" fill="#FFFFFF" d="M755.905,347.166c0,1.781-1.445,3.229-3.227,3.229l0,0c-1.783,0-3.23-1.447-3.23-3.229
				l0,0c0-1.781,1.445-3.228,3.23-3.228l0,0C754.455,343.94,755.905,345.384,755.905,347.166L755.905,347.166z"/>
			<g id="A-text23">
				<path fill="#FFFFFF" d="M765.859,350.851c-0.477,0.219-0.997,0.409-1.562,0.571s-1.11,0.243-1.638,0.243
					c-0.68,0-1.303-0.094-1.869-0.281s-1.049-0.469-1.447-0.844c-0.402-0.379-0.713-0.853-0.932-1.421s-0.328-1.233-0.328-1.995
					c0-1.395,0.407-2.495,1.222-3.302s1.933-1.21,3.354-1.21c0.496,0,1.003,0.06,1.521,0.179s1.075,0.321,1.673,0.606v1.377h-0.105
					c-0.121-0.094-0.297-0.217-0.527-0.369s-0.457-0.279-0.68-0.381c-0.27-0.121-0.575-0.222-0.917-0.302s-0.729-0.12-1.163-0.12
					c-0.977,0-1.749,0.313-2.317,0.94s-0.853,1.476-0.853,2.546c0,1.129,0.297,2.007,0.891,2.634s1.402,0.94,2.426,0.94
					c0.375,0,0.749-0.037,1.122-0.111s0.7-0.17,0.981-0.287v-2.139h-2.338v-1.02h3.486V350.851z"/>
				<path fill="#FFFFFF" d="M770.26,353.042c0.109,0.098,0.199,0.221,0.27,0.369c0.07,0.148,0.105,0.339,0.105,0.574
					c0,0.232-0.042,0.445-0.126,0.639s-0.203,0.362-0.355,0.505c-0.171,0.16-0.371,0.277-0.603,0.354
					c-0.231,0.076-0.484,0.114-0.76,0.114c-0.283,0-0.561-0.034-0.834-0.101c-0.273-0.067-0.498-0.14-0.673-0.22v-0.714h0.051
					c0.194,0.127,0.422,0.233,0.684,0.318c0.262,0.084,0.515,0.126,0.759,0.126c0.143,0,0.296-0.024,0.457-0.072
					c0.162-0.048,0.293-0.119,0.394-0.212c0.104-0.1,0.183-0.21,0.233-0.332c0.052-0.121,0.077-0.273,0.077-0.458
					c0-0.182-0.029-0.333-0.087-0.453c-0.059-0.12-0.139-0.213-0.241-0.282c-0.103-0.071-0.227-0.119-0.372-0.146
					c-0.146-0.026-0.303-0.039-0.472-0.039h-0.308v-0.567h0.239c0.347,0,0.622-0.072,0.828-0.217c0.206-0.145,0.31-0.355,0.31-0.633
					c0-0.123-0.026-0.231-0.079-0.323c-0.052-0.092-0.125-0.167-0.218-0.227c-0.099-0.059-0.203-0.1-0.314-0.123
					c-0.112-0.022-0.238-0.034-0.379-0.034c-0.217,0-0.447,0.039-0.69,0.116c-0.244,0.078-0.474,0.187-0.69,0.328h-0.034v-0.714
					c0.162-0.08,0.378-0.153,0.647-0.221c0.271-0.067,0.531-0.101,0.784-0.101c0.248,0,0.467,0.023,0.656,0.068
					c0.188,0.045,0.359,0.119,0.512,0.219c0.164,0.109,0.288,0.241,0.373,0.396c0.084,0.155,0.126,0.336,0.126,0.543
					c0,0.282-0.1,0.529-0.299,0.739c-0.199,0.211-0.435,0.343-0.705,0.398v0.048c0.109,0.019,0.234,0.057,0.375,0.115
					C770.042,352.883,770.161,352.956,770.26,353.042z"/>
			</g>
		</g>
		<g id="A-SVGStep30">
			<path id="A-point22" fill="#FFFFFF" d="M414.062,347.166c0,1.781-1.445,3.229-3.227,3.229l0,0c-1.783,0-3.23-1.447-3.23-3.229
				l0,0c0-1.781,1.445-3.228,3.23-3.228l0,0C412.613,343.94,414.062,345.384,414.062,347.166L414.062,347.166z"/>
			<g id="A-text22">
				<path fill="#FFFFFF" d="M422.844,343.802h-4.412v2.461h3.791v1.031h-3.791v4.201h-1.16v-8.725h5.572V343.802z"/>
				<path fill="#FFFFFF" d="M426.543,353.042c0.109,0.098,0.199,0.221,0.27,0.369c0.07,0.148,0.105,0.339,0.105,0.574
					c0,0.232-0.042,0.445-0.126,0.639c-0.084,0.193-0.203,0.362-0.355,0.505c-0.171,0.16-0.372,0.277-0.603,0.354
					c-0.231,0.076-0.484,0.114-0.76,0.114c-0.283,0-0.561-0.034-0.833-0.101c-0.273-0.067-0.498-0.14-0.673-0.22v-0.714h0.051
					c0.194,0.127,0.421,0.233,0.683,0.318c0.262,0.084,0.515,0.126,0.759,0.126c0.143,0,0.296-0.024,0.458-0.072
					s0.292-0.119,0.393-0.212c0.104-0.1,0.183-0.21,0.234-0.332c0.051-0.121,0.077-0.273,0.077-0.458
					c0-0.182-0.029-0.333-0.087-0.453s-0.139-0.213-0.241-0.282c-0.103-0.071-0.227-0.119-0.373-0.146
					c-0.146-0.026-0.303-0.039-0.471-0.039h-0.308v-0.567h0.239c0.346,0,0.622-0.072,0.828-0.217
					c0.206-0.145,0.309-0.355,0.309-0.633c0-0.123-0.026-0.231-0.079-0.323c-0.052-0.092-0.125-0.167-0.218-0.227
					c-0.098-0.059-0.203-0.1-0.314-0.123c-0.112-0.022-0.238-0.034-0.379-0.034c-0.217,0-0.447,0.039-0.69,0.116
					c-0.244,0.078-0.474,0.187-0.69,0.328h-0.034v-0.714c0.162-0.08,0.377-0.153,0.647-0.221c0.27-0.067,0.531-0.101,0.784-0.101
					c0.249,0,0.467,0.023,0.656,0.068s0.36,0.119,0.512,0.219c0.164,0.109,0.288,0.241,0.373,0.396
					c0.084,0.155,0.126,0.336,0.126,0.543c0,0.282-0.1,0.529-0.299,0.739c-0.199,0.211-0.434,0.343-0.705,0.398v0.048
					c0.109,0.019,0.234,0.057,0.375,0.115S426.445,352.956,426.543,353.042z"/>
			</g>
		</g>
		<g id="A-SVGStep29">
			<g id="A-text17">
				<path fill="#FFFFFF" d="M397.12,723.834h-5.748v-8.725h5.748v1.031h-4.588v2.391h4.588v1.031h-4.588v3.24h4.588V723.834z"/>
				<path fill="#FFFFFF" d="M401.334,725.381c0.109,0.098,0.199,0.221,0.27,0.368c0.07,0.148,0.105,0.339,0.105,0.574
					c0,0.231-0.042,0.445-0.126,0.639c-0.084,0.193-0.203,0.362-0.355,0.505c-0.171,0.16-0.372,0.277-0.603,0.354
					c-0.231,0.076-0.484,0.114-0.76,0.114c-0.283,0-0.561-0.033-0.833-0.102c-0.273-0.066-0.498-0.14-0.673-0.22V726.9h0.051
					c0.194,0.127,0.421,0.233,0.683,0.318c0.262,0.084,0.515,0.126,0.759,0.126c0.143,0,0.296-0.024,0.458-0.071
					c0.162-0.049,0.292-0.119,0.393-0.213c0.104-0.1,0.183-0.21,0.234-0.331c0.051-0.12,0.077-0.272,0.077-0.458
					c0-0.182-0.029-0.332-0.087-0.452s-0.139-0.214-0.241-0.282c-0.103-0.07-0.227-0.119-0.373-0.145
					c-0.146-0.026-0.303-0.039-0.471-0.039h-0.308v-0.567h0.239c0.346,0,0.622-0.072,0.828-0.218
					c0.206-0.145,0.309-0.355,0.309-0.633c0-0.123-0.026-0.23-0.079-0.323c-0.052-0.092-0.125-0.167-0.218-0.228
					c-0.098-0.059-0.203-0.1-0.314-0.123c-0.112-0.021-0.238-0.033-0.379-0.033c-0.217,0-0.447,0.039-0.69,0.115
					c-0.244,0.078-0.474,0.188-0.69,0.328h-0.034v-0.713c0.162-0.08,0.377-0.154,0.647-0.221c0.27-0.067,0.531-0.102,0.784-0.102
					c0.249,0,0.467,0.023,0.656,0.068c0.189,0.046,0.36,0.119,0.512,0.219c0.164,0.109,0.288,0.242,0.373,0.396
					c0.084,0.155,0.126,0.336,0.126,0.543c0,0.283-0.1,0.529-0.299,0.74s-0.434,0.343-0.705,0.397v0.048
					c0.109,0.019,0.234,0.057,0.375,0.115C401.116,725.222,401.236,725.294,401.334,725.381z"/>
			</g>
			<path id="A-point17" fill="#FFFFFF" d="M384.728,718.125c0,1.78-1.445,3.229-3.227,3.229l0,0c-1.782,0-3.229-1.447-3.229-3.229
				l0,0c0-1.781,1.445-3.229,3.229-3.229l0,0C383.28,714.898,384.728,716.342,384.728,718.125L384.728,718.125z"/>
		</g>
		<g id="A-SVGStep28">
			<g id="A-text16">
				<path fill="#FFFFFF" d="M799.742,717.48c0,0.793-0.173,1.512-0.519,2.156s-0.806,1.145-1.38,1.5
					c-0.398,0.246-0.843,0.424-1.333,0.533s-1.136,0.164-1.937,0.164h-2.203v-8.725h2.18c0.852,0,1.528,0.061,2.03,0.184
					s0.927,0.293,1.274,0.508c0.594,0.371,1.057,0.865,1.389,1.482S799.742,716.633,799.742,717.48z M798.53,717.463
					c0-0.684-0.119-1.26-0.357-1.729s-0.594-0.838-1.066-1.107c-0.344-0.195-0.709-0.332-1.096-0.408s-0.85-0.113-1.389-0.113h-1.09
					v6.732h1.09c0.559,0,1.046-0.041,1.462-0.123s0.798-0.234,1.146-0.457c0.434-0.277,0.759-0.643,0.976-1.096
					S798.53,718.143,798.53,717.463z"/>
				<path fill="#FFFFFF" d="M803.991,723.381c0.109,0.098,0.199,0.221,0.271,0.368c0.07,0.148,0.105,0.339,0.105,0.574
					c0,0.231-0.042,0.445-0.126,0.639c-0.085,0.193-0.203,0.362-0.355,0.505c-0.171,0.16-0.372,0.277-0.604,0.354
					c-0.23,0.076-0.484,0.114-0.76,0.114c-0.282,0-0.561-0.033-0.833-0.102c-0.273-0.066-0.498-0.14-0.674-0.22V724.9h0.052
					c0.193,0.127,0.421,0.233,0.683,0.318c0.263,0.084,0.515,0.126,0.759,0.126c0.144,0,0.296-0.024,0.458-0.071
					c0.161-0.049,0.292-0.119,0.393-0.213c0.104-0.1,0.183-0.21,0.234-0.331c0.051-0.12,0.076-0.272,0.076-0.458
					c0-0.182-0.028-0.332-0.087-0.452c-0.058-0.12-0.139-0.214-0.24-0.282c-0.103-0.07-0.228-0.119-0.373-0.145
					c-0.146-0.026-0.303-0.039-0.471-0.039h-0.308v-0.567h0.239c0.346,0,0.622-0.072,0.828-0.218
					c0.206-0.145,0.309-0.355,0.309-0.633c0-0.123-0.025-0.23-0.078-0.323c-0.053-0.092-0.125-0.167-0.219-0.228
					c-0.098-0.059-0.202-0.1-0.314-0.123c-0.111-0.021-0.237-0.033-0.379-0.033c-0.217,0-0.446,0.039-0.69,0.115
					c-0.243,0.078-0.474,0.188-0.689,0.328h-0.034v-0.713c0.161-0.08,0.377-0.154,0.647-0.221c0.27-0.067,0.531-0.102,0.783-0.102
					c0.249,0,0.468,0.023,0.656,0.068c0.189,0.046,0.36,0.119,0.513,0.219c0.164,0.109,0.288,0.242,0.372,0.396
					c0.084,0.155,0.127,0.336,0.127,0.543c0,0.283-0.101,0.529-0.3,0.74s-0.434,0.343-0.705,0.397v0.048
					c0.109,0.019,0.234,0.057,0.376,0.115C803.774,723.222,803.894,723.294,803.991,723.381z"/>
			</g>
			<path id="A-point16" fill="#FFFFFF" d="M785.081,718.125c0,1.78-1.445,3.229-3.227,3.229l0,0c-1.781,0-3.229-1.447-3.229-3.229
				l0,0c0-1.781,1.445-3.229,3.229-3.229l0,0C783.634,714.898,785.081,716.342,785.081,718.125L785.081,718.125z"/>
		</g>
		<g id="A-SVGStep27">
			<g id="A-text15">
				<path fill="#FFFFFF" d="M799.11,320.201c-0.215,0.094-0.409,0.182-0.583,0.264s-0.401,0.168-0.683,0.258
					c-0.238,0.074-0.497,0.138-0.776,0.19s-0.587,0.079-0.923,0.079c-0.633,0-1.208-0.089-1.726-0.267s-0.968-0.456-1.351-0.835
					c-0.375-0.371-0.668-0.843-0.879-1.415s-0.316-1.237-0.316-1.995c0-0.719,0.102-1.361,0.305-1.928s0.496-1.045,0.879-1.436
					c0.371-0.379,0.819-0.668,1.345-0.867s1.108-0.299,1.749-0.299c0.469,0,0.937,0.057,1.403,0.17s0.985,0.313,1.556,0.598v1.377
					h-0.088c-0.48-0.402-0.957-0.695-1.43-0.879s-0.979-0.275-1.518-0.275c-0.441,0-0.839,0.071-1.192,0.214
					s-0.669,0.364-0.946,0.665c-0.27,0.293-0.479,0.663-0.63,1.11s-0.226,0.964-0.226,1.55c0,0.613,0.083,1.141,0.249,1.582
					s0.38,0.801,0.642,1.078c0.273,0.289,0.593,0.503,0.958,0.642s0.751,0.208,1.157,0.208c0.559,0,1.082-0.096,1.57-0.287
					s0.945-0.479,1.371-0.861h0.082V320.201z"/>
				<path fill="#FFFFFF" d="M803.124,322.38c0.109,0.098,0.199,0.221,0.271,0.369c0.07,0.148,0.105,0.339,0.105,0.574
					c0,0.232-0.042,0.445-0.126,0.639c-0.085,0.193-0.203,0.362-0.355,0.505c-0.171,0.16-0.372,0.277-0.604,0.354
					c-0.23,0.076-0.484,0.114-0.76,0.114c-0.282,0-0.561-0.034-0.833-0.101c-0.273-0.067-0.498-0.14-0.674-0.22V323.9h0.052
					c0.193,0.127,0.421,0.233,0.683,0.318c0.263,0.084,0.515,0.126,0.759,0.126c0.144,0,0.296-0.024,0.458-0.072
					c0.161-0.048,0.292-0.119,0.393-0.212c0.104-0.1,0.183-0.21,0.234-0.332c0.051-0.121,0.076-0.273,0.076-0.458
					c0-0.182-0.028-0.333-0.087-0.453c-0.058-0.12-0.139-0.213-0.24-0.282c-0.103-0.071-0.228-0.119-0.373-0.146
					c-0.146-0.026-0.303-0.039-0.471-0.039h-0.308v-0.567h0.239c0.346,0,0.622-0.072,0.828-0.217
					c0.206-0.145,0.309-0.355,0.309-0.633c0-0.123-0.025-0.231-0.078-0.323c-0.053-0.092-0.125-0.167-0.219-0.227
					c-0.098-0.059-0.202-0.1-0.314-0.123c-0.111-0.022-0.237-0.034-0.379-0.034c-0.217,0-0.446,0.039-0.69,0.116
					c-0.243,0.078-0.474,0.187-0.689,0.328h-0.034v-0.714c0.161-0.08,0.377-0.153,0.647-0.221c0.27-0.067,0.531-0.101,0.783-0.101
					c0.249,0,0.468,0.023,0.656,0.068c0.189,0.045,0.36,0.119,0.513,0.219c0.164,0.109,0.288,0.241,0.372,0.396
					c0.084,0.155,0.127,0.336,0.127,0.543c0,0.282-0.101,0.529-0.3,0.739c-0.199,0.211-0.434,0.343-0.705,0.398v0.048
					c0.109,0.019,0.234,0.057,0.376,0.115C802.906,322.222,803.027,322.294,803.124,322.38z"/>
			</g>
			<path id="A-point15" fill="#FFFFFF" d="M784.728,317.666c0,1.781-1.445,3.229-3.227,3.229l0,0c-1.783,0-3.23-1.447-3.23-3.229
				l0,0c0-1.781,1.445-3.228,3.23-3.228l0,0C783.279,314.44,784.728,315.884,784.728,317.666L784.728,317.666z"/>
		</g>
		<g id="A-SVGStep26">
			<g id="A-text14">
				<path fill="#FFFFFF" d="M395.452,318.15c0,0.434-0.082,0.816-0.246,1.148s-0.385,0.605-0.662,0.82
					c-0.328,0.258-0.688,0.441-1.081,0.551s-0.892,0.164-1.497,0.164h-3.094v-8.725h2.584c0.637,0,1.113,0.023,1.43,0.07
					s0.619,0.145,0.908,0.293c0.32,0.168,0.553,0.384,0.697,0.647s0.217,0.579,0.217,0.946c0,0.414-0.105,0.767-0.316,1.058
					s-0.492,0.524-0.844,0.7v0.047c0.59,0.121,1.055,0.38,1.395,0.776S395.452,317.544,395.452,318.15z M393.501,314.218
					c0-0.211-0.035-0.389-0.105-0.533s-0.184-0.262-0.34-0.352c-0.184-0.105-0.406-0.171-0.668-0.196s-0.586-0.038-0.973-0.038
					h-1.383v2.52h1.5c0.363,0,0.652-0.019,0.867-0.056s0.414-0.114,0.598-0.231s0.313-0.269,0.39-0.454
					S393.501,314.472,393.501,314.218z M394.245,318.197c0-0.352-0.053-0.631-0.158-0.838s-0.297-0.383-0.574-0.527
					c-0.188-0.098-0.415-0.161-0.683-0.19s-0.593-0.044-0.976-0.044h-1.822v3.246h1.535c0.508,0,0.924-0.026,1.248-0.079
					s0.59-0.149,0.797-0.29c0.219-0.152,0.379-0.326,0.48-0.521S394.245,318.505,394.245,318.197z"/>
				<path fill="#FFFFFF" d="M399.472,322.38c0.109,0.098,0.199,0.221,0.27,0.369c0.07,0.148,0.105,0.339,0.105,0.574
					c0,0.232-0.042,0.445-0.126,0.639c-0.084,0.193-0.203,0.362-0.355,0.505c-0.171,0.16-0.372,0.277-0.603,0.354
					c-0.231,0.076-0.484,0.114-0.76,0.114c-0.283,0-0.561-0.034-0.833-0.101c-0.273-0.067-0.498-0.14-0.673-0.22V323.9h0.051
					c0.194,0.127,0.421,0.233,0.683,0.318c0.262,0.084,0.515,0.126,0.759,0.126c0.143,0,0.296-0.024,0.458-0.072
					s0.292-0.119,0.393-0.212c0.104-0.1,0.183-0.21,0.234-0.332c0.051-0.121,0.077-0.273,0.077-0.458
					c0-0.182-0.029-0.333-0.087-0.453s-0.139-0.213-0.241-0.282c-0.103-0.071-0.227-0.119-0.373-0.146
					c-0.146-0.026-0.303-0.039-0.471-0.039h-0.308v-0.567h0.239c0.346,0,0.622-0.072,0.828-0.217
					c0.206-0.145,0.309-0.355,0.309-0.633c0-0.123-0.026-0.231-0.079-0.323c-0.052-0.092-0.125-0.167-0.218-0.227
					c-0.098-0.059-0.203-0.1-0.314-0.123c-0.112-0.022-0.238-0.034-0.379-0.034c-0.217,0-0.447,0.039-0.69,0.116
					c-0.244,0.078-0.474,0.187-0.69,0.328h-0.034v-0.714c0.162-0.08,0.377-0.153,0.647-0.221c0.27-0.067,0.531-0.101,0.784-0.101
					c0.249,0,0.467,0.023,0.656,0.068s0.36,0.119,0.512,0.219c0.164,0.109,0.288,0.241,0.373,0.396
					c0.084,0.155,0.126,0.336,0.126,0.543c0,0.282-0.1,0.529-0.299,0.739c-0.199,0.211-0.434,0.343-0.705,0.398v0.048
					c0.109,0.019,0.234,0.057,0.375,0.115S399.374,322.294,399.472,322.38z"/>
			</g>
			<path id="A-point14" fill="#FFFFFF" d="M384.728,317.666c0,1.781-1.445,3.229-3.227,3.229l0,0c-1.782,0-3.229-1.447-3.229-3.229
				l0,0c0-1.781,1.445-3.228,3.229-3.228l0,0C383.28,314.44,384.728,315.884,384.728,317.666L384.728,317.666z"/>
		</g>
		<g id="A-SVGStep25">
			<line id="geo12" fill="none" stroke="#FFFFFF" stroke-miterlimit="10" x1="823.316" y1="276.265" x2="340.007" y2="759.568"/>
		</g>
		<g id="A-SVGStep24">
			<line id="geo11" fill="none" stroke="#FFFFFF" stroke-miterlimit="10" x1="340.006" y1="276.265" x2="823.317" y2="759.568"/>
		</g>
		<g id="A-SVGStep23">
			<line id="geo10" fill="none" stroke="#FFFFFF" stroke-miterlimit="10" x1="581.666" y1="1001.244" x2="239.914" y2="517.919"/>
		</g>
		<g id="A-SVGStep22">
			<line id="geo9" fill="none" stroke="#FFFFFF" stroke-miterlimit="10" x1="923.41" y1="517.919" x2="581.671" y2="1001.176"/>
		</g>
		<g id="A-SVGStep21">
			<line id="geo8" fill="none" stroke="#FFFFFF" stroke-miterlimit="10" x1="581.66" y1="34.61" x2="923.41" y2="517.919"/>
		</g>
		<g id="A-SVGStep20">
			<line id="geo7" fill="none" stroke="#FFFFFF" stroke-miterlimit="10" x1="239.914" y1="517.919" x2="581.66" y2="34.61"/>
		</g>
		<g id="A-SVGStep19">
			<path id="A-point12" fill="#FFFFFF" d="M584.843,859.854c0,1.781-1.445,3.229-3.229,3.229l0,0c-1.78,0-3.229-1.447-3.229-3.229
				l0,0c0-1.78,1.444-3.228,3.229-3.228l0,0C583.398,856.627,584.843,858.071,584.843,859.854L584.843,859.854z"/>
			<g id="A-text13">
				<path fill="#FFFFFF" d="M595.588,871.854h-1.236l-0.855-2.432h-3.772l-0.855,2.432h-1.178l3.176-8.725h1.548L595.588,871.854z
					 M593.139,868.427l-1.529-4.283l-1.535,4.283H593.139z"/>
				<path fill="#FFFFFF" d="M599.285,873.401c0.109,0.098,0.199,0.221,0.271,0.368s0.105,0.34,0.105,0.573
					c0,0.232-0.042,0.445-0.127,0.641c-0.084,0.192-0.202,0.36-0.354,0.505c-0.17,0.159-0.371,0.276-0.604,0.354
					c-0.231,0.077-0.483,0.114-0.76,0.114c-0.282,0-0.561-0.033-0.834-0.101c-0.272-0.068-0.497-0.142-0.673-0.221v-0.714h0.052
					c0.193,0.127,0.421,0.233,0.684,0.317c0.262,0.084,0.515,0.126,0.759,0.126c0.144,0,0.296-0.023,0.458-0.071
					c0.161-0.048,0.292-0.118,0.393-0.212c0.104-0.101,0.184-0.211,0.233-0.331c0.052-0.121,0.077-0.272,0.077-0.458
					c0-0.183-0.029-0.333-0.087-0.453c-0.06-0.119-0.14-0.213-0.241-0.28c-0.104-0.07-0.228-0.119-0.372-0.146
					c-0.146-0.027-0.303-0.039-0.472-0.039h-0.309v-0.567h0.239c0.347,0,0.623-0.071,0.829-0.217
					c0.206-0.145,0.309-0.354,0.309-0.634c0-0.123-0.025-0.229-0.078-0.322s-0.126-0.168-0.219-0.228
					c-0.098-0.061-0.203-0.101-0.313-0.123c-0.111-0.022-0.238-0.034-0.38-0.034c-0.217,0-0.445,0.039-0.689,0.116
					c-0.243,0.077-0.475,0.187-0.689,0.328h-0.033v-0.714c0.16-0.08,0.377-0.153,0.646-0.222c0.271-0.066,0.531-0.101,0.784-0.101
					c0.248,0,0.467,0.021,0.656,0.068c0.188,0.046,0.358,0.117,0.513,0.219c0.163,0.108,0.288,0.241,0.372,0.396
					s0.126,0.336,0.126,0.543c0,0.282-0.101,0.528-0.299,0.739c-0.199,0.211-0.436,0.344-0.705,0.398v0.048
					c0.108,0.018,0.233,0.056,0.376,0.114C599.069,873.242,599.189,873.314,599.285,873.401z"/>
			</g>
		</g>
		<g id="A-SVGStep18">
			<path id="A-point11" fill="#FFFFFF" d="M926.639,517.92c0,1.781-1.445,3.229-3.229,3.229l0,0c-1.779,0-3.229-1.447-3.229-3.229
				l0,0c0-1.781,1.445-3.228,3.229-3.228l0,0C925.194,514.693,926.639,516.138,926.639,517.92L926.639,517.92z"/>
			<g id="A-text11">
				<path fill="#FFFFFF" d="M929.693,529.31l4.486-6.561v-0.036h-4.104v-0.876h5.457v0.636l-4.461,6.537v0.035h4.521v0.876h-5.901
					L929.693,529.31L929.693,529.31z"/>
				<path fill="#FFFFFF" d="M936.282,533.917v-0.377l0.482-0.469c1.16-1.104,1.684-1.691,1.69-2.376
					c0-0.461-0.224-0.889-0.901-0.889c-0.412,0-0.754,0.21-0.964,0.386l-0.195-0.435c0.314-0.266,0.762-0.461,1.285-0.461
					c0.979,0,1.391,0.671,1.391,1.32c0,0.839-0.606,1.517-1.564,2.438l-0.363,0.335v0.016h2.041v0.51L936.282,533.917
					L936.282,533.917z"/>
			</g>
		</g>
		<g id="A-SVGStep17">
			<path id="A-point10" fill="#FFFFFF" d="M584.889,176.17c0,1.781-1.445,3.229-3.228,3.229l0,0c-1.779,0-3.229-1.447-3.229-3.229
				l0,0c0-1.781,1.445-3.228,3.229-3.228l0,0C583.444,172.943,584.889,174.388,584.889,176.17L584.889,176.17z"/>
			<g id="A-text10">
				<path fill="#FFFFFF" d="M597.725,180.456l-2.27,8.725h-1.307l-1.834-7.242l-1.793,7.242h-1.277l-2.309-8.725h1.188l1.834,7.254
					l1.807-7.254h1.178l1.822,7.324l1.822-7.324H597.725z"/>
				<path fill="#FFFFFF" d="M602.257,193.177h-3.443v-0.714c0.239-0.205,0.479-0.41,0.719-0.615c0.24-0.205,0.464-0.408,0.672-0.611
					c0.438-0.424,0.736-0.76,0.898-1.01c0.161-0.249,0.242-0.519,0.242-0.808c0-0.264-0.087-0.471-0.263-0.62
					c-0.175-0.148-0.416-0.224-0.729-0.224c-0.208,0-0.432,0.037-0.674,0.109c-0.241,0.073-0.479,0.185-0.707,0.335h-0.034v-0.718
					c0.162-0.079,0.378-0.152,0.647-0.219c0.271-0.065,0.529-0.099,0.782-0.099c0.521,0,0.933,0.126,1.229,0.378
					c0.296,0.251,0.443,0.592,0.443,1.022c0,0.193-0.024,0.374-0.073,0.542c-0.049,0.167-0.121,0.326-0.217,0.477
					c-0.091,0.141-0.192,0.279-0.313,0.416c-0.119,0.137-0.265,0.288-0.436,0.455c-0.243,0.238-0.495,0.471-0.756,0.694
					c-0.261,0.225-0.503,0.433-0.729,0.624h2.736v0.586H602.257z"/>
			</g>
		</g>
		<g id="A-SVGStep16">
			<path id="A-point9" fill="#FFFFFF" d="M243.141,517.919c0,1.781-1.445,3.229-3.227,3.229l0,0c-1.782,0-3.229-1.447-3.229-3.229
				l0,0c0-1.781,1.445-3.228,3.229-3.228l0,0C241.695,514.692,243.141,516.137,243.141,517.919L243.141,517.919z"/>
			<g id="A-text9">
				<path fill="#FFFFFF" d="M231.7,500.205l-3.178,8.725h-1.547l-3.176-8.725h1.242l2.734,7.676l2.736-7.676H231.7z"/>
				<path fill="#FFFFFF" d="M235.846,512.926h-3.443v-0.714c0.239-0.205,0.479-0.41,0.721-0.615
					c0.238-0.205,0.464-0.406,0.671-0.609c0.437-0.424,0.734-0.761,0.896-1.011s0.242-0.52,0.242-0.809
					c0-0.264-0.087-0.471-0.261-0.62c-0.174-0.146-0.417-0.224-0.729-0.224c-0.208,0-0.432,0.037-0.673,0.107
					c-0.241,0.073-0.477,0.187-0.707,0.336h-0.034v-0.719c0.162-0.079,0.378-0.15,0.647-0.219c0.27-0.065,0.531-0.099,0.784-0.099
					c0.521,0,0.93,0.126,1.226,0.378c0.296,0.251,0.444,0.592,0.444,1.021c0,0.193-0.025,0.374-0.074,0.542
					c-0.049,0.167-0.121,0.326-0.217,0.479c-0.089,0.141-0.193,0.277-0.313,0.416c-0.119,0.137-0.265,0.288-0.436,0.455
					c-0.244,0.236-0.496,0.471-0.755,0.692c-0.26,0.227-0.502,0.435-0.729,0.624h2.736v0.586h0.004V512.926z"/>
			</g>
		</g>
		<g id="A-SVGStep15">
			<circle id="geo6" fill="none" stroke="#FFFFFF" stroke-miterlimit="10" cx="581.661" cy="517.919" r="341.749"/>
		</g>
		<g id="A-SVGStep14">
			<path id="A-point8" fill="#FFFFFF" d="M343.236,759.568c0,1.779-1.445,3.229-3.227,3.229l0,0c-1.782,0-3.229-1.447-3.229-3.229
				l0,0c0-1.781,1.445-3.229,3.229-3.229l0,0C341.788,756.342,343.236,757.786,343.236,759.568L343.236,759.568z"/>
			<g id="A-text8">
				<path fill="#FFFFFF" d="M330.06,768.044c0,0.633-0.069,1.185-0.208,1.655c-0.139,0.47-0.366,0.861-0.683,1.175
					c-0.303,0.297-0.652,0.514-1.057,0.65c-0.401,0.136-0.871,0.205-1.406,0.205c-0.547,0-1.021-0.072-1.43-0.219
					c-0.407-0.145-0.748-0.355-1.023-0.639c-0.316-0.32-0.544-0.707-0.685-1.16c-0.139-0.453-0.208-1.01-0.208-1.67v-5.221h1.16
					v5.278c0,0.474,0.032,0.847,0.097,1.118c0.065,0.273,0.173,0.521,0.325,0.744c0.172,0.254,0.405,0.445,0.7,0.574
					s0.648,0.193,1.063,0.193c0.418,0,0.773-0.063,1.066-0.19s0.527-0.318,0.703-0.577c0.152-0.223,0.261-0.478,0.325-0.765
					c0.063-0.287,0.097-0.646,0.097-1.069v-5.309h1.16v5.223h0.003V768.044z"/>
				<path fill="#FFFFFF" d="M335.096,775.544h-3.443v-0.714c0.239-0.205,0.479-0.41,0.72-0.615c0.241-0.205,0.465-0.408,0.673-0.611
					c0.437-0.424,0.734-0.76,0.896-1.01c0.161-0.249,0.242-0.519,0.242-0.808c0-0.264-0.087-0.471-0.261-0.62
					c-0.175-0.148-0.418-0.224-0.729-0.224c-0.208,0-0.432,0.036-0.673,0.107c-0.242,0.073-0.478,0.187-0.707,0.335h-0.035v-0.718
					c0.162-0.079,0.378-0.152,0.648-0.219c0.27-0.065,0.531-0.101,0.783-0.101c0.521,0,0.931,0.126,1.227,0.379
					c0.296,0.25,0.444,0.593,0.444,1.021c0,0.193-0.024,0.374-0.073,0.542c-0.049,0.167-0.121,0.326-0.217,0.477
					c-0.09,0.143-0.193,0.279-0.313,0.416c-0.12,0.139-0.266,0.288-0.436,0.455c-0.244,0.238-0.496,0.473-0.756,0.694
					c-0.262,0.225-0.502,0.433-0.729,0.624h2.735v0.586h0.003V775.544z"/>
			</g>
		</g>
		<g id="A-SVGStep13">
			<path id="A-point7" fill="#FFFFFF" d="M584.891,1001.223c0,1.781-1.445,3.229-3.229,3.229l0,0c-1.78,0-3.229-1.447-3.229-3.229
				l0,0c0-1.779,1.445-3.228,3.229-3.228l0,0C583.445,997.996,584.891,999.44,584.891,1001.223L584.891,1001.223z"/>
			<g id="A-text7">
				<path fill="#FFFFFF" d="M593.367,1006.509h-3.115v7.693h-1.16v-7.693h-3.117v-1.031h7.395L593.367,1006.509L593.367,1006.509z"
					/>
				<path fill="#FFFFFF" d="M597.363,1018.198h-3.441v-0.714c0.237-0.205,0.479-0.41,0.72-0.615s0.463-0.408,0.671-0.611
					c0.437-0.424,0.736-0.76,0.897-1.01c0.16-0.249,0.241-0.521,0.241-0.808c0-0.266-0.087-0.473-0.261-0.62
					c-0.175-0.148-0.418-0.226-0.729-0.226c-0.208,0-0.434,0.037-0.675,0.109c-0.24,0.073-0.478,0.185-0.707,0.335h-0.033v-0.718
					c0.161-0.079,0.378-0.152,0.646-0.22c0.271-0.064,0.531-0.1,0.783-0.1c0.521,0,0.931,0.126,1.227,0.378
					c0.298,0.251,0.444,0.592,0.444,1.022c0,0.191-0.023,0.374-0.073,0.542c-0.049,0.167-0.121,0.325-0.217,0.477
					c-0.09,0.143-0.192,0.279-0.313,0.416c-0.121,0.137-0.268,0.288-0.438,0.455c-0.244,0.238-0.496,0.471-0.756,0.694
					c-0.26,0.225-0.502,0.433-0.728,0.624h2.734v0.586h0.005V1018.198z"/>
			</g>
		</g>
		<g id="A-SVGStep12">
			<path id="A-point6" fill="#FFFFFF" d="M826.545,759.568c0,1.779-1.445,3.229-3.229,3.229l0,0c-1.782,0-3.229-1.447-3.229-3.229
				l0,0c0-1.781,1.443-3.229,3.229-3.229l0,0C825.099,756.342,826.545,757.786,826.545,759.568L826.545,759.568z"/>
			<g id="A-text6">
				<path fill="#FFFFFF" d="M835.141,770.058c0,0.342-0.079,0.678-0.237,1.01c-0.158,0.331-0.38,0.611-0.665,0.844
					c-0.313,0.25-0.677,0.444-1.093,0.586c-0.416,0.141-0.917,0.211-1.503,0.211c-0.629,0-1.194-0.06-1.696-0.176
					c-0.502-0.117-1.013-0.291-1.532-0.521v-1.453h0.082c0.441,0.367,0.951,0.65,1.529,0.852c0.578,0.198,1.121,0.299,1.629,0.299
					c0.719,0,1.278-0.135,1.681-0.404c0.399-0.269,0.601-0.629,0.601-1.078c0-0.387-0.095-0.672-0.284-0.854
					c-0.188-0.185-0.478-0.326-0.864-0.428c-0.293-0.078-0.608-0.145-0.95-0.193c-0.344-0.05-0.704-0.115-1.087-0.193
					c-0.773-0.164-1.349-0.442-1.722-0.841c-0.373-0.396-0.56-0.913-0.56-1.55c0-0.729,0.309-1.329,0.926-1.796s1.4-0.7,2.35-0.7
					c0.613,0,1.178,0.06,1.688,0.176c0.511,0.117,0.965,0.264,1.359,0.436v1.371h-0.082c-0.332-0.281-0.771-0.517-1.312-0.7
					c-0.541-0.187-1.095-0.278-1.661-0.278c-0.621,0-1.12,0.129-1.497,0.387c-0.377,0.26-0.563,0.592-0.563,0.996
					c0,0.363,0.094,0.648,0.281,0.855c0.187,0.207,0.518,0.364,0.988,0.475c0.25,0.056,0.605,0.121,1.066,0.199
					s0.852,0.158,1.172,0.24c0.648,0.172,1.137,0.432,1.465,0.777C834.978,768.949,835.141,769.433,835.141,770.058z"/>
				<path fill="#FFFFFF" d="M839.823,776.544h-3.441v-0.714c0.237-0.205,0.479-0.41,0.72-0.615s0.463-0.408,0.671-0.611
					c0.438-0.424,0.736-0.76,0.898-1.01c0.16-0.249,0.24-0.519,0.24-0.808c0-0.264-0.087-0.471-0.261-0.62
					c-0.175-0.148-0.418-0.224-0.729-0.224c-0.208,0-0.434,0.036-0.674,0.107c-0.241,0.073-0.479,0.187-0.706,0.335h-0.035v-0.718
					c0.162-0.079,0.378-0.152,0.646-0.219c0.271-0.065,0.531-0.101,0.783-0.101c0.521,0,0.932,0.126,1.229,0.379
					c0.296,0.25,0.442,0.593,0.442,1.021c0,0.193-0.022,0.374-0.072,0.542c-0.05,0.167-0.12,0.326-0.218,0.477
					c-0.09,0.143-0.191,0.279-0.313,0.416c-0.12,0.139-0.268,0.288-0.438,0.455c-0.244,0.238-0.496,0.473-0.756,0.694
					c-0.26,0.225-0.502,0.433-0.727,0.624h2.733v0.586h0.005V776.544z"/>
			</g>
		</g>
		<g id="A-SVGStep11">
			<path id="A-point5" fill="#FFFFFF" d="M826.545,276.264c0,1.781-1.445,3.229-3.229,3.229l0,0c-1.782,0-3.229-1.447-3.229-3.229
				l0,0c0-1.781,1.443-3.228,3.229-3.228l0,0C825.099,273.038,826.545,274.482,826.545,276.264L826.545,276.264z"/>
			<g id="A-text5">
				<path fill="#FFFFFF" d="M834.02,269.244h-1.506l-2.918-3.469h-1.635v3.469h-1.16v-8.725h2.441c0.527,0,0.969,0.034,1.318,0.103
					c0.351,0.069,0.668,0.19,0.949,0.366c0.314,0.199,0.563,0.45,0.741,0.753c0.178,0.303,0.267,0.687,0.267,1.151
					c0,0.629-0.158,1.155-0.475,1.579c-0.317,0.424-0.752,0.743-1.309,0.958L834.02,269.244z M831.307,262.974
					c0-0.25-0.044-0.472-0.132-0.665s-0.233-0.356-0.438-0.489c-0.168-0.113-0.367-0.192-0.598-0.237
					c-0.231-0.045-0.502-0.067-0.814-0.067h-1.363v3.293h1.172c0.365,0,0.688-0.032,0.961-0.097c0.271-0.065,0.506-0.185,0.695-0.36
					c0.178-0.164,0.308-0.353,0.392-0.565S831.307,263.302,831.307,262.974z"/>
				<path fill="#FFFFFF" d="M837.966,273.24h-3.443v-0.714c0.239-0.205,0.479-0.41,0.719-0.615c0.24-0.205,0.466-0.408,0.672-0.611
					c0.438-0.424,0.736-0.76,0.898-1.01c0.162-0.249,0.242-0.519,0.242-0.808c0-0.264-0.087-0.471-0.263-0.62
					c-0.175-0.148-0.416-0.224-0.729-0.224c-0.207,0-0.432,0.037-0.674,0.109c-0.24,0.073-0.479,0.185-0.707,0.335h-0.033v-0.718
					c0.161-0.079,0.377-0.152,0.646-0.219c0.271-0.065,0.529-0.099,0.783-0.099c0.521,0,0.932,0.126,1.228,0.378
					c0.296,0.251,0.442,0.592,0.442,1.022c0,0.193-0.023,0.374-0.072,0.542c-0.05,0.167-0.121,0.326-0.218,0.477
					c-0.089,0.141-0.191,0.279-0.313,0.416c-0.119,0.137-0.264,0.288-0.436,0.455c-0.243,0.238-0.495,0.471-0.756,0.694
					c-0.26,0.225-0.503,0.433-0.729,0.624h2.736v0.586H837.966z"/>
			</g>
		</g>
		<g id="A-SVGStep10">
			<path id="A-point4" fill="#FFFFFF" d="M584.89,34.609c0,1.781-1.445,3.229-3.229,3.229l0,0c-1.78,0-3.229-1.447-3.229-3.229l0,0
				c0-1.781,1.445-3.228,3.229-3.228l0,0C583.444,31.382,584.89,32.827,584.89,34.609L584.89,34.609z"/>
			<g id="A-text4">
				<path fill="#FFFFFF" d="M594.927,49.727c-0.234,0.059-0.466,0.101-0.694,0.126c-0.228,0.025-0.462,0.038-0.7,0.038
					c-0.68,0-1.226-0.187-1.638-0.56s-0.636-0.907-0.671-1.603c-0.094,0.016-0.187,0.026-0.272,0.032
					c-0.087,0.006-0.173,0.009-0.255,0.009c-0.611,0-1.171-0.102-1.673-0.305s-0.929-0.498-1.28-0.885
					c-0.351-0.387-0.622-0.861-0.812-1.424c-0.19-0.563-0.284-1.205-0.284-1.928c0-0.711,0.094-1.349,0.281-1.913
					c0.187-0.564,0.461-1.048,0.818-1.45c0.346-0.383,0.771-0.676,1.28-0.879c0.509-0.203,1.065-0.305,1.667-0.305
					c0.625,0,1.188,0.103,1.687,0.308c0.498,0.205,0.921,0.497,1.269,0.876c0.355,0.391,0.628,0.869,0.817,1.436
					c0.188,0.567,0.283,1.209,0.283,1.928c0,1.066-0.219,1.965-0.652,2.695c-0.437,0.73-1.021,1.242-1.755,1.535
					c0.016,0.445,0.121,0.791,0.314,1.037c0.195,0.246,0.552,0.369,1.066,0.369c0.16,0,0.351-0.024,0.571-0.073
					c0.22-0.049,0.378-0.093,0.472-0.132h0.158L594.927,49.727L594.927,49.727z M593.544,43.229c0-1.133-0.256-2.007-0.764-2.622
					c-0.508-0.615-1.201-0.923-2.08-0.923c-0.887,0-1.583,0.308-2.089,0.923c-0.506,0.615-0.759,1.489-0.759,2.622
					c0,1.145,0.258,2.021,0.773,2.628c0.515,0.607,1.206,0.911,2.072,0.911c0.867,0,1.56-0.304,2.071-0.911
					S593.544,44.374,593.544,43.229z"/>
				<path fill="#FFFFFF" d="M599.41,51.584h-3.441V50.87c0.237-0.205,0.479-0.41,0.72-0.615s0.463-0.408,0.671-0.611
					c0.438-0.424,0.736-0.76,0.898-1.01c0.161-0.249,0.242-0.519,0.242-0.808c0-0.264-0.089-0.471-0.263-0.62
					c-0.175-0.148-0.418-0.224-0.729-0.224c-0.208,0-0.434,0.037-0.673,0.109c-0.242,0.073-0.479,0.185-0.707,0.335h-0.035v-0.718
					c0.162-0.079,0.378-0.152,0.646-0.219c0.271-0.065,0.531-0.099,0.783-0.099c0.521,0,0.932,0.126,1.229,0.378
					c0.296,0.251,0.442,0.592,0.442,1.022c0,0.193-0.022,0.374-0.071,0.542c-0.051,0.167-0.121,0.326-0.219,0.477
					c-0.09,0.141-0.191,0.279-0.313,0.416c-0.12,0.137-0.267,0.288-0.438,0.455c-0.243,0.238-0.495,0.471-0.756,0.694
					c-0.26,0.225-0.502,0.433-0.727,0.624h2.734L599.41,51.584L599.41,51.584z"/>
			</g>
		</g>
		<g id="A-SVGStep9">
			<path id="A-point3" fill="#FFFFFF" d="M343.236,276.264c0,1.781-1.445,3.229-3.227,3.229l0,0c-1.782,0-3.229-1.447-3.229-3.229
				l0,0c0-1.781,1.445-3.228,3.229-3.228l0,0C341.787,273.038,343.236,274.482,343.236,276.264L343.236,276.264z"/>
			<g id="A-text3">
				<path fill="#FFFFFF" d="M330.198,262.156c0,0.387-0.065,0.745-0.202,1.075c-0.135,0.33-0.321,0.616-0.563,0.858
					c-0.301,0.301-0.656,0.526-1.066,0.677s-0.928,0.226-1.553,0.226h-1.16v3.252h-1.16v-8.725h2.367
					c0.523,0,0.967,0.044,1.33,0.132c0.363,0.088,0.686,0.226,0.967,0.413c0.332,0.223,0.589,0.5,0.771,0.832
					C330.109,261.228,330.198,261.648,330.198,262.156z M328.99,262.185c0-0.301-0.053-0.563-0.158-0.785
					c-0.104-0.222-0.266-0.404-0.479-0.545c-0.188-0.121-0.401-0.208-0.642-0.261c-0.241-0.053-0.546-0.079-0.911-0.079h-1.148
					v3.486h0.979c0.469,0,0.85-0.042,1.143-0.126s0.531-0.218,0.715-0.401c0.186-0.188,0.313-0.385,0.392-0.592
					C328.954,262.675,328.99,262.443,328.99,262.185z"/>
				<path fill="#FFFFFF" d="M334.549,272.24h-3.443v-0.714c0.239-0.205,0.479-0.41,0.719-0.615c0.24-0.205,0.464-0.408,0.671-0.611
					c0.438-0.424,0.736-0.76,0.898-1.01c0.162-0.249,0.242-0.519,0.242-0.808c0-0.264-0.087-0.471-0.261-0.62
					c-0.176-0.148-0.417-0.224-0.729-0.224c-0.208,0-0.432,0.037-0.673,0.109c-0.241,0.073-0.479,0.185-0.707,0.335h-0.034v-0.718
					c0.162-0.079,0.377-0.152,0.647-0.219c0.27-0.065,0.529-0.099,0.782-0.099c0.521,0,0.932,0.126,1.228,0.378
					c0.296,0.251,0.443,0.592,0.443,1.022c0,0.193-0.024,0.374-0.073,0.542c-0.049,0.167-0.121,0.326-0.218,0.477
					c-0.09,0.141-0.192,0.279-0.313,0.416c-0.12,0.137-0.265,0.288-0.436,0.455c-0.244,0.238-0.496,0.471-0.757,0.694
					c-0.26,0.225-0.502,0.433-0.728,0.624h2.736v0.586H334.549z"/>
			</g>
		</g>
		<g id="A-SVGStep8">
			<circle id="geo4" fill="none" stroke="#FFFFFF" stroke-miterlimit="10" cx="581.661" cy="759.568" r="241.655"/>
		</g>
		<g id="A-SVGStep7">
			<circle id="geo3" fill="none" stroke="#FFFFFF" stroke-miterlimit="10" cx="581.66" cy="276.265" r="241.655"/>
		</g>
		<g id="A-SVGStep6">
			<circle id="geo5" fill="none" stroke="#FFFFFF" stroke-miterlimit="10" cx="823.319" cy="517.92" r="241.655"/>
		</g>
		<g id="A-SVGStep5">
			<circle id="geo2" fill="none" stroke="#FFFFFF" stroke-miterlimit="10" cx="340.01" cy="517.921" r="241.655"/>
		</g>
		<g id="A-SVGStep4">
			<path id="A-point2" fill="#FFFFFF" d="M826.545,517.92c0,1.781-1.444,3.229-3.229,3.229l0,0c-1.782,0-3.227-1.447-3.227-3.229
				l0,0c0-1.783,1.44-3.228,3.227-3.228l0,0C825.101,514.693,826.545,516.137,826.545,517.92L826.545,517.92z"/>
			<g id="A-text2">
				<path fill="#FFFFFF" d="M833.635,522.011c0.354,0.395,0.628,0.869,0.813,1.438c0.189,0.563,0.284,1.209,0.284,1.928
					s-0.097,1.362-0.29,1.931c-0.189,0.569-0.464,1.042-0.812,1.423c-0.359,0.396-0.784,0.689-1.274,0.893s-1.05,0.299-1.679,0.299
					c-0.613,0-1.171-0.102-1.673-0.305s-0.933-0.498-1.28-0.886c-0.354-0.39-0.622-0.86-0.813-1.427
					c-0.188-0.563-0.281-1.205-0.281-1.928c0-0.711,0.094-1.349,0.277-1.913c0.188-0.563,0.461-1.048,0.82-1.45
					c0.344-0.383,0.771-0.676,1.28-0.879s1.063-0.305,1.667-0.305c0.625,0,1.187,0.103,1.685,0.308S833.284,521.632,833.635,522.011
					z M833.53,525.374c0-1.133-0.254-2.007-0.762-2.622s-1.201-0.923-2.08-0.923c-0.887,0-1.583,0.308-2.089,0.923
					s-0.759,1.489-0.759,2.622c0,1.146,0.258,2.021,0.771,2.628c0.519,0.607,1.207,0.911,2.074,0.911s1.558-0.304,2.071-0.911
					C833.269,527.395,833.53,526.519,833.53,525.374z"/>
				<path fill="#FFFFFF" d="M839.398,533.729h-3.443v-0.714c0.239-0.205,0.479-0.406,0.724-0.611
					c0.239-0.205,0.463-0.408,0.671-0.611c0.437-0.424,0.736-0.76,0.896-1.01c0.161-0.249,0.242-0.521,0.242-0.812
					c0-0.264-0.087-0.471-0.261-0.62c-0.175-0.146-0.418-0.224-0.729-0.224c-0.207,0-0.432,0.037-0.673,0.109
					c-0.241,0.069-0.478,0.185-0.707,0.335h-0.031v-0.72c0.159-0.077,0.378-0.15,0.646-0.221c0.271-0.063,0.531-0.099,0.783-0.099
					c0.521,0,0.931,0.126,1.227,0.378c0.298,0.251,0.444,0.592,0.444,1.021c0,0.193-0.024,0.374-0.073,0.542
					c-0.049,0.167-0.121,0.326-0.217,0.479c-0.09,0.141-0.193,0.279-0.313,0.416c-0.12,0.137-0.27,0.288-0.438,0.455
					c-0.244,0.236-0.496,0.471-0.756,0.69c-0.26,0.229-0.502,0.437-0.729,0.625h2.734v0.586h0.004L839.398,533.729L839.398,533.729
					L839.398,533.729z"/>
			</g>
		</g>
		<g id="A-SVGStep3">
			<path id="A-point1" fill="#FFFFFF" d="M343.237,517.932c0,1.781-1.445,3.229-3.227,3.229l0,0c-1.782,0-3.229-1.447-3.229-3.229
				l0,0c0-1.779,1.445-3.228,3.229-3.228l0,0C341.788,514.705,343.237,516.149,343.237,517.932L343.237,517.932z"/>
			<g id="A-text">
				<path fill="#FFFFFF" d="M350.742,529.733h-1.436l-4.137-7.809v7.809h-1.084v-8.729h1.799l3.771,7.125v-7.125h1.084
					L350.742,529.733L350.742,529.733z"/>
				<path fill="#FFFFFF" d="M355.888,533.729h-3.443v-0.714c0.239-0.205,0.479-0.406,0.719-0.611
					c0.24-0.205,0.468-0.408,0.675-0.611c0.437-0.424,0.732-0.76,0.896-1.01c0.162-0.249,0.242-0.521,0.242-0.812
					c0-0.264-0.087-0.471-0.261-0.62c-0.178-0.146-0.417-0.224-0.729-0.224c-0.208,0-0.432,0.037-0.673,0.109
					c-0.241,0.069-0.477,0.185-0.707,0.335h-0.034v-0.72c0.162-0.077,0.377-0.15,0.647-0.221c0.27-0.063,0.527-0.099,0.784-0.099
					c0.521,0,0.93,0.126,1.226,0.378c0.296,0.251,0.444,0.592,0.444,1.021c0,0.193-0.025,0.374-0.074,0.542
					c-0.049,0.167-0.121,0.326-0.217,0.479c-0.089,0.141-0.193,0.279-0.313,0.416s-0.265,0.288-0.436,0.455
					c-0.244,0.236-0.496,0.471-0.755,0.69c-0.264,0.229-0.502,0.437-0.729,0.625h2.736v0.586h0.004L355.888,533.729L355.888,533.729
					z"/>
			</g>
		</g>
		<g id="A-SVGStep2">
			<line id="geo1" fill="none" stroke="#FFFFFF" stroke-miterlimit="10" x1="78.162" y1="517.921" x2="1085.166" y2="517.921"/>
		</g>
		<g id="A-SVGStep1">
			<line id="geo" fill="none" stroke="#FFFFFF" stroke-miterlimit="10" x1="581.661" y1="1018.393" x2="581.661" y2="17.5"/>
		</g>
	</g>
</g>
</svg>
