<?xml version="1.0" encoding="utf-8"?>
<!-- Generator: Adobe Illustrator 16.0.0, SVG Export Plug-In . SVG Version: 6.00 Build 0)  -->
<!DOCTYPE svg PUBLIC "-//W3C//DTD SVG 1.1//EN" "http://www.w3.org/Graphics/SVG/1.1/DTD/svg11.dtd">
<svg version="1.1" id="A_detailFruitOfLife" xmlns="http://www.w3.org/2000/svg" xmlns:xlink="http://www.w3.org/1999/xlink"
	 x="0px" y="0px" width="3717px" height="2478px" viewBox="0 0 3717 2478" enable-background="new 0 0 3717 2478"
	 xml:space="preserve">
<g id="A_SVGGroupSteps">
	<g id="rotations_1_">
		<g id="rotation_1_10_">
			<path fill="none" stroke="#FFFFFF" stroke-miterlimit="10" d="M2098.493,1463.89c0,132.687-107.496,240.087-240.057,240.087
				c-132.844,0-240.245-107.4-240.245-240.087c0-132.688,107.212-240.137,240.245-240.137
				C1990.966,1223.753,2098.493,1331.17,2098.493,1463.89z"/>
			<path fill="none" stroke="#FFFFFF" stroke-miterlimit="10" d="M2306.596,1343.845c0,132.623-107.591,240.088-240.089,240.088
				c-132.654,0-240.245-107.465-240.245-240.088c0-132.687,107.591-240.135,240.245-240.135
				C2199.005,1103.709,2306.596,1211.158,2306.596,1343.845z"/>
			<path fill="none" stroke="#FFFFFF" stroke-miterlimit="10" d="M2306.532,1103.773c0,132.607-107.527,240.072-240.058,240.072
				c-132.654,0-240.276-107.433-240.276-240.072c0-132.766,107.622-240.215,240.276-240.215
				C2199.005,863.558,2306.532,971.007,2306.532,1103.773z"/>
			<path fill="none" stroke="#FFFFFF" stroke-miterlimit="10" d="M2098.493,983.634c0,132.671-107.496,240.088-240.057,240.088
				c-132.844,0-240.245-107.417-240.245-240.088c0-132.64,107.212-240.151,240.245-240.151
				C1990.966,743.514,2098.493,850.963,2098.493,983.634z"/>
			<path fill="none" stroke="#FFFFFF" stroke-miterlimit="10" d="M1890.55,1103.773c0,132.607-107.589,240.072-240.086,240.072
				c-132.846,0-240.752-107.433-240.752-240.072c0-132.766,107.528-240.215,240.752-240.215
				C1782.96,863.558,1890.55,971.007,1890.55,1103.773z"/>
			<path fill="none" stroke="#FFFFFF" stroke-miterlimit="10" d="M1890.55,1343.845c0,132.623-107.589,240.088-240.086,240.088
				c-132.846,0-240.752-107.465-240.752-240.088c0-132.687,107.528-240.135,240.752-240.135
				C1782.96,1103.709,1890.55,1211.158,1890.55,1343.845z"/>
		</g>
		<g id="rotation_2_8_">
			<path fill="none" stroke="#FFFFFF" stroke-miterlimit="10" d="M1890.55,863.558c0,132.734-107.589,240.151-240.086,240.151
				c-132.846,0-240.752-107.417-240.752-240.151c0-132.639,107.528-240.088,240.752-240.088
				C1782.96,623.438,1890.55,730.855,1890.55,863.558z"/>
			<path fill="none" stroke="#FFFFFF" stroke-miterlimit="10" d="M1682.544,1223.753c0,132.734-107.212,240.073-240.057,240.073
				c-132.813,0-240.245-107.339-240.245-240.073c0-132.639,107.433-240.087,240.245-240.087
				C1575.016,983.634,1682.544,1091.114,1682.544,1223.753z"/>
			<path fill="none" stroke="#FFFFFF" stroke-miterlimit="10" d="M1890.55,1583.996c0,132.592-107.589,240.023-240.086,240.023
				c-132.846,0-240.752-107.4-240.752-240.023c0-132.687,107.528-240.151,240.752-240.151
				C1782.96,1343.781,1890.55,1451.31,1890.55,1583.996z"/>
			<path fill="none" stroke="#FFFFFF" stroke-miterlimit="10" d="M2306.596,1583.996c0,132.592-107.591,240.023-240.089,240.023
				c-132.654,0-240.245-107.4-240.245-240.023c0-132.687,107.591-240.151,240.245-240.151
				C2199.005,1343.781,2306.596,1451.31,2306.596,1583.996z"/>
			<path fill="none" stroke="#FFFFFF" stroke-miterlimit="10" d="M2514.571,1223.753c0,132.734-107.213,240.073-240.058,240.073
				c-132.687,0-240.215-107.339-240.215-240.073c0-132.639,107.528-240.087,240.215-240.087
				C2407.074,983.634,2514.571,1091.114,2514.571,1223.753z"/>
			<path fill="none" stroke="#FFFFFF" stroke-miterlimit="10" d="M2306.532,863.558c0,132.734-107.527,240.151-240.058,240.151
				c-132.654,0-240.276-107.417-240.276-240.151c0-132.639,107.622-240.088,240.276-240.088
				C2199.005,623.438,2306.532,730.855,2306.532,863.558z"/>
		</g>
		<g id="rotation_4_8_">
			<path fill="none" stroke="#FFFFFF" stroke-miterlimit="10" d="M1890.55,623.438c0,132.671-107.589,240.088-240.086,240.088
				c-132.846,0-240.752-107.417-240.752-240.088c0-132.702,107.528-240.15,240.752-240.15
				C1782.96,383.288,1890.55,490.768,1890.55,623.438z"/>
			<path fill="none" stroke="#FFFFFF" stroke-miterlimit="10" d="M1682.48,743.577c0,132.608-107.211,240.088-240.056,240.088
				c-132.781,0-240.214-107.48-240.214-240.088c0-132.703,107.433-240.151,240.214-240.151
				C1575.016,503.426,1682.48,610.875,1682.48,743.577z"/>
			<path fill="none" stroke="#FFFFFF" stroke-miterlimit="10" d="M1474.568,1103.773c0,132.67-107.495,240.072-240.119,240.072
				s-240.214-107.433-240.214-240.072c0-132.766,107.527-240.215,240.214-240.215
				C1367.073,863.558,1474.568,971.007,1474.568,1103.773z"/>
			<path fill="none" stroke="#FFFFFF" stroke-miterlimit="10" d="M1474.568,1343.845c0,132.687-107.495,240.088-240.056,240.088
				c-132.686,0-240.277-107.465-240.277-240.088c0-132.687,107.591-240.135,240.277-240.135
				C1367.105,1103.709,1474.568,1211.158,1474.568,1343.845z"/>
			<path fill="none" stroke="#FFFFFF" stroke-miterlimit="10" d="M1682.544,1704.071c0,132.655-107.212,239.993-240.057,239.993
				c-132.781,0-240.213-107.4-240.213-239.993c0-132.781,107.463-240.245,240.213-240.245
				C1575.047,1463.826,1682.544,1571.29,1682.544,1704.071z"/>
			<path fill="none" stroke="#FFFFFF" stroke-miterlimit="10" d="M2306.596,1824.084c0,132.655-107.591,240.12-240.089,240.12
				c-132.654,0-240.245-107.465-240.245-240.12c0-132.624,107.591-240.151,240.245-240.151
				C2199.005,1583.933,2306.596,1691.46,2306.596,1824.084z"/>
			<path fill="none" stroke="#FFFFFF" stroke-miterlimit="10" d="M2514.571,1704.071c0,132.655-107.213,240.119-240.025,240.119
				c-132.719,0-240.247-107.526-240.247-240.119c0-132.718,107.528-240.182,240.247-240.182
				C2407.074,1463.89,2514.571,1571.354,2514.571,1704.071z"/>
			<path fill="none" stroke="#FFFFFF" stroke-miterlimit="10" d="M2722.608,1343.781c0,132.687-107.528,240.088-240.057,240.088
				c-132.845,0-240.751-107.401-240.751-240.088c0-132.624,107.495-240.135,240.751-240.135
				C2615.08,1103.709,2722.608,1211.158,2722.608,1343.781z"/>
			<path fill="none" stroke="#FFFFFF" stroke-miterlimit="10" d="M2722.608,1103.773c0,132.607-107.528,240.072-240.057,240.072
				c-132.845,0-240.751-107.433-240.751-240.072c0-132.766,107.559-240.215,240.751-240.215
				C2615.08,863.558,2722.608,971.007,2722.608,1103.773z"/>
			<path fill="none" stroke="#FFFFFF" stroke-miterlimit="10" d="M2514.571,743.577c0,132.671-107.213,240.088-240.058,240.088
				c-132.687,0-240.215-107.417-240.215-240.088c0-132.703,107.528-240.151,240.215-240.151
				C2407.074,503.363,2514.571,610.812,2514.571,743.577z"/>
			<path fill="none" stroke="#FFFFFF" stroke-miterlimit="10" d="M2306.596,623.438c0,132.671-107.528,240.057-240.089,240.057
				c-132.623,0-240.183-107.354-240.183-240.057c0-132.702,107.56-240.15,240.183-240.15
				C2199.1,383.288,2306.596,490.768,2306.596,623.438z"/>
			<path fill="none" stroke="#FFFFFF" stroke-miterlimit="10" d="M1890.613,1824.084c0,132.718-107.559,240.12-240.087,240.12
				c-132.845,0-240.215-107.402-240.215-240.12c0-132.624,107.213-240.151,240.215-240.151
				C1783.055,1583.933,1890.613,1691.46,1890.613,1824.084z"/>
		</g>
		<g id="rotation_5_8_">
			<path fill="none" stroke="#FFFFFF" stroke-miterlimit="10" d="M2098.588,503.426c0,132.576-107.526,240.024-240.056,240.024
				c-132.844,0-240.277-107.464-240.277-240.024c0-132.766,107.21-240.214,240.277-240.214
				C1991.062,263.244,2098.588,370.661,2098.588,503.426z"/>
			<path fill="none" stroke="#FFFFFF" stroke-miterlimit="10" d="M1682.544,503.426c0,132.671-107.212,240.087-240.057,240.087
				c-132.781,0-240.213-107.417-240.213-240.087c0-132.703,107.463-240.151,240.213-240.151
				C1575.047,263.244,1682.544,370.724,1682.544,503.426z"/>
			<path fill="none" stroke="#FFFFFF" stroke-miterlimit="10" d="M1474.568,863.621c0,132.671-107.495,240.088-240.119,240.088
				S994.235,996.292,994.235,863.621c0-132.702,107.527-240.151,240.214-240.151
				C1367.073,623.438,1474.568,730.919,1474.568,863.621z"/>
			<path fill="none" stroke="#FFFFFF" stroke-miterlimit="10" d="M1266.657,1223.753c0,132.734-107.591,240.073-240.088,240.073
				c-132.656,0-240.215-107.339-240.215-240.073c0-132.639,107.559-240.087,240.215-240.087
				C1159.035,983.634,1266.657,1091.114,1266.657,1223.753z"/>
			<path fill="none" stroke="#FFFFFF" stroke-miterlimit="10" d="M1474.568,1583.996c0,132.655-107.463,240.088-240.056,240.088
				c-132.686,0-240.214-107.433-240.214-240.088c0-132.687,107.528-240.151,240.214-240.151
				C1367.105,1343.781,1474.568,1451.31,1474.568,1583.996z"/>
			<path fill="none" stroke="#FFFFFF" stroke-miterlimit="10" d="M1682.544,1944.19c0,132.56-107.212,240.089-240.057,240.089
				c-132.781,0-240.213-107.529-240.213-240.089c0-132.75,107.463-240.214,240.213-240.214
				C1575.047,1703.977,1682.544,1811.377,1682.544,1944.19z"/>
			<path fill="none" stroke="#FFFFFF" stroke-miterlimit="10" d="M2098.588,1944.254c0,132.561-107.526,240.088-240.056,240.088
				c-132.844,0-240.277-107.527-240.277-240.088c0-132.75,107.21-240.183,240.277-240.183
				C1991.062,1704.071,2098.588,1811.504,2098.588,1944.254z"/>
			<path fill="none" stroke="#FFFFFF" stroke-miterlimit="10" d="M2514.697,1944.254c0,132.561-107.213,240.088-240.057,240.088
				c-132.75,0-240.342-107.527-240.342-240.088c0-132.75,107.592-240.183,240.342-240.183
				C2407.105,1704.071,2514.697,1811.504,2514.697,1944.254z"/>
			<path fill="none" stroke="#FFFFFF" stroke-miterlimit="10" d="M2722.672,1583.996c0,132.592-107.528,240.023-240.088,240.023
				c-132.846,0-240.184-107.4-240.184-240.023c0-132.687,107.212-240.151,240.184-240.151
				C2615.08,1343.781,2722.672,1451.31,2722.672,1583.996z"/>
			<path fill="none" stroke="#FFFFFF" stroke-miterlimit="10" d="M2930.614,1223.816c0,132.671-107.559,240.073-240.087,240.073
				c-132.845,0-240.214-107.402-240.214-240.073c0-132.703,107.212-240.151,240.214-240.151
				C2823.025,983.634,2930.614,1091.193,2930.614,1223.816z"/>
			<path fill="none" stroke="#FFFFFF" stroke-miterlimit="10" d="M2722.672,863.621c0,132.671-107.592,240.088-240.12,240.088
				c-132.845,0-240.751-107.417-240.751-240.088c0-132.702,107.527-240.151,240.751-240.151
				C2615.08,623.438,2722.672,730.919,2722.672,863.621z"/>
			<path fill="none" stroke="#FFFFFF" stroke-miterlimit="10" d="M2514.666,503.426c0,132.576-107.213,240.024-240.025,240.024
				c-132.782,0-240.342-107.464-240.342-240.024c0-132.766,107.528-240.214,240.342-240.214
				C2407.105,263.244,2514.666,370.661,2514.666,503.426z"/>
		</g>
		<g id="rotation_6_8_">
			<path fill="none" stroke="#FFFFFF" stroke-miterlimit="10" d="M1890.613,383.351c0,132.561-107.559,240.087-240.087,240.087
				c-132.845,0-240.151-107.527-240.151-240.087c0-132.703,107.211-240.151,240.151-240.151
				C1783.055,143.231,1890.613,250.648,1890.613,383.351z"/>
			<path fill="none" stroke="#FFFFFF" stroke-miterlimit="10" d="M1474.568,623.438c0,132.671-107.495,240.057-240.056,240.057
				c-132.686,0-240.277-107.354-240.277-240.057c0-132.702,107.591-240.15,240.277-240.15
				C1367.105,383.288,1474.568,490.768,1474.568,623.438z"/>
			<path fill="none" stroke="#FFFFFF" stroke-miterlimit="10" d="M1266.594,983.698c0,132.67-107.527,240.055-240.056,240.055
				c-132.687,0-240.246-107.417-240.246-240.055c0-132.704,107.559-240.215,240.246-240.215
				C1159.035,743.514,1266.594,850.963,1266.594,983.698z"/>
			<path fill="none" stroke="#FFFFFF" stroke-miterlimit="10" d="M1266.657,1463.952c0,132.624-107.591,240.119-240.088,240.119
				c-132.656,0-240.215-107.495-240.215-240.119c0-132.751,107.559-240.199,240.215-240.199
				C1159.035,1223.753,1266.657,1331.265,1266.657,1463.952z"/>
			<path fill="none" stroke="#FFFFFF" stroke-miterlimit="10" d="M1474.568,1824.084c0,132.655-107.433,240.12-240.056,240.12
				s-240.214-107.465-240.214-240.12c0-132.687,107.591-240.151,240.214-240.151
				C1367.105,1583.933,1474.568,1691.397,1474.568,1824.084z"/>
			<path fill="none" stroke="#FFFFFF" stroke-miterlimit="10" d="M1890.613,2064.267c0,132.624-107.559,240.088-240.087,240.088
				c-132.845,0-240.151-107.464-240.151-240.088c0-132.719,107.211-240.183,240.151-240.183
				C1783.055,1824.084,1890.613,1931.548,1890.613,2064.267z"/>
			<path fill="none" stroke="#FFFFFF" stroke-miterlimit="10" d="M2306.596,2064.267c0,132.624-107.528,240.088-240.057,240.088
				c-132.687,0-240.247-107.464-240.247-240.088c0-132.719,107.56-240.183,240.247-240.183
				C2199.1,1824.084,2306.596,1931.548,2306.596,2064.267z"/>
			<path fill="none" stroke="#FFFFFF" stroke-miterlimit="10" d="M2722.672,1824.084c0,132.655-107.592,240.12-240.12,240.12
				c-132.845,0-240.751-107.465-240.751-240.12c0-132.687,107.495-240.151,240.751-240.151
				C2615.144,1583.933,2722.672,1691.397,2722.672,1824.084z"/>
			<path fill="none" stroke="#FFFFFF" stroke-miterlimit="10" d="M2930.614,1463.89c0,132.687-107.559,240.087-240.056,240.087
				c-132.845,0-240.213-107.4-240.213-240.087c0-132.688,107.21-240.137,240.213-240.137
				C2823.025,1223.753,2930.614,1331.17,2930.614,1463.89z"/>
			<path fill="none" stroke="#FFFFFF" stroke-miterlimit="10" d="M2930.646,983.698c0,132.67-107.527,240.055-240.056,240.055
				c-132.624,0-240.215-107.417-240.215-240.055c0-132.704,107.591-240.215,240.215-240.215
				C2823.025,743.514,2930.646,850.963,2930.646,983.698z"/>
			<path fill="none" stroke="#FFFFFF" stroke-miterlimit="10" d="M2722.672,623.501c0,132.671-107.528,240.057-240.056,240.057
				c-132.846,0-240.216-107.354-240.216-240.057s107.212-240.213,240.216-240.213
				C2615.144,383.288,2722.672,490.831,2722.672,623.501z"/>
			<path fill="none" stroke="#FFFFFF" stroke-miterlimit="10" d="M2306.596,383.351c0,132.561-107.433,240.087-240.057,240.087
				c-132.655,0-240.215-107.527-240.215-240.087c0-132.703,107.56-240.151,240.215-240.151
				C2199.163,143.231,2306.596,250.648,2306.596,383.351z"/>
		</g>
	</g>
	<g id="A_SVGStep1">
		<path d="M1858.627,2426.438c-64.761,0-125.626-25.185-171.383-70.912c-45.742-45.713-70.933-106.495-70.933-171.151
			c0-64.773,25.153-125.598,70.825-171.266c45.699-45.695,106.602-70.861,171.49-70.861c64.666,0,125.411,25.168,171.104,70.867
			c45.718,45.724,70.896,106.545,70.896,171.26C2100.627,2317.849,1992.066,2426.438,1858.627,2426.438z M1858.686,1946.198
			c-131.493,0-238.423,106.845-238.423,238.176c0,131.295,106.93,238.112,238.364,238.112c131.26,0,238.049-106.817,238.049-238.112
			C2096.676,2053.043,1989.913,1946.198,1858.686,1946.198z"/>
		<g>
			<path d="M2744.315,732.592h-3.725v-24.134l-7.787,16.422h-2.22l-7.731-16.422v24.134h-3.48v-28.009h5.079
				l7.468,15.594l7.224-15.594h5.173V732.592z"/>
			<path d="M2760.898,745.421h-11.055v-2.292c0.768-0.658,1.537-1.316,2.309-1.974c0.771-0.658,1.489-1.312,2.155-1.963
				c1.403-1.36,2.364-2.44,2.884-3.241s0.778-1.665,0.778-2.594c0-0.848-0.279-1.511-0.839-1.99
				c-0.559-0.479-1.34-0.718-2.341-0.718c-0.666,0-1.386,0.117-2.161,0.351c-0.774,0.234-1.531,0.592-2.27,1.075h-0.109v-2.303
				c0.519-0.256,1.211-0.49,2.078-0.702c0.866-0.212,1.705-0.318,2.517-0.318c1.674,0,2.986,0.404,3.937,1.212
				c0.95,0.808,1.426,1.903,1.426,3.285c0,0.622-0.078,1.201-0.235,1.738c-0.157,0.537-0.39,1.047-0.696,1.53
				c-0.285,0.453-0.62,0.899-1.004,1.338c-0.384,0.438-0.85,0.925-1.398,1.458c-0.782,0.768-1.59,1.512-2.423,2.231
				c-0.834,0.72-1.612,1.388-2.336,2.001h8.784V745.421z"/>
		</g>
		<path d="M2690.591,985.642c-64.684,0-125.497-25.169-171.238-70.871c-45.754-45.715-70.952-106.513-70.952-171.193
			c0-64.696,25.198-125.509,70.952-171.236c45.741-45.714,106.555-70.89,171.238-70.89c64.63,0,125.409,25.176,171.142,70.89
			c45.755,45.736,70.952,106.548,70.952,171.236c0,64.676-25.193,125.474-70.939,171.193
			C2816.017,960.472,2755.232,985.642,2690.591,985.642z M2690.591,505.402c-131.366,0-238.239,106.845-238.239,238.175
			c0,131.296,106.873,238.113,238.239,238.113c131.313,0,238.143-106.817,238.143-238.113
			C2928.733,612.247,2821.903,505.402,2690.591,505.402z"/>
		<g>
			<path d="M2742.079,1742.154h-17.72v-28.009h3.725v24.698h13.995V1742.154z"/>
			<path d="M2754.862,1754.983h-11.055v-2.292c0.768-0.658,1.537-1.316,2.309-1.974
				c0.771-0.658,1.489-1.313,2.155-1.964c1.403-1.359,2.364-2.439,2.884-3.24s0.778-1.665,0.778-2.594
				c0-0.848-0.279-1.512-0.839-1.99c-0.559-0.479-1.34-0.719-2.341-0.719c-0.666,0-1.386,0.117-2.161,0.352
				c-0.774,0.233-1.531,0.592-2.27,1.074h-0.109v-2.303c0.519-0.256,1.211-0.49,2.078-0.702c0.866-0.212,1.705-0.317,2.517-0.317
				c1.674,0,2.986,0.403,3.937,1.212c0.95,0.808,1.426,1.902,1.426,3.284c0,0.621-0.078,1.201-0.235,1.738s-0.39,1.047-0.696,1.529
				c-0.285,0.454-0.62,0.899-1.004,1.338c-0.384,0.439-0.85,0.926-1.398,1.459c-0.782,0.768-1.59,1.512-2.423,2.231
				c-0.834,0.721-1.612,1.388-2.336,2.002h8.784V1754.983z"/>
		</g>
		<path d="M2690.654,1946.166c-64.696,0-125.518-25.185-171.262-70.916c-45.738-45.726-70.929-106.519-70.929-171.179
			c0-64.715,25.189-125.546,70.929-171.289c45.737-45.741,106.559-70.932,171.262-70.932c133.456,0,242.03,108.659,242.03,242.221
			c0,64.679-25.179,125.479-70.896,171.202C2816.077,1920.99,2755.301,1946.166,2690.654,1946.166z M2690.654,1465.802
			c-131.366,0-238.239,106.888-238.239,238.27c0,131.313,106.873,238.144,238.239,238.144c131.277,0,238.079-106.83,238.079-238.144
			C2928.733,1572.689,2821.932,1465.802,2690.654,1465.802z"/>
		<g>
			<path d="M1871.779,2245.046h-4.834l-11.08-12.472l-2.784,2.973v9.499h-3.724v-28.009h3.724v14.615l13.6-14.615h4.515
				l-12.509,13.167L1871.779,2245.046z"/>
			<path d="M1885.014,2257.875h-11.055v-2.292c0.768-0.658,1.537-1.316,2.309-1.974
				c0.771-0.658,1.489-1.313,2.155-1.964c1.403-1.359,2.364-2.439,2.884-3.24s0.778-1.665,0.778-2.594
				c0-0.848-0.279-1.512-0.839-1.99c-0.559-0.479-1.34-0.719-2.341-0.719c-0.666,0-1.386,0.117-2.161,0.352
				c-0.774,0.233-1.531,0.592-2.27,1.074h-0.109v-2.303c0.519-0.256,1.211-0.49,2.078-0.702c0.866-0.212,1.705-0.317,2.517-0.317
				c1.674,0,2.986,0.403,3.937,1.212c0.95,0.808,1.426,1.902,1.426,3.284c0,0.621-0.078,1.201-0.235,1.738s-0.39,1.047-0.696,1.529
				c-0.285,0.454-0.62,0.899-1.004,1.338c-0.384,0.439-0.85,0.926-1.398,1.459c-0.782,0.768-1.59,1.512-2.423,2.231
				c-0.834,0.721-1.612,1.388-2.336,2.002h8.784V2257.875z"/>
		</g>
		<path d="M1026.569,1946.166c-64.685,0-125.503-25.185-171.25-70.915c-45.746-45.73-70.94-106.523-70.94-171.18
			c0-64.707,25.194-125.527,70.94-171.257c45.738-45.721,106.556-70.9,171.25-70.9c133.475,0,242.063,108.632,242.063,242.157
			c0,64.677-25.184,125.478-70.913,171.202C1152,1920.99,1091.218,1946.166,1026.569,1946.166z M1026.569,1465.865
			c-131.365,0-238.239,106.858-238.239,238.206c0,131.313,106.874,238.144,238.239,238.144
			c131.296,0,238.112-106.83,238.112-238.144C1264.682,1572.724,1157.865,1465.865,1026.569,1465.865z"/>
		<g>
			<path d="M981.99,1729.974c0,2.458-0.75,4.352-2.248,5.681c-1.499,1.329-3.508,1.994-6.029,1.994
				c-0.602,0-1.404-0.054-2.408-0.16s-1.843-0.235-2.521-0.386v-3.48h0.207c0.514,0.176,1.147,0.357,1.9,0.546
				s1.523,0.282,2.313,0.282c1.154,0,2.072-0.132,2.756-0.396c0.684-0.263,1.188-0.639,1.514-1.128
				c0.339-0.502,0.555-1.116,0.649-1.844c0.094-0.728,0.141-1.567,0.141-2.521v-16.347h-5.925v-2.972h9.65V1729.974z"/>
			<path d="M998.29,1750.082h-11.054v-2.292c0.768-0.658,1.537-1.316,2.309-1.974c0.771-0.658,1.489-1.313,2.155-1.964
				c1.404-1.359,2.365-2.439,2.884-3.24s0.779-1.665,0.779-2.594c0-0.848-0.28-1.512-0.839-1.99c-0.56-0.479-1.34-0.719-2.342-0.719
				c-0.665,0-1.385,0.117-2.16,0.352c-0.775,0.233-1.532,0.592-2.27,1.074h-0.11v-2.303c0.519-0.256,1.212-0.49,2.078-0.702
				s1.706-0.317,2.517-0.317c1.674,0,2.986,0.403,3.937,1.212c0.95,0.808,1.425,1.902,1.425,3.284c0,0.621-0.079,1.201-0.235,1.738
				c-0.158,0.537-0.39,1.047-0.697,1.529c-0.285,0.454-0.62,0.899-1.003,1.338c-0.384,0.439-0.85,0.926-1.398,1.459
				c-0.783,0.768-1.59,1.512-2.424,2.231c-0.833,0.721-1.612,1.388-2.336,2.002h8.784V1750.082z"/>
		</g>
		<path d="M1026.601,985.642c-64.714,0-125.545-25.178-171.29-70.895c-45.741-45.715-70.932-106.504-70.932-171.17
			c0-64.705,25.191-125.518,70.932-171.236c45.737-45.714,106.569-70.89,171.29-70.89c64.626,0,125.395,25.176,171.111,70.891
			c45.734,45.731,70.921,106.544,70.921,171.236c0,64.68-25.183,125.477-70.909,171.193
			C1152.012,960.472,1091.239,985.642,1026.601,985.642z M1026.601,505.402c-131.383,0-238.271,106.845-238.271,238.175
			c0,131.296,106.887,238.113,238.271,238.113c131.278,0,238.081-106.817,238.081-238.113
			C1264.682,612.247,1157.879,505.402,1026.601,505.402z"/>
		<g>
			<path d="M987.546,724.715h-11.061v-2.859h3.668v-22.291h-3.668v-2.859h11.061v2.859h-3.668v22.291h3.668V724.715z"/>
			<path d="M1002.943,737.544h-11.054v-2.292c0.768-0.658,1.537-1.316,2.309-1.974c0.771-0.658,1.489-1.312,2.155-1.963
				c1.404-1.36,2.365-2.44,2.884-3.241s0.779-1.665,0.779-2.594c0-0.848-0.28-1.511-0.839-1.99c-0.56-0.479-1.34-0.718-2.342-0.718
				c-0.665,0-1.385,0.117-2.16,0.351c-0.775,0.234-1.532,0.592-2.27,1.075h-0.11v-2.303c0.519-0.256,1.212-0.49,2.078-0.702
				c0.866-0.212,1.706-0.318,2.517-0.318c1.674,0,2.986,0.404,3.937,1.212c0.95,0.808,1.425,1.903,1.425,3.285
				c0,0.622-0.079,1.201-0.235,1.738c-0.158,0.537-0.39,1.047-0.697,1.53c-0.285,0.453-0.62,0.899-1.003,1.338
				c-0.384,0.438-0.85,0.925-1.398,1.458c-0.783,0.768-1.59,1.512-2.424,2.231c-0.833,0.72-1.612,1.388-2.336,2.001h8.784V737.544z"
				/>
		</g>
		<path d="M1858.627,505.308c-64.727,0-125.563-25.176-171.3-70.889c-45.734-45.709-70.92-106.5-70.92-171.175
			c0-64.709,25.187-125.525,70.92-171.244c45.733-45.72,106.569-70.898,171.3-70.898c133.457,0,242.031,108.625,242.031,242.143
			C2100.658,396.718,1992.084,505.308,1858.627,505.308z M1858.627,25.052c-131.383,0-238.27,106.852-238.27,238.191
			c0,131.295,106.887,238.113,238.27,238.113c131.277,0,238.08-106.817,238.08-238.113
			C2096.707,131.904,1989.904,25.052,1858.627,25.052z"/>
		<g>
			<path d="M1864.377,206.292h-3.725v-13.713h-13.976v13.713h-3.725v-28.009h3.725v10.985h13.976v-10.985h3.725V206.292
				z"/>
			<path d="M1880.96,219.121h-11.055v-2.292c0.768-0.658,1.537-1.316,2.309-1.974c0.771-0.658,1.489-1.312,2.155-1.963
				c1.403-1.36,2.364-2.44,2.884-3.241s0.778-1.665,0.778-2.594c0-0.848-0.279-1.511-0.839-1.99
				c-0.559-0.479-1.34-0.718-2.341-0.718c-0.666,0-1.386,0.117-2.161,0.351c-0.774,0.234-1.531,0.592-2.27,1.075h-0.109v-2.303
				c0.519-0.256,1.211-0.49,2.078-0.702c0.866-0.212,1.705-0.318,2.517-0.318c1.674,0,2.986,0.404,3.937,1.212
				c0.95,0.808,1.426,1.903,1.426,3.285c0,0.622-0.078,1.201-0.235,1.738c-0.157,0.537-0.39,1.047-0.696,1.53
				c-0.285,0.453-0.62,0.899-1.004,1.338c-0.384,0.438-0.85,0.925-1.398,1.458c-0.782,0.768-1.59,1.512-2.423,2.231
				c-0.834,0.72-1.612,1.388-2.336,2.001h8.784V219.121z"/>
		</g>
		<path d="M2274.514,1225.697c-64.707,0-125.528-25.169-171.262-70.87c-45.738-45.708-70.929-106.505-70.929-171.193
			c0-64.68,25.19-125.484,70.929-171.213c45.74-45.729,106.563-70.914,171.262-70.914c64.65,0.016,125.428,25.2,171.136,70.915
			c45.719,45.725,70.897,106.529,70.897,171.212c0,64.714-25.141,125.512-70.79,171.192
			C2400.086,1200.528,2339.271,1225.697,2274.514,1225.697z M2274.514,745.458c-131.365,0-238.239,106.845-238.239,238.176
			c0,131.296,106.874,238.112,238.239,238.112c131.279,0,238.082-106.816,238.082-238.112
			C2512.596,852.334,2405.792,745.489,2274.514,745.458z"/>
		<g>
			<path d="M2286.181,945c-1.53,0.703-3.201,1.314-5.013,1.834c-1.813,0.521-3.564,0.781-5.258,0.781
				c-2.182,0-4.183-0.301-6.001-0.903s-3.367-1.505-4.646-2.708c-1.292-1.216-2.289-2.737-2.991-4.562s-1.054-3.959-1.054-6.405
				c0-4.477,1.308-8.01,3.922-10.6c2.615-2.589,6.205-3.884,10.77-3.884c1.593,0,3.22,0.191,4.881,0.574
				c1.662,0.383,3.452,1.032,5.371,1.947v4.42h-0.339c-0.389-0.301-0.953-0.696-1.692-1.185c-0.74-0.489-1.468-0.896-2.183-1.223
				c-0.865-0.388-1.847-0.711-2.943-0.969c-1.098-0.257-2.343-0.385-3.734-0.385c-3.135,0-5.615,1.006-7.439,3.019
				c-1.825,2.013-2.737,4.737-2.737,8.173c0,3.624,0.953,6.442,2.859,8.455s4.502,3.02,7.788,3.02c1.203,0,2.404-0.119,3.602-0.357
				s2.248-0.546,3.151-0.922v-6.866h-7.506v-3.273h11.192V945z"/>
		</g>
		<path d="M2274.514,1705.952c-64.709,0-125.53-25.167-171.262-70.864c-45.738-45.705-70.929-106.505-70.929-171.198
			c0-64.696,25.19-125.505,70.929-171.224c45.734-45.714,106.556-70.889,171.262-70.889c64.652,0,125.431,25.171,171.136,70.877
			c45.719,45.719,70.897,106.531,70.897,171.235c0,64.72-25.141,125.519-70.79,171.197
			C2400.087,1680.785,2339.272,1705.952,2274.514,1705.952z M2274.514,1225.729c-131.365,0-238.239,106.838-238.239,238.161
			c0,131.295,106.874,238.111,238.239,238.111c131.279,0,238.082-106.816,238.082-238.111
			C2512.596,1332.567,2405.793,1225.729,2274.514,1225.729z"/>
		<g>
			<path d="M2283.671,1405.407h-14.165v7.9h12.171v3.311h-12.171v13.487h-3.725v-28.009h17.89V1405.407z"/>
		</g>
		<path d="M1858.437,1946.166c-64.756,0-125.605-25.185-171.336-70.916c-45.71-45.71-70.885-106.503-70.885-171.179
			c0-64.751,25.149-125.583,70.813-171.288c45.701-45.742,106.574-70.933,171.408-70.933c64.646,0,125.424,25.19,171.136,70.932
			c45.719,45.748,70.896,106.579,70.896,171.289c0,64.683-25.174,125.482-70.885,171.202
			C1983.876,1920.99,1923.096,1946.166,1858.437,1946.166z M1858.437,1465.802c-131.382,0-238.269,106.888-238.269,238.27
			c0,131.313,106.887,238.144,238.269,238.144c131.278,0,238.081-106.83,238.081-238.144
			C2096.518,1572.689,1989.715,1465.802,1858.437,1465.802z"/>
		<g>
			<path d="M1867.381,1671.131h-18.454v-28.009h18.454v3.311h-14.729v7.675h14.729v3.311h-14.729v10.402h14.729
				V1671.131z"/>
		</g>
		<path d="M1442.487,1705.952c-64.695,0-125.506-25.167-171.233-70.864c-45.736-45.707-70.924-106.507-70.924-171.198
			c0-64.727,25.18-125.543,70.9-171.247c45.714-45.698,106.534-70.865,171.257-70.865c64.641,0,125.414,25.171,171.124,70.877
			c45.726,45.723,70.909,106.535,70.909,171.235c0,64.72-25.141,125.519-70.79,171.197
			C1568.061,1680.785,1507.245,1705.952,1442.487,1705.952z M1442.487,1225.729c-131.347,0-238.206,106.838-238.206,238.161
			c0,131.295,106.859,238.111,238.206,238.111c131.278,0,238.081-106.816,238.081-238.111
			C1680.568,1332.567,1573.765,1225.729,1442.487,1225.729z"/>
		<g>
			<path d="M1454.75,1406.251c0,2.546-0.555,4.854-1.665,6.923s-2.586,3.674-4.43,4.815
				c-1.279,0.79-2.706,1.36-4.28,1.712c-1.574,0.351-3.646,0.526-6.217,0.526h-7.073v-28.009h6.998c2.734,0,4.906,0.197,6.518,0.592
				c1.611,0.396,2.975,0.938,4.091,1.628c1.906,1.191,3.392,2.777,4.458,4.759S1454.75,1403.53,1454.75,1406.251z
				 M1450.856,1406.194c0-2.194-0.383-4.044-1.147-5.549c-0.765-1.505-1.906-2.689-3.423-3.556
				c-1.104-0.626-2.276-1.063-3.518-1.307c-1.242-0.245-2.728-0.367-4.458-0.367h-3.499v21.613h3.499
				c1.793,0,3.358-0.131,4.693-0.395s2.561-0.753,3.678-1.468c1.392-0.89,2.436-2.063,3.132-3.518
				C1450.508,1410.195,1450.856,1408.377,1450.856,1406.194z"/>
		</g>
		<path d="M1442.487,1225.697c-64.756,0-125.6-25.169-171.324-70.871c-45.718-45.696-70.896-106.493-70.896-171.193
			c0-64.691,25.178-125.496,70.896-171.212c45.732-45.73,106.576-70.915,171.325-70.915c64.639,0.016,125.411,25.2,171.124,70.915
			c45.727,45.728,70.909,106.533,70.909,171.212c0,64.715-25.141,125.512-70.79,171.192
			C1568.059,1200.528,1507.244,1225.697,1442.487,1225.697z M1442.486,745.458c-131.382,0-238.269,106.845-238.269,238.176
			c0,131.296,106.887,238.112,238.27,238.112c131.279,0,238.081-106.816,238.081-238.112
			C1680.568,852.334,1573.765,745.489,1442.486,745.458z"/>
		<g>
			<path d="M1453.706,949.977c-0.69,0.301-1.314,0.583-1.872,0.847c-0.558,0.263-1.289,0.54-2.191,0.828
				c-0.765,0.238-1.596,0.442-2.493,0.611s-1.884,0.254-2.962,0.254c-2.032,0-3.878-0.285-5.54-0.856
				c-1.662-0.57-3.107-1.464-4.336-2.68c-1.204-1.191-2.144-2.706-2.821-4.543c-0.677-1.837-1.016-3.972-1.016-6.405
				c0-2.307,0.326-4.37,0.979-6.188c0.652-1.818,1.592-3.354,2.821-4.609c1.191-1.216,2.63-2.144,4.317-2.784
				c1.687-0.64,3.558-0.959,5.615-0.959c1.505,0,3.006,0.182,4.505,0.545c1.498,0.364,3.163,1.003,4.994,1.919v4.42h-0.282
				c-1.542-1.292-3.073-2.232-4.59-2.822c-1.518-0.589-3.141-0.884-4.872-0.884c-1.417,0-2.693,0.229-3.828,0.687
				c-1.135,0.458-2.148,1.169-3.038,2.135c-0.865,0.94-1.54,2.129-2.022,3.565c-0.483,1.436-0.725,3.094-0.725,4.975
				c0,1.969,0.267,3.662,0.8,5.079c0.533,1.417,1.219,2.571,2.06,3.461c0.877,0.928,1.903,1.615,3.076,2.06
				c1.172,0.445,2.411,0.667,3.715,0.667c1.793,0,3.474-0.307,5.042-0.921c1.567-0.614,3.035-1.536,4.402-2.765h0.263V949.977z"/>
		</g>
		<g>
			<path d="M1870.052,684.588c0,1.392-0.264,2.621-0.79,3.687s-1.235,1.944-2.126,2.633
				c-1.053,0.828-2.21,1.417-3.471,1.768c-1.26,0.352-2.862,0.527-4.806,0.527h-9.932v-28.009h8.295c2.044,0,3.574,0.075,4.59,0.226
				c1.016,0.151,1.987,0.464,2.916,0.941c1.027,0.539,1.774,1.232,2.238,2.079c0.464,0.846,0.696,1.859,0.696,3.038
				c0,1.33-0.339,2.461-1.017,3.396c-0.677,0.935-1.58,1.684-2.708,2.248v0.15c1.894,0.389,3.386,1.22,4.477,2.492
				C1869.506,681.036,1870.052,682.644,1870.052,684.588z M1863.788,671.966c0-0.677-0.113-1.248-0.339-1.712
				c-0.226-0.464-0.59-0.84-1.091-1.128c-0.59-0.339-1.305-0.548-2.145-0.63c-0.841-0.082-1.881-0.122-3.123-0.122h-4.439v8.088
				h4.815c1.166,0,2.094-0.059,2.784-0.179c0.689-0.119,1.329-0.367,1.919-0.743c0.589-0.376,1.007-0.862,1.251-1.458
				S1863.788,672.781,1863.788,671.966z M1866.177,684.738c0-1.128-0.169-2.025-0.508-2.69c-0.339-0.665-0.953-1.229-1.844-1.693
				c-0.602-0.313-1.332-0.518-2.191-0.611c-0.859-0.094-1.903-0.141-3.132-0.141h-5.85v10.421h4.928c1.63,0,2.966-0.084,4.007-0.254
				c1.041-0.169,1.894-0.479,2.559-0.931c0.702-0.489,1.216-1.047,1.542-1.674S1866.177,685.729,1866.177,684.738z"/>
		</g>
		<path d="M1858.437,985.642c-64.767,0-125.616-25.169-171.336-70.871c-45.71-45.692-70.885-106.49-70.885-171.193
			c0-64.74,25.149-125.552,70.813-171.235c45.696-45.715,106.57-70.891,171.407-70.891h0.117
			c64.619,0,125.365,25.172,171.048,70.879c45.699,45.722,70.867,106.539,70.867,171.247c0,64.683-25.179,125.481-70.896,171.193
			C1983.864,960.472,1923.087,985.642,1858.437,985.642z M1858.438,505.402c-131.383,0-238.27,106.845-238.27,238.175
			c0,131.296,106.887,238.113,238.269,238.113c131.278,0,238.081-106.817,238.081-238.113c0-131.33-106.75-238.175-237.964-238.175
			H1858.438z"/>
		<g id="A_text">
			<path d="M1871.011,1177.228h-3.969l-2.746-7.807h-12.114l-2.747,7.807h-3.781l10.195-28.009h4.966L1871.011,1177.228
				z M1863.148,1166.223l-4.91-13.75l-4.928,13.75H1863.148z"/>
		</g>
		<path d="M1858.437,1465.802c-64.775,0-125.623-25.158-171.335-70.84c-45.711-45.68-70.885-106.483-70.885-171.209
			c0-64.712,25.149-125.505,70.813-171.18c45.699-45.709,106.573-70.883,171.407-70.883c64.681,0,125.439,25.176,171.146,70.889
			c45.712,45.721,70.887,106.512,70.887,171.174c0,64.706-25.179,125.509-70.896,171.209
			C1983.872,1440.644,1923.095,1465.802,1858.437,1465.802z M1858.496,985.642c-131.441,0-238.328,106.816-238.328,238.111
			c0,131.287,106.887,238.098,238.269,238.098c131.278,0,238.081-106.811,238.081-238.098
			C2096.518,1092.458,1989.741,985.642,1858.496,985.642z"/>
	</g>
</g>
</svg>
