<?xml version="1.0" encoding="utf-8"?>
<!-- Generator: Adobe Illustrator 16.0.0, SVG Export Plug-In . SVG Version: 6.00 Build 0)  -->
<!DOCTYPE svg PUBLIC "-//W3C//DTD SVG 1.1//EN" "http://www.w3.org/Graphics/SVG/1.1/DTD/svg11.dtd">
<svg version="1.1" id="A-detailVesicaPiscis" xmlns="http://www.w3.org/2000/svg" xmlns:xlink="http://www.w3.org/1999/xlink"
	 x="0px" y="0px" width="1739px" height="1159.945px" viewBox="0 0 1739 1159.945" enable-background="new 0 0 1739 1159.945"
	 xml:space="preserve">
<g id="A-SVGGroupSteps">
	<g id="A-SVGStep12" enable-background="new    ">
		<g id="mathText_2_">
			<path d="M1146.645,662.777c0,2.313-0.504,4.402-1.514,6.289c-1.011,1.879-2.353,3.338-4.021,4.375
				c-1.162,0.717-2.459,1.23-3.892,1.555c-1.433,0.318-3.313,0.479-5.646,0.479h-6.429V650.03h6.357c2.481,0,4.458,0.18,5.922,0.539
				c1.464,0.354,2.703,0.852,3.717,1.479c1.732,1.082,3.082,2.523,4.054,4.323C1146.157,658.169,1146.645,660.305,1146.645,662.777z
				 M1143.105,662.726c0-1.987-0.35-3.675-1.041-5.042c-0.695-1.361-1.732-2.438-3.111-3.229c-1.002-0.569-2.064-0.966-3.192-1.188
				c-1.128-0.222-2.479-0.333-4.053-0.333h-3.179v19.642h3.179c1.631,0,3.053-0.12,4.266-0.358c1.215-0.238,2.328-0.684,3.345-1.334
				c1.267-0.809,2.213-1.873,2.846-3.191C1142.791,666.36,1143.105,664.708,1143.105,662.726z"/>
			<path d="M1173.15,662.11h-20.271v-2.734h20.271V662.11z M1173.15,669.288h-20.271v-2.734h20.271V669.288z"/>
			<path d="M1197.316,675.475h-17.229v-3.566c1.192-1.025,2.396-2.057,3.596-3.076c1.203-1.025,2.322-2.044,3.358-3.063
				c2.188-2.114,3.688-3.803,4.492-5.05c0.812-1.248,1.215-2.595,1.215-4.042c0-1.315-0.438-2.354-1.309-3.102
				c-0.871-0.747-2.091-1.119-3.646-1.119c-1.037,0-2.16,0.182-3.367,0.547c-1.207,0.364-2.387,0.922-3.534,1.674h-0.175v-3.588
				c0.812-0.396,1.892-0.764,3.237-1.094c1.354-0.331,2.656-0.496,3.925-0.496c2.604,0,4.649,0.63,6.138,1.889
				c1.479,1.264,2.221,2.966,2.221,5.118c0,0.969-0.123,1.871-0.367,2.709c-0.242,0.837-0.604,1.632-1.084,2.384
				c-0.442,0.707-0.967,1.401-1.563,2.085c-0.597,0.688-1.321,1.441-2.181,2.272c-1.221,1.197-2.479,2.354-3.774,3.479
				c-1.298,1.123-2.515,2.162-3.642,3.119h13.688V675.475L1197.316,675.475z"/>
			<path d="M1223.258,671.783l-1.896,1.896l-7.451-7.52l-7.451,7.52l-1.896-1.896l7.521-7.451l-7.521-7.451l1.896-1.896l7.451,7.52
				l7.451-7.52l1.896,1.896l-7.521,7.451L1223.258,671.783z"/>
			<path d="M1248.411,675.475h-16.766V650.03h16.766v3.008h-13.381v6.973h13.381v3.009h-13.381v9.45h13.381V675.475z"/>
			<path d="M1275.279,662.777c0,2.313-0.504,4.402-1.512,6.289c-1.011,1.879-2.353,3.338-4.025,4.375
				c-1.161,0.717-2.457,1.23-3.887,1.555c-1.435,0.318-3.313,0.479-5.646,0.479h-6.429V650.03h6.357c2.479,0,4.457,0.18,5.922,0.539
				c1.463,0.354,2.701,0.852,3.717,1.479c1.729,1.082,3.082,2.523,4.054,4.323C1274.795,658.169,1275.279,660.305,1275.279,662.777z
				 M1271.74,662.726c0-1.987-0.351-3.675-1.043-5.042c-0.692-1.361-1.729-2.438-3.106-3.229c-1.004-0.569-2.068-0.966-3.195-1.188
				c-1.129-0.223-2.479-0.333-4.051-0.333h-3.183v19.642h3.183c1.629,0,3.051-0.12,4.267-0.358c1.213-0.238,2.323-0.684,3.342-1.334
				c1.267-0.809,2.214-1.873,2.847-3.191C1271.426,666.36,1271.74,664.708,1271.74,662.726z"/>
			<path d="M1301.782,662.11h-20.268v-2.734h20.268V662.11z M1301.782,669.288h-20.268v-2.734h20.268V669.288z"/>
			<path d="M1335.656,644.918l-15.039,33.137h-1.741l-6.563-16.97h-4.054v-2.376h6.72l5.351,14.031l12.477-27.822H1335.656
				L1335.656,644.918z"/>
			<path d="M1352.354,663.221c0.55,0.49,0.998,1.105,1.354,1.852c0.354,0.735,0.529,1.692,0.529,2.869
				c0,1.158-0.211,2.229-0.636,3.192c-0.422,0.97-1.014,1.813-1.774,2.529c-0.854,0.798-1.856,1.388-3.019,1.769
				c-1.155,0.387-2.426,0.572-3.803,0.572c-1.414,0-2.806-0.168-4.171-0.504c-1.366-0.336-2.489-0.703-3.366-1.102v-3.572h0.256
				c0.972,0.639,2.104,1.168,3.418,1.59c1.313,0.421,2.574,0.632,3.798,0.632c0.717,0,1.479-0.12,2.286-0.354
				c0.812-0.24,1.468-0.599,1.97-1.063c0.521-0.501,0.914-1.053,1.17-1.657c0.256-0.604,0.385-1.362,0.385-2.288
				c0-0.907-0.146-1.666-0.436-2.267c-0.291-0.598-0.693-1.064-1.205-1.409c-0.517-0.354-1.138-0.596-1.863-0.727
				c-0.725-0.131-1.516-0.197-2.354-0.197h-1.536v-2.836h1.193c1.729,0,3.109-0.362,4.146-1.086c1.028-0.723,1.547-1.779,1.547-3.17
				c0-0.615-0.131-1.153-0.396-1.615c-0.264-0.461-0.627-0.84-1.096-1.137c-0.488-0.296-1.015-0.501-1.57-0.615
				c-0.562-0.113-1.188-0.17-1.896-0.17c-1.084,0-2.231,0.193-3.453,0.58c-1.219,0.388-2.367,0.935-3.449,1.641h-0.174v-3.565
				c0.812-0.398,1.892-0.771,3.238-1.104c1.354-0.336,2.656-0.504,3.924-0.504c1.24,0,2.334,0.114,3.281,0.342
				c0.942,0.229,1.799,0.596,2.563,1.098c0.818,0.549,1.439,1.205,1.861,1.979c0.421,0.775,0.635,1.682,0.635,2.717
				c0,1.413-0.5,2.646-1.495,3.7c-0.998,1.056-2.176,1.718-3.527,1.991v0.238c0.548,0.093,1.175,0.277,1.882,0.567
				C1351.266,662.427,1351.863,662.788,1352.354,663.221z"/>
			<path d="M1120.359,673.629c-0.627,0.273-1.192,0.529-1.699,0.771c-0.508,0.232-1.172,0.483-1.989,0.752
				c-0.695,0.216-1.449,0.396-2.267,0.555c-0.813,0.155-1.713,0.229-2.688,0.229c-1.849,0-3.521-0.259-5.033-0.771
				c-1.51-0.521-2.82-1.33-3.938-2.438c-1.095-1.08-1.946-2.455-2.563-4.128c-0.612-1.669-0.923-3.604-0.923-5.813
				c0-2.103,0.296-3.976,0.892-5.623c0.593-1.651,1.444-3.048,2.563-4.188c1.082-1.104,2.392-1.941,3.923-2.523
				c1.53-0.58,3.229-0.871,5.104-0.871c1.365,0,2.729,0.165,4.095,0.496c1.359,0.329,2.875,0.909,4.537,1.737v4.021h-0.258
				c-1.398-1.173-2.791-2.027-4.17-2.563c-1.38-0.531-2.854-0.804-4.429-0.804c-1.287,0-2.444,0.208-3.479,0.623
				c-1.029,0.416-1.95,1.063-2.762,1.939c-0.785,0.854-1.396,1.935-1.839,3.233c-0.438,1.311-0.655,2.813-0.655,4.521
				c0,1.788,0.239,3.326,0.729,4.612c0.482,1.286,1.105,2.337,1.872,3.146c0.798,0.844,1.729,1.468,2.793,1.872
				c1.063,0.404,2.188,0.604,3.375,0.604c1.63,0,3.155-0.276,4.58-0.841c1.424-0.558,2.759-1.395,4-2.512h0.235v3.965
				L1120.359,673.629L1120.359,673.629z"/>
		</g>
	</g>
	<g id="A-SVGStep11">
		<g id="mathText_1_">
			<path d="M1225.166,589.635h-23.73v-2.104h23.73V589.635z"/>
			<path d="M1248.053,589.635h-23.729v-2.104h23.729V589.635z"/>
			<path d="M1270.939,589.635h-23.729v-2.104h23.729V589.635z"/>
			<path d="M1293.823,589.635h-23.729v-2.104h23.729V589.635z"/>
			<path d="M1343.713,589.635h-50.729v-2.104h50.729V589.635z"/>
			<path d="M1223.898,611.145c0,1.271-0.239,2.388-0.721,3.354c-0.479,0.969-1.122,1.767-1.934,2.393
				c-0.957,0.753-2.008,1.288-3.151,1.606c-1.146,0.318-2.603,0.479-4.365,0.479h-9.021V593.53h7.536
				c1.854,0,3.247,0.063,4.171,0.205c0.924,0.137,1.808,0.422,2.648,0.854c0.934,0.489,1.608,1.119,2.03,1.888
				c0.422,0.771,0.636,1.689,0.636,2.767c0,1.207-0.313,2.229-0.927,3.084c-0.612,0.85-1.438,1.524-2.461,2.043v0.137
				c1.724,0.354,3.074,1.107,4.065,2.269C1223.402,607.918,1223.898,609.379,1223.898,611.145z M1218.207,599.677
				c0-0.614-0.104-1.133-0.31-1.555c-0.205-0.421-0.536-0.763-0.992-1.025c-0.532-0.308-1.188-0.498-1.944-0.566
				c-0.767-0.074-1.709-0.111-2.838-0.111h-4.033v7.349h4.375c1.063,0,1.9-0.054,2.529-0.16c0.627-0.104,1.207-0.332,1.741-0.677
				c0.535-0.342,0.914-0.78,1.14-1.323C1218.096,601.059,1218.207,600.418,1218.207,599.677z M1220.378,611.281
				c0-1.025-0.153-1.84-0.462-2.444c-0.31-0.604-0.865-1.116-1.677-1.537c-0.547-0.285-1.211-0.471-1.989-0.556
				c-0.779-0.086-1.729-0.128-2.848-0.128h-5.313v9.467h4.479c1.479,0,2.692-0.076,3.643-0.229c0.942-0.148,1.721-0.437,2.322-0.847
				c0.64-0.438,1.104-0.951,1.4-1.521C1220.229,612.916,1220.378,612.182,1220.378,611.281z"/>
			<path d="M1250.198,606.274c0,2.313-0.504,4.402-1.512,6.288c-1.011,1.88-2.354,3.339-4.025,4.375
				c-1.16,0.718-2.458,1.231-3.887,1.556c-1.434,0.317-3.313,0.479-5.646,0.479h-6.429V593.53h6.357c2.479,0,4.457,0.18,5.922,0.539
				c1.463,0.354,2.701,0.852,3.717,1.479c1.729,1.082,3.081,2.523,4.053,4.323C1249.715,601.666,1250.198,603.802,1250.198,606.274z
				 M1246.659,606.223c0-1.987-0.348-3.675-1.043-5.042c-0.692-1.361-1.729-2.438-3.106-3.229c-1.004-0.569-2.065-0.966-3.193-1.188
				c-1.131-0.223-2.479-0.333-4.053-0.333h-3.18v19.642h3.18c1.629,0,3.053-0.12,4.267-0.358c1.213-0.24,2.323-0.684,3.341-1.334
				c1.268-0.809,2.215-1.873,2.848-3.194C1246.346,609.857,1246.659,608.205,1246.659,606.223z"/>
			<path d="M1264.336,608.646h-10.043v-2.082c0.694-0.604,1.396-1.196,2.098-1.795c0.702-0.603,1.354-1.191,1.957-1.782
				c1.275-1.235,2.149-2.218,2.621-2.944c0.474-0.728,0.707-1.513,0.707-2.354c0-0.771-0.254-1.373-0.762-1.813
				c-0.511-0.435-1.221-0.648-2.127-0.648c-0.604,0-1.263,0.104-1.963,0.315c-0.705,0.212-1.396,0.538-2.063,0.979h-0.103v-2.098
				c0.471-0.229,1.103-0.439,1.888-0.638c0.787-0.193,1.553-0.289,2.286-0.289c1.521,0,2.714,0.367,3.576,1.104
				c0.862,0.729,1.297,1.729,1.297,2.979c0,0.564-0.069,1.091-0.215,1.579s-0.354,0.952-0.636,1.391
				c-0.259,0.411-0.563,0.816-0.912,1.22c-0.349,0.396-0.771,0.842-1.271,1.32c-0.711,0.697-1.442,1.374-2.199,2.027
				c-0.76,0.654-1.466,1.261-2.122,1.817h7.979v1.704L1264.336,608.646L1264.336,608.646z"/>
			<path d="M1280.358,609.384h-10.664v-3.093h10.664V609.384z"/>
			<path d="M1305.582,611.145c0,1.271-0.238,2.388-0.72,3.354c-0.479,0.969-1.123,1.767-1.935,2.393
				c-0.957,0.753-2.01,1.288-3.149,1.606c-1.146,0.318-2.604,0.479-4.367,0.479h-9.021V593.53h7.537c1.854,0,3.247,0.063,4.17,0.205
				c0.926,0.137,1.809,0.422,2.646,0.854c0.938,0.489,1.612,1.119,2.034,1.888c0.421,0.771,0.632,1.689,0.632,2.767
				c0,1.207-0.307,2.229-0.922,3.084c-0.612,0.85-1.438,1.524-2.461,2.043v0.137c1.72,0.354,3.076,1.107,4.063,2.269
				C1305.088,607.918,1305.582,609.379,1305.582,611.145z M1299.893,599.677c0-0.614-0.104-1.133-0.309-1.555
				c-0.205-0.421-0.535-0.763-0.99-1.025c-0.536-0.308-1.188-0.498-1.949-0.566c-0.763-0.074-1.709-0.111-2.836-0.111h-4.03v7.349
				h4.375c1.062,0,1.899-0.054,2.526-0.16c0.626-0.104,1.207-0.332,1.742-0.677c0.532-0.342,0.911-0.78,1.137-1.323
				C1299.781,601.06,1299.893,600.418,1299.893,599.677z M1302.063,611.281c0-1.025-0.151-1.84-0.461-2.444
				c-0.309-0.604-0.864-1.116-1.676-1.537c-0.547-0.285-1.211-0.471-1.99-0.556c-0.778-0.086-1.729-0.128-2.846-0.128h-5.313v9.467
				h4.479c1.479,0,2.692-0.076,3.643-0.229c0.943-0.148,1.722-0.437,2.322-0.847c0.64-0.438,1.104-0.951,1.398-1.521
				C1301.911,612.916,1302.063,612.182,1302.063,611.281z"/>
			<path d="M1327.15,618.972h-16.769V593.53h16.769v3.008h-13.381v6.973h13.381v3.008h-13.381v9.451h13.381V618.972z"/>
			<path d="M1341.814,608.646h-10.043v-2.082c0.696-0.604,1.396-1.196,2.098-1.795c0.701-0.603,1.354-1.191,1.959-1.782
				c1.275-1.235,2.146-2.218,2.62-2.944c0.475-0.726,0.707-1.513,0.707-2.354c0-0.771-0.254-1.373-0.763-1.813
				c-0.511-0.435-1.22-0.648-2.127-0.648c-0.604,0-1.261,0.104-1.966,0.315c-0.7,0.212-1.391,0.538-2.063,0.979h-0.103v-2.098
				c0.476-0.229,1.104-0.439,1.892-0.638s1.549-0.289,2.287-0.289c1.521,0,2.713,0.367,3.575,1.104
				c0.861,0.729,1.296,1.729,1.296,2.979c0,0.564-0.07,1.091-0.214,1.579c-0.146,0.488-0.354,0.952-0.635,1.391
				c-0.263,0.411-0.563,0.816-0.91,1.22c-0.354,0.396-0.771,0.842-1.271,1.32c-0.711,0.697-1.441,1.374-2.202,2.027
				c-0.757,0.654-1.465,1.261-2.122,1.817h7.98L1341.814,608.646L1341.814,608.646z"/>
			<path d="M1369.014,605.607h-20.271v-2.734h20.271V605.607z M1369.014,612.785h-20.271v-2.734h20.271V612.785z"/>
			<path d="M1402.49,569.916l-15.039,33.137h-1.74l-6.563-16.971h-4.054v-2.375h6.72l5.351,14.031l12.477-27.823L1402.49,569.916
				L1402.49,569.916z"/>
			<path d="M1419.189,588.219c0.547,0.49,0.994,1.105,1.351,1.852c0.354,0.734,0.53,1.691,0.53,2.865
				c0,1.162-0.211,2.229-0.636,3.195c-0.422,0.969-1.014,1.813-1.774,2.529c-0.854,0.799-1.857,1.389-3.019,1.77
				c-1.155,0.381-2.426,0.572-3.803,0.572c-1.414,0-2.806-0.168-4.173-0.504c-1.364-0.336-2.487-0.703-3.364-1.102v-3.572h0.256
				c0.972,0.639,2.104,1.168,3.418,1.59c1.313,0.42,2.574,0.631,3.798,0.631c0.717,0,1.479-0.119,2.286-0.354
				c0.812-0.238,1.468-0.598,1.968-1.063c0.522-0.502,0.916-1.053,1.172-1.658c0.256-0.604,0.385-1.366,0.385-2.289
				c0-0.911-0.146-1.666-0.438-2.266c-0.291-0.598-0.691-1.066-1.203-1.408c-0.517-0.354-1.138-0.596-1.863-0.727
				c-0.729-0.131-1.518-0.197-2.355-0.197h-1.538v-2.836h1.193c1.731,0,3.112-0.363,4.146-1.086c1.031-0.728,1.549-1.779,1.549-3.17
				c0-0.616-0.134-1.154-0.396-1.616c-0.264-0.461-0.627-0.84-1.096-1.137c-0.488-0.298-1.014-0.501-1.57-0.615
				c-0.561-0.113-1.188-0.17-1.896-0.17c-1.083,0-2.233,0.188-3.453,0.58c-1.22,0.388-2.369,0.935-3.451,1.641h-0.172v-3.57
				c0.812-0.396,1.891-0.767,3.237-1.104c1.354-0.336,2.656-0.504,3.924-0.504c1.238,0,2.335,0.114,3.279,0.342
				c0.943,0.229,1.802,0.593,2.563,1.094c0.82,0.547,1.441,1.208,1.863,1.982c0.421,0.771,0.632,1.681,0.632,2.717
				c0,1.412-0.499,2.646-1.495,3.699c-0.998,1.055-2.174,1.719-3.526,1.991v0.233c0.547,0.092,1.174,0.283,1.88,0.572
				C1418.102,587.424,1418.698,587.785,1419.189,588.219z"/>
			<path d="M1430.5,608.569h-55.078v-2.479h55.078V608.569z"/>
			<path d="M1411.783,639.473h-17.229V635.9c1.196-1.025,2.396-2.057,3.6-3.076c1.203-1.025,2.322-2.044,3.356-3.063
				c2.188-2.113,3.688-3.803,4.494-5.05c0.812-1.248,1.213-2.595,1.213-4.042c0-1.317-0.438-2.354-1.31-3.102
				s-2.088-1.119-3.646-1.119c-1.037,0-2.16,0.182-3.367,0.547c-1.208,0.364-2.387,0.922-3.537,1.674h-0.172v-3.588
				c0.812-0.396,1.89-0.764,3.238-1.094c1.352-0.331,2.655-0.496,3.923-0.496c2.605,0,4.65,0.63,6.136,1.889
				c1.479,1.259,2.224,2.965,2.224,5.118c0,0.969-0.122,1.871-0.367,2.709c-0.244,0.837-0.604,1.632-1.085,2.384
				c-0.441,0.707-0.966,1.401-1.563,2.085c-0.597,0.688-1.322,1.441-2.181,2.272c-1.221,1.195-2.479,2.354-3.775,3.479
				s-2.513,2.162-3.641,3.119h13.688V639.473L1411.783,639.473z"/>
			<path d="M1117.472,618.973h-16.765V593.53h16.765v3.008h-13.382v6.973h13.382v3.009h-13.382v9.45h13.382V618.973z"/>
			<path d="M1144.337,606.275c0,2.313-0.505,4.402-1.516,6.289c-1.008,1.879-2.35,3.338-4.021,4.375
				c-1.162,0.717-2.458,1.23-3.888,1.555c-1.433,0.318-3.313,0.479-5.648,0.479h-6.426V593.53h6.354c2.482,0,4.457,0.18,5.923,0.539
				c1.465,0.354,2.702,0.852,3.719,1.479c1.729,1.082,3.082,2.523,4.051,4.322C1143.854,601.667,1144.337,603.803,1144.337,606.275z
				 M1140.799,606.223c0-1.986-0.351-3.674-1.042-5.041c-0.694-1.361-1.729-2.438-3.11-3.229c-1.003-0.568-2.064-0.965-3.192-1.188
				c-1.129-0.223-2.479-0.332-4.051-0.332h-3.182v19.641h3.182c1.629,0,3.051-0.119,4.265-0.357
				c1.216-0.239,2.326-0.684,3.344-1.334c1.267-0.809,2.213-1.873,2.847-3.192C1140.483,609.857,1140.799,608.205,1140.799,606.223z
				"/>
			<path d="M1170.844,605.607h-20.271v-2.734h20.271V605.607z M1170.844,612.785h-20.271v-2.734h20.271V612.785z"/>
			<path d="M1203.352,587.543l-15.469,34.084h-1.793l-6.75-17.455h-4.166v-2.443h6.908l5.502,14.438l12.832-28.617L1203.352,587.543
				L1203.352,587.543z"/>
		</g>
	</g>
	<g id="A-SVGStep10" enable-background="new    ">
		<g id="mathText">
			<path d="M1141.466,564.972h-16.768V539.53h16.768v3.008h-13.382v6.973h13.382v3.008h-13.382v9.451h13.382V564.972z"/>
			<path d="M1167.866,551.608H1147.6v-2.734h20.268L1167.866,551.608L1167.866,551.608z M1167.866,558.786H1147.6v-2.734h20.268
				L1167.866,558.786L1167.866,558.786z"/>
			<path d="M1181.368,555.316h-2.817v-11.644h-3.572v-1.999c1.162,0,2.104-0.126,2.82-0.377c0.719-0.25,1.129-0.865,1.229-1.846
				h2.342L1181.368,555.316L1181.368,555.316z M1196.154,539.525l-13.33,25.441h-2.817l13.33-25.441H1196.154z M1205.467,564.972
				h-11.758v-2.523c1.034-0.786,1.938-1.479,2.698-2.068c0.766-0.591,1.367-1.099,1.813-1.521c1.242-1.178,2.045-2.069,2.41-2.69
				c0.363-0.621,0.547-1.397,0.547-2.333c0-0.797-0.25-1.407-0.752-1.828c-0.502-0.422-1.188-0.633-2.051-0.633
				c-0.799,0-1.604,0.171-2.418,0.513c-0.814,0.343-1.455,0.695-1.924,1.063h-0.259v-3.063c0.742-0.309,1.541-0.559,2.399-0.752
				c0.857-0.189,1.729-0.291,2.604-0.291c1.789,0,3.164,0.45,4.127,1.354c0.964,0.896,1.442,2.048,1.442,3.438
				c0,1.063-0.23,2.011-0.698,2.854c-0.47,0.846-1.308,1.803-2.515,2.869c-0.561,0.488-1.237,1.035-2.043,1.645
				c-0.804,0.604-1.52,1.141-2.146,1.604h8.513v2.373h0.004v-0.006L1205.467,564.972L1205.467,564.972z"/>
			<path d="M1119.898,557.145c0,1.271-0.239,2.388-0.721,3.354c-0.479,0.969-1.122,1.767-1.934,2.393
				c-0.957,0.753-2.008,1.288-3.151,1.606c-1.146,0.318-2.603,0.479-4.365,0.479h-9.021V539.53h7.536
				c1.854,0,3.247,0.063,4.171,0.205c0.924,0.137,1.808,0.422,2.648,0.854c0.934,0.489,1.608,1.119,2.03,1.888
				c0.422,0.771,0.636,1.689,0.636,2.767c0,1.207-0.313,2.229-0.927,3.084c-0.612,0.85-1.438,1.524-2.461,2.043v0.137
				c1.724,0.354,3.074,1.107,4.065,2.269C1119.402,553.918,1119.898,555.379,1119.898,557.145z M1114.207,545.677
				c0-0.614-0.104-1.133-0.31-1.555c-0.205-0.421-0.536-0.763-0.992-1.025c-0.532-0.308-1.188-0.498-1.944-0.566
				c-0.767-0.074-1.709-0.111-2.838-0.111h-4.033v7.349h4.375c1.063,0,1.9-0.054,2.529-0.16c0.627-0.104,1.207-0.332,1.741-0.677
				c0.535-0.342,0.914-0.78,1.14-1.323C1114.096,547.059,1114.207,546.418,1114.207,545.677z M1116.378,557.282
				c0-1.025-0.153-1.84-0.462-2.444c-0.31-0.604-0.865-1.116-1.677-1.537c-0.547-0.285-1.211-0.471-1.989-0.556
				c-0.779-0.086-1.729-0.128-2.848-0.128h-5.313v9.467h4.479c1.479,0,2.692-0.076,3.643-0.23c0.942-0.147,1.721-0.436,2.322-0.846
				c0.64-0.438,1.104-0.951,1.4-1.521C1116.229,558.917,1116.378,558.182,1116.378,557.282z"/>
		</g>
	</g>
	<g id="A-SVGStep9" enable-background="new    ">
		<g id="mathText_3_">
			<path id="mathText_36_" d="M1143.823,503.146c0,1.265-0.238,2.382-0.719,3.35c-0.479,0.969-1.121,1.767-1.933,2.393
				c-0.957,0.752-2.011,1.288-3.154,1.606c-1.146,0.319-2.601,0.479-4.362,0.479h-9.021V485.53h7.534
				c1.855,0,3.246,0.063,4.172,0.205c0.923,0.137,1.806,0.422,2.646,0.854c0.937,0.489,1.608,1.119,2.033,1.888
				c0.422,0.771,0.633,1.689,0.633,2.767c0,1.207-0.312,2.229-0.924,3.084c-0.615,0.85-1.438,1.523-2.461,2.043v0.137
				c1.721,0.354,3.073,1.107,4.063,2.265C1143.325,499.919,1143.823,501.38,1143.823,503.146z M1138.133,491.678
				c0-0.609-0.104-1.133-0.31-1.555c-0.202-0.421-0.534-0.763-0.989-1.025c-0.535-0.308-1.188-0.498-1.947-0.566
				c-0.764-0.074-1.709-0.111-2.838-0.111h-4.033v7.35h4.375c1.063,0,1.902-0.055,2.529-0.158c0.627-0.107,1.208-0.332,1.744-0.68
				c0.535-0.342,0.914-0.777,1.137-1.32C1138.021,493.06,1138.133,492.419,1138.133,491.678z M1140.304,503.282
				c0-1.025-0.15-1.84-0.462-2.444c-0.31-0.604-0.865-1.116-1.674-1.537c-0.55-0.285-1.214-0.471-1.992-0.556
				c-0.779-0.086-1.729-0.128-2.846-0.128h-5.314v9.467h4.479c1.479,0,2.693-0.076,3.643-0.229c0.943-0.153,1.723-0.438,2.324-0.852
				c0.638-0.438,1.104-0.951,1.398-1.521C1140.155,504.917,1140.304,504.183,1140.304,503.282z"/>
			<path d="M1169.661,497.608h-20.271v-2.734h20.271V497.608z M1169.661,504.786h-20.271v-2.734h20.271V504.786z"/>
			<path d="M1196.461,503.146c0,1.265-0.238,2.382-0.72,3.35c-0.479,0.969-1.123,1.767-1.932,2.393
				c-0.957,0.752-2.011,1.288-3.154,1.606c-1.146,0.319-2.603,0.479-4.362,0.479h-9.023V485.53h7.537
				c1.854,0,3.246,0.063,4.17,0.205c0.925,0.137,1.808,0.422,2.648,0.854c0.934,0.489,1.608,1.119,2.03,1.888
				c0.422,0.771,0.636,1.689,0.636,2.767c0,1.207-0.312,2.229-0.927,3.084c-0.612,0.85-1.438,1.523-2.461,2.043v0.137
				c1.724,0.354,3.076,1.107,4.065,2.265C1195.965,499.919,1196.461,501.38,1196.461,503.146z M1190.77,491.678
				c0-0.609-0.102-1.133-0.307-1.555c-0.205-0.421-0.537-0.763-0.992-1.025c-0.535-0.308-1.188-0.498-1.944-0.566
				c-0.767-0.074-1.709-0.111-2.84-0.111h-4.031v7.35h4.375c1.063,0,1.899-0.055,2.526-0.158c0.63-0.107,1.207-0.332,1.744-0.68
				c0.535-0.342,0.914-0.777,1.14-1.32C1190.656,493.06,1190.77,492.419,1190.77,491.678z M1192.941,503.282
				c0-1.025-0.154-1.84-0.463-2.444c-0.31-0.604-0.865-1.116-1.677-1.537c-0.547-0.285-1.211-0.471-1.989-0.556
				c-0.779-0.086-1.729-0.128-2.847-0.128h-5.313v9.467h4.479c1.479,0,2.69-0.076,3.644-0.229c0.942-0.153,1.719-0.438,2.321-0.852
				c0.64-0.438,1.104-0.951,1.4-1.521C1192.793,504.917,1192.941,504.183,1192.941,503.282z"/>
			<path d="M1222.762,498.275c0,2.313-0.504,4.402-1.512,6.289c-1.011,1.879-2.353,3.338-4.025,4.375
				c-1.162,0.717-2.457,1.23-3.887,1.555c-1.435,0.313-3.313,0.479-5.646,0.479h-6.429V485.53h6.354c2.482,0,4.457,0.18,5.924,0.539
				c1.464,0.354,2.699,0.852,3.718,1.479c1.729,1.082,3.082,2.523,4.054,4.323C1222.277,493.667,1222.762,495.803,1222.762,498.275z
				 M1219.225,498.224c0-1.987-0.348-3.675-1.043-5.042c-0.692-1.361-1.729-2.438-3.106-3.229c-1.004-0.569-2.065-0.966-3.192-1.188
				c-1.129-0.223-2.479-0.333-4.053-0.333h-3.184v19.642h3.184c1.631,0,3.053-0.12,4.266-0.358c1.213-0.24,2.326-0.684,3.345-1.334
				c1.267-0.809,2.213-1.873,2.844-3.195C1218.907,501.86,1219.225,500.206,1219.225,498.224z"/>
			<path d="M1249.268,497.608H1229v-2.734h20.268V497.608z M1249.268,504.786H1229v-2.734h20.268V504.786z"/>
			<path d="M1271.98,510.973h-13.772v-2.598h5.299v-17.056h-5.299v-2.324c0.719,0,1.485-0.063,2.309-0.18
				c0.821-0.119,1.439-0.293,1.863-0.521c0.521-0.285,0.938-0.646,1.235-1.086c0.306-0.438,0.479-1.027,0.521-1.769h2.646v22.935
				h5.194v2.599H1271.98z"/>
			<path id="mathText_35_" d="M1120.77,510.973h-3.604l-2.495-7.092h-11.007l-2.494,7.092h-3.438l9.267-25.441h4.512
				L1120.77,510.973z M1113.627,500.975l-4.464-12.486l-4.479,12.486H1113.627z"/>
		</g>
	</g>
	<g id="A-SVGStep8">
		
			<line id="geo_15_" fill="none" stroke="#000000" stroke-width="2" stroke-miterlimit="10" x1="680.933" y1="391.441" x2="993.688" y2="571.97"/>
		<g id="A-text_10_" enable-background="new    ">
			<path d="M1039.725,565.275c0,2.313-0.504,4.402-1.512,6.289c-1.011,1.879-2.353,3.338-4.025,4.375
				c-1.159,0.717-2.457,1.23-3.887,1.555c-1.434,0.318-3.313,0.479-5.646,0.479h-6.429V552.53h6.356c2.48,0,4.457,0.18,5.923,0.539
				c1.463,0.354,2.702,0.852,3.717,1.479c1.729,1.082,3.082,2.523,4.053,4.323C1039.24,560.667,1039.725,562.802,1039.725,565.275z
				 M1036.188,565.223c0-1.987-0.348-3.675-1.043-5.042c-0.692-1.361-1.729-2.438-3.105-3.229c-1.005-0.569-2.066-0.966-3.194-1.188
				c-1.128-0.222-2.479-0.333-4.051-0.333h-3.182v19.642h3.182c1.63,0,3.052-0.12,4.265-0.358c1.213-0.24,2.326-0.684,3.341-1.334
				c1.269-0.809,2.217-1.873,2.849-3.194C1035.868,568.858,1036.188,567.206,1036.188,565.223z"/>
		</g>
		<g id="A-text_9_" enable-background="new    ">
			<path d="M697.943,368.992c0,1.265-0.239,2.382-0.721,3.35c-0.479,0.969-1.123,1.767-1.934,2.393
				c-0.954,0.752-2.008,1.288-3.15,1.606c-1.146,0.319-2.604,0.479-4.363,0.479h-9.021v-25.447h7.535
				c1.854,0,3.246,0.068,4.171,0.205c0.924,0.137,1.807,0.422,2.646,0.855c0.937,0.489,1.61,1.119,2.032,1.888
				c0.421,0.77,0.634,1.689,0.634,2.761c0,1.207-0.31,2.235-0.925,3.084c-0.612,0.85-1.438,1.529-2.461,2.043v0.137
				c1.722,0.353,3.076,1.107,4.064,2.264C697.447,365.766,697.943,367.227,697.943,368.992z M692.252,357.524
				c0-0.615-0.104-1.133-0.311-1.555c-0.205-0.421-0.536-0.763-0.991-1.025c-0.536-0.308-1.188-0.498-1.945-0.572
				c-0.767-0.074-1.709-0.111-2.837-0.111h-4.033v7.349h4.375c1.063,0,1.899-0.054,2.526-0.162c0.626-0.108,1.208-0.333,1.743-0.675
				c0.535-0.342,0.914-0.783,1.139-1.325C692.141,358.906,692.252,358.266,692.252,357.524z M694.422,369.129
				c0-1.025-0.154-1.84-0.461-2.444c-0.311-0.604-0.866-1.116-1.678-1.537c-0.547-0.285-1.211-0.471-1.988-0.556
				c-0.78-0.086-1.729-0.128-2.848-0.128h-5.313v9.467h4.479c1.479,0,2.691-0.076,3.643-0.23c0.942-0.153,1.72-0.436,2.321-0.846
				c0.641-0.444,1.104-0.951,1.4-1.521S694.422,370.029,694.422,369.129z"/>
		</g>
		<path id="A-point_10_" d="M686.933,391.441c0,3.314-2.688,6-6,6l0,0c-3.313,0-6-2.688-6-6l0,0c0-3.313,2.688-6,6-6l0,0
			C684.244,385.441,686.933,388.128,686.933,391.441L686.933,391.441z"/>
		<path id="A-point_11_" d="M686.933,752.504c0,3.313-2.688,6-6,6l0,0c-3.313,0-6-2.688-6-6l0,0c0-3.313,2.688-6,6-6l0,0
			C684.244,746.504,686.933,749.189,686.933,752.504L686.933,752.504z"/>
	</g>
	<g id="A-SVGStep7">
		<path id="A-point_7_" d="M687.033,572.074c0,3.313-2.688,6-6,6l0,0c-3.313,0-6-2.688-6-6l0,0c0-3.313,2.688-6,6-6l0,0
			C684.346,566.074,687.033,568.759,687.033,572.074L687.033,572.074z"/>
		<g id="A-text_11_" enable-background="new    ">
			<path d="M712.115,558.973H695.35V533.53h16.768v3.008h-13.381v6.973h13.381v3.009h-13.381v9.45h13.381L712.115,558.973
				L712.115,558.973z"/>
		</g>
	</g>
	<g id="A-SVGStep6">
		<g id="A-text_5_" enable-background="new    ">
			<path d="M1039.725,565.275c0,2.313-0.504,4.402-1.512,6.289c-1.011,1.879-2.353,3.338-4.025,4.375
				c-1.159,0.717-2.457,1.23-3.887,1.555c-1.434,0.318-3.313,0.479-5.646,0.479h-6.429V552.53h6.356c2.48,0,4.457,0.18,5.923,0.539
				c1.463,0.354,2.702,0.852,3.717,1.479c1.729,1.082,3.082,2.523,4.053,4.323C1039.24,560.667,1039.725,562.802,1039.725,565.275z
				 M1036.188,565.223c0-1.987-0.348-3.675-1.043-5.042c-0.692-1.361-1.729-2.438-3.105-3.229c-1.005-0.569-2.066-0.966-3.194-1.188
				c-1.128-0.222-2.479-0.333-4.051-0.333h-3.182v19.642h3.182c1.63,0,3.052-0.12,4.265-0.358c1.213-0.24,2.326-0.684,3.341-1.334
				c1.269-0.809,2.217-1.873,2.849-3.194C1035.868,568.858,1036.188,567.206,1036.188,565.223z"/>
		</g>
		<g id="A-text_6_" enable-background="new    ">
			<path d="M341.879,577.126c-0.627,0.273-1.194,0.529-1.7,0.771c-0.507,0.237-1.171,0.488-1.991,0.757
				c-0.692,0.216-1.447,0.396-2.265,0.555c-0.813,0.154-1.712,0.229-2.688,0.229c-1.849,0-3.521-0.259-5.033-0.771
				c-1.51-0.521-2.82-1.33-3.938-2.438c-1.094-1.082-1.947-2.457-2.563-4.127c-0.612-1.669-0.923-3.604-0.923-5.813
				c0-2.103,0.296-3.977,0.892-5.623c0.592-1.651,1.444-3.048,2.563-4.188c1.082-1.104,2.394-1.944,3.925-2.524
				c1.529-0.579,3.229-0.87,5.104-0.87c1.364,0,2.729,0.164,4.093,0.495c1.361,0.328,2.874,0.908,4.537,1.738v4.021h-0.256
				c-1.401-1.173-2.792-2.027-4.171-2.563c-1.381-0.532-2.854-0.803-4.428-0.803c-1.288,0-2.444,0.208-3.479,0.623
				c-1.032,0.416-1.952,1.063-2.761,1.938c-0.785,0.854-1.398,1.937-1.839,3.235c-0.438,1.308-0.655,2.813-0.655,4.521
				c0,1.788,0.239,3.324,0.727,4.607c0.483,1.288,1.107,2.338,1.871,3.146c0.8,0.844,1.729,1.468,2.795,1.872
				c1.064,0.401,2.189,0.604,3.375,0.604c1.631,0,3.155-0.273,4.579-0.838c1.427-0.558,2.76-1.395,3.999-2.512h0.239
				L341.879,577.126L341.879,577.126z"/>
		</g>
		<path id="A-point_5_" d="M999.688,571.974c0,3.313-2.689,6-6,6l0,0c-3.314,0-6-2.687-6-6l0,0c0-3.313,2.688-6,6-6l0,0
			C997,565.974,999.688,568.659,999.688,571.974L999.688,571.974z"/>
		<path id="A-point_6_" d="M374.166,571.974c0,3.314-2.688,6-6,6l0,0c-3.313,0-6-2.686-6-6l0,0c0-3.313,2.688-6,6-6l0,0
			C371.479,565.974,374.166,568.66,374.166,571.974L374.166,571.974z"/>
		
			<line id="geo_3_" fill="none" stroke="#000000" stroke-width="2" stroke-miterlimit="10" x1="368.178" y1="571.974" x2="993.689" y2="571.974"/>
	</g>
	<g id="A-SVGStep5">
		<path id="A-point_4_" d="M999.688,571.974c0,3.313-2.689,6-6,6l0,0c-3.314,0-6-2.687-6-6l0,0c0-3.313,2.688-6,6-6l0,0
			C997,565.974,999.688,568.659,999.688,571.974L999.688,571.974z"/>
		<g id="A-text_4_" enable-background="new    ">
			<path d="M1039.725,565.275c0,2.313-0.504,4.402-1.512,6.289c-1.011,1.879-2.353,3.338-4.025,4.375
				c-1.159,0.717-2.457,1.23-3.887,1.555c-1.434,0.318-3.313,0.479-5.646,0.479h-6.429V552.53h6.356c2.48,0,4.457,0.18,5.923,0.539
				c1.463,0.354,2.702,0.852,3.717,1.479c1.729,1.082,3.082,2.523,4.053,4.323C1039.24,560.667,1039.725,562.802,1039.725,565.275z
				 M1036.188,565.223c0-1.987-0.348-3.675-1.043-5.042c-0.692-1.361-1.729-2.438-3.105-3.229c-1.005-0.569-2.066-0.966-3.194-1.188
				c-1.128-0.222-2.479-0.333-4.051-0.333h-3.182v19.642h3.182c1.63,0,3.052-0.12,4.265-0.358c1.213-0.24,2.326-0.684,3.341-1.334
				c1.269-0.809,2.217-1.873,2.849-3.194C1035.868,568.858,1036.188,567.206,1036.188,565.223z"/>
		</g>
	</g>
	<g id="A-SVGStep4">
		<path id="A-point_3_" d="M374.166,571.974c0,3.314-2.688,6-6,6l0,0c-3.313,0-6-2.686-6-6l0,0c0-3.313,2.688-6,6-6l0,0
			C371.479,565.974,374.166,568.66,374.166,571.974L374.166,571.974z"/>
		<g id="A-text_3_" enable-background="new    ">
			<path d="M341.879,577.126c-0.627,0.273-1.194,0.529-1.7,0.771c-0.507,0.237-1.171,0.488-1.991,0.757
				c-0.692,0.216-1.447,0.396-2.265,0.555c-0.813,0.154-1.712,0.229-2.688,0.229c-1.849,0-3.521-0.259-5.033-0.771
				c-1.51-0.521-2.82-1.33-3.938-2.438c-1.094-1.082-1.947-2.457-2.563-4.127c-0.612-1.669-0.923-3.604-0.923-5.813
				c0-2.103,0.296-3.977,0.892-5.623c0.592-1.651,1.444-3.048,2.563-4.188c1.082-1.104,2.394-1.944,3.925-2.524
				c1.529-0.579,3.229-0.87,5.104-0.87c1.364,0,2.729,0.164,4.093,0.495c1.361,0.328,2.874,0.908,4.537,1.738v4.021h-0.256
				c-1.401-1.173-2.792-2.027-4.171-2.563c-1.381-0.532-2.854-0.803-4.428-0.803c-1.288,0-2.444,0.208-3.479,0.623
				c-1.032,0.416-1.952,1.063-2.761,1.938c-0.785,0.854-1.398,1.937-1.839,3.235c-0.438,1.308-0.655,2.813-0.655,4.521
				c0,1.788,0.239,3.324,0.727,4.607c0.483,1.288,1.107,2.338,1.871,3.146c0.8,0.844,1.729,1.468,2.795,1.872
				c1.064,0.401,2.189,0.604,3.375,0.604c1.631,0,3.155-0.273,4.579-0.838c1.427-0.558,2.76-1.395,3.999-2.512h0.239
				L341.879,577.126L341.879,577.126z"/>
		</g>
	</g>
	<g id="A-SVGStep3">
		
			<circle id="geo_2_" fill="none" stroke="#000000" stroke-width="2" stroke-miterlimit="10" cx="680.933" cy="391.441" r="361.063"/>
		<g id="A-text_2_" enable-background="new    ">
			<path d="M711.814,740.627h-3.606l-2.492-7.092h-11.008l-2.493,7.092h-3.438l9.263-25.447h4.515L711.814,740.627z
				 M704.671,730.629l-4.46-12.492l-4.479,12.492H704.671z"/>
		</g>
		<g id="A-text_7_" enable-background="new    ">
			<path d="M697.943,368.992c0,1.265-0.239,2.382-0.721,3.35c-0.479,0.969-1.123,1.767-1.934,2.393
				c-0.954,0.752-2.008,1.288-3.15,1.606c-1.146,0.319-2.604,0.479-4.363,0.479h-9.021v-25.447h7.535
				c1.854,0,3.246,0.068,4.171,0.205c0.924,0.137,1.807,0.422,2.646,0.855c0.937,0.489,1.61,1.119,2.032,1.888
				c0.421,0.77,0.634,1.689,0.634,2.761c0,1.207-0.31,2.235-0.925,3.084c-0.612,0.85-1.438,1.529-2.461,2.043v0.137
				c1.722,0.353,3.076,1.107,4.064,2.264C697.447,365.766,697.943,367.227,697.943,368.992z M692.252,357.524
				c0-0.615-0.104-1.133-0.311-1.555c-0.205-0.421-0.536-0.763-0.991-1.025c-0.536-0.308-1.188-0.498-1.945-0.572
				c-0.767-0.074-1.709-0.111-2.837-0.111h-4.033v7.349h4.375c1.063,0,1.899-0.054,2.526-0.162c0.626-0.108,1.208-0.333,1.743-0.675
				c0.535-0.342,0.914-0.783,1.139-1.325C692.141,358.906,692.252,358.266,692.252,357.524z M694.422,369.129
				c0-1.025-0.154-1.84-0.461-2.444c-0.311-0.604-0.866-1.116-1.678-1.537c-0.547-0.285-1.211-0.471-1.988-0.556
				c-0.78-0.086-1.729-0.128-2.848-0.128h-5.313v9.467h4.479c1.479,0,2.691-0.076,3.643-0.23c0.942-0.153,1.72-0.436,2.321-0.846
				c0.641-0.444,1.104-0.951,1.4-1.521S694.422,370.029,694.422,369.129z"/>
		</g>
		<path id="A-point_2_" d="M686.933,391.441c0,3.314-2.688,6-6,6l0,0c-3.313,0-6-2.688-6-6l0,0c0-3.313,2.688-6,6-6l0,0
			C684.244,385.441,686.933,388.128,686.933,391.441L686.933,391.441z"/>
		<path id="A-point_9_" d="M686.933,752.504c0,3.313-2.688,6-6,6l0,0c-3.313,0-6-2.688-6-6l0,0c0-3.313,2.688-6,6-6l0,0
			C684.244,746.504,686.933,749.189,686.933,752.504L686.933,752.504z"/>
	</g>
	<g id="A-SVGStep2">
		<g id="A-text_1_" enable-background="new    ">
			<path d="M697.943,368.992c0,1.265-0.239,2.382-0.721,3.35c-0.479,0.969-1.123,1.767-1.934,2.393
				c-0.954,0.752-2.008,1.288-3.15,1.606c-1.146,0.319-2.604,0.479-4.363,0.479h-9.021v-25.447h7.535
				c1.854,0,3.246,0.068,4.171,0.205c0.924,0.137,1.807,0.422,2.646,0.855c0.937,0.489,1.61,1.119,2.032,1.888
				c0.421,0.77,0.634,1.689,0.634,2.761c0,1.207-0.31,2.235-0.925,3.084c-0.612,0.85-1.438,1.529-2.461,2.043v0.137
				c1.722,0.353,3.076,1.107,4.064,2.264C697.447,365.766,697.943,367.227,697.943,368.992z M692.252,357.524
				c0-0.615-0.104-1.133-0.311-1.555c-0.205-0.421-0.536-0.763-0.991-1.025c-0.536-0.308-1.188-0.498-1.945-0.572
				c-0.767-0.074-1.709-0.111-2.837-0.111h-4.033v7.349h4.375c1.063,0,1.899-0.054,2.526-0.162c0.626-0.108,1.208-0.333,1.743-0.675
				c0.535-0.342,0.914-0.783,1.139-1.325C692.141,358.906,692.252,358.266,692.252,357.524z M694.422,369.129
				c0-1.025-0.154-1.84-0.461-2.444c-0.311-0.604-0.866-1.116-1.678-1.537c-0.547-0.285-1.211-0.471-1.988-0.556
				c-0.78-0.086-1.729-0.128-2.848-0.128h-5.313v9.467h4.479c1.479,0,2.691-0.076,3.643-0.23c0.942-0.153,1.72-0.436,2.321-0.846
				c0.641-0.444,1.104-0.951,1.4-1.521S694.422,370.029,694.422,369.129z"/>
		</g>
		<g id="A-text_8_" enable-background="new    ">
			<path d="M711.814,740.627h-3.606l-2.492-7.092h-11.008l-2.493,7.092h-3.438l9.263-25.447h4.515L711.814,740.627z
				 M704.671,730.629l-4.46-12.492l-4.479,12.492H704.671z"/>
		</g>
		
			<line id="geo_1_" fill="none" stroke="#000000" stroke-width="2" stroke-miterlimit="10" x1="680.933" y1="752.504" x2="680.933" y2="391.441"/>
		<path id="A-point_1_" d="M686.933,391.441c0,3.314-2.688,6-6,6l0,0c-3.313,0-6-2.688-6-6l0,0c0-3.313,2.688-6,6-6l0,0
			C684.244,385.441,686.933,388.128,686.933,391.441L686.933,391.441z"/>
		<path id="A-point_8_" d="M686.933,752.504c0,3.313-2.688,6-6,6l0,0c-3.313,0-6-2.688-6-6l0,0c0-3.313,2.688-6,6-6l0,0
			C684.244,746.504,686.933,749.189,686.933,752.504L686.933,752.504z"/>
	</g>
	<g id="A-SVGStep1">
		<g id="A-text" enable-background="new    ">
			<path d="M711.814,740.627h-3.606l-2.492-7.092h-11.008l-2.493,7.092h-3.438l9.263-25.447h4.515L711.814,740.627z
				 M704.671,730.629l-4.46-12.492l-4.479,12.492H704.671z"/>
		</g>
		<circle id="geo" fill="none" stroke="#000000" stroke-width="2" stroke-miterlimit="10" cx="680.933" cy="752.504" r="361.063"/>
		<path id="A-point" d="M686.933,752.504c0,3.313-2.688,6-6,6l0,0c-3.313,0-6-2.688-6-6l0,0c0-3.313,2.688-6,6-6l0,0
			C684.244,746.504,686.933,749.189,686.933,752.504L686.933,752.504z"/>
	</g>
</g>
</svg>
