<?xml version="1.0" encoding="utf-8"?>
<!-- Generator: Adobe Illustrator 16.0.0, SVG Export Plug-In . SVG Version: 6.00 Build 0)  -->
<!DOCTYPE svg PUBLIC "-//W3C//DTD SVG 1.1//EN" "http://www.w3.org/Graphics/SVG/1.1/DTD/svg11.dtd">
<svg version="1.1" id="A_detailUnsealedFOL" xmlns="http://www.w3.org/2000/svg" xmlns:xlink="http://www.w3.org/1999/xlink"
	 x="0px" y="0px" width="3717px" height="2478px" viewBox="0 0 3717 2478" enable-background="new 0 0 3717 2478"
	 xml:space="preserve">
<g id="A_SVGGroupSteps">
	<g id="completedFOL">
		<g id="rotation10_">
			<path fill="none" stroke="#FFFFFF" stroke-miterlimit="10" d="M2101.447,1482.045c0,134.324-108.822,243.051-243.02,243.051
				c-134.484,0-243.211-108.727-243.211-243.051c0-134.326,108.535-243.102,243.211-243.102
				C1992.592,1238.943,2101.447,1347.687,2101.447,1482.045z"/>
			<path fill="none" stroke="#FFFFFF" stroke-miterlimit="10" d="M2312.119,1360.518c0,134.261-108.92,243.053-243.053,243.053
				c-134.293,0-243.211-108.792-243.211-243.053c0-134.325,108.918-243.1,243.211-243.1
				C2203.199,1117.418,2312.119,1226.192,2312.119,1360.518z"/>
			<path fill="none" stroke="#FFFFFF" stroke-miterlimit="10" d="M2312.055,1117.482c0,134.244-108.855,243.035-243.021,243.035
				c-134.291,0-243.243-108.759-243.243-243.035c0-134.405,108.952-243.181,243.243-243.181
				C2203.199,874.302,2312.055,983.077,2312.055,1117.482z"/>
			<path fill="none" stroke="#FFFFFF" stroke-miterlimit="10" d="M2101.447,995.86c0,134.309-108.822,243.052-243.02,243.052
				c-134.484,0-243.211-108.743-243.211-243.052c0-134.277,108.535-243.116,243.211-243.116
				C1992.592,752.775,2101.447,861.551,2101.447,995.86z"/>
			<path fill="none" stroke="#FFFFFF" stroke-miterlimit="10" d="M1890.938,1117.482c0,134.244-108.918,243.035-243.051,243.035
				c-134.485,0-243.725-108.759-243.725-243.035c0-134.405,108.855-243.181,243.725-243.181
				C1782.019,874.302,1890.938,983.077,1890.938,1117.482z"/>
			<path fill="none" stroke="#FFFFFF" stroke-miterlimit="10" d="M1890.938,1360.518c0,134.261-108.918,243.053-243.051,243.053
				c-134.485,0-243.725-108.792-243.725-243.053c0-134.325,108.855-243.1,243.725-243.1
				C1782.019,1117.418,1890.938,1226.192,1890.938,1360.518z"/>
		</g>
		<g id="rotation_2_8_">
			<path fill="none" stroke="#FFFFFF" stroke-miterlimit="10" d="M1890.938,874.302c0,134.373-108.918,243.116-243.051,243.116
				c-134.485,0-243.725-108.743-243.725-243.116c0-134.276,108.855-243.052,243.725-243.052
				C1782.019,631.218,1890.938,739.961,1890.938,874.302z"/>
			<path fill="none" stroke="#FFFFFF" stroke-miterlimit="10" d="M1680.363,1238.943c0,134.373-108.535,243.037-243.021,243.037
				c-134.452,0-243.211-108.664-243.211-243.037c0-134.276,108.759-243.051,243.211-243.051
				C1571.507,995.86,1680.363,1104.667,1680.363,1238.943z"/>
			<path fill="none" stroke="#FFFFFF" stroke-miterlimit="10" d="M1890.938,1603.634c0,134.229-108.918,242.987-243.051,242.987
				c-134.485,0-243.725-108.727-243.725-242.987c0-134.324,108.855-243.116,243.725-243.116
				C1782.019,1360.454,1890.938,1469.31,1890.938,1603.634z"/>
			<path fill="none" stroke="#FFFFFF" stroke-miterlimit="10" d="M2312.119,1603.634c0,134.229-108.92,242.987-243.053,242.987
				c-134.293,0-243.211-108.727-243.211-242.987c0-134.324,108.918-243.116,243.211-243.116
				C2203.199,1360.454,2312.119,1469.31,2312.119,1603.634z"/>
			<path fill="none" stroke="#FFFFFF" stroke-miterlimit="10" d="M2522.662,1238.943c0,134.373-108.537,243.037-243.021,243.037
				c-134.324,0-243.18-108.664-243.18-243.037c0-134.276,108.855-243.051,243.18-243.051
				C2413.838,995.86,2522.662,1104.667,2522.662,1238.943z"/>
			<path fill="none" stroke="#FFFFFF" stroke-miterlimit="10" d="M2312.055,874.302c0,134.373-108.855,243.116-243.021,243.116
				c-134.291,0-243.243-108.743-243.243-243.116c0-134.276,108.952-243.052,243.243-243.052
				C2203.199,631.218,2312.055,739.961,2312.055,874.302z"/>
		</g>
		<g id="rotation_4_8_">
			<path fill="none" stroke="#FFFFFF" stroke-miterlimit="10" d="M1890.938,631.218c0,134.31-108.918,243.053-243.051,243.053
				c-134.485,0-243.725-108.743-243.725-243.053c0-134.34,108.855-243.115,243.725-243.115
				C1782.019,388.103,1890.938,496.909,1890.938,631.218z"/>
			<path fill="none" stroke="#FFFFFF" stroke-miterlimit="10" d="M1680.298,752.84c0,134.245-108.535,243.053-243.02,243.053
				c-134.421,0-243.18-108.808-243.18-243.053c0-134.341,108.759-243.115,243.18-243.115
				C1571.507,509.725,1680.298,618.499,1680.298,752.84z"/>
			<path fill="none" stroke="#FFFFFF" stroke-miterlimit="10" d="M1469.82,1117.482c0,134.309-108.822,243.035-243.083,243.035
				s-243.18-108.759-243.18-243.035c0-134.405,108.854-243.181,243.18-243.181C1360.998,874.302,1469.82,983.077,1469.82,1117.482z"
				/>
			<path fill="none" stroke="#FFFFFF" stroke-miterlimit="10" d="M1469.82,1360.518c0,134.325-108.822,243.053-243.02,243.053
				c-134.324,0-243.243-108.792-243.243-243.053c0-134.325,108.919-243.1,243.243-243.1
				C1361.03,1117.418,1469.82,1226.192,1469.82,1360.518z"/>
			<path fill="none" stroke="#FFFFFF" stroke-miterlimit="10" d="M1680.363,1725.191c0,134.293-108.535,242.956-243.021,242.956
				c-134.42,0-243.179-108.727-243.179-242.956c0-134.42,108.79-243.211,243.179-243.211
				C1571.54,1481.98,1680.363,1590.771,1680.363,1725.191z"/>
			<path fill="none" stroke="#FFFFFF" stroke-miterlimit="10" d="M2312.119,1846.686c0,134.293-108.92,243.085-243.053,243.085
				c-134.293,0-243.211-108.792-243.211-243.085c0-134.261,108.918-243.115,243.211-243.115
				C2203.199,1603.57,2312.119,1712.425,2312.119,1846.686z"/>
			<path fill="none" stroke="#FFFFFF" stroke-miterlimit="10" d="M2522.662,1725.191c0,134.293-108.537,243.084-242.988,243.084
				c-134.357,0-243.213-108.854-243.213-243.084c0-134.356,108.855-243.146,243.213-243.146
				C2413.838,1482.045,2522.662,1590.835,2522.662,1725.191z"/>
			<path fill="none" stroke="#FFFFFF" stroke-miterlimit="10" d="M2733.268,1360.454c0,134.324-108.855,243.052-243.02,243.052
				c-134.486,0-243.725-108.728-243.725-243.052c0-134.262,108.822-243.1,243.725-243.1
				C2624.412,1117.418,2733.268,1226.192,2733.268,1360.454z"/>
			<path fill="none" stroke="#FFFFFF" stroke-miterlimit="10" d="M2733.268,1117.482c0,134.244-108.855,243.035-243.02,243.035
				c-134.486,0-243.725-108.759-243.725-243.035c0-134.405,108.887-243.181,243.725-243.181
				C2624.412,874.302,2733.268,983.077,2733.268,1117.482z"/>
			<path fill="none" stroke="#FFFFFF" stroke-miterlimit="10" d="M2522.662,752.84c0,134.31-108.537,243.053-243.021,243.053
				c-134.324,0-243.18-108.743-243.18-243.053c0-134.341,108.855-243.115,243.18-243.115
				C2413.838,509.66,2522.662,618.436,2522.662,752.84z"/>
			<path fill="none" stroke="#FFFFFF" stroke-miterlimit="10" d="M2312.119,631.218c0,134.31-108.855,243.021-243.053,243.021
				c-134.26,0-243.148-108.68-243.148-243.021c0-134.34,108.888-243.115,243.148-243.115
				C2203.295,388.103,2312.119,496.909,2312.119,631.218z"/>
			<path fill="none" stroke="#FFFFFF" stroke-miterlimit="10" d="M1891.002,1846.686c0,134.356-108.887,243.085-243.052,243.085
				c-134.485,0-243.181-108.729-243.181-243.085c0-134.261,108.536-243.115,243.181-243.115
				C1782.115,1603.57,1891.002,1712.425,1891.002,1846.686z"/>
		</g>
		<g id="rotation_5_8_">
			<path fill="none" stroke="#FFFFFF" stroke-miterlimit="10" d="M2101.543,509.725c0,134.213-108.854,242.987-243.019,242.987
				c-134.484,0-243.243-108.791-243.243-242.987c0-134.405,108.534-243.18,243.243-243.18
				C1992.689,266.576,2101.543,375.319,2101.543,509.725z"/>
			<path fill="none" stroke="#FFFFFF" stroke-miterlimit="10" d="M1680.363,509.725c0,134.309-108.535,243.051-243.021,243.051
				c-134.42,0-243.179-108.742-243.179-243.051c0-134.341,108.79-243.116,243.179-243.116
				C1571.54,266.576,1680.363,375.384,1680.363,509.725z"/>
			<path fill="none" stroke="#FFFFFF" stroke-miterlimit="10" d="M1469.82,874.366c0,134.309-108.822,243.052-243.083,243.052
				s-243.18-108.743-243.18-243.052c0-134.341,108.854-243.116,243.18-243.116C1360.998,631.218,1469.82,740.025,1469.82,874.366z"
				/>
			<path fill="none" stroke="#FFFFFF" stroke-miterlimit="10" d="M1259.342,1238.943c0,134.373-108.919,243.037-243.052,243.037
				c-134.294,0-243.181-108.664-243.181-243.037c0-134.276,108.887-243.051,243.181-243.051
				C1150.391,995.86,1259.342,1104.667,1259.342,1238.943z"/>
			<path fill="none" stroke="#FFFFFF" stroke-miterlimit="10" d="M1469.82,1603.634c0,134.293-108.79,243.052-243.02,243.052
				c-134.324,0-243.18-108.759-243.18-243.052c0-134.324,108.855-243.116,243.18-243.116
				C1361.03,1360.454,1469.82,1469.31,1469.82,1603.634z"/>
			<path fill="none" stroke="#FFFFFF" stroke-miterlimit="10" d="M1680.363,1968.275c0,134.196-108.535,243.053-243.021,243.053
				c-134.42,0-243.179-108.856-243.179-243.053c0-134.389,108.79-243.18,243.179-243.18
				C1571.54,1725.096,1680.363,1833.822,1680.363,1968.275z"/>
			<path fill="none" stroke="#FFFFFF" stroke-miterlimit="10" d="M2101.543,1968.339c0,134.197-108.854,243.053-243.019,243.053
				c-134.484,0-243.243-108.855-243.243-243.053c0-134.389,108.534-243.147,243.243-243.147
				C1992.689,1725.191,2101.543,1833.95,2101.543,1968.339z"/>
			<path fill="none" stroke="#FFFFFF" stroke-miterlimit="10" d="M2522.789,1968.339c0,134.197-108.535,243.053-243.02,243.053
				c-134.389,0-243.309-108.855-243.309-243.053c0-134.389,108.92-243.147,243.309-243.147
				C2413.869,1725.191,2522.789,1833.95,2522.789,1968.339z"/>
			<path fill="none" stroke="#FFFFFF" stroke-miterlimit="10" d="M2733.332,1603.634c0,134.229-108.855,242.987-243.053,242.987
				c-134.484,0-243.148-108.727-243.148-242.987c0-134.324,108.535-243.116,243.148-243.116
				C2624.412,1360.454,2733.332,1469.31,2733.332,1603.634z"/>
			<path fill="none" stroke="#FFFFFF" stroke-miterlimit="10" d="M2943.842,1239.008c0,134.309-108.887,243.037-243.051,243.037
				c-134.486,0-243.18-108.729-243.18-243.037c0-134.341,108.535-243.115,243.18-243.115
				C2834.924,995.86,2943.842,1104.747,2943.842,1239.008z"/>
			<path fill="none" stroke="#FFFFFF" stroke-miterlimit="10" d="M2733.332,874.366c0,134.309-108.92,243.052-243.084,243.052
				c-134.486,0-243.725-108.743-243.725-243.052c0-134.341,108.855-243.116,243.725-243.116
				C2624.412,631.218,2733.332,740.025,2733.332,874.366z"/>
			<path fill="none" stroke="#FFFFFF" stroke-miterlimit="10" d="M2522.758,509.725c0,134.213-108.537,242.987-242.988,242.987
				c-134.422,0-243.309-108.791-243.309-242.987c0-134.405,108.855-243.18,243.309-243.18
				C2413.869,266.576,2522.758,375.319,2522.758,509.725z"/>
		</g>
		<g id="rotation_6_8_">
			<path fill="none" stroke="#FFFFFF" stroke-miterlimit="10" d="M1891.002,388.167c0,134.196-108.887,243.051-243.052,243.051
				c-134.485,0-243.116-108.854-243.116-243.051c0-134.342,108.535-243.116,243.116-243.116
				C1782.115,145.082,1891.002,253.825,1891.002,388.167z"/>
			<path fill="none" stroke="#FFFFFF" stroke-miterlimit="10" d="M1469.82,631.218c0,134.31-108.822,243.021-243.02,243.021
				c-134.324,0-243.243-108.68-243.243-243.021c0-134.34,108.919-243.115,243.243-243.115
				C1361.03,388.103,1469.82,496.909,1469.82,631.218z"/>
			<path fill="none" stroke="#FFFFFF" stroke-miterlimit="10" d="M1259.278,995.925c0,134.309-108.854,243.019-243.02,243.019
				c-134.325,0-243.212-108.742-243.212-243.019c0-134.342,108.887-243.181,243.212-243.181
				C1150.391,752.775,1259.278,861.551,1259.278,995.925z"/>
			<path fill="none" stroke="#FFFFFF" stroke-miterlimit="10" d="M1259.342,1482.108c0,134.261-108.919,243.083-243.052,243.083
				c-134.294,0-243.181-108.822-243.181-243.083c0-134.39,108.887-243.165,243.181-243.165
				C1150.391,1238.943,1259.342,1347.782,1259.342,1482.108z"/>
			<path fill="none" stroke="#FFFFFF" stroke-miterlimit="10" d="M1469.82,1846.686c0,134.293-108.759,243.085-243.02,243.085
				s-243.18-108.792-243.18-243.085c0-134.324,108.919-243.115,243.18-243.115C1361.03,1603.57,1469.82,1712.361,1469.82,1846.686z"
				/>
			<path fill="none" stroke="#FFFFFF" stroke-miterlimit="10" d="M1891.002,2089.834c0,134.261-108.887,243.052-243.052,243.052
				c-134.485,0-243.116-108.791-243.116-243.052c0-134.357,108.535-243.148,243.116-243.148
				C1782.115,1846.686,1891.002,1955.477,1891.002,2089.834z"/>
			<path fill="none" stroke="#FFFFFF" stroke-miterlimit="10" d="M2312.119,2089.834c0,134.261-108.855,243.052-243.021,243.052
				c-134.324,0-243.211-108.791-243.211-243.052c0-134.357,108.887-243.148,243.211-243.148
				C2203.295,1846.686,2312.119,1955.477,2312.119,2089.834z"/>
			<path fill="none" stroke="#FFFFFF" stroke-miterlimit="10" d="M2733.332,1846.686c0,134.293-108.92,243.085-243.084,243.085
				c-134.486,0-243.725-108.792-243.725-243.085c0-134.324,108.822-243.115,243.725-243.115
				C2624.477,1603.57,2733.332,1712.361,2733.332,1846.686z"/>
			<path fill="none" stroke="#FFFFFF" stroke-miterlimit="10" d="M2943.842,1482.045c0,134.324-108.887,243.051-243.02,243.051
				c-134.484,0-243.18-108.727-243.18-243.051c0-134.326,108.535-243.102,243.18-243.102
				C2834.924,1238.943,2943.842,1347.687,2943.842,1482.045z"/>
			<path fill="none" stroke="#FFFFFF" stroke-miterlimit="10" d="M2943.873,995.925c0,134.309-108.854,243.019-243.02,243.019
				c-134.26,0-243.18-108.742-243.18-243.019c0-134.342,108.92-243.181,243.18-243.181
				C2834.924,752.775,2943.873,861.551,2943.873,995.925z"/>
			<path fill="none" stroke="#FFFFFF" stroke-miterlimit="10" d="M2733.332,631.282c0,134.309-108.855,243.02-243.02,243.02
				c-134.486,0-243.182-108.679-243.182-243.02s108.535-243.18,243.182-243.18C2624.477,388.103,2733.332,496.974,2733.332,631.282z
				"/>
			<path fill="none" stroke="#FFFFFF" stroke-miterlimit="10" d="M2312.119,388.167c0,134.196-108.76,243.051-243.021,243.051
				c-134.291,0-243.179-108.854-243.179-243.051c0-134.342,108.888-243.116,243.179-243.116
				C2203.359,145.082,2312.119,253.825,2312.119,388.167z"/>
			<path fill="none" stroke="#FFFFFF" stroke-miterlimit="10" d="M2101.213,266.641c0,134.196-108.758,243.051-243.021,243.051
				c-134.292,0-243.18-108.854-243.18-243.051c0-134.342,108.888-243.116,243.18-243.116
				C1992.455,23.556,2101.213,132.299,2101.213,266.641z"/>
			<path fill="none" stroke="#FFFFFF" stroke-miterlimit="10" d="M1259.358,752.776c0,134.196-108.758,243.051-243.02,243.051
				c-134.292,0-243.18-108.854-243.18-243.051c0-134.342,108.888-243.116,243.18-243.116
				C1150.6,509.691,1259.358,618.435,1259.358,752.776z"/>
			<path fill="none" stroke="#FFFFFF" stroke-miterlimit="10" d="M1259.39,1725.224c0,134.197-108.758,243.051-243.02,243.051
				c-134.292,0-243.18-108.854-243.18-243.051c0-134.342,108.888-243.115,243.18-243.115
				C1150.632,1482.14,1259.39,1590.882,1259.39,1725.224z"/>
			<path fill="none" stroke="#FFFFFF" stroke-miterlimit="10" d="M2943.922,1725.128c0,134.197-108.758,243.051-243.02,243.051
				c-134.293,0-243.18-108.854-243.18-243.051c0-134.342,108.887-243.115,243.18-243.115
				C2835.164,1482.044,2943.922,1590.786,2943.922,1725.128z"/>
			<path fill="none" stroke="#FFFFFF" stroke-miterlimit="10" d="M2943.953,752.776c0,134.197-108.758,243.051-243.02,243.051
				c-134.293,0-243.18-108.854-243.18-243.051c0-134.342,108.887-243.115,243.18-243.115
				C2835.195,509.692,2943.953,618.435,2943.953,752.776z"/>
			<path fill="none" stroke="#FFFFFF" stroke-miterlimit="10" d="M2101.512,2211.425c0,134.196-108.758,243.051-243.019,243.051
				c-134.292,0-243.18-108.854-243.18-243.051c0-134.342,108.888-243.116,243.18-243.116
				C1992.754,1968.34,2101.512,2077.083,2101.512,2211.425z"/>
		</g>
	</g>
	<g id="UnsealedFOL">
		<g id="A_SVGStep1">
			<path d="M1859.029,1968.952c-98.531,0-194.116-19.298-284.1-57.357
				c-86.913-36.762-164.968-89.388-231.998-156.417c-67.03-67.03-119.656-145.085-156.417-231.998
				c-38.06-89.983-57.358-185.568-57.358-284.1c0-98.532,19.298-194.116,57.358-284.1c36.761-86.913,89.388-164.968,156.417-231.999
				c67.03-67.03,145.085-119.656,231.998-156.417c89.983-38.06,185.568-57.358,284.1-57.358c98.526,0,194.107,19.298,284.088,57.358
				c86.91,36.761,164.963,89.388,231.991,156.417c67.029,67.03,119.654,145.086,156.415,231.999
				c38.06,89.984,57.357,185.569,57.357,284.1s-19.298,194.116-57.357,284.1c-36.761,86.912-89.386,164.968-156.415,231.998
				c-67.028,67.029-145.081,119.655-231.991,156.417C2053.137,1949.654,1957.556,1968.952,1859.029,1968.952z M1859.029,512.206
				c-400.799,0-726.873,326.074-726.873,726.874c0,400.799,326.074,726.872,726.873,726.872
				c400.787,0,726.852-326.073,726.852-726.872C2585.881,838.28,2259.816,512.206,1859.029,512.206z"/>
			<g enable-background="new    ">
				<path d="M1909.319,1273.1h-3.562l-2.464-7.005h-10.869l-2.465,7.005h-3.393l9.148-25.132h4.456L1909.319,1273.1z
					 M1902.265,1263.226l-4.405-12.338l-4.422,12.338H1902.265z"/>
			</g>
			<g>
				<g enable-background="new    ">
					<path d="M1908.729,545.185h-3.342v-12.304h-12.54v12.304h-3.342v-25.132h3.342v9.857h12.54v-9.857h3.342
						V545.185z"/>
				</g>
				<g enable-background="new    ">
					<path d="M1922.772,556.697h-7.932v-1.496h3.051v-9.82h-3.051v-1.338c0.413,0,0.856-0.034,1.328-0.103
						c0.473-0.069,0.83-0.169,1.073-0.3c0.302-0.164,0.539-0.372,0.713-0.625c0.174-0.252,0.274-0.592,0.301-1.019h1.524v13.206
						h2.992V556.697z"/>
				</g>
			</g>
		</g>
		<g id="A_SVGStep2">
			<path d="M1858.492,997.369c-65.335,0-126.762-25.425-172.965-71.591c-46.214-46.178-71.666-107.589-71.666-172.92
				c0-65.356,25.446-126.79,71.651-172.984c46.2-46.188,107.632-71.626,172.98-71.626c65.277,0,126.655,25.438,172.828,71.626
				c46.185,46.201,71.62,107.635,71.62,172.984c0,65.316-25.433,126.722-71.613,172.905
				C1985.153,971.939,1923.773,997.369,1858.492,997.369z M1858.492,511.248c-133.236,0-241.631,108.386-241.631,241.61
				c0,133.169,108.396,241.511,241.631,241.511c133.135,0,241.448-108.341,241.448-241.511
				C2099.939,619.634,1991.627,511.248,1858.492,511.248z"/>
			<path d="M1437.47,1240.46c-65.355,0-126.793-25.431-172.998-71.608c-46.207-46.18-71.654-107.592-71.654-172.922
				c0-65.362,25.442-126.795,71.64-172.984c46.197-46.189,107.64-71.626,173.012-71.626c65.263,0,126.636,25.437,172.815,71.626
				c46.196,46.206,71.637,107.639,71.637,172.984C1681.922,1130.764,1572.262,1240.46,1437.47,1240.46z M1437.47,754.319
				c-133.247,0-241.651,108.386-241.651,241.61c0,133.18,108.404,241.53,241.651,241.53c133.137,0,241.452-108.35,241.452-241.53
				C1678.922,862.705,1570.607,754.319,1437.47,754.319z"/>
			<path d="M1437.51,1726.544c-65.369,0-126.813-25.431-173.012-71.607c-46.197-46.174-71.639-107.58-71.639-172.906
				c0-65.373,25.437-126.81,71.624-172.991c46.189-46.184,107.638-71.618,173.026-71.618c65.26,0.019,126.625,25.459,172.789,71.633
				c46.188,46.197,71.624,107.628,71.624,172.977C1681.922,1616.855,1572.279,1726.544,1437.51,1726.544z M1437.509,1240.421
				c-133.246,0-241.65,108.386-241.65,241.609c0,133.171,108.404,241.514,241.65,241.514c133.115,0,241.413-108.343,241.413-241.514
				C1678.922,1348.846,1570.625,1240.46,1437.509,1240.421z"/>
			<path d="M1858.492,1969.571c-65.334,0-126.761-25.424-172.965-71.588c-46.215-46.175-71.667-107.579-71.667-172.9
				c0-65.363,25.446-126.797,71.652-172.983c46.195-46.178,107.627-71.608,172.979-71.608c65.277,0,126.659,25.437,172.837,71.623
				c46.191,46.2,71.63,107.628,71.63,172.969c0,65.319-25.437,126.724-71.623,172.9
				C1985.161,1944.147,1923.777,1969.571,1858.492,1969.571z M1858.492,1483.491c-133.236,0-241.631,108.378-241.631,241.592
				c0,133.157,108.396,241.488,241.631,241.488c133.146,0,241.467-108.331,241.467-241.488
				C2099.959,1591.869,1991.638,1483.491,1858.492,1483.491z"/>
			<path d="M2279.609,1726.544c-65.336,0-126.762-25.431-172.961-71.607c-46.204-46.181-71.65-107.587-71.65-172.906
				c0-65.367,25.439-126.804,71.633-172.991c46.189-46.184,107.621-71.618,172.979-71.618
				c65.292,0.019,126.673,25.459,172.837,71.633c46.181,46.191,71.614,107.622,71.614,172.977
				c0,65.304-25.43,126.704-71.605,172.892C2406.28,1701.108,2344.896,1726.544,2279.609,1726.544z M2279.609,1240.421
				c-133.225,0-241.611,108.386-241.611,241.609c0,133.171,108.387,241.514,241.611,241.514
				c133.137,0,241.451-108.343,241.451-241.514C2521.061,1348.846,2412.746,1240.46,2279.609,1240.421z"/>
			<path d="M2279.629,1240.46c-65.339,0-126.768-25.431-172.972-71.608c-46.21-46.184-71.659-107.595-71.659-172.922
				c0-65.358,25.444-126.792,71.645-172.984c46.197-46.189,107.632-71.626,172.986-71.626c65.275,0,126.647,25.438,172.811,71.626
				c46.173,46.199,71.602,107.633,71.602,172.984c0,65.321-25.423,126.73-71.586,172.914
				C2406.294,1215.026,2344.916,1240.46,2279.629,1240.46z M2279.629,754.319c-133.235,0-241.631,108.386-241.631,241.61
				c0,133.18,108.396,241.53,241.631,241.53c133.115,0,241.412-108.35,241.412-241.53
				C2521.041,862.705,2412.744,754.319,2279.629,754.319z"/>
			<path d="M1647.971,1118.925c-65.353,0-126.784-25.431-172.978-71.608
				c-46.194-46.178-71.634-107.59-71.634-172.923c0-65.361,25.438-126.794,71.626-172.983
				c46.189-46.188,107.623-71.626,172.985-71.626c65.267,0,126.644,25.435,172.824,71.618c46.2,46.204,71.645,107.64,71.645,172.991
				C1892.439,1009.229,1782.771,1118.925,1647.971,1118.925z M1647.971,632.784c-133.225,0-241.612,108.386-241.612,241.609
				c0,133.181,108.387,241.531,241.612,241.531c133.146,0,241.469-108.351,241.469-241.531
				C1889.439,741.17,1781.117,632.784,1647.971,632.784z"/>
			<path d="M1437.47,1483.511c-65.354,0-126.793-25.43-172.997-71.605c-46.207-46.178-71.654-107.583-71.654-172.905
				c0-65.363,25.442-126.8,71.64-172.995c46.198-46.195,107.642-71.636,173.012-71.636c65.264,0,126.638,25.438,172.815,71.628
				c46.196,46.208,71.637,107.648,71.637,173.002C1681.922,1373.823,1572.262,1483.511,1437.47,1483.511z M1437.47,997.369
				c-133.247,0-241.651,108.395-241.651,241.631c0,133.17,108.404,241.511,241.651,241.511
				c133.137,0,241.452-108.341,241.452-241.511C1678.922,1105.764,1570.607,997.369,1437.47,997.369z"/>
			<path d="M1647.971,1848.097c-65.353,0-126.784-25.427-172.977-71.596
				c-46.194-46.17-71.635-107.572-71.635-172.895c0-65.37,25.438-126.811,71.626-173.001
				c46.188-46.19,107.622-71.628,172.985-71.628c65.305,0,126.673,25.434,172.842,71.616
				c46.189,46.204,71.627,107.647,71.627,173.013C1892.439,1738.419,1782.771,1848.097,1647.971,1848.097z M1648.014,1361.978
				c-133.269,0-241.655,108.395-241.655,241.629c0,133.158,108.387,241.49,241.612,241.49c133.146,0,241.469-108.332,241.469-241.49
				C1889.439,1470.372,1781.137,1361.978,1648.014,1361.978z"/>
			<path d="M2069.029,1848.097c-65.348,0-126.783-25.427-172.988-71.596c-46.21-46.174-71.66-107.576-71.66-172.895
				c0-65.366,25.447-126.806,71.652-173.001c46.2-46.19,107.638-71.628,172.996-71.628c65.313,0,126.684,25.434,172.851,71.616
				c46.185,46.201,71.62,107.646,71.62,173.013C2313.5,1738.419,2203.831,1848.097,2069.029,1848.097z M2069.072,1361.978
				c-133.288,0-241.691,108.395-241.691,241.629c0,133.158,108.403,241.49,241.648,241.49c133.147,0,241.471-108.332,241.471-241.49
				C2310.5,1470.372,2202.196,1361.978,2069.072,1361.978z"/>
			<path d="M2279.629,1483.511c-65.338,0-126.768-25.43-172.972-71.605c-46.21-46.181-71.659-107.587-71.659-172.905
				c0-65.359,25.444-126.796,71.645-172.995c46.199-46.195,107.633-71.636,172.986-71.636c65.276,0,126.648,25.438,172.811,71.629
				c46.173,46.201,71.602,107.641,71.602,173.002c0,65.313-25.423,126.717-71.586,172.897
				C2406.293,1458.078,2344.915,1483.511,2279.629,1483.511z M2279.629,997.369c-133.235,0-241.631,108.395-241.631,241.631
				c0,133.17,108.396,241.511,241.631,241.511c133.115,0,241.412-108.341,241.412-241.511
				C2521.041,1105.764,2412.744,997.369,2279.629,997.369z"/>
			<path d="M2069.049,1118.925c-65.344,0-126.771-25.431-172.968-71.608
				c-46.198-46.181-71.641-107.592-71.641-172.923c0-65.359,25.439-126.792,71.632-172.983
				c46.191-46.188,107.622-71.626,172.977-71.626c65.266,0,126.64,25.435,172.815,71.618
				c46.195,46.203,71.636,107.639,71.636,172.991C2313.5,1009.229,2203.84,1118.925,2069.049,1118.925z M2069.049,632.784
				c-133.224,0-241.609,108.386-241.609,241.609c0,133.181,108.385,241.531,241.609,241.531
				c133.137,0,241.451-108.351,241.451-241.531C2310.5,741.17,2202.186,632.784,2069.049,632.784z"/>
			<path d="M1858.492,1483.511c-65.331,0-126.758-25.43-172.965-71.605
				c-46.214-46.183-71.666-107.589-71.666-172.905c0-65.357,25.446-126.794,71.651-172.995
				c46.201-46.195,107.633-71.636,172.98-71.636c65.278,0,126.656,25.438,172.828,71.628c46.185,46.204,71.62,107.644,71.62,173.002
				c0,65.309-25.433,126.712-71.613,172.897C1985.151,1458.078,1923.771,1483.511,1858.492,1483.511z M1858.492,997.369
				c-133.236,0-241.631,108.395-241.631,241.631c0,133.17,108.396,241.511,241.631,241.511
				c133.135,0,241.448-108.341,241.448-241.511C2099.939,1105.764,1991.627,997.369,1858.492,997.369z"/>
			<path d="M1858.492,1726.544c-65.331,0-126.758-25.431-172.965-71.607
				c-46.214-46.184-71.666-107.59-71.666-172.906c0-65.363,25.446-126.8,71.651-172.991c46.197-46.184,107.629-71.618,172.98-71.618
				c65.284,0.019,126.662,25.459,172.828,71.633c46.185,46.193,71.62,107.624,71.62,172.977
				C2102.939,1616.855,1993.28,1726.544,1858.492,1726.544z M1858.491,1240.421c-133.235,0-241.631,108.386-241.631,241.609
				c0,133.171,108.396,241.514,241.631,241.514c133.135,0,241.448-108.343,241.448-241.514
				C2099.939,1348.846,1991.626,1240.46,1858.491,1240.421z"/>
			<path d="M2069.029,1605.026c-65.344,0-126.771-25.434-172.969-71.616c-46.198-46.183-71.64-107.591-71.64-172.913
				c0-65.359,25.439-126.79,71.632-172.976c46.189-46.183,107.621-71.617,172.977-71.617c134.802,0,244.471,109.724,244.471,244.593
				C2313.5,1495.331,2203.831,1605.026,2069.029,1605.026z M2069.029,1118.904c-133.224,0-241.609,108.378-241.609,241.593
				c0,133.18,108.385,241.529,241.609,241.529c133.147,0,241.471-108.35,241.471-241.529
				C2310.5,1227.282,2202.177,1118.904,2069.029,1118.904z"/>
			<path d="M2069.049,1361.954c-65.346,0-126.772-25.428-172.968-71.598
				c-46.198-46.175-71.641-107.583-71.641-172.911c0-65.366,25.439-126.799,71.632-172.982
				c46.188-46.177,107.618-71.608,172.977-71.608c65.267,0,126.641,25.431,172.815,71.609
				c46.195,46.198,71.636,107.63,71.636,172.982c0,65.318-25.438,126.726-71.628,172.911
				C2195.695,1336.526,2134.319,1361.954,2069.049,1361.954z M2069.049,875.854c-133.224,0-241.609,108.377-241.609,241.591
				c0,133.168,108.385,241.509,241.609,241.509c133.137,0,241.451-108.341,241.451-241.509
				C2310.5,984.231,2202.186,875.854,2069.049,875.854z"/>
			<path d="M1858.492,1240.46c-65.332,0-126.759-25.431-172.965-71.608
				c-46.214-46.186-71.666-107.597-71.666-172.922c0-65.356,25.446-126.79,71.651-172.984
				c46.199-46.189,107.631-71.626,172.98-71.626c65.277,0,126.655,25.438,172.828,71.626c46.185,46.201,71.62,107.635,71.62,172.984
				c0,65.316-25.433,126.725-71.613,172.914C1985.152,1215.026,1923.771,1240.46,1858.492,1240.46z M1858.492,754.319
				c-133.236,0-241.631,108.386-241.631,241.61c0,133.18,108.396,241.53,241.631,241.53c133.135,0,241.448-108.35,241.448-241.53
				C2099.939,862.705,1991.627,754.319,1858.492,754.319z"/>
			<path d="M1647.971,1361.954c-65.354,0-126.785-25.428-172.977-71.598
				c-46.194-46.173-71.635-107.581-71.635-172.911c0-65.368,25.438-126.801,71.626-172.982
				c46.186-46.178,107.62-71.609,172.985-71.609c65.268,0,126.645,25.431,172.824,71.609
				c46.201,46.199,71.645,107.632,71.645,172.982c0,65.319-25.438,126.727-71.63,172.911
				C1774.63,1336.526,1713.249,1361.954,1647.971,1361.954z M1647.971,875.854c-133.225,0-241.612,108.377-241.612,241.591
				c0,133.168,108.387,241.509,241.612,241.509c133.146,0,241.469-108.341,241.469-241.509
				C1889.439,984.231,1781.117,875.854,1647.971,875.854z"/>
			<path d="M1647.971,1605.026c-65.35,0-126.782-25.434-172.978-71.616
				c-46.194-46.181-71.634-107.589-71.634-172.913c0-65.361,25.438-126.792,71.626-172.976
				c46.188-46.183,107.622-71.617,172.985-71.617c134.8,0,244.469,109.724,244.469,244.593
				C1892.439,1495.331,1782.771,1605.026,1647.971,1605.026z M1647.971,1118.904c-133.225,0-241.612,108.378-241.612,241.593
				c0,133.18,108.387,241.529,241.612,241.529c133.146,0,241.469-108.35,241.469-241.529
				C1889.439,1227.282,1781.117,1118.904,1647.971,1118.904z"/>
			<g enable-background="new    ">
				<path d="M1909.319,1273.1h-3.562l-2.464-7.005h-10.869l-2.465,7.005h-3.393l9.148-25.132h4.456L1909.319,1273.1z
					 M1902.265,1263.226l-4.405-12.338l-4.422,12.338H1902.265z"/>
			</g>
			<g enable-background="new    ">
				<path d="M1907.446,1022.782c0,1.249-0.236,2.352-0.709,3.308s-1.108,1.744-1.907,2.363
					c-0.945,0.743-1.983,1.271-3.114,1.586c-1.131,0.315-2.568,0.473-4.313,0.473h-8.911v-25.132h7.443
					c1.834,0,3.206,0.068,4.118,0.203c0.911,0.135,1.783,0.417,2.616,0.844c0.922,0.484,1.592,1.105,2.008,1.865
					c0.416,0.76,0.625,1.668,0.625,2.726c0,1.193-0.304,2.208-0.912,3.046c-0.607,0.838-1.417,1.511-2.43,2.017v0.135
					c1.698,0.349,3.038,1.095,4.017,2.236C1906.957,1019.594,1907.446,1021.038,1907.446,1022.782z M1901.825,1011.456
					c0-0.607-0.101-1.119-0.304-1.536c-0.202-0.416-0.528-0.754-0.979-1.013c-0.529-0.304-1.171-0.492-1.924-0.565
					c-0.754-0.073-1.688-0.11-2.802-0.11h-3.983v7.258h4.32c1.047,0,1.879-0.053,2.498-0.161c0.619-0.106,1.192-0.329,1.722-0.667
					s0.903-0.773,1.122-1.308C1901.716,1012.821,1901.825,1012.188,1901.825,1011.456z M1903.969,1022.917
					c0-1.013-0.151-1.817-0.455-2.414c-0.304-0.596-0.855-1.103-1.654-1.519c-0.54-0.281-1.195-0.464-1.966-0.548
					c-0.771-0.084-1.708-0.127-2.811-0.127h-5.249v9.351h4.422c1.463,0,2.661-0.076,3.595-0.228
					c0.935-0.152,1.699-0.431,2.296-0.835c0.63-0.439,1.091-0.939,1.384-1.502
					C1903.823,1024.531,1903.969,1023.806,1903.969,1022.917z"/>
			</g>
			<g enable-background="new    ">
				<path d="M1696.565,1151.239c-0.619,0.27-1.179,0.523-1.68,0.759c-0.5,0.236-1.156,0.484-1.966,0.743
					c-0.686,0.214-1.432,0.397-2.236,0.549c-0.804,0.152-1.69,0.228-2.658,0.228c-1.823,0-3.479-0.256-4.971-0.768
					c-1.491-0.512-2.788-1.314-3.89-2.405c-1.081-1.069-1.924-2.428-2.532-4.076c-0.608-1.648-0.912-3.564-0.912-5.747
					c0-2.07,0.292-3.921,0.878-5.553c0.585-1.631,1.429-3.01,2.532-4.135c1.069-1.091,2.36-1.924,3.874-2.498
					c1.513-0.574,3.192-0.861,5.038-0.861c1.35,0,2.697,0.163,4.042,0.49c1.345,0.326,2.838,0.9,4.481,1.721v3.966h-0.253
					c-1.384-1.159-2.757-2.002-4.118-2.531s-2.819-0.793-4.372-0.793c-1.271,0-2.417,0.206-3.435,0.616
					c-1.019,0.411-1.927,1.049-2.726,1.916c-0.776,0.844-1.381,1.91-1.814,3.198c-0.434,1.289-0.65,2.776-0.65,4.464
					c0,1.767,0.239,3.286,0.717,4.557c0.478,1.271,1.094,2.307,1.848,3.105c0.788,0.833,1.708,1.449,2.76,1.848
					c1.052,0.4,2.163,0.599,3.333,0.599c1.609,0,3.117-0.275,4.523-0.827s2.723-1.378,3.95-2.481h0.236V1151.239z"/>
			</g>
			<g enable-background="new    ">
				<path d="M1700.414,1382.954c0,2.284-0.498,4.354-1.494,6.211c-0.996,1.856-2.321,3.297-3.975,4.32
					c-1.147,0.709-2.428,1.222-3.839,1.536c-1.413,0.315-3.272,0.473-5.579,0.473h-6.346v-25.132h6.279
					c2.453,0,4.402,0.178,5.848,0.532s2.669,0.841,3.671,1.46c1.71,1.068,3.043,2.492,4,4.27
					C1699.936,1378.402,1700.414,1380.512,1700.414,1382.954z M1696.92,1382.903c0-1.97-0.343-3.629-1.03-4.979
					s-1.71-2.413-3.072-3.189c-0.99-0.563-2.042-0.954-3.156-1.174c-1.114-0.219-2.447-0.329-4-0.329h-3.14v19.394h3.14
					c1.609,0,3.013-0.118,4.211-0.354s2.298-0.675,3.3-1.316c1.249-0.799,2.186-1.851,2.81-3.156S1696.92,1384.861,1696.92,1382.903
					z"/>
			</g>
			<g enable-background="new    ">
				<path d="M1906.063,1517.344h-16.558v-25.132h16.558v2.971h-13.216v6.887h13.216v2.97h-13.216v9.334h13.216
					V1517.344z"/>
			</g>
			<g enable-background="new    ">
				<path d="M2111.987,1371.308h-12.709v7.089h10.92v2.971h-10.92v12.102h-3.342v-25.132h16.051V1371.308z"/>
			</g>
			<g enable-background="new    ">
				<path d="M2118.013,1151.205c-1.372,0.63-2.872,1.179-4.498,1.646s-3.198,0.7-4.717,0.7
					c-1.958,0-3.753-0.27-5.385-0.81c-1.631-0.54-3.021-1.35-4.169-2.43c-1.158-1.091-2.053-2.456-2.684-4.093
					c-0.63-1.637-0.944-3.553-0.944-5.747c0-4.017,1.173-7.187,3.519-9.511c2.347-2.323,5.567-3.485,9.663-3.485
					c1.429,0,2.889,0.172,4.38,0.515c1.49,0.344,3.097,0.926,4.818,1.747v3.966h-0.304c-0.349-0.27-0.855-0.625-1.519-1.063
					c-0.664-0.438-1.316-0.804-1.958-1.097c-0.776-0.349-1.657-0.639-2.642-0.87c-0.984-0.23-2.102-0.346-3.351-0.346
					c-2.813,0-5.038,0.903-6.675,2.709c-1.638,1.806-2.456,4.25-2.456,7.333c0,3.252,0.854,5.781,2.565,7.587
					c1.71,1.806,4.039,2.709,6.987,2.709c1.08,0,2.158-0.107,3.232-0.321s2.017-0.49,2.827-0.827v-6.161h-6.734v-2.937h10.042
					V1151.205z"/>
			</g>
			<g enable-background="new    ">
				<path d="M1694.354,908.476h-3.342v-12.304h-12.541v12.304h-3.342v-25.132h3.342v9.857h12.541v-9.857h3.342
					V908.476z"/>
			</g>
			<g enable-background="new    ">
				<path d="M1476.72,1273.1h-9.924v-2.565h3.291v-20.001h-3.291v-2.565h9.924v2.565h-3.292v20.001h3.292V1273.1z"/>
			</g>
			<g enable-background="new    ">
				<path d="M1693.022,1634.474c0,2.206-0.673,3.905-2.017,5.098c-1.345,1.192-3.148,1.789-5.41,1.789
					c-0.54,0-1.26-0.048-2.16-0.144c-0.9-0.096-1.654-0.211-2.262-0.346v-3.123h0.186c0.461,0.158,1.03,0.321,1.705,0.49
					c0.675,0.168,1.367,0.253,2.076,0.253c1.035,0,1.859-0.118,2.473-0.354s1.066-0.574,1.359-1.013
					c0.304-0.45,0.498-1.002,0.582-1.654s0.126-1.406,0.126-2.262v-14.667h-5.316v-2.667h8.659V1634.474z"/>
			</g>
			<g enable-background="new    ">
				<path d="M2119.28,1638.473h-4.338l-9.941-11.19l-2.498,2.667v8.523h-3.342v-25.132h3.342v13.114l12.203-13.114
					h4.051l-11.224,11.815L2119.28,1638.473z"/>
			</g>
			<g enable-background="new    ">
				<path d="M2326.253,1272.087h-15.898v-25.132h3.342v22.161h12.557V1272.087z"/>
			</g>
			<g enable-background="new    ">
				<path d="M2123.482,911.722h-3.342v-21.655l-6.987,14.735h-1.992l-6.937-14.735v21.655h-3.122V886.59h4.557
					l6.701,13.992l6.48-13.992h4.642V911.722z"/>
			</g>
			<g enable-background="new    ">
				<path d="M1907.665,787.943h-4.135l-11.916-22.482v22.482h-3.122v-25.132h5.182l10.869,20.524v-20.524h3.122
					V787.943z"/>
			</g>
			<g enable-background="new    ">
				<path d="M1483.555,1008.266c1.024,1.125,1.809,2.504,2.354,4.135c0.546,1.632,0.819,3.483,0.819,5.553
					c0,2.071-0.279,3.924-0.835,5.562c-0.557,1.637-1.336,3.002-2.338,4.093c-1.035,1.136-2.259,1.991-3.671,2.565
					c-1.412,0.574-3.024,0.861-4.835,0.861c-1.767,0-3.373-0.293-4.819-0.878s-2.675-1.435-3.688-2.548
					c-1.013-1.114-1.792-2.481-2.337-4.102c-0.546-1.621-0.819-3.471-0.819-5.553c0-2.047,0.27-3.884,0.81-5.51
					s1.328-3.019,2.363-4.178c0.99-1.103,2.219-1.946,3.688-2.532c1.469-0.585,3.069-0.877,4.802-0.877
					c1.8,0,3.417,0.295,4.853,0.886C1481.336,1006.333,1482.554,1007.175,1483.555,1008.266z M1483.251,1017.954
					c0-3.263-0.731-5.781-2.194-7.553c-1.463-1.772-3.46-2.658-5.992-2.658c-2.554,0-4.56,0.886-6.017,2.658
					c-1.457,1.772-2.186,4.29-2.186,7.553c0,3.297,0.743,5.821,2.228,7.57c1.485,1.75,3.477,2.625,5.975,2.625
					s4.487-0.875,5.966-2.625S1483.251,1021.251,1483.251,1017.954z"/>
			</g>
			<g enable-background="new    ">
				<path d="M1484.298,1499.808c0,1.113-0.194,2.146-0.582,3.097c-0.388,0.951-0.932,1.775-1.629,2.473
					c-0.867,0.867-1.891,1.517-3.072,1.949c-1.182,0.434-2.673,0.65-4.473,0.65h-3.342v9.367h-3.342v-25.132h6.819
					c1.508,0,2.785,0.127,3.832,0.38s1.975,0.649,2.785,1.19c0.957,0.641,1.696,1.44,2.22,2.396
					C1484.037,1497.135,1484.298,1498.345,1484.298,1499.808z M1480.821,1499.892c0-0.866-0.152-1.62-0.456-2.262
					s-0.765-1.164-1.384-1.569c-0.54-0.349-1.156-0.6-1.848-0.751c-0.692-0.152-1.567-0.229-2.625-0.229h-3.309v10.043h2.819
					c1.35,0,2.447-0.121,3.292-0.363c0.844-0.241,1.53-0.627,2.059-1.156c0.529-0.54,0.903-1.107,1.122-1.704
					C1480.712,1501.304,1480.821,1500.635,1480.821,1499.892z"/>
			</g>
			<g enable-background="new    ">
				<path d="M1909.893,1767.275c-0.675,0.169-1.342,0.29-2,0.363s-1.331,0.109-2.018,0.109
					c-1.957,0-3.53-0.537-4.717-1.611c-1.188-1.075-1.831-2.613-1.933-4.616c-0.271,0.045-0.532,0.076-0.785,0.093
					s-0.498,0.025-0.734,0.025c-1.767,0-3.373-0.293-4.818-0.878c-1.446-0.585-2.675-1.435-3.688-2.549
					c-1.013-1.113-1.792-2.48-2.338-4.102c-0.546-1.62-0.818-3.471-0.818-5.553c0-2.048,0.27-3.885,0.81-5.511
					s1.328-3.018,2.363-4.177c0.99-1.103,2.22-1.947,3.688-2.532c1.469-0.585,3.069-0.878,4.802-0.878
					c1.801,0,3.418,0.296,4.853,0.887s2.652,1.432,3.654,2.523c1.023,1.125,1.809,2.504,2.354,4.135
					c0.546,1.632,0.818,3.482,0.818,5.553c0,3.072-0.627,5.66-1.882,7.765c-1.255,2.104-2.939,3.578-5.055,4.422
					c0.045,1.282,0.349,2.278,0.911,2.987s1.587,1.063,3.072,1.063c0.461,0,1.01-0.07,1.646-0.211s1.089-0.268,1.358-0.38h0.456
					V1767.275z M1905.909,1748.558c0-3.263-0.731-5.78-2.194-7.553s-3.46-2.658-5.991-2.658c-2.555,0-4.561,0.886-6.018,2.658
					s-2.186,4.29-2.186,7.553c0,3.297,0.742,5.82,2.228,7.57s3.478,2.624,5.976,2.624s4.486-0.874,5.966-2.624
					S1905.909,1751.854,1905.909,1748.558z"/>
			</g>
			<g enable-background="new    ">
				<path d="M2323.729,1513.292h-4.338l-8.405-9.992h-4.709v9.992h-3.342v-25.132h7.038
					c1.519,0,2.785,0.099,3.798,0.296c1.013,0.196,1.924,0.548,2.733,1.055c0.912,0.574,1.623,1.297,2.136,2.169
					c0.512,0.872,0.768,1.978,0.768,3.316c0,1.812-0.456,3.328-1.367,4.549s-2.166,2.141-3.764,2.76L2323.729,1513.292z
					 M2315.913,1495.232c0-0.72-0.126-1.358-0.379-1.916c-0.254-0.557-0.673-1.026-1.258-1.409
					c-0.484-0.326-1.058-0.554-1.722-0.684c-0.664-0.129-1.446-0.194-2.346-0.194h-3.933v9.486h3.375
					c1.058,0,1.98-0.093,2.769-0.279c0.787-0.186,1.457-0.531,2.009-1.038c0.506-0.472,0.88-1.015,1.122-1.628
					S2315.913,1496.178,2315.913,1495.232z"/>
			</g>
			<g enable-background="new    ">
				<path d="M2328.616,1023.338c0,0.979-0.228,1.947-0.684,2.903c-0.455,0.957-1.095,1.767-1.915,2.43
					c-0.9,0.72-1.95,1.283-3.148,1.688c-1.198,0.405-2.642,0.607-4.329,0.607c-1.812,0-3.44-0.168-4.886-0.506
					c-1.446-0.337-2.918-0.838-4.414-1.502v-4.186h0.236c1.271,1.058,2.739,1.874,4.405,2.448c1.665,0.574,3.229,0.86,4.692,0.86
					c2.07,0,3.682-0.388,4.835-1.165s1.73-1.812,1.73-3.105c0-1.114-0.273-1.935-0.818-2.464c-0.546-0.529-1.376-0.939-2.49-1.232
					c-0.844-0.225-1.758-0.411-2.742-0.557c-0.985-0.146-2.028-0.332-3.131-0.557c-2.229-0.473-3.88-1.28-4.954-2.422
					c-1.074-1.142-1.611-2.63-1.611-4.464c0-2.104,0.889-3.828,2.666-5.173c1.778-1.345,4.034-2.017,6.769-2.017
					c1.767,0,3.387,0.169,4.86,0.506c1.475,0.337,2.779,0.754,3.916,1.249v3.95h-0.236c-0.956-0.811-2.214-1.482-3.772-2.017
					c-1.559-0.534-3.153-0.802-4.784-0.802c-1.789,0-3.228,0.371-4.313,1.114c-1.086,0.743-1.629,1.699-1.629,2.87
					c0,1.046,0.27,1.868,0.81,2.464c0.541,0.597,1.491,1.052,2.853,1.367c0.721,0.158,1.744,0.349,3.072,0.574
					c1.327,0.225,2.453,0.456,3.376,0.692c1.867,0.495,3.273,1.243,4.219,2.245S2328.616,1021.538,2328.616,1023.338z"/>
			</g>
		</g>
		<g id="A_SVGStep3">
			<path d="M1647.971,875.854c-43.701,0-86.591-11.655-124.034-33.704c-36.346-21.403-66.729-52-87.865-88.48
				l2.596-1.504c43.13,74.443,123.33,120.688,209.303,120.688c133.136,0,241.449-108.351,241.449-241.532
				c0-42.477-11.151-84.223-32.248-120.725l2.598-1.501c21.36,36.958,32.65,79.223,32.65,122.226
				C1892.42,766.158,1782.76,875.854,1647.971,875.854z"/>
		</g>
		<g id="A_SVGStep4">
			<path d="M1437.43,997.39c-43.72,0-86.618-11.656-124.056-33.707c-36.34-21.404-66.716-52.006-87.842-88.498
				l2.597-1.503c43.105,74.455,123.305,120.708,209.302,120.708c133.114,0,241.411-108.342,241.411-241.512
				c0-42.47-11.145-84.23-32.229-120.765l2.599-1.5c21.347,36.99,32.631,79.269,32.631,122.265
				c0,65.307-25.431,126.71-71.608,172.898C1564.062,971.957,1502.693,997.39,1437.43,997.39z"/>
		</g>
		<g id="A_SVGStep5">
			<path d="M1226.87,1361.997v-3c133.158,0,241.49-108.343,241.49-241.514c0-133.213-108.332-241.59-241.49-241.59
				v-3c65.292,0,126.681,25.429,172.856,71.602c46.194,46.191,71.634,107.626,71.634,172.988c0,65.322-25.44,126.731-71.634,172.915
				C1353.545,1336.569,1292.157,1361.997,1226.87,1361.997z"/>
		</g>
		<g id="A_SVGStep6">
			<path d="M1226.91,1605.026v-3c133.136,0,241.451-108.35,241.451-241.529
				c0-133.204-108.314-241.572-241.451-241.572v-3c65.288,0,126.669,25.431,172.837,71.607
				c46.181,46.189,71.613,107.616,71.613,172.965c0,65.316-25.433,126.725-71.613,172.913
				C1353.572,1579.593,1292.191,1605.026,1226.91,1605.026z"/>
		</g>
		<g id="A_SVGStep7">
			<path d="M1649.251,1847.306l-2.601-1.496c21.098-36.668,32.25-78.414,32.25-120.727
				c0-133.234-108.305-241.629-241.431-241.629c-85.675,0-165.753,46.069-208.984,120.23l-2.592-1.512
				c21.196-36.36,51.572-66.844,87.845-88.156c37.371-21.957,80.157-33.563,123.73-33.563c65.275,0,126.647,25.433,172.813,71.612
				c46.184,46.199,71.618,107.645,71.618,173.017C1681.901,1767.92,1670.611,1810.184,1649.251,1847.306z"/>
		</g>
		<g id="A_SVGStep8">
			<path d="M1860.353,1967.939l-2.604-1.49c20.771-36.304,31.751-77.721,31.751-119.772
				c0-133.246-108.323-241.65-241.469-241.65c-85.73,0-165.839,46.146-209.064,120.43l-2.593-1.508
				c21.188-36.414,51.568-66.945,87.856-88.295c37.391-21.999,80.201-33.627,123.801-33.627c65.295,0,126.683,25.439,172.854,71.632
				c46.182,46.204,71.615,107.649,71.615,173.019C1892.5,1889.25,1881.384,1931.182,1860.353,1967.939z"/>
		</g>
		<g id="A_SVGStep9">
			<path d="M1857.074,1968.847c-21.349-36.88-32.634-79.126-32.634-122.17c0-65.369,25.439-126.813,71.632-173.011
				c46.191-46.197,107.622-71.64,172.977-71.64c43.671,0,86.542,11.674,123.98,33.761c36.354,21.446,66.728,52.093,87.84,88.625
				l-2.598,1.502c-43.091-74.566-123.26-120.888-209.223-120.888c-133.224,0-241.609,108.404-241.609,241.65
				c0,42.517,11.145,84.243,32.23,120.666L1857.074,1968.847z"/>
		</g>
		<g id="A_SVGStep10">
			<path d="M2067.408,1846.826c-21.228-36.968-32.447-79.052-32.447-121.704c0-65.353,25.445-126.784,71.647-172.977
				c46.203-46.194,107.65-71.635,173.021-71.635c43.655,0,86.506,11.661,123.918,33.722c36.317,21.416,66.687,52.033,87.823,88.542
				l-2.596,1.504c-43.127-74.492-123.267-120.768-209.146-120.768c-133.256,0-241.668,108.387-241.668,241.611
				c0,42.129,11.082,83.696,32.049,120.21L2067.408,1846.826z"/>
		</g>
		<g id="A_SVGStep11">
			<path d="M2490.131,1605.026c-65.335,0-126.76-25.434-172.961-71.616c-46.205-46.185-71.65-107.594-71.65-172.913
				c0-65.355,25.443-126.782,71.642-172.966c46.192-46.176,107.62-71.606,172.97-71.606v3
				c-133.225,0-241.611,108.369-241.611,241.572c0,133.18,108.387,241.529,241.611,241.529V1605.026z"/>
		</g>
		<g id="A_SVGStep12">
			<path d="M2490.17,1361.954c-65.355,0-126.793-25.427-172.995-71.598
				c-46.208-46.176-71.655-107.583-71.655-172.911c0-65.366,25.444-126.798,71.646-172.982
				c46.196-46.177,107.637-71.608,173.004-71.608v3c-133.246,0-241.65,108.377-241.65,241.591
				c0,133.168,108.404,241.509,241.65,241.509V1361.954z"/>
		</g>
		<g id="A_SVGStep13">
			<path d="M2279.609,997.369c-65.36,0-126.803-25.425-173.008-71.591c-46.214-46.173-71.664-107.584-71.664-172.92
				c0-42.769,11.264-84.943,32.573-121.963l2.6,1.497c-21.048,36.565-32.173,78.222-32.173,120.466
				c0,133.169,108.413,241.511,241.672,241.511c86.027,0,166.196-46.335,209.222-120.924l2.6,1.499
				c-21.089,36.558-51.45,67.219-87.804,88.669C2366.199,985.696,2323.314,997.369,2279.609,997.369z"/>
		</g>
		<g id="A_SVGStep14">
			<path d="M2069.068,875.854c-65.346,0-126.773-25.433-172.967-71.614
				c-46.199-46.186-71.641-107.609-71.641-172.957c0-42.791,11.242-84.911,32.512-121.807l2.599,1.498
				c-21.007,36.441-32.111,78.043-32.111,120.309c0,133.202,108.385,241.57,241.608,241.57c85.923,0,166.069-46.275,209.162-120.767
				l2.598,1.502c-21.114,36.499-51.479,67.113-87.81,88.535C2155.595,864.191,2112.733,875.854,2069.068,875.854z"/>
		</g>
		<g id="A_SVGStep15">
			<path d="M1858.571,754.319c-43.74,0-86.665-11.676-124.133-33.765c-36.386-21.451-66.777-52.11-87.887-88.662
				l2.598-1.5c43.078,74.59,123.324,120.927,209.422,120.927c85.94,0,166.093-46.283,209.179-120.786l2.598,1.502
				c-21.123,36.524-51.487,67.15-87.812,88.567C1945.125,742.66,1902.259,754.319,1858.571,754.319z"/>
		</g>
		<g id="A_SVGStep16">
			<path d="M1226.91,1118.945v-3c133.159,0,241.491-108.342,241.491-241.512c0-42.423-11.124-84.127-32.169-120.605
				l2.599-1.499c21.308,36.933,32.571,79.156,32.571,122.104c0,65.313-25.44,126.719-71.633,172.905
				C1353.583,1093.515,1292.195,1118.945,1226.91,1118.945z"/>
		</g>
		<g id="A_SVGStep17">
			<path d="M1438.658,1725.854l-2.598-1.5c21.104-36.524,32.26-78.269,32.26-120.721
				c0-64.567-25.121-125.258-70.734-170.894c-45.588-45.608-106.195-70.723-170.667-70.723c-0.039,0-0.078,0-0.118,0l-0.001-3
				c0.036,0,0.083,0,0.119,0c65.278,0,126.631,25.424,172.789,71.603c46.18,46.201,71.613,107.646,71.613,173.014
				C1471.32,1646.612,1460.025,1688.875,1438.658,1725.854z"/>
		</g>
		<g id="A_SVGStep18">
			<path d="M1649.209,1847.428l-2.598-1.502c21.117-36.533,51.489-67.169,87.832-88.597
				c37.445-22.077,80.361-33.746,124.108-33.746c0.016,0,0.038,0,0.053,0c43.642,0,86.466,11.648,123.856,33.689
				c36.303,21.4,66.659,52.002,87.786,88.494l-2.596,1.504c-43.099-74.443-123.203-120.688-209.047-120.688
				c-0.021,0-0.031,0-0.052,0C1772.51,1726.583,1692.294,1772.888,1649.209,1847.428z"/>
		</g>
		<g id="A_SVGStep19">
			<path d="M2278.355,1726.014c-21.481-37.012-32.836-79.366-32.836-122.487c0-65.351,25.444-126.778,71.646-172.969
				c46.201-46.188,107.642-71.625,173.004-71.625v3c-133.246,0-241.65,108.379-241.65,241.594c0,42.593,11.214,84.427,32.43,120.981
				L2278.355,1726.014z"/>
		</g>
		<g id="A_SVGStep20">
			<path d="M2490.17,1118.925c-65.34,0-126.772-25.431-172.981-71.608c-46.217-46.185-71.669-107.597-71.669-172.923
				c0-42.889,11.312-85.16,32.711-122.245l2.598,1.499c-21.137,36.63-32.309,78.383-32.309,120.746
				c0,133.181,108.404,241.531,241.65,241.531V1118.925z"/>
		</g>
		<g id="A_SVGStep21">
			<path d="M1648.05,632.784v-3c85.895,0,166.025-46.245,209.122-120.689l2.596,1.503
				c-21.121,36.484-51.486,67.083-87.811,88.488C1734.546,621.132,1691.7,632.784,1648.05,632.784z"/>
		</g>
		<g id="A_SVGStep22">
			<path d="M1437.49,754.358v-3c85.826,0,165.942-46.222,209.082-120.627l2.596,1.505
				c-21.143,36.465-51.513,67.047-87.829,88.441C1523.936,742.711,1481.109,754.358,1437.49,754.358z"/>
		</g>
		<g id="A_SVGStep23">
			<path d="M1226.91,875.854v-3c85.917,0,166.071-46.298,209.181-120.827l2.597,1.502
				c-21.124,36.519-51.493,67.149-87.825,88.58C1313.437,864.186,1270.575,875.854,1226.91,875.854z"/>
		</g>
		<g id="A_SVGStep24">
			<path d="M1228.25,1117.895l-2.599-1.499c21.046-36.498,32.17-78.162,32.17-120.486
				c0-42.554-11.138-84.279-32.209-120.664l2.596-1.504c21.336,36.842,32.613,79.086,32.613,122.168
				C1260.821,1038.76,1249.558,1080.941,1228.25,1117.895z"/>
		</g>
		<g id="A_SVGStep25">
			<path d="M1228.088,1361.406l-2.598-1.502c21.177-36.628,32.371-78.422,32.371-120.864
				c0-42.585-11.138-84.317-32.208-120.685l2.596-1.504c21.335,36.824,32.613,79.076,32.613,122.188
				C1260.861,1282.009,1249.528,1324.322,1228.088,1361.406z"/>
		</g>
		<g id="A_SVGStep26">
			<path d="M1228.229,1604.477l-2.597-1.502c21.162-36.602,32.348-78.401,32.348-120.882
				c0-42.359-11.124-84.023-32.17-120.486l2.599-1.5c21.308,36.919,32.571,79.102,32.571,121.986
				C1260.981,1525.1,1249.656,1567.419,1228.229,1604.477z"/>
		</g>
		<g id="A_SVGStep27">
			<path d="M1435.774,1725.159c-43.231-74.083-123.198-120.092-208.714-120.092c-0.037,0-0.073,0-0.109,0l-0.001-3
				c0.037,0,0.075,0,0.112,0c43.516,0,86.227,11.581,123.524,33.493c36.214,21.276,66.568,51.736,87.78,88.087L1435.774,1725.159z"
				/>
		</g>
		<g id="A_SVGStep28">
			<path d="M1646.612,1847.309c-43.112-74.517-123.266-120.808-209.182-120.808v-3
				c43.669,0,86.529,11.662,123.945,33.727c36.329,21.424,66.702,52.054,87.833,88.579L1646.612,1847.309z"/>
		</g>
		<g id="A_SVGStep29">
			<path d="M1856.817,1968.133c-43.264-74.041-123.258-120.036-208.767-120.036v-3
				c43.52,0,86.249,11.585,123.568,33.503c36.212,21.267,66.569,51.704,87.789,88.02L1856.817,1968.133z"/>
		</g>
		<g id="A_SVGStep30">
			<path d="M1859.928,1968.664l-2.594-1.506c21.177-36.461,51.558-67.029,87.859-88.401
				c37.403-22.021,80.246-33.66,123.896-33.66v3C1983.269,1848.097,1903.122,1894.296,1859.928,1968.664z"/>
		</g>
		<g id="A_SVGStep31">
			<path d="M2070.348,1847.428l-2.598-1.502c21.127-36.531,51.506-67.167,87.855-88.597
				c37.447-22.077,80.354-33.746,124.084-33.746v3C2193.67,1726.583,2113.454,1772.888,2070.348,1847.428z"/>
		</g>
		<g id="A_SVGStep32">
			<path d="M2280.828,1725.952l-2.598-1.5c21.11-36.55,51.499-67.208,87.882-88.66
				c37.464-22.09,80.376-33.766,124.099-33.766v3C2404.141,1605.026,2323.909,1651.362,2280.828,1725.952z"/>
		</g>
		<g id="A_SVGStep33">
			<path d="M2488.108,1603.11c-20.953-36.772-32.028-78.642-32.028-121.08c0-43.142,11.381-85.552,32.912-122.646
				l2.594,1.506c-21.266,36.637-32.506,78.526-32.506,121.14c0,41.918,10.939,83.273,31.636,119.596L2488.108,1603.11z"/>
		</g>
		<g id="A_SVGStep34">
			<path d="M2488.189,1360.24c-21.033-36.876-32.15-78.801-32.15-121.24c0-43.412,11.501-85.977,33.259-123.094
				l2.588,1.518c-21.488,36.657-32.847,78.698-32.847,121.576c0,41.919,10.981,83.329,31.756,119.754L2488.189,1360.24z"/>
		</g>
		<g id="A_SVGStep35">
			<path d="M2488.794,1118.117c-21.376-36.929-32.675-79.181-32.675-122.187c0-42.983,11.325-85.311,32.752-122.406
				l2.598,1.5c-21.163,36.641-32.35,78.449-32.35,120.906c0,42.479,11.159,84.211,32.271,120.684L2488.794,1118.117z"/>
		</g>
		<g id="A_SVGStep36">
			<path d="M2490.211,875.894c-43.729,0-86.643-11.669-124.105-33.746c-36.376-21.437-66.763-52.074-87.875-88.599
				l2.598-1.501c43.086,74.541,123.317,120.846,209.383,120.846V875.894z"/>
		</g>
		<g id="A_SVGStep37">
			<path d="M2279.609,754.319c-43.689,0-86.576-11.657-124.024-33.712c-36.361-21.415-66.762-52.029-87.914-88.533
				l2.596-1.504c43.157,74.48,123.373,120.749,209.343,120.749V754.319z"/>
		</g>
		<g id="A_SVGStep38">
			<path d="M2069.131,632.784c-43.659,0-86.513-11.641-123.929-33.665c-36.326-21.382-66.717-51.964-87.888-88.439
				l2.595-1.506c43.18,74.395,123.349,120.609,209.222,120.609V632.784z"/>
		</g>
	</g>
</g>
</svg>
