<?xml version="1.0" encoding="utf-8"?>
<!-- Generator: Adobe Illustrator 16.0.0, SVG Export Plug-In . SVG Version: 6.00 Build 0)  -->
<!DOCTYPE svg PUBLIC "-//W3C//DTD SVG 1.1//EN" "http://www.w3.org/Graphics/SVG/1.1/DTD/svg11.dtd">
<svg version="1.1" id="A_detailCircle" xmlns="http://www.w3.org/2000/svg" xmlns:xlink="http://www.w3.org/1999/xlink"
	 x="0px" y="0px" width="1186px" height="791.064px" viewBox="0 0 1186 791.064" enable-background="new 0 0 1186 791.064"
	 xml:space="preserve">
<g id="A_SVGGroupSteps">
	<g id="A_SVGStep1">
		<path  d="M610.635,385.532c0,3.313-2.688,6-6,6l0,0c-3.313,0-6-2.688-6-6l0,0c0-3.314,2.688-6,6-6l0,0
			C607.948,379.532,610.635,382.218,610.635,385.532L610.635,385.532z"/>
		<path  d="M604.635,747.595c-48.877,0-96.294-9.573-140.931-28.453c-43.114-18.234-81.835-44.342-115.085-77.593
			c-33.251-33.251-59.357-71.971-77.593-115.085c-18.88-44.638-28.453-92.054-28.453-140.932c0-48.878,9.573-96.294,28.453-140.932
			c18.236-43.114,44.342-81.834,77.593-115.085c33.25-33.251,71.971-59.357,115.085-77.593
			c44.637-18.88,92.054-28.453,140.931-28.453c48.878,0,96.294,9.573,140.933,28.453c43.113,18.236,81.835,44.342,115.086,77.593
			c33.251,33.25,59.356,71.971,77.593,115.085c18.88,44.638,28.453,92.054,28.453,140.932c0,48.878-9.573,96.294-28.453,140.932
			c-18.235,43.114-44.342,81.834-77.593,115.085s-71.973,59.357-115.086,77.593C700.929,738.021,653.513,747.595,604.635,747.595z
			 M604.635,25.469c-198.539,0-360.063,161.523-360.063,360.063c0,198.539,161.522,360.063,360.063,360.063
			s360.063-161.522,360.063-360.063C964.698,186.993,803.175,25.469,604.635,25.469z"/>
		<g id="A_text" enable-background="new    ">
			<path  d="M637.117,376.124h-3.605l-2.496-7.092H620.01l-2.494,7.092h-3.436l9.263-25.447h4.513L637.117,376.124z
				 M629.974,366.126l-4.46-12.492l-4.479,12.492H629.974z"/>
		</g>
	</g>
	<g id="A_SVGStep2">
		<g id="A_text" enable-background="new    ">
			<path  d="M951.244,368.297c0,1.265-0.238,2.382-0.717,3.35c-0.479,0.969-1.123,1.767-1.933,2.393
				c-0.957,0.752-2.008,1.288-3.152,1.606c-1.146,0.319-2.602,0.479-4.366,0.479h-9.023v-25.447h7.537
				c1.856,0,3.246,0.068,4.17,0.205c0.922,0.137,1.805,0.422,2.648,0.855c0.934,0.489,1.61,1.119,2.033,1.888
				c0.422,0.77,0.633,1.689,0.633,2.761c0,1.207-0.309,2.235-0.923,3.084c-0.615,0.85-1.437,1.529-2.461,2.043v0.137
				c1.72,0.353,3.075,1.107,4.066,2.264C950.749,365.07,951.244,366.531,951.244,368.297z M945.554,356.829
				c0-0.615-0.103-1.133-0.308-1.555c-0.205-0.421-0.535-0.763-0.991-1.025c-0.536-0.308-1.185-0.498-1.948-0.572
				c-0.763-0.074-1.709-0.111-2.837-0.111h-4.032v7.349h4.375c1.06,0,1.901-0.054,2.528-0.162c0.626-0.108,1.208-0.333,1.743-0.675
				s0.914-0.783,1.137-1.325C945.442,358.211,945.554,357.57,945.554,356.829z M947.725,368.434c0-1.025-0.153-1.84-0.462-2.444
				c-0.308-0.604-0.866-1.116-1.675-1.537c-0.547-0.285-1.211-0.471-1.991-0.556c-0.779-0.086-1.729-0.128-2.845-0.128h-5.314v9.467
				h4.478c1.479,0,2.694-0.076,3.641-0.23c0.945-0.153,1.721-0.436,2.324-0.846c0.637-0.444,1.104-0.951,1.4-1.521
				C947.576,370.068,947.725,369.334,947.725,368.434z"/>
		</g>
		<path  d="M971.697,385.532c0,3.313-2.688,6-6,6l0,0c-3.313,0-6-2.688-6-6l0,0c0-3.314,2.688-6,6-6l0,0
			C969.01,379.532,971.697,382.218,971.697,385.532L971.697,385.532z"/>
		<rect x="604.635" y="384.532"  width="361.063" height="2"/>
	</g>
	<g id="A_SVGStep3">
		<g id="A_text" enable-background="new    ">
			<path  d="M1037.095,317.625h-3.605l-2.494-7.092h-11.006l-2.496,7.092h-3.436l9.264-25.447h4.512L1037.095,317.625z
				 M1029.951,307.627l-4.461-12.492l-4.478,12.492H1029.951z"/>
			<path  d="M1060.148,309.798c0,1.265-0.238,2.382-0.718,3.35c-0.479,0.969-1.123,1.767-1.932,2.393
				c-0.957,0.752-2.008,1.288-3.153,1.606c-1.145,0.319-2.601,0.479-4.365,0.479h-9.023v-25.447h7.537
				c1.855,0,3.246,0.068,4.17,0.205c0.922,0.137,1.805,0.422,2.648,0.855c0.934,0.489,1.61,1.119,2.032,1.888
				c0.422,0.77,0.634,1.689,0.634,2.761c0,1.207-0.309,2.235-0.924,3.084c-0.614,0.85-1.436,1.529-2.461,2.043v0.137
				c1.721,0.353,3.076,1.107,4.067,2.264C1059.653,306.571,1060.148,308.032,1060.148,309.798z M1054.458,298.33
				c0-0.615-0.103-1.133-0.308-1.555c-0.205-0.421-0.535-0.763-0.991-1.025c-0.536-0.308-1.186-0.498-1.948-0.572
				c-0.763-0.074-1.709-0.111-2.837-0.111h-4.033v7.349h4.375c1.061,0,1.902-0.054,2.529-0.162c0.626-0.108,1.208-0.333,1.743-0.675
				s0.914-0.783,1.137-1.325C1054.347,299.712,1054.458,299.071,1054.458,298.33z M1056.629,309.935c0-1.025-0.154-1.84-0.462-2.444
				s-0.866-1.116-1.675-1.537c-0.547-0.285-1.211-0.471-1.991-0.556c-0.78-0.086-1.729-0.128-2.845-0.128h-5.315v9.467h4.479
				c1.479,0,2.693-0.076,3.641-0.23c0.945-0.153,1.72-0.436,2.324-0.846c0.637-0.444,1.104-0.951,1.399-1.521
				C1056.48,311.569,1056.629,310.835,1056.629,309.935z"/>
			<path  d="M1085.988,304.261h-20.269v-2.734h20.269V304.261z M1085.988,311.438h-20.269v-2.734h20.269V311.438z"/>
			<path  d="M1108.701,317.625h-13.774v-2.598h5.298v-17.056h-5.298v-2.324c0.718,0,1.487-0.06,2.309-0.18
				c0.819-0.119,1.439-0.293,1.861-0.521c0.523-0.285,0.938-0.646,1.239-1.086c0.302-0.438,0.477-1.027,0.521-1.769h2.647v22.935
				h5.195L1108.701,317.625L1108.701,317.625z"/>
		</g>
	</g>
</g>
</svg>
