<?xml version="1.0" encoding="utf-8"?>
<!-- Generator: Adobe Illustrator 16.0.0, SVG Export Plug-In . SVG Version: 6.00 Build 0)  -->
<!DOCTYPE svg PUBLIC "-//W3C//DTD SVG 1.1//EN" "http://www.w3.org/Graphics/SVG/1.1/DTD/svg11.dtd">
<svg version="1.1" id="A-detailCircle" xmlns="http://www.w3.org/2000/svg" xmlns:xlink="http://www.w3.org/1999/xlink" x="0px"
	 y="0px" width="1186px" height="791.064px" viewBox="0 0 1186 791.064" enable-background="new 0 0 1186 791.064"
	 xml:space="preserve">
<rect x="0" y="0" display="none" width="1186" height="791.064"/>
<g id="A-SVGGroupSteps">
	<g id="A-SVGStep3">
		<path fill="#FFFFFF" d="M1036.948,317.625h-3.604l-2.494-7.092h-11.006l-2.496,7.092h-3.438l9.27-25.446h4.512L1036.948,317.625z
			 M1029.805,307.627l-4.461-12.492l-4.479,12.492H1029.805z"/>
		<path fill="#FFFFFF" d="M1060.002,309.798c0,1.266-0.238,2.382-0.724,3.351c-0.479,0.969-1.123,1.766-1.932,2.393
			c-0.957,0.752-2.009,1.288-3.153,1.606s-2.601,0.479-4.359,0.479h-9.023v-25.446h7.537c1.854,0,3.246,0.067,4.17,0.205
			c0.922,0.137,1.805,0.422,2.648,0.854c0.934,0.49,1.605,1.12,2.026,1.888c0.422,0.771,0.638,1.689,0.638,2.761
			c0,1.208-0.313,2.235-0.928,3.084c-0.609,0.849-1.436,1.529-2.461,2.042v0.137c1.725,0.354,3.076,1.107,4.067,2.264
			C1059.507,306.571,1060.002,308.032,1060.002,309.798z M1054.312,298.331c0-0.615-0.103-1.133-0.308-1.555
			c-0.205-0.421-0.536-0.763-0.991-1.025c-0.536-0.308-1.188-0.498-1.948-0.571c-0.764-0.074-1.709-0.111-2.837-0.111h-4.033v7.349
			h4.375c1.063,0,1.902-0.054,2.529-0.162c0.626-0.107,1.207-0.333,1.743-0.675c0.535-0.342,0.914-0.783,1.137-1.325
			C1054.198,299.712,1054.312,299.071,1054.312,298.331z M1056.483,309.935c0-1.025-0.154-1.84-0.462-2.444
			c-0.308-0.604-0.866-1.116-1.675-1.538c-0.547-0.285-1.211-0.47-1.991-0.555c-0.78-0.086-1.729-0.128-2.845-0.128h-5.315v9.468
			h4.479c1.479,0,2.688-0.077,3.641-0.231c0.945-0.152,1.72-0.436,2.324-0.846c0.638-0.444,1.104-0.951,1.396-1.521
			C1056.334,311.57,1056.483,310.835,1056.483,309.935z"/>
		<path fill="#FFFFFF" d="M1085.842,304.261h-20.271v-2.734h20.271V304.261z M1085.842,311.438h-20.271v-2.734h20.271V311.438z"/>
		<path fill="#FFFFFF" d="M1108.555,317.625h-13.774v-2.598h5.298v-17.056h-5.298v-2.324c0.718,0,1.487-0.061,2.313-0.18
			c0.813-0.119,1.438-0.294,1.855-0.521c0.523-0.285,0.938-0.646,1.239-1.085c0.302-0.438,0.479-1.028,0.521-1.769h2.646v22.935
			h5.195L1108.555,317.625L1108.555,317.625z"/>
	</g>
	<g id="A-SVGStep2">
		<path fill="#FFFFFF" d="M971.697,385.532c0,3.313-2.688,6-6,6l0,0c-3.313,0-6-2.688-6-6l0,0c0-3.313,2.688-6,6-6l0,0
			C969.01,379.532,971.697,382.218,971.697,385.532L971.697,385.532z"/>
		<rect x="604.636" y="384.532" fill="#FFFFFF" width="361.061" height="2"/>
		<path fill="#FFFFFF" d="M951.25,368.297c0,1.266-0.237,2.382-0.723,3.351c-0.479,0.969-1.123,1.766-1.932,2.393
			c-0.957,0.752-2.008,1.288-3.153,1.606c-1.145,0.318-2.601,0.479-4.366,0.479h-9.021v-25.446h7.537
			c1.854,0,3.246,0.067,4.17,0.204c0.922,0.138,1.805,0.423,2.646,0.854c0.938,0.49,1.612,1.12,2.033,1.888
			c0.422,0.771,0.633,1.689,0.633,2.761c0,1.208-0.308,2.235-0.923,3.084c-0.608,0.849-1.436,1.529-2.461,2.042v0.137
			c1.72,0.354,3.076,1.107,4.067,2.264C950.756,365.07,951.25,366.531,951.25,368.297z M945.561,356.83
			c0-0.615-0.104-1.133-0.308-1.555c-0.205-0.421-0.536-0.763-0.991-1.025c-0.536-0.308-1.188-0.498-1.948-0.571
			c-0.764-0.074-1.709-0.111-2.837-0.111h-4.033v7.349h4.375c1.063,0,1.902-0.054,2.529-0.162c0.626-0.107,1.207-0.333,1.743-0.675
			c0.528-0.342,0.914-0.783,1.137-1.325C945.448,358.211,945.561,357.57,945.561,356.83z M947.732,368.434
			c0-1.025-0.154-1.84-0.462-2.444c-0.308-0.604-0.866-1.116-1.675-1.538c-0.547-0.285-1.211-0.47-1.991-0.555
			c-0.78-0.086-1.729-0.128-2.845-0.128h-5.315v9.468h4.479c1.479,0,2.688-0.077,3.641-0.231c0.945-0.152,1.72-0.436,2.324-0.846
			c0.638-0.444,1.104-0.951,1.396-1.521C947.576,370.069,947.732,369.334,947.732,368.434z"/>
	</g>
	<g id="A-SVGStep1">
		<path fill="#FFFFFF" d="M604.636,747.594c-48.877,0-96.294-9.573-140.931-28.453c-43.114-18.235-81.835-44.342-115.085-77.593
			c-33.251-33.251-59.357-71.971-77.593-115.085c-18.88-44.638-28.453-92.054-28.453-140.932c0-48.877,9.573-96.293,28.453-140.931
			c18.236-43.114,44.342-81.834,77.593-115.085c33.25-33.251,71.971-59.357,115.085-77.592
			c44.637-18.88,92.054-28.453,140.931-28.453c48.878,0,96.294,9.573,140.932,28.453c43.113,18.235,81.834,44.341,115.085,77.592
			c33.251,33.25,59.356,71.971,77.592,115.085c18.88,44.638,28.453,92.054,28.453,140.931c0,48.878-9.573,96.294-28.453,140.932
			c-18.235,43.114-44.341,81.834-77.592,115.085s-71.972,59.357-115.085,77.593C700.93,738.021,653.514,747.594,604.636,747.594z
			 M604.636,25.47c-198.539,0-360.063,161.523-360.063,360.062c0,198.539,161.523,360.063,360.063,360.063
			s360.062-161.523,360.062-360.063C964.698,186.993,803.175,25.47,604.636,25.47z"/>
		<path fill="#FFFFFF" d="M637.061,376.124h-3.606l-2.487-7.092h-11.013l-2.495,7.092h-3.436l9.263-25.446h4.519L637.061,376.124z
			 M629.916,366.126l-4.467-12.493l-4.477,12.493H629.916z"/>
		<path fill="#FFFFFF" d="M610.635,385.532c0,3.313-2.688,6-6,6l0,0c-3.313,0-6-2.688-6-6l0,0c0-3.313,2.688-6,6-6l0,0
			C607.948,379.532,610.635,382.218,610.635,385.532L610.635,385.532z"/>
	</g>
</g>
</svg>
