<?xml version="1.0" encoding="utf-8"?>
<!-- Generator: Adobe Illustrator 16.0.0, SVG Export Plug-In . SVG Version: 6.00 Build 0)  -->
<!DOCTYPE svg PUBLIC "-//W3C//DTD SVG 1.1//EN" "http://www.w3.org/Graphics/SVG/1.1/DTD/svg11.dtd">
<svg version="1.1" id="A_detailVesicaPiscis" xmlns="http://www.w3.org/2000/svg" xmlns:xlink="http://www.w3.org/1999/xlink"
	 x="0px" y="0px" width="1739px" height="1159.945px" viewBox="0 0 1739 1159.945" enable-background="new 0 0 1739 1159.945"
	 xml:space="preserve">
<g id="A_SVGGroupSteps">
	<g id="A_SVGStep12">
		<g enable-background="new    ">
			<path d="M1104.359,673.629c-0.627,0.273-1.192,0.529-1.699,0.771c-0.508,0.234-1.172,0.485-1.991,0.752
				c-0.695,0.216-1.449,0.397-2.265,0.555c-0.814,0.155-1.713,0.229-2.69,0.229c-1.847,0-3.521-0.259-5.033-0.773
				c-1.51-0.521-2.82-1.33-3.938-2.438c-1.094-1.081-1.947-2.456-2.563-4.127c-0.612-1.669-0.923-3.604-0.923-5.814
				c0-2.101,0.296-3.975,0.892-5.623c0.592-1.651,1.444-3.048,2.563-4.188c1.082-1.104,2.392-1.943,3.923-2.525
				c1.53-0.58,3.231-0.871,5.104-0.871c1.365,0,2.729,0.165,4.093,0.496c1.361,0.329,2.875,0.909,4.537,1.738v4.021h-0.256
				c-1.4-1.173-2.791-2.027-4.17-2.563c-1.38-0.532-2.854-0.803-4.429-0.803c-1.287,0-2.444,0.208-3.479,0.623
				c-1.03,0.416-1.951,1.063-2.761,1.939c-0.785,0.854-1.396,1.935-1.839,3.235c-0.438,1.309-0.655,2.813-0.655,4.521
				c0,1.788,0.239,3.326,0.727,4.612c0.483,1.287,1.107,2.337,1.872,3.146c0.798,0.844,1.729,1.468,2.793,1.872
				c1.063,0.404,2.188,0.604,3.375,0.604c1.63,0,3.156-0.277,4.58-0.84c1.424-0.558,2.759-1.395,4-2.512h0.237v3.965
				L1104.359,673.629L1104.359,673.629z"/>
			<path d="M1130.645,662.777c0,2.313-0.504,4.404-1.514,6.289c-1.009,1.879-2.351,3.338-4.021,4.375
				c-1.162,0.717-2.459,1.232-3.892,1.555c-1.431,0.318-3.313,0.479-5.646,0.479h-6.429V650.03h6.357
				c2.483,0,4.458,0.18,5.922,0.539c1.464,0.354,2.703,0.852,3.717,1.479c1.732,1.082,3.082,2.523,4.054,4.323
				C1130.159,658.169,1130.645,660.305,1130.645,662.777z M1127.105,662.726c0-1.989-0.35-3.675-1.041-5.042
				c-0.695-1.363-1.732-2.439-3.111-3.229c-1.002-0.569-2.066-0.966-3.194-1.188c-1.128-0.222-2.479-0.333-4.051-0.333h-3.179v19.64
				h3.179c1.629,0,3.051-0.12,4.264-0.358c1.215-0.24,2.328-0.684,3.345-1.334c1.265-0.809,2.213-1.873,2.846-3.193
				C1126.791,666.36,1127.105,664.708,1127.105,662.726z"/>
			<path d="M1157.15,662.11h-20.271v-2.734h20.271V662.11z M1157.15,669.288h-20.271v-2.734h20.271V669.288z"/>
			<path d="M1181.316,675.475h-17.229v-3.568c1.194-1.025,2.396-2.055,3.596-3.076c1.203-1.025,2.322-2.044,3.358-3.063
				c2.188-2.116,3.688-3.803,4.494-5.05c0.81-1.248,1.213-2.595,1.213-4.042c0-1.317-0.438-2.354-1.307-3.102
				c-0.871-0.747-2.091-1.119-3.647-1.119c-1.037,0-2.16,0.182-3.367,0.547c-1.207,0.364-2.387,0.922-3.534,1.674h-0.175v-3.588
				c0.812-0.396,1.892-0.764,3.237-1.094c1.354-0.331,2.658-0.496,3.925-0.496c2.606,0,4.651,0.63,6.138,1.889
				c1.479,1.262,2.221,2.965,2.221,5.118c0,0.969-0.123,1.871-0.367,2.709c-0.244,0.837-0.604,1.632-1.084,2.384
				c-0.444,0.707-0.967,1.401-1.563,2.085c-0.597,0.688-1.321,1.441-2.181,2.272c-1.219,1.197-2.477,2.354-3.774,3.479
				c-1.298,1.123-2.515,2.162-3.642,3.119h13.689L1181.316,675.475L1181.316,675.475z"/>
			<path d="M1207.258,671.783l-1.896,1.896l-7.451-7.52l-7.451,7.52l-1.896-1.896l7.521-7.451l-7.521-7.451l1.896-1.896
				l7.451,7.52l7.451-7.52l1.896,1.896l-7.521,7.451L1207.258,671.783z"/>
			<path d="M1232.413,675.475h-16.766V650.03h16.766v3.008h-13.381v6.973h13.381v3.009h-13.381v9.45h13.381V675.475z"/>
			<path d="M1259.279,662.777c0,2.313-0.504,4.404-1.512,6.289c-1.011,1.879-2.353,3.338-4.025,4.375
				c-1.161,0.717-2.457,1.232-3.887,1.555c-1.435,0.318-3.313,0.479-5.647,0.479h-6.427V650.03h6.357
				c2.479,0,4.457,0.18,5.922,0.539c1.463,0.354,2.701,0.852,3.717,1.479c1.729,1.082,3.082,2.523,4.052,4.323
				C1258.795,658.169,1259.279,660.305,1259.279,662.777z M1255.741,662.726c0-1.989-0.351-3.675-1.043-5.042
				c-0.694-1.363-1.731-2.439-3.108-3.229c-1.004-0.569-2.068-0.966-3.195-1.188c-1.129-0.223-2.479-0.333-4.051-0.333h-3.181v19.64
				h3.181c1.629,0,3.051-0.12,4.267-0.358c1.213-0.24,2.323-0.684,3.342-1.334c1.265-0.809,2.214-1.873,2.845-3.193
				C1255.426,666.36,1255.741,664.708,1255.741,662.726z"/>
			<path d="M1285.784,662.11h-20.268v-2.734h20.268V662.11z M1285.784,669.288h-20.268v-2.734h20.268V669.288z"/>
			<path d="M1319.657,644.918l-15.039,33.137h-1.743l-6.563-16.97h-4.054v-2.376h6.72l5.35,14.031l12.476-27.822
				H1319.657L1319.657,644.918z"/>
			<path d="M1336.354,663.221c0.55,0.49,0.998,1.105,1.354,1.85c0.354,0.737,0.529,1.694,0.529,2.869
				c0,1.16-0.211,2.229-0.636,3.194c-0.422,0.97-1.014,1.813-1.774,2.529c-0.854,0.798-1.858,1.388-3.019,1.769
				c-1.155,0.385-2.426,0.572-3.803,0.572c-1.414,0-2.804-0.168-4.171-0.504c-1.366-0.336-2.489-0.703-3.366-1.102v-3.572h0.256
				c0.972,0.639,2.106,1.168,3.418,1.59c1.313,0.421,2.574,0.632,3.798,0.632c0.717,0,1.479-0.12,2.286-0.354
				c0.812-0.24,1.468-0.597,1.97-1.063c0.521-0.501,0.914-1.053,1.17-1.657c0.256-0.604,0.385-1.364,0.385-2.289
				c0-0.908-0.146-1.666-0.436-2.266c-0.291-0.598-0.693-1.066-1.205-1.409c-0.517-0.354-1.138-0.596-1.863-0.727
				c-0.725-0.131-1.516-0.197-2.356-0.197h-1.536v-2.836h1.193c1.73,0,3.111-0.362,4.146-1.086c1.028-0.723,1.547-1.779,1.547-3.17
				c0-0.615-0.131-1.153-0.396-1.615c-0.263-0.461-0.627-0.84-1.095-1.137c-0.489-0.296-1.014-0.501-1.571-0.615
				c-0.56-0.113-1.188-0.17-1.896-0.17c-1.084,0-2.233,0.193-3.453,0.58c-1.219,0.388-2.369,0.935-3.451,1.641h-0.172v-3.567
				c0.81-0.398,1.89-0.77,3.238-1.104c1.353-0.336,2.656-0.504,3.924-0.504c1.24,0,2.334,0.114,3.281,0.342
				c0.942,0.229,1.799,0.594,2.563,1.096c0.82,0.549,1.441,1.206,1.863,1.98c0.42,0.775,0.633,1.681,0.633,2.717
				c0,1.413-0.5,2.646-1.495,3.7c-0.998,1.055-2.175,1.718-3.527,1.991v0.238c0.548,0.093,1.175,0.279,1.882,0.569
				C1335.266,662.427,1335.863,662.788,1336.354,663.221z"/>
		</g>
	</g>
	<g id="A_SVGStep11">
		<g>
			<g enable-background="new    ">
				<path d="M1187.352,587.543l-15.469,34.084h-1.793l-6.75-17.455h-4.166v-2.443h6.908l5.502,14.436l12.832-28.617
					L1187.352,587.543L1187.352,587.543z"/>
				<path d="M1209.166,589.635h-23.73v-2.105h23.73V589.635z"/>
				<path d="M1232.053,589.635h-23.729v-2.105h23.729V589.635z"/>
				<path d="M1254.939,589.635h-23.729v-2.105h23.729V589.635z"/>
				<path d="M1277.825,589.635h-23.729v-2.105h23.729V589.635z"/>
				<path d="M1300.713,589.635h-23.729v-2.105h23.729V589.635z"/>
			</g>
			<g enable-background="new    ">
				<path d="M1207.898,611.145c0,1.269-0.239,2.386-0.721,3.354c-0.479,0.969-1.122,1.767-1.932,2.393
					c-0.957,0.752-2.008,1.288-3.153,1.606s-2.601,0.479-4.365,0.479h-9.021V593.53h7.536c1.854,0,3.247,0.064,4.17,0.205
					c0.923,0.137,1.807,0.422,2.649,0.854c0.934,0.489,1.608,1.119,2.03,1.888c0.422,0.771,0.636,1.689,0.636,2.765
					c0,1.207-0.313,2.231-0.927,3.084c-0.612,0.85-1.437,1.526-2.461,2.043v0.137c1.724,0.354,3.075,1.107,4.067,2.267
					C1207.402,607.918,1207.898,609.379,1207.898,611.145z M1202.207,599.677c0-0.614-0.103-1.133-0.308-1.555
					c-0.205-0.421-0.536-0.763-0.992-1.025c-0.534-0.308-1.188-0.498-1.946-0.568c-0.765-0.074-1.709-0.111-2.838-0.111h-4.033
					v7.349h4.375c1.063,0,1.901-0.054,2.529-0.162c0.627-0.104,1.207-0.332,1.743-0.675c0.535-0.342,0.914-0.782,1.138-1.325
					C1202.096,601.059,1202.207,600.418,1202.207,599.677z M1204.378,611.281c0-1.025-0.153-1.84-0.462-2.444
					c-0.308-0.604-0.865-1.116-1.675-1.537c-0.547-0.285-1.211-0.471-1.991-0.556c-0.779-0.086-1.729-0.128-2.846-0.128h-5.314
					v9.467h4.479c1.479,0,2.692-0.076,3.641-0.229c0.944-0.15,1.721-0.437,2.324-0.847c0.638-0.44,1.104-0.951,1.4-1.521
					C1204.229,612.916,1204.378,612.182,1204.378,611.281z"/>
				<path d="M1234.198,606.274c0,2.313-0.504,4.404-1.512,6.288c-1.011,1.88-2.353,3.339-4.025,4.375
					c-1.161,0.718-2.458,1.233-3.887,1.556c-1.434,0.317-3.313,0.479-5.647,0.479h-6.427v-25.443h6.357
					c2.479,0,4.457,0.18,5.922,0.539c1.463,0.354,2.701,0.852,3.717,1.479c1.729,1.082,3.081,2.523,4.051,4.323
					C1233.715,601.666,1234.198,603.802,1234.198,606.274z M1230.661,606.223c0-1.989-0.348-3.675-1.043-5.042
					c-0.694-1.363-1.73-2.439-3.108-3.229c-1.004-0.569-2.065-0.966-3.193-1.188c-1.131-0.223-2.479-0.333-4.053-0.333h-3.18v19.64
					h3.18c1.629,0,3.053-0.12,4.267-0.358c1.213-0.24,2.323-0.684,3.341-1.334c1.266-0.809,2.215-1.873,2.846-3.195
					C1230.346,609.857,1230.661,608.205,1230.661,606.223z"/>
			</g>
			<g enable-background="new    ">
				<path d="M1248.336,610.646h-10.043v-2.082c0.696-0.602,1.396-1.196,2.098-1.795
					c0.702-0.601,1.354-1.191,1.957-1.782c1.275-1.235,2.149-2.218,2.621-2.944c0.474-0.728,0.707-1.513,0.707-2.354
					c0-0.771-0.254-1.373-0.762-1.813c-0.509-0.435-1.219-0.65-2.127-0.65c-0.604,0-1.261,0.104-1.963,0.317
					c-0.705,0.212-1.394,0.538-2.063,0.979h-0.103v-2.096c0.471-0.229,1.103-0.441,1.888-0.638c0.787-0.193,1.553-0.289,2.286-0.289
					c1.521,0,2.714,0.367,3.576,1.104c0.864,0.73,1.297,1.729,1.297,2.98c0,0.564-0.069,1.091-0.215,1.579
					c-0.144,0.488-0.354,0.952-0.634,1.391c-0.259,0.411-0.563,0.816-0.912,1.218c-0.349,0.396-0.771,0.842-1.271,1.322
					c-0.711,0.697-1.442,1.374-2.199,2.027c-0.76,0.654-1.466,1.261-2.122,1.817h7.979v1.705L1248.336,610.646L1248.336,610.646z"/>
			</g>
			<g enable-background="new    ">
				<path d="M1264.358,609.384h-10.664v-3.093h10.664V609.384z"/>
				<path d="M1289.582,611.145c0,1.269-0.238,2.386-0.718,3.354c-0.479,0.969-1.123,1.767-1.935,2.393
					c-0.957,0.752-2.008,1.288-3.149,1.606c-1.146,0.318-2.604,0.479-4.367,0.479h-9.022V593.53h7.537
					c1.856,0,3.247,0.064,4.17,0.205c0.926,0.137,1.809,0.422,2.647,0.854c0.937,0.489,1.612,1.119,2.034,1.888
					c0.421,0.771,0.632,1.689,0.632,2.765c0,1.207-0.307,2.231-0.922,3.084c-0.614,0.85-1.438,1.526-2.461,2.043v0.137
					c1.72,0.354,3.076,1.107,4.063,2.267C1289.088,607.918,1289.582,609.379,1289.582,611.145z M1283.893,599.677
					c0-0.614-0.104-1.133-0.309-1.555c-0.205-0.421-0.535-0.763-0.99-1.025c-0.536-0.308-1.187-0.498-1.949-0.568
					c-0.763-0.074-1.709-0.111-2.836-0.111h-4.03v7.349h4.375c1.06,0,1.899-0.054,2.526-0.162c0.626-0.104,1.207-0.332,1.742-0.675
					c0.534-0.342,0.913-0.782,1.137-1.325C1283.781,601.06,1283.893,600.418,1283.893,599.677z M1286.063,611.281
					c0-1.025-0.151-1.84-0.461-2.444c-0.309-0.604-0.864-1.116-1.676-1.537c-0.547-0.285-1.211-0.471-1.99-0.556
					c-0.778-0.086-1.729-0.128-2.846-0.128h-5.313v9.467h4.478c1.48,0,2.694-0.076,3.643-0.229c0.943-0.15,1.722-0.437,2.322-0.847
					c0.64-0.44,1.104-0.951,1.4-1.521C1285.913,612.916,1286.063,612.182,1286.063,611.281z"/>
				<path d="M1311.15,618.972h-16.769v-25.443h16.769v3.008h-13.381v6.973h13.381v3.008h-13.381v9.451h13.381V618.972z"
					/>
			</g>
			<g enable-background="new    ">
				<path d="M1325.814,610.646h-10.043v-2.082c0.696-0.602,1.396-1.196,2.098-1.795
					c0.701-0.601,1.354-1.191,1.959-1.782c1.275-1.235,2.146-2.218,2.62-2.944c0.473-0.727,0.707-1.513,0.707-2.354
					c0-0.771-0.254-1.373-0.763-1.813c-0.511-0.435-1.22-0.65-2.127-0.65c-0.604,0-1.261,0.104-1.966,0.317
					c-0.7,0.212-1.391,0.538-2.063,0.979h-0.103v-2.096c0.476-0.229,1.104-0.441,1.892-0.638s1.549-0.289,2.287-0.289
					c1.521,0,2.713,0.367,3.575,1.104c0.861,0.73,1.296,1.729,1.296,2.98c0,0.564-0.07,1.091-0.214,1.579
					c-0.146,0.488-0.354,0.952-0.635,1.391c-0.261,0.411-0.563,0.816-0.91,1.218c-0.353,0.396-0.771,0.842-1.271,1.322
					c-0.711,0.697-1.443,1.374-2.202,2.027c-0.757,0.654-1.465,1.261-2.122,1.817h7.98L1325.814,610.646L1325.814,610.646z"/>
			</g>
			<g enable-background="new    ">
				<path d="M1353.014,605.607h-20.27v-2.734h20.27V605.607z M1353.014,612.785h-20.27v-2.734h20.27V612.785z"/>
			</g>
			<g>
				<g enable-background="new    ">
					<path d="M1386.492,569.916l-15.039,33.137h-1.742l-6.563-16.971h-4.054v-2.375h6.72l5.351,14.031l12.475-27.823
						L1386.492,569.916L1386.492,569.916z"/>
					<path d="M1403.189,588.219c0.547,0.49,0.994,1.105,1.351,1.85c0.354,0.736,0.53,1.693,0.53,2.867
						c0,1.162-0.211,2.229-0.636,3.195c-0.422,0.969-1.014,1.813-1.774,2.529c-0.854,0.799-1.859,1.389-3.019,1.77
						c-1.155,0.381-2.426,0.572-3.803,0.572c-1.414,0-2.804-0.168-4.171-0.504c-1.366-0.336-2.489-0.703-3.366-1.102v-3.572h0.256
						c0.972,0.639,2.106,1.168,3.418,1.59c1.313,0.42,2.574,0.631,3.798,0.631c0.717,0,1.479-0.119,2.286-0.355
						c0.812-0.238,1.468-0.596,1.968-1.063c0.522-0.502,0.916-1.053,1.172-1.658c0.256-0.604,0.385-1.367,0.385-2.289
						c0-0.912-0.146-1.666-0.438-2.266c-0.291-0.598-0.691-1.066-1.203-1.408c-0.517-0.354-1.138-0.596-1.863-0.727
						c-0.729-0.131-1.518-0.197-2.357-0.197h-1.538v-2.836h1.195c1.731,0,3.112-0.363,4.146-1.086
						c1.031-0.726,1.549-1.779,1.549-3.17c0-0.616-0.134-1.154-0.396-1.616c-0.263-0.461-0.627-0.84-1.095-1.137
						c-0.489-0.297-1.014-0.501-1.571-0.615c-0.56-0.113-1.188-0.17-1.896-0.17c-1.083,0-2.234,0.189-3.453,0.58
						c-1.22,0.388-2.369,0.935-3.451,1.641h-0.172v-3.571c0.81-0.396,1.89-0.766,3.237-1.103c1.353-0.336,2.656-0.504,3.924-0.504
						c1.238,0,2.335,0.114,3.279,0.342c0.944,0.229,1.802,0.593,2.563,1.094c0.82,0.547,1.441,1.208,1.863,1.982
						c0.421,0.771,0.632,1.681,0.632,2.717c0,1.412-0.499,2.646-1.495,3.699c-0.998,1.055-2.174,1.719-3.528,1.991v0.235
						c0.547,0.092,1.174,0.283,1.88,0.572C1402.102,587.424,1402.698,587.785,1403.189,588.219z"/>
				</g>
				<g enable-background="new    ">
					<path d="M1389.193,608.697h-29.771v-2.734h29.771V608.697z"/>
					<path d="M1420.202,608.697h-29.771v-2.734h29.771V608.697z"/>
				</g>
				<g enable-background="new    ">
					<path d="M1389.785,639.473h-17.229V635.9c1.196-1.025,2.396-2.055,3.6-3.076c1.203-1.025,2.322-2.044,3.356-3.063
						c2.188-2.115,3.688-3.803,4.494-5.05c0.812-1.248,1.213-2.595,1.213-4.042c0-1.318-0.437-2.354-1.308-3.102
						s-2.088-1.119-3.646-1.119c-1.037,0-2.16,0.182-3.367,0.547c-1.208,0.364-2.387,0.922-3.537,1.674h-0.172v-3.588
						c0.81-0.396,1.89-0.764,3.238-1.094c1.352-0.331,2.655-0.496,3.923-0.496c2.605,0,4.65,0.63,6.136,1.889
						c1.479,1.259,2.222,2.965,2.222,5.118c0,0.969-0.122,1.871-0.367,2.709c-0.244,0.837-0.604,1.632-1.085,2.384
						c-0.441,0.707-0.966,1.401-1.563,2.085c-0.597,0.688-1.324,1.441-2.181,2.272c-1.221,1.197-2.479,2.354-3.775,3.479
						s-2.513,2.162-3.641,3.119h13.688L1389.785,639.473L1389.785,639.473z"/>
				</g>
			</g>
			<g enable-background="new    ">
				<path d="M1101.472,618.973h-16.765v-25.443h16.765v3.008h-13.382v6.973h13.382v3.008h-13.382v9.451h13.382V618.973z
					"/>
				<path d="M1128.337,606.275c0,2.313-0.505,4.404-1.514,6.289c-1.008,1.879-2.35,3.338-4.023,4.375
					c-1.162,0.717-2.458,1.232-3.888,1.555c-1.431,0.318-3.313,0.479-5.648,0.479h-6.426v-25.443h6.356
					c2.482,0,4.457,0.18,5.923,0.539c1.463,0.354,2.702,0.852,3.717,1.479c1.73,1.082,3.082,2.523,4.051,4.322
					C1127.854,601.667,1128.337,603.803,1128.337,606.275z M1124.799,606.223c0-1.988-0.349-3.674-1.042-5.041
					c-0.694-1.363-1.729-2.439-3.11-3.229c-1.003-0.568-2.064-0.965-3.192-1.188c-1.129-0.223-2.479-0.332-4.051-0.332h-3.182
					v19.639h3.182c1.629,0,3.051-0.119,4.265-0.357c1.214-0.24,2.326-0.684,3.342-1.334c1.267-0.809,2.213-1.873,2.847-3.194
					C1124.483,609.857,1124.799,608.205,1124.799,606.223z"/>
				<path d="M1154.844,605.607h-20.271v-2.734h20.271V605.607z M1154.844,612.785h-20.271v-2.734h20.271V612.785z"/>
			</g>
		</g>
	</g>
	<g id="A_SVGStep10">
		<g enable-background="new    ">
			<path d="M1103.898,557.145c0,1.269-0.239,2.386-0.721,3.354c-0.479,0.969-1.122,1.767-1.932,2.393
				c-0.957,0.752-2.008,1.288-3.153,1.606s-2.601,0.479-4.365,0.479h-9.021V539.53h7.536c1.854,0,3.247,0.064,4.17,0.205
				c0.923,0.137,1.807,0.422,2.649,0.854c0.934,0.489,1.608,1.119,2.03,1.888c0.422,0.771,0.636,1.689,0.636,2.765
				c0,1.207-0.313,2.231-0.927,3.084c-0.612,0.85-1.437,1.526-2.461,2.043v0.137c1.724,0.354,3.075,1.107,4.067,2.267
				C1103.402,553.918,1103.898,555.379,1103.898,557.145z M1098.207,545.677c0-0.614-0.103-1.133-0.308-1.555
				c-0.205-0.421-0.536-0.763-0.992-1.025c-0.534-0.308-1.188-0.498-1.946-0.568c-0.765-0.074-1.709-0.111-2.838-0.111h-4.033v7.349
				h4.375c1.063,0,1.901-0.054,2.529-0.162c0.627-0.104,1.207-0.332,1.743-0.675c0.535-0.342,0.914-0.782,1.138-1.325
				C1098.096,547.059,1098.207,546.418,1098.207,545.677z M1100.378,557.282c0-1.025-0.153-1.84-0.462-2.444
				c-0.308-0.604-0.865-1.116-1.675-1.537c-0.547-0.285-1.211-0.471-1.991-0.556c-0.779-0.086-1.729-0.128-2.846-0.128h-5.314v9.467
				h4.479c1.479,0,2.692-0.076,3.641-0.23c0.944-0.149,1.721-0.436,2.324-0.846c0.638-0.44,1.104-0.951,1.4-1.521
				C1100.229,558.917,1100.378,558.182,1100.378,557.282z"/>
			<path d="M1125.466,564.972H1108.7v-25.443h16.766v3.008h-13.382v6.973h13.382v3.008h-13.382v9.451h13.382V564.972z"
				/>
			<path d="M1151.868,551.608h-20.268v-2.734h20.268V551.608z M1151.868,558.786h-20.268v-2.734h20.268V558.786z"/>
			<path d="M1165.37,555.316h-2.819v-11.642h-3.572v-1.999c1.162,0,2.104-0.126,2.82-0.377
				c0.719-0.25,1.129-0.865,1.229-1.846h2.342V555.316z M1180.154,539.525l-13.33,25.443h-2.819l13.33-25.443H1180.154z
				 M1189.467,564.972h-11.758v-2.525c1.036-0.786,1.938-1.479,2.7-2.068c0.764-0.591,1.367-1.099,1.812-1.521
				c1.242-1.176,2.045-2.069,2.41-2.69s0.547-1.398,0.547-2.333c0-0.797-0.25-1.407-0.752-1.828
				c-0.502-0.422-1.187-0.633-2.051-0.633c-0.797,0-1.604,0.171-2.418,0.513s-1.455,0.695-1.922,1.063h-0.259v-3.063
				c0.742-0.309,1.541-0.559,2.399-0.752c0.859-0.191,1.729-0.291,2.604-0.291c1.789,0,3.164,0.45,4.127,1.352
				c0.964,0.898,1.442,2.048,1.442,3.438c0,1.062-0.23,2.011-0.698,2.854c-0.47,0.846-1.308,1.803-2.515,2.87
				c-0.559,0.489-1.237,1.036-2.043,1.644c-0.803,0.604-1.518,1.14-2.146,1.604h8.511v2.373h0.004v-0.005L1189.467,564.972
				L1189.467,564.972z"/>
		</g>
	</g>
	<g id="A_SVGStep9">
		<g enable-background="new    ">
			<path d="M1104.77,510.973h-3.604l-2.495-7.092h-11.007l-2.494,7.092h-3.437l9.265-25.443h4.512L1104.77,510.973z
				 M1097.627,500.975l-4.462-12.488l-4.479,12.488H1097.627z"/>
			<path d="M1127.823,503.146c0,1.265-0.239,2.382-0.719,3.35c-0.479,0.969-1.121,1.767-1.933,2.393
				c-0.957,0.752-2.009,1.288-3.154,1.606c-1.146,0.319-2.6,0.479-4.362,0.479h-9.022V485.53h7.535c1.856,0,3.247,0.064,4.171,0.205
				c0.923,0.137,1.806,0.422,2.648,0.854c0.935,0.489,1.608,1.119,2.033,1.888c0.422,0.771,0.633,1.689,0.633,2.765
				c0,1.207-0.312,2.231-0.924,3.084c-0.615,0.85-1.438,1.525-2.461,2.043v0.137c1.721,0.354,3.073,1.107,4.065,2.264
				C1127.327,499.919,1127.823,501.38,1127.823,503.146z M1122.133,491.678c0-0.611-0.103-1.133-0.308-1.555
				c-0.204-0.421-0.536-0.763-0.991-1.025c-0.535-0.308-1.186-0.498-1.947-0.568c-0.764-0.074-1.709-0.111-2.838-0.111h-4.033v7.349
				h4.375c1.063,0,1.902-0.054,2.529-0.159c0.627-0.107,1.208-0.332,1.744-0.678c0.535-0.342,0.914-0.779,1.137-1.322
				C1122.021,493.06,1122.133,492.419,1122.133,491.678z M1124.304,503.282c0-1.025-0.15-1.84-0.462-2.444
				c-0.308-0.604-0.865-1.116-1.674-1.537c-0.548-0.285-1.212-0.471-1.992-0.556c-0.779-0.086-1.729-0.128-2.846-0.128h-5.314v9.467
				h4.479c1.479,0,2.693-0.076,3.641-0.229c0.945-0.153,1.723-0.438,2.324-0.85c0.638-0.44,1.104-0.951,1.4-1.521
				C1124.155,504.917,1124.304,504.183,1124.304,503.282z"/>
			<path d="M1153.663,497.608h-20.271v-2.734h20.271V497.608z M1153.663,504.786h-20.271v-2.734h20.271V504.786z"/>
			<path d="M1180.461,503.146c0,1.265-0.238,2.382-0.718,3.35c-0.479,0.969-1.123,1.767-1.932,2.393
				c-0.957,0.752-2.011,1.288-3.154,1.606c-1.146,0.319-2.603,0.479-4.364,0.479h-9.023V485.53h7.537
				c1.854,0,3.246,0.064,4.17,0.205c0.925,0.137,1.808,0.422,2.648,0.854c0.934,0.489,1.61,1.119,2.032,1.888
				c0.422,0.771,0.634,1.689,0.634,2.765c0,1.207-0.31,2.231-0.925,3.084c-0.614,0.85-1.438,1.525-2.461,2.043v0.137
				c1.722,0.354,3.076,1.107,4.065,2.264C1179.965,499.919,1180.461,501.38,1180.461,503.146z M1174.77,491.678
				c0-0.611-0.102-1.133-0.307-1.555c-0.205-0.421-0.537-0.763-0.992-1.025c-0.535-0.308-1.187-0.498-1.944-0.568
				c-0.767-0.074-1.709-0.111-2.84-0.111h-4.031v7.349h4.375c1.062,0,1.899-0.054,2.526-0.159c0.63-0.107,1.207-0.332,1.744-0.678
				c0.535-0.342,0.914-0.779,1.14-1.322C1174.657,493.06,1174.77,492.419,1174.77,491.678z M1176.941,503.282
				c0-1.025-0.154-1.84-0.463-2.444c-0.31-0.604-0.865-1.116-1.677-1.537c-0.547-0.285-1.211-0.471-1.989-0.556
				c-0.779-0.086-1.729-0.128-2.847-0.128h-5.313v9.467h4.479c1.479,0,2.692-0.076,3.644-0.229c0.942-0.153,1.719-0.438,2.321-0.85
				c0.64-0.44,1.104-0.951,1.4-1.521C1176.793,504.917,1176.941,504.183,1176.941,503.282z"/>
			<path d="M1206.762,498.275c0,2.313-0.504,4.404-1.512,6.289c-1.009,1.879-2.351,3.338-4.025,4.375
				c-1.162,0.717-2.457,1.232-3.887,1.555c-1.433,0.315-3.313,0.479-5.646,0.479h-6.429v-25.443h6.356
				c2.482,0,4.457,0.18,5.923,0.539c1.463,0.354,2.7,0.852,3.717,1.479c1.729,1.082,3.082,2.523,4.054,4.323
				C1206.277,493.667,1206.762,495.803,1206.762,498.275z M1203.225,498.224c0-1.989-0.348-3.675-1.043-5.042
				c-0.692-1.363-1.729-2.439-3.106-3.229c-1.004-0.569-2.067-0.966-3.194-1.188c-1.129-0.223-2.479-0.333-4.051-0.333h-3.184v19.64
				h3.184c1.629,0,3.051-0.12,4.264-0.358c1.213-0.24,2.326-0.684,3.345-1.334c1.265-0.809,2.213-1.873,2.844-3.195
				C1202.909,501.86,1203.225,500.206,1203.225,498.224z"/>
			<path d="M1233.268,497.608H1213v-2.734h20.268V497.608z M1233.268,504.786H1213v-2.734h20.268V504.786z"/>
			<path d="M1255.98,510.973h-13.772v-2.598h5.297v-17.056h-5.297v-2.324c0.717,0,1.485-0.063,2.307-0.18
				c0.821-0.119,1.441-0.293,1.863-0.521c0.522-0.285,0.938-0.646,1.237-1.086c0.304-0.438,0.478-1.027,0.521-1.769h2.647v22.935
				h5.194v2.599H1255.98z"/>
		</g>
	</g>
	<g id="A_SVGStep8">
		<g>
			
				<rect x="655.769" y="480.69" transform="matrix(0.8661 0.4999 -0.4999 0.8661 352.7911 -353.5765)" width="361.141" height="2"/>
			<path d="M992.416,573.516l-0.433-0.25L678.776,392.487l1.5-2.599l313.641,181.029L992.416,573.516z M680.142,392.121
				l311.91,180.029l0.5-0.866l-311.91-180.029L680.142,392.121z"/>
		</g>
		<g id="A_text_10_" enable-background="new    ">
			<path d="M1039.725,565.275c0,2.313-0.504,4.404-1.512,6.289c-1.009,1.879-2.351,3.338-4.025,4.375
				c-1.159,0.717-2.457,1.232-3.887,1.555c-1.432,0.318-3.313,0.479-5.646,0.479h-6.429v-25.443h6.356
				c2.482,0,4.457,0.18,5.923,0.539c1.463,0.354,2.702,0.852,3.717,1.479c1.729,1.082,3.082,2.523,4.053,4.323
				C1039.24,560.667,1039.725,562.802,1039.725,565.275z M1036.188,565.223c0-1.989-0.348-3.675-1.043-5.042
				c-0.692-1.363-1.729-2.439-3.105-3.229c-1.005-0.569-2.068-0.966-3.196-1.188c-1.128-0.222-2.479-0.333-4.05-0.333h-3.181v19.64
				h3.181c1.629,0,3.051-0.12,4.264-0.358c1.213-0.24,2.326-0.684,3.341-1.334c1.268-0.809,2.217-1.873,2.848-3.195
				C1035.87,568.858,1036.188,567.206,1036.188,565.223z"/>
			<path d="M697.943,368.992c0,1.265-0.239,2.382-0.721,3.35c-0.479,0.969-1.123,1.767-1.932,2.393
				c-0.956,0.752-2.008,1.288-3.152,1.606c-1.146,0.319-2.602,0.479-4.363,0.479h-9.022v-25.447h7.536
				c1.854,0,3.247,0.068,4.17,0.205c0.924,0.137,1.807,0.422,2.648,0.855c0.935,0.489,1.61,1.119,2.032,1.888
				c0.421,0.77,0.634,1.689,0.634,2.761c0,1.207-0.31,2.235-0.925,3.084c-0.612,0.85-1.437,1.529-2.461,2.043v0.137
				c1.722,0.353,3.076,1.107,4.066,2.264C697.447,365.766,697.943,367.227,697.943,368.992z M692.252,357.524
				c0-0.615-0.104-1.133-0.309-1.555c-0.205-0.421-0.536-0.763-0.991-1.025c-0.536-0.308-1.188-0.498-1.947-0.572
				c-0.765-0.074-1.709-0.111-2.837-0.111h-4.033v7.349h4.375c1.063,0,1.901-0.054,2.528-0.162c0.626-0.108,1.208-0.333,1.743-0.675
				c0.535-0.342,0.914-0.783,1.138-1.325C692.141,358.906,692.252,358.266,692.252,357.524z M694.422,369.129
				c0-1.025-0.154-1.84-0.461-2.444c-0.309-0.604-0.866-1.116-1.676-1.537c-0.547-0.285-1.211-0.471-1.99-0.556
				c-0.78-0.086-1.729-0.128-2.846-0.128h-5.314v9.467h4.479c1.479,0,2.691-0.076,3.641-0.23c0.944-0.153,1.72-0.436,2.323-0.846
				c0.639-0.444,1.104-0.951,1.4-1.521S694.422,370.029,694.422,369.129z"/>
		</g>
	</g>
	<g id="A_SVGStep7">
		<path d="M685.933,571.974c0,3.313-2.688,6-6,6l0,0c-3.313,0-6-2.688-6-6l0,0c0-3.313,2.688-6,6-6l0,0
			C683.246,565.974,685.933,568.659,685.933,571.974L685.933,571.974z"/>
		<g id="A_text_4_" enable-background="new    ">
			<path d="M712.115,558.973H695.35v-25.443h16.768v3.008h-13.381v6.973h13.381v3.008h-13.381v9.451h13.381
				L712.115,558.973L712.115,558.973z"/>
		</g>
	</g>
	<g id="A_SVGStep6">
		<g>
			<rect x="367.178" y="570.974" width="625.515" height="2"/>
			<path d="M993.192,573.474H366.678v-3h626.515L993.192,573.474L993.192,573.474z M367.678,572.474h624.515v-1H367.678
				V572.474z"/>
			<g id="A_text_11_" enable-background="new    ">
				<path d="M1039.725,565.275c0,2.313-0.504,4.404-1.512,6.289c-1.009,1.879-2.351,3.338-4.025,4.375
					c-1.159,0.717-2.457,1.232-3.887,1.555c-1.432,0.318-3.313,0.479-5.646,0.479h-6.429v-25.443h6.356
					c2.482,0,4.457,0.18,5.923,0.539c1.463,0.354,2.702,0.852,3.717,1.479c1.729,1.082,3.082,2.523,4.053,4.323
					C1039.24,560.667,1039.725,562.802,1039.725,565.275z M1036.188,565.223c0-1.989-0.348-3.675-1.043-5.042
					c-0.692-1.363-1.729-2.439-3.105-3.229c-1.005-0.569-2.068-0.966-3.196-1.188c-1.128-0.222-2.479-0.333-4.05-0.333h-3.181v19.64
					h3.181c1.629,0,3.051-0.12,4.264-0.358c1.213-0.24,2.326-0.684,3.341-1.334c1.268-0.809,2.217-1.873,2.848-3.195
					C1035.87,568.858,1036.188,567.206,1036.188,565.223z"/>
				<path d="M341.879,577.126c-0.627,0.273-1.194,0.529-1.7,0.771c-0.507,0.237-1.171,0.488-1.991,0.755
					c-0.692,0.216-1.447,0.397-2.265,0.555c-0.813,0.154-1.712,0.229-2.688,0.229c-1.849,0-3.522-0.259-5.033-0.773
					c-1.51-0.521-2.822-1.33-3.938-2.438c-1.094-1.082-1.947-2.457-2.563-4.127c-0.614-1.669-0.923-3.604-0.923-5.814
					c0-2.101,0.296-3.975,0.89-5.623c0.592-1.651,1.446-3.048,2.563-4.188c1.082-1.104,2.393-1.946,3.925-2.526
					c1.529-0.579,3.229-0.87,5.102-0.87c1.366,0,2.73,0.164,4.093,0.495c1.361,0.328,2.874,0.908,4.537,1.739v4.021h-0.256
					c-1.401-1.173-2.792-2.027-4.171-2.563c-1.379-0.534-2.854-0.803-4.426-0.803c-1.288,0-2.446,0.208-3.479,0.623
					c-1.032,0.416-1.952,1.063-2.761,1.938c-0.785,0.854-1.398,1.937-1.837,3.237c-0.438,1.306-0.657,2.813-0.657,4.521
					c0,1.788,0.241,3.324,0.727,4.609c0.483,1.288,1.107,2.337,1.871,3.146c0.8,0.844,1.729,1.468,2.795,1.872
					c1.064,0.402,2.189,0.604,3.375,0.604c1.631,0,3.155-0.275,4.579-0.838c1.427-0.558,2.76-1.395,3.999-2.512h0.239
					L341.879,577.126L341.879,577.126z"/>
			</g>
		</g>
	</g>
	<g id="A_SVGStep5">
		<path display="inline" d="M998.69,571.974c0,3.313-2.689,6-6,6l0,0c-3.314,0-6-2.687-6-6l0,0c0-3.313,2.688-6,6-6l0,0
			C996.003,565.974,998.69,568.659,998.69,571.974L998.69,571.974z"/>
		<g id="A_text_5_" display="inline" enable-background="new    ">
			<path d="M1039.725,565.275c0,2.313-0.504,4.404-1.512,6.289c-1.009,1.879-2.351,3.338-4.025,4.375
				c-1.159,0.717-2.457,1.232-3.887,1.555c-1.432,0.318-3.313,0.479-5.646,0.479h-6.429v-25.443h6.356
				c2.482,0,4.457,0.18,5.923,0.539c1.463,0.354,2.702,0.852,3.717,1.479c1.729,1.082,3.082,2.523,4.053,4.323
				C1039.24,560.667,1039.725,562.802,1039.725,565.275z M1036.188,565.223c0-1.989-0.348-3.675-1.043-5.042
				c-0.692-1.363-1.729-2.439-3.105-3.229c-1.005-0.569-2.068-0.966-3.196-1.188c-1.128-0.222-2.479-0.333-4.05-0.333h-3.181v19.64
				h3.181c1.629,0,3.051-0.12,4.264-0.358c1.213-0.24,2.326-0.684,3.341-1.334c1.268-0.809,2.217-1.873,2.848-3.195
				C1035.87,568.858,1036.188,567.206,1036.188,565.223z"/>
		</g>
	</g>
	<g id="A_SVGStep4">
		<path display="inline" d="M373.178,571.974c0,3.314-2.688,6-6,6l0,0c-3.313,0-6-2.686-6-6l0,0c0-3.313,2.688-6,6-6
			l0,0C370.49,565.974,373.178,568.66,373.178,571.974L373.178,571.974z"/>
		<g id="A_text_6_" display="inline" enable-background="new    ">
			<path d="M341.879,577.126c-0.627,0.273-1.194,0.529-1.7,0.771c-0.507,0.237-1.171,0.488-1.991,0.755
				c-0.692,0.216-1.447,0.397-2.265,0.555c-0.813,0.154-1.712,0.229-2.688,0.229c-1.849,0-3.522-0.259-5.033-0.773
				c-1.51-0.521-2.822-1.33-3.938-2.438c-1.094-1.082-1.947-2.457-2.563-4.127c-0.614-1.669-0.923-3.604-0.923-5.814
				c0-2.101,0.296-3.975,0.89-5.623c0.592-1.651,1.446-3.048,2.563-4.188c1.082-1.104,2.393-1.946,3.925-2.526
				c1.529-0.579,3.229-0.87,5.102-0.87c1.366,0,2.73,0.164,4.093,0.495c1.361,0.328,2.874,0.908,4.537,1.739v4.021h-0.256
				c-1.401-1.173-2.792-2.027-4.171-2.563c-1.379-0.534-2.854-0.803-4.426-0.803c-1.288,0-2.446,0.208-3.479,0.623
				c-1.032,0.416-1.952,1.063-2.761,1.938c-0.785,0.854-1.398,1.937-1.837,3.237c-0.438,1.306-0.657,2.813-0.657,4.521
				c0,1.788,0.241,3.324,0.727,4.609c0.483,1.288,1.107,2.337,1.871,3.146c0.8,0.844,1.729,1.468,2.795,1.872
				c1.064,0.402,2.189,0.604,3.375,0.604c1.631,0,3.155-0.275,4.579-0.838c1.427-0.558,2.76-1.395,3.999-2.512h0.239
				L341.879,577.126L341.879,577.126z"/>
		</g>
	</g>
	<g id="A_SVGStep3">
		<g>
			<path d="M679.933,753.504c-48.878,0-96.294-9.573-140.933-28.453c-43.114-18.231-81.835-44.342-115.086-77.593
				s-59.356-71.971-77.593-115.085c-18.88-44.638-28.453-92.054-28.453-140.932c0-48.878,9.573-96.294,28.453-140.932
				c18.233-43.114,44.342-81.834,77.593-115.085S495.886,76.067,539,57.831c44.638-18.88,92.055-28.453,140.933-28.453
				c48.877,0,96.293,9.573,140.934,28.453c43.112,18.236,81.835,44.342,115.086,77.593s59.354,71.971,77.594,115.085
				c18.88,44.638,28.452,92.054,28.452,140.932c0,48.878-9.572,96.294-28.452,140.932c-18.236,43.114-44.343,81.834-77.594,115.085
				s-71.975,59.357-115.086,77.593C776.227,743.931,728.811,753.504,679.933,753.504z M679.933,31.378
				c-198.54,0-360.063,161.523-360.063,360.063c0,198.54,161.521,360.063,360.063,360.063s360.063-161.523,360.063-360.063
				C1039.995,192.901,878.473,31.378,679.933,31.378z"/>
			<path d="M679.933,754.004c-48.944,0-96.426-9.586-141.126-28.492c-43.167-18.255-81.941-44.396-115.245-77.699
				c-33.298-33.299-59.44-72.071-77.7-115.244c-18.906-44.7-28.493-92.183-28.493-141.127c0-48.944,9.586-96.426,28.493-141.127
				c18.257-43.169,44.399-81.943,77.7-115.244c33.297-33.297,72.071-59.439,115.245-77.7
				c44.699-18.906,92.181-28.493,141.126-28.493c48.942,0,96.425,9.586,141.128,28.493c43.176,18.263,81.95,44.405,115.245,77.7
				c33.291,33.291,59.433,72.064,77.7,115.244c18.905,44.701,28.491,92.183,28.491,141.127c0,48.945-9.586,96.427-28.491,141.127
				c-18.263,43.174-44.404,81.947-77.7,115.244c-33.295,33.295-72.069,59.438-115.245,77.698
				C776.359,744.418,728.875,754.004,679.933,754.004z M679.933,29.878c-48.812,0-96.162,9.56-140.737,28.414
				c-43.054,18.21-81.722,44.28-114.927,77.486c-33.209,33.209-59.279,71.876-77.486,114.926
				c-18.854,44.577-28.414,91.928-28.414,140.737c0,48.81,9.561,96.161,28.414,140.737c18.209,43.053,44.279,81.721,77.486,114.926
				c33.212,33.213,71.879,59.281,114.927,77.485c44.576,18.854,91.927,28.414,140.737,28.414c48.809,0,96.161-9.56,140.739-28.414
				c43.056-18.212,81.723-44.281,114.927-77.485c33.205-33.204,59.273-71.871,77.485-114.926
				c18.854-44.576,28.413-91.927,28.413-140.737s-9.56-96.161-28.414-140.737c-18.216-43.06-44.285-81.727-77.484-114.926
				c-33.203-33.204-71.871-59.273-114.927-77.486C776.092,39.438,728.74,29.878,679.933,29.878z M679.933,752.004
				c-198.815,0-360.563-161.748-360.563-360.563S481.117,30.878,679.933,30.878c198.814,0,360.563,161.748,360.563,360.563
				S878.747,752.004,679.933,752.004z M679.933,31.878c-198.264,0-359.563,161.299-359.563,359.563s161.3,359.563,359.563,359.563
				s359.563-161.299,359.563-359.563S878.196,31.878,679.933,31.878z"/>
		</g>
		<g id="A_text_7_" enable-background="new    ">
			<path d="M711.814,740.627h-3.606l-2.494-7.092h-11.006l-2.495,7.092h-3.436l9.263-25.447h4.513L711.814,740.627z
				 M704.671,730.629l-4.46-12.492l-4.479,12.492H704.671z"/>
			<path d="M697.943,368.992c0,1.265-0.239,2.382-0.721,3.35c-0.479,0.969-1.123,1.767-1.932,2.393
				c-0.956,0.752-2.008,1.288-3.152,1.606c-1.146,0.319-2.602,0.479-4.363,0.479h-9.022v-25.447h7.536
				c1.854,0,3.247,0.068,4.17,0.205c0.924,0.137,1.807,0.422,2.648,0.855c0.935,0.489,1.61,1.119,2.032,1.888
				c0.421,0.77,0.634,1.689,0.634,2.761c0,1.207-0.31,2.235-0.925,3.084c-0.612,0.85-1.437,1.529-2.461,2.043v0.137
				c1.722,0.353,3.076,1.107,4.066,2.264C697.447,365.766,697.943,367.227,697.943,368.992z M692.252,357.524
				c0-0.615-0.104-1.133-0.309-1.555c-0.205-0.421-0.536-0.763-0.991-1.025c-0.536-0.308-1.188-0.498-1.947-0.572
				c-0.765-0.074-1.709-0.111-2.837-0.111h-4.033v7.349h4.375c1.063,0,1.901-0.054,2.528-0.162c0.626-0.108,1.208-0.333,1.743-0.675
				c0.535-0.342,0.914-0.783,1.138-1.325C692.141,358.906,692.252,358.266,692.252,357.524z M694.422,369.129
				c0-1.025-0.154-1.84-0.461-2.444c-0.309-0.604-0.866-1.116-1.676-1.537c-0.547-0.285-1.211-0.471-1.99-0.556
				c-0.78-0.086-1.729-0.128-2.846-0.128h-5.314v9.467h4.479c1.479,0,2.691-0.076,3.641-0.23c0.944-0.153,1.72-0.436,2.323-0.846
				c0.639-0.444,1.104-0.951,1.4-1.521S694.422,370.029,694.422,369.129z"/>
		</g>
	</g>
	<g id="A_SVGStep2">
		<g id="A_text_9_" enable-background="new    ">
			<path d="M711.814,740.627h-3.606l-2.494-7.092h-11.006l-2.495,7.092h-3.436l9.263-25.447h4.513L711.814,740.627z
				 M704.671,730.629l-4.46-12.492l-4.479,12.492H704.671z"/>
			<path d="M697.943,368.992c0,1.265-0.239,2.382-0.721,3.35c-0.479,0.969-1.123,1.767-1.932,2.393
				c-0.956,0.752-2.008,1.288-3.152,1.606c-1.146,0.319-2.602,0.479-4.363,0.479h-9.022v-25.447h7.536
				c1.854,0,3.247,0.068,4.17,0.205c0.924,0.137,1.807,0.422,2.648,0.855c0.935,0.489,1.61,1.119,2.032,1.888
				c0.421,0.77,0.634,1.689,0.634,2.761c0,1.207-0.31,2.235-0.925,3.084c-0.612,0.85-1.437,1.529-2.461,2.043v0.137
				c1.722,0.353,3.076,1.107,4.066,2.264C697.447,365.766,697.943,367.227,697.943,368.992z M692.252,357.524
				c0-0.615-0.104-1.133-0.309-1.555c-0.205-0.421-0.536-0.763-0.991-1.025c-0.536-0.308-1.188-0.498-1.947-0.572
				c-0.765-0.074-1.709-0.111-2.837-0.111h-4.033v7.349h4.375c1.063,0,1.901-0.054,2.528-0.162c0.626-0.108,1.208-0.333,1.743-0.675
				c0.535-0.342,0.914-0.783,1.138-1.325C692.141,358.906,692.252,358.266,692.252,357.524z M694.422,369.129
				c0-1.025-0.154-1.84-0.461-2.444c-0.309-0.604-0.866-1.116-1.676-1.537c-0.547-0.285-1.211-0.471-1.99-0.556
				c-0.78-0.086-1.729-0.128-2.846-0.128h-5.314v9.467h4.479c1.479,0,2.691-0.076,3.641-0.23c0.944-0.153,1.72-0.436,2.323-0.846
				c0.639-0.444,1.104-0.951,1.4-1.521S694.422,370.029,694.422,369.129z"/>
		</g>
		<g>
			<rect x="678.933" y="391.441" width="2" height="361.063"/>
			<path d="M681.433,753.004h-3V390.941h3V753.004z M679.433,752.004h1V391.941h-1V752.004z"/>
		</g>
		<path d="M685.933,391.441c0,3.314-2.688,6-6,6l0,0c-3.313,0-6-2.688-6-6l0,0c0-3.313,2.688-6,6-6l0,0
			C683.246,385.441,685.933,388.128,685.933,391.441L685.933,391.441z"/>
	</g>
	<g id="A_SVGStep1">
		<g id="A_text_8_" enable-background="new    ">
			<path d="M711.814,740.627h-3.606l-2.494-7.092h-11.006l-2.495,7.092h-3.436l9.263-25.447h4.513L711.814,740.627z
				 M704.671,730.629l-4.46-12.492l-4.479,12.492H704.671z"/>
		</g>
		<g>
			<path d="M679.933,1114.567c-48.878,0-96.294-9.573-140.933-28.453c-43.114-18.235-81.835-44.343-115.086-77.593
				c-33.251-33.255-59.356-71.976-77.593-115.09c-18.88-44.638-28.453-92.054-28.453-140.932s9.573-96.294,28.453-140.932
				c18.233-43.114,44.342-81.834,77.593-115.085S495.886,437.126,539,418.887c44.638-18.88,92.055-28.453,140.933-28.453
				c48.877,0,96.293,9.573,140.934,28.453c43.112,18.236,81.835,44.346,115.086,77.597s59.354,71.971,77.594,115.085
				c18.88,44.638,28.452,92.054,28.452,140.932s-9.572,96.294-28.452,140.933c-18.236,43.113-44.343,81.835-77.594,115.087
				s-71.975,59.355-115.086,77.595C776.227,1104.994,728.811,1114.567,679.933,1114.567z M679.933,392.441
				c-198.54,0-360.063,161.523-360.063,360.063s161.521,360.063,360.063,360.063s360.063-161.523,360.063-360.063
				S878.473,392.441,679.933,392.441z"/>
			<path d="M679.933,1115.067c-48.944,0-96.426-9.587-141.126-28.492c-43.171-18.26-81.945-44.401-115.245-77.7
				c-33.298-33.301-59.44-72.076-77.7-115.248c-18.906-44.7-28.493-92.182-28.493-141.126s9.586-96.426,28.493-141.127
				c18.256-43.168,44.398-81.942,77.7-115.243c33.296-33.296,72.07-59.438,115.245-77.703
				c44.698-18.905,92.18-28.492,141.126-28.492c48.944,0,96.426,9.586,141.128,28.492c43.173,18.263,81.947,44.405,115.245,77.703
				c33.291,33.291,59.434,72.064,77.7,115.243c18.905,44.701,28.491,92.183,28.491,141.127s-9.586,96.426-28.491,141.127
				c-18.264,43.176-44.405,81.95-77.7,115.246c-33.291,33.291-72.065,59.435-115.245,77.7
				C776.359,1105.48,728.875,1115.067,679.933,1115.067z M679.933,390.936c-48.813,0-96.163,9.56-140.737,28.413
				c-43.055,18.214-81.722,44.284-114.927,77.489c-33.209,33.209-59.28,71.876-77.486,114.926
				c-18.854,44.577-28.414,91.929-28.414,140.737c0,48.81,9.561,96.16,28.414,140.736c18.209,43.053,44.279,81.721,77.486,114.931
				c33.208,33.207,71.875,59.277,114.927,77.485c44.576,18.854,91.927,28.414,140.737,28.414c48.809,0,96.161-9.561,140.739-28.414
				c43.061-18.216,81.727-44.287,114.927-77.486c33.203-33.204,59.272-71.872,77.486-114.928
				c18.854-44.578,28.413-91.929,28.413-140.738c0-48.809-9.561-96.16-28.414-140.737c-18.217-43.06-44.286-81.726-77.485-114.926
				c-33.206-33.206-71.873-59.276-114.927-77.488C776.093,400.496,728.741,390.936,679.933,390.936z M679.933,1113.067
				c-198.815,0-360.563-161.748-360.563-360.563c0-198.814,161.748-360.563,360.563-360.563
				c198.814,0,360.563,161.749,360.563,360.563C1040.495,951.319,878.747,1113.067,679.933,1113.067z M679.933,392.941
				c-198.264,0-359.563,161.299-359.563,359.563s161.3,359.563,359.563,359.563s359.563-161.301,359.563-359.563
				S878.196,392.941,679.933,392.941z"/>
		</g>
		<path d="M685.933,752.504c0,3.313-2.688,6-6,6l0,0c-3.313,0-6-2.688-6-6l0,0c0-3.313,2.688-6,6-6l0,0
			C683.246,746.504,685.933,749.189,685.933,752.504L685.933,752.504z"/>
	</g>
</g>
</svg>
