<?xml version="1.0" encoding="utf-8"?>
<!-- Generator: Adobe Illustrator 16.0.0, SVG Export Plug-In . SVG Version: 6.00 Build 0)  -->
<!DOCTYPE svg PUBLIC "-//W3C//DTD SVG 1.1//EN" "http://www.w3.org/Graphics/SVG/1.1/DTD/svg11.dtd">
<svg version="1.1" id="A_detailCompletedFOL" xmlns="http://www.w3.org/2000/svg" xmlns:xlink="http://www.w3.org/1999/xlink"
	 x="0px" y="0px" width="3717px" height="2478px" viewBox="0 0 3717 2478" enable-background="new 0 0 3717 2478"
	 xml:space="preserve">
<g id="A_SVGGroupSteps">
	<g id="A_SVGStep1">
		<path d="M1858.475,1464.98c-64.368,0-124.883-25.066-170.398-70.582c-45.515-45.515-70.581-106.03-70.581-170.398
			s25.066-124.883,70.581-170.399c45.515-45.515,106.03-70.582,170.398-70.582c64.369,0,124.884,25.066,170.399,70.582
			s70.581,106.031,70.581,170.399s-25.066,124.884-70.581,170.398C1983.359,1439.914,1922.844,1464.98,1858.475,1464.98z
			 M1858.475,985.02c-131.774,0-238.979,107.206-238.979,238.98s107.206,238.98,238.979,238.98
			c131.775,0,238.98-107.206,238.98-238.98S1990.25,985.02,1858.475,985.02z"/>
		<g id="A_text" enable-background="new    ">
			<path d="M1908.668,1257.662h-3.516l-2.432-6.915h-10.73l-2.434,6.915h-3.349l9.03-24.81h4.399L1908.668,1257.662z
				 M1901.703,1247.915l-4.348-12.18l-4.365,12.18H1901.703z"/>
		</g>
		<path d="M1864.328,1224c0,3.229-2.619,5.851-5.851,5.851l0,0c-3.229,0-5.851-2.62-5.851-5.851l0,0
			c0-3.229,2.62-5.852,5.851-5.852l0,0C1861.707,1218.15,1864.328,1220.77,1864.328,1224L1864.328,1224z"/>
	</g>
	<g id="A_SVGStep2">
		<path d="M1858.475,1225.001c-64.368,0-124.883-25.066-170.398-70.581c-45.515-45.515-70.581-106.03-70.581-170.398
			c0-64.369,25.066-124.884,70.581-170.399c45.515-45.515,106.03-70.582,170.398-70.582c64.369,0,124.884,25.066,170.399,70.582
			c45.515,45.515,70.581,106.03,70.581,170.399c0,64.368-25.066,124.883-70.581,170.398
			C1983.359,1199.935,1922.844,1225.001,1858.475,1225.001z M1858.475,745.041c-131.774,0-238.979,107.206-238.979,238.98
			c0,131.774,107.206,238.979,238.979,238.979c131.775,0,238.98-107.206,238.98-238.979
			C2097.455,852.247,1990.25,745.041,1858.475,745.041z"/>
		<path d="M1864.326,984.021c0,3.229-2.619,5.852-5.85,5.852l0,0c-3.229,0-5.851-2.621-5.851-5.852l0,0
			c0-3.23,2.621-5.851,5.851-5.851l0,0C1861.705,978.171,1864.326,980.79,1864.326,984.021L1864.326,984.021z"/>
		<g id="A_text" enable-background="new    ">
			<path d="M1906.818,1010.552c0,1.232-0.232,2.321-0.699,3.266s-1.095,1.722-1.883,2.332
				c-0.934,0.733-1.958,1.256-3.074,1.566c-1.117,0.312-2.535,0.467-4.258,0.467h-8.797v-24.81h7.348c1.811,0,3.166,0.066,4.065,0.2
				c0.899,0.133,1.761,0.411,2.583,0.833c0.91,0.478,1.571,1.091,1.982,1.841s0.617,1.647,0.617,2.691c0,1.177-0.301,2.18-0.9,3.007
				c-0.6,0.828-1.399,1.491-2.399,1.991v0.134c1.677,0.344,2.999,1.08,3.966,2.207
				C1906.336,1007.405,1906.818,1008.83,1906.818,1010.552z M1901.27,999.371c0-0.6-0.1-1.104-0.299-1.516
				c-0.2-0.411-0.522-0.744-0.967-1c-0.522-0.3-1.155-0.486-1.899-0.559s-1.666-0.108-2.767-0.108h-3.932v7.165h4.266
				c1.033,0,1.855-0.053,2.466-0.158s1.177-0.325,1.7-0.658c0.521-0.333,0.891-0.764,1.107-1.291S1901.27,1000.094,1901.27,999.371z
				 M1903.387,1010.685c0-1-0.15-1.794-0.45-2.383c-0.3-0.588-0.845-1.088-1.633-1.499c-0.533-0.277-1.181-0.458-1.941-0.542
				c-0.761-0.083-1.686-0.125-2.774-0.125h-5.182v9.231h4.365c1.444,0,2.627-0.075,3.549-0.226c0.922-0.149,1.678-0.425,2.267-0.824
				c0.622-0.434,1.077-0.928,1.366-1.483C1903.242,1012.279,1903.387,1011.563,1903.387,1010.685z"/>
		</g>
	</g>
	<g id="A_SVGStep3">
		<path d="M1656.451,1104.011c0,3.229-2.618,5.852-5.85,5.852l0,0c-3.229,0-5.851-2.622-5.851-5.852l0,0
			c0-3.229,2.622-5.852,5.851-5.852l0,0C1653.832,1098.16,1656.451,1100.778,1656.451,1104.011L1656.451,1104.011z"/>
		<g id="A_text" enable-background="new    ">
			<path d="M1698.641,1137.362c-0.611,0.267-1.164,0.517-1.658,0.75c-0.495,0.233-1.142,0.478-1.941,0.733
				c-0.678,0.211-1.414,0.392-2.208,0.541c-0.794,0.15-1.669,0.226-2.625,0.226c-1.799,0-3.435-0.253-4.907-0.759
				c-1.472-0.505-2.752-1.297-3.841-2.374c-1.066-1.055-1.899-2.396-2.499-4.023c-0.6-1.628-0.9-3.519-0.9-5.674
				c0-2.044,0.289-3.871,0.867-5.481c0.577-1.61,1.41-2.972,2.499-4.082c1.055-1.078,2.33-1.899,3.824-2.467
				c1.494-0.566,3.151-0.85,4.973-0.85c1.333,0,2.663,0.161,3.991,0.483c1.327,0.322,2.802,0.889,4.424,1.699v3.916h-0.25
				c-1.366-1.144-2.722-1.978-4.065-2.499c-1.344-0.522-2.783-0.783-4.315-0.783c-1.255,0-2.386,0.202-3.391,0.608
				c-1.005,0.405-1.902,1.035-2.691,1.891c-0.767,0.833-1.364,1.886-1.792,3.157c-0.428,1.272-0.641,2.741-0.641,4.407
				c0,1.744,0.236,3.244,0.708,4.499s1.08,2.277,1.824,3.065c0.778,0.822,1.686,1.431,2.725,1.824
				c1.039,0.395,2.135,0.592,3.291,0.592c1.588,0,3.077-0.271,4.465-0.816c1.389-0.544,2.688-1.36,3.899-2.449h0.233V1137.362z"/>
		</g>
	</g>
	<g id="A_SVGStep4">
		<path d="M1650.601,1344.99c-64.368,0-124.884-25.066-170.399-70.582c-45.515-45.515-70.582-106.03-70.582-170.398
			s25.066-124.883,70.582-170.398c45.515-45.515,106.03-70.581,170.399-70.581c64.368,0,124.883,25.066,170.398,70.581
			c45.514,45.515,70.581,106.03,70.581,170.398s-25.066,124.883-70.581,170.398
			C1775.484,1319.924,1714.969,1344.99,1650.601,1344.99z M1650.601,865.03c-131.774,0-238.98,107.206-238.98,238.979
			c0,131.774,107.206,238.98,238.98,238.98c131.774,0,238.979-107.206,238.979-238.98
			C1889.58,972.236,1782.375,865.03,1650.601,865.03z"/>
	</g>
	<g id="A_SVGStep5">
		<path d="M1656.45,1343.99c0,3.229-2.618,5.852-5.85,5.852l0,0c-3.229,0-5.85-2.621-5.85-5.852l0,0
			c0-3.229,2.622-5.852,5.85-5.852l0,0C1653.83,1338.14,1656.45,1340.759,1656.45,1343.99L1656.45,1343.99z"/>
		<g id="A_text" enable-background="new    ">
			<path d="M1702.44,1366.108c0,2.255-0.491,4.299-1.475,6.132c-0.983,1.833-2.291,3.255-3.924,4.266
				c-1.133,0.699-2.396,1.205-3.791,1.516c-1.394,0.312-3.23,0.467-5.507,0.467h-6.265v-24.81h6.198
				c2.421,0,4.346,0.175,5.773,0.524c1.427,0.351,2.635,0.831,3.624,1.441c1.688,1.056,3.005,2.461,3.949,4.216
				C1701.968,1361.615,1702.44,1363.698,1702.44,1366.108z M1698.991,1366.059c0-1.943-0.339-3.582-1.017-4.915
				c-0.678-1.333-1.688-2.383-3.032-3.149c-0.978-0.556-2.016-0.941-3.116-1.158c-1.1-0.217-2.416-0.325-3.949-0.325h-3.099v19.145
				h3.099c1.588,0,2.974-0.116,4.157-0.35s2.269-0.666,3.257-1.3c1.233-0.788,2.158-1.827,2.774-3.115
				C1698.683,1369.602,1698.991,1367.991,1698.991,1366.059z"/>
		</g>
	</g>
	<g id="A_SVGStep6">
		<path d="M1650.6,1584.97c-64.368,0-124.883-25.066-170.398-70.581c-45.515-45.515-70.581-106.03-70.581-170.397
			c0-64.368,25.066-124.883,70.581-170.398c45.515-45.515,106.03-70.581,170.398-70.581c64.368,0,124.883,25.066,170.397,70.581
			c45.514,45.515,70.581,106.03,70.581,170.398c0,64.367-25.066,124.883-70.581,170.397
			C1775.482,1559.903,1714.968,1584.97,1650.6,1584.97z M1650.6,1105.012c-131.774,0-238.979,107.206-238.979,238.979
			c0,131.773,107.206,238.979,238.979,238.979c131.773,0,238.978-107.205,238.978-238.979
			C1889.578,1212.217,1782.374,1105.012,1650.6,1105.012z"/>
	</g>
	<g id="A_SVGStep7">
		<path d="M1864.326,1463.98c0,3.229-2.619,5.852-5.85,5.852l0,0c-3.229,0-5.851-2.621-5.851-5.852l0,0
			c0-3.229,2.622-5.851,5.851-5.851l0,0C1861.705,1458.131,1864.326,1460.749,1864.326,1463.98L1864.326,1463.98z"/>
		<g id="A_text" enable-background="new    ">
			<path d="M1905.453,1498.776h-16.346v-24.81h16.346v2.933h-13.047v6.798h13.047v2.933h-13.047v9.214h13.047
				V1498.776z"/>
		</g>
	</g>
	<g id="A_SVGStep8">
		<path d="M1858.475,1704.96c-64.368,0-124.883-25.066-170.398-70.581c-45.515-45.515-70.581-106.03-70.581-170.398
			c0-64.367,25.066-124.883,70.581-170.397c45.515-45.515,106.03-70.581,170.398-70.581c64.368,0,124.882,25.066,170.398,70.581
			c45.514,45.515,70.58,106.03,70.58,170.397c0,64.368-25.066,124.883-70.58,170.398
			C1983.357,1679.894,1922.843,1704.96,1858.475,1704.96z M1858.475,1225.002c-131.774,0-238.979,107.205-238.979,238.979
			s107.206,238.979,238.979,238.979c131.773,0,238.978-107.206,238.978-238.979S1990.248,1225.002,1858.475,1225.002z"/>
	</g>
	<g id="A_SVGStep9">
		<path d="M2072.217,1343.99c0,3.229-2.621,5.852-5.852,5.852l0,0c-3.229,0-5.852-2.621-5.852-5.852l0,0
			c0-3.229,2.621-5.852,5.852-5.852l0,0C2069.598,1338.14,2072.217,1340.759,2072.217,1343.99L2072.217,1343.99z"/>
		<g id="A_text" enable-background="new    ">
			<path d="M2108.738,1354.611h-12.546v6.998h10.78v2.933h-10.78v11.946h-3.299v-24.81h15.845V1354.611z"/>
		</g>
	</g>
	<g id="A_SVGStep10">
		<path d="M2066.367,1584.97c-64.367,0-124.883-25.066-170.397-70.581s-70.581-106.03-70.581-170.397
			c0-64.368,25.066-124.883,70.581-170.398c45.515-45.515,106.03-70.581,170.397-70.581c64.369,0,124.884,25.066,170.398,70.581
			c45.515,45.515,70.58,106.03,70.58,170.398c0,64.367-25.065,124.883-70.58,170.397
			C2191.25,1559.903,2130.735,1584.97,2066.367,1584.97z M2066.367,1105.012c-131.772,0-238.978,107.206-238.978,238.979
			c0,131.773,107.206,238.979,238.978,238.979c131.773,0,238.979-107.205,238.979-238.979
			C2305.346,1212.217,2198.141,1105.012,2066.367,1105.012z"/>
	</g>
	<g id="A_SVGStep11">
		<path d="M2072.217,1104.012c0,3.229-2.621,5.851-5.852,5.851l0,0c-3.229,0-5.852-2.621-5.852-5.851l0,0
			c0-3.229,2.621-5.85,5.852-5.85l0,0C2069.598,1098.162,2072.217,1100.779,2072.217,1104.012L2072.217,1104.012z"/>
		<g id="A_text" enable-background="new    ">
			<path d="M2114.688,1137.329c-1.355,0.622-2.835,1.164-4.439,1.625c-1.605,0.461-3.158,0.691-4.657,0.691
				c-1.933,0-3.704-0.267-5.315-0.8c-1.61-0.533-2.982-1.333-4.115-2.399c-1.145-1.077-2.027-2.425-2.649-4.041
				s-0.933-3.507-0.933-5.673c0-3.966,1.158-7.095,3.474-9.389s5.495-3.441,9.539-3.441c1.411,0,2.852,0.17,4.323,0.509
				c1.473,0.339,3.059,0.913,4.758,1.725v3.915h-0.301c-0.344-0.267-0.844-0.616-1.499-1.05c-0.655-0.433-1.3-0.794-1.933-1.083
				c-0.767-0.344-1.637-0.63-2.607-0.857c-0.973-0.228-2.074-0.342-3.308-0.342c-2.777,0-4.974,0.892-6.59,2.674
				c-1.616,1.783-2.425,4.196-2.425,7.24c0,3.21,0.844,5.706,2.533,7.489c1.688,1.782,3.987,2.674,6.898,2.674
				c1.066,0,2.129-0.105,3.189-0.316s1.992-0.483,2.791-0.816v-6.082h-6.647v-2.898h9.913V1137.329z"/>
		</g>
	</g>
	<g id="A_SVGStep12">
		<path d="M2066.367,1344.991c-64.367,0-124.883-25.066-170.398-70.581
			c-45.515-45.516-70.582-106.031-70.582-170.399s25.066-124.883,70.582-170.398c45.516-45.515,106.031-70.581,170.398-70.581
			c64.369,0,124.884,25.066,170.399,70.581c45.515,45.515,70.581,106.03,70.581,170.398s-25.066,124.884-70.581,170.399
			C2191.252,1319.925,2130.736,1344.991,2066.367,1344.991z M2066.367,865.031c-131.773,0-238.98,107.206-238.98,238.979
			c0,131.774,107.207,238.98,238.98,238.98c131.775,0,238.98-107.206,238.98-238.98
			C2305.348,972.237,2198.143,865.031,2066.367,865.031z"/>
	</g>
	<g id="A_SVGStep13">
		<path d="M1656.452,864.031c0,3.229-2.622,5.85-5.85,5.85l0,0c-3.231,0-5.852-2.621-5.852-5.85l0,0
			c0-3.23,2.621-5.851,5.852-5.851l0,0C1653.832,858.182,1656.452,860.799,1656.452,864.031L1656.452,864.031z"/>
		<g id="A_text" enable-background="new    ">
			<path d="M1696.458,897.711h-3.299v-12.146h-12.38v12.146h-3.299v-24.81h3.299v9.73h12.38v-9.73h3.299V897.711z"/>
		</g>
	</g>
	<g id="A_SVGStep14">
		<path d="M1448.583,1223.979c0,3.23-2.622,5.851-5.85,5.851l0,0c-3.231,0-5.852-2.619-5.852-5.851l0,0
			c0-3.229,2.62-5.849,5.852-5.849l0,0C1445.963,1218.13,1448.583,1220.747,1448.583,1223.979L1448.583,1223.979z"/>
		<g id="A_text" enable-background="new    ">
			<path d="M1481.613,1257.662h-9.797v-2.532h3.249v-19.745h-3.249v-2.532h9.797v2.532h-3.249v19.745h3.249V1257.662
				z"/>
		</g>
	</g>
	<g id="A_SVGStep15">
		<path d="M1656.451,1583.97c0,3.229-2.622,5.851-5.85,5.851l0,0c-3.231,0-5.852-2.621-5.852-5.851l0,0
			c0-3.229,2.619-5.849,5.852-5.849l0,0C1653.83,1578.121,1656.451,1580.738,1656.451,1583.97L1656.451,1583.97z"/>
		<g id="A_text" enable-background="new    ">
			<path d="M1695.142,1614.405c0,2.178-0.664,3.854-1.991,5.032c-1.327,1.178-3.107,1.766-5.34,1.766
				c-0.533,0-1.244-0.047-2.133-0.142c-0.889-0.094-1.633-0.208-2.233-0.341v-3.083h0.184c0.455,0.155,1.016,0.316,1.683,0.483
				c0.667,0.166,1.35,0.25,2.049,0.25c1.022,0,1.835-0.117,2.441-0.351c0.605-0.232,1.052-0.566,1.341-0.999
				c0.3-0.444,0.491-0.988,0.575-1.633c0.083-0.645,0.125-1.389,0.125-2.233v-14.479h-5.249v-2.633h8.547V1614.405z"/>
		</g>
	</g>
	<g id="A_SVGStep16">
		<path d="M2072.219,1583.97c0,3.229-2.623,5.851-5.852,5.851l0,0c-3.23,0-5.854-2.621-5.854-5.851l0,0
			c0-3.229,2.621-5.849,5.854-5.849l0,0C2069.598,1578.121,2072.219,1580.738,2072.219,1583.97L2072.219,1583.97z"/>
		<g id="A_text" enable-background="new    ">
			<path d="M2115.938,1618.354h-4.282l-9.814-11.047l-2.465,2.633v8.414h-3.3v-24.81h3.3v12.946l12.046-12.946h3.999
				l-11.08,11.663L2115.938,1618.354z"/>
		</g>
	</g>
	<g id="A_SVGStep17">
		<path d="M2280.084,1223.979c0,3.23-2.623,5.851-5.852,5.851l0,0c-3.23,0-5.852-2.619-5.852-5.851l0,0
			c0-3.229,2.621-5.849,5.852-5.849l0,0C2277.463,1218.13,2280.084,1220.747,2280.084,1223.979L2280.084,1223.979z"/>
		<g id="A_text" enable-background="new    ">
			<path d="M2320.26,1256.662h-15.695v-24.81h3.299v21.877h12.396V1256.662z"/>
		</g>
	</g>
	<g id="A_SVGStep18">
		<path d="M2072.219,864.032c0,3.229-2.623,5.85-5.852,5.85l0,0c-3.23,0-5.854-2.621-5.854-5.85l0,0
			c0-3.229,2.621-5.85,5.854-5.85l0,0C2069.598,858.183,2072.219,860.801,2072.219,864.032L2072.219,864.032z"/>
		<g id="A_text" enable-background="new    ">
			<path d="M2120.088,900.915h-3.299v-21.377l-6.898,14.546h-1.967l-6.848-14.546v21.377h-3.082v-24.81h4.498
				l6.615,13.813l6.398-13.813h4.582V900.915z"/>
		</g>
	</g>
	<g id="A_SVGStep19">
		<path d="M1650.6,1105.012c-64.369,0-124.884-25.066-170.399-70.581c-45.515-45.515-70.582-106.03-70.582-170.398
			s25.066-124.884,70.582-170.399s106.031-70.582,170.399-70.582s124.883,25.066,170.398,70.582
			c45.515,45.516,70.582,106.031,70.582,170.399s-25.066,124.883-70.582,170.398
			C1775.483,1079.945,1714.968,1105.012,1650.6,1105.012z M1650.6,625.052c-131.774,0-238.98,107.206-238.98,238.98
			c0,131.774,107.206,238.979,238.98,238.979c131.774,0,238.98-107.206,238.98-238.979
			C1889.58,732.258,1782.374,625.052,1650.6,625.052z"/>
	</g>
	<g id="A_SVGStep20">
		<path d="M1442.733,1464.959c-64.368,0-124.884-25.066-170.399-70.581
			c-45.515-45.516-70.582-106.031-70.582-170.399s25.066-124.883,70.582-170.398c45.516-45.515,106.031-70.581,170.399-70.581
			s124.883,25.066,170.398,70.581c45.515,45.515,70.581,106.03,70.581,170.398s-25.066,124.884-70.581,170.399
			C1567.616,1439.893,1507.101,1464.959,1442.733,1464.959z M1442.733,984.999c-131.774,0-238.98,107.206-238.98,238.979
			c0,131.774,107.206,238.98,238.98,238.98c131.774,0,238.979-107.206,238.979-238.98
			C1681.712,1092.205,1574.507,984.999,1442.733,984.999z"/>
	</g>
	<g id="A_SVGStep21">
		<path d="M1650.6,1824.949c-64.368,0-124.884-25.066-170.399-70.582c-45.515-45.515-70.582-106.03-70.582-170.398
			s25.066-124.884,70.582-170.398s106.03-70.581,170.399-70.581c64.368,0,124.883,25.066,170.398,70.581
			s70.582,106.03,70.582,170.398s-25.066,124.884-70.582,170.398C1775.483,1799.883,1714.968,1824.949,1650.6,1824.949z
			 M1650.6,1344.989c-131.774,0-238.98,107.206-238.98,238.979c0,131.774,107.206,238.98,238.98,238.98
			c131.774,0,238.98-107.206,238.98-238.98C1889.58,1452.195,1782.374,1344.989,1650.6,1344.989z"/>
	</g>
	<g id="A_SVGStep22">
		<path d="M2066.367,1824.948c-64.369,0-124.884-25.066-170.398-70.581
			c-45.515-45.516-70.582-106.031-70.582-170.399s25.066-124.883,70.582-170.398c45.515-45.515,106.029-70.581,170.398-70.581
			c64.367,0,124.883,25.066,170.398,70.581c45.514,45.516,70.58,106.03,70.58,170.398s-25.066,124.884-70.58,170.399
			C2191.25,1799.882,2130.734,1824.948,2066.367,1824.948z M2066.367,1344.988c-131.774,0-238.98,107.206-238.98,238.979
			c0,131.774,107.206,238.98,238.98,238.98c131.773,0,238.979-107.206,238.979-238.98
			C2305.346,1452.194,2198.141,1344.988,2066.367,1344.988z"/>
	</g>
	<g id="A_SVGStep23">
		<path d="M2274.232,1464.98c-64.369,0-124.885-25.066-170.399-70.582c-45.515-45.515-70.581-106.03-70.581-170.398
			s25.066-124.884,70.581-170.399s106.03-70.582,170.399-70.582c64.367,0,124.883,25.066,170.398,70.582
			c45.514,45.516,70.58,106.031,70.58,170.399s-25.066,124.884-70.58,170.398C2399.115,1439.914,2338.6,1464.98,2274.232,1464.98z
			 M2274.232,985.02c-131.775,0-238.98,107.206-238.98,238.98s107.205,238.98,238.98,238.98
			c131.773,0,238.979-107.206,238.979-238.98S2406.006,985.02,2274.232,985.02z"/>
	</g>
	<g id="A_SVGStep24">
		<path d="M2066.367,1105.012c-64.369,0-124.884-25.066-170.398-70.581c-45.515-45.515-70.582-106.03-70.582-170.398
			s25.066-124.883,70.582-170.399c45.515-45.515,106.029-70.582,170.398-70.582c64.367,0,124.883,25.066,170.398,70.582
			c45.514,45.516,70.58,106.031,70.58,170.399s-25.066,124.883-70.58,170.398C2191.25,1079.945,2130.734,1105.012,2066.367,1105.012
			z M2066.367,625.052c-131.774,0-238.98,107.206-238.98,238.98c0,131.774,107.206,238.979,238.98,238.979
			c131.773,0,238.979-107.206,238.979-238.979C2305.346,732.258,2198.141,625.052,2066.367,625.052z"/>
	</g>
	<g id="A_SVGStep25">
		<path d="M1864.328,744.04c0,3.229-2.623,5.85-5.853,5.85l0,0c-3.229,0-5.852-2.621-5.852-5.85l0,0
			c0-3.229,2.62-5.849,5.852-5.849l0,0C1861.707,738.19,1864.328,740.809,1864.328,744.04L1864.328,744.04z"/>
		<g id="A_text" enable-background="new    ">
			<path d="M1907.035,778.723h-4.082l-11.764-22.193v22.193h-3.082v-24.81h5.115l10.73,20.261v-20.261h3.082V778.723
				z"/>
		</g>
	</g>
	<g id="A_SVGStep26">
		<path d="M1448.583,983.998c0,3.229-2.623,5.85-5.852,5.85l0,0c-3.23,0-5.854-2.621-5.854-5.85l0,0
			c0-3.229,2.621-5.849,5.854-5.849l0,0C1445.962,978.148,1448.583,980.767,1448.583,983.998L1448.583,983.998z"/>
		<g id="A_text" enable-background="new    ">
			<path d="M1488.36,996.223c1.011,1.11,1.785,2.472,2.324,4.082c0.539,1.61,0.808,3.438,0.808,5.481
				s-0.275,3.874-0.825,5.49s-1.319,2.963-2.308,4.04c-1.022,1.122-2.23,1.967-3.624,2.533s-2.985,0.85-4.773,0.85
				c-1.744,0-3.33-0.289-4.757-0.866c-1.427-0.578-2.641-1.417-3.641-2.517c-1-1.1-1.769-2.449-2.308-4.049
				s-0.808-3.427-0.808-5.481c0-2.021,0.267-3.835,0.8-5.44c0.533-1.604,1.311-2.979,2.333-4.123c0.978-1.089,2.191-1.922,3.641-2.5
				c1.45-0.577,3.03-0.866,4.741-0.866c1.777,0,3.374,0.292,4.79,0.875C1486.169,994.314,1487.371,995.145,1488.36,996.223z
				 M1488.06,1005.786c0-3.222-0.722-5.707-2.166-7.456c-1.444-1.75-3.416-2.624-5.915-2.624c-2.522,0-4.501,0.874-5.94,2.624
				c-1.439,1.749-2.158,4.234-2.158,7.456c0,3.255,0.733,5.746,2.199,7.473c1.466,1.728,3.432,2.591,5.898,2.591
				c2.466,0,4.429-0.863,5.89-2.591C1487.33,1011.532,1488.06,1009.041,1488.06,1005.786z"/>
		</g>
	</g>
	<g id="A_SVGStep27">
		<path d="M1448.583,1463.959c0,3.229-2.623,5.85-5.852,5.85l0,0c-3.23,0-5.854-2.621-5.854-5.85l0,0
			c0-3.229,2.621-5.851,5.854-5.851l0,0C1445.962,1458.109,1448.583,1460.729,1448.583,1463.959L1448.583,1463.959z"/>
		<g id="A_text" enable-background="new    ">
			<path d="M1489.094,1481.465c0,1.1-0.191,2.119-0.575,3.058s-0.919,1.752-1.608,2.44
				c-0.855,0.855-1.866,1.497-3.033,1.925c-1.166,0.428-2.638,0.642-4.415,0.642h-3.299v9.247h-3.299v-24.81h6.731
				c1.488,0,2.749,0.125,3.782,0.375c1.033,0.25,1.949,0.642,2.749,1.175c0.944,0.633,1.675,1.422,2.191,2.366
				C1488.835,1478.826,1489.094,1480.021,1489.094,1481.465z M1485.662,1481.548c0-0.855-0.15-1.6-0.45-2.232
				c-0.3-0.634-0.755-1.149-1.366-1.55c-0.533-0.344-1.141-0.592-1.824-0.741c-0.683-0.15-1.547-0.226-2.591-0.226h-3.266v9.914
				h2.783c1.333,0,2.416-0.119,3.249-0.358c0.833-0.238,1.51-0.619,2.033-1.141c0.522-0.533,0.892-1.095,1.108-1.684
				C1485.553,1482.942,1485.662,1482.281,1485.662,1481.548z"/>
		</g>
	</g>
	<g id="A_SVGStep28">
		<path d="M1864.326,1703.96c0,3.229-2.621,5.85-5.851,5.85l0,0c-3.229,0-5.853-2.62-5.853-5.85l0,0
			c0-3.229,2.62-5.851,5.853-5.851l0,0C1861.705,1698.11,1864.326,1700.729,1864.326,1703.96L1864.326,1703.96z"/>
		<g id="A_text" enable-background="new    ">
			<path d="M1909.234,1745.506c-0.666,0.166-1.324,0.285-1.975,0.357s-1.313,0.108-1.991,0.108
				c-1.933,0-3.485-0.53-4.657-1.591s-1.808-2.58-1.907-4.558c-0.267,0.045-0.524,0.075-0.774,0.092s-0.492,0.025-0.725,0.025
				c-1.744,0-3.33-0.289-4.758-0.866c-1.428-0.578-2.641-1.417-3.641-2.517s-1.77-2.449-2.308-4.049s-0.808-3.427-0.808-5.481
				c0-2.021,0.266-3.835,0.799-5.44c0.533-1.604,1.311-2.979,2.333-4.123c0.978-1.089,2.191-1.922,3.641-2.5
				c1.45-0.577,3.03-0.866,4.741-0.866c1.776,0,3.373,0.292,4.789,0.875c1.417,0.583,2.619,1.413,3.607,2.491
				c1.012,1.11,1.785,2.472,2.324,4.082s0.809,3.438,0.809,5.481c0,3.032-0.619,5.588-1.857,7.664
				c-1.239,2.078-2.902,3.533-4.99,4.366c0.044,1.266,0.344,2.249,0.899,2.949c0.556,0.699,1.566,1.049,3.032,1.049
				c0.455,0,0.997-0.069,1.625-0.208c0.627-0.139,1.074-0.264,1.342-0.375h0.449V1745.506z M1905.303,1727.027
				c0-3.222-0.723-5.707-2.166-7.456c-1.445-1.75-3.416-2.624-5.916-2.624c-2.521,0-4.501,0.874-5.939,2.624
				c-1.439,1.749-2.158,4.234-2.158,7.456c0,3.255,0.733,5.746,2.199,7.473c1.467,1.728,3.433,2.591,5.898,2.591
				c2.467,0,4.43-0.863,5.891-2.591C1904.572,1732.773,1905.303,1730.282,1905.303,1727.027z"/>
		</g>
	</g>
	<g id="A_SVGStep29">
		<path d="M2280.084,1463.98c0,3.229-2.623,5.851-5.854,5.851l0,0c-3.229,0-5.852-2.621-5.852-5.851l0,0
			c0-3.229,2.619-5.851,5.852-5.851l0,0C2277.463,1458.131,2280.084,1460.749,2280.084,1463.98L2280.084,1463.98z"/>
		<g id="A_text" enable-background="new    ">
			<path d="M2317.767,1494.776h-4.282l-8.297-9.864h-4.649v9.864h-3.299v-24.81h6.948
				c1.499,0,2.749,0.098,3.748,0.292c1,0.194,1.9,0.541,2.699,1.041c0.9,0.566,1.603,1.28,2.108,2.141
				c0.505,0.861,0.758,1.953,0.758,3.274c0,1.788-0.45,3.285-1.35,4.49s-2.138,2.113-3.716,2.725L2317.767,1494.776z
				 M2310.053,1476.948c0-0.711-0.125-1.342-0.375-1.892s-0.664-1.013-1.242-1.391c-0.478-0.322-1.044-0.547-1.699-0.675
				s-1.428-0.192-2.316-0.192h-3.882v9.364h3.333c1.043,0,1.955-0.092,2.732-0.274c0.777-0.184,1.438-0.525,1.982-1.025
				c0.5-0.466,0.869-1.002,1.107-1.607C2309.933,1478.65,2310.053,1477.881,2310.053,1476.948z"/>
		</g>
	</g>
	<g id="A_SVGStep30">
		<path d="M2280.084,984.021c0,3.229-2.623,5.851-5.854,5.851l0,0c-3.229,0-5.852-2.621-5.852-5.851l0,0
			c0-3.229,2.619-5.851,5.852-5.851l0,0C2277.463,978.171,2280.084,980.789,2280.084,984.021L2280.084,984.021z"/>
		<g id="A_text" enable-background="new    ">
			<path d="M2322.592,1011.102c0,0.966-0.225,1.922-0.674,2.865c-0.45,0.944-1.08,1.744-1.892,2.399
				c-0.889,0.711-1.925,1.267-3.107,1.666c-1.183,0.4-2.607,0.601-4.273,0.601c-1.788,0-3.396-0.167-4.823-0.5
				c-1.428-0.333-2.881-0.827-4.357-1.483v-4.132h0.232c1.256,1.044,2.705,1.85,4.35,2.416c1.644,0.566,3.188,0.85,4.632,0.85
				c2.044,0,3.635-0.383,4.773-1.149s1.708-1.788,1.708-3.066c0-1.1-0.27-1.91-0.809-2.433c-0.539-0.521-1.357-0.927-2.457-1.216
				c-0.833-0.222-1.736-0.405-2.707-0.55c-0.973-0.145-2.003-0.327-3.092-0.55c-2.199-0.467-3.829-1.264-4.891-2.392
				c-1.061-1.127-1.59-2.596-1.59-4.406c0-2.077,0.877-3.779,2.632-5.107c1.755-1.327,3.982-1.991,6.682-1.991
				c1.743,0,3.343,0.167,4.798,0.5s2.744,0.744,3.866,1.233v3.898h-0.233c-0.944-0.8-2.186-1.463-3.724-1.991
				c-1.538-0.527-3.113-0.791-4.724-0.791c-1.766,0-3.186,0.366-4.258,1.1s-1.607,1.678-1.607,2.832c0,1.033,0.267,1.845,0.8,2.433
				c0.533,0.59,1.472,1.039,2.815,1.35c0.711,0.156,1.723,0.345,3.033,0.567c1.311,0.222,2.422,0.449,3.332,0.683
				c1.844,0.489,3.232,1.228,4.166,2.216C2322.126,1007.941,2322.592,1009.324,2322.592,1011.102z"/>
		</g>
	</g>
	<g id="A_SVGStep31">
		<path d="M1858.475,985.021c-64.368,0-124.883-25.066-170.398-70.582c-45.515-45.516-70.581-106.031-70.581-170.399
			s25.066-124.883,70.581-170.399c45.515-45.515,106.03-70.582,170.398-70.582c64.369,0,124.884,25.066,170.399,70.582
			s70.581,106.031,70.581,170.399s-25.066,124.884-70.581,170.399S1922.844,985.021,1858.475,985.021z M1858.475,505.061
			c-131.774,0-238.979,107.206-238.979,238.98s107.206,238.98,238.979,238.98c131.775,0,238.98-107.206,238.98-238.98
			S1990.25,505.061,1858.475,505.061z"/>
	</g>
	<g id="A_SVGStep32">
		<path d="M1442.732,1224.979c-64.369,0-124.884-25.066-170.399-70.581c-45.515-45.515-70.582-106.03-70.582-170.398
			s25.066-124.883,70.582-170.398c45.515-45.515,106.03-70.581,170.399-70.581c64.368,0,124.883,25.066,170.398,70.581
			c45.515,45.515,70.581,106.03,70.581,170.398s-25.066,124.883-70.581,170.398
			C1567.615,1199.912,1507.1,1224.979,1442.732,1224.979z M1442.732,745.02c-131.774,0-238.98,107.206-238.98,238.979
			s107.206,238.979,238.98,238.979c131.774,0,238.979-107.206,238.979-238.979S1574.506,745.02,1442.732,745.02z"/>
	</g>
	<g id="A_SVGStep33">
		<path d="M1442.732,1704.938c-64.369,0-124.884-25.066-170.399-70.581s-70.582-106.03-70.582-170.398
			s25.066-124.884,70.582-170.398s106.03-70.581,170.399-70.581c64.368,0,124.883,25.066,170.398,70.581
			c45.515,45.515,70.581,106.03,70.581,170.398s-25.066,124.884-70.581,170.398
			C1567.615,1679.871,1507.1,1704.938,1442.732,1704.938z M1442.732,1224.979c-131.774,0-238.98,107.206-238.98,238.979
			s107.206,238.979,238.98,238.979c131.774,0,238.979-107.206,238.979-238.979S1574.506,1224.979,1442.732,1224.979z"/>
	</g>
	<g id="A_SVGStep34">
		<path d="M1858.475,1944.939c-64.368,0-124.884-25.066-170.399-70.582c-45.515-45.515-70.582-106.03-70.582-170.398
			s25.066-124.884,70.582-170.398c45.515-45.516,106.031-70.582,170.399-70.582c64.369,0,124.883,25.066,170.398,70.582
			c45.516,45.515,70.582,106.03,70.582,170.398s-25.066,124.884-70.582,170.398
			C1983.358,1919.873,1922.844,1944.939,1858.475,1944.939z M1858.475,1464.979c-131.774,0-238.98,107.206-238.98,238.98
			s107.206,238.98,238.98,238.98c131.774,0,238.98-107.206,238.98-238.98S1990.249,1464.979,1858.475,1464.979z"/>
	</g>
	<g id="A_SVGStep35">
		<path d="M2274.232,1704.961c-64.369,0-124.885-25.066-170.399-70.581
			c-45.515-45.516-70.581-106.031-70.581-170.399s25.066-124.884,70.581-170.398s106.03-70.581,170.399-70.581
			c64.367,0,124.883,25.066,170.398,70.581c45.514,45.515,70.58,106.03,70.58,170.398s-25.066,124.884-70.58,170.399
			C2399.115,1679.895,2338.6,1704.961,2274.232,1704.961z M2274.232,1225.001c-131.775,0-238.98,107.206-238.98,238.979
			c0,131.774,107.205,238.98,238.98,238.98c131.773,0,238.979-107.206,238.979-238.98
			C2513.211,1332.207,2406.006,1225.001,2274.232,1225.001z"/>
	</g>
	<g id="A_SVGStep36">
		<path d="M2274.232,1225.001c-64.369,0-124.885-25.066-170.399-70.581c-45.515-45.515-70.581-106.03-70.581-170.398
			c0-64.369,25.066-124.884,70.581-170.399c45.515-45.515,106.03-70.582,170.399-70.582c64.367,0,124.883,25.066,170.398,70.582
			c45.514,45.515,70.58,106.03,70.58,170.399c0,64.368-25.066,124.883-70.58,170.398
			C2399.115,1199.935,2338.6,1225.001,2274.232,1225.001z M2274.232,745.041c-131.775,0-238.98,107.206-238.98,238.98
			c0,131.774,107.205,238.979,238.98,238.979c131.773,0,238.979-107.206,238.979-238.979
			C2513.211,852.247,2406.006,745.041,2274.232,745.041z"/>
	</g>
	<g id="A_SVGStep37">
		<path d="M1656.452,624.052c0,3.229-2.622,5.851-5.852,5.851l0,0c-3.23,0-5.853-2.621-5.853-5.851l0,0
			c0-3.229,2.62-5.85,5.853-5.85l0,0C1653.83,618.203,1656.452,620.821,1656.452,624.052L1656.452,624.052z"/>
		<g id="A_text" enable-background="new    ">
			<path d="M1694.174,637.154h-8.864v21.877h-3.299v-21.877h-8.864v-2.933h21.027V637.154z"/>
		</g>
	</g>
	<g id="A_SVGStep38">
		<path d="M1448.583,744.019c0,3.229-2.623,5.851-5.852,5.851l0,0c-3.23,0-5.854-2.621-5.854-5.851l0,0
			c0-3.229,2.621-5.85,5.854-5.85l0,0C1445.962,738.168,1448.583,740.787,1448.583,744.019L1448.583,744.019z"/>
		<g id="A_text" enable-background="new    ">
			<path d="M1488.543,768.759c0,1.8-0.197,3.368-0.591,4.707c-0.395,1.339-1.042,2.452-1.941,3.341
				c-0.855,0.844-1.855,1.461-2.999,1.85s-2.477,0.583-3.999,0.583c-1.556,0-2.911-0.206-4.066-0.616
				c-1.155-0.411-2.127-1.017-2.916-1.816c-0.9-0.911-1.547-2.011-1.941-3.299c-0.394-1.289-0.591-2.872-0.591-4.749v-14.846h3.299
				v15.013c0,1.344,0.092,2.404,0.275,3.182c0.183,0.778,0.491,1.483,0.924,2.116c0.489,0.723,1.152,1.267,1.991,1.633
				c0.839,0.367,1.847,0.55,3.024,0.55c1.188,0,2.199-0.18,3.032-0.541s1.5-0.908,2-1.642c0.433-0.633,0.741-1.357,0.925-2.174
				c0.183-0.816,0.275-1.83,0.275-3.041v-15.096h3.299V768.759z"/>
		</g>
	</g>
	<g id="A_SVGStep39">
		<path d="M1240.731,1104.012c0,3.229-2.623,5.851-5.854,5.851l0,0c-3.229,0-5.852-2.621-5.852-5.851l0,0
			c0-3.229,2.621-5.85,5.852-5.85l0,0C1238.11,1098.162,1240.731,1100.78,1240.731,1104.012L1240.731,1104.012z"/>
		<g id="A_text" enable-background="new    ">
			<path d="M1279.114,1114.353l-9.031,24.81h-4.399l-9.031-24.81h3.532l7.781,21.827l7.781-21.827H1279.114z"/>
		</g>
	</g>
	<g id="A_SVGStep40">
		<path d="M1240.731,1343.992c0,3.229-2.623,5.851-5.854,5.851l0,0c-3.229,0-5.852-2.621-5.852-5.851l0,0
			c0-3.229,2.621-5.851,5.852-5.851l0,0C1238.11,1338.143,1240.731,1340.761,1240.731,1343.992L1240.731,1343.992z"/>
		<g id="A_text" enable-background="new    ">
			<path d="M1290.888,1356.667l-6.448,24.81h-3.715l-5.215-20.594l-5.099,20.594h-3.632l-6.565-24.81h3.382
				l5.215,20.627l5.132-20.627h3.349l5.182,20.827l5.182-20.827H1290.888z"/>
		</g>
	</g>
	<g id="A_SVGStep41">
		<path d="M1448.583,1703.939c0,3.229-2.623,5.851-5.852,5.851l0,0c-3.23,0-5.854-2.621-5.854-5.851l0,0
			c0-3.229,2.621-5.851,5.854-5.851l0,0C1445.962,1698.09,1448.583,1700.708,1448.583,1703.939L1448.583,1703.939z"/>
		<g id="A_text" enable-background="new    ">
			<path d="M1488.993,1738.424h-19.361v-3.065l15.212-18.812h-14.646v-2.933h18.428v2.982l-15.362,18.895h15.729
				V1738.424z"/>
		</g>
	</g>
	<g id="A_SVGStep42">
		<path d="M1656.452,1823.949c0,3.229-2.622,5.851-5.852,5.851l0,0c-3.23,0-5.853-2.621-5.853-5.851l0,0
			c0-3.229,2.62-5.851,5.853-5.851l0,0C1653.83,1818.1,1656.452,1820.718,1656.452,1823.949L1656.452,1823.949z"/>
		<g id="A_text" enable-background="new    ">
			<path d="M1700.041,1856.434h-3.516l-2.433-6.915h-10.73l-2.433,6.915h-3.349l9.031-24.81h4.399L1700.041,1856.434
				z M1693.076,1846.687l-4.349-12.18l-4.365,12.18H1693.076z"/>
		</g>
		<g id="A_text" enable-background="new    ">
			<path d="M1711.003,1867.797h-7.829v-1.477h3.011v-9.694h-3.011v-1.321c0.408,0,0.845-0.034,1.311-0.102
				c0.466-0.068,0.819-0.167,1.059-0.297c0.298-0.161,0.532-0.367,0.704-0.616c0.171-0.25,0.271-0.585,0.296-1.006h1.505v13.036
				h2.953V1867.797z"/>
		</g>
	</g>
	<g id="A_SVGStep43">
		<path d="M2072.219,1823.948c0,3.229-2.623,5.851-5.854,5.851l0,0c-3.229,0-5.852-2.621-5.852-5.851l0,0
			c0-3.229,2.621-5.851,5.852-5.851l0,0C2069.598,1818.099,2072.219,1820.717,2072.219,1823.948L2072.219,1823.948z"/>
		<g id="A_text" enable-background="new    ">
			<path d="M2118.498,1852.803c0,1.232-0.232,2.321-0.699,3.266s-1.095,1.722-1.883,2.332
				c-0.934,0.733-1.958,1.256-3.074,1.566c-1.117,0.312-2.535,0.467-4.258,0.467h-8.797v-24.81h7.348c1.811,0,3.166,0.066,4.065,0.2
				c0.899,0.133,1.761,0.411,2.583,0.833c0.91,0.478,1.571,1.091,1.982,1.841s0.617,1.647,0.617,2.691c0,1.177-0.301,2.18-0.9,3.007
				c-0.6,0.828-1.399,1.491-2.399,1.991v0.134c1.677,0.344,2.999,1.08,3.966,2.207
				C2118.016,1849.656,2118.498,1851.081,2118.498,1852.803z M2112.949,1841.622c0-0.6-0.1-1.104-0.299-1.516
				c-0.2-0.411-0.522-0.744-0.967-1c-0.522-0.3-1.155-0.486-1.899-0.559s-1.666-0.108-2.767-0.108h-3.932v7.165h4.266
				c1.033,0,1.855-0.053,2.466-0.158s1.177-0.325,1.7-0.658c0.521-0.333,0.891-0.764,1.107-1.291
				S2112.949,1842.345,2112.949,1841.622z M2115.066,1852.936c0-1-0.15-1.794-0.45-2.383c-0.3-0.588-0.845-1.088-1.633-1.499
				c-0.533-0.277-1.181-0.458-1.941-0.542c-0.761-0.083-1.686-0.125-2.774-0.125h-5.182v9.231h4.365
				c1.444,0,2.627-0.075,3.549-0.226c0.922-0.149,1.678-0.425,2.267-0.824c0.622-0.434,1.077-0.928,1.366-1.483
				C2114.922,1854.53,2115.066,1853.813,2115.066,1852.936z"/>
		</g>
		<g id="A_text" enable-background="new    ">
			<path d="M2130.378,1871.797h-7.829v-1.477h3.012v-9.694h-3.012v-1.321c0.408,0,0.845-0.034,1.311-0.102
				c0.467-0.068,0.82-0.167,1.06-0.297c0.298-0.161,0.532-0.367,0.704-0.616c0.172-0.25,0.271-0.585,0.297-1.006h1.505v13.036h2.953
				V1871.797z"/>
		</g>
	</g>
	<g id="A_SVGStep44">
		<path d="M2280.084,1703.939c0,3.229-2.623,5.851-5.854,5.851l0,0c-3.229,0-5.852-2.621-5.852-5.851l0,0
			c0-3.229,2.619-5.851,5.852-5.851l0,0C2277.463,1698.09,2280.084,1700.708,2280.084,1703.939L2280.084,1703.939z"/>
		<g id="A_text" enable-background="new    ">
			<path d="M2324.399,1736.624c-0.611,0.267-1.163,0.517-1.657,0.75c-0.495,0.233-1.143,0.478-1.941,0.733
				c-0.678,0.211-1.414,0.392-2.208,0.541c-0.794,0.15-1.669,0.226-2.624,0.226c-1.8,0-3.436-0.253-4.907-0.759
				c-1.472-0.505-2.752-1.297-3.841-2.374c-1.066-1.055-1.899-2.396-2.499-4.023c-0.601-1.628-0.899-3.519-0.899-5.674
				c0-2.044,0.289-3.871,0.866-5.481s1.41-2.972,2.499-4.082c1.055-1.078,2.33-1.899,3.824-2.467c1.494-0.566,3.151-0.85,4.973-0.85
				c1.334,0,2.664,0.161,3.991,0.483s2.802,0.889,4.424,1.699v3.916h-0.25c-1.366-1.144-2.722-1.978-4.065-2.499
				c-1.344-0.522-2.783-0.783-4.315-0.783c-1.255,0-2.386,0.202-3.391,0.608c-1.005,0.405-1.902,1.035-2.69,1.891
				c-0.768,0.833-1.364,1.886-1.792,3.157c-0.428,1.272-0.642,2.741-0.642,4.407c0,1.744,0.236,3.244,0.709,4.499
				c0.472,1.255,1.08,2.277,1.824,3.065c0.777,0.822,1.686,1.431,2.725,1.824c1.038,0.395,2.135,0.592,3.29,0.592
				c1.589,0,3.077-0.271,4.466-0.816c1.389-0.544,2.688-1.36,3.898-2.449h0.233V1736.624z"/>
		</g>
		<g id="A_text" enable-background="new    ">
			<path d="M2336.263,1749.787h-7.829v-1.477h3.012v-9.694h-3.012v-1.321c0.408,0,0.845-0.034,1.311-0.102
				c0.467-0.068,0.82-0.167,1.06-0.297c0.298-0.161,0.532-0.367,0.704-0.616c0.172-0.25,0.271-0.585,0.297-1.006h1.505v13.036h2.953
				V1749.787z"/>
		</g>
	</g>
	<g id="A_SVGStep45">
		<path d="M2488.086,1343.989c0,3.229-2.623,5.851-5.854,5.851l0,0c-3.229,0-5.852-2.621-5.852-5.851l0,0
			c0-3.229,2.619-5.851,5.852-5.851l0,0C2485.465,1338.14,2488.086,1340.758,2488.086,1343.989L2488.086,1343.989z"/>
		<g id="A_text" enable-background="new    ">
			<path d="M2530.574,1365.108c0,2.255-0.492,4.299-1.475,6.132c-0.983,1.833-2.291,3.255-3.924,4.266
				c-1.133,0.699-2.396,1.205-3.791,1.516c-1.395,0.312-3.23,0.467-5.507,0.467h-6.265v-24.81h6.198
				c2.421,0,4.346,0.175,5.773,0.524c1.427,0.351,2.635,0.831,3.624,1.441c1.688,1.056,3.004,2.461,3.949,4.216
				C2530.102,1360.615,2530.574,1362.698,2530.574,1365.108z M2527.125,1365.059c0-1.943-0.34-3.582-1.017-4.915
				c-0.678-1.333-1.688-2.383-3.032-3.149c-0.979-0.556-2.016-0.941-3.116-1.158c-1.1-0.217-2.415-0.325-3.948-0.325h-3.1v19.145
				h3.1c1.588,0,2.974-0.116,4.156-0.35c1.184-0.233,2.27-0.666,3.258-1.3c1.232-0.788,2.158-1.827,2.774-3.115
				C2526.816,1368.602,2527.125,1366.991,2527.125,1365.059z"/>
		</g>
		<g id="A_text" enable-background="new    ">
			<path d="M2543.104,1388.852h-7.829v-1.477h3.011v-9.694h-3.011v-1.321c0.407,0,0.845-0.034,1.312-0.102
				c0.466-0.068,0.818-0.167,1.059-0.297c0.298-0.161,0.532-0.367,0.704-0.616c0.171-0.25,0.271-0.585,0.296-1.006h1.506v13.036
				h2.953V1388.852z"/>
		</g>
	</g>
	<g id="A_SVGStep46">
		<path d="M2487.908,1104.275c0,3.229-2.623,5.851-5.854,5.851l0,0c-3.229,0-5.852-2.621-5.852-5.851l0,0
			c0-3.229,2.621-5.851,5.852-5.851l0,0C2485.287,1098.426,2487.908,1101.044,2487.908,1104.275L2487.908,1104.275z"/>
		<g id="A_text" enable-background="new    ">
			<path d="M2527.959,1139.162h-16.346v-24.81h16.346v2.933h-13.047v6.798h13.047v2.933h-13.047v9.214h13.047
				V1139.162z"/>
		</g>
		<g id="A_text" enable-background="new    ">
			<path d="M2540.388,1150.525h-7.829v-1.477h3.012v-9.694h-3.012v-1.321c0.408,0,0.845-0.034,1.311-0.102
				c0.467-0.068,0.82-0.167,1.06-0.297c0.298-0.161,0.532-0.367,0.704-0.616c0.172-0.25,0.271-0.585,0.297-1.006h1.505v13.036h2.953
				V1150.525z"/>
		</g>
	</g>
	<g id="A_SVGStep47">
		<path d="M2280.084,744.04c0,3.229-2.623,5.85-5.854,5.85l0,0c-3.229,0-5.852-2.621-5.852-5.85l0,0
			c0-3.229,2.619-5.85,5.852-5.85l0,0C2277.463,738.19,2280.084,740.809,2280.084,744.04L2280.084,744.04z"/>
		<g id="A_text" enable-background="new    ">
			<path d="M2320.41,755.846h-12.547v6.998h10.78v2.933h-10.78v11.946h-3.299v-24.81h15.846V755.846z"/>
		</g>
		<g id="A_text" enable-background="new    ">
			<path d="M2331.373,789.086h-7.829v-1.477h3.011v-9.694h-3.011v-1.321c0.407,0,0.845-0.034,1.312-0.102
				c0.466-0.068,0.818-0.167,1.059-0.297c0.298-0.161,0.532-0.367,0.704-0.616c0.171-0.25,0.271-0.585,0.296-1.006h1.506v13.036
				h2.953V789.086z"/>
		</g>
	</g>
	<g id="A_SVGStep48">
		<path d="M2072.219,624.052c0,3.229-2.623,5.851-5.854,5.851l0,0c-3.229,0-5.852-2.621-5.852-5.851l0,0
			c0-3.229,2.621-5.85,5.852-5.85l0,0C2069.598,618.203,2072.219,620.821,2072.219,624.052L2072.219,624.052z"/>
		<g id="A_text" enable-background="new    ">
			<path d="M2119.48,658.799c-1.355,0.622-2.835,1.164-4.439,1.625c-1.605,0.461-3.158,0.691-4.657,0.691
				c-1.933,0-3.704-0.267-5.315-0.8c-1.61-0.533-2.982-1.333-4.115-2.399c-1.145-1.077-2.027-2.425-2.649-4.041
				s-0.933-3.507-0.933-5.673c0-3.966,1.158-7.095,3.474-9.389s5.495-3.441,9.539-3.441c1.411,0,2.852,0.17,4.323,0.509
				c1.473,0.339,3.059,0.913,4.758,1.725v3.915h-0.301c-0.344-0.267-0.844-0.616-1.499-1.05c-0.655-0.433-1.3-0.794-1.933-1.083
				c-0.767-0.344-1.637-0.63-2.607-0.857c-0.973-0.228-2.074-0.342-3.308-0.342c-2.777,0-4.974,0.892-6.59,2.674
				c-1.616,1.783-2.425,4.196-2.425,7.24c0,3.21,0.844,5.706,2.533,7.489c1.688,1.782,3.987,2.674,6.898,2.674
				c1.066,0,2.129-0.105,3.189-0.316s1.992-0.483,2.791-0.816v-6.082h-6.647v-2.898h9.913V658.799z"/>
		</g>
		<g id="A_text" enable-background="new    ">
			<path d="M2132.444,671.995h-7.829v-1.477h3.012v-9.694h-3.012v-1.321c0.408,0,0.845-0.034,1.311-0.102
				c0.467-0.068,0.82-0.167,1.06-0.297c0.298-0.161,0.532-0.367,0.704-0.616c0.172-0.25,0.271-0.585,0.297-1.006h1.505v13.036h2.953
				V671.995z"/>
		</g>
	</g>
	<g id="A_SVGStep49">
		<path d="M1650.6,865.032c-64.368,0-124.884-25.066-170.399-70.582s-70.582-106.031-70.582-170.399
			s25.066-124.883,70.582-170.398c45.515-45.515,106.03-70.581,170.399-70.581c64.368,0,124.883,25.066,170.398,70.581
			c45.515,45.515,70.582,106.03,70.582,170.398s-25.066,124.883-70.582,170.399C1775.483,839.966,1714.968,865.032,1650.6,865.032z
			 M1650.6,385.072c-131.774,0-238.98,107.206-238.98,238.979c0,131.774,107.206,238.98,238.98,238.98
			c131.774,0,238.98-107.206,238.98-238.98C1889.58,492.278,1782.374,385.072,1650.6,385.072z"/>
	</g>
	<g id="A_SVGStep50">
		<path d="M1442.732,984.999c-64.369,0-124.884-25.066-170.399-70.582c-45.515-45.515-70.582-106.03-70.582-170.399
			c0-64.368,25.066-124.883,70.582-170.398c45.515-45.515,106.03-70.581,170.399-70.581c64.368,0,124.883,25.066,170.398,70.581
			c45.515,45.515,70.581,106.03,70.581,170.398c0,64.369-25.066,124.884-70.581,170.399
			C1567.615,959.933,1507.1,984.999,1442.732,984.999z M1442.732,505.039c-131.774,0-238.98,107.206-238.98,238.979
			c0,131.774,107.206,238.98,238.98,238.98c131.774,0,238.979-107.206,238.979-238.98
			C1681.711,612.245,1574.506,505.039,1442.732,505.039z"/>
	</g>
	<g id="A_SVGStep51">
		<path d="M1234.879,1344.991c-64.368,0-124.883-25.066-170.398-70.581
			c-45.515-45.516-70.582-106.031-70.582-170.399c0-64.368,25.066-124.883,70.582-170.398
			c45.515-45.515,106.03-70.581,170.398-70.581s124.883,25.066,170.399,70.581c45.515,45.515,70.582,106.03,70.582,170.398
			s-25.066,124.884-70.582,170.399C1359.763,1319.925,1299.248,1344.991,1234.879,1344.991z M1234.879,865.031
			c-131.774,0-238.98,107.206-238.98,238.979c0,131.774,107.206,238.98,238.98,238.98c131.774,0,238.98-107.206,238.98-238.98
			C1473.86,972.237,1366.654,865.031,1234.879,865.031z"/>
	</g>
	<g id="A_SVGStep52">
		<path d="M1234.879,1584.973c-64.368,0-124.883-25.066-170.398-70.581c-45.515-45.516-70.582-106.03-70.582-170.398
			s25.066-124.883,70.582-170.399c45.515-45.515,106.03-70.582,170.398-70.582s124.883,25.066,170.399,70.582
			c45.515,45.516,70.582,106.031,70.582,170.399s-25.066,124.883-70.582,170.398
			C1359.763,1559.906,1299.248,1584.973,1234.879,1584.973z M1234.879,1105.013c-131.774,0-238.98,107.206-238.98,238.98
			c0,131.773,107.206,238.979,238.98,238.979c131.774,0,238.98-107.206,238.98-238.979
			C1473.86,1212.219,1366.654,1105.013,1234.879,1105.013z"/>
	</g>
	<g id="A_SVGStep53">
		<path d="M1442.732,1944.92c-64.369,0-124.884-25.066-170.399-70.581c-45.515-45.516-70.582-106.031-70.582-170.399
			s25.066-124.884,70.582-170.398s106.03-70.581,170.399-70.581c64.368,0,124.883,25.066,170.398,70.581
			c45.515,45.515,70.581,106.03,70.581,170.398s-25.066,124.884-70.581,170.399C1567.615,1919.854,1507.1,1944.92,1442.732,1944.92z
			 M1442.732,1464.96c-131.774,0-238.98,107.206-238.98,238.979c0,131.774,107.206,238.98,238.98,238.98
			c131.774,0,238.979-107.206,238.979-238.98C1681.711,1572.166,1574.506,1464.96,1442.732,1464.96z"/>
	</g>
	<g id="A_SVGStep54">
		<path d="M1650.6,2064.93c-64.369,0-124.884-25.066-170.399-70.581s-70.582-106.03-70.582-170.398
			s25.066-124.884,70.582-170.399c45.515-45.515,106.03-70.581,170.399-70.581c64.368,0,124.883,25.066,170.398,70.581
			c45.515,45.516,70.582,106.031,70.582,170.399s-25.066,124.883-70.582,170.398C1775.483,2039.863,1714.968,2064.93,1650.6,2064.93
			z M1650.6,1584.97c-131.774,0-238.98,107.206-238.98,238.98c0,131.773,107.206,238.979,238.98,238.979
			c131.774,0,238.98-107.206,238.98-238.979C1889.58,1692.176,1782.374,1584.97,1650.6,1584.97z"/>
	</g>
	<g id="A_SVGStep55">
		<path d="M2066.367,2064.929c-64.369,0-124.884-25.066-170.398-70.581c-45.515-45.515-70.582-106.03-70.582-170.398
			s25.066-124.884,70.582-170.398c45.515-45.516,106.029-70.582,170.398-70.582c64.367,0,124.883,25.066,170.398,70.582
			c45.514,45.515,70.58,106.03,70.58,170.398s-25.066,124.884-70.58,170.398C2191.25,2039.862,2130.734,2064.929,2066.367,2064.929z
			 M2066.367,1584.969c-131.774,0-238.98,107.206-238.98,238.98c0,131.773,107.206,238.979,238.98,238.979
			c131.773,0,238.979-107.206,238.979-238.979C2305.346,1692.175,2198.141,1584.969,2066.367,1584.969z"/>
	</g>
	<g id="A_SVGStep56">
		<path d="M2274.232,1944.939c-64.369,0-124.885-25.066-170.399-70.581s-70.581-106.03-70.581-170.398
			s25.066-124.884,70.581-170.398s106.03-70.581,170.399-70.581c64.367,0,124.883,25.066,170.398,70.581
			c45.514,45.515,70.58,106.03,70.58,170.398s-25.066,124.884-70.58,170.398C2399.115,1919.873,2338.6,1944.939,2274.232,1944.939z
			 M2274.232,1464.98c-131.775,0-238.98,107.206-238.98,238.979s107.205,238.979,238.98,238.979
			c131.773,0,238.979-107.206,238.979-238.979S2406.006,1464.98,2274.232,1464.98z"/>
	</g>
	<g id="A_SVGStep57">
		<path d="M2482.234,1584.97c-64.369,0-124.885-25.066-170.399-70.581s-70.581-106.03-70.581-170.398
			s25.066-124.884,70.581-170.399s106.03-70.582,170.399-70.582c64.367,0,124.883,25.066,170.398,70.582
			c45.514,45.516,70.58,106.031,70.58,170.399s-25.066,124.884-70.58,170.398C2607.117,1559.903,2546.602,1584.97,2482.234,1584.97z
			 M2482.234,1105.01c-131.775,0-238.98,107.206-238.98,238.98c0,131.773,107.205,238.979,238.98,238.979
			c131.773,0,238.979-107.206,238.979-238.979C2721.213,1212.216,2614.008,1105.01,2482.234,1105.01z"/>
	</g>
	<g id="A_SVGStep58">
		<path d="M2482.057,1344.991c-64.368,0-124.884-25.066-170.398-70.582
			c-45.516-45.515-70.582-106.031-70.582-170.399c0-64.368,25.066-124.883,70.582-170.399
			c45.515-45.515,106.03-70.582,170.398-70.582c64.369,0,124.884,25.066,170.398,70.582
			c45.516,45.516,70.582,106.031,70.582,170.399c0,64.369-25.066,124.884-70.582,170.399
			C2606.94,1319.925,2546.426,1344.991,2482.057,1344.991z M2482.057,865.029c-131.774,0-238.98,107.206-238.98,238.98
			c0,131.775,107.206,238.981,238.98,238.981c131.775,0,238.98-107.207,238.98-238.981
			C2721.037,972.235,2613.832,865.029,2482.057,865.029z"/>
	</g>
	<g id="A_SVGStep59">
		<path d="M2274.232,985.022c-64.369,0-124.885-25.066-170.4-70.582c-45.516-45.515-70.582-106.031-70.582-170.399
			s25.066-124.884,70.582-170.399c45.516-45.516,106.031-70.582,170.4-70.582c64.367,0,124.883,25.066,170.398,70.582
			c45.516,45.515,70.582,106.031,70.582,170.399s-25.066,124.884-70.582,170.399C2399.115,959.956,2338.6,985.022,2274.232,985.022z
			 M2274.232,505.06c-131.775,0-238.982,107.207-238.982,238.981s107.207,238.981,238.982,238.981
			c131.773,0,238.98-107.207,238.98-238.981S2406.006,505.06,2274.232,505.06z"/>
	</g>
	<g id="A_SVGStep60">
		<path d="M2066.367,865.033c-64.369,0-124.885-25.066-170.4-70.582c-45.515-45.515-70.582-106.031-70.582-170.399
			s25.066-124.884,70.582-170.399c45.516-45.515,106.031-70.582,170.4-70.582c64.368,0,124.884,25.066,170.398,70.582
			c45.516,45.515,70.582,106.031,70.582,170.399s-25.066,124.884-70.582,170.399
			C2191.251,839.967,2130.735,865.033,2066.367,865.033z M2066.367,385.071c-131.775,0-238.982,107.207-238.982,238.981
			c0,131.775,107.207,238.981,238.982,238.981c131.774,0,238.98-107.207,238.98-238.981
			C2305.348,492.277,2198.142,385.071,2066.367,385.071z"/>
	</g>
	<g id="A_SVGStep61">
		<path d="M1864.328,504.061c0,3.229-2.623,5.851-5.853,5.851l0,0c-3.229,0-5.852-2.621-5.852-5.851l0,0
			c0-3.229,2.62-5.85,5.852-5.85l0,0C1861.707,498.21,1864.328,500.829,1864.328,504.061L1864.328,504.061z"/>
		<g id="A_text" enable-background="new    ">
			<path d="M1908.086,539.075h-3.299v-12.146h-12.38v12.146h-3.299v-24.81h3.299v9.73h12.38v-9.73h3.299V539.075z"/>
		</g>
		<g id="A_text" enable-background="new    ">
			<path d="M1921.948,550.439h-7.829v-1.477h3.012v-9.694h-3.012v-1.321c0.408,0,0.845-0.034,1.311-0.102
				c0.467-0.068,0.82-0.167,1.06-0.297c0.298-0.161,0.532-0.367,0.704-0.616c0.172-0.25,0.271-0.585,0.297-1.006h1.505v13.036h2.953
				V550.439z"/>
		</g>
	</g>
	<g id="A_SVGStep62">
		<path d="M1448.583,504.038c0,3.229-2.623,5.85-5.852,5.85l0,0c-3.23,0-5.854-2.621-5.854-5.85l0,0
			c0-3.229,2.621-5.851,5.854-5.851l0,0C1445.962,498.188,1448.583,500.807,1448.583,504.038L1448.583,504.038z"/>
		<g id="A_text" enable-background="new    ">
			<path d="M1484.613,539.075h-9.797v-2.532h3.249v-19.745h-3.249v-2.532h9.797v2.532h-3.249v19.745h3.249V539.075z"
				/>
		</g>
		<g id="A_text" enable-background="new    ">
			<path d="M1497.425,550.439h-7.829v-1.477h3.011v-9.694h-3.011v-1.321c0.408,0,0.845-0.034,1.311-0.102
				c0.466-0.068,0.819-0.167,1.059-0.297c0.298-0.161,0.532-0.367,0.704-0.616c0.171-0.25,0.271-0.585,0.296-1.006h1.505v13.036
				h2.953V550.439z"/>
		</g>
	</g>
	<g id="A_SVGStep63">
		<path d="M1240.731,864.032c0,3.229-2.623,5.85-5.854,5.85l0,0c-3.229,0-5.852-2.621-5.852-5.85l0,0
			c0-3.229,2.621-5.851,5.852-5.851l0,0C1238.11,858.182,1240.731,860.8,1240.731,864.032L1240.731,864.032z"/>
		<g id="A_text" enable-background="new    ">
			<path d="M1279.644,895.467c0,2.178-0.664,3.854-1.991,5.032c-1.327,1.178-3.107,1.766-5.34,1.766
				c-0.533,0-1.244-0.047-2.133-0.142c-0.889-0.094-1.633-0.208-2.233-0.341v-3.083h0.184c0.455,0.155,1.016,0.316,1.683,0.483
				c0.667,0.166,1.35,0.25,2.049,0.25c1.022,0,1.835-0.117,2.441-0.351c0.605-0.232,1.052-0.566,1.341-0.999
				c0.3-0.444,0.491-0.988,0.575-1.633c0.083-0.645,0.125-1.389,0.125-2.233v-14.479h-5.249v-2.633h8.547V895.467z"/>
		</g>
		<g id="A_text" enable-background="new    ">
			<path d="M1293.256,913.278h-7.829v-1.477h3.011v-9.694h-3.011v-1.321c0.408,0,0.845-0.034,1.311-0.102
				c0.466-0.068,0.819-0.167,1.059-0.297c0.298-0.161,0.532-0.367,0.704-0.616c0.171-0.25,0.271-0.585,0.296-1.006h1.505v13.036
				h2.953V913.278z"/>
		</g>
	</g>
	<g id="A_SVGStep64">
		<path d="M1033.084,1224.03c0,3.229-2.623,5.851-5.852,5.851l0,0c-3.23,0-5.853-2.621-5.853-5.851l0,0
			c0-3.229,2.621-5.851,5.853-5.851l0,0C1030.465,1218.181,1033.084,1220.8,1033.084,1224.03L1033.084,1224.03z"/>
		<g id="A_text" enable-background="new    ">
			<path d="M1076.312,1258.662h-4.282l-9.814-11.047l-2.466,2.633v8.414h-3.299v-24.81h3.299v12.946l12.046-12.946
				h3.999l-11.08,11.663L1076.312,1258.662z"/>
		</g>
		<g id="A_text" enable-background="new    ">
			<path d="M1087.207,1270.025h-7.829v-1.477h3.011v-9.694h-3.011v-1.321c0.408,0,0.845-0.034,1.311-0.102
				c0.466-0.068,0.819-0.167,1.059-0.297c0.298-0.161,0.532-0.367,0.704-0.616c0.171-0.25,0.271-0.585,0.296-1.006h1.505v13.036
				h2.953V1270.025z"/>
		</g>
	</g>
	<g id="A_SVGStep65">
		<path d="M1240.731,1583.973c0,3.23-2.623,5.851-5.854,5.851l0,0c-3.229,0-5.852-2.621-5.852-5.851l0,0
			c0-3.229,2.621-5.85,5.852-5.85l0,0C1238.11,1578.123,1240.731,1580.742,1240.731,1583.973L1240.731,1583.973z"/>
		<g id="A_text" enable-background="new    ">
			<path d="M1282.022,1617.354h-15.695v-24.81h3.299v21.877h12.396V1617.354z"/>
		</g>
		<g id="A_text" enable-background="new    ">
			<path d="M1292.52,1628.717h-7.829v-1.477h3.011v-9.694h-3.011v-1.321c0.408,0,0.845-0.034,1.311-0.102
				c0.466-0.068,0.819-0.167,1.059-0.297c0.298-0.161,0.532-0.367,0.704-0.616c0.171-0.25,0.271-0.585,0.296-1.006h1.505v13.036
				h2.953V1628.717z"/>
		</g>
	</g>
	<g id="A_SVGStep66">
		<path d="M1448.583,1943.92c0,3.229-2.623,5.85-5.852,5.85l0,0c-3.23,0-5.854-2.62-5.854-5.85l0,0
			c0-3.229,2.621-5.851,5.854-5.851l0,0C1445.962,1938.07,1448.583,1940.689,1448.583,1943.92L1448.583,1943.92z"/>
		<g id="A_text" enable-background="new    ">
			<path d="M1493.286,1973.436h-3.299v-21.377l-6.898,14.546h-1.966l-6.848-14.546v21.377h-3.083v-24.81h4.499
				l6.615,13.813l6.398-13.813h4.582V1973.436z"/>
		</g>
		<g id="A_text" enable-background="new    ">
			<path d="M1507.147,1984.799h-7.829v-1.477h3.011v-9.694h-3.011v-1.321c0.408,0,0.845-0.034,1.311-0.102
				c0.466-0.068,0.819-0.167,1.059-0.297c0.298-0.161,0.532-0.367,0.704-0.616c0.171-0.25,0.271-0.585,0.296-1.006h1.505v13.036
				h2.953V1984.799z"/>
		</g>
	</g>
	<g id="A_SVGStep67">
		<path d="M1864.326,1943.939c0,3.23-2.623,5.852-5.851,5.852l0,0c-3.229,0-5.853-2.621-5.853-5.852l0,0
			c0-3.229,2.62-5.85,5.853-5.85l0,0C1861.705,1938.091,1864.326,1940.71,1864.326,1943.939L1864.326,1943.939z"/>
		<g id="A_text" enable-background="new    ">
			<path d="M1908.036,1977.436h-4.082l-11.763-22.193v22.193h-3.083v-24.81h5.115l10.729,20.261v-20.261h3.083
				V1977.436z"/>
		</g>
		<g id="A_text" enable-background="new    ">
			<path d="M1921.831,1988.799h-7.829v-1.477h3.012v-9.694h-3.012v-1.321c0.408,0,0.845-0.034,1.311-0.102
				c0.467-0.068,0.82-0.167,1.06-0.297c0.298-0.161,0.532-0.367,0.704-0.616c0.172-0.25,0.271-0.585,0.297-1.006h1.505v13.036h2.953
				V1988.799z"/>
		</g>
	</g>
	<g id="A_SVGStep68">
		<path d="M2280.082,1943.941c0,3.229-2.623,5.851-5.852,5.851l0,0c-3.229,0-5.852-2.621-5.852-5.851l0,0
			c0-3.229,2.619-5.851,5.852-5.851l0,0C2277.461,1938.092,2280.082,1940.711,2280.082,1943.941L2280.082,1943.941z"/>
		<g id="A_text" enable-background="new    ">
			<path d="M2319.734,1952.476c1.01,1.11,1.785,2.472,2.324,4.082c0.538,1.61,0.808,3.438,0.808,5.481
				s-0.274,3.874-0.825,5.49c-0.549,1.616-1.318,2.963-2.307,4.04c-1.022,1.122-2.23,1.967-3.625,2.533
				c-1.394,0.566-2.984,0.85-4.773,0.85c-1.744,0-3.33-0.289-4.757-0.866c-1.427-0.578-2.641-1.417-3.641-2.517
				c-0.999-1.1-1.769-2.449-2.308-4.049s-0.809-3.427-0.809-5.481c0-2.021,0.268-3.835,0.801-5.44
				c0.533-1.604,1.311-2.979,2.332-4.123c0.978-1.089,2.191-1.922,3.641-2.5c1.449-0.577,3.029-0.866,4.74-0.866
				c1.777,0,3.375,0.292,4.791,0.875S2318.745,1951.397,2319.734,1952.476z M2319.434,1962.039c0-3.222-0.722-5.707-2.166-7.456
				c-1.443-1.75-3.416-2.624-5.914-2.624c-2.522,0-4.502,0.874-5.94,2.624c-1.438,1.749-2.157,4.234-2.157,7.456
				c0,3.255,0.732,5.746,2.199,7.473c1.466,1.728,3.432,2.591,5.898,2.591c2.465,0,4.429-0.863,5.889-2.591
				C2318.703,1967.785,2319.434,1965.294,2319.434,1962.039z"/>
		</g>
		<g id="A_text" enable-background="new    ">
			<path d="M2335.296,1985.799h-7.829v-1.477h3.012v-9.694h-3.012v-1.321c0.408,0,0.845-0.034,1.311-0.102
				c0.467-0.068,0.82-0.167,1.06-0.297c0.298-0.161,0.532-0.367,0.704-0.616c0.172-0.25,0.271-0.585,0.297-1.006h1.505v13.036h2.953
				V1985.799z"/>
		</g>
	</g>
	<g id="A_SVGStep69">
		<path d="M2488.084,1583.97c0,3.229-2.623,5.851-5.852,5.851l0,0c-3.229,0-5.852-2.621-5.852-5.851l0,0
			c0-3.229,2.621-5.85,5.852-5.85l0,0C2485.463,1578.119,2488.084,1580.739,2488.084,1583.97L2488.084,1583.97z"/>
		<g id="A_text" enable-background="new    ">
			<path d="M2527.342,1599.841c0,1.1-0.191,2.119-0.574,3.058c-0.384,0.938-0.92,1.752-1.608,2.44
				c-0.855,0.855-1.866,1.497-3.032,1.925s-2.639,0.642-4.416,0.642h-3.299v9.247h-3.299v-24.81h6.731
				c1.488,0,2.749,0.125,3.782,0.375s1.949,0.642,2.749,1.175c0.944,0.633,1.675,1.422,2.19,2.366
				C2527.084,1597.202,2527.342,1598.396,2527.342,1599.841z M2523.91,1599.924c0-0.855-0.15-1.6-0.451-2.232
				c-0.299-0.634-0.755-1.149-1.365-1.55c-0.533-0.344-1.142-0.592-1.824-0.741c-0.684-0.15-1.548-0.226-2.592-0.226h-3.266v9.914
				h2.783c1.332,0,2.416-0.119,3.248-0.358c0.834-0.238,1.511-0.619,2.033-1.141c0.521-0.533,0.892-1.095,1.107-1.684
				C2523.801,1601.318,2523.91,1600.657,2523.91,1599.924z"/>
		</g>
		<g id="A_text" enable-background="new    ">
			<path d="M2538.888,1628.516h-7.829v-1.477h3.012v-9.694h-3.012v-1.321c0.408,0,0.845-0.034,1.311-0.102
				c0.467-0.068,0.82-0.167,1.06-0.297c0.298-0.161,0.532-0.367,0.704-0.616c0.172-0.25,0.271-0.585,0.297-1.006h1.505v13.036h2.953
				V1628.516z"/>
		</g>
	</g>
	<g id="A_SVGStep70">
		<path d="M2695.836,1223.979c0,3.23-2.623,5.852-5.852,5.852l0,0c-3.23,0-5.854-2.621-5.854-5.852l0,0
			c0-3.229,2.621-5.85,5.854-5.85l0,0C2693.215,1218.13,2695.836,1220.749,2695.836,1223.979L2695.836,1223.979z"/>
		<g id="A_text" enable-background="new    ">
			<path d="M2735.491,1265.744c-0.667,0.166-1.325,0.285-1.975,0.357s-1.313,0.108-1.991,0.108
				c-1.933,0-3.484-0.53-4.656-1.591s-1.809-2.58-1.908-4.558c-0.267,0.045-0.525,0.075-0.775,0.092s-0.491,0.025-0.725,0.025
				c-1.744,0-3.33-0.289-4.757-0.866c-1.427-0.578-2.641-1.417-3.641-2.517c-0.999-1.1-1.769-2.449-2.308-4.049
				s-0.809-3.427-0.809-5.481c0-2.021,0.268-3.835,0.801-5.44c0.533-1.604,1.311-2.979,2.332-4.123
				c0.978-1.089,2.191-1.922,3.641-2.5c1.449-0.577,3.029-0.866,4.74-0.866c1.777,0,3.375,0.292,4.791,0.875
				s2.618,1.413,3.607,2.491c1.01,1.11,1.785,2.472,2.324,4.082c0.538,1.61,0.808,3.438,0.808,5.481
				c0,3.032-0.619,5.588-1.858,7.664c-1.238,2.078-2.901,3.533-4.99,4.366c0.045,1.266,0.345,2.249,0.9,2.949
				c0.555,0.699,1.566,1.049,3.033,1.049c0.455,0,0.996-0.069,1.624-0.208s1.075-0.264,1.341-0.375h0.45V1265.744z
				 M2731.559,1247.266c0-3.222-0.722-5.707-2.166-7.456c-1.443-1.75-3.416-2.624-5.914-2.624c-2.522,0-4.502,0.874-5.94,2.624
				c-1.438,1.749-2.157,4.234-2.157,7.456c0,3.255,0.732,5.746,2.199,7.473c1.466,1.728,3.432,2.591,5.898,2.591
				c2.465,0,4.429-0.863,5.889-2.591C2730.828,1253.012,2731.559,1250.521,2731.559,1247.266z"/>
		</g>
		<g id="A_text" enable-background="new    ">
			<path d="M2747.42,1271.025h-7.829v-1.477h3.011v-9.694h-3.011v-1.321c0.407,0,0.845-0.034,1.312-0.102
				c0.466-0.068,0.818-0.167,1.059-0.297c0.298-0.161,0.532-0.367,0.704-0.616c0.171-0.25,0.271-0.585,0.296-1.006h1.506v13.036
				h2.953V1271.025z"/>
		</g>
	</g>
	<g id="A_SVGStep71">
		<path d="M2487.906,864.029c0,3.229-2.623,5.85-5.852,5.85l0,0c-3.229,0-5.852-2.621-5.852-5.85l0,0
			c0-3.229,2.621-5.851,5.852-5.851l0,0C2485.287,858.18,2487.906,860.799,2487.906,864.029L2487.906,864.029z"/>
		<g id="A_text" enable-background="new    ">
			<path d="M2528.141,898.711h-4.282l-8.298-9.864h-4.648v9.864h-3.299v-24.81h6.947c1.5,0,2.75,0.098,3.75,0.292
				c0.999,0.194,1.898,0.541,2.699,1.041c0.899,0.566,1.602,1.28,2.107,2.141c0.506,0.861,0.758,1.953,0.758,3.274
				c0,1.788-0.449,3.285-1.35,4.49c-0.899,1.205-2.139,2.113-3.715,2.725L2528.141,898.711z M2520.426,880.883
				c0-0.711-0.125-1.342-0.375-1.892s-0.664-1.013-1.24-1.391c-0.479-0.322-1.045-0.547-1.7-0.675s-1.427-0.192-2.315-0.192h-3.883
				v9.364h3.332c1.045,0,1.955-0.092,2.732-0.274c0.777-0.184,1.439-0.525,1.983-1.025c0.5-0.466,0.869-1.002,1.108-1.607
				C2520.307,882.585,2520.426,881.815,2520.426,880.883z"/>
		</g>
		<g id="A_text" enable-background="new    ">
			<path d="M2538.538,910.074h-7.829v-1.477h3.012v-9.694h-3.012v-1.321c0.408,0,0.845-0.034,1.311-0.102
				c0.467-0.068,0.82-0.167,1.06-0.297c0.298-0.161,0.532-0.367,0.704-0.616c0.172-0.25,0.271-0.585,0.297-1.006h1.505v13.036h2.953
				V910.074z"/>
		</g>
	</g>
	<g id="A_SVGStep72">
		<path d="M2280.082,504.06c0,3.23-2.623,5.851-5.852,5.851l0,0c-3.229,0-5.852-2.621-5.852-5.851l0,0
			c0-3.229,2.619-5.85,5.852-5.85l0,0C2277.461,498.209,2280.082,500.829,2280.082,504.06L2280.082,504.06z"/>
		<g id="A_text" enable-background="new    ">
			<path d="M2315.268,531.994c0,0.966-0.225,1.922-0.676,2.865c-0.449,0.944-1.08,1.744-1.891,2.399
				c-0.889,0.711-1.924,1.267-3.107,1.666c-1.183,0.4-2.607,0.601-4.273,0.601c-1.789,0-3.396-0.167-4.824-0.5
				s-2.879-0.827-4.356-1.483v-4.132h0.233c1.255,1.044,2.705,1.85,4.349,2.416s3.188,0.85,4.632,0.85
				c2.043,0,3.635-0.383,4.773-1.149s1.708-1.788,1.708-3.066c0-1.1-0.27-1.91-0.808-2.433c-0.539-0.521-1.358-0.927-2.458-1.216
				c-0.833-0.222-1.735-0.405-2.708-0.55c-0.972-0.145-2.002-0.327-3.09-0.55c-2.2-0.467-3.83-1.264-4.891-2.392
				c-1.061-1.127-1.592-2.596-1.592-4.406c0-2.077,0.877-3.779,2.633-5.107c1.755-1.327,3.982-1.991,6.682-1.991
				c1.744,0,3.344,0.167,4.799,0.5s2.743,0.744,3.865,1.233v3.898h-0.233c-0.944-0.8-2.186-1.463-3.724-1.991
				c-1.539-0.527-3.113-0.791-4.724-0.791c-1.767,0-3.186,0.366-4.257,1.1c-1.072,0.733-1.608,1.678-1.608,2.832
				c0,1.033,0.267,1.845,0.8,2.433c0.533,0.59,1.472,1.039,2.816,1.35c0.711,0.156,1.721,0.345,3.031,0.567
				c1.311,0.222,2.422,0.449,3.333,0.683c1.844,0.489,3.232,1.228,4.165,2.216C2314.801,528.834,2315.268,530.217,2315.268,531.994z
				"/>
		</g>
		<g id="A_text" enable-background="new    ">
			<path d="M2327.763,550.439h-7.829v-1.477h3.012v-9.694h-3.012v-1.321c0.408,0,0.845-0.034,1.311-0.102
				c0.467-0.068,0.82-0.167,1.06-0.297c0.298-0.161,0.532-0.367,0.704-0.616c0.172-0.25,0.271-0.585,0.297-1.006h1.505v13.036h2.953
				V550.439z"/>
		</g>
	</g>
	<g id="A_SVGStep73">
		<path d="M1858.475,745.042c-64.368,0-124.883-25.066-170.399-70.582c-45.515-45.515-70.582-106.031-70.582-170.399
			c0-64.368,25.066-124.884,70.582-170.399c45.516-45.515,106.031-70.582,170.399-70.582c64.369,0,124.884,25.066,170.4,70.582
			s70.582,106.031,70.582,170.399c0,64.369-25.066,124.884-70.582,170.399C1983.359,719.976,1922.844,745.042,1858.475,745.042z
			 M1858.475,265.08c-131.774,0-238.98,107.206-238.98,238.98c0,131.775,107.206,238.981,238.98,238.981
			c131.775,0,238.982-107.207,238.982-238.981C2097.457,372.286,1990.25,265.08,1858.475,265.08z"/>
	</g>
	<g id="A_SVGStep74">
		<path d="M1442.732,745.02c-64.369,0-124.884-25.066-170.399-70.582c-45.516-45.515-70.582-106.03-70.582-170.399
			s25.066-124.884,70.582-170.399c45.515-45.515,106.031-70.582,170.399-70.582c64.368,0,124.883,25.066,170.399,70.582
			c45.515,45.515,70.582,106.031,70.582,170.399s-25.066,124.884-70.582,170.399S1507.1,745.02,1442.732,745.02z M1442.732,265.058
			c-131.775,0-238.981,107.207-238.981,238.981s107.207,238.98,238.981,238.98c131.774,0,238.98-107.206,238.98-238.98
			S1574.506,265.058,1442.732,265.058z"/>
	</g>
	<g id="A_SVGStep75">
		<path d="M1234.879,1105.013c-64.368,0-124.884-25.066-170.399-70.582
			c-45.516-45.515-70.582-106.031-70.582-170.399c0-64.369,25.066-124.884,70.582-170.399
			c45.515-45.516,106.031-70.582,170.399-70.582c64.369,0,124.884,25.066,170.399,70.582
			c45.516,45.515,70.582,106.031,70.582,170.399c0,64.368-25.066,124.884-70.582,170.399
			C1359.764,1079.946,1299.248,1105.013,1234.879,1105.013z M1234.879,625.051c-131.774,0-238.981,107.207-238.981,238.981
			c0,131.774,107.207,238.98,238.981,238.98c131.775,0,238.981-107.206,238.981-238.98
			C1473.861,732.257,1366.654,625.051,1234.879,625.051z"/>
	</g>
	<g id="A_SVGStep76">
		<path d="M1027.234,1465.012c-64.368,0-124.884-25.066-170.399-70.581c-45.515-45.516-70.582-106.03-70.582-170.398
			c0-64.369,25.066-124.884,70.582-170.399s106.031-70.582,170.399-70.582s124.883,25.066,170.398,70.582
			c45.515,45.515,70.581,106.03,70.581,170.399c0,64.368-25.066,124.884-70.581,170.398
			C1152.117,1439.945,1091.602,1465.012,1027.234,1465.012z M1027.234,985.052c-131.774,0-238.98,107.206-238.98,238.98
			c0,131.773,107.206,238.979,238.98,238.979c131.774,0,238.979-107.206,238.979-238.979
			C1266.213,1092.258,1159.008,985.052,1027.234,985.052z"/>
	</g>
	<g id="A_SVGStep77">
		<path d="M1234.879,1824.953c-64.368,0-124.883-25.066-170.398-70.582c-45.515-45.515-70.582-106.03-70.582-170.398
			s25.066-124.883,70.582-170.398c45.515-45.515,106.03-70.581,170.398-70.581s124.883,25.066,170.399,70.581
			c45.515,45.516,70.582,106.03,70.582,170.398s-25.066,124.884-70.582,170.398
			C1359.763,1799.887,1299.248,1824.953,1234.879,1824.953z M1234.879,1344.993c-131.774,0-238.98,107.206-238.98,238.979
			c0,131.774,107.206,238.98,238.98,238.98c131.774,0,238.98-107.206,238.98-238.98
			C1473.86,1452.199,1366.654,1344.993,1234.879,1344.993z"/>
	</g>
	<g id="A_SVGStep78">
		<path d="M1442.732,2184.898c-64.369,0-124.884-25.066-170.399-70.581s-70.582-106.03-70.582-170.398
			s25.066-124.884,70.582-170.398s106.03-70.581,170.399-70.581c64.368,0,124.883,25.066,170.398,70.581
			c45.515,45.515,70.581,106.03,70.581,170.398s-25.066,124.884-70.581,170.398
			C1567.615,2159.832,1507.1,2184.898,1442.732,2184.898z M1442.732,1704.939c-131.774,0-238.98,107.206-238.98,238.979
			s107.206,238.979,238.98,238.979c131.774,0,238.979-107.206,238.979-238.979S1574.506,1704.939,1442.732,1704.939z"/>
	</g>
	<g id="A_SVGStep79">
		<path d="M1858.475,2184.921c-64.369,0-124.884-25.066-170.399-70.581s-70.582-106.03-70.582-170.398
			s25.066-124.884,70.582-170.398c45.515-45.516,106.031-70.582,170.399-70.582c64.369,0,124.883,25.066,170.398,70.582
			c45.516,45.515,70.582,106.03,70.582,170.398s-25.066,124.884-70.582,170.398
			C1983.358,2159.854,1922.844,2184.921,1858.475,2184.921z M1858.475,1704.961c-131.774,0-238.98,107.206-238.98,238.98
			c0,131.773,107.206,238.979,238.98,238.979c131.774,0,238.98-107.206,238.98-238.979
			C2097.455,1812.167,1990.249,1704.961,1858.475,1704.961z"/>
	</g>
	<g id="A_SVGStep80">
		<path d="M2274.232,2184.922c-64.369,0-124.885-25.066-170.399-70.581s-70.581-106.03-70.581-170.398
			s25.066-124.884,70.581-170.399c45.515-45.515,106.03-70.581,170.399-70.581c64.367,0,124.883,25.066,170.398,70.581
			c45.514,45.516,70.58,106.031,70.58,170.399s-25.066,124.883-70.58,170.398C2399.115,2159.855,2338.6,2184.922,2274.232,2184.922z
			 M2274.232,1704.962c-131.775,0-238.98,107.206-238.98,238.98c0,131.773,107.205,238.979,238.98,238.979
			c131.773,0,238.979-107.206,238.979-238.979C2513.211,1812.168,2406.006,1704.962,2274.232,1704.962z"/>
	</g>
	<g id="A_SVGStep81">
		<path d="M2482.234,1824.949c-64.369,0-124.885-25.066-170.399-70.582c-45.515-45.515-70.581-106.03-70.581-170.398
			s25.066-124.884,70.581-170.398s106.03-70.581,170.399-70.581c64.367,0,124.883,25.066,170.398,70.581
			c45.514,45.515,70.58,106.03,70.58,170.398s-25.066,124.884-70.58,170.398C2607.117,1799.883,2546.602,1824.949,2482.234,1824.949
			z M2482.234,1344.989c-131.775,0-238.98,107.206-238.98,238.979c0,131.774,107.205,238.98,238.98,238.98
			c131.773,0,238.979-107.206,238.979-238.98C2721.213,1452.195,2614.008,1344.989,2482.234,1344.989z"/>
	</g>
	<g id="A_SVGStep82">
		<path d="M2689.984,1464.96c-64.367,0-124.883-25.066-170.398-70.581c-45.516-45.516-70.582-106.03-70.582-170.398
			s25.066-124.884,70.582-170.399S2625.617,983,2689.984,983c64.369,0,124.885,25.066,170.398,70.582
			c45.516,45.515,70.582,106.03,70.582,170.399c0,64.368-25.066,124.884-70.582,170.398
			C2814.869,1439.894,2754.354,1464.96,2689.984,1464.96z M2689.984,985c-131.773,0-238.98,107.206-238.98,238.98
			c0,131.773,107.207,238.979,238.98,238.979s238.98-107.206,238.98-238.979C2928.965,1092.206,2821.758,985,2689.984,985z"/>
	</g>
	<g id="A_SVGStep83">
		<path d="M2482.057,1105.009c-64.368,0-124.883-25.066-170.398-70.581c-45.516-45.515-70.582-106.03-70.582-170.398
			s25.066-124.884,70.582-170.399s106.031-70.582,170.398-70.582c64.369,0,124.884,25.066,170.398,70.582
			c45.516,45.516,70.582,106.031,70.582,170.399s-25.066,124.883-70.582,170.398
			C2606.94,1079.942,2546.426,1105.009,2482.057,1105.009z M2482.057,625.049c-131.773,0-238.98,107.206-238.98,238.98
			c0,131.774,107.207,238.979,238.98,238.979c131.774,0,238.98-107.206,238.98-238.979
			C2721.037,732.255,2613.831,625.049,2482.057,625.049z"/>
	</g>
	<g id="A_SVGStep84">
		<path d="M2274.232,745.04c-64.369,0-124.885-25.066-170.399-70.582c-45.515-45.515-70.581-106.03-70.581-170.399
			c0-64.368,25.066-124.883,70.581-170.398c45.515-45.515,106.03-70.581,170.399-70.581c64.367,0,124.883,25.066,170.398,70.581
			c45.514,45.515,70.58,106.03,70.58,170.398c0,64.369-25.066,124.884-70.58,170.399
			C2399.115,719.974,2338.6,745.04,2274.232,745.04z M2274.232,265.08c-131.775,0-238.98,107.206-238.98,238.979
			c0,131.774,107.205,238.98,238.98,238.98c131.773,0,238.979-107.206,238.979-238.98
			C2513.211,372.286,2406.006,265.08,2274.232,265.08z"/>
	</g>
	<g id="A_SVGStep85">
		<path d="M1656.451,384.072c0,3.23-2.623,5.85-5.851,5.85l0,0c-3.23,0-5.853-2.621-5.853-5.85l0,0
			c0-3.229,2.62-5.85,5.853-5.85l0,0C1653.83,378.222,1656.451,380.841,1656.451,384.072L1656.451,384.072z"/>
		<g id="A_text" enable-background="new    ">
			<path d="M1698.174,396.678h-8.864v21.877h-3.299v-21.877h-8.864v-2.933h21.027V396.678z"/>
		</g>
		<g id="A_text" enable-background="new    ">
			<path d="M1708.704,429.918h-7.829v-1.477h3.011v-9.694h-3.011v-1.321c0.408,0,0.845-0.034,1.311-0.102
				c0.466-0.068,0.819-0.167,1.059-0.297c0.298-0.161,0.532-0.367,0.704-0.616c0.171-0.25,0.271-0.585,0.296-1.006h1.505v13.036
				h2.953V429.918z"/>
		</g>
	</g>
	<g id="A_SVGStep86">
		<path d="M1240.73,624.051c0,3.23-2.623,5.851-5.853,5.851l0,0c-3.229,0-5.852-2.621-5.852-5.851l0,0
			c0-3.229,2.621-5.85,5.852-5.85l0,0C1238.109,618.202,1240.73,620.821,1240.73,624.051L1240.73,624.051z"/>
		<g id="A_text" enable-background="new    ">
			<path d="M1289.005,652.067c0,1.8-0.197,3.368-0.591,4.707c-0.395,1.339-1.042,2.452-1.941,3.341
				c-0.855,0.844-1.855,1.461-2.999,1.85s-2.477,0.583-3.999,0.583c-1.556,0-2.911-0.206-4.066-0.616
				c-1.155-0.411-2.127-1.017-2.916-1.816c-0.9-0.911-1.547-2.011-1.941-3.299c-0.394-1.289-0.591-2.872-0.591-4.749v-14.846h3.299
				v15.013c0,1.344,0.092,2.404,0.275,3.182c0.183,0.778,0.491,1.483,0.924,2.116c0.489,0.723,1.152,1.267,1.991,1.633
				c0.839,0.367,1.847,0.55,3.024,0.55c1.188,0,2.199-0.18,3.032-0.541s1.5-0.908,2-1.642c0.433-0.633,0.741-1.357,0.925-2.174
				c0.183-0.816,0.275-1.83,0.275-3.041v-15.096h3.299V652.067z"/>
		</g>
		<g id="A_text" enable-background="new    ">
			<path d="M1302.501,673.395h-7.829v-1.477h3.011v-9.694h-3.011v-1.321c0.408,0,0.845-0.034,1.311-0.102
				c0.466-0.068,0.819-0.167,1.059-0.297c0.298-0.161,0.532-0.367,0.704-0.616c0.171-0.25,0.271-0.585,0.296-1.006h1.505v13.036
				h2.953V673.395z"/>
		</g>
	</g>
	<g id="A_SVGStep87">
		<path d="M1033.083,984.051c0,3.229-2.623,5.851-5.851,5.851l0,0c-3.23,0-5.852-2.621-5.852-5.851l0,0
			c0-3.229,2.62-5.85,5.852-5.85l0,0C1030.462,978.202,1033.083,980.821,1033.083,984.051L1033.083,984.051z"/>
		<g id="A_text" enable-background="new    ">
			<path d="M1072.928,993.373l-9.031,24.81h-4.399l-9.031-24.81H1054l7.781,21.827l7.781-21.827H1072.928z"/>
		</g>
		<g id="A_text" enable-background="new    ">
			<path d="M1083.891,1029.546h-7.829v-1.477h3.011v-9.694h-3.011v-1.321c0.408,0,0.845-0.034,1.311-0.102
				c0.466-0.068,0.819-0.167,1.059-0.297c0.298-0.161,0.532-0.367,0.704-0.616c0.171-0.25,0.271-0.585,0.296-1.006h1.505v13.036
				h2.953V1029.546z"/>
		</g>
	</g>
	<g id="A_SVGStep88">
		<path d="M1033.083,1464.012c0,3.229-2.623,5.851-5.851,5.851l0,0c-3.23,0-5.852-2.621-5.852-5.851l0,0
			c0-3.229,2.62-5.85,5.852-5.85l0,0C1030.462,1458.162,1033.083,1460.781,1033.083,1464.012L1033.083,1464.012z"/>
		<g id="A_text" enable-background="new    ">
			<path d="M1081.742,1470.866l-6.448,24.81h-3.715l-5.215-20.594l-5.099,20.594h-3.632l-6.565-24.81h3.382
				l5.215,20.627l5.132-20.627h3.349l5.182,20.827l5.182-20.827H1081.742z"/>
		</g>
		<g id="A_text" enable-background="new    ">
			<path d="M1093.804,1507.039h-7.829v-1.477h3.011v-9.694h-3.011v-1.321c0.408,0,0.845-0.034,1.311-0.102
				c0.466-0.068,0.819-0.167,1.059-0.297c0.298-0.161,0.532-0.367,0.704-0.616c0.171-0.25,0.271-0.585,0.296-1.006h1.505v13.036
				h2.953V1507.039z"/>
		</g>
	</g>
	<g id="A_SVGStep89">
		<path d="M1240.73,1823.953c0,3.229-2.623,5.85-5.853,5.85l0,0c-3.229,0-5.852-2.621-5.852-5.85l0,0
			c0-3.229,2.621-5.852,5.852-5.852l0,0C1238.109,1818.104,1240.73,1820.723,1240.73,1823.953L1240.73,1823.953z"/>
		<g id="A_text" enable-background="new    ">
			<path d="M1282.141,1853.718h-19.361v-3.065l15.212-18.812h-14.646v-2.933h18.428v2.982l-15.362,18.895h15.729
				V1853.718z"/>
		</g>
		<g id="A_text" enable-background="new    ">
			<path d="M1294.586,1865.081h-7.829v-1.477h3.011v-9.694h-3.011v-1.321c0.408,0,0.845-0.034,1.311-0.102
				c0.466-0.068,0.819-0.167,1.059-0.297c0.298-0.161,0.532-0.367,0.704-0.616c0.171-0.25,0.271-0.585,0.296-1.006h1.505v13.036
				h2.953V1865.081z"/>
		</g>
	</g>
	<g id="A_SVGStep90">
		<path d="M1656.451,2063.93c0,3.23-2.623,5.851-5.851,5.851l0,0c-3.23,0-5.853-2.621-5.853-5.851l0,0
			c0-3.229,2.62-5.85,5.853-5.85l0,0C1653.83,2058.08,1656.451,2060.699,1656.451,2063.93L1656.451,2063.93z"/>
		<g id="A_text" enable-background="new    ">
			<path d="M1698.041,2092.693h-3.516l-2.433-6.915h-10.73l-2.433,6.915h-3.349l9.031-24.81h4.399L1698.041,2092.693
				z M1691.076,2082.946l-4.349-12.18l-4.365,12.18H1691.076z"/>
		</g>
		<g id="A_text" enable-background="new    ">
			<path d="M1709.829,2104.057h-9.792v-2.03c0.68-0.583,1.361-1.166,2.045-1.748
				c0.683-0.583,1.319-1.163,1.909-1.739c1.243-1.204,2.095-2.161,2.555-2.87s0.689-1.476,0.689-2.298
				c0-0.751-0.248-1.339-0.743-1.763c-0.496-0.424-1.187-0.637-2.074-0.637c-0.589,0-1.227,0.104-1.914,0.312
				c-0.687,0.207-1.357,0.524-2.011,0.951h-0.097v-2.039c0.46-0.227,1.073-0.435,1.841-0.622s1.51-0.282,2.229-0.282
				c1.483,0,2.645,0.358,3.487,1.074c0.842,0.715,1.263,1.685,1.263,2.909c0,0.55-0.07,1.063-0.209,1.539
				c-0.139,0.477-0.345,0.928-0.617,1.355c-0.252,0.401-0.549,0.797-0.889,1.186c-0.34,0.388-0.753,0.819-1.239,1.291
				c-0.693,0.681-1.409,1.34-2.147,1.978c-0.738,0.638-1.428,1.229-2.069,1.772h7.781V2104.057z"/>
		</g>
	</g>
	<g id="A_SVGStep91">
		<path d="M2072.217,2063.929c0,3.229-2.623,5.851-5.852,5.851l0,0c-3.229,0-5.852-2.621-5.852-5.851l0,0
			c0-3.229,2.621-5.851,5.852-5.851l0,0C2069.596,2058.078,2072.217,2060.698,2072.217,2063.929L2072.217,2063.929z"/>
		<g id="A_text" enable-background="new    ">
			<path d="M2112.605,2086.063c0,1.232-0.234,2.321-0.701,3.266c-0.466,0.944-1.094,1.722-1.883,2.332
				c-0.933,0.733-1.957,1.256-3.073,1.566c-1.116,0.312-2.536,0.467-4.257,0.467h-8.798v-24.81h7.348c1.811,0,3.166,0.066,4.065,0.2
				c0.9,0.133,1.761,0.411,2.583,0.833c0.911,0.478,1.571,1.091,1.982,1.841s0.616,1.647,0.616,2.691
				c0,1.177-0.299,2.18-0.899,3.007c-0.6,0.828-1.399,1.491-2.399,1.991v0.134c1.678,0.344,3,1.08,3.966,2.207
				C2112.121,2082.916,2112.605,2084.341,2112.605,2086.063z M2107.057,2074.882c0-0.6-0.1-1.104-0.301-1.516
				c-0.199-0.411-0.521-0.744-0.966-1c-0.522-0.3-1.155-0.486-1.899-0.559s-1.666-0.108-2.766-0.108h-3.933v7.165h4.266
				c1.032,0,1.854-0.053,2.466-0.158s1.178-0.325,1.699-0.658c0.522-0.333,0.892-0.764,1.108-1.291
				S2107.057,2075.604,2107.057,2074.882z M2109.172,2086.195c0-1-0.149-1.794-0.449-2.383c-0.301-0.588-0.844-1.088-1.633-1.499
				c-0.533-0.277-1.181-0.458-1.941-0.542c-0.761-0.083-1.686-0.125-2.773-0.125h-5.183v9.231h4.366
				c1.443,0,2.626-0.075,3.549-0.226c0.922-0.149,1.677-0.425,2.266-0.824c0.621-0.434,1.077-0.928,1.366-1.483
				C2109.027,2087.79,2109.172,2087.073,2109.172,2086.195z"/>
		</g>
		<g id="A_text" enable-background="new    ">
			<path d="M2125.311,2105.057h-9.792v-2.03c0.681-0.583,1.361-1.166,2.045-1.748
				c0.683-0.583,1.319-1.163,1.909-1.739c1.242-1.204,2.094-2.161,2.555-2.87c0.459-0.709,0.689-1.476,0.689-2.298
				c0-0.751-0.248-1.339-0.743-1.763s-1.187-0.637-2.074-0.637c-0.589,0-1.228,0.104-1.913,0.312
				c-0.688,0.207-1.357,0.524-2.012,0.951h-0.097v-2.039c0.46-0.227,1.073-0.435,1.841-0.622s1.51-0.282,2.229-0.282
				c1.483,0,2.646,0.358,3.487,1.074c0.842,0.715,1.263,1.685,1.263,2.909c0,0.55-0.069,1.063-0.209,1.539
				c-0.14,0.477-0.345,0.928-0.616,1.355c-0.253,0.401-0.549,0.797-0.889,1.186c-0.341,0.388-0.754,0.819-1.239,1.291
				c-0.692,0.681-1.409,1.34-2.147,1.978c-0.737,0.638-1.428,1.229-2.068,1.772h7.781V2105.057z"/>
		</g>
	</g>
	<g id="A_SVGStep92">
		<path d="M2488.084,1823.951c0,3.229-2.623,5.85-5.852,5.85l0,0c-3.229,0-5.852-2.621-5.852-5.85l0,0
			c0-3.229,2.621-5.852,5.852-5.852l0,0C2485.463,1818.101,2488.084,1820.72,2488.084,1823.951L2488.084,1823.951z"/>
		<g id="A_text" enable-background="new    ">
			<path d="M2523.774,1852.918c-0.611,0.267-1.163,0.517-1.657,0.75c-0.495,0.233-1.143,0.478-1.941,0.733
				c-0.678,0.211-1.414,0.392-2.208,0.541c-0.794,0.15-1.669,0.226-2.624,0.226c-1.8,0-3.436-0.253-4.907-0.759
				c-1.472-0.505-2.752-1.297-3.841-2.374c-1.066-1.055-1.899-2.396-2.499-4.023c-0.601-1.628-0.899-3.519-0.899-5.674
				c0-2.044,0.289-3.871,0.866-5.481s1.41-2.972,2.499-4.082c1.055-1.078,2.33-1.899,3.824-2.467c1.494-0.566,3.151-0.85,4.973-0.85
				c1.334,0,2.664,0.161,3.991,0.483s2.802,0.889,4.424,1.699v3.916h-0.25c-1.366-1.144-2.722-1.978-4.065-2.499
				c-1.344-0.522-2.783-0.783-4.315-0.783c-1.255,0-2.386,0.202-3.391,0.608c-1.005,0.405-1.902,1.035-2.69,1.891
				c-0.768,0.833-1.364,1.886-1.792,3.157c-0.428,1.272-0.642,2.741-0.642,4.407c0,1.744,0.236,3.244,0.709,4.499
				c0.472,1.255,1.08,2.277,1.824,3.065c0.777,0.822,1.686,1.431,2.725,1.824c1.038,0.395,2.135,0.592,3.29,0.592
				c1.589,0,3.077-0.271,4.466-0.816c1.389-0.544,2.688-1.36,3.898-2.449h0.233V1852.918z"/>
		</g>
		<g id="A_text" enable-background="new    ">
			<path d="M2536.463,1866.081h-9.791v-2.03c0.68-0.583,1.361-1.166,2.045-1.748
				c0.684-0.583,1.319-1.163,1.908-1.739c1.244-1.204,2.096-2.161,2.555-2.87c0.461-0.709,0.689-1.476,0.689-2.298
				c0-0.751-0.247-1.339-0.742-1.763c-0.496-0.424-1.188-0.637-2.074-0.637c-0.59,0-1.227,0.104-1.914,0.312
				c-0.686,0.207-1.356,0.524-2.01,0.951h-0.098v-2.039c0.46-0.227,1.073-0.435,1.841-0.622s1.511-0.282,2.229-0.282
				c1.482,0,2.645,0.358,3.487,1.074c0.842,0.715,1.263,1.685,1.263,2.909c0,0.55-0.07,1.063-0.209,1.539
				c-0.139,0.477-0.345,0.928-0.617,1.355c-0.252,0.401-0.549,0.797-0.889,1.186c-0.34,0.388-0.752,0.819-1.238,1.291
				c-0.693,0.681-1.408,1.34-2.146,1.978s-1.428,1.229-2.069,1.772h7.78V1866.081z"/>
		</g>
	</g>
	<g id="A_SVGStep93">
		<path d="M2695.836,1463.96c0,3.229-2.623,5.85-5.852,5.85l0,0c-3.23,0-5.854-2.62-5.854-5.85l0,0
			c0-3.229,2.621-5.851,5.854-5.851l0,0C2693.215,1458.11,2695.836,1460.729,2695.836,1463.96L2695.836,1463.96z"/>
		<g id="A_text" enable-background="new    ">
			<path d="M2735.324,1482.063c0,2.255-0.49,4.299-1.475,6.132c-0.982,1.833-2.291,3.255-3.924,4.266
				c-1.133,0.699-2.396,1.205-3.79,1.516c-1.394,0.312-3.229,0.467-5.507,0.467h-6.265v-24.81h6.198
				c2.422,0,4.346,0.175,5.773,0.524c1.427,0.351,2.635,0.831,3.623,1.441c1.689,1.056,3.006,2.461,3.949,4.216
				C2734.853,1477.57,2735.324,1479.653,2735.324,1482.063z M2731.876,1482.014c0-1.943-0.339-3.582-1.017-4.915
				s-1.688-2.383-3.032-3.149c-0.978-0.556-2.017-0.941-3.116-1.158s-2.416-0.325-3.949-0.325h-3.099v19.145h3.099
				c1.589,0,2.975-0.116,4.158-0.35c1.183-0.233,2.268-0.666,3.257-1.3c1.233-0.788,2.157-1.827,2.774-3.115
				C2731.567,1485.557,2731.876,1483.946,2731.876,1482.014z"/>
		</g>
		<g id="A_text" enable-background="new    ">
			<path d="M2748.68,1505.807h-9.791v-2.03c0.68-0.583,1.361-1.166,2.045-1.748c0.684-0.583,1.319-1.163,1.908-1.739
				c1.244-1.204,2.096-2.161,2.555-2.87c0.461-0.709,0.689-1.476,0.689-2.298c0-0.751-0.247-1.339-0.742-1.763
				c-0.496-0.424-1.188-0.637-2.074-0.637c-0.59,0-1.227,0.104-1.914,0.312c-0.686,0.207-1.356,0.524-2.01,0.951h-0.098v-2.039
				c0.46-0.227,1.073-0.435,1.841-0.622s1.511-0.282,2.229-0.282c1.482,0,2.645,0.358,3.487,1.074
				c0.842,0.715,1.263,1.685,1.263,2.909c0,0.55-0.07,1.063-0.209,1.539c-0.139,0.477-0.345,0.928-0.617,1.355
				c-0.252,0.401-0.549,0.797-0.889,1.186c-0.34,0.388-0.752,0.819-1.238,1.291c-0.693,0.681-1.408,1.34-2.146,1.978
				s-1.428,1.229-2.069,1.772h7.78V1505.807z"/>
		</g>
	</g>
	<g id="A_SVGStep94">
		<path d="M2695.836,983.999c0,3.229-2.623,5.85-5.852,5.85l0,0c-3.23,0-5.854-2.62-5.854-5.85l0,0
			c0-3.229,2.621-5.85,5.854-5.85l0,0C2693.215,978.149,2695.836,980.769,2695.836,983.999L2695.836,983.999z"/>
		<g id="A_text" enable-background="new    ">
			<path d="M2729.709,1016.482h-16.345v-24.81h16.345v2.933h-13.046v6.798h13.046v2.933h-13.046v9.214h13.046
				V1016.482z"/>
		</g>
		<g id="A_text" enable-background="new    ">
			<path d="M2742.965,1027.846h-9.792v-2.03c0.681-0.583,1.361-1.166,2.045-1.748
				c0.683-0.583,1.319-1.163,1.909-1.739c1.242-1.204,2.094-2.161,2.555-2.87c0.459-0.709,0.689-1.476,0.689-2.298
				c0-0.751-0.248-1.339-0.743-1.763s-1.187-0.637-2.074-0.637c-0.589,0-1.228,0.104-1.913,0.312
				c-0.688,0.207-1.357,0.524-2.012,0.951h-0.097v-2.039c0.46-0.227,1.073-0.435,1.841-0.622s1.51-0.282,2.229-0.282
				c1.483,0,2.646,0.358,3.487,1.074c0.842,0.715,1.263,1.685,1.263,2.909c0,0.55-0.069,1.063-0.209,1.539
				c-0.14,0.477-0.345,0.928-0.616,1.355c-0.253,0.401-0.549,0.797-0.889,1.186c-0.341,0.388-0.754,0.819-1.239,1.291
				c-0.692,0.681-1.409,1.34-2.147,1.978c-0.737,0.638-1.428,1.229-2.068,1.772h7.781V1027.846z"/>
		</g>
	</g>
	<g id="A_SVGStep95">
		<path d="M2487.906,624.049c0,3.23-2.623,5.851-5.852,5.851l0,0c-3.229,0-5.852-2.621-5.852-5.851l0,0
			c0-3.229,2.621-5.85,5.852-5.85l0,0C2485.287,618.199,2487.906,620.817,2487.906,624.049L2487.906,624.049z"/>
		<g id="A_text" enable-background="new    ">
			<path d="M2521.959,635.154h-12.547v6.998h10.78v2.933h-10.78v11.946h-3.299v-24.81h15.846V635.154z"/>
		</g>
		<g id="A_text" enable-background="new    ">
			<path d="M2533.746,668.395h-9.791v-2.03c0.68-0.583,1.361-1.166,2.045-1.748c0.684-0.583,1.319-1.163,1.908-1.739
				c1.244-1.204,2.096-2.161,2.555-2.87c0.461-0.709,0.689-1.476,0.689-2.298c0-0.751-0.247-1.339-0.742-1.763
				c-0.496-0.424-1.188-0.637-2.074-0.637c-0.59,0-1.227,0.104-1.914,0.312c-0.686,0.207-1.356,0.524-2.01,0.951h-0.098v-2.039
				c0.46-0.227,1.073-0.435,1.841-0.622s1.511-0.282,2.229-0.282c1.482,0,2.645,0.358,3.487,1.074
				c0.842,0.715,1.263,1.685,1.263,2.909c0,0.55-0.07,1.063-0.209,1.539c-0.139,0.477-0.345,0.928-0.617,1.355
				c-0.252,0.401-0.549,0.797-0.889,1.186c-0.34,0.388-0.752,0.819-1.238,1.291c-0.693,0.681-1.408,1.34-2.146,1.978
				s-1.428,1.229-2.069,1.772h7.78V668.395z"/>
		</g>
	</g>
	<g id="A_SVGStep96">
		<path d="M2072.217,384.072c0,3.23-2.623,5.85-5.852,5.85l0,0c-3.229,0-5.852-2.621-5.852-5.85l0,0
			c0-3.229,2.621-5.85,5.852-5.85l0,0C2069.596,378.222,2072.217,380.841,2072.217,384.072L2072.217,384.072z"/>
		<g id="A_text" enable-background="new    ">
			<path d="M2108.439,416.722c-1.355,0.622-2.835,1.164-4.439,1.625c-1.605,0.461-3.158,0.691-4.657,0.691
				c-1.933,0-3.704-0.267-5.315-0.8c-1.61-0.533-2.982-1.333-4.115-2.399c-1.145-1.077-2.027-2.425-2.649-4.041
				s-0.933-3.507-0.933-5.673c0-3.966,1.158-7.095,3.474-9.389s5.495-3.441,9.539-3.441c1.411,0,2.852,0.17,4.323,0.509
				c1.473,0.339,3.059,0.913,4.758,1.725v3.915h-0.301c-0.344-0.267-0.844-0.616-1.499-1.05c-0.655-0.433-1.3-0.794-1.933-1.083
				c-0.767-0.344-1.637-0.63-2.607-0.857c-0.973-0.228-2.074-0.342-3.308-0.342c-2.777,0-4.974,0.892-6.59,2.674
				c-1.616,1.783-2.425,4.196-2.425,7.24c0,3.21,0.844,5.706,2.533,7.489c1.688,1.782,3.987,2.674,6.898,2.674
				c1.066,0,2.129-0.105,3.189-0.316s1.992-0.483,2.791-0.816v-6.082h-6.647v-2.898h9.913V416.722z"/>
		</g>
		<g id="A_text" enable-background="new    ">
			<path d="M2122.229,429.918h-9.792v-2.03c0.681-0.583,1.361-1.166,2.045-1.748
				c0.683-0.583,1.319-1.163,1.909-1.739c1.242-1.204,2.094-2.161,2.555-2.87c0.459-0.709,0.689-1.476,0.689-2.298
				c0-0.751-0.248-1.339-0.743-1.763s-1.187-0.637-2.074-0.637c-0.589,0-1.228,0.104-1.913,0.312
				c-0.688,0.207-1.357,0.524-2.012,0.951h-0.097v-2.039c0.46-0.227,1.073-0.435,1.841-0.622s1.51-0.282,2.229-0.282
				c1.483,0,2.646,0.358,3.487,1.074c0.842,0.715,1.263,1.685,1.263,2.909c0,0.55-0.069,1.063-0.209,1.539
				c-0.14,0.477-0.345,0.928-0.616,1.355c-0.253,0.401-0.549,0.797-0.889,1.186c-0.341,0.388-0.754,0.819-1.239,1.291
				c-0.692,0.681-1.409,1.34-2.147,1.978c-0.737,0.638-1.428,1.229-2.068,1.772h7.781V429.918z"/>
		</g>
	</g>
	<g id="A_SVGStep97">
		<path d="M1650.6,625.053c-64.369,0-124.884-25.066-170.399-70.582c-45.516-45.516-70.582-106.031-70.582-170.399
			s25.066-124.884,70.582-170.399c45.515-45.515,106.031-70.582,170.399-70.582c64.368,0,124.883,25.066,170.399,70.582
			c45.515,45.516,70.581,106.031,70.581,170.399s-25.066,124.884-70.581,170.399C1775.483,599.986,1714.968,625.053,1650.6,625.053z
			 M1650.6,145.091c-131.775,0-238.981,107.207-238.981,238.981s107.207,238.981,238.981,238.981
			c131.774,0,238.98-107.207,238.98-238.981S1782.375,145.091,1650.6,145.091z"/>
	</g>
	<g id="A_SVGStep98">
		<path d="M1234.879,865.032c-64.368,0-124.884-25.066-170.399-70.582c-45.516-45.515-70.582-106.031-70.582-170.399
			s25.066-124.884,70.582-170.399c45.515-45.516,106.031-70.582,170.399-70.582s124.884,25.066,170.399,70.582
			c45.516,45.515,70.582,106.031,70.582,170.399c0,64.369-25.066,124.884-70.582,170.399
			C1359.764,839.966,1299.248,865.032,1234.879,865.032z M1234.879,385.07c-131.774,0-238.981,107.207-238.981,238.981
			c0,131.775,107.207,238.981,238.981,238.981c131.775,0,238.981-107.207,238.981-238.981
			C1473.861,492.276,1366.654,385.07,1234.879,385.07z"/>
	</g>
	<g id="A_SVGStep99">
		<path d="M1027.015,1225.031c-64.368,0-124.883-25.066-170.398-70.582
			c-45.515-45.516-70.582-106.031-70.582-170.399s25.066-124.883,70.582-170.398c45.515-45.515,106.03-70.581,170.398-70.581
			s124.884,25.066,170.399,70.581c45.515,45.515,70.581,106.03,70.581,170.398s-25.066,124.884-70.581,170.399
			C1151.898,1199.965,1091.383,1225.031,1027.015,1225.031z M1027.015,745.071c-131.774,0-238.98,107.206-238.98,238.979
			c0,131.774,107.206,238.98,238.98,238.98s238.98-107.206,238.98-238.98C1265.995,852.277,1158.789,745.071,1027.015,745.071z"/>
	</g>
	<g id="A_SVGStep100">
		<path d="M1027.031,1704.992c-64.368,0-124.884-25.066-170.399-70.582c-45.515-45.515-70.581-106.03-70.581-170.398
			s25.066-124.884,70.581-170.398c45.515-45.515,106.031-70.581,170.399-70.581s124.883,25.066,170.398,70.581
			c45.515,45.515,70.581,106.03,70.581,170.398s-25.066,124.884-70.581,170.398
			C1151.914,1679.926,1091.399,1704.992,1027.031,1704.992z M1027.031,1225.032c-131.774,0-238.98,107.206-238.98,238.979
			c0,131.774,107.206,238.98,238.98,238.98s238.979-107.206,238.979-238.98C1266.01,1332.238,1158.805,1225.032,1027.031,1225.032z"
			/>
	</g>
	<g id="A_SVGStep101">
		<path d="M1234.879,2064.934c-64.368,0-124.883-25.066-170.398-70.582c-45.515-45.515-70.582-106.03-70.582-170.398
			s25.066-124.884,70.582-170.398c45.515-45.516,106.03-70.582,170.398-70.582s124.883,25.066,170.399,70.582
			c45.515,45.515,70.582,106.03,70.582,170.398s-25.066,124.884-70.582,170.398
			C1359.763,2039.867,1299.248,2064.934,1234.879,2064.934z M1234.879,1584.973c-131.774,0-238.98,107.206-238.98,238.98
			s107.206,238.98,238.98,238.98c131.774,0,238.98-107.206,238.98-238.98S1366.654,1584.973,1234.879,1584.973z"/>
	</g>
	<g id="A_SVGStep102">
		<path d="M1650.6,2304.91c-64.368,0-124.884-25.066-170.399-70.582c-45.515-45.515-70.582-106.03-70.582-170.398
			s25.066-124.884,70.582-170.398s106.03-70.581,170.399-70.581c64.368,0,124.883,25.066,170.398,70.581
			s70.582,106.03,70.582,170.398s-25.066,124.884-70.582,170.398C1775.483,2279.844,1714.968,2304.91,1650.6,2304.91z
			 M1650.6,1824.95c-131.774,0-238.98,107.206-238.98,238.979c0,131.774,107.206,238.98,238.98,238.98
			c131.774,0,238.98-107.206,238.98-238.98C1889.58,1932.156,1782.374,1824.95,1650.6,1824.95z"/>
	</g>
	<g id="A_SVGStep103">
		<path d="M2066.367,2304.908c-64.369,0-124.884-25.066-170.398-70.582c-45.515-45.515-70.582-106.03-70.582-170.398
			s25.066-124.884,70.582-170.398c45.515-45.515,106.029-70.581,170.398-70.581c64.367,0,124.883,25.066,170.398,70.581
			c45.514,45.515,70.58,106.03,70.58,170.398s-25.066,124.884-70.58,170.398C2191.25,2279.842,2130.734,2304.908,2066.367,2304.908z
			 M2066.367,1824.948c-131.774,0-238.98,107.206-238.98,238.979c0,131.774,107.206,238.98,238.98,238.98
			c131.773,0,238.979-107.206,238.979-238.98C2305.346,1932.154,2198.141,1824.948,2066.367,1824.948z"/>
	</g>
	<g id="A_SVGStep104">
		<path d="M2482.078,2064.93c-64.369,0-124.884-25.066-170.398-70.581c-45.516-45.516-70.582-106.03-70.582-170.398
			s25.066-124.884,70.582-170.399c45.515-45.515,106.029-70.581,170.398-70.581c64.367,0,124.883,25.066,170.398,70.581
			c45.514,45.516,70.58,106.031,70.58,170.399s-25.066,124.883-70.58,170.398C2606.961,2039.863,2546.445,2064.93,2482.078,2064.93z
			 M2482.078,1584.97c-131.774,0-238.98,107.206-238.98,238.98c0,131.773,107.206,238.979,238.98,238.979
			c131.773,0,238.979-107.206,238.979-238.979C2721.057,1692.176,2613.852,1584.97,2482.078,1584.97z"/>
	</g>
	<g id="A_SVGStep105">
		<path d="M2689.984,1704.939c-64.367,0-124.883-25.066-170.398-70.582c-45.516-45.515-70.582-106.03-70.582-170.398
			s25.066-124.884,70.582-170.398c45.516-45.516,106.031-70.582,170.398-70.582c64.369,0,124.883,25.066,170.398,70.582
			c45.516,45.515,70.582,106.03,70.582,170.398s-25.066,124.884-70.582,170.398
			C2814.867,1679.873,2754.354,1704.939,2689.984,1704.939z M2689.984,1224.979c-131.773,0-238.98,107.206-238.98,238.98
			s107.207,238.98,238.98,238.98s238.98-107.206,238.98-238.98S2821.758,1224.979,2689.984,1224.979z"/>
	</g>
	<g id="A_SVGStep106">
		<path d="M2689.984,1224.979c-64.367,0-124.883-25.066-170.398-70.581c-45.516-45.515-70.582-106.03-70.582-170.398
			s25.066-124.883,70.582-170.398c45.516-45.515,106.031-70.581,170.398-70.581c64.369,0,124.885,25.066,170.398,70.581
			c45.516,45.515,70.582,106.03,70.582,170.398s-25.066,124.883-70.582,170.398
			C2814.869,1199.912,2754.354,1224.979,2689.984,1224.979z M2689.984,745.02c-131.773,0-238.98,107.206-238.98,238.979
			s107.207,238.979,238.98,238.979s238.98-107.206,238.98-238.979S2821.758,745.02,2689.984,745.02z"/>
	</g>
	<g id="A_SVGStep107">
		<path d="M2482.057,865.029c-64.367,0-124.883-25.066-170.398-70.582s-70.582-106.031-70.582-170.399
			s25.066-124.883,70.582-170.398s106.03-70.582,170.398-70.582c64.369,0,124.884,25.066,170.398,70.582
			c45.516,45.515,70.582,106.03,70.582,170.398s-25.066,124.883-70.582,170.399C2606.94,839.963,2546.426,865.029,2482.057,865.029z
			 M2482.057,385.069c-131.773,0-238.98,107.206-238.98,238.98c0,131.774,107.207,238.98,238.98,238.98
			c131.774,0,238.98-107.206,238.98-238.98C2721.037,492.275,2613.831,385.069,2482.057,385.069z"/>
	</g>
	<g id="A_SVGStep108">
		<path d="M2066.367,625.052c-64.369,0-124.884-25.066-170.398-70.581c-45.515-45.515-70.582-106.031-70.582-170.399
			s25.066-124.883,70.582-170.398c45.515-45.515,106.029-70.582,170.398-70.582c64.367,0,124.883,25.066,170.398,70.582
			c45.514,45.515,70.58,106.03,70.58,170.398s-25.066,124.884-70.58,170.399C2191.25,599.985,2130.734,625.052,2066.367,625.052z
			 M2066.367,145.092c-131.774,0-238.98,107.206-238.98,238.98s107.206,238.98,238.98,238.98
			c131.773,0,238.979-107.206,238.979-238.98S2198.141,145.092,2066.367,145.092z"/>
	</g>
	<g id="A_SVGStep109">
		<path d="M1864.326,264.08c0,3.23-2.621,5.85-5.85,5.85l0,0c-3.23,0-5.853-2.621-5.853-5.85l0,0
			c0-3.229,2.62-5.85,5.853-5.85l0,0C1861.705,258.23,1864.326,260.85,1864.326,264.08L1864.326,264.08z"/>
		<g id="A_text" enable-background="new    ">
			<path d="M1900.549,296.73c-1.355,0.622-2.835,1.164-4.439,1.625c-1.605,0.461-3.158,0.691-4.657,0.691
				c-1.933,0-3.704-0.267-5.315-0.8c-1.61-0.533-2.982-1.333-4.115-2.399c-1.145-1.077-2.027-2.425-2.649-4.041
				s-0.933-3.507-0.933-5.673c0-3.966,1.158-7.095,3.474-9.389s5.495-3.441,9.539-3.441c1.411,0,2.852,0.17,4.323,0.509
				c1.473,0.339,3.059,0.913,4.758,1.725v3.915h-0.301c-0.344-0.267-0.844-0.616-1.499-1.05c-0.655-0.433-1.3-0.794-1.933-1.083
				c-0.767-0.344-1.637-0.63-2.607-0.857c-0.973-0.228-2.074-0.342-3.308-0.342c-2.777,0-4.974,0.892-6.59,2.674
				c-1.616,1.783-2.425,4.196-2.425,7.24c0,3.21,0.844,5.706,2.533,7.489c1.688,1.782,3.987,2.674,6.898,2.674
				c1.066,0,2.129-0.105,3.189-0.316s1.992-0.483,2.791-0.816v-6.082h-6.647v-2.898h9.913V296.73z"/>
		</g>
		<g id="A_text" enable-background="new    ">
			<path d="M1914.338,309.927h-9.792v-2.03c0.681-0.583,1.361-1.166,2.045-1.748
				c0.683-0.583,1.319-1.163,1.909-1.739c1.242-1.204,2.094-2.161,2.555-2.87c0.459-0.709,0.689-1.476,0.689-2.298
				c0-0.751-0.248-1.339-0.743-1.763s-1.187-0.637-2.074-0.637c-0.589,0-1.228,0.104-1.913,0.312
				c-0.688,0.207-1.357,0.524-2.012,0.951h-0.097v-2.039c0.46-0.227,1.073-0.435,1.841-0.622s1.51-0.282,2.229-0.282
				c1.483,0,2.646,0.358,3.487,1.074c0.842,0.715,1.263,1.685,1.263,2.909c0,0.55-0.069,1.063-0.209,1.539
				c-0.14,0.477-0.345,0.928-0.616,1.355c-0.253,0.401-0.549,0.797-0.889,1.186c-0.341,0.388-0.754,0.819-1.239,1.291
				c-0.692,0.681-1.409,1.34-2.147,1.978c-0.737,0.638-1.428,1.229-2.068,1.772h7.781V309.927z"/>
		</g>
	</g>
	<g id="A_SVGStep110">
		<path d="M1032.866,744.071c0,3.229-2.623,5.85-5.851,5.85l0,0c-3.23,0-5.853-2.621-5.853-5.85l0,0
			c0-3.229,2.621-5.851,5.853-5.851l0,0C1030.245,738.221,1032.866,740.84,1032.866,744.071L1032.866,744.071z"/>
		<g id="A_text" enable-background="new    ">
			<path d="M1079.445,780.723h-3.299v-12.146h-12.38v12.146h-3.299v-24.81h3.299v9.73h12.38v-9.73h3.299V780.723z"/>
		</g>
		<g id="A_text" enable-background="new    ">
			<path d="M1094.132,792.086h-9.792v-2.03c0.68-0.583,1.361-1.166,2.045-1.748c0.683-0.583,1.319-1.163,1.909-1.739
				c1.243-1.204,2.095-2.161,2.555-2.87s0.689-1.476,0.689-2.298c0-0.751-0.248-1.339-0.743-1.763
				c-0.496-0.424-1.187-0.637-2.074-0.637c-0.589,0-1.227,0.104-1.914,0.312c-0.687,0.207-1.357,0.524-2.011,0.951h-0.097v-2.039
				c0.46-0.227,1.073-0.435,1.841-0.622s1.51-0.282,2.229-0.282c1.483,0,2.645,0.358,3.487,1.074
				c0.842,0.715,1.263,1.685,1.263,2.909c0,0.55-0.07,1.063-0.209,1.539c-0.139,0.477-0.345,0.928-0.617,1.355
				c-0.252,0.401-0.549,0.797-0.889,1.186c-0.34,0.388-0.753,0.819-1.239,1.291c-0.693,0.681-1.409,1.34-2.147,1.978
				c-0.738,0.638-1.428,1.229-2.069,1.772h7.781V792.086z"/>
		</g>
	</g>
	<g id="A_SVGStep111">
		<path d="M1032.882,1703.992c0,3.229-2.623,5.851-5.852,5.851l0,0c-3.229,0-5.852-2.621-5.852-5.851l0,0
			c0-3.229,2.621-5.851,5.852-5.851l0,0C1030.261,1698.143,1032.882,1700.762,1032.882,1703.992L1032.882,1703.992z"/>
		<g id="A_text" enable-background="new    ">
			<path d="M1065.464,1729.028c0,2.178-0.664,3.854-1.991,5.032c-1.327,1.178-3.107,1.766-5.34,1.766
				c-0.533,0-1.244-0.047-2.133-0.142c-0.889-0.094-1.633-0.208-2.233-0.341v-3.083h0.184c0.455,0.155,1.016,0.316,1.683,0.483
				c0.667,0.166,1.35,0.25,2.049,0.25c1.022,0,1.835-0.117,2.441-0.351c0.605-0.232,1.052-0.566,1.341-0.999
				c0.3-0.444,0.491-0.988,0.575-1.633c0.083-0.645,0.125-1.389,0.125-2.233V1713.3h-5.249v-2.633h8.547V1729.028z"/>
		</g>
		<g id="A_text" enable-background="new    ">
			<path d="M1079.902,1746.84h-9.792v-2.03c0.68-0.583,1.361-1.166,2.045-1.748c0.683-0.583,1.319-1.163,1.909-1.739
				c1.243-1.204,2.095-2.161,2.555-2.87s0.689-1.476,0.689-2.298c0-0.751-0.248-1.339-0.743-1.763
				c-0.496-0.424-1.187-0.637-2.074-0.637c-0.589,0-1.227,0.104-1.914,0.312c-0.687,0.207-1.357,0.524-2.011,0.951h-0.097v-2.039
				c0.46-0.227,1.073-0.435,1.841-0.622s1.51-0.282,2.229-0.282c1.483,0,2.645,0.358,3.487,1.074
				c0.842,0.715,1.263,1.685,1.263,2.909c0,0.55-0.07,1.063-0.209,1.539c-0.139,0.477-0.345,0.928-0.617,1.355
				c-0.252,0.401-0.549,0.797-0.889,1.186c-0.34,0.388-0.753,0.819-1.239,1.291c-0.693,0.681-1.409,1.34-2.147,1.978
				c-0.738,0.638-1.428,1.229-2.069,1.772h7.781V1746.84z"/>
		</g>
	</g>
	<g id="A_SVGStep112">
		<path d="M1864.326,2183.921c0,3.229-2.623,5.851-5.851,5.851l0,0c-3.229,0-5.853-2.621-5.853-5.851l0,0
			c0-3.229,2.62-5.851,5.853-5.851l0,0C1861.705,2178.071,1864.326,2180.689,1864.326,2183.921L1864.326,2183.921z"/>
		<g id="A_text" enable-background="new    ">
			<path d="M1905.051,2212.072h-4.282l-9.813-11.047l-2.467,2.633v8.414h-3.299v-24.81h3.299v12.946l12.047-12.946
				h3.999l-11.08,11.663L1905.051,2212.072z"/>
		</g>
		<g id="A_text" enable-background="new    ">
			<path d="M1916.773,2223.436h-9.792v-2.03c0.681-0.583,1.361-1.166,2.045-1.748
				c0.683-0.583,1.319-1.163,1.909-1.739c1.242-1.204,2.094-2.161,2.555-2.87c0.459-0.709,0.689-1.476,0.689-2.298
				c0-0.751-0.248-1.339-0.743-1.763s-1.187-0.637-2.074-0.637c-0.589,0-1.228,0.104-1.913,0.312
				c-0.688,0.207-1.357,0.524-2.012,0.951h-0.097v-2.039c0.46-0.227,1.073-0.435,1.841-0.622s1.51-0.282,2.229-0.282
				c1.483,0,2.646,0.358,3.487,1.074c0.842,0.715,1.263,1.685,1.263,2.909c0,0.55-0.069,1.063-0.209,1.539
				c-0.14,0.477-0.345,0.928-0.616,1.355c-0.253,0.401-0.549,0.797-0.889,1.186c-0.341,0.388-0.754,0.819-1.239,1.291
				c-0.692,0.681-1.409,1.34-2.147,1.978c-0.737,0.638-1.428,1.229-2.068,1.772h7.781V2223.436z"/>
		</g>
	</g>
	<g id="A_SVGStep113">
		<path d="M2695.836,1703.939c0,3.229-2.623,5.851-5.852,5.851l0,0c-3.23,0-5.854-2.621-5.854-5.851l0,0
			c0-3.229,2.621-5.851,5.854-5.851l0,0C2693.215,1698.09,2695.836,1700.709,2695.836,1703.939L2695.836,1703.939z"/>
		<g id="A_text" enable-background="new    ">
			<path d="M2732.06,1735.477h-15.695v-24.81h3.299v21.877h12.396V1735.477z"/>
		</g>
		<g id="A_text" enable-background="new    ">
			<path d="M2743.381,1746.84h-9.791v-2.03c0.68-0.583,1.361-1.166,2.045-1.748c0.684-0.583,1.319-1.163,1.908-1.739
				c1.244-1.204,2.096-2.161,2.555-2.87c0.461-0.709,0.689-1.476,0.689-2.298c0-0.751-0.247-1.339-0.742-1.763
				c-0.496-0.424-1.188-0.637-2.074-0.637c-0.59,0-1.227,0.104-1.914,0.312c-0.686,0.207-1.356,0.524-2.01,0.951h-0.098v-2.039
				c0.46-0.227,1.073-0.435,1.841-0.622s1.511-0.282,2.229-0.282c1.482,0,2.645,0.358,3.487,1.074
				c0.842,0.715,1.263,1.685,1.263,2.909c0,0.55-0.07,1.063-0.209,1.539c-0.139,0.477-0.345,0.928-0.617,1.355
				c-0.252,0.401-0.549,0.797-0.889,1.186c-0.34,0.388-0.752,0.819-1.238,1.291c-0.693,0.681-1.408,1.34-2.146,1.978
				s-1.428,1.229-2.069,1.772h7.78V1746.84z"/>
		</g>
	</g>
	<g id="A_SVGStep114">
		<path d="M2695.836,744.019c0,3.23-2.623,5.851-5.852,5.851l0,0c-3.23,0-5.854-2.621-5.854-5.851l0,0
			c0-3.229,2.621-5.85,5.854-5.85l0,0C2693.215,738.168,2695.836,740.788,2695.836,744.019L2695.836,744.019z"/>
		<g id="A_text" enable-background="new    ">
			<path d="M2737.458,779.723h-3.3v-21.377l-6.897,14.546h-1.966l-6.848-14.546v21.377h-3.083v-24.81h4.499
				l6.614,13.813l6.398-13.813h4.582V779.723z"/>
		</g>
		<g id="A_text" enable-background="new    ">
			<path d="M2752.145,791.086h-9.791v-2.03c0.68-0.583,1.361-1.166,2.045-1.748c0.684-0.583,1.319-1.163,1.908-1.739
				c1.244-1.204,2.096-2.161,2.555-2.87c0.461-0.709,0.689-1.476,0.689-2.298c0-0.751-0.247-1.339-0.742-1.763
				c-0.496-0.424-1.188-0.637-2.074-0.637c-0.59,0-1.227,0.104-1.914,0.312c-0.686,0.207-1.356,0.524-2.01,0.951h-0.098v-2.039
				c0.46-0.227,1.073-0.435,1.841-0.622s1.511-0.282,2.229-0.282c1.482,0,2.645,0.358,3.487,1.074
				c0.842,0.715,1.263,1.685,1.263,2.909c0,0.55-0.07,1.063-0.209,1.539c-0.139,0.477-0.345,0.928-0.617,1.355
				c-0.252,0.401-0.549,0.797-0.889,1.186c-0.34,0.388-0.752,0.819-1.238,1.291c-0.693,0.681-1.408,1.34-2.146,1.978
				s-1.428,1.229-2.069,1.772h7.78V791.086z"/>
		</g>
	</g>
	<g id="A_SVGStep115">
		<path d="M1858.477,505.06c-64.369,0-124.884-25.066-170.399-70.581c-45.515-45.515-70.582-106.03-70.582-170.398
			s25.066-124.884,70.582-170.399c45.515-45.515,106.03-70.581,170.399-70.581s124.883,25.066,170.398,70.581
			c45.516,45.515,70.582,106.031,70.582,170.399s-25.066,124.883-70.582,170.398C1983.36,479.993,1922.846,505.06,1858.477,505.06z
			 M1858.477,25.1c-131.774,0-238.98,107.206-238.98,238.98s107.206,238.979,238.98,238.979
			c131.774,0,238.98-107.206,238.98-238.979S1990.251,25.1,1858.477,25.1z"/>
	</g>
	<g id="A_SVGStep116">
		<path d="M1027.016,985.051c-64.368,0-124.883-25.066-170.398-70.581c-45.515-45.515-70.582-106.03-70.582-170.398
			c0-64.369,25.066-124.884,70.582-170.399s106.03-70.582,170.398-70.582s124.884,25.066,170.399,70.582
			c45.515,45.515,70.581,106.03,70.581,170.399c0,64.368-25.066,124.883-70.581,170.398
			C1151.899,959.984,1091.384,985.051,1027.016,985.051z M1027.016,505.091c-131.774,0-238.98,107.206-238.98,238.98
			c0,131.774,107.206,238.979,238.98,238.979s238.98-107.206,238.98-238.979C1265.996,612.297,1158.79,505.091,1027.016,505.091z"/>
	</g>
	<g id="A_SVGStep117">
		<path d="M1027.031,1944.973c-64.368,0-124.884-25.066-170.399-70.581c-45.515-45.516-70.581-106.03-70.581-170.398
			s25.066-124.884,70.581-170.398c45.515-45.516,106.031-70.582,170.399-70.582s124.883,25.066,170.398,70.582
			c45.515,45.515,70.581,106.03,70.581,170.398s-25.066,124.883-70.581,170.398
			C1151.914,1919.906,1091.399,1944.973,1027.031,1944.973z M1027.031,1465.013c-131.774,0-238.98,107.206-238.98,238.98
			c0,131.773,107.206,238.979,238.98,238.979s238.979-107.206,238.979-238.979
			C1266.01,1572.219,1158.805,1465.013,1027.031,1465.013z"/>
	</g>
	<g id="A_SVGStep118">
		<path d="M1858.475,2424.9c-64.368,0-124.884-25.066-170.399-70.582c-45.515-45.515-70.582-106.03-70.582-170.398
			s25.066-124.884,70.582-170.398c45.515-45.516,106.031-70.582,170.399-70.582c64.369,0,124.883,25.066,170.398,70.582
			c45.516,45.515,70.582,106.03,70.582,170.398s-25.066,124.884-70.582,170.398C1983.358,2399.834,1922.844,2424.9,1858.475,2424.9z
			 M1858.475,1944.939c-131.774,0-238.98,107.206-238.98,238.98s107.206,238.98,238.98,238.98
			c131.774,0,238.98-107.206,238.98-238.98S1990.249,1944.939,1858.475,1944.939z"/>
	</g>
	<g id="A_SVGStep119">
		<path d="M2689.986,1944.921c-64.369,0-124.885-25.066-170.399-70.581s-70.581-106.03-70.581-170.398
			s25.066-124.884,70.581-170.398c45.515-45.516,106.03-70.582,170.399-70.582c64.367,0,124.883,25.066,170.398,70.582
			c45.514,45.515,70.58,106.03,70.58,170.398s-25.066,124.883-70.58,170.398C2814.869,1919.854,2754.354,1944.921,2689.986,1944.921
			z M2689.986,1464.961c-131.775,0-238.98,107.206-238.98,238.98c0,131.773,107.205,238.979,238.98,238.979
			c131.773,0,238.979-107.206,238.979-238.979C2928.965,1572.167,2821.76,1464.961,2689.986,1464.961z"/>
	</g>
	<g id="A_SVGStep120">
		<path d="M2689.986,984.999c-64.369,0-124.885-25.066-170.399-70.582c-45.515-45.515-70.581-106.03-70.581-170.399
			c0-64.368,25.066-124.883,70.581-170.398c45.515-45.515,106.03-70.581,170.399-70.581c64.367,0,124.883,25.066,170.398,70.581
			c45.514,45.515,70.58,106.03,70.58,170.398c0,64.369-25.066,124.884-70.58,170.399
			C2814.869,959.933,2754.354,984.999,2689.986,984.999z M2689.986,505.039c-131.775,0-238.98,107.206-238.98,238.979
			c0,131.774,107.205,238.98,238.98,238.98c131.773,0,238.979-107.206,238.979-238.98
			C2928.965,612.245,2821.76,505.039,2689.986,505.039z"/>
	</g>
</g>
</svg>
