<?xml version="1.0" encoding="utf-8"?>
<!-- Generator: Adobe Illustrator 16.0.0, SVG Export Plug-In . SVG Version: 6.00 Build 0)  -->
<!DOCTYPE svg PUBLIC "-//W3C//DTD SVG 1.1//EN" "http://www.w3.org/Graphics/SVG/1.1/DTD/svg11.dtd">
<svg version="1.1" id="A_detailEgg" xmlns="http://www.w3.org/2000/svg" xmlns:xlink="http://www.w3.org/1999/xlink" x="0px"
	 y="0px" width="1896px" height="1264.438px" viewBox="0 0 1896 1264.438" enable-background="new 0 0 1896 1264.438"
	 xml:space="preserve">
<g id="A_SVGGroupSteps">
	<g id="A_SVGStep24">
		<path d="M1155.885,502.231c-64.369,0-124.885-25.066-170.398-70.582c-45.515-45.517-70.582-106.031-70.582-170.399
			s25.066-124.883,70.582-170.399c45.516-45.515,106.029-70.582,170.398-70.582c64.367,0,124.883,25.066,170.398,70.582
			s70.58,106.031,70.58,170.399s-25.064,124.884-70.58,170.399S1220.252,502.231,1155.885,502.231z M1155.885,22.271
			c-131.773,0-238.98,107.206-238.98,238.98s107.207,238.98,238.98,238.98s238.979-107.206,238.979-238.98
			S1287.658,22.271,1155.885,22.271z"/>
		<g id="A_text_23_" enable-background="new    ">
			<path d="M1186.162,253.135h-3.301v-21.377l-6.896,14.546h-1.967l-6.848-14.546v21.377h-3.082v-24.81h4.498
				l6.615,13.813l6.396-13.813h4.582v24.81H1186.162z"/>
			<path d="M958.112,349.211c0,1.231-0.232,2.321-0.699,3.266c-0.467,0.945-1.094,1.722-1.883,2.332
				c-0.934,0.733-1.957,1.256-3.074,1.566c-1.115,0.312-2.535,0.467-4.257,0.467h-8.797v-24.81h7.348
				c1.81,0,3.166,0.065,4.066,0.199s1.76,0.411,2.582,0.833c0.912,0.479,1.572,1.092,1.982,1.842c0.412,0.75,0.617,1.646,0.617,2.69
				c0,1.177-0.301,2.18-0.9,3.007c-0.6,0.828-1.398,1.491-2.398,1.991v0.134c1.678,0.345,3,1.08,3.965,2.207
				C957.629,346.063,958.112,347.488,958.112,349.211z M952.563,338.029c0-0.6-0.1-1.104-0.299-1.516
				c-0.199-0.411-0.521-0.744-0.967-1c-0.521-0.3-1.154-0.486-1.898-0.559c-0.744-0.073-1.667-0.108-2.767-0.108H942.7v7.165h4.267
				c1.032,0,1.854-0.053,2.465-0.158c0.609-0.104,1.178-0.325,1.699-0.658s0.891-0.764,1.107-1.29
				C952.453,339.378,952.563,338.753,952.563,338.029z M954.68,349.344c0-1-0.15-1.794-0.449-2.383
				c-0.301-0.588-0.844-1.088-1.633-1.499c-0.533-0.277-1.182-0.458-1.941-0.542c-0.762-0.083-1.686-0.125-2.773-0.125H942.7v9.23
				h4.366c1.444,0,2.625-0.074,3.549-0.226c0.922-0.149,1.678-0.425,2.268-0.824c0.621-0.434,1.076-0.928,1.363-1.482
				C954.535,350.938,954.68,350.222,954.68,349.344z"/>
		</g>
	</g>
	<g id="A_SVGStep23">
		<path d="M1363.748,862.2c-64.367,0-124.883-25.066-170.396-70.582c-45.516-45.516-70.582-106.03-70.582-170.398
			s25.066-124.883,70.582-170.397c45.516-45.516,106.029-70.582,170.396-70.582c64.369,0,124.885,25.066,170.398,70.582
			c45.516,45.515,70.582,106.029,70.582,170.397s-25.066,124.884-70.582,170.398C1488.633,837.134,1428.117,862.2,1363.748,862.2z
			 M1363.748,382.24c-131.771,0-238.979,107.206-238.979,238.979c0,131.774,107.207,238.98,238.979,238.98
			c131.775,0,238.98-107.206,238.98-238.98C1602.729,489.446,1495.524,382.24,1363.748,382.24z"/>
		<g id="A_text_22_" enable-background="new    ">
			<path d="M1396.824,632.082h-15.695v-24.81h3.299v21.877h12.396V632.082z"/>
			<path d="M1200.205,492.748c-1.355,0.622-2.836,1.164-4.439,1.625c-1.605,0.461-3.158,0.691-4.658,0.691
				c-1.932,0-3.703-0.268-5.313-0.801c-1.611-0.532-2.982-1.333-4.115-2.398c-1.146-1.077-2.027-2.425-2.65-4.041
				c-0.621-1.616-0.934-3.507-0.934-5.673c0-3.967,1.158-7.096,3.475-9.39s5.496-3.44,9.539-3.44c1.41,0,2.852,0.17,4.324,0.509
				c1.471,0.339,3.057,0.913,4.756,1.725v3.915h-0.299c-0.346-0.267-0.846-0.615-1.5-1.05c-0.656-0.433-1.299-0.794-1.934-1.083
				c-0.768-0.344-1.637-0.63-2.607-0.856c-0.971-0.228-2.074-0.343-3.309-0.343c-2.775,0-4.973,0.893-6.59,2.675
				c-1.615,1.782-2.424,4.195-2.424,7.239c0,3.21,0.844,5.706,2.533,7.489c1.688,1.782,3.986,2.674,6.896,2.674
				c1.066,0,2.131-0.104,3.191-0.315c1.059-0.211,1.99-0.483,2.791-0.816v-6.082h-6.648v-2.898h9.914V492.748L1200.205,492.748z"/>
		</g>
	</g>
	<g id="A_SVGStep22">
		<path d="M1155.885,1222.167c-64.367,0-124.885-25.066-170.398-70.581c-45.513-45.515-70.581-106.03-70.581-170.397
			s25.066-124.883,70.581-170.397c45.516-45.515,106.031-70.581,170.398-70.581s124.883,25.066,170.396,70.581
			c45.516,45.515,70.582,106.03,70.582,170.397s-25.066,124.884-70.582,170.397
			C1280.768,1197.101,1220.252,1222.167,1155.885,1222.167z M1155.885,742.209c-131.773,0-238.98,107.206-238.98,238.979
			c0,131.772,107.205,238.979,238.98,238.979c131.773,0,238.979-107.205,238.979-238.979
			C1394.864,849.414,1287.656,742.209,1155.885,742.209z"/>
		<g id="A_text_21_" enable-background="new    ">
			<path d="M1183.705,1014.573h-4.281l-9.814-11.047l-2.465,2.633v8.414h-3.301v-24.811h3.301v12.946l12.045-12.946h4
				l-11.08,11.663L1183.705,1014.573z"/>
			<path d="M955.817,911.223h-16.345v-24.81h16.345v2.933H942.77v6.798h13.046v2.934H942.77v9.214h13.046V911.223z"/>
		</g>
	</g>
	<g id="A_SVGStep21">
		<path d="M740.117,1222.169c-64.368,0-124.883-25.066-170.397-70.581c-45.516-45.516-70.581-106.031-70.581-170.399
			c0-64.367,25.065-124.884,70.581-170.397c45.515-45.515,106.029-70.581,170.397-70.581s124.884,25.065,170.399,70.58
			c45.515,45.516,70.582,106.03,70.582,170.398c0,64.367-25.066,124.884-70.582,170.398
			C865.001,1197.103,804.485,1222.169,740.117,1222.169z M740.117,742.209c-131.773,0-238.979,107.206-238.979,238.979
			s107.206,238.979,238.979,238.979c131.774,0,238.981-107.206,238.981-238.979S871.892,742.209,740.117,742.209z"/>
		<g id="A_text_20_" enable-background="new    ">
			<path d="M730.843,1011.625c0,2.178-0.664,3.854-1.991,5.032s-3.107,1.766-5.34,1.766
				c-0.533,0-1.244-0.047-2.134-0.142c-0.889-0.095-1.633-0.208-2.232-0.341v-3.083h0.184c0.455,0.154,1.017,0.315,1.684,0.482
				c0.667,0.166,1.35,0.25,2.049,0.25c1.021,0,1.835-0.117,2.441-0.351c0.604-0.232,1.052-0.566,1.341-0.999
				c0.3-0.444,0.491-0.988,0.575-1.634c0.082-0.645,0.125-1.389,0.125-2.232v-14.479h-5.25v-2.633h8.548L730.843,1011.625
				L730.843,1011.625z"/>
			<path d="M716.234,763.328c0,2.255-0.491,4.299-1.475,6.132s-2.291,3.255-3.924,4.266
				c-1.134,0.699-2.396,1.205-3.791,1.517s-3.23,0.467-5.508,0.467h-6.265v-24.81h6.198c2.421,0,4.346,0.175,5.772,0.523
				c1.428,0.352,2.636,0.831,3.624,1.441c1.688,1.056,3.005,2.461,3.949,4.216C715.762,758.835,716.234,760.918,716.234,763.328z
				 M712.785,763.278c0-1.943-0.339-3.582-1.017-4.915s-1.688-2.384-3.032-3.149c-0.978-0.556-2.016-0.94-3.116-1.158
				c-1.1-0.217-2.416-0.324-3.948-0.324h-3.1v19.145h3.1c1.588,0,2.974-0.116,4.156-0.35c1.184-0.234,2.27-0.666,3.257-1.301
				c1.233-0.787,2.158-1.826,2.774-3.114C712.477,766.821,712.785,765.211,712.785,763.278z"/>
		</g>
	</g>
	<g id="A_SVGStep20">
		<path d="M532.251,862.178c-64.368,0-124.884-25.065-170.398-70.581c-45.515-45.515-70.581-106.029-70.581-170.397
			s25.066-124.883,70.581-170.399c45.515-45.515,106.03-70.582,170.398-70.582c64.367,0,124.883,25.066,170.398,70.582
			c45.515,45.517,70.582,106.031,70.582,170.399s-25.066,124.883-70.582,170.397S596.618,862.178,532.251,862.178z M532.251,382.218
			c-131.774,0-238.979,107.206-238.979,238.98c0,131.772,107.206,238.979,238.979,238.979S771.23,752.971,771.23,621.198
			C771.23,489.424,664.024,382.218,532.251,382.218z"/>
		<g id="A_text_19_" enable-background="new    ">
			<path d="M515.626,632.082h-9.798v-2.532h3.249v-19.745h-3.249v-2.531h9.798v2.531h-3.25v19.745h3.25V632.082z"/>
			<path d="M719.435,494.779c-0.611,0.267-1.164,0.517-1.658,0.75c-0.495,0.232-1.142,0.478-1.94,0.732
				c-0.679,0.211-1.414,0.393-2.208,0.541c-0.794,0.15-1.669,0.227-2.625,0.227c-1.8,0-3.436-0.253-4.907-0.76
				c-1.473-0.505-2.752-1.297-3.841-2.374c-1.066-1.055-1.899-2.396-2.499-4.022c-0.601-1.628-0.9-3.52-0.9-5.674
				c0-2.044,0.289-3.871,0.867-5.481c0.577-1.609,1.41-2.972,2.499-4.082c1.055-1.078,2.33-1.898,3.824-2.467
				c1.493-0.566,3.15-0.85,4.973-0.85c1.333,0,2.663,0.16,3.991,0.482c1.327,0.322,2.802,0.89,4.424,1.699v3.916h-0.25
				c-1.366-1.145-2.722-1.979-4.065-2.499c-1.344-0.522-2.782-0.783-4.314-0.783c-1.255,0-2.386,0.202-3.392,0.608
				c-1.005,0.405-1.901,1.035-2.69,1.891c-0.768,0.833-1.364,1.886-1.792,3.157c-0.428,1.272-0.641,2.741-0.641,4.407
				c0,1.744,0.235,3.244,0.707,4.499c0.473,1.255,1.08,2.276,1.824,3.064c0.778,0.822,1.687,1.432,2.726,1.824
				c1.039,0.396,2.135,0.592,3.291,0.592c1.588,0,3.077-0.271,4.465-0.815c1.389-0.544,2.688-1.36,3.898-2.449h0.233
				L719.435,494.779L719.435,494.779z"/>
		</g>
	</g>
	<g id="A_SVGStep19">
		<path d="M740.117,502.231c-64.368,0-124.883-25.066-170.397-70.582c-45.516-45.517-70.581-106.031-70.581-170.399
			s25.065-124.883,70.581-170.399c45.515-45.515,106.029-70.582,170.397-70.582s124.884,25.068,170.399,70.583
			c45.515,45.517,70.582,106.031,70.582,170.399s-25.066,124.883-70.582,170.399C865.001,477.165,804.485,502.231,740.117,502.231z
			 M740.117,22.271c-131.773,0-238.979,107.206-238.979,238.98s107.206,238.98,238.979,238.98
			c131.774,0,238.981-107.206,238.981-238.98S871.892,22.271,740.117,22.271z"/>
		<g id="A_text_18_" enable-background="new    ">
			<path d="M733.724,245.6h-3.299v-12.146h-12.38V245.6h-3.3v-24.81h3.3v9.729h12.38v-9.729h3.299V245.6z"/>
			<path d="M958.112,349.211c0,1.231-0.232,2.321-0.699,3.266c-0.467,0.945-1.094,1.722-1.883,2.332
				c-0.934,0.733-1.957,1.256-3.074,1.566c-1.115,0.312-2.535,0.467-4.257,0.467h-8.797v-24.81h7.348
				c1.81,0,3.166,0.065,4.066,0.199s1.76,0.411,2.582,0.833c0.912,0.479,1.572,1.092,1.982,1.842c0.412,0.75,0.617,1.646,0.617,2.69
				c0,1.177-0.301,2.18-0.9,3.007c-0.6,0.828-1.398,1.491-2.398,1.991v0.134c1.678,0.345,3,1.08,3.965,2.207
				C957.629,346.063,958.112,347.488,958.112,349.211z M952.563,338.029c0-0.6-0.1-1.104-0.299-1.516
				c-0.199-0.411-0.521-0.744-0.967-1c-0.521-0.3-1.154-0.486-1.898-0.559c-0.744-0.073-1.667-0.108-2.767-0.108H942.7v7.165h4.267
				c1.032,0,1.854-0.053,2.465-0.158c0.609-0.104,1.178-0.325,1.699-0.658s0.891-0.764,1.107-1.29
				C952.453,339.378,952.563,338.753,952.563,338.029z M954.68,349.344c0-1-0.15-1.794-0.449-2.383
				c-0.301-0.588-0.844-1.088-1.633-1.499c-0.533-0.277-1.182-0.458-1.941-0.542c-0.762-0.083-1.686-0.125-2.773-0.125H942.7v9.23
				h4.366c1.444,0,2.625-0.074,3.549-0.226c0.922-0.149,1.678-0.425,2.268-0.824c0.621-0.434,1.076-0.928,1.363-1.482
				C954.535,350.938,954.68,350.222,954.68,349.344z"/>
		</g>
	</g>
	<g id="A_SVGStep18">
		<path d="M1161.735,261.251c0,3.229-2.623,5.85-5.852,5.85l0,0c-3.23,0-5.852-2.621-5.852-5.85l0,0
			c0-3.229,2.621-5.851,5.852-5.851l0,0C1159.114,255.4,1161.735,258.02,1161.735,261.251L1161.735,261.251z"/>
		<g id="A_text_10_" enable-background="new    ">
			<path d="M1186.162,253.135h-3.301v-21.377l-6.896,14.546h-1.967l-6.848-14.546v21.377h-3.082v-24.81h4.498
				l6.615,13.813l6.396-13.813h4.582v24.81H1186.162z"/>
		</g>
	</g>
	<g id="A_SVGStep17">
		<path d="M1369.602,621.198c0,3.229-2.623,5.85-5.852,5.85l0,0c-3.23,0-5.852-2.621-5.852-5.85l0,0
			c0-3.229,2.621-5.851,5.852-5.851l0,0C1366.981,615.349,1369.602,617.966,1369.602,621.198L1369.602,621.198z"/>
		<g id="A_text_9_" enable-background="new    ">
			<path d="M1396.824,632.082h-15.695v-24.81h3.299v21.877h12.396V632.082z"/>
		</g>
	</g>
	<g id="A_SVGStep16">
		<path d="M1161.735,981.188c0,3.23-2.623,5.852-5.852,5.852l0,0c-3.23,0-5.852-2.621-5.852-5.852l0,0
			c0-3.229,2.621-5.848,5.852-5.848l0,0C1159.114,975.341,1161.735,977.958,1161.735,981.188L1161.735,981.188z"/>
		<g id="A_text_11_" enable-background="new    ">
			<path d="M1183.705,1014.573h-4.281l-9.814-11.047l-2.465,2.633v8.414h-3.301v-24.811h3.301v12.946l12.045-12.946h4
				l-11.08,11.663L1183.705,1014.573z"/>
		</g>
	</g>
	<g id="A_SVGStep15">
		<path d="M745.969,981.188c0,3.23-2.622,5.852-5.851,5.852l0,0c-3.23,0-5.851-2.621-5.851-5.852l0,0
			c0-3.229,2.619-5.848,5.851-5.848l0,0C743.346,975.341,745.969,977.958,745.969,981.188L745.969,981.188z"/>
		<g id="A_text_8_" enable-background="new    ">
			<path d="M730.843,1011.625c0,2.178-0.664,3.854-1.991,5.032s-3.107,1.766-5.34,1.766
				c-0.533,0-1.244-0.047-2.134-0.142c-0.889-0.095-1.633-0.208-2.232-0.341v-3.083h0.184c0.455,0.154,1.017,0.315,1.684,0.482
				c0.667,0.166,1.35,0.25,2.049,0.25c1.021,0,1.835-0.117,2.441-0.351c0.604-0.232,1.052-0.566,1.341-0.999
				c0.3-0.444,0.491-0.988,0.575-1.634c0.082-0.645,0.125-1.389,0.125-2.232v-14.479h-5.25v-2.633h8.548L730.843,1011.625
				L730.843,1011.625z"/>
		</g>
	</g>
	<g id="A_SVGStep14">
		<path d="M538.102,621.198c0,3.229-2.622,5.85-5.852,5.85l0,0c-3.229,0-5.852-2.621-5.852-5.85l0,0
			c0-3.229,2.621-5.851,5.852-5.851l0,0C535.481,615.349,538.102,617.966,538.102,621.198L538.102,621.198z"/>
		<g id="A_text_12_" enable-background="new    ">
			<path d="M515.626,632.082h-9.798v-2.532h3.249v-19.745h-3.249v-2.531h9.798v2.531h-3.25v19.745h3.25V632.082z"/>
		</g>
	</g>
	<g id="A_SVGStep13">
		<path d="M745.969,261.25c0,3.229-2.621,5.85-5.851,5.85l0,0c-3.229,0-5.851-2.621-5.851-5.85l0,0
			c0-3.23,2.621-5.852,5.851-5.852l0,0C743.349,255.399,745.969,258.018,745.969,261.25L745.969,261.25z"/>
		<g id="A_text_7_" enable-background="new    ">
			<path d="M733.724,245.6h-3.299v-12.146h-12.38V245.6h-3.3v-24.81h3.3v9.729h12.38v-9.729h3.299V245.6z"/>
		</g>
	</g>
	<g id="A_SVGStep12">
		<path d="M1155.885,742.209c-64.367,0-124.883-25.066-170.396-70.581c-45.515-45.515-70.582-106.03-70.582-170.398
			c0-64.367,25.066-124.882,70.582-170.396c45.516-45.516,106.029-70.581,170.396-70.581c64.369,0,124.883,25.065,170.398,70.581
			c45.516,45.515,70.58,106.03,70.58,170.396c0,64.368-25.064,124.884-70.58,170.398
			C1280.77,717.143,1220.254,742.209,1155.885,742.209z M1155.885,262.251c-131.773,0-238.979,107.205-238.979,238.979
			c0,131.774,107.206,238.979,238.979,238.979s238.979-107.206,238.979-238.979C1394.864,369.457,1287.658,262.251,1155.885,262.251
			z"/>
		<g id="A_text_17_" enable-background="new    ">
			<path d="M1200.205,492.748c-1.355,0.622-2.836,1.164-4.439,1.625c-1.605,0.461-3.158,0.691-4.658,0.691
				c-1.932,0-3.703-0.268-5.313-0.801c-1.611-0.532-2.982-1.333-4.115-2.398c-1.146-1.077-2.027-2.425-2.65-4.041
				c-0.621-1.616-0.934-3.507-0.934-5.673c0-3.967,1.158-7.096,3.475-9.39s5.496-3.44,9.539-3.44c1.41,0,2.852,0.17,4.324,0.509
				c1.471,0.339,3.057,0.913,4.756,1.725v3.915h-0.299c-0.346-0.267-0.846-0.615-1.5-1.05c-0.656-0.433-1.299-0.794-1.934-1.083
				c-0.768-0.344-1.637-0.63-2.607-0.856c-0.971-0.228-2.074-0.343-3.309-0.343c-2.775,0-4.973,0.893-6.59,2.675
				c-1.615,1.782-2.424,4.195-2.424,7.239c0,3.21,0.844,5.706,2.533,7.489c1.688,1.782,3.986,2.674,6.896,2.674
				c1.066,0,2.131-0.104,3.191-0.315c1.059-0.211,1.99-0.483,2.791-0.816v-6.082h-6.648v-2.898h9.914V492.748L1200.205,492.748z"/>
			<path d="M959.188,588.226h-3.516l-2.434-6.915h-10.73l-2.434,6.915h-3.349l9.031-24.81h4.399L959.188,588.226z
				 M952.223,578.479l-4.349-12.181l-4.364,12.181H952.223z"/>
		</g>
	</g>
	<g id="A_SVGStep11">
		<path d="M1161.735,501.231c0,3.229-2.623,5.85-5.852,5.85l0,0c-3.23,0-5.852-2.621-5.852-5.85l0,0
			c0-3.23,2.621-5.852,5.852-5.852l0,0C1159.114,495.381,1161.735,497.999,1161.735,501.231L1161.735,501.231z"/>
		<g id="A_text_6_" enable-background="new    ">
			<path d="M1200.205,492.748c-1.355,0.622-2.836,1.164-4.439,1.625c-1.605,0.461-3.158,0.691-4.658,0.691
				c-1.932,0-3.703-0.268-5.313-0.801c-1.611-0.532-2.982-1.333-4.115-2.398c-1.146-1.077-2.027-2.425-2.65-4.041
				c-0.621-1.616-0.934-3.507-0.934-5.673c0-3.967,1.158-7.096,3.475-9.39s5.496-3.44,9.539-3.44c1.41,0,2.852,0.17,4.324,0.509
				c1.471,0.339,3.057,0.913,4.756,1.725v3.915h-0.299c-0.346-0.267-0.846-0.615-1.5-1.05c-0.656-0.433-1.299-0.794-1.934-1.083
				c-0.768-0.344-1.637-0.63-2.607-0.856c-0.971-0.228-2.074-0.343-3.309-0.343c-2.775,0-4.973,0.893-6.59,2.675
				c-1.615,1.782-2.424,4.195-2.424,7.239c0,3.21,0.844,5.706,2.533,7.489c1.688,1.782,3.986,2.674,6.896,2.674
				c1.066,0,2.131-0.104,3.191-0.315c1.059-0.211,1.99-0.483,2.791-0.816v-6.082h-6.648v-2.898h9.914V492.748L1200.205,492.748z"/>
		</g>
	</g>
	<g id="A_SVGStep10">
		<path d="M1155.885,982.188c-64.367,0-124.883-25.065-170.396-70.58c-45.514-45.516-70.582-106.029-70.582-170.397
			s25.066-124.883,70.582-170.398c45.516-45.515,106.029-70.581,170.396-70.581c64.369,0,124.885,25.066,170.398,70.581
			c45.514,45.516,70.58,106.03,70.58,170.398s-25.064,124.883-70.58,170.397C1280.768,957.122,1220.254,982.188,1155.885,982.188z
			 M1155.885,502.231c-131.773,0-238.979,107.205-238.979,238.979s107.206,238.979,238.979,238.979s238.979-107.204,238.979-238.979
			C1394.864,609.437,1287.658,502.231,1155.885,502.231z"/>
		<g id="A_text_16_" enable-background="new    ">
			<path d="M1198.256,751.831h-12.547v6.998h10.781v2.933h-10.781v11.946h-3.299v-24.811h15.846V751.831z"/>
			<path d="M959.188,588.226h-3.516l-2.434-6.915h-10.73l-2.434,6.915h-3.349l9.031-24.81h4.399L959.188,588.226z
				 M952.223,578.479l-4.349-12.181l-4.364,12.181H952.223z"/>
		</g>
	</g>
	<g id="A_SVGStep9">
		<path d="M1161.735,741.21c0,3.229-2.623,5.85-5.852,5.85l0,0c-3.23,0-5.852-2.621-5.852-5.85l0,0
			c0-3.23,2.621-5.852,5.852-5.852l0,0C1159.114,735.358,1161.735,737.978,1161.735,741.21L1161.735,741.21z"/>
		<g id="A_text_5_" enable-background="new    ">
			<path d="M1198.256,751.831h-12.547v6.998h10.781v2.933h-10.781v11.946h-3.299v-24.811h15.846V751.831z"/>
		</g>
	</g>
	<g id="A_SVGStep8">
		<path d="M947.992,1102.179c-64.368,0-124.883-25.065-170.397-70.581c-45.516-45.515-70.581-106.03-70.581-170.396
			c0-64.368,25.065-124.884,70.581-170.398c45.515-45.514,106.029-70.581,170.397-70.581c64.368,0,124.883,25.066,170.397,70.581
			c45.514,45.516,70.582,106.03,70.582,170.398c0,64.367-25.066,124.883-70.582,170.396
			C1072.873,1077.112,1012.36,1102.179,947.992,1102.179z M947.992,622.221c-131.772,0-238.979,107.206-238.979,238.979
			c0,131.772,107.206,238.979,238.979,238.979c131.774,0,238.979-107.205,238.979-238.979
			C1186.971,729.426,1079.766,622.221,947.992,622.221z"/>
		<g id="A_text_15_" enable-background="new    ">
			<path d="M955.817,911.223h-16.345v-24.81h16.345v2.933H942.77v6.798h13.046v2.934H942.77v9.214h13.046V911.223z"/>
			<path d="M959.188,588.226h-3.516l-2.434-6.915h-10.73l-2.434,6.915h-3.349l9.031-24.81h4.399L959.188,588.226z
				 M952.223,578.479l-4.349-12.181l-4.364,12.181H952.223z"/>
		</g>
	</g>
	<g id="A_SVGStep7">
		<path d="M953.844,861.2c0,3.229-2.619,5.85-5.851,5.85l0,0c-3.229,0-5.85-2.621-5.85-5.85l0,0
			c0-3.23,2.622-5.852,5.85-5.852l0,0C951.221,855.351,953.844,857.968,953.844,861.2L953.844,861.2z"/>
		<g id="A_text_4_" enable-background="new    ">
			<path d="M955.817,911.223h-16.345v-24.81h16.345v2.933H942.77v6.798h13.046v2.934H942.77v9.214h13.046V911.223z"/>
		</g>
	</g>
	<g id="A_SVGStep6">
		<path d="M740.117,982.188c-64.368,0-124.883-25.065-170.397-70.58c-45.516-45.516-70.581-106.029-70.581-170.397
			s25.065-124.883,70.581-170.398c45.515-45.515,106.029-70.581,170.397-70.581s124.884,25.065,170.398,70.58
			c45.514,45.516,70.581,106.03,70.581,170.398s-25.066,124.883-70.581,170.396C865.001,957.122,804.485,982.188,740.117,982.188z
			 M740.117,502.231c-131.772,0-238.979,107.205-238.979,238.979s107.206,238.979,238.979,238.979
			c131.773,0,238.979-107.204,238.979-238.979C979.096,609.437,871.89,502.231,740.117,502.231z"/>
		<g id="A_text_14_" enable-background="new    ">
			<path d="M716.234,763.328c0,2.255-0.491,4.299-1.475,6.132s-2.291,3.255-3.924,4.266
				c-1.134,0.699-2.396,1.205-3.791,1.517s-3.23,0.467-5.508,0.467h-6.265v-24.81h6.198c2.421,0,4.346,0.175,5.772,0.523
				c1.428,0.352,2.636,0.831,3.624,1.441c1.688,1.056,3.005,2.461,3.949,4.216C715.762,758.835,716.234,760.918,716.234,763.328z
				 M712.785,763.278c0-1.943-0.339-3.582-1.017-4.915s-1.688-2.384-3.032-3.149c-0.978-0.556-2.016-0.94-3.116-1.158
				c-1.1-0.217-2.416-0.324-3.948-0.324h-3.1v19.145h3.1c1.588,0,2.974-0.116,4.156-0.35c1.184-0.234,2.27-0.666,3.257-1.301
				c1.233-0.787,2.158-1.826,2.774-3.114C712.477,766.821,712.785,765.211,712.785,763.278z"/>
			<path d="M959.188,588.226h-3.516l-2.434-6.915h-10.73l-2.434,6.915h-3.349l9.031-24.81h4.399L959.188,588.226z
				 M952.223,578.479l-4.349-12.181l-4.364,12.181H952.223z"/>
		</g>
	</g>
	<g id="A_SVGStep5">
		<path d="M745.968,741.21c0,3.229-2.618,5.85-5.851,5.85l0,0c-3.229,0-5.849-2.621-5.849-5.85l0,0
			c0-3.23,2.622-5.852,5.849-5.852l0,0C743.346,735.358,745.968,737.978,745.968,741.21L745.968,741.21z"/>
		<g id="A_text_3_" enable-background="new    ">
			<path d="M716.234,763.328c0,2.255-0.491,4.299-1.475,6.132s-2.291,3.255-3.924,4.266
				c-1.134,0.699-2.396,1.205-3.791,1.517s-3.23,0.467-5.508,0.467h-6.265v-24.81h6.198c2.421,0,4.346,0.175,5.772,0.523
				c1.428,0.352,2.636,0.831,3.624,1.441c1.688,1.056,3.005,2.461,3.949,4.216C715.762,758.835,716.234,760.918,716.234,763.328z
				 M712.785,763.278c0-1.943-0.339-3.582-1.017-4.915s-1.688-2.384-3.032-3.149c-0.978-0.556-2.016-0.94-3.116-1.158
				c-1.1-0.217-2.416-0.324-3.948-0.324h-3.1v19.145h3.1c1.588,0,2.974-0.116,4.156-0.35c1.184-0.234,2.27-0.666,3.257-1.301
				c1.233-0.787,2.158-1.826,2.774-3.114C712.477,766.821,712.785,765.211,712.785,763.278z"/>
		</g>
	</g>
	<g id="A_SVGStep4">
		<path d="M740.118,742.21c-64.367,0-124.883-25.066-170.397-70.581c-45.516-45.516-70.581-106.031-70.581-170.399
			c0-64.367,25.065-124.883,70.581-170.397c45.515-45.516,106.03-70.581,170.397-70.581c64.368,0,124.883,25.065,170.399,70.581
			c45.514,45.515,70.583,106.03,70.583,170.397c0,64.368-25.066,124.885-70.583,170.399
			C865.003,717.144,804.486,742.21,740.118,742.21z M740.118,262.25c-131.773,0-238.979,107.206-238.979,238.979
			c0,131.774,107.206,238.98,238.979,238.98c131.774,0,238.98-107.206,238.98-238.979C979.1,369.456,871.893,262.25,740.118,262.25z
			"/>
		<g id="A_text_13_" enable-background="new    ">
			<path d="M719.435,494.779c-0.611,0.267-1.164,0.517-1.658,0.75c-0.495,0.232-1.142,0.478-1.94,0.732
				c-0.679,0.211-1.414,0.393-2.208,0.541c-0.794,0.15-1.669,0.227-2.625,0.227c-1.8,0-3.436-0.253-4.907-0.76
				c-1.473-0.505-2.752-1.297-3.841-2.374c-1.066-1.055-1.899-2.396-2.499-4.022c-0.601-1.628-0.9-3.52-0.9-5.674
				c0-2.044,0.289-3.871,0.867-5.481c0.577-1.609,1.41-2.972,2.499-4.082c1.055-1.078,2.33-1.898,3.824-2.467
				c1.493-0.566,3.15-0.85,4.973-0.85c1.333,0,2.663,0.16,3.991,0.482c1.327,0.322,2.802,0.89,4.424,1.699v3.916h-0.25
				c-1.366-1.145-2.722-1.979-4.065-2.499c-1.344-0.522-2.782-0.783-4.314-0.783c-1.255,0-2.386,0.202-3.392,0.608
				c-1.005,0.405-1.901,1.035-2.69,1.891c-0.768,0.833-1.364,1.886-1.792,3.157c-0.428,1.272-0.641,2.741-0.641,4.407
				c0,1.744,0.235,3.244,0.707,4.499c0.473,1.255,1.08,2.276,1.824,3.064c0.778,0.822,1.687,1.432,2.726,1.824
				c1.039,0.396,2.135,0.592,3.291,0.592c1.588,0,3.077-0.271,4.465-0.815c1.389-0.544,2.688-1.36,3.898-2.449h0.233
				L719.435,494.779L719.435,494.779z"/>
			<path d="M959.188,588.226h-3.516l-2.434-6.915h-10.73l-2.434,6.915h-3.349l9.031-24.81h4.399L959.188,588.226z
				 M952.223,578.479l-4.349-12.181l-4.364,12.181H952.223z"/>
		</g>
	</g>
	<g id="A_SVGStep3">
		<path d="M745.969,501.229c0,3.229-2.618,5.853-5.851,5.853l0,0c-3.229,0-5.85-2.622-5.85-5.853l0,0
			c0-3.229,2.622-5.851,5.85-5.851l0,0C743.349,495.379,745.969,497.998,745.969,501.229L745.969,501.229z"/>
		<g id="A_text_2_" enable-background="new    ">
			<path d="M719.435,494.779c-0.611,0.267-1.164,0.517-1.658,0.75c-0.495,0.232-1.142,0.478-1.94,0.732
				c-0.679,0.211-1.414,0.393-2.208,0.541c-0.794,0.15-1.669,0.227-2.625,0.227c-1.8,0-3.436-0.253-4.907-0.76
				c-1.473-0.505-2.752-1.297-3.841-2.374c-1.066-1.055-1.899-2.396-2.499-4.022c-0.601-1.628-0.9-3.52-0.9-5.674
				c0-2.044,0.289-3.871,0.867-5.481c0.577-1.609,1.41-2.972,2.499-4.082c1.055-1.078,2.33-1.898,3.824-2.467
				c1.493-0.566,3.15-0.85,4.973-0.85c1.333,0,2.663,0.16,3.991,0.482c1.327,0.322,2.802,0.89,4.424,1.699v3.916h-0.25
				c-1.366-1.145-2.722-1.979-4.065-2.499c-1.344-0.522-2.782-0.783-4.314-0.783c-1.255,0-2.386,0.202-3.392,0.608
				c-1.005,0.405-1.901,1.035-2.69,1.891c-0.768,0.833-1.364,1.886-1.792,3.157c-0.428,1.272-0.641,2.741-0.641,4.407
				c0,1.744,0.235,3.244,0.707,4.499c0.473,1.255,1.08,2.276,1.824,3.064c0.778,0.822,1.687,1.432,2.726,1.824
				c1.039,0.396,2.135,0.592,3.291,0.592c1.588,0,3.077-0.271,4.465-0.815c1.389-0.544,2.688-1.36,3.898-2.449h0.233
				L719.435,494.779L719.435,494.779z"/>
		</g>
	</g>
	<g id="A_SVGStep2">
		<path d="M947.993,622.22c-64.367,0-124.883-25.065-170.397-70.581c-45.516-45.515-70.581-106.029-70.581-170.397
			c0-64.369,25.065-124.885,70.581-170.399c45.515-45.515,106.03-70.582,170.397-70.582c64.369,0,124.884,25.066,170.398,70.582
			c45.516,45.515,70.582,106.031,70.582,170.399s-25.066,124.883-70.582,170.397C1072.877,597.153,1012.362,622.22,947.993,622.22z
			 M947.993,142.26c-131.773,0-238.979,107.206-238.979,238.98c0,131.773,107.206,238.979,238.979,238.979
			c131.775,0,238.98-107.206,238.98-238.979C1186.975,249.466,1079.768,142.26,947.993,142.26z"/>
		<path d="M953.844,381.24c0,3.229-2.619,5.851-5.851,5.851l0,0c-3.229,0-5.85-2.621-5.85-5.851l0,0
			c0-3.23,2.621-5.852,5.85-5.852l0,0C951.221,375.39,953.844,378.009,953.844,381.24L953.844,381.24z"/>
		<g id="A_text" enable-background="new    ">
			<path d="M958.112,349.211c0,1.231-0.232,2.321-0.699,3.266c-0.467,0.945-1.094,1.722-1.883,2.332
				c-0.934,0.733-1.957,1.256-3.074,1.566c-1.115,0.312-2.535,0.467-4.257,0.467h-8.797v-24.81h7.348
				c1.81,0,3.166,0.065,4.066,0.199s1.76,0.411,2.582,0.833c0.912,0.479,1.572,1.092,1.982,1.842c0.412,0.75,0.617,1.646,0.617,2.69
				c0,1.177-0.301,2.18-0.9,3.007c-0.6,0.828-1.398,1.491-2.398,1.991v0.134c1.678,0.345,3,1.08,3.965,2.207
				C957.629,346.063,958.112,347.488,958.112,349.211z M952.563,338.029c0-0.6-0.1-1.104-0.299-1.516
				c-0.199-0.411-0.521-0.744-0.967-1c-0.521-0.3-1.154-0.486-1.898-0.559c-0.744-0.073-1.667-0.108-2.767-0.108H942.7v7.165h4.267
				c1.032,0,1.854-0.053,2.465-0.158c0.609-0.104,1.178-0.325,1.699-0.658s0.891-0.764,1.107-1.29
				C952.453,339.378,952.563,338.753,952.563,338.029z M954.68,349.344c0-1-0.15-1.794-0.449-2.383
				c-0.301-0.588-0.844-1.088-1.633-1.499c-0.533-0.277-1.182-0.458-1.941-0.542c-0.762-0.083-1.686-0.125-2.773-0.125H942.7v9.23
				h4.366c1.444,0,2.625-0.074,3.549-0.226c0.922-0.149,1.678-0.425,2.268-0.824c0.621-0.434,1.076-0.928,1.363-1.482
				C954.535,350.938,954.68,350.222,954.68,349.344z"/>
			<path d="M959.188,588.226h-3.516l-2.434-6.915h-10.73l-2.434,6.915h-3.349l9.031-24.81h4.399L959.188,588.226z
				 M952.223,578.479l-4.349-12.181l-4.364,12.181H952.223z"/>
		</g>
	</g>
	<g id="A_SVGStep1">
		<path d="M947.993,862.2c-64.367,0-124.883-25.066-170.397-70.582c-45.516-45.516-70.581-106.03-70.581-170.398
			s25.065-124.883,70.581-170.397c45.515-45.516,106.03-70.582,170.397-70.582c64.369,0,124.884,25.066,170.398,70.582
			c45.516,45.515,70.582,106.029,70.582,170.397s-25.066,124.884-70.582,170.398C1072.877,837.134,1012.362,862.2,947.993,862.2z
			 M947.993,382.24c-131.773,0-238.979,107.206-238.979,238.979c0,131.774,107.206,238.98,238.979,238.98
			c131.775,0,238.98-107.206,238.98-238.98C1186.975,489.446,1079.768,382.24,947.993,382.24z"/>
		<g id="A_text" enable-background="new    ">
			<path d="M959.188,588.226h-3.516l-2.434-6.915h-10.73l-2.434,6.915h-3.349l9.031-24.81h4.399L959.188,588.226z
				 M952.223,578.479l-4.349-12.181l-4.364,12.181H952.223z"/>
		</g>
		<path d="M953.846,621.219c0,3.229-2.619,5.852-5.852,5.852l0,0c-3.229,0-5.85-2.621-5.85-5.852l0,0
			c0-3.229,2.62-5.851,5.85-5.851l0,0C951.225,615.37,953.846,617.988,953.846,621.219L953.846,621.219z"/>
	</g>
</g>
</svg>
