<?xml version="1.0" encoding="utf-8"?>
<!-- Generator: Adobe Illustrator 16.0.0, SVG Export Plug-In . SVG Version: 6.00 Build 0)  -->
<!DOCTYPE svg PUBLIC "-//W3C//DTD SVG 1.1//EN" "http://www.w3.org/Graphics/SVG/1.1/DTD/svg11.dtd">
<svg version="1.1" id="A_detailCompletedFOL" xmlns="http://www.w3.org/2000/svg" xmlns:xlink="http://www.w3.org/1999/xlink"
	 x="0px" y="0px" width="2142.93px" height="2478px" viewBox="-401.732 -587.281 2142.93 2478"
	 enable-background="new -401.732 -587.281 2142.93 2478" xml:space="preserve">
<g id="A_SVGSteps">
	<g id="A_SVGStep1">
		<circle fill="none" stroke="#FFFFFF" stroke-width="2" stroke-miterlimit="10" cx="669.709" cy="633.194" r="239.98"/>
		<text transform="matrix(1 0 0 1 697.0078 666.8555)" fill="#FFFFFF" font-family="'Verdana'" font-size="34.1236">A</text>
		<path fill="#FFFFFF" d="M675.561,633.193c0,3.229-2.619,5.851-5.851,5.851l0,0c-3.229,0-5.85-2.621-5.85-5.851l0,0
			c0-3.229,2.62-5.851,5.85-5.851l0,0C672.94,627.344,675.561,629.962,675.561,633.193L675.561,633.193z"/>
	</g>
	<g id="A_SVGStep2">
		<circle fill="none" stroke="#FFFFFF" stroke-width="2" stroke-miterlimit="10" cx="669.709" cy="393.214" r="239.98"/>
		<path fill="#FFFFFF" d="M675.559,393.214c0,3.23-2.619,5.851-5.85,5.851l0,0c-3.229,0-5.85-2.621-5.85-5.851l0,0
			c0-3.23,2.621-5.85,5.85-5.85l0,0C672.938,387.364,675.559,389.983,675.559,393.214L675.559,393.214z"/>
		<text transform="matrix(1 0 0 1 696.0078 427.376)" fill="#FFFFFF" font-family="'Verdana'" font-size="34.1236">B</text>
	</g>
	<g id="A_SVGStep3">
		<path fill="#FFFFFF" d="M467.684,513.204c0,3.229-2.619,5.851-5.85,5.851l0,0c-3.229,0-5.85-2.622-5.85-5.851l0,0
			c0-3.23,2.622-5.851,5.85-5.851l0,0C465.064,507.354,467.684,509.972,467.684,513.204L467.684,513.204z"/>
		<text transform="matrix(1 0 0 1 487.3799 548.3555)" fill="#FFFFFF" font-family="'Verdana'" font-size="34.1236">C</text>
	</g>
	<g id="A_SVGStep4">
		<circle fill="none" stroke="#FFFFFF" stroke-width="2" stroke-miterlimit="10" cx="461.834" cy="513.204" r="239.98"/>
	</g>
	<g id="A_SVGStep5">
		<path fill="#FFFFFF" d="M467.683,753.184c0,3.229-2.619,5.851-5.85,5.851l0,0c-3.229,0-5.849-2.621-5.849-5.851l0,0
			c0-3.229,2.622-5.851,5.849-5.851l0,0C465.063,747.333,467.683,749.952,467.683,753.184L467.683,753.184z"/>
		<text transform="matrix(1 0 0 1 489.3799 787.6816)" fill="#FFFFFF" font-family="'Verdana'" font-size="34.1236">D</text>
	</g>
	<g id="A_SVGStep6">
		<circle fill="none" stroke="#FFFFFF" stroke-width="2" stroke-miterlimit="10" cx="461.833" cy="753.184" r="239.979"/>
	</g>
	<g id="A_SVGStep7">
		<path fill="#FFFFFF" d="M675.559,873.174c0,3.229-2.619,5.851-5.85,5.851l0,0c-3.229,0-5.85-2.621-5.85-5.851l0,0
			c0-3.229,2.622-5.85,5.85-5.85l0,0C672.938,867.324,675.559,869.942,675.559,873.174L675.559,873.174z"/>
		<text transform="matrix(1 0 0 1 697.0078 907.9697)" fill="#FFFFFF" font-family="'Verdana'" font-size="34.1236">E</text>
	</g>
	<g id="A_SVGStep8">
		<circle fill="none" stroke="#FFFFFF" stroke-width="2" stroke-miterlimit="10" cx="669.708" cy="873.174" r="239.979"/>
	</g>
	<g id="A_SVGStep9">
		<path fill="#FFFFFF" d="M883.45,753.184c0,3.229-2.622,5.851-5.851,5.851l0,0c-3.23,0-5.851-2.621-5.851-5.851l0,0
			c0-3.229,2.621-5.851,5.851-5.851l0,0C880.83,747.333,883.45,749.952,883.45,753.184L883.45,753.184z"/>
		<text transform="matrix(1 0 0 1 900.7939 785.6816)" fill="#FFFFFF" font-family="'Verdana'" font-size="34.1236">F</text>
	</g>
	<g id="A_SVGStep10">
		<circle fill="none" stroke="#FFFFFF" stroke-width="2" stroke-miterlimit="10" cx="877.601" cy="753.184" r="239.979"/>
	</g>
	<g id="A_SVGStep11">
		<path fill="#FFFFFF" d="M883.45,513.205c0,3.229-2.622,5.85-5.851,5.85l0,0c-3.23,0-5.851-2.621-5.851-5.85l0,0
			c0-3.23,2.621-5.85,5.851-5.85l0,0C880.83,507.355,883.45,509.973,883.45,513.205L883.45,513.205z"/>
		<text transform="matrix(1 0 0 1 901.8945 548.3555)" fill="#FFFFFF" font-family="'Verdana'" font-size="34.1236">G</text>
	</g>
	<g id="A_SVGStep12">
		<circle fill="none" stroke="#FFFFFF" stroke-width="2" stroke-miterlimit="10" cx="877.601" cy="513.205" r="239.98"/>
	</g>
	<g id="A_SVGStep13">
		<path fill="#FFFFFF" d="M467.685,273.224c0,3.23-2.622,5.85-5.85,5.85l0,0c-3.231,0-5.851-2.621-5.851-5.85l0,0
			c0-3.23,2.621-5.85,5.851-5.85l0,0C465.064,267.375,467.685,269.992,467.685,273.224L467.685,273.224z"/>
		<text transform="matrix(1 0 0 1 485.3799 306.9048)" fill="#FFFFFF" font-family="'Verdana'" font-size="34.1236">H</text>
	</g>
	<g id="A_SVGStep14">
		<path fill="#FFFFFF" d="M259.817,633.172c0,3.23-2.622,5.85-5.85,5.85l0,0c-3.231,0-5.851-2.62-5.851-5.85l0,0
			c0-3.229,2.621-5.849,5.851-5.849l0,0C257.197,627.323,259.817,629.94,259.817,633.172L259.817,633.172z"/>
		<text transform="matrix(1 0 0 1 280.7656 666.8555)" fill="#FFFFFF" font-family="'Verdana'" font-size="34.1236">I</text>
	</g>
	<g id="A_SVGStep15">
		<path fill="#FFFFFF" d="M467.684,993.163c0,3.229-2.622,5.85-5.85,5.85l0,0c-3.231,0-5.851-2.621-5.851-5.85l0,0
			c0-3.229,2.62-5.849,5.851-5.849l0,0C465.063,987.314,467.684,989.932,467.684,993.163L467.684,993.163z"/>
		<text transform="matrix(1 0 0 1 493.9453 1030.0469)" fill="#FFFFFF" font-family="'Verdana'" font-size="34.1236">J</text>
	</g>
	<g id="A_SVGStep16">
		<path fill="#FFFFFF" d="M883.451,993.163c0,3.229-2.623,5.85-5.851,5.85l0,0c-3.231,0-5.852-2.621-5.852-5.85l0,0
			c0-3.229,2.621-5.849,5.852-5.849l0,0C880.83,987.314,883.451,989.932,883.451,993.163L883.451,993.163z"/>
		<text transform="matrix(1 0 0 1 903.8945 1027.5469)" fill="#FFFFFF" font-family="'Verdana'" font-size="34.1236">K</text>
	</g>
	<g id="A_SVGStep17">
		<path fill="#FFFFFF" d="M1091.317,633.172c0,3.23-2.623,5.85-5.851,5.85l0,0c-3.231,0-5.852-2.62-5.852-5.85l0,0
			c0-3.229,2.621-5.849,5.852-5.849l0,0C1088.696,627.323,1091.317,629.94,1091.317,633.172L1091.317,633.172z"/>
		<text transform="matrix(1 0 0 1 1112.4648 665.8555)" fill="#FFFFFF" font-family="'Verdana'" font-size="34.1236">L</text>
	</g>
	<g id="A_SVGStep18">
		<path fill="#FFFFFF" d="M883.451,273.225c0,3.23-2.623,5.85-5.851,5.85l0,0c-3.231,0-5.852-2.621-5.852-5.85l0,0
			c0-3.229,2.621-5.849,5.852-5.849l0,0C880.83,267.376,883.451,269.994,883.451,273.225L883.451,273.225z"/>
		<text transform="matrix(1 0 0 1 905.8945 310.1084)" fill="#FFFFFF" font-family="'Verdana'" font-size="34.1236">M</text>
	</g>
	<g id="A_SVGStep19">
		<circle fill="none" stroke="#FFFFFF" stroke-width="2" stroke-miterlimit="10" cx="461.833" cy="273.225" r="239.98"/>
	</g>
	<g id="A_SVGStep20">
		<circle fill="none" stroke="#FFFFFF" stroke-width="2" stroke-miterlimit="10" cx="253.966" cy="633.172" r="239.98"/>
	</g>
	<g id="A_SVGStep21">
		<circle fill="none" stroke="#FFFFFF" stroke-width="2" stroke-miterlimit="10" cx="461.833" cy="993.163" r="239.98"/>
	</g>
	<g id="A_SVGStep22">
		<circle fill="none" stroke="#FFFFFF" stroke-width="2" stroke-miterlimit="10" cx="877.6" cy="993.162" r="239.98"/>
	</g>
	<g id="A_SVGStep23">
		<circle fill="none" stroke="#FFFFFF" stroke-width="2" stroke-miterlimit="10" cx="1085.465" cy="633.194" r="239.98"/>
	</g>
	<g id="A_SVGStep24">
		<circle fill="none" stroke="#FFFFFF" stroke-width="2" stroke-miterlimit="10" cx="877.6" cy="273.225" r="239.98"/>
	</g>
	<g id="A_SVGStep25">
		<path fill="#FFFFFF" d="M675.561,153.233c0,3.23-2.623,5.85-5.852,5.85l0,0c-3.23,0-5.852-2.621-5.852-5.85l0,0
			c0-3.229,2.621-5.849,5.852-5.849l0,0C672.939,147.384,675.561,150.002,675.561,153.233L675.561,153.233z"/>
		<text transform="matrix(1 0 0 1 696.0078 187.916)" fill="#FFFFFF" font-family="'Verdana'" font-size="34.1236">N</text>
	</g>
	<g id="A_SVGStep26">
		<path fill="#FFFFFF" d="M259.817,393.191c0,3.23-2.623,5.85-5.852,5.85l0,0c-3.23,0-5.852-2.621-5.852-5.85l0,0
			c0-3.229,2.621-5.849,5.852-5.849l0,0C257.196,387.342,259.817,389.96,259.817,393.191L259.817,393.191z"/>
		<text transform="matrix(1 0 0 1 277.7656 427.376)" fill="#FFFFFF" font-family="'Verdana'" font-size="34.1236">O</text>
	</g>
	<g id="A_SVGStep27">
		<path fill="#FFFFFF" d="M259.817,873.152c0,3.229-2.623,5.85-5.852,5.85l0,0c-3.23,0-5.852-2.621-5.852-5.85l0,0
			c0-3.229,2.621-5.85,5.852-5.85l0,0C257.196,867.303,259.817,869.921,259.817,873.152L259.817,873.152z"/>
		<text transform="matrix(1 0 0 1 280.7656 907.9697)" fill="#FFFFFF" font-family="'Verdana'" font-size="34.1236">P</text>
	</g>
	<g id="A_SVGStep28">
		<path fill="#FFFFFF" d="M675.56,1113.153c0,3.229-2.623,5.85-5.852,5.85l0,0c-3.23,0-5.852-2.621-5.852-5.85l0,0
			c0-3.229,2.621-5.85,5.852-5.85l0,0C672.938,1107.304,675.56,1109.922,675.56,1113.153L675.56,1113.153z"/>
		<text transform="matrix(1 0 0 1 695.0078 1148.6172)" fill="#FFFFFF" font-family="'Verdana'" font-size="34.1236">Q</text>
	</g>
	<g id="A_SVGStep29">
		<path fill="#FFFFFF" d="M1091.316,873.174c0,3.229-2.623,5.85-5.852,5.85l0,0c-3.23,0-5.852-2.621-5.852-5.85l0,0
			c0-3.229,2.621-5.85,5.852-5.85l0,0C1088.695,867.324,1091.316,869.942,1091.316,873.174L1091.316,873.174z"/>
		<text transform="matrix(1 0 0 1 1105.1396 903.9697)" fill="#FFFFFF" font-family="'Verdana'" font-size="34.1236">R</text>
	</g>
	<g id="A_SVGStep30">
		<path fill="#FFFFFF" d="M1091.316,393.214c0,3.229-2.623,5.85-5.852,5.85l0,0c-3.23,0-5.852-2.621-5.852-5.85l0,0
			c0-3.229,2.621-5.85,5.852-5.85l0,0C1088.695,387.364,1091.316,389.982,1091.316,393.214L1091.316,393.214z"/>
		<text transform="matrix(1 0 0 1 1112.4648 427.376)" fill="#FFFFFF" font-family="'Verdana'" font-size="34.1236">S</text>
	</g>
	<g id="A_SVGStep31">
		<circle fill="none" stroke="#FFFFFF" stroke-width="2" stroke-miterlimit="10" cx="669.709" cy="153.234" r="239.98"/>
	</g>
	<g id="A_SVGStep32">
		<circle fill="none" stroke="#FFFFFF" stroke-width="2" stroke-miterlimit="10" cx="253.965" cy="393.192" r="239.98"/>
	</g>
	<g id="A_SVGStep33">
		<circle fill="none" stroke="#FFFFFF" stroke-width="2" stroke-miterlimit="10" cx="253.965" cy="873.152" r="239.98"/>
	</g>
	<g id="A_SVGStep34">
		<circle fill="none" stroke="#FFFFFF" stroke-width="2" stroke-miterlimit="10" cx="669.708" cy="1113.153" r="239.98"/>
	</g>
	<g id="A_SVGStep35">
		<circle fill="none" stroke="#FFFFFF" stroke-width="2" stroke-miterlimit="10" cx="1085.465" cy="873.174" r="239.98"/>
	</g>
	<g id="A_SVGStep36">
		<circle fill="none" stroke="#FFFFFF" stroke-width="2" stroke-miterlimit="10" cx="1085.465" cy="393.214" r="239.98"/>
	</g>
	<g id="A_SVGStep37">
		<path fill="#FFFFFF" d="M467.685,33.245c0,3.229-2.623,5.85-5.852,5.85l0,0c-3.23,0-5.852-2.621-5.852-5.85l0,0
			c0-3.229,2.621-5.85,5.852-5.85l0,0C465.063,27.396,467.685,30.014,467.685,33.245L467.685,33.245z"/>
		<text transform="matrix(1 0 0 1 484.3799 68.2251)" fill="#FFFFFF" font-family="'Verdana'" font-size="34.1236">T</text>
	</g>
	<g id="A_SVGStep38">
		<path fill="#FFFFFF" d="M259.817,153.212c0,3.229-2.623,5.85-5.852,5.85l0,0c-3.23,0-5.852-2.621-5.852-5.85l0,0
			c0-3.229,2.621-5.85,5.852-5.85l0,0C257.196,147.362,259.817,149.98,259.817,153.212L259.817,153.212z"/>
		<text transform="matrix(1 0 0 1 277.7656 187.916)" fill="#FFFFFF" font-family="'Verdana'" font-size="34.1236">U</text>
	</g>
	<g id="A_SVGStep39">
		<path fill="#FFFFFF" d="M51.964,513.205c0,3.229-2.623,5.85-5.852,5.85l0,0c-3.23,0-5.852-2.621-5.852-5.85l0,0
			c0-3.229,2.621-5.85,5.852-5.85l0,0C49.343,507.355,51.964,509.974,51.964,513.205L51.964,513.205z"/>
		<text transform="matrix(1 0 0 1 67.4536 548.3555)" fill="#FFFFFF" font-family="'Verdana'" font-size="34.1236">V</text>
	</g>
	<g id="A_SVGStep40">
		<path fill="#FFFFFF" d="M51.964,753.186c0,3.229-2.623,5.85-5.852,5.85l0,0c-3.23,0-5.852-2.621-5.852-5.85l0,0
			c0-3.229,2.621-5.85,5.852-5.85l0,0C49.343,747.336,51.964,749.954,51.964,753.186L51.964,753.186z"/>
		<text transform="matrix(1 0 0 1 69.9131 790.6699)" fill="#FFFFFF" font-family="'Verdana'" font-size="34.1236">W</text>
	</g>
	<g id="A_SVGStep41">
		<path fill="#FFFFFF" d="M259.817,1113.133c0,3.229-2.623,5.85-5.852,5.85l0,0c-3.23,0-5.852-2.621-5.852-5.85l0,0
			c0-3.229,2.621-5.85,5.852-5.85l0,0C257.196,1107.283,259.817,1109.901,259.817,1113.133L259.817,1113.133z"/>
		<text transform="matrix(1 0 0 1 278.7656 1147.6172)" fill="#FFFFFF" font-family="'Verdana'" font-size="34.1236">Z</text>
	</g>
	<g id="A_SVGStep42">
		<path fill="#FFFFFF" d="M467.685,1233.143c0,3.229-2.623,5.85-5.852,5.85l0,0c-3.23,0-5.852-2.621-5.852-5.85l0,0
			c0-3.229,2.621-5.85,5.852-5.85l0,0C465.063,1227.293,467.685,1229.911,467.685,1233.143L467.685,1233.143z"/>
		<text transform="matrix(1 0 0 1 488.3799 1265.627)" fill="#FFFFFF" font-family="'Verdana'" font-size="34.1236">A</text>
		<text transform="matrix(0.583 0 0 0.583 511.7065 1276.9902)" fill="#FFFFFF" font-family="'Verdana'" font-size="34.1236">1</text>
	</g>
	<g id="A_SVGStep43">
		<path fill="#FFFFFF" d="M883.451,1233.142c0,3.229-2.623,5.85-5.852,5.85l0,0c-3.23,0-5.852-2.621-5.852-5.85l0,0
			c0-3.229,2.621-5.85,5.852-5.85l0,0C880.83,1227.292,883.451,1229.91,883.451,1233.142L883.451,1233.142z"/>
		<text transform="matrix(1 0 0 1 907.6875 1269.627)" fill="#FFFFFF" font-family="'Verdana'" font-size="34.1236">B</text>
		<text transform="matrix(0.583 0 0 0.583 931.0811 1280.9902)" fill="#FFFFFF" font-family="'Verdana'" font-size="34.1236">1</text>
	</g>
	<g id="A_SVGStep44">
		<path fill="#FFFFFF" d="M1091.316,1113.133c0,3.229-2.623,5.85-5.852,5.85l0,0c-3.23,0-5.852-2.621-5.852-5.85l0,0
			c0-3.229,2.621-5.85,5.852-5.85l0,0C1088.695,1107.283,1091.316,1109.901,1091.316,1113.133L1091.316,1113.133z"/>
		<text transform="matrix(1 0 0 1 1113.1387 1147.6172)" fill="#FFFFFF" font-family="'Verdana'" font-size="34.1236">C</text>
		<text transform="matrix(0.583 0 0 0.583 1136.9658 1158.9805)" fill="#FFFFFF" font-family="'Verdana'" font-size="34.1236">1</text>
	</g>
	<g id="A_SVGStep45">
		<path fill="#FFFFFF" d="M1299.318,753.183c0,3.229-2.623,5.85-5.852,5.85l0,0c-3.23,0-5.852-2.621-5.852-5.85l0,0
			c0-3.229,2.621-5.85,5.852-5.85l0,0C1296.697,747.333,1299.318,749.951,1299.318,753.183L1299.318,753.183z"/>
		<text transform="matrix(1 0 0 1 1317.5137 786.6816)" fill="#FFFFFF" font-family="'Verdana'" font-size="34.1236">D</text>
		<text transform="matrix(0.583 0 0 0.583 1343.8066 798.0449)" fill="#FFFFFF" font-family="'Verdana'" font-size="34.1236">1</text>
	</g>
	<g id="A_SVGStep46">
		<path fill="#FFFFFF" d="M1299.141,513.469c0,3.229-2.623,5.85-5.852,5.85l0,0c-3.23,0-5.852-2.621-5.852-5.85l0,0
			c0-3.229,2.621-5.85,5.852-5.85l0,0C1296.52,507.619,1299.141,510.237,1299.141,513.469L1299.141,513.469z"/>
		<text transform="matrix(1 0 0 1 1319.5137 548.3555)" fill="#FFFFFF" font-family="'Verdana'" font-size="34.1236">E</text>
		<text transform="matrix(0.583 0 0 0.583 1341.0908 559.7188)" fill="#FFFFFF" font-family="'Verdana'" font-size="34.1236">1</text>
	</g>
	<g id="A_SVGStep47">
		<path fill="#FFFFFF" d="M1091.316,153.233c0,3.229-2.623,5.85-5.852,5.85l0,0c-3.23,0-5.852-2.621-5.852-5.85l0,0
			c0-3.229,2.621-5.85,5.852-5.85l0,0C1088.695,147.384,1091.316,150.002,1091.316,153.233L1091.316,153.233z"/>
		<text transform="matrix(1 0 0 1 1112.4648 186.916)" fill="#FFFFFF" font-family="'Verdana'" font-size="34.1236">F</text>
		<text transform="matrix(0.583 0 0 0.583 1132.0762 198.2793)" fill="#FFFFFF" font-family="'Verdana'" font-size="34.1236">1</text>
	</g>
	<g id="A_SVGStep48">
		<path fill="#FFFFFF" d="M883.451,33.245c0,3.229-2.623,5.85-5.852,5.85l0,0c-3.23,0-5.852-2.621-5.852-5.85l0,0
			c0-3.229,2.621-5.85,5.852-5.85l0,0C880.83,27.396,883.451,30.014,883.451,33.245L883.451,33.245z"/>
		<text transform="matrix(1 0 0 1 906.6875 69.8252)" fill="#FFFFFF" font-family="'Verdana'" font-size="34.1236">G</text>
		<text transform="matrix(0.583 0 0 0.583 933.1465 81.1885)" fill="#FFFFFF" font-family="'Verdana'" font-size="34.1236">1</text>
	</g>
	<g id="A_SVGStep49">
		<circle fill="none" stroke="#FFFFFF" stroke-width="2" stroke-miterlimit="10" cx="461.833" cy="33.245" r="239.98"/>
	</g>
	<g id="A_SVGStep50">
		<circle fill="none" stroke="#FFFFFF" stroke-width="2" stroke-miterlimit="10" cx="253.965" cy="153.212" r="239.98"/>
	</g>
	<g id="A_SVGStep51">
		<circle fill="none" stroke="#FFFFFF" stroke-width="2" stroke-miterlimit="10" cx="46.113" cy="513.205" r="239.98"/>
	</g>
	<g id="A_SVGStep52">
		<circle fill="none" stroke="#FFFFFF" stroke-width="2" stroke-miterlimit="10" cx="46.113" cy="753.186" r="239.98"/>
	</g>
	<g id="A_SVGStep53">
		<circle fill="none" stroke="#FFFFFF" stroke-width="2" stroke-miterlimit="10" cx="253.965" cy="1113.133" r="239.98"/>
	</g>
	<g id="A_SVGStep54">
		<circle fill="none" stroke="#FFFFFF" stroke-width="2" stroke-miterlimit="10" cx="461.833" cy="1233.143" r="239.98"/>
	</g>
	<g id="A_SVGStep55">
		<circle fill="none" stroke="#FFFFFF" stroke-width="2" stroke-miterlimit="10" cx="877.6" cy="1233.142" r="239.98"/>
	</g>
	<g id="A_SVGStep56">
		<circle fill="none" stroke="#FFFFFF" stroke-width="2" stroke-miterlimit="10" cx="1085.465" cy="1113.154" r="239.98"/>
	</g>
	<g id="A_SVGStep57">
		<circle fill="none" stroke="#FFFFFF" stroke-width="2" stroke-miterlimit="10" cx="1293.467" cy="753.183" r="239.98"/>
	</g>
	<g id="A_SVGStep58">
		<circle fill="none" stroke="#FFFFFF" stroke-width="2" stroke-miterlimit="10" cx="1293.289" cy="513.203" r="239.981"/>
	</g>
	<g id="A_SVGStep59">
		<circle fill="none" stroke="#FFFFFF" stroke-width="2" stroke-miterlimit="10" cx="1085.465" cy="153.234" r="239.981"/>
	</g>
	<g id="A_SVGStep60">
		<circle fill="none" stroke="#FFFFFF" stroke-width="2" stroke-miterlimit="10" cx="877.6" cy="33.245" r="239.981"/>
	</g>
	<g id="A_SVGStep61">
		<path fill="#FFFFFF" d="M675.561-86.746c0,3.229-2.623,5.85-5.852,5.85l0,0c-3.23,0-5.852-2.621-5.852-5.85l0,0
			c0-3.229,2.621-5.85,5.852-5.85l0,0C672.939-92.596,675.561-89.978,675.561-86.746L675.561-86.746z"/>
		<text transform="matrix(1 0 0 1 697.0088 -51.731)" fill="#FFFFFF" font-family="'Verdana'" font-size="34.1236">H</text>
		<text transform="matrix(0.583 0 0 0.583 722.6514 -40.3677)" fill="#FFFFFF" font-family="'Verdana'" font-size="34.1236">1</text>
	</g>
	<g id="A_SVGStep62">
		<path fill="#FFFFFF" d="M259.817-86.769c0,3.229-2.623,5.85-5.852,5.85l0,0c-3.23,0-5.852-2.621-5.852-5.85l0,0
			c0-3.229,2.621-5.85,5.852-5.85l0,0C257.196-92.618,259.817-90,259.817-86.769L259.817-86.769z"/>
		<text transform="matrix(1 0 0 1 283.7656 -51.731)" fill="#FFFFFF" font-family="'Verdana'" font-size="34.1236">I</text>
		<text transform="matrix(0.583 0 0 0.583 298.1284 -40.3677)" fill="#FFFFFF" font-family="'Verdana'" font-size="34.1236">1</text>
	</g>
	<g id="A_SVGStep63">
		<path fill="#FFFFFF" d="M51.964,273.225c0,3.229-2.623,5.85-5.852,5.85l0,0c-3.23,0-5.852-2.621-5.852-5.85l0,0
			c0-3.229,2.621-5.85,5.852-5.85l0,0C49.343,267.375,51.964,269.993,51.964,273.225L51.964,273.225z"/>
		<text transform="matrix(1 0 0 1 78.4468 311.1084)" fill="#FFFFFF" font-family="'Verdana'" font-size="34.1236">J</text>
		<text transform="matrix(0.583 0 0 0.583 93.959 322.4717)" fill="#FFFFFF" font-family="'Verdana'" font-size="34.1236">1</text>
	</g>
	<g id="A_SVGStep64">
		<path fill="#FFFFFF" d="M-155.682,633.224c0,3.23-2.623,5.85-5.852,5.85l0,0c-3.23,0-5.852-2.621-5.852-5.85l0,0
			c0-3.229,2.621-5.85,5.852-5.85l0,0C-158.303,627.374-155.682,629.993-155.682,633.224L-155.682,633.224z"/>
		<text transform="matrix(1 0 0 1 -135.7329 667.8555)" fill="#FFFFFF" font-family="'Verdana'" font-size="34.1236">K</text>
		<text transform="matrix(0.583 0 0 0.583 -112.0898 679.2188)" fill="#FFFFFF" font-family="'Verdana'" font-size="34.1236">1</text>
	</g>
	<g id="A_SVGStep65">
		<path fill="#FFFFFF" d="M51.964,993.166c0,3.23-2.623,5.85-5.852,5.85l0,0c-3.23,0-5.852-2.621-5.852-5.85l0,0
			c0-3.229,2.621-5.85,5.852-5.85l0,0C49.343,987.316,51.964,989.936,51.964,993.166L51.964,993.166z"/>
		<text transform="matrix(1 0 0 1 74.228 1026.5469)" fill="#FFFFFF" font-family="'Verdana'" font-size="34.1236">L</text>
		<text transform="matrix(0.583 0 0 0.583 93.2227 1037.9102)" fill="#FFFFFF" font-family="'Verdana'" font-size="34.1236">1</text>
	</g>
	<g id="A_SVGStep66">
		<path fill="#FFFFFF" d="M259.817,1353.113c0,3.23-2.623,5.85-5.852,5.85l0,0c-3.23,0-5.852-2.621-5.852-5.85l0,0
			c0-3.229,2.621-5.85,5.852-5.85l0,0C257.196,1347.264,259.817,1349.883,259.817,1353.113L259.817,1353.113z"/>
		<text transform="matrix(1 0 0 1 279.0928 1382.6289)" fill="#FFFFFF" font-family="'Verdana'" font-size="34.1236">M</text>
		<text transform="matrix(0.583 0 0 0.583 307.8511 1393.9922)" fill="#FFFFFF" font-family="'Verdana'" font-size="34.1236">1</text>
	</g>
	<g id="A_SVGStep67">
		<path fill="#FFFFFF" d="M675.559,1353.134c0,3.23-2.623,5.85-5.851,5.85l0,0c-3.23,0-5.852-2.621-5.852-5.85l0,0
			c0-3.229,2.621-5.85,5.852-5.85l0,0C672.938,1347.284,675.559,1349.903,675.559,1353.134L675.559,1353.134z"/>
		<text transform="matrix(1 0 0 1 697.0088 1386.6289)" fill="#FFFFFF" font-family="'Verdana'" font-size="34.1236">N</text>
		<text transform="matrix(0.583 0 0 0.583 722.5342 1397.9922)" fill="#FFFFFF" font-family="'Verdana'" font-size="34.1236">1</text>
	</g>
	<g id="A_SVGStep68">
		<path fill="#FFFFFF" d="M1091.315,1353.135c0,3.23-2.623,5.85-5.851,5.85l0,0c-3.23,0-5.852-2.621-5.852-5.85l0,0
			c0-3.229,2.621-5.85,5.852-5.85l0,0C1088.694,1347.285,1091.315,1349.904,1091.315,1353.135L1091.315,1353.135z"/>
		<text transform="matrix(1 0 0 1 1109.1396 1383.6289)" fill="#FFFFFF" font-family="'Verdana'" font-size="34.1236">O</text>
		<text transform="matrix(0.583 0 0 0.583 1135.998 1394.9922)" fill="#FFFFFF" font-family="'Verdana'" font-size="34.1236">1</text>
	</g>
	<g id="A_SVGStep69">
		<path fill="#FFFFFF" d="M1299.317,993.163c0,3.23-2.623,5.85-5.851,5.85l0,0c-3.23,0-5.852-2.621-5.852-5.85l0,0
			c0-3.229,2.621-5.85,5.852-5.85l0,0C1296.696,987.313,1299.317,989.933,1299.317,993.163L1299.317,993.163z"/>
		<text transform="matrix(1 0 0 1 1319.0137 1026.3457)" fill="#FFFFFF" font-family="'Verdana'" font-size="34.1236">P</text>
		<text transform="matrix(0.583 0 0 0.583 1339.5908 1037.709)" fill="#FFFFFF" font-family="'Verdana'" font-size="34.1236">1</text>
	</g>
	<g id="A_SVGStep70">
		<path fill="#FFFFFF" d="M1507.068,633.173c0,3.23-2.623,5.85-5.851,5.85l0,0c-3.23,0-5.852-2.621-5.852-5.85l0,0
			c0-3.229,2.621-5.85,5.852-5.85l0,0C1504.447,627.323,1507.068,629.942,1507.068,633.173L1507.068,633.173z"/>
		<text transform="matrix(1 0 0 1 1521.2646 668.8555)" fill="#FFFFFF" font-family="'Verdana'" font-size="34.1236">Q</text>
		<text transform="matrix(0.583 0 0 0.583 1548.123 680.2188)" fill="#FFFFFF" font-family="'Verdana'" font-size="34.1236">1</text>
	</g>
	<g id="A_SVGStep71">
		<path fill="#FFFFFF" d="M1299.14,273.222c0,3.23-2.623,5.85-5.851,5.85l0,0c-3.23,0-5.852-2.621-5.852-5.85l0,0
			c0-3.229,2.621-5.85,5.852-5.85l0,0C1296.519,267.373,1299.14,269.992,1299.14,273.222L1299.14,273.222z"/>
		<text transform="matrix(1 0 0 1 1315.5137 307.9048)" fill="#FFFFFF" font-family="'Verdana'" font-size="34.1236">R</text>
		<text transform="matrix(0.583 0 0 0.583 1339.2402 319.2681)" fill="#FFFFFF" font-family="'Verdana'" font-size="34.1236">1</text>
	</g>
	<g id="A_SVGStep72">
		<path fill="#FFFFFF" d="M1091.315-86.747c0,3.23-2.623,5.85-5.851,5.85l0,0c-3.23,0-5.852-2.621-5.852-5.85l0,0
			c0-3.229,2.621-5.85,5.852-5.85l0,0C1088.694-92.597,1091.315-89.978,1091.315-86.747L1091.315-86.747z"/>
		<text transform="matrix(1 0 0 1 1105.1396 -51.731)" fill="#FFFFFF" font-family="'Verdana'" font-size="34.1236">S</text>
		<text transform="matrix(0.583 0 0 0.583 1128.4658 -40.3677)" fill="#FFFFFF" font-family="'Verdana'" font-size="34.1236">1</text>
	</g>
	<g id="A_SVGStep73">
		<circle fill="none" stroke="#FFFFFF" stroke-width="2" stroke-miterlimit="10" cx="669.709" cy="-86.746" r="239.981"/>
	</g>
	<g id="A_SVGStep74">
		<circle fill="none" stroke="#FFFFFF" stroke-width="2" stroke-miterlimit="10" cx="253.965" cy="-86.768" r="239.981"/>
	</g>
	<g id="A_SVGStep75">
		<circle fill="none" stroke="#FFFFFF" stroke-width="2" stroke-miterlimit="10" cx="46.113" cy="273.225" r="239.981"/>
	</g>
	<g id="A_SVGStep76">
		<circle fill="none" stroke="#FFFFFF" stroke-width="2" stroke-miterlimit="10" cx="-161.533" cy="633.225" r="239.98"/>
	</g>
	<g id="A_SVGStep77">
		<circle fill="none" stroke="#FFFFFF" stroke-width="2" stroke-miterlimit="10" cx="46.113" cy="993.166" r="239.98"/>
	</g>
	<g id="A_SVGStep78">
		<circle fill="none" stroke="#FFFFFF" stroke-width="2" stroke-miterlimit="10" cx="253.965" cy="1353.113" r="239.98"/>
	</g>
	<g id="A_SVGStep79">
		<circle fill="none" stroke="#FFFFFF" stroke-width="2" stroke-miterlimit="10" cx="669.708" cy="1353.134" r="239.98"/>
	</g>
	<g id="A_SVGStep80">
		<circle fill="none" stroke="#FFFFFF" stroke-width="2" stroke-miterlimit="10" cx="1085.465" cy="1353.135" r="239.98"/>
	</g>
	<g id="A_SVGStep81">
		<circle fill="none" stroke="#FFFFFF" stroke-width="2" stroke-miterlimit="10" cx="1293.467" cy="993.163" r="239.98"/>
	</g>
	<g id="A_SVGStep82">
		<circle fill="none" stroke="#FFFFFF" stroke-width="2" stroke-miterlimit="10" cx="1501.218" cy="633.173" r="239.98"/>
	</g>
	<g id="A_SVGStep83">
		<circle fill="none" stroke="#FFFFFF" stroke-width="2" stroke-miterlimit="10" cx="1293.289" cy="273.222" r="239.98"/>
	</g>
	<g id="A_SVGStep84">
		<circle fill="none" stroke="#FFFFFF" stroke-width="2" stroke-miterlimit="10" cx="1085.465" cy="-86.747" r="239.98"/>
	</g>
	<g id="A_SVGStep85">
		<path fill="#FFFFFF" d="M467.684-206.735c0,3.23-2.623,5.85-5.851,5.85l0,0c-3.23,0-5.852-2.621-5.852-5.85l0,0
			c0-3.229,2.621-5.85,5.852-5.85l0,0C465.063-212.585,467.684-209.966,467.684-206.735L467.684-206.735z"/>
		<text transform="matrix(1 0 0 1 488.3799 -172.252)" fill="#FFFFFF" font-family="'Verdana'" font-size="34.1236">T</text>
		<text transform="matrix(0.583 0 0 0.583 509.4072 -160.8887)" fill="#FFFFFF" font-family="'Verdana'" font-size="34.1236">1</text>
	</g>
	<g id="A_SVGStep86">
		<path fill="#FFFFFF" d="M51.963,33.244c0,3.23-2.623,5.85-5.851,5.85l0,0c-3.23,0-5.852-2.621-5.852-5.85l0,0
			c0-3.229,2.621-5.85,5.852-5.85l0,0C49.342,27.395,51.963,30.014,51.963,33.244L51.963,33.244z"/>
		<text transform="matrix(1 0 0 1 78.228 71.2251)" fill="#FFFFFF" font-family="'Verdana'" font-size="34.1236">U</text>
		<text transform="matrix(0.583 0 0 0.583 103.2041 82.5884)" fill="#FFFFFF" font-family="'Verdana'" font-size="34.1236">1</text>
	</g>
	<g id="A_SVGStep87">
		<path fill="#FFFFFF" d="M-155.683,393.244c0,3.23-2.623,5.85-5.851,5.85l0,0c-3.23,0-5.852-2.621-5.852-5.85l0,0
			c0-3.229,2.621-5.85,5.852-5.85l0,0C-158.304,387.395-155.683,390.014-155.683,393.244L-155.683,393.244z"/>
		<text transform="matrix(1 0 0 1 -138.7329 427.376)" fill="#FFFFFF" font-family="'Verdana'" font-size="34.1236">V</text>
		<text transform="matrix(0.583 0 0 0.583 -115.4063 438.7393)" fill="#FFFFFF" font-family="'Verdana'" font-size="34.1236">1</text>
	</g>
	<g id="A_SVGStep88">
		<path fill="#FFFFFF" d="M-155.683,873.205c0,3.23-2.623,5.85-5.851,5.85l0,0c-3.23,0-5.852-2.621-5.852-5.85l0,0
			c0-3.229,2.621-5.85,5.852-5.85l0,0C-158.304,867.355-155.683,869.975-155.683,873.205L-155.683,873.205z"/>
		<text transform="matrix(1 0 0 1 -139.2329 904.8691)" fill="#FFFFFF" font-family="'Verdana'" font-size="34.1236">W</text>
		<text transform="matrix(0.583 0 0 0.583 -105.4927 916.2324)" fill="#FFFFFF" font-family="'Verdana'" font-size="34.1236">1</text>
	</g>
	<g id="A_SVGStep89">
		<path fill="#FFFFFF" d="M51.963,1233.146c0,3.23-2.623,5.85-5.851,5.85l0,0c-3.23,0-5.852-2.621-5.852-5.85l0,0
			c0-3.229,2.621-5.85,5.852-5.85l0,0C49.342,1227.297,51.963,1229.916,51.963,1233.146L51.963,1233.146z"/>
		<text transform="matrix(1 0 0 1 71.9131 1262.9111)" fill="#FFFFFF" font-family="'Verdana'" font-size="34.1236">Z</text>
		<text transform="matrix(0.583 0 0 0.583 95.2896 1274.2744)" fill="#FFFFFF" font-family="'Verdana'" font-size="34.1236">1</text>
	</g>
	<g id="A_SVGStep90">
		<path fill="#FFFFFF" d="M467.684,1473.123c0,3.23-2.623,5.85-5.851,5.85l0,0c-3.23,0-5.852-2.621-5.852-5.85l0,0
			c0-3.229,2.621-5.85,5.852-5.85l0,0C465.063,1467.273,467.684,1469.893,467.684,1473.123L467.684,1473.123z"/>
		<text transform="matrix(1 0 0 1 486.3799 1501.8867)" fill="#FFFFFF" font-family="'Verdana'" font-size="34.1236">A</text>
		<text transform="matrix(0.583 0 0 0.583 509.7065 1513.25)" fill="#FFFFFF" font-family="'Verdana'" font-size="34.1236">2</text>
	</g>
	<g id="A_SVGStep91">
		<path fill="#FFFFFF" d="M883.45,1473.122c0,3.23-2.623,5.85-5.851,5.85l0,0c-3.23,0-5.852-2.621-5.852-5.85l0,0
			c0-3.229,2.621-5.85,5.852-5.85l0,0C880.829,1467.272,883.45,1469.892,883.45,1473.122L883.45,1473.122z"/>
		<text transform="matrix(1 0 0 1 901.7939 1502.8867)" fill="#FFFFFF" font-family="'Verdana'" font-size="34.1236">B</text>
		<text transform="matrix(0.583 0 0 0.583 925.1875 1514.25)" fill="#FFFFFF" font-family="'Verdana'" font-size="34.1236">2</text>
	</g>
	<g id="A_SVGStep92">
		<path fill="#FFFFFF" d="M1299.317,1233.144c0,3.23-2.623,5.85-5.851,5.85l0,0c-3.23,0-5.852-2.621-5.852-5.85l0,0
			c0-3.229,2.621-5.85,5.852-5.85l0,0C1296.696,1227.294,1299.317,1229.913,1299.317,1233.144L1299.317,1233.144z"/>
		<text transform="matrix(1 0 0 1 1312.5137 1263.9111)" fill="#FFFFFF" font-family="'Verdana'" font-size="34.1236">C</text>
		<text transform="matrix(0.583 0 0 0.583 1336.3398 1275.2744)" fill="#FFFFFF" font-family="'Verdana'" font-size="34.1236">2</text>
	</g>
	<g id="A_SVGStep93">
		<path fill="#FFFFFF" d="M1507.068,873.153c0,3.23-2.623,5.85-5.851,5.85l0,0c-3.23,0-5.852-2.621-5.852-5.85l0,0
			c0-3.229,2.621-5.85,5.852-5.85l0,0C1504.447,867.304,1507.068,869.923,1507.068,873.153L1507.068,873.153z"/>
		<text transform="matrix(1 0 0 1 1522.2646 903.6367)" fill="#FFFFFF" font-family="'Verdana'" font-size="34.1236">D</text>
		<text transform="matrix(0.583 0 0 0.583 1548.5566 915)" fill="#FFFFFF" font-family="'Verdana'" font-size="34.1236">2</text>
	</g>
	<g id="A_SVGStep94">
		<path fill="#FFFFFF" d="M1507.068,393.192c0,3.23-2.623,5.85-5.851,5.85l0,0c-3.23,0-5.852-2.621-5.852-5.85l0,0
			c0-3.229,2.621-5.85,5.852-5.85l0,0C1504.447,387.343,1507.068,389.962,1507.068,393.192L1507.068,393.192z"/>
		<text transform="matrix(1 0 0 1 1521.2646 425.6758)" fill="#FFFFFF" font-family="'Verdana'" font-size="34.1236">E</text>
		<text transform="matrix(0.583 0 0 0.583 1542.8418 437.0391)" fill="#FFFFFF" font-family="'Verdana'" font-size="34.1236">2</text>
	</g>
	<g id="A_SVGStep95">
		<path fill="#FFFFFF" d="M1299.14,33.242c0,3.23-2.623,5.85-5.851,5.85l0,0c-3.23,0-5.852-2.621-5.852-5.85l0,0
			c0-3.229,2.621-5.85,5.852-5.85l0,0C1296.519,27.392,1299.14,30.011,1299.14,33.242L1299.14,33.242z"/>
		<text transform="matrix(1 0 0 1 1314.0137 66.2251)" fill="#FFFFFF" font-family="'Verdana'" font-size="34.1236">F</text>
		<text transform="matrix(0.583 0 0 0.583 1333.624 77.5884)" fill="#FFFFFF" font-family="'Verdana'" font-size="34.1236">2</text>
	</g>
	<g id="A_SVGStep96">
		<path fill="#FFFFFF" d="M883.45-206.735c0,3.23-2.623,5.85-5.851,5.85l0,0c-3.23,0-5.852-2.621-5.852-5.85l0,0
			c0-3.229,2.621-5.85,5.852-5.85l0,0C880.829-212.585,883.45-209.966,883.45-206.735L883.45-206.735z"/>
		<text transform="matrix(1 0 0 1 895.6465 -172.252)" fill="#FFFFFF" font-family="'Verdana'" font-size="34.1236">G</text>
		<text transform="matrix(0.583 0 0 0.583 922.1055 -160.8887)" fill="#FFFFFF" font-family="'Verdana'" font-size="34.1236">2</text>
	</g>
	<g id="A_SVGStep97">
		<circle fill="none" stroke="#FFFFFF" stroke-width="2" stroke-miterlimit="10" cx="461.833" cy="-206.735" r="239.981"/>
	</g>
	<g id="A_SVGStep98">
		<circle fill="none" stroke="#FFFFFF" stroke-width="2" stroke-miterlimit="10" cx="46.113" cy="33.244" r="239.981"/>
	</g>
	<g id="A_SVGStep99">
		<circle fill="none" stroke="#FFFFFF" stroke-width="2" stroke-miterlimit="10" cx="-161.752" cy="393.244" r="239.98"/>
	</g>
	<g id="A_SVGStep100">
		<circle fill="none" stroke="#FFFFFF" stroke-width="2" stroke-miterlimit="10" cx="-161.736" cy="873.205" r="239.98"/>
	</g>
	<g id="A_SVGStep101">
		<circle fill="none" stroke="#FFFFFF" stroke-width="2" stroke-miterlimit="10" cx="46.113" cy="1233.146" r="239.98"/>
	</g>
	<g id="A_SVGStep102">
		<circle fill="none" stroke="#FFFFFF" stroke-width="2" stroke-miterlimit="10" cx="461.833" cy="1473.123" r="239.98"/>
	</g>
	<g id="A_SVGStep103">
		<circle fill="none" stroke="#FFFFFF" stroke-width="2" stroke-miterlimit="10" cx="877.6" cy="1473.122" r="239.98"/>
	</g>
	<g id="A_SVGStep104">
		<circle fill="none" stroke="#FFFFFF" stroke-width="2" stroke-miterlimit="10" cx="1293.311" cy="1233.143" r="239.98"/>
	</g>
	<g id="A_SVGStep105">
		<circle fill="none" stroke="#FFFFFF" stroke-width="2" stroke-miterlimit="10" cx="1501.218" cy="873.153" r="239.98"/>
	</g>
	<g id="A_SVGStep106">
		<circle fill="none" stroke="#FFFFFF" stroke-width="2" stroke-miterlimit="10" cx="1501.218" cy="393.192" r="239.98"/>
	</g>
	<g id="A_SVGStep107">
		<circle fill="none" stroke="#FFFFFF" stroke-width="2" stroke-miterlimit="10" cx="1293.289" cy="33.242" r="239.98"/>
	</g>
	<g id="A_SVGStep108">
		<circle fill="none" stroke="#FFFFFF" stroke-width="2" stroke-miterlimit="10" cx="877.6" cy="-206.735" r="239.98"/>
	</g>
	<g id="A_SVGStep109">
		<path fill="#FFFFFF" d="M675.56-326.727c0,3.23-2.623,5.85-5.851,5.85l0,0c-3.23,0-5.852-2.621-5.852-5.85l0,0
			c0-3.229,2.621-5.85,5.852-5.85l0,0C672.938-332.576,675.56-329.957,675.56-326.727L675.56-326.727z"/>
		<text transform="matrix(1 0 0 1 687.7559 -292.2432)" fill="#FFFFFF" font-family="'Verdana'" font-size="34.1236">G</text>
		<text transform="matrix(0.583 0 0 0.583 714.2148 -280.8799)" fill="#FFFFFF" font-family="'Verdana'" font-size="34.1236">2</text>
	</g>
	<g id="A_SVGStep110">
		<path fill="#FFFFFF" d="M-155.901,153.264c0,3.23-2.623,5.85-5.851,5.85l0,0c-3.23,0-5.852-2.621-5.852-5.85l0,0
			c0-3.229,2.621-5.85,5.852-5.85l0,0C-158.522,147.414-155.901,150.033-155.901,153.264L-155.901,153.264z"/>
		<text transform="matrix(1 0 0 1 -131.6328 189.916)" fill="#FFFFFF" font-family="'Verdana'" font-size="34.1236">H</text>
		<text transform="matrix(0.583 0 0 0.583 -105.9902 201.2793)" fill="#FFFFFF" font-family="'Verdana'" font-size="34.1236">2</text>
	</g>
	<g id="A_SVGStep111">
		<path fill="#FFFFFF" d="M-155.886,1113.186c0,3.23-2.623,5.85-5.851,5.85l0,0c-3.23,0-5.852-2.621-5.852-5.85l0,0
			c0-3.229,2.621-5.85,5.852-5.85l0,0C-158.507,1107.336-155.886,1109.955-155.886,1113.186L-155.886,1113.186z"/>
		<text transform="matrix(1 0 0 1 -135.7329 1144.6699)" fill="#FFFFFF" font-family="'Verdana'" font-size="34.1236">J</text>
		<text transform="matrix(0.583 0 0 0.583 -120.2207 1156.0332)" fill="#FFFFFF" font-family="'Verdana'" font-size="34.1236">2</text>
	</g>
	<g id="A_SVGStep112">
		<path fill="#FFFFFF" d="M675.559,1593.114c0,3.23-2.623,5.85-5.851,5.85l0,0c-3.23,0-5.852-2.621-5.852-5.85l0,0
			c0-3.229,2.621-5.85,5.852-5.85l0,0C672.938,1587.265,675.559,1589.884,675.559,1593.114L675.559,1593.114z"/>
		<text transform="matrix(1 0 0 1 693.0068 1621.2656)" fill="#FFFFFF" font-family="'Verdana'" font-size="34.1236">K</text>
		<text transform="matrix(0.583 0 0 0.583 716.6504 1632.6289)" fill="#FFFFFF" font-family="'Verdana'" font-size="34.1236">2</text>
	</g>
	<g id="A_SVGStep113">
		<path fill="#FFFFFF" d="M1507.068,1113.133c0,3.23-2.623,5.85-5.851,5.85l0,0c-3.23,0-5.852-2.621-5.852-5.85l0,0
			c0-3.229,2.621-5.85,5.852-5.85l0,0C1504.447,1107.283,1507.068,1109.902,1507.068,1113.133L1507.068,1113.133z"/>
		<text transform="matrix(1 0 0 1 1524.2646 1144.6699)" fill="#FFFFFF" font-family="'Verdana'" font-size="34.1236">L</text>
		<text transform="matrix(0.583 0 0 0.583 1543.2588 1156.0332)" fill="#FFFFFF" font-family="'Verdana'" font-size="34.1236">2</text>
	</g>
	<g id="A_SVGStep114">
		<path fill="#FFFFFF" d="M1507.068,153.212c0,3.23-2.623,5.85-5.851,5.85l0,0c-3.23,0-5.852-2.621-5.852-5.85l0,0
			c0-3.229,2.621-5.85,5.852-5.85l0,0C1504.447,147.362,1507.068,149.981,1507.068,153.212L1507.068,153.212z"/>
		<text transform="matrix(1 0 0 1 1523.2646 188.916)" fill="#FFFFFF" font-family="'Verdana'" font-size="34.1236">M</text>
		<text transform="matrix(0.583 0 0 0.583 1552.0225 200.2793)" fill="#FFFFFF" font-family="'Verdana'" font-size="34.1236">2</text>
	</g>
	<g id="A_SVGStep115">
		<circle fill="none" stroke="#FFFFFF" stroke-width="2" stroke-miterlimit="10" cx="669.71" cy="-326.727" r="239.98"/>
	</g>
	<g id="A_SVGStep116">
		<circle fill="none" stroke="#FFFFFF" stroke-width="2" stroke-miterlimit="10" cx="-161.751" cy="153.264" r="239.98"/>
	</g>
	<g id="A_SVGStep117">
		<circle fill="none" stroke="#FFFFFF" stroke-width="2" stroke-miterlimit="10" cx="-161.736" cy="1113.186" r="239.98"/>
	</g>
	<g id="A_SVGStep118">
		<circle fill="none" stroke="#FFFFFF" stroke-width="2" stroke-miterlimit="10" cx="669.708" cy="1593.114" r="239.98"/>
	</g>
	<g id="A_SVGStep119">
		<circle fill="none" stroke="#FFFFFF" stroke-width="2" stroke-miterlimit="10" cx="1501.219" cy="1113.134" r="239.98"/>
	</g>
	<g id="A_SVGStep120">
		<circle fill="none" stroke="#FFFFFF" stroke-width="2" stroke-miterlimit="10" cx="1501.219" cy="153.212" r="239.98"/>
	</g>
</g>
</svg>
