<?xml version="1.0" encoding="utf-8"?>
<!-- Generator: Adobe Illustrator 16.0.0, SVG Export Plug-In . SVG Version: 6.00 Build 0)  -->
<!DOCTYPE svg PUBLIC "-//W3C//DTD SVG 1.1//EN" "http://www.w3.org/Graphics/SVG/1.1/DTD/svg11.dtd">
<svg version="1.1" id="A_detailSealedFOL" xmlns="http://www.w3.org/2000/svg" xmlns:xlink="http://www.w3.org/1999/xlink"
	 x="0px" y="0px" width="1163.333px" height="1026px" viewBox="0 0 1163.333 1026" enable-background="new 0 0 1163.333 1026"
	 xml:space="preserve">

<g id="A_SVGGroupSteps">
	<g id="unsealedFOL">
		<path fill="none" stroke="#FFFFFF" stroke-width="0.25" stroke-miterlimit="10" d="M721.229,356.821
			c-29.811,0-55.859-16.189-69.813-40.264"/>
		<path fill="none" stroke="#FFFFFF" stroke-width="0.25" stroke-miterlimit="10" d="M651.471,316.543
			c-29.789,0-55.805-16.161-69.768-40.217"/>
		<path fill="none" stroke="#FFFFFF" stroke-width="0.25" stroke-miterlimit="10" d="M662.178,356.834
			c0,44.488-36.062,80.537-80.514,80.537c-44.488,0-80.576-36.037-80.576-80.537c0-44.513,36.075-80.568,80.575-80.569
			C626.111,276.266,662.178,312.322,662.178,356.834z"/>
		<path fill="none" stroke="#FFFFFF" stroke-width="0.25" stroke-miterlimit="10" d="M522.65,437.39
			c0,44.487-36.076,80.543-80.517,80.543c-44.507,0-80.583-36.049-80.583-80.543c0-44.512,36.063-80.568,80.583-80.568
			C486.567,356.821,522.65,392.877,522.65,437.39z"/>
		<path fill="none" stroke="#FFFFFF" stroke-width="0.25" stroke-miterlimit="10" d="M522.65,598.487
			c0,44.474-36.07,80.538-80.503,80.538c-44.52,0-80.582-36.052-80.582-80.538c0-44.521,36.048-80.567,80.582-80.566
			C486.575,517.933,522.65,553.967,522.65,598.487z"/>
		<path fill="none" stroke="#FFFFFF" stroke-width="0.25" stroke-miterlimit="10" d="M662.186,679.038
			c0,44.493-36.069,80.528-80.521,80.528c-44.488,0-80.576-36.035-80.576-80.529c0-44.52,36.075-80.562,80.576-80.562
			C626.112,598.476,662.186,634.53,662.186,679.038z"/>
		<path fill="none" stroke="#FFFFFF" stroke-width="0.25" stroke-miterlimit="10" d="M801.743,598.487
			c0,44.475-36.055,80.539-80.514,80.538c-44.496,0-80.57-36.052-80.57-80.538c0-44.521,36.061-80.568,80.57-80.567
			C765.678,517.933,801.743,553.967,801.743,598.487z"/>
		<path fill="none" stroke="#FFFFFF" stroke-width="0.25" stroke-miterlimit="10" d="M801.737,437.389
			c0,44.488-36.041,80.543-80.504,80.544c-44.494,0-80.574-36.048-80.574-80.543c0-44.512,36.068-80.567,80.574-80.568
			C765.678,356.821,801.737,392.877,801.737,437.389z"/>
		<path fill="none" stroke="#FFFFFF" stroke-width="0.25" stroke-miterlimit="10" d="M592.417,397.112
			c0.001,44.488-36.075,80.542-80.521,80.542c-44.507,0-80.569-36.049-80.569-80.542c0-44.513,36.054-80.569,80.569-80.569
			C556.33,316.543,592.417,352.592,592.417,397.112z"/>
		<path fill="none" stroke="#FFFFFF" stroke-width="0.25" stroke-miterlimit="10" d="M522.65,517.947
			c0.001,44.479-36.076,80.534-80.516,80.534c-44.508,0-80.583-36.047-80.583-80.534c0-44.513,36.063-80.576,80.583-80.577
			C486.567,437.37,522.65,473.425,522.65,517.947z"/>
		<path fill="none" stroke="#FFFFFF" stroke-width="0.25" stroke-miterlimit="10" d="M592.417,638.779
			c0,44.481-36.075,80.527-80.521,80.527c-44.507,0-80.569-36.039-80.569-80.528c0-44.52,36.055-80.573,80.569-80.573
			C556.33,558.196,592.418,594.246,592.417,638.779z"/>
		<path fill="none" stroke="#FFFFFF" stroke-width="0.25" stroke-miterlimit="10" d="M731.961,638.778
			c0,44.481-36.082,80.528-80.521,80.528c-44.503,0-80.583-36.039-80.583-80.528c0.001-44.52,36.074-80.573,80.583-80.573
			C695.879,558.196,731.961,594.246,731.961,638.778z"/>
		<path fill="none" stroke="#FFFFFF" stroke-width="0.25" stroke-miterlimit="10" d="M801.737,517.946
			c0,44.48-36.04,80.534-80.504,80.534c-44.494,0-80.574-36.047-80.574-80.534c0-44.513,36.068-80.576,80.574-80.575
			C765.678,437.37,801.737,473.425,801.737,517.946z"/>
		<path fill="none" stroke="#FFFFFF" stroke-width="0.25" stroke-miterlimit="10" d="M731.961,397.112
			c0,44.488-36.076,80.542-80.516,80.542c-44.5,0-80.569-36.049-80.569-80.542c-0.001-44.513,36.06-80.569,80.569-80.569
			C695.879,316.543,731.961,352.592,731.961,397.112z"/>
		<path fill="none" stroke="#FFFFFF" stroke-width="0.25" stroke-miterlimit="10" d="M662.178,517.945
			c0,44.48-36.062,80.535-80.514,80.535c-44.487,0-80.575-36.048-80.575-80.534c0-44.513,36.075-80.575,80.576-80.575
			C626.111,437.37,662.178,473.426,662.178,517.945z"/>
		<path fill="none" stroke="#FFFFFF" stroke-width="0.25" stroke-miterlimit="10" d="M662.178,598.487
			c0,44.474-36.062,80.538-80.514,80.538c-44.489,0-80.576-36.052-80.576-80.538c0-44.521,36.075-80.567,80.575-80.567
			C626.111,517.932,662.178,553.967,662.178,598.487z"/>
		<path fill="none" stroke="#FFFFFF" stroke-width="0.25" stroke-miterlimit="10" d="M731.961,558.212
			c0,44.474-36.082,80.54-80.521,80.54c-44.503,0.001-80.569-36.054-80.57-80.54c0-44.514,36.061-80.564,80.57-80.564
			C695.878,477.647,731.961,513.711,731.961,558.212z"/>
		<path fill="none" stroke="#FFFFFF" stroke-width="0.25" stroke-miterlimit="10" d="M731.961,477.662
			c0,44.492-36.076,80.534-80.516,80.534c-44.5,0-80.569-36.042-80.569-80.534c0-44.521,36.061-80.563,80.569-80.562
			C695.879,397.099,731.961,433.142,731.961,477.662z"/>
		<path fill="none" stroke="#FFFFFF" stroke-width="0.25" stroke-miterlimit="10" d="M662.178,437.39
			c0,44.487-36.062,80.543-80.514,80.542c-44.488,0-80.576-36.048-80.576-80.542c0-44.513,36.075-80.568,80.575-80.568
			C626.112,356.821,662.178,392.876,662.178,437.39z"/>
		<path fill="none" stroke="#FFFFFF" stroke-width="0.25" stroke-miterlimit="10" d="M592.417,477.662
			c0,44.493-36.074,80.535-80.521,80.535c-44.507,0-80.569-36.042-80.569-80.535c0-44.52,36.055-80.563,80.569-80.563
			C556.33,397.099,592.417,433.142,592.417,477.662z"/>
		<path fill="none" stroke="#FFFFFF" stroke-width="0.25" stroke-miterlimit="10" d="M592.417,558.212
			c0.001,44.474-36.075,80.54-80.522,80.54c-44.506,0-80.569-36.055-80.569-80.54c0-44.514,36.055-80.564,80.569-80.564
			C556.33,477.647,592.418,513.711,592.417,558.212z"/>
		<path fill="none" stroke="#FFFFFF" stroke-width="0.25" stroke-miterlimit="10" d="M581.657,276.298
			c6.843,11.84,10.754,25.594,10.754,40.259c0,44.486-36.075,80.542-80.516,80.542c-29.822,0-55.858-16.188-69.796-40.246"/>
		<path fill="none" stroke="#FFFFFF" stroke-width="0.25" stroke-miterlimit="10" d="M511.875,316.569
			c6.838,11.849,10.748,25.593,10.748,40.271c0,44.482-36.062,80.537-80.503,80.537c-29.835,0-55.863-16.188-69.795-40.25"/>
		<path fill="none" stroke="#FFFFFF" stroke-width="0.25" stroke-miterlimit="10" d="M372.34,397.112
			c44.453,0,80.528,36.035,80.529,80.562c0,44.495-36.076,80.538-80.529,80.538"/>
		<path fill="none" stroke="#FFFFFF" stroke-width="0.25" stroke-miterlimit="10" d="M372.353,477.654
			c44.453,0,80.515,36.044,80.516,80.558c0,44.485-36.063,80.54-80.516,80.54"/>
		<path fill="none" stroke="#FFFFFF" stroke-width="0.25" stroke-miterlimit="10" d="M372.445,638.555
			c13.977-23.978,39.953-40.093,69.689-40.093c44.44,0.001,80.509,36.043,80.509,80.575c0,14.667-3.937,28.411-10.754,40.258"/>
		<path fill="none" stroke="#FFFFFF" stroke-width="0.25" stroke-miterlimit="10" d="M442.2,678.912
			c13.972-24.01,39.96-40.16,69.717-40.16c44.459,0,80.521,36.057,80.521,80.584c0.001,14.532-3.853,28.169-10.587,39.94"/>
		<path fill="none" stroke="#FFFFFF" stroke-width="0.25" stroke-miterlimit="10" d="M581.625,759.574
			c-6.852-11.833-10.749-25.573-10.748-40.238c-0.001-44.52,36.06-80.583,80.569-80.584c29.795,0,55.844,16.216,69.768,40.313"/>
		<path fill="none" stroke="#FFFFFF" stroke-width="0.25" stroke-miterlimit="10" d="M651.333,719.136
			c-6.783-11.812-10.688-25.493-10.687-40.086c-0.001-44.505,36.067-80.569,80.587-80.569c29.789,0,55.803,16.195,69.742,40.271"/>
		<path fill="none" stroke="#FFFFFF" stroke-width="0.25" stroke-miterlimit="10" d="M790.995,638.753
			c-44.492-0.001-80.568-36.056-80.567-80.541c-0.001-44.514,36.067-80.557,80.567-80.558"/>
		<path fill="none" stroke="#FFFFFF" stroke-width="0.25" stroke-miterlimit="10" d="M791.008,558.196
			c-44.506,0-80.582-36.042-80.582-80.534c0.001-44.521,36.068-80.563,80.582-80.563"/>
		<path fill="none" stroke="#FFFFFF" stroke-width="0.25" stroke-miterlimit="10" d="M790.995,397.046
			c-13.91,24.116-39.953,40.324-69.765,40.324c-44.511,0-80.593-36.035-80.593-80.536c0-14.632,3.924-28.352,10.729-40.172"/>
		<path fill="none" stroke="#FFFFFF" stroke-width="0.25" stroke-miterlimit="10" d="M721.2,356.827
			c-13.924,24.07-39.953,40.273-69.748,40.272c-44.5,0-80.568-36.048-80.568-80.556c0-14.599,3.898-28.306,10.708-40.119"/>
		<path fill="none" stroke="#FFFFFF" stroke-width="0.25" stroke-miterlimit="10" d="M651.446,316.543
			c-13.933,24.089-39.947,40.278-69.755,40.279c-29.841-0.001-55.91-16.214-69.835-40.326"/>
		<path fill="none" stroke="#FFFFFF" stroke-width="0.25" stroke-miterlimit="10" d="M442.154,356.907
			c6.823,11.826,10.728,25.56,10.728,40.219c0,44.486-36.075,80.535-80.528,80.535"/>
		<path fill="none" stroke="#FFFFFF" stroke-width="0.25" stroke-miterlimit="10" d="M372.316,558.217
			c44.484-0.021,80.539,36.055,80.539,80.572c0,14.666-3.916,28.416-10.758,40.255"/>
		<path fill="none" stroke="#FFFFFF" stroke-width="0.25" stroke-miterlimit="10" d="M511.876,719.336
			c13.923-24.092,39.953-40.299,69.808-40.299c29.793-0.005,55.795,16.182,69.726,40.245"/>
		<path fill="none" stroke="#FFFFFF" stroke-width="0.25" stroke-miterlimit="10" d="M721.241,679.096
			c-6.882-11.858-10.814-25.623-10.814-40.344c0-44.506,36.068-80.562,80.582-80.563"/>
		<path fill="none" stroke="#FFFFFF" stroke-width="0.25" stroke-miterlimit="10" d="M791.008,477.654
			c-44.494,0-80.582-36.049-80.581-80.542c-0.001-14.666,3.937-28.418,10.772-40.265"/>
		<path fill="none" stroke="#FFFFFF" stroke-width="0.25" stroke-miterlimit="10" d="M581.657,276.298
			c-13.931,24.064-39.953,40.245-69.734,40.245"/>
		<path fill="none" stroke="#FFFFFF" stroke-width="0.25" stroke-miterlimit="10" d="M511.862,316.609
			c-13.943,24.051-39.96,40.225-69.722,40.225"/>
		<path fill="none" stroke="#FFFFFF" stroke-width="0.25" stroke-miterlimit="10" d="M442.107,356.808
			c-13.93,24.084-39.959,40.292-69.754,40.292"/>
		<path fill="none" stroke="#FFFFFF" stroke-width="0.25" stroke-miterlimit="10" d="M372.353,397.146
			c6.857,11.84,10.741,25.578,10.741,40.238c0,14.626-3.903,28.346-10.727,40.178"/>
		<path fill="none" stroke="#FFFFFF" stroke-width="0.25" stroke-miterlimit="10" d="M372.367,477.715
			c6.855,11.833,10.741,25.565,10.741,40.244c0,14.678-3.938,28.445-10.795,40.305"/>
		<path fill="none" stroke="#FFFFFF" stroke-width="0.25" stroke-miterlimit="10" d="M372.419,558.329
			c6.83,11.833,10.729,25.548,10.729,40.18c0,14.685-3.938,28.464-10.788,40.311"/>
		<path fill="none" stroke="#FFFFFF" stroke-width="0.25" stroke-miterlimit="10" d="M372.366,638.766
			c29.728-0.014,55.651,16.084,69.634,40.049"/>
		<path fill="none" stroke="#FFFFFF" stroke-width="0.25" stroke-miterlimit="10" d="M442.12,679.01
			c29.795,0,55.818,16.195,69.755,40.285"/>
		<path fill="none" stroke="#FFFFFF" stroke-width="0.25" stroke-miterlimit="10" d="M511.922,719.307
			c29.703,0,55.625,16.085,69.616,40.03"/>
		<path fill="none" stroke="#FFFFFF" stroke-width="0.25" stroke-miterlimit="10" d="M581.71,759.514
			c13.963-24.043,39.959-40.207,69.747-40.206"/>
		<path fill="none" stroke="#FFFFFF" stroke-width="0.25" stroke-miterlimit="10" d="M651.446,719.336
			c13.93-24.092,39.967-40.299,69.807-40.299"/>
		<path fill="none" stroke="#FFFFFF" stroke-width="0.25" stroke-miterlimit="10" d="M721.2,679.077
			c13.926-24.109,39.994-40.325,69.822-40.325"/>
		<path fill="none" stroke="#FFFFFF" stroke-width="0.25" stroke-miterlimit="10" d="M790.756,638.368
			c-6.697-11.752-10.548-25.372-10.549-39.881c0-14.731,3.943-28.517,10.84-40.395"/>
		<path fill="none" stroke="#FFFFFF" stroke-width="0.25" stroke-miterlimit="10" d="M790.784,557.88
			c-6.711-11.765-10.59-25.401-10.59-39.934c0-14.798,3.979-28.643,10.955-40.542"/>
		<path fill="none" stroke="#FFFFFF" stroke-width="0.25" stroke-miterlimit="10" d="M790.983,477.635
			c-6.85-11.833-10.762-25.58-10.762-40.247c0-14.685,3.937-28.457,10.787-40.317"/>
		<path fill="none" stroke="#FFFFFF" stroke-width="0.25" stroke-miterlimit="10" d="M791.022,397.112
			c-29.834,0-55.896-16.208-69.822-40.299"/>
		<circle fill="none" stroke="#FFFFFF" stroke-width="2" stroke-miterlimit="10" cx="581.664" cy="517.921" r="241.655"/>
	</g>
	<g id="sealedFOL">
		<g id="A_SVGStep1">
			<rect x="581.554" y="34.612" fill="#FFFFFF" width="0.25" height="966.616"/>
		</g>
		<path fill="#FFFFFF" d="M340.01,759.699c-32.64,0-64.304-6.393-94.112-19c-28.791-12.178-54.648-29.611-76.853-51.815
			c-22.204-22.205-39.638-48.062-51.815-76.853c-12.608-29.808-19-61.472-19-94.111c0-32.64,6.393-64.304,19-94.111
			c12.177-28.791,29.61-54.648,51.815-76.852c22.205-22.205,48.062-39.638,76.853-51.815c29.808-12.607,61.472-19,94.112-19
			s64.304,6.393,94.111,19c28.791,12.177,54.648,29.61,76.853,51.815s39.638,48.062,51.815,76.853
			c12.607,29.808,19,61.471,19,94.111c0,32.64-6.393,64.304-19,94.111c-12.178,28.791-29.611,54.647-51.815,76.853
			c-22.205,22.204-48.062,39.638-76.853,51.815C404.313,753.307,372.65,759.699,340.01,759.699z M340.009,276.391
			c-133.18,0-241.53,108.349-241.53,241.529c0,133.18,108.351,241.529,241.53,241.529c64.515,0,125.168-25.123,170.787-70.742
			c45.619-45.619,70.742-106.272,70.742-170.787c0-64.515-25.124-125.168-70.743-170.787
			C465.177,301.514,404.524,276.391,340.009,276.391z"/>
		<path fill="#FFFFFF" d="M581.665,518.045C581.663,518.045,581.666,518.045,581.665,518.045c-32.641,0-64.305-6.393-94.113-19
			c-28.791-12.177-54.647-29.61-76.852-51.815s-39.638-48.062-51.815-76.852c-12.607-29.808-19-61.472-19-94.111
			c0-32.64,6.393-64.304,19-94.111c12.177-28.791,29.61-54.648,51.815-76.853s48.062-39.638,76.853-51.815
			c29.806-12.607,61.473-19,94.111-19c0.002,0-0.001,0,0.001,0c32.64,0,64.304,6.393,94.112,19
			c28.791,12.177,54.647,29.61,76.853,51.815c22.204,22.204,39.638,48.061,51.815,76.852c12.607,29.808,19,61.471,19,94.111
			s-6.393,64.304-19,94.111c-12.178,28.791-29.611,54.648-51.816,76.853c-22.204,22.205-48.062,39.638-76.853,51.815
			C645.969,511.652,614.303,518.045,581.665,518.045z M581.664,34.737c-64.515,0-125.168,25.123-170.788,70.742
			c-45.619,45.619-70.742,106.272-70.742,170.787c0,133.18,108.35,241.529,241.53,241.529c64.514,0,125.167-25.123,170.787-70.742
			s70.743-106.272,70.743-170.787C823.194,143.086,714.844,34.737,581.664,34.737z"/>
		<path fill="#FFFFFF" d="M823.319,759.699c-32.641,0-64.304-6.393-94.112-19c-28.79-12.178-54.647-29.611-76.852-51.815
			c-22.205-22.205-39.638-48.062-51.815-76.853c-12.608-29.808-19-61.472-19-94.111c0-32.64,6.393-64.304,19-94.111
			c12.178-28.791,29.611-54.648,51.815-76.853c22.205-22.205,48.062-39.638,76.853-51.815c29.809-12.608,61.472-19,94.112-19
			s64.304,6.393,94.112,19c28.79,12.178,54.647,29.611,76.852,51.815c22.205,22.204,39.638,48.061,51.815,76.852
			c12.607,29.808,19,61.471,19,94.111s-6.393,64.304-19,94.112c-12.178,28.791-29.61,54.647-51.815,76.853
			c-22.204,22.204-48.062,39.638-76.852,51.815C887.623,753.307,855.959,759.699,823.319,759.699z M823.319,276.391
			c-64.516,0-125.169,25.124-170.788,70.742c-45.619,45.619-70.742,106.272-70.742,170.787c0,133.18,108.35,241.529,241.53,241.529
			s241.529-108.35,241.529-241.53C1064.848,384.74,956.499,276.391,823.319,276.391z"/>
		<path fill="#FFFFFF" d="M581.665,1001.354c-32.64,0-64.304-6.393-94.112-19c-28.791-12.177-54.648-29.61-76.853-51.814
			c-22.205-22.205-39.638-48.062-51.815-76.853c-12.608-29.809-19-61.472-19-94.112s6.393-64.304,19-94.111
			c12.178-28.791,29.611-54.648,51.815-76.853c22.204-22.204,48.061-39.638,76.852-51.815c29.808-12.607,61.472-19,94.112-19
			s64.304,6.393,94.112,19c28.791,12.178,54.648,29.611,76.853,51.815c22.205,22.204,39.638,48.062,51.815,76.853
			c12.607,29.808,19,61.471,19,94.111c0,32.64-6.393,64.304-19,94.111c-12.178,28.791-29.61,54.647-51.815,76.853
			c-22.204,22.204-48.062,39.638-76.852,51.815C645.968,994.961,614.305,1001.354,581.665,1001.354z M581.664,518.045
			c-133.18,0-241.529,108.35-241.529,241.529c0,64.516,25.124,125.169,70.742,170.788c45.619,45.618,106.272,70.741,170.788,70.741
			c133.18,0,241.529-108.35,241.529-241.529S714.844,518.045,581.664,518.045z"/>
		
			<rect x="239.913" y="517.795" transform="matrix(0.7071 0.7071 -0.7071 0.7071 536.5894 -259.6033)" fill="#FFFFFF" width="683.503" height="0.25"/>
		
			<rect x="581.539" y="176.17" transform="matrix(0.7052 0.7091 -0.7091 0.7052 538.7324 -259.7245)" fill="#FFFFFF" width="0.251" height="683.501"/>
		<path fill="#FFFFFF" d="M581.664,859.796c-21.879,0-43.848-2.105-65.296-6.258c-21.654-4.192-42.969-10.51-63.352-18.775
			c-42.409-17.197-80.459-42.465-113.094-75.101c-32.635-32.635-57.902-70.685-75.1-113.094
			c-8.266-20.383-14.583-41.698-18.775-63.353c-4.153-21.448-6.259-43.417-6.259-65.296c0-21.878,2.106-43.847,6.259-65.296
			c4.192-21.654,10.509-42.969,18.775-63.352c17.197-42.409,42.464-80.459,75.1-113.094c32.639-32.639,70.689-57.907,113.094-75.103
			c20.382-8.265,41.696-14.582,63.35-18.773c21.448-4.152,43.418-6.257,65.3-6.257c21.875,0,43.843,2.106,65.292,6.259
			c21.654,4.193,42.97,10.511,63.354,18.777c42.413,17.2,80.464,42.465,113.095,75.097c32.636,32.635,57.902,70.686,75.101,113.095
			c8.266,20.383,14.582,41.698,18.774,63.352c4.153,21.449,6.259,43.417,6.259,65.296s-2.105,43.848-6.259,65.296
			c-4.192,21.654-10.509,42.97-18.774,63.353c-17.198,42.409-42.465,80.459-75.101,113.094
			c-32.635,32.636-70.686,57.903-113.095,75.101c-20.383,8.266-41.697,14.583-63.352,18.775
			C625.511,857.69,603.542,859.796,581.664,859.796z M581.665,176.294c-91.252,0-177.042,35.536-241.567,100.061
			c-64.524,64.524-100.06,150.314-100.06,241.565c0,91.252,35.536,177.041,100.06,241.565
			c64.524,64.525,150.314,100.061,241.566,100.061s177.042-35.535,241.566-100.061c133.2-133.199,133.2-349.932,0-483.132
			C758.707,211.829,672.917,176.294,581.665,176.294z"/>
		
			<rect x="510.884" y="346.926" transform="matrix(0.707 0.7072 -0.7072 0.707 465.8862 -430.4938)" fill="#FFFFFF" width="483.28" height="0.25"/>
		
			<rect x="752.399" y="447.171" transform="matrix(0.7052 0.7091 -0.7091 0.7052 710.2736 -330.4896)" fill="#FFFFFF" width="0.251" height="483.262"/>
		
			<rect x="169.174" y="688.677" transform="matrix(0.7071 0.7071 -0.7071 0.7071 607.3978 -88.7395)" fill="#FFFFFF" width="483.278" height="0.25"/>
		
			<rect x="410.689" y="105.402" transform="matrix(0.7071 0.7071 -0.7071 0.7071 365.7269 -188.8404)" fill="#FFFFFF" width="0.25" height="483.299"/>
		
			<rect x="671.817" y="467.764" transform="matrix(0.9239 0.3827 -0.3827 0.9239 240.1777 -271.5397)" fill="#FFFFFF" width="261.512" height="0.25"/>
		
			<rect x="802.38" y="437.171" transform="matrix(0.3835 0.9235 -0.9235 0.3835 1019.3105 -390.9757)" fill="#FFFFFF" width="0.25" height="261.655"/>
		
			<rect x="229.994" y="567.874" transform="matrix(0.9239 0.3827 -0.3827 0.9239 244.83 -94.8441)" fill="#FFFFFF" width="261.656" height="0.25"/>
		
			<rect x="410.683" y="-19.686" transform="matrix(0.8161 0.5779 -0.5779 0.8161 235.2078 -186.6036)" fill="#FFFFFF" width="0.25" height="591.917"/>
		
			<rect x="114.861" y="759.456" transform="matrix(0.5773 0.8165 -0.8165 0.5773 793.8547 -14.3716)" fill="#FFFFFF" width="591.896" height="0.25"/>
		
			<rect x="752.394" y="463.633" transform="matrix(0.8161 0.5779 -0.5779 0.8161 577.3557 -295.2014)" fill="#FFFFFF" width="0.25" height="591.895"/>
		
			<rect x="456.561" y="276.147" transform="matrix(0.5773 0.8165 -0.8165 0.5773 543.6807 -497.6768)" fill="#FFFFFF" width="591.915" height="0.25"/>
		<rect x="239.953" y="517.808" fill="#FFFFFF" width="683.421" height="0.25"/>
		
			<rect x="360.697" y="337.032" transform="matrix(0.3828 0.9238 -0.9238 0.3828 654.9181 -44.5778)" fill="#FFFFFF" width="0.25" height="261.66"/>
		
			<rect x="531.51" y="81.378" transform="matrix(0.3821 0.9241 -0.9241 0.3821 695.4503 -245.9318)" fill="#FFFFFF" width="0.25" height="631.442"/>
		
			<rect x="315.971" y="396.974" transform="matrix(0.9239 0.3827 -0.3827 0.9239 200.0739 -211.5288)" fill="#FFFFFF" width="631.44" height="0.25"/>
		
			<rect x="631.567" y="323.038" transform="matrix(0.3835 0.9235 -0.9235 0.3835 979.3492 -189.6031)" fill="#FFFFFF" width="0.25" height="631.43"/>
		
			<rect x="215.92" y="638.629" transform="matrix(0.9239 0.3827 -0.3827 0.9239 284.9117 -154.8268)" fill="#FFFFFF" width="631.432" height="0.25"/>
		<path fill="#FFFFFF" d="M581.668,769.123c-67.1,0-130.183-26.13-177.629-73.575c-47.446-47.446-73.575-110.528-73.575-177.627
			c0-67.099,26.13-130.182,73.576-177.628c47.446-47.446,110.528-73.576,177.627-73.576c67.1,0,130.183,26.13,177.628,73.576
			c47.446,47.446,73.576,110.529,73.576,177.628s-26.13,130.182-73.575,177.627C711.85,742.993,648.768,769.123,581.668,769.123z
			 M581.667,268.717c-137.411,0-249.203,111.792-249.203,249.204c0,137.41,111.792,249.202,249.204,249.202
			c137.411,0,249.203-111.792,249.203-249.203C830.872,380.509,719.08,268.717,581.667,268.717z"/>
		<rect x="380.503" y="317.757" fill="#FFFFFF" width="2" height="400.327"/>
		<rect x="780.842" y="317.757" fill="#FFFFFF" width="2" height="400.327"/>
		<rect x="381.503" y="316.757" fill="#FFFFFF" width="400.339" height="2"/>
		<rect x="381.503" y="717.084" fill="#FFFFFF" width="400.339" height="2"/>
		<rect x="381.503" y="416.838" fill="#FFFFFF" width="400.339" height="2"/>
		
			<rect x="375.343" y="366.798" transform="matrix(0.9701 0.2425 -0.2425 0.9701 106.5675 -130.0912)" fill="#FFFFFF" width="412.66" height="2"/>
		
			<rect x="580.673" y="161.468" transform="matrix(0.2427 0.9701 -0.9701 0.2427 797.3353 -285.7377)" fill="#FFFFFF" width="2" height="412.66"/>
		<path fill="#FFFFFF" d="M481.585,518.92c-55.737,0-101.082-45.345-101.082-101.082c0-55.737,45.345-101.082,101.082-101.082
			s101.082,45.345,101.082,101.082C582.667,473.575,537.322,518.92,481.585,518.92z M481.585,318.756
			c-54.634,0-99.082,44.448-99.082,99.082s44.448,99.082,99.082,99.082s99.082-44.448,99.082-99.082
			S536.219,318.756,481.585,318.756z"/>
		<path fill="#FFFFFF" d="M681.76,518.92c-55.737,0-101.082-45.345-101.082-101.082c0-55.737,45.345-101.082,101.082-101.082
			c55.736,0,101.082,45.345,101.082,101.082C782.842,473.575,737.497,518.92,681.76,518.92z M681.76,318.756
			c-54.634,0-99.082,44.448-99.082,99.082s44.448,99.082,99.082,99.082s99.082-44.448,99.082-99.082S736.394,318.756,681.76,318.756
			z"/>
		<path fill="#FFFFFF" d="M481.585,719.084c-55.737,0-101.082-45.346-101.082-101.082S425.849,516.92,481.585,516.92
			s101.082,45.345,101.082,101.082S537.322,719.084,481.585,719.084z M481.585,518.92c-54.634,0-99.082,44.448-99.082,99.082
			s44.448,99.082,99.082,99.082s99.082-44.448,99.082-99.082S536.219,518.92,481.585,518.92z"/>
		<path fill="#FFFFFF" d="M681.76,719.084c-55.737,0-101.082-45.346-101.082-101.082S626.023,516.92,681.76,516.92
			c55.736,0,101.082,45.345,101.082,101.082S737.497,719.084,681.76,719.084z M681.76,518.92c-54.634,0-99.082,44.448-99.082,99.082
			s44.448,99.082,99.082,99.082s99.082-44.448,99.082-99.082S736.394,518.92,681.76,518.92z"/>
		<path fill="#FFFFFF" d="M581.679,368.796c-28.144,0-51.04-22.896-51.04-51.04s22.896-51.04,51.04-51.04
			c28.143,0,51.039,22.896,51.039,51.04S609.822,368.796,581.679,368.796z M581.679,268.717c-27.041,0-49.04,21.999-49.04,49.04
			s22,49.04,49.04,49.04c27.04,0,49.039-21.999,49.039-49.04S608.719,268.717,581.679,268.717z"/>
	</g>
</g>
</svg>
