<?xml version="1.0" encoding="utf-8"?>
<!-- Generator: Adobe Illustrator 16.0.0, SVG Export Plug-In . SVG Version: 6.00 Build 0)  -->
<!DOCTYPE svg PUBLIC "-//W3C//DTD SVG 1.1//EN" "http://www.w3.org/Graphics/SVG/1.1/DTD/svg11.dtd">
<svg version="1.1" id="A_detailTriquetra" xmlns="http://www.w3.org/2000/svg" xmlns:xlink="http://www.w3.org/1999/xlink"
	 x="0px" y="0px" width="1186px" height="791.064px" viewBox="0 0 1186 791.064" enable-background="new 0 0 1186 791.064"
	 xml:space="preserve">
<g id="A_SVGGroupSteps">
	<g id="A_SVGStep13">
		<rect x="477.9" y="137.418" width="2" height="492.286"/>
		<g id="A_text_12_" enable-background="new    ">
			<path d="M475.198,643.685h-12.869v7.179h11.058v3.008h-11.058v12.254h-3.384v-25.447h16.252L475.198,643.685
				L475.198,643.685z"/>
			<path d="M475.711,126.79h-16.766v-25.447h16.766v3.008h-13.382v6.973h13.382v3.008h-13.382v9.451h13.382V126.79z"/>
		</g>
	</g>
	<g id="A_SVGStep12">
		
			<rect x="691.121" y="260.402" transform="matrix(-0.4999 -0.8661 0.8661 -0.4999 599.3507 1359.3273)" width="2" height="492.451"/>
		<g id="A_text_11_" enable-background="new    ">
			<path d="M943.778,383.427c0,2.313-0.504,4.408-1.513,6.289c-1.008,1.879-2.351,3.338-4.024,4.375
				c-1.162,0.717-2.458,1.236-3.888,1.555s-3.313,0.479-5.648,0.479h-6.426v-25.447h6.357c2.482,0,4.457,0.18,5.922,0.539
				c1.463,0.358,2.703,0.852,3.717,1.479c1.731,1.082,3.082,2.523,4.051,4.323C943.294,378.818,943.778,380.954,943.778,383.427z
				 M940.24,383.375c0-1.993-0.348-3.675-1.042-5.042s-1.73-2.443-3.109-3.229c-1.003-0.569-2.068-0.966-3.195-1.188
				c-1.129-0.223-2.479-0.333-4.051-0.333h-3.18v19.636h3.18c1.629,0,3.051-0.12,4.264-0.358c1.214-0.24,2.327-0.684,3.342-1.334
				c1.264-0.809,2.213-1.873,2.845-3.195C939.925,387.01,940.24,385.357,940.24,383.375z"/>
			<path d="M475.198,643.685h-12.869v7.179h11.058v3.008h-11.058v12.254h-3.384v-25.447h16.252L475.198,643.685
				L475.198,643.685z"/>
		</g>
	</g>
	<g id="A_SVGStep11">
		
			<rect x="445.929" y="259.459" transform="matrix(-0.8661 -0.4998 0.4998 -0.8661 1161.4188 831.9877)" width="492.397" height="2"/>
		<g id="A_text_10_" enable-background="new    ">
			<path d="M475.711,126.79h-16.766v-25.447h16.766v3.008h-13.382v6.973h13.382v3.008h-13.382v9.451h13.382V126.79z"/>
			<path d="M943.778,383.427c0,2.313-0.504,4.408-1.513,6.289c-1.008,1.879-2.351,3.338-4.024,4.375
				c-1.162,0.717-2.458,1.236-3.888,1.555s-3.313,0.479-5.648,0.479h-6.426v-25.447h6.357c2.482,0,4.457,0.18,5.922,0.539
				c1.463,0.358,2.703,0.852,3.717,1.479c1.731,1.082,3.082,2.523,4.051,4.323C943.294,378.818,943.778,380.954,943.778,383.427z
				 M940.24,383.375c0-1.993-0.348-3.675-1.042-5.042s-1.73-2.443-3.109-3.229c-1.003-0.569-2.068-0.966-3.195-1.188
				c-1.129-0.223-2.479-0.333-4.051-0.333h-3.18v19.636h3.18c1.629,0,3.051-0.12,4.264-0.358c1.214-0.24,2.327-0.684,3.342-1.334
				c1.264-0.809,2.213-1.873,2.845-3.195C939.925,387.01,940.24,385.357,940.24,383.375z"/>
		</g>
	</g>
	<g id="A_SVGStep10">
		<path d="M484.9,629.704c0,3.313-2.688,6-6,6l0,0c-3.313,0-6-2.688-6-6l0,0c0-3.314,2.688-6,6-6l0,0
			C482.212,623.704,484.9,626.39,484.9,629.704L484.9,629.704z"/>
		<g id="A_text_5_" enable-background="new    ">
			<path d="M475.198,643.685h-12.869v7.179h11.058v3.008h-11.058v12.254h-3.384v-25.447h16.252L475.198,643.685
				L475.198,643.685z"/>
		</g>
	</g>
	<g id="A_SVGStep9">
		<path d="M484.9,137.418c0,3.313-2.688,6-6,6l0,0c-3.313,0-6-2.688-6-6l0,0c0-3.314,2.688-6,6-6l0,0
			C482.212,131.418,484.9,134.104,484.9,137.418L484.9,137.418z"/>
		<g id="A_text_4_" enable-background="new    ">
			<path d="M475.711,126.79h-16.766v-25.447h16.766v3.008h-13.382v6.973h13.382v3.008h-13.382v9.451h13.382V126.79z"/>
		</g>
	</g>
	<g id="A_SVGStep8">
		<path d="M478.9,630.704c-66.014,0-128.077-25.707-174.756-72.387s-72.386-108.742-72.386-174.756
			s25.708-128.077,72.386-174.756c46.679-46.679,108.742-72.387,174.756-72.387c66.015,0,128.078,25.708,174.757,72.387
			c46.68,46.679,72.388,108.742,72.388,174.756s-25.708,128.078-72.388,174.756C606.979,604.997,544.914,630.704,478.9,630.704z
			 M478.9,138.418c-135.172,0-245.143,109.971-245.143,245.143c0,135.172,109.972,245.143,245.143,245.143
			c135.173,0,245.145-109.971,245.145-245.143C724.044,248.389,614.073,138.418,478.9,138.418z"/>
		<g id="A_text_9_" enable-background="new    ">
			<path d="M714.758,240.63c0,1.265-0.238,2.382-0.717,3.35c-0.479,0.969-1.123,1.767-1.933,2.393
				c-0.957,0.752-2.008,1.288-3.153,1.606c-1.145,0.319-2.601,0.479-4.365,0.479h-9.023V223.01h7.537
				c1.855,0,3.246,0.068,4.17,0.205c0.922,0.137,1.805,0.422,2.648,0.855c0.934,0.489,1.61,1.119,2.032,1.888
				c0.423,0.77,0.634,1.689,0.634,2.761c0,1.207-0.309,2.235-0.924,3.084c-0.614,0.85-1.436,1.529-2.461,2.043v0.137
				c1.721,0.353,3.076,1.107,4.067,2.264C714.263,237.403,714.758,238.864,714.758,240.63z M709.067,229.162
				c0-0.615-0.103-1.133-0.308-1.555c-0.205-0.421-0.535-0.763-0.991-1.025c-0.536-0.308-1.186-0.498-1.948-0.572
				c-0.763-0.074-1.709-0.111-2.837-0.111h-4.033v7.349h4.375c1.061,0,1.902-0.054,2.529-0.162c0.626-0.108,1.208-0.333,1.743-0.675
				c0.535-0.342,0.914-0.783,1.137-1.325C708.955,230.544,709.067,229.903,709.067,229.162z M711.238,240.767
				c0-1.025-0.153-1.84-0.462-2.444c-0.308-0.604-0.866-1.116-1.675-1.537c-0.547-0.285-1.211-0.471-1.991-0.556
				c-0.78-0.086-1.729-0.128-2.845-0.128h-5.315v9.467h4.479c1.479,0,2.693-0.076,3.641-0.23c0.945-0.153,1.72-0.436,2.324-0.846
				c0.637-0.444,1.104-0.951,1.4-1.521C711.09,242.401,711.238,241.667,711.238,240.767z"/>
			<path d="M462.267,394.278c-0.627,0.273-1.194,0.529-1.7,0.77c-0.507,0.238-1.171,0.489-1.991,0.752
				c-0.694,0.216-1.45,0.401-2.265,0.555c-0.814,0.154-1.712,0.23-2.691,0.23c-1.846,0-3.522-0.259-5.032-0.777
				c-1.511-0.518-2.823-1.33-3.939-2.436c-1.094-1.082-1.948-2.457-2.563-4.127c-0.615-1.669-0.924-3.608-0.924-5.818
				c0-2.097,0.296-3.971,0.89-5.623c0.592-1.651,1.446-3.048,2.563-4.188c1.082-1.104,2.391-1.947,3.922-2.529
				c1.532-0.58,3.232-0.871,5.102-0.871c1.367,0,2.73,0.165,4.093,0.496c1.361,0.33,2.874,0.911,4.537,1.742v4.017h-0.256
				c-1.401-1.173-2.792-2.027-4.17-2.563c-1.379-0.535-2.854-0.803-4.427-0.803c-1.287,0-2.446,0.208-3.478,0.623
				c-1.032,0.416-1.952,1.063-2.76,1.939c-0.786,0.855-1.399,1.935-1.837,3.239c-0.438,1.304-0.658,2.812-0.658,4.521
				c0,1.788,0.242,3.326,0.726,4.613c0.484,1.288,1.108,2.336,1.872,3.145c0.797,0.844,1.729,1.468,2.794,1.872
				c1.065,0.404,2.19,0.606,3.375,0.606c1.629,0,3.156-0.279,4.58-0.838c1.424-0.558,2.757-1.395,3.999-2.512h0.239V394.278
				L462.267,394.278z"/>
		</g>
	</g>
	<g id="A_SVGStep7">
		
			<rect x="462.433" y="444.103" transform="matrix(-0.8661 -0.4999 0.4999 -0.8661 870.1379 1123.3004)" width="246.185" height="2"/>
		<g id="A_text_8_" enable-background="new    ">
			<path d="M462.267,394.278c-0.627,0.273-1.194,0.529-1.7,0.77c-0.507,0.238-1.171,0.489-1.991,0.752
				c-0.694,0.216-1.45,0.401-2.265,0.555c-0.814,0.154-1.712,0.23-2.691,0.23c-1.846,0-3.522-0.259-5.032-0.777
				c-1.511-0.518-2.823-1.33-3.939-2.436c-1.094-1.082-1.948-2.457-2.563-4.127c-0.615-1.669-0.924-3.608-0.924-5.818
				c0-2.097,0.296-3.971,0.89-5.623c0.592-1.651,1.446-3.048,2.563-4.188c1.082-1.104,2.391-1.947,3.922-2.529
				c1.532-0.58,3.232-0.871,5.102-0.871c1.367,0,2.73,0.165,4.093,0.496c1.361,0.33,2.874,0.911,4.537,1.742v4.017h-0.256
				c-1.401-1.173-2.792-2.027-4.17-2.563c-1.379-0.535-2.854-0.803-4.427-0.803c-1.287,0-2.446,0.208-3.478,0.623
				c-1.032,0.416-1.952,1.063-2.76,1.939c-0.786,0.855-1.399,1.935-1.837,3.239c-0.438,1.304-0.658,2.812-0.658,4.521
				c0,1.788,0.242,3.326,0.726,4.613c0.484,1.288,1.108,2.336,1.872,3.145c0.797,0.844,1.729,1.468,2.794,1.872
				c1.065,0.404,2.19,0.606,3.375,0.606c1.629,0,3.156-0.279,4.58-0.838c1.424-0.558,2.757-1.395,3.999-2.512h0.239V394.278
				L462.267,394.278z"/>
			<path d="M715.597,540.791h-3.606l-2.494-7.092H698.49l-2.496,7.092h-3.435l9.263-25.447h4.513L715.597,540.791z
				 M708.452,530.793l-4.461-12.492l-4.477,12.492H708.452z"/>
		</g>
	</g>
	<g id="A_SVGStep6">
		
			<rect x="584.487" y="198.943" transform="matrix(-0.5 -0.866 0.866 -0.5 599.3568 990.1022)" width="2" height="246.188"/>
		<g id="A_text_7_" enable-background="new    ">
			<path d="M714.758,240.63c0,1.265-0.238,2.382-0.717,3.35c-0.479,0.969-1.123,1.767-1.933,2.393
				c-0.957,0.752-2.008,1.288-3.153,1.606c-1.145,0.319-2.601,0.479-4.365,0.479h-9.023V223.01h7.537
				c1.855,0,3.246,0.068,4.17,0.205c0.922,0.137,1.805,0.422,2.648,0.855c0.934,0.489,1.61,1.119,2.032,1.888
				c0.423,0.77,0.634,1.689,0.634,2.761c0,1.207-0.309,2.235-0.924,3.084c-0.614,0.85-1.436,1.529-2.461,2.043v0.137
				c1.721,0.353,3.076,1.107,4.067,2.264C714.263,237.403,714.758,238.864,714.758,240.63z M709.067,229.162
				c0-0.615-0.103-1.133-0.308-1.555c-0.205-0.421-0.535-0.763-0.991-1.025c-0.536-0.308-1.186-0.498-1.948-0.572
				c-0.763-0.074-1.709-0.111-2.837-0.111h-4.033v7.349h4.375c1.061,0,1.902-0.054,2.529-0.162c0.626-0.108,1.208-0.333,1.743-0.675
				c0.535-0.342,0.914-0.783,1.137-1.325C708.955,230.544,709.067,229.903,709.067,229.162z M711.238,240.767
				c0-1.025-0.153-1.84-0.462-2.444c-0.308-0.604-0.866-1.116-1.675-1.537c-0.547-0.285-1.211-0.471-1.991-0.556
				c-0.78-0.086-1.729-0.128-2.845-0.128h-5.315v9.467h4.479c1.479,0,2.693-0.076,3.641-0.23c0.945-0.153,1.72-0.436,2.324-0.846
				c0.637-0.444,1.104-0.951,1.4-1.521C711.09,242.401,711.238,241.667,711.238,240.767z"/>
			<path d="M462.267,394.278c-0.627,0.273-1.194,0.529-1.7,0.77c-0.507,0.238-1.171,0.489-1.991,0.752
				c-0.694,0.216-1.45,0.401-2.265,0.555c-0.814,0.154-1.712,0.23-2.691,0.23c-1.846,0-3.522-0.259-5.032-0.777
				c-1.511-0.518-2.823-1.33-3.939-2.436c-1.094-1.082-1.948-2.457-2.563-4.127c-0.615-1.669-0.924-3.608-0.924-5.818
				c0-2.097,0.296-3.971,0.89-5.623c0.592-1.651,1.446-3.048,2.563-4.188c1.082-1.104,2.391-1.947,3.922-2.529
				c1.532-0.58,3.232-0.871,5.102-0.871c1.367,0,2.73,0.165,4.093,0.496c1.361,0.33,2.874,0.911,4.537,1.742v4.017h-0.256
				c-1.401-1.173-2.792-2.027-4.17-2.563c-1.379-0.535-2.854-0.803-4.427-0.803c-1.287,0-2.446,0.208-3.478,0.623
				c-1.032,0.416-1.952,1.063-2.76,1.939c-0.786,0.855-1.399,1.935-1.837,3.239c-0.438,1.304-0.658,2.812-0.658,4.521
				c0,1.788,0.242,3.326,0.726,4.613c0.484,1.288,1.108,2.336,1.872,3.145c0.797,0.844,1.729,1.468,2.794,1.872
				c1.065,0.404,2.19,0.606,3.375,0.606c1.629,0,3.156-0.279,4.58-0.838c1.424-0.558,2.757-1.395,3.999-2.512h0.239V394.278
				L462.267,394.278z"/>
		</g>
	</g>
	<g id="A_SVGStep5">
		<path d="M911.398,383.532c0,3.313-2.688,6-6,6l0,0c-3.313,0-6-2.688-6-6l0,0c0-3.314,2.688-6,6-6l0,0
			C908.711,377.532,911.398,380.218,911.398,383.532L911.398,383.532z"/>
		<g id="A_text_3_" enable-background="new    ">
			<path d="M943.778,383.427c0,2.313-0.504,4.408-1.513,6.289c-1.008,1.879-2.351,3.338-4.024,4.375
				c-1.162,0.717-2.458,1.236-3.888,1.555s-3.313,0.479-5.648,0.479h-6.426v-25.447h6.357c2.482,0,4.457,0.18,5.922,0.539
				c1.463,0.358,2.703,0.852,3.717,1.479c1.731,1.082,3.082,2.523,4.051,4.323C943.294,378.818,943.778,380.954,943.778,383.427z
				 M940.24,383.375c0-1.993-0.348-3.675-1.042-5.042s-1.73-2.443-3.109-3.229c-1.003-0.569-2.068-0.966-3.195-1.188
				c-1.129-0.223-2.479-0.333-4.051-0.333h-3.18v19.636h3.18c1.629,0,3.051-0.12,4.264-0.358c1.214-0.24,2.327-0.684,3.342-1.334
				c1.264-0.809,2.213-1.873,2.845-3.195C939.925,387.01,940.24,385.357,940.24,383.375z"/>
		</g>
	</g>
	<g id="A_SVGStep4">
		<g id="A_text_2_" enable-background="new    ">
			<path d="M462.267,394.278c-0.627,0.273-1.194,0.529-1.7,0.77c-0.507,0.238-1.171,0.489-1.991,0.752
				c-0.694,0.216-1.45,0.401-2.265,0.555c-0.814,0.154-1.712,0.23-2.691,0.23c-1.846,0-3.522-0.259-5.032-0.777
				c-1.511-0.518-2.823-1.33-3.939-2.436c-1.094-1.082-1.948-2.457-2.563-4.127c-0.615-1.669-0.924-3.608-0.924-5.818
				c0-2.097,0.296-3.971,0.89-5.623c0.592-1.651,1.446-3.048,2.563-4.188c1.082-1.104,2.391-1.947,3.922-2.529
				c1.532-0.58,3.232-0.871,5.102-0.871c1.367,0,2.73,0.165,4.093,0.496c1.361,0.33,2.874,0.911,4.537,1.742v4.017h-0.256
				c-1.401-1.173-2.792-2.027-4.17-2.563c-1.379-0.535-2.854-0.803-4.427-0.803c-1.287,0-2.446,0.208-3.478,0.623
				c-1.032,0.416-1.952,1.063-2.76,1.939c-0.786,0.855-1.399,1.935-1.837,3.239c-0.438,1.304-0.658,2.812-0.658,4.521
				c0,1.788,0.242,3.326,0.726,4.613c0.484,1.288,1.108,2.336,1.872,3.145c0.797,0.844,1.729,1.468,2.794,1.872
				c1.065,0.404,2.19,0.606,3.375,0.606c1.629,0,3.156-0.279,4.58-0.838c1.424-0.558,2.757-1.395,3.999-2.512h0.239V394.278
				L462.267,394.278z"/>
		</g>
		<path d="M484.901,383.561c0,3.313-2.688,6-6,6l0,0c-3.313,0-6-2.689-6-6l0,0c0-3.314,2.688-6,6-6l0,0
			C482.213,377.561,484.901,380.247,484.901,383.561L484.901,383.561z"/>
	</g>
	<g id="A_SVGStep3">
		<path d="M692.114,507.634c-66.015,0-128.078-25.707-174.757-72.387c-46.679-46.679-72.387-108.742-72.387-174.757
			c0-66.015,25.708-128.078,72.387-174.757S626.1,13.346,692.114,13.346c66.015,0,128.078,25.708,174.758,72.387
			c46.681,46.679,72.388,108.743,72.388,174.757c0,66.014-25.707,128.078-72.388,174.757
			C820.192,481.927,758.129,507.634,692.114,507.634z M692.114,15.346c-135.173,0-245.144,109.971-245.144,245.144
			c0,135.173,109.971,245.144,245.144,245.144S937.259,395.663,937.259,260.49C937.259,125.317,827.286,15.346,692.114,15.346z"/>
		<g id="A_text_6_" enable-background="new    ">
			<path d="M714.758,240.63c0,1.265-0.238,2.382-0.717,3.35c-0.479,0.969-1.123,1.767-1.933,2.393
				c-0.957,0.752-2.008,1.288-3.153,1.606c-1.145,0.319-2.601,0.479-4.365,0.479h-9.023V223.01h7.537
				c1.855,0,3.246,0.068,4.17,0.205c0.922,0.137,1.805,0.422,2.648,0.855c0.934,0.489,1.61,1.119,2.032,1.888
				c0.423,0.77,0.634,1.689,0.634,2.761c0,1.207-0.309,2.235-0.924,3.084c-0.614,0.85-1.436,1.529-2.461,2.043v0.137
				c1.721,0.353,3.076,1.107,4.067,2.264C714.263,237.403,714.758,238.864,714.758,240.63z M709.067,229.162
				c0-0.615-0.103-1.133-0.308-1.555c-0.205-0.421-0.535-0.763-0.991-1.025c-0.536-0.308-1.186-0.498-1.948-0.572
				c-0.763-0.074-1.709-0.111-2.837-0.111h-4.033v7.349h4.375c1.061,0,1.902-0.054,2.529-0.162c0.626-0.108,1.208-0.333,1.743-0.675
				c0.535-0.342,0.914-0.783,1.137-1.325C708.955,230.544,709.067,229.903,709.067,229.162z M711.238,240.767
				c0-1.025-0.153-1.84-0.462-2.444c-0.308-0.604-0.866-1.116-1.675-1.537c-0.547-0.285-1.211-0.471-1.991-0.556
				c-0.78-0.086-1.729-0.128-2.845-0.128h-5.315v9.467h4.479c1.479,0,2.693-0.076,3.641-0.23c0.945-0.153,1.72-0.436,2.324-0.846
				c0.637-0.444,1.104-0.951,1.4-1.521C711.09,242.401,711.238,241.667,711.238,240.767z"/>
			<path d="M715.597,540.791h-3.606l-2.494-7.092H698.49l-2.496,7.092h-3.435l9.263-25.447h4.513L715.597,540.791z
				 M708.452,530.793l-4.461-12.492l-4.477,12.492H708.452z"/>
		</g>
	</g>
	<g id="A_SVGStep2">
		<path d="M698.115,260.49c0,3.313-2.688,6-6,6l0,0c-3.313,0-6-2.688-6-6l0,0c0-3.314,2.688-6,6-6l0,0
			C695.429,254.49,698.115,257.176,698.115,260.49L698.115,260.49z"/>
		<g id="A_text" enable-background="new    ">
			<path d="M714.758,240.63c0,1.265-0.238,2.382-0.717,3.35c-0.479,0.969-1.123,1.767-1.933,2.393
				c-0.957,0.752-2.008,1.288-3.153,1.606c-1.145,0.319-2.601,0.479-4.365,0.479h-9.023V223.01h7.537
				c1.855,0,3.246,0.068,4.17,0.205c0.922,0.137,1.805,0.422,2.648,0.855c0.934,0.489,1.61,1.119,2.032,1.888
				c0.423,0.77,0.634,1.689,0.634,2.761c0,1.207-0.309,2.235-0.924,3.084c-0.614,0.85-1.436,1.529-2.461,2.043v0.137
				c1.721,0.353,3.076,1.107,4.067,2.264C714.263,237.403,714.758,238.864,714.758,240.63z M709.067,229.162
				c0-0.615-0.103-1.133-0.308-1.555c-0.205-0.421-0.535-0.763-0.991-1.025c-0.536-0.308-1.186-0.498-1.948-0.572
				c-0.763-0.074-1.709-0.111-2.837-0.111h-4.033v7.349h4.375c1.061,0,1.902-0.054,2.529-0.162c0.626-0.108,1.208-0.333,1.743-0.675
				c0.535-0.342,0.914-0.783,1.137-1.325C708.955,230.544,709.067,229.903,709.067,229.162z M711.238,240.767
				c0-1.025-0.153-1.84-0.462-2.444c-0.308-0.604-0.866-1.116-1.675-1.537c-0.547-0.285-1.211-0.471-1.991-0.556
				c-0.78-0.086-1.729-0.128-2.845-0.128h-5.315v9.467h4.479c1.479,0,2.693-0.076,3.641-0.23c0.945-0.153,1.72-0.436,2.324-0.846
				c0.637-0.444,1.104-0.951,1.4-1.521C711.09,242.401,711.238,241.667,711.238,240.767z"/>
			<path d="M715.597,540.791h-3.606l-2.494-7.092H698.49l-2.496,7.092h-3.435l9.263-25.447h4.513L715.597,540.791z
				 M708.452,530.793l-4.461-12.492l-4.477,12.492H708.452z"/>
		</g>
		<rect x="691.114" y="260.49" width="2" height="246.143"/>
	</g>
	<g id="A_SVGStep1">
		<path d="M692.114,753.776c-66.015,0-128.077-25.707-174.756-72.388c-46.679-46.68-72.387-108.742-72.387-174.757
			s25.708-128.077,72.387-174.756s108.741-72.386,174.756-72.386c66.016,0,128.078,25.708,174.757,72.386
			c46.681,46.679,72.388,108.742,72.388,174.756S913.551,634.71,866.87,681.389C820.192,728.069,758.129,753.776,692.114,753.776z
			 M692.114,261.49c-135.172,0-245.143,109.971-245.143,245.143c0,135.173,109.971,245.145,245.143,245.145
			c135.173,0,245.145-109.972,245.145-245.145C937.258,371.461,827.286,261.49,692.114,261.49z"/>
		<g id="A_text" enable-background="new    ">
			<path d="M715.597,540.791h-3.606l-2.494-7.092H698.49l-2.496,7.092h-3.435l9.263-25.447h4.513L715.597,540.791z
				 M708.452,530.793l-4.461-12.492l-4.477,12.492H708.452z"/>
		</g>
		<path d="M698.115,506.633c0,3.313-2.688,6-6,6l0,0c-3.313,0-6-2.688-6-6l0,0c0-3.313,2.688-6,6-6l0,0
			C695.428,500.633,698.115,503.318,698.115,506.633L698.115,506.633z"/>
	</g>
</g>
</svg>
