<?xml version="1.0" encoding="utf-8"?>
<!-- Generator: Adobe Illustrator 16.0.0, SVG Export Plug-In . SVG Version: 6.00 Build 0)  -->
<!DOCTYPE svg PUBLIC "-//W3C//DTD SVG 1.1//EN" "http://www.w3.org/Graphics/SVG/1.1/DTD/svg11.dtd">
<svg version="1.1" id="A_detailUnsealedFOL" xmlns="http://www.w3.org/2000/svg"
	xmlns:xlink="http://www.w3.org/1999/xlink" x="0px" y="0px" width="3717px" height="2478px" viewBox="0 0 3717 2478"
	enable-background="new 0 0 3717 2478" xml:space="preserve">
<g id="A_SVGGroupSteps">
	<g id="completedFOL">
		<g id="rotation10_">
			<path fill="none" stroke="#FFFFFF" stroke-miterlimit="10" d="M2101.455,1482.085c0,134.324-108.822,243.051-243.02,243.051
				c-134.484,0-243.211-108.727-243.211-243.051c0-134.326,108.535-243.102,243.211-243.102
				C1992.601,1238.983,2101.455,1347.727,2101.455,1482.085z" />
			<path fill="none" stroke="#FFFFFF" stroke-miterlimit="10" d="M2312.127,1360.558c0,134.261-108.919,243.053-243.053,243.053
				c-134.292,0-243.211-108.792-243.211-243.053c0-134.325,108.919-243.1,243.211-243.1
				C2203.208,1117.458,2312.127,1226.232,2312.127,1360.558z" />
			<path fill="none" stroke="#FFFFFF" stroke-miterlimit="10" d="M2312.063,1117.522c0,134.244-108.854,243.035-243.021,243.035
				c-134.292,0-243.243-108.759-243.243-243.035c0-134.405,108.951-243.181,243.243-243.181
				C2203.208,874.342,2312.063,983.117,2312.063,1117.522z" />
			<path fill="none" stroke="#FFFFFF" stroke-miterlimit="10" d="M2101.455,995.9c0,134.309-108.822,243.052-243.02,243.052
				c-134.484,0-243.211-108.743-243.211-243.052c0-134.277,108.535-243.116,243.211-243.116
				C1992.601,752.815,2101.455,861.591,2101.455,995.9z" />
			<path fill="none" stroke="#FFFFFF" stroke-miterlimit="10" d="M1890.945,1117.522c0,134.244-108.918,243.035-243.051,243.035
				c-134.485,0-243.725-108.759-243.725-243.035c0-134.405,108.855-243.181,243.725-243.181
				C1782.027,874.342,1890.945,983.117,1890.945,1117.522z" />
			<path fill="none" stroke="#FFFFFF" stroke-miterlimit="10" d="M1890.945,1360.558c0,134.261-108.918,243.053-243.051,243.053
				c-134.485,0-243.725-108.792-243.725-243.053c0-134.325,108.855-243.1,243.725-243.1
				C1782.027,1117.458,1890.945,1226.232,1890.945,1360.558z" />
		</g>
		<g id="rotation_2_8_">
			<path fill="none" stroke="#FFFFFF" stroke-miterlimit="10" d="M1890.945,874.342c0,134.373-108.918,243.116-243.051,243.116
				c-134.485,0-243.725-108.743-243.725-243.116c0-134.276,108.855-243.052,243.725-243.052
				C1782.027,631.258,1890.945,740.001,1890.945,874.342z" />
			<path fill="none" stroke="#FFFFFF" stroke-miterlimit="10" d="M1680.371,1238.983c0,134.373-108.535,243.037-243.021,243.037
				c-134.452,0-243.211-108.664-243.211-243.037c0-134.276,108.759-243.051,243.211-243.051
				C1571.516,995.9,1680.371,1104.707,1680.371,1238.983z" />
			<path fill="none" stroke="#FFFFFF" stroke-miterlimit="10" d="M1890.945,1603.674c0,134.229-108.918,242.987-243.051,242.987
				c-134.485,0-243.725-108.727-243.725-242.987c0-134.324,108.855-243.116,243.725-243.116
				C1782.027,1360.494,1890.945,1469.35,1890.945,1603.674z" />
			<path fill="none" stroke="#FFFFFF" stroke-miterlimit="10" d="M2312.127,1603.674c0,134.229-108.919,242.987-243.053,242.987
				c-134.292,0-243.211-108.727-243.211-242.987c0-134.324,108.919-243.116,243.211-243.116
				C2203.208,1360.494,2312.127,1469.35,2312.127,1603.674z" />
			<path fill="none" stroke="#FFFFFF" stroke-miterlimit="10" d="M2522.67,1238.983c0,134.373-108.536,243.037-243.021,243.037
				c-134.325,0-243.181-108.664-243.181-243.037c0-134.276,108.855-243.051,243.181-243.051
				C2413.846,995.9,2522.67,1104.707,2522.67,1238.983z" />
			<path fill="none" stroke="#FFFFFF" stroke-miterlimit="10" d="M2312.063,874.342c0,134.373-108.854,243.116-243.021,243.116
				c-134.292,0-243.243-108.743-243.243-243.116c0-134.276,108.951-243.052,243.243-243.052
				C2203.208,631.258,2312.063,740.001,2312.063,874.342z" />
		</g>
		<g id="rotation_4_8_">
			<path fill="none" stroke="#FFFFFF" stroke-miterlimit="10" d="M1890.945,631.258c0,134.31-108.918,243.053-243.051,243.053
				c-134.485,0-243.725-108.743-243.725-243.053c0-134.34,108.855-243.115,243.725-243.115
				C1782.027,388.143,1890.945,496.949,1890.945,631.258z" />
			<path fill="none" stroke="#FFFFFF" stroke-miterlimit="10" d="M1680.307,752.88c0,134.245-108.535,243.053-243.02,243.053
				c-134.421,0-243.18-108.808-243.18-243.053c0-134.341,108.759-243.115,243.18-243.115
				C1571.516,509.765,1680.307,618.539,1680.307,752.88z" />
			<path fill="none" stroke="#FFFFFF" stroke-miterlimit="10" d="M1469.828,1117.522c0,134.309-108.822,243.035-243.083,243.035
				s-243.18-108.759-243.18-243.035c0-134.405,108.854-243.181,243.18-243.181
				C1361.006,874.342,1469.828,983.117,1469.828,1117.522z" />
			<path fill="none" stroke="#FFFFFF" stroke-miterlimit="10" d="M1469.828,1360.558c0,134.325-108.822,243.053-243.02,243.053
				c-134.324,0-243.243-108.792-243.243-243.053c0-134.325,108.919-243.1,243.243-243.1
				C1361.038,1117.458,1469.828,1226.232,1469.828,1360.558z" />
			<path fill="none" stroke="#FFFFFF" stroke-miterlimit="10" d="M1680.371,1725.231c0,134.293-108.535,242.956-243.021,242.956
				c-134.42,0-243.179-108.727-243.179-242.956c0-134.42,108.79-243.211,243.179-243.211
				C1571.548,1482.021,1680.371,1590.812,1680.371,1725.231z" />
			<path fill="none" stroke="#FFFFFF" stroke-miterlimit="10" d="M2312.127,1846.726c0,134.293-108.919,243.085-243.053,243.085
				c-134.292,0-243.211-108.792-243.211-243.085c0-134.261,108.919-243.115,243.211-243.115
				C2203.208,1603.61,2312.127,1712.465,2312.127,1846.726z" />
			<path fill="none" stroke="#FFFFFF" stroke-miterlimit="10" d="M2522.67,1725.231c0,134.293-108.536,243.084-242.988,243.084
				c-134.357,0-243.213-108.854-243.213-243.084c0-134.356,108.855-243.146,243.213-243.146
				C2413.846,1482.085,2522.67,1590.875,2522.67,1725.231z" />
			<path fill="none" stroke="#FFFFFF" stroke-miterlimit="10" d="M2733.275,1360.494c0,134.324-108.855,243.052-243.02,243.052
				c-134.485,0-243.724-108.728-243.724-243.052c0-134.262,108.822-243.1,243.724-243.1
				C2624.42,1117.458,2733.275,1226.232,2733.275,1360.494z" />
			<path fill="none" stroke="#FFFFFF" stroke-miterlimit="10" d="M2733.275,1117.522c0,134.244-108.855,243.035-243.02,243.035
				c-134.485,0-243.724-108.759-243.724-243.035c0-134.405,108.887-243.181,243.724-243.181
				C2624.42,874.342,2733.275,983.117,2733.275,1117.522z" />
			<path fill="none" stroke="#FFFFFF" stroke-miterlimit="10" d="M2522.67,752.88c0,134.31-108.536,243.053-243.021,243.053
				c-134.325,0-243.181-108.743-243.181-243.053c0-134.341,108.855-243.115,243.181-243.115
				C2413.846,509.7,2522.67,618.476,2522.67,752.88z" />
			<path fill="none" stroke="#FFFFFF" stroke-miterlimit="10" d="M2312.127,631.258c0,134.31-108.855,243.021-243.053,243.021
				c-134.26,0-243.147-108.68-243.147-243.021c0-134.34,108.888-243.115,243.147-243.115
				C2203.304,388.143,2312.127,496.949,2312.127,631.258z" />
			<path fill="none" stroke="#FFFFFF" stroke-miterlimit="10" d="M1891.01,1846.726c0,134.356-108.887,243.085-243.052,243.085
				c-134.485,0-243.181-108.729-243.181-243.085c0-134.261,108.536-243.115,243.181-243.115
				C1782.123,1603.61,1891.01,1712.465,1891.01,1846.726z" />
		</g>
		<g id="rotation_5_8_">
			<path fill="none" stroke="#FFFFFF" stroke-miterlimit="10" d="M2101.552,509.765c0,134.213-108.854,242.987-243.02,242.987
				c-134.484,0-243.243-108.791-243.243-242.987c0-134.405,108.534-243.18,243.243-243.18
				C1992.697,266.616,2101.552,375.359,2101.552,509.765z" />
			<path fill="none" stroke="#FFFFFF" stroke-miterlimit="10" d="M1680.371,509.765c0,134.309-108.535,243.051-243.021,243.051
				c-134.42,0-243.179-108.742-243.179-243.051c0-134.341,108.79-243.116,243.179-243.116
				C1571.548,266.616,1680.371,375.424,1680.371,509.765z" />
			<path fill="none" stroke="#FFFFFF" stroke-miterlimit="10" d="M1469.828,874.406c0,134.309-108.822,243.052-243.083,243.052
				s-243.18-108.743-243.18-243.052c0-134.341,108.854-243.116,243.18-243.116C1361.006,631.258,1469.828,740.065,1469.828,874.406
				z" />
			<path fill="none" stroke="#FFFFFF" stroke-miterlimit="10" d="M1259.351,1238.983c0,134.373-108.919,243.037-243.052,243.037
				c-134.294,0-243.181-108.664-243.181-243.037c0-134.276,108.887-243.051,243.181-243.051
				C1150.399,995.9,1259.351,1104.707,1259.351,1238.983z" />
			<path fill="none" stroke="#FFFFFF" stroke-miterlimit="10" d="M1469.828,1603.674c0,134.293-108.79,243.052-243.02,243.052
				c-134.324,0-243.18-108.759-243.18-243.052c0-134.324,108.855-243.116,243.18-243.116
				C1361.038,1360.494,1469.828,1469.35,1469.828,1603.674z" />
			<path fill="none" stroke="#FFFFFF" stroke-miterlimit="10" d="M1680.371,1968.315c0,134.196-108.535,243.053-243.021,243.053
				c-134.42,0-243.179-108.856-243.179-243.053c0-134.389,108.79-243.18,243.179-243.18
				C1571.548,1725.136,1680.371,1833.862,1680.371,1968.315z" />
			<path fill="none" stroke="#FFFFFF" stroke-miterlimit="10" d="M2101.552,1968.379c0,134.197-108.854,243.053-243.02,243.053
				c-134.484,0-243.243-108.855-243.243-243.053c0-134.389,108.534-243.147,243.243-243.147
				C1992.697,1725.231,2101.552,1833.99,2101.552,1968.379z" />
			<path fill="none" stroke="#FFFFFF" stroke-miterlimit="10" d="M2522.798,1968.379c0,134.197-108.536,243.053-243.021,243.053
				c-134.389,0-243.309-108.855-243.309-243.053c0-134.389,108.92-243.147,243.309-243.147
				C2413.878,1725.231,2522.798,1833.99,2522.798,1968.379z" />
			<path fill="none" stroke="#FFFFFF" stroke-miterlimit="10" d="M2733.34,1603.674c0,134.229-108.855,242.987-243.052,242.987
				c-134.485,0-243.148-108.727-243.148-242.987c0-134.324,108.535-243.116,243.148-243.116
				C2624.42,1360.494,2733.34,1469.35,2733.34,1603.674z" />
			<path fill="none" stroke="#FFFFFF" stroke-miterlimit="10" d="M2943.85,1239.048c0,134.309-108.887,243.037-243.051,243.037
				c-134.485,0-243.18-108.729-243.18-243.037c0-134.341,108.535-243.115,243.18-243.115
				C2834.932,995.9,2943.85,1104.787,2943.85,1239.048z" />
			<path fill="none" stroke="#FFFFFF" stroke-miterlimit="10" d="M2733.34,874.406c0,134.309-108.92,243.052-243.084,243.052
				c-134.485,0-243.724-108.743-243.724-243.052c0-134.341,108.854-243.116,243.724-243.116
				C2624.42,631.258,2733.34,740.065,2733.34,874.406z" />
			<path fill="none" stroke="#FFFFFF" stroke-miterlimit="10" d="M2522.766,509.765c0,134.213-108.536,242.987-242.988,242.987
				c-134.421,0-243.309-108.791-243.309-242.987c0-134.405,108.855-243.18,243.309-243.18
				C2413.878,266.616,2522.766,375.359,2522.766,509.765z" />
		</g>
		<g id="rotation_6_8_">
			<path fill="none" stroke="#FFFFFF" stroke-miterlimit="10" d="M1891.01,388.207c0,134.196-108.887,243.051-243.052,243.051
				c-134.485,0-243.116-108.854-243.116-243.051c0-134.342,108.535-243.116,243.116-243.116
				C1782.123,145.122,1891.01,253.865,1891.01,388.207z" />
			<path fill="none" stroke="#FFFFFF" stroke-miterlimit="10" d="M1469.828,631.258c0,134.31-108.822,243.021-243.02,243.021
				c-134.324,0-243.243-108.68-243.243-243.021c0-134.34,108.919-243.115,243.243-243.115
				C1361.038,388.143,1469.828,496.949,1469.828,631.258z" />
			<path fill="none" stroke="#FFFFFF" stroke-miterlimit="10" d="M1259.286,995.965c0,134.309-108.854,243.019-243.02,243.019
				c-134.325,0-243.212-108.742-243.212-243.019c0-134.342,108.887-243.181,243.212-243.181
				C1150.399,752.815,1259.286,861.591,1259.286,995.965z" />
			<path fill="none" stroke="#FFFFFF" stroke-miterlimit="10" d="M1259.351,1482.148c0,134.261-108.919,243.083-243.052,243.083
				c-134.294,0-243.181-108.822-243.181-243.083c0-134.39,108.887-243.165,243.181-243.165
				C1150.399,1238.983,1259.351,1347.822,1259.351,1482.148z" />
			<path fill="none" stroke="#FFFFFF" stroke-miterlimit="10" d="M1469.828,1846.726c0,134.293-108.759,243.085-243.02,243.085
				s-243.18-108.792-243.18-243.085c0-134.324,108.919-243.115,243.18-243.115
				C1361.038,1603.61,1469.828,1712.401,1469.828,1846.726z" />
			<path fill="none" stroke="#FFFFFF" stroke-miterlimit="10" d="M1891.01,2089.874c0,134.261-108.887,243.052-243.052,243.052
				c-134.485,0-243.116-108.791-243.116-243.052c0-134.357,108.535-243.148,243.116-243.148
				C1782.123,1846.726,1891.01,1955.517,1891.01,2089.874z" />
			<path fill="none" stroke="#FFFFFF" stroke-miterlimit="10" d="M2312.127,2089.874c0,134.261-108.855,243.052-243.021,243.052
				c-134.324,0-243.212-108.791-243.212-243.052c0-134.357,108.888-243.148,243.212-243.148
				C2203.304,1846.726,2312.127,1955.517,2312.127,2089.874z" />
			<path fill="none" stroke="#FFFFFF" stroke-miterlimit="10" d="M2733.34,1846.726c0,134.293-108.92,243.085-243.084,243.085
				c-134.485,0-243.724-108.792-243.724-243.085c0-134.324,108.822-243.115,243.724-243.115
				C2624.484,1603.61,2733.34,1712.401,2733.34,1846.726z" />
			<path fill="none" stroke="#FFFFFF" stroke-miterlimit="10" d="M2943.85,1482.085c0,134.324-108.887,243.051-243.02,243.051
				c-134.484,0-243.179-108.727-243.179-243.051c0-134.326,108.534-243.102,243.179-243.102
				C2834.932,1238.983,2943.85,1347.727,2943.85,1482.085z" />
			<path fill="none" stroke="#FFFFFF" stroke-miterlimit="10" d="M2943.882,995.965c0,134.309-108.854,243.019-243.02,243.019
				c-134.261,0-243.18-108.742-243.18-243.019c0-134.342,108.919-243.181,243.18-243.181
				C2834.932,752.815,2943.882,861.591,2943.882,995.965z" />
			<path fill="none" stroke="#FFFFFF" stroke-miterlimit="10"
				d="M2733.34,631.322c0,134.309-108.855,243.02-243.02,243.02
				c-134.485,0-243.181-108.679-243.181-243.02s108.535-243.18,243.181-243.18C2624.484,388.143,2733.34,497.014,2733.34,631.322z" />
			<path fill="none" stroke="#FFFFFF" stroke-miterlimit="10" d="M2312.127,388.207c0,134.196-108.759,243.051-243.021,243.051
				c-134.292,0-243.18-108.854-243.18-243.051c0-134.342,108.888-243.116,243.18-243.116
				C2203.368,145.122,2312.127,253.865,2312.127,388.207z" />
			<path fill="none" stroke="#FFFFFF" stroke-miterlimit="10" d="M2101.221,266.681c0,134.196-108.758,243.051-243.02,243.051
				c-134.292,0-243.18-108.854-243.18-243.051c0-134.342,108.888-243.116,243.18-243.116
				C1992.463,23.596,2101.221,132.339,2101.221,266.681z" />
			<path fill="none" stroke="#FFFFFF" stroke-miterlimit="10" d="M1259.366,752.817c0,134.196-108.758,243.051-243.02,243.051
				c-134.292,0-243.18-108.854-243.18-243.051c0-134.342,108.888-243.116,243.18-243.116
				C1150.608,509.732,1259.366,618.475,1259.366,752.817z" />
			<path fill="none" stroke="#FFFFFF" stroke-miterlimit="10" d="M1259.398,1725.264c0,134.197-108.758,243.051-243.02,243.051
				c-134.292,0-243.18-108.854-243.18-243.051c0-134.342,108.888-243.115,243.18-243.115
				C1150.641,1482.18,1259.398,1590.922,1259.398,1725.264z" />
			<path fill="none" stroke="#FFFFFF" stroke-miterlimit="10" d="M2943.93,1725.168c0,134.197-108.758,243.051-243.02,243.051
				c-134.293,0-243.18-108.854-243.18-243.051c0-134.342,108.887-243.115,243.18-243.115
				C2835.172,1482.084,2943.93,1590.826,2943.93,1725.168z" />
			<path fill="none" stroke="#FFFFFF" stroke-miterlimit="10" d="M2943.962,752.816c0,134.197-108.758,243.051-243.02,243.051
				c-134.293,0-243.18-108.854-243.18-243.051c0-134.342,108.887-243.115,243.18-243.115
				C2835.204,509.732,2943.962,618.475,2943.962,752.816z" />
			<path fill="none" stroke="#FFFFFF" stroke-miterlimit="10" d="M2101.521,2211.465c0,134.196-108.758,243.051-243.02,243.051
				c-134.292,0-243.18-108.854-243.18-243.051c0-134.342,108.888-243.116,243.18-243.116
				C1992.763,1968.38,2101.521,2077.123,2101.521,2211.465z" />
		</g>
	</g>
	<g id="UnsealedFOL">
		<g id="A_SVGStep1">
			<path d="M1859.038,1968.992c-98.532,0-194.116-19.298-284.1-57.357c-86.913-36.762-164.969-89.388-231.999-156.417
				c-67.03-67.03-119.656-145.085-156.417-231.998c-38.06-89.983-57.358-185.568-57.358-284.1
				c0-98.532,19.298-194.116,57.358-284.1c36.761-86.913,89.388-164.969,156.417-231.999s145.085-119.656,231.999-156.417
				c89.983-38.06,185.568-57.358,284.1-57.358c98.526,0,194.107,19.298,284.088,57.358
				c86.909,36.761,164.963,89.388,231.991,156.417c67.028,67.03,119.654,145.085,156.414,231.999
				c38.06,89.983,57.357,185.568,57.357,284.1s-19.298,194.116-57.357,284.1c-36.76,86.912-89.386,164.968-156.414,231.998
				c-67.028,67.029-145.082,119.655-231.991,156.417C2053.146,1949.694,1957.564,1968.992,1859.038,1968.992z M1859.038,512.247
				c-400.799,0-726.874,326.074-726.874,726.874c0,400.799,326.074,726.872,726.874,726.872
				c400.787,0,726.851-326.073,726.851-726.872C2585.889,838.321,2259.825,512.247,1859.038,512.247z" />
		</g>
		<g id="A_SVGStep2">
			<path d="M1858.5,997.409c-65.335,0-126.762-25.425-172.965-71.59c-46.214-46.178-71.666-107.589-71.666-172.92
				c0-65.356,25.446-126.79,71.651-172.984c46.2-46.188,107.632-71.626,172.98-71.626c65.277,0,126.655,25.438,172.828,71.626
				c46.185,46.201,71.62,107.635,71.62,172.984c0,65.316-25.433,126.721-71.613,172.905
				C1985.162,971.979,1923.781,997.409,1858.5,997.409z M1858.5,511.289c-133.236,0-241.631,108.386-241.631,241.61
				c0,133.169,108.396,241.51,241.631,241.51c133.135,0,241.448-108.341,241.448-241.51
				C2099.948,619.674,1991.635,511.289,1858.5,511.289z" />
			<path d="M1437.479,1240.5c-65.355,0-126.794-25.431-172.998-71.608c-46.207-46.181-71.654-107.592-71.654-172.922
				c0-65.361,25.442-126.795,71.64-172.984c46.197-46.189,107.64-71.626,173.012-71.626c65.263,0,126.636,25.438,172.815,71.626
				c46.196,46.206,71.637,107.64,71.637,172.984C1681.931,1130.804,1572.27,1240.5,1437.479,1240.5z M1437.479,754.359
				c-133.247,0-241.651,108.386-241.651,241.61c0,133.18,108.404,241.53,241.651,241.53c133.137,0,241.452-108.35,241.452-241.53
				C1678.931,862.745,1570.616,754.359,1437.479,754.359z" />
			<path d="M1437.518,1726.584c-65.369,0-126.813-25.431-173.012-71.607c-46.197-46.174-71.639-107.58-71.639-172.906
				c0-65.373,25.437-126.81,71.624-172.991c46.189-46.184,107.638-71.618,173.026-71.618
				c65.26,0.019,126.625,25.459,172.789,71.633c46.188,46.197,71.624,107.628,71.624,172.977
				C1681.931,1616.896,1572.288,1726.584,1437.518,1726.584z M1437.518,1240.461c-133.246,0-241.65,108.386-241.65,241.609
				c0,133.171,108.404,241.514,241.65,241.514c133.115,0,241.413-108.343,241.413-241.514
				C1678.931,1348.886,1570.633,1240.5,1437.518,1240.461z" />
			<path d="M1858.5,1969.611c-65.334,0-126.761-25.424-172.965-71.588c-46.215-46.175-71.667-107.579-71.667-172.9
				c0-65.363,25.446-126.797,71.652-172.983c46.195-46.178,107.627-71.608,172.979-71.608c65.277,0,126.659,25.437,172.838,71.623
				c46.191,46.2,71.63,107.628,71.63,172.969c0,65.319-25.437,126.724-71.623,172.9
				C1985.169,1944.188,1923.785,1969.611,1858.5,1969.611z M1858.5,1483.531c-133.236,0-241.631,108.378-241.631,241.592
				c0,133.157,108.396,241.488,241.631,241.488c133.146,0,241.468-108.331,241.468-241.488
				C2099.968,1591.909,1991.646,1483.531,1858.5,1483.531z" />
			<path d="M2279.618,1726.584c-65.336,0-126.762-25.431-172.962-71.607c-46.204-46.181-71.649-107.587-71.649-172.906
				c0-65.367,25.439-126.804,71.633-172.991c46.189-46.184,107.621-71.618,172.979-71.618
				c65.292,0.019,126.673,25.459,172.837,71.633c46.181,46.191,71.614,107.622,71.614,172.977
				c0,65.304-25.43,126.704-71.605,172.892C2406.289,1701.148,2344.904,1726.584,2279.618,1726.584z M2279.618,1240.461
				c-133.225,0-241.611,108.386-241.611,241.609c0,133.171,108.387,241.514,241.611,241.514
				c133.137,0,241.451-108.343,241.451-241.514C2521.069,1348.886,2412.755,1240.5,2279.618,1240.461z" />
			<path d="M2279.637,1240.5c-65.339,0-126.768-25.431-172.972-71.608c-46.209-46.184-71.658-107.595-71.658-172.922
				c0-65.358,25.444-126.792,71.645-172.984c46.197-46.189,107.631-71.626,172.985-71.626c65.275,0,126.647,25.438,172.812,71.626
				c46.173,46.199,71.602,107.632,71.602,172.984c0,65.321-25.423,126.73-71.586,172.914
				C2406.302,1215.066,2344.924,1240.5,2279.637,1240.5z M2279.637,754.359c-133.235,0-241.63,108.386-241.63,241.61
				c0,133.18,108.395,241.53,241.63,241.53c133.115,0,241.413-108.35,241.413-241.53
				C2521.05,862.745,2412.752,754.359,2279.637,754.359z" />
			<path d="M1647.979,1118.965c-65.353,0-126.784-25.431-172.978-71.608c-46.194-46.178-71.634-107.59-71.634-172.923
				c0-65.361,25.438-126.794,71.626-172.983c46.189-46.188,107.623-71.626,172.985-71.626c65.267,0,126.643,25.435,172.824,71.618
				c46.2,46.204,71.645,107.64,71.645,172.991C1892.447,1009.269,1782.779,1118.965,1647.979,1118.965z M1647.979,632.824
				c-133.225,0-241.612,108.386-241.612,241.609c0,133.181,108.387,241.532,241.612,241.532
				c133.146,0,241.468-108.351,241.468-241.532C1889.447,741.21,1781.125,632.824,1647.979,632.824z" />
			<path d="M1437.479,1483.551c-65.354,0-126.793-25.43-172.997-71.605c-46.207-46.178-71.654-107.583-71.654-172.905
				c0-65.363,25.442-126.8,71.64-172.995c46.198-46.196,107.642-71.637,173.012-71.637c65.264,0,126.638,25.438,172.815,71.629
				c46.196,46.208,71.637,107.648,71.637,173.002C1681.931,1373.864,1572.27,1483.551,1437.479,1483.551z M1437.479,997.409
				c-133.247,0-241.651,108.396-241.651,241.631c0,133.169,108.404,241.51,241.651,241.51
				c133.137,0,241.452-108.341,241.452-241.51C1678.931,1105.805,1570.616,997.409,1437.479,997.409z" />
			<path d="M1647.979,1848.137c-65.353,0-126.784-25.427-172.977-71.596c-46.194-46.17-71.635-107.572-71.635-172.895
				c0-65.37,25.438-126.811,71.626-173.001c46.188-46.19,107.622-71.628,172.985-71.628c65.305,0,126.673,25.434,172.841,71.616
				c46.189,46.203,71.627,107.647,71.627,173.013C1892.447,1738.459,1782.779,1848.137,1647.979,1848.137z M1648.022,1362.018
				c-133.269,0-241.655,108.395-241.655,241.629c0,133.158,108.387,241.49,241.612,241.49
				c133.146,0,241.468-108.332,241.468-241.49C1889.447,1470.412,1781.145,1362.018,1648.022,1362.018z" />
			<path d="M2069.038,1848.137c-65.349,0-126.783-25.427-172.988-71.596c-46.211-46.174-71.66-107.576-71.66-172.895
				c0-65.366,25.447-126.806,71.652-173.001c46.2-46.19,107.638-71.628,172.996-71.628c65.313,0,126.684,25.434,172.851,71.616
				c46.185,46.201,71.62,107.646,71.62,173.013C2313.509,1738.459,2203.84,1848.137,2069.038,1848.137z M2069.081,1362.018
				c-133.288,0-241.691,108.395-241.691,241.629c0,133.158,108.403,241.49,241.648,241.49
				c133.147,0,241.471-108.332,241.471-241.49C2310.509,1470.412,2202.205,1362.018,2069.081,1362.018z" />
			<path d="M2279.637,1483.551c-65.338,0-126.767-25.43-172.972-71.605c-46.209-46.181-71.658-107.586-71.658-172.905
				c0-65.359,25.443-126.796,71.645-172.995c46.198-46.196,107.632-71.637,172.985-71.637c65.276,0,126.648,25.438,172.812,71.629
				c46.173,46.202,71.602,107.642,71.602,173.002c0,65.313-25.423,126.716-71.586,172.897S2344.923,1483.551,2279.637,1483.551z
					M2279.637,997.409c-133.235,0-241.63,108.396-241.63,241.631c0,133.169,108.395,241.51,241.63,241.51
				c133.115,0,241.413-108.341,241.413-241.51C2521.05,1105.805,2412.752,997.409,2279.637,997.409z" />
			<path d="M2069.057,1118.965c-65.344,0-126.771-25.431-172.967-71.608c-46.199-46.181-71.642-107.593-71.642-172.923
				c0-65.359,25.439-126.792,71.633-172.983c46.19-46.188,107.621-71.626,172.976-71.626c65.267,0,126.641,25.435,172.816,71.618
				c46.195,46.203,71.636,107.639,71.636,172.991C2313.509,1009.269,2203.848,1118.965,2069.057,1118.965z M2069.057,632.824
				c-133.224,0-241.608,108.386-241.608,241.609c0,133.181,108.385,241.532,241.608,241.532
				c133.137,0,241.452-108.351,241.452-241.532C2310.509,741.21,2202.193,632.824,2069.057,632.824z" />
			<path d="M1858.5,1483.551c-65.331,0-126.758-25.43-172.965-71.605c-46.214-46.183-71.666-107.588-71.666-172.905
				c0-65.357,25.446-126.794,71.651-172.995c46.201-46.196,107.633-71.637,172.98-71.637c65.278,0,126.656,25.438,172.828,71.629
				c46.185,46.204,71.62,107.644,71.62,173.002c0,65.308-25.433,126.711-71.613,172.897
				C1985.159,1458.118,1923.779,1483.551,1858.5,1483.551z M1858.5,997.409c-133.236,0-241.631,108.396-241.631,241.631
				c0,133.169,108.396,241.51,241.631,241.51c133.135,0,241.448-108.341,241.448-241.51
				C2099.948,1105.805,1991.635,997.409,1858.5,997.409z" />
			<path d="M1858.5,1726.584c-65.331,0-126.758-25.431-172.965-71.607c-46.214-46.184-71.666-107.59-71.666-172.906
				c0-65.363,25.446-126.8,71.651-172.991c46.197-46.184,107.629-71.618,172.98-71.618c65.284,0.019,126.662,25.459,172.828,71.633
				c46.185,46.193,71.62,107.624,71.62,172.977C2102.948,1616.896,1993.289,1726.584,1858.5,1726.584z M1858.5,1240.461
				c-133.235,0-241.631,108.386-241.631,241.609c0,133.171,108.396,241.514,241.631,241.514
				c133.135,0,241.448-108.343,241.448-241.514C2099.948,1348.886,1991.635,1240.5,1858.5,1240.461z" />
			<path d="M2069.038,1605.066c-65.344,0-126.771-25.434-172.969-71.616c-46.198-46.183-71.641-107.591-71.641-172.913
				c0-65.359,25.439-126.79,71.633-172.976c46.189-46.183,107.621-71.617,172.977-71.617
				c134.802,0,244.471,109.724,244.471,244.593C2313.509,1495.371,2203.84,1605.066,2069.038,1605.066z M2069.038,1118.944
				c-133.224,0-241.609,108.378-241.609,241.593c0,133.18,108.386,241.529,241.609,241.529
				c133.147,0,241.471-108.35,241.471-241.529C2310.509,1227.322,2202.186,1118.944,2069.038,1118.944z" />
			<path d="M2069.057,1361.994c-65.345,0-126.772-25.428-172.967-71.598c-46.199-46.175-71.642-107.583-71.642-172.911
				c0-65.366,25.439-126.799,71.633-172.982c46.188-46.177,107.618-71.608,172.976-71.608c65.268,0,126.642,25.431,172.816,71.608
				c46.195,46.198,71.636,107.63,71.636,172.982c0,65.318-25.438,126.726-71.629,172.911
				C2195.703,1336.566,2134.327,1361.994,2069.057,1361.994z M2069.057,875.895c-133.224,0-241.608,108.377-241.608,241.59
				c0,133.168,108.385,241.509,241.608,241.509c133.137,0,241.452-108.341,241.452-241.509
				C2310.509,984.272,2202.193,875.895,2069.057,875.895z" />
			<path d="M1858.5,1240.5c-65.332,0-126.759-25.431-172.965-71.608c-46.214-46.186-71.666-107.597-71.666-172.922
				c0-65.356,25.446-126.79,71.651-172.984c46.2-46.189,107.632-71.626,172.98-71.626c65.277,0,126.655,25.438,172.828,71.626
				c46.185,46.201,71.62,107.635,71.62,172.984c0,65.316-25.433,126.725-71.613,172.914
				C1985.16,1215.066,1923.779,1240.5,1858.5,1240.5z M1858.5,754.359c-133.236,0-241.631,108.386-241.631,241.61
				c0,133.18,108.396,241.53,241.631,241.53c133.135,0,241.448-108.35,241.448-241.53
				C2099.948,862.745,1991.635,754.359,1858.5,754.359z" />
			<path d="M1647.979,1361.994c-65.354,0-126.785-25.428-172.977-71.598c-46.194-46.173-71.635-107.581-71.635-172.911
				c0-65.368,25.438-126.801,71.626-172.982c46.186-46.177,107.62-71.608,172.985-71.608c65.268,0,126.645,25.431,172.824,71.608
				c46.2,46.199,71.645,107.632,71.645,172.982c0,65.319-25.438,126.727-71.63,172.911
				C1774.639,1336.566,1713.257,1361.994,1647.979,1361.994z M1647.979,875.895c-133.225,0-241.612,108.377-241.612,241.59
				c0,133.168,108.387,241.509,241.612,241.509c133.146,0,241.468-108.341,241.468-241.509
				C1889.447,984.272,1781.125,875.895,1647.979,875.895z" />
			<path d="M1647.979,1605.066c-65.35,0-126.782-25.434-172.978-71.616c-46.194-46.181-71.634-107.589-71.634-172.913
				c0-65.361,25.438-126.792,71.626-172.976c46.188-46.183,107.622-71.617,172.985-71.617c134.8,0,244.468,109.724,244.468,244.593
				C1892.447,1495.371,1782.779,1605.066,1647.979,1605.066z M1647.979,1118.944c-133.225,0-241.612,108.378-241.612,241.593
				c0,133.18,108.387,241.529,241.612,241.529c133.146,0,241.468-108.35,241.468-241.529
				C1889.447,1227.322,1781.125,1118.944,1647.979,1118.944z" />
		</g>
		<g id="A_SVGStep3">
			<path d="M1647.979,875.895c-43.701,0-86.591-11.655-124.034-33.705c-36.346-21.403-66.729-52-87.865-88.48
				l2.596-1.504c43.13,74.444,123.331,120.689,209.303,120.689c133.135,0,241.449-108.351,241.449-241.532
				c0-42.478-11.151-84.224-32.248-120.725l2.597-1.501c21.36,36.957,32.65,79.222,32.65,122.226
				C1892.428,766.198,1782.769,875.895,1647.979,875.895z" />
		</g>
		<g id="A_SVGStep4">
			<path d="M1437.438,997.43c-43.72,0-86.618-11.656-124.056-33.707c-36.34-21.404-66.715-52.006-87.842-88.498
				l2.597-1.503c43.105,74.455,123.305,120.708,209.302,120.708c133.114,0,241.411-108.342,241.411-241.512
				c0-42.47-11.145-84.23-32.229-120.766l2.599-1.499c21.347,36.99,32.631,79.269,32.631,122.265
				c0,65.307-25.431,126.71-71.608,172.898C1564.07,971.997,1502.701,997.43,1437.438,997.43z" />
		</g>
		<g id="A_SVGStep5">
			<path d="M1226.878,1362.037v-3c133.158,0,241.49-108.343,241.49-241.513c0-133.213-108.332-241.59-241.49-241.59v-3
				c65.292,0,126.681,25.429,172.856,71.602c46.194,46.191,71.634,107.626,71.634,172.989c0,65.322-25.44,126.731-71.634,172.915
				C1353.553,1336.609,1292.165,1362.037,1226.878,1362.037z" />
		</g>
		<g id="A_SVGStep6">
			<path d="M1226.918,1605.066v-3c133.136,0,241.451-108.35,241.451-241.529
				c0-133.203-108.314-241.572-241.451-241.572v-3c65.288,0,126.669,25.43,172.837,71.606
				c46.181,46.189,71.613,107.616,71.613,172.965c0,65.316-25.433,126.725-71.613,172.913
				C1353.581,1579.633,1292.199,1605.066,1226.918,1605.066z" />
		</g>
		<g id="A_SVGStep7">
			<path d="M1649.26,1847.346l-2.601-1.496c21.098-36.668,32.25-78.414,32.25-120.727
				c0-133.234-108.305-241.629-241.431-241.629c-85.675,0-165.753,46.069-208.984,120.23l-2.592-1.512
				c21.196-36.36,51.572-66.844,87.845-88.156c37.371-21.957,80.157-33.563,123.73-33.563c65.275,0,126.647,25.433,172.813,71.612
				c46.184,46.199,71.618,107.645,71.618,173.017C1681.909,1767.96,1670.619,1810.224,1649.26,1847.346z" />
		</g>
		<g id="A_SVGStep8">
			<path d="M1860.36,1967.979l-2.604-1.49c20.772-36.304,31.752-77.72,31.752-119.772
				c0-133.246-108.323-241.65-241.47-241.65c-85.731,0-165.839,46.146-209.064,120.43l-2.593-1.508
				c21.188-36.414,51.568-66.945,87.856-88.295c37.391-21.999,80.201-33.627,123.801-33.627
				c65.295,0,126.683,25.439,172.854,71.632c46.182,46.204,71.616,107.649,71.616,173.019
				C1892.509,1889.291,1881.393,1931.223,1860.36,1967.979z" />
		</g>
		<g id="A_SVGStep9">
			<path d="M1857.082,1968.887c-21.349-36.88-32.634-79.126-32.634-122.17c0-65.369,25.439-126.813,71.633-173.011
				c46.191-46.197,107.622-71.64,172.976-71.64c43.671,0,86.542,11.674,123.98,33.761c36.354,21.446,66.728,52.093,87.84,88.625
				l-2.598,1.502c-43.091-74.566-123.26-120.888-209.223-120.888c-133.224,0-241.608,108.404-241.608,241.65
				c0,42.517,11.145,84.243,32.23,120.666L1857.082,1968.887z" />
		</g>
		<g id="A_SVGStep10">
			<path d="M2067.416,1846.866c-21.228-36.969-32.447-79.054-32.447-121.704c0-65.353,25.445-126.784,71.647-172.977
				c46.203-46.194,107.65-71.635,173.021-71.635c43.655,0,86.506,11.661,123.918,33.722c36.317,21.416,66.687,52.033,87.823,88.542
				l-2.596,1.504c-43.127-74.492-123.267-120.768-209.146-120.768c-133.256,0-241.668,108.387-241.668,241.611
				c0,42.127,11.082,83.695,32.049,120.21L2067.416,1846.866z" />
		</g>
		<g id="A_SVGStep11">
			<path d="M2490.14,1605.066c-65.335,0-126.761-25.434-172.962-71.616c-46.204-46.185-71.65-107.594-71.65-172.913
				c0-65.355,25.443-126.782,71.642-172.965c46.192-46.176,107.621-71.606,172.971-71.606v3
				c-133.226,0-241.612,108.369-241.612,241.572c0,133.18,108.387,241.529,241.612,241.529V1605.066z" />
		</g>
		<g id="A_SVGStep12">
			<path d="M2490.178,1361.994c-65.355,0-126.793-25.427-172.995-71.598c-46.208-46.176-71.655-107.583-71.655-172.911
				c0-65.366,25.444-126.798,71.646-172.982c46.196-46.177,107.637-71.608,173.004-71.608v3
				c-133.246,0-241.65,108.377-241.65,241.59c0,133.168,108.404,241.509,241.65,241.509V1361.994z" />
		</g>
		<g id="A_SVGStep13">
			<path d="M2279.618,997.409c-65.36,0-126.803-25.425-173.009-71.59c-46.213-46.174-71.664-107.584-71.664-172.92
				c0-42.769,11.264-84.943,32.573-121.964l2.6,1.497c-21.048,36.565-32.173,78.223-32.173,120.467
				c0,133.169,108.414,241.51,241.673,241.51c86.027,0,166.196-46.335,209.222-120.924l2.6,1.499
				c-21.089,36.558-51.45,67.219-87.804,88.668C2366.207,985.736,2323.322,997.409,2279.618,997.409z" />
		</g>
		<g id="A_SVGStep14">
			<path d="M2069.077,875.895c-65.347,0-126.774-25.433-172.968-71.614c-46.198-46.186-71.641-107.61-71.641-172.957
				c0-42.79,11.242-84.91,32.511-121.806l2.599,1.498c-21.007,36.441-32.11,78.043-32.11,120.308
				c0,133.203,108.385,241.571,241.608,241.571c85.924,0,166.069-46.275,209.161-120.767l2.598,1.502
				c-21.114,36.499-51.478,67.113-87.809,88.535C2155.603,864.231,2112.741,875.895,2069.077,875.895z" />
		</g>
		<g id="A_SVGStep15">
			<path d="M1858.58,754.359c-43.741,0-86.665-11.676-124.133-33.765c-36.386-21.451-66.777-52.11-87.887-88.662
				l2.598-1.5c43.078,74.59,123.324,120.927,209.422,120.927c85.941,0,166.093-46.283,209.178-120.786l2.598,1.502
				c-21.122,36.524-51.486,67.15-87.811,88.567C1945.134,742.7,1902.268,754.359,1858.58,754.359z" />
		</g>
		<g id="A_SVGStep16">
			<path d="M1226.918,1118.985v-3c133.158,0,241.491-108.341,241.491-241.511c0-42.423-11.124-84.127-32.169-120.605
				l2.599-1.499c21.308,36.933,32.571,79.156,32.571,122.104c0,65.313-25.44,126.719-71.633,172.905
				C1353.591,1093.555,1292.203,1118.985,1226.918,1118.985z" />
		</g>
		<g id="A_SVGStep17">
			<path d="M1438.666,1725.895l-2.598-1.5c21.104-36.524,32.26-78.269,32.26-120.721
				c0-64.567-25.121-125.258-70.734-170.894c-45.588-45.608-106.195-70.723-170.667-70.723c-0.039,0-0.078,0-0.118,0l-0.001-3
				c0.036,0,0.083,0,0.119,0c65.278,0,126.631,25.424,172.789,71.603c46.18,46.201,71.613,107.646,71.613,173.014
				C1471.328,1646.652,1460.034,1688.915,1438.666,1725.895z" />
		</g>
		<g id="A_SVGStep18">
			<path d="M1649.218,1847.468l-2.598-1.502c21.117-36.533,51.489-67.169,87.832-88.597
				c37.445-22.077,80.361-33.746,124.108-33.746c0.016,0,0.038,0,0.053,0c43.642,0,86.466,11.648,123.856,33.689
				c36.303,21.4,66.658,52.002,87.785,88.494l-2.596,1.504c-43.098-74.443-123.202-120.688-209.047-120.688
				c-0.021,0-0.031,0-0.052,0C1772.518,1726.623,1692.303,1772.928,1649.218,1847.468z" />
		</g>
		<g id="A_SVGStep19">
			<path d="M2278.363,1726.054c-21.481-37.013-32.836-79.368-32.836-122.487c0-65.351,25.444-126.778,71.646-172.969
				c46.201-46.188,107.642-71.625,173.004-71.625v3c-133.246,0-241.65,108.379-241.65,241.594
				c0,42.591,11.214,84.426,32.43,120.981L2278.363,1726.054z" />
		</g>
		<g id="A_SVGStep20">
			<path d="M2490.178,1118.965c-65.34,0-126.772-25.431-172.981-71.608c-46.217-46.185-71.669-107.597-71.669-172.923
				c0-42.888,11.312-85.16,32.711-122.245l2.598,1.499c-21.137,36.63-32.309,78.383-32.309,120.746
				c0,133.181,108.404,241.532,241.65,241.532V1118.965z" />
		</g>
		<g id="A_SVGStep21">
			<path d="M1648.059,632.824v-3c85.895,0,166.025-46.245,209.122-120.688l2.597,1.503
				c-21.122,36.484-51.486,67.083-87.812,88.488C1734.555,621.172,1691.708,632.824,1648.059,632.824z" />
		</g>
		<g id="A_SVGStep22">
			<path d="M1437.499,754.399v-3c85.826,0,165.942-46.222,209.082-120.628l2.596,1.505
				c-21.143,36.465-51.513,67.048-87.829,88.441C1523.944,742.752,1481.118,754.399,1437.499,754.399z" />
		</g>
		<g id="A_SVGStep23">
			<path d="M1226.918,875.895v-3c85.917,0,166.071-46.298,209.181-120.827l2.597,1.502
				c-21.124,36.519-51.493,67.149-87.825,88.58C1313.445,864.226,1270.583,875.895,1226.918,875.895z" />
		</g>
		<g id="A_SVGStep24">
			<path d="M1228.258,1117.936l-2.599-1.499c21.046-36.499,32.17-78.162,32.17-120.486
				c0-42.554-11.138-84.279-32.209-120.665l2.596-1.503c21.336,36.842,32.613,79.087,32.613,122.168
				C1260.829,1038.8,1249.566,1080.981,1228.258,1117.936z" />
		</g>
		<g id="A_SVGStep25">
			<path d="M1228.096,1361.446l-2.597-1.502c21.177-36.628,32.371-78.422,32.371-120.864
				c0-42.585-11.138-84.317-32.208-120.685l2.596-1.504c21.335,36.824,32.613,79.076,32.613,122.188
				C1260.869,1282.049,1249.536,1324.362,1228.096,1361.446z" />
		</g>
		<g id="A_SVGStep26">
			<path d="M1228.238,1604.517l-2.597-1.502c21.162-36.602,32.348-78.401,32.348-120.882
				c0-42.359-11.124-84.023-32.17-120.486l2.599-1.5c21.308,36.919,32.571,79.102,32.571,121.986
				C1260.989,1525.14,1249.664,1567.459,1228.238,1604.517z" />
		</g>
		<g id="A_SVGStep27">
			<path fill="none"
				d="M1435.783,1725.199c-43.231-74.083-123.198-120.092-208.714-120.092c-0.037,0-0.073,0-0.109,0l-0.001-3
				c0.037,0,0.075,0,0.112,0c43.516,0,86.227,11.581,123.524,33.493c36.214,21.276,66.568,51.736,87.78,88.087L1435.783,1725.199z" />
		</g>
		<g id="A_SVGStep28">
			<path d="M1646.621,1847.349c-43.112-74.517-123.266-120.808-209.182-120.808v-3
				c43.669,0,86.529,11.662,123.945,33.727c36.329,21.424,66.702,52.054,87.833,88.579L1646.621,1847.349z" />
		</g>
		<g id="A_SVGStep29">
			<path d="M1856.826,1968.173c-43.264-74.041-123.258-120.036-208.767-120.036v-3
				c43.52,0,86.249,11.585,123.568,33.503c36.212,21.267,66.569,51.704,87.789,88.02L1856.826,1968.173z" />
		</g>
		<g id="A_SVGStep30">
			<path d="M1859.937,1968.704l-2.594-1.506c21.176-36.461,51.558-67.029,87.86-88.401
				c37.403-22.021,80.246-33.66,123.896-33.66v3C1983.277,1848.137,1903.131,1894.336,1859.937,1968.704z" />
		</g>
		<g id="A_SVGStep31">
			<path d="M2070.355,1847.468l-2.598-1.502c21.127-36.531,51.507-67.167,87.855-88.597
				c37.447-22.077,80.355-33.746,124.085-33.746v3C2193.679,1726.623,2113.463,1772.928,2070.355,1847.468z" />
		</g>
		<g id="A_SVGStep32">
			<path d="M2280.836,1725.992l-2.598-1.5c21.11-36.55,51.499-67.208,87.883-88.66
				c37.463-22.09,80.375-33.766,124.098-33.766v3C2404.148,1605.066,2323.917,1651.402,2280.836,1725.992z" />
		</g>
		<g id="A_SVGStep33">
			<path d="M2488.116,1603.15c-20.952-36.771-32.027-78.641-32.027-121.08c0-43.144,11.381-85.554,32.912-122.646
				l2.594,1.506c-21.266,36.635-32.506,78.524-32.506,121.14c0,41.92,10.938,83.274,31.635,119.596L2488.116,1603.15z" />
		</g>
		<g id="A_SVGStep34">
			<path fill="none"
				d="M2488.198,1360.28c-21.033-36.876-32.151-78.8-32.151-121.24c0-43.41,11.501-85.975,33.259-123.093
				l2.588,1.517c-21.488,36.658-32.847,78.699-32.847,121.576c0,41.919,10.981,83.33,31.757,119.753L2488.198,1360.28z" />
		</g>
		<g id="A_SVGStep35">
			<path d="M2488.802,1118.157c-21.376-36.93-32.675-79.181-32.675-122.188c0-42.981,11.325-85.309,32.752-122.406
				l2.598,1.5c-21.163,36.643-32.35,78.451-32.35,120.906c0,42.479,11.159,84.211,32.271,120.685L2488.802,1118.157z" />
		</g>
		<g id="A_SVGStep36">
			<path d="M2490.219,875.934c-43.728,0-86.643-11.669-124.104-33.746c-36.377-21.437-66.764-52.074-87.876-88.599
				l2.598-1.501c43.086,74.541,123.317,120.846,209.383,120.846V875.934z" />
		</g>
		<g id="A_SVGStep37">
			<path d="M2279.618,754.359c-43.689,0-86.576-11.657-124.024-33.712c-36.361-21.415-66.762-52.028-87.914-88.533
				l2.596-1.504c43.158,74.48,123.373,120.749,209.343,120.749V754.359z" />
		</g>
		<g id="A_SVGStep38">
			<path d="M2069.14,632.824c-43.66,0-86.514-11.641-123.929-33.664c-36.326-21.382-66.717-51.964-87.888-88.439
				l2.594-1.506c43.181,74.394,123.351,120.609,209.223,120.609V632.824z" />
		</g>
	</g>
</g>

</svg>