<?xml version="1.0" encoding="utf-8"?>
<!-- Generator: Adobe Illustrator 16.0.0, SVG Export Plug-In . SVG Version: 6.00 Build 0)  -->
<!DOCTYPE svg PUBLIC "-//W3C//DTD SVG 1.1//EN" "http://www.w3.org/Graphics/SVG/1.1/DTD/svg11.dtd">
<svg version="1.1" id="A-detailSealedFOL" xmlns="http://www.w3.org/2000/svg" xmlns:xlink="http://www.w3.org/1999/xlink" x="0px"
	 y="0px" width="1163.332px" height="1026px" viewBox="0 0 1163.332 1026" enable-background="new 0 0 1163.332 1026"
	 xml:space="preserve">
<rect x="0" display="none" width="1163.332" height="1026"/>
<g id="A-SVGGroupSteps">
	<g id="unsealedFOL">
		<path fill="none" stroke="#FFFFFF" stroke-width="0.25" stroke-miterlimit="10" d="M721.229,356.821
			c-29.811,0-55.859-16.189-69.813-40.264 M581.698,276.326c13.967,24.056,39.979,40.217,69.771,40.217 M581.657,276.266
			c-44.5,0.001-80.568,36.056-80.568,80.569c0,44.5,36.087,80.536,80.569,80.537c44.452,0,80.521-36.049,80.521-80.537
			C662.178,312.322,626.111,276.266,581.657,276.266z M442.134,356.821c-44.521,0-80.583,36.056-80.583,80.568
			c0,44.495,36.076,80.543,80.583,80.543c44.438,0,80.517-36.056,80.517-80.543C522.65,392.877,486.567,356.821,442.134,356.821z
			 M442.147,517.921c-44.533-0.001-80.582,36.046-80.582,80.566c0,44.479,36.063,80.538,80.582,80.538
			c44.434,0,80.503-36.064,80.503-80.538C522.65,553.967,486.573,517.933,442.147,517.921z M581.658,598.476
			c-44.5,0-80.569,36.042-80.569,80.563c0,44.494,36.087,80.529,80.569,80.529c44.452,0,80.521-36.035,80.521-80.528
			C662.186,634.53,626.112,598.476,581.658,598.476z M721.229,517.92c-44.51-0.001-80.57,36.046-80.57,80.567
			c0,44.479,36.074,80.538,80.57,80.538c44.459,0.001,80.514-36.063,80.514-80.538C801.74,553.967,765.678,517.933,721.229,517.92z
			 M721.233,356.821c-44.506,0-80.574,36.056-80.574,80.568c0,44.495,36.08,80.543,80.574,80.543
			c44.463,0,80.504-36.056,80.504-80.544C801.737,392.877,765.678,356.821,721.233,356.821z M511.896,316.543
			c-44.515,0-80.569,36.056-80.569,80.569c0,44.494,36.063,80.542,80.569,80.542c44.446,0,80.522-36.061,80.521-80.542
			C592.416,352.592,556.323,316.543,511.896,316.543z M442.134,437.37c-44.521,0-80.583,36.063-80.583,80.577
			c0,44.48,36.075,80.534,80.583,80.534c44.438,0,80.517-36.062,80.516-80.534C522.65,473.425,486.567,437.37,442.134,437.37z
			 M511.896,558.205c-44.514,0-80.569,36.054-80.569,80.573c0,44.482,36.063,80.521,80.569,80.521
			c44.447,0,80.521-36.046,80.521-80.521C592.418,594.246,556.323,558.196,511.896,558.205z M651.44,558.205
			c-44.509,0-80.582,36.054-80.583,80.573c0,44.482,36.08,80.521,80.583,80.521c44.439,0,80.521-36.047,80.521-80.521
			C731.961,594.246,695.879,558.196,651.44,558.205z M721.233,437.371c-44.506-0.001-80.574,36.063-80.574,80.575
			c0,44.48,36.08,80.534,80.574,80.534c44.464,0,80.504-36.061,80.504-80.534C801.737,473.425,765.678,437.37,721.233,437.371z
			 M651.446,316.543c-44.509,0-80.57,36.056-80.563,80.569c0,44.493,36.063,80.542,80.563,80.542
			c44.439,0,80.521-36.061,80.521-80.542C731.961,352.592,695.879,316.543,651.446,316.543z M581.658,437.371
			c-44.5,0-80.569,36.062-80.569,80.575c0,44.479,36.088,80.534,80.568,80.534c44.452,0,80.521-36.062,80.521-80.535
			C662.178,473.426,626.111,437.37,581.658,437.371z M581.657,517.92c-44.5,0-80.568,36.047-80.568,80.567
			c0,44.479,36.087,80.538,80.569,80.538c44.452,0,80.521-36.064,80.521-80.538C662.178,553.967,626.111,517.932,581.657,517.92z
			 M651.44,477.647c-44.509,0-80.57,36.05-80.57,80.563c0,44.486,36.067,80.541,80.57,80.54c44.439,0,80.521-36.066,80.521-80.54
			C731.961,513.711,695.878,477.647,651.44,477.647z M651.446,397.1c-44.509-0.001-80.563,36.042-80.563,80.563
			c0,44.492,36.063,80.534,80.563,80.534c44.439,0,80.521-36.042,80.521-80.534C731.961,433.142,695.879,397.099,651.446,397.1z
			 M581.657,356.822c-44.5,0-80.568,36.055-80.568,80.568c0,44.494,36.087,80.543,80.569,80.542
			c44.452,0,80.521-36.056,80.521-80.542C662.178,392.876,626.112,356.821,581.657,356.822z M511.896,397.099
			c-44.515,0-80.569,36.042-80.569,80.563c0,44.493,36.063,80.535,80.569,80.535c44.447,0,80.522-36.042,80.521-80.535
			C592.416,433.142,556.323,397.099,511.896,397.099z M511.896,477.647c-44.514,0-80.569,36.051-80.569,80.563
			c0,44.485,36.063,80.54,80.569,80.54c44.447,0,80.523-36.066,80.522-80.54C592.418,513.711,556.323,477.647,511.896,477.647z
			 M442.1,356.854c13.938,24.058,39.975,40.246,69.796,40.246c44.44,0,80.516-36.056,80.516-80.542
			c0-14.666-3.911-28.419-10.754-40.259 M372.323,397.126c13.938,24.063,39.959,40.25,69.795,40.25
			c44.441,0,80.503-36.054,80.503-80.537c0-14.679-3.903-28.423-10.746-40.271 M372.34,558.212
			c44.453,0,80.522-36.043,80.522-80.538c0-44.521-36.069-80.562-80.522-80.562 M372.353,638.752
			c44.454,0,80.516-36.055,80.516-80.54c0-44.514-36.063-80.557-80.516-80.558 M511.889,719.295
			c6.813-11.847,10.754-25.591,10.754-40.258c0-44.532-36.069-80.574-80.509-80.575c-29.736,0-55.712,16.115-69.689,40.093
			 M581.851,759.276c6.735-11.771,10.588-25.408,10.587-39.94c0-44.527-36.063-80.584-80.521-80.584
			c-29.757,0-55.738,16.15-69.717,40.16 M721.213,679.064c-13.931-24.104-39.979-40.313-69.771-40.313
			c-44.509,0.001-80.563,36.064-80.563,80.584c0,14.665,3.896,28.405,10.742,40.238 M790.975,638.752
			c-13.939-24.076-39.953-40.271-69.742-40.271c-44.52,0-80.588,36.063-80.587,80.563c-0.001,14.593,3.903,28.274,10.687,40.086
			 M790.99,477.654c-44.5,0.001-80.563,36.044-80.563,80.558c-0.001,44.485,36.075,80.54,80.563,80.541 M791.008,397.1
			c-44.521,0-80.581,36.042-80.582,80.563c0,44.492,36.076,80.534,80.582,80.534 M651.365,316.663
			c-6.805,11.82-10.729,25.54-10.729,40.172c0,44.501,36.082,80.536,80.593,80.536c29.813,0,55.854-16.208,69.765-40.324
			 M581.591,276.424c-6.813,11.813-10.708,25.52-10.708,40.119c0,44.508,36.063,80.557,80.563,80.556
			c29.795,0.001,55.824-16.202,69.748-40.271 M511.855,316.496c13.925,24.112,39.994,40.325,69.835,40.326
			c29.809-0.001,55.823-16.189,69.755-40.279 M372.353,477.662c44.453,0,80.528-36.049,80.528-80.535
			c0-14.66-3.904-28.393-10.729-40.219 M442.097,679.044c6.842-11.839,10.758-25.589,10.758-40.255
			c0-44.518-36.054-80.593-80.539-80.572 M651.406,719.282c-13.931-24.063-39.933-40.25-69.726-40.245
			c-29.855,0-55.885,16.207-69.813,40.299 M791.008,558.189c-44.521,0.001-80.582,36.057-80.582,80.563
			c0,14.721,3.933,28.485,10.813,40.344 M721.198,356.847c-6.836,11.847-10.771,25.599-10.771,40.265
			c-0.001,44.493,36.087,80.542,80.581,80.542 M511.923,316.543c29.774,0,55.803-16.181,69.729-40.245 M442.14,356.834
			c29.762,0,55.778-16.174,69.722-40.225 M372.353,397.099c29.795,0,55.824-16.208,69.754-40.292 M372.365,477.563
			c6.824-11.826,10.729-25.553,10.729-40.179c0-14.66-3.884-28.396-10.741-40.237 M372.313,558.264
			c6.856-11.854,10.795-25.627,10.795-40.305c0-14.679-3.886-28.411-10.741-40.244 M372.36,638.819
			c6.854-11.854,10.787-25.626,10.788-40.313c0-14.632-3.899-28.347-10.729-40.18 M442,678.814
			c-13.983-23.972-39.906-40.063-69.641-40.056 M511.875,719.295c-13.938-24.09-39.967-40.285-69.762-40.285 M581.532,759.337
			c-13.984-23.945-39.907-40.03-69.609-40.03 M651.451,719.308c-29.781-0.001-55.777,16.163-69.74,40.206 M721.252,679.037
			c-29.847,0-55.877,16.207-69.813,40.299 M791.022,638.752c-29.828,0-55.896,16.216-69.822,40.325 M791.047,558.093
			c-6.896,11.878-10.847,25.663-10.847,40.396c0.001,14.509,3.854,28.129,10.556,39.881 M791.149,477.403
			c-6.977,11.896-10.955,25.744-10.955,40.542c0,14.533,3.879,28.169,10.59,39.934 M791.008,397.072
			c-6.854,11.854-10.787,25.632-10.787,40.313c0,14.667,3.912,28.413,10.762,40.247 M721.198,356.813
			c13.928,24.091,39.988,40.299,69.822,40.299"/>
		<circle fill="none" stroke="#FFFFFF" stroke-miterlimit="10" cx="581.658" cy="517.92" r="241.654"/>
		<path fill="#FFFFFF" d="M584.892,759.565c0,1.774-1.445,3.229-3.229,3.229l0,0c-1.775,0-3.227-1.447-3.227-3.229l0,0
			c0-1.783,1.445-3.229,3.227-3.229l0,0C583.447,756.339,584.892,757.782,584.892,759.565L584.892,759.565z"/>
		<path fill="#FFFFFF" d="M584.891,276.326c0,1.781-1.445,3.229-3.229,3.229l0,0c-1.775,0-3.227-1.447-3.227-3.229l0,0
			c0-1.783,1.445-3.228,3.227-3.228l0,0C583.446,273.098,584.891,274.542,584.891,276.326L584.891,276.326z"/>
		<g>
			<path fill="#FFFFFF" d="M602.722,289.5h-1.16v-4.271h-4.354v4.271h-1.153v-8.725h1.153v3.422h4.354v-3.422h1.16V289.5z"/>
			<path fill="#FFFFFF" d="M607.597,293.496h-2.753v-0.519h1.059v-3.409h-1.059v-0.465c0.144,0,0.297-0.012,0.461-0.036
				s0.288-0.059,0.373-0.104c0.104-0.057,0.187-0.129,0.248-0.217c0.061-0.087,0.095-0.206,0.104-0.354h0.53v4.584h1.039v0.52
				H607.597z"/>
		</g>
		<g>
			<path fill="#FFFFFF" d="M604.198,750.208h-1.436l-4.139-7.805v7.805h-1.084v-8.725h1.801l3.771,7.125v-7.125h1.084
				L604.198,750.208L604.198,750.208z"/>
			<path fill="#FFFFFF" d="M609.055,754.204h-2.753v-0.521h1.059v-3.403h-1.059v-0.472c0.144,0,0.297-0.012,0.461-0.028
				c0.164-0.023,0.288-0.063,0.373-0.104c0.104-0.057,0.187-0.129,0.248-0.217c0.061-0.087,0.095-0.206,0.104-0.354h0.53v4.59h1.039
				v0.521L609.055,754.204L609.055,754.204z"/>
		</g>
		<path fill="#FFFFFF" d="M724.449,517.92c0,1.781-1.438,3.229-3.227,3.229l0,0c-1.782,0-3.229-1.447-3.229-3.229l0,0
			c0-1.783,1.441-3.228,3.229-3.228l0,0C723.011,514.692,724.449,516.137,724.449,517.92L724.449,517.92z"/>
		<path fill="#FFFFFF" d="M445.361,517.932c0,1.781-1.445,3.229-3.227,3.229l0,0c-1.782,0-3.229-1.447-3.229-3.229l0,0
			c0-1.776,1.445-3.228,3.229-3.228l0,0C443.909,514.705,445.361,516.149,445.361,517.932L445.361,517.932z"/>
		<g>
			<path fill="#FFFFFF" d="M738.772,530.675h-5.52v-8.725h1.153v7.688h4.359L738.772,530.675L738.772,530.675z"/>
		</g>
		<g>
			<path fill="#FFFFFF" d="M455.909,529.733h-3.438v-0.896h1.143v-6.938h-1.143v-0.896h3.438v0.896h-1.143v6.938h1.143V529.733z"/>
		</g>
		<path fill="#FFFFFF" d="M584.891,517.92c0,1.781-1.444,3.229-3.229,3.229l0,0c-1.775,0-3.227-1.447-3.227-3.229l0,0
			c0-1.783,1.444-3.229,3.227-3.229l0,0C583.447,514.691,584.891,516.137,584.891,517.92L584.891,517.92z"/>
		<g>
			<path fill="#FFFFFF" d="M603.631,530.675h-1.236l-0.855-2.432h-3.771l-0.855,2.432h-1.178l3.176-8.725h1.554L603.631,530.675z
				 M601.182,527.247l-1.529-4.283l-1.535,4.283H601.182z"/>
		</g>
	</g>
	<g id="sealedFOL">
		<g id="A-SVGStep1">
			<line id="geo" fill="none" stroke="#FFFFFF" stroke-miterlimit="10" x1="581.68" y1="1018.399" x2="581.68" y2="17.507"/>
		</g>
		<g id="A-SVGStep2">
			<line id="geo1" fill="none" stroke="#FFFFFF" stroke-miterlimit="10" x1="78.182" y1="517.928" x2="1085.186" y2="517.928"/>
		</g>
		<g id="A-SVGStep3">
			<path id="A-point1" fill="#FFFFFF" d="M343.256,517.938c0,1.781-1.445,3.229-3.229,3.229l0,0c-1.782,0-3.229-1.447-3.229-3.229
				l0,0c0-1.776,1.443-3.228,3.229-3.228l0,0C341.807,514.712,343.256,516.156,343.256,517.938L343.256,517.938z"/>
			<g id="A-text">
				<path fill="#FFFFFF" d="M350.761,529.741l-1.437-0.001l-4.137-7.811v7.811h-1.084v-8.729h1.799l3.771,7.125v-7.125h1.084
					L350.761,529.741L350.761,529.741z"/>
				<path fill="#FFFFFF" d="M355.906,533.735l-3.441,0.001v-0.717c0.237-0.203,0.479-0.403,0.719-0.608s0.469-0.408,0.676-0.611
					c0.438-0.424,0.731-0.76,0.896-1.01c0.161-0.249,0.24-0.521,0.24-0.813c0-0.264-0.087-0.471-0.261-0.619
					c-0.178-0.146-0.417-0.225-0.729-0.225c-0.208,0-0.434,0.037-0.674,0.109c-0.24,0.066-0.478,0.185-0.706,0.335h-0.034v-0.72
					c0.162-0.077,0.377-0.15,0.646-0.224c0.271-0.063,0.526-0.099,0.784-0.098c0.521-0.001,0.93,0.125,1.227,0.377
					c0.297,0.251,0.443,0.592,0.443,1.021c0,0.193-0.023,0.374-0.074,0.542c-0.049,0.168-0.121,0.326-0.217,0.479
					c-0.089,0.142-0.191,0.279-0.313,0.416s-0.267,0.288-0.438,0.456c-0.244,0.233-0.496,0.471-0.755,0.688
					c-0.265,0.229-0.502,0.438-0.729,0.626l2.735-0.001v0.587l0.004-0.001V533.735L355.906,533.735z"/>
			</g>
		</g>
		<g id="A-SVGStep4">
			<path id="A-point2" fill="#FFFFFF" d="M826.565,517.927c0,1.781-1.444,3.229-3.229,3.23l0,0c-1.782,0-3.229-1.448-3.229-3.23l0,0
				c0-1.782,1.439-3.228,3.229-3.228l0,0C825.117,514.7,826.565,516.144,826.565,517.927L826.565,517.927z"/>
			<g id="A-text2">
				<path fill="#FFFFFF" d="M833.655,522.018c0.354,0.396,0.628,0.869,0.813,1.438c0.188,0.563,0.283,1.209,0.284,1.928
					c0,0.719-0.099,1.362-0.29,1.934c-0.189,0.566-0.464,1.041-0.813,1.422c-0.357,0.396-0.784,0.688-1.272,0.895
					c-0.49,0.203-1.052,0.298-1.682,0.298c-0.612,0-1.17-0.102-1.672-0.305c-0.502-0.202-0.934-0.497-1.28-0.886
					c-0.354-0.392-0.622-0.86-0.813-1.429c-0.188-0.563-0.28-1.203-0.28-1.929c0-0.711,0.094-1.349,0.276-1.913
					c0.188-0.563,0.462-1.048,0.818-1.449c0.346-0.384,0.771-0.676,1.28-0.88c0.509-0.202,1.063-0.304,1.667-0.305
					c0.625,0,1.188,0.104,1.686,0.31C832.877,521.351,833.303,521.639,833.655,522.018z M833.549,525.381
					c0-1.133-0.254-2.007-0.764-2.622c-0.508-0.614-1.199-0.923-2.08-0.923c-0.887,0-1.583,0.308-2.089,0.923
					c-0.506,0.616-0.759,1.489-0.759,2.623c0,1.146,0.258,2.021,0.771,2.627c0.52,0.607,1.207,0.912,2.072,0.912
					c0.867,0,1.56-0.305,2.071-0.912C833.284,527.402,833.549,526.525,833.549,525.381z"/>
				<path fill="#FFFFFF" d="M839.416,533.735h-3.442v-0.714c0.239-0.205,0.479-0.405,0.725-0.61
					c0.239-0.204,0.463-0.407,0.671-0.611c0.438-0.424,0.736-0.76,0.896-1.01c0.161-0.249,0.241-0.521,0.242-0.813
					c0-0.264-0.087-0.471-0.262-0.619c-0.176-0.146-0.419-0.226-0.729-0.226c-0.207,0-0.433,0.037-0.674,0.109
					c-0.24,0.067-0.479,0.185-0.707,0.335h-0.031l0.001-0.721c0.159-0.076,0.378-0.148,0.646-0.223
					c0.271-0.063,0.529-0.099,0.781-0.098c0.521-0.001,0.933,0.125,1.228,0.377c0.3,0.252,0.445,0.592,0.443,1.021
					c0,0.193-0.022,0.374-0.071,0.542c-0.05,0.167-0.121,0.326-0.218,0.479c-0.091,0.141-0.192,0.28-0.313,0.417
					s-0.271,0.287-0.438,0.455c-0.243,0.234-0.495,0.47-0.756,0.688c-0.261,0.23-0.503,0.438-0.729,0.625h2.733v0.586l0.005,0.001
					L839.416,533.735L839.416,533.735L839.416,533.735z"/>
			</g>
		</g>
		<g id="A-SVGStep5">
			<circle id="geo2" fill="none" stroke="#FFFFFF" stroke-miterlimit="10" cx="340.03" cy="517.928" r="241.655"/>
		</g>
		<g id="A-SVGStep6">
			<circle id="geo5" fill="none" stroke="#FFFFFF" stroke-miterlimit="10" cx="823.338" cy="517.927" r="241.655"/>
		</g>
		<g id="A-SVGStep7">
			<circle id="geo3" fill="none" stroke="#FFFFFF" stroke-miterlimit="10" cx="581.678" cy="276.272" r="241.655"/>
		</g>
		<g id="A-SVGStep8">
			<circle id="geo4" fill="none" stroke="#FFFFFF" stroke-miterlimit="10" cx="581.68" cy="759.575" r="241.655"/>
		</g>
		<g id="A-SVGStep9">
			<path id="A-point3" fill="#FFFFFF" d="M343.255,276.271c0,1.781-1.445,3.229-3.229,3.229l0,0c-1.782,0-3.229-1.447-3.229-3.229
				l0,0c0-1.782,1.443-3.229,3.229-3.229l0,0C341.806,273.045,343.255,274.489,343.255,276.271L343.255,276.271z"/>
			<g id="A-text3">
				<path fill="#FFFFFF" d="M330.217,262.164c0,0.387-0.064,0.745-0.202,1.074c-0.135,0.331-0.32,0.616-0.563,0.858
					c-0.301,0.301-0.654,0.526-1.064,0.677c-0.411,0.151-0.929,0.226-1.554,0.226h-1.159v3.252h-1.16v-8.726h2.367
					c0.521,0,0.967,0.044,1.33,0.132c0.361,0.088,0.688,0.226,0.967,0.413c0.332,0.223,0.589,0.5,0.771,0.832
					C330.128,261.235,330.217,261.655,330.217,262.164z M329.009,262.192c0-0.301-0.055-0.563-0.158-0.785
					c-0.104-0.223-0.266-0.404-0.479-0.545c-0.188-0.121-0.399-0.208-0.642-0.261c-0.241-0.053-0.547-0.079-0.91-0.079h-1.147v3.486
					h0.979c0.469,0,0.852-0.042,1.145-0.126c0.292-0.084,0.528-0.218,0.714-0.401c0.187-0.188,0.313-0.385,0.393-0.592
					C328.973,262.682,329.009,262.45,329.009,262.192z"/>
				<path fill="#FFFFFF" d="M334.569,272.247h-3.441v-0.714c0.237-0.205,0.479-0.41,0.719-0.615s0.464-0.408,0.671-0.612
					c0.438-0.423,0.736-0.76,0.896-1.01c0.162-0.249,0.242-0.519,0.243-0.808c0-0.265-0.087-0.471-0.261-0.62
					c-0.177-0.148-0.417-0.224-0.729-0.224c-0.208,0-0.434,0.037-0.675,0.109c-0.239,0.072-0.479,0.185-0.707,0.335h-0.032v-0.718
					c0.163-0.079,0.377-0.152,0.646-0.219c0.271-0.065,0.528-0.099,0.781-0.099c0.521,0,0.932,0.126,1.229,0.378
					c0.298,0.25,0.443,0.592,0.443,1.022c0,0.193-0.024,0.374-0.073,0.542c-0.049,0.167-0.121,0.326-0.217,0.476
					c-0.091,0.142-0.193,0.28-0.313,0.416c-0.12,0.138-0.267,0.288-0.438,0.456c-0.244,0.238-0.496,0.471-0.758,0.693
					c-0.26,0.226-0.502,0.433-0.729,0.625h2.736v0.586L334.569,272.247L334.569,272.247z"/>
			</g>
		</g>
		<g id="A-SVGStep10">
			<path id="A-point4" fill="#FFFFFF" d="M584.907,34.616c0,1.78-1.443,3.229-3.229,3.229l0,0c-1.78,0-3.229-1.446-3.229-3.229l0,0
				c0-1.78,1.445-3.229,3.229-3.229l0,0C583.463,31.389,584.907,32.834,584.907,34.616L584.907,34.616z"/>
			<g id="A-text4">
				<path fill="#FFFFFF" d="M594.947,49.734c-0.232,0.059-0.466,0.101-0.692,0.126c-0.229,0.025-0.462,0.038-0.7,0.038
					c-0.681,0-1.228-0.187-1.64-0.56c-0.41-0.373-0.636-0.907-0.671-1.603c-0.094,0.016-0.188,0.025-0.271,0.031
					c-0.087,0.007-0.173,0.01-0.255,0.01c-0.61,0-1.171-0.103-1.673-0.305c-0.502-0.204-0.931-0.499-1.28-0.885
					c-0.353-0.388-0.622-0.861-0.813-1.424c-0.188-0.564-0.282-1.205-0.282-1.928c0-0.711,0.094-1.349,0.279-1.914
					c0.188-0.564,0.461-1.047,0.817-1.449c0.347-0.384,0.771-0.676,1.28-0.879c0.509-0.203,1.063-0.305,1.667-0.305
					c0.625,0,1.188,0.103,1.688,0.308c0.498,0.205,0.921,0.497,1.271,0.876c0.354,0.391,0.628,0.869,0.815,1.436
					c0.188,0.568,0.283,1.209,0.283,1.929c0,1.066-0.22,1.965-0.652,2.695c-0.438,0.73-1.021,1.242-1.755,1.535
					c0.018,0.445,0.121,0.791,0.313,1.037c0.195,0.247,0.553,0.37,1.064,0.369c0.16,0,0.353-0.024,0.571-0.073
					c0.22-0.048,0.378-0.092,0.472-0.132h0.158L594.947,49.734L594.947,49.734z M593.564,43.236c0-1.133-0.257-2.007-0.765-2.623
					c-0.508-0.614-1.201-0.922-2.08-0.922c-0.889,0-1.583,0.308-2.089,0.923c-0.509,0.615-0.761,1.489-0.761,2.622
					c0,1.145,0.26,2.021,0.773,2.627c0.515,0.607,1.205,0.912,2.071,0.911c0.866,0,1.561-0.304,2.069-0.911
					C593.298,45.257,593.564,44.381,593.564,43.236z"/>
				<path fill="#FFFFFF" d="M599.429,51.591h-3.44v-0.714c0.236-0.206,0.479-0.41,0.722-0.616c0.239-0.205,0.463-0.407,0.671-0.611
					c0.438-0.423,0.734-0.76,0.896-1.01c0.161-0.249,0.242-0.519,0.242-0.808c0-0.264-0.09-0.471-0.264-0.62
					c-0.177-0.147-0.418-0.224-0.729-0.224c-0.208,0-0.435,0.038-0.673,0.109c-0.242,0.074-0.479,0.185-0.707,0.335h-0.035v-0.717
					c0.162-0.08,0.378-0.152,0.646-0.219c0.271-0.065,0.531-0.1,0.783-0.099c0.521,0,0.932,0.126,1.229,0.378
					c0.296,0.251,0.441,0.592,0.441,1.022c0,0.192-0.021,0.374-0.07,0.542c-0.052,0.167-0.121,0.326-0.22,0.477
					c-0.09,0.141-0.19,0.278-0.313,0.416c-0.12,0.137-0.268,0.288-0.438,0.455c-0.243,0.238-0.495,0.471-0.756,0.694
					c-0.262,0.225-0.502,0.433-0.729,0.624h2.733L599.429,51.591L599.429,51.591z"/>
			</g>
		</g>
		<g id="A-SVGStep11">
			<path id="A-point5" fill="#FFFFFF" d="M826.565,276.271c0,1.781-1.445,3.229-3.229,3.229l0,0c-1.782,0-3.229-1.447-3.229-3.229
				l0,0c0-1.782,1.442-3.229,3.229-3.229l0,0C825.116,273.045,826.565,274.489,826.565,276.271L826.565,276.271z"/>
			<g id="A-text5">
				<path fill="#FFFFFF" d="M834.037,269.251h-1.506l-2.918-3.469l-1.635-0.001v3.47h-1.16v-8.725h2.44
					c0.525,0,0.97,0.034,1.316,0.103c0.353,0.069,0.668,0.19,0.949,0.365c0.313,0.2,0.563,0.45,0.741,0.753
					c0.178,0.303,0.267,0.687,0.268,1.151c-0.001,0.629-0.157,1.154-0.476,1.578c-0.317,0.424-0.753,0.743-1.31,0.958
					L834.037,269.251z M831.324,262.981c0-0.25-0.044-0.473-0.132-0.665c-0.088-0.193-0.231-0.356-0.438-0.49
					c-0.168-0.112-0.367-0.191-0.6-0.237c-0.229-0.045-0.502-0.067-0.813-0.066h-1.362v3.292h1.172c0.364,0,0.688-0.032,0.961-0.097
					c0.271-0.065,0.506-0.185,0.694-0.36c0.18-0.164,0.309-0.353,0.393-0.565C831.283,263.583,831.324,263.309,831.324,262.981z"/>
				<path fill="#FFFFFF" d="M837.986,273.248h-3.441v-0.714c0.237-0.205,0.479-0.41,0.719-0.615s0.466-0.408,0.672-0.611
					c0.438-0.424,0.736-0.76,0.897-1.01c0.16-0.249,0.241-0.519,0.24-0.808c0-0.264-0.086-0.471-0.262-0.62
					c-0.176-0.147-0.416-0.224-0.729-0.224c-0.206,0-0.433,0.037-0.675,0.109c-0.238,0.073-0.479,0.186-0.706,0.335l-0.032,0.001
					v-0.718c0.159-0.08,0.377-0.153,0.646-0.22c0.271-0.065,0.528-0.099,0.782-0.099c0.521,0,0.932,0.125,1.229,0.378
					c0.296,0.25,0.441,0.592,0.441,1.022c0,0.193-0.022,0.373-0.071,0.542c-0.05,0.167-0.121,0.326-0.218,0.476
					c-0.09,0.142-0.191,0.279-0.314,0.416c-0.117,0.137-0.263,0.288-0.435,0.456c-0.243,0.237-0.495,0.47-0.757,0.693
					c-0.261,0.225-0.504,0.433-0.729,0.624h2.736v0.586L837.986,273.248L837.986,273.248z"/>
			</g>
		</g>
		<g id="A-SVGStep12">
			<path id="A-point6" fill="#FFFFFF" d="M826.565,759.575c0,1.778-1.445,3.229-3.229,3.229l0,0
				c-1.782,0.001-3.229-1.445-3.229-3.228l0,0c0-1.782,1.442-3.229,3.229-3.23l0,0C825.116,756.349,826.565,757.793,826.565,759.575
				L826.565,759.575z"/>
			<g id="A-text6">
				<path fill="#FFFFFF" d="M835.158,770.065c0,0.343-0.079,0.678-0.235,1.01c-0.158,0.331-0.38,0.608-0.665,0.844
					c-0.313,0.25-0.679,0.443-1.095,0.586s-0.917,0.211-1.503,0.211c-0.629,0-1.192-0.059-1.694-0.176s-1.015-0.291-1.532-0.521
					v-1.45l0.082-0.001c0.439,0.365,0.951,0.648,1.529,0.853c0.576,0.198,1.119,0.299,1.629,0.3
					c0.719-0.001,1.276-0.136,1.682-0.402c0.398-0.271,0.602-0.632,0.602-1.079c0-0.389-0.096-0.672-0.283-0.854
					c-0.188-0.185-0.479-0.326-0.863-0.428c-0.294-0.078-0.608-0.146-0.95-0.193c-0.345-0.049-0.704-0.113-1.087-0.191
					c-0.771-0.163-1.35-0.441-1.723-0.842c-0.373-0.396-0.562-0.912-0.562-1.551c0-0.729,0.311-1.329,0.928-1.796
					c0.616-0.467,1.398-0.7,2.351-0.7c0.612,0,1.178,0.063,1.688,0.179c0.511,0.115,0.966,0.264,1.357,0.436l0.001,1.371
					l-0.082,0.001c-0.331-0.282-0.771-0.521-1.313-0.701c-0.541-0.188-1.097-0.278-1.661-0.278c-0.621,0-1.12,0.131-1.497,0.389
					c-0.377,0.261-0.563,0.593-0.563,0.996c0,0.361,0.096,0.646,0.281,0.854c0.188,0.207,0.518,0.365,0.987,0.478
					c0.25,0.057,0.604,0.118,1.064,0.196s0.854,0.158,1.172,0.24c0.648,0.172,1.139,0.432,1.467,0.776
					C834.995,768.956,835.158,769.439,835.158,770.065z"/>
				<path fill="#FFFFFF" d="M839.842,776.551h-3.44v-0.714c0.236-0.204,0.479-0.409,0.72-0.614c0.241-0.206,0.463-0.407,0.672-0.61
					c0.438-0.423,0.735-0.762,0.897-1.012c0.159-0.249,0.239-0.519,0.239-0.807c0-0.264-0.087-0.472-0.262-0.621
					c-0.176-0.146-0.419-0.224-0.729-0.223c-0.208,0-0.435,0.035-0.675,0.104c-0.24,0.073-0.479,0.188-0.705,0.335l-0.035,0.001
					v-0.718c0.162-0.08,0.378-0.153,0.646-0.219c0.271-0.066,0.529-0.104,0.781-0.104c0.521,0,0.934,0.126,1.229,0.38
					c0.296,0.25,0.439,0.596,0.439,1.021c0,0.193-0.021,0.375-0.07,0.542c-0.051,0.167-0.119,0.326-0.219,0.479
					c-0.091,0.144-0.189,0.276-0.313,0.413c-0.12,0.142-0.27,0.289-0.438,0.456c-0.242,0.238-0.494,0.476-0.756,0.693
					c-0.26,0.225-0.502,0.433-0.727,0.624h2.731v0.586h0.006v0.004h0.005L839.842,776.551L839.842,776.551z"/>
			</g>
		</g>
		<g id="A-SVGStep13">
			<path id="A-point7" fill="#FFFFFF" d="M584.908,1001.229c0,1.781-1.443,3.229-3.229,3.229l0,0c-1.78,0-3.229-1.447-3.229-3.229
				l0,0c0-1.777,1.445-3.229,3.229-3.229l0,0C583.464,998.003,584.908,999.447,584.908,1001.229L584.908,1001.229z"/>
			<g id="A-text7">
				<path fill="#FFFFFF" d="M593.386,1006.516h-3.114v7.693h-1.16v-7.693h-3.117v-1.029l7.396,0.001L593.386,1006.516
					L593.386,1006.516z"/>
				<path fill="#FFFFFF" d="M597.382,1018.205h-3.44v-0.714c0.236-0.205,0.479-0.41,0.72-0.615c0.241-0.204,0.464-0.408,0.671-0.61
					c0.438-0.424,0.736-0.76,0.896-1.01s0.241-0.521,0.241-0.809c0-0.269-0.087-0.475-0.261-0.62
					c-0.177-0.148-0.418-0.229-0.729-0.229c-0.207,0.001-0.435,0.037-0.676,0.109c-0.239,0.074-0.479,0.186-0.707,0.336
					l-0.032-0.001l0.001-0.718c0.16-0.078,0.377-0.152,0.646-0.222c0.271-0.063,0.529-0.101,0.781-0.101
					c0.521,0,0.933,0.126,1.229,0.379c0.299,0.25,0.442,0.591,0.442,1.021c0,0.189-0.021,0.374-0.071,0.542
					c-0.049,0.167-0.121,0.323-0.217,0.477c-0.092,0.146-0.192,0.279-0.313,0.416c-0.121,0.138-0.269,0.289-0.438,0.455
					c-0.244,0.238-0.496,0.471-0.758,0.694c-0.26,0.225-0.502,0.433-0.729,0.624h2.734v0.586h0.005v0.004h0.004V1018.205
					L597.382,1018.205z"/>
			</g>
		</g>
		<g id="A-SVGStep14">
			<path id="A-point8" fill="#FFFFFF" d="M343.255,759.575c0,1.778-1.445,3.229-3.229,3.229l0,0
				c-1.782-0.001-3.229-1.446-3.229-3.229l0,0c0-1.781,1.443-3.23,3.229-3.229l0,0C341.807,756.349,343.255,757.794,343.255,759.575
				L343.255,759.575z"/>
			<g id="A-text8">
				<path fill="#FFFFFF" d="M330.077,768.051c0,0.633-0.067,1.187-0.208,1.656c-0.139,0.47-0.364,0.86-0.683,1.174
					c-0.304,0.297-0.652,0.514-1.058,0.65c-0.399,0.136-0.871,0.205-1.405,0.205c-0.547,0-1.021-0.072-1.431-0.222
					c-0.407-0.145-0.748-0.354-1.021-0.639c-0.317-0.317-0.545-0.707-0.686-1.16s-0.208-1.01-0.208-1.67v-5.221h1.158v5.277
					c0,0.475,0.032,0.848,0.099,1.116c0.063,0.273,0.173,0.521,0.324,0.744c0.173,0.255,0.404,0.445,0.699,0.574
					s0.647,0.193,1.063,0.193c0.418,0,0.772-0.063,1.065-0.189c0.293-0.128,0.527-0.318,0.703-0.578
					c0.151-0.223,0.263-0.478,0.326-0.765s0.097-0.646,0.096-1.069v-5.309h1.16v5.223h0.003L330.077,768.051L330.077,768.051z"/>
				<path fill="#FFFFFF" d="M335.115,775.551h-3.441v-0.714c0.237-0.204,0.479-0.41,0.72-0.614c0.241-0.205,0.465-0.407,0.673-0.61
					c0.438-0.425,0.734-0.762,0.896-1.012c0.159-0.249,0.24-0.519,0.241-0.808c0-0.263-0.087-0.471-0.261-0.62
					c-0.175-0.146-0.418-0.224-0.729-0.223c-0.208-0.001-0.434,0.035-0.672,0.104c-0.243,0.072-0.479,0.188-0.708,0.334h-0.035
					v-0.718c0.162-0.079,0.377-0.152,0.646-0.219c0.271-0.065,0.531-0.104,0.784-0.104c0.521,0.001,0.93,0.126,1.227,0.38
					c0.297,0.25,0.443,0.595,0.443,1.021c0,0.193-0.022,0.374-0.073,0.541c-0.048,0.168-0.12,0.326-0.217,0.477
					c-0.09,0.146-0.191,0.279-0.313,0.416c-0.12,0.142-0.267,0.289-0.438,0.455c-0.244,0.238-0.496,0.476-0.755,0.694
					c-0.263,0.225-0.501,0.433-0.729,0.625l2.734-0.001v0.586l0.003,0.001l-0.001,0.003l0,0v0.004H335.115z"/>
			</g>
		</g>
		<g id="A-SVGStep15">
			<circle id="geo6" fill="none" stroke="#FFFFFF" stroke-miterlimit="10" cx="581.68" cy="517.926" r="341.749"/>
		</g>
		<g id="A-SVGStep16">
			<path id="A-point9" fill="#FFFFFF" d="M243.16,517.926c0,1.781-1.445,3.23-3.229,3.229l0,0c-1.782,0.001-3.229-1.447-3.229-3.229
				l0,0c0-1.781,1.443-3.228,3.229-3.228l0,0C241.714,514.699,243.16,516.144,243.16,517.926L243.16,517.926z"/>
			<g id="A-text9">
				<path fill="#FFFFFF" d="M231.72,500.212l-3.179,8.727h-1.547l-3.178-8.726h1.242l2.733,7.676l2.734-7.676L231.72,500.212
					L231.72,500.212z"/>
				<path fill="#FFFFFF" d="M235.865,512.933h-3.444v-0.713c0.239-0.206,0.479-0.411,0.722-0.614
					c0.237-0.204,0.464-0.404,0.671-0.607c0.438-0.424,0.733-0.762,0.896-1.012s0.242-0.521,0.242-0.811
					c0-0.263-0.087-0.47-0.263-0.62c-0.174-0.145-0.417-0.223-0.729-0.224c-0.208,0-0.433,0.038-0.673,0.107
					c-0.241,0.071-0.479,0.188-0.708,0.336h-0.034v-0.721c0.162-0.079,0.379-0.148,0.646-0.219c0.271-0.064,0.531-0.099,0.784-0.099
					c0.521,0,0.932,0.125,1.228,0.378c0.296,0.251,0.442,0.591,0.442,1.021c0,0.193-0.023,0.374-0.072,0.542
					c-0.051,0.167-0.122,0.326-0.219,0.479c-0.089,0.141-0.191,0.274-0.313,0.416c-0.119,0.137-0.267,0.289-0.438,0.456
					c-0.244,0.233-0.496,0.471-0.755,0.689c-0.26,0.229-0.502,0.438-0.729,0.625h2.734v0.585h0.004v0.002h0.006V512.933z"/>
			</g>
		</g>
		<g id="A-SVGStep17">
			<path id="A-point10" fill="#FFFFFF" d="M584.906,176.177c0,1.781-1.443,3.229-3.229,3.229l0,0c-1.778,0-3.229-1.447-3.229-3.229
				l0,0c0-1.78,1.445-3.228,3.229-3.228l0,0C583.463,172.949,584.906,174.395,584.906,176.177L584.906,176.177z"/>
			<g id="A-text10">
				<path fill="#FFFFFF" d="M597.742,180.463l-2.271,8.725h-1.308l-1.834-7.242l-1.794,7.242h-1.275l-2.311-8.725h1.188l1.834,7.253
					l1.808-7.253h1.179l1.821,7.324l1.822-7.324H597.742z"/>
				<path fill="#FFFFFF" d="M602.277,193.184h-3.442v-0.714c0.238-0.205,0.479-0.41,0.72-0.614c0.239-0.206,0.464-0.409,0.672-0.611
					c0.438-0.424,0.736-0.76,0.896-1.01c0.161-0.25,0.242-0.519,0.242-0.809c0-0.263-0.087-0.47-0.263-0.62
					c-0.176-0.148-0.416-0.224-0.729-0.224c-0.208,0-0.432,0.037-0.674,0.109c-0.241,0.073-0.479,0.185-0.707,0.334h-0.034v-0.718
					c0.162-0.079,0.38-0.152,0.647-0.219c0.271-0.065,0.528-0.1,0.781-0.099c0.521,0,0.934,0.125,1.229,0.378
					c0.296,0.251,0.442,0.592,0.442,1.021c0,0.193-0.023,0.375-0.072,0.542c-0.05,0.167-0.121,0.326-0.218,0.478
					c-0.091,0.141-0.191,0.279-0.313,0.416c-0.119,0.137-0.265,0.288-0.436,0.455c-0.243,0.239-0.495,0.471-0.757,0.694
					c-0.262,0.225-0.503,0.433-0.729,0.624h2.736v0.585h0.009V193.184L602.277,193.184z"/>
			</g>
		</g>
		<g id="A-SVGStep18">
			<path id="A-point11" fill="#FFFFFF" d="M926.656,517.927c0,1.781-1.443,3.23-3.229,3.229l0,0
				c-1.778,0.001-3.229-1.447-3.229-3.229l0,0c0-1.78,1.444-3.228,3.229-3.228l0,0C925.213,514.7,926.656,516.145,926.656,517.927
				L926.656,517.927z"/>
			<g id="A-text11">
				<path fill="#FFFFFF" d="M929.712,529.316l4.483-6.563v-0.036h-4.104l0.001-0.876h5.457v0.636l-4.461,6.538v0.034h4.521v0.877
					h-5.901L929.712,529.316L929.712,529.316z"/>
				<path fill="#FFFFFF" d="M936.301,533.924v-0.377l0.48-0.469c1.16-1.104,1.686-1.691,1.689-2.376c0-0.461-0.225-0.89-0.9-0.89
					c-0.412,0-0.754,0.21-0.964,0.387l-0.195-0.438c0.313-0.266,0.764-0.461,1.285-0.461c0.979,0,1.393,0.672,1.393,1.32
					c0,0.839-0.605,1.518-1.563,2.438l-0.364,0.336v0.017h2.042v0.51L936.301,533.924L936.301,533.924z"/>
			</g>
		</g>
		<g id="A-SVGStep19">
			<path id="A-point12" fill="#FFFFFF" d="M584.863,859.86c0,1.78-1.443,3.229-3.229,3.229l0,0
				c-1.779,0.001-3.229-1.447-3.229-3.229l0,0c0-1.78,1.443-3.229,3.229-3.229l0,0C583.416,856.634,584.863,858.078,584.863,859.86
				L584.863,859.86z"/>
			<g id="A-text12">
				<path fill="#FFFFFF" d="M595.608,871.86h-1.236l-0.854-2.434h-3.771l-0.854,2.434h-1.178l3.176-8.727h1.549L595.608,871.86z
					 M593.156,868.434l-1.527-4.281l-1.535,4.283L593.156,868.434z"/>
				<path fill="#FFFFFF" d="M599.304,873.408c0.107,0.098,0.199,0.221,0.271,0.368c0.072,0.146,0.104,0.34,0.104,0.57
					c0,0.232-0.041,0.446-0.127,0.644c-0.084,0.189-0.202,0.357-0.354,0.506c-0.17,0.157-0.371,0.272-0.604,0.353
					c-0.23,0.077-0.482,0.114-0.76,0.115c-0.282-0.001-0.563-0.033-0.834-0.102c-0.272-0.069-0.497-0.145-0.675-0.224v-0.714
					l0.054,0.001c0.191,0.126,0.421,0.233,0.685,0.316c0.262,0.084,0.515,0.126,0.759,0.126c0.146,0,0.296-0.023,0.458-0.071
					c0.161-0.048,0.292-0.118,0.395-0.212c0.104-0.102,0.185-0.21,0.231-0.331c0.053-0.121,0.077-0.271,0.077-0.458
					c0-0.183-0.029-0.333-0.087-0.453c-0.061-0.119-0.141-0.213-0.241-0.278c-0.104-0.069-0.229-0.117-0.372-0.146
					c-0.146-0.027-0.303-0.039-0.472-0.039h-0.31v-0.566h0.237c0.349,0,0.623-0.068,0.829-0.218
					c0.206-0.145,0.311-0.354,0.311-0.634c0-0.123-0.024-0.229-0.078-0.322c-0.054-0.093-0.126-0.168-0.22-0.228
					c-0.099-0.063-0.202-0.104-0.313-0.123c-0.11-0.022-0.237-0.034-0.38-0.034c-0.217,0-0.444,0.04-0.688,0.116
					c-0.242,0.078-0.476,0.188-0.688,0.328h-0.033v-0.714c0.16-0.08,0.377-0.153,0.646-0.225c0.271-0.063,0.53-0.101,0.783-0.101
					c0.248,0.001,0.467,0.021,0.655,0.065c0.188,0.05,0.358,0.117,0.514,0.222c0.163,0.105,0.288,0.239,0.372,0.396
					s0.126,0.337,0.126,0.544c0,0.281-0.102,0.528-0.299,0.739c-0.199,0.21-0.437,0.343-0.705,0.396v0.049
					c0.107,0.018,0.232,0.057,0.376,0.111C599.088,873.249,599.206,873.321,599.304,873.408z"/>
			</g>
		</g>
		<g id="A-SVGStep20">
			<line id="geo11" fill="none" stroke="#FFFFFF" stroke-miterlimit="10" x1="340.026" y1="276.272" x2="823.336" y2="759.575"/>
		</g>
		<g id="A-SVGStep21">
			<line id="geo12" fill="none" stroke="#FFFFFF" stroke-miterlimit="10" x1="823.335" y1="276.272" x2="340.027" y2="759.576"/>
		</g>
		<g id="A-SVGStep22">
			<path id="A-point14" fill="#FFFFFF" d="M414.079,347.173c0,1.781-1.443,3.229-3.227,3.229l0,0c-1.783,0-3.23-1.447-3.23-3.229
				l0,0c0-1.781,1.445-3.228,3.23-3.228l0,0C412.633,343.947,414.079,345.391,414.079,347.173L414.079,347.173z"/>
			<g id="A-text14">
				<path fill="#FFFFFF" d="M426.438,348.824c0,0.434-0.082,0.816-0.246,1.148s-0.385,0.605-0.662,0.82
					c-0.328,0.258-0.688,0.441-1.081,0.551c-0.393,0.11-0.892,0.164-1.497,0.164h-3.094v-8.725h2.584c0.637,0,1.113,0.023,1.43,0.07
					c0.317,0.047,0.619,0.145,0.908,0.293c0.32,0.168,0.553,0.384,0.697,0.647c0.144,0.263,0.217,0.579,0.217,0.946
					c0,0.414-0.104,0.767-0.314,1.058c-0.213,0.291-0.492,0.524-0.846,0.7v0.047c0.59,0.121,1.057,0.38,1.396,0.776
					S426.438,348.218,426.438,348.824z M424.487,344.892c0-0.211-0.035-0.389-0.104-0.533c-0.07-0.144-0.186-0.262-0.342-0.352
					c-0.184-0.105-0.404-0.171-0.668-0.196c-0.262-0.025-0.586-0.038-0.973-0.038h-1.383v2.52h1.5c0.363,0,0.652-0.019,0.867-0.056
					c0.215-0.037,0.414-0.114,0.598-0.231c0.184-0.117,0.313-0.269,0.39-0.454C424.448,345.367,424.487,345.146,424.487,344.892z
					 M425.231,348.871c0-0.352-0.053-0.631-0.158-0.838c-0.104-0.207-0.297-0.383-0.574-0.527c-0.188-0.098-0.413-0.161-0.683-0.19
					c-0.268-0.029-0.593-0.044-0.976-0.044h-1.822v3.246h1.535c0.508,0,0.924-0.026,1.248-0.079c0.322-0.053,0.59-0.149,0.797-0.29
					c0.219-0.152,0.379-0.326,0.479-0.521C425.179,349.433,425.231,349.179,425.231,348.871z"/>
				<path fill="#FFFFFF" d="M430.456,353.054c0.109,0.098,0.199,0.221,0.271,0.369c0.07,0.148,0.104,0.339,0.104,0.574
					c0,0.232-0.04,0.445-0.126,0.639c-0.084,0.193-0.201,0.362-0.354,0.505c-0.171,0.16-0.372,0.277-0.604,0.354
					c-0.229,0.076-0.482,0.114-0.76,0.114c-0.283,0-0.561-0.034-0.833-0.101c-0.271-0.067-0.498-0.14-0.673-0.22v-0.714h0.051
					c0.194,0.127,0.421,0.233,0.685,0.318c0.262,0.084,0.515,0.126,0.759,0.126c0.143,0,0.296-0.024,0.458-0.072
					c0.162-0.048,0.292-0.119,0.393-0.212c0.104-0.1,0.185-0.21,0.234-0.332c0.051-0.121,0.077-0.273,0.077-0.458
					c0-0.182-0.029-0.333-0.087-0.453c-0.06-0.12-0.141-0.213-0.241-0.282c-0.104-0.071-0.229-0.119-0.373-0.146
					c-0.146-0.026-0.303-0.039-0.471-0.039h-0.31v-0.567h0.239c0.346,0,0.622-0.072,0.828-0.217
					c0.206-0.145,0.309-0.355,0.309-0.633c0-0.123-0.024-0.231-0.079-0.323c-0.052-0.092-0.125-0.167-0.218-0.227
					c-0.098-0.059-0.203-0.1-0.313-0.123c-0.112-0.022-0.238-0.034-0.379-0.034c-0.219,0-0.447,0.039-0.69,0.116
					c-0.244,0.078-0.474,0.187-0.69,0.328h-0.032v-0.714c0.161-0.08,0.377-0.153,0.646-0.221c0.271-0.067,0.531-0.101,0.784-0.101
					c0.249,0,0.467,0.023,0.656,0.068c0.188,0.045,0.358,0.119,0.512,0.219c0.164,0.109,0.288,0.241,0.373,0.396
					c0.084,0.155,0.126,0.336,0.126,0.543c0,0.282-0.1,0.529-0.299,0.739c-0.199,0.211-0.436,0.343-0.705,0.398v0.048
					c0.107,0.019,0.232,0.057,0.375,0.115C430.24,352.892,430.36,352.968,430.456,353.054z"/>
			</g>
		</g>
		<g id="A-SVGStep23">
			<path id="A-point15" fill="#FFFFFF" d="M755.924,347.173c0,1.781-1.443,3.229-3.229,3.229l0,0c-1.783,0-3.229-1.447-3.229-3.229
				l0,0c0-1.782,1.443-3.228,3.229-3.228l0,0C754.474,343.947,755.924,345.391,755.924,347.173L755.924,347.173z"/>
			<g id="A-text15">
				<path fill="#FFFFFF" d="M767.346,349.874c-0.215,0.094-0.408,0.182-0.582,0.264s-0.402,0.168-0.686,0.258
					c-0.236,0.074-0.494,0.138-0.773,0.19c-0.279,0.052-0.588,0.079-0.924,0.079c-0.635,0-1.207-0.089-1.727-0.267
					c-0.518-0.178-0.969-0.456-1.352-0.835c-0.375-0.371-0.668-0.843-0.879-1.415c-0.211-0.572-0.316-1.237-0.316-1.995
					c0-0.719,0.104-1.361,0.305-1.928c0.203-0.567,0.496-1.045,0.881-1.436c0.369-0.379,0.818-0.668,1.346-0.867
					c0.525-0.199,1.105-0.299,1.748-0.299c0.469,0,0.938,0.057,1.404,0.17c0.466,0.113,0.982,0.313,1.555,0.598v1.377h-0.088
					c-0.48-0.402-0.957-0.695-1.432-0.879c-0.473-0.184-0.979-0.275-1.518-0.275c-0.441,0-0.838,0.071-1.191,0.214
					c-0.353,0.143-0.67,0.364-0.945,0.665c-0.271,0.293-0.479,0.663-0.629,1.11c-0.15,0.447-0.229,0.964-0.229,1.55
					c0,0.613,0.084,1.141,0.25,1.582s0.379,0.801,0.641,1.078c0.273,0.289,0.596,0.503,0.959,0.642
					c0.365,0.139,0.75,0.208,1.156,0.208c0.561,0,1.082-0.096,1.57-0.287s0.945-0.479,1.371-0.861h0.082L767.346,349.874
					L767.346,349.874z"/>
				<path fill="#FFFFFF" d="M771.362,352.054c0.109,0.098,0.199,0.221,0.271,0.369c0.068,0.148,0.104,0.339,0.104,0.574
					c0,0.232-0.042,0.445-0.126,0.639c-0.085,0.193-0.203,0.362-0.354,0.505c-0.171,0.16-0.372,0.277-0.604,0.354
					c-0.229,0.076-0.482,0.114-0.76,0.114c-0.283,0-0.561-0.034-0.834-0.101c-0.273-0.067-0.498-0.14-0.674-0.22v-0.714h0.052
					c0.194,0.127,0.421,0.233,0.683,0.318c0.265,0.084,0.518,0.126,0.762,0.126c0.143,0,0.295-0.024,0.457-0.072
					c0.16-0.048,0.293-0.119,0.393-0.212c0.104-0.1,0.184-0.21,0.234-0.332c0.051-0.121,0.074-0.273,0.074-0.458
					c0-0.182-0.026-0.333-0.086-0.453c-0.059-0.12-0.139-0.213-0.239-0.282c-0.104-0.071-0.229-0.119-0.372-0.146
					c-0.146-0.026-0.305-0.039-0.474-0.039h-0.308v-0.567h0.239c0.347,0,0.622-0.072,0.828-0.217c0.206-0.145,0.31-0.355,0.31-0.633
					c0-0.123-0.026-0.231-0.079-0.323c-0.052-0.092-0.125-0.167-0.218-0.227c-0.1-0.059-0.203-0.1-0.314-0.123
					c-0.11-0.022-0.236-0.034-0.379-0.034c-0.217,0-0.447,0.039-0.689,0.116c-0.243,0.078-0.475,0.187-0.689,0.328h-0.034v-0.714
					c0.161-0.08,0.378-0.153,0.647-0.221c0.27-0.067,0.529-0.101,0.783-0.101c0.249,0,0.468,0.023,0.654,0.068
					c0.189,0.045,0.36,0.119,0.515,0.219c0.164,0.109,0.288,0.241,0.372,0.396c0.084,0.155,0.127,0.336,0.127,0.543
					c0,0.282-0.102,0.529-0.301,0.739c-0.197,0.211-0.435,0.343-0.705,0.398v0.048c0.109,0.019,0.234,0.057,0.375,0.115
					C771.144,351.892,771.263,351.967,771.362,352.054z"/>
			</g>
		</g>
		<g id="A-SVGStep24">
			<path id="A-point16" fill="#FFFFFF" d="M755.758,688.789c0,1.778-1.444,3.228-3.229,3.228l0,0c-1.783,0-3.229-1.445-3.229-3.228
				l0,0c0-1.782,1.443-3.229,3.229-3.23l0,0C754.309,685.563,755.758,687.005,755.758,688.789L755.758,688.789z"/>
			<g id="A-text16">
				<path fill="#FFFFFF" d="M767.979,689.115c0,0.793-0.173,1.512-0.519,2.156c-0.348,0.644-0.808,1.145-1.382,1.5
					c-0.396,0.244-0.843,0.424-1.333,0.531c-0.488,0.109-1.136,0.164-1.937,0.164h-2.203v-8.725h2.18
					c0.854,0,1.528,0.061,2.03,0.184s0.927,0.293,1.274,0.509c0.594,0.37,1.057,0.864,1.389,1.481S767.979,688.268,767.979,689.115z
					 M766.766,689.098c0-0.684-0.119-1.26-0.357-1.729c-0.236-0.469-0.594-0.838-1.064-1.107c-0.346-0.193-0.709-0.332-1.098-0.408
					c-0.387-0.074-0.85-0.111-1.389-0.111h-1.09v6.73h1.09c0.561,0,1.046-0.041,1.462-0.123s0.798-0.232,1.146-0.457
					c0.434-0.275,0.759-0.643,0.976-1.096S766.766,689.777,766.766,689.098z"/>
				<path fill="#FFFFFF" d="M772.228,695.016c0.109,0.1,0.199,0.223,0.271,0.368c0.07,0.148,0.105,0.339,0.105,0.574
					c0,0.231-0.042,0.445-0.126,0.639c-0.085,0.193-0.203,0.362-0.354,0.505c-0.172,0.16-0.371,0.277-0.604,0.354
					c-0.229,0.076-0.484,0.114-0.76,0.114c-0.282,0-0.563-0.033-0.833-0.104c-0.273-0.064-0.498-0.14-0.674-0.22v-0.714h0.052
					c0.191,0.127,0.421,0.231,0.683,0.316c0.265,0.084,0.517,0.126,0.759,0.126c0.146,0,0.297-0.022,0.458-0.069
					c0.161-0.049,0.292-0.119,0.395-0.213c0.104-0.102,0.183-0.211,0.232-0.331c0.053-0.12,0.076-0.272,0.076-0.458
					c0-0.184-0.026-0.332-0.087-0.452c-0.058-0.12-0.139-0.214-0.24-0.282c-0.103-0.07-0.228-0.119-0.372-0.145
					c-0.146-0.026-0.304-0.039-0.472-0.039h-0.308v-0.567h0.239c0.346,0,0.621-0.072,0.826-0.218
					c0.206-0.146,0.311-0.355,0.311-0.633c0-0.123-0.025-0.23-0.078-0.323c-0.053-0.092-0.125-0.167-0.219-0.229
					c-0.1-0.059-0.202-0.1-0.314-0.123c-0.109-0.021-0.237-0.031-0.379-0.031c-0.217,0-0.446,0.037-0.69,0.113
					c-0.241,0.078-0.474,0.188-0.688,0.328H769.4v-0.713c0.161-0.08,0.377-0.154,0.647-0.221c0.27-0.067,0.529-0.104,0.781-0.104
					c0.249,0,0.47,0.023,0.656,0.068c0.189,0.046,0.36,0.119,0.513,0.219c0.164,0.109,0.288,0.242,0.372,0.396
					c0.084,0.153,0.128,0.336,0.128,0.543c0,0.283-0.102,0.527-0.301,0.738c-0.198,0.213-0.434,0.345-0.705,0.397v0.048
					c0.109,0.021,0.234,0.057,0.376,0.115C772.01,694.856,772.13,694.929,772.228,695.016z"/>
			</g>
		</g>
		<g id="A-SVGStep25">
			<path id="A-point17" fill="#FFFFFF" d="M414.036,688.788c0,1.78-1.443,3.229-3.227,3.229l0,0c-1.783,0-3.23-1.445-3.23-3.229l0,0
				c0-1.781,1.445-3.229,3.23-3.229l0,0C412.589,685.563,414.036,687.005,414.036,688.788L414.036,688.788z"/>
			<g id="A-text17">
				<path fill="#FFFFFF" d="M424.606,692.467h-5.748v-8.725h5.748v1.031h-4.588v2.391h4.588v1.031h-4.588v3.238h4.588V692.467z"/>
				<path fill="#FFFFFF" d="M428.82,694.014c0.109,0.1,0.199,0.223,0.271,0.369c0.068,0.148,0.104,0.34,0.104,0.574
					c0,0.232-0.042,0.445-0.126,0.639c-0.085,0.193-0.203,0.362-0.354,0.506c-0.171,0.159-0.372,0.277-0.604,0.354
					c-0.229,0.076-0.482,0.114-0.76,0.114c-0.282,0-0.563-0.034-0.833-0.103c-0.273-0.065-0.498-0.141-0.674-0.221v-0.714h0.052
					c0.193,0.128,0.421,0.231,0.683,0.315c0.265,0.084,0.517,0.127,0.761,0.127c0.144,0,0.296-0.021,0.458-0.07
					c0.159-0.047,0.292-0.118,0.393-0.211c0.104-0.103,0.183-0.211,0.234-0.332c0.051-0.121,0.074-0.273,0.074-0.457
					c0-0.185-0.026-0.334-0.087-0.453c-0.058-0.119-0.139-0.213-0.238-0.281c-0.104-0.071-0.229-0.119-0.373-0.146
					c-0.146-0.025-0.305-0.039-0.473-0.039h-0.308v-0.566h0.239c0.346,0,0.622-0.072,0.828-0.217
					c0.206-0.146,0.309-0.355,0.309-0.634c0-0.123-0.025-0.231-0.078-0.323s-0.125-0.168-0.219-0.227
					c-0.098-0.062-0.202-0.103-0.314-0.123c-0.109-0.023-0.235-0.035-0.379-0.035c-0.217,0-0.444,0.039-0.688,0.117
					c-0.243,0.076-0.476,0.187-0.689,0.326h-0.034v-0.715c0.161-0.08,0.377-0.15,0.647-0.221c0.27-0.066,0.531-0.1,0.783-0.1
					c0.249,0,0.468,0.021,0.654,0.066c0.189,0.045,0.36,0.118,0.515,0.221c0.164,0.107,0.288,0.238,0.372,0.396
					s0.127,0.336,0.127,0.544c0,0.281-0.103,0.528-0.3,0.738c-0.199,0.211-0.436,0.344-0.705,0.396v0.048
					c0.107,0.021,0.232,0.059,0.376,0.114C428.602,693.855,428.722,693.928,428.82,694.014z"/>
			</g>
		</g>
		<g id="A-SVGStep26">
			<line id="geo13" fill="none" stroke="#FFFFFF" stroke-miterlimit="10" x1="239.934" y1="517.926" x2="823.335" y2="276.272"/>
		</g>
		<g id="A-SVGStep27">
			<line id="geo14" fill="none" stroke="#FFFFFF" stroke-miterlimit="10" x1="923.429" y1="517.926" x2="340.026" y2="276.272"/>
		</g>
		<g id="A-SVGStep28">
			<line id="geo15" fill="none" stroke="#FFFFFF" stroke-miterlimit="10" x1="239.934" y1="517.926" x2="823.336" y2="759.575"/>
		</g>
		<g id="A-SVGStep29">
			<line id="geo16" fill="none" stroke="#FFFFFF" stroke-miterlimit="10" x1="923.429" y1="517.926" x2="340.027" y2="759.576"/>
		</g>
		<g id="A-SVGStep30">
			<path id="A-point18" fill="#FFFFFF" d="M484.661,418.008c0,1.78-1.443,3.229-3.227,3.229l0,0c-1.782,0-3.229-1.446-3.229-3.229
				l0,0c0-1.781,1.445-3.227,3.229-3.227l0,0C483.215,414.781,484.661,416.224,484.661,418.008L484.661,418.008z"/>
			<g id="A-text18">
				<path fill="#FFFFFF" d="M481.007,426.265h-4.412v2.461h3.791v1.031h-3.791v4.201h-1.16v-8.725h5.572V426.265z"/>
				<path fill="#FFFFFF" d="M484.703,435.505c0.109,0.098,0.199,0.221,0.271,0.369c0.07,0.148,0.104,0.339,0.104,0.574
					c0,0.23-0.042,0.443-0.126,0.639c-0.084,0.193-0.202,0.362-0.354,0.505c-0.171,0.16-0.372,0.277-0.604,0.354
					c-0.229,0.076-0.482,0.112-0.76,0.112c-0.283,0-0.561-0.032-0.833-0.101c-0.271-0.068-0.498-0.14-0.673-0.22v-0.714h0.051
					c0.194,0.127,0.421,0.231,0.685,0.316c0.262,0.084,0.515,0.126,0.759,0.126c0.143,0,0.296-0.022,0.458-0.07
					c0.162-0.05,0.292-0.119,0.393-0.214c0.104-0.1,0.185-0.21,0.234-0.331c0.05-0.12,0.077-0.272,0.077-0.459
					c0-0.182-0.029-0.332-0.087-0.451c-0.06-0.12-0.141-0.215-0.241-0.282c-0.104-0.071-0.229-0.119-0.373-0.146
					c-0.146-0.024-0.303-0.039-0.471-0.039h-0.31v-0.565h0.239c0.346,0,0.622-0.072,0.828-0.217
					c0.206-0.146,0.309-0.355,0.309-0.635c0-0.123-0.024-0.229-0.079-0.321c-0.052-0.094-0.125-0.167-0.218-0.229
					c-0.098-0.059-0.203-0.1-0.313-0.123c-0.112-0.021-0.238-0.034-0.381-0.034c-0.217,0-0.445,0.039-0.688,0.116
					c-0.244,0.078-0.474,0.188-0.69,0.328h-0.032v-0.714c0.16-0.08,0.377-0.153,0.646-0.221c0.271-0.067,0.531-0.103,0.784-0.103
					c0.249,0,0.467,0.023,0.656,0.068c0.188,0.045,0.358,0.119,0.512,0.219c0.164,0.109,0.288,0.241,0.373,0.396
					c0.084,0.153,0.126,0.336,0.126,0.543c0,0.28-0.102,0.527-0.299,0.737c-0.199,0.211-0.436,0.345-0.705,0.398v0.048
					c0.107,0.02,0.232,0.057,0.375,0.115C484.487,435.343,484.607,435.418,484.703,435.505z"/>
			</g>
		</g>
		<g id="A-SVGStep31">
			<path id="A-point19" fill="#FFFFFF" d="M684.912,418.007c0,1.782-1.443,3.229-3.227,3.229l0,0c-1.784,0-3.229-1.446-3.229-3.229
				l0,0c0-1.782,1.443-3.229,3.229-3.228l0,0C683.465,414.78,684.912,416.224,684.912,418.007L684.912,418.007z"/>
			<g id="A-text19">
				<path fill="#FFFFFF" d="M686.211,432.814c-0.479,0.219-0.997,0.407-1.563,0.569c-0.563,0.162-1.11,0.243-1.638,0.243
					c-0.682,0-1.305-0.094-1.869-0.281c-0.566-0.187-1.049-0.469-1.447-0.844c-0.4-0.379-0.713-0.853-0.932-1.421
					c-0.221-0.568-0.328-1.233-0.328-1.995c0-1.395,0.407-2.495,1.222-3.302c0.815-0.808,1.935-1.21,3.354-1.21
					c0.496,0,1.003,0.06,1.521,0.179c0.52,0.119,1.075,0.321,1.673,0.606v1.377H686.1c-0.121-0.096-0.297-0.219-0.527-0.369
					c-0.229-0.152-0.457-0.279-0.68-0.381c-0.271-0.121-0.575-0.224-0.917-0.304c-0.342-0.079-0.729-0.118-1.163-0.118
					c-0.977,0-1.749,0.313-2.317,0.938c-0.566,0.627-0.853,1.478-0.853,2.546c0,1.129,0.297,2.007,0.891,2.634
					c0.594,0.628,1.402,0.94,2.426,0.94c0.375,0,0.75-0.037,1.122-0.111c0.373-0.072,0.7-0.17,0.981-0.287v-2.139h-2.338v-1.02
					h3.486V432.814z"/>
				<path fill="#FFFFFF" d="M690.613,435.005c0.109,0.098,0.199,0.221,0.271,0.369c0.068,0.148,0.104,0.339,0.104,0.574
					c0,0.23-0.043,0.443-0.127,0.639s-0.203,0.362-0.354,0.505c-0.17,0.16-0.371,0.277-0.604,0.354
					c-0.229,0.076-0.482,0.112-0.76,0.112c-0.282,0-0.563-0.032-0.833-0.101c-0.273-0.067-0.498-0.14-0.674-0.22v-0.714h0.051
					c0.194,0.127,0.422,0.231,0.684,0.316c0.264,0.084,0.517,0.126,0.761,0.126c0.144,0,0.296-0.022,0.458-0.07
					c0.159-0.05,0.292-0.119,0.393-0.214c0.104-0.1,0.183-0.21,0.234-0.331c0.051-0.12,0.075-0.272,0.075-0.459
					c0-0.182-0.028-0.332-0.088-0.451c-0.058-0.12-0.139-0.215-0.239-0.282c-0.104-0.071-0.229-0.119-0.372-0.146
					c-0.146-0.024-0.305-0.039-0.474-0.039h-0.307v-0.565h0.238c0.347,0,0.623-0.072,0.828-0.217c0.206-0.146,0.31-0.355,0.31-0.635
					c0-0.123-0.026-0.229-0.079-0.321c-0.052-0.094-0.125-0.167-0.218-0.229c-0.1-0.059-0.202-0.1-0.314-0.123
					c-0.11-0.021-0.235-0.034-0.379-0.034c-0.217,0-0.445,0.039-0.688,0.116c-0.244,0.078-0.476,0.188-0.689,0.328h-0.035v-0.714
					c0.162-0.08,0.378-0.153,0.648-0.221c0.27-0.067,0.53-0.103,0.783-0.103c0.247,0,0.467,0.023,0.654,0.068
					c0.189,0.045,0.359,0.119,0.514,0.219c0.164,0.109,0.289,0.241,0.373,0.396c0.084,0.153,0.127,0.336,0.127,0.543
					c0,0.28-0.103,0.527-0.302,0.737c-0.197,0.211-0.435,0.345-0.703,0.398v0.048c0.107,0.02,0.232,0.057,0.375,0.115
					C690.395,434.847,690.514,434.919,690.613,435.005z"/>
			</g>
		</g>
		<g id="A-SVGStep32">
			<path id="A-point20" fill="#FFFFFF" d="M685.05,618.008c0,1.78-1.444,3.229-3.229,3.229l0,0c-1.783,0-3.229-1.445-3.229-3.229
				l0,0c0-1.781,1.443-3.229,3.229-3.229l0,0C683.6,614.78,685.051,616.224,685.05,618.008L685.05,618.008z"/>
			<g id="A-text20">
				<path fill="#FFFFFF" d="M681.561,632.358h-1.16v-4.271h-4.354v4.271h-1.16v-8.727h1.16v3.422h4.354v-3.422h1.16V632.358z"/>
				<path fill="#FFFFFF" d="M686.278,633.905c0.109,0.098,0.199,0.221,0.271,0.368c0.068,0.146,0.104,0.34,0.104,0.572
					s-0.042,0.445-0.126,0.641c-0.084,0.192-0.203,0.361-0.354,0.506c-0.171,0.16-0.371,0.275-0.604,0.354
					c-0.229,0.076-0.482,0.115-0.76,0.115c-0.282,0-0.561-0.034-0.833-0.102c-0.273-0.066-0.498-0.143-0.673-0.223v-0.713h0.051
					c0.193,0.127,0.422,0.232,0.684,0.317c0.264,0.084,0.516,0.126,0.76,0.126c0.144,0,0.297-0.023,0.458-0.071
					s0.292-0.118,0.394-0.212c0.104-0.1,0.184-0.211,0.233-0.332c0.052-0.12,0.077-0.271,0.077-0.457
					c0-0.182-0.029-0.333-0.09-0.453c-0.058-0.119-0.139-0.213-0.238-0.279c-0.104-0.07-0.229-0.119-0.373-0.146
					c-0.146-0.026-0.305-0.039-0.473-0.039h-0.308v-0.566h0.239c0.346,0,0.622-0.071,0.828-0.218
					c0.206-0.145,0.309-0.354,0.309-0.633c0-0.123-0.025-0.23-0.078-0.324c-0.053-0.092-0.125-0.167-0.219-0.227
					c-0.098-0.06-0.202-0.101-0.314-0.123c-0.109-0.022-0.235-0.034-0.379-0.034c-0.217,0-0.444,0.039-0.688,0.116
					c-0.244,0.078-0.477,0.188-0.69,0.328h-0.034v-0.714c0.162-0.08,0.377-0.153,0.647-0.223c0.27-0.066,0.531-0.101,0.784-0.101
					c0.248,0,0.467,0.023,0.654,0.068c0.188,0.045,0.359,0.117,0.514,0.219c0.164,0.107,0.288,0.241,0.373,0.396
					c0.084,0.154,0.126,0.336,0.126,0.543c0,0.282-0.103,0.529-0.302,0.739c-0.197,0.211-0.434,0.343-0.703,0.397v0.049
					c0.107,0.018,0.232,0.057,0.376,0.114C686.062,633.742,686.18,633.818,686.278,633.905z"/>
			</g>
		</g>
		<g id="A-SVGStep33">
			<path id="A-point21" fill="#FFFFFF" d="M485.245,618.007c0,1.78-1.444,3.229-3.226,3.229l0,0
				c-1.784-0.001-3.231-1.447-3.231-3.229l0,0c0-1.781,1.445-3.228,3.23-3.229l0,0C483.798,614.78,485.245,616.224,485.245,618.007
				L485.245,618.007z"/>
			<g id="A-text21">
				<path fill="#FFFFFF" d="M484.796,633.358h-3.445v-0.893h1.143v-6.942h-1.143v-0.892h3.445v0.892h-1.145v6.942h1.145V633.358z"/>
				<path fill="#FFFFFF" d="M489.144,634.905c0.109,0.098,0.199,0.221,0.27,0.368c0.071,0.146,0.105,0.34,0.105,0.572
					s-0.042,0.445-0.126,0.641c-0.084,0.191-0.203,0.361-0.355,0.506c-0.171,0.16-0.372,0.275-0.603,0.354
					c-0.231,0.076-0.484,0.115-0.76,0.115c-0.283,0-0.563-0.034-0.833-0.102c-0.273-0.066-0.498-0.143-0.673-0.223v-0.713h0.051
					c0.192,0.127,0.421,0.232,0.683,0.317c0.262,0.084,0.517,0.126,0.759,0.126c0.145,0,0.296-0.023,0.458-0.071
					s0.292-0.118,0.395-0.212c0.104-0.1,0.183-0.211,0.232-0.332c0.053-0.12,0.077-0.271,0.077-0.457
					c0-0.182-0.027-0.333-0.087-0.453c-0.058-0.119-0.139-0.213-0.241-0.279c-0.103-0.07-0.227-0.119-0.373-0.146
					c-0.146-0.027-0.303-0.039-0.471-0.039h-0.308v-0.566h0.237c0.348,0,0.622-0.071,0.828-0.218
					c0.206-0.145,0.311-0.354,0.311-0.633c0-0.123-0.026-0.23-0.079-0.324c-0.052-0.092-0.125-0.167-0.218-0.227
					c-0.1-0.06-0.203-0.101-0.314-0.123c-0.112-0.022-0.238-0.034-0.379-0.034c-0.217,0-0.447,0.039-0.69,0.116
					c-0.242,0.078-0.474,0.188-0.688,0.328h-0.034v-0.714c0.162-0.08,0.377-0.153,0.647-0.223c0.27-0.066,0.529-0.101,0.782-0.101
					c0.249,0,0.469,0.023,0.656,0.068c0.189,0.045,0.36,0.117,0.512,0.219c0.164,0.107,0.288,0.241,0.373,0.396
					c0.084,0.154,0.126,0.336,0.126,0.543c0,0.282-0.1,0.529-0.299,0.739c-0.199,0.211-0.434,0.343-0.705,0.397v0.049
					c0.109,0.018,0.234,0.057,0.375,0.114C488.926,634.742,489.046,634.818,489.144,634.905z"/>
			</g>
		</g>
		<g id="A-SVGStep34">
			<circle id="geo18" fill="none" stroke="#FFFFFF" stroke-miterlimit="10" cx="481.604" cy="417.812" r="100.119"/>
		</g>
		<g id="A-SVGStep35">
			<circle id="geo19" fill="none" stroke="#FFFFFF" stroke-miterlimit="10" cx="681.776" cy="417.828" r="100.086"/>
		</g>
		<g id="A-SVGStep36">
			<circle id="geo20" fill="none" stroke="#FFFFFF" stroke-miterlimit="10" cx="681.822" cy="618.007" r="100.086"/>
		</g>
		<g id="A-SVGStep37">
			<circle id="geo21" fill="none" stroke="#FFFFFF" stroke-miterlimit="10" cx="481.604" cy="618.008" r="100.086"/>
		</g>
		<g id="A-SVGStep38">
			
				<circle id="geo25" fill="none" stroke="#FFFFFF" stroke-width="3" stroke-miterlimit="10" cx="481.604" cy="618.008" r="100.086"/>
			
				<circle id="geo24" fill="none" stroke="#FFFFFF" stroke-width="3" stroke-miterlimit="10" cx="681.822" cy="618.007" r="100.086"/>
			
				<circle id="geo23" fill="none" stroke="#FFFFFF" stroke-width="3" stroke-miterlimit="10" cx="681.776" cy="417.828" r="100.086"/>
			
				<circle id="geo22" fill="none" stroke="#FFFFFF" stroke-width="3" stroke-miterlimit="10" cx="481.604" cy="417.812" r="100.119"/>
		</g>
		<g id="A-SVGStep39">
			
				<circle id="geo26" fill="none" stroke="#FFFFFF" stroke-width="3" stroke-miterlimit="10" cx="581.658" cy="517.92" r="241.654"/>
		</g>
		<g id="A-SVGStep40">
			<line id="geo27" fill="none" stroke="#FFFFFF" stroke-miterlimit="10" x1="239.931" y1="517.926" x2="581.678" y2="34.617"/>
		</g>
		<g id="A-SVGStep41">
			<line id="geo28" fill="none" stroke="#FFFFFF" stroke-miterlimit="10" x1="923.429" y1="517.926" x2="581.678" y2="34.617"/>
		</g>
		<g id="A-SVGStep42">
			<line id="geo29" fill="none" stroke="#FFFFFF" stroke-miterlimit="10" x1="923.429" y1="517.926" x2="581.68" y2="1001.23"/>
		</g>
		<g id="A-SVGStep43">
			<line id="geo30" fill="none" stroke="#FFFFFF" stroke-miterlimit="10" x1="239.931" y1="517.926" x2="581.68" y2="1001.23"/>
		</g>
		<g id="A-SVGStep44">
			<path id="A-point22" fill="#FFFFFF" d="M384.745,317.692c0,1.78-1.444,3.229-3.226,3.229l0,0
				c-1.784-0.001-3.231-1.447-3.231-3.229l0,0c0-1.781,1.445-3.228,3.23-3.229l0,0C383.298,314.466,384.745,315.909,384.745,317.692
				L384.745,317.692z"/>
			<g id="A-text22">
				<path fill="#FFFFFF" d="M368.786,315.982c0,0.766-0.232,1.355-0.699,1.77c-0.468,0.415-1.094,0.621-1.878,0.621
					c-0.188,0-0.438-0.017-0.75-0.05c-0.313-0.033-0.574-0.073-0.785-0.12v-1.084h0.063c0.16,0.055,0.357,0.111,0.592,0.17
					c0.235,0.059,0.476,0.088,0.722,0.088c0.358,0,0.646-0.041,0.857-0.123s0.37-0.199,0.473-0.352
					c0.104-0.156,0.173-0.348,0.201-0.574c0.029-0.226,0.045-0.488,0.045-0.785v-5.092h-1.847v-0.926h3.006V315.982z"/>
				<path fill="#FFFFFF" d="M373.416,319.797c0.109,0.098,0.199,0.221,0.271,0.369c0.07,0.148,0.104,0.339,0.104,0.574
					c0,0.232-0.041,0.445-0.126,0.639c-0.084,0.193-0.202,0.362-0.354,0.505c-0.171,0.16-0.372,0.277-0.604,0.354
					c-0.23,0.076-0.483,0.114-0.76,0.114c-0.283,0-0.561-0.034-0.833-0.101s-0.498-0.14-0.673-0.22v-0.714h0.051
					c0.194,0.127,0.421,0.233,0.684,0.318c0.262,0.084,0.515,0.126,0.759,0.126c0.143,0,0.296-0.024,0.458-0.072
					s0.292-0.119,0.393-0.212c0.104-0.1,0.184-0.21,0.234-0.332c0.051-0.121,0.077-0.273,0.077-0.458
					c0-0.182-0.029-0.333-0.087-0.453c-0.059-0.12-0.14-0.213-0.241-0.282c-0.104-0.071-0.228-0.119-0.373-0.146
					c-0.146-0.026-0.303-0.039-0.471-0.039h-0.309V319.2h0.239c0.346,0,0.622-0.072,0.828-0.217s0.309-0.355,0.309-0.633
					c0-0.123-0.025-0.231-0.079-0.323c-0.052-0.092-0.125-0.167-0.218-0.227c-0.098-0.059-0.203-0.1-0.313-0.123
					c-0.112-0.022-0.238-0.034-0.379-0.034c-0.218,0-0.447,0.039-0.69,0.116c-0.244,0.078-0.474,0.188-0.69,0.328h-0.033v-0.714
					c0.161-0.08,0.377-0.153,0.646-0.221c0.271-0.067,0.531-0.101,0.784-0.101c0.249,0,0.467,0.023,0.656,0.068
					c0.188,0.045,0.359,0.119,0.512,0.219c0.164,0.109,0.288,0.241,0.373,0.396c0.084,0.155,0.126,0.336,0.126,0.543
					c0,0.282-0.1,0.529-0.299,0.739c-0.199,0.211-0.435,0.343-0.705,0.398v0.048c0.108,0.019,0.233,0.057,0.375,0.115
					C373.198,319.635,373.319,319.71,373.416,319.797z"/>
			</g>
		</g>
		<g id="A-SVGStep45">
			<path id="A-point23" fill="#FFFFFF" d="M784.895,318c0,1.78-1.445,3.229-3.226,3.229l0,0c-1.784-0.001-3.231-1.447-3.231-3.229
				l0,0c0-1.781,1.445-3.228,3.23-3.229l0,0C783.447,314.773,784.895,316.216,784.895,318L784.895,318z"/>
			<g id="A-text23">
				<path fill="#FFFFFF" d="M795.537,323.207h-1.506l-3.451-3.885l-0.866,0.926v2.959h-1.16v-8.725h1.16v4.553l4.235-4.553h1.406
					l-3.896,4.102L795.537,323.207z"/>
				<path fill="#FFFFFF" d="M799.213,324.754c0.108,0.098,0.198,0.221,0.271,0.369c0.07,0.148,0.105,0.339,0.105,0.574
					c0,0.232-0.042,0.445-0.126,0.639c-0.085,0.193-0.203,0.362-0.355,0.505c-0.171,0.16-0.372,0.277-0.604,0.354
					c-0.23,0.076-0.484,0.114-0.761,0.114c-0.281,0-0.561-0.034-0.833-0.101s-0.498-0.14-0.674-0.22v-0.714h0.052
					c0.193,0.127,0.422,0.233,0.684,0.318c0.263,0.084,0.515,0.126,0.759,0.126c0.144,0,0.296-0.024,0.458-0.072
					c0.161-0.048,0.292-0.119,0.393-0.212c0.104-0.1,0.184-0.21,0.234-0.332c0.051-0.121,0.076-0.273,0.076-0.458
					c0-0.182-0.028-0.333-0.087-0.453s-0.139-0.213-0.24-0.282c-0.103-0.071-0.228-0.119-0.373-0.146
					c-0.146-0.026-0.303-0.039-0.471-0.039h-0.309v-0.567h0.239c0.347,0,0.622-0.072,0.828-0.217s0.31-0.355,0.31-0.633
					c0-0.123-0.025-0.231-0.078-0.323c-0.054-0.092-0.125-0.167-0.22-0.227c-0.098-0.059-0.202-0.1-0.313-0.123
					c-0.111-0.022-0.237-0.034-0.379-0.034c-0.217,0-0.446,0.039-0.69,0.116c-0.243,0.078-0.474,0.187-0.688,0.328h-0.034v-0.714
					c0.161-0.08,0.377-0.153,0.646-0.221c0.271-0.067,0.531-0.101,0.783-0.101c0.249,0,0.468,0.023,0.656,0.068
					s0.359,0.119,0.513,0.219c0.164,0.109,0.288,0.241,0.372,0.396c0.084,0.155,0.127,0.336,0.127,0.543
					c0,0.282-0.101,0.529-0.3,0.739c-0.199,0.211-0.434,0.343-0.705,0.398v0.048c0.109,0.019,0.234,0.057,0.376,0.115
					C798.994,324.595,799.115,324.667,799.213,324.754z"/>
			</g>
		</g>
		<g id="A-SVGStep46">
			<path id="A-point24" fill="#FFFFFF" d="M785.201,718.166c0,1.78-1.444,3.229-3.226,3.229l0,0c-1.784,0-3.231-1.446-3.231-3.229
				l0,0c0-1.781,1.445-3.229,3.23-3.229l0,0C783.754,714.939,785.201,716.383,785.201,718.166L785.201,718.166z"/>
			<g id="A-text24">
				<path fill="#FFFFFF" d="M794.044,721.396h-5.521v-8.726h1.16v7.693h4.359L794.044,721.396L794.044,721.396z"/>
				<path fill="#FFFFFF" d="M797.577,722.942c0.109,0.098,0.199,0.221,0.271,0.367c0.07,0.148,0.104,0.341,0.104,0.574
					c0,0.232-0.042,0.445-0.126,0.64c-0.085,0.192-0.202,0.361-0.354,0.506c-0.171,0.158-0.372,0.276-0.604,0.354
					c-0.229,0.076-0.483,0.114-0.76,0.114c-0.282,0-0.561-0.033-0.833-0.102c-0.272-0.066-0.498-0.141-0.674-0.221v-0.714h0.052
					c0.193,0.128,0.421,0.233,0.684,0.318c0.263,0.084,0.515,0.126,0.759,0.126c0.144,0,0.296-0.023,0.458-0.071
					c0.161-0.048,0.292-0.119,0.393-0.212c0.104-0.102,0.184-0.211,0.234-0.332c0.051-0.12,0.076-0.272,0.076-0.457
					c0-0.183-0.028-0.333-0.087-0.453c-0.059-0.119-0.14-0.213-0.24-0.281c-0.104-0.07-0.229-0.118-0.373-0.146
					c-0.146-0.027-0.303-0.039-0.471-0.039h-0.309v-0.567h0.239c0.346,0,0.622-0.071,0.828-0.217
					c0.206-0.145,0.309-0.354,0.309-0.634c0-0.123-0.024-0.23-0.078-0.323c-0.053-0.092-0.125-0.167-0.219-0.227
					c-0.098-0.061-0.202-0.102-0.313-0.123c-0.111-0.022-0.237-0.034-0.38-0.034c-0.217,0-0.445,0.039-0.689,0.116
					c-0.243,0.077-0.474,0.187-0.689,0.328h-0.034v-0.714c0.161-0.08,0.378-0.153,0.647-0.222c0.271-0.066,0.531-0.101,0.783-0.101
					c0.249,0,0.468,0.021,0.656,0.067s0.359,0.118,0.513,0.22c0.164,0.108,0.288,0.24,0.372,0.396s0.127,0.336,0.127,0.544
					c0,0.282-0.102,0.528-0.3,0.739c-0.199,0.211-0.435,0.343-0.705,0.397v0.048c0.108,0.019,0.233,0.057,0.376,0.114
					C797.361,722.783,797.481,722.855,797.577,722.942z"/>
			</g>
		</g>
		<g id="A-SVGStep47">
			<path id="A-point25" fill="#FFFFFF" d="M384.728,718.166c0,1.78-1.445,3.229-3.226,3.229l0,0c-1.784,0-3.231-1.446-3.231-3.229
				l0,0c0-1.781,1.445-3.229,3.23-3.229l0,0C383.28,714.939,384.728,716.383,384.728,718.166L384.728,718.166z"/>
			<g id="A-text25">
				<path fill="#FFFFFF" d="M371.319,716.645h-1.16v-7.518l-2.426,5.115h-0.691l-2.407-5.115v7.518h-1.084v-8.725h1.582l2.325,4.857
					l2.25-4.857h1.611V716.645L371.319,716.645z"/>
				<path fill="#FFFFFF" d="M376.035,718.191c0.109,0.098,0.199,0.221,0.271,0.367c0.07,0.148,0.104,0.341,0.104,0.574
					c0,0.232-0.042,0.445-0.126,0.639s-0.203,0.362-0.354,0.507c-0.171,0.158-0.372,0.276-0.604,0.354
					c-0.23,0.076-0.483,0.114-0.76,0.114c-0.283,0-0.561-0.033-0.833-0.102c-0.272-0.066-0.498-0.141-0.673-0.221v-0.714h0.051
					c0.194,0.128,0.421,0.233,0.684,0.318c0.262,0.084,0.515,0.126,0.759,0.126c0.143,0,0.296-0.023,0.458-0.071
					s0.292-0.119,0.393-0.212c0.104-0.102,0.184-0.211,0.234-0.332c0.051-0.12,0.077-0.272,0.077-0.457
					c0-0.183-0.029-0.333-0.087-0.453c-0.059-0.119-0.14-0.213-0.241-0.281c-0.104-0.07-0.228-0.119-0.373-0.146
					c-0.146-0.027-0.303-0.039-0.471-0.039h-0.309v-0.567h0.239c0.346,0,0.622-0.072,0.828-0.217s0.309-0.354,0.309-0.634
					c0-0.123-0.025-0.23-0.079-0.323c-0.052-0.092-0.125-0.167-0.218-0.227c-0.098-0.061-0.203-0.102-0.313-0.123
					c-0.111-0.022-0.238-0.034-0.38-0.034c-0.217,0-0.446,0.039-0.689,0.116s-0.475,0.187-0.69,0.328h-0.034v-0.715
					c0.162-0.079,0.378-0.152,0.647-0.221c0.271-0.067,0.531-0.101,0.784-0.101c0.249,0,0.467,0.021,0.656,0.067
					c0.188,0.045,0.359,0.118,0.512,0.22c0.164,0.108,0.288,0.24,0.373,0.396c0.084,0.155,0.126,0.336,0.126,0.544
					c0,0.282-0.101,0.528-0.299,0.739c-0.199,0.211-0.435,0.343-0.705,0.396v0.049c0.108,0.019,0.233,0.057,0.375,0.114
					C375.819,718.032,375.938,718.104,376.035,718.191z"/>
			</g>
		</g>
		<g id="A-SVGStep48">
			<line id="geo31" fill="none" stroke="#FFFFFF" stroke-miterlimit="10" x1="381.5" y1="318" x2="781.666" y2="317.693"/>
		</g>
		<g id="A-SVGStep49">
			<line id="geo32" fill="none" stroke="#FFFFFF" stroke-miterlimit="10" x1="781.666" y1="317.693" x2="781.666" y2="718.166"/>
		</g>
		<g id="A-SVGStep50">
			<line id="geo33" fill="none" stroke="#FFFFFF" stroke-miterlimit="10" x1="781.972" y1="718.211" x2="381.5" y2="718.211"/>
		</g>
		<g id="A-SVGStep51">
			<line id="geo34" fill="none" stroke="#FFFFFF" stroke-miterlimit="10" x1="381.5" y1="718.211" x2="381.5" y2="318"/>
		</g>
		<g id="A-SVGStep52">
			
				<line id="geo38" fill="none" stroke="#FFFFFF" stroke-width="3" stroke-miterlimit="10" x1="381.5" y1="318" x2="781.666" y2="317.693"/>
			
				<line id="geo37" fill="none" stroke="#FFFFFF" stroke-width="3" stroke-miterlimit="10" x1="781.666" y1="317.693" x2="781.666" y2="718.166"/>
			
				<line id="geo36" fill="none" stroke="#FFFFFF" stroke-width="3" stroke-miterlimit="10" x1="781.972" y1="718.211" x2="381.5" y2="718.211"/>
			
				<line id="geo35" fill="none" stroke="#FFFFFF" stroke-width="3" stroke-miterlimit="10" x1="381.5" y1="718.211" x2="381.5" y2="318"/>
		</g>
		<g id="A-SVGStep53">
			<line id="geo39" fill="none" stroke="#FFFFFF" stroke-miterlimit="10" x1="681.776" y1="417.828" x2="481.604" y2="417.828"/>
		</g>
		<g id="A-SVGStep54">
			<line id="geo40" fill="none" stroke="#FFFFFF" stroke-miterlimit="10" x1="381.5" y1="417.828" x2="481.604" y2="417.828"/>
			<path id="A-point26" fill="#FFFFFF" d="M384.746,418.008c0,1.78-1.443,3.229-3.227,3.229l0,0c-1.782,0-3.229-1.446-3.229-3.229
				l0,0c0-1.781,1.445-3.227,3.229-3.227l0,0C383.3,414.781,384.746,416.224,384.746,418.008L384.746,418.008z"/>
			<g id="A-text26">
				<path fill="#FFFFFF" d="M373.094,427.875h-1.436l-4.137-7.805v7.805h-1.084v-8.725h1.799l3.773,7.125v-7.125h1.084V427.875z"/>
				<path fill="#FFFFFF" d="M377.789,429.422c0.109,0.098,0.199,0.221,0.27,0.369c0.07,0.148,0.105,0.339,0.105,0.574
					c0,0.232-0.042,0.445-0.126,0.639c-0.084,0.193-0.203,0.362-0.355,0.505c-0.171,0.16-0.372,0.277-0.603,0.354
					c-0.231,0.076-0.484,0.114-0.76,0.114c-0.283,0-0.561-0.034-0.833-0.101c-0.273-0.067-0.498-0.14-0.673-0.22v-0.714h0.051
					c0.194,0.127,0.421,0.233,0.683,0.318c0.262,0.084,0.515,0.126,0.759,0.126c0.143,0,0.296-0.024,0.458-0.072
					s0.292-0.119,0.393-0.212c0.104-0.1,0.183-0.21,0.234-0.332c0.051-0.121,0.077-0.273,0.077-0.458
					c0-0.182-0.029-0.333-0.087-0.453s-0.139-0.213-0.241-0.282c-0.103-0.071-0.227-0.119-0.373-0.146
					c-0.146-0.026-0.303-0.039-0.471-0.039h-0.308v-0.567h0.239c0.346,0,0.622-0.072,0.828-0.217
					c0.206-0.145,0.309-0.355,0.309-0.633c0-0.123-0.026-0.231-0.079-0.323c-0.052-0.092-0.125-0.167-0.218-0.227
					c-0.098-0.059-0.203-0.1-0.314-0.123c-0.112-0.022-0.238-0.034-0.379-0.034c-0.217,0-0.447,0.039-0.69,0.116
					c-0.244,0.078-0.474,0.187-0.69,0.328h-0.034V427c0.162-0.08,0.377-0.153,0.647-0.221c0.27-0.067,0.531-0.101,0.784-0.101
					c0.249,0,0.467,0.023,0.656,0.068s0.36,0.119,0.512,0.219c0.164,0.109,0.288,0.241,0.373,0.396
					c0.084,0.155,0.126,0.336,0.126,0.543c0,0.282-0.1,0.529-0.299,0.739c-0.199,0.211-0.434,0.343-0.705,0.398v0.048
					c0.109,0.019,0.234,0.057,0.375,0.115S377.691,429.335,377.789,429.422z"/>
			</g>
		</g>
		<g id="A-SVGStep55">
			<line id="geo41" fill="none" stroke="#FFFFFF" stroke-miterlimit="10" x1="681.803" y1="417.828" x2="781.906" y2="417.828"/>
			<path id="A-point27" fill="#FFFFFF" d="M784.895,417.808c0,1.78-1.443,3.229-3.227,3.229l0,0c-1.783,0-3.23-1.446-3.23-3.229l0,0
				c0-1.781,1.445-3.227,3.23-3.227l0,0C783.448,414.581,784.895,416.023,784.895,417.808L784.895,417.808z"/>
			<g id="A-text27">
				<path fill="#FFFFFF" d="M793.199,419.515c0.355,0.391,0.628,0.869,0.817,1.436s0.284,1.209,0.284,1.928s-0.097,1.362-0.29,1.931
					s-0.464,1.042-0.812,1.421c-0.359,0.395-0.784,0.691-1.274,0.891s-1.05,0.299-1.679,0.299c-0.613,0-1.171-0.102-1.673-0.305
					s-0.929-0.498-1.28-0.885s-0.622-0.861-0.812-1.424s-0.284-1.205-0.284-1.928c0-0.711,0.094-1.349,0.281-1.913
					s0.461-1.048,0.82-1.45c0.344-0.383,0.771-0.676,1.28-0.879s1.065-0.305,1.667-0.305c0.625,0,1.187,0.103,1.685,0.308
					S792.852,419.136,793.199,419.515z M793.094,422.878c0-1.133-0.254-2.007-0.762-2.622s-1.201-0.923-2.08-0.923
					c-0.887,0-1.583,0.308-2.089,0.923s-0.759,1.489-0.759,2.622c0,1.145,0.258,2.021,0.773,2.628s1.207,0.911,2.074,0.911
					s1.558-0.304,2.071-0.911S793.094,424.022,793.094,422.878z"/>
				<path fill="#FFFFFF" d="M798.515,428.784c0.109,0.098,0.199,0.221,0.27,0.369c0.07,0.148,0.105,0.339,0.105,0.574
					c0,0.232-0.042,0.445-0.126,0.639s-0.203,0.362-0.355,0.505c-0.171,0.16-0.371,0.277-0.603,0.354
					c-0.231,0.076-0.484,0.114-0.76,0.114c-0.283,0-0.561-0.034-0.834-0.101c-0.273-0.067-0.498-0.14-0.673-0.22v-0.714h0.051
					c0.194,0.127,0.422,0.233,0.684,0.318c0.262,0.084,0.515,0.126,0.759,0.126c0.143,0,0.296-0.024,0.457-0.072
					c0.162-0.048,0.293-0.119,0.394-0.212c0.104-0.1,0.183-0.21,0.233-0.332c0.052-0.121,0.077-0.273,0.077-0.458
					c0-0.182-0.029-0.333-0.087-0.453c-0.059-0.12-0.139-0.213-0.241-0.282c-0.103-0.071-0.227-0.119-0.372-0.146
					c-0.146-0.026-0.303-0.039-0.472-0.039h-0.308v-0.567h0.239c0.347,0,0.622-0.072,0.828-0.217c0.206-0.145,0.31-0.355,0.31-0.633
					c0-0.123-0.026-0.231-0.079-0.323c-0.052-0.092-0.125-0.167-0.218-0.227c-0.099-0.059-0.203-0.1-0.314-0.123
					c-0.112-0.022-0.238-0.034-0.379-0.034c-0.217,0-0.447,0.039-0.69,0.116c-0.244,0.078-0.474,0.187-0.69,0.328h-0.034v-0.714
					c0.162-0.08,0.378-0.153,0.647-0.221c0.271-0.067,0.531-0.101,0.784-0.101c0.248,0,0.467,0.023,0.656,0.068
					c0.188,0.045,0.359,0.119,0.512,0.219c0.164,0.109,0.288,0.241,0.373,0.396c0.084,0.155,0.126,0.336,0.126,0.543
					c0,0.282-0.1,0.529-0.299,0.739c-0.199,0.211-0.435,0.343-0.705,0.398v0.048c0.109,0.019,0.234,0.057,0.375,0.115
					C798.297,428.625,798.416,428.698,798.515,428.784z"/>
			</g>
		</g>
		<g id="A-SVGStep56">
			<line id="geo42" fill="none" stroke="#FFFFFF" stroke-miterlimit="10" x1="381.485" y1="417.813" x2="781.666" y2="317.693"/>
		</g>
		<g id="A-SVGStep57">
			<path id="A-point28" fill="#FFFFFF" d="M584.964,367.712c0,1.78-1.443,3.229-3.227,3.229l0,0c-1.783,0-3.23-1.446-3.23-3.229l0,0
				c0-1.781,1.445-3.227,3.23-3.227l0,0C583.517,364.486,584.964,365.928,584.964,367.712L584.964,367.712z"/>
			<g id="A-text28">
				<path fill="#FFFFFF" d="M589.92,352.287c0,0.387-0.067,0.745-0.202,1.075s-0.323,0.616-0.565,0.858
					c-0.301,0.301-0.656,0.526-1.066,0.677s-0.928,0.226-1.553,0.226h-1.16v3.252h-1.16v-8.725h2.367
					c0.523,0,0.967,0.044,1.33,0.132s0.686,0.226,0.967,0.413c0.332,0.223,0.589,0.5,0.771,0.832S589.92,351.779,589.92,352.287z
					 M588.713,352.316c0-0.301-0.053-0.563-0.158-0.785s-0.266-0.404-0.48-0.545c-0.188-0.121-0.401-0.208-0.642-0.261
					s-0.544-0.079-0.911-0.079h-1.148v3.486h0.979c0.469,0,0.85-0.042,1.143-0.126s0.531-0.218,0.715-0.401
					c0.184-0.188,0.313-0.385,0.39-0.592S588.713,352.574,588.713,352.316z"/>
				<path fill="#FFFFFF" d="M593.823,359.922c0.109,0.098,0.199,0.221,0.27,0.369c0.071,0.148,0.106,0.339,0.106,0.574
					c0,0.232-0.042,0.445-0.127,0.639c-0.084,0.193-0.202,0.362-0.355,0.505c-0.17,0.16-0.371,0.277-0.603,0.354
					c-0.231,0.076-0.484,0.114-0.76,0.114c-0.282,0-0.561-0.034-0.834-0.101c-0.273-0.067-0.497-0.14-0.673-0.22v-0.714h0.052
					c0.193,0.127,0.421,0.233,0.683,0.318c0.262,0.084,0.515,0.126,0.759,0.126c0.144,0,0.296-0.024,0.458-0.072
					c0.161-0.048,0.292-0.119,0.393-0.212c0.104-0.1,0.183-0.21,0.233-0.332c0.052-0.121,0.077-0.273,0.077-0.458
					c0-0.182-0.029-0.333-0.087-0.453c-0.059-0.12-0.139-0.213-0.241-0.282c-0.103-0.071-0.227-0.119-0.372-0.146
					c-0.146-0.026-0.303-0.039-0.472-0.039h-0.308v-0.567h0.239c0.347,0,0.623-0.072,0.829-0.217
					c0.206-0.145,0.309-0.355,0.309-0.633c0-0.123-0.026-0.231-0.078-0.323c-0.053-0.092-0.126-0.167-0.219-0.227
					c-0.098-0.059-0.203-0.1-0.314-0.123c-0.111-0.022-0.238-0.034-0.379-0.034c-0.217,0-0.446,0.039-0.69,0.116
					c-0.243,0.078-0.474,0.187-0.689,0.328h-0.034V357.5c0.161-0.08,0.377-0.153,0.646-0.221c0.271-0.067,0.531-0.101,0.784-0.101
					c0.248,0,0.467,0.023,0.656,0.068c0.188,0.045,0.359,0.119,0.513,0.219c0.163,0.109,0.288,0.241,0.372,0.396
					c0.084,0.155,0.126,0.336,0.126,0.543c0,0.282-0.1,0.529-0.299,0.739c-0.199,0.211-0.435,0.343-0.705,0.398v0.048
					c0.109,0.019,0.234,0.057,0.376,0.115C593.606,359.763,593.726,359.835,593.823,359.922z"/>
			</g>
		</g>
		<g id="A-SVGStep58">
			<path id="A-point29" fill="#FFFFFF" d="M584.964,318.038c0,1.78-1.443,3.229-3.227,3.229l0,0c-1.783,0-3.23-1.446-3.23-3.229l0,0
				c0-1.781,1.445-3.227,3.23-3.227l0,0C583.517,314.811,584.964,316.253,584.964,318.038L584.964,318.038z"/>
			<g id="A-text29">
				<path fill="#FFFFFF" d="M573.119,311.764c-0.234,0.059-0.466,0.101-0.694,0.126s-0.462,0.038-0.7,0.038
					c-0.68,0-1.226-0.187-1.638-0.56s-0.636-0.907-0.671-1.603c-0.094,0.016-0.185,0.026-0.272,0.032s-0.173,0.009-0.255,0.009
					c-0.613,0-1.171-0.102-1.673-0.305s-0.929-0.498-1.28-0.885s-0.622-0.861-0.812-1.424s-0.284-1.205-0.284-1.928
					c0-0.711,0.094-1.349,0.281-1.913s0.461-1.048,0.82-1.45c0.344-0.383,0.771-0.676,1.28-0.879s1.065-0.305,1.667-0.305
					c0.625,0,1.187,0.103,1.685,0.308s0.921,0.497,1.269,0.876c0.355,0.391,0.628,0.869,0.817,1.436s0.284,1.209,0.284,1.928
					c0,1.066-0.218,1.965-0.653,2.695s-1.021,1.242-1.755,1.535c0.016,0.445,0.121,0.791,0.316,1.037s0.551,0.369,1.066,0.369
					c0.16,0,0.351-0.024,0.571-0.073s0.378-0.093,0.472-0.132h0.158V311.764z M571.737,305.266c0-1.133-0.254-2.007-0.762-2.622
					s-1.201-0.923-2.08-0.923c-0.887,0-1.583,0.308-2.089,0.923s-0.759,1.489-0.759,2.622c0,1.145,0.258,2.021,0.773,2.628
					s1.207,0.911,2.074,0.911s1.558-0.304,2.071-0.911S571.737,306.41,571.737,305.266z"/>
				<path fill="#FFFFFF" d="M577.157,311.172c0.109,0.098,0.199,0.221,0.27,0.369c0.071,0.148,0.106,0.339,0.106,0.574
					c0,0.232-0.042,0.445-0.127,0.639c-0.084,0.193-0.202,0.362-0.355,0.505c-0.17,0.16-0.371,0.277-0.603,0.354
					c-0.231,0.076-0.484,0.114-0.76,0.114c-0.282,0-0.561-0.034-0.834-0.101c-0.273-0.067-0.497-0.14-0.673-0.22v-0.714h0.052
					c0.193,0.127,0.421,0.233,0.683,0.318c0.262,0.084,0.515,0.126,0.759,0.126c0.144,0,0.296-0.024,0.458-0.072
					c0.161-0.048,0.292-0.119,0.393-0.212c0.104-0.1,0.183-0.21,0.233-0.332c0.052-0.121,0.077-0.273,0.077-0.458
					c0-0.182-0.029-0.333-0.087-0.453c-0.059-0.12-0.139-0.213-0.241-0.282c-0.103-0.071-0.227-0.119-0.372-0.146
					c-0.146-0.026-0.303-0.039-0.472-0.039h-0.308v-0.567h0.239c0.347,0,0.623-0.072,0.829-0.217
					c0.206-0.145,0.309-0.355,0.309-0.633c0-0.123-0.026-0.231-0.078-0.323c-0.053-0.092-0.126-0.167-0.219-0.227
					c-0.098-0.059-0.203-0.1-0.314-0.123c-0.111-0.022-0.238-0.034-0.379-0.034c-0.217,0-0.446,0.039-0.69,0.116
					c-0.243,0.078-0.474,0.187-0.689,0.328h-0.034v-0.714c0.161-0.08,0.377-0.153,0.646-0.221c0.271-0.067,0.531-0.101,0.784-0.101
					c0.248,0,0.467,0.023,0.656,0.068c0.188,0.045,0.359,0.119,0.513,0.219c0.163,0.109,0.288,0.241,0.372,0.396
					c0.084,0.155,0.126,0.336,0.126,0.543c0,0.282-0.1,0.529-0.299,0.739c-0.199,0.211-0.435,0.343-0.705,0.398v0.048
					c0.109,0.019,0.234,0.057,0.376,0.115C576.94,311.013,577.06,311.085,577.157,311.172z"/>
			</g>
		</g>
		<g id="A-SVGStep59">
			<circle id="geo43" fill="none" stroke="#FFFFFF" stroke-miterlimit="10" cx="581.736" cy="318.039" r="49.714"/>
		</g>
		<g id="A-SVGStep60">
			<path id="A-point30" fill="#FFFFFF" d="M584.964,268.324c0,1.78-1.443,3.229-3.227,3.229l0,0c-1.783,0-3.23-1.446-3.23-3.229l0,0
				c0-1.781,1.445-3.227,3.23-3.227l0,0C583.517,265.097,584.964,266.54,584.964,268.324L584.964,268.324z"/>
			<g id="A-text30">
				<path fill="#FFFFFF" d="M595.369,258.625h-1.506l-2.918-3.469h-1.635v3.469h-1.16V249.9h2.443c0.527,0,0.967,0.034,1.318,0.103
					s0.668,0.19,0.949,0.366c0.316,0.199,0.563,0.45,0.741,0.753s0.267,0.687,0.267,1.151c0,0.629-0.158,1.155-0.475,1.579
					s-0.752,0.743-1.307,0.958L595.369,258.625z M592.656,252.355c0-0.25-0.044-0.472-0.132-0.665s-0.233-0.356-0.437-0.489
					c-0.168-0.113-0.367-0.192-0.598-0.237s-0.502-0.067-0.814-0.067h-1.365v3.293h1.172c0.367,0,0.688-0.032,0.961-0.097
					s0.506-0.185,0.697-0.36c0.176-0.164,0.306-0.353,0.39-0.565S592.656,252.684,592.656,252.355z"/>
				<path fill="#FFFFFF" d="M598.868,260.172c0.109,0.098,0.199,0.221,0.27,0.369c0.071,0.148,0.106,0.339,0.106,0.574
					c0,0.232-0.042,0.445-0.127,0.639c-0.084,0.193-0.202,0.362-0.355,0.505c-0.17,0.16-0.371,0.277-0.603,0.354
					c-0.231,0.076-0.484,0.114-0.76,0.114c-0.282,0-0.561-0.034-0.834-0.101c-0.273-0.067-0.497-0.14-0.673-0.22v-0.714h0.052
					c0.193,0.127,0.421,0.233,0.683,0.318c0.262,0.084,0.515,0.126,0.759,0.126c0.144,0,0.296-0.024,0.458-0.072
					c0.161-0.048,0.292-0.119,0.393-0.212c0.104-0.1,0.183-0.21,0.233-0.332c0.052-0.121,0.077-0.273,0.077-0.458
					c0-0.182-0.029-0.333-0.087-0.453c-0.059-0.12-0.139-0.213-0.241-0.282c-0.103-0.071-0.227-0.119-0.372-0.146
					c-0.146-0.026-0.303-0.039-0.472-0.039h-0.308v-0.567h0.239c0.347,0,0.623-0.072,0.829-0.217
					c0.206-0.145,0.309-0.355,0.309-0.633c0-0.123-0.026-0.231-0.078-0.323c-0.053-0.092-0.126-0.167-0.219-0.227
					c-0.098-0.059-0.203-0.1-0.314-0.123c-0.111-0.022-0.238-0.034-0.379-0.034c-0.217,0-0.446,0.039-0.69,0.116
					c-0.243,0.078-0.474,0.187-0.689,0.328h-0.034v-0.714c0.161-0.08,0.377-0.153,0.646-0.221c0.271-0.067,0.531-0.101,0.784-0.101
					c0.248,0,0.467,0.023,0.656,0.068c0.188,0.045,0.359,0.119,0.513,0.219c0.163,0.109,0.288,0.241,0.372,0.396
					c0.084,0.155,0.126,0.336,0.126,0.543c0,0.282-0.1,0.529-0.299,0.739c-0.199,0.211-0.435,0.343-0.705,0.398v0.048
					c0.109,0.019,0.234,0.057,0.376,0.115C598.651,260.013,598.771,260.085,598.868,260.172z"/>
			</g>
		</g>
		<g id="A-SVGStep61">
			<circle id="geo44" fill="none" stroke="#FFFFFF" stroke-miterlimit="10" cx="581.657" cy="517.92" r="249.595"/>
		</g>
		<g id="A-SVGStep62">
			
				<circle id="geo45" fill="none" stroke="#FFFFFF" stroke-width="3" stroke-miterlimit="10" cx="581.657" cy="517.92" r="249.595"/>
		</g>
		<g id="A-SVGStep63">
			
				<line id="geo46" fill="none" stroke="#FFFFFF" stroke-width="3" stroke-miterlimit="10" x1="681.803" y1="417.828" x2="781.906" y2="417.828"/>
			
				<line id="geo47" fill="none" stroke="#FFFFFF" stroke-width="3" stroke-miterlimit="10" x1="381.5" y1="417.828" x2="481.604" y2="417.828"/>
			
				<line id="geo48" fill="none" stroke="#FFFFFF" stroke-width="3" stroke-miterlimit="10" x1="381.485" y1="417.813" x2="781.666" y2="317.693"/>
			
				<circle id="geo49" fill="none" stroke="#FFFFFF" stroke-width="3" stroke-miterlimit="10" cx="581.736" cy="318.039" r="49.714"/>
			
				<line id="geo50" fill="none" stroke="#FFFFFF" stroke-width="3" stroke-miterlimit="10" x1="681.776" y1="417.828" x2="481.604" y2="417.828"/>
		</g>
	</g>
</g>
</svg>
