<?xml version="1.0" encoding="utf-8"?>
<!-- Generator: Adobe Illustrator 16.0.0, SVG Export Plug-In . SVG Version: 6.00 Build 0)  -->
<!DOCTYPE svg PUBLIC "-//W3C//DTD SVG 1.1//EN" "http://www.w3.org/Graphics/SVG/1.1/DTD/svg11.dtd">
<svg version="1.1" id="A-detailGenesis" xmlns="http://www.w3.org/2000/svg" xmlns:xlink="http://www.w3.org/1999/xlink" x="0px"
	 y="0px" width="1500px" height="1000px" viewBox="0 0 1500 1000" enable-background="new 0 0 1500 1000" xml:space="preserve">
<g id="A-SVGGroupSteps">
	<g id="A-SVGStep12">
		
			<circle id="geo_5_" fill="none" stroke="#000000" stroke-width="2" stroke-miterlimit="10" cx="963.224" cy="374.727" r="246.148"/>
		<path id="A-text_14_" d="M1004.577,368.079c-1.391,0.639-2.905,1.193-4.555,1.666c-1.646,0.473-3.238,0.71-4.776,0.71
			c-1.98,0-3.8-0.273-5.449-0.82c-1.652-0.547-3.062-1.367-4.224-2.461c-1.174-1.105-2.08-2.487-2.718-4.145
			c-0.638-1.658-0.957-3.598-0.957-5.819c0-4.067,1.188-7.277,3.563-9.63s5.637-3.529,9.78-3.529c1.447,0,2.929,0.174,4.438,0.521
			c1.51,0.347,3.136,0.938,4.879,1.769v4.017h-0.308c-0.354-0.273-0.866-0.633-1.538-1.077c-0.673-0.444-1.333-0.814-1.982-1.11
			c-0.786-0.354-1.678-0.646-2.674-0.881c-0.998-0.233-2.129-0.35-3.394-0.35c-2.852,0-5.104,0.914-6.762,2.742
			c-1.658,1.829-2.484,4.305-2.484,7.426c0,3.293,0.863,5.854,2.599,7.682c1.73,1.829,4.09,2.743,7.075,2.743
			c1.094,0,2.185-0.108,3.271-0.325c1.088-0.216,2.043-0.495,2.863-0.837v-6.237h-6.819v-2.975h10.169L1004.577,368.079
			L1004.577,368.079z"/>
		<path id="A-text_13_" d="M761.475,463.958h-3.606l-2.495-7.092h-11.006l-2.495,7.092h-3.435l9.263-25.447h4.514L761.475,463.958z
			 M754.327,453.96l-4.46-12.492l-4.478,12.492H754.327z"/>
		<path id="A-point_11_" d="M755.991,497.798c0,3.324-2.688,6.011-6.001,6.011l0,0c-3.313,0-6-2.688-6-6.011l0,0
			c0-3.313,2.688-6,6-6l0,0C753.308,491.798,755.991,494.483,755.991,497.798L755.991,497.798z"/>
		<path id="A-point_16_" d="M969.224,374.727c0,3.313-2.689,6-6,6l0,0c-3.314,0-6-2.688-6-6l0,0c0-3.313,2.688-6,6-6l0,0
			C966.532,368.727,969.224,371.412,969.224,374.727L969.224,374.727z"/>
	</g>
	<g id="A-SVGStep11">
		<path id="A-point_17_" d="M969.224,374.727c0,3.313-2.689,6-6,6l0,0c-3.314,0-6-2.688-6-6l0,0c0-3.313,2.688-6,6-6l0,0
			C966.532,368.727,969.224,371.412,969.224,374.727L969.224,374.727z"/>
		<path id="A-text_17_" d="M1004.577,368.079c-1.391,0.639-2.905,1.193-4.555,1.666c-1.646,0.473-3.238,0.71-4.776,0.71
			c-1.98,0-3.8-0.273-5.449-0.82c-1.652-0.547-3.062-1.367-4.224-2.461c-1.174-1.105-2.08-2.487-2.718-4.145
			c-0.638-1.658-0.957-3.598-0.957-5.819c0-4.067,1.188-7.277,3.563-9.63s5.637-3.529,9.78-3.529c1.447,0,2.929,0.174,4.438,0.521
			c1.51,0.347,3.136,0.938,4.879,1.769v4.017h-0.308c-0.354-0.273-0.866-0.633-1.538-1.077c-0.673-0.444-1.333-0.814-1.982-1.11
			c-0.786-0.354-1.678-0.646-2.674-0.881c-0.998-0.233-2.129-0.35-3.394-0.35c-2.852,0-5.104,0.914-6.762,2.742
			c-1.658,1.829-2.484,4.305-2.484,7.426c0,3.293,0.863,5.854,2.599,7.682c1.73,1.829,4.09,2.743,7.075,2.743
			c1.094,0,2.185-0.108,3.271-0.325c1.088-0.216,2.043-0.495,2.863-0.837v-6.237h-6.819v-2.975h10.169L1004.577,368.079
			L1004.577,368.079z"/>
	</g>
	<g id="A-SVGStep10">
		
			<circle id="geo_4_" fill="none" stroke="#000000" stroke-width="2" stroke-miterlimit="10" cx="963.223" cy="620.874" r="246.148"/>
		<path id="A-text_12_" d="M1003.606,627.662h-12.868v7.178h11.06v3.008h-11.06v12.254h-3.385v-25.444h16.253V627.662z"/>
		<path id="A-text_11_" d="M761.475,463.958h-3.606l-2.495-7.092h-11.006l-2.495,7.092h-3.435l9.263-25.447h4.514L761.475,463.958z
			 M754.327,453.96l-4.46-12.492l-4.478,12.492H754.327z"/>
		<path id="A-point_10_" d="M755.991,497.798c0,3.324-2.688,6.011-6.001,6.011l0,0c-3.313,0-6-2.688-6-6.011l0,0
			c0-3.313,2.688-6,6-6l0,0C753.308,491.798,755.991,494.483,755.991,497.798L755.991,497.798z"/>
		<path id="A-point_12_" d="M969.224,620.88c0,3.313-2.689,6-6,6l0,0c-3.314,0-6-2.688-6-6l0,0c0-3.313,2.688-6,6-6l0,0
			C966.532,614.88,969.224,617.565,969.224,620.88L969.224,620.88z"/>
	</g>
	<g id="A-SVGStep9">
		<path id="A-point_13_" d="M969.224,620.88c0,3.313-2.689,6-6,6l0,0c-3.314,0-6-2.688-6-6l0,0c0-3.313,2.688-6,6-6l0,0
			C966.532,614.88,969.224,617.565,969.224,620.88L969.224,620.88z"/>
		<path id="A-text_16_" d="M1003.606,627.662h-12.868v7.178h11.06v3.008h-11.06v12.254h-3.385v-25.444h16.253V627.662z"/>
	</g>
	<g id="A-SVGStep8">
		<path id="A-text_10_" d="M757.889,790.174h-16.768v-25.447h16.768v3.011h-13.381v6.973h13.381v3.008h-13.381v9.451h13.381V790.174
			z"/>
		<path id="A-text_9_" d="M761.475,463.958h-3.606l-2.495-7.092h-11.006l-2.495,7.092h-3.435l9.263-25.447h4.514L761.475,463.958z
			 M754.327,453.96l-4.46-12.492l-4.478,12.492H754.327z"/>
		
			<circle id="geo_3_" fill="none" stroke="#000000" stroke-width="2" stroke-miterlimit="10" cx="749.991" cy="743.951" r="246.149"/>
		<path id="A-point_9_" d="M755.991,743.951c0,3.313-2.688,6-6,6l0,0c-3.313,0-6.001-2.688-6.001-6l0,0c0-3.313,2.689-6,6.001-6l0,0
			C753.308,737.951,755.991,740.637,755.991,743.951L755.991,743.951z"/>
		<path id="A-point_8_" d="M755.991,497.798c0,3.324-2.688,6.011-6.001,6.011l0,0c-3.313,0-6-2.688-6-6.011l0,0c0-3.313,2.688-6,6-6
			l0,0C753.308,491.798,755.991,494.483,755.991,497.798L755.991,497.798z"/>
	</g>
	<g id="A-SVGStep7">
		<path id="A-point_14_" d="M755.991,743.951c0,3.313-2.688,6-6,6l0,0c-3.313,0-6.001-2.688-6.001-6l0,0c0-3.313,2.689-6,6.001-6
			l0,0C753.308,737.951,755.991,740.637,755.991,743.951L755.991,743.951z"/>
		<path id="A-text_15_" d="M757.889,790.174h-16.768v-25.447h16.768v3.011h-13.381v6.973h13.381v3.008h-13.381v9.451h13.381V790.174
			z"/>
	</g>
	<g id="A-SVGStep6">
		
			<circle id="geo_2_" fill="none" stroke="#000000" stroke-width="2" stroke-miterlimit="10" cx="536.778" cy="620.874" r="246.148"/>
		<path id="A-text_8_" d="M761.475,463.958h-3.606l-2.495-7.092h-11.006l-2.495,7.092h-3.435l9.263-25.447h4.514L761.475,463.958z
			 M754.327,453.96l-4.46-12.492l-4.478,12.492H754.327z"/>
		<path id="A-text_7_" d="M517.406,637.404c0,2.313-0.504,4.408-1.513,6.289c-1.008,1.879-2.35,3.338-4.024,4.375
			c-1.159,0.717-2.458,1.233-3.888,1.555s-3.313,0.479-5.646,0.479h-6.429v-25.444h6.357c2.481,0,4.458,0.18,5.922,0.539
			c1.463,0.355,2.703,0.852,3.717,1.479c1.731,1.082,3.082,2.523,4.05,4.323C516.925,632.796,517.406,634.932,517.406,637.404z
			 M513.869,637.354c0-1.991-0.348-3.676-1.042-5.043c-0.692-1.364-1.729-2.44-3.107-3.229c-1.003-0.569-2.068-0.966-3.196-1.188
			c-1.128-0.224-2.478-0.334-4.05-0.334h-3.179v19.639h3.179c1.629,0,3.051-0.12,4.264-0.358c1.214-0.24,2.327-0.684,3.341-1.334
			c1.268-0.809,2.216-1.873,2.848-3.192C513.556,640.987,513.869,639.335,513.869,637.354z"/>
		<path id="A-point_7_" d="M542.777,620.88c0,3.313-2.688,6-6,6l0,0c-3.313,0-5.999-2.688-5.999-6l0,0c0-3.313,2.688-6,5.999-6l0,0
			C540.091,614.88,542.777,617.565,542.777,620.88L542.777,620.88z"/>
		<path id="A-point_6_" d="M755.991,497.798c0,3.324-2.688,6.011-6.001,6.011l0,0c-3.313,0-6-2.688-6-6.011l0,0c0-3.313,2.688-6,6-6
			l0,0C753.308,491.798,755.991,494.483,755.991,497.798L755.991,497.798z"/>
	</g>
	<g id="A-SVGStep5">
		<path id="A-point_15_" d="M542.777,620.88c0,3.313-2.688,6-6,6l0,0c-3.313,0-5.999-2.688-5.999-6l0,0c0-3.313,2.688-6,5.999-6l0,0
			C540.091,614.88,542.777,617.565,542.777,620.88L542.777,620.88z"/>
		<path id="A-text_6_" d="M517.406,637.404c0,2.313-0.504,4.408-1.513,6.289c-1.008,1.879-2.35,3.338-4.024,4.375
			c-1.159,0.717-2.458,1.233-3.888,1.555s-3.313,0.479-5.646,0.479h-6.429v-25.444h6.357c2.481,0,4.458,0.18,5.922,0.539
			c1.463,0.355,2.703,0.852,3.717,1.479c1.731,1.082,3.082,2.523,4.05,4.323C516.925,632.796,517.406,634.932,517.406,637.404z
			 M513.869,637.354c0-1.991-0.348-3.676-1.042-5.043c-0.692-1.364-1.729-2.44-3.107-3.229c-1.003-0.569-2.068-0.966-3.196-1.188
			c-1.128-0.224-2.478-0.334-4.05-0.334h-3.179v19.639h3.179c1.629,0,3.051-0.12,4.264-0.358c1.214-0.24,2.327-0.684,3.341-1.334
			c1.268-0.809,2.216-1.873,2.848-3.192C513.556,640.987,513.869,639.335,513.869,637.354z"/>
	</g>
	<g id="A-SVGStep4">
		<path id="A-text_5_" d="M761.475,463.958h-3.606l-2.495-7.092h-11.006l-2.495,7.092h-3.435l9.263-25.447h4.514L761.475,463.958z
			 M754.327,453.96l-4.46-12.492l-4.478,12.492H754.327z"/>
		<path id="A-text_4_" d="M515.564,368.112c-0.627,0.273-1.194,0.529-1.7,0.77c-0.507,0.238-1.171,0.489-1.991,0.752
			c-0.692,0.216-1.447,0.401-2.265,0.555c-0.813,0.154-1.712,0.23-2.691,0.23c-1.846,0-3.521-0.259-5.03-0.777
			c-1.513-0.518-2.823-1.33-3.939-2.436c-1.094-1.082-1.948-2.457-2.563-4.127c-0.615-1.669-0.923-3.608-0.923-5.818
			c0-2.097,0.296-3.971,0.889-5.623c0.592-1.651,1.447-3.048,2.563-4.188c1.082-1.104,2.393-1.947,3.924-2.529
			c1.53-0.58,3.23-0.871,5.102-0.871c1.367,0,2.729,0.165,4.093,0.496c1.361,0.33,2.874,0.911,4.537,1.742v4.017h-0.256
			c-1.401-1.173-2.792-2.027-4.17-2.563c-1.379-0.535-2.854-0.803-4.426-0.803c-1.288,0-2.447,0.208-3.479,0.623
			c-1.032,0.416-1.952,1.063-2.76,1.939c-0.786,0.855-1.399,1.935-1.837,3.239c-0.438,1.304-0.658,2.812-0.658,4.521
			c0,1.788,0.242,3.326,0.726,4.613c0.484,1.288,1.108,2.336,1.872,3.145c0.8,0.844,1.729,1.468,2.794,1.872
			c1.065,0.404,2.19,0.606,3.375,0.606c1.632,0,3.156-0.279,4.58-0.838c1.427-0.558,2.76-1.395,3.999-2.512h0.239L515.564,368.112
			L515.564,368.112z"/>
		
			<circle id="geo_1_" fill="none" stroke="#000000" stroke-width="2" stroke-miterlimit="10" cx="536.779" cy="374.731" r="246.147"/>
		<path id="A-point_4_" d="M542.778,374.726c0,3.313-2.688,6-6,6l0,0c-3.313,0-6-2.688-6-6l0,0c0-3.313,2.688-6,6-6l0,0
			C540.092,368.726,542.778,371.411,542.778,374.726L542.778,374.726z"/>
		<path id="A-point_5_" d="M755.991,497.798c0,3.324-2.688,6.011-6.001,6.011l0,0c-3.313,0-6-2.688-6-6.011l0,0c0-3.313,2.688-6,6-6
			l0,0C753.308,491.798,755.991,494.483,755.991,497.798L755.991,497.798z"/>
	</g>
	<g id="A-SVGStep3">
		<path id="A-point_3_" d="M542.778,374.726c0,3.313-2.688,6-6,6l0,0c-3.313,0-6-2.688-6-6l0,0c0-3.313,2.688-6,6-6l0,0
			C540.092,368.726,542.778,371.411,542.778,374.726L542.778,374.726z"/>
		<path id="A-text_3_" d="M515.564,368.112c-0.627,0.273-1.194,0.529-1.7,0.77c-0.507,0.238-1.171,0.489-1.991,0.752
			c-0.692,0.216-1.447,0.401-2.265,0.555c-0.813,0.154-1.712,0.23-2.691,0.23c-1.846,0-3.521-0.259-5.03-0.777
			c-1.513-0.518-2.823-1.33-3.939-2.436c-1.094-1.082-1.948-2.457-2.563-4.127c-0.615-1.669-0.923-3.608-0.923-5.818
			c0-2.097,0.296-3.971,0.889-5.623c0.592-1.651,1.447-3.048,2.563-4.188c1.082-1.104,2.393-1.947,3.924-2.529
			c1.53-0.58,3.23-0.871,5.102-0.871c1.367,0,2.729,0.165,4.093,0.496c1.361,0.33,2.874,0.911,4.537,1.742v4.017h-0.256
			c-1.401-1.173-2.792-2.027-4.17-2.563c-1.379-0.535-2.854-0.803-4.426-0.803c-1.288,0-2.447,0.208-3.479,0.623
			c-1.032,0.416-1.952,1.063-2.76,1.939c-0.786,0.855-1.399,1.935-1.837,3.239c-0.438,1.304-0.658,2.812-0.658,4.521
			c0,1.788,0.242,3.326,0.726,4.613c0.484,1.288,1.108,2.336,1.872,3.145c0.8,0.844,1.729,1.468,2.794,1.872
			c1.065,0.404,2.19,0.606,3.375,0.606c1.632,0,3.156-0.279,4.58-0.838c1.427-0.558,2.76-1.395,3.999-2.512h0.239L515.564,368.112
			L515.564,368.112z"/>
	</g>
	<g id="A-SVGStep2">
		
			<circle id="geo_6_" fill="none" stroke="#000000" stroke-width="2" stroke-miterlimit="10" cx="749.991" cy="251.656" r="246.147"/>
		<path id="A-point_1_" d="M755.991,251.656c0,3.313-2.688,6-6,6l0,0c-3.313,0-6-2.688-6-6l0,0c0-3.313,2.688-6,6-6l0,0
			C753.309,245.656,755.991,248.341,755.991,251.656L755.991,251.656z"/>
		<path id="A-point_2_" d="M755.991,497.798c0,3.324-2.688,6.011-6.001,6.011l0,0c-3.313,0-6-2.688-6-6.011l0,0c0-3.313,2.688-6,6-6
			l0,0C753.308,491.798,755.991,494.483,755.991,497.798L755.991,497.798z"/>
		<path id="A-text_2_" d="M761.603,219.83c0,1.265-0.239,2.382-0.718,3.35c-0.479,0.969-1.123,1.767-1.935,2.393
			c-0.957,0.752-2.008,1.288-3.149,1.606c-1.146,0.319-2.604,0.479-4.367,0.479h-9.023V202.21h7.537c1.857,0,3.247,0.068,4.17,0.205
			c0.923,0.137,1.809,0.422,2.648,0.855c0.935,0.489,1.611,1.119,2.034,1.888c0.421,0.77,0.632,1.689,0.632,2.761
			c0,1.207-0.308,2.235-0.922,3.084c-0.615,0.85-1.438,1.529-2.461,2.043v0.137c1.72,0.353,3.075,1.107,4.063,2.264
			C761.107,216.604,761.603,218.064,761.603,219.83z M755.909,208.362c0-0.615-0.104-1.133-0.309-1.555
			c-0.205-0.421-0.535-0.763-0.99-1.025c-0.536-0.308-1.186-0.498-1.949-0.572c-0.763-0.074-1.709-0.111-2.836-0.111h-4.03v7.349
			h4.375c1.059,0,1.9-0.054,2.527-0.162c0.626-0.108,1.207-0.333,1.742-0.675c0.535-0.342,0.914-0.783,1.137-1.325
			C755.801,209.744,755.909,209.104,755.909,208.362z M758.079,219.967c0-1.025-0.151-1.84-0.461-2.444
			c-0.309-0.604-0.864-1.116-1.676-1.537c-0.547-0.285-1.211-0.471-1.99-0.556c-0.778-0.086-1.729-0.128-2.846-0.128h-5.313v9.467
			h4.479c1.481,0,2.695-0.076,3.64-0.23c0.945-0.153,1.724-0.436,2.324-0.846c0.638-0.444,1.105-0.951,1.401-1.521
			C757.934,221.602,758.079,220.867,758.079,219.967z"/>
		<path id="A-text_1_" d="M761.475,463.958h-3.606l-2.495-7.092h-11.006l-2.495,7.092h-3.435l9.263-25.447h4.514L761.475,463.958z
			 M754.327,453.96l-4.46-12.492l-4.478,12.492H754.327z"/>
	</g>
	<g id="A-SVGStep1">
		<circle id="geo" fill="none" stroke="#000000" stroke-width="2" stroke-miterlimit="10" cx="749.991" cy="497.803" r="246.148"/>
		<g id="A-text" enable-background="new    ">
			<path id="A_2_" d="M761.475,463.958h-3.606l-2.495-7.092h-11.006l-2.495,7.092h-3.435l9.263-25.447h4.514L761.475,463.958z
				 M754.327,453.96l-4.46-12.492l-4.478,12.492H754.327z"/>
		</g>
		<path id="A-point" d="M755.991,497.798c0,3.324-2.688,6.011-6.001,6.011l0,0c-3.313,0-6-2.688-6-6.011l0,0c0-3.313,2.688-6,6-6
			l0,0C753.308,491.798,755.991,494.483,755.991,497.798L755.991,497.798z"/>
	</g>
</g>
</svg>
