<?xml version="1.0" encoding="utf-8"?>
<!-- Generator: Adobe Illustrator 16.0.0, SVG Export Plug-In . SVG Version: 6.00 Build 0)  -->
<!DOCTYPE svg PUBLIC "-//W3C//DTD SVG 1.1//EN" "http://www.w3.org/Graphics/SVG/1.1/DTD/svg11.dtd">
<svg version="1.1" id="A-detailCircle" xmlns="http://www.w3.org/2000/svg" xmlns:xlink="http://www.w3.org/1999/xlink" x="0px"
	 y="0px" width="1186px" height="791.064px" viewBox="0 0 1186 791.064" enable-background="new 0 0 1186 791.064"
	 xml:space="preserve">
<g id="A-SVGGroupSteps">
	<g id="A-SVGStep3">
		<g id="mathText">
			<path d="M1036.948,317.625h-3.604l-2.494-7.092h-11.006l-2.496,7.092h-3.437l9.265-25.447h4.512L1036.948,317.625z
				 M1029.805,307.627l-4.461-12.493l-4.479,12.493H1029.805z"/>
			<path d="M1060.002,309.798c0,1.265-0.238,2.381-0.719,3.35c-0.479,0.969-1.123,1.766-1.932,2.393
				c-0.957,0.752-2.008,1.288-3.153,1.606c-1.145,0.319-2.601,0.479-4.364,0.479h-9.023v-25.447h7.537
				c1.854,0,3.246,0.068,4.17,0.205c0.922,0.137,1.805,0.422,2.648,0.854c0.934,0.49,1.61,1.12,2.031,1.888
				c0.422,0.77,0.635,1.689,0.635,2.76c0,1.208-0.31,2.236-0.925,3.084c-0.613,0.849-1.436,1.53-2.461,2.042v0.137
				c1.722,0.354,3.076,1.108,4.067,2.264C1059.507,306.571,1060.002,308.032,1060.002,309.798z M1054.312,298.331
				c0-0.615-0.103-1.133-0.308-1.555c-0.205-0.421-0.536-0.763-0.991-1.025c-0.536-0.308-1.188-0.498-1.948-0.572
				c-0.764-0.074-1.709-0.111-2.837-0.111h-4.033v7.349h4.375c1.062,0,1.902-0.054,2.529-0.162c0.626-0.108,1.207-0.333,1.743-0.675
				c0.535-0.342,0.914-0.783,1.137-1.325C1054.198,299.712,1054.312,299.071,1054.312,298.331z M1056.483,309.935
				c0-1.025-0.154-1.84-0.462-2.444s-0.866-1.116-1.675-1.538c-0.547-0.285-1.211-0.47-1.991-0.555
				c-0.78-0.086-1.729-0.128-2.845-0.128h-5.315v9.468h4.479c1.479,0,2.692-0.077,3.641-0.231c0.945-0.153,1.72-0.436,2.324-0.846
				c0.638-0.444,1.104-0.951,1.398-1.521C1056.334,311.57,1056.483,310.835,1056.483,309.935z"/>
			<path d="M1085.842,304.261h-20.27v-2.734h20.27V304.261z M1085.842,311.438h-20.27v-2.734h20.27V311.438z"/>
			<path d="M1108.555,317.625h-13.774v-2.598h5.298v-17.056h-5.298v-2.324c0.718,0,1.487-0.06,2.31-0.18
				c0.818-0.119,1.438-0.293,1.86-0.521c0.523-0.285,0.938-0.646,1.239-1.085c0.302-0.438,0.477-1.028,0.521-1.769h2.646v22.935
				h5.195L1108.555,317.625L1108.555,317.625z"/>
		</g>
	</g>
	<g id="A-SVGStep2">
		<path id="A-point_1_" d="M971.697,385.532c0,3.313-2.688,6-6,6l0,0c-3.313,0-6-2.688-6-6l0,0c0-3.314,2.688-6,6-6l0,0
			C969.01,379.532,971.697,382.218,971.697,385.532L971.697,385.532z"/>
		<path id="A-point_2_" d="M610.635,385.532c0,3.313-2.688,6-6,6l0,0c-3.313,0-6-2.688-6-6l0,0c0-3.314,2.688-6,6-6l0,0
			C607.948,379.532,610.635,382.218,610.635,385.532L610.635,385.532z"/>
		
			<line id="geo_1_" fill="none" stroke="#000000" stroke-width="2" stroke-miterlimit="10" x1="604.636" y1="385.532" x2="965.697" y2="385.532"/>
		<g id="A-text_1_">
			<g>
				<path d="M951.25,368.297c0,1.265-0.237,2.381-0.718,3.35c-0.479,0.969-1.123,1.766-1.932,2.393
					c-0.957,0.752-2.008,1.288-3.153,1.606c-1.145,0.319-2.601,0.479-4.366,0.479h-9.021v-25.447h7.537
					c1.854,0,3.246,0.068,4.17,0.205c0.922,0.137,1.805,0.422,2.646,0.854c0.936,0.49,1.612,1.12,2.033,1.888
					c0.422,0.77,0.633,1.689,0.633,2.76c0,1.208-0.308,2.236-0.923,3.084c-0.613,0.849-1.436,1.53-2.461,2.042v0.137
					c1.72,0.354,3.076,1.108,4.067,2.264C950.756,365.07,951.25,366.531,951.25,368.297z M945.561,356.83
					c0-0.615-0.104-1.133-0.308-1.555c-0.205-0.421-0.536-0.763-0.991-1.025c-0.536-0.308-1.188-0.498-1.948-0.572
					c-0.764-0.074-1.709-0.111-2.837-0.111h-4.033v7.349h4.375c1.062,0,1.902-0.054,2.529-0.162
					c0.626-0.108,1.207-0.333,1.743-0.675c0.533-0.342,0.914-0.783,1.137-1.325C945.448,358.211,945.561,357.57,945.561,356.83z
					 M947.732,368.434c0-1.025-0.154-1.84-0.462-2.444c-0.308-0.604-0.866-1.116-1.675-1.538c-0.547-0.285-1.211-0.47-1.991-0.555
					c-0.78-0.086-1.729-0.128-2.845-0.128h-5.315v9.468h4.479c1.479,0,2.692-0.077,3.641-0.231c0.945-0.153,1.72-0.436,2.324-0.846
					c0.638-0.444,1.104-0.951,1.398-1.521C947.581,370.069,947.732,369.334,947.732,368.434z"/>
			</g>
			<g>
				<path d="M637.061,376.124h-3.606l-2.492-7.092h-11.008l-2.495,7.092h-3.436l9.263-25.447h4.514L637.061,376.124z
					 M629.916,366.126l-4.462-12.493l-4.477,12.493H629.916z"/>
			</g>
		</g>
	</g>
	<g id="A-SVGStep1">
		<path id="A-point" d="M610.635,385.532c0,3.313-2.688,6-6,6l0,0c-3.313,0-6-2.688-6-6l0,0c0-3.314,2.688-6,6-6l0,0
			C607.948,379.532,610.635,382.218,610.635,385.532L610.635,385.532z"/>
		<circle id="geo" fill="none" stroke="#000000" stroke-width="2" stroke-miterlimit="10" cx="604.636" cy="385.532" r="361.062"/>
		<g id="A-text">
			<path d="M637.061,376.124h-3.606l-2.492-7.092h-11.008l-2.495,7.092h-3.436l9.263-25.447h4.514L637.061,376.124z
				 M629.916,366.126l-4.462-12.493l-4.477,12.493H629.916z"/>
		</g>
	</g>
</g>
</svg>
