<?xml version="1.0" encoding="utf-8"?>
<!-- Generator: Adobe Illustrator 16.0.0, SVG Export Plug-In . SVG Version: 6.00 Build 0)  -->
<!DOCTYPE svg PUBLIC "-//W3C//DTD SVG 1.1//EN" "http://www.w3.org/Graphics/SVG/1.1/DTD/svg11.dtd">
<svg version="1.1" id="A-detailTriquetra" xmlns="http://www.w3.org/2000/svg" xmlns:xlink="http://www.w3.org/1999/xlink" x="0px"
	 y="0px" width="1186px" height="791.064px" viewBox="0 0 1186 791.064" enable-background="new 0 0 1186 791.064"
	 xml:space="preserve">
<g id="A-SVGGroupSteps">
	<g id="A-SVGStep13">
		
			<line id="geo_8_" fill="none" stroke="#000000" stroke-width="2" stroke-miterlimit="10" x1="478.9" y1="137.418" x2="478.9" y2="629.383"/>
		<path id="A-text_18_" d="M475.198,643.685h-12.869v7.18h11.059v3.008h-11.059v12.254h-3.384v-25.447h16.252L475.198,643.685
			L475.198,643.685z"/>
		<path id="A-text_17_" d="M475.711,126.79h-16.767v-25.447h16.767v3.008h-13.383v6.973h13.383v3.008h-13.383v9.451h13.383V126.79z"
			/>
		<path id="A-point_19_" d="M484.75,629.383c0,3.313-2.688,6-6,6l0,0c-3.313,0-6-2.688-6-6l0,0c0-3.314,2.688-6,6-6l0,0
			C482.063,623.383,484.75,626.068,484.75,629.383L484.75,629.383z"/>
		<path id="A-point_20_" d="M484.9,137.418c0,3.313-2.688,6-6,6l0,0c-3.313,0-6-2.688-6-6l0,0c0-3.314,2.688-6,6-6l0,0
			C482.212,131.418,484.9,134.104,484.9,137.418L484.9,137.418z"/>
	</g>
	<g id="A-SVGStep12">
		
			<line id="geo_7_" fill="none" stroke="#000000" stroke-width="2" stroke-miterlimit="10" x1="905.398" y1="383.532" x2="478.763" y2="629.383"/>
		<path id="A-text_15_" d="M943.778,383.427c0,2.313-0.504,4.408-1.513,6.289c-1.008,1.879-2.352,3.338-4.024,4.375
			c-1.162,0.717-2.458,1.236-3.888,1.555s-3.313,0.479-5.648,0.479h-6.426v-25.447h6.357c2.481,0,4.457,0.18,5.922,0.539
			c1.463,0.358,2.703,0.852,3.717,1.479c1.731,1.082,3.082,2.523,4.051,4.323C943.294,378.818,943.778,380.954,943.778,383.427z
			 M940.24,383.375c0-1.993-0.348-3.675-1.042-5.042c-0.693-1.367-1.729-2.443-3.108-3.229c-1.003-0.569-2.068-0.966-3.195-1.188
			c-1.129-0.223-2.479-0.333-4.051-0.333h-3.181v19.636h3.181c1.629,0,3.051-0.12,4.264-0.358c1.214-0.24,2.327-0.684,3.342-1.334
			c1.265-0.809,2.213-1.873,2.845-3.195C939.925,387.01,940.24,385.357,940.24,383.375z"/>
		<path id="A-point_17_" d="M911.398,383.532c0,3.313-2.688,6-6,6l0,0c-3.313,0-6-2.688-6-6l0,0c0-3.314,2.688-6,6-6l0,0
			C908.711,377.532,911.398,380.218,911.398,383.532L911.398,383.532z"/>
		<path id="A-point_18_" d="M484.75,629.383c0,3.313-2.688,6-6,6l0,0c-3.313,0-6-2.688-6-6l0,0c0-3.314,2.688-6,6-6l0,0
			C482.063,623.383,484.75,626.068,484.75,629.383L484.75,629.383z"/>
		<g id="A-text_16_" enable-background="new    ">
			<path d="M475.198,643.685h-12.869v7.18h11.059v3.008h-11.059v12.254h-3.384v-25.447h16.252L475.198,643.685L475.198,643.685z"/>
		</g>
	</g>
	<g id="A-SVGStep11">
		
			<line id="geo_6_" fill="none" stroke="#000000" stroke-width="2" stroke-miterlimit="10" x1="478.9" y1="137.418" x2="905.398" y2="383.532"/>
		<path id="A-text_14_" d="M475.711,126.79h-16.767v-25.447h16.767v3.008h-13.383v6.973h13.383v3.008h-13.383v9.451h13.383V126.79z"
			/>
		<path id="A-text_13_" d="M943.778,383.427c0,2.313-0.504,4.408-1.513,6.289c-1.008,1.879-2.352,3.338-4.024,4.375
			c-1.162,0.717-2.458,1.236-3.888,1.555s-3.313,0.479-5.648,0.479h-6.426v-25.447h6.357c2.481,0,4.457,0.18,5.922,0.539
			c1.463,0.358,2.703,0.852,3.717,1.479c1.731,1.082,3.082,2.523,4.051,4.323C943.294,378.818,943.778,380.954,943.778,383.427z
			 M940.24,383.375c0-1.993-0.348-3.675-1.042-5.042c-0.693-1.367-1.729-2.443-3.108-3.229c-1.003-0.569-2.068-0.966-3.195-1.188
			c-1.129-0.223-2.479-0.333-4.051-0.333h-3.181v19.636h3.181c1.629,0,3.051-0.12,4.264-0.358c1.214-0.24,2.327-0.684,3.342-1.334
			c1.265-0.809,2.213-1.873,2.845-3.195C939.925,387.01,940.24,385.357,940.24,383.375z"/>
		<path id="A-point_15_" d="M484.9,137.418c0,3.313-2.688,6-6,6l0,0c-3.313,0-6-2.688-6-6l0,0c0-3.314,2.688-6,6-6l0,0
			C482.212,131.418,484.9,134.104,484.9,137.418L484.9,137.418z"/>
		<path id="A-point_16_" d="M911.398,383.532c0,3.313-2.688,6-6,6l0,0c-3.313,0-6-2.688-6-6l0,0c0-3.314,2.688-6,6-6l0,0
			C908.711,377.532,911.398,380.218,911.398,383.532L911.398,383.532z"/>
	</g>
	<g id="A-SVGStep10">
		<path id="A-point_14_" d="M484.75,629.383c0,3.313-2.688,6-6,6l0,0c-3.313,0-6-2.688-6-6l0,0c0-3.314,2.688-6,6-6l0,0
			C482.063,623.383,484.75,626.068,484.75,629.383L484.75,629.383z"/>
		<g id="A-text_12_" enable-background="new    ">
			<path d="M475.198,643.685h-12.869v7.18h11.059v3.008h-11.059v12.254h-3.384v-25.447h16.252L475.198,643.685L475.198,643.685z"/>
		</g>
	</g>
	<g id="A-SVGStep9">
		<path id="A-point_13_" d="M484.9,137.418c0,3.313-2.688,6-6,6l0,0c-3.313,0-6-2.688-6-6l0,0c0-3.314,2.688-6,6-6l0,0
			C482.212,131.418,484.9,134.104,484.9,137.418L484.9,137.418z"/>
		<g id="A-text_9_" enable-background="new    ">
			<path d="M475.711,126.79h-16.767v-25.447h16.767v3.008h-13.383v6.973h13.383v3.008h-13.383v9.451h13.383V126.79z"/>
		</g>
	</g>
	<g id="A-SVGStep8">
		<path id="A-text_11_" d="M714.758,240.63c0,1.265-0.238,2.382-0.717,3.35c-0.479,0.969-1.123,1.767-1.934,2.393
			c-0.957,0.752-2.008,1.288-3.153,1.606c-1.145,0.319-2.601,0.479-4.364,0.479h-9.023V223.01h7.537c1.855,0,3.246,0.068,4.17,0.205
			c0.922,0.137,1.805,0.422,2.648,0.855c0.934,0.489,1.609,1.119,2.031,1.888c0.424,0.77,0.635,1.689,0.635,2.761
			c0,1.207-0.31,2.235-0.925,3.084c-0.613,0.85-1.436,1.529-2.461,2.043v0.137c1.722,0.353,3.076,1.107,4.067,2.264
			C714.263,237.403,714.758,238.864,714.758,240.63z M709.067,229.162c0-0.615-0.103-1.133-0.308-1.555
			c-0.205-0.421-0.535-0.763-0.991-1.025c-0.536-0.308-1.186-0.498-1.948-0.572c-0.763-0.074-1.709-0.111-2.837-0.111h-4.033v7.349
			h4.375c1.062,0,1.902-0.054,2.529-0.162c0.626-0.108,1.208-0.333,1.743-0.675c0.535-0.342,0.914-0.783,1.137-1.325
			C708.954,230.544,709.067,229.903,709.067,229.162z M711.238,240.767c0-1.025-0.153-1.84-0.462-2.444
			c-0.308-0.604-0.866-1.116-1.675-1.537c-0.547-0.285-1.211-0.471-1.991-0.556c-0.78-0.086-1.729-0.128-2.845-0.128h-5.315v9.467
			h4.479c1.479,0,2.692-0.076,3.641-0.23c0.945-0.153,1.72-0.436,2.324-0.846c0.637-0.444,1.104-0.951,1.4-1.521
			C711.09,242.401,711.238,241.667,711.238,240.767z"/>
		<path id="A-text_10_" d="M462.267,394.278c-0.627,0.273-1.194,0.529-1.7,0.77c-0.507,0.238-1.171,0.489-1.991,0.752
			c-0.693,0.216-1.45,0.401-2.265,0.555c-0.814,0.154-1.712,0.23-2.691,0.23c-1.846,0-3.521-0.259-5.031-0.777
			c-1.512-0.518-2.823-1.33-3.939-2.436c-1.094-1.082-1.948-2.457-2.563-4.127c-0.615-1.669-0.925-3.608-0.925-5.818
			c0-2.097,0.296-3.971,0.891-5.623c0.592-1.651,1.445-3.048,2.563-4.188c1.082-1.104,2.392-1.947,3.922-2.529
			c1.532-0.58,3.232-0.871,5.103-0.871c1.367,0,2.729,0.165,4.093,0.496c1.361,0.33,2.874,0.911,4.537,1.742v4.017h-0.256
			c-1.401-1.173-2.792-2.027-4.17-2.563c-1.379-0.535-2.854-0.803-4.428-0.803c-1.286,0-2.445,0.208-3.478,0.623
			c-1.032,0.416-1.952,1.063-2.76,1.939c-0.786,0.855-1.399,1.935-1.837,3.239c-0.438,1.304-0.658,2.812-0.658,4.521
			c0,1.788,0.242,3.326,0.726,4.613c0.484,1.288,1.108,2.336,1.872,3.145c0.797,0.844,1.729,1.468,2.794,1.872
			c1.065,0.404,2.19,0.606,3.375,0.606c1.629,0,3.156-0.279,4.58-0.838c1.424-0.558,2.757-1.395,3.999-2.512h0.239L462.267,394.278
			L462.267,394.278z"/>
		<circle id="geo_5_" fill="none" stroke="#000000" stroke-width="2" stroke-miterlimit="10" cx="479.179" cy="383.4" r="245.982"/>
		<path id="A-point_11_" d="M484.901,383.561c0,3.313-2.688,6-6,6l0,0c-3.313,0-6-2.689-6-6l0,0c0-3.314,2.688-6,6-6l0,0
			C482.213,377.561,484.901,380.247,484.901,383.561L484.901,383.561z"/>
		<path id="A-point_12_" d="M698.115,260.49c0,3.313-2.688,6-6,6l0,0c-3.313,0-6-2.688-6-6l0,0c0-3.314,2.688-6,6-6l0,0
			C695.429,254.49,698.115,257.176,698.115,260.49L698.115,260.49z"/>
	</g>
	<g id="A-SVGStep7">
		
			<line id="geo_4_" fill="none" stroke="#000000" stroke-width="2" stroke-miterlimit="10" x1="478.9" y1="383.561" x2="692.115" y2="506.633"/>
		<path id="A-text_8_" d="M462.267,394.278c-0.627,0.273-1.194,0.529-1.7,0.77c-0.507,0.238-1.171,0.489-1.991,0.752
			c-0.693,0.216-1.45,0.401-2.265,0.555c-0.814,0.154-1.712,0.23-2.691,0.23c-1.846,0-3.521-0.259-5.031-0.777
			c-1.512-0.518-2.823-1.33-3.939-2.436c-1.094-1.082-1.948-2.457-2.563-4.127c-0.615-1.669-0.925-3.608-0.925-5.818
			c0-2.097,0.296-3.971,0.891-5.623c0.592-1.651,1.445-3.048,2.563-4.188c1.082-1.104,2.392-1.947,3.922-2.529
			c1.532-0.58,3.232-0.871,5.103-0.871c1.367,0,2.729,0.165,4.093,0.496c1.361,0.33,2.874,0.911,4.537,1.742v4.017h-0.256
			c-1.401-1.173-2.792-2.027-4.17-2.563c-1.379-0.535-2.854-0.803-4.428-0.803c-1.286,0-2.445,0.208-3.478,0.623
			c-1.032,0.416-1.952,1.063-2.76,1.939c-0.786,0.855-1.399,1.935-1.837,3.239c-0.438,1.304-0.658,2.812-0.658,4.521
			c0,1.788,0.242,3.326,0.726,4.613c0.484,1.288,1.108,2.336,1.872,3.145c0.797,0.844,1.729,1.468,2.794,1.872
			c1.065,0.404,2.19,0.606,3.375,0.606c1.629,0,3.156-0.279,4.58-0.838c1.424-0.558,2.757-1.395,3.999-2.512h0.239L462.267,394.278
			L462.267,394.278z"/>
		<path id="A-text_7_" d="M715.597,540.791h-3.606l-2.494-7.092H698.49l-2.496,7.092h-3.435l9.263-25.447h4.514L715.597,540.791z
			 M708.451,530.793l-4.461-12.492l-4.477,12.492H708.451z"/>
		<path id="A-point_9_" d="M484.901,383.561c0,3.313-2.688,6-6,6l0,0c-3.313,0-6-2.689-6-6l0,0c0-3.314,2.688-6,6-6l0,0
			C482.213,377.561,484.901,380.247,484.901,383.561L484.901,383.561z"/>
		<path id="A-point_10_" d="M698.115,506.633c0,3.313-2.688,6-6,6l0,0c-3.313,0-6-2.688-6-6l0,0c0-3.313,2.688-6,6-6l0,0
			C695.428,500.633,698.115,503.318,698.115,506.633L698.115,506.633z"/>
	</g>
	<g id="A-SVGStep6">
		
			<line id="geo_3_" fill="none" stroke="#000000" stroke-width="2" stroke-miterlimit="10" x1="478.901" y1="383.561" x2="692.15" y2="260.479"/>
		<path id="A-point_7_" d="M484.901,383.561c0,3.313-2.688,6-6,6l0,0c-3.313,0-6-2.689-6-6l0,0c0-3.314,2.688-6,6-6l0,0
			C482.213,377.561,484.901,380.247,484.901,383.561L484.901,383.561z"/>
		<path id="A-point_8_" d="M698.115,260.49c0,3.313-2.688,6-6,6l0,0c-3.313,0-6-2.688-6-6l0,0c0-3.314,2.688-6,6-6l0,0
			C695.429,254.49,698.115,257.176,698.115,260.49L698.115,260.49z"/>
		<path id="A-text_6_" d="M462.267,394.278c-0.627,0.273-1.194,0.529-1.7,0.77c-0.507,0.238-1.171,0.489-1.991,0.752
			c-0.693,0.216-1.45,0.401-2.265,0.555c-0.814,0.154-1.712,0.23-2.691,0.23c-1.846,0-3.521-0.259-5.031-0.777
			c-1.512-0.518-2.823-1.33-3.939-2.436c-1.094-1.082-1.948-2.457-2.563-4.127c-0.615-1.669-0.925-3.608-0.925-5.818
			c0-2.097,0.296-3.971,0.891-5.623c0.592-1.651,1.445-3.048,2.563-4.188c1.082-1.104,2.392-1.947,3.922-2.529
			c1.532-0.58,3.232-0.871,5.103-0.871c1.367,0,2.729,0.165,4.093,0.496c1.361,0.33,2.874,0.911,4.537,1.742v4.017h-0.256
			c-1.401-1.173-2.792-2.027-4.17-2.563c-1.379-0.535-2.854-0.803-4.428-0.803c-1.286,0-2.445,0.208-3.478,0.623
			c-1.032,0.416-1.952,1.063-2.76,1.939c-0.786,0.855-1.399,1.935-1.837,3.239c-0.438,1.304-0.658,2.812-0.658,4.521
			c0,1.788,0.242,3.326,0.726,4.613c0.484,1.288,1.108,2.336,1.872,3.145c0.797,0.844,1.729,1.468,2.794,1.872
			c1.065,0.404,2.19,0.606,3.375,0.606c1.629,0,3.156-0.279,4.58-0.838c1.424-0.558,2.757-1.395,3.999-2.512h0.239L462.267,394.278
			L462.267,394.278z"/>
		<path id="A-text_5_" d="M714.758,240.63c0,1.265-0.238,2.382-0.717,3.35c-0.479,0.969-1.123,1.767-1.934,2.393
			c-0.957,0.752-2.008,1.288-3.153,1.606c-1.145,0.319-2.601,0.479-4.364,0.479h-9.023V223.01h7.537c1.855,0,3.246,0.068,4.17,0.205
			c0.922,0.137,1.805,0.422,2.648,0.855c0.934,0.489,1.609,1.119,2.031,1.888c0.424,0.77,0.635,1.689,0.635,2.761
			c0,1.207-0.31,2.235-0.925,3.084c-0.613,0.85-1.436,1.529-2.461,2.043v0.137c1.722,0.353,3.076,1.107,4.067,2.264
			C714.263,237.403,714.758,238.864,714.758,240.63z M709.067,229.162c0-0.615-0.103-1.133-0.308-1.555
			c-0.205-0.421-0.535-0.763-0.991-1.025c-0.536-0.308-1.186-0.498-1.948-0.572c-0.763-0.074-1.709-0.111-2.837-0.111h-4.033v7.349
			h4.375c1.062,0,1.902-0.054,2.529-0.162c0.626-0.108,1.208-0.333,1.743-0.675c0.535-0.342,0.914-0.783,1.137-1.325
			C708.954,230.544,709.067,229.903,709.067,229.162z M711.238,240.767c0-1.025-0.153-1.84-0.462-2.444
			c-0.308-0.604-0.866-1.116-1.675-1.537c-0.547-0.285-1.211-0.471-1.991-0.556c-0.78-0.086-1.729-0.128-2.845-0.128h-5.315v9.467
			h4.479c1.479,0,2.692-0.076,3.641-0.23c0.945-0.153,1.72-0.436,2.324-0.846c0.637-0.444,1.104-0.951,1.4-1.521
			C711.09,242.401,711.238,241.667,711.238,240.767z"/>
	</g>
	<g id="A-SVGStep5">
		<path id="A-point_6_" d="M911.398,383.532c0,3.313-2.688,6-6,6l0,0c-3.313,0-6-2.688-6-6l0,0c0-3.314,2.688-6,6-6l0,0
			C908.711,377.532,911.398,380.218,911.398,383.532L911.398,383.532z"/>
		<g id="A-text_4_" enable-background="new    ">
			<path d="M943.778,383.427c0,2.313-0.504,4.408-1.513,6.289c-1.008,1.879-2.352,3.338-4.024,4.375
				c-1.162,0.717-2.458,1.236-3.888,1.555s-3.313,0.479-5.648,0.479h-6.426v-25.447h6.357c2.481,0,4.457,0.18,5.922,0.539
				c1.463,0.358,2.703,0.852,3.717,1.479c1.731,1.082,3.082,2.523,4.051,4.323C943.294,378.818,943.778,380.954,943.778,383.427z
				 M940.24,383.375c0-1.993-0.348-3.675-1.042-5.042c-0.693-1.367-1.729-2.443-3.108-3.229c-1.003-0.569-2.068-0.966-3.195-1.188
				c-1.129-0.223-2.479-0.333-4.051-0.333h-3.181v19.636h3.181c1.629,0,3.051-0.12,4.264-0.358c1.214-0.24,2.327-0.684,3.342-1.334
				c1.265-0.809,2.213-1.873,2.845-3.195C939.925,387.01,940.24,385.357,940.24,383.375z"/>
		</g>
	</g>
	<g id="A-SVGStep4">
		<g id="A-text_3_" enable-background="new    ">
			<path d="M462.267,394.278c-0.627,0.273-1.194,0.529-1.7,0.77c-0.507,0.238-1.171,0.489-1.991,0.752
				c-0.693,0.216-1.45,0.401-2.265,0.555c-0.814,0.154-1.712,0.23-2.691,0.23c-1.846,0-3.521-0.259-5.031-0.777
				c-1.512-0.518-2.823-1.33-3.939-2.436c-1.094-1.082-1.948-2.457-2.563-4.127c-0.615-1.669-0.925-3.608-0.925-5.818
				c0-2.097,0.296-3.971,0.891-5.623c0.592-1.651,1.445-3.048,2.563-4.188c1.082-1.104,2.392-1.947,3.922-2.529
				c1.532-0.58,3.232-0.871,5.103-0.871c1.367,0,2.729,0.165,4.093,0.496c1.361,0.33,2.874,0.911,4.537,1.742v4.017h-0.256
				c-1.401-1.173-2.792-2.027-4.17-2.563c-1.379-0.535-2.854-0.803-4.428-0.803c-1.286,0-2.445,0.208-3.478,0.623
				c-1.032,0.416-1.952,1.063-2.76,1.939c-0.786,0.855-1.399,1.935-1.837,3.239c-0.438,1.304-0.658,2.812-0.658,4.521
				c0,1.788,0.242,3.326,0.726,4.613c0.484,1.288,1.108,2.336,1.872,3.145c0.797,0.844,1.729,1.468,2.794,1.872
				c1.065,0.404,2.19,0.606,3.375,0.606c1.629,0,3.156-0.279,4.58-0.838c1.424-0.558,2.757-1.395,3.999-2.512h0.239L462.267,394.278
				L462.267,394.278z"/>
		</g>
		<path id="A-point_5_" d="M484.902,383.561c0,3.313-2.688,6-6,6l0,0c-3.313,0-6-2.689-6-6l0,0c0-3.314,2.688-6,6-6l0,0
			C482.214,377.561,484.902,380.247,484.902,383.561L484.902,383.561z"/>
	</g>
	<g id="A-SVGStep3">
		<g id="A-text_2_" enable-background="new    ">
			<path d="M714.758,240.63c0,1.265-0.238,2.382-0.717,3.35c-0.479,0.969-1.123,1.767-1.934,2.393
				c-0.957,0.752-2.008,1.288-3.153,1.606c-1.145,0.319-2.601,0.479-4.364,0.479h-9.023V223.01h7.537
				c1.855,0,3.246,0.068,4.17,0.205c0.922,0.137,1.805,0.422,2.648,0.855c0.934,0.489,1.609,1.119,2.031,1.888
				c0.424,0.77,0.635,1.689,0.635,2.761c0,1.207-0.31,2.235-0.925,3.084c-0.613,0.85-1.436,1.529-2.461,2.043v0.137
				c1.722,0.353,3.076,1.107,4.067,2.264C714.263,237.403,714.758,238.864,714.758,240.63z M709.067,229.162
				c0-0.615-0.103-1.133-0.308-1.555c-0.205-0.421-0.535-0.763-0.991-1.025c-0.536-0.308-1.186-0.498-1.948-0.572
				c-0.763-0.074-1.709-0.111-2.837-0.111h-4.033v7.349h4.375c1.062,0,1.902-0.054,2.529-0.162c0.626-0.108,1.208-0.333,1.743-0.675
				c0.535-0.342,0.914-0.783,1.137-1.325C708.954,230.544,709.067,229.903,709.067,229.162z M711.238,240.767
				c0-1.025-0.153-1.84-0.462-2.444c-0.308-0.604-0.866-1.116-1.675-1.537c-0.547-0.285-1.211-0.471-1.991-0.556
				c-0.78-0.086-1.729-0.128-2.845-0.128h-5.315v9.467h4.479c1.479,0,2.692-0.076,3.641-0.23c0.945-0.153,1.72-0.436,2.324-0.846
				c0.637-0.444,1.104-0.951,1.4-1.521C711.09,242.401,711.238,241.667,711.238,240.767z"/>
			<path d="M715.597,540.791h-3.606l-2.494-7.092H698.49l-2.496,7.092h-3.435l9.263-25.447h4.514L715.597,540.791z M708.451,530.793
				l-4.461-12.492l-4.477,12.492H708.451z"/>
		</g>
		<path id="A-point_3_" d="M698.115,260.49c0,3.313-2.688,6-6,6l0,0c-3.313,0-6-2.688-6-6l0,0c0-3.314,2.688-6,6-6l0,0
			C695.429,254.49,698.115,257.176,698.115,260.49L698.115,260.49z"/>
		<path id="A-point_4_" d="M698.115,506.633c0,3.313-2.688,6-6,6l0,0c-3.313,0-6-2.688-6-6l0,0c0-3.313,2.688-6,6-6l0,0
			C695.428,500.633,698.115,503.318,698.115,506.633L698.115,506.633z"/>
		<path id="geo_2_" fill="none" stroke="#000000" stroke-width="2" stroke-miterlimit="10" d="M938.273,260.479
			c0,135.948-110.215,246.154-246.158,246.154S445.956,396.427,445.956,260.479S556.171,14.324,692.115,14.324
			S938.273,124.53,938.273,260.479z"/>
	</g>
	<g id="A-SVGStep2">
		<path id="A-point_1_" d="M698.115,260.49c0,3.313-2.688,6-6,6l0,0c-3.313,0-6-2.688-6-6l0,0c0-3.314,2.688-6,6-6l0,0
			C695.429,254.49,698.115,257.176,698.115,260.49L698.115,260.49z"/>
		<path id="A-point_2_" d="M698.115,506.633c0,3.313-2.688,6-6,6l0,0c-3.313,0-6-2.688-6-6l0,0c0-3.313,2.688-6,6-6l0,0
			C695.428,500.633,698.115,503.318,698.115,506.633L698.115,506.633z"/>
		<g id="A-text_1_" enable-background="new    ">
			<path d="M714.758,240.63c0,1.265-0.238,2.382-0.717,3.35c-0.479,0.969-1.123,1.767-1.934,2.393
				c-0.957,0.752-2.008,1.288-3.153,1.606c-1.145,0.319-2.601,0.479-4.364,0.479h-9.023V223.01h7.537
				c1.855,0,3.246,0.068,4.17,0.205c0.922,0.137,1.805,0.422,2.648,0.855c0.934,0.489,1.609,1.119,2.031,1.888
				c0.424,0.77,0.635,1.689,0.635,2.761c0,1.207-0.31,2.235-0.925,3.084c-0.613,0.85-1.436,1.529-2.461,2.043v0.137
				c1.722,0.353,3.076,1.107,4.067,2.264C714.263,237.403,714.758,238.864,714.758,240.63z M709.067,229.162
				c0-0.615-0.103-1.133-0.308-1.555c-0.205-0.421-0.535-0.763-0.991-1.025c-0.536-0.308-1.186-0.498-1.948-0.572
				c-0.763-0.074-1.709-0.111-2.837-0.111h-4.033v7.349h4.375c1.062,0,1.902-0.054,2.529-0.162c0.626-0.108,1.208-0.333,1.743-0.675
				c0.535-0.342,0.914-0.783,1.137-1.325C708.954,230.544,709.067,229.903,709.067,229.162z M711.238,240.767
				c0-1.025-0.153-1.84-0.462-2.444c-0.308-0.604-0.866-1.116-1.675-1.537c-0.547-0.285-1.211-0.471-1.991-0.556
				c-0.78-0.086-1.729-0.128-2.845-0.128h-5.315v9.467h4.479c1.479,0,2.692-0.076,3.641-0.23c0.945-0.153,1.72-0.436,2.324-0.846
				c0.637-0.444,1.104-0.951,1.4-1.521C711.09,242.401,711.238,241.667,711.238,240.767z"/>
			<path d="M715.597,540.791h-3.606l-2.494-7.092H698.49l-2.496,7.092h-3.435l9.263-25.447h4.514L715.597,540.791z M708.451,530.793
				l-4.461-12.492l-4.477,12.492H708.451z"/>
		</g>
		
			<line id="geo" fill="none" stroke="#000000" stroke-width="2" stroke-miterlimit="10" x1="692.115" y1="506.633" x2="692.115" y2="260.479"/>
	</g>
	<g id="A-SVGStep1">
		<circle id="geo_1_" fill="none" stroke="#000000" stroke-width="2" stroke-miterlimit="10" cx="692.15" cy="506.618" r="246.14"/>
		<g id="A-text" enable-background="new    ">
			<path d="M715.597,540.791h-3.606l-2.494-7.092H698.49l-2.496,7.092h-3.435l9.263-25.447h4.514L715.597,540.791z M708.451,530.793
				l-4.461-12.492l-4.477,12.492H708.451z"/>
		</g>
		<path id="A-point" d="M698.115,506.633c0,3.313-2.688,6-6,6l0,0c-3.313,0-6-2.688-6-6l0,0c0-3.313,2.688-6,6-6l0,0
			C695.428,500.633,698.115,503.318,698.115,506.633L698.115,506.633z"/>
	</g>
</g>
</svg>
