<?xml version="1.0" encoding="utf-8"?>
<!-- Generator: Adobe Illustrator 16.0.0, SVG Export Plug-In . SVG Version: 6.00 Build 0)  -->
<!DOCTYPE svg PUBLIC "-//W3C//DTD SVG 1.1//EN" "http://www.w3.org/Graphics/SVG/1.1/DTD/svg11.dtd">
<svg version="1.1" id="A_detailEgg" xmlns="http://www.w3.org/2000/svg" xmlns:xlink="http://www.w3.org/1999/xlink" x="0px"
	 y="0px" width="1339.434px" height="1264.438px" viewBox="0 0 1339.434 1264.438" enable-background="new 0 0 1339.434 1264.438"
	 xml:space="preserve">
<g id="A_SVGSteps">
	<g id="A_SVGStep1">
		<circle fill="none" stroke="#FFFFFF" stroke-width="2" stroke-miterlimit="10" cx="669.709" cy="633.194" r="239.98"/>
		<text transform="matrix(1 0 0 1 658.0093 600.1992)" fill="#FFFFFF" font-family="'Verdana'" font-size="34.1236">A</text>
		<path fill="#FFFFFF" d="M675.561,633.193c0,3.23-2.62,5.851-5.851,5.851l0,0c-3.229,0-5.85-2.621-5.85-5.851l0,0
			c0-3.229,2.621-5.85,5.85-5.85l0,0C672.94,627.344,675.561,629.962,675.561,633.193L675.561,633.193z"/>
	</g>
	<g id="A_SVGStep2">
		<circle fill="none" stroke="#FFFFFF" stroke-width="2" stroke-miterlimit="10" cx="669.709" cy="393.214" r="239.98"/>
		<path fill="#FFFFFF" d="M675.559,393.214c0,3.23-2.62,5.85-5.85,5.85l0,0c-3.229,0-5.85-2.621-5.85-5.85l0,0
			c0-3.23,2.621-5.85,5.85-5.85l0,0C672.938,387.364,675.559,389.983,675.559,393.214L675.559,393.214z"/>
		<text transform="matrix(1 0 0 1 657.7842 368.8159)" fill="#FFFFFF" font-family="'Verdana'" font-size="34.1236">B</text>
	</g>
	<g id="A_SVGStep3">
		<path fill="#FFFFFF" d="M467.684,513.204c0,3.23-2.62,5.851-5.85,5.851l0,0c-3.229,0-5.85-2.622-5.85-5.851l0,0
			c0-3.23,2.622-5.85,5.85-5.85l0,0C465.064,507.354,467.684,509.972,467.684,513.204L467.684,513.204z"/>
		<text transform="matrix(1 0 0 1 418.6572 508.5532)" fill="#FFFFFF" font-family="'Verdana'" font-size="34.1236">C</text>
	</g>
	<g id="A_SVGStep4">
		<circle fill="none" stroke="#FFFFFF" stroke-width="2" stroke-miterlimit="10" cx="461.834" cy="513.204" r="239.98"/>
	</g>
	<g id="A_SVGStep5">
		<path fill="#FFFFFF" d="M467.683,753.184c0,3.229-2.62,5.85-5.85,5.85l0,0c-3.229,0-5.849-2.621-5.849-5.85l0,0
			c0-3.23,2.622-5.851,5.849-5.851l0,0C465.063,747.333,467.683,749.952,467.683,753.184L467.683,753.184z"/>
		<text transform="matrix(1 0 0 1 413.6567 787.6816)" fill="#FFFFFF" font-family="'Verdana'" font-size="34.1236">D</text>
	</g>
	<g id="A_SVGStep6">
		<circle fill="none" stroke="#FFFFFF" stroke-width="2" stroke-miterlimit="10" cx="461.833" cy="753.184" r="239.979"/>
	</g>
	<g id="A_SVGStep7">
		<path fill="#FFFFFF" d="M675.559,873.174c0,3.229-2.62,5.85-5.85,5.85l0,0c-3.23,0-5.85-2.621-5.85-5.85l0,0
			c0-3.23,2.622-5.85,5.85-5.85l0,0C672.938,867.324,675.559,869.942,675.559,873.174L675.559,873.174z"/>
		<text transform="matrix(1 0 0 1 657.855 923.1963)" fill="#FFFFFF" font-family="'Verdana'" font-size="34.1236">E</text>
	</g>
	<g id="A_SVGStep8">
		<circle fill="none" stroke="#FFFFFF" stroke-width="2" stroke-miterlimit="10" cx="669.708" cy="873.174" r="239.979"/>
	</g>
	<g id="A_SVGStep9">
		<path fill="#FFFFFF" d="M883.45,753.184c0,3.229-2.622,5.85-5.85,5.85l0,0c-3.231,0-5.851-2.621-5.851-5.85l0,0
			c0-3.23,2.621-5.851,5.851-5.851l0,0C880.83,747.333,883.45,749.952,883.45,753.184L883.45,753.184z"/>
		<text transform="matrix(1 0 0 1 900.7939 785.6816)" fill="#FFFFFF" font-family="'Verdana'" font-size="34.1236">F</text>
	</g>
	<g id="A_SVGStep10">
		<circle fill="none" stroke="#FFFFFF" stroke-width="2" stroke-miterlimit="10" cx="877.601" cy="753.184" r="239.979"/>
	</g>
	<g id="A_SVGStep11">
		<path fill="#FFFFFF" d="M883.45,513.205c0,3.23-2.622,5.85-5.85,5.85l0,0c-3.231,0-5.851-2.621-5.851-5.85l0,0
			c0-3.23,2.621-5.85,5.851-5.85l0,0C880.83,507.355,883.45,509.973,883.45,513.205L883.45,513.205z"/>
		<text transform="matrix(1 0 0 1 897.8945 506.5542)" fill="#FFFFFF" font-family="'Verdana'" font-size="34.1236">G</text>
	</g>
	<g id="A_SVGStep12">
		<circle fill="none" stroke="#FFFFFF" stroke-width="2" stroke-miterlimit="10" cx="877.601" cy="513.205" r="239.98"/>
	</g>
	<g id="A_SVGStep13">
		<path fill="#FFFFFF" d="M467.685,273.224c0,3.23-2.622,5.85-5.85,5.85l0,0c-3.231,0-5.851-2.621-5.851-5.85l0,0
			c0-3.23,2.621-5.85,5.851-5.85l0,0C465.064,267.375,467.685,269.992,467.685,273.224L467.685,273.224z"/>
		<text transform="matrix(1 0 0 1 433.1289 257.5737)" fill="#FFFFFF" font-family="'Verdana'" font-size="34.1236">H</text>
	</g>
	<g id="A_SVGStep14">
		<path fill="#FFFFFF" d="M259.817,633.172c0,3.23-2.622,5.85-5.85,5.85l0,0c-3.231,0-5.851-2.621-5.851-5.85l0,0
			c0-3.23,2.621-5.849,5.851-5.849l0,0C257.197,627.323,259.817,629.94,259.817,633.172L259.817,633.172z"/>
		<text transform="matrix(1 0 0 1 225.2612 644.0557)" fill="#FFFFFF" font-family="'Verdana'" font-size="34.1236">I</text>
	</g>
	<g id="A_SVGStep15">
		<path fill="#FFFFFF" d="M467.684,993.163c0,3.23-2.622,5.85-5.85,5.85l0,0c-3.231,0-5.851-2.621-5.851-5.85l0,0
			c0-3.229,2.621-5.849,5.851-5.849l0,0C465.063,987.314,467.684,989.932,467.684,993.163L467.684,993.163z"/>
		<text transform="matrix(1 0 0 1 440.1279 1030.0469)" fill="#FFFFFF" font-family="'Verdana'" font-size="34.1236">J</text>
	</g>
	<g id="A_SVGStep16">
		<path fill="#FFFFFF" d="M883.451,993.163c0,3.23-2.623,5.85-5.85,5.85l0,0c-3.232,0-5.852-2.621-5.852-5.85l0,0
			c0-3.229,2.621-5.849,5.852-5.849l0,0C880.83,987.314,883.451,989.932,883.451,993.163L883.451,993.163z"/>
		<text transform="matrix(1 0 0 1 882.1445 1026.5469)" fill="#FFFFFF" font-family="'Verdana'" font-size="34.1236">K</text>
	</g>
	<g id="A_SVGStep17">
		<path fill="#FFFFFF" d="M1091.317,633.172c0,3.23-2.623,5.85-5.85,5.85l0,0c-3.232,0-5.852-2.621-5.852-5.85l0,0
			c0-3.229,2.621-5.849,5.852-5.849l0,0C1088.696,627.323,1091.317,629.94,1091.317,633.172L1091.317,633.172z"/>
		<text transform="matrix(1 0 0 1 1099.5117 644.0557)" fill="#FFFFFF" font-family="'Verdana'" font-size="34.1236">L</text>
	</g>
	<g id="A_SVGStep18">
		<path fill="#FFFFFF" d="M883.451,273.225c0,3.23-2.623,5.85-5.85,5.85l0,0c-3.232,0-5.852-2.621-5.852-5.85l0,0
			c0-3.229,2.621-5.849,5.852-5.849l0,0C880.83,267.376,883.451,269.994,883.451,273.225L883.451,273.225z"/>
		<text transform="matrix(1 0 0 1 882.4512 265.1084)" fill="#FFFFFF" font-family="'Verdana'" font-size="34.1236">M</text>
	</g>
	<g id="A_SVGStep19">
		<circle fill="none" stroke="#FFFFFF" stroke-width="2" stroke-miterlimit="10" cx="461.833" cy="273.225" r="239.98"/>
	</g>
	<g id="A_SVGStep20">
		<circle fill="none" stroke="#FFFFFF" stroke-width="2" stroke-miterlimit="10" cx="253.966" cy="633.172" r="239.98"/>
	</g>
	<g id="A_SVGStep21">
		<circle fill="none" stroke="#FFFFFF" stroke-width="2" stroke-miterlimit="10" cx="461.833" cy="993.163" r="239.98"/>
	</g>
	<g id="A_SVGStep22">
		<circle fill="none" stroke="#FFFFFF" stroke-width="2" stroke-miterlimit="10" cx="877.6" cy="993.162" r="239.98"/>
	</g>
	<g id="A_SVGStep23">
		<circle fill="none" stroke="#FFFFFF" stroke-width="2" stroke-miterlimit="10" cx="1085.465" cy="633.194" r="239.98"/>
	</g>
	<g id="A_SVGStep24">
		<circle fill="none" stroke="#FFFFFF" stroke-width="2" stroke-miterlimit="10" cx="877.6" cy="273.225" r="239.98"/>
	</g>
</g>
</svg>
