<?xml version="1.0" encoding="utf-8"?>
<!-- Generator: Adobe Illustrator 16.0.0, SVG Export Plug-In . SVG Version: 6.00 Build 0)  -->
<!DOCTYPE svg PUBLIC "-//W3C//DTD SVG 1.1//EN" "http://www.w3.org/Graphics/SVG/1.1/DTD/svg11.dtd">
<svg version="1.1" id="A_triquetraLargeSVGGlow" xmlns="http://www.w3.org/2000/svg" xmlns:xlink="http://www.w3.org/1999/xlink" x="0px"
	y="0px" width="767.797px" height="791.064px" viewBox="0 0 767.797 791.064"
	enable-background="new 0 0 767.797 791.064" xml:space="preserve">

	<filter id="glow">
		<!--  blur the text at different levels -->
		<feGaussianBlur result="blur1" stdDeviation="5" in="SourceGraphic"></feGaussianBlur>
		<feGaussianBlur result="blur2" stdDeviation="10" in="SourceGraphic"></feGaussianBlur>
		<feGaussianBlur result="blur3" stdDeviation="20" in="SourceGraphic"></feGaussianBlur>
		<feGaussianBlur result="blur4" stdDeviation="30" in="SourceGraphic"></feGaussianBlur>
		<!--  merge all the blurs except for the first one  -->
		<feMerge result="blur-merged">
			<feMergeNode in="blur2"></feMergeNode>
			<feMergeNode in="blur3"></feMergeNode>
			<feMergeNode in="blur4"></feMergeNode>
		</feMerge>
		<!--  recolour the merged blurs 9966ff  -->

		<feColorMatrix type="matrix" result="colorBlur" in="blur-merged"
			values="0.45 0   0   0   0          0   0.21  0   0   0          0   0   0.99  0   0          0   0   0   1   0 ">
		</feColorMatrix>
		<feMerge>
			<feMergeNode in="colorBlur"></feMergeNode>
			<!--  largest blurs coloured red  -->
			<feMergeNode in="blur1"></feMergeNode>
			<!--   smallest blur left white  -->
			<feMergeNode in="SourceGraphic"></feMergeNode>
			<!--  original white text  -->
		</feMerge>
	</filter>

	<g id="A_SVGSteps" filter="url(#glow)">

		<g id="A_SVGStep1">
			<circle fill="none" stroke="#FFFFFF" stroke-width="2" stroke-miterlimit="10" cx="483.013" cy="512.633"
				r="246.143" />
			<text class="A_verbose" transform="matrix(1 0 0 1 483.0132 546.791)" fill="#FFFFFF" font-family="'Verdana'"
				font-size="35">A</text>
			<path fill="#FFFFFF" d="M489.014,512.633c0,3.313-2.688,6-6,6l0,0c-3.313,0-6-2.688-6-6l0,0c0-3.314,2.688-6,6-6l0,0
			C486.326,506.633,489.014,509.318,489.014,512.633L489.014,512.633z" />
		</g>
		<g id="A_SVGStep2">
			<path fill="#FFFFFF" d="M489.015,266.49c0,3.313-2.688,6-6,6l0,0c-3.313,0-6-2.688-6-6l0,0c0-3.314,2.688-6,6-6l0,0
			C486.327,260.49,489.015,263.176,489.015,266.49L489.015,266.49z" />
			<text class="A_verbose" transform="matrix(1 0 0 1 483.0474 254.457)" fill="#FFFFFF" font-family="'Verdana'"
				font-size="35">B</text>

			<line fill="none" stroke="#FFFFFF" stroke-width="2" stroke-miterlimit="10" x1="483.013" y1="266.49"
				x2="483.013" y2="512.633" />
		</g>
		<g id="A_SVGStep3">
			<circle fill="none" stroke="#FFFFFF" stroke-width="2" stroke-miterlimit="10" cx="483.013" cy="266.49"
				r="246.144" />
		</g>
		<g id="A_SVGStep4">
			<text class="A_verbose" transform="matrix(1 0 0 1 230.0938 402.124)" fill="#FFFFFF" font-family="'Verdana'"
				font-size="35">C</text>
			<path fill="#FFFFFF" d="M275.8,389.561c0,3.313-2.688,6-6,6l0,0c-3.313,0-6-2.689-6-6l0,0c0-3.314,2.688-6,6-6l0,0
			C273.112,383.561,275.8,386.247,275.8,389.561L275.8,389.561z" />
		</g>
		<g id="A_SVGStep5">
			<path fill="#FFFFFF" d="M702.297,389.532c0,3.313-2.688,6-6,6l0,0c-3.313,0-6-2.688-6-6l0,0c0-3.314,2.688-6,6-6l0,0
			C699.609,383.532,702.297,386.218,702.297,389.532L702.297,389.532z" />
			<text class="A_verbose" transform="matrix(1 0 0 1 709.7598 402.124)" fill="#FFFFFF" font-family="'Verdana'"
				font-size="35">D</text>
		</g>
		<g id="A_SVGStep6">
			<circle fill="none" stroke="#FFFFFF" stroke-width="2" stroke-miterlimit="10" cx="269.799" cy="389.561"
				r="246.143" />
		</g>
		<g id="A_SVGStep7">
			<path fill="#FFFFFF" d="M275.799,143.418c0,3.313-2.688,6-6,6l0,0c-3.313,0-6-2.688-6-6l0,0c0-3.314,2.688-6,6-6l0,0
			C273.111,137.418,275.799,140.104,275.799,143.418L275.799,143.418z" />
			<text class="A_verbose" transform="matrix(1 0 0 1 246.4268 132.7905)" fill="#FFFFFF" font-family="'Verdana'"
				font-size="35">E</text>
		</g>
		<g id="A_SVGStep8">
			<path fill="#FFFFFF" d="M275.799,635.704c0,3.313-2.688,6-6,6l0,0c-3.313,0-6-2.688-6-6l0,0c0-3.314,2.688-6,6-6l0,0
			C273.111,629.704,275.799,632.39,275.799,635.704L275.799,635.704z" />
			<text class="A_verbose" transform="matrix(1 0 0 1 246.4268 672.124)" fill="#FFFFFF" font-family="'Verdana'"
				font-size="35">F</text>
		</g>
		<g id="A_SVGStep9">
			<line fill="none" stroke="#FFFFFF" stroke-width="2" stroke-miterlimit="10" x1="269.8" y1="389.564"
				x2="483.013" y2="266.49" />
		</g>
		<g id="A_SVGStep10">
			<line fill="none" stroke="#FFFFFF" stroke-width="2" stroke-miterlimit="10" x1="483.013" y1="512.633"
				x2="269.8" y2="389.564" />
		</g>
		<g id="A_SVGStep11">

			<line fill="none" stroke="#FFFFFF" stroke-width="2" stroke-miterlimit="10" x1="269.799" y1="143.418"
				x2="696.297" y2="389.532" />
		</g>
		<g id="A_SVGStep12">

			<line fill="none" stroke="#FFFFFF" stroke-width="2" stroke-miterlimit="10" x1="696.297" y1="389.532"
				x2="269.799" y2="635.704" />
		</g>
		<g id="A_SVGStep13">

			<line fill="none" stroke="#FFFFFF" stroke-width="2" stroke-miterlimit="10" x1="269.799" y1="635.704"
				x2="269.799" y2="143.418" />
		</g>
	</g>
</svg>