<?xml version="1.0" encoding="utf-8"?>
<!-- Generator: Adobe Illustrator 16.0.0, SVG Export Plug-In . SVG Version: 6.00 Build 0)  -->
<!DOCTYPE svg PUBLIC "-//W3C//DTD SVG 1.1//EN" "http://www.w3.org/Graphics/SVG/1.1/DTD/svg11.dtd">
<svg version="1.1" id="A_vesicaPicsisLargeSVGGlow" xmlns="http://www.w3.org/2000/svg"
	xmlns:xlink="http://www.w3.org/1999/xlink" x="0px" y="0px" width="1187.375px" height="1231.438px"
	viewBox="0 0 1187.375 1231.438" enable-background="new 0 0 1187.375 1231.438" xml:space="preserve">

	<g id="A_SVGSteps">

		<g id="A_SVGStep1">
			<text transform="matrix(1 0 0 1 414.7124 727.4922)" fill="#FFFFFF" font-family="'Verdana'"
				font-size="35">A</text>

			<circle id="pointA" fill="none" stroke="#FFFFFF" stroke-width="2" stroke-miterlimit="10" cx="406.313"
				cy="739.369" r="361.063" />
			<path fill="#FFFFFF" d="M412.313,739.369c0,3.313-2.687,6-6,6l0,0c-3.313,0-6-2.688-6-6l0,0c0-3.314,2.688-6,6-6l0,0
			C409.626,733.369,412.313,736.055,412.313,739.369L412.313,739.369z" />
		</g>

		<g id="A_SVGStep2">
			<text transform="matrix(1 0 0 1 401.7124 363.6846)" fill="#FFFFFF" font-family="'Verdana'"
				font-size="35">B</text>

			<line fill="none" stroke="#FFFFFF" stroke-width="2" stroke-miterlimit="10" x1="406.313" y1="378.306"
				x2="406.313" y2="739.369" />
			<path fill="#FFFFFF" d="M412.313,378.306c0,3.314-2.687,6-6,6l0,0c-3.313,0-6-2.686-6-6l0,0c0-3.314,2.688-6,6-6l0,0
			C409.626,372.306,412.313,374.992,412.313,378.306L412.313,378.306z" />
		</g>

		<g id="A_SVGStep3">
			<circle fill="none" stroke="#FFFFFF" stroke-width="2" stroke-miterlimit="10" cx="406.313" cy="378.306"
				r="361.063" />
		</g>

		<g id="A_SVGStep4">
			<path fill="#FFFFFF" d="M84.557,558.838c0,3.314-2.687,6-6,6l0,0c-3.313,0-6-2.686-6-6l0,0c0-3.313,2.688-6,6-6l0,0
			C81.87,552.838,84.557,555.524,84.557,558.838L84.557,558.838z" />
			<text transform="matrix(1 0 0 1 45.1875 565.8374)" fill="#FFFFFF" font-family="'Verdana'"
				font-size="35">C</text>
		</g>

		<g id="A_SVGStep5">
			<path fill="#FFFFFF" d="M731.068,558.838c0,3.313-2.688,6-6,6l0,0c-3.313,0-6-2.687-6-6l0,0c0-3.313,2.688-6,6-6l0,0
			C728.382,552.838,731.068,555.523,731.068,558.838L731.068,558.838z" />
			<text transform="matrix(1 0 0 1 741.1875 564.8374)" fill="#FFFFFF" font-family="'Verdana'"
				font-size="35">D</text>
		</g>

		<g id="A_SVGStep6">
			<line fill="none" stroke="#FFFFFF" stroke-width="2" stroke-miterlimit="10" x1="93.557" y1="558.838"
				x2="719.068" y2="558.838" />
		</g>

		<g id="A_SVGStep7">
			<path fill="#FFFFFF" d="M412.313,558.838c0,3.313-2.687,6-6,6l0,0c-3.313,0-6-2.688-6-6l0,0c0-3.313,2.688-6,6-6l0,0
			C409.626,552.838,412.313,555.523,412.313,558.838L412.313,558.838z" />
			<text transform="matrix(1 0 0 1 418.3125 545.8379)" fill="#FFFFFF" font-family="'Verdana'"
				font-size="35">E</text>
		</g>

		<g id="A_SVGStep8">
			<line fill="none" stroke="#FFFFFF" stroke-width="2" stroke-miterlimit="10" x1="406.313" y1="378.306"
				x2="719.068" y2="558.838" />
		</g>

		<g id="A_SVGStep9">
			<text transform="matrix(1 0 0 1 807.668 497.8379)" fill="#FFFFFF" font-family="'Verdana'"
				font-size="35">AB=BD=1</text>
		</g>

		<g id="A_SVGStep10">
			<text transform="matrix(1 0 0 1 807.668 551.8374)" fill="#FFFFFF" font-family="'Verdana'"
				font-size="35">BE=½</text>
		</g>

		<g id="A_SVGStep11">
			<text transform="matrix(1 0 0 1 807.668 605.8374)" fill="#FFFFFF" font-family="'Verdana'"
				font-size="35">ED=</text>
			<text transform="matrix(1 0 0 1 883.1973 605.8374)" fill="#FFFFFF" font-family="'Verdana'"
				font-size="36">√‾‾‾‾‾</text>
			<text transform="matrix(1 0 0 1 911.668 605.8369)" fill="#FFFFFF" font-family="'Verdana'"
				font-size="35">BD</text>
			<text transform="matrix(1 0 0 1 963.0684 597.5117)" fill="#FFFFFF" font-family="'Verdana'"
				font-size="20.405">2 </text>
			<text transform="matrix(1 0 0 1 977.459 605.8369)" fill="#FFFFFF" font-family="'Verdana'"
				font-size="35">-BE</text>
			<text transform="matrix(1 0 0 1 1040.5479 597.5117)" fill="#FFFFFF" font-family="'Verdana'"
				font-size="20.405">2 </text>
			<text transform="matrix(1 0 0 1 1054.9375 605.8369)" fill="#FFFFFF" font-family="'Verdana'"
				font-size="35">=</text>
			<g>
				<text transform="matrix(1 0 0 1 1083.1875 587.3374)" fill="#FFFFFF" font-family="'Verdana'"
					font-size="35">√3</text>

				<text transform="matrix(1 0 0 1 1083.1875 605.3374)" fill="#FFFFFF" font-family="'Verdana'"
					font-size="35" letter-spacing="-5">——</text>
				<text transform="matrix(1 0 0 1 1096.1875 626.3379)" fill="#FFFFFF" font-family="'Verdana'"
					font-size="35">2</text>
			</g>
		</g>

		<g id="A_SVGStep12">
			<text transform="matrix(1 0 0 1 807.668 662.3398)" fill="#FFFFFF" font-family="'Verdana'"
				font-size="35">CD=2×ED=√3</text>
		</g>

	</g>
</svg>